<svg xmlns="http://www.w3.org/2000/svg" width="120" height="164" viewBox="0 0 120 164"><defs><style>.a{fill:none;}.b{fill:#333;}.c{fill:#cce1ff;}.d{fill:#eaf0f9;}.e{fill:#8a1454;}.f{fill:#002f85;}.g{fill:#6697dd;}</style></defs><g transform="translate(-58 -2343)"><rect class="a" width="120" height="164" transform="translate(58 2343)"/><g transform="translate(74.363 2343)"><g transform="translate(0 0)"><g transform="translate(0 47.587)"><path class="b" d="M767.287,238.509a1.417,1.417,0,0,1,.234-.771,41.337,41.337,0,0,1,10.662-10.658c.859-.564,1.668-1.031,2.447-1.483a36.549,36.549,0,0,0,13.547-13.553c.45-.781.916-1.582,1.479-2.442a1.4,1.4,0,0,1,1.177-.637h10.684a1.405,1.405,0,1,1,0,2.81H797.6c-.348.562-.664,1.107-.992,1.674a39.362,39.362,0,0,1-14.577,14.579c-.781.452-1.518.88-2.315,1.405a33.293,33.293,0,0,0-5.374,4.476,39.1,39.1,0,0,0-2.895,3.2h52.773a37.1,37.1,0,0,1,4.413-5.186,36.033,36.033,0,0,1,5.821-4.84c.859-.564,1.668-1.031,2.447-1.483a36.528,36.528,0,0,0,13.559-13.553c.052-.087.1-.176.156-.265H815.748a1.405,1.405,0,1,1,0-2.81h37.37a1.4,1.4,0,0,1,1.177,2.178c-.521.8-.947,1.532-1.4,2.311a39.363,39.363,0,0,1-14.577,14.579c-.781.452-1.518.88-2.315,1.405a38.579,38.579,0,0,0-9.851,9.85,1.408,1.408,0,0,1-1.177.635H768.69a1.405,1.405,0,0,1-1.405-1.405Z" transform="translate(-767.285 -208.965)"/></g><path class="c" d="M772.624,237.891a39.122,39.122,0,0,1,2.895-3.2,33.291,33.291,0,0,1,5.374-4.476c.8-.521,1.534-.949,2.315-1.405a39.363,39.363,0,0,0,14.577-14.579c.329-.568.644-1.112.992-1.675h7.549l.909,13.451H816.3l.062-13.451h35.426l-.156.265a36.532,36.532,0,0,1-13.552,13.554c-.781.451-1.585.918-2.447,1.483a36.034,36.034,0,0,0-5.822,4.84,37.1,37.1,0,0,0-4.413,5.186Z" transform="translate(-768.456 -162.166)"/><g transform="translate(0 37.259)"><path class="b" d="M767.287,225.283a1.417,1.417,0,0,1,.234-.771,41.343,41.343,0,0,1,10.662-10.662c.859-.564,1.668-1.031,2.447-1.483a36.549,36.549,0,0,0,13.547-13.553c.45-.781.916-1.582,1.479-2.442a1.405,1.405,0,0,1,1.177-.637h10.684a1.405,1.405,0,1,1,0,2.81H797.6c-.348.562-.664,1.107-.992,1.674A39.362,39.362,0,0,1,782.034,214.8c-.781.452-1.518.879-2.315,1.4a33.293,33.293,0,0,0-5.374,4.476,39.226,39.226,0,0,0-2.895,3.2h52.773a37.148,37.148,0,0,1,4.413-5.185,36.03,36.03,0,0,1,5.821-4.84c.859-.564,1.668-1.031,2.447-1.483a36.528,36.528,0,0,0,13.559-13.553c.052-.087.1-.176.156-.265H815.748a1.405,1.405,0,1,1,0-2.81h37.37a1.405,1.405,0,0,1,1.177,2.177c-.521.8-.947,1.532-1.4,2.312A39.357,39.357,0,0,1,838.32,214.8c-.781.452-1.518.879-2.315,1.4a38.569,38.569,0,0,0-9.851,9.848,1.406,1.406,0,0,1-1.177.635H768.69a1.405,1.405,0,0,1-1.405-1.405Z" transform="translate(-767.285 -195.735)"/></g><path class="c" d="M772.624,224.666a39.236,39.236,0,0,1,2.895-3.2,33.292,33.292,0,0,1,5.374-4.476c.8-.522,1.534-.949,2.315-1.4a39.363,39.363,0,0,0,14.577-14.579c.329-.568.644-1.112.992-1.675h7.549l.909,13.451H816.3l.062-13.451h35.426c-.052.089-.1.177-.156.265a36.524,36.524,0,0,1-13.552,13.554c-.781.451-1.585.918-2.447,1.483a36.036,36.036,0,0,0-5.821,4.84,37.134,37.134,0,0,0-4.413,5.185Z" transform="translate(-768.456 -159.267)"/><g transform="translate(0.782 26.601)"><path class="b" d="M768.287,211.367a1.4,1.4,0,0,1,.228-.764,40.981,40.981,0,0,1,10.567-10.566c.859-.56,1.653-1.023,2.425-1.47a36.214,36.214,0,0,0,13.428-13.432c.446-.771.907-1.568,1.465-2.42a1.4,1.4,0,0,1,1.171-.632h10.587a1.395,1.395,0,1,1,0,2.789h-9.823c-.346.557-.658,1.093-.984,1.66A39,39,0,0,1,782.9,200.98c-.774.449-1.5.872-2.294,1.389a33,33,0,0,0-5.326,4.437,38.964,38.964,0,0,0-2.869,3.167h52.3a36.853,36.853,0,0,1,4.372-5.139,35.572,35.572,0,0,1,5.769-4.8c.859-.56,1.654-1.023,2.426-1.47a36.213,36.213,0,0,0,13.427-13.432c.051-.087.1-.175.156-.262H816.315a1.395,1.395,0,0,1,0-2.789h37.033a1.394,1.394,0,0,1,1.166,2.158c-.515.789-.937,1.518-1.385,2.291a38.989,38.989,0,0,1-14.446,14.448c-.774.449-1.505.872-2.3,1.389a38.242,38.242,0,0,0-9.763,9.758,1.391,1.391,0,0,1-1.166.63H769.681a1.394,1.394,0,0,1-1.394-1.391Z" transform="translate(-768.287 -182.083)"/></g><path class="d" d="M773.576,210.756a38.95,38.95,0,0,1,2.869-3.167,32.991,32.991,0,0,1,5.326-4.437c.79-.517,1.521-.937,2.294-1.389a39,39,0,0,0,14.447-14.448c.326-.563.638-1.1.984-1.66h7.481l.9,13.331h8.978l.061-13.331h35.109c-.052.087-.1.175-.156.262a36.214,36.214,0,0,1-13.428,13.432c-.772.447-1.571.91-2.426,1.47a35.582,35.582,0,0,0-5.769,4.8,36.873,36.873,0,0,0-4.372,5.139Z" transform="translate(-768.665 -156.265)"/><g transform="translate(14.964 5.336)"><path class="e" d="M801.709,161.964a1.015,1.015,0,0,0-.881.509H799.9a5.316,5.316,0,0,0-1.2-2.888l.656-.656a1.015,1.015,0,1,0-.72-.72l-.656.656a5.315,5.315,0,0,0-2.889-1.2v-.927a1.013,1.013,0,1,0-1.015,0v.92a5.321,5.321,0,0,0-2.889,1.2l-.656-.656a1.015,1.015,0,1,0-.72.72l.656.656a5.316,5.316,0,0,0-1.2,2.888h-.924a1.015,1.015,0,1,0,0,1.015h.924a5.332,5.332,0,0,0,1.2,2.888l-.656.656a1.015,1.015,0,1,0,.72.72l.656-.656a5.326,5.326,0,0,0,2.889,1.2v.924a1.015,1.015,0,1,0,1.015,0v-.922a5.315,5.315,0,0,0,2.889-1.2l.656.656a1.015,1.015,0,1,0,.72-.72l-.656-.656a5.312,5.312,0,0,0,1.2-2.888h.924a1.015,1.015,0,1,0,.881-1.527Zm-8.812.763a.891.891,0,1,1,.891-.891h0a.893.893,0,0,1-.891.891Zm2.195,3.054a1.015,1.015,0,1,1,1.015-1.015h0A1.015,1.015,0,0,1,795.091,165.782Zm1.781-3.563a.763.763,0,1,1,.764-.763.764.764,0,0,1-.764.763Z" transform="translate(-786.453 -154.844)"/></g><g transform="translate(25.89 33.843)"><path class="e" d="M812.139,196.81a.782.782,0,0,0-.674.39h-.707a4.053,4.053,0,0,0-.918-2.212l.5-.5a.78.78,0,1,0-.551-.546l-.5.5a4.065,4.065,0,0,0-2.212-.919v-.707a.781.781,0,1,0-.781,0v.707a4.071,4.071,0,0,0-2.212.919l-.5-.5a.781.781,0,1,0-.551.546l.5.5a4.073,4.073,0,0,0-.918,2.212h-.707a.781.781,0,1,0,0,.781h.707a4.075,4.075,0,0,0,.918,2.212l-.5.5a.782.782,0,1,0,.551.546l.5-.5a4.076,4.076,0,0,0,2.215.917v.707a.781.781,0,1,0,.781,0v-.707a4.065,4.065,0,0,0,2.212-.919l.5.5a.781.781,0,1,0,.551-.546l-.5-.5a4.056,4.056,0,0,0,.918-2.212h.707a.781.781,0,1,0,.674-1.171Zm-6.743.585a.682.682,0,1,1,.682-.683h0a.682.682,0,0,1-.681.682h0Zm1.679,2.337a.781.781,0,1,1,.781-.781.781.781,0,0,1-.781.781Zm1.363-2.726a.584.584,0,1,1,.585-.585.585.585,0,0,1-.585.585Z" transform="translate(-800.449 -191.359)"/></g><g transform="translate(5.191 28.974)"><path class="e" d="M785.617,190.574a.781.781,0,0,0-.674.39h-.706a4.054,4.054,0,0,0-.918-2.212l.5-.5a.78.78,0,1,0-.551-.546l-.5.5a4.071,4.071,0,0,0-2.212-.918v-.707a.781.781,0,1,0-.781,0v.707a4.076,4.076,0,0,0-2.213.918l-.5-.5a.78.78,0,1,0-.959.546h0a.77.77,0,0,0,.412,0l.5.5a4.08,4.08,0,0,0-.918,2.212h-.707a.781.781,0,1,0,0,.781h.707a4.082,4.082,0,0,0,.918,2.212l-.5.5a.781.781,0,1,0,.546.551l.5-.5a4.071,4.071,0,0,0,2.213.919v.707a.781.781,0,1,0,.781,0v-.707a4.061,4.061,0,0,0,2.212-.919l.5.5a.781.781,0,1,0,.551-.551l-.5-.5a4.057,4.057,0,0,0,.918-2.212h.708a.781.781,0,1,0,.674-1.171Zm-6.743.584a.682.682,0,1,1,.682-.681h0a.681.681,0,0,1-.682.679Zm1.68,2.337a.781.781,0,1,1,.781-.781.781.781,0,0,1-.781.781Zm1.363-2.727a.584.584,0,1,1,.584-.584h0a.584.584,0,0,1-.584.581Z" transform="translate(-773.934 -185.123)"/></g><g transform="translate(53.047 14.237)"><path class="e" d="M849.642,172.97a.962.962,0,0,0-.831.48h-.873a5,5,0,0,0-1.132-2.728l.618-.619a.96.96,0,1,0-.678-1.176h0a.971.971,0,0,0,0,.5l-.618.619a5.024,5.024,0,0,0-2.728-1.133v-.872a.96.96,0,1,0-.961,0v.872a5.029,5.029,0,0,0-2.728,1.133l-.618-.619a.96.96,0,1,0-.679.679l.618.619a5.018,5.018,0,0,0-1.132,2.728h-.87a.961.961,0,1,0,0,.96h.873a5.026,5.026,0,0,0,1.132,2.732l-.618.618a.96.96,0,1,0,.679.679l.618-.618a5.02,5.02,0,0,0,2.728,1.132v.872a.962.962,0,1,0,.961,0v-.872a5.015,5.015,0,0,0,2.728-1.132l.618.618a.961.961,0,1,0,.679-.679l-.618-.618a5.009,5.009,0,0,0,1.132-2.732h.873a.96.96,0,1,0,.831-1.44Zm-8.314.721a.84.84,0,1,1,.84-.841.84.84,0,0,1-.84.841Zm2.071,2.879a.96.96,0,1,1,.96-.961.961.961,0,0,1-.96.961Zm1.681-3.362a.721.721,0,1,1,.72-.721h0a.722.722,0,0,1-.72.721Z" transform="translate(-835.236 -166.245)"/></g><g transform="translate(51.323 38.805)"><path class="e" d="M843.238,202.481a.685.685,0,0,0-.589.34h-.618a3.547,3.547,0,0,0-.8-1.933l.439-.439a.681.681,0,1,0-.482-.834.693.693,0,0,0,0,.352l-.439.439a3.559,3.559,0,0,0-1.933-.8v-.618a.681.681,0,1,0-.93-.249.693.693,0,0,0,.249.249v.618a3.551,3.551,0,0,0-1.934.8l-.439-.439a.68.68,0,1,0-.832.482.687.687,0,0,0,.351,0l.438.439a3.56,3.56,0,0,0-.8,1.933H834.3a.681.681,0,1,0-.249.93h0a.668.668,0,0,0,.249-.249h.618a3.562,3.562,0,0,0,.8,1.934l-.438.439a.681.681,0,1,0,.481.481l.439-.438a3.565,3.565,0,0,0,1.934.8v.618a.682.682,0,1,0,.681,0v-.617a3.559,3.559,0,0,0,1.933-.8l.439.438a.681.681,0,1,0,.835-.481.692.692,0,0,0-.353,0l-.439-.439a3.552,3.552,0,0,0,.8-1.934h.618a.681.681,0,1,0,.589-1.021Zm-5.893.511a.6.6,0,1,1,.6-.6.6.6,0,0,1-.6.6Zm1.469,2.042a.681.681,0,1,1,.681-.681.681.681,0,0,1-.681.681ZM840,202.651a.511.511,0,1,1,.511-.511h0a.51.51,0,0,1-.511.511Z" transform="translate(-833.027 -197.716)"/></g><g transform="translate(73.072 0.69)"><path class="e" d="M869.6,152.959a.581.581,0,0,0-.5.29h-.528a3.03,3.03,0,0,0-.685-1.65l.374-.374a.582.582,0,1,0-.409-.714h0a.6.6,0,0,0,0,.3l-.375.375a3.035,3.035,0,0,0-1.65-.685v-.528a.58.58,0,1,0-.581,0v.528a3.039,3.039,0,0,0-1.65.685l-.374-.375a.58.58,0,1,0-.709.411.585.585,0,0,0,.3,0l.374.374a3.035,3.035,0,0,0-.685,1.65h-.527a.581.581,0,1,0,0,.581h.527a3.037,3.037,0,0,0,.685,1.65l-.374.375a.581.581,0,1,0,.411.411l.374-.375a3.039,3.039,0,0,0,1.65.685v.528a.583.583,0,1,0,.581,0v-.528a3.035,3.035,0,0,0,1.65-.685l.375.375a.582.582,0,1,0,.411-.411l-.374-.375a3.032,3.032,0,0,0,.685-1.65h.528a.581.581,0,1,0,.5-.871Zm-5.029.436a.508.508,0,1,1,.508-.508.509.509,0,0,1-.508.508h0Zm1.249,1.743a.582.582,0,1,1,.582-.582h0a.581.581,0,0,1-.579.581Zm1.015-2.03a.436.436,0,1,1,.436-.437h0a.436.436,0,0,1-.43.436Z" transform="translate(-860.887 -148.891)"/></g><g transform="translate(7.908)"><g transform="translate(9.821 44.795)"><circle class="f" cx="2.789" cy="2.789" r="2.789"/></g><g transform="translate(8.868)"><circle class="f" cx="2.789" cy="2.789" r="2.789"/></g><g transform="translate(10.262 24.51)"><circle class="f" cx="2.091" cy="2.091" r="2.091"/></g><g transform="translate(54.346 6.275)"><circle class="f" cx="2.091" cy="2.091" r="2.091"/></g><g transform="translate(65.625 16.232)"><circle class="f" cx="3.265" cy="3.265" r="3.265"/></g><g transform="translate(56.438 36.901)"><circle class="f" cx="1.71" cy="1.71" r="1.71"/></g><g transform="translate(23.995 5.49)"><circle class="f" cx="1.394" cy="1.394" r="1.394"/></g><g transform="translate(0 16.399)"><circle class="f" cx="1.394" cy="1.394" r="1.394"/></g></g><path class="b" d="M821.668,279.072l9.758-13.944a1.394,1.394,0,0,0-1.143-2.194H826.1v-8.018a1.394,1.394,0,0,0-1.394-1.394h-8.364a1.394,1.394,0,0,0-1.394,1.394h0v8.017h-4.184a1.4,1.4,0,0,0-1.142,2.194l9.758,13.944a1.394,1.394,0,0,0,1.941.344h0a1.356,1.356,0,0,0,.344-.344Z" transform="translate(-776.516 -171.151)"/><path class="b" d="M827.666,191.446V156.253a1.363,1.363,0,0,0-1.356-1.365l-8.427-.053a1.366,1.366,0,0,0-1.373,1.358v35.268a1.406,1.406,0,0,0,1.4,1.377h8.366A1.394,1.394,0,0,0,827.666,191.446Z" transform="translate(-778.082 -149.505)"/></g><path class="g" d="M789.672,343.241a1.25,1.25,0,0,1-1.225-.991,1.236,1.236,0,0,1,.178-.941,20.17,20.17,0,0,0,.01-22.817,20.9,20.9,0,0,1,0-25.6,1.264,1.264,0,0,1,1.044-.55,1.248,1.248,0,0,1,1.038,1.947c-5.212,7.685-5.212,15.143,0,22.8a22.626,22.626,0,0,1,.009,25.587A1.255,1.255,0,0,1,789.672,343.241Z" transform="translate(-771.008 -179.665)"/><path class="g" d="M811.266,343.241a1.249,1.249,0,0,1-1.225-.991,1.24,1.24,0,0,1,.177-.941,20.172,20.172,0,0,0,.011-22.817,20.9,20.9,0,0,1,0-25.6,1.261,1.261,0,0,1,1.741-.338,1.247,1.247,0,0,1,.342,1.735c-5.212,7.685-5.212,15.143,0,22.8a22.626,22.626,0,0,1,.009,25.587A1.255,1.255,0,0,1,811.266,343.241Z" transform="translate(-775.744 -179.665)"/><path class="g" d="M832.86,343.241a1.248,1.248,0,0,1-1.048-1.932,20.171,20.171,0,0,0,.011-22.817,20.9,20.9,0,0,1,0-25.6,1.264,1.264,0,0,1,1.044-.55,1.249,1.249,0,0,1,1.039,1.947c-5.213,7.685-5.213,15.143,0,22.8a22.628,22.628,0,0,1,.009,25.587A1.255,1.255,0,0,1,832.86,343.241Z" transform="translate(-780.48 -179.665)"/><path class="g" d="M854.454,343.241a1.248,1.248,0,0,1-1.048-1.932,20.171,20.171,0,0,0,.011-22.817,20.9,20.9,0,0,1,0-25.6,1.262,1.262,0,0,1,1.044-.55,1.249,1.249,0,0,1,1.039,1.947c-5.212,7.685-5.212,15.143,0,22.8a22.627,22.627,0,0,1,.009,25.587A1.253,1.253,0,0,1,854.454,343.241Z" transform="translate(-785.216 -179.665)"/></g></g></svg>