<!-- <svg xmlns="http://www.w3.org/2000/svg" width="23.459" height="23.459" viewBox="0 0 23.459 23.459"><defs><style>.a{fill:#fff;}</style></defs><path class="a" d="M11.686,0a11.686,11.686,0,1,0,8.263,3.423A11.686,11.686,0,0,0,11.686,0Zm5.843,11.709a.937.937,0,0,1-.276.677l-3.847,3.835a.941.941,0,1,1-1.332-1.33l2.253-2.255H6.778a.935.935,0,0,1,0-1.87h7.57L12.074,8.493a.942.942,0,0,1,1.332-1.332L17.253,11a.935.935,0,0,1,.276.666Z" transform="translate(-1.542 -0.276)"/></svg> -->

<svg xmlns="http://www.w3.org/2000/svg" width="23.459" height="23.459" viewBox="0 0 23.459 23.459"><defs><style>.a{fill:#fff;}</style></defs><path class="a" d="M11.686,0a11.686,11.686,0,1,0,8.263,3.423A11.686,11.686,0,0,0,11.686,0Zm5.843,11.709a.937.937,0,0,1-.276.677l-3.847,3.835a.941.941,0,1,1-1.332-1.33l2.253-2.255H6.778a.935.935,0,0,1,0-1.87h7.57L12.074,8.493a.942.942,0,0,1,1.332-1.332L17.253,11a.935.935,0,0,1,.276.666Z" /></svg>