<svg xmlns="http://www.w3.org/2000/svg" width="120" height="164" viewBox="0 0 120 164"><defs><style>.a,.b{fill:none;}.b{stroke:#126448;stroke-miterlimit:10;stroke-width:3px;}.c{fill:#333;}.d{fill:#bcd861;}.e{fill:#d7e8a0;}.f{fill:#fff;}.g{fill:#e4936b;}.h{fill:#002f85;}.i{fill:#eaaa89;}</style></defs><g transform="translate(-58 -2342.801)"><rect class="a" width="120" height="164" transform="translate(58 2342.801)"/><g transform="translate(-343.124 1979.623)"><path class="b" d="M495.726,440.791"/><path class="b" d="M485.974,440.791"/><path class="c" d="M490.632,452.491a11.7,11.7,0,1,1,11.7-11.7A11.7,11.7,0,0,1,490.632,452.491Zm0-20.127a8.427,8.427,0,1,0,8.425,8.429v0a8.436,8.436,0,0,0-8.425-8.426Z"/><path class="c" d="M487.174,442.428a1.637,1.637,0,0,1-.009-3.274h6.922a1.637,1.637,0,0,1,0,3.274Z"/><path class="d" d="M416.24,436.9a1.4,1.4,0,0,0-2.435.992c-.353,8.479.472,30.6,17.361,41.292,10.007,6.334,9.75-.433,9.75-.433l-.58-15.173Z"/><path class="d" d="M464.12,436.9a1.4,1.4,0,0,1,2.435.992c.353,8.479-.472,30.6-17.361,41.292-10.008,6.334-9.75-.433-9.75-.433l.579-15.173Z"/><path class="e" d="M441.375,418.126a1.259,1.259,0,0,0-2.391,0c-2.549,6.656-8.287,23.129-8.287,36.552a44.407,44.407,0,0,0,9.482,27.863,44.412,44.412,0,0,0,9.482-27.863c0-13.423-5.737-29.9-8.287-36.552Z"/><path class="c" d="M440.179,442.191A1.716,1.716,0,0,0,438.572,444V473.13h3.215V444A1.716,1.716,0,0,0,440.179,442.191Z"/><path class="c" d="M421.9,473.13h4.523l-.056-.059c-10.412-10.714-11.153-27.394-10.99-34.069l.013-.507,13.71,15.087v.1c-.005.334-.01.668-.01,1a48.194,48.194,0,0,0,.748,8.426l-.35.18a56.878,56.878,0,0,1-4.935-8.5,1.658,1.658,0,0,0-.944-.893,1.422,1.422,0,0,0-1.224.119,1.753,1.753,0,0,0-.793,1.056,2,2,0,0,0,.1,1.379,72.7,72.7,0,0,0,10.935,16.376l.118.309h3.584l-.054-.122A44.6,44.6,0,0,1,432.3,454.68c0-12.15,4.82-26.9,7.693-34.609l.182-.49.182.49c2.873,7.706,7.693,22.448,7.693,34.609a44.637,44.637,0,0,1-3.976,18.332l-.055.122h3.624l.093-.36.036-.04a71.521,71.521,0,0,0,10.885-16.285,2,2,0,0,0,.1-1.379,1.757,1.757,0,0,0-.793-1.056,1.427,1.427,0,0,0-1.226-.119,1.661,1.661,0,0,0-.941.891,56.965,56.965,0,0,1-4.935,8.5l-.35-.18a48.388,48.388,0,0,0,.748-8.426c0-.3-.011-1.007-.011-1.007L464.958,438.5l.013.509c.493,20.032-7.521,30.5-10.991,34.065l-.056.059h4.525l.283-.367c9.31-12.038,9.687-28.454,9.415-34.952a3.288,3.288,0,0,0-1.9-2.939,2.809,2.809,0,0,0-1.131-.241,2.848,2.848,0,0,0-2.139.986l-12.025,13.3-.047-.451c-1.32-12.477-6.083-25.876-8.069-31.057a2.8,2.8,0,0,0-5.345,0c-1.982,5.176-6.733,18.556-8.061,30.989l-.047.448-12.032-13.233a2.852,2.852,0,0,0-2.14-.986,2.773,2.773,0,0,0-1.131.242,3.284,3.284,0,0,0-1.9,2.939c-.273,6.5.1,22.909,9.415,34.951Z"/><path class="f" d="M462.59,513.79H414.7V479.812a5.641,5.641,0,0,1,5.641-5.641h35.489a5.642,5.642,0,0,1,5.639,5.456Z"/><path class="g" d="M456.081,522.058H421.213a6.509,6.509,0,0,1-6.512-6.506v-9.437h47.885v9.429a6.509,6.509,0,0,1-6.5,6.514Z"/><path class="c" d="M456.079,523.693H421.213a8.153,8.153,0,0,1-8.146-8.145V480.681a8.154,8.154,0,0,1,8.146-8.146h34.866a8.154,8.154,0,0,1,8.146,8.146v34.868A8.154,8.154,0,0,1,456.079,523.693Zm-34.866-47.885a4.878,4.878,0,0,0-4.873,4.873v34.868a4.879,4.879,0,0,0,4.873,4.873h34.866a4.88,4.88,0,0,0,4.873-4.873V480.681a4.878,4.878,0,0,0-4.873-4.873Z"/><rect class="c" width="12.925" height="12.925" rx="2.731" transform="translate(432.184 497.891)"/><path class="c" d="M428.214,411.733a16.069,16.069,0,1,1,16.068-16.07A16.07,16.07,0,0,1,428.214,411.733Zm0-28.752A12.684,12.684,0,1,0,440.9,395.663a12.684,12.684,0,0,0-12.686-12.682Z"/><path class="c" d="M423.275,397.352a1.692,1.692,0,0,1,0-3.384h9.878a1.692,1.692,0,0,1,0,3.384Z"/><circle class="h" cx="9.817" cy="9.817" r="9.817" transform="translate(444.13 385.843)"/><circle class="h" cx="7.241" cy="7.241" r="7.241" transform="translate(501.886 433.55)"/><circle class="h" cx="3.862" cy="3.862" r="3.862" transform="translate(461.192 366.664)"/><circle class="h" cx="2.564" cy="2.564" r="2.564" transform="translate(498.769 429.091)"/><circle class="h" cx="2.127" cy="2.127" r="2.127" transform="translate(465.054 417.861)"/><circle class="h" cx="2.984" cy="2.984" r="2.984" transform="translate(442.628 377.62)"/><circle class="h" cx="4.042" cy="4.042" r="4.042" transform="translate(470.106 407.73)"/><circle class="h" cx="4.042" cy="4.042" r="4.042" transform="translate(498.991 451.405)"/><circle class="i" cx="17.493" cy="17.493" r="17.493" transform="translate(469.998 478.397)"/><path class="c" d="M496.395,512.762a19.078,19.078,0,1,1,7.934-25.843A19.1,19.1,0,0,1,496.395,512.762Zm-8.895-.987a15.825,15.825,0,0,0,13.1-6.909,46.4,46.4,0,0,1-13.1,6.909Zm-6.865-1.575a41.363,41.363,0,0,0,22.544-11.9,15.719,15.719,0,0,0-.066-5.283,36.523,36.523,0,0,1-26.8,14.143A15.751,15.751,0,0,0,480.635,510.2Zm-6.878-6.313c4.961.491,10.489-.783,16.005-3.694s9.685-6.753,12.083-11.127c-.1-.221-.213-.442-.329-.661a15.832,15.832,0,0,0-1.793-2.689c-2.356,5.716-7.52,9.4-11.523,11.515s-9.96,4.294-16.011,3.015a15.652,15.652,0,0,0,1.208,3C473.513,503.462,473.633,503.676,473.757,503.887ZM471.6,496.8c4.293,1.339,9.642.5,15.11-2.389s9.182-6.825,10.5-11.125a15.828,15.828,0,0,0-2.985-1.812c-.976,4.783-5.429,8.052-9.077,9.976s-8.86,3.758-13.36,1.862A15.858,15.858,0,0,0,471.6,496.8Zm1.034-6.6c3.557,1.812,8.4-.183,11.028-1.567l.312-.165c2.646-1.441,6.714-4.246,7.207-8.053a15.954,15.954,0,0,0-3.342-.43c-.287,2.1-3.074,4.281-5.739,5.687s-6.039,2.477-7.935,1.529A15.9,15.9,0,0,0,472.638,490.207Zm3.912-5.852a15.158,15.158,0,0,0,4.069-1.49l.014-.007a14.605,14.605,0,0,0,3.509-2.509l-.072.014a16.113,16.113,0,0,0-7.476,3.948Z"/><rect class="f" width="35.01" height="11.8" rx="1.116" transform="translate(470.045 510.258)"/><path class="c" d="M503.939,523.658H471.161a2.719,2.719,0,0,1-2.716-2.716v-9.568a2.719,2.719,0,0,1,2.716-2.716h32.778a2.718,2.718,0,0,1,2.715,2.716v9.568A2.718,2.718,0,0,1,503.939,523.658Zm-32.294-3.2h31.81v-8.6h-31.81Z"/></g></g></svg>