<svg xmlns="http://www.w3.org/2000/svg" xmlns:xlink="http://www.w3.org/1999/xlink" width="262.438" height="43.997" viewBox="0 0 262.438 43.997"><defs><style>.a{fill:none;}.b{clip-path:url(#a);}.c{fill:#dc291e;}.d{fill:#060707;}</style><clipPath id="a"><rect class="a" width="262.438" height="43.997"/></clipPath></defs><g transform="translate(0 0)"><g class="b" transform="translate(0 0)"><path class="c" d="M48.238,44.748a3.576,3.576,0,0,0,.992,1.295,4.125,4.125,0,0,0,1.455.737,6.223,6.223,0,0,0,1.729.241,8.317,8.317,0,0,0,1.295-.112A4.14,4.14,0,0,0,55,46.475a2.871,2.871,0,0,0,1.009-.877,2.377,2.377,0,0,0,.4-1.424,2.135,2.135,0,0,0-.533-1.5,4.177,4.177,0,0,0-1.4-.959,12.562,12.562,0,0,0-1.957-.672c-.731-.194-1.468-.407-2.217-.639a19.222,19.222,0,0,1-2.247-.784,7.506,7.506,0,0,1-1.956-1.2,5.528,5.528,0,0,1-1.4-1.841,6.118,6.118,0,0,1-.532-2.67,6.5,6.5,0,0,1,.678-3.055,6.587,6.587,0,0,1,1.771-2.161A7.4,7.4,0,0,1,49.1,27.408a9.646,9.646,0,0,1,2.763-.415,11.865,11.865,0,0,1,3.1.4,7.351,7.351,0,0,1,2.634,1.295,6.416,6.416,0,0,1,1.83,2.287,7.706,7.706,0,0,1,.675,3.377H55.723a4.446,4.446,0,0,0-.387-1.7,2.738,2.738,0,0,0-.88-1.057,3.521,3.521,0,0,0-1.252-.544,7,7,0,0,0-1.538-.159,4.841,4.841,0,0,0-1.1.126,2.785,2.785,0,0,0-.992.448,2.578,2.578,0,0,0-.734.8,2.316,2.316,0,0,0-.289,1.216,2.235,2.235,0,0,0,.23,1.088,2.123,2.123,0,0,0,.908.768,10.765,10.765,0,0,0,1.871.7q1.194.354,3.122.894c.384.087.916.242,1.6.465a7.452,7.452,0,0,1,2.029,1.071,6.538,6.538,0,0,1,1.74,1.97,6.075,6.075,0,0,1,.735,3.15,7.651,7.651,0,0,1-.547,2.912,6.258,6.258,0,0,1-1.625,2.321,7.58,7.58,0,0,1-2.679,1.519,11.509,11.509,0,0,1-3.7.544,11.786,11.786,0,0,1-3.3-.463,7.974,7.974,0,0,1-2.822-1.457,7.048,7.048,0,0,1-1.944-2.528,8.243,8.243,0,0,1-.689-3.646h4.374a4.579,4.579,0,0,0,.376,1.951" transform="translate(-12.137 -7.534)"/><path class="c" d="M68.767,31.97V27.747H85.611V31.97H79.45V50.588h-4.52V31.97Z" transform="translate(-19.192 -7.744)"/><path class="c" d="M101.207,41.758l-2.592-8.381h-.058L95.88,41.758Zm-.261-14.012,7.687,22.841h-4.691L102.387,45.5H94.7l-1.614,5.086H88.538l7.774-22.841Z" transform="translate(-24.71 -7.744)"/><path class="c" d="M112.66,27.746h5.067l4.809,9.021,4.781-9.021h5.038l-7.631,14.076v8.766H120.2V41.7Z" transform="translate(-31.442 -7.744)"/><path class="c" d="M161.112,38.5a8.349,8.349,0,0,0,1.5-.129,3.239,3.239,0,0,0,1.27-.5,2.6,2.6,0,0,0,.877-1.04,4.837,4.837,0,0,0,0-3.517,2.628,2.628,0,0,0-.877-1.042,3.269,3.269,0,0,0-1.27-.493,8.349,8.349,0,0,0-1.5-.129H157.6V38.5Zm1.239-10.75a7.777,7.777,0,0,1,3.282.625,6.12,6.12,0,0,1,2.2,1.647,6.47,6.47,0,0,1,1.239,2.335,9.617,9.617,0,0,1,0,5.422,6.44,6.44,0,0,1-1.239,2.351,6.113,6.113,0,0,1-2.2,1.648,7.766,7.766,0,0,1-3.282.625H157.6v8.188h-4.52V27.746Z" transform="translate(-42.723 -7.744)"/><path class="c" d="M188.99,38.081a3.2,3.2,0,0,0,2.331-.768,3.392,3.392,0,0,0,.779-2.5,3.232,3.232,0,0,0-.779-2.415,3.238,3.238,0,0,0-2.331-.751h-4.952v6.431ZM190.6,27.746a6.046,6.046,0,0,1,2.491.5A5.768,5.768,0,0,1,195,29.6a6,6,0,0,1,1.208,2,7.046,7.046,0,0,1,.417,2.446,7.454,7.454,0,0,1-.762,3.486,4.944,4.944,0,0,1-2.491,2.241v.062a3.451,3.451,0,0,1,1.384.784,4.391,4.391,0,0,1,.891,1.247,6.31,6.31,0,0,1,.5,1.587,15.484,15.484,0,0,1,.216,1.726c.019.364.039.79.056,1.28s.054.992.1,1.5a10.76,10.76,0,0,0,.232,1.457,3.476,3.476,0,0,0,.474,1.166h-4.52a9.739,9.739,0,0,1-.462-2.59q-.084-1.5-.258-2.88a4.816,4.816,0,0,0-.978-2.623,3.155,3.155,0,0,0-2.45-.832h-4.52v8.925h-4.52V27.746Z" transform="translate(-50.101 -7.744)"/><path class="c" d="M223.529,27.746v4.223H212.673v4.9h9.962v3.9h-9.962v5.6h11.086v4.223H208.153V27.746Z" transform="translate(-58.092 -7.744)"/><path class="c" d="M241.867,38.5a8.4,8.4,0,0,0,1.5-.129,3.213,3.213,0,0,0,1.264-.5,2.582,2.582,0,0,0,.88-1.04,4.837,4.837,0,0,0,0-3.517,2.61,2.61,0,0,0-.88-1.042,3.242,3.242,0,0,0-1.264-.493,8.4,8.4,0,0,0-1.5-.129h-3.511V38.5Zm1.239-10.75a7.777,7.777,0,0,1,3.282.625,6.12,6.12,0,0,1,2.2,1.647,6.47,6.47,0,0,1,1.238,2.335,9.616,9.616,0,0,1,0,5.422,6.44,6.44,0,0,1-1.238,2.351,6.113,6.113,0,0,1-2.2,1.648,7.766,7.766,0,0,1-3.282.625h-4.749v8.188h-4.523V27.746Z" transform="translate(-65.259 -7.744)"/><path class="c" d="M266.991,41.758,264.4,33.376h-.056l-2.677,8.381Zm-.258-14.012,7.687,22.841h-4.695L268.171,45.5h-7.686l-1.611,5.086h-4.548L262.1,27.746Z" transform="translate(-70.978 -7.744)"/><path class="c" d="M293.948,38.081a3.207,3.207,0,0,0,2.334-.768,3.4,3.4,0,0,0,.776-2.5,3.243,3.243,0,0,0-.776-2.415,3.25,3.25,0,0,0-2.334-.751H289v6.431Zm1.614-10.335a6.034,6.034,0,0,1,2.491.5,5.767,5.767,0,0,1,1.9,1.359,6,6,0,0,1,1.208,2,7,7,0,0,1,.417,2.446,7.463,7.463,0,0,1-.762,3.486,4.934,4.934,0,0,1-2.491,2.241v.062a3.451,3.451,0,0,1,1.384.784,4.391,4.391,0,0,1,.891,1.247,6.34,6.34,0,0,1,.5,1.587,15.653,15.653,0,0,1,.216,1.726q.03.546.056,1.28t.1,1.5a10.988,10.988,0,0,0,.232,1.457,3.522,3.522,0,0,0,.474,1.166h-4.52A9.628,9.628,0,0,1,297.2,48q-.089-1.5-.26-2.88a4.81,4.81,0,0,0-.978-2.623,3.153,3.153,0,0,0-2.449-.832H289v8.925h-4.52V27.746Z" transform="translate(-79.393 -7.744)"/><path class="c" d="M328.489,27.746v4.223H317.632v4.9h9.962v3.9h-9.962v5.6h11.086v4.223H313.112V27.746Z" transform="translate(-87.385 -7.744)"/><path class="c" d="M347.345,46.364a5.251,5.251,0,0,0,1.9-.35,4.181,4.181,0,0,0,1.642-1.169,6.038,6.038,0,0,0,1.152-2.127,10.313,10.313,0,0,0,.431-3.2,14.716,14.716,0,0,0-.3-3.119,6.517,6.517,0,0,0-.994-2.381,4.446,4.446,0,0,0-1.828-1.519,6.638,6.638,0,0,0-2.808-.53h-3.223v14.4Zm.316-18.618a9.654,9.654,0,0,1,3.7.7,8,8,0,0,1,2.968,2.113,9.965,9.965,0,0,1,1.956,3.52,15.656,15.656,0,0,1,.706,4.958,17.481,17.481,0,0,1-.574,4.607,10.635,10.635,0,0,1-1.743,3.646,8.244,8.244,0,0,1-2.909,2.415,8.955,8.955,0,0,1-4.1.88h-8.869V27.746Z" transform="translate(-94.552 -7.744)"/><path class="d" d="M24.66,39.153A12.33,12.33,0,1,1,12.33,26.822,12.33,12.33,0,0,1,24.66,39.153" transform="translate(0 -7.486)"/><path class="c" d="M5.353,30.132c-.059-.045-.137-.017-.213-.059q2.11-3.17,4.217-6.327c.064,0,.089.04.125.068A20.815,20.815,0,0,1,11.49,25.6a13.383,13.383,0,0,1,2.037,2.757c.333.585.664,1.171,1.019,1.74.034.053.068.106.11.168a.428.428,0,0,0,.1-.159q1.791-3.507,3.862-6.857A68.789,68.789,0,0,1,31.5,7.944c2.272-2.018,4.638-3.917,7.056-5.756Q39.972,1.116,41.4.066c.031-.022.067-.042.1-.064s.061.008.053.053c-.056.058-.11.12-.166.179C39.5,2.179,37.632,4.141,35.816,6.15A97.074,97.074,0,0,0,27.8,16.2c-1.866,2.707-3.579,5.512-5.173,8.388-1.816,3.273-3.481,6.622-5.061,10.012q-1.619,3.48-3.124,7.012c-.025.058-.048.12-.073.179h-.034a3.033,3.033,0,0,1-.4-.6c-1.163-1.928-2.225-3.915-3.385-5.846a23.317,23.317,0,0,0-2.2-3.166,6.437,6.437,0,0,0-2.177-1.763,4.859,4.859,0,0,0-.647-.221c-.062-.017-.129-.011-.177-.064" transform="translate(-1.434 0)"/></g></g></svg>