<svg viewBox="0 0 228 227" fill="none" xmlns="http://www.w3.org/2000/svg">
    <g id="Group 584">
        
        <g id="Group 583">
            <g id="Group">
                <path id="Vector" d="M29.8226 162.654L18.9154 170.205L33.5188 167.965L34.6421 169.555L27.5397 182.344L38.3382 174.866L39.6065 176.672L25.9816 186.066L24.3509 183.717L32.0331 170.06L16.5238 172.445L14.9657 170.169L28.5906 160.775L29.8226 162.654Z" fill="black" />
                <path id="Vector_2" d="M12.2842 143.108C13.8786 142.494 15.4368 142.277 16.9225 142.494C18.4082 142.711 19.7489 143.325 20.9447 144.372C22.1405 145.42 23.0827 146.793 23.7712 148.563C24.4234 150.262 24.7133 151.887 24.5684 153.405C24.4234 154.958 23.8799 156.331 22.9377 157.524C21.9956 158.716 20.6911 159.655 19.0242 160.305C17.4298 160.92 15.8716 161.136 14.3859 160.92C12.9002 160.703 11.5595 160.089 10.3637 159.041C9.16785 157.993 8.22571 156.62 7.53721 154.85C6.88496 153.152 6.59506 151.526 6.74001 150.009C6.88496 148.455 7.4285 147.082 8.37065 145.89C9.3128 144.698 10.6173 143.758 12.2842 143.108ZM13.1539 145.312C11.1971 146.071 9.89258 147.227 9.24033 148.78C8.58807 150.334 8.66054 152.104 9.45775 154.127C10.2549 156.114 11.3783 157.487 12.9365 158.174C14.4584 158.86 16.1977 158.86 18.1545 158.102C20.1113 157.343 21.4158 156.187 22.068 154.633C22.7203 153.08 22.6478 151.309 21.8506 149.286C21.0534 147.299 19.9301 145.926 18.3719 145.24C16.85 144.553 15.0744 144.553 13.1539 145.312Z" fill="black" />
                <path id="Vector_3" d="M17.1398 123.959L11.1608 128.837C11.1971 129.018 11.2695 129.343 11.3782 129.921L12.2479 135.015L18.843 133.931L19.2053 136.135L2.86267 138.845L1.59439 131.258C0.905898 127.067 2.17418 124.682 5.43546 124.14C7.64589 123.779 9.31276 124.61 10.3274 126.633L16.705 121.358L17.1398 123.959ZM9.349 130.138C8.87793 127.356 7.68212 126.163 5.76159 126.489C4.74697 126.669 4.05847 127.103 3.73234 127.825C3.40622 128.548 3.36998 129.632 3.5874 131.077L4.45707 136.316L10.2187 135.34L9.349 130.138Z" fill="black" />
                <path id="Vector_4" d="M17.0312 104.739L3.33376 115.216L16.6326 115.686L16.5601 117.926L0 117.348L0.072473 115.144L13.7699 104.63L0.471074 104.161L0.543547 101.921L17.1036 102.499L17.0312 104.739Z" fill="black" />
                <path id="Vector_5" d="M18.1545 97.2238L1.84808 94.2612L2.24668 92.0212L18.5531 94.9838L18.1545 97.2238Z" fill="black" />
                <path id="Vector_6" d="M23.7349 77.136L7.57342 83.278L20.1837 87.5412L19.459 89.6728L3.76859 84.3618L4.49331 82.2663L20.6548 76.1244L8.04449 71.8611L8.76922 69.7295L24.4596 75.0405L23.7349 77.136Z" fill="black" />
                <path id="Vector_7" d="M28.047 55.1694L25.2568 59.8301L23.5537 58.8185L27.4673 52.3152L33.1926 55.7475C33.3376 56.9036 33.2289 58.1681 32.8665 59.5772C32.5041 60.9862 31.9606 62.2869 31.1996 63.5875C30.2575 65.1772 29.0979 66.4056 27.7934 67.2727C26.4889 68.1398 25.0756 68.5372 23.5899 68.5372C22.1042 68.5372 20.5461 68.0675 19.0241 67.1643C17.5384 66.2972 16.4151 65.1772 15.6541 63.8765C14.8932 62.5759 14.5308 61.1668 14.6033 59.6133C14.6758 58.0597 15.1831 56.5062 16.1615 54.8804C17.1398 53.2184 18.3356 52.0623 19.6764 51.3397C21.0534 50.6532 22.5028 50.4726 24.0973 50.7978L23.2638 52.9294C22.1405 52.7487 21.1259 52.8933 20.2562 53.3991C19.3503 53.9049 18.5531 54.7358 17.8283 55.9281C16.7775 57.6984 16.4514 59.3965 16.85 60.9862C17.2486 62.612 18.3719 63.9488 20.1837 65.0327C21.9593 66.1166 23.6987 66.4056 25.2931 65.972C26.9237 65.5024 28.3007 64.3462 29.424 62.4675C30.5836 60.5527 31.1634 58.7823 31.2358 57.0842L28.047 55.1694Z" fill="black" />
                <path id="Vector_8" d="M65.5881 29.3008L61.2397 26.6995L53.7025 31.7215L54.4272 36.7073L52.398 38.0802L49.8976 19.8711L51.8544 18.5704L67.726 27.8556L65.5881 29.3008ZM52.2168 21.2801L53.4126 29.626L59.5003 25.5795L52.2168 21.2801Z" fill="#fff" />
                <path id="Vector_9" d="M70.1539 18.9679L73.0165 25.6518L70.9148 26.555L64.4285 11.3446L75.9879 6.43103L76.7851 8.27362L67.3637 12.284L69.4291 17.0892L78.3795 13.2956L79.1767 15.1382L70.1539 18.9679Z" fill="#fff" />
                <path id="Vector_10" d="M91.171 19.3653L87.946 5.23874L81.2422 6.75617L80.8074 4.80519L96.3891 1.22839L96.8239 3.17937L90.1201 4.6968L93.3452 18.8233L91.171 19.3653Z" fill="#fff" />
                <path id="Vector_11" d="M103.455 17.053L102.767 0.541938L115.921 0L115.993 2.02324L105.122 2.49292L105.339 7.44262L115.667 7.00907L115.739 9.03231L105.412 9.46586L105.629 14.9575L116.971 14.4878L116.645 16.5111L103.455 17.053Z" fill="#fff" />
                <path id="Vector_12" d="M133.459 18.4982L130.633 11.3446C130.451 11.3446 130.089 11.3085 129.545 11.2001L124.4 10.4775L123.458 17.053L121.247 16.7279L123.566 0.433594L131.212 1.51747C135.452 2.13167 137.3 4.04652 136.829 7.33428C136.503 9.57429 135.235 10.8749 132.952 11.2362L136.032 18.8956L133.459 18.4982ZM129.908 9.24913C132.698 9.64655 134.22 8.88784 134.51 6.93686C134.655 5.92524 134.437 5.13039 133.821 4.58846C133.242 4.04652 132.227 3.68523 130.777 3.46845L125.523 2.70974L124.69 8.49041L129.908 9.24913Z" fill="#fff" />
                <path id="Vector_13" d="M151.903 24.2066L145.997 8.02074L141.54 20.5215L139.438 19.7627L145.018 4.22717L147.12 4.98589L153.027 21.1718L157.484 8.67107L159.585 9.42978L154.005 24.9292L151.903 24.2066Z" fill="#fff" />
                <path id="Vector_14" d="M177.776 29.3731C176.87 30.8183 175.747 31.9022 174.406 32.6248C173.065 33.3473 171.652 33.6364 170.058 33.4919C168.5 33.3835 166.905 32.8054 165.311 31.7938C163.753 30.8183 162.593 29.6983 161.76 28.3615C160.962 27.0609 160.564 25.6157 160.6 24.0983C160.636 22.5808 161.144 21.0634 162.086 19.546C162.992 18.1008 164.115 17.0169 165.456 16.2943C166.76 15.5718 168.21 15.2827 169.804 15.4272C171.362 15.5356 172.957 16.1137 174.551 17.1253C176.109 18.1008 177.269 19.2208 178.102 20.5576C178.936 21.8944 179.298 23.3034 179.262 24.8208C179.226 26.3383 178.718 27.8557 177.776 29.3731ZM175.747 28.1086C176.87 26.3383 177.233 24.6402 176.834 23.0144C176.435 21.3886 175.312 20.0157 173.464 18.8595C171.652 17.7034 169.913 17.3421 168.246 17.6673C166.579 18.0285 165.202 19.0763 164.115 20.8466C162.992 22.617 162.629 24.315 163.028 25.9409C163.427 27.5667 164.55 28.9396 166.398 30.0957C168.21 31.2518 169.949 31.6131 171.616 31.288C173.247 30.9267 174.624 29.8789 175.747 28.1086Z" fill="#fff" />
                <path id="Vector_15" d="M194.952 45.6673C193.756 46.8957 192.416 47.6906 190.966 48.088C189.517 48.4854 188.031 48.4493 186.545 47.9796C185.06 47.5099 183.61 46.6067 182.27 45.2699C180.965 43.9692 180.095 42.5963 179.588 41.1512C179.081 39.706 179.044 38.2247 179.407 36.7434C179.769 35.2621 180.603 33.8892 181.871 32.6247C183.067 31.3963 184.407 30.6014 185.857 30.204C187.306 29.8066 188.792 29.8427 190.278 30.3124C191.8 30.7821 193.213 31.6853 194.554 33.0221C195.858 34.3227 196.728 35.6957 197.235 37.1408C197.742 38.6221 197.779 40.0673 197.416 41.5486C197.054 43.0299 196.221 44.4028 194.952 45.6673ZM193.249 43.9692C194.735 42.4879 195.46 40.8983 195.423 39.2363C195.387 37.5744 194.626 35.9486 193.068 34.4311C191.546 32.9137 189.952 32.155 188.249 32.1189C186.545 32.0827 184.987 32.8053 183.502 34.2866C182.016 35.7679 181.291 37.3576 181.327 39.0195C181.364 40.6815 182.125 42.3073 183.683 43.8247C185.205 45.3422 186.799 46.1009 188.502 46.137C190.205 46.1731 191.8 45.4505 193.249 43.9692Z" fill="#fff" />
                <path id="Vector_16" d="M198.685 65.8636L203.939 49.4609L192.742 56.6507L191.51 54.7719L205.425 45.848L206.62 47.7267L201.366 64.1294L212.563 56.9397L213.795 58.8184L199.88 67.7423L198.685 65.8636Z" fill="#fff" />
                <path id="Vector_17" d="M209.411 94.2251L225.826 91.9851L227.601 104.992L225.608 105.281L224.123 94.5503L219.195 95.2367L220.608 105.461L218.615 105.75L217.202 95.5258L211.73 96.2845L213.252 107.521L211.186 107.412L209.411 94.2251Z" fill="#fff" />
                <path id="Vector_18" d="M211.041 117.528L228 110.881L227.855 113.518L213.433 118.937L227.167 125.874L227.022 128.439L210.896 119.985L211.041 117.528Z" fill="#fff" />
                <path id="Vector_19" d="M209.809 130.643L225.898 134.545L222.782 147.299L220.825 146.829L223.398 136.279L218.542 135.087L216.078 145.095L214.121 144.625L216.585 134.618L211.222 133.317L208.541 144.336L206.657 143.469L209.809 130.643Z" fill="#fff" />
                <path id="Vector_20" d="M199.627 159.691L216.368 155.392L204.301 149.756L205.244 147.732L220.245 154.741L219.303 156.765L202.562 161.064L214.629 166.7L213.687 168.724L198.685 161.714L199.627 159.691Z" fill="#fff" />
                <path id="Vector_21" d="M195.605 166.158L209.411 175.299L208.142 177.214L194.336 168.073L195.605 166.158Z" fill="#fff" />
                <path id="Vector_22" d="M182.559 182.453L199.808 183.175L189.915 174.287L191.437 172.625L203.758 183.681L202.272 185.343L185.024 184.62L194.916 193.508L193.394 195.17L181.074 184.115L182.559 182.453Z" fill="#fff" />
                <path id="Vector_23" d="M169.949 200.915L174.37 197.699L175.53 199.289L169.369 203.769L165.42 198.386C165.746 197.266 166.362 196.146 167.231 194.989C168.101 193.833 169.152 192.822 170.348 191.955C171.87 190.871 173.392 190.184 174.914 189.895C176.435 189.606 177.885 189.787 179.298 190.365C180.675 190.979 181.907 191.991 182.958 193.436C183.973 194.845 184.589 196.29 184.77 197.771C184.951 199.253 184.734 200.698 184.045 202.107C183.357 203.516 182.27 204.744 180.784 205.864C179.226 206.984 177.667 207.635 176.146 207.743C174.624 207.851 173.174 207.454 171.833 206.515L173.428 204.853C174.37 205.467 175.385 205.684 176.399 205.575C177.414 205.467 178.501 204.997 179.624 204.166C181.291 202.938 182.27 201.529 182.523 199.867C182.777 198.241 182.27 196.543 181.037 194.845C179.805 193.147 178.356 192.208 176.689 191.991C175.022 191.774 173.283 192.316 171.507 193.617C169.695 194.917 168.427 196.326 167.702 197.844L169.949 200.915Z" fill="#fff" />
                <path id="Vector_24" d="M125.958 209.911L139.184 221.003L136.793 207.96L139.003 207.562L141.975 223.821L139.8 224.218L126.574 213.126L128.966 226.169L126.755 226.566L123.784 210.308L125.958 209.911Z" fill="#fff" />
                <path id="Vector_25" d="M118.348 210.417L118.892 226.928L116.609 227L116.065 210.489L118.348 210.417Z" fill="#fff" />
                <path id="Vector_26" d="M96.3166 215.8L101.752 216.342L101.535 218.293L93.9612 217.534L94.6497 210.923C95.6281 210.308 96.8601 209.875 98.2734 209.622C99.6866 209.369 101.136 209.297 102.622 209.441C104.47 209.622 106.064 210.128 107.405 210.959C108.746 211.79 109.688 212.873 110.34 214.246C110.956 215.619 111.21 217.173 110.992 218.979C110.811 220.714 110.304 222.159 109.434 223.423C108.565 224.652 107.441 225.591 105.992 226.169C104.542 226.747 102.912 226.964 101.064 226.783C99.143 226.603 97.5849 226.025 96.3528 225.085C95.157 224.146 94.3598 222.881 93.9975 221.292L96.2804 221.147C96.6065 222.231 97.15 223.062 97.9835 223.676C98.8169 224.29 99.9402 224.652 101.317 224.796C103.383 225.013 105.05 224.579 106.354 223.532C107.659 222.484 108.383 220.894 108.601 218.835C108.818 216.775 108.383 215.077 107.26 213.813C106.173 212.548 104.506 211.79 102.332 211.573C100.121 211.356 98.2371 211.573 96.6789 212.187L96.3166 215.8Z" fill="#fff" />
                <path id="Vector_27" d="M78.0172 203.805L75.6618 210.886L85.9529 214.319L88.3083 207.237L90.4825 207.96L85.2645 223.64L83.0903 222.917L85.2645 216.378L74.9733 212.946L72.7991 219.485L70.6249 218.763L75.843 203.082L78.0172 203.805Z" fill="#fff" />
                <path id="Vector_28" d="M66.8201 198.386L59.609 210.995L65.5881 214.391L64.5734 216.125L50.6586 208.213L51.6733 206.479L57.6523 209.875L64.8633 197.266L66.8201 198.386Z" fill="#fff" />
            </g>
            <circle id="Ellipse 23" cx="36.5" cy="38.5" r="3.5" fill="#fff" />
            <circle id="Ellipse 24" cx="45.5" cy="192.5" r="3.5" fill="#fff" />
            <ellipse id="Ellipse 25" cx="155.5" cy="211.5" rx="3.49999" ry="3.5" fill="#fff" />
            <ellipse id="Ellipse 26" cx="212.5" cy="77.5" rx="3.49999" ry="3.5" fill="#fff" />
        </g>
    </g>
</svg>