<?xml version="1.0" encoding="utf-8"?>
<!-- Generator: Adobe Illustrator 24.0.0, SVG Export Plug-In . SVG Version: 6.00 Build 0)  -->
<svg version="1.1" id="Layer_1" xmlns="http://www.w3.org/2000/svg" xmlns:xlink="http://www.w3.org/1999/xlink" x="0px" y="0px"
	 viewBox="0 0 33.7 32.9" style="enable-background:new 0 0 33.7 32.9;" xml:space="preserve">
<style type="text/css">
	.st0{fill:#231F20;stroke:#000000;stroke-miterlimit:10;}
</style>
<path class="st0" d="M13.5,26.2c-7.1,0-12.8-5.7-12.8-12.8S6.4,0.6,13.5,0.6s12.8,5.7,12.8,12.8S20.6,26.2,13.5,26.2L13.5,26.2z
	 M13.5,2.2c-6.2,0-11.3,5-11.3,11.3c0,6.2,5,11.3,11.3,11.3c6.2,0,11.3-5,11.3-11.3l0,0C24.8,7.2,19.7,2.2,13.5,2.2z"/>
<rect x="27" y="19.9" transform="matrix(0.7071 -0.7071 0.7071 0.7071 -10.7726 27.4538)" class="st0" width="1.5" height="13.6"/>
</svg>
