<svg id="Layer_1" data-name="Layer 1" xmlns="http://www.w3.org/2000/svg" viewBox="0 0 50 50"><defs><style>.cls-1{fill:#010101;}</style></defs><path class="cls-1" d="M40.26,40.4H9.74v-.84C9.77,32.24,15.19,28.2,25,28.2s15.25,4.06,15.26,11.44ZM25,29.73c-8.77,0-13.37,3.09-13.71,9.17.78,0,2,0,3.74,0H38.71C38.35,32.81,33.74,29.73,25,29.73Z"/><path class="cls-1" d="M25,29.56c-4.08,0-7.53-4.8-7.53-10.47,0-5.32,3.31-9.49,7.53-9.49s7.53,4.17,7.53,9.49C32.53,24.76,29.08,29.56,25,29.56Zm0-18.43c-3.36,0-6,3.5-6,8C19,23.85,21.8,28,25,28s6-4.18,6-8.94C31,14.63,28.36,11.13,25,11.13Z"/></svg>