<?xml version="1.0" encoding="utf-8"?>
<!-- Generator: Adobe Illustrator 24.0.0, SVG Export Plug-In . SVG Version: 6.00 Build 0)  -->
<svg version="1.1" id="Layer_1" xmlns="http://www.w3.org/2000/svg" xmlns:xlink="http://www.w3.org/1999/xlink" x="0px" y="0px"
	 viewBox="0 0 31.6 32" style="enable-background:new 0 0 31.6 32;" xml:space="preserve">
<style type="text/css">
	.st0{fill:#010101;stroke:#000000;stroke-width:0.75;stroke-miterlimit:10;}
</style>
<path class="st0" d="M31,31.4H0.5v-0.8c0-7.3,5.4-11.4,15.3-11.4S31,23.3,31,30.6V31.4z M15.8,20.7c-8.8,0-13.4,3.1-13.7,9.2
	c0.8,0,2,0,3.7,0h23.7C29.1,23.8,24.5,20.7,15.8,20.7z"/>
<path class="st0" d="M15.8,20.6c-4.1,0-7.5-4.8-7.5-10.5c-0.1-5.3,3.2-9.5,7.5-9.5s7.5,4.2,7.5,9.5C23.3,15.8,19.8,20.6,15.8,20.6z
	 M15.8,2.1c-3.4,0-6,3.5-6,8c0,4.7,2.8,8.9,6,8.9s6-4.2,6-8.9C21.8,5.6,19.1,2.1,15.8,2.1z"/>
</svg>
