<svg xmlns="http://www.w3.org/2000/svg" width="30" height="30" viewBox="0 0 30 30">
  <path id="Path_132" data-name="Path 132" d="M30,.063v30H20.23V18.575c1.536-.146,3.059.022,4.609-.107V14.279H20.223a10.406,10.406,0,0,1,.177-3.326,2.027,2.027,0,0,1,1.631-1.376,6.715,6.715,0,0,1,2.7-.09A19.507,19.507,0,0,0,24.8,5.24a1.727,1.727,0,0,0-.385-.11,14.834,14.834,0,0,0-4.907.465A4.727,4.727,0,0,0,16.5,8.283a8.6,8.6,0,0,0-.854,3.24c-.038.858-.123,1.715-.195,2.664-.236.021-.51.068-.783.067-.6,0-1.2-.025-1.8-.044-.315-.011-.5.1-.5.452.007,1.176.006,2.352.015,3.527a1.179,1.179,0,0,0,.113.3l3,.06V30.063H0v-30Z" transform="translate(0 -0.063)" fill="#e35205"/>
</svg>
