<svg xmlns="http://www.w3.org/2000/svg" width="30" height="30" viewBox="0 0 30 30">
  <path id="Path_137" data-name="Path 137" d="M131.515,30h30V0h-30Zm5.629-7.818a2.927,2.927,0,0,1-.6-.384,12.561,12.561,0,0,0,3.175-.386,7.432,7.432,0,0,0,2.936-1.536,4.562,4.562,0,0,1-3.315-1.833,2.126,2.126,0,0,1-.555-1.241,2.266,2.266,0,0,0,1.57-.1,4.668,4.668,0,0,1-3.246-4.279l1.724.533c.035-.038.071-.075.106-.112a5.178,5.178,0,0,1-1.663-2.686,3.861,3.861,0,0,1,.541-3.059,12.915,12.915,0,0,0,8.883,4.532,16.638,16.638,0,0,1,.144-1.939,4.339,4.339,0,0,1,4.073-3.438,4.492,4.492,0,0,1,3.033,1,1.032,1.032,0,0,0,1.168.163c.606-.257,1.231-.473,1.935-.74a6.073,6.073,0,0,1-1.484,2.281l1.954-.549A4.486,4.486,0,0,1,156.1,10.1a1.125,1.125,0,0,0-.557.979,12.846,12.846,0,0,1-2,6.854,11.706,11.706,0,0,1-8.212,5.558,12.078,12.078,0,0,1-8.185-1.3" transform="translate(-131.515)" fill="#e35205"/>
</svg>
