<svg id="Component_12_1" data-name="Component 12 – 1" xmlns="http://www.w3.org/2000/svg" width="30" height="30" viewBox="0 0 30 30">
  <path id="Path_133" data-name="Path 133" d="M56.57,11.946c1.976.974,3.827,1.995,5.839,3.04L56.57,18.2Z" transform="translate(-43.838 -0.001)" fill="#e35205"/>
  <path id="Path_134" data-name="Path 134" d="M43.838,30h30V0h-30Zm23.329-7.359c-1.105.14-2.225.185-3.339.217-2.279.064-4.559.125-6.839.122-1.781,0-3.564-.089-5.343-.171a7.22,7.22,0,0,1-1.543-.249,2.687,2.687,0,0,1-1.952-2.07,11.243,11.243,0,0,1-.314-1.967c-.087-1.159-.114-2.323-.178-3.722.084-1.214.149-2.662.3-4.1a5.14,5.14,0,0,1,.5-1.7A2.75,2.75,0,0,1,50.948,7.5c1.8-.094,3.6-.147,5.4-.2,1.207-.039,2.417-.1,3.624-.08,1.947.025,3.892.1,5.838.161a9.14,9.14,0,0,1,1.342.139A2.987,2.987,0,0,1,69.667,10.4a34.58,34.58,0,0,1,.285,3.613,34.56,34.56,0,0,1-.225,5.333,7.405,7.405,0,0,1-.419,1.644,2.462,2.462,0,0,1-2.141,1.653" transform="translate(-43.838 -0.001)" fill="#e35205"/>
</svg>
