<?xml version="1.0" encoding="utf-8"?>
<!-- Generator: Adobe Illustrator 16.0.0, SVG Export Plug-In . SVG Version: 6.00 Build 0)  -->
<!DOCTYPE svg PUBLIC "-//W3C//DTD SVG 1.1//EN" "http://www.w3.org/Graphics/SVG/1.1/DTD/svg11.dtd">
<svg version="1.1" xmlns="http://www.w3.org/2000/svg" xmlns:xlink="http://www.w3.org/1999/xlink" x="0px" y="0px" width="750px"
	 height="500px" viewBox="0 0 750 500" enable-background="new 0 0 750 500" xml:space="preserve">
<g id="BACKGROUND" display="none">
	<linearGradient id="SVGID_1_" gradientUnits="userSpaceOnUse" x1="375.0005" y1="424" x2="375.0005" y2="2.9814">
		<stop  offset="0" style="stop-color:#FFFFFF"/>
		<stop  offset="0.1903" style="stop-color:#EBF9FF"/>
		<stop  offset="0.5013" style="stop-color:#D1F2FE"/>
		<stop  offset="0.7808" style="stop-color:#C2EEFE"/>
		<stop  offset="1" style="stop-color:#BCECFE"/>
	</linearGradient>
	<rect display="inline" fill="url(#SVGID_1_)" width="750" height="500"/>
</g>
<g id="OBJECT">
	<g opacity="0.5">
		<path opacity="0.58" fill="#B5DEF7" d="M209.292,279.51v-24.536l-16.641,18.188v30.243H181.93v-43.343h-2.726l-7.763-7.254
			l-7.805,7.254h-2.681v58.492h-21.436l0,0h-18.011v57.409h113.78V279.51H209.292z M179.204,295.062h-15.523v-1.586h15.523V295.062z
			 M179.204,291.897h-15.523v-1.586h15.523V291.897z M179.204,288.732h-15.523v-1.582h15.523V288.732z M179.204,285.568h-15.523
			v-1.583h15.523V285.568z M179.204,282.406h-15.523v-1.585h15.523V282.406z M179.204,279.242h-15.523v-1.585h15.523V279.242z
			 M179.204,276.078h-15.523v-1.582h15.523V276.078z M179.204,272.913h-15.523v-1.582h15.523V272.913z M179.204,269.749h-15.523
			v-1.583h15.523V269.749z M179.204,266.588h-15.523v-1.586h15.523V266.588z M179.204,263.423h-15.523v-1.582h15.523V263.423z
			 M207.182,340.495h-1.612V262.63l1.612-1.766V340.495z"/>
		<path opacity="0.6" fill="#B5DEF7" d="M326.804,279.51v-24.536l-16.641,18.188v30.243h-10.721v-43.343h-2.726l-7.763-7.254
			l-7.805,7.254h-2.681v58.492H257.03l0,0h-18.01v57.409H352.8V279.51H326.804z M296.716,295.062h-15.523v-1.586h15.523V295.062z
			 M296.716,291.897h-15.523v-1.586h15.523V291.897z M296.716,288.732h-15.523v-1.582h15.523V288.732z M296.716,285.568h-15.523
			v-1.583h15.523V285.568z M296.716,282.406h-15.523v-1.585h15.523V282.406z M296.716,279.242h-15.523v-1.585h15.523V279.242z
			 M296.716,276.078h-15.523v-1.582h15.523V276.078z M296.716,272.913h-15.523v-1.582h15.523V272.913z M296.716,269.749h-15.523
			v-1.583h15.523V269.749z M296.716,266.588h-15.523v-1.586h15.523V266.588z M296.716,263.423h-15.523v-1.582h15.523V263.423z
			 M324.693,340.495h-1.611V262.63l1.611-1.766V340.495z"/>
		<path opacity="0.29" fill="#B5DEF7" d="M284.336,320.728v-55.455h-2.5v-5.611h-19.331v5.611h-2.484v69.716h-18.142v-31.572
			h-26.418v41.43h-12.764v-74.211h-26.022v57.016h-3.054v-33.939h-4.707l-13.124-6.932v6.932h-2.87v41.916h-6.372v-56.765h-6.444
			v-19.914h-0.882v19.914h-6.444v97.224h167.838v-55.358H284.336z M144.996,315.338h-10.632v-1.234h10.632V315.338z
			 M144.996,312.482h-10.632v-1.233h10.632V312.482z M144.996,309.624h-10.632v-1.233h10.632V309.624z M144.996,306.77h-10.632
			v-1.233h10.632V306.77z M144.996,303.915h-10.632v-1.233h10.632V303.915z M144.996,301.057h-10.632v-1.233h10.632V301.057z
			 M144.996,298.202h-10.632v-1.233h10.632V298.202z M144.996,295.348h-10.632v-1.234h10.632V295.348z M144.996,292.489h-10.632
			v-1.234h10.632V292.489z M144.996,289.634h-10.632V288.4h10.632V289.634z M144.996,286.779h-10.632v-1.233h10.632V286.779z
			 M144.996,283.921h-10.632v-1.233h10.632V283.921z M144.996,281.066h-10.632v-1.233h10.632V281.066z M182.282,298.066h-3.166
			v-3.162h3.166V298.066z M182.282,292.792h-3.166v-3.166h3.166V292.792z M182.282,287.515h-3.166v-3.162h3.166V287.515z
			 M182.282,282.24h-3.166v-3.166h3.166V282.24z M182.282,276.962h-3.166v-3.166h3.166V276.962z M188.294,298.066h-3.162v-3.162
			h3.162V298.066z M188.294,292.792h-3.162v-3.166h3.162V292.792z M188.294,287.515h-3.162v-3.162h3.162V287.515z M188.294,282.24
			h-3.162v-3.166h3.162V282.24z M188.294,276.962h-3.162v-3.166h3.162V276.962z M194.311,298.066h-3.166v-3.162h3.166V298.066z
			 M194.311,292.792h-3.166v-3.166h3.166V292.792z M194.311,287.515h-3.166v-3.162h3.166V287.515z M194.311,282.24h-3.166v-3.166
			h3.166V282.24z M194.311,276.962h-3.166v-3.166h3.166V276.962z M200.323,298.066h-3.162v-3.162h3.162V298.066z M200.323,292.792
			h-3.162v-3.166h3.162V292.792z M200.323,287.515h-3.162v-3.162h3.162V287.515z M200.323,282.24h-3.162v-3.166h3.162V282.24z
			 M286.828,346.826h-3.29v-3.29h3.29V346.826z M286.828,340.238h-3.29v-3.29h3.29V340.238z M286.828,333.65h-3.29v-3.289h3.29
			V333.65z M286.828,327.063h-3.29v-3.29h3.29V327.063z M292.932,346.826h-3.29v-3.29h3.29V346.826z M292.932,340.238h-3.29v-3.29
			h3.29V340.238z M292.932,333.65h-3.29v-3.289h3.29V333.65z M292.932,327.063h-3.29v-3.29h3.29V327.063z M299.036,346.826h-3.293
			v-3.29h3.293V346.826z M299.036,340.238h-3.293v-3.29h3.293V340.238z M299.036,333.65h-3.293v-3.289h3.293V333.65z
			 M299.036,327.063h-3.293v-3.29h3.293V327.063z"/>
		<path opacity="0.41" fill="#B5DEF7" d="M361.532,314.836v-49.563h-2.499v-5.611h-19.331v5.611h-2.484v69.716h-18.142v-31.572
			h-26.418v41.43h-12.764v-74.211h-26.023v57.016h-3.054v-33.939h-4.707l-13.124-6.932v6.932h-2.871v41.916h-6.372v-56.765h-6.444
			v-19.914h-0.882v19.914h-6.444v97.224h167.838v-61.25H361.532z M222.192,315.338h-10.632v-1.234h10.632V315.338z M222.192,312.482
			h-10.632v-1.233h10.632V312.482z M222.192,309.624h-10.632v-1.233h10.632V309.624z M222.192,306.77h-10.632v-1.233h10.632V306.77z
			 M222.192,303.915h-10.632v-1.233h10.632V303.915z M222.192,301.057h-10.632v-1.233h10.632V301.057z M222.192,298.202h-10.632
			v-1.233h10.632V298.202z M222.192,295.348h-10.632v-1.234h10.632V295.348z M222.192,292.489h-10.632v-1.234h10.632V292.489z
			 M222.192,289.634h-10.632V288.4h10.632V289.634z M222.192,286.779h-10.632v-1.233h10.632V286.779z M222.192,283.921h-10.632
			v-1.233h10.632V283.921z M222.192,281.066h-10.632v-1.233h10.632V281.066z M259.478,298.066h-3.166v-3.162h3.166V298.066z
			 M259.478,292.792h-3.166v-3.166h3.166V292.792z M259.478,287.515h-3.166v-3.162h3.166V287.515z M259.478,282.24h-3.166v-3.166
			h3.166V282.24z M259.478,276.962h-3.166v-3.166h3.166V276.962z M265.49,298.066h-3.162v-3.162h3.162V298.066z M265.49,292.792
			h-3.162v-3.166h3.162V292.792z M265.49,287.515h-3.162v-3.162h3.162V287.515z M265.49,282.24h-3.162v-3.166h3.162V282.24z
			 M265.49,276.962h-3.162v-3.166h3.162V276.962z M271.507,298.066h-3.166v-3.162h3.166V298.066z M271.507,292.792h-3.166v-3.166
			h3.166V292.792z M271.507,287.515h-3.166v-3.162h3.166V287.515z M271.507,282.24h-3.166v-3.166h3.166V282.24z M271.507,276.962
			h-3.166v-3.166h3.166V276.962z M277.52,298.066h-3.162v-3.162h3.162V298.066z M277.52,292.792h-3.162v-3.166h3.162V292.792z
			 M277.52,287.515h-3.162v-3.162h3.162V287.515z M277.52,282.24h-3.162v-3.166h3.162V282.24z M365.692,338.093h-2.84v-2.84h2.84
			V338.093z M365.692,332.406h-2.84v-2.841h2.84V332.406z M365.692,326.719h-2.84v-2.84h2.84V326.719z M365.692,321.031h-2.84v-2.84
			h2.84V321.031z M370.962,338.093h-2.84v-2.84h2.84V338.093z M370.962,332.406h-2.84v-2.841h2.84V332.406z M370.962,326.719h-2.84
			v-2.84h2.84V326.719z M370.962,321.031h-2.84v-2.84h2.84V321.031z M376.232,338.093h-2.844v-2.84h2.844V338.093z M376.232,332.406
			h-2.844v-2.841h2.844V332.406z M376.232,326.719h-2.844v-2.84h2.844V326.719z M376.232,321.031h-2.844v-2.84h2.844V321.031z"/>
		<path opacity="0.59" fill="#B5DEF7" d="M461.548,279.51v-24.536l-16.641,18.188v30.243h-10.722v-43.343h-2.726l-7.763-7.254
			l-7.806,7.254h-2.681v58.492h-21.437l0,0h-18.01v57.409h113.78V279.51H461.548z M431.46,295.062h-15.523v-1.586h15.523V295.062z
			 M431.46,291.897h-15.523v-1.586h15.523V291.897z M431.46,288.732h-15.523v-1.582h15.523V288.732z M431.46,285.568h-15.523v-1.583
			h15.523V285.568z M431.46,282.406h-15.523v-1.585h15.523V282.406z M431.46,279.242h-15.523v-1.585h15.523V279.242z
			 M431.46,276.078h-15.523v-1.582h15.523V276.078z M431.46,272.913h-15.523v-1.582h15.523V272.913z M431.46,269.749h-15.523v-1.583
			h15.523V269.749z M431.46,266.588h-15.523v-1.586h15.523V266.588z M431.46,263.423h-15.523v-1.582h15.523V263.423z
			 M459.438,340.495h-1.611V262.63l1.611-1.766V340.495z"/>
		<path opacity="0.42" fill="#B5DEF7" d="M579.061,279.51v-24.536l-16.642,18.188v30.243h-10.721v-43.343h-2.727l-7.763-7.254
			l-7.806,7.254h-2.681v58.492h-21.436l0,0h-18.011v57.409h113.78V279.51H579.061z M548.972,295.062h-15.522v-1.586h15.522V295.062z
			 M548.972,291.897h-15.522v-1.586h15.522V291.897z M548.972,288.732h-15.522v-1.582h15.522V288.732z M548.972,285.568h-15.522
			v-1.583h15.522V285.568z M548.972,282.406h-15.522v-1.585h15.522V282.406z M548.972,279.242h-15.522v-1.585h15.522V279.242z
			 M548.972,276.078h-15.522v-1.582h15.522V276.078z M548.972,272.913h-15.522v-1.582h15.522V272.913z M548.972,269.749h-15.522
			v-1.583h15.522V269.749z M548.972,266.588h-15.522v-1.586h15.522V266.588z M548.972,263.423h-15.522v-1.582h15.522V263.423z
			 M576.949,340.495h-1.611V262.63l1.611-1.766V340.495z"/>
		<path opacity="0.6" fill="#B5DEF7" d="M536.593,320.728v-55.455h-2.5v-5.611h-19.33v5.611h-2.484v69.716h-18.142v-31.572h-26.418
			v41.43h-12.764v-74.211h-26.022v57.016h-3.055v-33.939h-4.707l-13.123-6.932v6.932h-2.87v41.916h-6.372v-56.765h-6.444v-19.914
			h-0.882v19.914h-6.444v97.224h167.838v-55.358H536.593z M397.253,315.338h-10.632v-1.234h10.632V315.338z M397.253,312.482
			h-10.632v-1.233h10.632V312.482z M397.253,309.624h-10.632v-1.233h10.632V309.624z M397.253,306.77h-10.632v-1.233h10.632V306.77z
			 M397.253,303.915h-10.632v-1.233h10.632V303.915z M397.253,301.057h-10.632v-1.233h10.632V301.057z M397.253,298.202h-10.632
			v-1.233h10.632V298.202z M397.253,295.348h-10.632v-1.234h10.632V295.348z M397.253,292.489h-10.632v-1.234h10.632V292.489z
			 M397.253,289.634h-10.632V288.4h10.632V289.634z M397.253,286.779h-10.632v-1.233h10.632V286.779z M397.253,283.921h-10.632
			v-1.233h10.632V283.921z M397.253,281.066h-10.632v-1.233h10.632V281.066z M434.538,298.066h-3.166v-3.162h3.166V298.066z
			 M434.538,292.792h-3.166v-3.166h3.166V292.792z M434.538,287.515h-3.166v-3.162h3.166V287.515z M434.538,282.24h-3.166v-3.166
			h3.166V282.24z M434.538,276.962h-3.166v-3.166h3.166V276.962z M440.551,298.066h-3.162v-3.162h3.162V298.066z M440.551,292.792
			h-3.162v-3.166h3.162V292.792z M440.551,287.515h-3.162v-3.162h3.162V287.515z M440.551,282.24h-3.162v-3.166h3.162V282.24z
			 M440.551,276.962h-3.162v-3.166h3.162V276.962z M446.566,298.066h-3.165v-3.162h3.165V298.066z M446.566,292.792h-3.165v-3.166
			h3.165V292.792z M446.566,287.515h-3.165v-3.162h3.165V287.515z M446.566,282.24h-3.165v-3.166h3.165V282.24z M446.566,276.962
			h-3.165v-3.166h3.165V276.962z M452.58,298.066h-3.162v-3.162h3.162V298.066z M452.58,292.792h-3.162v-3.166h3.162V292.792z
			 M452.58,287.515h-3.162v-3.162h3.162V287.515z M452.58,282.24h-3.162v-3.166h3.162V282.24z M539.084,346.826h-3.29v-3.29h3.29
			V346.826z M539.084,340.238h-3.29v-3.29h3.29V340.238z M539.084,333.65h-3.29v-3.289h3.29V333.65z M539.084,327.063h-3.29v-3.29
			h3.29V327.063z M545.188,346.826h-3.29v-3.29h3.29V346.826z M545.188,340.238h-3.29v-3.29h3.29V340.238z M545.188,333.65h-3.29
			v-3.289h3.29V333.65z M545.188,327.063h-3.29v-3.29h3.29V327.063z M551.293,346.826h-3.294v-3.29h3.294V346.826z M551.293,340.238
			h-3.294v-3.29h3.294V340.238z M551.293,333.65h-3.294v-3.289h3.294V333.65z M551.293,327.063h-3.294v-3.29h3.294V327.063z"/>
		<path opacity="0.64" fill="#B5DEF7" d="M613.788,314.836v-49.563h-2.499v-5.611h-19.33v5.611h-2.484v69.716h-18.142v-31.572
			h-26.418v41.43h-12.764v-74.211h-26.022v57.016h-3.055v-33.939h-4.707l-13.123-6.932v6.932h-2.87v41.916h-6.372v-56.765h-6.444
			v-19.914h-0.882v19.914h-6.444v97.224h167.838v-61.25H613.788z M474.448,315.338h-10.632v-1.234h10.632V315.338z M474.448,312.482
			h-10.632v-1.233h10.632V312.482z M474.448,309.624h-10.632v-1.233h10.632V309.624z M474.448,306.77h-10.632v-1.233h10.632V306.77z
			 M474.448,303.915h-10.632v-1.233h10.632V303.915z M474.448,301.057h-10.632v-1.233h10.632V301.057z M474.448,298.202h-10.632
			v-1.233h10.632V298.202z M474.448,295.348h-10.632v-1.234h10.632V295.348z M474.448,292.489h-10.632v-1.234h10.632V292.489z
			 M474.448,289.634h-10.632V288.4h10.632V289.634z M474.448,286.779h-10.632v-1.233h10.632V286.779z M474.448,283.921h-10.632
			v-1.233h10.632V283.921z M474.448,281.066h-10.632v-1.233h10.632V281.066z M511.734,298.066h-3.166v-3.162h3.166V298.066z
			 M511.734,292.792h-3.166v-3.166h3.166V292.792z M511.734,287.515h-3.166v-3.162h3.166V287.515z M511.734,282.24h-3.166v-3.166
			h3.166V282.24z M511.734,276.962h-3.166v-3.166h3.166V276.962z M517.746,298.066h-3.161v-3.162h3.161V298.066z M517.746,292.792
			h-3.161v-3.166h3.161V292.792z M517.746,287.515h-3.161v-3.162h3.161V287.515z M517.746,282.24h-3.161v-3.166h3.161V282.24z
			 M517.746,276.962h-3.161v-3.166h3.161V276.962z M523.763,298.066h-3.166v-3.162h3.166V298.066z M523.763,292.792h-3.166v-3.166
			h3.166V292.792z M523.763,287.515h-3.166v-3.162h3.166V287.515z M523.763,282.24h-3.166v-3.166h3.166V282.24z M523.763,276.962
			h-3.166v-3.166h3.166V276.962z M529.775,298.066h-3.162v-3.162h3.162V298.066z M529.775,292.792h-3.162v-3.166h3.162V292.792z
			 M529.775,287.515h-3.162v-3.162h3.162V287.515z M529.775,282.24h-3.162v-3.166h3.162V282.24z M617.948,338.093h-2.84v-2.84h2.84
			V338.093z M617.948,332.406h-2.84v-2.841h2.84V332.406z M617.948,326.719h-2.84v-2.84h2.84V326.719z M617.948,321.031h-2.84v-2.84
			h2.84V321.031z M623.219,338.093h-2.84v-2.84h2.84V338.093z M623.219,332.406h-2.84v-2.841h2.84V332.406z M623.219,326.719h-2.84
			v-2.84h2.84V326.719z M623.219,321.031h-2.84v-2.84h2.84V321.031z M628.488,338.093h-2.844v-2.84h2.844V338.093z M628.488,332.406
			h-2.844v-2.841h2.844V332.406z M628.488,326.719h-2.844v-2.84h2.844V326.719z M628.488,321.031h-2.844v-2.84h2.844V321.031z"/>
		<rect x="545.985" y="308.938" fill="#B5DEF7" width="18.667" height="67.147"/>
		<path fill="#B5DEF7" d="M669.336,377.137H80.664c-0.367,0-0.664-0.249-0.664-0.556l0,0c0-0.308,0.297-0.557,0.664-0.557h588.672
			c0.367,0,0.664,0.249,0.664,0.557l0,0C670,376.888,669.703,377.137,669.336,377.137z"/>
	</g>
	<g>
		<path fill="#E8505C" d="M307.767,259.663c4.632,0.51,8.71,1.524,12.237,3.042c3.525,1.52,6.446,3.536,8.763,6.051
			c2.315,2.516,3.967,5.583,4.953,9.203s1.225,7.744,0.716,12.368c-0.659,5.981-2.295,10.827-4.904,14.535
			c-2.611,3.708-6.03,6.379-10.258,8.012l9.917,29.91c0.158,0.502,0.214,0.952,0.171,1.351c-0.079,0.718-0.376,1.312-0.889,1.779
			c-0.515,0.47-1.085,0.667-1.717,0.598l-14.316-1.577c-1.405-0.154-2.365-0.624-2.882-1.407c-0.518-0.783-0.913-1.554-1.184-2.31
			l-8.865-26.888l-9.685-1.066l-2.82,25.601c-0.097,0.879-0.461,1.605-1.092,2.181c-0.633,0.577-1.334,0.821-2.105,0.736
			l-13.79-1.519c-0.773-0.085-1.404-0.476-1.895-1.177c-0.492-0.699-0.688-1.488-0.592-2.366l8.511-77.282
			c0.097-0.877,0.459-1.603,1.092-2.18c0.631-0.576,1.333-0.822,2.106-0.737L307.767,259.663z M291.879,294.602l11.896,1.31
			c2.947,0.324,5.455-0.044,7.527-1.108c2.07-1.063,3.29-3.271,3.659-6.62c0.369-3.35-0.342-5.769-2.131-7.258
			c-1.791-1.486-4.158-2.396-7.105-2.72l-11.895-1.311L291.879,294.602z"/>
		<path fill="#E6F8FF" d="M431.426,87.737h-0.651l-20.766-26.706l-20.16,26.706h-1.094h-81.014l-42.952,42.531h42.363v10.069
			l2,0.001v-10.071h39.116l0.108,0.108l0.108-0.108h0.937l0.108,0.108l0.108-0.108h39.116v244.833h42.671V130.268h39.117
			l0.108,0.108l0.108-0.108h1.01l42.951-42.531H431.426z M269.651,128.268l37.501-37.134v37.134H269.651z M346.67,89.737
			l-18.052,18.052l-18.052-18.052H346.67z M309.152,91.151l18.052,18.052l-18.052,18.052V91.151z M310.968,128.268l17.65-17.651
			l17.65,17.651H310.968z M347.823,126.995l-17.791-17.792l17.791-17.791V126.995z M387.341,89.737l-18.052,18.052l-18.052-18.052
			H387.341z M349.823,91.151l18.052,18.052l-18.052,18.052V91.151z M351.639,128.268l17.65-17.651l17.65,17.651H351.639z
			 M388.755,127.255l-18.052-18.052l18.052-18.052V127.255z M410.032,64.32l18.21,23.417h-35.888L410.032,64.32z M427.941,89.737
			l-17.886,17.886l-17.887-17.886H427.941z M392.429,330.731l17.627-17.626l17.627,17.626H392.429z M428.131,332.731l-18.075,18.076
			l-18.076-18.076H428.131z M392.074,292.296h35.962l-17.98,17.981L392.074,292.296z M392.334,290.296l17.722-17.722l17.722,17.722
			H392.334z M392.169,251.859h35.772l-17.886,17.887L392.169,251.859z M392.239,249.86l17.816-17.816l17.816,17.816H392.239z
			 M392.264,211.424h35.583l-17.791,17.791L392.264,211.424z M392.145,209.424l17.911-17.911l17.911,17.911H392.145z
			 M392.169,170.799h35.772l-17.886,17.886L392.169,170.799z M392.239,168.799l17.816-17.816l17.816,17.816H392.239z
			 M392.169,130.268h35.772l-17.886,17.886L392.169,130.268z M392.239,128.268l17.816-17.816l17.816,17.816H392.239z
			 M390.755,91.151l17.887,17.886l-17.887,17.887V91.151z M390.755,131.682l17.887,17.886l-17.887,17.887V131.682z M390.755,172.213
			l17.887,17.886l-17.887,17.887V172.213z M390.755,212.744l17.887,17.886l-17.887,17.887V212.744z M390.755,253.273l17.887,17.887
			l-17.887,17.887V253.273z M390.755,293.805l17.887,17.887l-17.887,17.886V293.805z M390.755,334.335l17.887,17.887l-17.887,17.886
			V334.335z M429.426,373.102h-38.671v-0.166l19.301-19.3l19.37,19.369V373.102z M429.426,370.177l-17.956-17.955l17.956-17.957
			V370.177z M429.426,329.647l-17.956-17.956l17.956-17.957V329.647z M429.426,289.116L411.47,271.16l17.956-17.957V289.116z
			 M429.426,248.585l-17.956-17.956l17.956-17.956V248.585z M429.426,208.055l-17.956-17.956l17.956-17.957V208.055z
			 M429.426,167.524l-17.956-17.956l17.956-17.957V167.524z M429.426,126.994l-17.956-17.956l17.956-17.957V126.994z
			 M468.944,89.737l-18.052,18.052L432.84,89.737H468.944z M431.426,91.151l18.053,18.052l-18.053,18.052V91.151z M433.241,128.268
			l17.651-17.651l17.65,17.651H433.241z M470.358,127.255l-18.052-18.052l18.052-18.052V127.255z M472.358,89.737h37.501
			l-37.501,37.133V89.737z"/>
		<path fill="#E6F8FF" d="M307.152,208.266c-2.485,0-4.507-2.022-4.507-4.507v-67.901c0-2.486,2.022-4.508,4.507-4.508
			s4.507,2.022,4.507,4.508v67.901C311.66,206.244,309.638,208.266,307.152,208.266z M307.152,132.099
			c-2.072,0-3.757,1.686-3.757,3.758v67.901c0,2.072,1.686,3.757,3.757,3.757s3.757-1.686,3.757-3.757v-67.901
			C310.91,133.785,309.224,132.099,307.152,132.099z"/>
		<path fill="#67C2EF" d="M307.152,207.891L307.152,207.891c-2.273,0-4.132-1.859-4.132-4.132v-11.611
			c0-2.273,1.859-4.132,4.132-4.132l0,0c2.273,0,4.132,1.859,4.132,4.132v11.611C311.285,206.031,309.425,207.891,307.152,207.891z"
			/>
		<path fill="#67C2EF" d="M307.144,224.673c-0.279,0-0.562-0.021-0.848-0.062c-2.974-0.43-5.143-2.909-5.272-6.028
			c-0.03-0.72,0.529-1.328,1.25-1.358c0.697-0.025,1.328,0.529,1.358,1.25c0.09,2.152,1.638,3.351,3.039,3.554
			c1.683,0.245,3.091-0.809,3.776-2.814c1.28-3.75-3.345-6.446-3.543-6.559c-0.406-0.232-0.66-0.667-0.66-1.135v-5.836
			c0-0.721,0.584-1.305,1.305-1.305s1.305,0.584,1.305,1.305v5.112c2.336,1.579,5.505,5.036,4.063,9.262
			C311.932,222.937,309.72,224.673,307.144,224.673z"/>
		<path fill="#67C2EF" d="M309.635,144.089h-4.966c-2.237,0-4.051-1.813-4.051-4.051v-16.627c0-2.237,1.814-4.051,4.051-4.051h4.966
			c2.237,0,4.051,1.813,4.051,4.051v16.627C313.686,142.275,311.873,144.089,309.635,144.089z"/>
		
			<line fill="none" stroke="#FFBC97" stroke-width="1.5" stroke-linecap="round" stroke-linejoin="round" stroke-miterlimit="10" x1="307.152" y1="221.839" x2="307.152" y2="278.472"/>
	</g>
	<g>
		<path fill="#67C2EF" d="M204.634,379.276c-0.778,0-1.448-0.319-2.012-0.963c-0.566-0.641-0.847-1.403-0.847-2.287v-77.749
			c0-0.883,0.281-1.644,0.847-2.287c0.564-0.641,1.234-0.962,2.012-0.962h34.101c4.729,0,8.719,0.742,11.968,2.226
			c3.246,1.486,5.841,3.412,7.784,5.777c1.941,2.367,3.336,5.055,4.184,8.063c0.847,3.01,1.271,5.999,1.271,8.967
			c0,2.328-0.23,4.354-0.688,6.078c-0.46,1.727-1.006,3.21-1.641,4.453c-0.636,1.245-1.29,2.247-1.959,3.009
			c-0.672,0.764-1.218,1.345-1.642,1.745c2.753,2.167,4.676,4.675,5.772,7.522c1.093,2.849,1.641,6.279,1.641,10.29
			c0,3.291-0.423,6.499-1.271,9.629c-0.847,3.129-2.243,5.918-4.184,8.364c-1.942,2.448-4.466,4.414-7.572,5.897
			c-3.108,1.485-6.92,2.227-11.438,2.227H204.634z M244.243,320.543c0-2.086-0.548-3.75-1.642-4.995
			c-1.095-1.242-2.701-1.865-4.819-1.865h-16.415v13.721h16.415c2.118,0,3.724-0.62,4.819-1.865
			C243.695,324.295,244.243,322.63,244.243,320.543z M221.367,360.621h17.474c2.118,0,3.813-0.701,5.083-2.106
			c1.271-1.402,1.906-3.147,1.906-5.234c0-2.086-0.635-3.831-1.906-5.236c-1.271-1.402-2.965-2.106-5.083-2.106h-17.474V360.621z"/>
		<path fill="#67C2EF" d="M382.294,295.028c1.412,0,2.489,0.441,3.23,1.323c0.741,0.884,1.253,1.767,1.536,2.648l23.087,75.823
			c0.281,0.803,0.424,1.404,0.424,1.806c0,0.722-0.23,1.345-0.688,1.865c-0.46,0.523-1.006,0.782-1.642,0.782h-13.344
			c-1.413,0-2.419-0.341-3.019-1.022c-0.601-0.682-0.971-1.344-1.111-1.986l-2.966-9.989h-28.17l-2.966,9.989
			c-0.142,0.643-0.513,1.305-1.112,1.986c-0.601,0.682-1.607,1.022-3.019,1.022h-13.344c-0.635,0-1.183-0.259-1.641-0.782
			c-0.46-0.521-0.688-1.144-0.688-1.865c0-0.401,0.141-1.003,0.423-1.806L360.373,299c0.281-0.882,0.794-1.765,1.536-2.648
			c0.741-0.882,1.816-1.323,3.23-1.323H382.294z M365.138,347.623h17.156l-8.577-28.886L365.138,347.623z"/>
		<path fill="#E8505C" d="M462.924,379.276c-1.201,0-2.171-0.361-2.912-1.083c-0.741-0.723-1.218-1.283-1.43-1.686l-24.252-41.161
			v40.68c0,0.884-0.283,1.646-0.848,2.287c-0.565,0.644-1.236,0.963-2.012,0.963h-13.874c-0.777,0-1.448-0.319-2.012-0.963
			c-0.566-0.641-0.848-1.403-0.848-2.287v-77.749c0-0.883,0.281-1.644,0.848-2.287c0.563-0.641,1.234-0.962,2.012-0.962h11.015
			c1.199,0,2.171,0.36,2.912,1.082c0.741,0.723,1.218,1.284,1.43,1.686l24.252,41.162v-40.681c0-0.883,0.281-1.644,0.848-2.287
			c0.564-0.641,1.233-0.962,2.012-0.962h13.873c0.777,0,1.446,0.321,2.013,0.962c0.564,0.644,0.847,1.404,0.847,2.287v77.749
			c0,0.884-0.282,1.646-0.847,2.287c-0.566,0.644-1.235,0.963-2.013,0.963H462.924z"/>
		<path fill="#67C2EF" d="M514.653,295.028c4.872,0,9.319,0.823,13.344,2.467c4.024,1.646,7.501,3.953,10.432,6.92
			c2.929,2.97,5.225,6.521,6.884,10.651c1.658,4.134,2.595,8.646,2.807,13.54c0.069,1.686,0.105,3.231,0.105,4.634
			c0,1.404,0,2.749,0,4.032c0,1.284,0,2.608,0,3.972c0,1.365-0.036,2.849-0.105,4.453c-0.212,4.976-1.13,9.508-2.754,13.601
			c-1.625,4.092-3.865,7.623-6.725,10.591c-2.859,2.97-6.267,5.276-10.22,6.92c-3.955,1.646-8.367,2.468-13.238,2.468h-28.595
			c-0.777,0-1.447-0.319-2.012-0.963c-0.565-0.641-0.848-1.403-0.848-2.287v-77.749c0-0.883,0.282-1.644,0.848-2.287
			c0.564-0.641,1.234-0.962,2.012-0.962H514.653z M528.527,328.125c-0.425-9.226-5.226-13.841-14.404-13.841h-10.802v45.735h11.332
			c8.896,0,13.52-4.613,13.874-13.841c0.068-1.685,0.104-3.269,0.104-4.754c0-1.483,0-2.928,0-4.333c0-1.403,0-2.828,0-4.272
			S528.596,329.811,528.527,328.125z"/>
	</g>
	<g>
		<g>
			<path fill="#153351" d="M585.962,210.938c-0.434-1.194-0.866-2.389-1.3-3.583c-0.185-0.511-0.407-1.066-0.889-1.321
				c-0.287-0.152-0.633-0.17-0.95-0.098c-1.138,0.259-1.735,1.498-2.055,2.62c-0.523,1.842-0.74,3.786-1.551,5.521
				c-0.183,0.392-0.397,0.775-0.492,1.198c-0.3,1.334,0.722,3.561,2.385,3.292c0.257-0.042,0.498-0.145,0.741-0.235
				c1.035-0.387,1.752-0.086,2.757,0.195c0.932,0.261,1.935,0.072,2.767-0.415c0.926-0.542,1.617-1.47,1.868-2.513"/>
		</g>
		<g>
			<g>
				<g>
					<path fill="#C1E9F4" d="M567.752,401.673c-0.119,0-0.241-0.025-0.362-0.081c-0.61-0.279-0.966-1.193-0.793-2.041
						c4.488-21.982,8.769-44.205,12.907-65.695c4.136-21.478,8.414-43.686,12.862-65.45c0.173-0.848,0.809-1.313,1.421-1.031
						c0.611,0.279,0.967,1.193,0.793,2.042c-4.444,21.744-8.719,43.939-12.853,65.406c-4.143,21.501-8.424,43.734-12.917,65.739
						C568.672,401.241,568.234,401.673,567.752,401.673z"/>
				</g>
				<g>
					<path fill="#C1E9F4" d="M541.315,401.673c-0.119,0-0.241-0.025-0.361-0.081c-0.611-0.279-0.966-1.193-0.794-2.041
						c4.489-21.982,8.769-44.205,12.907-65.695c4.136-21.478,8.414-43.686,12.862-65.45c0.174-0.848,0.81-1.313,1.421-1.031
						c0.612,0.279,0.967,1.193,0.794,2.042c-4.444,21.744-8.72,43.939-12.854,65.406c-4.142,21.501-8.424,43.734-12.916,65.739
						C542.235,401.241,541.799,401.673,541.315,401.673z"/>
				</g>
				<g>
					<path fill="#C1E9F4" d="M571.104,383.188"/>
				</g>
				<g>
					<path fill="#C1E9F4" d="M546.024,383.188"/>
				</g>
				<g>
					<path fill="#C1E9F4" d="M574.774,362.956h-25.078c-0.635,0-1.171-0.724-1.197-1.617s0.466-1.616,1.102-1.616h25.078
						c0.635,0,1.171,0.723,1.197,1.616S575.41,362.956,574.774,362.956z"/>
				</g>
				<g>
					<path fill="#C1E9F4" d="M578.771,341.107h-25.079c-0.636,0-1.171-0.723-1.197-1.617c-0.027-0.894,0.466-1.616,1.101-1.616
						h25.079c0.636,0,1.171,0.723,1.197,1.616C579.898,340.385,579.405,341.107,578.771,341.107z"/>
				</g>
				<g>
					<path fill="#C1E9F4" d="M570.78,384.804h-25.079c-0.636,0-1.171-0.723-1.197-1.616c-0.027-0.894,0.466-1.617,1.101-1.617
						h25.079c0.636,0,1.171,0.724,1.197,1.617C571.908,384.081,571.415,384.804,570.78,384.804z"/>
				</g>
				<g>
					<path fill="#C1E9F4" d="M583.543,319.259h-25.078c-0.635,0-1.171-0.723-1.197-1.616c-0.027-0.894,0.466-1.617,1.101-1.617
						h25.078c0.636,0,1.171,0.724,1.197,1.617C584.671,318.536,584.178,319.259,583.543,319.259z"/>
				</g>
				<g>
					<path fill="#C1E9F4" d="M587.167,297.41h-25.078c-0.635,0-1.171-0.723-1.197-1.616s0.466-1.616,1.101-1.616h25.078
						c0.636,0,1.171,0.723,1.198,1.616C588.295,296.688,587.803,297.41,587.167,297.41z"/>
				</g>
				<g>
					<path fill="#C1E9F4" d="M592.311,275.563h-25.077c-0.636,0-1.171-0.723-1.198-1.616c-0.026-0.894,0.467-1.616,1.102-1.616
						h25.078c0.635,0,1.171,0.723,1.197,1.616S592.946,275.563,592.311,275.563z"/>
				</g>
			</g>
			<g>
				<g>
					<path fill="#A7DDF2" d="M581.425,401.673c0.118,0,0.243-0.025,0.368-0.081c0.635-0.279,1.066-1.193,0.966-2.041
						c-2.631-21.982-5.032-44.205-7.355-65.695c-2.321-21.478-4.723-43.686-7.331-65.45c-0.102-0.848-0.697-1.313-1.334-1.031
						c-0.636,0.279-1.068,1.193-0.966,2.042c2.606,21.744,5.006,43.939,7.326,65.406c2.324,21.501,4.728,43.734,7.36,65.739
						C580.541,401.241,580.941,401.673,581.425,401.673z"/>
				</g>
				<g>
					<path fill="#A7DDF2" d="M607.86,401.673c0.119,0,0.243-0.025,0.368-0.081c0.635-0.279,1.067-1.193,0.967-2.041
						c-2.632-21.982-5.033-44.205-7.356-65.695c-2.32-21.478-4.722-43.686-7.331-65.45c-0.102-0.848-0.698-1.313-1.333-1.031
						c-0.636,0.279-1.068,1.193-0.967,2.042c2.607,21.744,5.007,43.939,7.326,65.406c2.325,21.501,4.728,43.734,7.361,65.739
						C606.978,401.241,607.378,401.673,607.86,401.673z"/>
				</g>
				<g>
					<path fill="#A7DDF2" d="M579.636,383.188"/>
				</g>
				<g>
					<path fill="#A7DDF2" d="M604.714,383.188"/>
				</g>
				<g>
					<path fill="#A7DDF2" d="M577.673,362.956h25.078c0.636,0,1.232-0.724,1.335-1.617c0.102-0.894-0.33-1.616-0.965-1.616h-25.078
						c-0.636,0-1.232,0.723-1.334,1.616C576.606,362.232,577.038,362.956,577.673,362.956z"/>
				</g>
				<g>
					<path fill="#A7DDF2" d="M575.523,341.107h25.079c0.636,0,1.232-0.723,1.335-1.617c0.102-0.894-0.33-1.616-0.965-1.616h-25.079
						c-0.636,0-1.232,0.723-1.334,1.616C574.457,340.385,574.889,341.107,575.523,341.107z"/>
				</g>
				<g>
					<path fill="#A7DDF2" d="M579.821,384.804H604.9c0.636,0,1.232-0.723,1.335-1.616c0.102-0.894-0.33-1.617-0.965-1.617h-25.079
						c-0.636,0-1.232,0.724-1.334,1.617C578.755,384.081,579.187,384.804,579.821,384.804z"/>
				</g>
				<g>
					<path fill="#A7DDF2" d="M572.598,319.259h25.078c0.635,0,1.231-0.723,1.334-1.616s-0.329-1.617-0.965-1.617h-25.078
						c-0.635,0-1.231,0.724-1.334,1.617C571.531,318.536,571.963,319.259,572.598,319.259z"/>
				</g>
				<g>
					<path fill="#A7DDF2" d="M570.82,297.41h25.077c0.636,0,1.232-0.723,1.335-1.616c0.102-0.894-0.33-1.616-0.965-1.616h-25.078
						c-0.635,0-1.232,0.723-1.334,1.616C569.753,296.688,570.185,297.41,570.82,297.41z"/>
				</g>
				<g>
					<path fill="#A7DDF2" d="M567.522,275.563H592.6c0.636,0,1.232-0.723,1.334-1.616c0.103-0.894-0.329-1.616-0.964-1.616h-25.078
						c-0.636,0-1.232,0.723-1.334,1.616C566.455,274.841,566.887,275.563,567.522,275.563z"/>
				</g>
			</g>
			<path fill="#67C2EF" d="M562.38,269.346h35.412v-3.222c0-1.526-1.236-2.763-2.763-2.763h-29.887
				c-1.525,0-2.763,1.236-2.763,2.763V269.346z"/>
		</g>
		<g>
			<g id="XMLID_161_">
				<path id="XMLID_208_" fill="#FCB6AC" d="M583.285,227.373c0,0-2.186,0.323-4.944,0.634c-4.149,0.477-9.601,0.924-10.983,0.238
					c-2.295-1.154-9.84-7.629-9.84-7.629l-1.184-0.766c-0.202-0.119-0.419-0.191-0.651-0.218c-0.251-0.023-0.673-0.078-1.236-0.223
					c-0.284-0.078-0.556-0.194-0.791-0.342c-0.047-0.015-0.088-0.046-0.129-0.077c-0.021-0.016-0.036-0.021-0.036-0.021
					c-0.525-0.339-0.929-0.758-1.267-1.035c-0.522-0.424,0.256-0.69,1.138-0.258c0.876,0.422,0.317,0.339,0.876,0.318
					c0.551-0.023-0.036-0.848-0.545-1.44c-0.471-0.553-0.405-0.566-0.871-1.213c-0.46-0.636-0.896-1.135-1.147-1.546
					c-0.17-0.29-0.245-0.66,0.086-0.566c0.344,0.106,1.807,1.534,2.174,1.777c0.369,0.235,0.905-0.207,1.932,0.36
					c1.025,0.567,1.429,2.227,1.752,2.757c0.322,0.53,10.763,6.644,12.059,6.585c1.298-0.066,11.104-2.405,14.142-2.235
					C585.459,222.564,583.285,227.373,583.285,227.373z"/>
				<path id="XMLID_206_" opacity="0.3" fill="#ED9C80" d="M578.341,228.007c-4.149,0.477-9.601,0.924-10.983,0.238
					c-2.295-1.154-9.84-7.629-9.84-7.629l-1.184-0.766c-0.202-0.119-0.419-0.191-0.651-0.218c-0.251-0.023-0.673-0.078-1.236-0.223
					c-0.284-0.078-0.556-0.194-0.791-0.342c0.695,0.344,2.144,0.061,2.854,0.436c0.765,0.394,6.071,4.716,8.476,6.243
					c2.398,1.516,3.303,2.034,5.46,2.029c2.153,0.003,7.275-0.907,7.275-0.907L578.341,228.007z"/>
			</g>
			<path id="XMLID_202_" fill="#FCB6AC" d="M558.882,294.111c0,0-0.407,2.141-0.325,3.836c0.248,1.171,0.041,1.522,0.041,1.522
				l-4.474-0.255c0,0,1.945-1.024,1.679-5.623C555.534,288.993,558.882,294.111,558.882,294.111z"/>
			<path id="XMLID_199_" fill="#153351" d="M558.622,298.302c0,0-1.92,0.774-3.853,0.286c-2.225,1.104-3.801,1.559-5.845,1.876
				c-2.043,0.316-1.632,1.993,1.865,1.662c3.497-0.332,5.946-0.24,6.728-0.185c0.78,0.057,2.029,0.125,2.065-0.421
				C559.62,300.974,559.25,298.104,558.622,298.302z"/>
			<path id="XMLID_196_" fill="#FCB6AC" d="M572.579,296.108c0,0-0.407,2.141-0.325,3.836c0.248,1.17,0.041,1.522,0.041,1.522
				l-4.474-0.256c0,0,1.945-1.023,1.678-5.622S572.579,296.108,572.579,296.108z"/>
			<path id="XMLID_193_" fill="#153351" d="M572.319,300.299c0,0-1.92,0.774-3.853,0.286c-2.225,1.104-3.802,1.559-5.845,1.876
				c-2.043,0.316-1.632,1.993,1.865,1.662c3.497-0.332,5.946-0.24,6.727-0.185c0.781,0.057,2.03,0.125,2.066-0.421
				C573.317,302.971,572.947,300.101,572.319,300.299z"/>
			<path id="XMLID_192_" fill="#285FAF" d="M576.656,252.576c0,0-20.358,6.585-21.221,14.58c-0.421,3.898-3.762,26.515-3.762,26.515
				s7.867,2.693,9.526,1.094c0,0,1.834-22.567,2.58-26.338c0.746-3.77,20.65-12.336,20.65-12.336l-0.811-5.126L576.656,252.576z"/>
			<path id="XMLID_36_" fill="#285FAF" d="M576.656,252.576c0,0-20.358,6.585-21.221,14.58c-0.421,3.898-3.762,26.515-3.762,26.515
				s7.867,2.693,9.526,1.094c0,0,1.834-22.567,2.58-26.338c0.746-3.77,20.65-12.336,20.65-12.336l-0.811-5.126L576.656,252.576z"/>
			<g>
				<path fill="#144E93" d="M579.233,252.561l4.77,0.828l0.428,2.702c0,0-19.904,8.566-20.65,12.336
					c-0.164,0.829-0.38,2.565-0.618,4.77c-0.365-1.399-0.73-2.799-1.096-4.198c-0.143-0.545-0.286-1.097-0.294-1.66
					c-0.018-1.216,0.593-2.351,1.288-3.349C566.431,259.146,573.9,255.084,579.233,252.561z"/>
			</g>
			<path id="XMLID_191_" fill="#285FAF" d="M573.036,268.877c-0.839-5.6,15.543-2.367,18.744-7.165c1.116-1.673,1.769-6.769,0-8.148
				c-3.444-2.687-10.507-1.777-10.507-1.777s-16.657,9.97-16.672,14.09c-0.017,4.611,2.287,30.677,2.287,30.677
				s7.508,1.045,8.032-0.384C575.899,288.899,573.036,268.877,573.036,268.877z"/>
			<path id="XMLID_188_" fill="#FFFFFF" d="M579,235.77c0.69,9.33-3.404,9.48-3.698,17.418c0,0,10.146-1.277,17.394,1.759
				c0,0-0.576-4.514-2.159-8.724c-0.047-0.129-0.101-0.251-0.147-0.373c-0.305-0.781-0.646-1.555-1.028-2.269
				c-0.016-0.043-0.038-0.079-0.062-0.122c-0.046-0.1-0.092-0.193-0.124-0.301c-0.03-0.036-0.046-0.071-0.054-0.107
				c-0.454-1.212-0.26-2.783,0.288-4.465c0.507-1.558,1.323-3.212,2.207-4.751c0.525-0.914,1.081-1.792,1.603-2.582v-0.007
				c1.509-2.253,2.812-3.87,2.812-3.87s0.889-2.96-0.895-5.549c0-0.007-0.008-0.007-0.016-0.014
				c-0.204-0.306-0.451-0.603-0.734-0.885c-0.769-0.769-2.905-1.752-4.646-2.334c-0.446-0.147-0.87-0.272-1.235-0.356
				c-0.292-0.072-0.547-0.115-0.757-0.131c-1.018-0.081-1.777-0.037-2.404,0.096c-1.887,0.423-2.492,0.812-5.31,1.66l-6.136,2.67
				c0,0,0.818,5.145,0.188,6.692l4.251-0.12C578.336,229.105,578.919,234.679,579,235.77z"/>
			<path id="XMLID_186_" fill="#F0F9FC" d="M589.122,243.051c-1.123-3.011,1.726-8.219,4.096-11.795v-0.008l-2.621-2.76
				c0,0,0.047,4.539-0.732,6.315C589.093,236.564,587.858,240.189,589.122,243.051z"/>
			<path id="XMLID_185_" fill="#F0F9FC" d="M579.6,224.857c0,0-1.774,2.87-1.261,4.25c-4.255,0.119-4.255,0.119-4.255,0.119
				s0.274-0.667,0.239-1.872C574.979,227.519,577.546,228.151,579.6,224.857z"/>
			<g id="XMLID_162_">
				<path id="XMLID_184_" fill="#DB4052" d="M583.166,251.862l-16.919-0.681c-0.402-0.016-0.742-0.305-0.823-0.7l-2.342-11.449
					c-0.113-0.558,0.325-1.074,0.895-1.051l16.919,0.68c0.402,0.016,0.742,0.305,0.823,0.7l2.342,11.449
					C584.174,251.368,583.735,251.885,583.166,251.862z"/>
				<path id="XMLID_182_" fill="#E8505C" d="M583.208,251.449l-16.845-0.677c-0.242-0.01-0.445-0.183-0.494-0.419l-2.315-11.323
					c-0.068-0.334,0.195-0.644,0.535-0.63l16.46,0.662c0.377,0.015,0.695,0.286,0.771,0.656l2.3,11.247
					C583.673,251.222,583.47,251.46,583.208,251.449z"/>
				<path id="XMLID_164_" fill="#FCB6AC" d="M584.539,245.691l0.123,0.688l0.354-0.051l0.203,1c0,0,0.275-0.05,0.79-0.145
					c0-0.007,0-0.007,0.007-0.007c0.008,0,0.015,0,0.022-0.007c0.876-0.152,2.427-0.464,4.499-0.949
					c1.34-0.304,2.891-0.681,4.637-1.13c2.297-0.586,3.789-1.76,3.825-2.079c0.065-0.515-0.029-1.529-0.203-2.76
					c-0.087-0.63-0.195-1.319-0.318-2.014c-0.42-2.529-0.985-5.246-1.195-6.216c-0.015-0.102-0.036-0.188-0.051-0.247
					c-0.015-0.087-0.021-0.13-0.021-0.13l-0.667,0.261l-3.63,1.398l0.239,0.681l2.253,6.477c0.015,0.029,0.015,0.065,0.015,0.094
					c0.021,0.195-0.094,0.376-0.282,0.442c-1.782,0.645-3.92,1.652-5.774,2.586c-1.587,0.79-2.978,1.536-3.753,1.956
					c-0.059,0.037-0.108,0.065-0.159,0.087c-0.188,0.109-0.392,0.124-0.559,0.116C584.691,245.735,584.539,245.691,584.539,245.691z
					"/>
				<path id="XMLID_180_" fill="#FCB6AC" d="M586.04,247.169c0.873-0.155,2.423-0.467,4.496-0.945
					c1.34-0.306,2.895-0.683,4.637-1.13c2.295-0.594,3.791-1.767,3.826-2.079c0.065-0.517-0.028-1.536-0.201-2.763
					c-0.4-2.917-1.247-6.995-1.514-8.234c-0.018-0.101-0.034-0.188-0.051-0.245l-0.907,0.468c0,0,0.034,0.158,0.1,0.439
					c0.291,1.333,1.173,5.388,1.58,7.754c0.131,0.787,0.213,1.386,0.206,1.64c-0.047,1.183-0.695,1.332-1.497,1.673
					c-0.458,0.202-3.568,1.224-6.326,2.105C588.291,246.526,586.394,247.108,586.04,247.169z"/>
				<path id="XMLID_48_" fill="#FCB6AC" d="M585.611,245.539c0,0-0.463,0.1-0.619,0.093c-0.246-0.012-0.325-0.059-0.325-0.059
					s-0.98-0.665-1.835-0.763l0.142,0.695c0,0-1.146,0.65-1.508,0.882c0,0-0.377,0.172-0.527,0.216
					c-0.15,0.044-1.495-0.078-1.812-0.073c-0.315,0.005-0.489,0.189-0.48,0.389c0,0,0.021,0.101,0.194,0.133
					c0.029,0.005,0.12,0.018,0.231,0.033c-0.16-0.01-0.295-0.018-0.357-0.017c-0.315,0.005-0.489,0.189-0.48,0.39
					c0,0,0.021,0.101,0.193,0.132c0.05,0.009,0.288,0.039,0.595,0.077c-0.247,0.041-0.387,0.197-0.38,0.373
					c0,0,0.021,0.101,0.194,0.132c0.052,0.009,0.309,0.042,0.636,0.082c-0.096,0.073-0.148,0.174-0.144,0.282
					c0,0,0.021,0.101,0.194,0.133s2.521,0.411,2.761,0.367c0.44-0.079,2.111-1.294,2.2-1.359c0.316-0.184,0.736-0.351,0.736-0.351
					L585.611,245.539z"/>
			</g>
			<path id="XMLID_165_" fill="#FFFFFF" d="M590.096,228.209c0.942,3.26,1.362,4.97,1.521,5.629c0.051,0.21,0.072,0.312,0.072,0.312
				s0.595,0,1.464-0.167c0.913-0.181,2.13-0.551,3.274-1.304c0.08-0.051,0.16-0.109,0.239-0.167c0.21-0.152,0.413-0.312,0.616-0.493
				c0.341-0.312,0.674-0.66,0.963-1.058c0,0-0.978-6.397-3.107-9.136c0-0.007-0.008-0.007-0.015-0.015
				c-0.384-0.493-0.818-0.877-1.29-1.065c-0.072-0.029-0.145-0.058-0.21-0.073c-1.108-0.362-2.058,0.029-2.746,0.891
				c-0.623,0.768-1.021,1.92-1.137,3.239C589.654,225.869,589.756,227.035,590.096,228.209z"/>
			<path id="XMLID_175_" fill="#FCB6AC" d="M582.987,216.522c0.778,0.412,1.611,0.575,2.438,0.592
				c-0.003,0.34-0.033,0.702-0.09,1.077c-0.207,0.051-0.317,0.078-0.456,0.127c-0.316,0.113-0.171,0.736-0.134,0.967
				c0.174,1.067,1.158,1.508,2.143,1.229c0.978-0.278,1.349-1.361,1.679-2.21c0.138-0.356-0.016-1.473-0.009-1.707
				c0.441-0.179,1.64-0.658,1.64-0.658s2.07-1.685,2.095-3.193c0.009-0.421-0.734-1.519-0.747-1.986
				c-0.027-2.161-1.476-3.419-2.244-4.666c-0.965-1.555-3.48-1.297-5.224-0.881c-1.055,0.25-1.827,0.552-1.827,0.552
				S579.919,214.919,582.987,216.522z"/>
			<g>
				<path fill="#153351" d="M580.474,202.882c0.128-0.237,0.266-0.468,0.401-0.693c0.212,0.416,0.765,0.501,1.23,0.49
					c1.963-0.046,3.962-0.869,5.835-0.283c0.552,0.173,1.105,0.513,1.291,1.061c1.552-0.469,3.111-0.025,4.23,1.201
					c2.23,2.446,0.16,6.098,1.292,8.891c0.389,0.959,1.143,1.758,1.403,2.76c0.233,0.896,0.024,1.895-0.549,2.621
					c-0.64,0.81-1.639,1.232-2.595,1.623c-0.402,0.165-0.807,0.33-1.229,0.432c-0.883,0.214-1.832,0.145-2.673-0.197
					c-0.618-0.251-1.213-0.695-1.394-1.337c-0.178-0.633,0.083-1.298,0.347-1.901c0.468-1.072,1.158-1.764,1.818-2.692
					c0.666-0.938,1.33-1.38,1.178-2.639c-0.023-0.193-0.054-0.402-0.189-0.542c-0.219-0.226-0.621-0.154-0.847,0.066
					c-0.226,0.22-0.318,0.538-0.403,0.841c-0.25-0.839-0.812-1.583-1.551-2.052c-0.599-0.381-1.102-0.632-1.539-1.201
					c-0.266-0.345-1.036-1.403-0.756-1.818c-0.863,0.5-2.592,0.33-3.52,0.09c-1.087-0.28-2.118-1.062-2.359-2.157
					C579.702,204.566,580.034,203.693,580.474,202.882z"/>
			</g>
		</g>
	</g>
	<g>
		<ellipse id="XMLID_60_" fill="#E6ECEF" cx="170.036" cy="392.59" rx="22.776" ry="2.007"/>
		<g>
			<path fill="#153351" d="M174.476,269.229c0.856,0.86,1.657,1.817,2.076,2.957c0.419,1.139,0.405,2.494-0.286,3.491
				c-0.368,0.531-1.015,0.958-1.637,0.783c-0.167-0.047-0.319-0.133-0.465-0.225c-1.539-0.965-2.611-2.643-2.839-4.444"/>
		</g>
		<g>
			<g id="XMLID_57_">
				<path id="XMLID_59_" fill="#FCB6AC" d="M156.559,384.091c0,0-1.016,2.951-1.309,3.692c-0.293,0.74-2.483,0.06-2.61-0.419
					c-0.126-0.479,0.86-4.002,0.86-4.002"/>
				<path id="XMLID_58_" fill="#389FE5" d="M151.993,387.435c-0.266,0.785-0.759,1.904-0.655,2.299
					c0.104,0.395,2.883,1.574,3.506,1.953c0.462,0.281,1.48,0.669,2.009,0.763c1.847,0.331,3.264,0.009,3.405-0.277
					c0.588-1.197-3.072-1.994-4.632-5.373c0,0-0.276-0.031-0.564,0.254c-0.443,0.439-1.06,0.617-1.563,0.316
					c-0.287-0.172-0.633-0.54-0.768-0.881C152.73,386.488,152.259,386.649,151.993,387.435z"/>
			</g>
			<g id="XMLID_39_">
				<path id="XMLID_52_" fill="#FCB6AC" d="M181.003,385.308c0,0-0.071,3.12-0.125,3.915c-0.054,0.795-2.347,0.812-2.614,0.395
					c-0.267-0.418-0.397-4.074-0.397-4.074"/>
				<path id="XMLID_42_" fill="#389FE5" d="M177.669,389.881c-0.015,0.829-0.145,2.045,0.075,2.389
					c0.219,0.345,3.225,0.624,3.933,0.796c0.526,0.127,1.614,0.187,2.146,0.116c1.86-0.247,3.112-0.983,3.16-1.299
					c0.196-1.319-3.533-0.967-6.046-3.712c0,0-0.273,0.054-0.461,0.414c-0.288,0.553-0.822,0.909-1.393,0.775
					c-0.326-0.076-0.767-0.322-1-0.605C178.084,388.755,177.684,389.052,177.669,389.881z"/>
			</g>
			<path fill="#FCB6AC" d="M203.734,261.541c-0.039-0.338-0.473-0.171-0.583,0.109c-0.015,0.038-0.036,0.124-0.06,0.241
				c0.035-0.558,0.058-1.012,0.045-1.123c-0.037-0.32-0.439-0.198-0.575,0.055c0.007-0.225,0.009-0.394,0.002-0.466
				c-0.04-0.411-0.478-0.236-0.587,0.104c-0.024,0.076-0.058,0.291-0.095,0.57c0.005-0.147,0.006-0.261,0-0.312
				c-0.039-0.338-0.427-0.249-0.537,0.031c-0.036,0.092-0.055,0.258-0.113,0.656c-0.049,0.34-0.143,0.705-0.186,1.047
				c-0.039,0.311-0.402,1.771-1.127,1.927c-1.111,0.238-0.407-1.695-1.19-2.129c-0.246-0.136-0.507,1.363-0.526,2.211
				s-0.023,1.272,0.057,1.771c0.069,0.499,0.346,1.205,0.307,1.508c-0.063,0.486-0.631,1.486-0.631,1.486l2.807,0.64
				c0,0,0.664-1.543,1.003-1.902c0.852-0.85,1.385-1.825,1.699-3.006c0.196-0.739,0.264-1.511,0.32-2.271
				C203.765,262.688,203.747,261.651,203.734,261.541z"/>
			<path fill="#FCB6AC" d="M177.343,285.004c0,0,8.901-0.079,13.733-5.495c3.855-5.401,7.58-11.378,7.858-11.933
				c0.759,0.29,2.389,1.036,2.389,1.036s-5.093,11.396-7.077,13.999c-1.984,2.603-5.887,6.865-14.136,8.981
				C176.159,287.057,177.343,285.004,177.343,285.004z"/>
			<path fill="#67C2EF" d="M184.024,355.896c0.513-6.706-1.806-27.729-2.032-29.539c-0.217-1.81-1.498-2.039-2.47-2.336
				c-4.85-1.459-10.602,6.063-9.07,12.819c0.021,0.108,0.051,0.226,0.082,0.342c0.912,3.913,6.056,16.485,5.695,20.12
				c-2.817,7.606,0.38,23.369,1.344,29.998c0.118,0.003,0.235-0.002,0.345-0.006c2.421-0.074,3.788-0.417,3.788-0.417
				S183.511,362.603,184.024,355.896z"/>
			<g>
				<path fill="#389FE5" d="M177.867,357.218c0.175-2.477-2.328-22.162-2.947-21.895c-0.206,0.09-0.333,0.295-0.446,0.489
					c-0.518,0.891-1.015,1.795-1.45,2.728c-0.451,0.966-0.827,1.96-1.149,2.972c1.815,5.355,4.625,13.072,4.354,15.791
					c-1.67,4.509-1.226,11.885-0.387,18.524C175.518,367.091,177.727,359.194,177.867,357.218z"/>
			</g>
			<path fill="#67C2EF" d="M181.213,319.2c0,0-1.843,0.455-5.513,0.359c-4.66-0.122-10.571-2.481-10.571-2.481
				c-5.945,6.435-2.677,13.969-2.883,16.447c-0.206,2.478-0.687,14.251-1.219,20.81c-6.029,5.904-6.249,21.603-8.013,29.856
				c-0.021,0.094-0.042,0.188-0.064,0.281c2.474,0.916,4,1.115,4,1.115l0.233-0.661c1.795-5.429,10.09-21,12.154-27.085
				c1.873-5.52,6.71-22.276,6.8-22.261l6.167,1.056C182.317,325.962,181.213,319.2,181.213,319.2z"/>
			<g>
				<g id="XMLID_967_">
					<path fill="#FCB6AC" d="M177.486,278.979c0.019,0.567,0.041,2.788-1.139,3.318c-1.18,0.539-1.937,0.765-1.902,0.947
						c0.013,0.082,0.129,0.474,0.255,0.856c0.271,0.857,0.682,1.07,0.682,1.07l0.171,2.843l-2.12,2.114l-0.692,0.688l-1.041-0.952
						l-3.393-3.09c0,0,1.398-1.723,0.433-3.568c-0.138-0.26-1.684-1.972-2.917-3.696c-0.718-1.015-1.328-2.024-1.49-2.746
						c-0.442-1.974-0.815-4.052,0.318-5.291c1.125-1.239,9.493-5.209,10.971,1.248c0,0,1.258,1.68,1.838,2.194
						c0.588,0.524,0.438,1.234-0.083,1.526C176.865,276.735,177.466,278.411,177.486,278.979z"/>
				</g>
			</g>
			<path fill="#FFFFFF" d="M182.787,326.313c0,0-9.645,2.368-21.76,0.12c0.587-3.743,1.575-15.009,1.73-19.277l0.017-0.436
				c0.096-2.726,0.146-4.673,0.207-4.753c0.122-0.168-0.31-8.866,0.405-12.275c0.131-0.628,0.304-1.074,0.525-1.254
				c1.418-1.18,3.085-2.415,4.946-3.338c0,0,4.335,4.663,6.547-0.497c2.434-0.22,3.673,0.271,4.377,2.708
				C183.677,300.845,182.787,326.313,182.787,326.313z"/>
			<path fill="#FFFFFF" d="M177.219,284.635c0,0,4.031,0.068,8.144-1.754c2.295,2.698,3.682,7.615,3.682,7.615
				s-5.548,3.526-9.604,3.865C178.572,288.451,177.219,284.635,177.219,284.635z"/>
			<path fill="#B0D9EF" d="M178,285.482c0,0,2.5,3.162,3.32,8.539c2.796-0.545,7.171-2.964,7.724-3.525
				c-1.231,0.398-6.486,2.353-7.205,0.735C180.5,288.216,178,285.482,178,285.482z"/>
			<g>
				<path fill="#E8505C" d="M176.964,288.51l17.841,1.935l-3.711,10.193l-14.952-10.26c-0.451-0.21-0.64-0.647-0.44-1.022
					l0.195-0.367C176.073,288.658,176.508,288.463,176.964,288.51z"/>
				<path fill="#F99BA7" d="M194.362,295.824c-1.025,2.815-2.489,4.97-3.269,4.813s-0.582-2.565,0.443-5.38s2.488-4.97,3.269-4.813
					C195.585,290.601,195.387,293.01,194.362,295.824z"/>
			</g>
			<g>
				<path fill="#FCB6AC" d="M161.248,301.938c0,0,1.866,6.437,6.718,9.467c1.414,0.884,3.187,0.39,4.298-0.853
					c3.322-3.715,6.642-12.084,7.705-15.243c-1.947-1.034-2.569-0.873-2.569-0.873s-4.711,6.54-7.414,10.917l-2.019-3.521"/>
				<path fill="#FCB6AC" d="M177.26,294.681c0,0,0.866-1.399,0.907-2.46c0.041-1.061-0.462-2.894,0.568-3.848
					c0.383-0.354,1.725-0.898,3.235-0.648c2.247,0.372,2.857,1.034,2.736,1.51c-0.121,0.475-1.678,0.64-2.085,1.446
					s-0.18,1.312-0.282,2.196c-0.154,1.33-2.008,1.894-2.412,2.556C179.64,295.904,177.26,294.681,177.26,294.681z"/>
			</g>
			<path fill="#F0F9FC" d="M163.383,322.69c0.561-1.938,1.107-13.353,1.167-15.045c1.513-0.155,4.441-1.269,6.157-4.012
				c-0.633-1.086-2.212-4.847-5.139-8.042l-1.688-6.334c0,0-0.195,0.148-0.494,0.434c-0.714,3.409-0.283,12.107-0.405,12.275
				c-0.061,0.08-0.11,2.027-0.207,4.753l-0.017,0.436c0,0,0,0,0,0c-0.159,4.271-1.142,15.53-1.731,19.277
				c12.115,2.248,21.76-0.12,21.76-0.12S162.756,324.895,163.383,322.69z"/>
			<g>
				<path fill="#FFFFFF" d="M165.021,287.548c0,0-5,3.275-5.213,8.851c-0.165,4.312,2.686,10.603,2.686,10.603
					s4.946,0.545,7.543-3.498c-0.769-1.964-1.442-3.708-2.919-6.026"/>
			</g>
		</g>
		<g>
			<path fill="#153351" d="M172.561,270.704c1.867-0.581,4.353-0.692,3.256-3.406c-0.641-1.585-2.81-2.876-5.428-2.733
				c-1.438,0.078-3.04,1.658-3.946,3.587c-4.145,1.632-4.651,4.972-3.822,8.347c0,0,1.835,6.361,6.648,6.599
				c0,0-0.031-1.27-0.494-2.929c0,0-1.957-0.655-2.306-1.819c-0.486-1.62,1.803-0.541,1.803-0.541s0.021-1.278-0.224-2.418
				c-0.092-0.429-0.35-0.777-0.687-1.065C167.44,274.159,168.394,272.003,172.561,270.704z"/>
		</g>
	</g>
	<g>
		<ellipse fill="#E6ECEF" cx="525.441" cy="403.683" rx="30.211" ry="3.038"/>
		<g>
			<g>
				<polygon fill="#AF835B" points="535.472,375.717 535.481,384.117 535.051,383.31 534.62,384.118 534.19,383.311 
					533.762,384.119 533.332,383.312 532.9,384.12 532.471,383.313 532.042,384.121 532.032,375.721 				"/>
			</g>
			<g>
				
					<rect x="521.112" y="378.694" transform="matrix(-0.0012 -1 1 -0.0012 145.4435 925.7021)" fill="#67C2EF" width="27.851" height="23.039"/>
				
					<rect x="532.384" y="367.411" transform="matrix(-0.0011 -1 1 -0.0011 156.6889 914.3746)" opacity="0.45" fill="#65A0B7" width="5.282" height="23.038"/>
				
					<rect x="522.934" y="375.717" transform="matrix(1 -0.0011 0.0011 1 -0.4218 0.5975)" fill="#E8505C" width="24.501" height="5.035"/>
				<polygon fill="#9CD9F2" points="536.87,375.715 536.88,384.115 536.449,383.308 536.019,384.116 535.589,383.309 
					535.16,384.117 534.73,383.31 534.299,384.118 533.869,383.311 533.44,384.119 533.432,375.719 				"/>
			</g>
		</g>
		<g>
			<g>
				<polygon opacity="0.29" fill="#65A0B7" points="528.635,383.911 506.72,383.888 506.716,387.479 506.881,387.479 
					506.862,404.163 528.63,404.186 				"/>
			</g>
			<g>
				<g>
					<g>
						<path fill="#F9DCE0" d="M504.827,374.562c0.491-2.603,1.979-5.061,4.334-6.38c1.362-0.764,2.91-1.36,4.49-1.364
							c1.379-0.004,2.765,0.301,4.033,0.834c2.187,0.92,4.083,2.634,4.972,4.833c0.742,1.837,0.74,3.888,0.307,5.799
							c-0.422,1.863-1.469,3.776-0.781,5.718c0.197,0.555,0.767,1.161,0.596,1.781c-0.203,0.737-1.05,0.974-1.646,1.288
							c-0.712,0.375-1.422,0.752-2.132,1.128c-0.509,0.271-1.244,0.847-1.862,0.615c-0.611-0.2-0.803-1.01-1.156-1.479
							c-0.935-1.239-2.576-1.768-4.02-2.127c-1.655-0.412-3.162-1.1-4.43-2.267C505.184,380.779,504.24,377.674,504.827,374.562z"/>
					</g>
					<path fill="none" stroke="#FFFFFF" stroke-width="0.4644" stroke-miterlimit="10" d="M520.807,387.709
						c0,0-2.367-4.83-3.396-7.267c-0.274-0.647-0.565-1.307-0.774-2.411c-0.134-0.711-0.307-2.279,0.707-2.445
						c1.197-0.195,1.087,1.546,0.589,2.18c-0.409,0.522-1.458,0.949-2.133,0.922c-1.186-0.048-2.259-1.096-2.642-2.109
						c-0.293-0.776,0.654-1.354,1.243-0.834c0.563,0.495,1.268,3.027,0.11,3.734c-0.608,0.372-1.36,0.459-2.057,0.315
						c-1.257-0.259-1.55-2.33,0.052-1.753c1.139,0.411,2.062,1.624,2.661,2.616c1.642,2.715,2.856,4.89,4.446,7.635"/>
					
						<rect x="517.562" y="387.526" transform="matrix(-0.8809 0.4733 -0.4733 -0.8809 1162.1458 483.1787)" fill="#389FE5" width="5.448" height="0.538"/>
					<path fill="#67C2EF" d="M518.617,391.107c0.029-0.145-0.062-0.305-0.2-0.352l-0.047-0.016
						c-0.136-0.046-0.227-0.202-0.201-0.345l0.016-0.087c0.027-0.149-0.073-0.312-0.216-0.35c-0.141-0.038-0.24-0.194-0.218-0.343
						l0.036-0.24c0.014-0.088,0.067-0.164,0.146-0.206l4.768-2.563c0.078-0.042,0.172-0.044,0.252-0.007l0.221,0.103
						c0.136,0.063,0.212,0.232,0.165,0.37c-0.047,0.14,0.033,0.313,0.173,0.373l0.081,0.035c0.134,0.058,0.214,0.22,0.177,0.358
						l-0.013,0.047c-0.037,0.142,0.046,0.306,0.183,0.361l0.063,0.024c0.14,0.057,0.224,0.227,0.181,0.369l-0.009,0.03
						c-0.048,0.156-0.146,0.281-0.278,0.353l-4.605,2.475c-0.133,0.071-0.291,0.085-0.447,0.037l-0.03-0.009
						c-0.143-0.043-0.238-0.206-0.208-0.354L518.617,391.107z"/>
					<g>
						<g>
							<path fill="#389FE5" d="M518.188,389.901c-0.01-0.007-0.019-0.017-0.024-0.028c-0.023-0.043-0.007-0.097,0.036-0.12
								l2.223-1.193c0.043-0.023,0.097-0.007,0.119,0.036c0.023,0.043,0.007,0.097-0.036,0.12l-2.222,1.194
								C518.252,389.927,518.214,389.923,518.188,389.901z"/>
						</g>
						<g>
							<path fill="#389FE5" d="M521.399,388.176c-0.009-0.008-0.018-0.018-0.023-0.028c-0.023-0.044-0.007-0.097,0.036-0.12
								l1.231-0.662c0.043-0.023,0.097-0.007,0.12,0.036s0.007,0.097-0.036,0.12l-1.231,0.662
								C521.464,388.2,521.427,388.196,521.399,388.176z"/>
						</g>
						<g>
							<path fill="#389FE5" d="M520.025,389.615c-0.009-0.008-0.018-0.017-0.023-0.028c-0.023-0.043-0.007-0.097,0.036-0.12
								l3.22-1.73c0.044-0.023,0.098-0.007,0.12,0.036c0.023,0.043,0.007,0.097-0.036,0.12l-3.22,1.73
								C520.09,389.641,520.053,389.636,520.025,389.615z"/>
						</g>
						<g>
							<path fill="#389FE5" d="M518.472,390.45c-0.009-0.007-0.018-0.017-0.023-0.028c-0.023-0.043-0.007-0.097,0.036-0.12
								l0.949-0.51c0.044-0.023,0.098-0.007,0.12,0.036c0.023,0.043,0.007,0.097-0.036,0.12l-0.949,0.51
								C518.536,390.476,518.499,390.471,518.472,390.45z"/>
						</g>
						<g>
							<path fill="#389FE5" d="M521.494,389.528c-0.01-0.008-0.019-0.018-0.024-0.028c-0.023-0.043-0.007-0.097,0.036-0.12
								l1.723-0.926c0.044-0.023,0.097-0.007,0.12,0.036s0.007,0.097-0.036,0.12l-1.723,0.926
								C521.558,389.553,521.521,389.549,521.494,389.528z"/>
						</g>
						<g>
							<path fill="#389FE5" d="M519.674,390.506c-0.009-0.008-0.018-0.017-0.023-0.028c-0.023-0.043-0.007-0.097,0.036-0.12
								l0.692-0.372c0.043-0.022,0.097-0.007,0.12,0.036c0.022,0.043,0.006,0.097-0.036,0.12l-0.692,0.372
								C519.738,390.531,519.701,390.526,519.674,390.506z"/>
						</g>
						<g>
							<path fill="#389FE5" d="M520.842,388.476c-0.01-0.008-0.019-0.017-0.024-0.028c-0.023-0.043-0.007-0.097,0.036-0.12
								l0.25-0.134c0.043-0.023,0.096-0.007,0.12,0.036c0.022,0.043,0.006,0.097-0.036,0.12l-0.25,0.134
								C520.905,388.5,520.868,388.496,520.842,388.476z"/>
						</g>
					</g>
					<g>
						<path fill="#F9DCE0" d="M504.827,374.562c0.491-2.603,1.979-5.061,4.334-6.38c0.269-0.15,0.545-0.294,0.826-0.429
							c-3.682,2.279-5.202,7.36-2.938,11.275c1.903,3.291,4.82,4.799,8.986,4.446c0.872-0.074,1.631,0.121,2.179,0.871
							c0.507,0.692,0.678,1.578,1.234,2.241c0.084,0.101,0.182,0.197,0.307,0.238c0.115,0.038,0.24,0.024,0.36,0.006
							c0.992-0.15,1.905-0.602,2.689-1.232c-0.004,0.061-0.012,0.122-0.028,0.184c-0.203,0.737-1.05,0.974-1.646,1.288
							c-0.712,0.375-1.422,0.752-2.132,1.128c-0.509,0.271-1.244,0.847-1.862,0.615c-0.611-0.2-0.803-1.01-1.156-1.479
							c-0.935-1.239-2.576-1.768-4.02-2.127c-1.655-0.412-3.162-1.1-4.43-2.267C505.184,380.779,504.24,377.674,504.827,374.562z"/>
					</g>
				</g>
			</g>
			<g>
				
					<rect x="505.848" y="384.101" transform="matrix(0.0011 -1 1 0.0011 120.9591 909.5745)" fill="#D2F0F9" width="19.867" height="20.276"/>
			</g>
		</g>
	</g>
	<g>
		<g>
			<ellipse fill="#E6ECEF" cx="322.78" cy="398.202" rx="14.99" ry="1.989"/>
		</g>
		<ellipse fill="#E6ECEF" cx="247.494" cy="404.643" rx="73.946" ry="5.247"/>
		<g>
			<g>
				<path fill="#D6E0E5" d="M213.812,398.071c-9.673-0.461-19.336-0.242-29.013-0.219c-3.497,0.009-7.006,0.058-10.489,0.388
					c-2.102,0.199-5.13,0.261-6.878,1.616c-2.975,2.305,2.826,3.235,4.145,3.395c7.006,0.849,14.217,0.444,21.25,0.248
					c10.579-0.297,21.187,0.194,31.753-0.311c0.21-0.01,0.213-0.328,0-0.329c-8.885-0.038-17.808-0.134-26.691,0.103
					c-6.388,0.17-12.78,0.429-19.171,0.31c-2.847-0.053-5.758-0.109-8.568-0.616c-1.313-0.236-4.543-0.994-2.312-2.6
					c2.022-1.453,5.666-1.39,8.013-1.556c2.977-0.211,5.964-0.259,8.947-0.271c9.674-0.039,19.338-0.151,29.013-0.03
					C213.894,398.199,213.893,398.075,213.812,398.071L213.812,398.071z"/>
			</g>
		</g>
		<g>
			<g>
				<path fill="#C1CED6" d="M277.753,390.987c5.117,0.104,10.224,0.463,15.318,0.95c2.32,0.222,4.636,0.507,6.958,0.707
					c1.09,0.095,2.508,0.002,3.526,0.401c1.503,0.177,1.657,1.306,0.46,3.387c-0.68,0.102-1.362,0.181-2.046,0.239
					c-9.78,0.929-19.717-1.168-29.44,0.447c-0.238,0.039-0.184,0.439,0.057,0.422c6.776-0.506,13.455-0.195,20.235-0.043
					c3.508,0.079,7.106,0.131,10.587-0.378c1.199-0.176,2.733-0.476,3.079-1.853c0.879-3.501-6.69-3.193-8.479-3.375
					c-6.735-0.683-13.484-1.152-20.257-1.127C277.61,390.767,277.61,390.984,277.753,390.987L277.753,390.987z"/>
			</g>
		</g>
		<g>
			<path fill="#C1CED6" d="M200.79,400.203c-5.065,0.057-10.171,0.522-15.145,1.369c-2.95,0.502-6.061,1.119-8.727,2.54
				c-1.306,0.695-3.259,2.122-2.726,3.873c0.49,1.609,2.741,2.254,4.152,2.646c2.749,0.764,5.638,1.061,8.473,1.286
				c4.893,0.39,9.788,0.369,14.69,0.386c4.101,0.014,10.454,0.631,12.027-4.388c0.878-2.8-0.348-5.753-1.145-8.416
				c-0.492-1.644-0.909-3.447-0.391-5.139c0.284-0.929,0.87-1.9,1.903-2.087c0.88-0.159,1.665,0.271,2.031,1.071
				c0.154,0.337,0.652,0.044,0.499-0.292c-0.646-1.412-2.459-1.799-3.693-0.883c-1.918,1.423-1.705,4.403-1.199,6.44
				c0.679,2.733,2.076,5.475,1.616,8.364c-0.383,2.406-2.301,3.866-4.556,4.442c-2.926,0.748-6.112,0.341-9.123,0.356
				c-2.476,0.013-4.952-0.012-7.427-0.096c-3.054-0.104-6.115-0.284-9.145-0.691c-2.307-0.311-4.933-0.647-6.978-1.848
				c-1.664-0.977-1.559-2.473-0.138-3.688c2.088-1.785,5.189-2.452,7.8-3.015c5.623-1.213,11.446-1.697,17.21-1.913L200.79,400.203z
				"/>
		</g>
		<g>
			<g>
				<path fill="#C1CED6" d="M332.696,393.535c0.267,1.036,1.405,1.13,2.335,1.268c1.369,0.201,2.69,0.433,4.029,0.792
					c0.62,0.167,1.414,0.271,1.982,0.585c2.906,1.604,1.586,3.693-0.684,4.506c-3.037,1.088-6.489,0.631-9.653,0.688
					c-3.618,0.065-7.235,0.136-10.853,0.151c-13.874,0.062-27.746,0.123-41.618,0.196c-0.276,0.002-0.277,0.432,0,0.431
					c16.337-0.084,32.683,0.006,49.02-0.309c3.523-0.067,7.229,0.233,10.725-0.233c1.649-0.221,4.268-0.695,5.052-2.47
					c0.569-1.288-0.121-2.427-1.279-3.039c-1.364-0.72-3.116-0.992-4.617-1.292c-1.182-0.235-3.869-0.038-4.323-1.306
					C332.786,393.432,332.676,393.459,332.696,393.535L332.696,393.535z"/>
			</g>
		</g>
		<g>
			<g>
				<path fill="#C1CED6" d="M330.561,394.236c0.097,0.803,1.894,1.6,2.459,1.971c1.302,0.856,3.738,2.082,4.196,3.721
					c1.43,5.117-28.629,3.836-30.95,3.853c-10.056,0.073-20.107,0.145-30.163,0.208c-0.277,0.001-0.277,0.431,0,0.43
					c9.559-0.059,19.109-0.107,28.669-0.203c8.596-0.086,17.357,0.432,25.908-0.645c1.718-0.216,6.183-0.467,6.896-2.652
					c0.453-1.388-1.088-2.608-2.028-3.342c-0.935-0.73-1.949-1.347-2.955-1.971c-0.43-0.267-1.79-0.83-1.914-1.385
					C330.664,394.156,330.552,394.169,330.561,394.236L330.561,394.236z"/>
			</g>
		</g>
		<g>
			<g>
				<path fill="#F9DCE0" d="M306.732,392.658c-1.392-2.738-1.766-6.049-0.536-8.93c0.711-1.665,1.71-3.309,3.159-4.432
					c1.264-0.98,2.752-1.682,4.296-2.09c2.66-0.703,5.615-0.471,7.989,0.92c1.982,1.162,3.432,3.048,4.388,5.109
					c0.931,2.011,1.324,4.51,3.331,5.807c0.573,0.37,1.525,0.523,1.808,1.214c0.335,0.821-0.275,1.637-0.601,2.35
					c-0.388,0.848-0.773,1.696-1.159,2.545c-0.276,0.608-0.543,1.659-1.276,1.884c-0.702,0.249-1.452-0.359-2.109-0.54
					c-1.736-0.478-3.618,0.199-5.198,0.892c-1.813,0.794-3.684,1.229-5.675,1.054C311.462,398.117,308.396,395.934,306.732,392.658z
					"/>
			</g>
			<path fill="none" stroke="#FFFFFF" stroke-width="0.4169" stroke-miterlimit="10" d="M330.72,393.422
				c0,0-5.594-2.761-8.266-4.271c-0.71-0.401-1.444-0.8-2.418-1.667c-0.626-0.558-1.896-1.876-1.082-2.746
				c0.961-1.026,2.093,0.65,2.084,1.585c-0.007,0.771-0.668,1.904-1.308,2.357c-1.122,0.795-2.849,0.593-3.919-0.068
				c-0.819-0.506-0.358-1.706,0.551-1.646c0.867,0.058,3.308,1.885,2.746,3.354c-0.296,0.772-0.925,1.384-1.666,1.746
				c-1.338,0.652-3.074-1.044-1.194-1.647c1.336-0.429,3.044,0.032,4.297,0.52c3.43,1.332,6.086,2.47,9.49,3.865"/>
			
				<rect x="327.144" y="393.559" transform="matrix(-0.4087 0.9127 -0.9127 -0.4087 824.7734 253.3988)" fill="#389FE5" width="6.317" height="0.623"/>
			<path fill="#67C2EF" d="M331.115,398.095c-0.075-0.153-0.272-0.236-0.432-0.182l-0.054,0.019
				c-0.157,0.055-0.352-0.024-0.429-0.175l-0.047-0.091c-0.081-0.156-0.288-0.234-0.446-0.168c-0.155,0.065-0.358-0.009-0.442-0.16
				l-0.137-0.247c-0.05-0.09-0.055-0.198-0.013-0.292l2.566-5.729c0.042-0.094,0.125-0.162,0.226-0.185l0.275-0.063
				c0.169-0.038,0.359,0.064,0.415,0.223c0.056,0.162,0.251,0.265,0.422,0.222l0.1-0.025c0.163-0.042,0.352,0.05,0.416,0.203
				l0.022,0.054c0.065,0.155,0.259,0.248,0.423,0.201l0.075-0.021c0.168-0.048,0.365,0.05,0.427,0.21l0.013,0.035
				c0.068,0.177,0.065,0.361-0.006,0.521l-2.479,5.534c-0.071,0.159-0.208,0.283-0.384,0.351l-0.035,0.014
				c-0.161,0.061-0.365-0.021-0.441-0.178L331.115,398.095z"/>
			<g>
				<g>
					<path fill="#389FE5" d="M329.866,397.291c-0.014,0-0.028-0.003-0.042-0.009c-0.052-0.023-0.075-0.084-0.052-0.136l1.196-2.671
						c0.023-0.052,0.084-0.074,0.136-0.052c0.052,0.023,0.075,0.085,0.052,0.137l-1.196,2.67
						C329.943,397.269,329.906,397.291,329.866,397.291z"/>
				</g>
				<g>
					<path fill="#389FE5" d="M331.595,393.431c-0.014,0-0.029-0.003-0.042-0.009c-0.052-0.023-0.074-0.084-0.052-0.136l0.663-1.48
						c0.023-0.052,0.083-0.074,0.136-0.052c0.052,0.023,0.075,0.084,0.052,0.136l-0.663,1.48
						C331.671,393.408,331.634,393.431,331.595,393.431z"/>
				</g>
				<g>
					<path fill="#389FE5" d="M331.353,395.727c-0.014,0-0.029-0.003-0.042-0.009c-0.051-0.023-0.074-0.085-0.051-0.137l1.733-3.869
						c0.023-0.052,0.084-0.075,0.136-0.052c0.052,0.022,0.075,0.084,0.052,0.136l-1.733,3.87
						C331.429,395.704,331.392,395.727,331.353,395.727z"/>
				</g>
				<g>
					<path fill="#389FE5" d="M330.516,397.594c-0.014,0-0.028-0.003-0.042-0.009c-0.052-0.023-0.075-0.085-0.052-0.137l0.511-1.141
						c0.023-0.052,0.085-0.074,0.136-0.052c0.052,0.022,0.075,0.084,0.052,0.136l-0.511,1.141
						C330.593,397.57,330.556,397.594,330.516,397.594z"/>
				</g>
				<g>
					<path fill="#389FE5" d="M332.639,394.606c-0.014,0-0.028-0.003-0.042-0.009c-0.052-0.023-0.075-0.084-0.052-0.136l0.927-2.07
						c0.024-0.052,0.084-0.074,0.136-0.052c0.052,0.023,0.075,0.084,0.052,0.136l-0.927,2.07
						C332.716,394.584,332.679,394.606,332.639,394.606z"/>
				</g>
				<g>
					<path fill="#389FE5" d="M331.66,396.793c-0.014,0-0.029-0.003-0.042-0.009c-0.052-0.023-0.074-0.084-0.052-0.136l0.373-0.832
						c0.023-0.052,0.084-0.075,0.136-0.052c0.052,0.023,0.075,0.084,0.052,0.136l-0.373,0.832
						C331.737,396.771,331.699,396.793,331.66,396.793z"/>
				</g>
				<g>
					<path fill="#389FE5" d="M331.294,394.102c-0.014,0-0.028-0.003-0.042-0.009c-0.052-0.023-0.074-0.084-0.052-0.136l0.134-0.3
						c0.023-0.052,0.084-0.074,0.136-0.052c0.052,0.022,0.075,0.084,0.052,0.136l-0.134,0.3
						C331.371,394.079,331.334,394.102,331.294,394.102z"/>
				</g>
			</g>
			<g>
				<path fill="#F9DCE0" d="M306.732,392.658c-1.392-2.738-1.766-6.049-0.536-8.93c0.14-0.328,0.292-0.655,0.456-0.978
					c-1.769,4.7,0.433,10.444,5.285,12.438c4.078,1.675,7.826,0.995,11.403-2.278c0.749-0.686,1.583-1.044,2.618-0.743
					c0.956,0.278,1.741,0.971,2.721,1.186c0.148,0.032,0.306,0.052,0.45,0.002c0.133-0.047,0.239-0.147,0.336-0.25
					c0.804-0.841,1.325-1.901,1.598-3.036c0.04,0.059,0.076,0.12,0.104,0.188c0.335,0.821-0.275,1.637-0.601,2.35
					c-0.388,0.848-0.773,1.696-1.159,2.545c-0.276,0.608-0.543,1.659-1.276,1.884c-0.702,0.249-1.452-0.359-2.109-0.54
					c-1.736-0.478-3.618,0.199-5.198,0.892c-1.813,0.794-3.684,1.229-5.675,1.054C311.462,398.117,308.396,395.934,306.732,392.658z
					"/>
			</g>
		</g>
		<g>
			<path fill="#0F7BB7" d="M280.364,402.601h-67.582c-0.197,0-0.357,0.132-0.357,0.294v2.092c0,0.162,0.16,0.294,0.357,0.294h74.374
				c1.259,0,2.279-0.841,2.279-1.877v-13.598c0-1.036-1.021-1.877-2.279-1.877h-74.374c-0.197,0-0.357,0.132-0.357,0.294v2.092
				c0,0.162,0.16,0.294,0.357,0.294h67.582c1.259,0,2.279,0.841,2.279,1.877v8.238C282.643,401.76,281.623,402.601,280.364,402.601z
				"/>
			<path fill="#BBEAF9" d="M215.353,390.608h65.382c2.743,0,4.967,2.224,4.967,4.967v2.059c0,2.743-2.224,4.967-4.967,4.967h-65.382
				V390.608z"/>
			
				<line fill="none" stroke="#CFEFFE" stroke-width="0.8337" stroke-miterlimit="10" x1="285.702" y1="398.918" x2="254.003" y2="398.918"/>
			
				<line fill="none" stroke="#CFEFFE" stroke-width="0.8337" stroke-miterlimit="10" x1="285.702" y1="396.54" x2="233.529" y2="396.54"/>
			
				<line fill="none" stroke="#CFEFFE" stroke-width="0.8337" stroke-miterlimit="10" x1="285.702" y1="394.363" x2="219.83" y2="394.363"/>
			
				<line fill="none" stroke="#CFEFFE" stroke-width="0.8337" stroke-miterlimit="10" x1="278.235" y1="392.039" x2="225.948" y2="392.039"/>
			
				<line fill="none" stroke="#CFEFFE" stroke-width="0.8337" stroke-miterlimit="10" x1="242.541" y1="398.918" x2="224.397" y2="398.918"/>
		</g>
		<g>
			<path fill="#389FE5" d="M215.526,379.393h69.842c0.185,0,0.334-0.076,0.334-0.171v-1.217c0-0.095-0.15-0.171-0.334-0.171H209.17
				c-1.178,0-1.756,0.488-1.756,1.092v7.913c0,0.604,0.578,1.092,1.756,1.092h76.197c0.185,0,0.334-0.076,0.334-0.171v-1.217
				c0-0.095-0.15-0.172-0.334-0.172h-69.842c-1.178,0-2.133-0.488-2.133-1.092v-4.794
				C213.393,379.882,214.348,379.393,215.526,379.393z"/>
			<path fill="#C9ECF7" d="M282.961,386.371H212.54c-1.927,0-3.49-1.562-3.49-3.489l0,0c0-1.927,1.563-3.489,3.489-3.489h70.422
				V386.371z"/>
			
				<line fill="none" stroke="#CFEFFE" stroke-width="0.8337" stroke-miterlimit="10" x1="209.05" y1="381.536" x2="239.382" y2="381.536"/>
			
				<line fill="none" stroke="#CFEFFE" stroke-width="0.8337" stroke-miterlimit="10" x1="209.05" y1="382.92" x2="258.973" y2="382.92"/>
			
				<line fill="none" stroke="#CFEFFE" stroke-width="0.8337" stroke-miterlimit="10" x1="209.05" y1="384.187" x2="278.678" y2="384.187"/>
			
				<line fill="none" stroke="#CFEFFE" stroke-width="0.8337" stroke-miterlimit="10" x1="216.195" y1="385.539" x2="272.823" y2="385.539"/>
			
				<line fill="none" stroke="#CFEFFE" stroke-width="0.8337" stroke-miterlimit="10" x1="250.35" y1="381.536" x2="274.308" y2="381.536"/>
		</g>
		<g>
			<path fill="#F9DCE0" d="M256.912,371.002c-4.29,0.004-5.715,2.19-6.188,3.104c-0.473-0.913-1.898-3.1-6.188-3.104
				c-6.298-0.005-31.764,2.781-31.764,2.781v1.064h75.903v-1.064C288.676,373.783,263.21,370.997,256.912,371.002z"/>
			<g>
				<g>
					<path fill="none" stroke="#F4BAC0" stroke-width="0.4169" stroke-miterlimit="10" d="M288.354,374.426
						c0,0-25.144-2.41-31.442-2.404c-4.29,0.004-5.715,1.813-6.188,2.727c-0.473-0.914-1.898-2.723-6.188-2.727
						c-6.298-0.006-31.442,2.404-31.442,2.404"/>
				</g>
				<path fill="none" stroke="#F4BAC0" stroke-width="0.4169" stroke-linejoin="round" stroke-miterlimit="10" d="M234.955,374.359
					c0,0,9.044-0.453,11.084-0.285c2.856,0.237,4.685,0.674,4.685,0.674s-1.942-1.823-6.531-1.823c-2.759,0-31.1,1.923-31.1,1.923"
					/>
				
					<line fill="none" stroke="#F4BAC0" stroke-width="0.4169" stroke-linejoin="round" stroke-miterlimit="10" x1="234.335" y1="374.319" x2="220.331" y2="374.848"/>
				<path fill="none" stroke="#F4BAC0" stroke-width="0.4169" stroke-linejoin="round" stroke-miterlimit="10" d="M266.534,374.359
					c0,0-9.045-0.453-11.084-0.285c-2.855,0.237-4.685,0.674-4.685,0.674s1.942-1.823,6.531-1.823c2.759,0,31.1,1.923,31.1,1.923"/>
				
					<line fill="none" stroke="#F4BAC0" stroke-width="0.4169" stroke-linejoin="round" stroke-miterlimit="10" x1="267.154" y1="374.319" x2="281.158" y2="374.848"/>
			</g>
			<path fill="#E8505C" d="M289.299,377.834H212.62c-0.527,0-0.955-0.428-0.955-0.955v-1.076c0-0.527,0.427-0.955,0.955-0.955
				h76.679c0.527,0,0.955,0.428,0.955,0.955v1.076C290.253,377.406,289.826,377.834,289.299,377.834z"/>
		</g>
	</g>
	<g id="XMLID_216_">
		<g id="XMLID_49_">
			<ellipse id="XMLID_183_" fill="#E6ECEF" cx="336.336" cy="411.153" rx="23.254" ry="2.813"/>
			<g id="XMLID_159_">
				<path id="XMLID_173_" fill="#FCB6AC" d="M326.537,404.582c0,0-0.006,2.386,0.142,3.237s2.48,0.659,2.702,0.185
					c0.222-0.475-0.077-4.428-0.077-4.428"/>
				<path id="XMLID_163_" fill="#153351" d="M329.768,408.087c0.026,0.766,0.174,1.887-0.044,2.204
					c-0.219,0.317-3.281,0.571-4.002,0.729c-0.535,0.117-1.644,0.171-2.187,0.104c-1.901-0.23-3.188-0.912-3.24-1.203
					c-0.218-1.219,3.59-0.888,6.117-3.417c0,0,0.279,0.05,0.476,0.383c0.301,0.511,0.851,0.841,1.431,0.718
					c0.332-0.07,0.662-0.209,0.896-0.47C329.214,407.135,329.742,407.321,329.768,408.087z"/>
			</g>
			<path id="XMLID_150_" fill="#FFFFFF" d="M346.679,338.197c0.969-0.715,2.024-1.518,3.028-2.355
				c2.286-1.919,4.328-4.005,4.581-5.522c0.559-3.403,0.122-13.516-0.148-18.288c-0.009-0.288-0.026-0.559-0.043-0.812
				c-0.271-4.511-2.696-6.509-3.909-7.242c-0.62,5.863-2.016,19.1-2.129,19.78C347.909,324.63,346.679,338.197,346.679,338.197z"/>
			<path id="XMLID_149_" fill="#B0D9EF" d="M346.676,338.197c0.968-0.715,2.024-1.518,3.028-2.355
				c0.086-3.729,1.196-8.936,2.758-15.453c1.854-8.216,0.688-9.728,0.688-9.728l-3.725,0.567c-0.62,5.802-1.292,12.066-1.37,12.529
				C347.906,324.63,346.676,338.197,346.676,338.197z"/>
			<g>
				<g id="XMLID_176_">
					<path id="XMLID_181_" fill="#FCB6AC" d="M346.313,403.336c0,0,0.322,2.863,0.44,3.591c0.118,0.727,2.453,0.577,2.691,0.174
						s0.079-3.774,0.079-3.774"/>
					<path id="XMLID_31_" fill="#153351" d="M350.07,407.301c0.082,0.761,0.311,1.869,0.115,2.201
						c-0.196,0.333-3.231,0.807-3.938,1.016c-0.525,0.155-1.627,0.288-2.174,0.262c-1.913-0.093-3.246-0.68-3.318-0.967
						c-0.305-1.199,3.517-1.144,5.855-3.849c0,0,0.282,0.029,0.501,0.348c0.337,0.487,0.91,0.776,1.479,0.612
						c0.326-0.094,0.754-0.352,0.968-0.629C349.558,406.295,349.988,406.539,350.07,407.301z"/>
				</g>
				<path fill="#285FAF" d="M347.474,337.006l-11.138-0.059l1.063,13.773l0.365,4.657c0,0,1.048,18.672,1.892,21.602
					c1.408,8.229,6.479,28.605,6.479,28.605c1.35,0.368,2.912,0.356,3.852-0.228c-0.999-10.865,1.017-22.955-3.31-30.706
					c0.683-4.995,1.716-9.435,2.726-20.819c0.204-2.3,0.99-2.663,1.261-7.439C350.924,341.609,347.474,337.006,347.474,337.006z"/>
				<path id="XMLID_146_" fill="#144E93" d="M338.692,368.935c0.502-2.3,2.03-7.167,2.955-9.684
					c1.289-3.518,2.708-5.125,2.708-5.125c5.09-6.373,0.569-13.642,0.569-13.642s-4.233,4.181-4.518,4.602
					c-0.27,0.392-1.814,3.763-3.007,5.635l0.365,4.657C337.764,355.378,338.189,361.845,338.692,368.935z"/>
			</g>
			<path fill="#285FAF" d="M344.99,337.022l-14.388,0.651c0,0-3.917,30.728-3.697,36.601c0.398,10.638-0.679,31.202-0.679,31.202
				s1.749,1.646,3.729,0.678c0,0,7.443-18.24,5.218-29.948c1.031-4.267,4.936-18.343,6.191-20.292
				C343.117,353.191,349.797,350.615,344.99,337.022z"/>
			<path id="XMLID_136_" fill="#FCB6AC" d="M344.357,301.354c0,0-0.798-2.704-0.449-4.699s1.546-5.587,1.098-8.281
				c-0.449-2.693-3.841-4.938-7.433-4.589c-3.592,0.349-4.639,3.791-5.238,5.786c-0.599,1.996-0.499,5.039-0.35,6.685
				c0.15,1.646,1.048,2.943,1.646,3.293c0.599,0.349,2.851-0.111,3.246,0.318s0.695,2.974,0.695,2.974"/>
			<path id="XMLID_272_" fill="#FFFFFF" d="M346.053,303.488c0,0-0.2-1.576-0.798-2.135s-4.589-0.559-5.787-0.409
				c-1.197,0.149-4.149,1.526-4.54,1.817c-0.39,0.291,0.38,1.806,0.38,1.806L346.053,303.488z"/>
			<g id="XMLID_271_">
				<path fill="#153351" d="M344.406,297.88c-0.047,0.029-0.096,0.057-0.146,0.083c-0.868,0.453-1.999,0.37-2.789-0.205
					c-0.651,0.507-1.49,0.879-2.304,0.709c-0.814-0.17-1.483-1.06-1.169-1.815c-0.638,0.103-1.321-0.112-1.78-0.559
					c-0.943-0.918-0.323-1.708-0.329-2.763c-0.004-0.75-0.061-2.037-1.036-2.188c-0.368-0.058-0.763,0.134-0.941,0.456
					c-0.072,0.13-0.117,0.286-0.241,0.37c-0.166,0.112-0.41,0.037-0.538-0.116c-0.127-0.153-0.164-0.359-0.177-0.557
					c-0.062-0.915,0.298-1.875,0.977-2.511c-1.344-0.764-2.078-2.066-2.22-3.585c-0.06-0.634-0.022-1.299,0.275-1.865
					c0.411-0.783,1.249-1.256,2.076-1.599c1.085-0.449,2.165-0.564,3.323-0.354c1.315,0.239,1.759,1.049,2.774,1.376
					c1.625-0.542,3.811-0.018,4.149,1.776c0.851-0.149,1.747,0.043,2.307,0.763c0.78,1.003,0.171,1.843-0.093,2.877
					c-0.368,1.441,0.101,2.677,0.024,4.077c-0.065,1.205-0.922,2.22-1.242,3.354C345.07,296.447,345.279,297.345,344.406,297.88z"/>
			</g>
			<g>
				<path id="XMLID_268_" fill="#FFFFFF" d="M330.343,334.604c-0.183,1.562-1.553,5.388-0.62,5.729
					c0.375,0.131,1.902,0.043,3.769-0.113h0.053c0.035,0,0.061-0.009,0.087-0.009c1.658-0.14,3.551-0.323,5.139-0.445
					c6.343-0.271,9.581-0.415,10.217-0.772c0.306-0.184,0.314-0.733,0.218-1.301c-0.218-1.396-0.288-2.801-0.105-4.205
					c0.157-1.178,0.375-2.583,0.681-4.188c1.047-5.558,3.098-14.048,3.403-19.151c0.489-8.001-8.08-7.242-8.08-7.242
					c-10.906-0.681-16.028,2.461-16.621,7.146c-0.044,0.331-0.07,0.688-0.096,1.064c-0.279,4.833,1.195,12.634,1.894,18.462
					C330.474,331.183,330.438,333.041,330.343,334.604z"/>
				<path id="XMLID_135_" fill="#FFFFFF" d="M330.343,334.604c-0.183,1.562-1.553,5.388-0.62,5.729
					c0.375,0.131,1.902,0.043,3.769-0.113c-1.684,0.122-1.998-2.579-1.623-3.443c0.375-0.872,1.152-2.836,1.082-5.165
					c-0.079-2.321-0.951-7.556-1.466-12.503c-0.489-4.599-0.07-8.193-0.009-8.673c-0.262,0.523-1.012,1.256-3.124,1.745
					c-0.044,4.859,1.283,11.979,1.928,17.397C330.474,331.183,330.438,333.041,330.343,334.604z"/>
			</g>
			<path id="XMLID_134_" fill="#FCB6AC" d="M302.519,331.619c-0.25-0.136,0.015-0.422,0.266-0.42c0.034,0,0.108,0.011,0.207,0.028
				c-0.444-0.146-0.805-0.27-0.887-0.313c-0.238-0.129-0.018-0.403,0.221-0.43c-0.176-0.064-0.308-0.116-0.362-0.144
				c-0.308-0.159-0.036-0.445,0.263-0.425c0.067,0.005,0.244,0.046,0.473,0.104c-0.117-0.041-0.206-0.076-0.243-0.097
				c-0.25-0.135-0.06-0.409,0.192-0.407c0.083,0,0.217,0.037,0.545,0.116c0.28,0.067,0.593,0.107,0.872,0.181
				c0.39,0.102,0.81,0.141,0.816,0.142c0.967-0.311,1.439-0.821,1.439-0.821l-0.952-0.529c0,0-0.056-0.839,2.599,0.169
				c0.395,0.149,0.732,0.692,0.979,0.757s0.978,0.057,0.978,0.057l-0.002,2.324c0,0-1.295-0.227-1.679-0.075
				c-0.379,0.164-1.926,0.655-2.19,0.677c-0.108,0.012-0.569-0.038-1.106-0.11l-0.797-0.166l-0.747-0.236
				C303.401,331.999,302.601,331.663,302.519,331.619z"/>
			<path id="XMLID_79_" fill="#FFFFFF" d="M309.334,332.072c0,0,4.153,0.942,7.53,1.571c2.61,0.472,5.379,0.857,8.107,0.659
				c0.02-0.002,0.043,0.009,0.063,0.007c1.689-0.063,3.927-0.56,4.45-1.315c0.522-0.756,1.538-3.745,1.538-3.745
				c0.855-1.761,2.145-6.545,3.233-10.618c0.019-0.067,0.034-0.127,0.05-0.188c0.505-1.896,0.971-3.631,1.319-4.809
				c0.173-0.552,0.151-1.138-0.041-1.652c-0.158-0.462-0.46-0.871-0.887-1.162c-0.004-0.012-0.004-0.012-0.013-0.015
				c-1.142-0.777-0.792-1.885-1.967-1.126c-0.061,0.031-0.766-0.181-0.819-0.146c-0.759-1.855-0.249-4.354-0.249-4.354
				s-3.296,1.445-4.497,8.239c-0.266,1.507-1.919,12.138-2.035,13.44c-0.005,0.103-0.006,0.196-0.016,0.287
				c0,0-0.044,0.151-0.086,0.389c-0.011,0.071-0.012,0.165-0.021,0.256c-0.98-0.029-2.07,0.047-3.217,0.307
				c-3.758,0.856-12.177,1.287-12.177,1.287l-0.221,2.101l-0.002,0.027l0.005,0.012L309.334,332.072z"/>
		</g>
	</g>
	<g opacity="0.4">
		<path fill="#F3FBFF" d="M369.264,241.682c1.437-3.53,0.165-7.866-2.717-10.36c-2.881-2.495-7.101-3.181-10.759-2.113
			c-3.659,1.068-6.735,3.746-8.68,7.023c-0.604-1.762-1.514-3.544-3.115-4.498c-2.224-1.325-5.203-0.63-7.237,0.971
			c-2.034,1.601-3.333,3.934-4.58,6.202c-2.364-1.875-4.86-3.812-7.831-4.343c-4.392-0.786-8.627,1.644-12.629,3.618
			c-7.389,3.646-13.928,2.97-27.166,4.634C311.255,241.278,369.264,241.682,369.264,241.682z"/>
	</g>
	<g display="none" opacity="0.4">
		<path display="inline" fill="#F3FBFF" d="M264.167,165.681c1.892-4.649,0.217-10.359-3.578-13.644
			c-3.795-3.286-9.353-4.189-14.171-2.783c-4.818,1.406-8.871,4.934-11.432,9.25c-0.795-2.321-1.995-4.668-4.103-5.924
			c-2.929-1.745-6.853-0.83-9.531,1.279c-2.679,2.109-4.391,5.181-6.032,8.169c-3.114-2.47-6.402-5.02-10.313-5.72
			c-5.785-1.035-11.363,2.165-16.633,4.765c-9.732,4.802-18.344,3.912-35.78,6.104C187.767,165.15,264.167,165.681,264.167,165.681z
			"/>
	</g>
	<g display="none" opacity="0.4">
		<path display="inline" fill="#F3FBFF" d="M519.746,163.443c4.105,0,7.924,3.442,8.358,7.524c1.292-1.687,3.278-2.972,5.402-2.914
			c2.124,0.059,4.226,1.776,4.249,3.9c2.247-2.503,6.388-2.96,9.301-1.484c1.313,0.665,2.454,1.63,3.42,2.734
			c0.841,0.96,1.544,2.128,2.72,2.718c1.187,0.595,8.942,1.124,11.495,1.299c5.892,0.406,11.793,0.679,17.694,0.905
			c3.343,0.128,6.688,0.241,10.032,0.314c-14.576,0-88.36-0.19-92.787-0.19c0.325-2.394,1.906-4.581,4.077-5.641
			c2.35-1.147,4.723-0.746,6.993,0.236C510.596,172.011,511.468,163.443,519.746,163.443z"/>
	</g>
	<g display="none" opacity="0.4">
		<path display="inline" fill="#F3FBFF" d="M482.025,34.959c6.588,0,12.715,5.523,13.413,12.074c2.072-2.708,5.261-4.77,8.669-4.676
			s6.779,2.849,6.817,6.258c3.606-4.017,10.25-4.75,14.925-2.381c2.106,1.067,3.938,2.616,5.487,4.387
			c1.349,1.541,2.477,3.414,4.364,4.36c1.903,0.955,14.35,1.803,18.445,2.085c9.454,0.651,18.923,1.09,28.392,1.452
			c5.365,0.206,10.731,0.386,16.099,0.505c-23.389,0-141.783-0.306-148.888-0.306c0.522-3.841,3.059-7.351,6.542-9.052
			c3.771-1.841,7.579-1.197,11.222,0.379C467.344,48.708,468.743,34.959,482.025,34.959z"/>
	</g>
	<g>
		<g>
			<ellipse fill="#E6ECEF" cx="463.705" cy="417.133" rx="14.99" ry="1.989"/>
		</g>
		<g>
			<g>
				<path fill="#F9DCE0" d="M479.753,411.588c1.392-2.737,1.766-6.049,0.536-8.929c-0.711-1.666-1.71-3.31-3.159-4.433
					c-1.264-0.98-2.752-1.681-4.296-2.089c-2.66-0.703-5.614-0.471-7.988,0.92c-1.982,1.161-3.433,3.048-4.388,5.109
					c-0.932,2.011-1.324,4.509-3.331,5.806c-0.573,0.37-1.525,0.524-1.808,1.215c-0.336,0.821,0.274,1.637,0.601,2.35
					c0.388,0.848,0.773,1.696,1.159,2.545c0.276,0.608,0.544,1.659,1.275,1.884c0.703,0.249,1.452-0.359,2.11-0.54
					c1.735-0.478,3.617,0.199,5.197,0.892c1.813,0.794,3.684,1.229,5.675,1.054C475.023,417.048,478.089,414.863,479.753,411.588z"
					/>
			</g>
			<path fill="none" stroke="#FFFFFF" stroke-width="0.4169" stroke-miterlimit="10" d="M455.765,412.352c0,0,5.595-2.76,8.266-4.27
				c0.71-0.401,1.444-0.8,2.418-1.667c0.627-0.559,1.896-1.876,1.082-2.746c-0.961-1.027-2.093,0.649-2.084,1.585
				c0.007,0.771,0.668,1.904,1.308,2.356c1.122,0.796,2.85,0.593,3.919-0.067c0.819-0.506,0.357-1.706-0.552-1.646
				c-0.866,0.058-3.308,1.885-2.745,3.353c0.296,0.773,0.925,1.385,1.666,1.746c1.338,0.653,3.073-1.043,1.193-1.646
				c-1.336-0.429-3.044,0.032-4.297,0.519c-3.43,1.332-6.085,2.47-9.489,3.866"/>
			
				<rect x="453.024" y="412.489" transform="matrix(0.4087 0.9127 -0.9127 0.4087 646.4788 -172.2587)" fill="#389FE5" width="6.317" height="0.623"/>
			<path fill="#67C2EF" d="M455.37,417.025c0.075-0.154,0.272-0.236,0.433-0.182l0.055,0.019c0.157,0.054,0.351-0.024,0.429-0.175
				l0.047-0.091c0.081-0.156,0.288-0.234,0.446-0.168c0.155,0.064,0.358-0.009,0.442-0.161l0.137-0.246
				c0.05-0.09,0.055-0.198,0.013-0.292L454.805,410c-0.042-0.094-0.125-0.162-0.226-0.185l-0.275-0.063
				c-0.169-0.038-0.358,0.063-0.414,0.223c-0.056,0.162-0.252,0.265-0.423,0.221l-0.099-0.025c-0.164-0.041-0.353,0.051-0.416,0.204
				l-0.022,0.053c-0.065,0.156-0.259,0.248-0.423,0.202l-0.075-0.021c-0.168-0.047-0.365,0.051-0.427,0.211l-0.014,0.034
				c-0.067,0.178-0.065,0.362,0.007,0.521l2.478,5.533c0.071,0.16,0.208,0.284,0.385,0.352l0.034,0.014
				c0.161,0.061,0.365-0.021,0.441-0.179L455.37,417.025z"/>
			<g>
				<g>
					<path fill="#389FE5" d="M456.619,416.222c0.014,0,0.028-0.003,0.042-0.009c0.052-0.023,0.074-0.085,0.052-0.137l-1.196-2.67
						c-0.023-0.052-0.084-0.074-0.136-0.052c-0.052,0.023-0.074,0.084-0.052,0.136l1.196,2.671
						C456.542,416.199,456.58,416.222,456.619,416.222z"/>
				</g>
				<g>
					<path fill="#389FE5" d="M454.891,412.361c0.014,0,0.028-0.003,0.042-0.009c0.052-0.023,0.074-0.085,0.052-0.137l-0.663-1.479
						c-0.023-0.052-0.084-0.075-0.136-0.052s-0.075,0.084-0.052,0.136l0.663,1.48C454.813,412.339,454.851,412.361,454.891,412.361z
						"/>
				</g>
				<g>
					<path fill="#389FE5" d="M455.133,414.656c0.014,0,0.028-0.002,0.042-0.009c0.052-0.022,0.074-0.084,0.052-0.136l-1.733-3.87
						c-0.022-0.052-0.084-0.074-0.136-0.052c-0.052,0.023-0.074,0.085-0.052,0.137l1.733,3.869
						C455.057,414.635,455.094,414.656,455.133,414.656z"/>
				</g>
				<g>
					<path fill="#389FE5" d="M455.969,416.523c0.014,0,0.028-0.003,0.042-0.009c0.052-0.023,0.075-0.084,0.052-0.136l-0.511-1.142
						c-0.023-0.052-0.085-0.073-0.137-0.052c-0.051,0.023-0.074,0.085-0.051,0.137l0.511,1.141
						C455.893,416.501,455.93,416.523,455.969,416.523z"/>
				</g>
				<g>
					<path fill="#389FE5" d="M453.846,413.537c0.015,0,0.029-0.003,0.043-0.009c0.051-0.023,0.074-0.084,0.051-0.136l-0.927-2.07
						c-0.023-0.052-0.084-0.075-0.136-0.052s-0.074,0.084-0.052,0.136l0.927,2.07C453.77,413.515,453.807,413.537,453.846,413.537z"
						/>
				</g>
				<g>
					<path fill="#389FE5" d="M454.825,415.724c0.014,0,0.028-0.003,0.042-0.009c0.052-0.023,0.075-0.084,0.052-0.136l-0.372-0.832
						c-0.023-0.052-0.084-0.075-0.136-0.052s-0.075,0.084-0.052,0.136l0.372,0.832C454.749,415.701,454.786,415.724,454.825,415.724
						z"/>
				</g>
				<g>
					<path fill="#389FE5" d="M455.19,413.032c0.015,0,0.028-0.003,0.042-0.009c0.052-0.023,0.075-0.085,0.052-0.137l-0.134-0.3
						c-0.023-0.052-0.084-0.074-0.137-0.052c-0.051,0.023-0.074,0.085-0.051,0.137l0.134,0.3
						C455.114,413.01,455.151,413.032,455.19,413.032z"/>
				</g>
			</g>
			<g>
				<path fill="#F9DCE0" d="M479.753,411.588c1.392-2.737,1.766-6.049,0.536-8.929c-0.141-0.328-0.292-0.655-0.456-0.979
					c1.77,4.701-0.433,10.445-5.284,12.438c-4.078,1.676-7.826,0.996-11.403-2.278c-0.749-0.685-1.584-1.043-2.618-0.742
					c-0.956,0.278-1.74,0.971-2.721,1.186c-0.148,0.032-0.307,0.052-0.45,0.002c-0.133-0.047-0.238-0.148-0.336-0.25
					c-0.804-0.841-1.324-1.902-1.597-3.036c-0.04,0.059-0.076,0.12-0.104,0.188c-0.336,0.821,0.274,1.637,0.601,2.35
					c0.388,0.848,0.773,1.696,1.159,2.545c0.276,0.608,0.544,1.659,1.275,1.884c0.703,0.249,1.452-0.359,2.11-0.54
					c1.735-0.478,3.617,0.199,5.197,0.892c1.813,0.794,3.684,1.229,5.675,1.054C475.023,417.048,478.089,414.863,479.753,411.588z"
					/>
			</g>
		</g>
	</g>
</g>
<g id="DESIGNED_BY_FREEPIK" display="none">
	<g display="inline">
		<g id="XMLID_1_">
			<g id="XMLID_20_">
				<path id="XMLID_28_" fill="#A5B7C6" d="M385.104,472.331c-0.433,0.443-0.804,0.932-1.108,1.453l-0.466-0.24
					c-0.066-0.298-0.349-0.503-0.659-0.467c-0.33,0.039-0.567,0.339-0.528,0.67s0.339,0.567,0.67,0.529
					c0.065-0.008,0.127-0.026,0.184-0.053l0.451,0.234c-0.251,0.554-0.433,1.139-0.539,1.744l0.746,0.131
					c0.23-1.306,0.85-2.506,1.792-3.473L385.104,472.331z"/>
				<path id="XMLID_27_" fill="#A5B7C6" d="M390.592,470.029c-0.171,0-0.341,0.006-0.51,0.018l-0.073-0.627
					c0.188-0.148,0.296-0.389,0.266-0.645c-0.046-0.393-0.402-0.674-0.795-0.628c-0.394,0.047-0.675,0.402-0.628,0.796
					c0.029,0.254,0.188,0.461,0.404,0.563l0.073,0.624c-0.714,0.116-1.403,0.332-2.06,0.646l0.327,0.684
					c0.934-0.447,1.941-0.674,2.995-0.674c0.496,0,0.993,0.054,1.475,0.158l0.161-0.741
					C391.692,470.088,391.143,470.029,390.592,470.029z"/>
				<path id="XMLID_26_" fill="#A5B7C6" d="M397.194,472.577c0.331-0.041,0.566-0.342,0.525-0.673
					c-0.04-0.331-0.342-0.566-0.672-0.525c-0.31,0.038-0.536,0.304-0.53,0.608l-0.416,0.363c-0.418-0.43-0.89-0.813-1.408-1.139
					l-0.403,0.641c1.134,0.715,2.021,1.727,2.563,2.926l0.69-0.313c-0.251-0.555-0.567-1.072-0.942-1.546l0.402-0.351
					C397.064,472.582,397.129,472.585,397.194,472.577z"/>
				<path id="XMLID_25_" fill="#A5B7C6" d="M390.044,480.238c-0.386,0.022-0.774,0.034-1.157,0.034c-0.88,0-1.732-0.061-2.479-0.179
					c-0.39-0.063-0.846-0.155-1.27-0.292c1.046,1.86,3.069,3.125,5.388,3.125c2.855,0,5.263-1.916,5.95-4.504
					c-0.682,0.449-1.506,0.825-2.459,1.122C392.839,479.913,391.463,480.152,390.044,480.238z"/>
				<path id="XMLID_21_" fill="#A5B7C6" d="M390.592,471.546c-3.353,0-6.08,2.666-6.08,5.943c0,0.426,0.047,0.849,0.138,1.261
					c0.674,0.483,2.706,0.891,5.348,0.731c2.879-0.174,5.297-0.957,6.672-2.158c-0.006-0.195-0.021-0.391-0.045-0.582
					C396.243,473.779,393.65,471.546,390.592,471.546z M388.433,478.061c-1.021,0-1.85-0.83-1.85-1.85c0-1.021,0.829-1.85,1.85-1.85
					c1.02,0,1.85,0.829,1.85,1.85C390.282,477.23,389.452,478.061,388.433,478.061z M393.17,477.152c-0.75,0-1.36-0.61-1.36-1.36
					s0.61-1.36,1.36-1.36s1.36,0.61,1.36,1.36S393.92,477.152,393.17,477.152z"/>
			</g>
			<path id="XMLID_18_" fill="#A5B7C6" d="M406.595,473.413c-0.294-0.116-0.805-0.31-1.382-0.237
				c-0.551,0.068-0.844,0.34-0.844,1.006v0.866h2.228v1.718h-2.228v5.454h-1.932v-5.454h-1.34v-1.718h1.34v-0.888
				c0-1.681,0.896-2.783,2.568-2.783c0.643,0,1.157,0.122,1.59,0.309L406.595,473.413z"/>
			<path id="XMLID_16_" fill="#A5B7C6" d="M411.298,476.745c-0.177-0.03-0.357-0.047-0.526-0.047c-0.896,0-1.51,0.548-1.51,1.614
				v3.907h-1.932v-7.172h1.872v0.785c0.452-0.674,1.141-0.978,2.021-0.978c0.414,0,0.848,0.128,1.094,0.337L411.298,476.745z"/>
			<path id="XMLID_13_" fill="#A5B7C6" d="M418.965,478.623c0,0.222-0.015,0.488-0.037,0.651h-5.084
				c0.207,1.036,0.933,1.487,1.843,1.487c0.622,0,1.295-0.251,1.813-0.688l1.133,1.244c-0.814,0.747-1.851,1.088-3.057,1.088
				c-2.198,0-3.723-1.495-3.723-3.753c0-2.257,1.48-3.797,3.627-3.797C417.544,474.855,418.958,476.388,418.965,478.623z
				 M413.851,477.957h3.175c-0.177-0.918-0.732-1.437-1.562-1.437C414.554,476.521,414.021,477.068,413.851,477.957z"/>
			<path id="XMLID_10_" fill="#A5B7C6" d="M426.618,478.623c0,0.222-0.015,0.488-0.037,0.651h-5.085
				c0.208,1.036,0.933,1.487,1.844,1.487c0.621,0,1.295-0.251,1.813-0.688l1.132,1.244c-0.814,0.747-1.85,1.088-3.057,1.088
				c-2.198,0-3.723-1.495-3.723-3.753c0-2.257,1.48-3.797,3.626-3.797C425.197,474.855,426.611,476.388,426.618,478.623z
				 M421.504,477.957h3.176c-0.178-0.918-0.733-1.437-1.563-1.437C422.207,476.521,421.674,477.068,421.504,477.957z"/>
			<path id="XMLID_7_" fill="#A5B7C6" d="M434.964,478.631c0,2.153-1.495,3.774-3.471,3.774c-0.963,0-1.644-0.378-2.109-0.933v3.708
				h-1.925v-10.133h1.888v0.792c0.466-0.585,1.154-0.984,2.139-0.984C433.469,474.855,434.964,476.477,434.964,478.631z
				 M429.287,478.631c0,1.132,0.747,1.976,1.843,1.976c1.14,0,1.851-0.881,1.851-1.976c0-1.096-0.711-1.977-1.851-1.977
				C430.034,476.654,429.287,477.498,429.287,478.631z"/>
			<path id="XMLID_4_" fill="#A5B7C6" d="M438.067,472.702c0,0.695-0.54,1.229-1.236,1.229c-0.695,0-1.229-0.533-1.229-1.229
				c0-0.696,0.533-1.244,1.229-1.244C437.527,471.458,438.067,472.006,438.067,472.702z M437.809,482.22h-1.932v-7.172h1.932V482.22
				z"/>
			<path id="XMLID_2_" fill="#A5B7C6" d="M441.032,477.602l2.701-2.554h2.369l-3.479,3.375l3.501,3.797h-2.376l-2.716-2.901v2.901
				h-1.932v-10.657h1.932V477.602z"/>
		</g>
		<g>
			<path fill="#A5B7C6" d="M309.413,482.155v-1.055c-0.527,0.718-1.392,1.23-2.388,1.23c-1.846,0-3.149-1.406-3.149-3.706
				c0-2.256,1.289-3.721,3.149-3.721c0.952,0,1.816,0.469,2.388,1.245v-3.765h1.099v9.771H309.413z M309.413,480.236v-3.208
				c-0.396-0.615-1.245-1.143-2.124-1.143c-1.421,0-2.271,1.172-2.271,2.739s0.85,2.725,2.271,2.725
				C308.167,481.35,309.017,480.852,309.413,480.236z"/>
			<path fill="#A5B7C6" d="M311.932,478.61c0-2.051,1.464-3.706,3.486-3.706c2.139,0,3.398,1.67,3.398,3.794v0.278h-5.728
				c0.088,1.333,1.025,2.446,2.549,2.446c0.806,0,1.626-0.322,2.183-0.894l0.527,0.718c-0.703,0.703-1.655,1.084-2.813,1.084
				C313.44,482.331,311.932,480.822,311.932,478.61z M315.403,475.813c-1.509,0-2.256,1.274-2.314,2.358h4.644
				C317.718,477.116,317.015,475.813,315.403,475.813z"/>
			<path fill="#A5B7C6" d="M319.607,481.218l0.571-0.791c0.469,0.542,1.362,1.011,2.329,1.011c1.084,0,1.67-0.513,1.67-1.216
				c0-1.714-4.38-0.659-4.38-3.281c0-1.099,0.952-2.036,2.637-2.036c1.201,0,2.051,0.454,2.622,1.025l-0.513,0.762
				c-0.424-0.513-1.201-0.894-2.109-0.894c-0.967,0-1.567,0.483-1.567,1.113c0,1.553,4.379,0.527,4.379,3.281
				c0,1.187-0.952,2.139-2.783,2.139C321.306,482.331,320.325,481.979,319.607,481.218z"/>
			<path fill="#A5B7C6" d="M326.477,473.337c0-0.41,0.337-0.747,0.732-0.747c0.41,0,0.747,0.337,0.747,0.747
				s-0.336,0.732-0.747,0.732C326.814,474.069,326.477,473.747,326.477,473.337z M326.667,482.155v-7.075h1.099v7.075H326.667z"/>
			<path fill="#A5B7C6" d="M329.582,483.972l0.557-0.82c0.586,0.703,1.289,0.967,2.3,0.967c1.172,0,2.27-0.571,2.27-2.124v-1.011
				c-0.512,0.718-1.376,1.26-2.373,1.26c-1.845,0-3.149-1.377-3.149-3.662c0-2.271,1.289-3.677,3.149-3.677
				c0.952,0,1.802,0.469,2.373,1.245v-1.069h1.099v6.87c0,2.344-1.641,3.076-3.369,3.076
				C331.237,485.026,330.417,484.792,329.582,483.972z M334.708,480.119v-3.091c-0.381-0.615-1.23-1.143-2.109-1.143
				c-1.421,0-2.271,1.128-2.271,2.695c0,1.553,0.849,2.695,2.271,2.695C333.478,481.276,334.328,480.734,334.708,480.119z"/>
			<path fill="#A5B7C6" d="M342.413,482.155v-4.629c0-1.245-0.629-1.641-1.582-1.641c-0.865,0-1.685,0.527-2.095,1.099v5.171h-1.099
				v-7.075h1.099v1.025c0.498-0.586,1.464-1.201,2.519-1.201c1.479,0,2.256,0.747,2.256,2.285v4.966H342.413z"/>
			<path fill="#A5B7C6" d="M344.933,478.61c0-2.051,1.465-3.706,3.486-3.706c2.138,0,3.398,1.67,3.398,3.794v0.278h-5.728
				c0.088,1.333,1.025,2.446,2.549,2.446c0.806,0,1.625-0.322,2.183-0.894l0.527,0.718c-0.703,0.703-1.655,1.084-2.813,1.084
				C346.441,482.331,344.933,480.822,344.933,478.61z M348.404,475.813c-1.509,0-2.256,1.274-2.314,2.358h4.643
				C350.718,477.116,350.015,475.813,348.404,475.813z"/>
			<path fill="#A5B7C6" d="M358.35,482.155v-1.055c-0.527,0.718-1.392,1.23-2.388,1.23c-1.845,0-3.149-1.406-3.149-3.706
				c0-2.256,1.289-3.721,3.149-3.721c0.952,0,1.817,0.469,2.388,1.245v-3.765h1.099v9.771H358.35z M358.35,480.236v-3.208
				c-0.396-0.615-1.245-1.143-2.124-1.143c-1.421,0-2.271,1.172-2.271,2.739s0.85,2.725,2.271,2.725
				C357.105,481.35,357.954,480.852,358.35,480.236z"/>
			<path fill="#A5B7C6" d="M364.692,482.155v-9.771h1.099v3.765c0.572-0.776,1.421-1.245,2.388-1.245
				c1.846,0,3.149,1.465,3.149,3.721c0,2.3-1.304,3.706-3.149,3.706c-0.996,0-1.86-0.513-2.388-1.23v1.055H364.692z M367.9,481.35
				c1.436,0,2.285-1.157,2.285-2.725s-0.85-2.739-2.285-2.739c-0.864,0-1.729,0.527-2.109,1.143v3.208
				C366.171,480.852,367.036,481.35,367.9,481.35z"/>
			<path fill="#A5B7C6" d="M372.528,483.928c0.161,0.073,0.425,0.117,0.601,0.117c0.483,0,0.805-0.161,1.055-0.747l0.468-1.069
				l-2.959-7.148h1.187l2.358,5.801l2.344-5.801h1.201l-3.545,8.511c-0.425,1.025-1.143,1.421-2.08,1.436
				c-0.234,0-0.601-0.044-0.805-0.103L372.528,483.928z"/>
		</g>
	</g>
</g>
</svg>
