<svg xmlns="http://www.w3.org/2000/svg" width="22" height="22" viewBox="0 0 22 22">
    <g fill="none" fill-rule="evenodd">
        <path fill="#000" fill-rule="nonzero" d="M.501 1.467c-.275 0-.498.223-.498.498 0 .276.223.499.498.499h2.587l2.626 12.42c-.027.284.237.56.522.545h12.467c.263.004.505-.235.505-.498 0-.264-.242-.503-.505-.499H6.64l-.42-1.995H19.7c.223-.002.434-.171.483-.39l1.745-7.48c.065-.289-.186-.605-.483-.607H4.428l-.444-2.104c-.05-.22-.265-.391-.49-.39H.5zm4.138 3.49h16.183l-1.52 6.483H6.01L4.639 4.957zm4.34 11.968c-1.234 0-2.244 1.01-2.244 2.244 0 1.234 1.01 2.244 2.244 2.244 1.233 0 2.244-1.01 2.244-2.244 0-1.233-1.01-2.244-2.244-2.244zm6.981 0c-1.233 0-2.244 1.01-2.244 2.244 0 1.234 1.01 2.244 2.244 2.244 1.233 0 2.244-1.01 2.244-2.244 0-1.233-1.01-2.244-2.244-2.244zm-6.981.998c.694 0 1.246.552 1.246 1.246 0 .695-.552 1.247-1.246 1.247-.695 0-1.247-.552-1.247-1.247 0-.694.552-1.246 1.247-1.246zm6.981 0c.694 0 1.247.552 1.247 1.246 0 .695-.553 1.247-1.247 1.247-.694 0-1.247-.552-1.247-1.247 0-.694.553-1.246 1.247-1.246z"/>
        <circle cx="17.6" cy="4.4" r="4.4" fill="#0081E4"/>
        <text fill="#FFF" font-family="Inter-Bold, Inter" font-size="5.76" font-weight="bold">
            <tspan x="16.133" y="6.798">1</tspan>
        </text>
    </g>
</svg>
