<svg xmlns="http://www.w3.org/2000/svg" width="22" height="22" viewBox="0 0 22 22">
    <path stroke="#FFF" stroke-width=".5" d="M14.295 18.517c-.095 1.737-1.534 3.116-3.295 3.116s-3.2-1.38-3.295-3.116H2.568c-.61 0-1.101-.491-1.101-1.1v-1.1c0-1.214.986-2.2 2.2-2.2v-4.4c0-3.1 1.938-5.817 4.766-6.872v-.097C8.433 1.332 9.584.183 11 .183c1.417 0 2.567 1.148 2.567 2.565v.097c2.828 1.055 4.766 3.773 4.766 6.871v4.4c1.213 0 2.2.986 2.2 2.2v1.102c0 .605-.494 1.099-1.1 1.099h-5.138zm-1.47 0h-3.65c.093.926.874 1.65 1.825 1.65.95 0 1.732-.724 1.824-1.65zm6.242-1.467v-.733c0-.404-.33-.734-.734-.734-.81 0-1.466-.655-1.466-1.467v-4.4c0-2.63-1.747-4.919-4.237-5.637l-.53-.153V2.748c0-.606-.492-1.098-1.1-1.098-.606 0-1.1.493-1.1 1.098v1.178l-.53.153c-2.49.718-4.237 3.006-4.237 5.637v4.4c0 .81-.657 1.467-1.466 1.467-.404 0-.734.33-.734.734v.733h16.134z"/>
</svg>
