<svg version="1.1" id="Layer_1" xmlns="http://www.w3.org/2000/svg" xmlns:xlink="http://www.w3.org/1999/xlink" x="0px" y="0px" viewBox="0 0 1000 1000" style="enable-background:new 0 0 1000 1000;" xml:space="preserve">
    <rect id="XMLID_33_" x="247.5" y="171.4" transform="matrix(0.9301 0.3673 -0.3673 0.9301 117.473 -127.7278)" fill="#C96B86" width="293.7" height="146.8" />
    <polyline id="XMLID_32_" fill="none" stroke="#562259" stroke-width="40" stroke-linecap="round" stroke-linejoin="round" stroke-miterlimit="10" points="434.8,171.4 576.6,24.5 710.8,295.4 " />
    <rect id="XMLID_31_" x="576.6" y="297.9" fill="#70CEEA" width="293.7" height="146.8" />
    <rect id="XMLID_30_" x="576.6" y="297.9" fill="none" stroke="#562259" stroke-width="40" stroke-linecap="round" stroke-linejoin="round" stroke-miterlimit="10" width="293.7" height="146.8" />
    <rect id="XMLID_29_" x="247.5" y="171.4" transform="matrix(0.9301 0.3673 -0.3673 0.9301 117.473 -127.7278)" fill="none" stroke="#562259" stroke-width="40" stroke-linecap="round" stroke-linejoin="round" stroke-miterlimit="10" width="293.7" height="146.8" />
    <line id="XMLID_28_" fill="none" stroke="#562259" stroke-width="40.504" stroke-linecap="round" stroke-miterlimit="10" x1="720" y1="376" x2="860.1" y2="376" />
    <path id="XMLID_27_" fill="none" stroke="#562259" stroke-width="40" stroke-linecap="round" stroke-linejoin="round" stroke-miterlimit="10" d="M591.8,449.8c0,0-89.4,64.1-89.4,130v278.5c0,0,3.3,60.2,67.1,96.3
	c24.1,13.7,51.5,20.1,79.2,20.1h142.5c31.4,0,62.4-8.6,88.3-26.3c23.3-15.9,45.7-40.6,51.6-78.3V753.6" />
    <path id="XMLID_26_" fill="none" stroke="#562259" stroke-width="40" stroke-linecap="round" stroke-miterlimit="10" d="M863.5,443.1c0,0,30.9,31.5,58.1,61.2c36.6,40,58,92,57.5,146.2c-0.4,49.5-18.7,102-89.5,115.9
	c-3.5,0.7-7,1.1-10.6,1.3c-25.3,1.5-116.4,0.7-103.3-86.6c0,0,20.3-67.5,96.2-52.3" />
    <path id="XMLID_25_" fill="none" stroke="#562259" stroke-width="40" stroke-linecap="round" stroke-linejoin="round" stroke-miterlimit="10" d="M562.7,457.4L503.9,367l-265.3-98.2c0,0-82.3,38-117.7,115.2L33.6,597.9
	c0,0-44.3,105.1,46.8,160.8l239.2,93.7c0,0,74.7,17.7,105.1-45.6l73.4-131.6" />
    <path id="XMLID_24_" fill="none" stroke="#562259" stroke-width="40" stroke-linecap="round" stroke-miterlimit="10" d="M113.3,613.1c0,0-34.2,84.8,63.3,98.7" />
    <line id="XMLID_23_" fill="none" stroke="#562259" stroke-width="40" stroke-linecap="round" stroke-miterlimit="10" x1="263.9" y1="187.8" x2="400.6" y2="243.5" />
    <circle id="XMLID_22_" fill="#562259" cx="653.8" cy="380.2" r="19" />
    <circle id="XMLID_21_" fill="#562259" cx="239.9" cy="738.4" r="19" />
</svg>