<svg version="1.1" id="Layer_1" xmlns="http://www.w3.org/2000/svg" xmlns:xlink="http://www.w3.org/1999/xlink" x="0px" y="0px" viewBox="0 0 1000 1000" style="enable-background:new 0 0 1000 1000;" xml:space="preserve">
    <ellipse id="XMLID_19_" fill="#C96B86" cx="685.8" cy="405.7" rx="120.1" ry="120.1" />
    <path id="XMLID_18_" fill="none" stroke="#562259" stroke-width="40" stroke-linecap="round" stroke-miterlimit="10" d="M258.7,234.7c0-87.8,0-154.1,0-154.1c0-29.1,23.6-52.7,52.7-52.7H910
	c29.1,0,52.7,23.6,52.7,52.7v578.4c0,29.1-23.6,52.7-52.7,52.7c0,0-66,0-154.1,0" />
    <path id="XMLID_17_" fill="none" stroke="#562259" stroke-width="40" stroke-linecap="round" stroke-miterlimit="10" d="M813.4,99.6h33.8c23,0,41.7,18.7,41.7,41.7v29.2" />
    <path id="XMLID_16_" fill="#70CEEA" stroke="#562259" stroke-width="40" stroke-linecap="round" stroke-miterlimit="10" d="M630.8,383.2H500.6c-20.7,0-37.5-16.8-37.5-37.5V215.5c0-20.7,16.8-37.5,37.5-37.5h130.3
	c20.7,0,37.5,16.8,37.5,37.5v130.2C668.3,366.4,651.5,383.2,630.8,383.2z" />
    <path id="XMLID_15_" fill="none" stroke="#562259" stroke-width="40" stroke-linecap="round" stroke-miterlimit="10" d="M630.8,383.2H500.6c-20.7,0-37.5-16.8-37.5-37.5V215.5c0-20.7,16.8-37.5,37.5-37.5h130.3
	c20.7,0,37.5,16.8,37.5,37.5v130.2C668.3,366.4,651.5,383.2,630.8,383.2z" />
    <ellipse id="XMLID_14_" fill="none" stroke="#562259" stroke-width="40" stroke-linecap="round" stroke-miterlimit="10" cx="685.8" cy="405.7" rx="120.1" ry="120.1" />
    <path id="XMLID_13_" fill="none" stroke="#562259" stroke-width="40" stroke-linecap="round" stroke-miterlimit="10" d="M134.3,548.3c-16.6,0-30-13.4-30-30c0-16.6,13.4-30,30-30" />
    <path id="XMLID_12_" fill="none" stroke="#562259" stroke-width="40" stroke-linecap="round" stroke-miterlimit="10" d="M365.9,545.2c16.6,0,30-13.4,30-30c0-16.6-13.4-30-30-30" />
    <line id="XMLID_11_" fill="none" stroke="#562259" stroke-width="40" stroke-linecap="round" stroke-miterlimit="10" x1="865.1" y1="716" x2="865.1" y2="871.1" />
    <circle id="XMLID_10_" fill="none" stroke="#562259" stroke-width="40.0354" stroke-linecap="round" stroke-miterlimit="10" cx="865.1" cy="923.6" r="47.5" />
    <circle id="XMLID_9_" fill="#DC5A69" stroke="#562259" stroke-width="40" stroke-linecap="round" stroke-miterlimit="10" cx="865.1" cy="923.6" r="47.5" />
    <path id="XMLID_8_" fill="none" stroke="#562259" stroke-width="40" stroke-linecap="round" stroke-miterlimit="10" d="M253.4,615.1L253.4,615.1c-61.1,0-110.6-49.5-110.6-110.6v-80.7c0-61.1,49.5-110.6,110.6-110.6h0
	c61.1,0,110.6,49.5,110.6,110.6v80.7C364.1,565.5,314.5,615.1,253.4,615.1z" />
    <path id="XMLID_7_" fill="none" stroke="#562259" stroke-width="40" stroke-linecap="round" stroke-linejoin="round" stroke-miterlimit="10" d="M140.3,480.8c0,0,45,2.5,75.1-75.1c0,0,37.5,90.1,142.6,67.6" />
    <path id="XMLID_5_" fill="#C96B86" d="M149,643.4h40l72,76.6l52-76.6h242.7l2.5,137.6l-147.6,0v182.7H37.7v-209
	C37.7,693.2,87.5,643.4,149,643.4z" />
    <path id="XMLID_6_" fill="none" stroke="#562259" stroke-width="40" stroke-linecap="round" stroke-miterlimit="10" d="M313,647.2L313,647.2c0,33.9-27.4,61.3-61.3,61.3h0c-33.9,0-61.3-27.4-61.3-61.3v0" />
    <path id="XMLID_4_" fill="none" stroke="#562259" stroke-width="40" stroke-linecap="round" stroke-miterlimit="10" d="M149,643.4h406.7l2.5,137.6l-147.6,0v182.7H37.7v-209C37.7,693.2,87.5,643.4,149,643.4z" />
    <line id="XMLID_3_" fill="none" stroke="#562259" stroke-width="40" stroke-linecap="round" stroke-miterlimit="10" x1="130.3" y1="848.6" x2="130.3" y2="963.7" />
    <path id="XMLID_2_" fill="none" stroke="#562259" stroke-width="40" stroke-linecap="round" stroke-miterlimit="10" d="M558.2,648.4h37.5c35.9,0,65.1,29.1,65.1,65.1v0c0,35.9-29.1,65.1-65.1,65.1h-30" />
    <circle id="XMLID_1_" fill="#562259" cx="745.2" cy="102.9" r="21.3" />
</svg>