<svg version="1.1" id="Layer_1" xmlns="http://www.w3.org/2000/svg" xmlns:xlink="http://www.w3.org/1999/xlink" x="0px" y="0px" viewBox="0 0 1000 1000" style="enable-background:new 0 0 1000 1000;" xml:space="preserve">
    <circle id="XMLID_416_" fill="#DC5A69" cx="908.3" cy="727.7" r="60.1" />
    <polygon id="XMLID_121_" fill="#C96B86" points="284.2,474.4 533.3,713.5 382.5,791.9 264,531.8 " />
    <polygon id="XMLID_156_" fill="#C96B86" points="45.3,941.3 143.4,745.2 179.5,869.9 " />
    <polygon id="XMLID_37_" fill="none" stroke="#562259" stroke-width="39.4755" stroke-linecap="round" stroke-linejoin="round" stroke-miterlimit="10" points="32.4,956.3 276.3,454.5 525.3,702.2 " />
    <line id="XMLID_114_" fill="none" stroke="#562259" stroke-width="39.4755" stroke-linecap="round" stroke-linejoin="round" stroke-miterlimit="10" x1="153.7" y1="713.8" x2="192.4" y2="869.9" />
    <line id="XMLID_115_" fill="none" stroke="#562259" stroke-width="39.4755" stroke-linecap="round" stroke-linejoin="round" stroke-miterlimit="10" x1="259.5" y1="509.9" x2="295" y2="597.8" />
    <line id="XMLID_128_" fill="none" stroke="#562259" stroke-width="39.4755" stroke-linecap="round" stroke-linejoin="round" stroke-miterlimit="10" x1="374.3" y1="775.8" x2="352.4" y2="720.9" />
    <path id="XMLID_116_" fill="none" stroke="#562259" stroke-width="40" stroke-linecap="round" stroke-linejoin="round" stroke-miterlimit="10" d="M376.2,420.5c0,0-50.6-39.1-21.3-106.4c3.2-7.5,7.7-14.4,12.8-20.7
	c25.5-31,118.7-160.6-25.5-244.2" />
    <path id="XMLID_113_" fill="none" stroke="#562259" stroke-width="40" stroke-linecap="round" stroke-linejoin="round" stroke-miterlimit="10" d="M622,156.4c0,0-105.9,126.8-22.2,200c0,0,47.4,19.6,55.3-20.8c2.1-10.6,0.3-21.5-4.3-31.3
	c-12.4-25.8-48-77.1-118.9-22.4c-91.5,70.6-2.6,194.8-2.6,194.8" />
    <path id="XMLID_118_" fill="none" stroke="#562259" stroke-width="40" stroke-linecap="round" stroke-linejoin="round" stroke-miterlimit="10" d="M589.3,594.3c0,0,48.4-82,125.7-96c28.3-5.1,57.4,1.3,81.6,16.7c30.9,19.6,104,52.9,171.8-14.8
	" />
    <circle id="XMLID_117_" fill="none" stroke="#562259" stroke-width="40" stroke-linecap="round" stroke-linejoin="round" stroke-miterlimit="10" cx="908.3" cy="727.7" r="60.1" />
    <rect id="XMLID_209_" x="737.1" y="62.3" transform="matrix(0.7071 0.7071 -0.7071 0.7071 314.1703 -525.4058)" fill="#70CEEA" width="108.5" height="108.5" />
    <rect id="XMLID_119_" x="737.1" y="66.2" transform="matrix(0.7071 0.7071 -0.7071 0.7071 316.9437 -524.257)" fill="none" stroke="#562259" stroke-width="40" stroke-linecap="round" stroke-linejoin="round" stroke-miterlimit="10" width="108.5" height="108.5" />
    <circle id="XMLID_157_" fill="none" stroke="#562259" stroke-width="40" stroke-linecap="round" stroke-linejoin="round" stroke-miterlimit="10" cx="908.3" cy="727.7" r="60.1" />
    <circle id="XMLID_120_" fill="#562259" cx="231.1" cy="216.5" r="19.6" />
    <circle id="XMLID_127_" fill="#562259" cx="320.1" cy="660.9" r="19.4" />
    <circle id="XMLID_122_" fill="#562259" cx="189.3" cy="166.9" r="19.6" />
    <circle id="XMLID_123_" fill="#562259" cx="174.9" cy="225.7" r="19.6" />
    <circle id="XMLID_126_" fill="#562259" cx="815.5" cy="382.6" r="19.6" />
    <circle id="XMLID_125_" fill="#562259" cx="773.7" cy="332.9" r="19.6" />
    <circle id="XMLID_124_" fill="#562259" cx="759.3" cy="391.7" r="19.6" />
</svg>