<svg xmlns="http://www.w3.org/2000/svg" xmlns:xlink="http://www.w3.org/1999/xlink" width="314" height="419" viewBox="0 0 314 419">
    <defs>
        <path id="a" d="M0 119.614h161.286V.058H0z"/>
        <path id="c" d="M45 .21c-8.074 0-13.983-.929-15.497 7.145l-5.053 20.99c-.89 4.743-6.088 8.183-10.916 8.183H3.021a2.869 2.869 0 0 0-.003 5.737l43.353.044a4.194 4.194 0 0 0 4.123-3.403l8.247-31.55C59.971.791 55.457.177 49.387.177c-1.397 0-2.877.032-4.388.032"/>
        <path id="e" d="M0 0h210.698v4.651H0z"/>
    </defs>
    <g fill="none" fill-rule="evenodd">
        <path fill="#326C90" d="M183 208h25v-29h-25zM236 208h26v-23h-26z"/>
        <path fill="#1A4E6E" d="M208 208h28v-46h-28z"/>
        <path fill="#FAB9AF" d="M228.725 32.066c0 5.07-1.95 9.717-6.295 9.182-1.88-.232-3.58-1.431-4.738-3.295-.302-.487-.59-.597-1.616-2.113-3.9-2.021-3.073-4.577-2.837-4.933.473-.714 2.01.178 2.896 1.159 0-5.072 2.819-9.182 6.295-9.182 2.167 0 4.453.778 5.586 3.209.684 1.47.709 4.062.709 5.973"/>
        <path fill="#FA978D" d="M226.847 35.42s.272.384.846.413c.677.034.743-.322.743-.322l-.377-2.965s-.368-.268-.52-.27c-.126-.003-.426.211-.426.211l-.266 2.934z"/>
        <path fill="#1A4B69" d="M213.594 30.253s2.214 1.354 2.847 2.264c.221.318.683.333.948.051.123-.13.257-.303.401-.532 0 0 2.39-3.204 1.996-5.123-.059-.287.172-.547.458-.493 1.695.319 5.854.964 7.713.03 2.364-1.19 4.196-6.895-1.42-6.776 0 0-.907.076-1.391.685-.372.467-.843.85-1.418 1.005a7.213 7.213 0 0 1-3.1.144c-1.857-.316-3.79.092-5.298 1.227-1.736 1.307-3.125 3.595-1.736 7.518"/>
        <path fill="#1A4B69" d="M227.602 24.964s1.182 3.803 1.123 6.18c0 0 1.832-.832.473-6.656-1.36-5.824-1.596.476-1.596.476"/>
        <path fill="#FAB9AF" d="M215.485 34.77c.177.535 2.896 3.625 1.95 7.726l5.32 4.1 1.518-5.498-1.281-5.734-7.507-.594zM255.599 37.087l1.418-2.734 3.074 1.783-1.655 2.258z"/>
        <path fill="#A6425F" d="M227.641 43.268l17.26 4.635 10.712-11.942a.266.266 0 0 1 .356-.04c.678.495 2.977 2.097 4.218 2.054.12-.004.194.132.127.233l-11.158 16.946s-16.819-2.284-20.72-5.256c0 0-7.65-1.995-.795-6.63"/>
        <path fill="#B95572" d="M211.082 43.087s12.95-2.819 17.853.7c.168.122.352.215.543.297 1.12.483 5.139 3.16 4.404 16.536l-1.686 20.149-19.357 5.022s-.691-22.923-3.887-26.745c0 0-.853-16.633 2.13-15.959"/>
        <path fill="#FAB9AF" d="M224.006 42.079c-.587 4.357-1.794 4.302-3.136 4.324-2.782.044-3.365-4.235-3.365-4.235l2.748-1.842 3.753 1.753z"/>
        <path fill="#B95572" d="M226.843 161.228s.831-3.51 3.658-2.508c0 0 1.247 1.505 1.745 1.755.499.251 2.744.753 3.491.92 0 0 1.33 1.337-1.413 1.254l-6.65-.251s-.748-.418-.83-1.17M210.47 161.228s.831-3.51 3.657-2.508c0 0 1.247 1.505 1.746 1.755.499.251 2.743.753 3.491.92 0 0 1.33 1.337-1.413 1.254l-6.65-.251s-.748-.418-.831-1.17"/>
        <path fill="#A6425F" d="M211.496 76.583l-.53 45.832-.208 37.252 5.464-.052s3.428-34.684 4.11-38.455c.833-4.605 3.33-29.509 3.33-29.509l2.29 50.088 1.013 17.784 4.97-.588s.955-37.447.955-39.799c0-1.545 1.86-18.409 1.614-31.466-.129-6.812-1.892-11.924-1.892-11.924l-21.116.837z"/>
        <path fill="#FAB9AF" d="M257.017 34.353s.623-4.178 4.682-2.922c0 0 1.769 2.616.208 3.192-1.561.575-4.211 2.18-4.89-.27"/>
        <path stroke="#FDC149" d="M249.07 20.555s-2.892-2.37-5.568-.906c-2.676 1.463-.94 4.607-.94 4.607s2.923 5.713 9.342 5.625M259.196 16.711s.612-3.7 3.583-4.38c2.97-.68 3.733 2.833 3.733 2.833s1.56 6.23-3.314 10.43"/>
        <path fill="#FDC149" d="M254.446 39.243l12.851-4.878s-5.224.305-6.988-4.394l-3.603 1.368s2.556 4.734-2.26 7.904"/>
        <path fill="#E2A84D" d="M255.402 41.789l12.851-4.879-.956-2.545-12.851 4.878z"/>
        <path fill="#FDC149" d="M269.452 37.501L254.89 43.03l-.344-.916 14.563-5.527z"/>
        <path fill="#FAB9AF" d="M260.574 30.966s-2.042 1.781-1.745 2.142c0 0 .19.407.736.091 0 0-.588.411-.107.595 0 0 .21.102.472-.015 0 0-.113.266.062.483.068.084.286.071.454.01 0 0-.07.804.622.284.693-.52 1.55-.802 1.756-1.528.235-.83-1.874-2.555-2.25-2.062"/>
        <path fill="#E2A84D" d="M258.948 31.457c-3.818 1.45-8.081-.488-9.522-4.326l-3.768-9.75a.42.42 0 0 1 .241-.544l13.046-4.952a.416.416 0 0 1 .535.24l3.77 9.758c1.442 3.838-.484 8.125-4.302 9.574"/>
        <path fill="#FDC149" d="M263.25 21.883l-3.77-9.758a.415.415 0 0 0-.321-.26l-9.791 3.716a.419.419 0 0 0-.241.544l3.768 9.75a7.387 7.387 0 0 0 7.6 4.773 7.453 7.453 0 0 0 2.756-8.765"/>
        <path fill="#016E6F" d="M319.127 211.767H148.873a1.878 1.878 0 0 1-1.873-1.883c0-1.04.839-1.884 1.873-1.884h170.254c1.034 0 1.873.843 1.873 1.884 0 1.04-.839 1.883-1.873 1.883"/>
        <path fill="#FDC149" d="M257.203 4.44c.34 0 .711.4.967.59-.007-.318-.102-.776.043-1.069.146-.295.563-.49.822-.679-.303-.092-.765-.142-.997-.371-.233-.231-.288-.69-.385-.995-.19.278-.398.745-.728.876-.28.11-.695.025-.987.024.191.253.536.569.59.89.053.326-.17.731-.27 1.036.285-.1.637-.301.945-.301m1.51 2.161c-.635 0-1.037-.967-1.612-1.048-.574-.082-1.48.948-2.029.406-.554-.548.467-1.49.37-2.07-.1-.597-1.242-1.044-1.045-1.742.222-.787 1.521-.16 2.03-.376.47-.2.617-1.07 1.041-1.394.988-.753.987 1.2 1.302 1.617.312.412 1.1.34 1.57.591 1.279.685-.871 1.396-1.111 1.846-.246.461.458 2.17-.516 2.17M272.112 26.194l.825.83.824-.83-.824-.83-.825.83zm.825 2.092a.519.519 0 0 1-.368-.153l-1.56-1.57a.526.526 0 0 1 0-.74l1.56-1.568a.519.519 0 0 1 .735 0l1.56 1.569a.526.526 0 0 1 0 .74l-1.56 1.569a.518.518 0 0 1-.367.153zM240.73 13.043a.577.577 0 0 0-.413.172.59.59 0 0 0 0 .83.577.577 0 0 0 .824 0 .59.59 0 0 0 0-.83.576.576 0 0 0-.412-.172m0 2.22c-.433 0-.84-.17-1.147-.479a1.642 1.642 0 0 1 0-2.309 1.607 1.607 0 0 1 1.147-.478c.434 0 .841.17 1.148.478a1.642 1.642 0 0 1 0 2.31 1.607 1.607 0 0 1-1.148.477M234.717 10.293a.516.516 0 0 1-.367-.153 4.633 4.633 0 0 0-3.308-1.378c-1.25 0-2.425.49-3.308 1.378a.518.518 0 0 1-.735 0 .525.525 0 0 1 0-.74 5.663 5.663 0 0 1 4.043-1.684c1.527 0 2.963.598 4.043 1.685a.526.526 0 0 1 0 .74.517.517 0 0 1-.368.152M273.8 50.698a.517.517 0 0 1-.368-.154.526.526 0 0 1 0-.74 4.734 4.734 0 0 0 0-6.657.526.526 0 0 1 0-.74.518.518 0 0 1 .735 0c2.23 2.244 2.23 5.894 0 8.137a.517.517 0 0 1-.368.154M272.16 42.347a.522.522 0 0 1-.52-.523c0-.29.232-.523.52-.523.287 0 .52.234.52.523a.521.521 0 0 1-.52.523M278.851 10.946c.175.843.586 1.326.778 1.434.046-.15.037-.516-.187-.885a1.483 1.483 0 0 0-.59-.55m-4.046 4.018a.52.52 0 0 1-.508-.417c-.016-.076-.378-1.892.542-3.3.495-.756 1.253-1.244 2.254-1.45.23-.048.454-.077.671-.087.167-1.42 1.027-2.738 2.471-3.707a.518.518 0 0 1 .72.145c.16.24.096.565-.143.725-.873.585-1.474 1.283-1.788 2.075-.12.304-.188.597-.221.869a2.53 2.53 0 0 1 1.405.954c.495.677.625 1.587.31 2.162a.95.95 0 0 1-.916.513c-.707-.052-1.412-.898-1.716-2.058a4.695 4.695 0 0 1-.12-.632c-.144.01-.298.03-.465.065-.73.15-1.251.478-1.594 1.002-.674 1.031-.396 2.497-.392 2.511a.523.523 0 0 1-.51.63"/>
        <path fill="#FAB9AF" d="M212.451 77.5s-.236 1.664 1.064.892c0 0 .71-1.427 1.537-.832 0 0 1.773.059 1.36 2.258 0 0-1.286 3.005-3.902 2.912-.89-.032-2.541-.475-2.305-2.734 0 0-.059-2.555 2.246-2.496"/>
        <path fill="#A6425F" d="M210.678 43.208s3.06 4.147 1.641 8.783c-1.419 4.636-6.724 12.018-6.724 12.018l7.684 13.075-3.429 3.685s-11.82-11.886-11.82-16.166c0 0 8.984-18.78 12.648-21.395"/>
        <path fill="#326C90" d="M218.766 180.103l5.596-3.343v17.868h-2.966v-12.742l-2.63 1.49z"/>
        <g>
            <path fill="#1A4E6E" d="M6.62 162.277h1.29l11.77-34.4h-1.288zM25.696 162.277h1.29l12.159-34.4h-1.29z"/>
            <g transform="translate(0 46.135)">
                <path fill="#1A4E6E" d="M60.96 75.981H50.447c-4.827 0-10.026-3.44-10.915-8.183l-5.054-20.989c-1.513-8.074-7.423-7.145-15.496-7.145-8.074 0-15.255-.93-13.742 7.145l8.247 31.55a4.194 4.194 0 0 0 4.124 3.403l43.353-.044a2.87 2.87 0 0 0-.004-5.737"/>
                <path fill="#326C90" d="M17.658 78.36L9.41 46.81c-1.38-7.365 2.678-6.957 9.572-7.972-.701-.098-1.107-1.156-1.817-1.156-8.074 0-13.438 1.053-11.925 9.127l8.247 31.55a4.194 4.194 0 0 0 4.124 3.403l4.121-.005a4.189 4.189 0 0 1-4.074-3.398"/>
                <path fill="#1A4E6E" d="M51.638 81.743l12.158 34.398h1.289L52.928 81.743zM32.175 81.743l11.812 34.398h1.29L33.463 81.743z"/>
                <path fill="#A6425F" d="M76.534 71.125C65.26 65.464 41.93 54.832 36.852 54.967c0 0-12.081 16.992-3.52 20.388 10.529 4.177 26.726 3.533 41.391 3.314 5.071-.076 6.608-5.135 1.811-7.544"/>
                <path fill="#B1516D" d="M81.558 111.946l1.779-.861s.361.622.663 1.026c.58.782 4.824 1.31 4.837 2.365.01.904-2.531 1.132-3.446 1.113-.914-.02-1.59-.169-2.182-.438-.644-.294-1.725-.786-1.9-1.125-.305-.59-.065-.934.004-1.234.08-.354.245-.846.245-.846"/>
                <path fill="#FAB9AF" d="M83.258 109.133s.091 1.888.682 2.467c.641.627 1.76 1.5 1.724 1.936-.611.523-2.244.193-3.209-.066a1.473 1.473 0 0 1-1.018-.969c-.446-1.371-1.177-4.022-1.177-4.022l2.998.654z"/>
                <path fill="#B1516D" d="M82.187 116.247c-.47-2.538-.377-1.637-.732-2.548-.108-.276.708.344.708.344l.343 2.24-.298.08-.021-.116z"/>
                <path fill="#A6425F" d="M71.404 79.615c4.701 15.25 9.022 31.461 9.022 31.461 1.614.08 2.915-.421 4.068-1.132 0 0-1.927-16.067-4.117-34.075-.894-7.347-12.074-6.31-8.973 3.746"/>
                <path fill="#AF526D" d="M71.29 71.125C60.014 65.464 30.898 60.076 25.82 60.211c0 0-6.295 11.748 2.266 15.144 10.53 4.177 26.726 3.533 41.392 3.314 5.071-.076 6.608-5.135 1.81-7.544"/>
                <path fill="#B1516D" d="M56.524 109.993l1.966.199s-.018.719.026 1.221c.085.97 3.421 3.645 2.879 4.55-.465.776-2.75-.363-3.518-.859-.768-.496-1.266-.977-1.628-1.517-.394-.587-1.057-1.573-1.028-1.955.05-.662.435-.828.65-1.048.255-.26.653-.591.653-.591"/>
                <path fill="#FAB9AF" d="M59.447 108.49s-.913 1.654-.713 2.457c.216.87.71 2.2.451 2.553-.794.125-2.011-1.013-2.697-1.739a1.472 1.472 0 0 1-.358-1.36c.34-1.4 1.235-6.1 1.235-6.1l2.082 4.188z"/>
                <path fill="#B1516D" d="M54.804 113.984c.93-2.407.537-1.591.712-2.553.054-.291.423.664.423.664l-.883 2.088-.295-.089.043-.11z"/>
                <path fill="#AF526D" d="M64.21 77.035a35510.03 35510.03 0 0 1-8.194 31.624c1.333.913 2.703 1.169 4.058 1.169 0 0 6.162-14.795 13.741-31.277 3.091-6.724-6.972-11.704-9.605-1.516"/>
                <path fill="#B95572" d="M48.035 56.4l-21.276-1.025s-2.683 3.495-1.982 6.716c.26 1.194 16.644 3.018 25.557-2.181.727-.424-2.3-3.51-2.3-3.51"/>
                <mask id="b" fill="#fff">
                    <use xlink:href="#a"/>
                </mask>
                <path fill="#1A4E6E" d="M97.444 115.26h2.047V54.765h-2.047zM142.075 116.363h2.047V54.766h-2.047zM49.784 116.141h2.048V54.766h-2.048z" mask="url(#b)"/>
                <path fill="#203A60" d="M21.585 26.335a25.94 25.94 0 0 0 6.031-4.362c2.38-2.284 4.257-6.436 3.108-10.258-.548-1.823-.601-3.74-.072-5.433 1.84-5.896 8.876-6.274 11.31-4.053 9.112 8.314 13.449 31.218 2.774 44.641-2.32 2.918-13.284 11.48-23.428 6.183-4.506-2.352-5.901-3.832-7.33-8.813-2.085-7.27 1.65-14.756 7.607-17.905" mask="url(#b)"/>
                <path fill="#FAB9AF" d="M35.03 10.795c.429.334 5.052 4.596 6.298 4.363-.003.384-1.065 4.525-.215 6.688-.309 2.034-4.956 2.325-6.421-1.08 2.933-2.441.62-8.109.338-9.971" mask="url(#b)"/>
                <path fill="#FCD2C5" d="M63.998 48.486c.129.238-.78 1.005-1.046 1.05-.669-.086-.617-.477-1.256-.466.554-.09 1.119-.305 1.623-.561.267-.16.514-.41.68-.023" mask="url(#b)"/>
                <path fill="#FAB9AF" d="M33.38 27.067c-.48-1.042 5.016-2.474 5.291-1.975 1.517 2.752 4.196 12.085 6.26 16.576 2.532 5.51-2.837 4.743-3.52 3.889-3.957-6.65-5.053-12.04-8.03-18.49" mask="url(#b)"/>
                <path fill="#C96B86" d="M39.447 25.016c1.664 1.467 2.95 8.776 4.924 13.184-1.566 1.612-2.441 2.421-5.354 2.95-3.16-4.784-4.769-11.608-4.802-13.374-.087-4.544 2.877-4.835 5.232-2.76" mask="url(#b)"/>
                <path fill="#FAB9AF" d="M34.548 9.426c-.393-3.092 1.335-5.931 4.457-6.33 2.907-.368 5.77.142 6.578 2.861.29.974-.14 10.068-4.29 11.535-1.974.698-6.039-2.523-6.336-4.855 0 0-.404-3.18-.409-3.211" mask="url(#b)"/>
                <path fill="#203A60" d="M32.408 2.9c3.393-4.558 9.706-2.857 9.76-.29 4.439-.741 5.046 7.594 2.876 8.759.749-5.295-5.856-6.235-5.856-6.235-.626 1.789-2.46 1.55-3.265 3.28-1.21 2.596-1.22 1.515-1.398 2.22 0 0-5.958-2.574-2.117-7.734" mask="url(#b)"/>
                <path fill="#FAB9AF" d="M35.13 7.156c.298.027.58.825.977 1.14-.339 1.012-1.047 1.945-1.426 2.737-.715-.266-.853-1.353-.788-2.092.07-.782.455-1.855 1.237-1.785" mask="url(#b)"/>
                <path fill="#FA978D" d="M43.137 13.814a.17.17 0 0 1-.053.138.91.91 0 0 1-.592.257c-.38.023-.513-.114-.558-.192a.143.143 0 0 1-.016-.09l.251-2.178a.184.184 0 0 1 .084-.13c.092-.063.246-.159.325-.161.062-.002.18.063.257.11.048.03.079.076.084.127l.218 2.12z" mask="url(#b)"/>
                <path fill="#FAB9AF" d="M31.32 29.717c-.482-1.042 3.837-2.475 4.112-1.975 1.52 2.757 4.2 12.095 6.26 16.576 2.533 5.51-3.119 4.183-3.801 3.33-3.958-6.652-3.594-11.482-6.572-17.93" mask="url(#b)"/>
                <path fill="#C96B86" d="M36.192 27.715c1.638 1.495 2.795 8.826 4.692 13.268-1.594 1.585-2.483 2.378-5.405 2.855C32.404 39 30.914 32.15 30.912 30.383c-.007-4.545 2.961-4.784 5.28-2.668" mask="url(#b)"/>
                <path fill="#203A60" d="M21.585 26.335a25.94 25.94 0 0 0 6.031-4.362c2.38-2.284 4.257-6.436 3.108-10.258-.548-1.823-.601-3.74-.072-5.433 1.84-5.896 8.876-6.274 11.31-4.053 9.112 8.314 13.449 31.218 2.774 44.641-2.32 2.918-13.284 11.48-23.428 6.183-4.506-2.352-5.901-3.832-7.33-8.813-2.085-7.27 1.65-14.756 7.607-17.905" mask="url(#b)"/>
                <path fill="#FAB9AF" d="M35.03 10.795c.429.334 5.052 4.596 6.298 4.363-.003.384-1.34 4.101-.125 6.064-.31 2.033-5.135 2.865-6.6-.54 2.933-2.44.708-8.025.427-9.887" mask="url(#b)"/>
                <path fill="#FAB9AF" d="M34.548 9.426c-.393-3.092 1.335-5.931 4.457-6.33 2.907-.368 5.77.142 6.578 2.861.29.974-.14 10.068-4.29 11.535-1.974.698-6.039-2.523-6.336-4.855 0 0-.404-3.18-.409-3.211" mask="url(#b)"/>
                <path fill="#203A60" d="M32.408 2.9c3.393-4.558 9.706-2.857 9.76-.29 4.439-.741 5.046 7.594 2.876 8.759.749-5.295-5.856-6.235-5.856-6.235-.626 1.789-2.46 1.55-3.265 3.28-1.21 2.596-1.22 1.515-1.398 2.22 0 0-5.958-2.574-2.117-7.734" mask="url(#b)"/>
                <path fill="#FAB9AF" d="M35.13 7.156c.298.027.58.825.977 1.14-.339 1.012-1.047 1.945-1.426 2.737-.715-.266-.853-1.353-.788-2.092.07-.782.455-1.855 1.237-1.785" mask="url(#b)"/>
                <path fill="#FA978D" d="M43.137 13.814a.17.17 0 0 1-.053.138.91.91 0 0 1-.592.257c-.38.023-.513-.114-.558-.192a.143.143 0 0 1-.016-.09l.251-2.178a.184.184 0 0 1 .084-.13c.092-.063.246-.159.325-.161.062-.002.18.063.257.11.048.03.079.076.084.127l.218 2.12z" mask="url(#b)"/>
                <path fill="#1A4E6E" d="M79.01 45.516h6.167V33.093h-6.168z" mask="url(#b)"/>
                <path fill="#1A4E6E" d="M91.664 48.605H72.522v-.373c0-2.097 1.7-3.796 3.796-3.796h11.55c2.096 0 3.796 1.7 3.796 3.796v.373zM103.504 40.21H61.066a1.308 1.308 0 0 1-1.309-1.308V11.106c0-.723.586-1.308 1.309-1.308h42.438c.722 0 1.308.585 1.308 1.308v27.796c0 .723-.586 1.308-1.308 1.308" mask="url(#b)"/>
                <path fill="#326C90" d="M101.53 38.16H63.039a1.308 1.308 0 0 1-1.308-1.308V13.155c0-.722.586-1.308 1.308-1.308h38.493c.723 0 1.308.586 1.308 1.308v23.697c0 .723-.585 1.309-1.308 1.309" mask="url(#b)"/>
                <path fill="#FDC149" d="M99.542 21.428H80.91a.637.637 0 0 1 0-1.273h18.632a.636.636 0 1 1 0 1.273M93.833 24.09H80.91a.637.637 0 0 1 0-1.273h12.923a.637.637 0 1 1 0 1.273M94.72 26.752H80.871a.598.598 0 0 1-.598-.598v-.078c0-.33.268-.597.598-.597h13.85c.33 0 .597.267.597.597v.078c0 .33-.268.598-.598.598M90.438 29.414H80.91a.637.637 0 0 1 0-1.273h9.528a.636.636 0 1 1 0 1.273" mask="url(#b)"/>
                <path fill="#CAC3D0" d="M66.284 28.048a.539.539 0 0 1-.539-.539v-.195a.539.539 0 0 1 1.078 0v.195a.539.539 0 0 1-.539.539" mask="url(#b)"/>
                <path fill="#FDC149" d="M65.273 29.132h11.769V20.45H65.273z" mask="url(#b)"/>
                <path fill="#FAB9AF" d="M63.475 28.771c.414-.486.896-.968 1.403-1.413.593-.534 2.052-1.577 2.154-1.649.31-.195 1.019-.784 1.296-.86.177-.05.714.015.893.153.237.183.126.496.126.496.349.172-.243.952-.148.975.387.095.376.654-.786 1.442-.069.047-2.54 2.549-3.395 3.283-.493-.49-1.564-2.396-1.543-2.427M31.656 31.771c-1.017-.532 1.532-4.301 2.054-4.074 2.887 1.258 10.706 7.024 15.071 9.318 5.367 2.822.08 5.218-.982 4.957-7.193-2.856-9.85-6.906-16.143-10.2" mask="url(#b)"/>
                <path fill="#C96B86" d="M34.295 27.213c2.21.186 7.6 5.29 11.812 7.653-.297 2.228-.517 3.398-2.542 5.559-5.388-1.959-10.747-6.48-11.826-7.878-2.778-3.597-.571-5.596 2.556-5.334" mask="url(#b)"/>
                <path fill="#FAB9AF" d="M46.204 38.875c.144-.193.304-.35.456-.456 2.791-1.94 14.365-7.323 16.952-9.805.614.993 1.193 1.777 1.738 2.28-4.335 3.998-14.986 12.036-17.006 10.824-1.852-1.11-2.777-1.987-2.14-2.843" mask="url(#b)"/>
                <path fill="#B95572" d="M29.75 39.834c-2.029-8.212-5.552-10.428.78-16.919.901-.925 4.318-2.454 4.318-2.454s2.085 1.86 3.836 1.794c1.202-.047 2.347-1.303 2.347-1.303s2.112.486 2.797 1.08c.378.327 1.99 4.412 3.926 7.066 3.937 5.397-.734 9.522-.833 12.295-.19 5.303-.241 11.296 2.142 16.156-7.283 5.436-15.595 7.092-24.383 3.585.026-7.24 7.206-12.651 5.07-21.3" mask="url(#b)"/>
                <path fill="#FAB9AF" d="M58.365 46.747c.625-.132 1.3-.22 1.974-.264.795-.062 2.588.002 2.712.007.364.034 1.286 0 1.552.109.171.068.556.447.614.666.076.29-.203.47-.203.47.172.348-.773.606-.712.682.25.312-.1.747-1.502.664-.083-.005-3.567.47-4.693.53-.092-.689.223-2.853.258-2.864M31.32 29.717c-.482-1.042 3.837-2.475 4.112-1.975 1.52 2.757 4.2 12.095 6.26 16.576 2.533 5.51-3.119 4.183-3.801 3.33-3.958-6.652-3.594-11.482-6.572-17.93" mask="url(#b)"/>
                <path fill="#C96B86" d="M36.192 27.715c1.638 1.495 2.795 8.826 4.692 13.268-1.594 1.585-2.483 2.378-5.405 2.855C32.404 39 30.914 32.15 30.912 30.383c-.007-4.545 2.961-4.784 5.28-2.668" mask="url(#b)"/>
                <path fill="#FAB9AF" d="M38.516 44.22c.232-.065.454-.093.64-.084 3.394.166 15.85 2.96 19.413 2.57-.119 1.161-.138 2.135-.013 2.867-5.874.524-19.217.397-20.078-1.795-.79-2.01-.99-3.268.038-3.558" mask="url(#b)"/>
                <path fill="#326C90" d="M45.908 54.834h100.581a3.382 3.382 0 0 0 0-6.765H45.908a3.382 3.382 0 1 0 0 6.765" mask="url(#b)"/>
                <path fill="#FAB9AF" d="M64.755 28.03c-.144-.818-.088-1.623-.088-1.623a.113.113 0 0 1 .159-.109c.171.077.42.279.472.81.082.825-.496 1.185-.543.921" mask="url(#b)"/>
                <path fill="#FFCFC3" d="M110.962 104.798l1.16 6.631c.094 1.145.387 1.886 1.535 1.946 1.288.067 1.935-.312 1.97-1.601l.614-6.93-5.28-.046zM100.741 105.02l1.214 6.581c.093 1.146.334 1.937 1.481 1.997 1.288.066 1.759-.708 1.793-1.997l.792-6.534-5.28-.046z" mask="url(#b)"/>
                <path fill="#B1516D" d="M116.252 115.753c-.089.663-13.056.758-13.091.33-.11-1.214 1.518-1.483 2.278-1.767.429-.16 1.582-.45 2.266-.577.862-.162.707-.172 2.209-.598.726-.204.62-.183 1.036-.427.008 0 .396-.278.396-.278.62-.396.786-1.128.786-1.128l3.692.106s.705 2.244.428 4.339" mask="url(#b)"/>
                <path fill="#B1516D" d="M105.846 116.254c-.088.663-13.055.758-13.091.33-.11-1.214 1.518-1.483 2.279-1.768.428-.159 1.581-.448 2.265-.577.863-.161.707-.172 2.209-.597.727-.205.62-.183 1.036-.428.008.001.396-.277.396-.277.62-.396.787-1.128.787-1.128l3.691.106s.706 2.244.428 4.339M105.632 71.62l4.403 35.507 7.735-.65-2.932-33.907z" mask="url(#b)"/>
                <path fill="#FFCFC3" d="M120.945 20.978s1.274 3.756 1 5.033c0 0 4.995-.123 6.09-1.034 1.093-.912.11-5.093.11-5.093l-7.2 1.094z" mask="url(#b)"/>
                <path fill="#C96B86" d="M141.602 67.178s4.227 12.319-.33 14.324c-4.558 2.006-35.24-3.594-36.253-2.682-1.014.912 1.377 27.862 1.195 28.957-.182 1.093-6.556.454-6.556.454s-6.11-31.651-3.983-35.844c2.127-4.193 28.645-5.209 28.645-5.209h17.282z" mask="url(#b)"/>
                <path fill="#FFCFC3" d="M117.34 17.995c1.266 3.049 3.92 5.153 7 5.153 4.305 0 7.794-4.1 7.794-9.16 0-5.06-3.49-9.16-7.794-9.16-4.304 0-7.793 4.1-7.793 9.16 0 .571.05 1.127.135 1.67l.658 2.337z" mask="url(#b)"/>
                <path fill="#F4C6BD" d="M98.332 46.063s3.357-1.052 7.286.381c3.93 1.434 14.598 1.634 14.598 1.634s-.173 9.67.491 7.678c.45-1.35-17.45-5.949-19.526-6.84-2.077-.89-2.849-2.853-2.849-2.853" mask="url(#b)"/>
                <path fill="#203A60" d="M126.204 22.278c.226.1.472.155.719.141 1.83-.104 3.521-.806 4.199-1.7 0 0 .266-.266.417-.424 0 0 2.884-3.001 2.31-8.335-.434-4.038-2.884-7.864-6.016-9.394-.515-.252-1.05.318-.783.826.105.2.193.378.24.496 0 0-1.58-2.558-5.96-2.127-1.252.124-2.597.872-4.084 1.586-3.582 1.72-2.802 7.074 1.125 7.682.053.009.107.016.16.023.3.041.525.302.536.604.057 1.587.63 2.674 1.063 3.275a.59.59 0 0 0 .87.112c.315-.28.824-.57 1.52-.472 1.103.156.787 2.382-.501 2.732-.319.087-.526.392-.43.707.297.962.987 2.662 2.274 3.231 0 0 .967.588 1.313.734.247.104 1.028.303 1.028.303" mask="url(#b)"/>
                <path fill="#FFCFC3" d="M92.434 48.838l.697.251 6.532 2.896c1.618.852 4.127 1.467 5.687 1.652 1.973.231 8.334-8.672 8.334-8.672l-2.782-6.283s-5.375 8.611-6.654 8.509c-1.273-.107-14.045-3.044-15.339-3.054-1.27-.013-4.273-.442-5.883 3.195 0 0-.76 1.301 2.681.787l3.714-.37 1.495.434c.172-.001.589.33 1.224.55l.294.105z" mask="url(#b)"/>
                <path fill="#FA978D" d="M117.272 17.085a.158.158 0 0 1-.068.12.851.851 0 0 1-.582.162c-.355-.028-.46-.173-.492-.251a.133.133 0 0 1-.004-.085l.518-1.988a.173.173 0 0 1 .095-.11c.093-.045.248-.114.322-.106.058.006.158.082.224.136.04.034.063.08.061.128l-.074 1.994z" mask="url(#b)"/>
                <path fill="#B1516D" d="M123.393 27.234c-.56-.288-1.333-.603-2.357-.616-.393-.005-1.01.387-1.34.6-6.078 3.892-11.746 14.032-11.746 14.032s-.06 2.408 5.146 5.144l2.453-1.56s2.733-2.567 2.77-2.223c11.09-11.664 5.397-15.212 5.074-15.377" mask="url(#b)"/>
                <path fill="#B1516D" d="M118.693 46.002c.648 2.46 3.478 16.386-.856 21.843 0 0 13.217 3.19 27.436 1.094 0 0-4.792-35.796-6.807-39.138-3.418-5.668-7.923-6.92-14.759-4.824-1.053.323-2.101.955-3.122 1.79 0 0-4.307 4.567-3.235 9.852 1.072 5.284 1.343 9.383 1.343 9.383" mask="url(#b)"/>
                <path fill="#1A4E6E" d="M151.83 118.443h-1.29l-11.513-33.517h1.289zM132.367 118.443h-1.29l-11.514-33.517h1.29z" mask="url(#b)"/>
                <path fill="#1A4E6E" d="M97.748 79.164h10.513c4.827 0 10.026-3.44 10.915-8.183l5.054-20.989c1.513-8.074 7.423-7.145 15.496-7.145 8.074 0 15.255-.93 13.742 7.145l-8.247 31.55a4.194 4.194 0 0 1-4.124 3.403l-43.353-.044a2.869 2.869 0 0 1 .004-5.737M107.07 84.926l-11.514 33.517h-1.288l11.512-33.517z" mask="url(#b)"/>
                <path fill="#1A4E6E" d="M126.533 84.926l-11.512 33.517h-1.29l11.514-33.517z" mask="url(#b)"/>
            </g>
            <g transform="translate(94.727 88.772)">
                <mask id="d" fill="#fff">
                    <use xlink:href="#c"/>
                </mask>
                <path fill="#326C90" d="M58.65 10.61s2.516-5.66-5.788-5.594c-8.007.064-15.756.032-15.756.032s-3.73.161-4.887 5.177c-1.158 5.016-4.245 20.064-4.245 20.064s-2.508 9.84-10.997 9.84H-.193S-5.209 28.36.193 28.167C5.595 27.974 24.116 6.56 24.116 6.56L35.884-3.473l8.296-3.472s6.56.964 7.138 1.35c.58.386 7.139 4.437 7.139 4.437s4.823 5.788.193 11.769" mask="url(#d)"/>
            </g>
            <path fill="#016F70" d="M159.55 165.75H1.736a1.736 1.736 0 1 1 0-3.473H159.55a1.736 1.736 0 1 1 0 3.472"/>
        </g>
        <g>
            <path fill="#A6425F" d="M98.401 369.988c1.689-11.181.175-42.409.862-46.225.598-3.312 5.754-3.15 9.098-3.048 3.366.136 6.515 4.602 6.379 7.966-.054 1.352-3.084 28.45-4.871 40.288-1.288 8.53-7.863 35.672-9.935 45.659l-6.12-1.055c1.546-10.01 3.302-35.064 4.587-43.585M116.345 368.662c.904-11.447-.445-40.862-.433-41.186.135-3.361 4.623-5.504 7.932-5.403 3.327.136 5.913 2.972 5.779 6.333-.054 1.35-.93 28.682-2.696 40.51-1.273 8.524-4.769 36.147-7.18 46.177l-6.863-.876c1.529-10 2.783-36.972 3.461-45.555"/>
            <path fill="#A6425F" d="M94.189 413.233c-.09 1.818-.35 3.554-.37 4.645-.037.138.165.404.307.404l2.612.012.723-.811.69.817 11.022.049c.19 0 .39-.24.442-.424.065-.23-.087-.528-.96-.975-1.986-1.018-8.954-1.236-11.11-3.072 0 0-2.362-.645-3.356-.645M113.18 414.628c-.091 1.703-.272 2.724-.292 3.745-.036.13.166.379.308.379l2.612.01.723-.759.69.766 11.022.045c.19 0 .39-.224.441-.397.065-.215-.086-.494-.959-.912-1.986-.954-8.954-1.158-11.11-2.877h-3.436zM100.606 329.512s-3.739-6.862-1.335-20h30.689s.435 10-.268 20h-29.086zM126.506 258.814s6.018 1.99 5.403 4.72c-.476 2.123-16.708 18.04-18.986 22.04-.653 1.143-.247 21.076-.247 21.076s-3.23 1.901-6.847 1.374c-1.26-.184-.825-23.828-.557-24.883 1.362-5.352 10.798-14.244 10.798-14.244l10.436-10.083z"/>
            <path fill="#225A7D" d="M129.208 239.744s4.77-2.745 3.442-7.523c-1.327-4.779-4.883-.44-4.883-.44l1.441 7.963z"/>
            <path fill="#FAB9AF" d="M121.8 256.884l-.097-2.656s-.734-3.365 2.27-4.237c3.004-.872 4.85-2.863 5.295-4.348 0 0 2.95-6.943 1.202-10.235-1.277-2.403-7.296-6.833-9.322-5.72-2.026 1.113-9.553 3.482-9.657 5.455-.105 1.972 3.448 11.802 3.448 11.802l-1.108 4.57-1.408 1.794.671 5.38 1.435 1.96 3.836.956 2.928-.041.507-4.68z"/>
            <path fill="#FA978D" d="M126.372 243.8s.398.55 1.238.592c.99.05 1.088-.463 1.088-.463l-.552-4.26s-.539-.386-.76-.39c-.185-.003-.625.305-.625.305l-.389 4.215z"/>
            <path stroke="#326C90" d="M119.86 241.503l5.817.567.23-2.69-5.817-.566zM128.698 242.237l3.479.298.242-2.493-3.48-.298zM125.907 240.674s1.141-.944 3.256-.142M119.86 239.28l-4.186-.466"/>
            <path fill="#1A4B69" d="M109.252 232.633c1.282-7.932 11.602-10.359 15.196-9.454.479.12.042.826-.49 1.329 4.628-.017 9.57 1.277 9.853 6.3.205 3.658-9.39 4.468-15.78 2.975-.512-.12-1.07-.15-1.511.136-.55.359-1.183 1.583-.726 4.397-.524-.573-1.701-1.338-2.282-.48-.452.668-.311 2.232 1.579 2.932.662 1.96-.192 3.887-.51 5.023 0 0-6.232-7.575-5.329-13.158"/>
            <path fill="#FAB9AF" d="M140.082 313.317s-.01 1.277-1.553 2.035c-1.54.759.247-2.25.247-2.25s-1.813 2.638-2.47 2.446c-.657-.19-.653-1.346-.465-1.444.187-.098-1.07.084-1.285-.29-.214-.374.293-1.422.293-1.422s-.664-.314-.6-.889c.066-.574 1.848-3.113 1.9-3.342.051-.229-.938-.19-1.031.008-.094.199-.146 1.496-.856 1.623-.711.125-.382-1.413-.304-1.83.431-2.281 1.986-3.495 2.304-3.56 1.07-.215 5.083 4.833 3.82 8.915"/>
            <path fill="#A6425F" d="M132.882 286.513c-1.356-4.735.765-22.505-.492-24.213-1.65-2.24-4.882-2.753-5.722-1.183-1.7 3.175-1.102 11.24-1.102 11.24s-.87 13.222 1.991 18.057c2.154 1.56 2.585.901 3.712.22.819-.493 1.658-3.024 1.613-4.121"/>
            <path fill="#A6425F" d="M138 303.87s-5.299-14.113-5.267-15.474c.002-.085-.113-1.17-.08-1.257-.047-1.527-1.518-2.771-2.681-2.743-1.164.028-3.261 1.596-4.038 2.788-.013.141-.024.28-.027.415-.026 1.085 4.425 19.222 5.7 19.122 3.657-.288 6.393-2.851 6.393-2.851"/>
            <path fill="#D2F0FF" d="M112.134 264.3l6.025-6.416 2.429.122 7.18 6.786-1.847 47.976-9.614.465-8.074-1.206z"/>
            <path fill="#B95572" d="M124.41 256.953l5.028 2.121c1.856.86 3.03 2.841 2.979 5.023-.13 5.509-.348 16.273-.28 24.656.087 10.807.323 18.21-1.168 28.154a1.7 1.7 0 0 1-1.767 1.44l-6.434-.316a1.735 1.735 0 0 1-1.475-2.071c1.738-8.235 8.402-42.407 3.117-59.007M117.971 264.13c-.912-6.263-5.81-10.432-5.81-10.432s-8.682 3.739-10.81 7.035c-2.277 2.898 1.526 20.201.413 31.891-1.024 10.759-7.744 16.255-5.708 19.678 4.072 6.845 15.022 4.844 15.022 4.844s7.44-49.257 6.893-53.016"/>
            <path fill="#FFF" d="M113.316 251.837l6.08 6.202-4.654 4.03-5.114-7.881zM124.482 255.642l-1.078-.513-1.31-.501-1.303 3.168 5.581 5.67z"/>
            <path fill="#B95572" d="M119.897 258.84l.018-.006a.316.316 0 0 1 .417.225c.76 3.108 1.637 9.803 1.71 10.93.095 1.495.71 8.718.71 8.718l.364 7.514-1.403 4.22-2.318-3.86s.706-15.194.483-15.904c-.18-.572-.116-5.241-.116-5.241l-.072-6.285a.327.327 0 0 1 .207-.31"/>
            <path fill="#B95572" d="M120.044 259.28s-.758-.835-.635-1.169c.122-.334.587-.784.801-.676.183.093.496.403.566.598.032.09.008.198-.034.38-.057.245-.497.826-.698.866"/>
            <path fill="#A6425F" d="M102.25 265.03c.655-3.524 4.113-4.26 6.325-2.526 1.72 1.347 9.122 22.835 11.764 26.615.755 1.082 14.852 6.572 14.852 6.572s.323 3.728-1.725 6.754c-.714 1.054-17.4-7.514-18.242-8.211-4.266-3.54-8.865-15.991-8.865-15.991s-4.773-9.65-4.11-13.213"/>
            <path fill="#FDC149" d="M145.713 292.766c-3.138-.059-5.588-2.726-5.374-5.85l.63-6.707h9.57l.478 7.1c.149 3.01-2.286 5.515-5.304 5.457"/>
            <path fill="#FDC149" d="M144.977 301.605h.93v-8.838h-.93z"/>
            <path fill="#FDC149" d="M141.256 302.515s3.036-.57 4.12-1.37c0 0 .485-.012.65 0 .668.517 4.067 1.37 4.067 1.37v.457l-8.837.028v-.485M160.638 290.085a5.543 5.543 0 0 1-7.23-3.49l-1.92-6.533 8.976-3.574 3.105 6.492a5.257 5.257 0 0 1-2.93 7.105"/>
            <path fill="#E2A84D" d="M154.369 286.173l-1.87-6.429-1.01.407 1.883 6.478c.951 2.988 4.185 4.565 7.094 3.459.11-.042.219-.09.325-.138-2.734.578-5.54-1.005-6.422-3.777M141.412 286.862l.616-6.651-1.069-.002-.62 6.703c-.211 3.123 2.17 5.792 5.222 5.855.116.002.231-.001.346-.007-2.703-.486-4.69-3-4.495-5.898"/>
            <path fill="#FDC149" d="M164.047 298.006l-.848.343-3.339-8.495.848-.342z"/>
            <path fill="#FDC149" d="M159.86 300.709s2.62-1.637 3.347-2.75c0 0 .446-.192.605-.243.802.21 4.26-.297 4.26-.297l.16.405-8.201 3.316-.17-.431"/>
            <path fill="#FAB9AF" d="M133.814 301.154s.624-1.578.766-2.124c.145-.561.373-2.286.373-2.286s.36.67 1.884.812c.266.024 2.084-.773 2.834-1.613 1.728-1.934 3.032-3.422 5.286-3.622 2.33-.206 3.69 1.347 4.422 2.11.528.552 1.374 1.976 1.139 2.21-.235.231-.974.077-1.163-.002-.641-.266-.873-.967-1.48-1.315-.458-.262-1.882-.492-1.882-.492.38.263 1.377.876 1.828 1.375.44.452 1.05 1.208 1.317 2.139.266.922.102 1.405-.052 1.655-.11.18-.58-.21-.72-.712a5.367 5.367 0 0 0-.806-1.614c.06.135.32.757.234 1.442-.083.662-.799 1.99-.858.874-.035-.662-.196-1.548-.572-1.918-.438-.432-1.233-.813-1.233-.813.463.553 1.574 2.536.564 2.925-.21.08-.34-.438-.565-.817-.243-.412-1.293-1.528-3.037.235-2.843 2.871-4.893 1.81-4.893 1.81l-3.386-.259zM174.836 288.116s-7.47 2.591-8.039 2.613c-.57.02-3.997-.876-5.557-.24-1.156.47-1.91.58-2.225.945-.314.366.169.752.556.766.407.016 1.43.249 1.489.35.057.1-.399-.147-1.534.243-1.134.39-1.73.777-1.726.964.006.185.752.235 1.404.096.651-.138-.955.51-1.553 1.05-.6.538 1.286.351 2.093.106.807-.247-1.612.583-1.842 1.006-.23.423 1.904.253 2.787.027.884-.224-1.309.332-1.494.633-.185.301 1.815.907 3.244.702 1.324-.188 2.9-.294 5.546-2.62.487-.426 7.69-1.134 7.69-1.134l-.84-5.507z"/>
            <path fill="#A6425F" d="M212.71 413.698s1.852.653 4.825.607l-.063 3.88s-2.093.25-3.484.049l-.54-1.001-1.132 1.056s-6.654.71-10.087.478c0 0-.4-1.134 1.235-1.651 1.634-.517 5.36-1.228 6.414-1.799 1.055-.57 2.832-1.62 2.832-1.62"/>
            <path fill="#FFCBB9" d="M218 407.651l-.18 5.142-.056 1.57c-2.715.858-4.72-.642-4.72-.642l-.047-1.658-.113-4.313 5.116-.099z"/>
            <path fill="#A6425F" d="M195.5 413.698s1.852.652 4.826.607l-.063 3.882s-2.095.248-3.484.047l-.541-1.002-1.131 1.057s-6.654.711-10.087.478c0 0-.4-1.135 1.234-1.65 1.633-.518 5.36-1.229 6.415-1.8 1.055-.57 2.83-1.62 2.83-1.62"/>
            <path fill="#FFCBB9" d="M200.79 407.651l-.178 5.128-.058 1.588c-2.718.848-4.72-.641-4.72-.641l-.046-1.844-.114-4.132 5.117-.099z"/>
            <path fill="#A6425F" d="M215.906 301.761c-.953-4.138-15.114 1.309-15.114 1.309s.038.867.106 2.306c-2.557-1.02-3.986-3.95-8.571-2.947 0 0-3.164 17.1-3.164 34.344 0 5.418.215 13.958.879 21.277 1.22 13.442 4.441 51.438 4.441 51.438l7.87-.052s-1.41-37.871-.816-51.466c.314-7.178 1.747-18.597 2.308-24.26.956 6.121 1.048 17.257 2.399 24.688 2.411 13.275 6.062 51.114 6.062 51.114l7.554-.044c-.852-8.864-1.389-43.583-1.158-51.237.475-15.643 1.627-32.635.572-44.442-.493-5.52-2.285-7.316-3.368-12.028M203.116 262.18s-2.58-4.513-4.963-3.087c-1.853 1.107-11.809 21.288-14.871 24.67-.875.969-9.277 3.365-9.277 3.365s-.787 3.62.836 6.85c.566 1.124 12.207-3.215 13.118-3.795 4.623-2.944 9.492-15.91 9.492-15.91l5.665-12.094z"/>
            <path fill="#B95572" d="M204.102 253.233s7.92.41 12.63 6.44c7.032 14.224.125 35.905-.672 43.21 0 0-12.721 6.07-23.887.67 0 0-2.498-22.773-2.019-28.807.478-6.035 6.335-20.402 13.948-21.513"/>
            <path fill="#90324D" d="M203.581 334.097s-1.229-6.681-1.707-11.562c0 0-.772 11.593 1.149 17.21l.558-5.648z"/>
            <path fill="#FAB9AF" d="M203.946 288.83c-2.517 1.222-6.967 2.849-6.967 2.849s-2.265-2.037-3.219-2.125c-.954-.088-3.588 1.195-4.172 1.514-.585.318.776.797 1.53.459.257-.116 1.916-.513 2.222-.223.308.29-2.676.876-4.31 1.374-1.634.497-4.123 1.754-4.052 2.044.155.64 2.802-.422 3.238-.583.483-.179 1.787-.33 1.787-.33s-.705 1.221.06 1.45c0 0-.034 1.28.651 1.284 0 0 .345.99 1.41.865 1.068-.125 3.883.232 5.538-1.889 0 0 7.151-.997 9.312-2.67 2.161-1.673-.51-5.238-3.028-4.018M201.723 247.756s.962 6.276.04 9.778c-.179.679.234 1.382.9 1.604 2.61.872 6.105-2.536 7.819-3.696.357-1.966-.656-9.651-.656-9.651l-8.103 1.965z"/>
            <path fill="#FAB9AF" d="M194.838 231.72s2.177-.248.242 2.905c-.942 1.532.396 7.372.396 7.372s2.273 8.11 5.396 7.48c3.124-.63 8.591-.28 9.584-2.097.995-1.818 2.628-14.121-2.768-16.148-5.395-2.028-12.85.488-12.85.488"/>
            <path fill="#FA978D" d="M195.674 242.691s-.267.33-.772.308c-.593-.026-.623-.359-.623-.359l.564-2.69s.343-.216.475-.205c.111.008.356.23.356.23v2.716z"/>
            <path fill="#1A4B69" d="M191.023 230.749c0 2.782 2.455 4.457 4.793 4.73 1.517.176 3.035-.07 4.54-.329 2.539-.437 4.599 2.432 5.104 4.554.57 2.405-1.928 6.294-4.142 5.022-2.213-1.274-5.57-1.344-5.57-1.344s-1.285 1.627-.643 4.455c.644 2.83 7.855 3.042 10.068 1.203 2.214-1.839 1.358-6.72 2.856-8.558 1.5-1.839 2.874.954 2.785 1.769-.122 1.136-2.09 1.955-2.09 1.955l1.332 6.236c2.857-2.052 6.779-18.095.026-19.21-1.35-4.683-7.436-4.972-10.673-4.976 0 0-8.386.033-8.386 4.493"/>
            <path fill="#FFF" d="M201.72 258.714l8.373-3.156-7.925 6.512zM201.939 258.505l-3.939 2.17 4.186-6.512z"/>
            <path fill="#A6425F" d="M198 260.68l3.73-2.331.456 3.433-2.602 1.218z"/>
            <path fill="#A6425F" d="M199.35 261.767s-3.676 4.894-3.676 17.167c0 1.44 1.906 3.6 1.906 3.6l2.553-3.48s-.118-14.828.527-17.287c.646-2.458-1.31 0-1.31 0M208.164 269.375c1.531 4.257 3.086 12.364 3.432 14.476.448 2.74-12.666 5.115-12.666 5.115l.063 7.522s15.545-4.082 18.245-6.225c2.04-3.944 2.51-16.954-.13-24.3-1.812-5.044-6.154-7.523-8.78-4.32-1.808 2.203-.578 6.583-.164 7.732"/>
            <path fill="#E6F7FF" d="M200.79 412.75l-.06 1.613c-2.884.861-5.005-.652-5.005-.652l-.05-1.874c1.271.2 3.464.55 5.116.912M218 412.5l-.06 1.422c-2.88.779-5.006-.582-5.006-.582l-.05-1.503c1.394.215 3.761.565 5.116.662"/>
            <path fill="#FDC149" d="M148.51 278.104a.771.771 0 0 1-1.06.064l-2.684-2.275a.704.704 0 0 1-.067-1.02.772.772 0 0 1 1.06-.065l2.684 2.275c.311.264.341.721.067 1.02M150.525 276.46a.693.693 0 0 1-.862-.48l-.937-3.234a.71.71 0 0 1 .47-.88.693.693 0 0 1 .862.48l.937 3.233a.71.71 0 0 1-.47.88M152.874 276.917c-.348-.124-.537-.527-.421-.901l.995-3.224c.116-.374.492-.577.84-.453.349.124.538.527.422.901l-.996 3.224c-.115.374-.491.577-.84.453"/>
        </g>
    </g>
</svg>
