<svg xmlns="http://www.w3.org/2000/svg" width="72" height="55" viewBox="0 0 72 55">
    <path fill="#4D5D7D" fill-rule="evenodd" d="M45.957 29.298c-4.34-3.064-6.51-7.404-6.51-13.021 0-4.724 1.532-8.617 4.596-11.681C47.106 1.532 51 0 55.723 0c4.596 0 8.458 1.436 11.586 4.309C70.436 7.18 72 11.17 72 16.277c0 3.83-1.468 8.17-4.404 13.02l-15.32 25.469H36l9.957-25.468zm-36 0c-4.34-3.064-6.51-7.404-6.51-13.021 0-4.724 1.532-8.617 4.596-11.681C11.106 1.532 15 0 19.723 0c4.596 0 8.458 1.436 11.586 4.309C34.436 7.18 36 11.17 36 16.277c0 3.83-1.468 8.17-4.404 13.02l-15.32 25.469H0l9.957-25.468z" opacity=".1"/>
</svg>
