<svg xmlns="http://www.w3.org/2000/svg" xmlns:xlink="http://www.w3.org/1999/xlink" width="21" height="29" viewBox="0 0 21 29">
    <defs>
        <path id="a" d="M0 .102h20.973v28.28H0z"/>
    </defs>
    <g fill="none" fill-rule="evenodd">
        <g transform="translate(0 .515)">
            <mask id="b" fill="#fff">
                <use xlink:href="#a"/>
            </mask>
            <path fill="#562359" d="M10.49 1.953c-2.294 0-4.452.867-6.075 2.44-2.972 2.881-3.357 8.506-.809 11.8l6.885 9.638 6.851-9.595c2.621-3.39 2.249-8.91-.776-11.842-1.623-1.574-3.78-2.44-6.075-2.44m0 26.429a.963.963 0 0 1-.785-.399L2.057 17.275c-3.101-4.01-2.64-10.653 1.008-14.19C5.05 1.161 7.686.101 10.491.101c2.805 0 5.442 1.06 7.425 2.983 3.649 3.537 4.104 10.188.975 14.233l-7.616 10.666a.963.963 0 0 1-.784.399" mask="url(#b)"/>
        </g>
        <path fill="#562359" d="M10.49 8.316c-1.29 0-2.338 1.017-2.338 2.267s1.048 2.266 2.338 2.266c1.288 0 2.337-1.017 2.337-2.266 0-1.25-1.049-2.267-2.337-2.267m0 6.384c-2.342 0-4.247-1.846-4.247-4.117 0-2.27 1.905-4.118 4.247-4.118 2.341 0 4.246 1.847 4.246 4.118 0 2.27-1.905 4.117-4.246 4.117"/>
    </g>
</svg>
