<?xml version="1.0" encoding="utf-8"?>
<!-- Generator: Adobe Illustrator 23.0.1, SVG Export Plug-In . SVG Version: 6.00 Build 0)  -->
<svg version="1.1" id="Layer_1" xmlns="http://www.w3.org/2000/svg" xmlns:xlink="http://www.w3.org/1999/xlink" x="0px" y="0px"
	 viewBox="0 0 257.5 240" style="enable-background:new 0 0 257.5 240;" xml:space="preserve">
<style type="text/css">
	.st0{stroke:#C96B86;stroke-width:2;stroke-miterlimit:10;}
</style>
<g>
	<path class="st0" d="M194.9,15.3c19.6,10.2,35,24.4,46,42.6c11,18.2,16.6,38.6,16.6,61.4c0,23-5.5,43.6-16.6,61.9
		c-11,18.3-26.4,32.7-46,43.1c-19.7,10.4-41.7,15.7-66.2,15.7c-24.5,0-46.6-5.2-66.2-15.5c-19.6-10.3-35-24.7-46-43.1
		C5.5,163,0,142.3,0,119.3c0-23,5.5-43.5,16.5-61.6c11-18.1,26.3-32.2,46-42.4C82.1,5.1,104.2,0,128.7,0
		C153.1,0,175.2,5.1,194.9,15.3z M104.7,71.7c-7.7,4.8-13.8,11.4-18.4,19.8c-4.6,8.4-6.9,17.8-6.9,28.2s2.3,19.9,6.9,28.4
		s10.7,15.2,18.4,20.1c7.7,4.9,16,7.3,24.9,7.3c8.9,0,17.1-2.4,24.4-7.3c7.3-4.9,13.1-11.6,17.4-20.1s6.4-18,6.4-28.4
		s-2.1-19.9-6.4-28.2c-4.2-8.4-10-15-17.4-19.8c-7.3-4.8-15.5-7.2-24.4-7.2C120.7,64.5,112.4,66.9,104.7,71.7z"/>
</g>
<g>
	<path d="M194.9,15.3c19.6,10.2,35,24.4,46,42.6c11,18.2,16.6,38.6,16.6,61.4c0,23-5.5,43.6-16.6,61.9c-11,18.3-26.4,32.7-46,43.1
		c-19.7,10.4-41.7,15.7-66.2,15.7c-24.5,0-46.6-5.2-66.2-15.5c-19.6-10.3-35-24.7-46-43.1C5.5,163,0,142.3,0,119.3
		c0-23,5.5-43.5,16.5-61.6c11-18.1,26.3-32.2,46-42.4C82.1,5.1,104.2,0,128.7,0C153.1,0,175.2,5.1,194.9,15.3z M104.7,71.7
		c-7.7,4.8-13.8,11.4-18.4,19.8c-4.6,8.4-6.9,17.8-6.9,28.2s2.3,19.9,6.9,28.4s10.7,15.2,18.4,20.1c7.7,4.9,16,7.3,24.9,7.3
		c8.9,0,17.1-2.4,24.4-7.3c7.3-4.9,13.1-11.6,17.4-20.1s6.4-18,6.4-28.4s-2.1-19.9-6.4-28.2c-4.2-8.4-10-15-17.4-19.8
		c-7.3-4.8-15.5-7.2-24.4-7.2C120.7,64.5,112.4,66.9,104.7,71.7z"/>
</g>
</svg>
