<svg xmlns="http://www.w3.org/2000/svg" width="101" height="58" viewBox="0 0 101 58">
    <g fill="none" fill-rule="evenodd">
        <path fill="#028283" d="M66.468 0L32 57.847h68.936z" opacity=".7"/>
        <path stroke="#FFF" stroke-width="2" d="M1 50l5.611-4.011a5 5 0 0 1 5.815 0l4.487 3.207a5 5 0 0 0 5.816 0l4.898-3.501a5 5 0 0 1 5.815 0l4.218 3.015a5 5 0 0 0 5.816 0l4.492-3.212a5 5 0 0 1 5.559-.171L61 50M1 42l5.611-4.011a5 5 0 0 1 5.815 0l4.487 3.207a5 5 0 0 0 5.816 0l4.898-3.501a5 5 0 0 1 5.815 0l4.218 3.015a5 5 0 0 0 5.816 0l4.492-3.212a5 5 0 0 1 5.559-.171L61 42M1 35l5.611-4.011a5 5 0 0 1 5.815 0l4.487 3.207a5 5 0 0 0 5.816 0l4.898-3.501a5 5 0 0 1 5.815 0l4.218 3.015a5 5 0 0 0 5.816 0l4.492-3.212a5 5 0 0 1 5.559-.171L61 35"/>
    </g>
</svg>
