<svg xmlns="http://www.w3.org/2000/svg" xmlns:xlink="http://www.w3.org/1999/xlink" viewBox="0 0 337 383">
    <defs>
        <path id="serv-a1" d="M.272.233H223.18v270H.272z"/>
    </defs>
    <g fill="none" fill-rule="evenodd">
        <path fill="#E9E9E9" d="M273.838 297.732H79.66c-7.101 0-12.91-5.886-12.91-13.08V40.813c0-7.195 5.809-13.082 12.91-13.082h194.178c7.101 0 12.911 5.887 12.911 13.082V284.65c0 7.195-5.81 13.081-12.91 13.081"/>
        <g transform="translate(30.895 .29)">
            <mask id="serv-b1" fill="#fff">
                <use xlink:href="#serv-a1"/>
            </mask>
            <path fill="#FDC149" d="M207.362 270.233H13.183c-7.1 0-12.91-5.886-12.91-13.081V13.315C.272 6.12 6.082.233 13.182.233h194.179c7.1 0 12.91 5.887 12.91 13.082v243.837c0 7.195-5.81 13.081-12.91 13.081" mask="url(#serv-b1)"/>
        </g>
        <path fill="#70CCEC" d="M332.602 227.59c-7.175-28.826-31.261-52.784-61.111-60.984-4.997-1.408-9.993-2.306-14.99-2.69-16.015-1.409-31.772 2.178-45.48 10.379-3.588 2.176-4.229 7.046-1.282 9.992l18.576 18.577 62.777 99.417c1.152 1.794 3.203 2.946 5.381 2.946h26.904c2.818 0 5.253-1.793 6.021-4.484 3.715-11.787 7.303-25.24 7.303-41.766 0-9.351-1.153-19.729-4.1-31.388"/>
        <path fill="#345287" d="M312.274 346.223l-4.356-6.533c-11.018-16.526-9.994-27.032-7.43-35.105l2.178-7.046c5.764-18.192 11.273-35.487 4.098-63.93-4.868-19.729-22.163-36.896-43.045-42.661-2.691-.77-5.382-1.281-8.073-1.667-15.885-1.921-31.259 3.332-42.918 15.12l-29.338 29.337c-7.558 7.431-7.558 19.73 0 27.161l7.431 7.432c7.304 7.302 19.602 8.326 28.57-1.283 5.124-5.508 11.53-10.633 20.498-7.43-3.716 5.637-8.328 10.506-13.708 14.605-17.68 13.197-28.185 34.207-28.185 56.37v19.217c0 3.589 2.818 6.407 6.406 6.407h102.492c5.125 0 8.199-5.766 5.38-9.994"/>
        <path fill="#70CCEC" d="M307.32 343.405H204.828c-10.633 0-19.218 8.582-19.218 19.218v13.238c0 3.588 2.82 6.406 6.406 6.406h128.115c3.588 0 6.406-2.818 6.406-6.406v-13.238c0-10.636-8.583-19.218-19.217-19.218"/>
        <path fill="#345287" d="M100 265c0 27.615-22.388 50-50 50S0 292.615 0 265s22.388-50 50-50 50 22.385 50 50"/>
        <path stroke="#FFF" stroke-linecap="round" stroke-linejoin="round" stroke-width="14" d="M50.428 224.14c0-10.029 3.89-23.963 13.8-29.946 8.621-5.205 19.662-6.433 28.704-9.028 22.049-6.328 5.39-36.715 28.287-40.861 13.065-2.365 16.97 4.533 29.312-3.346 11.749-7.5 8.533-15.845 13.593-27.007 3.412-7.528 12.81-8.972 23.035-11.714 10.4-2.789 19.305-11.156 24.206-20.553"/>
        <path stroke="#FFF" stroke-linecap="round" stroke-linejoin="round" stroke-width="14" d="M184.543 77.307h35.581l-3.491 34.46"/>
    </g>
</svg>
