<svg xmlns="http://www.w3.org/2000/svg" xmlns:xlink="http://www.w3.org/1999/xlink" width="133" height="95" viewBox="0 0 133 95">
    <defs>
        <path id="a" d="M.426.4h64.528v64.837H.426z"/>
    </defs>
    <g fill="none" fill-rule="evenodd">
        <path fill="#70CCEC" d="M5.623 65.941c-1.13.342-2.3-.225-2.615-1.267l-2.93-9.673c-.314-1.042.345-2.163 1.474-2.505l24.122-7.304c1.13-.342 2.3.225 2.616 1.267l2.93 9.673c.314 1.042-.345 2.163-1.474 2.505L5.623 65.941zM41.49 87.933c.343 1.13-.225 2.3-1.266 2.615l-14.334 4.34c-1.041.316-2.162-.344-2.504-1.473L16.08 69.293c-.342-1.13.225-2.3 1.267-2.616l14.334-4.34c1.042-.315 2.163.344 2.505 1.474l7.304 24.122z"/>
        <g transform="translate(45.174 .102)">
            <mask id="b" fill="#fff">
                <use xlink:href="#a"/>
            </mask>
            <path fill="#70CCEC" d="M63.192 65.218L7.596 56.392a1.522 1.522 0 0 1-1.218-1.062L.491 35.887a1.521 1.521 0 0 1 .521-1.64l43-33.525a1.521 1.521 0 0 1 2.393.764L64.889 63.28a1.522 1.522 0 0 1-1.697 1.939" mask="url(#b)"/>
        </g>
        <path fill="#FDC149" d="M89.245 62.357l-36.477-5.861a1.523 1.523 0 0 1-1.215-1.062L45.665 35.99a1.521 1.521 0 0 1 .522-1.641l28.086-21.852a1.521 1.521 0 0 1 2.391.76l14.28 47.156a1.522 1.522 0 0 1-1.699 1.944"/>
        <path fill="#FDC149" d="M59.084 59.844a5.39 5.39 0 0 1-3.596 6.72L18.527 77.756a5.39 5.39 0 0 1-6.72-3.597L2.138 42.228a5.39 5.39 0 0 1 3.597-6.72l36.96-11.191a5.39 5.39 0 0 1 6.72 3.595l9.67 31.932z"/>
        <path stroke="#70CCEC" stroke-linecap="round" stroke-width="6" d="M117.368 8.063l-8.256 7.16M126.497 23.583l-12.054 4.118M129.692 42.298l-12.668-.903"/>
    </g>
</svg>
