<svg width="48" height="48" viewBox="0 0 48 48" fill="none" xmlns="http://www.w3.org/2000/svg">
<g clip-path="url(#clip0)">
<path d="M47.3415 39.6943L27.2292 4.85889C26.4437 3.49878 25.2667 2.71875 24 2.71875C22.7329 2.71875 21.5559 3.49878 20.7707 4.85889L0.658413 39.6943C-0.126743 41.0541 -0.213901 42.4636 0.419644 43.5608C1.05282 44.658 2.31698 45.2871 3.88729 45.2871H44.1123C45.6829 45.2871 46.9467 44.658 47.5803 43.5608C48.2138 42.4633 48.1267 41.0541 47.3415 39.6943ZM45.1446 42.1542C45.0523 42.3135 44.6975 42.4742 44.1123 42.4742H3.88766C3.30209 42.4742 2.9476 42.3138 2.85568 42.1542C2.76339 41.9949 2.80185 41.6074 3.09445 41.1006L23.2068 6.26514C23.4994 5.7583 23.8158 5.53162 23.9996 5.53162C24.1838 5.53162 24.5006 5.7583 24.7932 6.26514L44.9055 41.1006C45.1981 41.6074 45.2365 41.9949 45.1446 42.1542Z" fill="#9D0706"/>
<path d="M23.9999 33.4355C21.9784 33.4355 20.3337 35.0802 20.3337 37.1017C20.3337 39.1228 21.9784 40.7675 23.9999 40.7675C26.0214 40.7675 27.666 39.1228 27.666 37.1017C27.666 35.0802 26.0214 33.4355 23.9999 33.4355ZM23.9999 37.9546C23.5293 37.9546 23.1466 37.5719 23.1466 37.1013C23.1466 36.6311 23.5293 36.2484 23.9999 36.2484C24.4705 36.2484 24.8532 36.6311 24.8532 37.1013C24.8532 37.5719 24.4705 37.9546 23.9999 37.9546Z" fill="#9D0706"/>
<path d="M23.9999 12.0449C21.9784 12.0449 20.3337 13.6896 20.3337 15.7111V28.0634C20.3337 30.0848 21.9784 31.7291 23.9999 31.7291C26.0214 31.7291 27.666 30.0848 27.666 28.0634V15.7111C27.666 13.6896 26.0214 12.0449 23.9999 12.0449ZM24.8532 28.0634C24.8532 28.5339 24.4705 28.9166 23.9999 28.9166C23.5293 28.9166 23.1466 28.5339 23.1466 28.0634V15.7111C23.1466 15.2405 23.5293 14.8578 23.9999 14.8578C24.4705 14.8578 24.8532 15.2405 24.8532 15.7111V28.0634Z" fill="#9D0706"/>
</g>
<defs>
<clipPath id="clip0">
<rect width="48" height="48" fill="white"/>
</clipPath>
</defs>
</svg>
