<svg width="53" height="34" viewBox="0 0 53 34" fill="none" xmlns="http://www.w3.org/2000/svg">
<path d="M43.0625 33.125H5.52083C2.47775 33.125 0 30.6472 0 27.6042V5.52083C0 2.47775 2.47775 0 5.52083 0H43.0625C46.1056 0 48.5833 2.47775 48.5833 5.52083V6.625H49.6676C51.4939 6.625 52.9801 8.11121 52.9801 9.9375V23.1875C52.9801 25.0138 51.4939 26.5 49.6676 26.5H48.5833V27.6042C48.5833 30.6472 46.1056 33.125 43.0625 33.125ZM5.52083 2.20833C3.69454 2.20833 2.20833 3.69454 2.20833 5.52083V27.6042C2.20833 29.4305 3.69454 30.9167 5.52083 30.9167H43.0625C44.8888 30.9167 46.375 29.4305 46.375 27.6042V25.3958C46.375 24.7863 46.8697 24.2917 47.4792 24.2917H49.6676C50.2771 24.2917 50.7718 23.797 50.7718 23.1875V9.9375C50.7718 9.328 50.2771 8.83333 49.6676 8.83333H47.4792C46.8697 8.83333 46.375 8.33867 46.375 7.72917V5.52083C46.375 3.69454 44.8888 2.20833 43.0625 2.20833H5.52083Z" fill="#9D0706"/>
<path d="M22.0826 27.6029C21.9567 27.6029 21.8308 27.5809 21.7094 27.5389C21.2236 27.3622 20.9232 26.8742 20.9873 26.3619L21.9368 18.7696L18.7613 18.7652C18.3461 18.7652 17.9685 18.5333 17.7808 18.1667C17.5931 17.7979 17.624 17.3563 17.8647 17.0184L25.7617 5.97894C26.062 5.56377 26.6097 5.40919 27.0823 5.60131C27.5571 5.79785 27.8331 6.29473 27.7514 6.80044L26.6936 13.2488L29.8029 13.2532C30.2071 13.2532 30.5758 13.474 30.7702 13.8274C30.9623 14.1807 30.9491 14.6091 30.7326 14.9492L23.0123 27.0928C22.8069 27.4174 22.4514 27.6029 22.0826 27.6029ZM20.9056 16.5613L23.189 16.5635C23.5048 16.5635 23.8051 16.7004 24.0149 16.9367C24.2247 17.173 24.3218 17.4888 24.2821 17.8046L23.7874 21.7575L27.7933 15.4571L25.3929 15.4549C25.0705 15.4549 24.7613 15.3114 24.5537 15.0662C24.3439 14.8189 24.2534 14.4921 24.3064 14.1741L24.8077 11.1133L20.9056 16.5613Z" fill="#9D0706"/>
</svg>
