<svg width="400" height="400" viewBox="0 0 400 400" fill="none" xmlns="http://www.w3.org/2000/svg">
<g clip-path="url(#clip0)">
<path d="M199.096 62.2205C196.685 63.9083 194.274 66.0783 191.863 68.7305C189.452 71.1416 187.402 73.6732 185.714 76.3254L189.693 80.3037C191.139 78.3748 192.707 76.446 194.394 74.5171C196.082 72.5882 197.89 70.9005 199.819 69.4538C201.748 70.9005 203.677 72.5882 205.606 74.5171C207.294 76.446 208.74 78.3748 209.946 80.3037L214.286 76.6871C212.839 74.0349 210.91 71.5032 208.499 69.0921C205.847 66.4399 203.195 64.1494 200.543 62.2205L199.819 61.8589C199.578 61.8589 199.337 61.9794 199.096 62.2205Z" fill="#828282"/>
</g>
<g clip-path="url(#clip1)">
<path d="M200.904 337.056C203.315 335.369 205.727 333.199 208.138 330.546C210.549 328.135 212.598 325.604 214.286 322.951L210.308 318.973C208.861 320.902 207.294 322.831 205.606 324.76C203.918 326.689 202.11 328.376 200.181 329.823C198.252 328.376 196.323 326.689 194.394 324.76C192.707 322.831 191.26 320.902 190.054 318.973L185.714 322.59C187.161 325.242 189.09 327.774 191.501 330.185C194.153 332.837 196.805 335.127 199.458 337.056L200.181 337.418C200.422 337.418 200.663 337.297 200.904 337.056Z" fill="#828282"/>
</g>
<g clip-path="url(#clip2)">
<path d="M63.6004 200.904C65.2882 203.315 67.4582 205.727 70.1104 208.138C72.5214 210.549 75.0531 212.598 77.7053 214.286L81.6836 210.308C79.7547 208.861 77.8258 207.294 75.897 205.606C73.9681 203.918 72.2803 202.11 70.8337 200.181C72.2803 198.252 73.9681 196.323 75.897 194.394C77.8258 192.707 79.7547 191.26 81.6836 190.054L78.067 185.714C75.4148 187.161 72.8831 189.09 70.472 191.501C67.8198 194.153 65.5293 196.805 63.6004 199.458L63.2387 200.181C63.2387 200.422 63.3593 200.663 63.6004 200.904Z" fill="#828282"/>
</g>
<g clip-path="url(#clip3)">
<path d="M338.436 199.095C336.749 196.684 334.579 194.273 331.927 191.862C329.515 189.451 326.984 187.402 324.332 185.714L320.353 189.692C322.282 191.139 324.211 192.706 326.14 194.394C328.069 196.082 329.757 197.89 331.203 199.819C329.757 201.748 328.069 203.676 326.14 205.605C324.211 207.293 322.282 208.74 320.353 209.945L323.97 214.285C326.622 212.839 329.154 210.91 331.565 208.499C334.217 205.846 336.508 203.194 338.436 200.542L338.798 199.819C338.798 199.578 338.678 199.337 338.436 199.095Z" fill="#828282"/>
</g>
<path d="M254.054 199.654C254.054 277.536 222.506 344.506 206.522 373.42C203.563 378.772 196.576 378.772 193.617 373.42C177.633 344.506 146.085 277.536 146.085 199.654C146.085 121.772 177.633 54.8016 193.617 25.8878C196.576 20.5352 203.563 20.5352 206.522 25.8878C222.506 54.8016 254.054 121.772 254.054 199.654Z" stroke="#7E7E7E" stroke-opacity="0.1" stroke-width="6"/>
<path d="M199.654 254.054C121.655 254.054 54.6002 222.178 25.7608 206.102C20.4403 203.136 20.4403 196.172 25.7608 193.206C54.6002 177.129 121.655 145.253 199.654 145.253C277.653 145.253 344.707 177.129 373.547 193.206C378.867 196.172 378.867 203.136 373.547 206.102C344.707 222.178 277.653 254.054 199.654 254.054Z" stroke="#7E7E7E" stroke-opacity="0.1" stroke-width="6"/>
<path d="M194.81 19.2271C197.808 16.6499 202.192 16.6499 205.19 19.2271C223.161 34.6758 268.044 73.7012 297.172 102.828C326.299 131.956 365.324 176.839 380.773 194.81C383.35 197.808 383.35 202.192 380.773 205.19C365.324 223.161 326.299 268.044 297.172 297.172C268.044 326.299 223.161 365.324 205.19 380.773C202.192 383.35 197.808 383.35 194.81 380.773C176.839 365.324 131.956 326.299 102.828 297.172C73.7012 268.044 34.6758 223.161 19.2271 205.19C16.6499 202.192 16.6499 197.808 19.2271 194.81C34.6758 176.839 73.7012 131.956 102.828 102.828C131.956 73.7012 176.839 34.6758 194.81 19.2271Z" stroke="#828282" stroke-width="8"/>
<path d="M128.022 198.158C128.934 199.534 129.638 200.974 130.134 202.478H126.966C126.758 201.95 126.526 201.446 126.27 200.966C126.014 200.486 125.742 200.038 125.454 199.622C125.006 198.95 124.526 198.35 124.014 197.822C123.518 197.294 123.054 196.918 122.622 196.694H121.254V202.478H118.134V187.07H123.39C124.414 187.07 125.286 187.182 126.006 187.406C126.726 187.63 127.302 187.95 127.734 188.366C128.182 188.766 128.502 189.27 128.694 189.878C128.902 190.47 129.006 191.134 129.006 191.87C129.006 193.022 128.734 193.942 128.19 194.63C127.646 195.302 126.974 195.774 126.174 196.046C126.542 196.334 126.87 196.646 127.158 196.982C127.446 197.318 127.734 197.71 128.022 198.158ZM121.254 194.318H123.27C123.782 194.318 124.198 194.254 124.518 194.126C124.854 193.982 125.11 193.798 125.286 193.574C125.478 193.334 125.606 193.07 125.67 192.782C125.734 192.478 125.766 192.166 125.766 191.846C125.766 191.366 125.702 190.974 125.574 190.67C125.462 190.35 125.294 190.102 125.07 189.926C124.862 189.734 124.606 189.606 124.302 189.542C123.998 189.478 123.67 189.446 123.318 189.446H121.254V194.318ZM138.286 202.742C137.102 202.742 136.03 202.558 135.07 202.19C134.126 201.806 133.318 201.262 132.646 200.558C131.974 199.854 131.454 198.998 131.086 197.99C130.718 196.982 130.534 195.846 130.534 194.582C130.534 193.462 130.718 192.43 131.086 191.486C131.454 190.542 131.974 189.726 132.646 189.038C133.318 188.334 134.126 187.79 135.07 187.406C136.03 187.006 137.102 186.806 138.286 186.806C139.486 186.806 140.566 187.006 141.526 187.406C142.486 187.79 143.302 188.326 143.974 189.014C144.646 189.702 145.166 190.526 145.534 191.486C145.902 192.43 146.086 193.462 146.086 194.582C146.086 195.718 145.918 196.782 145.582 197.774C145.262 198.766 144.774 199.63 144.118 200.366C143.478 201.102 142.67 201.686 141.694 202.118C140.718 202.534 139.582 202.742 138.286 202.742ZM138.286 189.422C136.878 189.422 135.766 189.878 134.95 190.79C134.15 191.702 133.75 192.958 133.75 194.558C133.75 195.342 133.854 196.078 134.062 196.766C134.27 197.438 134.566 198.022 134.95 198.518C135.334 199.014 135.806 199.406 136.366 199.694C136.926 199.982 137.566 200.126 138.286 200.126C139.118 200.126 139.822 199.974 140.398 199.67C140.99 199.35 141.462 198.934 141.814 198.422C142.182 197.91 142.446 197.318 142.606 196.646C142.782 195.974 142.87 195.278 142.87 194.558C142.87 193.87 142.766 193.214 142.558 192.59C142.366 191.966 142.07 191.422 141.67 190.958C141.286 190.478 140.806 190.102 140.23 189.83C139.67 189.558 139.022 189.422 138.286 189.422ZM157.919 189.734H153.431V202.478H150.311V189.734H145.823V187.07H157.919V189.734ZM166.105 187.07C166.697 188.222 167.241 189.374 167.737 190.526C168.233 191.678 168.641 192.662 168.961 193.478C169.585 195.078 170.153 196.654 170.665 198.206C171.193 199.758 171.625 201.182 171.961 202.478H168.913C168.753 201.934 168.577 201.366 168.385 200.774C168.209 200.182 168.017 199.574 167.809 198.95H160.921C160.697 199.574 160.497 200.182 160.321 200.774C160.145 201.366 159.977 201.934 159.817 202.478H156.769C157.105 201.182 157.529 199.758 158.041 198.206C158.569 196.654 159.145 195.078 159.769 193.478C160.089 192.662 160.497 191.678 160.993 190.526C161.489 189.374 162.033 188.222 162.625 187.07H166.105ZM166.921 196.382C166.793 196.078 166.673 195.774 166.561 195.47C166.449 195.166 166.329 194.862 166.201 194.558C165.897 193.774 165.585 192.99 165.265 192.206C164.945 191.422 164.641 190.702 164.353 190.046C164.049 190.718 163.745 191.446 163.441 192.23C163.137 192.998 162.833 193.774 162.529 194.558C162.401 194.862 162.281 195.166 162.169 195.47C162.057 195.774 161.937 196.078 161.809 196.382H166.921ZM182.763 189.734H178.275V202.478H175.155V189.734H170.667V187.07H182.763V189.734ZM187.277 189.71V193.046H192.485V195.662H187.277V199.862H193.901V202.478H184.157V187.07H193.397V189.71H187.277ZM211.419 190.598C211.067 190.326 210.611 190.11 210.051 189.95C209.507 189.774 208.931 189.686 208.323 189.686C207.555 189.686 206.867 189.814 206.259 190.07C205.667 190.31 205.163 190.646 204.747 191.078C204.347 191.51 204.043 192.03 203.835 192.638C203.627 193.23 203.523 193.886 203.523 194.606C203.523 195.406 203.627 196.134 203.835 196.79C204.043 197.43 204.347 197.99 204.747 198.47C205.147 198.934 205.643 199.294 206.235 199.55C206.843 199.79 207.539 199.91 208.323 199.91C208.963 199.91 209.579 199.814 210.171 199.622C210.779 199.414 211.291 199.11 211.707 198.71L213.603 200.654C212.931 201.31 212.131 201.822 211.203 202.19C210.291 202.558 209.259 202.742 208.107 202.742C206.939 202.742 205.875 202.558 204.915 202.19C203.955 201.822 203.131 201.294 202.443 200.606C201.771 199.902 201.243 199.046 200.859 198.038C200.491 197.03 200.307 195.886 200.307 194.606C200.307 193.486 200.499 192.454 200.883 191.51C201.267 190.55 201.803 189.726 202.491 189.038C203.179 188.334 204.003 187.79 204.963 187.406C205.939 187.006 207.011 186.806 208.179 186.806C209.107 186.806 209.987 186.942 210.819 187.214C211.667 187.486 212.427 187.878 213.099 188.39L211.419 190.598ZM223.761 187.07C224.353 188.222 224.897 189.374 225.393 190.526C225.889 191.678 226.297 192.662 226.617 193.478C227.241 195.078 227.809 196.654 228.321 198.206C228.849 199.758 229.281 201.182 229.617 202.478H226.569C226.409 201.934 226.233 201.366 226.041 200.774C225.865 200.182 225.673 199.574 225.465 198.95H218.577C218.353 199.574 218.153 200.182 217.977 200.774C217.801 201.366 217.633 201.934 217.473 202.478H214.425C214.761 201.182 215.185 199.758 215.697 198.206C216.225 196.654 216.801 195.078 217.425 193.478C217.745 192.662 218.153 191.678 218.649 190.526C219.145 189.374 219.689 188.222 220.281 187.07H223.761ZM224.577 196.382C224.449 196.078 224.329 195.774 224.217 195.47C224.105 195.166 223.985 194.862 223.857 194.558C223.553 193.774 223.241 192.99 222.921 192.206C222.601 191.422 222.297 190.702 222.009 190.046C221.705 190.718 221.401 191.446 221.097 192.23C220.793 192.998 220.489 193.774 220.185 194.558C220.057 194.862 219.937 195.166 219.825 195.47C219.713 195.774 219.593 196.078 219.465 196.382H224.577ZM248.481 187.07V202.478H245.361V190.43C244.641 191.534 243.977 192.702 243.369 193.934C243.001 194.654 242.665 195.374 242.361 196.094C242.057 196.798 241.777 197.51 241.521 198.23H237.993C237.721 197.51 237.433 196.798 237.129 196.094C236.825 195.374 236.497 194.654 236.145 193.934C235.505 192.654 234.833 191.486 234.129 190.43V202.478H231.009V187.07H235.401C236.009 187.886 236.593 188.758 237.153 189.686C237.729 190.614 238.273 191.59 238.785 192.614C238.961 192.966 239.129 193.318 239.289 193.67C239.449 194.006 239.601 194.35 239.745 194.702C239.905 194.35 240.065 194.006 240.225 193.67C240.385 193.318 240.553 192.966 240.729 192.614C241.241 191.59 241.777 190.614 242.337 189.686C242.913 188.758 243.497 187.886 244.089 187.07H248.481ZM254.566 189.71V193.046H259.774V195.662H254.566V199.862H261.19V202.478H251.446V187.07H260.686V189.71H254.566ZM273.147 198.158C274.059 199.534 274.763 200.974 275.259 202.478H272.091C271.883 201.95 271.651 201.446 271.395 200.966C271.139 200.486 270.867 200.038 270.579 199.622C270.131 198.95 269.651 198.35 269.139 197.822C268.643 197.294 268.179 196.918 267.747 196.694H266.379V202.478H263.259V187.07H268.515C269.539 187.07 270.411 187.182 271.131 187.406C271.851 187.63 272.427 187.95 272.859 188.366C273.307 188.766 273.627 189.27 273.819 189.878C274.027 190.47 274.131 191.134 274.131 191.87C274.131 193.022 273.859 193.942 273.315 194.63C272.771 195.302 272.099 195.774 271.299 196.046C271.667 196.334 271.995 196.646 272.283 196.982C272.571 197.318 272.859 197.71 273.147 198.158ZM266.379 194.318H268.395C268.907 194.318 269.323 194.254 269.643 194.126C269.979 193.982 270.235 193.798 270.411 193.574C270.603 193.334 270.731 193.07 270.795 192.782C270.859 192.478 270.891 192.166 270.891 191.846C270.891 191.366 270.827 190.974 270.699 190.67C270.587 190.35 270.419 190.102 270.195 189.926C269.987 189.734 269.731 189.606 269.427 189.542C269.123 189.478 268.795 189.446 268.443 189.446H266.379V194.318ZM284.347 187.07C284.939 188.222 285.483 189.374 285.979 190.526C286.475 191.678 286.883 192.662 287.203 193.478C287.827 195.078 288.395 196.654 288.907 198.206C289.435 199.758 289.867 201.182 290.203 202.478H287.155C286.995 201.934 286.819 201.366 286.627 200.774C286.451 200.182 286.259 199.574 286.051 198.95H279.163C278.939 199.574 278.739 200.182 278.563 200.774C278.387 201.366 278.219 201.934 278.059 202.478H275.011C275.347 201.182 275.771 199.758 276.283 198.206C276.811 196.654 277.387 195.078 278.011 193.478C278.331 192.662 278.739 191.678 279.235 190.526C279.731 189.374 280.275 188.222 280.867 187.07H284.347ZM285.163 196.382C285.035 196.078 284.915 195.774 284.803 195.47C284.691 195.166 284.571 194.862 284.443 194.558C284.139 193.774 283.827 192.99 283.507 192.206C283.187 191.422 282.883 190.702 282.595 190.046C282.291 190.718 281.987 191.446 281.683 192.23C281.379 192.998 281.075 193.774 280.771 194.558C280.643 194.862 280.523 195.166 280.411 195.47C280.299 195.774 280.179 196.078 280.051 196.382H285.163Z" fill="#828282"/>
<path d="M112.352 223.535V214.545H115.168C115.71 214.545 116.177 214.616 116.569 214.757C116.961 214.894 117.269 215.09 117.492 215.345C117.715 215.6 117.877 215.888 117.978 216.207C118.082 216.526 118.135 216.883 118.135 217.28C118.135 217.672 118.073 218.034 117.95 218.367C117.827 218.695 117.645 218.984 117.403 219.235C117.166 219.486 116.856 219.681 116.474 219.823C116.095 219.964 115.665 220.035 115.182 220.035H113.541V223.535H112.352ZM113.541 219.098H115.1C115.715 219.098 116.168 218.93 116.46 218.592C116.756 218.25 116.904 217.802 116.904 217.246C116.904 216.079 116.312 215.496 115.127 215.496H113.541V219.098ZM119.324 223.535V214.545H120.514V223.535H119.324ZM122.359 223.535V214.436H122.852C124.105 215.329 125.312 216.389 126.475 217.615C127.637 218.836 128.566 220.007 129.264 221.128V214.545H130.453V223.535H129.387C128.689 222.177 127.835 220.898 126.823 219.7C125.816 218.497 124.725 217.405 123.549 216.425V223.535H122.359ZM131.752 218.982C131.752 218.057 131.952 217.246 132.354 216.548C132.755 215.847 133.292 215.316 133.967 214.956C134.641 214.591 135.398 214.409 136.236 214.409C136.76 214.409 137.264 214.491 137.747 214.655C138.23 214.819 138.654 215.058 139.019 215.373L138.335 216.2C137.765 215.739 137.061 215.509 136.223 215.509C135.266 215.509 134.486 215.824 133.885 216.453C133.288 217.077 132.989 217.92 132.989 218.982C132.989 219.347 133.026 219.7 133.099 220.042C133.172 220.379 133.29 220.705 133.454 221.019C133.618 221.329 133.819 221.6 134.056 221.833C134.297 222.065 134.6 222.252 134.965 222.393C135.329 222.53 135.733 222.598 136.175 222.598C137.104 222.598 137.852 222.336 138.417 221.812L139.162 222.571C138.779 222.922 138.33 223.193 137.815 223.384C137.3 223.576 136.754 223.671 136.175 223.671C135.263 223.671 134.473 223.475 133.803 223.083C133.133 222.687 132.622 222.138 132.271 221.436C131.925 220.73 131.752 219.912 131.752 218.982ZM140.666 223.535V214.545H141.855V218.23H146.955V214.545H148.145V223.535H146.955V219.235H141.855V223.535H140.666ZM152.362 215.612V214.559H158.986V215.612H156.266V223.535H155.076V215.612H152.362ZM158.959 218.982C158.959 218.098 159.141 217.309 159.506 216.617C159.87 215.924 160.385 215.384 161.051 214.997C161.721 214.605 162.489 214.409 163.354 214.409C164.202 214.409 164.961 214.602 165.631 214.99C166.301 215.373 166.82 215.913 167.189 216.61C167.563 217.303 167.75 218.093 167.75 218.982C167.75 219.492 167.691 219.98 167.572 220.445C167.454 220.905 167.274 221.333 167.032 221.73C166.791 222.122 166.497 222.464 166.15 222.755C165.809 223.042 165.398 223.268 164.92 223.432C164.441 223.592 163.92 223.671 163.354 223.671C162.47 223.671 161.693 223.475 161.023 223.083C160.358 222.687 159.848 222.136 159.492 221.429C159.137 220.718 158.959 219.903 158.959 218.982ZM160.196 218.982C160.196 219.656 160.315 220.267 160.552 220.814C160.789 221.356 161.149 221.796 161.632 222.133C162.119 222.471 162.694 222.639 163.354 222.639C163.879 222.639 164.346 222.539 164.756 222.338C165.171 222.138 165.503 221.867 165.754 221.525C166.005 221.179 166.194 220.791 166.321 220.363C166.453 219.93 166.52 219.47 166.52 218.982C166.52 217.966 166.23 217.123 165.651 216.453C165.073 215.778 164.307 215.441 163.354 215.441C162.407 215.441 161.643 215.762 161.064 216.405C160.486 217.047 160.196 217.906 160.196 218.982ZM171.53 223.535V222.762C172.925 220.206 174.581 217.813 176.5 215.584H172.166V214.545H178.182V215.345C177.152 216.498 176.224 217.644 175.399 218.784C174.575 219.923 173.766 221.16 172.973 222.496H178.421V223.535H171.53ZM178.906 218.982C178.906 218.098 179.089 217.309 179.453 216.617C179.818 215.924 180.333 215.384 180.998 214.997C181.668 214.605 182.436 214.409 183.302 214.409C184.149 214.409 184.908 214.602 185.578 214.99C186.248 215.373 186.768 215.913 187.137 216.61C187.51 217.303 187.697 218.093 187.697 218.982C187.697 219.492 187.638 219.98 187.52 220.445C187.401 220.905 187.221 221.333 186.979 221.73C186.738 222.122 186.444 222.464 186.098 222.755C185.756 223.042 185.346 223.268 184.867 223.432C184.389 223.592 183.867 223.671 183.302 223.671C182.418 223.671 181.641 223.475 180.971 223.083C180.305 222.687 179.795 222.136 179.439 221.429C179.084 220.718 178.906 219.903 178.906 218.982ZM180.144 218.982C180.144 219.656 180.262 220.267 180.499 220.814C180.736 221.356 181.096 221.796 181.579 222.133C182.067 222.471 182.641 222.639 183.302 222.639C183.826 222.639 184.293 222.539 184.703 222.338C185.118 222.138 185.451 221.867 185.701 221.525C185.952 221.179 186.141 220.791 186.269 220.363C186.401 219.93 186.467 219.47 186.467 218.982C186.467 217.966 186.177 217.123 185.599 216.453C185.02 215.778 184.254 215.441 183.302 215.441C182.354 215.441 181.59 215.762 181.012 216.405C180.433 217.047 180.144 217.906 180.144 218.982ZM188.449 218.982C188.449 218.098 188.632 217.309 188.996 216.617C189.361 215.924 189.876 215.384 190.541 214.997C191.211 214.605 191.979 214.409 192.845 214.409C193.692 214.409 194.451 214.602 195.121 214.99C195.791 215.373 196.311 215.913 196.68 216.61C197.053 217.303 197.24 218.093 197.24 218.982C197.24 219.492 197.181 219.98 197.062 220.445C196.944 220.905 196.764 221.333 196.522 221.73C196.281 222.122 195.987 222.464 195.641 222.755C195.299 223.042 194.889 223.268 194.41 223.432C193.932 223.592 193.41 223.671 192.845 223.671C191.961 223.671 191.184 223.475 190.514 223.083C189.848 222.687 189.338 222.136 188.982 221.429C188.627 220.718 188.449 219.903 188.449 218.982ZM189.687 218.982C189.687 219.656 189.805 220.267 190.042 220.814C190.279 221.356 190.639 221.796 191.122 222.133C191.61 222.471 192.184 222.639 192.845 222.639C193.369 222.639 193.836 222.539 194.246 222.338C194.661 222.138 194.993 221.867 195.244 221.525C195.495 221.179 195.684 220.791 195.812 220.363C195.944 219.93 196.01 219.47 196.01 218.982C196.01 217.966 195.72 217.123 195.142 216.453C194.563 215.778 193.797 215.441 192.845 215.441C191.897 215.441 191.133 215.762 190.555 216.405C189.976 217.047 189.687 217.906 189.687 218.982ZM198.539 223.535V214.545H200.18C200.503 214.987 200.781 215.384 201.014 215.735C201.251 216.086 201.424 216.355 201.533 216.542C201.647 216.728 201.802 216.993 201.998 217.334C202.458 218.123 202.841 218.868 203.146 219.57C203.967 217.774 204.96 216.099 206.127 214.545H207.795V223.535H206.605V215.824C206.41 216.088 206.138 216.498 205.792 217.054C205.45 217.606 205.184 218.052 204.992 218.394C204.573 219.141 204.176 219.996 203.803 220.958H202.545C201.829 219.208 200.891 217.496 199.729 215.824V223.535H198.539ZM212.936 223.535V214.545H214.125V223.535H212.936ZM215.971 223.535V214.436H216.463C217.716 215.329 218.924 216.389 220.086 217.615C221.248 218.836 222.178 220.007 222.875 221.128V214.545H224.064V223.535H222.998C222.301 222.177 221.446 220.898 220.435 219.7C219.427 218.497 218.336 217.405 217.16 216.425V223.535H215.971ZM225.322 225.004L230.688 213.595L231.509 213.889L226.136 225.298L225.322 225.004ZM231.96 223.535V222.762C233.354 220.206 235.011 217.813 236.93 215.584H232.596V214.545H238.611V215.345C237.581 216.498 236.654 217.644 235.829 218.784C235.004 219.923 234.195 221.16 233.402 222.496H238.851V223.535H231.96ZM239.336 218.982C239.336 218.098 239.518 217.309 239.883 216.617C240.247 215.924 240.762 215.384 241.428 214.997C242.098 214.605 242.866 214.409 243.731 214.409C244.579 214.409 245.338 214.602 246.008 214.99C246.678 215.373 247.197 215.913 247.566 216.61C247.94 217.303 248.127 218.093 248.127 218.982C248.127 219.492 248.068 219.98 247.949 220.445C247.831 220.905 247.651 221.333 247.409 221.73C247.168 222.122 246.874 222.464 246.527 222.755C246.186 223.042 245.775 223.268 245.297 223.432C244.818 223.592 244.297 223.671 243.731 223.671C242.847 223.671 242.07 223.475 241.4 223.083C240.735 222.687 240.225 222.136 239.869 221.429C239.514 220.718 239.336 219.903 239.336 218.982ZM240.573 218.982C240.573 219.656 240.692 220.267 240.929 220.814C241.166 221.356 241.526 221.796 242.009 222.133C242.496 222.471 243.071 222.639 243.731 222.639C244.256 222.639 244.723 222.539 245.133 222.338C245.548 222.138 245.88 221.867 246.131 221.525C246.382 221.179 246.571 220.791 246.698 220.363C246.83 219.93 246.896 219.47 246.896 218.982C246.896 217.966 246.607 217.123 246.028 216.453C245.45 215.778 244.684 215.441 243.731 215.441C242.784 215.441 242.02 215.762 241.441 216.405C240.863 217.047 240.573 217.906 240.573 218.982ZM248.879 218.982C248.879 218.098 249.061 217.309 249.426 216.617C249.79 215.924 250.305 215.384 250.971 214.997C251.641 214.605 252.409 214.409 253.274 214.409C254.122 214.409 254.881 214.602 255.551 214.99C256.221 215.373 256.74 215.913 257.109 216.61C257.483 217.303 257.67 218.093 257.67 218.982C257.67 219.492 257.611 219.98 257.492 220.445C257.374 220.905 257.194 221.333 256.952 221.73C256.711 222.122 256.417 222.464 256.07 222.755C255.729 223.042 255.318 223.268 254.84 223.432C254.361 223.592 253.84 223.671 253.274 223.671C252.39 223.671 251.613 223.475 250.943 223.083C250.278 222.687 249.768 222.136 249.412 221.429C249.057 220.718 248.879 219.903 248.879 218.982ZM250.116 218.982C250.116 219.656 250.235 220.267 250.472 220.814C250.709 221.356 251.069 221.796 251.552 222.133C252.039 222.471 252.614 222.639 253.274 222.639C253.799 222.639 254.266 222.539 254.676 222.338C255.09 222.138 255.423 221.867 255.674 221.525C255.924 221.179 256.114 220.791 256.241 220.363C256.373 219.93 256.439 219.47 256.439 218.982C256.439 217.966 256.15 217.123 255.571 216.453C254.993 215.778 254.227 215.441 253.274 215.441C252.326 215.441 251.563 215.762 250.984 216.405C250.406 217.047 250.116 217.906 250.116 218.982ZM258.969 223.535V214.545H260.609C260.933 214.987 261.211 215.384 261.443 215.735C261.68 216.086 261.854 216.355 261.963 216.542C262.077 216.728 262.232 216.993 262.428 217.334C262.888 218.123 263.271 218.868 263.576 219.57C264.396 217.774 265.39 216.099 266.557 214.545H268.225V223.535H267.035V215.824C266.839 216.088 266.568 216.498 266.222 217.054C265.88 217.606 265.613 218.052 265.422 218.394C265.003 219.141 264.606 219.996 264.232 220.958H262.975C262.259 219.208 261.32 217.496 260.158 215.824V223.535H258.969ZM272.818 218.982C272.818 218.098 273.001 217.309 273.365 216.617C273.73 215.924 274.245 215.384 274.91 214.997C275.58 214.605 276.348 214.409 277.214 214.409C278.062 214.409 278.82 214.602 279.49 214.99C280.16 215.373 280.68 215.913 281.049 216.61C281.423 217.303 281.609 218.093 281.609 218.982C281.609 219.492 281.55 219.98 281.432 220.445C281.313 220.905 281.133 221.333 280.892 221.73C280.65 222.122 280.356 222.464 280.01 222.755C279.668 223.042 279.258 223.268 278.779 223.432C278.301 223.592 277.779 223.671 277.214 223.671C276.33 223.671 275.553 223.475 274.883 223.083C274.217 222.687 273.707 222.136 273.352 221.429C272.996 220.718 272.818 219.903 272.818 218.982ZM274.056 218.982C274.056 219.656 274.174 220.267 274.411 220.814C274.648 221.356 275.008 221.796 275.491 222.133C275.979 222.471 276.553 222.639 277.214 222.639C277.738 222.639 278.205 222.539 278.615 222.338C279.03 222.138 279.363 221.867 279.613 221.525C279.864 221.179 280.053 220.791 280.181 220.363C280.313 219.93 280.379 219.47 280.379 218.982C280.379 217.966 280.09 217.123 279.511 216.453C278.932 215.778 278.166 215.441 277.214 215.441C276.266 215.441 275.503 215.762 274.924 216.405C274.345 217.047 274.056 217.906 274.056 218.982ZM282.826 220.103V214.545H284.016V219.877C284.016 220.219 284.029 220.518 284.057 220.773C284.089 221.028 284.15 221.283 284.241 221.539C284.337 221.789 284.462 221.994 284.617 222.154C284.772 222.313 284.982 222.443 285.246 222.543C285.515 222.644 285.832 222.694 286.196 222.694C286.556 222.694 286.868 222.648 287.133 222.557C287.397 222.461 287.609 222.336 287.769 222.181C287.928 222.022 288.056 221.819 288.151 221.573C288.247 221.327 288.311 221.071 288.343 220.807C288.379 220.538 288.397 220.228 288.397 219.877V214.545H289.587V220.103C289.587 220.495 289.56 220.853 289.505 221.176C289.455 221.5 289.354 221.821 289.204 222.14C289.054 222.459 288.855 222.728 288.609 222.947C288.363 223.161 288.035 223.336 287.625 223.473C287.219 223.605 286.743 223.671 286.196 223.671C284.907 223.671 283.988 223.309 283.441 222.584C283.186 222.256 283.02 221.901 282.942 221.518C282.865 221.135 282.826 220.664 282.826 220.103ZM290.421 215.612V214.559H297.045V215.612H294.324V223.535H293.135V215.612H290.421Z" fill="#828282"/>
<defs>
<clipPath id="clip0">
<rect width="28.5714" height="28.5714" fill="white" transform="translate(185.714 85.3672) rotate(-90)"/>
</clipPath>
<clipPath id="clip1">
<rect width="28.5714" height="28.5714" fill="white" transform="translate(214.286 313.91) rotate(90)"/>
</clipPath>
<clipPath id="clip2">
<rect width="28.5714" height="28.5714" fill="white" transform="translate(86.7471 214.286) rotate(180)"/>
</clipPath>
<clipPath id="clip3">
<rect width="28.5715" height="28.5714" fill="white" transform="translate(315.29 185.714)"/>
</clipPath>
</defs>
</svg>
