<svg width="15" height="16" viewBox="0 0 15 16" fill="none" xmlns="http://www.w3.org/2000/svg">
<path d="M9.1567 1.77783H3.29005C3.11078 1.77783 2.96411 1.92005 2.96411 2.09389V6.20252C2.96411 6.37636 3.11078 6.51858 3.29005 6.51858H9.1567C9.33597 6.51858 9.48264 6.37636 9.48264 6.20252V2.09389C9.48264 1.92005 9.33597 1.77783 9.1567 1.77783ZM8.8308 5.88646H3.61598V2.40995H8.8308V5.88646Z" fill="#616161"/>
<path d="M11.5226 15.4075H0.329228C0.148148 15.4075 0 15.5408 0 15.7038C0 15.8667 0.148148 16.0001 0.329228 16.0001H11.5226C11.7037 16.0001 11.8519 15.8667 11.8519 15.7038C11.8518 15.5408 11.7037 15.4075 11.5226 15.4075Z" fill="#616161"/>
<path d="M14.2994 3.85517L13.2822 2.69303C13.2423 2.64695 13.1858 2.6206 13.126 2.6239C12.7636 2.63047 12.6539 2.98276 12.8268 3.18029L13.7942 4.28647C14.0202 4.54326 14.1499 4.70128 14.1499 4.93832H13.219C12.9996 4.93832 12.8201 5.1161 12.8201 5.33338V6.9136C12.8201 7.27573 13.1193 7.57203 13.485 7.57203H14.1498V12.5103C14.1498 12.6914 14.0002 12.8396 13.8174 12.8396H13.0827C12.8899 12.8396 12.8201 12.6618 12.8201 12.5103V8.21401C12.8201 7.63459 12.2682 7.2428 11.753 7.2428H11.1579V1.64609C11.158 0.737441 10.4133 0 9.49582 0H2.84721C1.92969 0 1.18506 0.737441 1.18506 1.64609V14.4626C1.18506 14.7951 1.45433 14.7984 1.90311 14.8083C2.1458 14.8116 2.48154 14.8148 2.84721 14.8148H9.49582C9.86482 14.8148 10.1973 14.8115 10.4399 14.8083C10.8887 14.8017 11.158 14.7951 11.158 14.4626V7.90126H11.753C11.9558 7.90126 12.1553 8.05598 12.1553 8.21401V12.5103C12.1553 13.0733 12.5542 13.498 13.0827 13.498H13.8174C14.3693 13.498 14.8147 13.0568 14.8147 12.5103V4.93829C14.8147 4.44446 14.5421 4.13171 14.2994 3.85517ZM10.4931 14.1498C10.2737 14.1531 9.93797 14.1564 9.49582 14.1564H2.84721C2.40506 14.1564 2.06932 14.1531 1.84991 14.1498V1.64609C1.84991 1.09957 2.29536 0.658428 2.84721 0.658428H9.49582C10.0477 0.658428 10.4931 1.09957 10.4931 1.64609V14.1498ZM14.1499 6.9136H13.485V5.59672H14.1499V6.9136Z" fill="#616161"/>
</svg>
