<svg width="38" height="42" viewBox="0 0 38 42" fill="none" xmlns="http://www.w3.org/2000/svg">
<g clip-path="url(#clip0)">
<path d="M32.7799 20.5798C32.7325 23.6025 31.4875 26.4829 29.3182 28.5884C27.1489 30.6939 24.2327 31.8525 21.2099 31.8098C18.1871 31.8525 15.2709 30.6939 13.1016 28.5884C10.9323 26.4829 9.68728 23.6025 9.63989 20.5798C9.68728 17.5571 10.9323 14.6767 13.1016 12.5711C15.2709 10.4656 18.1871 9.30701 21.2099 9.34978C24.2327 9.30701 27.1489 10.4656 29.3182 12.5711C31.4875 14.6767 32.7325 17.5571 32.7799 20.5798Z" fill="#F37032"/>
<path d="M21.21 41.1598C9.51 41.1598 0 31.9298 0 20.5798C0 9.22982 9.51 -0.000176196 21.21 -0.000176196C24.0331 -0.0154223 26.8314 0.528083 29.4435 1.59903C32.0557 2.66998 34.4301 4.24719 36.43 6.23982C36.6399 6.44391 36.8067 6.688 36.9206 6.95766C37.0345 7.22733 37.0932 7.51709 37.0932 7.80982C37.0932 8.10256 37.0345 8.39232 36.9206 8.66198C36.8067 8.93165 36.6399 9.17574 36.43 9.37982C35.9895 9.79055 35.4071 10.0148 34.8049 10.0054C34.2027 9.99612 33.6276 9.75399 33.2 9.32982C31.6327 7.76405 29.7704 6.52474 27.7209 5.68364C25.6714 4.84255 23.4754 4.41638 21.26 4.42982C19.1036 4.39407 16.9613 4.78348 14.9555 5.5758C12.9496 6.36812 11.1195 7.54783 9.56959 9.04755C8.01972 10.5473 6.78047 12.3376 5.92263 14.3164C5.0648 16.2951 4.60517 18.4234 4.57 20.5798C4.63845 24.9269 6.42918 29.0692 9.54902 32.0972C12.6689 35.1251 16.8628 36.7913 21.21 36.7298C23.4254 36.7433 25.6214 36.3171 27.6709 35.476C29.7204 34.6349 31.5827 33.3956 33.15 31.8298C33.584 31.4124 34.1628 31.1793 34.765 31.1793C35.3672 31.1793 35.946 31.4124 36.38 31.8298C36.5908 32.0323 36.7586 32.2753 36.8731 32.5443C36.9877 32.8132 37.0468 33.1025 37.0468 33.3948C37.0468 33.6871 36.9877 33.9765 36.8731 34.2454C36.7586 34.5143 36.5908 34.7573 36.38 34.9598C34.3841 36.941 32.0165 38.5086 29.4133 39.5726C26.81 40.6365 24.0222 41.1759 21.21 41.1598Z" fill="white"/>
<path d="M27.75 22.5396L23.81 16.6596C23.537 16.2086 23.1568 15.8321 22.7032 15.5634C22.2496 15.2947 21.7367 15.1423 21.21 15.1196C20.6831 15.1414 20.1698 15.2935 19.7161 15.5622C19.2623 15.831 18.8823 16.208 18.61 16.6596L14.67 22.5396C14.5147 22.7752 14.4522 23.0599 14.4947 23.3388C14.5372 23.6178 14.6816 23.871 14.9 24.0496C15.0772 24.1872 15.2956 24.2612 15.52 24.2596C15.6873 24.2594 15.8519 24.2171 15.9986 24.1367C16.1454 24.0564 16.2696 23.9405 16.36 23.7996L17.03 22.7996C17.1375 22.6631 17.2763 22.5546 17.4348 22.4832C17.5932 22.4118 17.7665 22.3797 17.94 22.3896H21.73C21.9793 22.3671 22.2111 22.2519 22.3796 22.0667C22.5481 21.8816 22.641 21.64 22.64 21.3896C22.644 21.2671 22.6235 21.1451 22.5797 21.0307C22.5358 20.9162 22.4696 20.8117 22.3848 20.7232C22.3001 20.6347 22.1985 20.564 22.086 20.5153C21.9736 20.4666 21.8525 20.4409 21.73 20.4396H18.59L20.3 17.8796C20.3898 17.7101 20.5196 17.565 20.6782 17.457C20.8368 17.3489 21.0193 17.2812 21.21 17.2596C21.4006 17.2812 21.5832 17.3489 21.7417 17.457C21.9003 17.565 22.0301 17.7101 22.12 17.8796L26.06 23.7596C26.1512 23.9019 26.2771 24.0187 26.4257 24.0991C26.5744 24.1796 26.741 24.221 26.91 24.2196C27.1309 24.2189 27.3454 24.1451 27.52 24.0096C27.7392 23.8314 27.8852 23.5786 27.93 23.2996C27.958 23.0332 27.8945 22.7652 27.75 22.5396Z" fill="white"/>
</g>
<defs>
<clipPath id="clip0">
<rect width="37.07" height="41.16" fill="white"/>
</clipPath>
</defs>
</svg>
