<svg width="14" height="14" viewBox="0 0 14 14" fill="none" xmlns="http://www.w3.org/2000/svg">
<path d="M13 7C13.5523 7 14.0073 6.55002 13.9287 6.00336C13.7514 4.77041 13.2471 3.60062 12.4601 2.61961C11.4633 1.37721 10.0727 0.511885 8.51777 0.166526C6.96286 -0.178834 5.33665 0.0164254 3.90769 0.720061C2.47873 1.4237 1.33247 2.59363 0.65818 4.03667C-0.0161072 5.47971 -0.178094 7.10957 0.198969 8.6571C0.576032 10.2046 1.46959 11.5773 2.7321 12.5484C3.99462 13.5196 5.55057 14.0311 7.14305 13.9985C8.40048 13.9728 9.6213 13.6091 10.6808 12.9541C11.1506 12.6637 11.2038 12.026 10.8495 11.6023L10.5772 11.2768C10.2229 10.8532 9.5952 10.8087 9.10481 11.0628C8.48631 11.3832 7.79872 11.5603 7.0935 11.5747C6.05257 11.5959 5.0355 11.2616 4.21024 10.6268C3.38499 9.992 2.8009 9.09474 2.55443 8.08318C2.30796 7.07162 2.41384 6.00625 2.8546 5.06299C3.29535 4.11973 4.04462 3.35499 4.97868 2.89505C5.91274 2.43511 6.97572 2.30748 7.99211 2.53322C9.0085 2.75897 9.9175 3.3246 10.569 4.13671C11.0104 4.6869 11.3157 5.32792 11.4668 6.00792C11.5865 6.54706 12.0233 7 12.5756 7H13Z" fill="#9D0605"/>
</svg>
