<svg width="165" height="117" viewBox="0 0 165 117" fill="none" xmlns="http://www.w3.org/2000/svg">
<path d="M73.7327 116.715C82.16 116.715 88.9917 109.884 88.9917 101.456C88.9917 93.029 82.16 86.1973 73.7327 86.1973C65.3053 86.1973 58.4736 93.029 58.4736 101.456C58.4736 109.884 65.3053 116.715 73.7327 116.715Z" fill="white"/>
<path d="M107.406 52.6772C104.385 50.7077 101.172 49.0058 97.8069 47.5908C90.1774 44.3593 82.0698 42.7148 73.7137 42.7148C65.1853 42.7148 56.9058 44.4167 49.1233 47.8012C41.6086 51.0519 34.916 55.6984 29.2178 61.607L48.4732 80.2123C55.1465 73.3094 64.1147 69.5042 73.7137 69.5042C83.0833 69.5042 91.8983 73.1564 98.5335 79.7916L103.39 74.9349L94.2694 65.8137L107.406 52.6772Z" fill="white"/>
<path d="M73.7329 27.0745C94.3079 27.0745 113.678 35.0482 128.287 49.5232L147.122 30.4972C137.561 21.0321 126.451 13.5938 114.099 8.3927C101.306 3.01954 87.7109 0.285156 73.7329 0.285156C59.6594 0.285156 46.0065 3.03866 33.1377 8.48831C20.7087 13.7467 9.56079 21.2615 0 30.8414L18.9304 49.7718C33.5584 35.1436 53.0242 27.0745 73.7329 27.0745Z" fill="white"/>
<path d="M117.942 52.9648L105.111 65.7952L122.225 82.909L105.111 100.023L117.942 112.854L135.056 95.7398L152.17 112.854L165 100.023L147.886 82.909L165 65.7952L152.17 52.9648L135.056 70.0786L117.942 52.9648Z" fill="white"/>
</svg>
