<svg width="15" height="16" viewBox="0 0 15 16" fill="none" xmlns="http://www.w3.org/2000/svg">
<path d="M1.34943 12.9489V3.05117C0.836905 2.8694 0.46875 2.37994 0.46875 1.80589C0.46875 1.07747 1.06136 0.484863 1.78977 0.484863C2.51818 0.484863 3.1108 1.07747 3.1108 1.80589C3.1108 2.37994 2.74264 2.8694 2.23011 3.05117V7.53032H5.3125V3.05117C4.79997 2.8694 4.43182 2.37994 4.43182 1.80589C4.43182 1.07747 5.02443 0.484863 5.75284 0.484863C6.48125 0.484863 7.07386 1.07747 7.07386 1.80589C7.07386 2.37994 6.70571 2.8694 6.19318 3.05117V7.53032H9.27557V3.05117C8.76304 2.8694 8.39489 2.37994 8.39489 1.80589C8.39489 1.07747 8.9875 0.484863 9.71591 0.484863C10.4443 0.484863 11.0369 1.07747 11.0369 1.80589C11.0369 2.37994 10.6688 2.8694 10.1562 3.05117V7.53032H12.7983C13.0411 7.53032 13.2386 7.33278 13.2386 7.08998V3.05117C12.7261 2.8694 12.358 2.37994 12.358 1.80589C12.358 1.07747 12.9506 0.484863 13.679 0.484863C14.4074 0.484863 15 1.07747 15 1.80589C15 2.37994 14.6318 2.8694 14.1193 3.05117V7.08998C14.1193 7.81839 13.5267 8.411 12.7983 8.411H10.1562V12.9489C10.6688 13.1306 11.0369 13.6201 11.0369 14.1941C11.0369 14.9226 10.4443 15.5152 9.71591 15.5152C8.9875 15.5152 8.39489 14.9226 8.39489 14.1941C8.39489 13.6201 8.76304 13.1306 9.27557 12.9489V8.411H6.19318V12.9489C6.70571 13.1306 7.07386 13.6201 7.07386 14.1941C7.07386 14.9226 6.48125 15.5152 5.75284 15.5152C5.02443 15.5152 4.43182 14.9226 4.43182 14.1941C4.43182 13.6201 4.79997 13.1306 5.3125 12.9489V8.411H2.23011V12.9489C2.74264 13.1306 3.1108 13.6201 3.1108 14.1941C3.1108 14.9226 2.51818 15.5152 1.78977 15.5152C1.06136 15.5152 0.46875 14.9226 0.46875 14.1941C0.46875 13.6201 0.836905 13.1306 1.34943 12.9489ZM13.679 2.24623C13.9218 2.24623 14.1193 2.04869 14.1193 1.80589C14.1193 1.56308 13.9218 1.36555 13.679 1.36555C13.4362 1.36555 13.2386 1.56308 13.2386 1.80589C13.2386 2.04869 13.4362 2.24623 13.679 2.24623ZM9.71591 14.6345C9.95871 14.6345 10.1562 14.4369 10.1562 14.1941C10.1562 13.9513 9.95871 13.7538 9.71591 13.7538C9.4731 13.7538 9.27557 13.9513 9.27557 14.1941C9.27557 14.4369 9.4731 14.6345 9.71591 14.6345ZM9.71591 2.24623C9.95871 2.24623 10.1562 2.04869 10.1562 1.80589C10.1562 1.56308 9.95871 1.36555 9.71591 1.36555C9.4731 1.36555 9.27557 1.56308 9.27557 1.80589C9.27557 2.04869 9.4731 2.24623 9.71591 2.24623ZM5.75284 14.6345C5.99564 14.6345 6.19318 14.4369 6.19318 14.1941C6.19318 13.9513 5.99564 13.7538 5.75284 13.7538C5.51004 13.7538 5.3125 13.9513 5.3125 14.1941C5.3125 14.4369 5.51004 14.6345 5.75284 14.6345ZM5.75284 2.24623C5.99564 2.24623 6.19318 2.04869 6.19318 1.80589C6.19318 1.56308 5.99564 1.36555 5.75284 1.36555C5.51004 1.36555 5.3125 1.56308 5.3125 1.80589C5.3125 2.04869 5.51004 2.24623 5.75284 2.24623ZM1.78977 1.36555C1.54697 1.36555 1.34943 1.56308 1.34943 1.80589C1.34943 2.04869 1.54697 2.24623 1.78977 2.24623C2.03258 2.24623 2.23011 2.04869 2.23011 1.80589C2.23011 1.56308 2.03258 1.36555 1.78977 1.36555ZM1.78977 14.6345C2.03258 14.6345 2.23011 14.4369 2.23011 14.1941C2.23011 13.9513 2.03258 13.7538 1.78977 13.7538C1.54697 13.7538 1.34943 13.9513 1.34943 14.1941C1.34943 14.4369 1.54697 14.6345 1.78977 14.6345Z" fill="#616161"/>
</svg>
