<svg width="30" height="30" viewBox="0 0 30 30" fill="none" xmlns="http://www.w3.org/2000/svg">
<path d="M22.7879 5.80957H8.59152C8.26484 5.80957 8 6.07441 8 6.40109V25.4085C8 25.7352 8.26484 26 8.59152 26H22.7879C23.1146 26 23.3795 25.7352 23.3795 25.4085V6.40109C23.3795 6.07441 23.1146 5.80957 22.7879 5.80957ZM13.3235 6.99261H18.0559V7.58412C18.0559 7.91029 17.8014 8.17564 17.4887 8.17564H13.8907C13.5779 8.17564 13.3235 7.91029 13.3235 7.58412V6.99261H13.3235ZM22.1964 24.817H9.18304V6.99261H12.1405V7.58412C12.1405 8.56261 12.9256 9.35868 13.8908 9.35868H17.4887C18.4538 9.35868 19.2389 8.56261 19.2389 7.58412V6.99261H22.1964V24.817Z" fill="#3B3938"/>
<path d="M20.4212 17.0093H10.957C10.6303 17.0093 10.3655 17.2741 10.3655 17.6008C10.3655 17.9275 10.6303 18.1923 10.957 18.1923H20.4212C20.7479 18.1923 21.0127 17.9275 21.0127 17.6008C21.0127 17.2741 20.7479 17.0093 20.4212 17.0093Z" fill="#3B3938"/>
<path d="M20.4212 14.2222H10.957C10.6303 14.2222 10.3655 14.487 10.3655 14.8137C10.3655 15.1404 10.6303 15.4052 10.957 15.4052H20.4212C20.7479 15.4052 21.0127 15.1404 21.0127 14.8137C21.0127 14.487 20.7479 14.2222 20.4212 14.2222Z" fill="#3B3938"/>
<path d="M20.4212 19.375H10.957C10.6303 19.375 10.3655 19.6398 10.3655 19.9665C10.3655 20.2932 10.6303 20.558 10.957 20.558H20.4212C20.7479 20.558 21.0127 20.2932 21.0127 19.9665C21.0127 19.6398 20.7479 19.375 20.4212 19.375Z" fill="#3B3938"/>
<path d="M15.0974 21.7417H10.957C10.6303 21.7417 10.3655 22.0065 10.3655 22.3332C10.3655 22.6599 10.6303 22.9247 10.957 22.9247H15.0974C15.4241 22.9247 15.6889 22.6599 15.6889 22.3332C15.6889 22.0065 15.4241 21.7417 15.0974 21.7417Z" fill="#3B3938"/>
</svg>
