<svg width="10" height="14" viewBox="0 0 10 14" fill="none" xmlns="http://www.w3.org/2000/svg">
<path d="M2.71427 3.6399V2.5199C2.71427 2.22286 2.83468 1.93798 3.04901 1.72794C3.26333 1.5179 3.55402 1.3999 3.85713 1.3999H6.14284C6.44595 1.3999 6.73664 1.5179 6.95096 1.72794C7.16529 1.93798 7.2857 2.22286 7.2857 2.5199V3.6399M8.99998 3.6399V11.4799C8.99998 11.7769 8.87958 12.0618 8.66525 12.2719C8.45092 12.4819 8.16023 12.5999 7.85713 12.5999H2.14284C1.83974 12.5999 1.54905 12.4819 1.33472 12.2719C1.12039 12.0618 0.999984 11.7769 0.999984 11.4799V3.6399H8.99998Z" stroke="#9D0605" stroke-width="1.5" stroke-linecap="round" stroke-linejoin="round"/>
</svg>
