<svg width="46" height="46" viewBox="0 0 46 46" fill="none" xmlns="http://www.w3.org/2000/svg">
<rect width="46" height="46" fill="#3B3938"/>
<path d="M17.9167 36C17.6293 36 17.3538 35.8771 17.1506 35.6583C16.9475 35.4395 16.8333 35.1428 16.8333 34.8333C16.8302 32.0496 15.8019 29.3809 13.9741 27.4125C12.1463 25.4441 9.66823 24.3367 7.08333 24.3333C6.79602 24.3333 6.52047 24.2104 6.3173 23.9916C6.11414 23.7728 6 23.4761 6 23.1667C6 22.8572 6.11414 22.5605 6.3173 22.3417C6.52047 22.1229 6.79602 22 7.08333 22C10.2427 22.004 13.2716 23.3574 15.5056 25.7632C17.7396 28.1691 18.9963 31.431 19 34.8333C19 35.1428 18.8859 35.4395 18.6827 35.6583C18.4795 35.8771 18.204 36 17.9167 36Z" fill="white"/>
<path d="M13.875 36C13.5766 36 13.2905 35.8683 13.0795 35.6339C12.8685 35.3995 12.75 35.0815 12.75 34.75C12.7482 33.093 12.155 31.5044 11.1005 30.3328C10.046 29.1611 8.61629 28.502 7.125 28.5C6.82663 28.5 6.54048 28.3683 6.3295 28.1339C6.11853 27.8995 6 27.5815 6 27.25C6 26.9185 6.11853 26.6005 6.3295 26.3661C6.54048 26.1317 6.82663 26 7.125 26C9.21285 26.0026 11.2145 26.9254 12.6908 28.5657C14.1672 30.2061 14.9976 32.4302 15 34.75C15 35.0815 14.8815 35.3995 14.6705 35.6339C14.4595 35.8683 14.1734 36 13.875 36Z" fill="white"/>
<path d="M9 36C8.73478 36 8.48043 35.8683 8.29289 35.6339C8.10536 35.3995 8 35.0815 8 34.75C8 34.4185 7.89464 34.1005 7.70711 33.8661C7.51957 33.6317 7.26522 33.5 7 33.5C6.73478 33.5 6.48043 33.3683 6.29289 33.1339C6.10536 32.8995 6 32.5815 6 32.25C6 31.9185 6.10536 31.6005 6.29289 31.3661C6.48043 31.1317 6.73478 31 7 31C7.79565 31 8.55871 31.3951 9.12132 32.0983C9.68393 32.8016 10 33.7554 10 34.75C10 35.0815 9.89464 35.3995 9.70711 35.6339C9.51957 35.8683 9.26522 36 9 36Z" fill="white"/>
<path d="M38.8667 36H23C22.6994 36 22.4112 35.8755 22.1986 35.6539C21.9861 35.4322 21.8667 35.1316 21.8667 34.8182C21.8667 34.5047 21.9861 34.2041 22.1986 33.9825C22.4112 33.7609 22.6994 33.6364 23 33.6364H37.7333V12.3636H8.26667V18.2727C8.26667 18.5862 8.14726 18.8868 7.93472 19.1084C7.72218 19.33 7.43391 19.4545 7.13333 19.4545C6.83275 19.4545 6.54449 19.33 6.33195 19.1084C6.1194 18.8868 6 18.5862 6 18.2727V11.1818C6 10.8684 6.1194 10.5678 6.33195 10.3461C6.54449 10.1245 6.83275 10 7.13333 10H38.8667C39.1672 10 39.4555 10.1245 39.6681 10.3461C39.8806 10.5678 40 10.8684 40 11.1818V34.8182C40 35.1316 39.8806 35.4322 39.6681 35.6539C39.4555 35.8755 39.1672 36 38.8667 36Z" fill="white"/>
</svg>
