<svg width="100" height="100" viewBox="0 0 100 100" fill="none" xmlns="http://www.w3.org/2000/svg">
<path d="M100 50C100 59.8891 97.0676 69.5561 91.5735 77.7785C86.0794 86.001 78.2705 92.4096 69.1342 96.194C59.9979 99.9784 49.9445 100.969 40.2455 99.0393C30.5464 97.11 21.6373 92.348 14.6447 85.3553C7.65204 78.3627 2.89 69.4536 0.960736 59.7545C-0.968525 50.0555 0.0216418 40.0021 3.80602 30.8658C7.59041 21.7295 13.999 13.9206 22.2215 8.42652C30.4439 2.93245 40.1109 -1.17926e-07 50 0V13.0693C42.6958 13.0693 35.5556 15.2353 29.4824 19.2933C23.4092 23.3513 18.6757 29.119 15.8805 35.8672C13.0853 42.6154 12.354 50.041 13.7789 57.2048C15.2039 64.3687 18.7212 70.9491 23.8861 76.1139C29.0509 81.2788 35.6313 84.7961 42.7952 86.2211C49.959 87.646 57.3846 86.9147 64.1328 84.1195C70.881 81.3243 76.6487 76.5908 80.7067 70.5176C84.7647 64.4444 86.9307 57.3042 86.9307 50H100Z" fill="#08A8B6"/>
</svg>
