<svg width="510" height="510" viewBox="0 0 510 510" fill="none" xmlns="http://www.w3.org/2000/svg">
<path d="M367.151 284.641C363.761 280.907 283.973 193.375 255.085 193.375C226.197 193.375 146.409 280.907 143.007 284.635C142.675 285.002 134.885 293.848 134.885 304.139C134.885 312.17 135.424 320.247 135.43 320.327C135.43 320.7 135.63 324.113 137.541 325.042C137.847 325.195 138.185 325.274 138.527 325.272C139.392 325.211 140.216 324.882 140.885 324.331C141.745 323.574 223.036 252.225 255.068 252.225C287.1 252.225 368.413 323.597 369.228 324.331C369.907 324.899 370.748 325.238 371.631 325.3C371.973 325.302 372.31 325.226 372.618 325.077C374.522 324.147 374.712 320.734 374.729 320.344C374.729 320.281 375.268 312.204 375.268 304.173C375.268 293.854 367.478 285.008 367.151 284.641ZM368.006 313.971C347.022 296.091 284.696 245.209 255.085 245.209C225.474 245.209 163.177 296.062 142.187 313.954C142.061 309.726 141.946 307.156 141.946 303.393C141.946 303.393 141.43 297.181 146.966 290.962C192.478 249.97 240.205 229.922 241.673 229.308C255.905 223.33 255.102 224.449 255.091 200.465C255.436 200.443 255.783 200.443 256.129 200.465C276.166 202.272 330.048 254.238 361.937 289.379C361.994 289.442 368.247 296.613 368.247 304.179C368.229 307.713 368.12 311.206 368.006 313.971Z" fill="white"/>
<path d="M316.696 362.027C306.588 361.803 296.32 362.027 296.234 362.027C283.89 362.027 273.862 370.586 273.862 381.106C273.862 391.782 283.907 400.467 296.234 400.467C296.32 400.467 306.56 400.679 316.696 400.467C329.064 400.467 339.131 391.782 339.131 381.106C339.137 370.66 329.276 362.28 316.696 362.027ZM309.766 395.16H309.732C308.923 395.16 306.078 395.252 303.29 395.16C296.183 395.16 288.513 389.797 288.513 381.135C288.513 372.473 296.022 367.408 303.25 367.414C303.342 367.414 306.87 367.247 309.766 367.414C317.029 367.414 324.549 372.576 324.549 381.141C324.549 389.705 316.874 395.16 309.766 395.16Z" fill="white"/>
<path d="M448.081 399.952H460.667C460.667 399.464 460.667 381.63 460.667 381.63C460.667 370.931 451.081 362.545 438.869 362.545H407.003C406.481 362.545 405.282 362.677 405.282 363.939V398.535C405.27 398.717 405.296 398.9 405.358 399.072C405.42 399.244 405.517 399.401 405.642 399.534C405.767 399.667 405.919 399.773 406.087 399.845C406.255 399.917 406.436 399.953 406.619 399.952H419.927C419.927 399.459 419.927 371.012 419.927 371.012C419.916 370.757 419.957 370.503 420.049 370.265C420.14 370.027 420.279 369.81 420.458 369.629C420.637 369.447 420.851 369.303 421.087 369.208C421.323 369.112 421.577 369.066 421.832 369.073H436.499C440.555 369.073 446.555 372.773 446.555 380.706V398.489C446.558 398.686 446.599 398.88 446.677 399.061C446.755 399.242 446.869 399.405 447.011 399.541C447.153 399.677 447.321 399.784 447.505 399.854C447.689 399.925 447.885 399.958 448.081 399.952Z" fill="white"/>
<path d="M182.424 369.96H202.094V364.006C202.103 363.815 202.072 363.625 202.005 363.447C201.938 363.269 201.835 363.106 201.703 362.969C201.571 362.831 201.413 362.722 201.238 362.648C201.062 362.574 200.873 362.536 200.683 362.537H145.906C145.717 362.537 145.531 362.575 145.356 362.648C145.182 362.72 145.024 362.827 144.892 362.962C144.76 363.096 144.655 363.256 144.585 363.431C144.515 363.606 144.481 363.794 144.484 363.983V369.96H157.568C159.725 369.98 161.789 370.841 163.322 372.359C164.855 373.876 165.735 375.932 165.777 378.088V398.51C165.79 398.887 165.947 399.245 166.216 399.509C166.485 399.774 166.845 399.925 167.223 399.933H180.497V371.824C180.513 371.324 180.723 370.85 181.083 370.502C181.443 370.154 181.924 369.96 182.424 369.96Z" fill="white"/>
<path d="M121.898 398.527C121.911 398.904 122.067 399.261 122.335 399.527C122.602 399.792 122.961 399.945 123.338 399.955H124.078L123.975 400.047C124.359 399.955 125.638 399.955 130.095 399.955H136.595V363.96C136.593 363.584 136.445 363.224 136.181 362.957C135.917 362.69 135.559 362.537 135.183 362.531H123.338C122.961 362.536 122.6 362.687 122.333 362.952C122.065 363.218 121.911 363.577 121.904 363.954L121.898 398.527Z" fill="white"/>
<path d="M253.147 399.956H267.752C267.517 390.967 258.161 387.244 257.082 386.843L256.893 386.774V386.263L257.082 386.223C263.341 384.823 267.706 380.039 267.706 374.584C267.706 368.784 262.038 362.538 252.872 362.538H217.581C216.576 362.527 215.578 362.717 214.647 363.097C213.716 363.477 212.87 364.039 212.159 364.75C211.447 365.461 210.885 366.307 210.506 367.238C210.126 368.169 209.936 369.167 209.946 370.173V398.522C209.939 398.709 209.971 398.895 210.038 399.07C210.106 399.244 210.209 399.403 210.341 399.536C210.473 399.668 210.631 399.773 210.805 399.842C210.978 399.912 211.165 399.944 211.352 399.939H224.603C224.603 399.457 224.603 386.671 224.603 386.671H237.085C248.242 386.693 252.82 394.724 253.147 399.956ZM224.574 380.056V372.599C224.56 372.136 224.642 371.675 224.815 371.245C224.989 370.815 225.25 370.426 225.581 370.103C225.913 369.779 226.308 369.528 226.742 369.365C227.176 369.202 227.639 369.132 228.102 369.157H247.64C248.373 369.138 249.103 369.267 249.785 369.535C250.468 369.803 251.089 370.206 251.613 370.719C252.137 371.232 252.552 371.846 252.834 372.523C253.116 373.2 253.259 373.926 253.255 374.66C253.251 375.393 253.099 376.118 252.81 376.791C252.52 377.465 252.097 378.073 251.568 378.581C251.038 379.088 250.412 379.483 249.726 379.744C249.041 380.004 248.31 380.124 247.577 380.097L224.574 380.056Z" fill="white"/>
<path d="M99.5902 375.095H113.88C110.788 367.27 102.212 361.901 92.3509 361.712L87.9626 361.62C81.0789 361.477 77.9297 361.408 71.9007 361.712C64.8564 362.068 60.4279 363.674 56.0798 367.448C51.8463 371.142 49.5059 376.018 49.5059 381.216C49.5059 391.914 59.0225 400.306 71.6483 400.748C80.2988 401.058 81.2223 401.063 92.5689 400.748C103.078 400.432 110.621 395.671 113.868 387.376H99.5788C99.3286 387.367 99.0809 387.429 98.8645 387.555C98.6482 387.681 98.4721 387.865 98.3569 388.088C97.0164 390.31 95.119 392.145 92.8523 393.409C90.5857 394.674 88.0283 395.325 85.4328 395.298C82.4958 395.413 78.945 395.298 78.945 395.298C71.6827 395.298 64.1681 390.05 64.1681 381.279V381.198C64.2197 372.479 71.7172 367.265 78.9852 367.265C79.8112 367.23 82.7367 367.133 85.4214 367.265C90.7218 367.265 95.81 370.075 98.3741 374.424C98.5005 374.632 98.6793 374.804 98.8926 374.921C99.106 375.039 99.3466 375.099 99.5902 375.095Z" fill="white"/>
<path d="M397.395 393.229H362.788C362.531 393.247 362.274 393.212 362.032 393.125C361.791 393.039 361.569 392.903 361.383 392.727C361.196 392.551 361.048 392.337 360.948 392.101C360.849 391.864 360.799 391.609 360.803 391.353V384.217H390.821V377.654H360.803V371.143C360.805 370.669 360.985 370.212 361.308 369.864C361.538 369.651 361.81 369.487 362.105 369.382C362.401 369.276 362.715 369.231 363.029 369.25H397.395V364.007C397.407 363.816 397.379 363.625 397.313 363.445C397.247 363.265 397.144 363.101 397.011 362.963C396.641 362.671 396.179 362.521 395.709 362.539H347.569C347.373 362.529 347.178 362.56 346.996 362.631C346.813 362.701 346.647 362.809 346.509 362.947C346.37 363.085 346.262 363.251 346.192 363.434C346.122 363.617 346.091 363.812 346.1 364.007V392.339C346.096 393.348 346.292 394.347 346.679 395.278C347.065 396.209 347.633 397.054 348.35 397.763C349.067 398.472 349.918 399.031 350.854 399.407C351.789 399.782 352.791 399.968 353.799 399.952H395.984C396.354 399.945 396.706 399.797 396.971 399.539C397.108 399.414 397.219 399.263 397.296 399.094C397.373 398.926 397.414 398.743 397.418 398.558L397.395 393.229Z" fill="white"/>
<path d="M386.632 349.006C385.092 348.1 383.329 347.649 381.544 347.704C379.756 347.656 377.99 348.106 376.444 349.006C375.102 349.843 374.023 350.968 372.428 350.968C370.834 350.968 369.887 349.82 368.453 349.006C366.907 348.117 365.148 347.667 363.365 347.704C361.576 347.65 359.809 348.101 358.265 349.006C356.866 349.861 356.154 350.905 356.154 352.109C356.154 353.314 356.866 354.369 358.265 355.224C359.811 356.122 361.578 356.569 363.365 356.515C365.101 356.572 366.821 356.162 368.344 355.327C369.618 354.547 370.994 353.279 372.428 353.279C373.863 353.279 375.17 354.427 376.444 355.23C377.993 356.114 379.755 356.558 381.538 356.515C383.337 356.582 385.118 356.134 386.672 355.224C388.054 354.369 388.737 353.331 388.737 352.109C388.737 350.887 388.043 349.861 386.632 349.006Z" fill="white"/>
<path d="M367.036 201.408C363.651 197.68 283.939 110.234 255.085 110.234C226.231 110.234 146.518 197.686 143.139 201.408C142.806 201.776 135.028 210.615 135.028 220.912C135.028 228.943 135.567 237.003 135.573 237.083C135.573 237.456 135.774 240.869 137.678 241.793C137.987 241.942 138.327 242.021 138.67 242.022C139.534 241.963 140.356 241.634 141.022 241.081C141.883 240.324 223.087 169.044 255.09 169.044C287.094 169.044 368.298 240.341 369.112 241.064C369.792 241.632 370.633 241.972 371.516 242.034C371.857 242.033 372.195 241.957 372.503 241.81C374.401 240.886 374.591 237.473 374.608 237.083C374.608 237.02 375.147 228.949 375.147 220.929C375.147 210.621 367.369 201.781 367.036 201.408ZM367.873 230.71C346.93 212.881 284.65 162.022 255.085 162.022C225.519 162.022 163.302 212.824 142.296 230.698C142.17 226.476 142.055 223.907 142.055 220.149C142.055 220.149 141.544 213.937 147.068 207.73C192.541 166.778 240.216 146.746 241.673 146.133C255.893 140.161 255.09 141.285 255.079 117.319C255.425 117.295 255.771 117.295 256.117 117.319C276.137 119.12 329.962 171.04 361.822 206.135C361.873 206.198 368.132 213.363 368.132 220.924C368.114 224.463 368.005 227.956 367.873 230.71Z" fill="white"/>
</svg>
