<svg width="93" height="93" viewBox="0 0 93 93" fill="none" xmlns="http://www.w3.org/2000/svg">
<path d="M34.875 78.4688C34.1042 78.4688 33.365 78.1626 32.82 77.6175C32.2749 77.0725 31.9688 76.3333 31.9688 75.5625C31.9603 68.628 29.2018 61.98 24.2984 57.0766C19.395 52.1732 12.747 49.4147 5.8125 49.4062C5.04171 49.4062 4.3025 49.1001 3.75747 48.555C3.21244 48.01 2.90625 47.2708 2.90625 46.5C2.90625 45.7292 3.21244 44.99 3.75747 44.445C4.3025 43.8999 5.04171 43.5938 5.8125 43.5938C14.2881 43.6037 22.4136 46.9751 28.4068 52.9682C34.3999 58.9614 37.7713 67.0869 37.7812 75.5625C37.7812 76.3333 37.4751 77.0725 36.93 77.6175C36.385 78.1626 35.6458 78.4688 34.875 78.4688Z" fill="#3B3938"/>
<path d="M23.25 78.4688C22.4792 78.4688 21.74 78.1626 21.195 77.6175C20.6499 77.0725 20.3438 76.3333 20.3438 75.5625C20.3391 71.71 18.8067 68.0166 16.0825 65.2924C13.3584 62.5683 9.66501 61.0359 5.8125 61.0312C5.04171 61.0312 4.3025 60.7251 3.75747 60.18C3.21244 59.635 2.90625 58.8958 2.90625 58.125C2.90625 57.3542 3.21244 56.615 3.75747 56.07C4.3025 55.5249 5.04171 55.2188 5.8125 55.2188C11.2061 55.2249 16.377 57.3702 20.1909 61.1841C24.0048 64.998 26.1501 70.1689 26.1562 75.5625C26.1562 76.3333 25.8501 77.0725 25.305 77.6175C24.76 78.1626 24.0208 78.4688 23.25 78.4688Z" fill="#3B3938"/>
<path d="M11.625 78.4688C10.8542 78.4688 10.115 78.1626 9.56997 77.6175C9.02494 77.0725 8.71875 76.3333 8.71875 75.5625C8.71875 74.7917 8.41256 74.0525 7.86753 73.5075C7.3225 72.9624 6.58329 72.6562 5.8125 72.6562C5.04171 72.6562 4.3025 72.3501 3.75747 71.805C3.21244 71.26 2.90625 70.5208 2.90625 69.75C2.90625 68.9792 3.21244 68.24 3.75747 67.695C4.3025 67.1499 5.04171 66.8438 5.8125 66.8438C8.12486 66.8438 10.3425 67.7623 11.9776 69.3974C13.6127 71.0325 14.5312 73.2501 14.5312 75.5625C14.5312 76.3333 14.2251 77.0725 13.68 77.6175C13.135 78.1626 12.3958 78.4688 11.625 78.4688Z" fill="#3B3938"/>
<path d="M87.1875 78.4688H46.5C45.7292 78.4688 44.99 78.1626 44.445 77.6175C43.8999 77.0725 43.5938 76.3333 43.5938 75.5625C43.5938 74.7917 43.8999 74.0525 44.445 73.5075C44.99 72.9624 45.7292 72.6562 46.5 72.6562H84.2812V20.3438H8.71875V34.875C8.71875 35.6458 8.41256 36.385 7.86753 36.93C7.3225 37.4751 6.58329 37.7812 5.8125 37.7812C5.04171 37.7812 4.3025 37.4751 3.75747 36.93C3.21244 36.385 2.90625 35.6458 2.90625 34.875V17.4375C2.90625 16.6667 3.21244 15.9275 3.75747 15.3825C4.3025 14.8374 5.04171 14.5312 5.8125 14.5313H87.1875C87.9583 14.5313 88.6975 14.8374 89.2425 15.3825C89.7876 15.9275 90.0938 16.6667 90.0938 17.4375V75.5625C90.0938 76.3333 89.7876 77.0725 89.2425 77.6175C88.6975 78.1626 87.9583 78.4688 87.1875 78.4688Z" fill="#3B3938"/>
</svg>
