<svg width="200" height="200" viewBox="0 0 200 200" fill="none" xmlns="http://www.w3.org/2000/svg">
<path d="M143.98 111.623C142.651 110.158 111.362 75.832 100.033 75.832C88.7041 75.832 57.4149 110.158 56.0809 111.62C55.9504 111.764 52.8955 115.233 52.8955 119.269C52.8955 122.418 53.107 125.586 53.1092 125.617C53.1092 125.763 53.188 127.102 53.9371 127.466C54.0572 127.526 54.1897 127.557 54.324 127.556C54.6631 127.532 54.9863 127.403 55.2485 127.187C55.586 126.89 87.4645 98.9103 100.026 98.9103C112.588 98.9103 144.475 126.899 144.795 127.187C145.061 127.41 145.391 127.543 145.737 127.567C145.871 127.568 146.004 127.538 146.124 127.48C146.871 127.115 146.945 125.777 146.952 125.624C146.952 125.599 147.163 122.432 147.163 119.282C147.163 115.235 144.109 111.767 143.98 111.623ZM144.316 123.125C136.087 116.113 111.645 96.1591 100.033 96.1591C88.4206 96.1591 63.9904 116.101 55.7592 123.118C55.7097 121.46 55.6647 120.452 55.6647 118.976C55.6647 118.976 55.4623 116.54 57.6331 114.102C75.4811 98.0262 94.1975 90.164 94.7734 89.9233C100.355 87.5793 100.04 88.0179 100.035 78.6125C100.171 78.6039 100.307 78.6039 100.442 78.6125C108.3 79.3211 129.43 99.6999 141.935 113.481C141.958 113.505 144.41 116.317 144.41 119.285C144.403 120.67 144.36 122.04 144.316 123.125Z" fill="white"/>
<path d="M124.194 141.969C120.23 141.881 116.204 141.969 116.17 141.969C111.329 141.969 107.396 145.325 107.396 149.451C107.396 153.637 111.335 157.043 116.17 157.043C116.204 157.043 120.219 157.126 124.194 157.043C129.044 157.043 132.992 153.637 132.992 149.451C132.994 145.354 129.127 142.068 124.194 141.969ZM121.477 154.962H121.463C121.146 154.962 120.03 154.998 118.937 154.962C116.15 154.962 113.142 152.859 113.142 149.462C113.142 146.065 116.087 144.079 118.921 144.081C118.957 144.081 120.34 144.016 121.477 144.081C124.324 144.081 127.274 146.106 127.274 149.464C127.274 152.823 124.264 154.962 121.477 154.962Z" fill="white"/>
<path d="M175.718 156.841H180.653C180.653 156.65 180.653 149.656 180.653 149.656C180.653 145.461 176.894 142.172 172.105 142.172H159.609C159.404 142.172 158.934 142.224 158.934 142.719V156.286C158.929 156.357 158.939 156.429 158.964 156.496C158.988 156.564 159.026 156.625 159.075 156.677C159.124 156.73 159.183 156.771 159.249 156.799C159.315 156.827 159.386 156.842 159.458 156.841H164.677C164.677 156.648 164.677 145.492 164.677 145.492C164.672 145.392 164.689 145.293 164.725 145.199C164.76 145.106 164.815 145.021 164.885 144.95C164.955 144.878 165.039 144.822 165.132 144.785C165.224 144.747 165.324 144.729 165.424 144.732H171.176C172.766 144.732 175.119 146.183 175.119 149.294V156.268C175.12 156.345 175.136 156.421 175.167 156.492C175.198 156.563 175.242 156.627 175.298 156.68C175.354 156.734 175.42 156.775 175.492 156.803C175.564 156.831 175.641 156.844 175.718 156.841Z" fill="white"/>
<path d="M71.5388 145.081H79.2526V142.746C79.2559 142.671 79.2441 142.597 79.2177 142.527C79.1914 142.457 79.1511 142.393 79.0994 142.339C79.0476 142.285 78.9854 142.243 78.9166 142.213C78.8478 142.184 78.7739 142.17 78.6992 142.17H57.2181C57.1441 142.17 57.0708 142.185 57.0025 142.213C56.9342 142.242 56.8723 142.284 56.8204 142.336C56.7685 142.389 56.7276 142.452 56.7001 142.521C56.6726 142.589 56.659 142.663 56.6602 142.737V145.081H61.7915C62.6373 145.089 63.4467 145.426 64.0478 146.022C64.6489 146.617 64.9942 147.423 65.0106 148.268V156.277C65.0157 156.425 65.0774 156.565 65.1829 156.669C65.2883 156.773 65.4295 156.832 65.5775 156.835H70.783V145.812C70.7894 145.616 70.8719 145.43 71.0129 145.293C71.154 145.157 71.3426 145.081 71.5388 145.081Z" fill="white"/>
<path d="M47.8027 156.284C47.8078 156.432 47.8691 156.572 47.974 156.676C48.0789 156.78 48.2196 156.84 48.3674 156.844H48.6576L48.6171 156.88C48.7678 156.844 49.2694 156.844 51.0174 156.844H53.5661V142.728C53.5656 142.581 53.5073 142.44 53.4038 142.335C53.3003 142.23 53.1599 142.17 53.0127 142.168H48.3674C48.2195 142.17 48.0782 142.229 47.9732 142.333C47.8682 142.437 47.8079 142.578 47.805 142.726L47.8027 156.284Z" fill="white"/>
<path d="M99.2739 156.844H105.001C104.909 153.319 101.24 151.859 100.817 151.701L100.743 151.674V151.474L100.817 151.459C103.271 150.91 104.983 149.034 104.983 146.894C104.983 144.62 102.761 142.17 99.1659 142.17H85.3266C84.9322 142.166 84.541 142.24 84.1758 142.389C83.8106 142.538 83.4789 142.759 83.2 143.038C82.9211 143.317 82.7007 143.648 82.5518 144.013C82.4028 144.379 82.3282 144.77 82.3324 145.164V156.282C82.3296 156.355 82.3419 156.428 82.3686 156.496C82.3952 156.565 82.4356 156.627 82.4873 156.679C82.539 156.731 82.6008 156.772 82.669 156.799C82.7372 156.827 82.8102 156.839 82.8836 156.837H88.08C88.08 156.648 88.08 151.634 88.08 151.634H92.9751C97.3505 151.643 99.1456 154.792 99.2739 156.844ZM88.0688 149.04V146.116C88.0632 145.934 88.0955 145.753 88.1635 145.585C88.2315 145.416 88.3338 145.264 88.4638 145.137C88.5939 145.01 88.7489 144.911 88.9191 144.848C89.0893 144.784 89.2708 144.756 89.4523 144.766H97.1143C97.4018 144.759 97.6878 144.809 97.9555 144.914C98.2231 145.019 98.4669 145.177 98.6723 145.379C98.8777 145.58 99.0406 145.82 99.1512 146.086C99.2618 146.351 99.318 146.636 99.3163 146.924C99.3147 147.211 99.2552 147.496 99.1415 147.76C99.0278 148.024 98.8622 148.263 98.6545 148.462C98.4468 148.66 98.2012 148.816 97.9324 148.918C97.6635 149.02 97.3769 149.067 97.0895 149.056L88.0688 149.04Z" fill="white"/>
<path d="M39.055 147.096H44.6587C43.4461 144.027 40.083 141.922 36.2161 141.848L34.4951 141.812C31.7957 141.755 30.5606 141.728 28.1964 141.848C25.4339 141.987 23.6972 142.617 21.9921 144.097C20.3319 145.546 19.4141 147.458 19.4141 149.496C19.4141 153.691 23.1461 156.983 28.0974 157.156C31.4897 157.277 31.8519 157.279 36.3015 157.156C40.4227 157.032 43.3809 155.165 44.6542 151.912H39.0505C38.9524 151.908 38.8552 151.933 38.7704 151.982C38.6856 152.031 38.6165 152.104 38.5713 152.191C38.0456 153.063 37.3016 153.782 36.4127 154.278C35.5238 154.774 34.5209 155.029 33.5031 155.019C32.3513 155.064 30.9588 155.019 30.9588 155.019C28.1109 155.019 25.1639 152.96 25.1639 149.521V149.489C25.1842 146.07 28.1244 144.025 30.9746 144.025C31.2985 144.012 32.4458 143.973 33.4986 144.025C35.5772 144.025 37.5725 145.127 38.5781 146.833C38.6276 146.914 38.6978 146.982 38.7814 147.028C38.8651 147.074 38.9594 147.097 39.055 147.096Z" fill="white"/>
<path d="M155.841 154.206H142.269C142.169 154.213 142.068 154.199 141.973 154.165C141.878 154.131 141.792 154.078 141.718 154.009C141.645 153.94 141.587 153.856 141.548 153.764C141.509 153.671 141.489 153.571 141.491 153.47V150.672H153.263V148.098H141.491V145.545C141.492 145.359 141.562 145.18 141.689 145.043C141.779 144.96 141.886 144.895 142.002 144.854C142.118 144.813 142.241 144.795 142.364 144.803H155.841V142.747C155.846 142.672 155.835 142.596 155.809 142.526C155.783 142.455 155.742 142.391 155.69 142.337C155.545 142.223 155.364 142.164 155.18 142.171H136.301C136.225 142.167 136.148 142.179 136.076 142.207C136.005 142.234 135.94 142.276 135.885 142.331C135.831 142.385 135.789 142.45 135.761 142.522C135.734 142.593 135.721 142.67 135.725 142.747V153.857C135.723 154.253 135.801 154.644 135.952 155.009C136.104 155.375 136.326 155.706 136.608 155.984C136.889 156.262 137.222 156.481 137.589 156.629C137.956 156.776 138.349 156.849 138.744 156.842H155.288C155.432 156.84 155.571 156.782 155.674 156.68C155.728 156.632 155.772 156.572 155.802 156.506C155.832 156.44 155.848 156.368 155.85 156.296L155.841 154.206Z" fill="white"/>
<path d="M151.62 136.864C151.016 136.509 150.325 136.332 149.625 136.353C148.923 136.334 148.231 136.511 147.625 136.864C147.098 137.192 146.675 137.633 146.05 137.633C145.425 137.633 145.053 137.183 144.491 136.864C143.885 136.515 143.195 136.339 142.496 136.353C141.794 136.332 141.101 136.509 140.496 136.864C139.947 137.199 139.668 137.609 139.668 138.081C139.668 138.553 139.947 138.967 140.496 139.302C141.102 139.655 141.795 139.83 142.496 139.809C143.177 139.831 143.851 139.67 144.448 139.343C144.948 139.037 145.488 138.54 146.05 138.54C146.612 138.54 147.125 138.99 147.625 139.305C148.232 139.651 148.923 139.826 149.622 139.809C150.328 139.835 151.026 139.659 151.636 139.302C152.178 138.967 152.446 138.56 152.446 138.081C152.446 137.602 152.173 137.199 151.62 136.864Z" fill="white"/>
<path d="M143.936 78.9811C142.608 77.5189 111.349 43.2266 100.033 43.2266C88.7179 43.2266 57.458 77.5212 56.133 78.9811C56.0026 79.1251 52.9521 82.5917 52.9521 86.6296C52.9521 89.779 53.1636 92.9397 53.1659 92.9712C53.1659 93.1174 53.2446 94.4559 53.9914 94.818C54.1128 94.8768 54.2458 94.9076 54.3806 94.908C54.7191 94.8848 55.0418 94.7558 55.3029 94.5391C55.6404 94.2422 87.4852 66.2891 100.035 66.2891C112.586 66.2891 144.431 94.2489 144.75 94.5324C145.016 94.7552 145.346 94.8882 145.693 94.9125C145.826 94.9124 145.959 94.8825 146.08 94.8248C146.824 94.4626 146.898 93.1241 146.905 92.9712C146.905 92.9464 147.117 89.7813 147.117 86.6364C147.117 82.5939 144.066 79.1273 143.936 78.9811ZM144.264 90.4719C136.051 83.4802 111.627 63.5356 100.033 63.5356C88.439 63.5356 64.0402 83.4578 55.8023 90.4674C55.7529 88.8117 55.7079 87.8039 55.7079 86.3304C55.7079 86.3304 55.5076 83.8942 57.674 81.4601C75.5063 65.4005 94.2024 57.545 94.7738 57.3043C100.35 54.9625 100.035 55.4035 100.031 46.0048C100.167 45.9954 100.303 45.9954 100.438 46.0048C108.289 46.7111 129.397 67.0719 141.891 80.8348C141.911 80.8595 144.365 83.6692 144.365 86.6341C144.359 88.0221 144.316 89.3921 144.264 90.4719Z" fill="white"/>
</svg>
