<svg width="36" height="36" viewBox="0 0 36 36" fill="none" xmlns="http://www.w3.org/2000/svg">
<path d="M13.5 30.375C13.2016 30.375 12.9155 30.2565 12.7045 30.0455C12.4935 29.8345 12.375 29.5484 12.375 29.25C12.3717 26.5657 11.3039 23.9923 9.40584 22.0942C7.50774 20.1961 4.93431 19.1283 2.25 19.125C1.95163 19.125 1.66548 19.0065 1.4545 18.7955C1.24353 18.5845 1.125 18.2984 1.125 18C1.125 17.7016 1.24353 17.4155 1.4545 17.2045C1.66548 16.9935 1.95163 16.875 2.25 16.875C5.53087 16.8789 8.67625 18.1839 10.9962 20.5038C13.3161 22.8238 14.6211 25.9691 14.625 29.25C14.625 29.5484 14.5065 29.8345 14.2955 30.0455C14.0845 30.2565 13.7984 30.375 13.5 30.375Z" fill="#3B3938"/>
<path d="M9 30.375C8.70163 30.375 8.41548 30.2565 8.2045 30.0455C7.99353 29.8345 7.875 29.5484 7.875 29.25C7.87321 27.7587 7.28001 26.329 6.2255 25.2745C5.171 24.22 3.74129 23.6268 2.25 23.625C1.95163 23.625 1.66548 23.5065 1.4545 23.2955C1.24353 23.0845 1.125 22.7984 1.125 22.5C1.125 22.2016 1.24353 21.9155 1.4545 21.7045C1.66548 21.4935 1.95163 21.375 2.25 21.375C4.33785 21.3774 6.3395 22.2078 7.81583 23.6842C9.29217 25.1605 10.1226 27.1622 10.125 29.25C10.125 29.5484 10.0065 29.8345 9.7955 30.0455C9.58452 30.2565 9.29837 30.375 9 30.375Z" fill="#3B3938"/>
<path d="M4.5 30.375C4.20163 30.375 3.91548 30.2565 3.7045 30.0455C3.49353 29.8345 3.375 29.5484 3.375 29.25C3.375 28.9516 3.25647 28.6655 3.0455 28.4545C2.83452 28.2435 2.54837 28.125 2.25 28.125C1.95163 28.125 1.66548 28.0065 1.4545 27.7955C1.24353 27.5845 1.125 27.2984 1.125 27C1.125 26.7016 1.24353 26.4155 1.4545 26.2045C1.66548 25.9935 1.95163 25.875 2.25 25.875C3.14511 25.875 4.00355 26.2306 4.63649 26.8635C5.26942 27.4964 5.625 28.3549 5.625 29.25C5.625 29.5484 5.50647 29.8345 5.2955 30.0455C5.08452 30.2565 4.79837 30.375 4.5 30.375Z" fill="#3B3938"/>
<path d="M33.75 5.625H2.25C1.95163 5.625 1.66548 5.74353 1.4545 5.95451C1.24353 6.16548 1.125 6.45163 1.125 6.75V13.5C1.125 13.7984 1.24353 14.0845 1.4545 14.2955C1.66548 14.5065 1.95163 14.625 2.25 14.625C6.12742 14.6295 9.84475 16.1717 12.5865 18.9135C15.3283 21.6552 16.8705 25.3726 16.875 29.25C16.875 29.5484 16.9935 29.8345 17.2045 30.0455C17.4155 30.2565 17.7016 30.375 18 30.375H33.75C34.0484 30.375 34.3345 30.2565 34.5455 30.0455C34.7565 29.8345 34.875 29.5484 34.875 29.25V6.75C34.875 6.45163 34.7565 6.16548 34.5455 5.95451C34.3345 5.74353 34.0484 5.625 33.75 5.625Z" fill="#3B3938"/>
</svg>
