<svg width="160" height="160" viewBox="0 0 160 160" fill="none" xmlns="http://www.w3.org/2000/svg">
<path d="M115.185 89.2985C114.121 88.1269 89.0897 60.666 80.0266 60.666C70.9636 60.666 45.9323 88.1269 44.8651 89.2967C44.7607 89.4118 42.3168 92.1869 42.3168 95.4155C42.3168 97.935 42.4859 100.469 42.4877 100.494C42.4877 100.611 42.5507 101.682 43.15 101.973C43.2461 102.021 43.3522 102.046 43.4596 102.045C43.7308 102.026 43.9894 101.923 44.1992 101.75C44.4692 101.513 69.972 79.1286 80.0212 79.1286C90.0705 79.1286 115.581 101.52 115.836 101.75C116.049 101.928 116.313 102.035 116.59 102.054C116.697 102.055 116.803 102.031 116.9 101.984C117.497 101.693 117.557 100.622 117.562 100.499C117.562 100.48 117.731 97.9458 117.731 95.4263C117.731 92.1887 115.287 89.4136 115.185 89.2985ZM115.453 98.5001C108.87 92.8905 89.3164 76.9277 80.0266 76.9277C70.7369 76.9277 51.1926 92.8816 44.6077 98.4947C44.5681 97.1683 44.5321 96.3621 44.5321 95.1815C44.5321 95.1815 44.3702 93.2325 46.1068 91.2817C60.3853 78.4214 75.3583 72.1316 75.8191 71.939C80.284 70.0638 80.032 70.4147 80.0284 62.8904C80.1369 62.8835 80.2457 62.8835 80.3542 62.8904C86.6404 63.4573 103.544 79.7603 113.549 90.785C113.567 90.8048 115.528 93.0543 115.528 95.4281C115.523 96.5366 115.489 97.6326 115.453 98.5001Z" fill="#6E6E6E"/>
<path d="M99.3556 113.576C96.1846 113.506 92.9632 113.576 92.9362 113.576C89.0634 113.576 85.9176 116.261 85.9176 119.562C85.9176 122.911 89.0688 125.636 92.9362 125.636C92.9632 125.636 96.1756 125.702 99.3556 125.636C103.236 125.636 106.394 122.911 106.394 119.562C106.396 116.285 103.302 113.655 99.3556 113.576ZM97.1816 123.971H97.1708C96.9171 123.971 96.0244 124 95.1498 123.971C92.92 123.971 90.5139 122.288 90.5139 119.571C90.5139 116.853 92.8697 115.264 95.1372 115.266C95.166 115.266 96.2728 115.214 97.1816 115.266C99.46 115.266 101.819 116.886 101.819 119.573C101.819 122.259 99.4114 123.971 97.1816 123.971Z" fill="#6E6E6E"/>
<path d="M140.575 125.474H144.523C144.523 125.321 144.523 119.726 144.523 119.726C144.523 116.369 141.516 113.738 137.684 113.738H127.687C127.523 113.738 127.147 113.78 127.147 114.176V125.029C127.144 125.086 127.152 125.144 127.171 125.198C127.191 125.252 127.221 125.301 127.26 125.343C127.3 125.384 127.347 125.418 127.4 125.44C127.453 125.463 127.509 125.474 127.567 125.474H131.742C131.742 125.319 131.742 116.395 131.742 116.395C131.738 116.315 131.751 116.235 131.78 116.16C131.809 116.086 131.852 116.018 131.908 115.961C131.964 115.904 132.032 115.859 132.106 115.829C132.18 115.799 132.259 115.784 132.339 115.786H136.941C138.213 115.786 140.096 116.947 140.096 119.436V125.015C140.097 125.077 140.11 125.138 140.134 125.194C140.159 125.251 140.194 125.302 140.239 125.345C140.283 125.388 140.336 125.421 140.394 125.443C140.451 125.465 140.513 125.476 140.575 125.474Z" fill="#6E6E6E"/>
<path d="M57.2309 116.065H63.4019V114.197C63.4046 114.137 63.3951 114.078 63.3741 114.022C63.353 113.966 63.3208 113.915 63.2794 113.872C63.238 113.829 63.1883 113.794 63.1332 113.771C63.0782 113.748 63.019 113.736 62.9592 113.736H45.7744C45.7151 113.736 45.6565 113.748 45.6019 113.771C45.5473 113.794 45.4977 113.827 45.4562 113.87C45.4147 113.912 45.3819 113.962 45.3599 114.017C45.3379 114.072 45.3271 114.131 45.3281 114.19V116.065H49.4331C50.1097 116.072 50.7573 116.341 51.2381 116.818C51.719 117.294 51.9953 117.939 52.0084 118.615V125.022C52.0125 125.14 52.0618 125.252 52.1462 125.335C52.2305 125.418 52.3435 125.466 52.4619 125.468H56.6263V116.65C56.6314 116.493 56.6974 116.344 56.8102 116.235C56.9231 116.126 57.0739 116.065 57.2309 116.065Z" fill="#6E6E6E"/>
<path d="M38.2424 125.027C38.2465 125.145 38.2955 125.257 38.3795 125.341C38.4634 125.424 38.5759 125.472 38.6941 125.475H38.9263L38.8939 125.504C39.0145 125.475 39.4158 125.475 40.8141 125.475H42.8531V114.182C42.8527 114.065 42.8061 113.952 42.7233 113.868C42.6405 113.784 42.5282 113.736 42.4104 113.734H38.6941C38.5759 113.736 38.4628 113.783 38.3788 113.866C38.2948 113.95 38.2466 114.062 38.2442 114.181L38.2424 125.027Z" fill="#6E6E6E"/>
<path d="M79.4187 125.476H84.0006C83.9268 122.656 80.9916 121.488 80.6533 121.362L80.5939 121.34V121.18L80.6533 121.167C82.6167 120.728 83.9862 119.227 83.9862 117.516C83.9862 115.696 82.2082 113.736 79.3323 113.736H68.2609C67.9454 113.733 67.6324 113.793 67.3403 113.912C67.0481 114.031 66.7827 114.207 66.5596 114.431C66.3365 114.654 66.1602 114.919 66.041 115.211C65.9218 115.503 65.8622 115.816 65.8655 116.132V125.026C65.8633 125.084 65.8731 125.143 65.8945 125.198C65.9158 125.252 65.9481 125.302 65.9895 125.344C66.0308 125.385 66.0803 125.418 66.1348 125.44C66.1893 125.462 66.2478 125.472 66.3065 125.47H70.4636C70.4636 125.319 70.4636 121.308 70.4636 121.308H74.3797C77.88 121.315 79.3161 123.834 79.4187 125.476ZM70.4547 119.233V116.893C70.4502 116.748 70.476 116.603 70.5304 116.468C70.5848 116.333 70.6666 116.211 70.7707 116.11C70.8747 116.008 70.9988 115.93 71.1349 115.878C71.271 115.827 71.4163 115.805 71.5614 115.813H77.691C77.921 115.807 78.1499 115.848 78.364 115.932C78.5781 116.016 78.7731 116.142 78.9374 116.303C79.1018 116.464 79.2321 116.657 79.3206 116.869C79.4091 117.081 79.454 117.309 79.4527 117.539C79.4513 117.77 79.4038 117.997 79.3128 118.208C79.2219 118.42 79.0894 118.61 78.9232 118.77C78.757 118.929 78.5606 119.053 78.3455 119.134C78.1304 119.216 77.9011 119.254 77.6712 119.245L70.4547 119.233Z" fill="#6E6E6E"/>
<path d="M31.2439 117.676H35.7268C34.7568 115.221 32.0663 113.537 28.9727 113.477L27.596 113.448C25.4364 113.403 24.4484 113.382 22.557 113.477C20.347 113.589 18.9577 114.093 17.5935 115.277C16.2654 116.436 15.5311 117.966 15.5311 119.596C15.5311 122.952 18.5167 125.585 22.4778 125.724C25.1917 125.821 25.4814 125.823 29.0411 125.724C32.3381 125.625 34.7046 124.131 35.7232 121.529H31.2403C31.1618 121.526 31.0841 121.545 31.0162 121.585C30.9483 121.624 30.8931 121.682 30.857 121.752C30.4364 122.449 29.8411 123.025 29.13 123.421C28.4189 123.818 27.6166 124.023 26.8023 124.014C25.8809 124.05 24.7669 124.014 24.7669 124.014C22.4886 124.014 20.131 122.367 20.131 119.616V119.591C20.1472 116.855 22.4994 115.219 24.7795 115.219C25.0387 115.208 25.9565 115.178 26.7987 115.219C28.4616 115.219 30.0579 116.101 30.8624 117.465C30.902 117.531 30.9581 117.584 31.025 117.621C31.092 117.658 31.1674 117.677 31.2439 117.676Z" fill="#6E6E6E"/>
<path d="M124.673 123.365H113.816C113.735 123.371 113.655 123.36 113.579 123.333C113.503 123.306 113.433 123.263 113.375 123.208C113.316 123.152 113.27 123.085 113.239 123.011C113.207 122.937 113.192 122.857 113.193 122.777V120.538H122.61V118.479H113.193V116.436C113.194 116.287 113.25 116.144 113.351 116.035C113.424 115.968 113.509 115.917 113.602 115.884C113.694 115.851 113.793 115.837 113.891 115.842H124.673V114.198C124.677 114.138 124.668 114.078 124.647 114.021C124.626 113.965 124.594 113.913 124.552 113.87C124.436 113.778 124.291 113.731 124.144 113.737H109.041C108.98 113.734 108.919 113.744 108.861 113.766C108.804 113.788 108.752 113.822 108.708 113.865C108.665 113.908 108.631 113.96 108.609 114.018C108.587 114.075 108.577 114.136 108.58 114.198V123.086C108.579 123.402 108.641 123.716 108.762 124.008C108.883 124.3 109.061 124.565 109.286 124.788C109.511 125.01 109.778 125.185 110.072 125.303C110.365 125.421 110.679 125.479 110.996 125.474H124.23C124.346 125.472 124.457 125.426 124.54 125.345C124.583 125.306 124.618 125.258 124.642 125.205C124.666 125.152 124.679 125.095 124.68 125.037L124.673 123.365Z" fill="#6E6E6E"/>
<path d="M121.296 109.492C120.813 109.208 120.26 109.066 119.7 109.083C119.139 109.068 118.585 109.21 118.1 109.492C117.679 109.755 117.341 110.107 116.84 110.107C116.34 110.107 116.043 109.747 115.593 109.492C115.108 109.213 114.556 109.072 113.997 109.083C113.436 109.067 112.881 109.208 112.397 109.492C111.958 109.76 111.735 110.088 111.735 110.466C111.735 110.843 111.958 111.175 112.397 111.443C112.882 111.725 113.436 111.865 113.997 111.848C114.542 111.866 115.081 111.737 115.559 111.475C115.959 111.23 116.39 110.833 116.84 110.833C117.29 110.833 117.701 111.193 118.1 111.445C118.586 111.722 119.139 111.861 119.698 111.848C120.263 111.869 120.821 111.728 121.309 111.443C121.743 111.175 121.957 110.849 121.957 110.466C121.957 110.082 121.739 109.76 121.296 109.492Z" fill="#6E6E6E"/>
<path d="M115.149 63.1857C114.087 62.0159 89.0788 34.582 80.0266 34.582C70.9743 34.582 45.9664 62.0177 44.9064 63.1857C44.802 63.3008 42.3617 66.0741 42.3617 69.3045C42.3617 71.824 42.5309 74.3525 42.5327 74.3777C42.5327 74.4947 42.5956 75.5655 43.1931 75.8552C43.2902 75.9022 43.3966 75.9268 43.5045 75.9272C43.7753 75.9086 44.0334 75.8054 44.2423 75.632C44.5123 75.3945 69.9881 53.032 80.0284 53.032C90.0686 53.032 115.544 75.3999 115.8 75.6267C116.013 75.8049 116.277 75.9113 116.554 75.9308C116.661 75.9307 116.767 75.9067 116.864 75.8606C117.459 75.5709 117.519 74.5001 117.524 74.3777C117.524 74.3579 117.693 71.8258 117.693 69.3099C117.693 66.0759 115.253 63.3026 115.149 63.1857ZM115.411 72.3783C108.841 66.785 89.302 50.8293 80.0266 50.8293C70.7512 50.8293 51.2322 66.767 44.6419 72.3747C44.6023 71.0501 44.5663 70.2439 44.5663 69.0651C44.5663 69.0651 44.4061 67.1161 46.1392 65.1689C60.405 52.3212 75.3619 46.0368 75.819 45.8442C80.2803 43.9708 80.0284 44.3235 80.0248 36.8046C80.1332 36.7971 80.2421 36.7971 80.3505 36.8046C86.6313 37.3697 103.517 53.6583 113.513 64.6686C113.529 64.6884 115.492 66.9361 115.492 69.3081C115.487 70.4185 115.453 71.5144 115.411 72.3783Z" fill="#6E6E6E"/>
</svg>
