<svg width="400" height="400" viewBox="0 0 400 400" fill="none" xmlns="http://www.w3.org/2000/svg">
<path d="M287.961 223.247C285.302 220.318 222.724 151.666 200.066 151.666C177.408 151.666 114.83 220.318 112.162 223.243C111.901 223.531 105.791 230.468 105.791 238.54C105.791 244.838 106.214 251.173 106.219 251.236C106.219 251.529 106.376 254.206 107.874 254.935C108.115 255.054 108.38 255.116 108.648 255.114C109.326 255.067 109.973 254.809 110.497 254.377C111.172 253.783 174.929 197.823 200.053 197.823C225.176 197.823 288.951 253.801 289.59 254.377C290.122 254.822 290.782 255.088 291.475 255.137C291.743 255.138 292.007 255.078 292.249 254.961C293.742 254.233 293.891 251.556 293.904 251.25C293.904 251.2 294.327 244.865 294.327 238.567C294.327 230.473 288.217 223.535 287.961 223.247ZM288.631 246.251C272.174 232.227 223.291 192.32 200.066 192.32C176.842 192.32 127.981 232.205 111.519 246.238C111.42 242.922 111.33 240.906 111.33 237.955C111.33 237.955 110.925 233.082 115.267 228.205C150.963 196.054 188.395 180.33 189.547 179.849C200.709 175.16 200.08 176.038 200.071 157.227C200.342 157.21 200.614 157.21 200.885 157.227C216.6 158.644 258.861 199.402 283.871 226.963C283.916 227.013 288.82 232.637 288.82 238.571C288.807 241.343 288.721 244.083 288.631 246.251Z" fill="#3B3938"/>
<path d="M248.389 283.943C240.462 283.768 232.408 283.943 232.341 283.943C222.658 283.943 214.794 290.656 214.794 298.907C214.794 307.28 222.672 314.092 232.341 314.092C232.408 314.092 240.439 314.258 248.389 314.092C258.089 314.092 265.985 307.28 265.985 298.907C265.99 290.714 258.256 284.141 248.389 283.943ZM242.954 309.93H242.927C242.293 309.93 240.061 310.002 237.874 309.93C232.3 309.93 226.285 305.723 226.285 298.93C226.285 292.136 232.174 288.163 237.843 288.168C237.915 288.168 240.682 288.037 242.954 288.168C248.65 288.168 254.548 292.217 254.548 298.934C254.548 305.651 248.528 309.93 242.954 309.93Z" fill="#3B3938"/>
<path d="M351.438 313.688H361.309C361.309 313.306 361.309 299.318 361.309 299.318C361.309 290.927 353.791 284.35 344.212 284.35H319.219C318.81 284.35 317.87 284.453 317.87 285.443V312.577C317.86 312.72 317.881 312.863 317.929 312.998C317.978 313.133 318.054 313.257 318.152 313.361C318.25 313.465 318.369 313.548 318.501 313.604C318.633 313.661 318.775 313.689 318.918 313.688H329.356C329.356 313.301 329.356 290.99 329.356 290.99C329.347 290.791 329.38 290.591 329.451 290.405C329.523 290.218 329.632 290.048 329.772 289.905C329.912 289.763 330.08 289.65 330.266 289.575C330.451 289.5 330.65 289.464 330.85 289.47H342.354C345.535 289.47 350.241 292.372 350.241 298.594V312.541C350.243 312.695 350.275 312.848 350.337 312.99C350.398 313.131 350.487 313.259 350.598 313.366C350.71 313.473 350.841 313.556 350.986 313.612C351.13 313.667 351.283 313.693 351.438 313.688Z" fill="#3B3938"/>
<path d="M143.078 290.164H158.506V285.494C158.512 285.344 158.489 285.195 158.436 285.055C158.383 284.916 158.303 284.788 158.199 284.68C158.096 284.573 157.971 284.487 157.834 284.429C157.696 284.371 157.548 284.341 157.399 284.342H114.437C114.289 284.342 114.142 284.371 114.006 284.428C113.869 284.486 113.745 284.569 113.641 284.675C113.537 284.78 113.456 284.906 113.401 285.043C113.346 285.181 113.319 285.328 113.321 285.476V290.164H123.583C125.275 290.18 126.894 290.855 128.096 292.045C129.298 293.235 129.989 294.848 130.022 296.539V312.556C130.032 312.852 130.155 313.132 130.366 313.34C130.577 313.547 130.86 313.666 131.155 313.672H141.566V291.626C141.579 291.234 141.744 290.862 142.026 290.589C142.308 290.316 142.686 290.163 143.078 290.164Z" fill="#3B3938"/>
<path d="M95.6067 312.572C95.6169 312.867 95.7394 313.148 95.9493 313.356C96.1591 313.564 96.4405 313.684 96.736 313.692H97.3164L97.2354 313.764C97.5368 313.692 98.5401 313.692 102.036 313.692H107.133V285.46C107.132 285.166 107.016 284.883 106.809 284.674C106.602 284.465 106.321 284.345 106.027 284.34H96.736C96.4403 284.343 96.1575 284.462 95.9476 284.67C95.7377 284.878 95.617 285.16 95.6112 285.456L95.6067 312.572Z" fill="#3B3938"/>
<path d="M198.547 313.69H210.002C209.817 306.64 202.479 303.72 201.633 303.405L201.485 303.351V302.95L201.633 302.919C206.542 301.821 209.966 298.069 209.966 293.79C209.966 289.242 205.521 284.342 198.331 284.342H170.652C169.864 284.334 169.081 284.483 168.351 284.781C167.62 285.079 166.957 285.52 166.399 286.077C165.841 286.635 165.401 287.299 165.103 288.029C164.805 288.759 164.656 289.542 164.664 290.33V312.565C164.658 312.712 164.683 312.858 164.736 312.995C164.79 313.132 164.87 313.256 164.974 313.36C165.077 313.464 165.201 313.546 165.337 313.601C165.473 313.655 165.62 313.681 165.766 313.676H176.159C176.159 313.298 176.159 303.27 176.159 303.27H185.949C194.7 303.288 198.29 309.587 198.547 313.69ZM176.137 298.082V292.234C176.126 291.87 176.19 291.509 176.326 291.172C176.462 290.835 176.667 290.529 176.927 290.276C177.187 290.022 177.497 289.825 177.837 289.697C178.178 289.569 178.541 289.514 178.904 289.534H194.228C194.803 289.519 195.375 289.62 195.91 289.83C196.445 290.041 196.933 290.357 197.344 290.759C197.755 291.162 198.08 291.643 198.302 292.174C198.523 292.704 198.635 293.274 198.632 293.85C198.628 294.425 198.51 294.993 198.282 295.522C198.055 296.05 197.724 296.527 197.308 296.925C196.893 297.323 196.402 297.633 195.864 297.837C195.326 298.041 194.753 298.136 194.178 298.114L176.137 298.082Z" fill="#3B3938"/>
<path d="M78.1102 294.191H89.3175C86.8925 288.055 80.1663 283.844 72.4323 283.695L68.9904 283.623C63.5915 283.511 61.1214 283.457 56.3929 283.695C50.8679 283.974 47.3946 285.234 43.9842 288.194C40.6639 291.092 38.8282 294.916 38.8282 298.992C38.8282 307.383 46.2923 313.965 56.1949 314.311C62.9796 314.554 63.7039 314.559 72.6032 314.311C80.8456 314.064 86.762 310.33 89.3085 303.824H78.1012C77.905 303.817 77.7107 303.865 77.541 303.964C77.3713 304.063 77.2332 304.208 77.1429 304.382C76.0914 306.125 74.6033 307.564 72.8255 308.556C71.0478 309.547 69.0419 310.058 67.0063 310.037C64.7028 310.127 61.9178 310.037 61.9178 310.037C56.2219 310.037 50.328 305.921 50.328 299.041V298.978C50.3685 292.14 56.2489 288.05 61.9493 288.05C62.5972 288.023 64.8917 287.947 66.9973 288.05C71.1545 288.05 75.1452 290.255 77.1564 293.665C77.2554 293.829 77.3957 293.963 77.563 294.055C77.7304 294.148 77.919 294.195 78.1102 294.191Z" fill="#3B3938"/>
<path d="M311.682 308.413H284.539C284.338 308.428 284.136 308.4 283.947 308.332C283.757 308.265 283.583 308.158 283.437 308.02C283.291 307.882 283.175 307.714 283.096 307.529C283.018 307.343 282.979 307.144 282.982 306.942V301.345H306.526V296.198H282.982V291.092C282.984 290.72 283.125 290.362 283.378 290.089C283.559 289.921 283.772 289.793 284.004 289.71C284.236 289.627 284.482 289.592 284.728 289.607H311.682V285.495C311.692 285.345 311.67 285.195 311.618 285.054C311.566 284.913 311.485 284.784 311.381 284.676C311.091 284.447 310.729 284.329 310.36 284.343H272.603C272.449 284.335 272.296 284.36 272.153 284.415C272.01 284.47 271.88 284.555 271.771 284.663C271.662 284.772 271.578 284.902 271.523 285.045C271.468 285.188 271.443 285.342 271.451 285.495V307.716C271.447 308.507 271.601 309.29 271.904 310.021C272.207 310.751 272.653 311.414 273.215 311.97C273.778 312.526 274.445 312.964 275.179 313.259C275.913 313.554 276.698 313.699 277.489 313.686H310.576C310.865 313.681 311.142 313.565 311.349 313.362C311.457 313.265 311.544 313.146 311.604 313.014C311.665 312.882 311.697 312.738 311.7 312.593L311.682 308.413Z" fill="#3B3938"/>
<path d="M303.241 273.732C302.034 273.022 300.65 272.668 299.25 272.711C297.848 272.673 296.463 273.026 295.251 273.732C294.198 274.389 293.352 275.27 292.101 275.27C290.85 275.27 290.108 274.371 288.983 273.732C287.771 273.035 286.391 272.682 284.993 272.711C283.59 272.668 282.204 273.022 280.993 273.732C279.895 274.402 279.337 275.221 279.337 276.166C279.337 277.111 279.895 277.938 280.993 278.609C282.205 279.313 283.591 279.664 284.993 279.621C286.354 279.666 287.703 279.344 288.898 278.69C289.897 278.078 290.976 277.084 292.101 277.084C293.226 277.084 294.252 277.983 295.251 278.613C296.466 279.306 297.847 279.655 299.246 279.621C300.657 279.674 302.054 279.323 303.272 278.609C304.357 277.938 304.892 277.124 304.892 276.166C304.892 275.208 304.348 274.402 303.241 273.732Z" fill="#3B3938"/>
<path d="M287.871 157.966C285.217 155.042 222.697 86.457 200.066 86.457C177.436 86.457 114.916 155.046 112.266 157.966C112.005 158.254 105.904 165.187 105.904 173.263C105.904 179.562 106.327 185.883 106.332 185.946C106.332 186.239 106.489 188.916 107.983 189.64C108.226 189.758 108.492 189.819 108.761 189.82C109.438 189.774 110.084 189.516 110.606 189.082C111.281 188.488 174.97 132.582 200.071 132.582C225.172 132.582 288.861 188.502 289.5 189.069C290.033 189.514 290.692 189.78 291.385 189.829C291.653 189.829 291.917 189.769 292.159 189.654C293.648 188.929 293.797 186.252 293.81 185.946C293.81 185.897 294.233 179.566 294.233 173.277C294.233 165.192 288.132 158.259 287.871 157.966ZM288.528 180.948C272.102 166.964 223.255 127.075 200.066 127.075C176.878 127.075 128.08 166.919 111.605 180.939C111.506 177.627 111.416 175.612 111.416 172.665C111.416 172.665 111.015 167.792 115.348 162.924C151.013 130.805 188.405 115.094 189.547 114.613C200.701 109.929 200.071 110.811 200.062 92.0135C200.333 91.9947 200.605 91.9947 200.876 92.0135C216.578 93.4262 258.794 134.148 283.782 161.673C283.822 161.723 288.731 167.342 288.731 173.272C288.717 176.048 288.632 178.788 288.528 180.948Z" fill="#3B3938"/>
</svg>
