<svg width="80" height="80" viewBox="0 0 80 80" fill="none" xmlns="http://www.w3.org/2000/svg">
<g clip-path="url(#clip0)">
<path d="M57.5924 44.6487C57.0606 44.063 44.5449 30.3325 40.0134 30.3325C35.4819 30.3325 22.9662 44.063 22.4326 44.6478C22.3804 44.7054 21.1584 46.093 21.1584 47.7072C21.1584 48.967 21.243 50.234 21.2439 50.2465C21.2439 50.305 21.2754 50.8404 21.5751 50.9862C21.6231 51.0102 21.6761 51.0225 21.7298 51.0222C21.8655 51.0127 21.9947 50.9611 22.0997 50.8746C22.2346 50.7559 34.9861 39.5638 40.0107 39.5638C45.0353 39.5638 57.7903 50.7595 57.9181 50.8746C58.0246 50.9638 58.1566 51.017 58.2951 51.0267C58.3487 51.027 58.4017 51.015 58.4499 50.9916C58.7486 50.8458 58.7783 50.3104 58.781 50.2493C58.781 50.2394 58.8656 48.9724 58.8656 47.7126C58.8656 46.0939 57.6437 44.7063 57.5924 44.6487ZM57.7264 49.2495C54.4349 46.4448 44.6583 38.4633 40.0134 38.4633C35.3685 38.4633 25.5964 46.4403 22.3039 49.2468C22.2841 48.5837 22.2661 48.1806 22.2661 47.5903C22.2661 47.5903 22.1851 46.6158 23.0535 45.6403C30.1927 39.2102 37.6792 36.0653 37.9096 35.969C40.1421 35.0314 40.0161 35.2069 40.0143 31.4447C40.0685 31.4413 40.1229 31.4413 40.1772 31.4447C43.3202 31.7281 51.7723 39.8797 56.7744 45.392C56.7834 45.4019 57.7642 46.5267 57.7642 47.7135C57.7615 48.2678 57.7444 48.8158 57.7264 49.2495Z" fill="#6E6E6E"/>
<path d="M49.6777 56.7885C48.0922 56.7535 46.4816 56.7885 46.4681 56.7885C44.5316 56.7885 42.9587 58.1311 42.9587 59.7814C42.9587 61.4559 44.5343 62.8183 46.4681 62.8183C46.4816 62.8183 48.0877 62.8516 49.6777 62.8183C51.6178 62.8183 53.197 61.4559 53.197 59.7814C53.1979 58.1428 51.6511 56.8281 49.6777 56.7885ZM48.5908 61.9859H48.5854C48.4585 61.9859 48.0122 62.0003 47.5748 61.9859C46.46 61.9859 45.2569 61.1446 45.2569 59.7859C45.2569 58.4271 46.4348 57.6326 47.5685 57.6335C47.5829 57.6335 48.1363 57.6074 48.5908 57.6335C49.7299 57.6335 50.9096 58.4433 50.9096 59.7868C50.9096 61.1302 49.7056 61.9859 48.5908 61.9859Z" fill="#6E6E6E"/>
<path d="M70.2873 62.7369H72.2615C72.2615 62.6604 72.2615 59.8629 72.2615 59.8629C72.2615 58.1847 70.7579 56.8691 68.8422 56.8691H63.8436C63.7617 56.8691 63.5737 56.8898 63.5737 57.0878V62.5146C63.5718 62.5432 63.5759 62.5719 63.5856 62.5989C63.5953 62.6259 63.6105 62.6505 63.6301 62.6714C63.6498 62.6922 63.6736 62.7088 63.6999 62.7201C63.7263 62.7314 63.7547 62.7371 63.7833 62.7369H65.8709C65.8709 62.6595 65.8709 58.1973 65.8709 58.1973C65.8692 58.1573 65.8757 58.1175 65.89 58.0801C65.9043 58.0428 65.9262 58.0088 65.9542 57.9803C65.9822 57.9518 66.0158 57.9293 66.0529 57.9143C66.0899 57.8993 66.1297 57.8921 66.1697 57.8931H68.4705C69.1067 57.8931 70.0479 58.4735 70.0479 59.718V62.5074C70.0483 62.5383 70.0548 62.5688 70.067 62.5971C70.0793 62.6255 70.0971 62.6511 70.1194 62.6724C70.1417 62.6938 70.168 62.7105 70.1969 62.7216C70.2257 62.7326 70.2564 62.7379 70.2873 62.7369Z" fill="#6E6E6E"/>
<path d="M28.6155 58.033H31.701V57.099C31.7024 57.0692 31.6976 57.0393 31.6871 57.0114C31.6766 56.9834 31.6605 56.9579 31.6398 56.9364C31.6191 56.9148 31.5942 56.8977 31.5667 56.8861C31.5392 56.8744 31.5096 56.8685 31.4797 56.8687H22.8872C22.8576 56.8687 22.8283 56.8745 22.801 56.886C22.7737 56.8974 22.7489 56.9142 22.7282 56.9353C22.7074 56.9564 22.691 56.9814 22.68 57.0089C22.669 57.0364 22.6636 57.0658 22.6641 57.0954V58.033H24.7166C25.0549 58.0362 25.3787 58.1712 25.6191 58.4093C25.8595 58.6474 25.9977 58.9698 26.0042 59.3081V62.5114C26.0063 62.5706 26.031 62.6267 26.0731 62.6682C26.1153 62.7097 26.1718 62.7335 26.231 62.7346H28.3132V58.3255C28.3158 58.247 28.3487 58.1726 28.4052 58.1181C28.4616 58.0635 28.537 58.033 28.6155 58.033Z" fill="#6E6E6E"/>
<path d="M19.1213 62.5141C19.1234 62.5732 19.1479 62.6292 19.1899 62.6709C19.2318 62.7125 19.2881 62.7366 19.3472 62.7381H19.4633L19.4471 62.7525C19.5074 62.7381 19.708 62.7381 20.4072 62.7381H21.4267V57.0917C21.4265 57.0328 21.4032 56.9764 21.3618 56.9345C21.3204 56.8926 21.2642 56.8686 21.2053 56.8677H19.3472C19.2881 56.8684 19.2315 56.892 19.1895 56.9337C19.1475 56.9753 19.1234 57.0317 19.1222 57.0908L19.1213 62.5141Z" fill="#6E6E6E"/>
<path d="M39.7094 62.7378H42.0003C41.9634 61.3278 40.4958 60.7438 40.3266 60.6808L40.2969 60.67V60.5899L40.3266 60.5836C41.3083 60.364 41.9931 59.6136 41.9931 58.7579C41.9931 57.8481 41.1041 56.8682 39.6662 56.8682H34.1304C33.9727 56.8665 33.8162 56.8964 33.6701 56.956C33.5241 57.0156 33.3914 57.1037 33.2798 57.2153C33.1683 57.3268 33.0801 57.4595 33.0205 57.6056C32.9609 57.7517 32.9311 57.9081 32.9328 58.0659V62.5128C32.9317 62.5422 32.9366 62.5714 32.9472 62.5988C32.9579 62.6261 32.9741 62.651 32.9947 62.6718C33.0154 62.6927 33.0401 62.7091 33.0674 62.7199C33.0947 62.7308 33.1239 62.736 33.1532 62.7351H35.2318C35.2318 62.6595 35.2318 60.6538 35.2318 60.6538H37.1898C38.94 60.6574 39.6581 61.9171 39.7094 62.7378ZM35.2273 59.6163V58.4465C35.2251 58.3739 35.238 58.3015 35.2652 58.2341C35.2924 58.1667 35.3333 58.1057 35.3853 58.0549C35.4374 58.0042 35.4994 57.9648 35.5674 57.9392C35.6355 57.9137 35.7081 57.9026 35.7807 57.9066H38.8455C38.9605 57.9036 39.0749 57.9238 39.182 57.9659C39.2891 58.0079 39.3866 58.0711 39.4687 58.1516C39.5509 58.2321 39.616 58.3283 39.6603 58.4345C39.7045 58.5407 39.727 58.6547 39.7263 58.7697C39.7257 58.8848 39.7019 58.9985 39.6564 59.1041C39.6109 59.2098 39.5447 59.3052 39.4616 59.3848C39.3785 59.4644 39.2803 59.5264 39.1728 59.5672C39.0652 59.6081 38.9506 59.6269 38.8356 59.6226L35.2273 59.6163Z" fill="#6E6E6E"/>
<path d="M15.622 58.8379H17.8635C17.3785 57.6105 16.0332 56.7683 14.4864 56.7386L13.7981 56.7242C12.7183 56.7017 12.2243 56.6909 11.2785 56.7386C10.1736 56.7944 9.47889 57.0464 8.79682 57.6384C8.13275 58.2179 7.76562 58.9828 7.76562 59.798C7.76562 61.4762 9.25844 62.7926 11.239 62.8619C12.5959 62.9105 12.7408 62.9114 14.5206 62.8619C16.1691 62.8124 17.3524 62.0656 17.8617 60.7644H15.6202C15.581 60.7629 15.5421 60.7726 15.5082 60.7924C15.4742 60.8121 15.4466 60.8411 15.4285 60.876C15.2183 61.2246 14.9206 61.5124 14.5651 61.7107C14.2095 61.9091 13.8084 62.0113 13.4012 62.0071C12.9405 62.0251 12.3835 62.0071 12.3835 62.0071C11.2443 62.0071 10.0656 61.1837 10.0656 59.8079V59.7953C10.0737 58.4276 11.2497 57.6096 12.3898 57.6096C12.5194 57.6042 12.9783 57.5889 13.3994 57.6096C14.2309 57.6096 15.029 58.0506 15.4312 58.7326C15.4511 58.7653 15.4791 58.7922 15.5126 58.8107C15.546 58.8292 15.5838 58.8386 15.622 58.8379Z" fill="#6E6E6E"/>
<path d="M62.3363 61.6825H56.9077C56.8675 61.6854 56.8272 61.6799 56.7892 61.6663C56.7513 61.6528 56.7166 61.6315 56.6873 61.6038C56.658 61.5762 56.6348 61.5427 56.6192 61.5056C56.6035 61.4685 56.5957 61.4285 56.5963 61.3883V60.2689H61.3051V59.2395H56.5963V58.2182C56.5966 58.1437 56.6249 58.0721 56.6755 58.0175C56.7117 57.9841 56.7543 57.9583 56.8007 57.9418C56.847 57.9253 56.8963 57.9183 56.9455 57.9212H62.3363V57.0988C62.3382 57.0688 62.3338 57.0388 62.3235 57.0106C62.3131 56.9824 62.2969 56.9566 62.276 56.935C62.218 56.8892 62.1456 56.8656 62.0718 56.8684H54.5204C54.4898 56.8669 54.4591 56.8718 54.4305 56.8828C54.4018 56.8939 54.3758 56.9108 54.3541 56.9325C54.3324 56.9542 54.3155 56.9802 54.3045 57.0088C54.2934 57.0375 54.2885 57.0681 54.2901 57.0988V61.543C54.2893 61.7012 54.3202 61.8579 54.3808 62.004C54.4414 62.1501 54.5305 62.2826 54.643 62.3938C54.7554 62.505 54.8889 62.5926 55.0357 62.6516C55.1825 62.7105 55.3395 62.7396 55.4976 62.7371H62.115C62.1729 62.736 62.2283 62.7128 62.2697 62.6723C62.2913 62.6528 62.3087 62.6291 62.3207 62.6026C62.3328 62.5762 62.3393 62.5475 62.3399 62.5184L62.3363 61.6825Z" fill="#6E6E6E"/>
<path d="M60.6484 54.746C60.407 54.604 60.1303 54.5331 59.8503 54.5417C59.5699 54.5342 59.2929 54.6049 59.0504 54.746C58.8398 54.8773 58.6706 55.0537 58.4205 55.0537C58.1703 55.0537 58.0219 54.8737 57.7969 54.746C57.5544 54.6066 57.2784 54.5359 56.9988 54.5417C56.7182 54.5333 56.441 54.6041 56.1988 54.746C55.9793 54.88 55.8677 55.0438 55.8677 55.2328C55.8677 55.4217 55.9793 55.5873 56.1988 55.7214C56.4413 55.8623 56.7184 55.9324 56.9988 55.9238C57.2711 55.9328 57.5408 55.8685 57.7798 55.7376C57.9796 55.6152 58.1955 55.4163 58.4205 55.4163C58.6454 55.4163 58.8506 55.5963 59.0504 55.7223C59.2934 55.8609 59.5697 55.9306 59.8494 55.9238C60.1316 55.9344 60.411 55.8641 60.6547 55.7214C60.8716 55.5873 60.9787 55.4244 60.9787 55.2328C60.9787 55.0411 60.8698 54.88 60.6484 54.746Z" fill="#6E6E6E"/>
<path d="M57.5746 31.5933C57.0437 31.0084 44.5397 17.2915 40.0136 17.2915C35.4875 17.2915 22.9835 31.0093 22.4535 31.5933C22.4013 31.6509 21.1812 33.0375 21.1812 34.6527C21.1812 35.9125 21.2657 37.1767 21.2666 37.1893C21.2666 37.2478 21.2981 37.7832 21.5969 37.9281C21.6454 37.9516 21.6986 37.9639 21.7525 37.9641C21.888 37.9548 22.017 37.9032 22.1215 37.8165C22.2564 37.6977 34.9944 26.5165 40.0145 26.5165C45.0346 26.5165 57.7725 37.7004 57.9003 37.8138C58.0068 37.9029 58.1388 37.9562 58.2773 37.9659C58.3309 37.9659 58.3838 37.9539 58.4321 37.9308C58.7299 37.7859 58.7596 37.2505 58.7623 37.1893C58.7623 37.1794 58.8469 35.9134 58.8469 34.6554C58.8469 33.0384 57.6268 31.6518 57.5746 31.5933ZM57.706 36.1896C54.4207 33.393 44.6513 25.4151 40.0136 25.4151C35.3759 25.4151 25.6164 33.384 22.3212 36.1878C22.3014 35.5256 22.2834 35.1224 22.2834 34.5331C22.2834 34.5331 22.2034 33.5585 23.0699 32.5849C30.2028 26.1611 37.6812 23.0189 37.9098 22.9226C40.1405 21.9859 40.0145 22.1623 40.0127 18.4028C40.0669 18.399 40.1213 18.399 40.1756 18.4028C43.3159 18.6853 51.759 26.8296 56.7566 32.3348C56.7647 32.3447 57.7464 33.4686 57.7464 34.6545C57.7437 35.2097 57.7266 35.7577 57.706 36.1896Z" fill="#6E6E6E"/>
</g>
<defs>
<clipPath id="clip0">
<rect width="80" height="80" fill="white"/>
</clipPath>
</defs>
</svg>
