<svg width="22" height="25" viewBox="0 0 22 25" fill="none" xmlns="http://www.w3.org/2000/svg">
<path d="M11 0.956055C5.2522 0.956055 0.599976 5.60754 0.599976 11.3561V15.6085C0.599976 17.52 2.15512 19.0752 4.06664 19.0752H6.14664V10.7552H4.06664C3.28683 10.7552 2.56645 11.0141 1.98664 11.4504V11.3561C1.98664 6.3861 6.03002 2.34272 11 2.34272C15.9699 2.34272 20.0133 6.3861 20.0133 11.3561V11.4504C19.4335 11.0141 18.7131 10.7552 17.9333 10.7552H15.8533V19.0752H17.9333C18.3375 19.0752 18.7255 19.0049 19.0865 18.8772C17.9865 20.6586 16.0164 21.8485 13.7733 21.8485H12.9607C12.6745 21.0416 11.9039 20.4618 11 20.4618C9.85306 20.4618 8.91998 21.3949 8.91998 22.5418C8.91998 23.6887 9.85306 24.6218 11 24.6218C11.9039 24.6218 12.6745 24.0421 12.9607 23.2352H13.7733C17.9787 23.2352 21.4 19.8138 21.4 15.6085C21.4 15.1032 21.4 11.8299 21.4 11.3561C21.4 5.60828 16.7485 0.956055 11 0.956055ZM4.06664 12.1418H4.75998V17.6885H4.06664C2.91973 17.6885 1.98664 16.7554 1.98664 15.6085V14.2218C1.98664 13.0749 2.91973 12.1418 4.06664 12.1418ZM11 23.2352C10.6177 23.2352 10.3066 22.9241 10.3066 22.5418C10.3066 22.1595 10.6177 21.8485 11 21.8485C11.3823 21.8485 11.6933 22.1595 11.6933 22.5418C11.6933 22.9241 11.3823 23.2352 11 23.2352ZM20.0133 15.6085C20.0133 16.7554 19.0802 17.6885 17.9333 17.6885H17.24V12.1418H17.9333C19.0802 12.1418 20.0133 13.0749 20.0133 14.2218V15.6085Z" fill="#9D0605"/>
</svg>
