<svg width="26" height="26" viewBox="0 0 26 26" fill="none" xmlns="http://www.w3.org/2000/svg">
<path d="M2 5V11H8" stroke="#9D0605" stroke-width="2" stroke-linecap="round" stroke-linejoin="round"/>
<path d="M24 21V15H18" stroke="#9D0605" stroke-width="2" stroke-linecap="round" stroke-linejoin="round"/>
<path d="M21.49 9.99921C20.9828 8.56562 20.1209 7.2839 18.9845 6.27365C17.8482 5.2634 16.4745 4.55755 14.9917 4.22195C13.5089 3.88636 11.9652 3.93196 10.5048 4.3545C9.04437 4.77704 7.71475 5.56276 6.64 6.63833L2 10.9995M24 15.0005L19.36 19.3617C18.2853 20.4372 16.9556 21.223 15.4952 21.6455C14.0348 22.068 12.4911 22.1136 11.0083 21.7781C9.52547 21.4425 8.1518 20.7366 7.01547 19.7263C5.87913 18.7161 5.01717 17.4344 4.51 16.0008" stroke="#9D0605" stroke-width="2" stroke-linecap="round" stroke-linejoin="round"/>
</svg>
