<svg width="500" height="500" viewBox="0 0 500 500" fill="none" xmlns="http://www.w3.org/2000/svg">
<rect width="500" height="500" fill="black"/>
<path d="M156.25 0H0V156.25H156.25V0ZM125 125H31.25V31.25H125V125Z" fill="white"/>
<path d="M93.75 62.5H62.5V93.75H93.75V62.5Z" fill="white"/>
<path d="M343.75 0V156.25H500V0H343.75ZM468.75 125H375V31.25H468.75V125Z" fill="white"/>
<path d="M437.5 62.5H406.25V93.75H437.5V62.5Z" fill="white"/>
<path d="M0 500H156.25V343.75H0V500ZM31.25 375H125V468.75H31.25V375Z" fill="white"/>
<path d="M93.75 406.25H62.5V437.5H93.75V406.25Z" fill="white"/>
<path d="M312.5 0H250V31.25H312.5V0Z" fill="white"/>
<path d="M250 125H281.25V93.75H312.5V62.5H218.75V31.25H187.5V62.5V78.125V93.75H250V125Z" fill="white"/>
<path d="M218.75 125H187.5V156.25H218.75V125Z" fill="white"/>
<path d="M312.5 156.25H281.25V187.5H187.5V218.75H312.5V156.25Z" fill="white"/>
<path d="M31.25 281.25H62.5V250H31.25V187.5H0V312.5H31.25V281.25Z" fill="white"/>
<path d="M93.75 187.5H62.5V218.75H93.75V187.5Z" fill="white"/>
<path d="M187.5 312.5H250V281.25H218.75V250H156.25V187.5H125V250H93.75V312.5H125V281.25H140.625H156.25H187.5V312.5Z" fill="white"/>
<path d="M312.5 250H281.25V312.5H312.5V250Z" fill="white"/>
<path d="M281.25 343.75H187.5V375H250V468.75H187.5V500H281.25V468.75H343.75V437.5H281.25V343.75Z" fill="white"/>
<path d="M218.75 406.25H187.5V437.5H218.75V406.25Z" fill="white"/>
<path d="M343.75 343.75H312.5V406.25H343.75V343.75Z" fill="white"/>
<path d="M468.75 406.25H375V500H406.25V437.5H468.75V406.25Z" fill="white"/>
<path d="M500 468.75H437.5V500H500V468.75Z" fill="white"/>
<path d="M500 343.75H468.75V375H500V343.75Z" fill="white"/>
<path d="M375 375H406.25V281.25H343.75V312.5H375V375Z" fill="white"/>
<path d="M437.5 218.75H406.25V187.5H375V218.75H343.75V250H468.75V218.75H500V187.5H437.5V218.75Z" fill="white"/>
<path d="M500 281.25H437.5V312.5H500V281.25Z" fill="white"/>
</svg>
