<svg width="42" height="42" viewBox="0 0 42 42" fill="none" xmlns="http://www.w3.org/2000/svg">
<path d="M13.6172 27.2344H28.3828C29.0624 27.2344 29.6133 26.6835 29.6133 26.0039C29.6133 25.3244 29.0624 24.7734 28.3828 24.7734H13.6172C12.9376 24.7734 12.3867 25.3244 12.3867 26.0039C12.3867 26.6835 12.9376 27.2344 13.6172 27.2344Z" fill="#9D0706"/>
<path d="M13.6172 32.1562H28.3828C29.0624 32.1562 29.6133 31.6053 29.6133 30.9258C29.6133 30.2462 29.0624 29.6953 28.3828 29.6953H13.6172C12.9376 29.6953 12.3867 30.2462 12.3867 30.9258C12.3867 31.6053 12.9376 32.1562 13.6172 32.1562Z" fill="#9D0706"/>
<path d="M41.6396 6.92295L35.0771 0.360445C34.8463 0.129609 34.5334 0 34.207 0H1.23047C0.550922 0 0 0.550922 0 1.23047V40.7695C0 41.4491 0.550922 42 1.23047 42C1.79747 42 40.4 42 40.7695 42C41.4491 42 42 41.4491 42 40.7695V7.79297C42 7.46657 41.8703 7.15362 41.6396 6.92295ZM9.92578 2.46094H27.1523V10.6641H9.92578V2.46094ZM32.0742 39.5391H9.92578V22.3125H32.0742V39.5391ZM39.5391 39.5391H34.5352V21.082C34.5352 20.4025 33.9842 19.8516 33.3047 19.8516H8.69531C8.01577 19.8516 7.46484 20.4025 7.46484 21.082V39.5391H2.46094V2.46094H7.46484V11.8945C7.46484 12.5741 8.01577 13.125 8.69531 13.125H28.3828C29.0624 13.125 29.6133 12.5741 29.6133 11.8945V2.46094H33.6974L39.5391 8.30263V39.5391Z" fill="#9D0706"/>
<path d="M13.6172 37.0781H28.3828C29.0624 37.0781 29.6133 36.5272 29.6133 35.8477C29.6133 35.1681 29.0624 34.6172 28.3828 34.6172H13.6172C12.9376 34.6172 12.3867 35.1681 12.3867 35.8477C12.3867 36.5272 12.9376 37.0781 13.6172 37.0781Z" fill="#9D0706"/>
</svg>
