<svg width="48" height="48" viewBox="0 0 48 48" fill="none" xmlns="http://www.w3.org/2000/svg">
<g clip-path="url(#clip0)">
<path d="M39.4312 29.799C39.4205 29.7883 39.4205 29.7883 39.4098 29.7776L23.3741 13.7954V7.98571C23.3741 3.58017 19.7939 0 15.3884 0C10.9828 0 7.40265 3.58017 7.40265 7.99643V23.2818L7.19899 23.4962C3.57594 27.13 3.57594 33.0147 7.20971 36.6485L12.0333 41.4721C15.6671 45.1059 21.5518 45.1059 25.1856 41.4721L36.6228 30.0348L37.9091 31.2997C38.3272 31.7177 39.0025 31.7285 39.4205 31.3104C39.8386 30.8924 39.8493 30.2171 39.4312 29.799ZM9.54646 7.99643C9.54646 4.76999 12.1619 2.15453 15.3884 2.15453C18.6148 2.15453 21.2303 4.76999 21.2303 7.99643V11.6624L19.0114 9.4435C18.5934 9.02546 17.9181 9.02546 17.5 9.45422C17.082 9.87226 17.082 10.5476 17.5107 10.9656L18.6255 12.0911L9.54646 21.138V7.99643ZM21.9056 24.9111C23.0954 24.9111 24.0708 25.8758 24.0708 27.0657C24.0708 28.2555 23.1061 29.2309 21.9163 29.2309C20.7265 29.2309 19.751 28.2662 19.751 27.0764C19.751 25.8866 20.7157 24.9218 21.9056 24.9111ZM23.6742 39.9607C20.8872 42.7584 16.3531 42.7584 13.5554 39.9714C13.5554 39.9714 13.5554 39.9714 13.5447 39.9607L8.7211 35.1371C5.93414 32.3394 5.93414 27.816 8.7211 25.0183L9.36424 24.3752L20.1369 13.5918L21.2303 14.6958V22.8316C18.8828 23.1961 17.2749 25.4042 17.6501 27.7517C18.0145 30.0992 20.2227 31.707 22.5701 31.3318C24.6604 30.9996 26.2039 29.1988 26.2039 27.0871C26.2253 25.2756 25.0891 23.6463 23.3741 23.046V16.8289L35.1115 28.5127L23.6742 39.9607Z" fill="#9D0605"/>
<path d="M35.1997 41.5994V44.7994L35.9997 45.5994L39.1997 46.3994L41.5997 44.7994L42.3997 43.9994L41.5997 41.5994L39.1997 38.3994L37.5997 39.1994L35.9997 40.7994L35.1997 41.5994Z" fill="#9D0605"/>
<path d="M42.1113 39.6612L39.4208 36.96C39.0028 36.542 38.3275 36.542 37.9094 36.96L35.1975 39.6612C33.2895 41.5585 33.2681 44.6456 35.1653 46.5536C36.0872 47.4754 37.3306 48.0007 38.6276 48.0007C39.9246 48.0007 41.168 47.4969 42.1006 46.5965L42.1113 46.5857C43.9871 44.7099 43.9871 41.5371 42.1113 39.6612ZM40.6213 45.0636C40.0854 45.5781 39.3779 45.8568 38.649 45.8568C37.9309 45.8568 37.2341 45.5781 36.7303 45.0744C35.6799 43.9917 35.6799 42.266 36.7303 41.1833L38.6705 39.2325L40.6213 41.1833C41.6611 42.266 41.6611 43.981 40.6213 45.0636Z" fill="#9D0605"/>
</g>
<defs>
<clipPath id="clip0">
<rect width="48" height="48" fill="white"/>
</clipPath>
</defs>
</svg>
