<svg width="39" height="39" viewBox="0 0 39 39" fill="none" xmlns="http://www.w3.org/2000/svg">
<g clip-path="url(#clip0)">
<path d="M0.123349 3.578L2.72434 8.12946C2.81207 8.28327 2.95892 8.39454 3.13064 8.4376L5.55723 9.04425L13.8799 17.3669L14.7995 16.4476L6.34657 7.99492C6.26338 7.91147 6.15907 7.85235 6.04485 7.82373L3.71322 7.23875L1.49874 3.36134L3.39732 1.46276L7.27634 3.67938L7.86159 6.01101C7.88994 6.12549 7.94932 6.23008 8.03251 6.31327L16.4855 14.7662L17.4048 13.8466L9.0821 5.52393L8.47546 3.09868C8.43239 2.92668 8.32112 2.77957 8.16732 2.69157L3.61559 0.0908471C3.36175 -0.0535928 3.04237 -0.0107957 2.83534 0.195432L0.234621 2.79642C0.0254509 3.00211 -0.0200209 3.32202 0.123349 3.578Z" fill="#9D0706"/>
<path d="M27.1565 12.8148L12.8519 27.1197L11.9323 26.2001L26.2372 11.8955L27.1565 12.8148Z" fill="#9D0706"/>
<path d="M10.3483 27.6259C10.2306 27.4301 10.0192 27.3105 9.79082 27.3105H5.88961C5.66144 27.3105 5.44987 27.4301 5.33244 27.6259L3.3817 30.8769C3.25786 31.0828 3.25786 31.3404 3.3817 31.5466L5.33244 34.7976C5.44987 34.9931 5.66144 35.113 5.88961 35.113H9.79082C10.0192 35.113 10.2306 34.9931 10.3483 34.7976L12.2987 31.5466C12.4226 31.3404 12.4226 31.0828 12.2987 30.8769L10.3483 27.6259ZM9.42303 33.8125H6.25766L4.69717 31.2117L6.25766 28.6108H9.42303L10.9835 31.2117L9.42303 33.8125Z" fill="#9D0706"/>
<path d="M31.2479 15.6065C35.5423 15.6209 39.0356 12.1511 39.05 7.85671C39.0522 7.20299 38.9719 6.55194 38.8112 5.91828C38.7245 5.56975 38.3717 5.35764 38.0232 5.4443C37.9087 5.47292 37.8044 5.53203 37.7209 5.61522L33.6734 9.66007L30.462 8.58988L29.391 5.3793L33.4385 1.33097C33.6924 1.07686 33.6921 0.665211 33.438 0.411371C33.3543 0.32765 33.2489 0.268269 33.1336 0.239916C28.9689 -0.814763 24.7382 1.70625 23.6835 5.87067C23.5233 6.50246 23.4433 7.1519 23.4454 7.80375C23.447 8.31571 23.4997 8.82607 23.6035 9.32733L9.3636 23.567C8.86234 23.4634 8.35199 23.4108 7.8403 23.4089C3.5309 23.4089 0.0375977 26.9022 0.0375977 31.2116C0.0375977 35.5207 3.5309 39.014 7.8403 39.014C12.1494 39.014 15.6427 35.5207 15.6427 31.2116C15.6411 30.6996 15.5882 30.1893 15.4846 29.688L18.8937 26.279L20.3846 27.7699C20.6387 28.0237 21.0501 28.0237 21.3042 27.7699L21.6292 27.4446C21.9144 27.1614 22.3752 27.1614 22.6604 27.4446C22.9452 27.7287 22.9458 28.1898 22.6617 28.4747C22.6614 28.475 22.6609 28.4755 22.6604 28.476L22.3354 28.801C22.0815 29.0549 22.0815 29.4665 22.3354 29.7204L30.0918 37.4768C32.1319 39.5356 35.4545 39.5506 37.5133 37.5105C39.5719 35.4704 39.5869 32.1475 37.5468 30.089C37.5358 30.0777 37.5246 30.0665 37.5133 30.0553L29.7569 22.2991C29.5031 22.0453 29.0914 22.0453 28.8376 22.2991L28.5126 22.6241C28.2272 22.9076 27.7666 22.9076 27.4812 22.6241C27.1966 22.34 27.1958 21.8789 27.4798 21.5943C27.4804 21.5938 27.4809 21.5935 27.4812 21.593L27.8064 21.2677C28.0603 21.0139 28.0603 20.6022 27.8064 20.3484L26.3155 18.8574L29.7246 15.4484C30.2258 15.5519 30.7362 15.6048 31.2479 15.6065ZM33.8026 37.7138C33.3302 37.713 32.8618 37.6277 32.4197 37.4615L37.4978 32.3831C38.2642 34.4216 37.233 36.6952 35.1945 37.4615C34.7497 37.6287 34.2782 37.7143 33.8026 37.7138ZM26.4364 20.8146C25.7163 21.6735 25.8292 22.9536 26.6881 23.6734C27.4429 24.306 28.5431 24.3055 29.2971 23.6715L36.594 30.9749C36.6732 31.0543 36.7473 31.138 36.819 31.2231L31.2596 36.7824C31.1743 36.711 31.0906 36.6369 31.0111 36.5575L23.7086 29.2544C24.4287 28.3955 24.3158 27.1154 23.4569 26.3956C22.7021 25.7627 21.6017 25.7635 20.8476 26.3972L19.8074 25.3569L25.3959 19.7768L26.4364 20.8146ZM29.062 14.2749L14.3117 29.0222C14.1499 29.1838 14.0849 29.4184 14.14 29.6401C15.0321 33.1433 12.9152 36.7064 9.41175 37.5982C5.90855 38.4903 2.34543 36.3734 1.45338 32.87C0.561594 29.3668 2.67844 25.8036 6.18191 24.9116C7.24167 24.642 8.35199 24.642 9.41175 24.9116C9.63349 24.9659 9.86754 24.9009 10.0296 24.7401L24.7764 9.99255C24.938 9.83099 25.003 9.59641 24.9473 9.37494C24.0614 5.91266 26.1499 2.38779 29.6122 1.50163C30.2665 1.33445 30.9432 1.27025 31.6172 1.31225L28.1873 4.7435C28.0132 4.91736 27.9522 5.17495 28.0301 5.40846L29.3303 9.30994C29.3953 9.50387 29.5477 9.65633 29.7419 9.72079L33.6434 11.0213C33.8767 11.0991 34.1342 11.0384 34.3084 10.8645L37.7383 7.43463C37.746 7.55874 37.7501 7.68151 37.7501 7.80375C37.7682 11.3765 34.8869 14.2875 31.3142 14.306C30.7618 14.3086 30.2114 14.2407 29.6764 14.1037C29.4547 14.0484 29.2201 14.1131 29.0585 14.2747H29.062V14.2749Z" fill="#9D0706"/>
<path d="M33.6588 32.7021L32.7392 33.6217L26.2372 27.1198L27.1566 26.2002L33.6588 32.7021Z" fill="#9D0706"/>
</g>
<defs>
<clipPath id="clip0">
<rect width="39" height="39" fill="white"/>
</clipPath>
</defs>
</svg>
