<svg width="44" height="31" viewBox="0 0 44 31" fill="none" xmlns="http://www.w3.org/2000/svg">
<path d="M18.0707 27.9552C17.7666 28.2671 17.5976 28.6863 17.6004 29.1219C17.6031 29.5575 17.7774 29.9745 18.0854 30.2825C18.3935 30.5906 18.8105 30.7649 19.2461 30.7676C19.6817 30.7704 20.1009 30.6014 20.4128 30.2973C20.7234 29.9868 21.1446 29.8124 21.5838 29.8124C22.0229 29.8124 22.4441 29.9868 22.7547 30.2973C23.0667 30.6014 23.4858 30.7704 23.9214 30.7676C24.3571 30.7649 24.7741 30.5906 25.0821 30.2825C25.3901 29.9745 25.5644 29.5575 25.5672 29.1219C25.5699 28.6863 25.401 28.2671 25.0968 27.9552C24.1645 27.0246 22.9011 26.502 21.5838 26.502C20.2665 26.502 19.003 27.0246 18.0707 27.9552Z" fill="#9D0706"/>
<path d="M24.26 18.4911C23.8297 18.4025 23.3819 18.4885 23.015 18.7301C22.6481 18.9717 22.3923 19.3491 22.3037 19.7794C22.2151 20.2096 22.3011 20.6575 22.5427 21.0243C22.7843 21.3912 23.1617 21.6471 23.592 21.7357C25.4943 22.1261 27.2399 23.0671 28.6118 24.4416C28.7647 24.5993 28.9474 24.7249 29.1494 24.8113C29.3513 24.8976 29.5684 24.9429 29.788 24.9446C30.0076 24.9463 30.2254 24.9042 30.4286 24.8209C30.6318 24.7377 30.8164 24.6148 30.9717 24.4595C31.127 24.3042 31.2499 24.1196 31.3331 23.9163C31.4164 23.7131 31.4584 23.4954 31.4567 23.2757C31.4551 23.0561 31.4097 22.839 31.3234 22.6371C31.237 22.4352 31.1113 22.2524 30.9537 22.0995C29.1243 20.2668 26.7966 19.012 24.26 18.4911Z" fill="#9D0706"/>
<path d="M30.7748 11.9922C30.3795 11.818 29.9318 11.8051 29.5271 11.9563C29.1224 12.1075 28.7929 12.4109 28.6087 12.8016C28.4245 13.1924 28.4002 13.6396 28.5411 14.048C28.682 14.4564 28.9769 14.7935 29.3629 14.9876C31.2588 15.8829 32.9851 17.1003 34.4649 18.5856C34.7754 18.8964 35.1966 19.0712 35.6359 19.0714C35.8535 19.0715 36.0689 19.0288 36.2699 18.9456C36.4709 18.8625 36.6536 18.7406 36.8074 18.5869C36.9613 18.4331 37.0834 18.2506 37.1668 18.0497C37.2501 17.8487 37.2931 17.6334 37.2932 17.4159C37.2933 17.1983 37.2506 16.9829 37.1675 16.7819C37.0843 16.5809 36.9624 16.3982 36.8087 16.2443C35.059 14.488 33.0173 13.0493 30.7748 11.9922Z" fill="#9D0706"/>
<path d="M42.6646 10.3872C41.0448 8.76686 39.2447 7.33743 37.2996 6.12678C37.1149 6.00733 36.9082 5.92587 36.6917 5.88716C36.4751 5.84846 36.253 5.85329 36.0383 5.90136C35.8237 5.94943 35.6207 6.03979 35.4413 6.16716C35.262 6.29453 35.1098 6.45635 34.9936 6.64319C34.8775 6.83002 34.7997 7.03812 34.7649 7.25534C34.7301 7.47255 34.7389 7.69453 34.7908 7.90831C34.8427 8.12209 34.9366 8.32339 35.0672 8.50046C35.1977 8.67752 35.3622 8.8268 35.5511 8.93959C37.2809 10.0168 38.8818 11.2883 40.3226 12.7293C40.6348 13.0321 41.0535 13.1999 41.4884 13.1966C41.9233 13.1933 42.3394 13.019 42.647 12.7115C42.9545 12.404 43.1287 11.9878 43.132 11.5529C43.1353 11.118 42.9674 10.6993 42.6646 10.3872Z" fill="#9D0706"/>
<path d="M36.0048 0.484928C35.6942 0.174429 35.273 0 34.8338 0C34.3947 0 33.9735 0.174429 33.6629 0.484928L30.965 3.18263C25.7169 1.45748 20.0939 1.21742 14.7179 2.48899C9.34187 3.76056 4.42225 6.49421 0.503093 10.3876C0.345448 10.5406 0.219788 10.7233 0.133427 10.9252C0.0470652 11.1272 0.00172621 11.3442 4.83397e-05 11.5639C-0.00162953 11.7835 0.0403873 12.0012 0.123654 12.2045C0.20692 12.4077 0.329773 12.5923 0.485063 12.7476C0.640353 12.9029 0.82498 13.0258 1.0282 13.1091C1.23142 13.1923 1.44917 13.2344 1.66879 13.2327C1.8884 13.231 2.10549 13.1857 2.30743 13.0994C2.50936 13.013 2.69211 12.8874 2.84503 12.7297C6.12583 9.47094 10.1985 7.12236 14.6623 5.91506C19.1262 4.70777 23.8274 4.68335 28.3036 5.84422L24.0652 10.0826C20.84 9.69983 17.57 10.0556 14.5026 11.1231C11.4352 12.1905 8.65077 13.9416 6.35992 16.2438C6.20293 16.3969 6.07788 16.5796 5.99205 16.7814C5.90622 16.9831 5.86131 17.1999 5.85992 17.4192C5.85853 17.6385 5.90069 17.8558 5.98396 18.0587C6.06723 18.2615 6.18994 18.4458 6.34499 18.6009C6.50004 18.7559 6.68432 18.8786 6.88717 18.9619C7.09001 19.0452 7.30737 19.0873 7.52663 19.0859C7.74589 19.0845 7.9627 19.0396 8.16447 18.9538C8.36624 18.868 8.54896 18.7429 8.70203 18.5859C11.9371 15.3442 16.282 13.4511 20.8589 13.2892L7.16288 26.9849C7.00523 27.1378 6.87957 27.3206 6.79321 27.5225C6.70685 27.7244 6.66151 27.9415 6.65983 28.1611C6.65815 28.3807 6.70017 28.5985 6.78344 28.8017C6.8667 29.005 6.98955 29.1896 7.14485 29.3449C7.30014 29.5002 7.48476 29.6231 7.68798 29.7063C7.8912 29.7896 8.10895 29.8317 8.32857 29.83C8.54818 29.8283 8.76528 29.783 8.96721 29.6967C9.16915 29.6103 9.35189 29.4847 9.50481 29.327L36.0048 2.82703C36.3154 2.51643 36.4898 2.0952 36.4898 1.65598C36.4898 1.21676 36.3154 0.795527 36.0048 0.484928Z" fill="#9D0706"/>
</svg>
