<svg xmlns="http://www.w3.org/2000/svg" xmlns:xlink="http://www.w3.org/1999/xlink" viewBox="0 0 310 310"><defs><linearGradient id="New_Gradient_Swatch_7" x1="45.39843" y1="264.60157" x2="264.60153" y2="45.39847" gradientUnits="userSpaceOnUse"><stop offset="0" stop-color="#38a380"/><stop offset="0.06811" stop-color="#4fa684"/><stop offset="0.19954" stop-color="#74ac8a"/><stop offset="0.33708" stop-color="#93b090"/><stop offset="0.4803" stop-color="#abb494"/><stop offset="0.63159" stop-color="#bcb697"/><stop offset="0.79642" stop-color="#c6b898"/><stop offset="1" stop-color="#c9b899"/></linearGradient></defs><g id="Layer_2" data-name="Layer 2"><g id="Layer_1-2" data-name="Layer 1"><circle cx="155" cy="155" r="154" fill="#fff" stroke-miterlimit="10" stroke-width="2" stroke="url(#New_Gradient_Swatch_7)"/><path d="M43.2152,199.46661l3.19629-15.02734H48.139l-3.19727,15.02734Z" fill="#232323"/><path d="M54.64586,188.01642a2.99812,2.99812,0,0,1,2.8877,1.95312h.10254a23.89612,23.89612,0,0,1,.46289-2.81641l.80176-3.67968h1.706l-3.3916,15.99316H55.78649l.22558-2.14844H55.93a7.73479,7.73479,0,0,1-1.94238,1.81934,3.63113,3.63113,0,0,1-1.87109.53516,2.69184,2.69184,0,0,1-2.23047-1.00782,4.382,4.382,0,0,1-.80176-2.7959,10.65634,10.65634,0,0,1,.74023-4.02929,6.72287,6.72287,0,0,1,1.999-2.82617A4.43072,4.43072,0,0,1,54.64586,188.01642ZM52.69274,198.244a2.99339,2.99339,0,0,0,1.99414-.96191,6.75863,6.75863,0,0,0,1.6289-2.45605,8.11311,8.11311,0,0,0,.60157-3.04786,2.46059,2.46059,0,0,0-.55567-1.7373,2.1008,2.1008,0,0,0-1.61328-.5957,2.74937,2.74937,0,0,0-1.92773.84765,5.96847,5.96847,0,0,0-1.42871,2.38477,9.6959,9.6959,0,0,0-.53907,3.23242Q50.85289,198.24346,52.69274,198.244Z" fill="#232323"/><path d="M65.28356,199.67267a3.92792,3.92792,0,0,1-2.96973-1.1211,4.28563,4.28563,0,0,1-1.08008-3.10351,9.25206,9.25206,0,0,1,.76661-3.70606,6.85544,6.85544,0,0,1,2.02929-2.75976,4.42768,4.42768,0,0,1,2.78613-.98633,3.52937,3.52937,0,0,1,2.36329.68359,2.38259,2.38259,0,0,1,.792,1.90625,3.261,3.261,0,0,1-1.70606,2.9043,9.34985,9.34985,0,0,1-4.88281,1.05273h-.33887l-.041.82227a3.18425,3.18425,0,0,0,.63183,2.10254,2.40955,2.40955,0,0,0,1.958.75488,5.09787,5.09787,0,0,0,1.33106-.18457,10.15382,10.15382,0,0,0,1.70117-.67871v1.501a9.25243,9.25243,0,0,1-1.70606.63183A6.90861,6.90861,0,0,1,65.28356,199.67267Zm1.42871-10.207a2.74782,2.74782,0,0,0-1.98828.96582,6.31958,6.31958,0,0,0-1.42383,2.68262h.123a8.38683,8.38683,0,0,0,3.59277-.61133,1.91929,1.91929,0,0,0,1.249-1.77246,1.20294,1.20294,0,0,0-.375-.90527A1.65664,1.65664,0,0,0,66.71227,189.46563Z" fill="#232323"/><path d="M78.10094,199.46661l1.52149-7.1123a9.39876,9.39876,0,0,0,.20507-1.48047,1.46068,1.46068,0,0,0-.36523-1.03809,1.52876,1.52876,0,0,0-1.166-.39062,3.04507,3.04507,0,0,0-1.7832.61621,5.4925,5.4925,0,0,0-1.53223,1.75781,9.27834,9.27834,0,0,0-1.00195,2.76562l-1.03809,4.88184H71.21422L73.6195,188.201h1.42871l-.22657,2.08691h.10352a6.87,6.87,0,0,1,1.90625-1.77344,3.83294,3.83294,0,0,1,1.90625-.51855,2.88273,2.88273,0,0,1,2.06152.71386,2.62362,2.62362,0,0,1,.75489,2,8.40079,8.40079,0,0,1-.23633,1.84961L79.848,199.46661Z" fill="#232323"/><path d="M86.81676,198.26446a5.58581,5.58581,0,0,0,1.48047-.26758v1.32618a4.75192,4.75192,0,0,1-.86328.24609,4.45415,4.45415,0,0,1-.82227.10352,2.85746,2.85746,0,0,1-1.96875-.61231,2.32345,2.32345,0,0,1-.68359-1.82422,7.477,7.477,0,0,1,.18555-1.542l1.30566-6.1875H83.682l.14453-.75,1.90136-.80176,1.28418-2.34375h1.00782l-.56543,2.58985h2.8164l-.26758,1.30566H87.19762l-1.32617,6.208a7.33714,7.33714,0,0,0-.18457,1.35742,1.219,1.219,0,0,0,.29785.88379A1.10522,1.10522,0,0,0,86.81676,198.26446Z" fill="#232323"/><path d="M91.91539,199.46661H90.18883L92.59411,188.201h1.72656Zm1.16211-14.14355a1.35264,1.35264,0,0,1,.32813-.94043,1.09636,1.09636,0,0,1,.85351-.36426.80835.80835,0,0,1,.9043.9248,1.395,1.395,0,0,1-.34375.95606,1.037,1.037,0,0,1-.79687.39062.95065.95065,0,0,1-.67871-.25195A.93621.93621,0,0,1,93.0775,185.32306Z" fill="#232323"/><path d="M93.85778,204.52325a3.619,3.619,0,0,1-1.28418-.21582v-1.44922a3.59938,3.59938,0,0,0,1.15136.22656,1.35782,1.35782,0,0,0,1.20215-.63769,5.44726,5.44726,0,0,0,.67871-1.81934l2.333-11.12109h-1.9834l.13282-.68848,2.11816-.67871.23633-1.02734a6.08205,6.08205,0,0,1,1.31054-2.9043,3.33973,3.33973,0,0,1,2.48145-.84765,5.38561,5.38561,0,0,1,1.00781.11816,4.71474,4.71474,0,0,1,.92481.26172l-.44141,1.32617a4.01338,4.01338,0,0,0-1.4082-.29785,1.81551,1.81551,0,0,0-1.37305.49805,3.96515,3.96515,0,0,0-.77539,1.82519l-.25684,1.10938h2.44629l-.25683,1.30566H99.66539l-2.38476,11.28613a5.8792,5.8792,0,0,1-1.2334,2.83692A2.851,2.851,0,0,1,93.85778,204.52325Z" fill="#232323"/><path d="M102.52282,188.201h1.72754l.76074,5.60253q.10254.709.20019,2.09082.09669,1.38282.09766,2.22559h.06152q.35889-.89355.89453-2.05566.5332-1.16163.791-1.60352l3.34082-6.25976h1.8291l-7.15332,13.17773a7.43905,7.43905,0,0,1-1.8916,2.45605,3.6932,3.6932,0,0,1-2.251.68848,4.82563,4.82563,0,0,1-1.43847-.21582v-1.38769a4.84691,4.84691,0,0,0,1.3457.18554,2.1317,2.1317,0,0,0,1.44434-.51953,5.60532,5.60532,0,0,0,1.167-1.53613l.78125-1.39844Z" fill="#232323"/><path d="M113.57262,199.46661h-1.72656l2.40527-11.26562h1.72656Zm1.16211-14.14355a1.35264,1.35264,0,0,1,.32813-.94043,1.09635,1.09635,0,0,1,.85351-.36426.80835.80835,0,0,1,.9043.9248,1.395,1.395,0,0,1-.34375.95606,1.037,1.037,0,0,1-.79688.39062.95067.95067,0,0,1-.67871-.25195A.93624.93624,0,0,1,114.73473,185.32306Z" fill="#232323"/><path d="M124.0775,199.46661l1.52149-7.1123a9.39792,9.39792,0,0,0,.20508-1.48047,1.46064,1.46064,0,0,0-.36524-1.03809,1.52873,1.52873,0,0,0-1.166-.39062,3.04507,3.04507,0,0,0-1.78321.61621,5.49235,5.49235,0,0,0-1.53222,1.75781,9.27834,9.27834,0,0,0-1.002,2.76562l-1.03808,4.88184h-1.72657l2.40528-11.26562h1.42871l-.22656,2.08691h.10351a6.87,6.87,0,0,1,1.90625-1.77344,3.833,3.833,0,0,1,1.90625-.51855,2.88278,2.88278,0,0,1,2.06153.71386,2.62361,2.62361,0,0,1,.75488,2,8.40079,8.40079,0,0,1-.23633,1.84961l-1.46973,6.90723Z" fill="#232323"/><path d="M140.04039,188.201l-.25683,1.10058-2.16895.2461a2.895,2.895,0,0,1,.4209,1.624,4.17056,4.17056,0,0,1-1.19726,3.12988,4.38769,4.38769,0,0,1-3.20118,1.167,3.46267,3.46267,0,0,1-.86425-.082q-1.42822.54492-1.42871,1.34571a.54511.54511,0,0,0,.33984.56054,4.07545,4.07545,0,0,0,.98633.22071l1.20312.14453a5.35086,5.35086,0,0,1,2.69727.90429,2.41358,2.41358,0,0,1,.83789,1.99414,3.35467,3.35467,0,0,1-1.5,2.92872,7.35988,7.35988,0,0,1-4.22461,1.03808,5.5725,5.5725,0,0,1-3.125-.75488,2.42,2.42,0,0,1-1.13086-2.13281,2.6489,2.6489,0,0,1,.74023-1.8711,5.76905,5.76905,0,0,1,2.39454-1.34668,1.33744,1.33744,0,0,1-.80079-1.24316,1.63584,1.63584,0,0,1,.52344-1.21778,5.3932,5.3932,0,0,1,1.46-.95117,2.679,2.679,0,0,1-1.05859-.97168,2.70683,2.70683,0,0,1-.41113-1.49511,4.51444,4.51444,0,0,1,1.22851-3.26856,4.1697,4.1697,0,0,1,3.13965-1.27441,6.2097,6.2097,0,0,1,1.583.20508Zm-10.94726,13.26953a1.4461,1.4461,0,0,0,.66894,1.2539,3.48826,3.48826,0,0,0,1.9834.46289,5.54928,5.54928,0,0,0,2.92383-.65234,2.05831,2.05831,0,0,0,1.05371-1.8457,1.15112,1.15112,0,0,0-.55469-1.00684,4.4478,4.4478,0,0,0-1.8916-.51367l-1.63379-.165a3.71516,3.71516,0,0,0-1.8916.90527A2.112,2.112,0,0,0,129.09313,201.47052Zm2.85742-8.99317a1.79052,1.79052,0,0,0,.46289,1.33106,1.74891,1.74891,0,0,0,1.28516.457,2.37972,2.37972,0,0,0,1.418-.43164,2.74946,2.74946,0,0,0,.93066-1.18653,4.12141,4.12141,0,0,0,.32324-1.63964,1.71746,1.71746,0,0,0-.45215-1.28516,1.78019,1.78019,0,0,0-1.29492-.44141,2.40736,2.40736,0,0,0-1.40332.416,2.73234,2.73234,0,0,0-.93555,1.16113A3.91611,3.91611,0,0,0,131.95055,192.47735Z" fill="#232323"/><path d="M152.47692,187.99591a4.70253,4.70253,0,0,1,1.2334.14355l-.37012,1.542a4.528,4.528,0,0,0-1.0791-.13378,2.85627,2.85627,0,0,0-1.75293.61718,5.41593,5.41593,0,0,0-1.42871,1.71094,8.74245,8.74245,0,0,0-.89942,2.43066l-1.09961,5.16016h-1.72656l2.40527-11.26562h1.42872l-.22657,2.08691h.10352a10.10559,10.10559,0,0,1,1.22265-1.40332,3.8778,3.8778,0,0,1,1.0127-.65723A2.9056,2.9056,0,0,1,152.47692,187.99591Z" fill="#232323"/><path d="M158.14,199.67267a3.9279,3.9279,0,0,1-2.96972-1.1211,4.28559,4.28559,0,0,1-1.08008-3.10351,9.25222,9.25222,0,0,1,.7666-3.70606,6.85546,6.85546,0,0,1,2.0293-2.75976,4.42764,4.42764,0,0,1,2.78613-.98633,3.52934,3.52934,0,0,1,2.36328.68359,2.38259,2.38259,0,0,1,.792,1.90625,3.26094,3.26094,0,0,1-1.706,2.9043,9.34989,9.34989,0,0,1-4.88281,1.05273h-.33887l-.041.82227a3.1842,3.1842,0,0,0,.63184,2.10254,2.40954,2.40954,0,0,0,1.958.75488,5.09774,5.09774,0,0,0,1.33105-.18457,10.15348,10.15348,0,0,0,1.70117-.67871v1.501a9.25263,9.25263,0,0,1-1.70605.63183A6.9087,6.9087,0,0,1,158.14,199.67267Zm1.42871-10.207a2.74784,2.74784,0,0,0-1.98828.96582,6.31968,6.31968,0,0,0-1.42382,2.68262h.123a8.38688,8.38688,0,0,0,3.59278-.61133,1.91929,1.91929,0,0,0,1.249-1.77246,1.20294,1.20294,0,0,0-.375-.90527A1.65668,1.65668,0,0,0,159.56871,189.46563Z" fill="#232323"/><path d="M171.01891,196.27032a3.01529,3.01529,0,0,1-1.13574,2.50293,5.04287,5.04287,0,0,1-3.20215.89942,6.82956,6.82956,0,0,1-3.13477-.71v-1.624a6.364,6.364,0,0,0,1.55274.668,5.64512,5.64512,0,0,0,1.541.2373,3.13291,3.13291,0,0,0,1.95313-.51464,1.59884,1.59884,0,0,0,.6582-1.31543,1.42,1.42,0,0,0-.36035-.98633,7.24116,7.24116,0,0,0-1.55176-1.10059,6.24219,6.24219,0,0,1-1.8916-1.46972,2.70929,2.70929,0,0,1-.55469-1.70606,2.83573,2.83573,0,0,1,1.03809-2.28711,4.12047,4.12047,0,0,1,2.73437-.86816,7.95372,7.95372,0,0,1,3.39161.76074l-.55469,1.4082-.57617-.25683a5.70648,5.70648,0,0,0-2.26075-.44239,2.30033,2.30033,0,0,0-1.501.44727,1.50589,1.50589,0,0,0-.17969,2.14258,6.42334,6.42334,0,0,0,1.50586,1.05859,8.70845,8.70845,0,0,1,1.57715,1.05957,3.05045,3.05045,0,0,1,.71484.9502A2.69493,2.69493,0,0,1,171.01891,196.27032Z" fill="#232323"/><path d="M179.08825,188.05743a4.115,4.115,0,0,1,3.083,1.15625,4.35583,4.35583,0,0,1,1.13086,3.18164,9.12065,9.12065,0,0,1-.74023,3.64844,6.313,6.313,0,0,1-2.00391,2.65234,4.68725,4.68725,0,0,1-2.85742.93457,4.09543,4.09543,0,0,1-3.09375-1.16113,4.38227,4.38227,0,0,1-1.12109-3.17578,9.1015,9.1015,0,0,1,.751-3.67481,6.22831,6.22831,0,0,1,2.02442-2.6416A4.71944,4.71944,0,0,1,179.08825,188.05743ZM181.514,192.159a2.80857,2.80857,0,0,0-.64258-1.917,2.19522,2.19522,0,0,0-1.74219-.73535,3.01054,3.01054,0,0,0-2.00976.76074,4.88928,4.88928,0,0,0-1.377,2.11231,8.78409,8.78409,0,0,0-.48828,3.00683,3.02919,3.02919,0,0,0,.65235,2.08106,2.37659,2.37659,0,0,0,1.876.73437,2.8335,2.8335,0,0,0,1.92188-.75,4.89008,4.89008,0,0,0,1.331-2.13281A9.65521,9.65521,0,0,0,181.514,192.159Z" fill="#232323"/><path d="M188.92418,188.201l-1.542,7.14355a7.74108,7.74108,0,0,0-.18457,1.42871,1.31765,1.31765,0,0,0,1.51074,1.4707,3.0595,3.0595,0,0,0,1.77832-.61718,5.48048,5.48048,0,0,0,1.541-1.76758,9.47086,9.47086,0,0,0,1.01758-2.77539l1.02832-4.88281h1.70605l-2.374,11.26562h-1.42871l.22558-2.08691h-.123a6.75323,6.75323,0,0,1-1.92188,1.78906,3.88327,3.88327,0,0,1-1.8916.50391,2.87128,2.87128,0,0,1-2.06543-.71485,2.68117,2.68117,0,0,1-.751-2.04,9.59711,9.59711,0,0,1,.22657-1.76855l1.501-6.94824Z" fill="#232323"/><path d="M204.16735,187.99591a4.70253,4.70253,0,0,1,1.2334.14355l-.37012,1.542a4.528,4.528,0,0,0-1.0791-.13378,2.85627,2.85627,0,0,0-1.75293.61718,5.41593,5.41593,0,0,0-1.42871,1.71094,8.74245,8.74245,0,0,0-.89942,2.43066l-1.09961,5.16016H197.0443l2.40527-11.26562h1.42871l-.22656,2.08691h.10352a10.10559,10.10559,0,0,1,1.22265-1.40332,3.8778,3.8778,0,0,1,1.0127-.65723A2.9056,2.9056,0,0,1,204.16735,187.99591Z" fill="#232323"/><path d="M209.975,199.67267a3.82665,3.82665,0,0,1-4.19433-4.20411,9.35531,9.35531,0,0,1,.76074-3.793,6.44072,6.44072,0,0,1,2.10254-2.708,5.0106,5.0106,0,0,1,3.0166-.97168,7.53542,7.53542,0,0,1,2.75488.52441l-.48339,1.44922a5.81189,5.81189,0,0,0-2.251-.52441,3.21687,3.21687,0,0,0-2.10156.78613,5.17687,5.17687,0,0,0-1.49121,2.18945,8.42774,8.42774,0,0,0-.53907,3.04785,2.87367,2.87367,0,0,0,.6836,2.04493,2.45415,2.45415,0,0,0,1.88574.73046,4.68011,4.68011,0,0,0,1.39844-.20605,12.69911,12.69911,0,0,0,1.29492-.4834v1.46973A6.1748,6.1748,0,0,1,209.975,199.67267Z" fill="#232323"/><path d="M219.307,199.67267a3.92791,3.92791,0,0,1-2.96973-1.1211,4.28559,4.28559,0,0,1-1.08008-3.10351,9.25222,9.25222,0,0,1,.7666-3.70606,6.85555,6.85555,0,0,1,2.0293-2.75976,4.42764,4.42764,0,0,1,2.78613-.98633,3.52934,3.52934,0,0,1,2.36328.68359,2.3826,2.3826,0,0,1,.792,1.90625,3.261,3.261,0,0,1-1.70606,2.9043,9.34985,9.34985,0,0,1-4.88281,1.05273h-.33887l-.041.82227a3.1842,3.1842,0,0,0,.63183,2.10254,2.40955,2.40955,0,0,0,1.958.75488,5.09774,5.09774,0,0,0,1.33105-.18457,10.15353,10.15353,0,0,0,1.70118-.67871v1.501a9.25269,9.25269,0,0,1-1.70606.63183A6.90861,6.90861,0,0,1,219.307,199.67267Zm1.42871-10.207a2.74781,2.74781,0,0,0-1.98828.96582,6.31958,6.31958,0,0,0-1.42383,2.68262h.123a8.38688,8.38688,0,0,0,3.59278-.61133,1.91929,1.91929,0,0,0,1.249-1.77246,1.20294,1.20294,0,0,0-.375-.90527A1.65667,1.65667,0,0,0,220.73571,189.46563Z" fill="#232323"/><path d="M234.73473,188.201l-1.542,7.14355a7.74108,7.74108,0,0,0-.18457,1.42871,1.31765,1.31765,0,0,0,1.51074,1.4707,3.05953,3.05953,0,0,0,1.77832-.61718,5.4806,5.4806,0,0,0,1.541-1.76758,9.47086,9.47086,0,0,0,1.01757-2.77539l1.02832-4.88281h1.70606l-2.374,11.26562h-1.42872l.22559-2.08691H237.89a6.75321,6.75321,0,0,1-1.92187,1.78906,3.8833,3.8833,0,0,1-1.8916.50391,2.87126,2.87126,0,0,1-2.06543-.71485,2.68117,2.68117,0,0,1-.751-2.04,9.5978,9.5978,0,0,1,.22656-1.76855l1.501-6.94824Z" fill="#232323"/><path d="M249.80309,196.27032a3.01529,3.01529,0,0,1-1.13574,2.50293,5.04287,5.04287,0,0,1-3.20215.89942,6.82956,6.82956,0,0,1-3.13477-.71v-1.624a6.364,6.364,0,0,0,1.55274.668,5.64512,5.64512,0,0,0,1.541.2373,3.13291,3.13291,0,0,0,1.95313-.51464,1.59887,1.59887,0,0,0,.6582-1.31543,1.42,1.42,0,0,0-.36035-.98633,7.24116,7.24116,0,0,0-1.55176-1.10059,6.24219,6.24219,0,0,1-1.8916-1.46972,2.70929,2.70929,0,0,1-.55469-1.70606,2.83573,2.83573,0,0,1,1.03809-2.28711,4.12047,4.12047,0,0,1,2.73437-.86816,7.95372,7.95372,0,0,1,3.39161.76074l-.55469,1.4082-.57617-.25683a5.70648,5.70648,0,0,0-2.26075-.44239,2.30033,2.30033,0,0,0-1.501.44727,1.50589,1.50589,0,0,0-.17969,2.14258,6.42334,6.42334,0,0,0,1.50586,1.05859,8.70845,8.70845,0,0,1,1.57715,1.05957,3.05045,3.05045,0,0,1,.71484.9502A2.69493,2.69493,0,0,1,249.80309,196.27032Z" fill="#232323"/><path d="M256.31969,199.67267a3.92792,3.92792,0,0,1-2.96973-1.1211,4.28563,4.28563,0,0,1-1.08007-3.10351,9.25222,9.25222,0,0,1,.7666-3.70606,6.85544,6.85544,0,0,1,2.02929-2.75976,4.42769,4.42769,0,0,1,2.78614-.98633,3.52934,3.52934,0,0,1,2.36328.68359,2.38259,2.38259,0,0,1,.792,1.90625,3.26094,3.26094,0,0,1-1.70605,2.9043,9.34991,9.34991,0,0,1-4.88282,1.05273h-.33886l-.041.82227a3.1842,3.1842,0,0,0,.63184,2.10254,2.40953,2.40953,0,0,0,1.958.75488,5.09781,5.09781,0,0,0,1.33106-.18457,10.15382,10.15382,0,0,0,1.70117-.67871v1.501a9.25263,9.25263,0,0,1-1.70605.63183A6.90876,6.90876,0,0,1,256.31969,199.67267Zm1.42871-10.207a2.74782,2.74782,0,0,0-1.98828.96582,6.31958,6.31958,0,0,0-1.42383,2.68262h.12305a8.3868,8.3868,0,0,0,3.59277-.61133,1.9193,1.9193,0,0,0,1.249-1.77246,1.20294,1.20294,0,0,0-.375-.90527A1.65668,1.65668,0,0,0,257.7484,189.46563Z" fill="#232323"/><path d="M69.184,213.25665a2.90712,2.90712,0,0,1,1.68555.50879,3.30636,3.30636,0,0,1,1.15136,1.46484h.11231l.68945-1.76855h1.30469l-2.39453,11.26562H70.36559l.26758-2.14843h-.083q-1.83984,2.354-3.875,2.35449a2.70962,2.70962,0,0,1-2.24023-1.01758,4.35265,4.35265,0,0,1-.8125-2.78613,10.603,10.603,0,0,1,.73046-3.96778,6.85118,6.85118,0,0,1,2.01465-2.86718A4.38018,4.38018,0,0,1,69.184,213.25665ZM67.23082,223.5047a2.89379,2.89379,0,0,0,1.9834-.95118,7.04185,7.04185,0,0,0,1.60352-2.47753,8.10549,8.10549,0,0,0,.61719-3.05762,2.3949,2.3949,0,0,0-.57618-1.68555,1.95491,1.95491,0,0,0-1.51074-.62695,2.83168,2.83168,0,0,0-1.98926.88379,5.95907,5.95907,0,0,0-1.44336,2.39453,9.65459,9.65459,0,0,0-.52441,3.18652,2.70087,2.70087,0,0,0,.48242,1.75293A1.66944,1.66944,0,0,0,67.23082,223.5047Z" fill="#232323"/><path d="M82.00133,224.72735l1.52149-7.1123a9.39876,9.39876,0,0,0,.20507-1.48047,1.46069,1.46069,0,0,0-.36523-1.03809,1.52876,1.52876,0,0,0-1.166-.39062,3.04514,3.04514,0,0,0-1.7832.61621,5.4925,5.4925,0,0,0-1.53223,1.75781,9.27831,9.27831,0,0,0-1.00195,2.76563l-1.03808,4.88183H75.11461l2.40528-11.26562H78.9486l-.22657,2.08691h.10352a6.87,6.87,0,0,1,1.90625-1.77344,3.83294,3.83294,0,0,1,1.90625-.51855,2.8827,2.8827,0,0,1,2.06152.71387,2.62359,2.62359,0,0,1,.75489,2,8.40094,8.40094,0,0,1-.23633,1.84961l-1.46973,6.90722Z" fill="#232323"/><path d="M93.22594,213.27716a2.99813,2.99813,0,0,1,2.8877,1.95312h.10254a23.89592,23.89592,0,0,1,.46289-2.8164l.80175-3.67969h1.70606l-3.3916,15.99316H94.36657l.22558-2.14843h-.082a7.73472,7.73472,0,0,1-1.94238,1.81933,3.631,3.631,0,0,1-1.8711.53516,2.69184,2.69184,0,0,1-2.23046-1.00782,4.382,4.382,0,0,1-.80176-2.79589,10.65643,10.65643,0,0,1,.74023-4.0293,6.72293,6.72293,0,0,1,1.999-2.82617A4.43072,4.43072,0,0,1,93.22594,213.27716ZM91.27282,223.5047a2.99341,2.99341,0,0,0,1.99414-.96192,6.75863,6.75863,0,0,0,1.6289-2.45605,8.11329,8.11329,0,0,0,.60157-3.04785,2.4606,2.4606,0,0,0-.55567-1.73731,2.10085,2.10085,0,0,0-1.61328-.5957,2.74937,2.74937,0,0,0-1.92773.84765,5.96867,5.96867,0,0,0-1.42872,2.38477,9.69614,9.69614,0,0,0-.53906,3.23242Q89.433,223.50422,91.27282,223.5047Z" fill="#232323"/><path d="M110.84313,213.25665a2.90712,2.90712,0,0,1,1.68555.50879,3.30636,3.30636,0,0,1,1.15136,1.46484h.11231l.68945-1.76855h1.30469L113.392,224.72735h-1.36719l.26758-2.14843h-.083q-1.83984,2.354-3.875,2.35449a2.70962,2.70962,0,0,1-2.24023-1.01758,4.35265,4.35265,0,0,1-.8125-2.78613,10.603,10.603,0,0,1,.73046-3.96778,6.85118,6.85118,0,0,1,2.01465-2.86718A4.38018,4.38018,0,0,1,110.84313,213.25665ZM108.89,223.5047a2.89379,2.89379,0,0,0,1.9834-.95118,7.042,7.042,0,0,0,1.60352-2.47753,8.10549,8.10549,0,0,0,.61719-3.05762,2.3949,2.3949,0,0,0-.57618-1.68555,1.95491,1.95491,0,0,0-1.51074-.62695,2.83168,2.83168,0,0,0-1.98926.88379,5.95907,5.95907,0,0,0-1.44336,2.39453,9.65459,9.65459,0,0,0-.52441,3.18652,2.70087,2.70087,0,0,0,.48242,1.75293A1.66944,1.66944,0,0,0,108.89,223.5047Z" fill="#232323"/><path d="M121.36852,224.93341a3.82666,3.82666,0,0,1-4.19434-4.2041,9.35525,9.35525,0,0,1,.76075-3.793,6.44067,6.44067,0,0,1,2.10253-2.708,5.01065,5.01065,0,0,1,3.01661-.97168,7.5355,7.5355,0,0,1,2.75488.52441l-.4834,1.44922a5.81189,5.81189,0,0,0-2.251-.52441,3.21694,3.21694,0,0,0-2.10156.78613,5.177,5.177,0,0,0-1.49121,2.18945,8.428,8.428,0,0,0-.53906,3.04786,2.87371,2.87371,0,0,0,.68359,2.04492,2.45417,2.45417,0,0,0,1.88574.73047,4.68,4.68,0,0,0,1.39844-.20606,12.69823,12.69823,0,0,0,1.29492-.4834V224.285A6.17479,6.17479,0,0,1,121.36852,224.93341Z" fill="#232323"/><path d="M130.84508,224.93341a3.82665,3.82665,0,0,1-4.19433-4.2041,9.35525,9.35525,0,0,1,.76074-3.793,6.44069,6.44069,0,0,1,2.10254-2.708,5.0106,5.0106,0,0,1,3.0166-.97168,7.53546,7.53546,0,0,1,2.75488.52441l-.4834,1.44922a5.8118,5.8118,0,0,0-2.251-.52441,3.217,3.217,0,0,0-2.10157.78613,5.177,5.177,0,0,0-1.49121,2.18945,8.428,8.428,0,0,0-.53906,3.04786,2.87371,2.87371,0,0,0,.68359,2.04492,2.45418,2.45418,0,0,0,1.88575.73047,4.68,4.68,0,0,0,1.39843-.20606,12.69928,12.69928,0,0,0,1.29493-.4834V224.285A6.1748,6.1748,0,0,1,130.84508,224.93341Z" fill="#232323"/><path d="M140.17711,224.93341a3.9279,3.9279,0,0,1-2.96972-1.1211,4.28559,4.28559,0,0,1-1.08008-3.10351,9.25222,9.25222,0,0,1,.7666-3.70606,6.85546,6.85546,0,0,1,2.0293-2.75976,4.42764,4.42764,0,0,1,2.78613-.98633,3.52934,3.52934,0,0,1,2.36328.68359,2.38259,2.38259,0,0,1,.792,1.90625,3.26093,3.26093,0,0,1-1.70605,2.9043,9.34989,9.34989,0,0,1-4.88281,1.05273h-.33887l-.041.82227a3.1842,3.1842,0,0,0,.63184,2.10254,2.40951,2.40951,0,0,0,1.958.75488,5.09774,5.09774,0,0,0,1.331-.18457,10.15348,10.15348,0,0,0,1.70117-.67871v1.501a9.2519,9.2519,0,0,1-1.70605.63183A6.90876,6.90876,0,0,1,140.17711,224.93341Zm1.42871-10.207a2.7478,2.7478,0,0,0-1.98828.96582,6.3197,6.3197,0,0,0-1.42383,2.68261h.123a8.387,8.387,0,0,0,3.59277-.61132,1.91931,1.91931,0,0,0,1.249-1.77247,1.203,1.203,0,0,0-.375-.90527A1.65668,1.65668,0,0,0,141.60582,214.72638Z" fill="#232323"/><path d="M153.056,221.53106a3.01529,3.01529,0,0,1-1.13574,2.50293,5.04287,5.04287,0,0,1-3.20215.89942,6.82968,6.82968,0,0,1-3.13477-.71v-1.624a6.36362,6.36362,0,0,0,1.55274.668,5.6451,5.6451,0,0,0,1.541.23731,3.13291,3.13291,0,0,0,1.95313-.51465,1.59887,1.59887,0,0,0,.6582-1.31543,1.42,1.42,0,0,0-.36035-.98633,7.24116,7.24116,0,0,0-1.55176-1.10059,6.242,6.242,0,0,1-1.8916-1.46972,2.70925,2.70925,0,0,1-.55469-1.70606,2.83575,2.83575,0,0,1,1.03809-2.28711,4.12047,4.12047,0,0,1,2.73437-.86816,7.95387,7.95387,0,0,1,3.39161.76074l-.55469,1.4082-.57617-.25683a5.70665,5.70665,0,0,0-2.26075-.44238,2.30033,2.30033,0,0,0-1.501.44726,1.50589,1.50589,0,0,0-.17969,2.14258,6.42334,6.42334,0,0,0,1.50586,1.05859,8.709,8.709,0,0,1,1.57715,1.05957,3.05045,3.05045,0,0,1,.71484.9502A2.695,2.695,0,0,1,153.056,221.53106Z" fill="#232323"/><path d="M162.07067,221.53106a3.01529,3.01529,0,0,1-1.13574,2.50293,5.04287,5.04287,0,0,1-3.20215.89942,6.82965,6.82965,0,0,1-3.13477-.71v-1.624a6.36346,6.36346,0,0,0,1.55274.668,5.6451,5.6451,0,0,0,1.541.23731,3.13291,3.13291,0,0,0,1.95313-.51465,1.59887,1.59887,0,0,0,.6582-1.31543,1.42,1.42,0,0,0-.36035-.98633,7.24116,7.24116,0,0,0-1.55176-1.10059,6.242,6.242,0,0,1-1.8916-1.46972,2.70925,2.70925,0,0,1-.55469-1.70606,2.83572,2.83572,0,0,1,1.03809-2.28711,4.12047,4.12047,0,0,1,2.73437-.86816,7.95379,7.95379,0,0,1,3.3916.76074l-.55468,1.4082-.57618-.25683a5.70656,5.70656,0,0,0-2.26074-.44238,2.30033,2.30033,0,0,0-1.501.44726,1.50587,1.50587,0,0,0-.17969,2.14258,6.42334,6.42334,0,0,0,1.50586,1.05859,8.709,8.709,0,0,1,1.57715,1.05957,3.05045,3.05045,0,0,1,.71484.9502A2.695,2.695,0,0,1,162.07067,221.53106Z" fill="#232323"/><path d="M176.72789,213.25665a4.70247,4.70247,0,0,1,1.2334.14355l-.37011,1.542a4.52758,4.52758,0,0,0-1.07911-.13379,2.85632,2.85632,0,0,0-1.75293.61718,5.41619,5.41619,0,0,0-1.42871,1.71094,8.74238,8.74238,0,0,0-.89941,2.43067l-1.09961,5.16015h-1.72656l2.40527-11.26562h1.42871l-.22656,2.08691h.10351a10.10619,10.10619,0,0,1,1.22266-1.40332,3.8778,3.8778,0,0,1,1.0127-.65723A2.90555,2.90555,0,0,1,176.72789,213.25665Z" fill="#232323"/><path d="M182.391,224.93341a3.92792,3.92792,0,0,1-2.96973-1.1211,4.28563,4.28563,0,0,1-1.08007-3.10351,9.252,9.252,0,0,1,.7666-3.70606,6.85544,6.85544,0,0,1,2.02929-2.75976,4.42769,4.42769,0,0,1,2.78614-.98633,3.52935,3.52935,0,0,1,2.36328.68359,2.38259,2.38259,0,0,1,.792,1.90625,3.261,3.261,0,0,1-1.70605,2.9043,9.34991,9.34991,0,0,1-4.88282,1.05273h-.33886l-.041.82227a3.1842,3.1842,0,0,0,.63184,2.10254,2.40949,2.40949,0,0,0,1.958.75488,5.09787,5.09787,0,0,0,1.33106-.18457,10.15382,10.15382,0,0,0,1.70117-.67871v1.501a9.2519,9.2519,0,0,1-1.70605.63183A6.90876,6.90876,0,0,1,182.391,224.93341Zm1.42871-10.207a2.74779,2.74779,0,0,0-1.98828.96582,6.31948,6.31948,0,0,0-1.42383,2.68261h.12305a8.387,8.387,0,0,0,3.59277-.61132,1.91932,1.91932,0,0,0,1.249-1.77247,1.203,1.203,0,0,0-.375-.90527A1.65668,1.65668,0,0,0,183.81969,214.72638Z" fill="#232323"/><path d="M199.02184,213.46173l-.25684,1.10058-2.16894.2461a2.89509,2.89509,0,0,1,.4209,1.624,4.17057,4.17057,0,0,1-1.19727,3.12988,4.38766,4.38766,0,0,1-3.20117,1.167,3.46273,3.46273,0,0,1-.86426-.082q-1.42822.54494-1.42871,1.34571a.54511.54511,0,0,0,.33984.56054,4.07557,4.07557,0,0,0,.98633.22071l1.20313.14453a5.35072,5.35072,0,0,1,2.69726.9043,2.41354,2.41354,0,0,1,.83789,1.99414,3.35467,3.35467,0,0,1-1.5,2.92871,7.35986,7.35986,0,0,1-4.22461,1.03808,5.57244,5.57244,0,0,1-3.125-.75488,2.42,2.42,0,0,1-1.13086-2.13281,2.6489,2.6489,0,0,1,.74024-1.8711,5.76894,5.76894,0,0,1,2.39453-1.34668,1.33743,1.33743,0,0,1-.80078-1.24316,1.6358,1.6358,0,0,1,.52344-1.21777,5.39281,5.39281,0,0,1,1.46-.95117,2.679,2.679,0,0,1-1.0586-.97168,2.707,2.707,0,0,1-.41113-1.49512,4.51442,4.51442,0,0,1,1.22852-3.26856,4.16968,4.16968,0,0,1,3.13965-1.27441,6.20962,6.20962,0,0,1,1.583.20508Zm-10.94727,13.26953a1.44613,1.44613,0,0,0,.66895,1.25391,3.4883,3.4883,0,0,0,1.9834.46289,5.54928,5.54928,0,0,0,2.92383-.65235,2.05832,2.05832,0,0,0,1.05371-1.8457,1.15112,1.15112,0,0,0-.55469-1.00684,4.44789,4.44789,0,0,0-1.8916-.51367l-1.63379-.165a3.71509,3.71509,0,0,0-1.8916.90528A2.112,2.112,0,0,0,188.07457,226.73126Zm2.85743-8.99317a1.79046,1.79046,0,0,0,.46289,1.33106,1.74884,1.74884,0,0,0,1.28515.457,2.37963,2.37963,0,0,0,1.418-.43164,2.74938,2.74938,0,0,0,.93067-1.18652,4.12146,4.12146,0,0,0,.32324-1.63965,1.71746,1.71746,0,0,0-.45215-1.28516,1.78026,1.78026,0,0,0-1.29492-.4414,2.40733,2.40733,0,0,0-1.40332.416,2.7324,2.7324,0,0,0-.93555,1.16113A3.916,3.916,0,0,0,190.932,217.73809Z" fill="#232323"/><path d="M200.59411,224.72735h-1.72657l2.40528-11.26562h1.72656Zm1.1621-14.14355a1.35264,1.35264,0,0,1,.32813-.94043,1.09638,1.09638,0,0,1,.85352-.36426.80835.80835,0,0,1,.90429.92481,1.395,1.395,0,0,1-.34375.956,1.037,1.037,0,0,1-.79687.39062.95065.95065,0,0,1-.67871-.25195A.93621.93621,0,0,1,201.75621,210.5838Z" fill="#232323"/><path d="M210.76012,224.72735l1.52051-7.1123a8.4097,8.4097,0,0,0,.18555-1.3877,1.75855,1.75855,0,0,0-.31934-1.12109,1.31513,1.31513,0,0,0-1.08887-.40039,2.76085,2.76085,0,0,0-1.68066.61621,5.3692,5.3692,0,0,0-1.43945,1.76367,10.18829,10.18829,0,0,0-.96094,2.75977l-1.03809,4.88183h-1.72656l2.40527-11.26562h1.42871l-.22656,2.08691h.10352a6.43543,6.43543,0,0,1,1.7832-1.75781,3.5134,3.5134,0,0,1,1.834-.53418,2.33505,2.33505,0,0,1,1.78907.668,3.0587,3.0587,0,0,1,.74023,1.86035h.082a6.58449,6.58449,0,0,1,1.88086-1.90625,3.7665,3.7665,0,0,1,2.01465-.62207,2.768,2.768,0,0,1,2.01953.69922,2.7204,2.7204,0,0,1,.71485,2.03515,9.81651,9.81651,0,0,1-.22657,1.82911l-1.48047,6.90722H217.3275l1.52149-7.1123a9.365,9.365,0,0,0,.20508-1.501,1.29509,1.29509,0,0,0-1.46973-1.4082,2.76559,2.76559,0,0,0-1.64453.5957A5.20813,5.20813,0,0,0,214.516,216.993a9.23231,9.23231,0,0,0-.92969,2.59472l-1.09961,5.13965Z" fill="#232323"/><path d="M227.01989,224.93341a3.92791,3.92791,0,0,1-2.96973-1.1211,4.28559,4.28559,0,0,1-1.08008-3.10351,9.25222,9.25222,0,0,1,.7666-3.70606,6.85555,6.85555,0,0,1,2.0293-2.75976,4.42764,4.42764,0,0,1,2.78613-.98633,3.52934,3.52934,0,0,1,2.36328.68359,2.3826,2.3826,0,0,1,.792,1.90625,3.26094,3.26094,0,0,1-1.70606,2.9043,9.34985,9.34985,0,0,1-4.88281,1.05273h-.33887l-.041.82227a3.1842,3.1842,0,0,0,.63183,2.10254,2.40952,2.40952,0,0,0,1.958.75488,5.09774,5.09774,0,0,0,1.331-.18457,10.15353,10.15353,0,0,0,1.70118-.67871v1.501a9.2517,9.2517,0,0,1-1.70606.63183A6.90861,6.90861,0,0,1,227.01989,224.93341Zm1.42871-10.207a2.74777,2.74777,0,0,0-1.98828.96582,6.31948,6.31948,0,0,0-1.42383,2.68261h.123a8.38705,8.38705,0,0,0,3.59278-.61132,1.91931,1.91931,0,0,0,1.249-1.77247,1.203,1.203,0,0,0-.375-.90527A1.65666,1.65666,0,0,0,228.4486,214.72638Z" fill="#232323"/><path d="M239.89879,221.53106a3.01527,3.01527,0,0,1-1.13574,2.50293,5.04287,5.04287,0,0,1-3.20215.89942,6.82964,6.82964,0,0,1-3.13476-.71v-1.624a6.36355,6.36355,0,0,0,1.55273.668,5.64517,5.64517,0,0,0,1.541.23731,3.13288,3.13288,0,0,0,1.95312-.51465,1.59884,1.59884,0,0,0,.6582-1.31543,1.42,1.42,0,0,0-.36035-.98633,7.24075,7.24075,0,0,0-1.55175-1.10059,6.242,6.242,0,0,1-1.89161-1.46972,2.70931,2.70931,0,0,1-.55468-1.70606,2.83574,2.83574,0,0,1,1.03808-2.28711,4.12049,4.12049,0,0,1,2.73438-.86816,7.95385,7.95385,0,0,1,3.3916.76074l-.55469,1.4082-.57617-.25683a5.70656,5.70656,0,0,0-2.26074-.44238,2.30034,2.30034,0,0,0-1.501.44726,1.50589,1.50589,0,0,0-.17969,2.14258,6.42357,6.42357,0,0,0,1.50586,1.05859,8.709,8.709,0,0,1,1.57715,1.05957,3.0503,3.0503,0,0,1,.71484.9502A2.695,2.695,0,0,1,239.89879,221.53106Z" fill="#232323"/><path d="M161.81886,126.04571c4.71753-.00024,9.26855-.01465,13.55908-2.01465H148.25978C152.5503,126.03106,157.10133,126.04547,161.81886,126.04571Z" fill="#8db1b3"/><path d="M163.0381,117.6722a38.27027,38.27027,0,1,0-38.27-38.26978A38.31414,38.31414,0,0,0,163.0381,117.6722Zm6.70263-70.82715a.86405.86405,0,0,1,1.09278-.54663,40.35559,40.35559,0,0,1,11.90185,6.99365A32.13838,32.13838,0,0,1,194.66017,78.556a43.51007,43.51007,0,0,1-1.37452,10.55615.86389.86389,0,1,1-1.67627-.4187A41.79877,41.79877,0,0,0,192.93263,78.556a30.19483,30.19483,0,0,0-10.248-23.01148,39.48989,39.48989,0,0,0-12.16113-7.5227c-.16162-.05957-.23609-.08423-.23609-.08423h0A.86359.86359,0,0,1,169.74073,46.84505Z" fill="#56a8a4"/><path d="M73.90382,133.71734c0-.292.584-.68628.87573-.68628H188.84132c.291,0,.583.39429.87475.68628l10.75147,21.31372H307.8921a152.89209,152.89209,0,0,0-305.78418,0H63.15235Zm109.68652-9.68628h-8.2124a55.4135,55.4135,0,0,0,8.36011-3.35228l1.019,2.09C185.04835,123.35175,184.46534,124.03106,183.59034,124.03106ZM163.0381,34.81941a44.5482,44.5482,0,0,1,33.65429,73.77613l29.37793,29.37768a3.15522,3.15522,0,1,1-4.46142,4.46289l-29.38111-29.37939A44.56887,44.56887,0,1,1,163.0381,34.81941Zm-48.87647,17.936,16.91943-33.37878a.91157.91157,0,0,1,1.74976-.03656l9.28882,18.30374a47.33751,47.33751,0,0,0-19.15527,16.38722h-7.92774A.95512.95512,0,0,1,114.16163,52.75544ZM96.65821,87.75495l12.25244-24.07483c0-.292.583-.64906.875-.64906h8.67017a45.726,45.726,0,0,0-2.16406,26H97.53321A.95616.95616,0,0,1,96.65821,87.75495ZM79.1548,122.75642,91.40724,98.68305c0-.291.583-.652.875-.652h26.75268c5.34839,13,16.04517,22,29.22486,26H80.03053A.95506.95506,0,0,1,79.1548,122.75642Z" fill="#56a8a4"/></g></g></svg>