<svg xmlns="http://www.w3.org/2000/svg" xmlns:xlink="http://www.w3.org/1999/xlink" viewBox="0 0 146.1073 146.1074"><defs><linearGradient id="linear-gradient" x1="3905.31005" y1="-2876.91913" x2="3906.31004" y2="-2876.91913" gradientTransform="matrix(103.3135, -103.3135, -103.3135, -103.3135, -700674.42656, 106371.37535)" gradientUnits="userSpaceOnUse"><stop offset="0" stop-color="#38a380"/><stop offset="0.06807" stop-color="#4fa684"/><stop offset="0.19952" stop-color="#74ac8a"/><stop offset="0.33709" stop-color="#93b090"/><stop offset="0.48033" stop-color="#abb494"/><stop offset="0.63163" stop-color="#bcb697"/><stop offset="0.79646" stop-color="#c6b898"/><stop offset="1" stop-color="#c9b899"/></linearGradient><clipPath id="clip-path"><path d="M121.2376,74.6048A48.50015,48.50015,0,1,1,72.7374,26.1052a48.50016,48.50016,0,0,1,48.5002,48.4996" fill="none"/></clipPath></defs><g id="Layer_2" data-name="Layer 2"><g id="Layer_1-2" data-name="Layer 1"><circle cx="73.0537" cy="73.0537" r="72.0537" fill="#fff"/><path d="M1,73.0537H0A73.05365,73.05365,0,1,0,73.0537,0,73.05427,73.05427,0,0,0,0,73.0537H1.9999a71.05405,71.05405,0,1,1,20.8113,50.2425A70.82733,70.82733,0,0,1,1.9999,73.0537Z" fill="url(#linear-gradient)"/><circle cx="73.05382" cy="74.05357" r="48.25396" transform="translate(-30.96682 73.34664) rotate(-45)" fill="#8db1b3"/><path d="M14.53271,75.03684a2.24058,2.24058,0,0,1,1.90673.78711,3.793,3.793,0,0,1,.78077,2.36426,5.7441,5.7441,0,0,1-.36353,2.51758l-1.38086.05859a6.78393,6.78393,0,0,0,.39624-1.32715,5.57661,5.57661,0,0,0,.10986-1.29492,2.0596,2.0596,0,0,0-.38525-1.27441,1.072,1.072,0,0,0-.90356-.37891,1.10891,1.10891,0,0,0-.833.41894,5.75891,5.75891,0,0,0-.75757,1.61036,4.16981,4.16981,0,0,1-1.05615,1.7832,2.382,2.382,0,0,1-1.50611.56933,2.13156,2.13156,0,0,1-1.7937-.7246,3.3318,3.3318,0,0,1-.7334-2.12012,6.35535,6.35535,0,0,1,.45191-2.5957l1.21167.417a5.65416,5.65416,0,0,0-.40943,2.16211,1.65348,1.65348,0,0,0,.35474,1.07031,1.01185,1.01185,0,0,0,.83154.335,1.14232,1.14232,0,0,0,.58936-.17383,1.50636,1.50636,0,0,0,.44678-.50586,8.23452,8.23452,0,0,0,.52832-1.24414,6.64215,6.64215,0,0,1,.70166-1.4834,2.25033,2.25033,0,0,1,.77124-.71191A2.40325,2.40325,0,0,1,14.53271,75.03684Z" fill="#4d4d4d"/><path d="M13.2893,64.94114a4.86466,4.86466,0,0,1,3.26245,1.44531,4.64323,4.64323,0,0,1-.63672,6.21191,4.90172,4.90172,0,0,1-3.51025.7334,4.82018,4.82018,0,0,1-3.26856-1.44531,4.06292,4.06292,0,0,1-.85571-3.24219A3.98242,3.98242,0,0,1,9.7998,65.68137,4.864,4.864,0,0,1,13.2893,64.94114Zm-.7107,6.83593a3.99673,3.99673,0,0,0,2.56055-.40722,2.74647,2.74647,0,0,0,.41943-3.94824,3.99823,3.99823,0,0,0-2.43115-.92481,4.00759,4.00759,0,0,0-2.55005.40039,2.34883,2.34883,0,0,0-1.04956,1.876,2.39941,2.39941,0,0,0,.63867,2.07617A3.95463,3.95463,0,0,0,12.5786,71.77707Z" fill="#4d4d4d"/><path d="M11.72191,57.91868a2.4363,2.4363,0,0,0,.34668,2.15918A3.79912,3.79912,0,0,0,14.262,61.41672a3.82459,3.82459,0,0,0,2.58545-.0332,2.47934,2.47934,0,0,0,1.33838-1.7373,5.39409,5.39409,0,0,0,.17676-1.09961q.0293-.54639.00684-1.15137l1.21093.32324a6.79924,6.79924,0,0,1-.23535,2.42285,3.859,3.859,0,0,1-1.93359,2.627,4.95934,4.95934,0,0,1-3.56153.14453,5.476,5.476,0,0,1-2.2246-1.127,3.65518,3.65518,0,0,1-1.16407-1.85156,4.52082,4.52082,0,0,1,.05274-2.34961,5.69828,5.69828,0,0,1,1.21338-2.31543l1.03906.82617a7.90334,7.90334,0,0,0-.61231.833A3.4833,3.4833,0,0,0,11.72191,57.91868Z" fill="#4d4d4d"/><path d="M20.44042,56.05247l-8.34766-3.20313.52637-1.374,8.34766,3.20312Z" fill="#4d4d4d"/><path d="M24.48778,47.51829l-2.61914-.33594-1.57422,3.06152,1.80567,1.919-.71,1.37988-6.44336-7.10156.73144-1.42383,9.52539,1.10937Zm-3.917-.56739L18.02,46.5886c-.17285-.02051-.43945-.06153-.80176-.125-.36133-.06348-.624-.11328-.78808-.15235a13.37817,13.37817,0,0,1,1.24023,1.18457l1.70117,1.78907Z" fill="#4d4d4d"/><path d="M25.7622,45.33957l-7.33594-5.11035.83984-1.208,6.3086,4.39453,2.17969-3.12793,1.02832.71582Z" fill="#4d4d4d"/><path d="M33.98583,31.99582A2.24044,2.24044,0,0,1,34.689,33.9343a3.79986,3.79986,0,0,1-1.22071,2.1709,5.74366,5.74366,0,0,1-2.10449,1.42773l-.97461-.98046a6.85672,6.85672,0,0,0,1.24707-.60059,5.57546,5.57546,0,0,0,1.03125-.793,2.06178,2.06178,0,0,0,.68164-1.14355,1.07454,1.07454,0,0,0-.33008-.92188,1.10574,1.10574,0,0,0-.86914-.334,5.76805,5.76805,0,0,0-1.70117.52636,4.16746,4.16746,0,0,1-2.0293.4209,2.37979,2.37979,0,0,1-1.43554-.72754,2.13013,2.13013,0,0,1-.67383-1.81347,3.33055,3.33055,0,0,1,1.07129-1.97168A6.36,6.36,0,0,1,29.604,27.779l.50782,1.17578a5.66549,5.66549,0,0,0-1.873,1.15527,1.658,1.658,0,0,0-.55078.98242,1.01436,1.01436,0,0,0,.3125.84082,1.14542,1.14542,0,0,0,.52637.31836,1.52261,1.52261,0,0,0,.6748-.01171,8.24665,8.24665,0,0,0,1.27442-.44727,6.65066,6.65066,0,0,1,1.56933-.48242,2.25472,2.25472,0,0,1,1.0459.09082A2.40112,2.40112,0,0,1,33.98583,31.99582Z" fill="#4d4d4d"/><path d="M39.30321,30.64231l-1.16308.90137-4.709-6.07618-2.09277,1.623-.76855-.99121,5.3496-4.14648.76856.99121-2.09375,1.62207Z" fill="#4d4d4d"/><path d="M42.05224,24.56028l1.793,3.08984-1.27344.73828L38.08251,20.656l2.2002-1.27734a4.19783,4.19783,0,0,1,2.55761-.73438,2.3177,2.3177,0,0,1,1.707,1.27149,2.44728,2.44728,0,0,1-.31836,2.93554l4.18555,2.14453-1.44824.8418-3.65723-2.00683Zm-.6084-1.04688.88476-.51269a2.35353,2.35353,0,0,0,1.09864-1.07715,1.36993,1.36993,0,0,0-.166-1.20508,1.21118,1.21118,0,0,0-.97754-.69141,2.75822,2.75822,0,0,0-1.46484.46973l-.8418.48926Z" fill="#4d4d4d"/><path d="M52.72509,13.60129,54.83056,18.99a3.42322,3.42322,0,0,1,.2334,1.77148,2.84,2.84,0,0,1-.73731,1.51562,4.3238,4.3238,0,0,1-1.65723,1.07813,3.637,3.637,0,0,1-2.748.127,3.1748,3.1748,0,0,1-1.74707-1.917L46.07763,16.199l1.377-.53711,2.05859,5.26856a2.24962,2.24962,0,0,0,1.07618,1.333,2.13954,2.13954,0,0,0,1.67187-.08886,1.87889,1.87889,0,0,0,1.14746-2.7793L51.355,14.13743Z" fill="#4d4d4d"/><path d="M60.103,12.96067a2.43437,2.43437,0,0,0-1.75391,1.30566,3.79855,3.79855,0,0,0-.17187,2.56348,3.82222,3.82222,0,0,0,1.22265,2.27734,2.47863,2.47863,0,0,0,2.16016.38379,5.27718,5.27718,0,0,0,1.05566-.35254c.334-.15039.67481-.32617,1.02539-.52539l.27247,1.22364a6.79859,6.79859,0,0,1-2.25684.91113,3.853,3.853,0,0,1-3.22168-.5,4.956,4.956,0,0,1-1.77539-3.0918,5.462,5.462,0,0,1-.0293-2.49414,3.65086,3.65086,0,0,1,1.10254-1.88672,4.524,4.524,0,0,1,2.1084-1.041,5.721,5.721,0,0,1,2.61426.00586l-.252,1.30273a8.02992,8.02992,0,0,0-1.02343-.15625A3.48125,3.48125,0,0,0,60.103,12.96067Z" fill="#4d4d4d"/><path d="M68.97607,19.56809l-1.4668.12695-.66211-7.65918-2.63867.22852-.10742-1.249,6.74414-.583.10742,1.249-2.63867.22852Z" fill="#4d4d4d"/><path d="M80.33837,10.78879l-.32617,5.77539a3.4133,3.4133,0,0,1-.52637,1.707,2.84686,2.84686,0,0,1-1.30078,1.07226,4.32909,4.32909,0,0,1-1.95606.29,3.63958,3.63958,0,0,1-2.55078-1.02637,3.17749,3.17749,0,0,1-.792-2.4707l.3252-5.752,1.47656.084-.31934,5.64844a2.25121,2.25121,0,0,0,.42285,1.6582,2.14247,2.14247,0,0,0,1.55762.61524q2.07861.11865,2.20117-2.04883l.31836-5.63672Z" fill="#4d4d4d"/><path d="M84.14306,16.82688,83.40087,20.32l-1.43945-.30566,1.85742-8.74609,2.48828.52832a4.20385,4.20385,0,0,1,2.38965,1.17089,2.319,2.319,0,0,1,.41308,2.0879,2.44789,2.44789,0,0,1-2.20507,1.96386l1.665,4.39844L86.93212,21.07l-1.36621-3.9414Zm.251-1.18457,1,.21289a2.357,2.357,0,0,0,1.53711-.06152,1.37174,1.37174,0,0,0,.68653-1.00489,1.21266,1.21266,0,0,0-.26172-1.16894,2.75423,2.75423,0,0,0-1.40235-.63477l-.95214-.20215Z" fill="#4d4d4d"/><path d="M94.41942,23.64817l-4.79785-1.71289,3.00586-8.41992,4.79785,1.71191-.415,1.16309-3.41113-1.2168-.81836,2.292,3.19532,1.1416L95.564,19.75852l-3.19532-1.1416-.94336,2.64453,3.41114,1.21777Z" fill="#4d4d4d"/><path d="M103.98,28.74094l.501-2.59375-2.95508-1.76465-2.0293,1.67969-1.332-.7959,7.4961-5.97949,1.374.82031-1.71192,9.43555Zm.81445-3.873.52442-2.52344c.03027-.1709.08887-.43555.1748-.792.08692-.35645.15332-.61622.20215-.77637a13.49242,13.49242,0,0,1-1.26074,1.16211l-1.89258,1.584Z" fill="#4d4d4d"/><path d="M111.94286,34.95872l-1.38281-1.15918,1.18066-8.30469-.03808-.03125-.23145.32422q-.665.92724-1.26953,1.64941l-2.98437,3.5625-1.02442-.8584,5.74219-6.85351,1.36914,1.14648-1.167,8.27051.02734.02344q.08056-.1172.62012-.81739.54053-.70165.85742-1.08105l3.00879-3.59082,1.03418.86621Z" fill="#4d4d4d"/><path d="M117.09618,40.7302l1.28565-2.30469L116.126,35.824l-2.45264.96289-1.0166-1.17187,8.98926-3.3379,1.04883,1.209-4.57422,8.42773Zm1.9834-3.42383,1.28613-2.23242c.08155-.15234.22022-.38477.41407-.69922q.29-.46582.43408-.67383a13.25266,13.25266,0,0,1-1.561.71094l-2.293.91211Z" fill="#4d4d4d"/><path d="M118.594,42.77707l7.46826-4.916.80957,1.22851-6.42139,4.22657,2.0957,3.18554-1.04687.68946Z" fill="#4d4d4d"/><path d="M127.67773,48.70676l4.60058.11719.7041,1.4375-6.23486-.2832-3.11328,1.52734-.65039-1.32812,3.06982-1.50391,3.64356-5.11328.70507,1.4375Z" fill="#4d4d4d"/><path d="M129.37108,59.36887a2.242,2.242,0,0,1-2.05151-.21777,3.79489,3.79489,0,0,1-1.41553-2.04785,5.74038,5.74038,0,0,1-.36084-2.51856l1.30811-.44531a6.818,6.818,0,0,0-.00659,1.38379,5.62934,5.62934,0,0,0,.26025,1.27539,2.05626,2.05626,0,0,0,.72925,1.11328,1.06925,1.06925,0,0,0,.97339.10742,1.108,1.108,0,0,0,.68115-.63574,5.73915,5.73915,0,0,0,.27271-1.75781,4.17012,4.17012,0,0,1,.51025-2.00879,2.38484,2.38484,0,0,1,1.28467-.97266,2.13616,2.13616,0,0,1,1.92529.19043,3.33551,3.33551,0,0,1,1.30151,1.82715,6.357,6.357,0,0,1,.2981,2.61816l-1.28-.05957a5.64547,5.64547,0,0,0-.2168-2.18945,1.6609,1.6609,0,0,0-.64184-.92676,1.01723,1.01723,0,0,0-.89234-.08691,1.15279,1.15279,0,0,0-.5166.333,1.51494,1.51494,0,0,0-.28613.6123,8.25779,8.25779,0,0,0-.156,1.3418,6.67132,6.67132,0,0,1-.25463,1.62207,2.25923,2.25923,0,0,1-.53956.89941A2.39009,2.39009,0,0,1,129.37108,59.36887Z" fill="#4d4d4d"/><path d="M127.4265,61.79465,136.12816,59.74l.33814,1.43261-8.70166,2.05469Z" fill="#4d4d4d"/><path d="M131.36767,70.33567a2.241,2.241,0,0,1-1.97168-.60742,3.79082,3.79082,0,0,1-.99707-2.28028,5.74689,5.74689,0,0,1,.12793-2.542l1.36914-.18652a6.80892,6.80892,0,0,0-.271,1.35742,5.59149,5.59149,0,0,0,.011,1.30078,2.06313,2.06313,0,0,0,.50219,1.2334,1.07149,1.07149,0,0,0,.93482.292,1.106,1.106,0,0,0,.79053-.49414,5.73967,5.73967,0,0,0,.60449-1.67383,4.17194,4.17194,0,0,1,.8855-1.873,2.37812,2.37812,0,0,1,1.44677-.708,2.13179,2.13179,0,0,1,1.85352.55566,3.33,3.33,0,0,1,.92725,2.042,6.34929,6.34929,0,0,1-.2085,2.626l-1.24512-.30176a5.65731,5.65731,0,0,0,.20655-2.1914,1.65281,1.65281,0,0,0-.45289-1.03223,1.01828,1.01828,0,0,0-.85888-.25586,1.14887,1.14887,0,0,0-.5708.22754,1.50951,1.50951,0,0,0-.39771.5459,8.20723,8.20723,0,0,0-.4104,1.28711,6.67952,6.67952,0,0,1-.56055,1.543,2.24716,2.24716,0,0,1-.7019.78027A2.39832,2.39832,0,0,1,131.36767,70.33567Z" fill="#4d4d4d"/><g clip-path="url(#clip-path)"><path d="M39.6724,74.209H79.3491a.57.57,0,0,0,.5064-.8443L72.7647,59.3511c-.169-.169-.3379-.3374-.5069-.3374H46.7637c-.169,0-.5064.1684-.5064.3374L39.166,73.3647A.64542.64542,0,0,0,39.6724,74.209Z" fill="#fff"/><path d="M90.1548,93.625,83.0635,79.6113c-.169-.1684-.3379-.3374-.5064-.3374H36.6333c-.1689,0-.5063.169-.5063.3374L29.0357,93.625a.6452.6452,0,0,0,.5068.8442h59.937C89.9859,94.4692,90.3233,93.9624,90.1548,93.625Z" fill="#fff"/><path d="M69.8941,53.104,60.1016,33.688a.52743.52743,0,0,0-1.0127,0L49.2964,53.104a.64485.64485,0,0,0,.5064.8442h19.416C69.7256,53.9482,70.063,53.4419,69.8941,53.104Z" fill="#fff"/><path d="M25.9966,99.8721l-6.2471,12.3247a.64542.64542,0,0,0,.5069.8442H98.7652a.57.57,0,0,0,.5068-.8442L93.0249,99.8721c-.1689-.169-.3379-.3379-.5063-.3379H26.5034C26.3345,99.5342,25.9966,99.7031,25.9966,99.8721Z" fill="#fff"/><path d="M102.7901,68.7241h-1a24.9113,24.9113,0,1,1-7.2966-17.6145,24.82935,24.82935,0,0,1,7.2966,17.6145h1.9998a26.9108,26.9108,0,1,0-26.911,26.9111,26.91115,26.91115,0,0,0,26.911-26.9111Z" fill="#8db1b3"/><path d="M114.4033,102.5976,97.4004,85.5947a25.87181,25.87181,0,1,0-2.584,2.582l17.0049,17.0039a1.8261,1.8261,0,1,0,2.582-2.583ZM55.773,68.6987A22.14965,22.14965,0,1,1,77.9224,90.8481,22.17468,22.17468,0,0,1,55.773,68.6987Z" fill="#fff"/><path d="M100.3018,68.9341A22.3152,22.3152,0,1,1,77.9863,46.6186,22.31543,22.31543,0,0,1,100.3018,68.9341Z" fill="#8db1b3"/><path d="M80.7515,52.5002s.0432.0143.1367.0487a22.85428,22.85428,0,0,1,7.0385,4.3539A17.47578,17.47578,0,0,1,93.858,70.2211a24.19085,24.19085,0,0,1-.7659,5.8672.5.5,0,1,0,.9702.2424,25.18067,25.18067,0,0,0,.7956-6.1096,18.60048,18.60048,0,0,0-6.9018-14.6219,23.35661,23.35661,0,0,0-6.8883-4.0477.5.5,0,1,0-.3162.9487Z" fill="#fff"/></g></g></g></svg>