<svg xmlns="http://www.w3.org/2000/svg" xmlns:xlink="http://www.w3.org/1999/xlink" viewBox="0 0 310 310"><defs><linearGradient id="New_Gradient_Swatch_7" x1="45.39843" y1="264.60157" x2="264.60153" y2="45.39847" gradientUnits="userSpaceOnUse"><stop offset="0" stop-color="#38a380"/><stop offset="0.06811" stop-color="#4fa684"/><stop offset="0.19954" stop-color="#74ac8a"/><stop offset="0.33708" stop-color="#93b090"/><stop offset="0.4803" stop-color="#abb494"/><stop offset="0.63159" stop-color="#bcb697"/><stop offset="0.79642" stop-color="#c6b898"/><stop offset="1" stop-color="#c9b899"/></linearGradient></defs><g id="Layer_2" data-name="Layer 2"><g id="Layer_1-2" data-name="Layer 1"><circle cx="155" cy="155" r="154" fill="#fff" stroke-miterlimit="10" stroke-width="2" stroke="url(#New_Gradient_Swatch_7)"/><path d="M66.2484,195.10824a4.13048,4.13048,0,0,1-1.44336,3.36621,6.19673,6.19673,0,0,1-4.06543,1.19824,10.89188,10.89188,0,0,1-1.917-.14941,6.0902,6.0902,0,0,1-1.55762-.499v-1.74707a7.48723,7.48723,0,0,0,3.49512.86329,4.1351,4.1351,0,0,0,2.6416-.77539,2.57489,2.57489,0,0,0,.97656-2.13282,2.07124,2.07124,0,0,0-.54-1.41406,8.20368,8.20368,0,0,0-2.00879-1.44336,6.37311,6.37311,0,0,1-2.15332-1.74805,3.54743,3.54743,0,0,1-.60157-2.06543,3.99561,3.99561,0,0,1,1.35645-3.12988,5.16188,5.16188,0,0,1,3.56641-1.208,8.75232,8.75232,0,0,1,1.89648.19532,8.61834,8.61834,0,0,1,1.85547.668l-.67774,1.542a6.30426,6.30426,0,0,0-1.52148-.61621,6.00242,6.00242,0,0,0-1.55273-.22657,3.30024,3.30024,0,0,0-2.21485.71387,2.41559,2.41559,0,0,0-.83789,1.9375,2.34988,2.34988,0,0,0,.17481.95117,2.26428,2.26428,0,0,0,.55566.74512,9.3141,9.3141,0,0,0,1.459.97656,12.40041,12.40041,0,0,1,2.041,1.419,3.35947,3.35947,0,0,1,1.07324,2.5791Z" fill="#232323"/><path d="M72.06676,188.201l-1.542,7.14356a7.74108,7.74108,0,0,0-.18457,1.42871,1.31765,1.31765,0,0,0,1.51074,1.4707,3.05947,3.05947,0,0,0,1.77832-.61719,5.48055,5.48055,0,0,0,1.541-1.76757,9.47126,9.47126,0,0,0,1.01758-2.77539l1.02832-4.88282h1.70605l-2.374,11.26563H75.1195l.22558-2.08692h-.123a6.75312,6.75312,0,0,1-1.92187,1.78907,3.88326,3.88326,0,0,1-1.8916.5039,2.87127,2.87127,0,0,1-2.06543-.71484,2.68117,2.68117,0,0,1-.751-2.04,9.59789,9.59789,0,0,1,.22656-1.76856l1.501-6.94824Z" fill="#232323"/><path d="M85.182,199.67269a3.0158,3.0158,0,0,1-1.74707-.51465,3.3357,3.3357,0,0,1-1.16114-1.43847h-.10351l-.041.39062c-.02051.1709-.05664.41114-.10742.71875q-.07764.4629-1.17676,5.69434h-1.707l3.4541-16.32227h1.42871l-.26758,2.14844h.082q1.83984-2.33349,3.82421-2.333a2.703,2.703,0,0,1,2.21973,1.002,4.35649,4.35649,0,0,1,.8125,2.81152,10.90246,10.90246,0,0,1-.71,3.99805,6.63766,6.63766,0,0,1-1.96289,2.832A4.39648,4.39648,0,0,1,85.182,199.67269Zm1.91211-10.22754a2.971,2.971,0,0,0-2.00977.97657,6.97619,6.97619,0,0,0-1.624,2.45605,8.00051,8.00051,0,0,0-.60059,3.03223,2.42063,2.42063,0,0,0,.57031,1.73242,2.16668,2.16668,0,0,0,1.64942.60156,2.71953,2.71953,0,0,0,1.89648-.833,5.843,5.843,0,0,0,1.41309-2.36914,9.86058,9.86058,0,0,0,.53418-3.26367Q88.92321,189.44467,87.09411,189.44515Z" fill="#232323"/><path d="M97.33141,199.67269a3.01582,3.01582,0,0,1-1.74707-.51465,3.33561,3.33561,0,0,1-1.16113-1.43847h-.10352l-.041.39062c-.02051.1709-.05665.41114-.10743.71875q-.07762.4629-1.17675,5.69434h-1.707L94.74157,188.201h1.42871l-.26758,2.14844h.082q1.83984-2.33349,3.82422-2.333a2.703,2.703,0,0,1,2.21973,1.002,4.35655,4.35655,0,0,1,.8125,2.81152,10.90225,10.90225,0,0,1-.71,3.99805,6.63757,6.63757,0,0,1-1.96289,2.832A4.39646,4.39646,0,0,1,97.33141,199.67269Zm1.91211-10.22754a2.971,2.971,0,0,0-2.00977.97657,6.97633,6.97633,0,0,0-1.624,2.45605,8.00051,8.00051,0,0,0-.60059,3.03223,2.42063,2.42063,0,0,0,.57032,1.73242,2.16665,2.16665,0,0,0,1.64941.60156,2.71956,2.71956,0,0,0,1.89649-.833,5.84294,5.84294,0,0,0,1.41308-2.36914,9.86033,9.86033,0,0,0,.53418-3.26367Q101.07262,189.44467,99.24352,189.44515Z" fill="#232323"/><path d="M110.48864,188.05746a4.115,4.115,0,0,1,3.083,1.15625,4.35579,4.35579,0,0,1,1.13086,3.18164,9.12072,9.12072,0,0,1-.74023,3.64844,6.3129,6.3129,0,0,1-2.00391,2.65234,4.68725,4.68725,0,0,1-2.85742.93457,4.09543,4.09543,0,0,1-3.09375-1.16113,4.38229,4.38229,0,0,1-1.12109-3.17578,9.10147,9.10147,0,0,1,.751-3.67481,6.22831,6.22831,0,0,1,2.02442-2.6416A4.71944,4.71944,0,0,1,110.48864,188.05746Zm2.42578,4.10156a2.80856,2.80856,0,0,0-.64258-1.917,2.19519,2.19519,0,0,0-1.74219-.73535,3.01049,3.01049,0,0,0-2.00976.76074,4.88924,4.88924,0,0,0-1.377,2.1123,8.78414,8.78414,0,0,0-.48828,3.00684,3.02914,3.02914,0,0,0,.65235,2.08105,2.37657,2.37657,0,0,0,1.876.73438,2.8335,2.8335,0,0,0,1.92188-.75,4.89008,4.89008,0,0,0,1.33105-2.13281A9.65521,9.65521,0,0,0,112.91442,192.159Z" fill="#232323"/><path d="M123.41832,187.99593a4.70245,4.70245,0,0,1,1.2334.14356l-.37011,1.542a4.52758,4.52758,0,0,0-1.07911-.13379,2.85633,2.85633,0,0,0-1.75293.61719,5.41608,5.41608,0,0,0-1.42871,1.71094,8.74244,8.74244,0,0,0-.89941,2.43066l-1.09961,5.16016h-1.72656l2.40527-11.26563h1.42871l-.22656,2.08692h.10351a10.10559,10.10559,0,0,1,1.22266-1.40332,3.8778,3.8778,0,0,1,1.0127-.65723A2.90538,2.90538,0,0,1,123.41832,187.99593Z" fill="#232323"/><path d="M128.08434,198.26449a5.58581,5.58581,0,0,0,1.48047-.26758v1.32617a4.75105,4.75105,0,0,1-.86328.2461,4.45408,4.45408,0,0,1-.82227.10351,2.85746,2.85746,0,0,1-1.96875-.6123,2.32343,2.32343,0,0,1-.68359-1.82422,7.47762,7.47762,0,0,1,.18554-1.542l1.30567-6.1875h-1.76856l.14454-.75,1.90136-.80176,1.28418-2.34375h1.00781L128.722,188.201h2.81641l-.26758,1.30567H128.4652l-1.32617,6.208a7.33712,7.33712,0,0,0-.18457,1.35743,1.219,1.219,0,0,0,.29785.88379A1.10526,1.10526,0,0,0,128.08434,198.26449Z" fill="#232323"/><path d="M133.183,199.46664h-1.72656l2.40527-11.26563h1.72657Zm1.16211-14.14356a1.35266,1.35266,0,0,1,.32813-.94043,1.09637,1.09637,0,0,1,.85351-.36425.80835.80835,0,0,1,.9043.9248,1.395,1.395,0,0,1-.34375.95605,1.03693,1.03693,0,0,1-.79688.39063.95067.95067,0,0,1-.67871-.252A.93625.93625,0,0,1,134.34508,185.32308Z" fill="#232323"/><path d="M143.68786,199.46664l1.52148-7.11231a9.39777,9.39777,0,0,0,.20508-1.48047,1.46061,1.46061,0,0,0-.36524-1.03808,1.52873,1.52873,0,0,0-1.166-.39063,3.04519,3.04519,0,0,0-1.78321.61621,5.4924,5.4924,0,0,0-1.53222,1.75782,9.27824,9.27824,0,0,0-1.002,2.76562l-1.03808,4.88184h-1.72656l2.40527-11.26563h1.42871l-.22656,2.08692h.10351a6.87,6.87,0,0,1,1.90625-1.77344,3.833,3.833,0,0,1,1.90625-.51856,2.88278,2.88278,0,0,1,2.06153.71387,2.6236,2.6236,0,0,1,.75488,2,8.40019,8.40019,0,0,1-.23633,1.84961l-1.46972,6.90723Z" fill="#232323"/><path d="M159.65075,188.201l-.25684,1.10059-2.16895.24609a2.89507,2.89507,0,0,1,.4209,1.624,4.17058,4.17058,0,0,1-1.19726,3.12988,4.38767,4.38767,0,0,1-3.20117,1.167,3.46276,3.46276,0,0,1-.86426-.082q-1.42823.54492-1.42871,1.3457a.54512.54512,0,0,0,.33984.56055,4.07564,4.07564,0,0,0,.98633.2207l1.20312.14453a5.35072,5.35072,0,0,1,2.69727.9043,2.41358,2.41358,0,0,1,.83789,1.99414,3.35466,3.35466,0,0,1-1.5,2.92871,7.3598,7.3598,0,0,1-4.22461,1.03809,5.5725,5.5725,0,0,1-3.125-.75488,2.42,2.42,0,0,1-1.13086-2.13282,2.64884,2.64884,0,0,1,.74024-1.87109,5.76894,5.76894,0,0,1,2.39453-1.34668,1.33743,1.33743,0,0,1-.80078-1.24316,1.63583,1.63583,0,0,1,.52343-1.21778,5.3932,5.3932,0,0,1,1.46-.95117,2.679,2.679,0,0,1-1.05859-.97168,2.70692,2.70692,0,0,1-.41113-1.49512,4.51444,4.51444,0,0,1,1.22851-3.26855,4.16971,4.16971,0,0,1,3.13965-1.27442,6.2097,6.2097,0,0,1,1.583.20508Zm-10.94727,13.26953a1.44613,1.44613,0,0,0,.66895,1.25391,3.48828,3.48828,0,0,0,1.98339.46289,5.54928,5.54928,0,0,0,2.92383-.65234,2.05831,2.05831,0,0,0,1.05371-1.84571,1.15112,1.15112,0,0,0-.55468-1.00683,4.4479,4.4479,0,0,0-1.89161-.51367l-1.63379-.165a3.71516,3.71516,0,0,0-1.8916.90527A2.112,2.112,0,0,0,148.70348,201.47054Zm2.85742-8.99316a1.79048,1.79048,0,0,0,.46289,1.331,1.74889,1.74889,0,0,0,1.28516.457,2.37972,2.37972,0,0,0,1.418-.43164,2.74946,2.74946,0,0,0,.93066-1.18653,4.12142,4.12142,0,0,0,.32324-1.63965,1.71749,1.71749,0,0,0-.45214-1.28515,1.78023,1.78023,0,0,0-1.29493-.44141,2.40729,2.40729,0,0,0-1.40332.416,2.73224,2.73224,0,0,0-.93554,1.16113A3.916,3.916,0,0,0,151.5609,192.47738Z" fill="#232323"/><path d="M169.95934,199.67269a3.01582,3.01582,0,0,1-1.74707-.51465,3.33561,3.33561,0,0,1-1.16113-1.43847h-.10352l-.041.39062c-.02051.1709-.05665.41114-.10743.71875q-.07762.4629-1.17675,5.69434h-1.707L167.3695,188.201h1.42871l-.26758,2.14844h.082q1.83984-2.33349,3.82422-2.333a2.703,2.703,0,0,1,2.21973,1.002,4.35655,4.35655,0,0,1,.8125,2.81152,10.90225,10.90225,0,0,1-.71,3.99805,6.63757,6.63757,0,0,1-1.96289,2.832A4.39646,4.39646,0,0,1,169.95934,199.67269Zm1.91211-10.22754a2.971,2.971,0,0,0-2.00977.97657,6.97633,6.97633,0,0,0-1.624,2.45605,8.00051,8.00051,0,0,0-.60059,3.03223,2.42063,2.42063,0,0,0,.57032,1.73242,2.16665,2.16665,0,0,0,1.64941.60156,2.71952,2.71952,0,0,0,1.89648-.833,5.84284,5.84284,0,0,0,1.41309-2.36914,9.86033,9.86033,0,0,0,.53418-3.26367Q173.70055,189.44467,171.87145,189.44515Z" fill="#232323"/><path d="M178.81969,199.46664h-1.72656l3.41211-15.99317h1.72754Z" fill="#232323"/><path d="M188.42028,187.99593a2.90714,2.90714,0,0,1,1.68554.50879,3.30628,3.30628,0,0,1,1.15137,1.46485h.11231l.68945-1.76856h1.30469l-2.39453,11.26563h-1.36719l.26758-2.14844h-.083q-1.83984,2.354-3.875,2.35449a2.70963,2.70963,0,0,1-2.24024-1.01758,4.35271,4.35271,0,0,1-.8125-2.78613,10.60292,10.60292,0,0,1,.73047-3.96777,6.85121,6.85121,0,0,1,2.01465-2.86719A4.38023,4.38023,0,0,1,188.42028,187.99593ZM186.46715,198.244a2.89381,2.89381,0,0,0,1.9834-.95117,7.04217,7.04217,0,0,0,1.60352-2.47754,8.10544,8.10544,0,0,0,.61718-3.05762,2.39489,2.39489,0,0,0-.57617-1.68554,1.95492,1.95492,0,0,0-1.51074-.627,2.83172,2.83172,0,0,0-1.98926.88379,5.9592,5.9592,0,0,0-1.44336,2.39453,9.65469,9.65469,0,0,0-.52441,3.18653,2.70089,2.70089,0,0,0,.48242,1.75293A1.66942,1.66942,0,0,0,186.46715,198.244Z" fill="#232323"/><path d="M201.23766,199.46664l1.52148-7.11231a9.39777,9.39777,0,0,0,.20508-1.48047,1.46065,1.46065,0,0,0-.36523-1.03808,1.52877,1.52877,0,0,0-1.166-.39063,3.04514,3.04514,0,0,0-1.7832.61621,5.49254,5.49254,0,0,0-1.53223,1.75782,9.27824,9.27824,0,0,0-1.00195,2.76562l-1.03809,4.88184h-1.72656l2.40527-11.26563h1.42872l-.22657,2.08692h.10352a6.87,6.87,0,0,1,1.90625-1.77344,3.833,3.833,0,0,1,1.90625-.51856,2.88274,2.88274,0,0,1,2.06152.71387,2.6236,2.6236,0,0,1,.75488,2,8.40073,8.40073,0,0,1-.23632,1.84961l-1.46973,6.90723Z" fill="#232323"/><path d="M213.4486,196.27035a3.01529,3.01529,0,0,1-1.13574,2.50293,5.04287,5.04287,0,0,1-3.20215.89941,6.82952,6.82952,0,0,1-3.13477-.71v-1.624a6.36423,6.36423,0,0,0,1.55274.668,5.645,5.645,0,0,0,1.541.2373,3.13284,3.13284,0,0,0,1.95313-.51465,1.59886,1.59886,0,0,0,.6582-1.31543,1.42,1.42,0,0,0-.36035-.98632,7.24116,7.24116,0,0,0-1.55176-1.10059,6.24191,6.24191,0,0,1-1.8916-1.46973,2.70924,2.70924,0,0,1-.55469-1.70605,2.83571,2.83571,0,0,1,1.03809-2.28711,4.12047,4.12047,0,0,1,2.73437-.86817,7.95365,7.95365,0,0,1,3.3916.76075l-.55468,1.4082-.57618-.25684a5.70656,5.70656,0,0,0-2.26074-.44238,2.30033,2.30033,0,0,0-1.501.44727,1.50586,1.50586,0,0,0-.17969,2.14257,6.42277,6.42277,0,0,0,1.50586,1.0586,8.70845,8.70845,0,0,1,1.57715,1.05957,3.05042,3.05042,0,0,1,.71484.95019A2.695,2.695,0,0,1,213.4486,196.27035Z" fill="#232323"/><path d="M219.307,204.52328a3.619,3.619,0,0,1-1.28418-.21582v-1.44922a3.59938,3.59938,0,0,0,1.15136.22656,1.35782,1.35782,0,0,0,1.20215-.63769,5.44726,5.44726,0,0,0,.67871-1.81934l2.333-11.12109h-1.9834l.13281-.68848,2.11817-.67871.23633-1.02734a6.08205,6.08205,0,0,1,1.31054-2.9043,3.33974,3.33974,0,0,1,2.48145-.84766,5.38573,5.38573,0,0,1,1.00781.11817,4.71474,4.71474,0,0,1,.92481.26172l-.44141,1.32617a4.01316,4.01316,0,0,0-1.4082-.29785,1.81554,1.81554,0,0,0-1.37305.498,3.96525,3.96525,0,0,0-.77539,1.8252l-.25684,1.10937H227.808l-.25683,1.30567h-2.43653l-2.38476,11.28613a5.87916,5.87916,0,0,1-1.2334,2.83691A2.85093,2.85093,0,0,1,219.307,204.52328Z" fill="#232323"/><path d="M233.57457,188.05746a4.115,4.115,0,0,1,3.083,1.15625,4.35579,4.35579,0,0,1,1.13086,3.18164,9.12072,9.12072,0,0,1-.74023,3.64844,6.31306,6.31306,0,0,1-2.00391,2.65234,4.68725,4.68725,0,0,1-2.85742.93457,4.09543,4.09543,0,0,1-3.09375-1.16113,4.38229,4.38229,0,0,1-1.1211-3.17578,9.10148,9.10148,0,0,1,.751-3.67481,6.22831,6.22831,0,0,1,2.02442-2.6416A4.71941,4.71941,0,0,1,233.57457,188.05746Zm2.42579,4.10156a2.80856,2.80856,0,0,0-.64258-1.917,2.19519,2.19519,0,0,0-1.74219-.73535,3.01053,3.01053,0,0,0-2.00977.76074,4.88932,4.88932,0,0,0-1.37695,2.1123,8.78414,8.78414,0,0,0-.48828,3.00684,3.02919,3.02919,0,0,0,.65234,2.08105,2.3766,2.3766,0,0,0,1.876.73438,2.83346,2.83346,0,0,0,1.92187-.75,4.89,4.89,0,0,0,1.33106-2.13281A9.65521,9.65521,0,0,0,236.00036,192.159Z" fill="#232323"/><path d="M246.50426,187.99593a4.70245,4.70245,0,0,1,1.2334.14356l-.37012,1.542a4.52744,4.52744,0,0,0-1.0791-.13379,2.85631,2.85631,0,0,0-1.75293.61719,5.416,5.416,0,0,0-1.42871,1.71094,8.74212,8.74212,0,0,0-.89941,2.43066l-1.09961,5.16016h-1.72657l2.40528-11.26563h1.42871l-.22656,2.08692h.10351a10.10492,10.10492,0,0,1,1.22266-1.40332,3.87775,3.87775,0,0,1,1.01269-.65723A2.90543,2.90543,0,0,1,246.50426,187.99593Z" fill="#232323"/><path d="M78.1361,224.72738H76.40953l2.40528-11.26563h1.72656Zm1.16211-14.14355a1.35263,1.35263,0,0,1,.32812-.94043,1.09638,1.09638,0,0,1,.85352-.36426.80834.80834,0,0,1,.90429.9248,1.395,1.395,0,0,1-.34375.95606,1.03692,1.03692,0,0,1-.79687.39062.95067.95067,0,0,1-.67871-.252A.93621.93621,0,0,1,79.29821,210.58383Z" fill="#232323"/><path d="M88.30211,224.72738l1.52051-7.1123a8.41,8.41,0,0,0,.18555-1.3877,1.75853,1.75853,0,0,0-.31934-1.12109A1.31509,1.31509,0,0,0,88.6,214.7059a2.76079,2.76079,0,0,0-1.68066.61621,5.36932,5.36932,0,0,0-1.43945,1.76367,10.18834,10.18834,0,0,0-.96094,2.75976l-1.03809,4.88184H81.75426l2.40527-11.26563h1.42872l-.22657,2.08692h.10352a6.43543,6.43543,0,0,1,1.7832-1.75781,3.51344,3.51344,0,0,1,1.834-.53418,2.335,2.335,0,0,1,1.78906.668,3.0587,3.0587,0,0,1,.74023,1.86035h.082a6.58449,6.58449,0,0,1,1.88086-1.90625,3.76653,3.76653,0,0,1,2.01465-.62207,2.768,2.768,0,0,1,2.01953.69922,2.72036,2.72036,0,0,1,.71485,2.03515,9.81547,9.81547,0,0,1-.22657,1.8291l-1.48046,6.90723H94.8695l1.52148-7.1123a9.36532,9.36532,0,0,0,.20508-1.501,1.29508,1.29508,0,0,0-1.46973-1.4082,2.76555,2.76555,0,0,0-1.64453.5957A5.20821,5.20821,0,0,0,92.058,216.993a9.23281,9.23281,0,0,0-.92969,2.59473l-1.0996,5.13965Z" fill="#232323"/><path d="M105.1068,224.93343a3.01589,3.01589,0,0,1-1.74707-.51464,3.3357,3.3357,0,0,1-1.16113-1.43848h-.10352l-.041.39062c-.02051.1709-.05664.41114-.10743.71875q-.07762.4629-1.17675,5.69434h-1.707l3.4541-16.32227h1.42871l-.26758,2.14844h.082q1.83984-2.33349,3.82422-2.333a2.703,2.703,0,0,1,2.21973,1.002,4.35659,4.35659,0,0,1,.8125,2.81152,10.90246,10.90246,0,0,1-.71,3.998,6.63768,6.63768,0,0,1-1.9629,2.832A4.39646,4.39646,0,0,1,105.1068,224.93343Zm1.91211-10.22753a2.971,2.971,0,0,0-2.00977.97656,6.97642,6.97642,0,0,0-1.624,2.45605,8.00051,8.00051,0,0,0-.60059,3.03223,2.42062,2.42062,0,0,0,.57032,1.73242,2.16665,2.16665,0,0,0,1.64941.60156,2.71959,2.71959,0,0,0,1.89649-.833,5.84308,5.84308,0,0,0,1.41308-2.36914,9.86043,9.86043,0,0,0,.53418-3.26368Q108.848,214.70541,107.01891,214.7059Z" fill="#232323"/><path d="M113.96715,224.72738h-1.72656l3.41211-15.99316h1.72754Z" fill="#232323"/><path d="M122.056,224.93343a3.92791,3.92791,0,0,1-2.96973-1.12109,4.28563,4.28563,0,0,1-1.08008-3.10351,9.25206,9.25206,0,0,1,.76661-3.70606,6.85555,6.85555,0,0,1,2.02929-2.75977,4.42773,4.42773,0,0,1,2.78614-.98632,3.52935,3.52935,0,0,1,2.36328.68359,2.38259,2.38259,0,0,1,.792,1.90625,3.261,3.261,0,0,1-1.70606,2.9043,9.34985,9.34985,0,0,1-4.88281,1.05273h-.33887l-.041.82227a3.18422,3.18422,0,0,0,.63184,2.10254,2.40952,2.40952,0,0,0,1.958.75488,5.09787,5.09787,0,0,0,1.33106-.18457,10.15382,10.15382,0,0,0,1.70117-.67871v1.501a9.25182,9.25182,0,0,1-1.70606.63184A6.90863,6.90863,0,0,1,122.056,224.93343Zm1.42871-10.207a2.74782,2.74782,0,0,0-1.98828.96582,6.31952,6.31952,0,0,0-1.42383,2.68262h.12305a8.38683,8.38683,0,0,0,3.59277-.61133,1.91929,1.91929,0,0,0,1.249-1.77246,1.20294,1.20294,0,0,0-.375-.90527A1.65664,1.65664,0,0,0,123.48473,214.7264Z" fill="#232323"/><path d="M134.53453,224.72738l1.52051-7.1123a8.40885,8.40885,0,0,0,.18555-1.3877,1.75853,1.75853,0,0,0-.31934-1.12109,1.31508,1.31508,0,0,0-1.08886-.40039,2.76079,2.76079,0,0,0-1.68067.61621,5.36932,5.36932,0,0,0-1.43945,1.76367,10.18867,10.18867,0,0,0-.96094,2.75976l-1.03808,4.88184h-1.72657l2.40528-11.26563h1.42871l-.22656,2.08692h.10351a6.43543,6.43543,0,0,1,1.7832-1.75781,3.51346,3.51346,0,0,1,1.834-.53418,2.335,2.335,0,0,1,1.78906.668,3.05876,3.05876,0,0,1,.74024,1.86035h.082a6.58437,6.58437,0,0,1,1.88086-1.90625,3.76647,3.76647,0,0,1,2.01464-.62207,2.768,2.768,0,0,1,2.01954.69922,2.7204,2.7204,0,0,1,.71484,2.03515,9.81617,9.81617,0,0,1-.22656,1.8291l-1.48047,6.90723h-1.74707l1.52148-7.1123a9.36532,9.36532,0,0,0,.20508-1.501,1.29508,1.29508,0,0,0-1.46973-1.4082,2.76557,2.76557,0,0,0-1.64453.5957,5.20833,5.20833,0,0,0-1.42383,1.6914,9.2325,9.2325,0,0,0-.92968,2.59473l-1.09961,5.13965Z" fill="#232323"/><path d="M150.7943,224.93343a3.92791,3.92791,0,0,1-2.96973-1.12109,4.28563,4.28563,0,0,1-1.08007-3.10351,9.25222,9.25222,0,0,1,.7666-3.70606,6.85555,6.85555,0,0,1,2.02929-2.75977,4.42773,4.42773,0,0,1,2.78614-.98632,3.52935,3.52935,0,0,1,2.36328.68359,2.38259,2.38259,0,0,1,.792,1.90625,3.261,3.261,0,0,1-1.70605,2.9043,9.34991,9.34991,0,0,1-4.88282,1.05273h-.33886l-.041.82227a3.18422,3.18422,0,0,0,.63184,2.10254,2.40953,2.40953,0,0,0,1.958.75488,5.09787,5.09787,0,0,0,1.33106-.18457,10.15382,10.15382,0,0,0,1.70117-.67871v1.501a9.252,9.252,0,0,1-1.70605.63184A6.90878,6.90878,0,0,1,150.7943,224.93343Zm1.42871-10.207a2.74782,2.74782,0,0,0-1.98828.96582,6.31952,6.31952,0,0,0-1.42383,2.68262h.12305a8.38683,8.38683,0,0,0,3.59277-.61133,1.9193,1.9193,0,0,0,1.249-1.77246,1.20294,1.20294,0,0,0-.375-.90527A1.65668,1.65668,0,0,0,152.223,214.7264Z" fill="#232323"/><path d="M163.61168,224.72738l1.52149-7.1123a9.39807,9.39807,0,0,0,.20508-1.48047,1.46064,1.46064,0,0,0-.36524-1.03809,1.52873,1.52873,0,0,0-1.166-.39062,3.04507,3.04507,0,0,0-1.78321.61621,5.49235,5.49235,0,0,0-1.53222,1.75781,9.27834,9.27834,0,0,0-1.002,2.76562l-1.03808,4.88184H156.725l2.40528-11.26563H160.559l-.22656,2.08692h.10351a6.87,6.87,0,0,1,1.90625-1.77344,3.833,3.833,0,0,1,1.90625-.51855,2.88278,2.88278,0,0,1,2.06153.71386,2.62361,2.62361,0,0,1,.75488,2,8.40079,8.40079,0,0,1-.23633,1.84961l-1.46973,6.90723Z" fill="#232323"/><path d="M172.3275,223.52523a5.58574,5.58574,0,0,0,1.48047-.26758v1.32618a4.75192,4.75192,0,0,1-.86328.24609,4.454,4.454,0,0,1-.82226.10351,2.85742,2.85742,0,0,1-1.96875-.6123,2.32344,2.32344,0,0,1-.6836-1.82422,7.477,7.477,0,0,1,.18555-1.542l1.30566-6.1875h-1.76855l.14453-.75,1.90137-.80176,1.28418-2.34375h1.00781l-.56543,2.58984h2.81641l-.26758,1.30567h-2.80567l-1.32617,6.208a7.337,7.337,0,0,0-.18457,1.35742,1.219,1.219,0,0,0,.29785.88379A1.10522,1.10522,0,0,0,172.3275,223.52523Z" fill="#232323"/><path d="M181.66149,213.25668a2.90706,2.90706,0,0,1,1.68554.50879,3.3062,3.3062,0,0,1,1.15137,1.46484h.11231l.68945-1.76856h1.30469l-2.39453,11.26563h-1.36719l.26758-2.14844h-.083q-1.83984,2.354-3.875,2.35449a2.70965,2.70965,0,0,1-2.24024-1.01757,4.35274,4.35274,0,0,1-.8125-2.78614,10.60292,10.60292,0,0,1,.73047-3.96777,6.85128,6.85128,0,0,1,2.01465-2.86719A4.38022,4.38022,0,0,1,181.66149,213.25668Zm-1.95313,10.248a2.89379,2.89379,0,0,0,1.9834-.95117,7.04217,7.04217,0,0,0,1.60352-2.47754,8.10543,8.10543,0,0,0,.61718-3.05761,2.39489,2.39489,0,0,0-.57617-1.68555,1.95491,1.95491,0,0,0-1.51074-.62695,2.83171,2.83171,0,0,0-1.98926.88378,5.95918,5.95918,0,0,0-1.44336,2.39454,9.65459,9.65459,0,0,0-.52441,3.18652,2.70089,2.70089,0,0,0,.48242,1.75293A1.66943,1.66943,0,0,0,179.70836,223.50472Z" fill="#232323"/><path d="M191.04528,223.52523a5.58587,5.58587,0,0,0,1.48047-.26758v1.32618a4.75181,4.75181,0,0,1-.86329.24609,4.4539,4.4539,0,0,1-.82226.10351,2.85742,2.85742,0,0,1-1.96875-.6123,2.32343,2.32343,0,0,1-.68359-1.82422,7.47762,7.47762,0,0,1,.18554-1.542l1.30567-6.1875h-1.76856l.14453-.75,1.90137-.80176,1.28418-2.34375h1.00781l-.56543,2.58984h2.81641l-.26758,1.30567h-2.80566l-1.32618,6.208a7.33791,7.33791,0,0,0-.18457,1.35742,1.21905,1.21905,0,0,0,.29786.88379A1.10522,1.10522,0,0,0,191.04528,223.52523Z" fill="#232323"/><path d="M196.14391,224.72738h-1.72656l2.40527-11.26563h1.72656Zm1.16211-14.14355a1.35263,1.35263,0,0,1,.32812-.94043,1.09638,1.09638,0,0,1,.85352-.36426.80835.80835,0,0,1,.9043.9248,1.395,1.395,0,0,1-.34375.95606,1.037,1.037,0,0,1-.79688.39062.95067.95067,0,0,1-.67871-.252A.93624.93624,0,0,1,197.306,210.58383Z" fill="#232323"/><path d="M205.765,213.3182a4.115,4.115,0,0,1,3.083,1.15625,4.35579,4.35579,0,0,1,1.13086,3.18164,9.12065,9.12065,0,0,1-.74023,3.64844,6.31306,6.31306,0,0,1-2.00391,2.65234,4.68725,4.68725,0,0,1-2.85742.93457,4.09543,4.09543,0,0,1-3.09375-1.16113,4.38228,4.38228,0,0,1-1.1211-3.17578,9.10148,9.10148,0,0,1,.751-3.67481,6.22831,6.22831,0,0,1,2.02442-2.6416A4.71941,4.71941,0,0,1,205.765,213.3182Zm2.42578,4.10156a2.80857,2.80857,0,0,0-.64257-1.917,2.19522,2.19522,0,0,0-1.74219-.73535,3.01058,3.01058,0,0,0-2.00977.76074,4.88935,4.88935,0,0,0-1.37695,2.11231,8.78409,8.78409,0,0,0-.48828,3.00683,3.02923,3.02923,0,0,0,.65234,2.08106,2.37663,2.37663,0,0,0,1.876.73437,2.83346,2.83346,0,0,0,1.92187-.75,4.89,4.89,0,0,0,1.33106-2.13281A9.65522,9.65522,0,0,0,208.19078,217.41976Z" fill="#232323"/><path d="M218.45836,224.72738l1.52149-7.1123a9.39807,9.39807,0,0,0,.20508-1.48047,1.46064,1.46064,0,0,0-.36524-1.03809,1.52873,1.52873,0,0,0-1.166-.39062,3.04507,3.04507,0,0,0-1.78321.61621,5.49235,5.49235,0,0,0-1.53222,1.75781,9.27834,9.27834,0,0,0-1.002,2.76562l-1.03808,4.88184h-1.72657l2.40528-11.26563h1.42871l-.22656,2.08692h.10351a6.87,6.87,0,0,1,1.90625-1.77344,3.833,3.833,0,0,1,1.90625-.51855,2.88278,2.88278,0,0,1,2.06153.71386,2.62365,2.62365,0,0,1,.75488,2,8.40079,8.40079,0,0,1-.23633,1.84961l-1.46973,6.90723Z" fill="#232323"/><path d="M226.10582,222.28109l.082.23633a45.87448,45.87448,0,0,1-2.7754,4.92383h-1.32617q1.29639-2.93994,2.09766-5.16016Z" fill="#232323"/><path d="M105.27672,249.98715l1.52051-7.11231a8.40975,8.40975,0,0,0,.18555-1.38769,1.75856,1.75856,0,0,0-.31934-1.1211,1.31512,1.31512,0,0,0-1.08887-.40039,2.76085,2.76085,0,0,0-1.68066.61621,5.36943,5.36943,0,0,0-1.43945,1.76367,10.18853,10.18853,0,0,0-.96094,2.75977l-1.03809,4.88184H98.72887l2.40527-11.26563h1.42872l-.22657,2.08691h.10352a6.43557,6.43557,0,0,1,1.7832-1.75781,3.5135,3.5135,0,0,1,1.834-.53418,2.335,2.335,0,0,1,1.78906.668,3.0587,3.0587,0,0,1,.74023,1.86035h.082a6.58474,6.58474,0,0,1,1.88086-1.90625,3.76653,3.76653,0,0,1,2.01465-.62207,2.768,2.768,0,0,1,2.01953.69922,2.72037,2.72037,0,0,1,.71485,2.03516,9.81642,9.81642,0,0,1-.22657,1.8291l-1.48046,6.90723h-1.74707l1.52148-7.11231a9.365,9.365,0,0,0,.20508-1.501,1.29508,1.29508,0,0,0-1.46973-1.4082,2.76561,2.76561,0,0,0-1.64453.5957,5.20824,5.20824,0,0,0-1.42383,1.69141,9.23269,9.23269,0,0,0-.92969,2.59473l-1.09961,5.13965Z" fill="#232323"/><path d="M123.08922,238.578a4.11506,4.11506,0,0,1,3.083,1.15625,4.35579,4.35579,0,0,1,1.13086,3.18164,9.12063,9.12063,0,0,1-.74023,3.64843,6.31309,6.31309,0,0,1-2.00391,2.65235,4.68732,4.68732,0,0,1-2.85742.93457,4.09543,4.09543,0,0,1-3.09375-1.16113,4.3823,4.3823,0,0,1-1.1211-3.17579,9.10146,9.10146,0,0,1,.751-3.6748,6.2283,6.2283,0,0,1,2.02441-2.6416A4.71946,4.71946,0,0,1,123.08922,238.578Zm2.42578,4.10156a2.80853,2.80853,0,0,0-.64257-1.917,2.19521,2.19521,0,0,0-1.74219-.73536,3.01054,3.01054,0,0,0-2.00977.76075,4.88917,4.88917,0,0,0-1.37695,2.1123,8.78414,8.78414,0,0,0-.48828,3.00684,3.02914,3.02914,0,0,0,.65234,2.08105,2.3766,2.3766,0,0,0,1.876.73438,2.83348,2.83348,0,0,0,1.92187-.75,4.89,4.89,0,0,0,1.33106-2.13282A9.65512,9.65512,0,0,0,125.515,242.67953Z" fill="#232323"/><path d="M135.78258,249.98715l1.52149-7.11231a9.39862,9.39862,0,0,0,.20507-1.48047,1.46065,1.46065,0,0,0-.36523-1.03808,1.52872,1.52872,0,0,0-1.166-.39063,3.04514,3.04514,0,0,0-1.7832.61621,5.4925,5.4925,0,0,0-1.53223,1.75781,9.27841,9.27841,0,0,0-1.002,2.76563l-1.03808,4.88184h-1.72657l2.40528-11.26563h1.42871l-.22657,2.08691h.10352a6.87,6.87,0,0,1,1.90625-1.77343,3.83285,3.83285,0,0,1,1.90625-.51856,2.8827,2.8827,0,0,1,2.06152.71387,2.62359,2.62359,0,0,1,.75489,2,8.40079,8.40079,0,0,1-.23633,1.84961l-1.46973,6.90723Z" fill="#232323"/><path d="M142.77184,249.98715h-1.72656l2.40527-11.26563h1.72656Zm1.16211-14.14356a1.35265,1.35265,0,0,1,.32812-.94043,1.09642,1.09642,0,0,1,.85352-.36426.80836.80836,0,0,1,.9043.92481,1.395,1.395,0,0,1-.34375.95605,1.037,1.037,0,0,1-.79688.39063.95067.95067,0,0,1-.67871-.252A.93623.93623,0,0,1,143.934,235.84359Z" fill="#232323"/><path d="M149.84313,248.785a5.58622,5.58622,0,0,0,1.48047-.26758v1.32617a4.75111,4.75111,0,0,1-.86328.24609,4.45425,4.45425,0,0,1-.82227.10352,2.85746,2.85746,0,0,1-1.96875-.6123,2.32343,2.32343,0,0,1-.68359-1.82422,7.47779,7.47779,0,0,1,.18554-1.542l1.30567-6.1875h-1.76856l.14453-.75,1.90137-.80175,1.28418-2.34375h1.00781l-.56543,2.58984h2.81641l-.26758,1.30566H150.224l-1.32617,6.208a7.33714,7.33714,0,0,0-.18457,1.35742,1.219,1.219,0,0,0,.29785.88379A1.10522,1.10522,0,0,0,149.84313,248.785Z" fill="#232323"/><path d="M159.21813,238.578a4.11506,4.11506,0,0,1,3.083,1.15625,4.35584,4.35584,0,0,1,1.13086,3.18164,9.12047,9.12047,0,0,1-.74024,3.64843,6.313,6.313,0,0,1-2.0039,2.65235,4.68735,4.68735,0,0,1-2.85743.93457,4.09544,4.09544,0,0,1-3.09375-1.16113,4.3823,4.3823,0,0,1-1.12109-3.17579,9.10146,9.10146,0,0,1,.751-3.6748,6.2283,6.2283,0,0,1,2.02441-2.6416A4.71944,4.71944,0,0,1,159.21813,238.578Zm2.42578,4.10156a2.80849,2.80849,0,0,0-.64258-1.917,2.1952,2.1952,0,0,0-1.74219-.73536,3.0105,3.0105,0,0,0-2.00976.76075,4.88917,4.88917,0,0,0-1.37695,2.1123,8.7839,8.7839,0,0,0-.48829,3.00684,3.02914,3.02914,0,0,0,.65235,2.08105,2.37657,2.37657,0,0,0,1.876.73438,2.83349,2.83349,0,0,0,1.92188-.75,4.89,4.89,0,0,0,1.33105-2.13282A9.65511,9.65511,0,0,0,161.64391,242.67953Z" fill="#232323"/><path d="M172.14782,238.51644a4.70194,4.70194,0,0,1,1.23339.14356l-.37011,1.542a4.5275,4.5275,0,0,0-1.0791-.13379,2.85622,2.85622,0,0,0-1.75293.61719,5.41571,5.41571,0,0,0-1.42871,1.71094,8.742,8.742,0,0,0-.89942,2.43066l-1.09961,5.16016h-1.72656L167.43,238.72152h1.42871l-.22656,2.08691h.10352a10.10619,10.10619,0,0,1,1.22265-1.40332,3.8775,3.8775,0,0,1,1.0127-.65722A2.90543,2.90543,0,0,1,172.14782,238.51644Z" fill="#232323"/><path d="M175.08727,249.98715h-1.72656l2.40527-11.26563h1.72656Zm1.16211-14.14356a1.35265,1.35265,0,0,1,.32812-.94043,1.09642,1.09642,0,0,1,.85352-.36426.80836.80836,0,0,1,.9043.92481,1.395,1.395,0,0,1-.34375.95605,1.037,1.037,0,0,1-.79688.39063.95067.95067,0,0,1-.67871-.252A.93623.93623,0,0,1,176.24938,235.84359Z" fill="#232323"/><path d="M185.59215,249.98715l1.52149-7.11231a9.39738,9.39738,0,0,0,.20507-1.48047,1.46065,1.46065,0,0,0-.36523-1.03808,1.52872,1.52872,0,0,0-1.166-.39063,3.04514,3.04514,0,0,0-1.7832.61621,5.4925,5.4925,0,0,0-1.53223,1.75781,9.27841,9.27841,0,0,0-1.00195,2.76563l-1.03808,4.88184h-1.72657l2.40528-11.26563h1.42871l-.22656,2.08691h.10351a6.87,6.87,0,0,1,1.90625-1.77343,3.83285,3.83285,0,0,1,1.90625-.51856,2.8827,2.8827,0,0,1,2.06152.71387,2.62359,2.62359,0,0,1,.75489,2,8.40079,8.40079,0,0,1-.23633,1.84961l-1.46973,6.90723Z" fill="#232323"/><path d="M201.555,238.72152l-.25683,1.10059-2.169.24609a2.89511,2.89511,0,0,1,.4209,1.624,4.17055,4.17055,0,0,1-1.19727,3.12989,4.38765,4.38765,0,0,1-3.20117,1.167,3.4633,3.4633,0,0,1-.86426-.082q-1.42821.54492-1.42871,1.3457a.54513.54513,0,0,0,.33985.56055,4.07589,4.07589,0,0,0,.98633.2207l1.20312.14453a5.35079,5.35079,0,0,1,2.69727.9043,2.41358,2.41358,0,0,1,.83789,1.99414,3.35467,3.35467,0,0,1-1.5,2.92871,7.35988,7.35988,0,0,1-4.22461,1.03809,5.57239,5.57239,0,0,1-3.125-.75489,2.41992,2.41992,0,0,1-1.13086-2.13281,2.64885,2.64885,0,0,1,.74023-1.87109,5.76878,5.76878,0,0,1,2.39453-1.34668,1.33745,1.33745,0,0,1-.80078-1.24317,1.63583,1.63583,0,0,1,.52344-1.21777,5.3932,5.3932,0,0,1,1.46-.95117,2.679,2.679,0,0,1-1.05859-.97168,2.70687,2.70687,0,0,1-.41114-1.49512,4.5144,4.5144,0,0,1,1.22852-3.26855,4.16969,4.16969,0,0,1,3.13965-1.27442,6.2097,6.2097,0,0,1,1.583.20508Zm-10.94726,13.26953a1.44612,1.44612,0,0,0,.66894,1.25391,3.48832,3.48832,0,0,0,1.9834.46289,5.54918,5.54918,0,0,0,2.92383-.65235,2.0583,2.0583,0,0,0,1.05371-1.8457,1.15111,1.15111,0,0,0-.55469-1.00683,4.44792,4.44792,0,0,0-1.8916-.51368l-1.63379-.165a3.71525,3.71525,0,0,0-1.8916.90528A2.112,2.112,0,0,0,190.60778,251.99105Zm2.85742-8.99316a1.79049,1.79049,0,0,0,.46289,1.331,1.74887,1.74887,0,0,0,1.28516.457,2.3796,2.3796,0,0,0,1.418-.43164,2.74932,2.74932,0,0,0,.93067-1.18652,4.12146,4.12146,0,0,0,.32324-1.63965,1.71749,1.71749,0,0,0-.45215-1.28516,1.78026,1.78026,0,0,0-1.29492-.4414,2.40735,2.40735,0,0,0-1.40332.416,2.73243,2.73243,0,0,0-.93555,1.16114A3.91611,3.91611,0,0,0,193.4652,242.99789Z" fill="#232323"/><path d="M203.78551,247.54086l.082.23632a45.87338,45.87338,0,0,1-2.77539,4.92383H199.766q1.29639-2.93994,2.09766-5.16015Z" fill="#232323"/><path d="M108.03161,275.24789l1.52148-7.11231a9.39777,9.39777,0,0,0,.20508-1.48047,1.46061,1.46061,0,0,0-.36524-1.03808,1.52873,1.52873,0,0,0-1.166-.39063,3.04519,3.04519,0,0,0-1.78321.61621,5.4924,5.4924,0,0,0-1.53222,1.75782,9.27824,9.27824,0,0,0-1.002,2.76562l-1.03808,4.88184h-1.72656l2.40527-11.26563h1.42871l-.22656,2.08692h.10351a6.87,6.87,0,0,1,1.90625-1.77344,3.833,3.833,0,0,1,1.90625-.51856,2.88278,2.88278,0,0,1,2.06153.71387,2.6236,2.6236,0,0,1,.75488,2,8.40019,8.40019,0,0,1-.23633,1.84961l-1.46972,6.90723Z" fill="#232323"/><path d="M117.7445,275.45394a3.9279,3.9279,0,0,1-2.96973-1.12109,4.28562,4.28562,0,0,1-1.08008-3.10352,9.2522,9.2522,0,0,1,.7666-3.70605,6.85566,6.85566,0,0,1,2.0293-2.75977,4.4277,4.4277,0,0,1,2.78613-.98633,3.52928,3.52928,0,0,1,2.36328.6836,2.38258,2.38258,0,0,1,.792,1.90625,3.261,3.261,0,0,1-1.70606,2.9043,9.34994,9.34994,0,0,1-4.88281,1.05273h-.33887l-.041.82227a3.18417,3.18417,0,0,0,.63183,2.10253,2.40953,2.40953,0,0,0,1.958.75489,5.09816,5.09816,0,0,0,1.33105-.18457,10.15353,10.15353,0,0,0,1.70118-.67871v1.501a9.25208,9.25208,0,0,1-1.70606.63184A6.90863,6.90863,0,0,1,117.7445,275.45394Zm1.42871-10.207a2.74781,2.74781,0,0,0-1.98828.96582,6.31946,6.31946,0,0,0-1.42383,2.68262h.123a8.387,8.387,0,0,0,3.59278-.61133,1.91931,1.91931,0,0,0,1.249-1.77246,1.20294,1.20294,0,0,0-.375-.90527A1.65667,1.65667,0,0,0,119.17321,265.24691Z" fill="#232323"/><path d="M127.12828,274.04574a5.58574,5.58574,0,0,0,1.48047-.26758v1.32617a4.75058,4.75058,0,0,1-.86328.2461,4.454,4.454,0,0,1-.82226.10351,2.85742,2.85742,0,0,1-1.96875-.6123,2.32344,2.32344,0,0,1-.6836-1.82422,7.477,7.477,0,0,1,.18555-1.542l1.30566-6.1875h-1.76855l.14453-.75,1.90137-.80176,1.28418-2.34375h1.00781l-.56543,2.58984h2.81641l-.26758,1.30567h-2.80567l-1.32617,6.208a7.338,7.338,0,0,0-.18457,1.35743,1.219,1.219,0,0,0,.29785.88379A1.10529,1.10529,0,0,0,127.12828,274.04574Z" fill="#232323"/><path d="M138.43493,275.24789l-.32813-6.1875q-.04248-.96679-.041-1.76758v-1.60352H137.973l-.51367,1.21289-.85352,1.94239-2.99121,6.40332h-2.07617l-.44238-11.26563h1.68652l.18457,6.10547v.90527q0,1.51026-.082,2.76465h.06152q.48341-1.27441,1.40821-3.30957l3.03222-6.46582h1.87012l.38086,6.10547q.06153,1.72706.06152,2.69336v.54492l-.0205.43164h.06152q.28711-.88476.85352-2.24609.56543-1.3623,3.31933-7.5293h1.83008l-5.20117,11.26563Z" fill="#232323"/><path d="M151.59215,263.83871a4.11506,4.11506,0,0,1,3.083,1.15625,4.35579,4.35579,0,0,1,1.13086,3.18164,9.12055,9.12055,0,0,1-.74024,3.64844,6.313,6.313,0,0,1-2.0039,2.65234,4.68725,4.68725,0,0,1-2.85742.93457,4.09543,4.09543,0,0,1-3.09375-1.16113,4.38229,4.38229,0,0,1-1.1211-3.17578,9.10148,9.10148,0,0,1,.751-3.67481,6.2283,6.2283,0,0,1,2.02441-2.6416A4.71946,4.71946,0,0,1,151.59215,263.83871Zm2.42578,4.10156a2.80855,2.80855,0,0,0-.64257-1.917,2.19521,2.19521,0,0,0-1.74219-.73535,3.01053,3.01053,0,0,0-2.00977.76074,4.88923,4.88923,0,0,0-1.37695,2.1123,8.78414,8.78414,0,0,0-.48828,3.00684,3.02914,3.02914,0,0,0,.65234,2.08105,2.3766,2.3766,0,0,0,1.876.73438,2.83348,2.83348,0,0,0,1.92187-.75,4.89,4.89,0,0,0,1.33106-2.13281A9.65522,9.65522,0,0,0,154.01793,267.94027Z" fill="#232323"/><path d="M164.52184,263.77718a4.70245,4.70245,0,0,1,1.2334.14356l-.37012,1.542a4.5275,4.5275,0,0,0-1.0791-.13379,2.85631,2.85631,0,0,0-1.75293.61719,5.41582,5.41582,0,0,0-1.42871,1.71094,8.74245,8.74245,0,0,0-.89942,2.43066l-1.0996,5.16016h-1.72657l2.40528-11.26563h1.42871l-.22657,2.08692h.10352a10.10425,10.10425,0,0,1,1.22266-1.40332,3.87775,3.87775,0,0,1,1.01269-.65723A2.90543,2.90543,0,0,1,164.52184,263.77718Z" fill="#232323"/><path d="M168.51989,269.50179l5.40722-5.51953h2.06543l-4.82031,4.80078,3.03223,6.46485h-1.92188l-2.416-5.38574-1.5625,1.26367-.84278,4.12207h-1.74707l3.3916-15.99317h1.74805q-.74121,3.45264-1.32617,6.1875a36.6563,36.6563,0,0,1-1.04883,4.05957Z" fill="#232323"/><path d="M177.72985,275.24789h-1.72657l2.40528-11.26563h1.72656Zm1.16211-14.14356a1.35265,1.35265,0,0,1,.32812-.94043,1.09641,1.09641,0,0,1,.85352-.36425.80834.80834,0,0,1,.90429.9248,1.395,1.395,0,0,1-.34375.95605,1.0369,1.0369,0,0,1-.79687.39063.95067.95067,0,0,1-.67871-.25195A.93621.93621,0,0,1,178.892,261.10433Z" fill="#232323"/><path d="M188.23473,275.24789l1.52148-7.11231a9.39777,9.39777,0,0,0,.20508-1.48047,1.46065,1.46065,0,0,0-.36523-1.03808,1.52877,1.52877,0,0,0-1.166-.39063,3.04514,3.04514,0,0,0-1.7832.61621,5.49254,5.49254,0,0,0-1.53223,1.75782,9.27824,9.27824,0,0,0-1.00195,2.76562l-1.03809,4.88184H181.348l2.40527-11.26563H185.182l-.22657,2.08692h.10352a6.87,6.87,0,0,1,1.90625-1.77344,3.833,3.833,0,0,1,1.90625-.51856,2.88274,2.88274,0,0,1,2.06152.71387,2.6236,2.6236,0,0,1,.75489,2,8.40079,8.40079,0,0,1-.23633,1.84961l-1.46973,6.90723Z" fill="#232323"/><path d="M204.19762,263.98226l-.25684,1.10059-2.16894.24609a2.89515,2.89515,0,0,1,.4209,1.624,4.17058,4.17058,0,0,1-1.19727,3.12988,4.38765,4.38765,0,0,1-3.20117,1.167,3.46282,3.46282,0,0,1-.86426-.082q-1.42822.54492-1.42871,1.3457a.54512.54512,0,0,0,.33985.56055,4.07543,4.07543,0,0,0,.98632.2207l1.20313.14453a5.35072,5.35072,0,0,1,2.69726.9043,2.41356,2.41356,0,0,1,.83789,1.99414,3.35466,3.35466,0,0,1-1.5,2.92871,7.35975,7.35975,0,0,1-4.2246,1.03809,5.57247,5.57247,0,0,1-3.125-.75488,2.42,2.42,0,0,1-1.13086-2.13282,2.64887,2.64887,0,0,1,.74023-1.87109,5.76894,5.76894,0,0,1,2.39453-1.34668,1.33743,1.33743,0,0,1-.80078-1.24316,1.63584,1.63584,0,0,1,.52344-1.21778,5.3932,5.3932,0,0,1,1.46-.95117,2.679,2.679,0,0,1-1.05859-.97168,2.70684,2.70684,0,0,1-.41114-1.49512,4.5144,4.5144,0,0,1,1.22852-3.26855,4.16969,4.16969,0,0,1,3.13965-1.27442,6.20956,6.20956,0,0,1,1.583.20508Zm-10.94726,13.26953a1.44612,1.44612,0,0,0,.66894,1.25391,3.48832,3.48832,0,0,0,1.9834.46289,5.54928,5.54928,0,0,0,2.92383-.65234,2.05831,2.05831,0,0,0,1.05371-1.84571,1.15111,1.15111,0,0,0-.55469-1.00683,4.44789,4.44789,0,0,0-1.8916-.51367l-1.63379-.165a3.71508,3.71508,0,0,0-1.8916.90527A2.112,2.112,0,0,0,193.25036,277.25179Zm2.85742-8.99316a1.79044,1.79044,0,0,0,.46289,1.33105,1.74886,1.74886,0,0,0,1.28515.457,2.37968,2.37968,0,0,0,1.418-.43164,2.74941,2.74941,0,0,0,.93067-1.18653,4.12142,4.12142,0,0,0,.32324-1.63965,1.71745,1.71745,0,0,0-.45215-1.28515,1.78022,1.78022,0,0,0-1.29492-.44141,2.40729,2.40729,0,0,0-1.40332.416,2.73234,2.73234,0,0,0-.93555,1.16113A3.91611,3.91611,0,0,0,196.10778,268.25863Z" fill="#232323"/><path d="M154.21512,78.07133a4.24715,4.24715,0,1,0,4.2474,4.24666A4.24663,4.24663,0,0,0,154.21512,78.07133Z" fill="#38a380"/><path d="M154.92652,1.76473c-84.55333,0-153.09741,69.09742-153.09741,153.09742H308.02394C308.02394,70.86215,239.47986,1.76473,154.92652,1.76473ZM173.786,29.913a.84715.84715,0,0,1,1.10525-.46327l.12614.05183a56.83162,56.83162,0,0,1,30.84948,30.6451.84725.84725,0,0,1-1.5624.65591,55.13505,55.13505,0,0,0-29.93272-29.734l-.12223-.05036h-.00049A.8474.8474,0,0,1,173.786,29.913Zm7.17442,43.86449a8.38918,8.38918,0,1,1-8.38918,8.38918A8.38925,8.38925,0,0,1,180.96046,73.77748ZM139.22962,39.89467a31.83672,31.83672,0,0,0,4.77757-16.15011V21.99441a10,10,0,0,1,20,0v1.75015a31.26227,31.26227,0,0,0,4.19893,16.15011c3.13213,5.24653,4.97853,11.96748,5.65107,19.96748h-.4376a20.65595,20.65595,0,0,0-39.98234,0h-.43759A46.42345,46.42345,0,0,1,139.22962,39.89467Zm23.392,48.239-2.58428,2.586-1.14454-1.12529a9.026,9.026,0,0,1-2.88565,1.18811v1.07969h-3V90.78246a10.65821,10.65821,0,0,1-3.17735-1.18811l-1.28126,1.12529-2.66177-2.586,1.08581-1.26483a9.77478,9.77478,0,0,1-1.22711-3.00667h-1.58929l.0022-4h1.58709a7.42313,7.42313,0,0,1,1.18836-2.55633l-1.1204-.96464,2.58672-2.50651,1.42965,1.15757a10.604,10.604,0,0,1,3.17735-1.14851V71.86215h3v1.98158a9.04673,9.04673,0,0,1,2.88565,1.18739l1.12856-1.11869,2.59153,2.58427-1.11811.80912a7.41884,7.41884,0,0,1,1.1904,2.55633h2.322v4h-2.322a9.719,9.719,0,0,1-1.18812,3.00667ZM161.8,109.70579a8.38918,8.38918,0,1,1-8.38918-8.38918A8.38924,8.38924,0,0,1,161.8,109.70579ZM145.02164,54.64244a8.38918,8.38918,0,1,1,8.38918,8.38918A8.38925,8.38925,0,0,1,145.02164,54.64244ZM134.28556,82.16666a8.38918,8.38918,0,1,1-8.38918-8.38918A8.38924,8.38924,0,0,1,134.28556,82.16666ZM100.558,60.58205l.03447-.08434A56.83218,56.83218,0,0,1,131.2786,29.63038a.84724.84724,0,1,1,.65468,1.56289,55.13414,55.13414,0,0,0-29.77381,29.95008l-.03374.0819h0a.8473.8473,0,1,1-1.56778-.6432Zm-7.3096,31.2801a10,10,0,0,1,0-20H94.9985a31.19474,31.19474,0,0,0,16.09663-4.33263c5.24556-3.13213,12.91206-5.111,19.91206-5.78478v.43858a20.65627,20.65627,0,0,0,0,39.98233v.43784c-7-.673-14.6665-2.965-19.913-6.09686A31.5012,31.5012,0,0,0,94.9985,91.86215Zm39.48728,42.6171a.84722.84722,0,0,1-1.106.46156l-.0418-.01712A56.83482,56.83482,0,0,1,100.70292,104.195a.84738.84738,0,0,1,1.56362-.6537,55.13784,55.13784,0,0,0,29.96695,29.81537l.04058.01687h.00049A.847.847,0,0,1,132.73563,134.47925Zm35.47049-10.338a32.38689,32.38689,0,0,0-4.19893,16.46245v1.75015a10,10,0,0,1-20,0v-1.75015a32.9564,32.9564,0,0,0-4.77757-16.46245,47.8614,47.8614,0,0,1-6.23-20.27908h.43759a20.65628,20.65628,0,0,0,39.98234,0h.4376C173.18465,111.86215,171.33825,118.89592,168.20612,124.14123Zm37.87641-20.38213-.06894.16844a56.834,56.834,0,0,1-30.77076,30.90228.84728.84728,0,1,1-.652-1.56411,55.13635,55.13635,0,0,0,29.85571-29.98382l.06723-.1633a.84724.84724,0,1,1,1.56875.64051Zm7.52621-11.897h-1.75015a31.2301,31.2301,0,0,0-16.018,4.64448,45.80147,45.80147,0,0,1-19.83341,6.09686v-.43784a20.65627,20.65627,0,0,0,0-39.98233v-.43858c8,.67376,14.58785,2.65265,19.83439,5.78478a30.91336,30.91336,0,0,0,16.017,4.33263h1.75015a10,10,0,0,1,0,20Z" fill="#38a380"/></g></g></svg>