<svg xmlns="http://www.w3.org/2000/svg" xmlns:xlink="http://www.w3.org/1999/xlink" viewBox="0 0 146.1073 146.1074"><defs><linearGradient id="linear-gradient" x1="3155.48839" y1="-2944.28294" x2="3156.48839" y2="-2944.28294" gradientTransform="matrix(103.3135, -103.3135, -103.3135, -103.3135, -630167.32019, 21945.0843)" gradientUnits="userSpaceOnUse"><stop offset="0" stop-color="#38a380"/><stop offset="0.06807" stop-color="#4fa684"/><stop offset="0.19952" stop-color="#74ac8a"/><stop offset="0.33709" stop-color="#93b090"/><stop offset="0.48033" stop-color="#abb494"/><stop offset="0.63163" stop-color="#bcb697"/><stop offset="0.79646" stop-color="#c6b898"/><stop offset="1" stop-color="#c9b899"/></linearGradient></defs><g id="Layer_2" data-name="Layer 2"><g id="Layer_1-2" data-name="Layer 1"><circle cx="73.0537" cy="73.0537" r="72.0537" fill="#fff"/><path d="M1,73.0537H0A73.05365,73.05365,0,1,0,73.0537,0,73.05395,73.05395,0,0,0,0,73.0537H1.9999a71.05371,71.05371,0,1,1,20.8113,50.2427A70.82739,70.82739,0,0,1,1.9999,73.0537Z" fill="url(#linear-gradient)"/><circle cx="72.0537" cy="76.97547" r="48.51607" transform="translate(-23.97251 33.43323) rotate(-22.50004)" fill="#38a380"/><path d="M11.26353,69.71468a2.53627,2.53627,0,0,1,2.03173,1.03223,3.99043,3.99043,0,0,1,.562,2.60742l-.05835.91113,3.25683.209-.092,1.43359-8.70434-.55859L8.42124,72.825a3.85061,3.85061,0,0,1,.825-2.41894A2.39448,2.39448,0,0,1,11.26353,69.71468Zm1.33886,4.47363.04883-.76074a2.7513,2.7513,0,0,0-.27734-1.64355,1.388,1.388,0,0,0-1.15772-.5918,1.3515,1.3515,0,0,0-1.14868.38965,2.29737,2.29737,0,0,0-.46167,1.415l-.06372.99511Z" fill="#4d4d4d"/><path d="M18.6124,63.09359l-2.54882.37207-.67579,3.28906,2.19971,1.3291-.30469,1.4834-7.918-4.98145.31446-1.53125,9.24072-1.456Zm-3.8291.49609-2.49121.32813q-.252.03954-.78711.09277c-.356.03418-.61621.05664-.78027.06348a13.27744,13.27744,0,0,1,1.47656.78711l2.06738,1.23437Z" fill="#4d4d4d"/><path d="M16.45933,58.1512,19.73862,59.327l-.48535,1.35156L11.0438,57.73421l.83789-2.33594A4.10635,4.10635,0,0,1,13.327,53.242a2.268,2.268,0,0,1,2.07276-.124,2.38794,2.38794,0,0,1,1.6084,2.38965l4.4707-1.03223-.55176,1.53711-3.98926.80469ZM15.348,57.75179l.33594-.93848a2.29281,2.29281,0,0,0,.14355-1.49414,1.341,1.341,0,0,0-.88183-.79394,1.17539,1.17539,0,0,0-1.16358.09961,2.6764,2.6764,0,0,0-.79834,1.27051l-.32031.89355Z" fill="#4d4d4d"/><path d="M23.48154,50.7762l-.6582,1.27637-6.666-3.43652-1.1836,2.2959-1.08691-.55957,3.02539-5.86817,1.08691.55957-1.18359,2.2959Z" fill="#4d4d4d"/><path d="M25.443,47.36019,18.107,42.64144l.77735-1.208,7.33593,4.71875Z" fill="#4d4d4d"/><path d="M23.78574,36.55745a2.36831,2.36831,0,0,0-.5332,2.06348,3.70465,3.70465,0,0,0,1.43652,2.05469,3.7244,3.7244,0,0,0,2.32422.98047,2.41411,2.41411,0,0,0,1.874-1.02735,5.23074,5.23074,0,0,0,.58789-.915q.23877-.47752.458-1.02636l.95508.76269a6.66143,6.66143,0,0,1-1.1582,2.07324A3.75782,3.75782,0,0,1,26.9752,43.1141a4.82468,4.82468,0,0,1-3.23926-1.2627,5.31984,5.31984,0,0,1-1.54688-1.877,3.56132,3.56132,0,0,1-.31836-2.10938,4.425,4.425,0,0,1,.9668-2.08008,5.57144,5.57144,0,0,1,1.98926-1.59472l.60644,1.14453a7.62056,7.62056,0,0,0-.874.50683A3.38775,3.38775,0,0,0,23.78574,36.55745Z" fill="#4d4d4d"/><path d="M32.40488,38.31722,26.17832,32.2098l1.00586-1.02637,6.22656,6.10742Z" fill="#4d4d4d"/><path d="M35.65928,27.29671a2.5341,2.5341,0,0,1,.64941,2.1836,3.98776,3.98776,0,0,1-1.50293,2.20312l-.70117.585,2.08984,2.50586-1.10351.91992L29.504,28.99593l1.94239-1.61914a3.85183,3.85183,0,0,1,2.32226-1.06738A2.39222,2.39222,0,0,1,35.65928,27.29671ZM33.336,31.34749l.585-.48828a2.74755,2.74755,0,0,0,1.002-1.332,1.38718,1.38718,0,0,0-.36816-1.24805,1.35045,1.35045,0,0,0-1.07422-.56445,2.29277,2.29277,0,0,0-1.34278.63867l-.76562.63867Z" fill="#4d4d4d"/><path d="M45.548,28.10628l-2.02539-1.59179L40.673,28.29085l.55176,2.50977-1.28516.80078-1.84277-9.1709,1.32617-.82617,7.4209,5.69434Zm-2.99609-2.43457-1.95411-1.58008c-.13476-.10351-.33789-.27148-.60937-.50586q-.40577-.35155-.583-.52246a13.60751,13.60751,0,0,1,.44629,1.61329L40.38,27.02523Z" fill="#4d4d4d"/><path d="M50.544,25.58968l-1.30859.58984-3.084-6.835L43.796,20.40706l-.50293-1.11523L49.31162,16.577l.50293,1.11425-2.35449,1.0625Z" fill="#4d4d4d"/><path d="M60.40537,17.82308a4.74658,4.74658,0,0,1-.13086,3.47754,4.52888,4.52888,0,0,1-5.85937,1.66894,4.78088,4.78088,0,0,1-1.9336-2.915,4.71083,4.71083,0,0,1,.12793-3.48437,3.968,3.968,0,0,1,2.62989-1.94727,3.88582,3.88582,0,0,1,3.23339.30567A4.74379,4.74379,0,0,1,60.40537,17.82308Zm-6.45215,1.82715a3.88718,3.88718,0,0,0,1.2959,2.17187,2.67756,2.67756,0,0,0,3.72754-1.04687,3.89444,3.89444,0,0,0-.04-2.53613,3.92523,3.92523,0,0,0-1.28418-2.167,2.29554,2.29554,0,0,0-2.08008-.27246,2.3366,2.3366,0,0,0-1.64843,1.3291A3.84935,3.84935,0,0,0,53.95322,19.65023Z" fill="#4d4d4d"/><path d="M64.36533,18.02913l.42188,3.459-1.42578.17383-1.05567-8.65821,2.46387-.30078a4.10162,4.10162,0,0,1,2.5752.32324,2.27029,2.27029,0,0,1,1.041,1.79688,2.38756,2.38756,0,0,1-1.41309,2.50977L69.9044,20.8641l-1.62207.19824-2.50977-3.2041Zm-.14355-1.17187.99023-.12109a2.2952,2.2952,0,0,0,1.39942-.543,1.34047,1.34047,0,0,0,.31445-1.14453,1.17963,1.17963,0,0,0-.6123-.99512,2.68471,2.68471,0,0,0-1.49415-.14258l-.94238.11523Z" fill="#4d4d4d"/><path d="M73.69248,16.22054,75.836,12.2762l1.56152.0254-3.0127,5.291-.05468,3.38184L72.88975,20.951l.05371-3.334-2.82617-5.43359,1.56152.02539Z" fill="#4d4d4d"/><path d="M85.09775,22.36117,84.294,14.68734l-.04687-.01172q-.27393,1.60254-.60059,2.98437L82.672,21.7889l-1.26953-.30078,2.00489-8.48828,1.97167.46582.77833,7.31347.03515.00782,4.03906-6.17578,1.97559.46679-2.00488,8.48828-1.34473-.3164.99121-4.19727q.14941-.63427.42188-1.64258.27246-1.00781.34668-1.21777l-.04688-.01074-4.23926,6.4707Z" fill="#4d4d4d"/><path d="M96.87315,26.3016,92.2833,24.3973l3.3418-8.05664,4.58984,1.90429L99.753,19.35824l-3.2627-1.35352-.90918,2.19336,3.05664,1.26855-.457,1.10157-3.05664-1.26856-1.0498,2.5293L97.337,25.18245Z" fill="#4d4d4d"/><path d="M105.505,22.36312a2.37133,2.37133,0,0,0-2.12109-.2168,3.69865,3.69865,0,0,0-1.81446,1.72852,3.71264,3.71264,0,0,0-.62207,2.44336,2.40956,2.40956,0,0,0,1.29786,1.69922,5.33366,5.33366,0,0,0,.99218.44531c.33887.10937.69922.209,1.084.29687l-.61035,1.0586a6.58326,6.58326,0,0,1-2.22559-.834,3.75,3.75,0,0,1-1.98437-2.48437,4.82133,4.82133,0,0,1,.76171-3.39258,5.319,5.319,0,0,1,1.624-1.81055,3.541,3.541,0,0,1,2.03808-.6289,4.40558,4.40558,0,0,1,2.20118.64257,5.53923,5.53923,0,0,1,1.874,1.72657l-1.04.77148a7.52257,7.52257,0,0,0-.63086-.78711A3.39768,3.39768,0,0,0,105.505,22.36312Z" fill="#4d4d4d"/><path d="M110.6002,35.34847l-1.12793-.89746,2.45019-3.0752-3.166-2.52343-2.4502,3.07519-1.124-.89551,5.43554-6.82129,1.124.89551-2.22364,2.79,3.166,2.52344,2.22363-2.79,1.12793.89746Z" fill="#4d4d4d"/><path d="M115.7335,40.87093l1.18261-2.28906-2.28027-2.46582-2.36133,1.01367-1.02734-1.11133,8.66113-3.5332,1.06055,1.14746-4.19922,8.3584Zm1.82812-3.40137,1.18555-2.21582q.11279-.22851.38183-.69433c.17969-.30957.31348-.53321.40333-.66992a13.54722,13.54722,0,0,1-1.501.74023l-2.207.96094Z" fill="#4d4d4d"/><path d="M121.58945,48.80257l-.98046-1.46191,3.36669-7.458-.02734-.041-.30518.24122q-.87524.68847-1.63769,1.19921l-3.76563,2.52539-.72656-1.082,7.24365-4.8584.97071,1.44629L122.38438,46.743l.0205.03027q.10693-.08641.80274-.59667.69507-.51125,1.09765-.7793l3.79541-2.5459.73243,1.09277Z" fill="#4d4d4d"/><path d="M122.59775,50.83577l7.76758-3.96777.65332,1.2793-7.76757,3.96777Z" fill="#4d4d4d"/><path d="M128.29746,58.12191a2.18822,2.18822,0,0,1-2.00928-.11328,3.69972,3.69972,0,0,1-1.47753-1.92774,5.60581,5.60581,0,0,1-.47364-2.43652l1.25293-.49707a6.73461,6.73461,0,0,0,.061,1.34863,5.45843,5.45843,0,0,0,.31494,1.22949,2.02063,2.02063,0,0,0,.76367,1.05176,1.05421,1.05421,0,0,0,.9541.05664,1.0854,1.0854,0,0,0,.6333-.65234,5.62552,5.62552,0,0,0,.18067-1.72656,4.062,4.062,0,0,1,.40088-1.98145,2.33014,2.33014,0,0,1,1.20459-1.00879,2.08264,2.08264,0,0,1,1.88525.09277,3.25588,3.25588,0,0,1,1.356,1.71778,6.19266,6.19266,0,0,1,.416,2.53613l-1.24951.00488a5.51924,5.51924,0,0,0-.31689-2.123,1.62133,1.62133,0,0,0-.67041-.873.9911.9911,0,0,0-.87305-.041,1.12617,1.12617,0,0,0-.48779.34864,1.49232,1.49232,0,0,0-.249.61035,8.07942,8.07942,0,0,0-.0874,1.31543,6.4908,6.4908,0,0,1-.17041,1.5918,2.19685,2.19685,0,0,1-.48193.90332A2.34421,2.34421,0,0,1,128.29746,58.12191Z" fill="#4d4d4d"/><path d="M127.44443,64.11117l6.56153-4.06055-.01026-.04688q-1.56225.44972-2.94873.75684l-4.1416.916-.28125-1.27247,8.51563-1.88476.4375,1.97754-6.24707,3.88086.00781.03515,7.31738.95215.43848,1.98242-8.51563,1.88477-.29882-1.34961,4.21142-.93164q.635-.14062,1.66162-.333,1.02612-.19482,1.24707-.21875l-.01025-.04687-7.67041-1.00391Z" fill="#4d4d4d"/><path d="M131.44834,76.40609a2.18947,2.18947,0,0,1-1.87207-.73828,3.69791,3.69791,0,0,1-.79785-2.294,5.60615,5.60615,0,0,1,.31543-2.46191l1.3457-.0791a6.73852,6.73852,0,0,0-.36572,1.2998,5.45756,5.45756,0,0,0-.08692,1.2666,2.018,2.018,0,0,0,.395,1.23828,1.05107,1.05107,0,0,0,.88721.35352,1.08334,1.08334,0,0,0,.80615-.41992,5.62374,5.62374,0,0,0,.71436-1.583,4.07138,4.07138,0,0,1,1.00244-1.75586,2.32833,2.32833,0,0,1,1.46045-.5791,2.08342,2.08342,0,0,1,1.76074.67969,3.25183,3.25183,0,0,1,.74756,2.05664,6.18909,6.18909,0,0,1-.40039,2.53906L136.172,75.5389a5.50406,5.50406,0,0,0,.36621-2.11426,1.616,1.616,0,0,0-.3623-1.03808.98561.98561,0,0,0-.81641-.3125,1.10807,1.10807,0,0,0-.57226.17675,1.47073,1.47073,0,0,0-.42774.5,8.07339,8.07339,0,0,0-.49609,1.22168,6.52716,6.52716,0,0,1-.66211,1.459,2.21167,2.21167,0,0,1-.74121.70508A2.339,2.339,0,0,1,131.44834,76.40609Z" fill="#4d4d4d"/><circle cx="73.3877" cy="92.5664" r="4.9502" fill="#fff"/><circle cx="73.3877" cy="60.0752" r="4.9502" fill="#fff"/><circle cx="57.1523" cy="76.3164" r="4.9502" fill="#fff"/><circle cx="89.644" cy="76.3164" r="4.9502" fill="#fff"/><path d="M67.5093,110.7984v1.0327a5.8889,5.8889,0,1,0,11.7778,0v-1.0327a18.57136,18.57136,0,0,1,2.6543-9.5176,27.945,27.945,0,0,0,3.5112-11.7696h-.2583a12.18859,12.18859,0,0,1-23.5923,0h-.2583a27.94908,27.94908,0,0,0,3.5113,11.7696A18.57136,18.57136,0,0,1,67.5093,110.7984Z" fill="#fff"/><path d="M79.2871,41.8433V40.8106a5.8889,5.8889,0,1,0-11.7778,0v1.0327a18.5719,18.5719,0,0,1-2.6543,9.5176,27.94916,27.94916,0,0,0-3.5113,11.77h.2583a12.18842,12.18842,0,0,1,23.5923,0h.2583a27.94914,27.94914,0,0,0-3.5112-11.77A18.5719,18.5719,0,0,1,79.2871,41.8433Z" fill="#fff"/><path d="M38.9204,70.4317H37.8877a5.88915,5.88915,0,0,0,0,11.7783h1.0327a18.57163,18.57163,0,0,1,9.5176,2.6543,27.95058,27.95058,0,0,0,11.77,3.5112v-.2583a12.18859,12.18859,0,0,1,0-23.5923v-.2588a27.95175,27.95175,0,0,0-11.7695,3.5113A18.57341,18.57341,0,0,1,38.9204,70.4317Z" fill="#fff"/><path d="M107.876,82.21h1.0327a5.88915,5.88915,0,0,0,0-11.7783H107.876a18.57163,18.57163,0,0,1-9.5176-2.6543,27.95633,27.95633,0,0,0-11.77-3.5113v.2588a12.18859,12.18859,0,0,1,0,23.5923v.2583a27.946,27.946,0,0,0,11.7695-3.5112A18.57476,18.57476,0,0,1,107.876,82.21Z" fill="#fff"/><path d="M78.8603,75.3237a5.09462,5.09462,0,0,0-.7011-1.6919l.6611-.6611-1.5264-1.5249-.6606.6602a5.08343,5.08343,0,0,0-1.6919-.7007v-.9346H72.7837v.9346a5.08343,5.08343,0,0,0-1.6919.7007l-.6607-.6602-1.5263,1.5249.6611.6611a5.0969,5.0969,0,0,0-.7012,1.6919h-.9365l-.0014,2.1578h.9379a5.07606,5.07606,0,0,0,.7012,1.6919l-.6636.664,1.5249,1.5259.6646-.6641a5.074,5.074,0,0,0,1.6919.7012v.9404h2.1577v-.9404a5.074,5.074,0,0,0,1.6919-.7012l.6645.6641,1.525-1.5259-.6636-.664a5.09462,5.09462,0,0,0,.7011-1.6919h.938V75.3237Zm-4.998,3.5884a2.5061,2.5061,0,1,1,2.5063-2.5063A2.50614,2.50614,0,0,1,73.8623,78.9121Z" fill="#fff"/><path d="M103.542,88.6795l-.0396.0964a32.53414,32.53414,0,0,1-17.617,17.6925.49993.49993,0,1,0,.3847.9229,33.53543,33.53543,0,0,0,18.157-18.2345l.0407-.0993a.5.5,0,0,0-.9258-.378ZM85.684,46.1353l.0722.0297a32.534,32.534,0,0,1,17.6624,17.5451.49994.49994,0,0,0,.9219-.3871A33.535,33.535,0,0,0,86.1372,45.2403l-.0745-.0305a.5.5,0,0,0-.3789.9255ZM43.126,63.9596l.0199-.0484A32.533,32.533,0,0,1,60.7145,46.2386a.5.5,0,1,0-.3863-.9223,33.53492,33.53492,0,0,0-18.107,18.214l-.0204.0497a.5.5,0,0,0,.9251.3796ZM60.9156,106.532l-.024-.0099A32.53555,32.53555,0,0,1,43.209,88.929a.5.5,0,1,0-.9226.3856,33.536,33.536,0,0,0,18.2242,18.1321l.0248.0102a.5.5,0,0,0,.3804-.9249Z" fill="#fff"/></g></g></svg>