<svg xmlns="http://www.w3.org/2000/svg" xmlns:xlink="http://www.w3.org/1999/xlink" viewBox="0 0 310 310"><defs><linearGradient id="New_Gradient_Swatch_7" x1="45.39843" y1="264.60157" x2="264.60153" y2="45.39847" gradientUnits="userSpaceOnUse"><stop offset="0" stop-color="#38a380"/><stop offset="0.06811" stop-color="#4fa684"/><stop offset="0.19954" stop-color="#74ac8a"/><stop offset="0.33708" stop-color="#93b090"/><stop offset="0.4803" stop-color="#abb494"/><stop offset="0.63159" stop-color="#bcb697"/><stop offset="0.79642" stop-color="#c6b898"/><stop offset="1" stop-color="#c9b899"/></linearGradient></defs><g id="Layer_2" data-name="Layer 2"><g id="Layer_1-2" data-name="Layer 1"><circle cx="155" cy="155" r="154" fill="#fff" stroke-miterlimit="10" stroke-width="2" stroke="url(#New_Gradient_Swatch_7)"/><path d="M41.97594,199.46664H40.20836l3.17578-15.02735h7.55469l-.30762,1.57325H44.79235l-1.12989,5.47754h5.42676l-.3291,1.57324h-5.4375Z" fill="#232323"/><path d="M55.83239,187.99593a2.90714,2.90714,0,0,1,1.68554.50879,3.30628,3.30628,0,0,1,1.15137,1.46485h.11231l.68945-1.76856h1.30469l-2.39454,11.26563H57.014l.26758-2.14844h-.083q-1.83985,2.354-3.875,2.35449a2.70963,2.70963,0,0,1-2.24024-1.01758,4.35271,4.35271,0,0,1-.8125-2.78613,10.60292,10.60292,0,0,1,.73047-3.96777A6.85121,6.85121,0,0,1,53.016,189.034,4.38023,4.38023,0,0,1,55.83239,187.99593ZM53.87926,198.244a2.89381,2.89381,0,0,0,1.9834-.95117,7.04217,7.04217,0,0,0,1.60352-2.47754,8.10544,8.10544,0,0,0,.61718-3.05762,2.39489,2.39489,0,0,0-.57617-1.68554,1.95492,1.95492,0,0,0-1.51074-.627,2.83172,2.83172,0,0,0-1.98926.88379,5.95909,5.95909,0,0,0-1.44336,2.39453,9.65469,9.65469,0,0,0-.52441,3.18653,2.70089,2.70089,0,0,0,.48242,1.75293A1.66942,1.66942,0,0,0,53.87926,198.244Z" fill="#232323"/><path d="M66.35778,199.67269a3.82665,3.82665,0,0,1-4.19434-4.2041,9.35548,9.35548,0,0,1,.76074-3.793,6.44089,6.44089,0,0,1,2.10254-2.708,5.0107,5.0107,0,0,1,3.0166-.97168,7.53553,7.53553,0,0,1,2.75489.52442l-.4834,1.44922a5.81192,5.81192,0,0,0-2.251-.52442,3.21688,3.21688,0,0,0-2.10156.78614,5.17681,5.17681,0,0,0-1.49121,2.18945,8.42774,8.42774,0,0,0-.53906,3.04785,2.87366,2.87366,0,0,0,.68359,2.04492,2.45412,2.45412,0,0,0,1.88574.73047,4.68,4.68,0,0,0,1.39844-.20605,12.69823,12.69823,0,0,0,1.29492-.4834v1.46972A6.17467,6.17467,0,0,1,66.35778,199.67269Z" fill="#232323"/><path d="M72.96618,199.46664H71.23961L73.64489,188.201h1.72656Zm1.1621-14.14356a1.35266,1.35266,0,0,1,.32813-.94043,1.09641,1.09641,0,0,1,.85352-.36425.80835.80835,0,0,1,.90429.9248,1.395,1.395,0,0,1-.34375.95605,1.03691,1.03691,0,0,1-.79687.39063.95065.95065,0,0,1-.67871-.252A.93622.93622,0,0,1,74.12828,185.32308Z" fill="#232323"/><path d="M78.29039,199.46664H76.56383l3.41211-15.99317h1.72754Z" fill="#232323"/><path d="M83.65563,199.46664H81.92907L84.33434,188.201H86.0609Zm1.16211-14.14356a1.35265,1.35265,0,0,1,.32812-.94043,1.09641,1.09641,0,0,1,.85352-.36425.80835.80835,0,0,1,.9043.9248,1.395,1.395,0,0,1-.34375.95605,1.03693,1.03693,0,0,1-.79688.39063.95067.95067,0,0,1-.67871-.252A.93625.93625,0,0,1,84.81774,185.32308Z" fill="#232323"/><path d="M90.72692,198.26449a5.58587,5.58587,0,0,0,1.48047-.26758v1.32617a4.75105,4.75105,0,0,1-.86328.2461,4.45408,4.45408,0,0,1-.82227.10351,2.85742,2.85742,0,0,1-1.96875-.6123,2.32343,2.32343,0,0,1-.68359-1.82422,7.47762,7.47762,0,0,1,.18554-1.542l1.30567-6.1875H87.59215l.14453-.75,1.90137-.80176,1.28418-2.34375H91.93l-.56543,2.58984H94.181l-.26758,1.30567H91.10778l-1.32617,6.208a7.33733,7.33733,0,0,0-.18458,1.35743,1.21905,1.21905,0,0,0,.29786.88379A1.10526,1.10526,0,0,0,90.72692,198.26449Z" fill="#232323"/><path d="M100.0609,187.99593a2.90719,2.90719,0,0,1,1.68555.50879,3.30642,3.30642,0,0,1,1.15137,1.46485h.1123l.68945-1.76856h1.30469l-2.39453,11.26563h-1.36719l.26758-2.14844h-.083q-1.83984,2.354-3.875,2.35449a2.70959,2.70959,0,0,1-2.24023-1.01758,4.35265,4.35265,0,0,1-.8125-2.78613,10.60272,10.60272,0,0,1,.73047-3.96777A6.85112,6.85112,0,0,1,97.2445,189.034,4.38021,4.38021,0,0,1,100.0609,187.99593ZM98.10778,198.244a2.89381,2.89381,0,0,0,1.9834-.95117,7.042,7.042,0,0,0,1.60351-2.47754,8.10546,8.10546,0,0,0,.61719-3.05762,2.39489,2.39489,0,0,0-.57617-1.68554,1.95494,1.95494,0,0,0-1.51075-.627,2.8317,2.8317,0,0,0-1.98925.88379,5.95909,5.95909,0,0,0-1.44336,2.39453,9.6547,9.6547,0,0,0-.52442,3.18653,2.70089,2.70089,0,0,0,.48243,1.75293A1.6694,1.6694,0,0,0,98.10778,198.244Z" fill="#232323"/><path d="M109.44469,198.26449a5.58581,5.58581,0,0,0,1.48047-.26758v1.32617a4.75105,4.75105,0,0,1-.86328.2461,4.454,4.454,0,0,1-.82227.10351,2.85746,2.85746,0,0,1-1.96875-.6123,2.32343,2.32343,0,0,1-.68359-1.82422,7.477,7.477,0,0,1,.18555-1.542l1.30566-6.1875h-1.76855l.14453-.75,1.90136-.80176,1.28418-2.34375h1.00782l-.56543,2.58984h2.8164l-.26758,1.30567h-2.80566l-1.32617,6.208a7.33712,7.33712,0,0,0-.18457,1.35743,1.219,1.219,0,0,0,.29785.88379A1.10526,1.10526,0,0,0,109.44469,198.26449Z" fill="#232323"/><path d="M114.54332,199.46664h-1.72656L115.222,188.201h1.72657Zm1.16211-14.14356a1.35266,1.35266,0,0,1,.32813-.94043,1.09637,1.09637,0,0,1,.85351-.36425.80835.80835,0,0,1,.9043.9248,1.395,1.395,0,0,1-.34375.95605,1.03693,1.03693,0,0,1-.79687.39063.95069.95069,0,0,1-.67872-.252A.93625.93625,0,0,1,115.70543,185.32308Z" fill="#232323"/><path d="M125.04821,199.46664l1.52148-7.11231a9.39777,9.39777,0,0,0,.20508-1.48047,1.46061,1.46061,0,0,0-.36524-1.03808,1.52873,1.52873,0,0,0-1.166-.39063,3.04514,3.04514,0,0,0-1.7832.61621,5.4923,5.4923,0,0,0-1.53223,1.75782,9.278,9.278,0,0,0-1.00195,2.76562l-1.03809,4.88184h-1.72656l2.40527-11.26563h1.42871l-.22656,2.08692h.10352a6.86968,6.86968,0,0,1,1.90625-1.77344,3.833,3.833,0,0,1,1.90625-.51856,2.88277,2.88277,0,0,1,2.06152.71387,2.6236,2.6236,0,0,1,.75488,2,8.40019,8.40019,0,0,1-.23633,1.84961l-1.46972,6.90723Z" fill="#232323"/><path d="M141.0111,188.201l-.25684,1.10059-2.16894.24609a2.89515,2.89515,0,0,1,.42089,1.624,4.17058,4.17058,0,0,1-1.19726,3.12988,4.38767,4.38767,0,0,1-3.20117,1.167,3.46276,3.46276,0,0,1-.86426-.082q-1.42822.54492-1.42871,1.3457a.54512.54512,0,0,0,.33984.56055,4.07564,4.07564,0,0,0,.98633.2207l1.20313.14453a5.35072,5.35072,0,0,1,2.69726.9043,2.41358,2.41358,0,0,1,.83789,1.99414,3.35466,3.35466,0,0,1-1.5,2.92871,7.3598,7.3598,0,0,1-4.22461,1.03809,5.5725,5.5725,0,0,1-3.125-.75488,2.42,2.42,0,0,1-1.13086-2.13282,2.64884,2.64884,0,0,1,.74024-1.87109,5.76894,5.76894,0,0,1,2.39453-1.34668,1.33743,1.33743,0,0,1-.80078-1.24316,1.63587,1.63587,0,0,1,.52343-1.21778,5.39311,5.39311,0,0,1,1.46-.95117,2.679,2.679,0,0,1-1.0586-.97168,2.70692,2.70692,0,0,1-.41113-1.49512,4.51444,4.51444,0,0,1,1.22851-3.26855,4.16971,4.16971,0,0,1,3.13965-1.27442,6.2097,6.2097,0,0,1,1.583.20508Zm-10.94727,13.26953a1.44613,1.44613,0,0,0,.66895,1.25391,3.4883,3.4883,0,0,0,1.9834.46289A5.54922,5.54922,0,0,0,135.64,202.535a2.05831,2.05831,0,0,0,1.05371-1.84571,1.15112,1.15112,0,0,0-.55468-1.00683,4.44789,4.44789,0,0,0-1.8916-.51367l-1.63379-.165a3.71516,3.71516,0,0,0-1.89161.90527A2.112,2.112,0,0,0,130.06383,201.47054Zm2.85742-8.99316a1.79048,1.79048,0,0,0,.46289,1.331,1.74889,1.74889,0,0,0,1.28516.457,2.3797,2.3797,0,0,0,1.418-.43164,2.74939,2.74939,0,0,0,.93066-1.18653,4.12143,4.12143,0,0,0,.32325-1.63965,1.71749,1.71749,0,0,0-.45215-1.28515,1.78022,1.78022,0,0,0-1.29492-.44141,2.40732,2.40732,0,0,0-1.40333.416,2.73224,2.73224,0,0,0-.93554,1.16113A3.916,3.916,0,0,0,132.92125,192.47738Z" fill="#232323"/><path d="M149.7777,198.26449a5.58581,5.58581,0,0,0,1.48047-.26758v1.32617a4.75105,4.75105,0,0,1-.86328.2461,4.45408,4.45408,0,0,1-.82227.10351,2.85746,2.85746,0,0,1-1.96875-.6123,2.32343,2.32343,0,0,1-.68359-1.82422,7.47762,7.47762,0,0,1,.18554-1.542l1.30567-6.1875h-1.76856l.14453-.75,1.90137-.80176,1.28418-2.34375h1.00781l-.56543,2.58984h2.81641l-.26758,1.30567h-2.80566l-1.32617,6.208a7.33712,7.33712,0,0,0-.18457,1.35743,1.219,1.219,0,0,0,.29785.88379A1.10526,1.10526,0,0,0,149.7777,198.26449Z" fill="#232323"/><path d="M160.03649,199.46664l1.52148-7.11231a8.48773,8.48773,0,0,0,.18457-1.38769,1.34009,1.34009,0,0,0-1.51074-1.52149,3.07933,3.07933,0,0,0-1.7832.60645,5.34027,5.34027,0,0,0-1.53223,1.76269,9.47937,9.47937,0,0,0-1.00195,2.791l-1.03809,4.86133h-1.72656l3.3916-15.99317h1.72754q-.186.8423-.35547,1.63379-.16845.79248-.34863,1.60938-.18018.81591-.39063,1.71094-.21093.89355-.48828,1.94238h.11231a6.85577,6.85577,0,0,1,1.90722-1.8086,3.87008,3.87008,0,0,1,1.96778-.54492,2.80525,2.80525,0,0,1,2.082.74024,2.84985,2.84985,0,0,1,.73437,2.09668,8.31011,8.31011,0,0,1-.23633,1.70605q-.3999,1.9834-1.49023,6.90723Z" fill="#232323"/><path d="M169.74938,199.67269a3.92791,3.92791,0,0,1-2.96973-1.12109,4.28566,4.28566,0,0,1-1.08008-3.10352,9.252,9.252,0,0,1,.76661-3.70605,6.85555,6.85555,0,0,1,2.02929-2.75977,4.42774,4.42774,0,0,1,2.78614-.98633,3.5293,3.5293,0,0,1,2.36328.6836,2.38258,2.38258,0,0,1,.792,1.90625,3.261,3.261,0,0,1-1.70606,2.9043,9.34994,9.34994,0,0,1-4.88281,1.05273h-.33887l-.041.82227a3.18422,3.18422,0,0,0,.63183,2.10253,2.40953,2.40953,0,0,0,1.958.75489,5.09829,5.09829,0,0,0,1.33106-.18457,10.15382,10.15382,0,0,0,1.70117-.67871v1.501a9.25182,9.25182,0,0,1-1.70606.63184A6.90863,6.90863,0,0,1,169.74938,199.67269Zm1.42871-10.207a2.74782,2.74782,0,0,0-1.98828.96582,6.31946,6.31946,0,0,0-1.42383,2.68262h.123a8.387,8.387,0,0,0,3.59277-.61133,1.91931,1.91931,0,0,0,1.249-1.77246,1.20294,1.20294,0,0,0-.375-.90527A1.65664,1.65664,0,0,0,171.17809,189.46566Z" fill="#232323"/><path d="M185.74254,199.67269a3.82664,3.82664,0,0,1-4.19433-4.2041,9.35531,9.35531,0,0,1,.76074-3.793,6.44081,6.44081,0,0,1,2.10254-2.708,5.01066,5.01066,0,0,1,3.0166-.97168,7.53547,7.53547,0,0,1,2.75488.52442l-.4834,1.44922a5.81183,5.81183,0,0,0-2.251-.52442,3.21692,3.21692,0,0,0-2.10157.78614,5.177,5.177,0,0,0-1.49121,2.18945,8.428,8.428,0,0,0-.53906,3.04785,2.87366,2.87366,0,0,0,.6836,2.04492,2.45411,2.45411,0,0,0,1.88574.73047,4.68,4.68,0,0,0,1.39843-.20605,12.69928,12.69928,0,0,0,1.29493-.4834v1.46972A6.17468,6.17468,0,0,1,185.74254,199.67269Z" fill="#232323"/><path d="M196.62731,188.05746a4.11506,4.11506,0,0,1,3.083,1.15625,4.35584,4.35584,0,0,1,1.13086,3.18164,9.12055,9.12055,0,0,1-.74024,3.64844,6.3129,6.3129,0,0,1-2.00391,2.65234,4.68723,4.68723,0,0,1-2.85742.93457,4.09544,4.09544,0,0,1-3.09375-1.16113,4.38229,4.38229,0,0,1-1.12109-3.17578,9.10148,9.10148,0,0,1,.751-3.67481,6.2283,6.2283,0,0,1,2.02441-2.6416A4.71944,4.71944,0,0,1,196.62731,188.05746Zm2.42578,4.10156a2.80851,2.80851,0,0,0-.64258-1.917,2.19519,2.19519,0,0,0-1.74219-.73535,3.01049,3.01049,0,0,0-2.00976.76074,4.88914,4.88914,0,0,0-1.37695,2.1123,8.7839,8.7839,0,0,0-.48829,3.00684,3.02914,3.02914,0,0,0,.65235,2.08105,2.37657,2.37657,0,0,0,1.876.73438,2.8335,2.8335,0,0,0,1.92188-.75,4.89,4.89,0,0,0,1.33105-2.13281A9.65521,9.65521,0,0,0,199.05309,192.159Z" fill="#232323"/><path d="M204.14,199.46664h-1.72656l3.41211-15.99317h1.72754Z" fill="#232323"/><path d="M209.48473,199.46664h-1.72656l3.41211-15.99317h1.72754Z" fill="#232323"/><path d="M217.5736,199.67269a3.92791,3.92791,0,0,1-2.96973-1.12109,4.28562,4.28562,0,0,1-1.08008-3.10352,9.2522,9.2522,0,0,1,.7666-3.70605,6.85566,6.85566,0,0,1,2.0293-2.75977,4.42772,4.42772,0,0,1,2.78613-.98633,3.52931,3.52931,0,0,1,2.36329.6836,2.38258,2.38258,0,0,1,.792,1.90625,3.261,3.261,0,0,1-1.70606,2.9043,9.34994,9.34994,0,0,1-4.88281,1.05273h-.33887l-.041.82227a3.18417,3.18417,0,0,0,.63183,2.10253,2.40953,2.40953,0,0,0,1.958.75489,5.09829,5.09829,0,0,0,1.33106-.18457,10.15382,10.15382,0,0,0,1.70117-.67871v1.501a9.25182,9.25182,0,0,1-1.70606.63184A6.90863,6.90863,0,0,1,217.5736,199.67269Zm1.42871-10.207a2.74781,2.74781,0,0,0-1.98828.96582,6.31946,6.31946,0,0,0-1.42383,2.68262h.123a8.387,8.387,0,0,0,3.59277-.61133,1.91931,1.91931,0,0,0,1.249-1.77246,1.20294,1.20294,0,0,0-.375-.90527A1.65666,1.65666,0,0,0,219.00231,189.46566Z" fill="#232323"/><path d="M228.099,199.67269a3.82665,3.82665,0,0,1-4.19434-4.2041,9.35548,9.35548,0,0,1,.76074-3.793,6.44089,6.44089,0,0,1,2.10254-2.708,5.0107,5.0107,0,0,1,3.0166-.97168,7.53553,7.53553,0,0,1,2.75489.52442l-.4834,1.44922a5.81192,5.81192,0,0,0-2.251-.52442,3.21688,3.21688,0,0,0-2.10156.78614,5.17681,5.17681,0,0,0-1.49121,2.18945,8.42774,8.42774,0,0,0-.53906,3.04785,2.87371,2.87371,0,0,0,.68359,2.04492,2.45412,2.45412,0,0,0,1.88574.73047,4.68,4.68,0,0,0,1.39844-.20605,12.69823,12.69823,0,0,0,1.29492-.4834v1.46972A6.17467,6.17467,0,0,1,228.099,199.67269Z" fill="#232323"/><path d="M236.434,198.26449a5.58581,5.58581,0,0,0,1.48047-.26758v1.32617a4.75105,4.75105,0,0,1-.86328.2461,4.45408,4.45408,0,0,1-.82227.10351,2.85746,2.85746,0,0,1-1.96875-.6123,2.32343,2.32343,0,0,1-.68359-1.82422,7.47762,7.47762,0,0,1,.18554-1.542l1.30567-6.1875h-1.76856l.14453-.75,1.90137-.80176,1.28418-2.34375h1.00781l-.56543,2.58984h2.81641l-.26758,1.30567h-2.80566l-1.32617,6.208a7.33712,7.33712,0,0,0-.18457,1.35743,1.219,1.219,0,0,0,.29785.88379A1.10526,1.10526,0,0,0,236.434,198.26449Z" fill="#232323"/><path d="M241.53258,199.46664H239.806l2.40527-11.26563h1.72657Zm1.16211-14.14356a1.35266,1.35266,0,0,1,.32813-.94043,1.09637,1.09637,0,0,1,.85351-.36425.80835.80835,0,0,1,.9043.9248,1.395,1.395,0,0,1-.34375.95605,1.03693,1.03693,0,0,1-.79688.39063.95067.95067,0,0,1-.67871-.252A.93625.93625,0,0,1,242.69469,185.32308Z" fill="#232323"/><path d="M246.83629,199.46664,245.55114,188.201h1.72754l.65722,6.30078q.24756,2.65284.24707,3.72071h.06153q1.30517-2.82568,1.83984-3.8125l3.34082-6.209h1.8291L249.18,199.46664Z" fill="#232323"/><path d="M259.32457,199.67269a3.92789,3.92789,0,0,1-2.96972-1.12109,4.28562,4.28562,0,0,1-1.08008-3.10352,9.2522,9.2522,0,0,1,.7666-3.70605,6.85557,6.85557,0,0,1,2.0293-2.75977,4.4277,4.4277,0,0,1,2.78613-.98633,3.52928,3.52928,0,0,1,2.36328.6836,2.38258,2.38258,0,0,1,.792,1.90625,3.26094,3.26094,0,0,1-1.70605,2.9043,9.35,9.35,0,0,1-4.88281,1.05273h-.33887l-.041.82227a3.18417,3.18417,0,0,0,.63184,2.10253,2.40951,2.40951,0,0,0,1.958.75489,5.09816,5.09816,0,0,0,1.33105-.18457,10.15348,10.15348,0,0,0,1.70117-.67871v1.501a9.252,9.252,0,0,1-1.70605.63184A6.90872,6.90872,0,0,1,259.32457,199.67269Zm1.42871-10.207a2.74784,2.74784,0,0,0-1.98828.96582,6.31956,6.31956,0,0,0-1.42382,2.68262h.123a8.387,8.387,0,0,0,3.59278-.61133,1.91931,1.91931,0,0,0,1.249-1.77246,1.20294,1.20294,0,0,0-.375-.90527A1.65668,1.65668,0,0,0,260.75328,189.46566Z" fill="#232323"/><path d="M58.41246,213.25668a2.90707,2.90707,0,0,1,1.68555.50879,3.30627,3.30627,0,0,1,1.15137,1.46484h.1123l.68946-1.76856h1.30468l-2.39453,11.26563H59.59411l.26757-2.14844h-.083q-1.83986,2.354-3.875,2.35449a2.70965,2.70965,0,0,1-2.24024-1.01757,4.35274,4.35274,0,0,1-.8125-2.78614,10.60292,10.60292,0,0,1,.73047-3.96777,6.85128,6.85128,0,0,1,2.01465-2.86719A4.3802,4.3802,0,0,1,58.41246,213.25668Zm-1.95312,10.248a2.89381,2.89381,0,0,0,1.9834-.95117,7.042,7.042,0,0,0,1.60351-2.47754,8.10525,8.10525,0,0,0,.61719-3.05761,2.39489,2.39489,0,0,0-.57617-1.68555,1.95492,1.95492,0,0,0-1.51074-.62695,2.83171,2.83171,0,0,0-1.98926.88378,5.95906,5.95906,0,0,0-1.44336,2.39454,9.65459,9.65459,0,0,0-.52441,3.18652,2.70089,2.70089,0,0,0,.48242,1.75293A1.6694,1.6694,0,0,0,56.45934,223.50472Z" fill="#232323"/><path d="M71.22985,224.72738l1.52148-7.1123a9.39807,9.39807,0,0,0,.20508-1.48047,1.46068,1.46068,0,0,0-.36523-1.03809,1.52877,1.52877,0,0,0-1.166-.39062,3.04507,3.04507,0,0,0-1.7832.61621,5.49238,5.49238,0,0,0-1.53223,1.75781,9.27807,9.27807,0,0,0-1.00195,2.76562l-1.03809,4.88184H64.34313l2.40527-11.26563h1.42871l-.22656,2.08692h.10352a6.86968,6.86968,0,0,1,1.90625-1.77344,3.83294,3.83294,0,0,1,1.90625-.51855,2.88277,2.88277,0,0,1,2.06152.71386,2.62361,2.62361,0,0,1,.75488,2,8.40019,8.40019,0,0,1-.23633,1.84961l-1.46972,6.90723Z" fill="#232323"/><path d="M82.45446,213.25668a2.90706,2.90706,0,0,1,1.68554.50879,3.3062,3.3062,0,0,1,1.15137,1.46484h.11231l.68945-1.76856h1.30469l-2.39454,11.26563H83.6361l.26758-2.14844h-.083q-1.83984,2.354-3.875,2.35449a2.70965,2.70965,0,0,1-2.24024-1.01757,4.35274,4.35274,0,0,1-.8125-2.78614,10.60292,10.60292,0,0,1,.73047-3.96777,6.85128,6.85128,0,0,1,2.01465-2.86719A4.38022,4.38022,0,0,1,82.45446,213.25668Zm-1.95313,10.248a2.89381,2.89381,0,0,0,1.9834-.95117,7.04217,7.04217,0,0,0,1.60352-2.47754,8.10543,8.10543,0,0,0,.61718-3.05761,2.39489,2.39489,0,0,0-.57617-1.68555,1.95491,1.95491,0,0,0-1.51074-.62695,2.83171,2.83171,0,0,0-1.98926.88378,5.95906,5.95906,0,0,0-1.44336,2.39454,9.65459,9.65459,0,0,0-.52441,3.18652,2.70089,2.70089,0,0,0,.48242,1.75293A1.66942,1.66942,0,0,0,80.50133,223.50472Z" fill="#232323"/><path d="M90.09118,224.72738H88.36461l3.41211-15.99316h1.72754Z" fill="#232323"/><path d="M94.13024,213.46175h1.72754l.76074,5.60254q.10254.709.20019,2.09082.09669,1.38282.09766,2.22559h.06152q.35889-.89355.89454-2.05566.53319-1.16163.791-1.60352l3.34082-6.25977h1.8291L96.68,226.63949a7.43905,7.43905,0,0,1-1.8916,2.45605,3.6932,3.6932,0,0,1-2.251.68848,4.82563,4.82563,0,0,1-1.43847-.21582v-1.3877a4.84654,4.84654,0,0,0,1.3457.18555,2.13168,2.13168,0,0,0,1.44434-.51953,5.60512,5.60512,0,0,0,1.167-1.53613l.78125-1.39844Z" fill="#232323"/><path d="M110.40172,221.53109A3.01527,3.01527,0,0,1,109.266,224.034a5.04287,5.04287,0,0,1-3.20215.89941,6.82951,6.82951,0,0,1-3.13476-.71v-1.624a6.36394,6.36394,0,0,0,1.55273.668,5.64513,5.64513,0,0,0,1.541.2373,3.13288,3.13288,0,0,0,1.95312-.51464,1.59884,1.59884,0,0,0,.6582-1.31543,1.42,1.42,0,0,0-.36035-.98633,7.24089,7.24089,0,0,0-1.55176-1.10059,6.242,6.242,0,0,1-1.8916-1.46973,2.7093,2.7093,0,0,1-.55468-1.70605,2.83573,2.83573,0,0,1,1.03808-2.28711,4.12049,4.12049,0,0,1,2.73438-.86816,7.95371,7.95371,0,0,1,3.3916.76074l-.55469,1.4082-.57617-.25683a5.70639,5.70639,0,0,0-2.26074-.44239,2.30034,2.30034,0,0,0-1.501.44727,1.50589,1.50589,0,0,0-.17969,2.14258,6.42357,6.42357,0,0,0,1.50586,1.05859,8.70845,8.70845,0,0,1,1.57715,1.05957,3.0503,3.0503,0,0,1,.71484.9502A2.69493,2.69493,0,0,1,110.40172,221.53109Z" fill="#232323"/><path d="M114.19469,224.72738h-1.72656l2.40527-11.26563H116.6Zm1.16211-14.14355a1.35264,1.35264,0,0,1,.32813-.94043,1.09635,1.09635,0,0,1,.85351-.36426.80835.80835,0,0,1,.9043.9248,1.395,1.395,0,0,1-.34375.95606,1.037,1.037,0,0,1-.79688.39062.95067.95067,0,0,1-.67871-.252A.93624.93624,0,0,1,115.3568,210.58383Z" fill="#232323"/><path d="M124.7611,221.53109a3.01529,3.01529,0,0,1-1.13574,2.50293,5.04287,5.04287,0,0,1-3.20215.89941,6.82952,6.82952,0,0,1-3.13477-.71v-1.624a6.36384,6.36384,0,0,0,1.55274.668,5.645,5.645,0,0,0,1.541.2373,3.13291,3.13291,0,0,0,1.95313-.51464,1.59887,1.59887,0,0,0,.6582-1.31543,1.42,1.42,0,0,0-.36035-.98633,7.24116,7.24116,0,0,0-1.55176-1.10059,6.24191,6.24191,0,0,1-1.8916-1.46973,2.70924,2.70924,0,0,1-.55469-1.70605,2.83571,2.83571,0,0,1,1.03809-2.28711,4.12047,4.12047,0,0,1,2.73437-.86816,7.95364,7.95364,0,0,1,3.3916.76074l-.55468,1.4082-.57618-.25683a5.70639,5.70639,0,0,0-2.26074-.44239,2.30033,2.30033,0,0,0-1.501.44727,1.50587,1.50587,0,0,0-.17969,2.14258,6.42312,6.42312,0,0,0,1.50586,1.05859,8.70845,8.70845,0,0,1,1.57715,1.05957,3.05045,3.05045,0,0,1,.71484.9502A2.69493,2.69493,0,0,1,124.7611,221.53109Z" fill="#232323"/><path d="M138.29821,213.3182a4.115,4.115,0,0,1,3.083,1.15625,4.35579,4.35579,0,0,1,1.13086,3.18164,9.12065,9.12065,0,0,1-.74023,3.64844,6.3129,6.3129,0,0,1-2.00391,2.65234,4.68725,4.68725,0,0,1-2.85742.93457,4.09544,4.09544,0,0,1-3.09375-1.16113,4.38227,4.38227,0,0,1-1.12109-3.17578,9.10147,9.10147,0,0,1,.751-3.67481,6.22831,6.22831,0,0,1,2.02442-2.6416A4.71944,4.71944,0,0,1,138.29821,213.3182Zm2.42578,4.10156a2.80857,2.80857,0,0,0-.64258-1.917,2.19522,2.19522,0,0,0-1.74219-.73535,3.01054,3.01054,0,0,0-2.00976.76074,4.88928,4.88928,0,0,0-1.377,2.11231,8.78409,8.78409,0,0,0-.48828,3.00683,3.02919,3.02919,0,0,0,.65235,2.08106,2.37659,2.37659,0,0,0,1.876.73437,2.8335,2.8335,0,0,0,1.92188-.75,4.89008,4.89008,0,0,0,1.33105-2.13281A9.65521,9.65521,0,0,0,140.724,217.41976Z" fill="#232323"/><path d="M142.42907,229.784a3.619,3.619,0,0,1-1.28418-.21582V228.119a3.59938,3.59938,0,0,0,1.15136.22656,1.35782,1.35782,0,0,0,1.20215-.63769,5.44726,5.44726,0,0,0,.67871-1.81934l2.333-11.12109h-1.9834l.13281-.68848,2.11817-.67871.23633-1.02734a6.08205,6.08205,0,0,1,1.31054-2.9043,3.33974,3.33974,0,0,1,2.48145-.84766,5.38573,5.38573,0,0,1,1.00781.11817,4.71474,4.71474,0,0,1,.92481.26172l-.44141,1.32617a4.01338,4.01338,0,0,0-1.4082-.29785,1.81554,1.81554,0,0,0-1.373.498,3.96525,3.96525,0,0,0-.77539,1.8252l-.25684,1.10937H150.93l-.25683,1.30567h-2.43653l-2.38476,11.28613a5.8792,5.8792,0,0,1-1.2334,2.83692A2.851,2.851,0,0,1,142.42907,229.784Z" fill="#232323"/><path d="M157.88805,224.72738h-1.72656l2.40527-11.26563h1.72656Zm1.16211-14.14355a1.35263,1.35263,0,0,1,.32812-.94043,1.09638,1.09638,0,0,1,.85352-.36426.80835.80835,0,0,1,.9043.9248,1.395,1.395,0,0,1-.34375.95606,1.037,1.037,0,0,1-.79688.39062.95067.95067,0,0,1-.67871-.252A.93624.93624,0,0,1,159.05016,210.58383Z" fill="#232323"/><path d="M168.45446,221.53109a3.01527,3.01527,0,0,1-1.13575,2.50293,5.04282,5.04282,0,0,1-3.20214.89941,6.82952,6.82952,0,0,1-3.13477-.71v-1.624a6.36394,6.36394,0,0,0,1.55273.668,5.64513,5.64513,0,0,0,1.541.2373,3.13291,3.13291,0,0,0,1.95313-.51464,1.59887,1.59887,0,0,0,.6582-1.31543,1.42,1.42,0,0,0-.36035-.98633,7.24116,7.24116,0,0,0-1.55176-1.10059,6.24178,6.24178,0,0,1-1.8916-1.46973,2.70924,2.70924,0,0,1-.55469-1.70605,2.83571,2.83571,0,0,1,1.03809-2.28711,4.12047,4.12047,0,0,1,2.73437-.86816,7.95364,7.95364,0,0,1,3.3916.76074l-.55468,1.4082-.57618-.25683a5.70639,5.70639,0,0,0-2.26074-.44239,2.30038,2.30038,0,0,0-1.501.44727,1.50588,1.50588,0,0,0-.17968,2.14258,6.42312,6.42312,0,0,0,1.50586,1.05859,8.70829,8.70829,0,0,1,1.57714,1.05957,3.05034,3.05034,0,0,1,.71485.9502A2.69493,2.69493,0,0,1,168.45446,221.53109Z" fill="#232323"/><path d="M177.46911,221.53109a3.01527,3.01527,0,0,1-1.13575,2.50293,5.04285,5.04285,0,0,1-3.20215.89941,6.82951,6.82951,0,0,1-3.13476-.71v-1.624a6.36394,6.36394,0,0,0,1.55273.668,5.64513,5.64513,0,0,0,1.541.2373,3.13286,3.13286,0,0,0,1.95312-.51464,1.59885,1.59885,0,0,0,.65821-1.31543,1.42,1.42,0,0,0-.36035-.98633,7.24116,7.24116,0,0,0-1.55176-1.10059,6.24178,6.24178,0,0,1-1.8916-1.46973,2.70924,2.70924,0,0,1-.55469-1.70605,2.83573,2.83573,0,0,1,1.03808-2.28711,4.12051,4.12051,0,0,1,2.73438-.86816,7.95367,7.95367,0,0,1,3.3916.76074l-.55469,1.4082-.57617-.25683a5.70639,5.70639,0,0,0-2.26074-.44239,2.30034,2.30034,0,0,0-1.501.44727,1.50588,1.50588,0,0,0-.17968,2.14258,6.42323,6.42323,0,0,0,1.50585,1.05859,8.70845,8.70845,0,0,1,1.57715,1.05957,3.05049,3.05049,0,0,1,.71485.9502A2.69508,2.69508,0,0,1,177.46911,221.53109Z" fill="#232323"/><path d="M183.56481,213.46175l-1.542,7.14356a7.74108,7.74108,0,0,0-.18457,1.42871,1.31765,1.31765,0,0,0,1.51074,1.4707,3.05953,3.05953,0,0,0,1.77832-.61718,5.48046,5.48046,0,0,0,1.541-1.76758,9.47058,9.47058,0,0,0,1.01758-2.77539l1.02832-4.88282h1.70606l-2.374,11.26563h-1.42871l.22559-2.08691h-.12305a6.75321,6.75321,0,0,1-1.92187,1.78906,3.88329,3.88329,0,0,1-1.8916.5039,2.87126,2.87126,0,0,1-2.06543-.71484,2.68117,2.68117,0,0,1-.751-2.04,9.59693,9.59693,0,0,1,.22656-1.76855l1.501-6.94825Z" fill="#232323"/><path d="M196.13512,224.93343a3.92791,3.92791,0,0,1-2.96973-1.12109,4.28563,4.28563,0,0,1-1.08007-3.10351,9.25222,9.25222,0,0,1,.7666-3.70606,6.85555,6.85555,0,0,1,2.02929-2.75977,4.42773,4.42773,0,0,1,2.78614-.98632,3.52935,3.52935,0,0,1,2.36328.68359,2.38259,2.38259,0,0,1,.792,1.90625,3.261,3.261,0,0,1-1.70605,2.9043,9.34991,9.34991,0,0,1-4.88282,1.05273h-.33886l-.041.82227a3.18422,3.18422,0,0,0,.63184,2.10254,2.40953,2.40953,0,0,0,1.958.75488,5.09781,5.09781,0,0,0,1.33106-.18457,10.15382,10.15382,0,0,0,1.70117-.67871v1.501a9.252,9.252,0,0,1-1.70605.63184A6.90878,6.90878,0,0,1,196.13512,224.93343Zm1.42871-10.207a2.74782,2.74782,0,0,0-1.98828.96582,6.31952,6.31952,0,0,0-1.42383,2.68262h.123a8.38683,8.38683,0,0,0,3.59277-.61133,1.9193,1.9193,0,0,0,1.249-1.77246,1.20294,1.20294,0,0,0-.375-.90527A1.65668,1.65668,0,0,0,197.56383,214.7264Z" fill="#232323"/><path d="M209.014,221.53109a3.01527,3.01527,0,0,1-1.13575,2.50293,5.04282,5.04282,0,0,1-3.20214.89941,6.82952,6.82952,0,0,1-3.13477-.71v-1.624a6.36384,6.36384,0,0,0,1.55274.668,5.645,5.645,0,0,0,1.541.2373,3.13291,3.13291,0,0,0,1.95313-.51464,1.59887,1.59887,0,0,0,.6582-1.31543,1.42,1.42,0,0,0-.36035-.98633,7.24116,7.24116,0,0,0-1.55176-1.10059,6.24191,6.24191,0,0,1-1.8916-1.46973,2.70924,2.70924,0,0,1-.55469-1.70605,2.83571,2.83571,0,0,1,1.03809-2.28711,4.12047,4.12047,0,0,1,2.73437-.86816,7.95364,7.95364,0,0,1,3.3916.76074l-.55468,1.4082-.57618-.25683a5.70639,5.70639,0,0,0-2.26074-.44239,2.30038,2.30038,0,0,0-1.501.44727,1.50588,1.50588,0,0,0-.17968,2.14258,6.42312,6.42312,0,0,0,1.50586,1.05859,8.70845,8.70845,0,0,1,1.57715,1.05957,3.05045,3.05045,0,0,1,.71484.9502A2.69493,2.69493,0,0,1,209.014,221.53109Z" fill="#232323"/><path d="M222.51012,213.25668a2.90712,2.90712,0,0,1,1.68555.50879,3.30625,3.30625,0,0,1,1.15136,1.46484h.11231l.68945-1.76856h1.30469L225.059,224.72738h-1.36719l.26758-2.14844h-.083q-1.83984,2.354-3.875,2.35449a2.70961,2.70961,0,0,1-2.24023-1.01757,4.35268,4.35268,0,0,1-.8125-2.78614,10.60272,10.60272,0,0,1,.73047-3.96777,6.85117,6.85117,0,0,1,2.01464-2.86719A4.38024,4.38024,0,0,1,222.51012,213.25668Zm-1.95312,10.248a2.89377,2.89377,0,0,0,1.98339-.95117,7.04189,7.04189,0,0,0,1.60352-2.47754,8.10544,8.10544,0,0,0,.61719-3.05761,2.39494,2.39494,0,0,0-.57617-1.68555,1.95493,1.95493,0,0,0-1.51075-.62695,2.83169,2.83169,0,0,0-1.98925.88378,5.959,5.959,0,0,0-1.44336,2.39454,9.6546,9.6546,0,0,0-.52442,3.18652,2.70089,2.70089,0,0,0,.48242,1.75293A1.66944,1.66944,0,0,0,220.557,223.50472Z" fill="#232323"/><path d="M235.3275,224.72738l1.52149-7.1123a9.39807,9.39807,0,0,0,.20508-1.48047,1.46064,1.46064,0,0,0-.36524-1.03809,1.52873,1.52873,0,0,0-1.166-.39062,3.04507,3.04507,0,0,0-1.78321.61621,5.49235,5.49235,0,0,0-1.53222,1.75781,9.27834,9.27834,0,0,0-1.002,2.76562l-1.03808,4.88184h-1.72657l2.40528-11.26563h1.42871l-.22656,2.08692h.10351a6.87,6.87,0,0,1,1.90625-1.77344,3.833,3.833,0,0,1,1.90625-.51855,2.88278,2.88278,0,0,1,2.06153.71386,2.62361,2.62361,0,0,1,.75488,2,8.40079,8.40079,0,0,1-.23633,1.84961l-1.46973,6.90723Z" fill="#232323"/><path d="M246.55211,213.27718a2.99813,2.99813,0,0,1,2.8877,1.95313h.10254a23.89612,23.89612,0,0,1,.46289-2.81641l.80176-3.67968h1.70605l-3.3916,15.99316h-1.42871l.22558-2.14844h-.082a7.73479,7.73479,0,0,1-1.94238,1.81934,3.63112,3.63112,0,0,1-1.87109.53515,2.69183,2.69183,0,0,1-2.23047-1.00781,4.382,4.382,0,0,1-.80176-2.7959,10.65634,10.65634,0,0,1,.74023-4.02929,6.723,6.723,0,0,1,1.999-2.82618A4.43077,4.43077,0,0,1,246.55211,213.27718ZM244.599,223.50472a2.99339,2.99339,0,0,0,1.99414-.96191,6.75867,6.75867,0,0,0,1.6289-2.45606,8.11306,8.11306,0,0,0,.60157-3.04785,2.46059,2.46059,0,0,0-.55567-1.7373,2.1008,2.1008,0,0,0-1.61328-.5957,2.74937,2.74937,0,0,0-1.92773.84765,5.96847,5.96847,0,0,0-1.42871,2.38477,9.6959,9.6959,0,0,0-.53907,3.23242Q242.75914,223.50423,244.599,223.50472Z" fill="#232323"/><path d="M71.08532,246.79086a3.01527,3.01527,0,0,1-1.13575,2.50293,5.04282,5.04282,0,0,1-3.20214.89941,6.82952,6.82952,0,0,1-3.13477-.71v-1.624a6.36391,6.36391,0,0,0,1.55273.668,5.64478,5.64478,0,0,0,1.541.23731,3.13286,3.13286,0,0,0,1.95312-.51465,1.59884,1.59884,0,0,0,.65821-1.31543,1.42,1.42,0,0,0-.36035-.98633,7.24087,7.24087,0,0,0-1.55176-1.10058,6.24178,6.24178,0,0,1-1.8916-1.46973,2.70924,2.70924,0,0,1-.55469-1.70605,2.83569,2.83569,0,0,1,1.03809-2.28711,4.12042,4.12042,0,0,1,2.73437-.86817,7.95379,7.95379,0,0,1,3.3916.76074l-.55469,1.40821-.57617-.25684a5.70656,5.70656,0,0,0-2.26074-.44238,2.30038,2.30038,0,0,0-1.501.44726,1.50588,1.50588,0,0,0-.17968,2.14258,6.42277,6.42277,0,0,0,1.50586,1.0586,8.70813,8.70813,0,0,1,1.57714,1.05957,3.05034,3.05034,0,0,1,.71485.95019A2.69513,2.69513,0,0,1,71.08532,246.79086Z" fill="#232323"/><path d="M77.60192,250.1932a3.92791,3.92791,0,0,1-2.96973-1.12109,4.28562,4.28562,0,0,1-1.08008-3.10352,9.25213,9.25213,0,0,1,.7666-3.70605,6.85559,6.85559,0,0,1,2.0293-2.75977,4.42766,4.42766,0,0,1,2.78613-.98633,3.52931,3.52931,0,0,1,2.36329.6836,2.38258,2.38258,0,0,1,.792,1.90625,3.26094,3.26094,0,0,1-1.70606,2.90429,9.34984,9.34984,0,0,1-4.88281,1.05274h-.33887l-.041.82226a3.18423,3.18423,0,0,0,.63183,2.10254,2.40952,2.40952,0,0,0,1.958.75488,5.09787,5.09787,0,0,0,1.33106-.18457,10.15208,10.15208,0,0,0,1.70117-.67871v1.501a9.25182,9.25182,0,0,1-1.70606.63184A6.90915,6.90915,0,0,1,77.60192,250.1932Zm1.42871-10.207a2.74777,2.74777,0,0,0-1.98828.96582,6.31946,6.31946,0,0,0-1.42383,2.68262h.123a8.387,8.387,0,0,0,3.59277-.61133,1.91931,1.91931,0,0,0,1.249-1.77246,1.203,1.203,0,0,0-.375-.90528A1.6567,1.6567,0,0,0,79.03063,239.98617Z" fill="#232323"/><path d="M89.4945,238.51644a2.90706,2.90706,0,0,1,1.68554.50879,3.30628,3.30628,0,0,1,1.15137,1.46485h.1123l.68946-1.76856h1.30469l-2.39454,11.26563H90.67614l.26757-2.14844h-.083q-1.83985,2.354-3.875,2.35449a2.70963,2.70963,0,0,1-2.24024-1.01758,4.35271,4.35271,0,0,1-.8125-2.78613,10.60288,10.60288,0,0,1,.73047-3.96777,6.85121,6.85121,0,0,1,2.01465-2.86719A4.38021,4.38021,0,0,1,89.4945,238.51644Zm-1.95313,10.24805a2.89381,2.89381,0,0,0,1.9834-.95117,7.042,7.042,0,0,0,1.60351-2.47754,8.10526,8.10526,0,0,0,.61719-3.05762,2.39491,2.39491,0,0,0-.57617-1.68555,1.95494,1.95494,0,0,0-1.51074-.62695,2.83168,2.83168,0,0,0-1.98926.88379,5.959,5.959,0,0,0-1.44336,2.39453,9.65459,9.65459,0,0,0-.52441,3.18652,2.70087,2.70087,0,0,0,.48242,1.75293A1.66941,1.66941,0,0,0,87.54137,248.76449Z" fill="#232323"/><path d="M102.54821,238.51644a4.70208,4.70208,0,0,1,1.2334.14356l-.37012,1.542a4.5275,4.5275,0,0,0-1.0791-.13379,2.85622,2.85622,0,0,0-1.75293.61719,5.41571,5.41571,0,0,0-1.42871,1.71094,8.742,8.742,0,0,0-.89942,2.43066l-1.09961,5.16016H95.42516l2.40527-11.26563h1.42871l-.22656,2.08691h.10352a10.10619,10.10619,0,0,1,1.22265-1.40332,3.8775,3.8775,0,0,1,1.0127-.65722A2.90543,2.90543,0,0,1,102.54821,238.51644Z" fill="#232323"/><path d="M108.35582,250.1932a3.82665,3.82665,0,0,1-4.19433-4.2041,9.35525,9.35525,0,0,1,.76074-3.793,6.44075,6.44075,0,0,1,2.10254-2.708,5.0106,5.0106,0,0,1,3.0166-.97168,7.53544,7.53544,0,0,1,2.75488.52442l-.48339,1.44922a5.81192,5.81192,0,0,0-2.251-.52442,3.21692,3.21692,0,0,0-2.10156.78613,5.17691,5.17691,0,0,0-1.49121,2.18946,8.4277,8.4277,0,0,0-.53907,3.04785,2.87366,2.87366,0,0,0,.6836,2.04492,2.45411,2.45411,0,0,0,1.88574.73047,4.68011,4.68011,0,0,0,1.39844-.20606,12.699,12.699,0,0,0,1.29492-.48339v1.46972A6.1748,6.1748,0,0,1,108.35582,250.1932Z" fill="#232323"/><path d="M120.12438,249.98715l1.52148-7.11231a8.48773,8.48773,0,0,0,.18457-1.38769,1.34009,1.34009,0,0,0-1.51074-1.52149,3.07933,3.07933,0,0,0-1.7832.60645,5.34007,5.34007,0,0,0-1.53223,1.76269,9.47955,9.47955,0,0,0-1.002,2.791l-1.03809,4.86133h-1.72656l3.3916-15.99317h1.72754q-.186.84228-.35547,1.63379-.16845.79248-.34863,1.60938-.18018.81591-.39063,1.71093-.21093.89356-.48828,1.94239h.11231a6.85562,6.85562,0,0,1,1.90722-1.8086,3.87008,3.87008,0,0,1,1.96778-.54492,2.80528,2.80528,0,0,1,2.082.74023,2.84988,2.84988,0,0,1,.73437,2.09668,8.31067,8.31067,0,0,1-.23632,1.70606q-.39992,1.98339-1.49024,6.90723Z" fill="#232323"/><path d="M129.17907,255.04379a3.619,3.619,0,0,1-1.28418-.21582v-1.44922a3.59966,3.59966,0,0,0,1.15136.22656,1.35781,1.35781,0,0,0,1.20215-.6377,5.4472,5.4472,0,0,0,.67871-1.81933l2.333-11.1211h-1.9834l.13281-.68847,2.11817-.67871.23633-1.02735a6.08206,6.08206,0,0,1,1.31054-2.90429,3.33974,3.33974,0,0,1,2.48145-.84766,5.38645,5.38645,0,0,1,1.00781.11816,4.71613,4.71613,0,0,1,.92481.26172l-.44141,1.32617a4.01338,4.01338,0,0,0-1.4082-.29785,1.81554,1.81554,0,0,0-1.373.498,3.96525,3.96525,0,0,0-.77539,1.8252l-.25684,1.10937H137.68l-.25683,1.30566h-2.43653l-2.38476,11.28614a5.87916,5.87916,0,0,1-1.2334,2.83691A2.851,2.851,0,0,1,129.17907,255.04379Z" fill="#232323"/><path d="M143.44664,238.578a4.115,4.115,0,0,1,3.083,1.15625,4.35579,4.35579,0,0,1,1.13086,3.18164,9.12063,9.12063,0,0,1-.74023,3.64843,6.31309,6.31309,0,0,1-2.00391,2.65235,4.68732,4.68732,0,0,1-2.85742.93457,4.09543,4.09543,0,0,1-3.09375-1.16113,4.3823,4.3823,0,0,1-1.12109-3.17579,9.10146,9.10146,0,0,1,.751-3.6748,6.22831,6.22831,0,0,1,2.02442-2.6416A4.71943,4.71943,0,0,1,143.44664,238.578Zm2.42579,4.10156a2.80854,2.80854,0,0,0-.64258-1.917,2.1952,2.1952,0,0,0-1.74219-.73536,3.01054,3.01054,0,0,0-2.00977.76075,4.88926,4.88926,0,0,0-1.37695,2.1123,8.78414,8.78414,0,0,0-.48828,3.00684,3.02919,3.02919,0,0,0,.65234,2.08105,2.3766,2.3766,0,0,0,1.876.73438,2.8335,2.8335,0,0,0,1.92188-.75,4.89006,4.89006,0,0,0,1.33105-2.13282A9.65511,9.65511,0,0,0,145.87243,242.67953Z" fill="#232323"/><path d="M156.37633,238.51644a4.702,4.702,0,0,1,1.2334.14356l-.37012,1.542a4.52744,4.52744,0,0,0-1.0791-.13379,2.85625,2.85625,0,0,0-1.75293.61719,5.41584,5.41584,0,0,0-1.42871,1.71094,8.742,8.742,0,0,0-.89941,2.43066l-1.09961,5.16016h-1.72657l2.40528-11.26563h1.42871l-.22656,2.08691h.10351a10.10612,10.10612,0,0,1,1.22266-1.40332,3.87745,3.87745,0,0,1,1.01269-.65722A2.90543,2.90543,0,0,1,156.37633,238.51644Z" fill="#232323"/><path d="M170.00524,246.79086a3.01529,3.01529,0,0,1-1.13574,2.50293,5.04287,5.04287,0,0,1-3.20215.89941,6.82952,6.82952,0,0,1-3.13477-.71v-1.624a6.36382,6.36382,0,0,0,1.55274.668,5.64472,5.64472,0,0,0,1.541.23731,3.13291,3.13291,0,0,0,1.95313-.51465,1.59886,1.59886,0,0,0,.6582-1.31543,1.42,1.42,0,0,0-.36035-.98633,7.24087,7.24087,0,0,0-1.55176-1.10058,6.242,6.242,0,0,1-1.8916-1.46973,2.70924,2.70924,0,0,1-.55469-1.70605,2.83569,2.83569,0,0,1,1.03809-2.28711,4.12042,4.12042,0,0,1,2.73437-.86817,7.95379,7.95379,0,0,1,3.3916.76074l-.55468,1.40821-.57618-.25684a5.70656,5.70656,0,0,0-2.26074-.44238,2.30033,2.30033,0,0,0-1.501.44726,1.50587,1.50587,0,0,0-.17969,2.14258,6.423,6.423,0,0,0,1.50586,1.0586,8.70792,8.70792,0,0,1,1.57715,1.05957,3.0503,3.0503,0,0,1,.71484.95019A2.695,2.695,0,0,1,170.00524,246.79086Z" fill="#232323"/><path d="M178.07457,238.578a4.115,4.115,0,0,1,3.083,1.15625,4.35579,4.35579,0,0,1,1.13086,3.18164,9.12063,9.12063,0,0,1-.74023,3.64843,6.31309,6.31309,0,0,1-2.00391,2.65235,4.68732,4.68732,0,0,1-2.85742.93457,4.09543,4.09543,0,0,1-3.09375-1.16113,4.3823,4.3823,0,0,1-1.1211-3.17579,9.10146,9.10146,0,0,1,.751-3.6748,6.22831,6.22831,0,0,1,2.02442-2.6416A4.71941,4.71941,0,0,1,178.07457,238.578Zm2.42579,4.10156a2.80854,2.80854,0,0,0-.64258-1.917,2.1952,2.1952,0,0,0-1.74219-.73536,3.01054,3.01054,0,0,0-2.00977.76075,4.88926,4.88926,0,0,0-1.37695,2.1123,8.78414,8.78414,0,0,0-.48828,3.00684,3.02919,3.02919,0,0,0,.65234,2.08105,2.3766,2.3766,0,0,0,1.876.73438,2.83346,2.83346,0,0,0,1.92187-.75,4.89,4.89,0,0,0,1.33106-2.13282A9.65511,9.65511,0,0,0,180.50036,242.67953Z" fill="#232323"/><path d="M185.58727,249.98715h-1.72656l3.41211-15.99317h1.72754Z" fill="#232323"/><path d="M193.25524,238.72152l-1.542,7.14356a7.74108,7.74108,0,0,0-.18457,1.42871,1.31766,1.31766,0,0,0,1.51074,1.4707,3.05954,3.05954,0,0,0,1.77832-.61719,5.48035,5.48035,0,0,0,1.541-1.76758,9.47047,9.47047,0,0,0,1.01758-2.77539l1.02832-4.88281h1.70606l-2.374,11.26563H196.308l.22559-2.08692h-.12305a6.75306,6.75306,0,0,1-1.92187,1.78906,3.88334,3.88334,0,0,1-1.89161.50391,2.87125,2.87125,0,0,1-2.06542-.71484,2.68118,2.68118,0,0,1-.751-2.04,9.597,9.597,0,0,1,.22656-1.76856l1.501-6.94824Z" fill="#232323"/><path d="M204.82848,248.785a5.58622,5.58622,0,0,0,1.48047-.26758v1.32617a4.75111,4.75111,0,0,1-.86328.24609,4.45425,4.45425,0,0,1-.82227.10352,2.85746,2.85746,0,0,1-1.96875-.6123,2.32343,2.32343,0,0,1-.68359-1.82422,7.47717,7.47717,0,0,1,.18555-1.542l1.30566-6.1875h-1.76856l.14454-.75,1.90136-.80175,1.28418-2.34375h1.00782l-.56543,2.58984h2.8164l-.26758,1.30566h-2.80566l-1.32617,6.208a7.33714,7.33714,0,0,0-.18457,1.35742,1.219,1.219,0,0,0,.29785.88379A1.10522,1.10522,0,0,0,204.82848,248.785Z" fill="#232323"/><path d="M209.92711,249.98715h-1.72656l2.40527-11.26563h1.72657Zm1.16211-14.14356a1.35266,1.35266,0,0,1,.32813-.94043,1.09638,1.09638,0,0,1,.85351-.36426.80836.80836,0,0,1,.9043.92481,1.395,1.395,0,0,1-.34375.95605,1.037,1.037,0,0,1-.79688.39063.95067.95067,0,0,1-.67871-.252A.93623.93623,0,0,1,211.08922,235.84359Z" fill="#232323"/><path d="M219.54821,238.578a4.115,4.115,0,0,1,3.083,1.15625,4.35579,4.35579,0,0,1,1.13086,3.18164,9.12063,9.12063,0,0,1-.74023,3.64843,6.31293,6.31293,0,0,1-2.00391,2.65235,4.68732,4.68732,0,0,1-2.85742.93457,4.09544,4.09544,0,0,1-3.09375-1.16113,4.3823,4.3823,0,0,1-1.12109-3.17579,9.10146,9.10146,0,0,1,.751-3.6748,6.22831,6.22831,0,0,1,2.02442-2.6416A4.71944,4.71944,0,0,1,219.54821,238.578Zm2.42578,4.10156a2.80854,2.80854,0,0,0-.64258-1.917,2.1952,2.1952,0,0,0-1.74219-.73536,3.0105,3.0105,0,0,0-2.00976.76075,4.88918,4.88918,0,0,0-1.377,2.1123,8.78414,8.78414,0,0,0-.48828,3.00684,3.02914,3.02914,0,0,0,.65235,2.08105,2.37657,2.37657,0,0,0,1.876.73438,2.8335,2.8335,0,0,0,1.92188-.75,4.89006,4.89006,0,0,0,1.33105-2.13282A9.65511,9.65511,0,0,0,221.974,242.67953Z" fill="#232323"/><path d="M232.24157,249.98715l1.52148-7.11231a9.39777,9.39777,0,0,0,.20508-1.48047,1.46061,1.46061,0,0,0-.36524-1.03808,1.5287,1.5287,0,0,0-1.166-.39063,3.04514,3.04514,0,0,0-1.7832.61621,5.49225,5.49225,0,0,0-1.53223,1.75781,9.27814,9.27814,0,0,0-1.002,2.76563l-1.03809,4.88184h-1.72656l2.40527-11.26563h1.42871l-.22656,2.08691h.10351A6.87,6.87,0,0,1,230.972,239.035a3.8329,3.8329,0,0,1,1.90625-.51856,2.88274,2.88274,0,0,1,2.06153.71387,2.62358,2.62358,0,0,1,.75488,2,8.40019,8.40019,0,0,1-.23633,1.84961l-1.46972,6.90723Z" fill="#232323"/><path d="M244.4525,246.79086a3.01527,3.01527,0,0,1-1.13574,2.50293,5.04285,5.04285,0,0,1-3.20215.89941,6.82951,6.82951,0,0,1-3.13476-.71v-1.624a6.36391,6.36391,0,0,0,1.55273.668,5.64478,5.64478,0,0,0,1.541.23731,3.13286,3.13286,0,0,0,1.95312-.51465,1.59884,1.59884,0,0,0,.65821-1.31543,1.42,1.42,0,0,0-.36036-.98633,7.24045,7.24045,0,0,0-1.55175-1.10058,6.242,6.242,0,0,1-1.89161-1.46973,2.7093,2.7093,0,0,1-.55468-1.70605,2.83571,2.83571,0,0,1,1.03808-2.28711,4.12046,4.12046,0,0,1,2.73438-.86817,7.95382,7.95382,0,0,1,3.3916.76074l-.55469,1.40821-.57617-.25684a5.70656,5.70656,0,0,0-2.26074-.44238,2.30034,2.30034,0,0,0-1.501.44726,1.50589,1.50589,0,0,0-.17969,2.14258,6.42323,6.42323,0,0,0,1.50586,1.0586,8.70792,8.70792,0,0,1,1.57715,1.05957,3.05034,3.05034,0,0,1,.71485.95019A2.69513,2.69513,0,0,1,244.4525,246.79086Z" fill="#232323"/><path d="M159.30968,77.4222a24.64563,24.64563,0,1,0,24.64478,24.64551A24.64406,24.64406,0,0,0,159.30968,77.4222Zm12.169,16.61084-17.58228,19.5354a.93847.93847,0,0,1-1.46142-.08227l-4.88379-6.83789h.00048a.93851.93851,0,0,1,1.52735-1.09107l4.2041,5.88623,16.80029-18.66626a.93861.93861,0,0,1,1.39527,1.25586Z" fill="#637e20"/><path d="M79.83507,76.68539A25.62979,25.62979,0,1,0,103.4193,92.265,25.43946,25.43946,0,0,0,79.83507,76.68539ZM93.4403,91.97689,72.15758,115.62435a.93907.93907,0,0,1-1.46142-.082l-5.91211-8.2771h0a.93871.93871,0,0,1,1.52783-1.09106l5.23242,7.32544L92.045,90.72128a.93853.93853,0,0,1,1.39527,1.25561Z" fill="#637e20"/><path d="M135.20153,58.10409a15.26821,15.26821,0,1,0-14.05078-9.2815A15.16413,15.16413,0,0,0,135.20153,58.10409Zm-6.21338-15.29151a.704.704,0,0,1,.98193.16358l2.31738,3.24414,9.59253-10.658a.70385.70385,0,1,1,1.04615.9419L132.74743,47.81405a.70377.70377,0,0,1-1.096-.06177l-2.82691-3.958h.00025A.70348.70348,0,0,1,128.98815,42.81258Z" fill="#637e20"/><path d="M155.00255,1.97006c-84.44018,0-152.89233,68.89209-152.89233,152.89209H307.89464C307.89464,70.86215,239.44249,1.97006,155.00255,1.97006ZM112.71178,28.52645l3.66455,1.47388a22.46855,22.46855,0,0,1,5.59473-5.71143l-1.54981-3.63427,8.9917-3.83423,1.55,3.63354a22.74443,22.74443,0,0,1,7.99463-.08349l1.47388-3.66455,9.06982,3.64624-1.47412,3.66455a22.46932,22.46932,0,0,1,5.71143,5.595l3.6333-1.551,3.83618,8.99268-3.63452,1.55a22.48146,22.48146,0,0,1,.08349,7.99463l3.66455,1.47314-3.64624,9.07056-3.66528-1.47388a22.477,22.477,0,0,1-5.59424,5.71118l1.551,3.63355-8.99268,3.8352-1.55-3.63452a22.76216,22.76216,0,0,1-7.99463.08423l-1.47314,3.66479L120.88585,65.315l1.47388-3.66455a22.50476,22.50476,0,0,1-5.71118-5.594l-3.63355,1.55-3.835-8.99292,3.63428-1.54883a22.48776,22.48776,0,0,1-.08423-7.99463L109.06432,37.596Zm4.87354,97.80835-6.15137-2.47388a37.7172,37.7172,0,0,1-9.39063,9.58594l2.60205,6.09986-15.09423,6.4375-2.6023-6.1001a38.19979,38.19979,0,0,1-13.41919.14111L71.057,146.17562l-15.22583-6.12109,2.47387-6.15137a37.74783,37.74783,0,0,1-9.58667-9.39038l-6.09912,2.602L36.182,112.01937l6.09912-2.6001A37.77047,37.77047,0,0,1,42.14,95.99911L35.98864,93.526l6.12109-15.22534,6.1521,2.47388a37.71252,37.71252,0,0,1,9.39038-9.58692l-2.602-6.09985,15.09546-6.4375,2.60132,6.10108a38.15178,38.15178,0,0,1,13.41894-.14112L88.64,58.45883l15.22559,6.12109-2.47485,6.15137a37.78309,37.78309,0,0,1,9.58764,9.39038l6.09912-2.602,6.439,15.09546-6.10083,2.60034a37.75186,37.75186,0,0,1,.14038,13.41992l6.15015,2.47314Zm80.42187-18.47265h-5.88232a31.94464,31.94464,0,0,1-5.30152,12.9519l4.08448,4.15906-8.61792,8.65533-4.283-4.0665a32.13575,32.13575,0,0,1-12.99976,5.32022v5.98h-12v-5.98a37.69376,37.69376,0,0,1-12.69775-5.30151l-4.03223,4.08521-8.59155-8.61792,4.09753-4.23389a31.92284,31.92284,0,0,1-5.28869-12.9519h-5.48731v-12h5.48828a31.02913,31.02913,0,0,1,5.30078-12.74659l-4.08447-4.05664,8.61768-8.60376,3.98,4.09119a37.68286,37.68286,0,0,1,12.69775-5.29456V63.86215h12v5.38964a32.13877,32.13877,0,0,1,13.00025,5.30152l4.18347-4.08423,8.66742,8.61767-4.05973,4.02881a31.07476,31.07476,0,0,1,5.32627,12.74659h5.88232Zm30.61133-38.89649L224.954,67.492a22.48959,22.48959,0,0,1-5.594,5.71045l1.55,3.63427-8.99292,3.834-1.55-3.6333a22.74889,22.74889,0,0,1-7.99438.08349l-1.47314,3.66431-9.06959-3.646,1.47266-3.66479a22.48913,22.48913,0,0,1-5.7102-5.594l-3.63355,1.55-3.835-8.99267,3.63355-1.55a22.49869,22.49869,0,0,1-.08423-7.99365l-3.6648-1.47388,3.64722-9.0708,3.66455,1.47412a22.4578,22.4578,0,0,1,5.594-5.71045l-1.55-3.63452,8.99292-3.83472,1.54981,3.634a22.73888,22.73888,0,0,1,7.99365-.08326l1.47388-3.66455,9.0708,3.646-1.47485,3.6648a22.50934,22.50934,0,0,1,5.7124,5.594l3.6333-1.55,3.83594,8.99292-3.63428,1.54883a22.51022,22.51022,0,0,1,.0835,7.99463l3.66357,1.47387Z" fill="#637e20"/><path d="M206.12877,39.388a15.26847,15.26847,0,1,0,14.05054,9.28052A15.163,15.163,0,0,0,206.12877,39.388Zm7.74146,11.30518L203.69127,62.003a.70365.70365,0,0,1-1.09619-.06176l-2.82764-3.9585h.00025a.70387.70387,0,0,1,1.14526-.8186l2.31836,3.24536,9.59253-10.6582a.70393.70393,0,0,1,1.04639.94189Z" fill="#637e20"/></g></g></svg>