<svg xmlns="http://www.w3.org/2000/svg" xmlns:xlink="http://www.w3.org/1999/xlink" viewBox="0 0 146.10733 146.1074"><defs><linearGradient id="linear-gradient" x1="2459.05603" y1="-2935.46473" x2="2460.05603" y2="-2935.46473" gradientTransform="matrix(103.3135, -103.3135, -103.3135, -103.3135, -557305.41712, -49094.74)" gradientUnits="userSpaceOnUse"><stop offset="0" stop-color="#38a380"/><stop offset="0.06807" stop-color="#4fa684"/><stop offset="0.19952" stop-color="#74ac8a"/><stop offset="0.33709" stop-color="#93b090"/><stop offset="0.48033" stop-color="#abb494"/><stop offset="0.63163" stop-color="#bcb697"/><stop offset="0.79646" stop-color="#c6b898"/><stop offset="1" stop-color="#c9b899"/></linearGradient><clipPath id="clip-path"><path d="M121.2547,74.9278A48.50015,48.50015,0,1,1,72.7545,26.4277a48.50008,48.50008,0,0,1,48.5002,48.5001" fill="none"/></clipPath></defs><g id="Layer_2" data-name="Layer 2"><g id="Layer_1-2" data-name="Layer 1"><circle cx="73.05371" cy="73.05373" r="72.05374" transform="translate(-30.25985 73.05372) rotate(-45)" fill="#fff"/><path d="M1,73.0537H0A73.05367,73.05367,0,1,0,73.0537,0,73.054,73.054,0,0,0,0,73.0537H1.9999a71.05405,71.05405,0,1,1,20.8112,50.2425A70.827,70.827,0,0,1,1.9999,73.0537Z" fill="url(#linear-gradient)"/><circle cx="73.0535" cy="75.49477" r="48.51493" transform="translate(-13.5134 135.01324) rotate(-80.45172)" fill="#637e20"/><path d="M20.47034,55.64536l-8.00781-3.04394.502-1.31739L20.97132,54.328Z" fill="#4d4d4d"/><path d="M24.965,45.97935l-.79883,1.5332-8.01367.60937-.02148.042.35156.14941q1.00488.43066,1.80469.84668l3.94922,2.05762-.59082,1.13574-7.59766-3.958.79-1.51758,7.97754-.61425.0166-.03223c-.084-.03516-.38086-.1709-.89258-.41016q-.76758-.36034-1.18847-.5791L16.77064,43.1688l.59668-1.14648Z" fill="#4d4d4d"/><path d="M27.962,41.70982l-.82422,1.14453-5.97949-4.29981-1.48144,2.06055-.97461-.70117,3.78515-5.26465.97461.70117L21.98157,37.41Z" fill="#4d4d4d"/><path d="M33.58363,35.06919l-3.30079,3.59375L23.97425,32.869,27.275,29.27525l.8711.80078-2.34668,2.55566,1.71777,1.57715,2.19922-2.39453.86328.793L28.3805,35.00181,30.361,36.82114l2.34668-2.55566Z" fill="#4d4d4d"/><path d="M34.60023,27.97544l2.44433-2.02539,2.74512,3.31055a9.27223,9.27223,0,0,1-.92383,1.23047,10.72877,10.72877,0,0,1-1.125,1.06933,3.903,3.903,0,0,1-3.05957,1.042,4.618,4.618,0,0,1-2.89258-1.82324,4.31642,4.31642,0,0,1-1.14355-3.25683,4.52347,4.52347,0,0,1,1.793-3.00586,6.45769,6.45769,0,0,1,2.30078-1.23633l.36328,1.21289a5.04231,5.04231,0,0,0-1.92383.9707,2.84506,2.84506,0,0,0-1.13281,2.05664,3.32511,3.32511,0,0,0,.88672,2.3252,3.504,3.504,0,0,0,2.08008,1.37793,2.634,2.634,0,0,0,2.123-.69824A6.91514,6.91514,0,0,0,38.153,29.46079L36.74378,27.7606l-1.377,1.14062Z" fill="#4d4d4d"/><path d="M40.99866,24.82114,42.778,27.743l-1.20508.7334-4.456-7.31543,2.081-1.26758a4.01963,4.01963,0,0,1,2.43457-.75586,2.22017,2.22017,0,0,1,1.66114,1.18359,2.34628,2.34628,0,0,1-.24512,2.81836l4.05371,1.96973-1.37109.835-3.54493-1.84766Zm-.60351-.99121.83594-.50976a2.24965,2.24965,0,0,0,1.03027-1.05274,1.3139,1.3139,0,0,0-.18262-1.15136,1.16162,1.16162,0,0,0-.95117-.64258A2.63911,2.63911,0,0,0,39.733,20.953l-.7959.48535Z" fill="#4d4d4d"/><path d="M53.14905,22.51841,51.4137,20.67759l-3.02636,1.30957.17089,2.51953-1.36523.58984-.456-9.17578,1.4082-.60937L54.525,21.92271Zm-2.55664-2.80078-1.668-1.81934c-.11622-.11914-.28907-.31347-.51758-.58008-.22949-.2666-.39258-.46386-.49219-.59179a12.66419,12.66419,0,0,1,.19922,1.63183l.17285,2.35742Z" fill="#4d4d4d"/><path d="M58.43909,20.90708l-1.35742.38477L55.07,14.20689l-2.44043.69336L52.3014,13.745l6.23828-1.77148.32812,1.15527-2.44042.69238Z" fill="#4d4d4d"/><path d="M66.96351,19.22056l-4.82031.75781-1.33008-8.46191,4.82031-.75782.18359,1.169-3.42773.53906.3623,2.30371,3.21192-.50488.18164,1.15723-3.21094.50488.417,2.65723,3.42774-.53907Z" fill="#4d4d4d"/><path d="M75.54163,14.57505a4.25634,4.25634,0,0,1-1.12207,3.26562,4.788,4.788,0,0,1-3.39453,1.1875l-2.41211.04688-.166-8.56445,2.666-.05176a4.43029,4.43029,0,0,1,3.22461,1.03906A4.10207,4.10207,0,0,1,75.54163,14.57505Zm-1.48437.0752q-.06006-3.07618-2.957-3.01954l-1.22168.02442L69.99964,17.87l1.00293-.01953Q74.11829,17.79038,74.05726,14.65025Z" fill="#4d4d4d"/><path d="M87.2428,14.46567a2.48987,2.48987,0,0,1-1.23828,1.86524,3.9218,3.9218,0,0,1-2.60644.25391l-.88281-.16016L81.943,19.578l-1.3877-.252,1.5293-8.42871,2.44434.44335a3.77816,3.77816,0,0,1,2.26562,1.07813A2.35161,2.35161,0,0,1,87.2428,14.46567Zm-4.51757.79981.7373.13379a2.696,2.696,0,0,0,1.63477-.085,1.35825,1.35825,0,0,0,.708-1.06153,1.33051,1.33051,0,0,0-.25-1.166,2.25581,2.25581,0,0,0-1.3291-.60938l-.96289-.17578Z" fill="#4d4d4d"/><path d="M87.84437,20.83189l2.56347-8.17383,1.34571.42187-2.2041,7.02832,3.48437,1.0918-.35937,1.14648Z" fill="#4d4d4d"/><path d="M98.75062,25.0731l.21582-2.51953L95.97327,21.1688l-1.76464,1.80469L92.859,22.35044l6.53906-6.45312,1.39258.64257L100.111,25.702Zm.38476-3.77149.2461-2.45508c.01074-.168.041-.42578.08691-.77343.04688-.34961.084-.60157.11328-.76172a12.63969,12.63969,0,0,1-1.084,1.23633l-1.64258,1.69921Z" fill="#4d4d4d"/><path d="M106.94251,30.21177l-1.43945-.957.24512-8.03321-.03907-.02539-.18652.334q-.53467.95214-1.03418,1.70312l-2.46484,3.709-1.06543-.709,4.74121-7.13281,1.4248.94531-.23633,7.998.03028.01953q.06591-.11718.50293-.84375.43945-.72363.70215-1.11914l2.48437-3.73828,1.07617.71484Z" fill="#4d4d4d"/><path d="M113.92542,36.495l-1.26269-1.17969,1.56347-7.88281-.03515-.0332-.23731.29883q-.68407.85254-1.30078,1.51172l-3.042,3.252-.93457-.875L114.527,25.329l1.249,1.16992-1.54785,7.84961.02636.02539c.05664-.07227.26856-.32031.63575-.752.36816-.42773.66015-.75585.876-.98828l3.06543-3.27734.94434.88086Z" fill="#4d4d4d"/><path d="M115.277,38.18833l6.53321-5.541.91211,1.07617-6.53321,5.541Z" fill="#4d4d4d"/><path d="M121.71986,46.86607l-.958-1.4375,3.33154-7.31446-.02637-.041-.30078.23632q-.86133.67383-1.61328,1.17383l-3.70654,2.4668-.709-1.06445,7.13037-4.748.94825,1.42383-3.30762,7.28515.01953.0293c.0708-.05664.334-.25.79-.584q.68628-.498,1.08057-.75977l3.73584-2.48828.71582,1.07422Z" fill="#4d4d4d"/><path d="M128.38636,50.03306l1.31445,2.88965L125.78675,54.704a9.22368,9.22368,0,0,1-.94531-1.21387,10.6852,10.6852,0,0,1-.73731-1.36621,3.90852,3.90852,0,0,1-.20312-3.22656,4.62552,4.62552,0,0,1,2.51758-2.3125,4.31422,4.31422,0,0,1,3.44336-.249,4.51813,4.51813,0,0,1,2.42968,2.51758,6.45357,6.45357,0,0,1,.59082,2.54492l-1.2666.03125a4.99924,4.99924,0,0,0-.43262-2.11035,2.83617,2.83617,0,0,0-1.68847-1.63086,3.316,3.316,0,0,0-2.47559.24512,3.49756,3.49756,0,0,0-1.874,1.64648,2.63,2.63,0,0,0,.11719,2.23145,6.90411,6.90411,0,0,0,.76074,1.26074l2.01074-.91406-.74023-1.627Z" fill="#4d4d4d"/><g clip-path="url(#clip-path)"><path d="M71.5132,97.6324l-2.1758,2.1757,4.5908,4.5909,2.1758-2.1763a17.67648,17.67648,0,0,0,6.8199,2.8242v3.0781h6.4926v-3.0781a17.66811,17.66811,0,0,0,6.8194-2.8242l2.1757,2.1763,4.5909-4.5909-2.1758-2.1757a17.69352,17.69352,0,0,0,2.8242-6.8199h3.0781V84.3199h-3.0781A17.68583,17.68583,0,0,0,100.8267,77.5l2.1758-2.1758-4.5909-4.5908-2.1757,2.1758A17.681,17.681,0,0,0,89.416,70.085V67.0069H82.9239V70.085a17.67968,17.67968,0,0,0-6.8199,2.8242l-2.1758-2.1758-4.5908,4.5908L71.5132,77.5a17.67733,17.67733,0,0,0-2.8237,6.8199H65.6109v6.4926H68.689A17.69032,17.69032,0,0,0,71.5132,97.6324ZM86.1699,74.4375A13.1289,13.1289,0,1,1,73.0415,87.5664,13.12848,13.12848,0,0,1,86.1699,74.4375Z" fill="#fff"/><path d="M123.0376,60.0567l1.9361-.8252-2.0435-4.7906-1.9355.8257a11.99247,11.99247,0,0,0-3.043-2.9799l.7856-1.9522-4.832-1.9424-.7852,1.9522a12.11385,12.11385,0,0,0-4.2583.0444l-.8256-1.936-4.7906,2.0429.8257,1.9361a11.96439,11.96439,0,0,0-2.98,3.042l-1.9521-.7852-1.9429,4.832,1.9522.7852a11.98511,11.98511,0,0,0,.0449,4.2583l-1.9356.8257,2.043,4.7905,1.9356-.8257a11.98049,11.98049,0,0,0,3.0419,2.98l-.7846,1.9522,4.8315,1.9423.7847-1.9521a12.1168,12.1168,0,0,0,4.2588-.0444l.8257,1.9355,4.7905-2.0425-.8257-1.936a11.9791,11.9791,0,0,0,2.98-3.042l1.9521.7851,1.9424-4.832-1.9516-.7851A11.99032,11.99032,0,0,0,123.0376,60.0567Zm-8.7319,9.7343a8.13362,8.13362,0,1,1,4.29-10.6709A8.07893,8.07893,0,0,1,114.3057,69.791Z" fill="#fff"/><path d="M85.2451,53.7583l1.9361-.8257-2.0435-4.7905-1.9355.8262a11.97477,11.97477,0,0,0-3.0425-2.9805l.7852-1.9521-4.8316-1.9424-.7851,1.9521a12.11665,12.11665,0,0,0-4.2588.0445l-.8257-1.9356-4.7901,2.0425.8257,1.936a11.96956,11.96956,0,0,0-2.9804,3.0425l-1.9522-.7851-1.9429,4.8315,1.9527.7852a11.97875,11.97875,0,0,0,.0449,4.2588l-1.936.8251,2.0429,4.7906,1.9356-.8257a11.98938,11.98938,0,0,0,3.0425,2.98l-.7852,1.9521,4.832,1.9429.7847-1.9522a12.12642,12.12642,0,0,0,4.2588-.0449l.8257,1.9361,4.7905-2.043-.8262-1.9356a11.97387,11.97387,0,0,0,2.98-3.0424l1.9526.7851,1.9424-4.832-1.9521-.7847A11.97849,11.97849,0,0,0,85.2451,53.7583Zm-8.7319,9.7339a8.13367,8.13367,0,1,1,4.29-10.6704A8.078,8.078,0,0,1,76.5132,63.4922Z" fill="#fff"/><path d="M63.8526,83.916l3.25-1.3852-3.4302-8.0415-3.249,1.3862a20.12675,20.12675,0,0,0-5.1075-5.0024l1.3184-3.2769-8.1108-3.2607-1.3179,3.2768a20.32642,20.32642,0,0,0-7.1484.0752l-1.3858-3.25-8.0415,3.4292,1.3862,3.2495a20.08882,20.08882,0,0,0-5.0024,5.107l-3.2773-1.3179-3.2608,8.1108,3.2769,1.3174a20.11935,20.11935,0,0,0,.0752,7.149l-3.2491,1.3852,3.4292,8.0415,3.2491-1.3862a20.1083,20.1083,0,0,0,5.1069,5.0024l-1.3179,3.2769,8.1109,3.2607,1.3173-3.2763a20.351,20.351,0,0,0,7.1485-.0752l1.3862,3.2495,8.041-3.4292-1.3862-3.2495a20.09162,20.09162,0,0,0,5.0024-5.1065l3.2769,1.3179,3.2607-8.1113L63.9273,91.065A20.11237,20.11237,0,0,0,63.8526,83.916ZM49.1953,100.2559a13.65318,13.65318,0,1,1,7.2012-17.9116A13.55533,13.55533,0,0,1,49.1953,100.2559Z" fill="#fff"/><path d="M35.8152,90.3351l3.1494,4.4092a.50018.50018,0,0,0,.7786.0438L51.0806,82.1909a.49994.49994,0,0,0-.7432-.6689L39.4165,93.6562l-2.7874-3.9024a.5.5,0,0,0-.8138.5813Z" fill="#fff"/><path d="M79.906,90.0064l2.6016,3.6426a.50011.50011,0,0,0,.7786.0439l9.3662-10.4067a.5.5,0,0,0-.7432-.669l-8.9497,9.9437-2.2396-3.1357a.5.5,0,0,0-.8137.5813Z" fill="#fff"/><path d="M69.9302,56.5236l1.5059,2.1084a.37482.37482,0,0,0,.5838.0329L77.4423,52.64a.375.375,0,0,0-.5574-.5017l-5.11,5.6776-1.2345-1.7282a.37491.37491,0,1,0-.6101.4359Z" fill="#fff"/><path d="M107.7222,64.0818l1.5063,2.1088a.37492.37492,0,0,0,.5839.0329l5.4224-6.0249a.375.375,0,0,0-.5574-.5017l-5.1101,5.6777-1.2349-1.7288a.37494.37494,0,1,0-.6101.436Z" fill="#fff"/></g></g></g></svg>