<svg xmlns="http://www.w3.org/2000/svg" xmlns:xlink="http://www.w3.org/1999/xlink" viewBox="0 0 310 310"><defs><linearGradient id="New_Gradient_Swatch_7" x1="45.39603" y1="264.60157" x2="264.59913" y2="45.39847" gradientTransform="matrix(-1, 0, 0, 1, 309.9976, 0)" gradientUnits="userSpaceOnUse"><stop offset="0" stop-color="#38a380"/><stop offset="0.06811" stop-color="#4fa684"/><stop offset="0.19954" stop-color="#74ac8a"/><stop offset="0.33708" stop-color="#93b090"/><stop offset="0.4803" stop-color="#abb494"/><stop offset="0.63159" stop-color="#bcb697"/><stop offset="0.79642" stop-color="#c6b898"/><stop offset="1" stop-color="#c9b899"/></linearGradient></defs><g id="Layer_2" data-name="Layer 2"><g id="Layer_1-2" data-name="Layer 1"><circle cx="155" cy="155" r="154" fill="#fff" stroke-miterlimit="10" stroke-width="2" stroke="url(#New_Gradient_Swatch_7)"/><path d="M79.786,195.10769a4.1325,4.1325,0,0,1-1.44336,3.36719,6.19659,6.19659,0,0,1-4.06543,1.19726,10.90009,10.90009,0,0,1-1.917-.14843,6.05427,6.05427,0,0,1-1.55762-.5v-1.7461a7.48731,7.48731,0,0,0,3.49512.86328,4.14089,4.14089,0,0,0,2.6416-.77539,2.57487,2.57487,0,0,0,.97656-2.13281,2.07123,2.07123,0,0,0-.54-1.41406,8.17723,8.17723,0,0,0-2.00879-1.44336,6.39639,6.39639,0,0,1-2.15332-1.74805,3.55061,3.55061,0,0,1-.60156-2.06641,3.99358,3.99358,0,0,1,1.35645-3.1289,5.15768,5.15768,0,0,1,3.5664-1.209,8.814,8.814,0,0,1,1.89649.19532,8.61806,8.61806,0,0,1,1.85547.668l-.67774,1.543a6.26705,6.26705,0,0,0-1.52148-.61718,6.04491,6.04491,0,0,0-1.55274-.22657,3.2956,3.2956,0,0,0-2.21484.71485,2.41557,2.41557,0,0,0-.83789,1.9375,2.35333,2.35333,0,0,0,.1748.95117,2.26127,2.26127,0,0,0,.55567.74414,9.24417,9.24417,0,0,0,1.459.97656,12.32942,12.32942,0,0,1,2.041,1.41992,3.35544,3.35544,0,0,1,1.07324,2.57813Z" fill="#232323"/><path d="M85.02819,198.26394a5.58587,5.58587,0,0,0,1.48047-.26758v1.32617a4.75094,4.75094,0,0,1-.86329.2461,4.4539,4.4539,0,0,1-.82226.10351,2.85717,2.85717,0,0,1-1.96875-.61133,2.32479,2.32479,0,0,1-.68359-1.82421,7.47865,7.47865,0,0,1,.18554-1.543l1.30567-6.1875H81.89342l.14453-.75,1.90137-.80078,1.28418-2.34375h1.00781l-.56543,2.58984h2.81641l-.26758,1.30469H85.409l-1.32618,6.209a7.32774,7.32774,0,0,0-.18457,1.35742,1.21656,1.21656,0,0,0,.29786.88282A1.10526,1.10526,0,0,0,85.02819,198.26394Z" fill="#232323"/><path d="M95.5233,187.99636a4.70528,4.70528,0,0,1,1.2334.14258l-.37011,1.543a4.47987,4.47987,0,0,0-1.07911-.13477,2.86233,2.86233,0,0,0-1.75293.61719,5.43794,5.43794,0,0,0-1.42871,1.71094,8.76037,8.76037,0,0,0-.89941,2.43164l-1.09961,5.16015H88.40026l2.40527-11.26562h1.42871l-.22656,2.08594h.10351a10.14529,10.14529,0,0,1,1.22266-1.40235,3.8574,3.8574,0,0,1,1.0127-.6582A2.90512,2.90512,0,0,1,95.5233,187.99636Z" fill="#232323"/><path d="M101.18639,199.67214a3.92425,3.92425,0,0,1-2.96973-1.12109,4.28564,4.28564,0,0,1-1.08007-3.10352,9.24736,9.24736,0,0,1,.7666-3.70507,6.85541,6.85541,0,0,1,2.02929-2.75977,4.422,4.422,0,0,1,2.78614-.98633,3.524,3.524,0,0,1,2.36328.6836,2.37987,2.37987,0,0,1,.792,1.90625,3.262,3.262,0,0,1-1.70605,2.90429,9.35951,9.35951,0,0,1-4.88282,1.05274h-.33886l-.041.82226a3.18134,3.18134,0,0,0,.63184,2.10156,2.40993,2.40993,0,0,0,1.958.75586,5.10055,5.10055,0,0,0,1.33106-.18554,10.22142,10.22142,0,0,0,1.70117-.67774v1.5a9.19314,9.19314,0,0,1-1.706.63282A6.96214,6.96214,0,0,1,101.18639,199.67214Zm1.42871-10.207a2.74551,2.74551,0,0,0-1.98828.9668,6.32127,6.32127,0,0,0-1.42383,2.68164H99.326a8.387,8.387,0,0,0,3.59277-.61133,1.91809,1.91809,0,0,0,1.249-1.77148,1.20509,1.20509,0,0,0-.375-.90625A1.66125,1.66125,0,0,0,102.6151,189.46511Z" fill="#232323"/><path d="M114.00377,199.46706l1.52149-7.11328a9.38324,9.38324,0,0,0,.20508-1.48047,1.45652,1.45652,0,0,0-.36524-1.0371,1.525,1.525,0,0,0-1.166-.39063,3.05055,3.05055,0,0,0-1.78321.61523,5.51342,5.51342,0,0,0-1.53222,1.75782,9.2984,9.2984,0,0,0-1.002,2.76562l-1.03808,4.88281h-1.72657l2.40528-11.26562H110.951l-.22656,2.08594h.10351a6.885,6.885,0,0,1,1.90625-1.77344,3.83176,3.83176,0,0,1,1.90625-.51758,2.88658,2.88658,0,0,1,2.06153.71289,2.62508,2.62508,0,0,1,.75488,2,8.39372,8.39372,0,0,1-.23633,1.84961l-1.46973,6.9082Z" fill="#232323"/><path d="M129.96666,188.20144l-.25683,1.09961-2.169.24609a2.89843,2.89843,0,0,1,.4209,1.625,4.1683,4.1683,0,0,1-1.19726,3.12891,4.38423,4.38423,0,0,1-3.20118,1.168,3.46315,3.46315,0,0,1-.86425-.082q-1.42823.54492-1.42872,1.3457a.54593.54593,0,0,0,.33985.56055,4.12345,4.12345,0,0,0,.98633.2207l1.20312.14453a5.34137,5.34137,0,0,1,2.69727.9043,2.411,2.411,0,0,1,.83789,1.99414,3.35413,3.35413,0,0,1-1.5,2.92773,7.352,7.352,0,0,1-4.22461,1.03907,5.57219,5.57219,0,0,1-3.125-.75586,2.42,2.42,0,0,1-1.13086-2.13282,2.65052,2.65052,0,0,1,.74023-1.87109,5.758,5.758,0,0,1,2.39453-1.3457,1.33877,1.33877,0,0,1-.80078-1.24414,1.6322,1.6322,0,0,1,.52344-1.2168,5.3932,5.3932,0,0,1,1.46-.95117,2.67443,2.67443,0,0,1-1.05859-.97266,2.70582,2.70582,0,0,1-.41113-1.49414,4.51515,4.51515,0,0,1,1.22851-3.26953,4.16894,4.16894,0,0,1,3.13965-1.27344,6.2097,6.2097,0,0,1,1.583.20508ZM119.0194,201.471a1.44845,1.44845,0,0,0,.66894,1.25391,3.48834,3.48834,0,0,0,1.9834.46289,5.55855,5.55855,0,0,0,2.92383-.65235,2.0583,2.0583,0,0,0,1.05371-1.8457,1.1527,1.1527,0,0,0-.55469-1.00781,4.46206,4.46206,0,0,0-1.8916-.51367l-1.63379-.16407a3.71461,3.71461,0,0,0-1.8916.9043A2.11413,2.11413,0,0,0,119.0194,201.471Zm2.85742-8.99414a1.79291,1.79291,0,0,0,.46289,1.332,1.74887,1.74887,0,0,0,1.28516.457,2.38638,2.38638,0,0,0,1.418-.43164,2.75233,2.75233,0,0,0,.93066-1.1875,4.12006,4.12006,0,0,0,.32324-1.63867,1.716,1.716,0,0,0-.45215-1.28516,1.77609,1.77609,0,0,0-1.29492-.4414,2.40735,2.40735,0,0,0-1.40332.416,2.73538,2.73538,0,0,0-.93555,1.16016A3.91939,3.91939,0,0,0,121.87682,192.47683Z" fill="#232323"/><path d="M133.26549,198.26394a5.58581,5.58581,0,0,0,1.48047-.26758v1.32617a4.75105,4.75105,0,0,1-.86328.2461,4.454,4.454,0,0,1-.82227.10351,2.8572,2.8572,0,0,1-1.96875-.61133,2.32483,2.32483,0,0,1-.68359-1.82421,7.478,7.478,0,0,1,.18555-1.543l1.30566-6.1875h-1.76855l.14453-.75,1.90136-.80078,1.28418-2.34375h1.00782l-.56543,2.58984h2.8164l-.26757,1.30469h-2.80567l-1.32617,6.209a7.32687,7.32687,0,0,0-.18457,1.35742,1.21656,1.21656,0,0,0,.29785.88282A1.10526,1.10526,0,0,0,133.26549,198.26394Z" fill="#232323"/><path d="M143.52428,199.46706l1.52149-7.11328a8.49349,8.49349,0,0,0,.18457-1.38672,1.3397,1.3397,0,0,0-1.51075-1.52148,3.078,3.078,0,0,0-1.7832.60547,5.33461,5.33461,0,0,0-1.53223,1.76367,9.46931,9.46931,0,0,0-1.00195,2.791l-1.03809,4.86132h-1.72656l3.3916-15.99414h1.72754q-.186.84375-.35547,1.63477-.16845.791-.34863,1.60937-.18018.81446-.39062,1.71094-.21094.89356-.48829,1.94141h.11231a6.87018,6.87018,0,0,1,1.90723-1.8086,3.87,3.87,0,0,1,1.96777-.54492,2.80914,2.80914,0,0,1,2.082.74024,2.85381,2.85381,0,0,1,.73438,2.09765,8.31152,8.31152,0,0,1-.23633,1.70508q-.3999,1.98341-1.49024,6.9082Z" fill="#232323"/><path d="M153.23717,199.67214a3.92425,3.92425,0,0,1-2.96973-1.12109,4.28564,4.28564,0,0,1-1.08007-3.10352,9.24753,9.24753,0,0,1,.7666-3.70507,6.85534,6.85534,0,0,1,2.0293-2.75977,4.422,4.422,0,0,1,2.78613-.98633,3.524,3.524,0,0,1,2.36328.6836,2.37987,2.37987,0,0,1,.792,1.90625,3.262,3.262,0,0,1-1.70605,2.90429,9.35951,9.35951,0,0,1-4.88282,1.05274h-.33886l-.041.82226a3.18134,3.18134,0,0,0,.63184,2.10156,2.41,2.41,0,0,0,1.958.75586,5.10042,5.10042,0,0,0,1.33105-.18554,10.22142,10.22142,0,0,0,1.70117-.67774v1.5a9.19314,9.19314,0,0,1-1.70605.63282A6.96214,6.96214,0,0,1,153.23717,199.67214Zm1.42871-10.207a2.74551,2.74551,0,0,0-1.98828.9668,6.32127,6.32127,0,0,0-1.42383,2.68164h.12305a8.387,8.387,0,0,0,3.59277-.61133,1.91809,1.91809,0,0,0,1.249-1.77148,1.20509,1.20509,0,0,0-.375-.90625A1.66125,1.66125,0,0,0,154.66588,189.46511Z" fill="#232323"/><path d="M166.05455,199.46706l1.52149-7.11328a9.38324,9.38324,0,0,0,.20508-1.48047,1.45652,1.45652,0,0,0-.36524-1.0371,1.525,1.525,0,0,0-1.166-.39063,3.05059,3.05059,0,0,0-1.78321.61523,5.51342,5.51342,0,0,0-1.53222,1.75782,9.2984,9.2984,0,0,0-1.002,2.76562l-1.03808,4.88281h-1.72656l2.40527-11.26562h1.42871l-.22656,2.08594h.10351a6.885,6.885,0,0,1,1.90625-1.77344,3.83176,3.83176,0,0,1,1.90625-.51758,2.88658,2.88658,0,0,1,2.06153.71289,2.625,2.625,0,0,1,.75488,2,8.39372,8.39372,0,0,1-.23633,1.84961l-1.46973,6.9082Z" fill="#232323"/><path d="M173.04381,199.46706h-1.72656l2.40527-11.26562h1.72657Zm1.16211-14.14453a1.35014,1.35014,0,0,1,.32813-.93945,1.09393,1.09393,0,0,1,.85351-.36523.80905.80905,0,0,1,.9043.92578,1.39083,1.39083,0,0,1-.34375.95508,1.03386,1.03386,0,0,1-.79688.39062.95067.95067,0,0,1-.67871-.25195A.93625.93625,0,0,1,174.20592,185.32253Z" fill="#232323"/><path d="M183.54869,199.46706l1.52149-7.11328a9.38324,9.38324,0,0,0,.20508-1.48047,1.45652,1.45652,0,0,0-.36524-1.0371,1.525,1.525,0,0,0-1.166-.39063,3.05059,3.05059,0,0,0-1.78321.61523,5.51342,5.51342,0,0,0-1.53222,1.75782,9.2984,9.2984,0,0,0-1.002,2.76562l-1.03808,4.88281H176.662l2.40527-11.26562H180.496l-.22656,2.08594h.10351a6.885,6.885,0,0,1,1.90625-1.77344,3.83176,3.83176,0,0,1,1.90625-.51758,2.88658,2.88658,0,0,1,2.06153.71289,2.625,2.625,0,0,1,.75488,2,8.39372,8.39372,0,0,1-.23633,1.84961l-1.46972,6.9082Z" fill="#232323"/><path d="M199.51159,188.20144l-.25684,1.09961-2.16895.24609a2.89843,2.89843,0,0,1,.4209,1.625,4.1683,4.1683,0,0,1-1.19726,3.12891,4.38421,4.38421,0,0,1-3.20117,1.168,3.46324,3.46324,0,0,1-.86426-.082q-1.42822.54492-1.42871,1.3457a.54592.54592,0,0,0,.33984.56055,4.12357,4.12357,0,0,0,.98633.2207l1.20312.14453a5.34134,5.34134,0,0,1,2.69727.9043,2.411,2.411,0,0,1,.83789,1.99414,3.35413,3.35413,0,0,1-1.5,2.92773,7.352,7.352,0,0,1-4.22461,1.03907,5.57222,5.57222,0,0,1-3.125-.75586,2.42,2.42,0,0,1-1.13086-2.13282,2.65049,2.65049,0,0,1,.74024-1.87109,5.7579,5.7579,0,0,1,2.39453-1.3457,1.33877,1.33877,0,0,1-.80078-1.24414,1.63219,1.63219,0,0,1,.52343-1.2168,5.3932,5.3932,0,0,1,1.46-.95117,2.67443,2.67443,0,0,1-1.05859-.97266,2.7059,2.7059,0,0,1-.41113-1.49414,4.51519,4.51519,0,0,1,1.22851-3.26953,4.16894,4.16894,0,0,1,3.13965-1.27344,6.2097,6.2097,0,0,1,1.583.20508ZM188.56432,201.471a1.44845,1.44845,0,0,0,.66895,1.25391,3.48828,3.48828,0,0,0,1.98339.46289,5.55855,5.55855,0,0,0,2.92383-.65235,2.0583,2.0583,0,0,0,1.05371-1.8457,1.15271,1.15271,0,0,0-.55468-1.00781,4.46216,4.46216,0,0,0-1.89161-.51367l-1.63379-.16407a3.71461,3.71461,0,0,0-1.8916.9043A2.11417,2.11417,0,0,0,188.56432,201.471Zm2.85742-8.99414a1.79291,1.79291,0,0,0,.46289,1.332,1.74888,1.74888,0,0,0,1.28516.457,2.38638,2.38638,0,0,0,1.418-.43164,2.75233,2.75233,0,0,0,.93066-1.1875,4.12006,4.12006,0,0,0,.32324-1.63867,1.716,1.716,0,0,0-.45214-1.28516,1.77612,1.77612,0,0,0-1.29493-.4414,2.40735,2.40735,0,0,0-1.40332.416,2.73528,2.73528,0,0,0-.93554,1.16016A3.91924,3.91924,0,0,0,191.42174,192.47683Z" fill="#232323"/><path d="M208.27819,198.26394a5.58587,5.58587,0,0,0,1.48047-.26758v1.32617a4.75094,4.75094,0,0,1-.86329.2461,4.4539,4.4539,0,0,1-.82226.10351,2.85717,2.85717,0,0,1-1.96875-.61133,2.32479,2.32479,0,0,1-.68359-1.82421,7.47865,7.47865,0,0,1,.18554-1.543l1.30567-6.1875h-1.76856l.14453-.75,1.90137-.80078,1.28418-2.34375h1.00781l-.56543,2.58984h2.81641l-.26758,1.30469h-2.80566l-1.32618,6.209a7.32774,7.32774,0,0,0-.18457,1.35742,1.21656,1.21656,0,0,0,.29786.88282A1.10526,1.10526,0,0,0,208.27819,198.26394Z" fill="#232323"/><path d="M218.537,199.46706l1.52148-7.11328a8.49235,8.49235,0,0,0,.18457-1.38672,1.3397,1.3397,0,0,0-1.51074-1.52148,3.078,3.078,0,0,0-1.7832.60547,5.33438,5.33438,0,0,0-1.53223,1.76367,9.469,9.469,0,0,0-1.002,2.791l-1.03809,4.86132h-1.72656l3.3916-15.99414h1.72754q-.186.84375-.35547,1.63477-.16846.791-.34863,1.60937-.18018.81446-.39063,1.71094-.21093.89356-.48828,1.94141h.1123a6.87045,6.87045,0,0,1,1.90723-1.8086,3.87,3.87,0,0,1,1.96777-.54492,2.80918,2.80918,0,0,1,2.082.74024,2.85385,2.85385,0,0,1,.73437,2.09765,8.31082,8.31082,0,0,1-.23633,1.70508q-.3999,1.98341-1.49023,6.9082Z" fill="#232323"/><path d="M228.24987,199.67214a3.92424,3.92424,0,0,1-2.96973-1.12109,4.2856,4.2856,0,0,1-1.08008-3.10352,9.24753,9.24753,0,0,1,.7666-3.70507,6.85552,6.85552,0,0,1,2.0293-2.75977,4.422,4.422,0,0,1,2.78613-.98633,3.524,3.524,0,0,1,2.36328.6836,2.37988,2.37988,0,0,1,.792,1.90625,3.262,3.262,0,0,1-1.70606,2.90429,9.35944,9.35944,0,0,1-4.88281,1.05274h-.33887l-.041.82226a3.18134,3.18134,0,0,0,.63183,2.10156,2.41,2.41,0,0,0,1.958.75586,5.10055,5.10055,0,0,0,1.33106-.18554,10.22142,10.22142,0,0,0,1.70117-.67774v1.5a9.19294,9.19294,0,0,1-1.70606.63282A6.962,6.962,0,0,1,228.24987,199.67214Zm1.42871-10.207a2.74549,2.74549,0,0,0-1.98828.9668,6.32127,6.32127,0,0,0-1.42383,2.68164h.12305a8.387,8.387,0,0,0,3.59277-.61133,1.91808,1.91808,0,0,0,1.249-1.77148,1.20509,1.20509,0,0,0-.375-.90625A1.66122,1.66122,0,0,0,229.67858,189.46511Z" fill="#232323"/><path d="M73.5526,213.27761a2.9968,2.9968,0,0,1,2.8877,1.95313h.10254a23.862,23.862,0,0,1,.46289-2.81641l.80175-3.67969h1.70606l-3.3916,15.99219H74.69323l.22558-2.14844h-.082a7.7416,7.7416,0,0,1-1.94238,1.82032,3.64048,3.64048,0,0,1-1.8711.53515,2.69186,2.69186,0,0,1-2.23046-1.00781,4.38312,4.38312,0,0,1-.80176-2.79688,10.66354,10.66354,0,0,1,.74023-4.02929,6.73534,6.73534,0,0,1,1.999-2.82617A4.43524,4.43524,0,0,1,73.5526,213.27761Zm-1.95312,10.22656a2.99616,2.99616,0,0,0,1.99414-.96093,6.75455,6.75455,0,0,0,1.6289-2.457,8.10468,8.10468,0,0,0,.60157-3.04688,2.46322,2.46322,0,0,0-.55567-1.73828,2.10082,2.10082,0,0,0-1.61328-.5957,2.75349,2.75349,0,0,0-1.92773.84765,5.98244,5.98244,0,0,0-1.42872,2.38477,9.70448,9.70448,0,0,0-.53906,3.23242Q69.75963,223.50515,71.59948,223.50417Z" fill="#232323"/><path d="M84.1903,224.93386a3.93157,3.93157,0,0,1-2.96973-1.12109,4.28562,4.28562,0,0,1-1.08008-3.10352,9.25681,9.25681,0,0,1,.7666-3.707,6.85555,6.85555,0,0,1,2.0293-2.75976,4.43335,4.43335,0,0,1,2.78613-.98633,3.53457,3.53457,0,0,1,2.36328.68359,2.38529,2.38529,0,0,1,.792,1.90625,3.25987,3.25987,0,0,1-1.70606,2.9043,9.34036,9.34036,0,0,1-4.88281,1.05273h-.33887l-.041.82227a3.187,3.187,0,0,0,.63183,2.10351,2.40909,2.40909,0,0,0,1.958.75391,5.0959,5.0959,0,0,0,1.331-.18359,10.08623,10.08623,0,0,0,1.70118-.67969v1.502a9.31227,9.31227,0,0,1-1.70606.63086A6.85663,6.85663,0,0,1,84.1903,224.93386Zm1.42871-10.207a2.75013,2.75013,0,0,0-1.98828.96484,6.31778,6.31778,0,0,0-1.42383,2.6836h.123a8.387,8.387,0,0,0,3.59278-.61133,1.92053,1.92053,0,0,0,1.249-1.77344,1.20079,1.20079,0,0,0-.375-.90429A1.65212,1.65212,0,0,0,85.619,214.72683Z" fill="#232323"/><path d="M96.66881,224.72683l1.52051-7.11133a8.40526,8.40526,0,0,0,.18555-1.38867,1.76039,1.76039,0,0,0-.31934-1.12109,1.31809,1.31809,0,0,0-1.08887-.40039,2.75613,2.75613,0,0,0-1.68066.61718,5.34916,5.34916,0,0,0-1.43945,1.76368,10.18834,10.18834,0,0,0-.96094,2.75976l-1.03809,4.88086H90.121l2.40527-11.26562h1.42871l-.22656,2.08789h.10352a6.40811,6.40811,0,0,1,1.7832-1.75782,3.50575,3.50575,0,0,1,1.834-.53515,2.335,2.335,0,0,1,1.78906.668,3.06161,3.06161,0,0,1,.74023,1.86132h.082a6.57243,6.57243,0,0,1,1.88086-1.90625,3.75957,3.75957,0,0,1,2.01465-.623,2.772,2.772,0,0,1,2.01953.69922,2.72185,2.72185,0,0,1,.71485,2.03515,9.81585,9.81585,0,0,1-.22657,1.83008l-1.48046,6.90625h-1.74708l1.52149-7.11133a9.35927,9.35927,0,0,0,.20508-1.50195,1.29618,1.29618,0,0,0-1.46973-1.4082,2.76555,2.76555,0,0,0-1.64453.5957,5.22877,5.22877,0,0,0-1.42383,1.69141,9.25033,9.25033,0,0,0-.92969,2.5957l-1.09961,5.13867Z" fill="#232323"/><path d="M114.48131,213.31863a4.11131,4.11131,0,0,1,3.083,1.15625,4.35425,4.35425,0,0,1,1.13086,3.18164,9.124,9.124,0,0,1-.74024,3.64844,6.31914,6.31914,0,0,1-2.0039,2.65234,4.68636,4.68636,0,0,1-2.85742.93359,4.09856,4.09856,0,0,1-3.09375-1.16015,4.38544,4.38544,0,0,1-1.1211-3.17578,9.10613,9.10613,0,0,1,.751-3.67579,6.23111,6.23111,0,0,1,2.02441-2.64062A4.71946,4.71946,0,0,1,114.48131,213.31863Zm2.42578,4.10156a2.81118,2.81118,0,0,0-.64257-1.918,2.19453,2.19453,0,0,0-1.74219-.73437,3.01441,3.01441,0,0,0-2.00977.75976,4.89277,4.89277,0,0,0-1.37695,2.11328,8.77448,8.77448,0,0,0-.48828,3.00586,3.03014,3.03014,0,0,0,.65234,2.082,2.3766,2.3766,0,0,0,1.876.73438,2.83348,2.83348,0,0,0,1.92187-.75,4.89,4.89,0,0,0,1.33106-2.13281A9.65522,9.65522,0,0,0,116.90709,217.42019Z" fill="#232323"/><path d="M124.88268,224.93386a3.828,3.828,0,0,1-4.19434-4.20508,9.35532,9.35532,0,0,1,.76075-3.793,6.43155,6.43155,0,0,1,2.10253-2.707,5.0116,5.0116,0,0,1,3.01661-.97265,7.53666,7.53666,0,0,1,2.75488.52539l-.4834,1.44922a5.81464,5.81464,0,0,0-2.251-.52539,3.21282,3.21282,0,0,0-2.10156.78711,5.17076,5.17076,0,0,0-1.49121,2.18945,8.42642,8.42642,0,0,0-.53906,3.04687,2.87371,2.87371,0,0,0,.68359,2.04493,2.45068,2.45068,0,0,0,1.88574.73046,4.68012,4.68012,0,0,0,1.39844-.20507,12.7054,12.7054,0,0,0,1.29492-.48438v1.4707A6.17479,6.17479,0,0,1,124.88268,224.93386Z" fill="#232323"/><path d="M136.88756,213.25613a4.69966,4.69966,0,0,1,1.2334.14453l-.37012,1.541a4.57622,4.57622,0,0,0-1.0791-.13281,2.85027,2.85027,0,0,0-1.75293.61719,5.39427,5.39427,0,0,0-1.42871,1.71094,8.72412,8.72412,0,0,0-.89941,2.42968l-1.09961,5.16016h-1.72656l2.40527-11.26562h1.42871l-.22656,2.08789h.10351a10.067,10.067,0,0,1,1.22266-1.4043,3.89864,3.89864,0,0,1,1.01269-.65625A2.9057,2.9057,0,0,1,136.88756,213.25613Z" fill="#232323"/><path d="M144.06237,213.25613a2.9008,2.9008,0,0,1,1.68554.50976,3.29539,3.29539,0,0,1,1.15137,1.46485h.11231l.68945-1.76953h1.30469l-2.39454,11.26562H145.244l.26758-2.14844h-.083q-1.83984,2.35548-3.875,2.35547a2.70963,2.70963,0,0,1-2.24024-1.01758,4.35563,4.35563,0,0,1-.8125-2.78711,10.60145,10.60145,0,0,1,.73047-3.96679,6.845,6.845,0,0,1,2.01465-2.86719A4.376,4.376,0,0,1,144.06237,213.25613Zm-1.95313,10.248a2.88963,2.88963,0,0,0,1.9834-.95117,7.02879,7.02879,0,0,0,1.60352-2.47656,8.11028,8.11028,0,0,0,.61718-3.05859,2.39654,2.39654,0,0,0-.57617-1.68555,1.95491,1.95491,0,0,0-1.51074-.62695,2.82889,2.82889,0,0,0-1.98926.88476,5.95232,5.95232,0,0,0-1.44336,2.39453,9.65311,9.65311,0,0,0-.52441,3.18555,2.70573,2.70573,0,0,0,.48242,1.75391A1.66877,1.66877,0,0,0,142.10924,223.50417Z" fill="#232323"/><path d="M153.44616,223.52566a5.58616,5.58616,0,0,0,1.48046-.26758v1.32617a4.75058,4.75058,0,0,1-.86328.2461,4.4539,4.4539,0,0,1-.82226.10351,2.85763,2.85763,0,0,1-1.96875-.61328,2.322,2.322,0,0,1-.6836-1.82422,7.476,7.476,0,0,1,.18555-1.541l1.30566-6.1875h-1.76855l.14453-.75,1.90137-.80274,1.28418-2.34375h1.00781l-.56543,2.58985h2.81641l-.26758,1.30664H153.827l-1.32618,6.207a7.34821,7.34821,0,0,0-.18457,1.35742,1.22157,1.22157,0,0,0,.29785.88476A1.10526,1.10526,0,0,0,153.44616,223.52566Z" fill="#232323"/><path d="M158.54479,224.72683h-1.72656l2.40527-11.26562h1.72656Zm1.16211-14.14258a1.35515,1.35515,0,0,1,.32812-.9414,1.09886,1.09886,0,0,1,.85352-.36329.80766.80766,0,0,1,.9043.92383,1.39919,1.39919,0,0,1-.34375.957,1.04008,1.04008,0,0,1-.79688.39063.95071.95071,0,0,1-.67871-.25195A.93625.93625,0,0,1,159.7069,210.58425Z" fill="#232323"/><path d="M169.11119,221.53152a3.01337,3.01337,0,0,1-1.13574,2.50195,5.0429,5.0429,0,0,1-3.20215.90039,6.83,6.83,0,0,1-3.13476-.71094v-1.623a6.44038,6.44038,0,0,0,1.55273.668,5.64154,5.64154,0,0,0,1.541.23632,3.13934,3.13934,0,0,0,1.95312-.51367,1.60061,1.60061,0,0,0,.65821-1.3164,1.4217,1.4217,0,0,0-.36035-.98633,7.24735,7.24735,0,0,0-1.55176-1.09961,6.24239,6.24239,0,0,1-1.8916-1.4707,2.70456,2.70456,0,0,1-.55469-1.70508,2.83438,2.83438,0,0,1,1.03808-2.28711,4.1157,4.1157,0,0,1,2.73438-.86914,7.94031,7.94031,0,0,1,3.3916.76172l-.55469,1.4082-.57617-.25781a5.70594,5.70594,0,0,0-2.26074-.44141,2.29482,2.29482,0,0,0-1.501.44727,1.50587,1.50587,0,0,0-.17968,2.14257,6.45252,6.45252,0,0,0,1.50585,1.0586,8.66315,8.66315,0,0,1,1.57715,1.05859,3.05387,3.05387,0,0,1,.71485.95117A2.68888,2.68888,0,0,1,169.11119,221.53152Z" fill="#232323"/><path d="M177.13952,213.25613a2.9008,2.9008,0,0,1,1.68554.50976,3.29539,3.29539,0,0,1,1.15137,1.46485h.1123l.68946-1.76953h1.30468l-2.39453,11.26562h-1.36718l.26757-2.14844h-.083q-1.83986,2.35548-3.875,2.35547a2.70963,2.70963,0,0,1-2.24024-1.01758,4.35563,4.35563,0,0,1-.8125-2.78711,10.60145,10.60145,0,0,1,.73047-3.96679,6.845,6.845,0,0,1,2.01465-2.86719A4.37594,4.37594,0,0,1,177.13952,213.25613Zm-1.95313,10.248a2.88963,2.88963,0,0,0,1.9834-.95117,7.02864,7.02864,0,0,0,1.60351-2.47656,8.11011,8.11011,0,0,0,.61719-3.05859,2.39654,2.39654,0,0,0-.57617-1.68555,1.95492,1.95492,0,0,0-1.51074-.62695,2.82889,2.82889,0,0,0-1.98926.88476,5.95232,5.95232,0,0,0-1.44336,2.39453,9.65311,9.65311,0,0,0-.52441,3.18555,2.70573,2.70573,0,0,0,.48242,1.75391A1.66876,1.66876,0,0,0,175.18639,223.50417Z" fill="#232323"/><path d="M186.5233,223.52566a5.58615,5.58615,0,0,0,1.48047-.26758v1.32617a4.75081,4.75081,0,0,1-.86328.2461,4.454,4.454,0,0,1-.82226.10351,2.85763,2.85763,0,0,1-1.96875-.61328,2.322,2.322,0,0,1-.6836-1.82422,7.476,7.476,0,0,1,.18555-1.541l1.30566-6.1875h-1.76855l.14453-.75,1.90137-.80274,1.28418-2.34375h1.00781l-.56543,2.58985h2.81641l-.26758,1.30664h-2.80567l-1.32617,6.207a7.34734,7.34734,0,0,0-.18457,1.35742,1.22152,1.22152,0,0,0,.29785.88476A1.10525,1.10525,0,0,0,186.5233,223.52566Z" fill="#232323"/><path d="M191.62194,224.72683h-1.72657l2.40528-11.26562h1.72656Zm1.16211-14.14258a1.35515,1.35515,0,0,1,.32812-.9414,1.09886,1.09886,0,0,1,.85352-.36329.80765.80765,0,0,1,.90429.92383,1.39915,1.39915,0,0,1-.34375.957,1.04,1.04,0,0,1-.79687.39063.95069.95069,0,0,1-.67871-.25195A.93621.93621,0,0,1,192.78405,210.58425Z" fill="#232323"/><path d="M201.243,213.31863a4.11131,4.11131,0,0,1,3.083,1.15625,4.35429,4.35429,0,0,1,1.13086,3.18164,9.124,9.124,0,0,1-.74024,3.64844,6.31914,6.31914,0,0,1-2.0039,2.65234,4.68638,4.68638,0,0,1-2.85742.93359,4.09856,4.09856,0,0,1-3.09375-1.16015,4.38544,4.38544,0,0,1-1.1211-3.17578,9.10613,9.10613,0,0,1,.751-3.67579,6.23111,6.23111,0,0,1,2.02441-2.64062A4.71944,4.71944,0,0,1,201.243,213.31863Zm2.42578,4.10156a2.81114,2.81114,0,0,0-.64258-1.918,2.19451,2.19451,0,0,0-1.74218-.73437,3.01439,3.01439,0,0,0-2.00977.75976,4.89277,4.89277,0,0,0-1.37695,2.11328,8.77448,8.77448,0,0,0-.48828,3.00586,3.03014,3.03014,0,0,0,.65234,2.082,2.3766,2.3766,0,0,0,1.876.73438,2.83348,2.83348,0,0,0,1.92187-.75,4.89,4.89,0,0,0,1.33106-2.13281A9.65522,9.65522,0,0,0,203.66881,217.42019Z" fill="#232323"/><path d="M213.93639,224.72683l1.52148-7.11133a9.41234,9.41234,0,0,0,.20508-1.48047,1.46476,1.46476,0,0,0-.36523-1.03906,1.53255,1.53255,0,0,0-1.166-.39062,3.03975,3.03975,0,0,0-1.7832.61718,5.47167,5.47167,0,0,0-1.53223,1.75782,9.25827,9.25827,0,0,0-1.00195,2.76562l-1.03809,4.88086h-1.72656l2.40527-11.26562h1.42872l-.22657,2.08789h.10352a6.855,6.855,0,0,1,1.90625-1.77344,3.83416,3.83416,0,0,1,1.90625-.51953,2.87891,2.87891,0,0,1,2.06152.71484,2.62214,2.62214,0,0,1,.75489,2,8.40788,8.40788,0,0,1-.23633,1.84961l-1.46973,6.90625Z" fill="#232323"/><path d="M230.66979,213.31863a4.11131,4.11131,0,0,1,3.083,1.15625,4.35429,4.35429,0,0,1,1.13086,3.18164,9.124,9.124,0,0,1-.74024,3.64844,6.31914,6.31914,0,0,1-2.0039,2.65234,4.68639,4.68639,0,0,1-2.85743.93359,4.09858,4.09858,0,0,1-3.09375-1.16015,4.38543,4.38543,0,0,1-1.12109-3.17578,9.10613,9.10613,0,0,1,.751-3.67579,6.23111,6.23111,0,0,1,2.02441-2.64062A4.71944,4.71944,0,0,1,230.66979,213.31863Zm2.42578,4.10156a2.81114,2.81114,0,0,0-.64258-1.918,2.19452,2.19452,0,0,0-1.74219-.73437,3.01437,3.01437,0,0,0-2.00976.75976,4.89277,4.89277,0,0,0-1.37695,2.11328,8.77424,8.77424,0,0,0-.48829,3.00586,3.03014,3.03014,0,0,0,.65235,2.082,2.37657,2.37657,0,0,0,1.876.73438,2.83349,2.83349,0,0,0,1.92188-.75,4.89,4.89,0,0,0,1.33105-2.13281A9.65521,9.65521,0,0,0,233.09557,217.42019Z" fill="#232323"/><path d="M234.80065,229.78347a3.61914,3.61914,0,0,1-1.28418-.21484v-1.44922a3.62647,3.62647,0,0,0,1.15137.22656,1.35657,1.35657,0,0,0,1.20214-.63867,5.44086,5.44086,0,0,0,.67871-1.81836l2.333-11.12109h-1.9834l.13282-.68946,2.11816-.67773.23633-1.02735a6.07732,6.07732,0,0,1,1.31055-2.90429,3.33574,3.33574,0,0,1,2.48144-.84766,5.37383,5.37383,0,0,1,1.00781.11719,4.78419,4.78419,0,0,1,.92481.26172l-.44141,1.32617a4.032,4.032,0,0,0-1.4082-.29688,1.81554,1.81554,0,0,0-1.37305.49805,3.96058,3.96058,0,0,0-.77539,1.82422l-.25683,1.10938h2.44628l-.25683,1.30664h-2.43652L238.2235,226.053a5.88749,5.88749,0,0,1-1.2334,2.83789A2.85021,2.85021,0,0,1,234.80065,229.78347Z" fill="#232323"/><path d="M75.2733,249.9866H73.54674l3.41211-15.99219h1.72754Z" fill="#232323"/><path d="M84.91491,238.57839a4.11132,4.11132,0,0,1,3.083,1.15625,4.35427,4.35427,0,0,1,1.13086,3.18164,9.12408,9.12408,0,0,1-.74023,3.64844,6.31915,6.31915,0,0,1-2.00391,2.65234,4.68637,4.68637,0,0,1-2.85742.9336,4.09853,4.09853,0,0,1-3.09375-1.16016,4.38542,4.38542,0,0,1-1.12109-3.17578,9.10611,9.10611,0,0,1,.751-3.67578,6.23122,6.23122,0,0,1,2.02442-2.64063A4.71944,4.71944,0,0,1,84.91491,238.57839ZM87.34069,242.68a2.81115,2.81115,0,0,0-.64258-1.918,2.19449,2.19449,0,0,0-1.74219-.73438,3.01438,3.01438,0,0,0-2.00976.75977,4.89273,4.89273,0,0,0-1.377,2.11328,8.77444,8.77444,0,0,0-.48828,3.00586,3.03016,3.03016,0,0,0,.65235,2.082,2.37659,2.37659,0,0,0,1.876.73437,2.8335,2.8335,0,0,0,1.92188-.75,4.89,4.89,0,0,0,1.33105-2.13281A9.65515,9.65515,0,0,0,87.34069,242.68Z" fill="#232323"/><path d="M95.31627,250.19363a3.828,3.828,0,0,1-4.19433-4.20508,9.35528,9.35528,0,0,1,.76074-3.793,6.43151,6.43151,0,0,1,2.10254-2.707,5.0115,5.0115,0,0,1,3.0166-.97266,7.53659,7.53659,0,0,1,2.75488.52539l-.4834,1.44922a5.81456,5.81456,0,0,0-2.251-.52539,3.21285,3.21285,0,0,0-2.10156.78711,5.1709,5.1709,0,0,0-1.49122,2.18945,8.42647,8.42647,0,0,0-.53906,3.04688,2.87366,2.87366,0,0,0,.6836,2.04492,2.45065,2.45065,0,0,0,1.88574.73047,4.6799,4.6799,0,0,0,1.39844-.20508,12.70858,12.70858,0,0,0,1.29492-.48437v1.4707A6.1748,6.1748,0,0,1,95.31627,250.19363Z" fill="#232323"/><path d="M106.16,238.51589a2.90074,2.90074,0,0,1,1.68555.50977,3.29556,3.29556,0,0,1,1.15137,1.46484h.1123l.68945-1.76953h1.30469l-2.39453,11.26563h-1.36719l.26758-2.14844h-.083q-1.83984,2.35547-3.875,2.35547a2.70965,2.70965,0,0,1-2.24023-1.01758,4.35559,4.35559,0,0,1-.8125-2.78711,10.60131,10.60131,0,0,1,.73047-3.9668,6.84484,6.84484,0,0,1,2.01465-2.86718A4.37595,4.37595,0,0,1,106.16,238.51589Zm-1.95312,10.248a2.88967,2.88967,0,0,0,1.9834-.95117,7.02873,7.02873,0,0,0,1.60351-2.47656,8.11031,8.11031,0,0,0,.61719-3.0586,2.39654,2.39654,0,0,0-.57617-1.68555,1.955,1.955,0,0,0-1.51074-.62695,2.82884,2.82884,0,0,0-1.98926.88477,5.95225,5.95225,0,0,0-1.44336,2.39453,9.653,9.653,0,0,0-.52442,3.18555,2.70568,2.70568,0,0,0,.48243,1.7539A1.66874,1.66874,0,0,0,104.2069,248.76394Z" fill="#232323"/><path d="M113.79674,249.9866h-1.72656l3.41211-15.99219h1.72754Z" fill="#232323"/><path d="M128.8651,238.53738a2.9968,2.9968,0,0,1,2.8877,1.95312h.10254a23.86177,23.86177,0,0,1,.46289-2.8164l.80175-3.67969H134.826l-3.3916,15.99219h-1.42871l.22558-2.14844h-.082a7.74135,7.74135,0,0,1-1.94238,1.82031,3.6404,3.6404,0,0,1-1.8711.53516,2.69184,2.69184,0,0,1-2.23046-1.00782,4.38307,4.38307,0,0,1-.80176-2.79687,10.66363,10.66363,0,0,1,.74023-4.0293,6.7354,6.7354,0,0,1,1.999-2.82617A4.43529,4.43529,0,0,1,128.8651,238.53738ZM126.912,248.76394a2.99613,2.99613,0,0,0,1.99414-.96094,6.75438,6.75438,0,0,0,1.6289-2.457,8.10463,8.10463,0,0,0,.60157-3.04687,2.46324,2.46324,0,0,0-.55567-1.73829,2.10085,2.10085,0,0,0-1.61328-.5957,2.75346,2.75346,0,0,0-1.92773.84766,5.9824,5.9824,0,0,0-1.42872,2.38476,9.70454,9.70454,0,0,0-.53906,3.23243Q125.07213,248.76492,126.912,248.76394Z" fill="#232323"/><path d="M139.5028,250.19363a3.93154,3.93154,0,0,1-2.96973-1.1211A4.28559,4.28559,0,0,1,135.453,245.969a9.25681,9.25681,0,0,1,.7666-3.707,6.85559,6.85559,0,0,1,2.0293-2.75977,4.43335,4.43335,0,0,1,2.78613-.98633,3.53457,3.53457,0,0,1,2.36328.6836,2.38528,2.38528,0,0,1,.792,1.90625,3.25985,3.25985,0,0,1-1.70606,2.90429,9.34025,9.34025,0,0,1-4.88281,1.05274h-.33887l-.041.82226a3.187,3.187,0,0,0,.63183,2.10352,2.40909,2.40909,0,0,0,1.958.75391,5.0955,5.0955,0,0,0,1.33105-.1836,10.08623,10.08623,0,0,0,1.70118-.67969v1.502a9.31227,9.31227,0,0,1-1.70606.63086A6.85663,6.85663,0,0,1,139.5028,250.19363Zm1.42871-10.207a2.75009,2.75009,0,0,0-1.98828.96484,6.31767,6.31767,0,0,0-1.42383,2.68359h.123a8.38705,8.38705,0,0,0,3.59278-.61132,1.92054,1.92054,0,0,0,1.249-1.77344,1.20082,1.20082,0,0,0-.375-.9043A1.65216,1.65216,0,0,0,140.93151,239.9866Z" fill="#232323"/><path d="M147.119,249.9866,145.83385,238.721h1.72754l.65723,6.30078q.24756,2.65429.24707,3.72071h.06152q1.30518-2.82423,1.83984-3.8125l3.34082-6.209H155.537l-6.07422,11.26563Z" fill="#232323"/><path d="M159.60729,250.19363a3.93155,3.93155,0,0,1-2.96973-1.1211,4.28563,4.28563,0,0,1-1.08008-3.10351,9.25665,9.25665,0,0,1,.76661-3.707,6.85548,6.85548,0,0,1,2.02929-2.75977,4.4334,4.4334,0,0,1,2.78614-.98633,3.53459,3.53459,0,0,1,2.36328.6836,2.38527,2.38527,0,0,1,.792,1.90625,3.25985,3.25985,0,0,1-1.70606,2.90429,9.34025,9.34025,0,0,1-4.88281,1.05274h-.33887l-.041.82226a3.18709,3.18709,0,0,0,.63183,2.10352,2.40909,2.40909,0,0,0,1.958.75391,5.09563,5.09563,0,0,0,1.33106-.1836,10.08651,10.08651,0,0,0,1.70117-.67969v1.502a9.31227,9.31227,0,0,1-1.70606.63086A6.85663,6.85663,0,0,1,159.60729,250.19363Zm1.42871-10.207a2.75011,2.75011,0,0,0-1.98828.96484,6.31767,6.31767,0,0,0-1.42383,2.68359h.12305a8.387,8.387,0,0,0,3.59277-.61132,1.92054,1.92054,0,0,0,1.249-1.77344,1.20082,1.20082,0,0,0-.375-.9043A1.65215,1.65215,0,0,0,161.036,239.9866Z" fill="#232323"/><path d="M167.244,249.9866h-1.72657l3.41211-15.99219h1.72754Z" fill="#232323"/><path d="M176.88561,238.57839a4.11135,4.11135,0,0,1,3.083,1.15625,4.35431,4.35431,0,0,1,1.13086,3.18164,9.12391,9.12391,0,0,1-.74024,3.64844,6.31914,6.31914,0,0,1-2.0039,2.65234,4.6864,4.6864,0,0,1-2.85743.9336,4.09855,4.09855,0,0,1-3.09375-1.16016,4.38542,4.38542,0,0,1-1.12109-3.17578,9.10612,9.10612,0,0,1,.751-3.67578,6.2312,6.2312,0,0,1,2.02441-2.64063A4.71944,4.71944,0,0,1,176.88561,238.57839Zm2.42578,4.10157a2.8111,2.8111,0,0,0-.64258-1.918,2.19449,2.19449,0,0,0-1.74219-.73438,3.01438,3.01438,0,0,0-2.00976.75977,4.89271,4.89271,0,0,0-1.377,2.11328,8.7742,8.7742,0,0,0-.48829,3.00586,3.03016,3.03016,0,0,0,.65235,2.082,2.37662,2.37662,0,0,0,1.876.73437,2.83349,2.83349,0,0,0,1.92188-.75,4.88984,4.88984,0,0,0,1.33105-2.13281A9.65515,9.65515,0,0,0,179.31139,242.68Z" fill="#232323"/><path d="M187.68737,250.19363a3.00937,3.00937,0,0,1-1.74707-.51563,3.33277,3.33277,0,0,1-1.16114-1.4375h-.10351l-.041.39063c-.02051.16992-.05664.41015-.10742.71875q-.07764.46288-1.17676,5.69336h-1.707l3.4541-16.32227h1.42871l-.26757,2.14844h.082q1.83984-2.332,3.82422-2.332a2.70293,2.70293,0,0,1,2.21972,1.00195,4.35545,4.35545,0,0,1,.8125,2.81055,10.89872,10.89872,0,0,1-.71,3.998,6.63159,6.63159,0,0,1-1.96289,2.832A4.39207,4.39207,0,0,1,187.68737,250.19363Zm1.91211-10.22852a2.97523,2.97523,0,0,0-2.00977.97656,6.98944,6.98944,0,0,0-1.624,2.457,7.99554,7.99554,0,0,0-.60059,3.03125,2.419,2.419,0,0,0,.57031,1.73242,2.16668,2.16668,0,0,0,1.64942.60156,2.71828,2.71828,0,0,0,1.89648-.832,5.84974,5.84974,0,0,0,1.41309-2.36914,9.869,9.869,0,0,0,.53418-3.26367Q191.42858,239.96414,189.59948,239.96511Z" fill="#232323"/><path d="M201.38952,249.9866l1.5205-7.11133a8.40414,8.40414,0,0,0,.18555-1.38867,1.76044,1.76044,0,0,0-.31934-1.1211,1.31811,1.31811,0,0,0-1.08886-.40039,2.75615,2.75615,0,0,0-1.68067.61719,5.34922,5.34922,0,0,0-1.43945,1.76367,10.18863,10.18863,0,0,0-.96094,2.75977l-1.03808,4.88086h-1.72657l2.40528-11.26563h1.42871l-.22656,2.08789h.10351a6.4082,6.4082,0,0,1,1.7832-1.75781,3.50582,3.50582,0,0,1,1.834-.53516,2.335,2.335,0,0,1,1.78906.668,3.0617,3.0617,0,0,1,.74024,1.86133h.082a6.57218,6.57218,0,0,1,1.88086-1.90625,3.75944,3.75944,0,0,1,2.01464-.623,2.77213,2.77213,0,0,1,2.01954.69922,2.72191,2.72191,0,0,1,.71484,2.03516,9.81579,9.81579,0,0,1-.22656,1.83008L209.704,249.9866H207.9569l1.52148-7.11133a9.35921,9.35921,0,0,0,.20508-1.502,1.29619,1.29619,0,0,0-1.46973-1.4082,2.76564,2.76564,0,0,0-1.64453.5957,5.22912,5.22912,0,0,0-1.42383,1.69141,9.25044,9.25044,0,0,0-.92968,2.5957l-1.09961,5.13868Z" fill="#232323"/><path d="M217.64928,250.19363a3.93155,3.93155,0,0,1-2.96973-1.1211,4.28563,4.28563,0,0,1-1.08007-3.10351,9.25681,9.25681,0,0,1,.7666-3.707,6.85548,6.85548,0,0,1,2.02929-2.75977,4.4334,4.4334,0,0,1,2.78614-.98633,3.53459,3.53459,0,0,1,2.36328.6836,2.38527,2.38527,0,0,1,.792,1.90625,3.25986,3.25986,0,0,1-1.70605,2.90429,9.34032,9.34032,0,0,1-4.88282,1.05274h-.33886l-.041.82226a3.187,3.187,0,0,0,.63184,2.10352,2.40907,2.40907,0,0,0,1.958.75391,5.09557,5.09557,0,0,0,1.33106-.1836,10.08651,10.08651,0,0,0,1.70117-.67969v1.502a9.31247,9.31247,0,0,1-1.70605.63086A6.85678,6.85678,0,0,1,217.64928,250.19363Zm1.42871-10.207a2.75011,2.75011,0,0,0-1.98828.96484,6.31767,6.31767,0,0,0-1.42383,2.68359h.12305a8.387,8.387,0,0,0,3.59277-.61132,1.92055,1.92055,0,0,0,1.249-1.77344,1.20082,1.20082,0,0,0-.375-.9043A1.65219,1.65219,0,0,0,219.078,239.9866Z" fill="#232323"/><path d="M230.46666,249.9866l1.52149-7.11133a9.41234,9.41234,0,0,0,.20508-1.48047,1.46472,1.46472,0,0,0-.36524-1.03906,1.53247,1.53247,0,0,0-1.166-.39063,3.03977,3.03977,0,0,0-1.78321.61719,5.47149,5.47149,0,0,0-1.53222,1.75781,9.25833,9.25833,0,0,0-1.002,2.76563l-1.03808,4.88086h-1.72657l2.40528-11.26563h1.42871l-.22656,2.08789h.10351a6.85512,6.85512,0,0,1,1.90625-1.77344,3.83419,3.83419,0,0,1,1.90625-.51953,2.87891,2.87891,0,0,1,2.06153.71485,2.62212,2.62212,0,0,1,.75488,2,8.408,8.408,0,0,1-.23633,1.84961l-1.46973,6.90625Z" fill="#232323"/><path d="M239.18248,248.78542a5.58607,5.58607,0,0,0,1.48047-.26757V249.844a4.75192,4.75192,0,0,1-.86328.24609,4.45416,4.45416,0,0,1-.82226.10352,2.85763,2.85763,0,0,1-1.96875-.61328,2.322,2.322,0,0,1-.6836-1.82422,7.47607,7.47607,0,0,1,.18555-1.541l1.30566-6.1875h-1.76855l.14453-.75,1.90137-.80273,1.28418-2.34375h1.00781l-.56543,2.58984h2.81641l-.26758,1.30664h-2.80567l-1.32617,6.207a7.34744,7.34744,0,0,0-.18457,1.35742,1.22153,1.22153,0,0,0,.29785.88477A1.10523,1.10523,0,0,0,239.18248,248.78542Z" fill="#232323"/><path d="M139.44938,117.16985l5.49333-4.12006c1.14447.45765,2.05991.91543,3.20438,1.37327l.91568,7.01629a2.58336,2.58336,0,0,0,2.289,2.20936h9.61339a2.58337,2.58337,0,0,0,2.289-2.20936l.91543-6.94157a13.26807,13.26807,0,0,0,3.20463-1.18184l5.49333,4.10138a2.42483,2.42483,0,0,0,2.97534-.23813l6.6378-6.87152a2.15942,2.15942,0,0,0,.22905-2.97786l-4.11982-5.4945c.4576-1.14447.91519-2.06074,1.37327-3.20521l7.04149-.91573c1.14423-.229,1.23454-1.14476,2.23454-2.518V85.58276a2.61024,2.61024,0,0,0-2.23454-2.28895l-6.95417-.91543c-.45808-1.14448-.95933-2.06015-1.41693-3.20444l4.098-5.49352a2.14085,2.14085,0,0,0-.24-2.97558l-6.64326-6.86661a2.14312,2.14312,0,0,0-2.97807-.229l-5.4947,4.12006a9.69617,9.69617,0,0,0-3.20531-1.37327l-.91577-6.757a2.33233,2.33233,0,0,0-2.28929-1.95022h-9.61339a2.332,2.332,0,0,0-2.28895,1.95022l-.91568,6.81192c-1.14447.45784-2.2887.888-3.20438,1.34584l-5.49333-4.13378a2.42278,2.42278,0,0,0-2.97559.22218l-6.6378,6.86318a2.13794,2.13794,0,0,0-.229,2.97387l4.12,5.49265a19.28723,19.28723,0,0,0-1.37327,3.204L125.893,83.294a2.08964,2.08964,0,0,0-1.65384,2.28873v9.61358A2.08965,2.08965,0,0,0,125.893,97.485l6.66381.91568c.45784,1.14447.81391,2.05991,1.27175,3.20438l-4.17082,5.49352a2.41988,2.41988,0,0,0,.20367,2.97558l6.62511,6.8666A2.12447,2.12447,0,0,0,139.44938,117.16985Zm16.93783-39.14039a12.589,12.589,0,1,1-12.589,12.589A12.7008,12.7008,0,0,1,156.38721,78.02946Z" fill="#39ae4a"/><path d="M139.22034,154.45526a8.1852,8.1852,0,0,1-6.18-7.67436,8.06528,8.06528,0,0,1,8.01108-8.13219H171.723a7.97659,7.97659,0,0,1,8.01107,8.02945,8.08532,8.08532,0,0,1-6.18,7.76791c.08871.14807.14991.20264.22388.20264H307.80045c0-84-68.40479-152.78664-152.78651-152.78664S2.22743,70.64871,2.22743,154.64871h136.826C139.1095,154.64871,139.16357,154.59743,139.22034,154.45526Zm68.89629-30.41881a2.3163,2.3163,0,0,1-3.20463.91568l-5.26453-2.97559a2.3566,2.3566,0,0,1,2.289-4.12006l5.26453,2.97559C208.34543,121.28991,208.57422,122.66318,208.11663,124.03645Zm8.01108-30.88774a2.337,2.337,0,0,1-2.28895,2.5h-5.95117a2.50973,2.50973,0,0,1,0-5h5.95117A2.337,2.337,0,0,1,216.12771,93.14871Zm-16.48024-28.395,5.26453-2.97559a2.3566,2.3566,0,1,1,2.289,4.12006l-5.26453,2.97559a2.3566,2.3566,0,0,1-2.28895-4.12006ZM179.505,46.21358l2.97558-5.26453a2.35671,2.35671,0,0,1,4.12031,2.289l-2.97558,5.26453a2.35671,2.35671,0,0,1-4.12031-2.28895ZM153.23912,34.31124c0-1.37345.62673-2.28889,2-2.28889s2,.91544,2,2.28889v5.95117c0,1.37327-.62672,2.289-2,2.289s-2-.91568-2-2.28895Zm-28.89671,5.72219a2.53464,2.53464,0,0,1,3.20463.91562l3.20438,5.26453a2.3566,2.3566,0,0,1-4.12006,2.289L123.427,43.238A2.53428,2.53428,0,0,1,124.34241,40.03343ZM93.90017,93.14871a2.33685,2.33685,0,0,1,2.2887-2.5H102.14a2.33718,2.33718,0,0,1,2.289,2.5,2.4896,2.4896,0,0,1-2.28895,2.5H96.18887A2.33685,2.33685,0,0,1,93.90017,93.14871Zm16.48,28.59879-5.26453,2.97558a2.3566,2.3566,0,0,1-2.28895-4.12006l5.26453-2.97558a2.3566,2.3566,0,0,1,2.289,4.12006Zm.91544-53.78921a2.3161,2.3161,0,0,1-3.20439.91544l-5.26453-2.97559a2.3566,2.3566,0,0,1,2.289-4.12006l5.26453,2.97559A2.53429,2.53429,0,0,1,111.2956,67.95829Zm16.709,56.3072A43.86036,43.86036,0,0,1,151.35172,47.129c26.78-2.97558,48.75359,18.08249,48.98239,43.94727a44.12415,44.12415,0,0,1-15.56457,33.418,20.46633,20.46633,0,0,0-7.09539,10.98609,11.34657,11.34657,0,0,0-5.95117-1.83167H141.05145a13.8907,13.8907,0,0,0-5.95117,1.83167A21.55719,21.55719,0,0,0,128.00463,124.26549Z" fill="#39ae4a"/></g></g></svg>