<svg xmlns="http://www.w3.org/2000/svg" xmlns:xlink="http://www.w3.org/1999/xlink" viewBox="0 0 146.10729 146.1074"><defs><linearGradient id="linear-gradient" x1="3970.45547" y1="-3438.94969" x2="3971.45546" y2="-3438.94969" gradientTransform="matrix(103.3135, 103.3135, 103.3135, -103.3135, -54890.32361, -765470.17209)" gradientUnits="userSpaceOnUse"><stop offset="0" stop-color="#c9b899"/><stop offset="0.18779" stop-color="#c6b798"/><stop offset="0.34018" stop-color="#bcb395"/><stop offset="0.4802" stop-color="#abac91"/><stop offset="0.61284" stop-color="#93a28a"/><stop offset="0.74019" stop-color="#749581"/><stop offset="0.86361" stop-color="#4e8576"/><stop offset="0.9818" stop-color="#22736a"/><stop offset="1" stop-color="#1a7068"/></linearGradient></defs><g id="Layer_2" data-name="Layer 2"><g id="Layer_1-2" data-name="Layer 1"><circle cx="73.0537" cy="73.05373" r="72.0537" transform="translate(-10.47539 12.25421) rotate(-8.94972)" fill="#fff"/><path d="M1,73.0537H0A73.05365,73.05365,0,1,0,73.0537,0,73.05388,73.05388,0,0,0,0,73.0537H1.9998A71.05405,71.05405,0,1,1,22.811,123.2962,70.82772,70.82772,0,0,1,1.9998,73.0537Z" fill="url(#linear-gradient)"/><circle cx="73.0722" cy="76.961" r="48.5161" fill="#39ae4a"/><path d="M19.27887,59.49547,11.0904,56.97984l.41406-1.34765,8.18848,2.51562Z" fill="#4d4d4d"/><path d="M23.30524,49.54332l-.69727,1.582-7.957,1.125-.01953.044.36035.127q1.0298.36329,1.85645.72851l4.07422,1.79786-.51758,1.17089-7.83691-3.458.69043-1.56543,7.92089-1.12891.01465-.0332q-.12891-.04395-.918-.35254-.78808-.30909-1.22265-.501l-4.10645-1.81152.52149-1.18262Z" fill="#4d4d4d"/><path d="M28.20172,41.67125l-.94921,1.44433-8.03418-.207-.02637.04.335.1836c.63574.35449,1.207.69531,1.709,1.02636l3.72071,2.44727-.7041,1.06933-7.15723-4.708.94043-1.42871,7.999.19726.01953-.03027c-.08007-.043-.36132-.21-.84668-.5q-.72508-.43506-1.123-.69629l-3.75-2.4668.71-1.0791Z" fill="#4d4d4d"/><path d="M31.66266,31.39293a4.66127,4.66127,0,0,1,1.66992,2.9834,3.8251,3.8251,0,0,1-1.17675,2.97656,3.84771,3.84771,0,0,1-2.88379,1.417,4.695,4.695,0,0,1-3.11231-1.45508,4.61792,4.61792,0,0,1-1.67285-2.98828,3.896,3.896,0,0,1,1.209-2.97656A3.817,3.817,0,0,1,28.564,29.95348,4.65628,4.65628,0,0,1,31.66266,31.39293ZM27.18805,36.223a3.81779,3.81779,0,0,0,2.19629,1.15918A2.6276,2.6276,0,0,0,31.97516,34.599a3.83341,3.83341,0,0,0-1.33008-2.10644,3.84315,3.84315,0,0,0-2.18457-1.16016,2.25222,2.25222,0,0,0-1.88379.834,2.29589,2.29589,0,0,0-.7041,1.958A3.783,3.783,0,0,0,27.18805,36.223Z" fill="#4d4d4d"/><path d="M34.56794,23.46031l1.14355-.91406,2.98828,8.5791-1.16113.92773-7.69922-4.8125,1.13379-.90625,4.73144,3.03711q.34865.20947.84766.57911c.333.24609.57324.43457.71973.56933-.14649-.26465-.29883-.583-.46-.95312q-.24171-.5581-.33789-.83985Z" fill="#4d4d4d"/><path d="M46.62848,25.96715l-1.958-1.60157-2.832,1.68946.49414,2.47558-1.27734.7627-1.63672-9.041,1.31738-.78613,7.17969,5.73242ZM43.732,23.51988,41.84333,21.931c-.13184-.10351-.32715-.27343-.58887-.50878-.26172-.23438-.44824-.40918-.56348-.52344a12.926,12.926,0,0,1,.40821,1.59277L41.5738,24.807Z" fill="#4d4d4d"/><path d="M51.54547,23.69664l-1.29492.55762-2.915-6.76368-2.33007,1.00489-.47559-1.10254,5.9541-2.56738.47559,1.10253L48.63044,16.933Z" fill="#4d4d4d"/><path d="M55.12555,22.25426l-2.63281-8.15137,1.3418-.43359,2.63281,8.15136Z" fill="#4d4d4d"/><path d="M61.69,11.7191l1.43164-.30859-1.14746,9.00976-1.45411.31446L55.773,12.99449l1.418-.30566L60.0738,17.516q.21972.34277.501.8955.28272.55371.39063.83008c-.0127-.30078-.00782-.65332.01269-1.05762q.03224-.60643.07129-.90234Z" fill="#4d4d4d"/><path d="M70.90778,19.28355l-4.86133.4209-.7373-8.53515,4.86132-.41993.10157,1.17871-3.457.29883.20117,2.32422,3.23926-.28027.10058,1.167-3.23926.28027.23243,2.67969,3.457-.29883Z" fill="#4d4d4d"/><path d="M81.00348,17.55894a2.14647,2.14647,0,0,1-.98437,1.71387,3.63784,3.63784,0,0,1-2.34375.44824,5.49729,5.49729,0,0,1-2.34668-.65722l.11523-1.31934a6.562,6.562,0,0,0,1.21094.541,5.2901,5.2901,0,0,0,1.21777.26464,1.97463,1.97463,0,0,0,1.25977-.208,1.0272,1.0272,0,0,0,.4707-.81153,1.05786,1.05786,0,0,0-.29394-.84277,5.532,5.532,0,0,0-1.43653-.91992,4.00673,4.00673,0,0,1-1.56445-1.22363,2.2933,2.2933,0,0,1-.35352-1.502,2.044,2.044,0,0,1,.91016-1.61426,3.19722,3.19722,0,0,1,2.10547-.43359,6.08818,6.08818,0,0,1,2.41113.751l-.54785,1.09863a5.41566,5.41566,0,0,0-2.00293-.65625,1.588,1.588,0,0,0-1.06152.2041.97319.97319,0,0,0-.41895.749,1.09479,1.09479,0,0,0,.09082.581,1.462,1.462,0,0,0,.42481.4873,8.01076,8.01076,0,0,0,1.11718.65625,6.37816,6.37816,0,0,1,1.32227.85059,2.13671,2.13671,0,0,1,.58008.82129A2.28663,2.28663,0,0,1,81.00348,17.55894Z" fill="#4d4d4d"/><path d="M90.80817,17.60387a4.66423,4.66423,0,0,1-1.76562,2.92773A4.44756,4.44756,0,0,1,83.2154,19.181a4.69233,4.69233,0,0,1-.27637-3.4248,4.61924,4.61924,0,0,1,1.76562-2.93359,3.896,3.896,0,0,1,3.18555-.42383,3.811,3.811,0,0,1,2.63281,1.7998A4.65692,4.65692,0,0,1,90.80817,17.60387Zm-6.41211-1.4961a3.81587,3.81587,0,0,0,.08008,2.48242,2.63012,2.63012,0,0,0,3.70215.873A3.83179,3.83179,0,0,0,89.34821,17.264a3.8435,3.8435,0,0,0-.07422-2.47265,2.24865,2.24865,0,0,0-1.65625-1.22266,2.29918,2.29918,0,0,0-2.05078.35742A3.7891,3.7891,0,0,0,84.39606,16.10777Z" fill="#4d4d4d"/><path d="M91.40876,22.35484l3.11132-7.98144,1.31348.51269L93.15778,21.7484l3.40234,1.32617-.43554,1.11914Z" fill="#4d4d4d"/><path d="M107.42633,20.57555l-2.70117,4.84082a3.27579,3.27579,0,0,1-1.167,1.25,2.72063,2.72063,0,0,1-1.56934.3789,4.1376,4.1376,0,0,1-1.80761-.56836,3.49227,3.49227,0,0,1-1.76856-1.95312,3.04382,3.04382,0,0,1,.35254-2.46l2.68945-4.82032,1.23731.69043-2.64063,4.73243a2.16005,2.16005,0,0,0-.331,1.60742,2.05067,2.05067,0,0,0,1.085,1.18164,1.801,1.801,0,0,0,2.75488-.84375l2.63477-4.72266Z" fill="#4d4d4d"/><path d="M107.35846,31.1693l-1.124-.85157,4.44629-5.87207-2.02246-1.53125.72558-.957,5.16993,3.91406-.72559.957-2.02344-1.53125Z" fill="#4d4d4d"/><path d="M110.34479,33.50523,116.127,27.1859l1.04.95215-5.78223,6.31933Z" fill="#4d4d4d"/><path d="M121.25348,38.933a4.66617,4.66617,0,0,1-3.14843,1.333,3.82288,3.82288,0,0,1-2.83008-1.49512,3.85034,3.85034,0,0,1-1.09375-3.02051,4.69477,4.69477,0,0,1,1.78808-2.93555,4.61548,4.61548,0,0,1,3.15137-1.33593,3.89218,3.89218,0,0,1,2.82715,1.52734,3.81771,3.81771,0,0,1,1.07519,3.00391A4.66162,4.66162,0,0,1,121.25348,38.933ZM116.942,33.95543a3.83107,3.83107,0,0,0-1.39356,2.05762,2.62959,2.62959,0,0,0,2.4834,2.87988,3.83774,3.83774,0,0,0,2.24024-1.09278,3.84643,3.84643,0,0,0,1.3916-2.04394,2.25434,2.25434,0,0,0-.624-1.96289,2.29321,2.29321,0,0,0-1.86915-.91406A3.78086,3.78086,0,0,0,116.942,33.95543Z" fill="#4d4d4d"/><path d="M122.76715,49.25719l-.8999-1.47559,3.62012-7.17578-.0249-.041-.30908.22461q-.88844.63575-1.6587,1.10645l-3.80224,2.31836-.66651-1.09278,7.31446-4.46.89062,1.46094-3.59619,7.14746.019.03027c.07276-.05371.34375-.23632.813-.55175q.70459-.47022,1.10938-.7168l3.83252-2.33691.67285,1.10254Z" fill="#4d4d4d"/><path d="M127.72,54.973a2.1486,2.1486,0,0,1-1.97583-.05762,3.63989,3.63989,0,0,1-1.50342-1.85254,5.50927,5.50927,0,0,1-.53028-2.37891l1.21705-.52246a6.53981,6.53981,0,0,0,.09619,1.32325,5.34389,5.34389,0,0,0,.34179,1.19824,1.97872,1.97872,0,0,0,.77857,1.01074,1.03,1.03,0,0,0,.938.03125,1.06155,1.06155,0,0,0,.60376-.65723,5.51805,5.51805,0,0,0,.13134-1.70117,4.01289,4.01289,0,0,1,.33936-1.957,2.28485,2.28485,0,0,1,1.15552-1.02148,2.0459,2.0459,0,0,1,1.853.03906,3.19483,3.19483,0,0,1,1.37769,1.65039,6.07641,6.07641,0,0,1,.47778,2.47851l-1.227.03809a5.41191,5.41191,0,0,0-.36816-2.0752,1.58719,1.58719,0,0,0-.68213-.83886.97215.97215,0,0,0-.85791-.0166,1.0899,1.0899,0,0,0-.46924.35644,1.45252,1.45252,0,0,0-.22827.60449,7.97135,7.97135,0,0,0-.05005,1.294,6.39775,6.39775,0,0,1-.12427,1.56738,2.15112,2.15112,0,0,1-.449.89942A2.29183,2.29183,0,0,1,127.72,54.973Z" fill="#4d4d4d"/><path d="M70.8779,48.208A20.81711,20.81711,0,0,0,59.7968,84.8189a10.53245,10.53245,0,0,1,3.3677,5.4321,6.45388,6.45388,0,0,1,2.8247-.7607H80.5468a5.26227,5.26227,0,0,1,2.8247.7607,9.98832,9.98832,0,0,1,3.3677-5.3232A20.905,20.905,0,0,0,70.8779,48.208ZM87.7168,72.2168l-3.2588.4346c-.2173.5435-.4346.978-.6519,1.521l1.9556,2.6074a1.02356,1.02356,0,0,1-.1089,1.4121l-3.1504,3.2593a1.15073,1.15073,0,0,1-1.4126.1089l-2.6069-1.9556a6.27646,6.27646,0,0,1-1.521.543l-.4346,3.2593a1.15578,1.15578,0,0,1-1.0864.9775h-4.563a1.15569,1.15569,0,0,1-1.0864-.9775l-.4346-3.2593c-.543-.2173-.9775-.4346-1.521-.6519L65.229,81.4512a1.01581,1.01581,0,0,1-1.4126-.1084L60.666,78.0835a1.15072,1.15072,0,0,1-.1089-1.4126l1.9556-2.6069c-.2173-.5435-.4346-.978-.6519-1.521l-3.2588-.4346a1.15569,1.15569,0,0,1-.978-1.0864V66.459a1.15577,1.15577,0,0,1,.978-1.0864l3.2588-.4346a9.19846,9.19846,0,0,1,.6519-1.521l-1.9556-2.6069a1.01633,1.01633,0,0,1,.1089-1.4126l3.1504-3.2593a1.15134,1.15134,0,0,1,1.4126-.1084l2.6069,1.9556c.4346-.2173.978-.4346,1.521-.6519l.4346-3.2592a1.15569,1.15569,0,0,1,1.0864-.9776h4.563a1.15577,1.15577,0,0,1,1.0864.9776l.4346,3.2592a4.59575,4.59575,0,0,1,1.521.6519l2.6069-1.9556a1.01676,1.01676,0,0,1,1.4126.1084l3.1504,3.2593a1.01633,1.01633,0,0,1,.1089,1.4126L83.8061,63.417c.2173.5435.4346.9781.6519,1.521l3.2588.4346a1.15577,1.15577,0,0,1,.978,1.0864v4.563A1.29074,1.29074,0,0,1,87.7168,72.2168Z" fill="#fff"/><path d="M81.416,99.2681a3.18941,3.18941,0,0,1,.4345,1.7383,3.771,3.771,0,0,1-3.0419,3.8022v.3257a5.44778,5.44778,0,0,1-5.4322,5.4321H73.268a5.4477,5.4477,0,0,1-5.4321-5.4321v-.2173a3.95308,3.95308,0,0,1-3.1504-3.8022,5.11539,5.11539,0,0,1,.4346-1.8467,3.94509,3.94509,0,0,1-2.9331-3.6938,3.873,3.873,0,0,1,3.8022-3.9112H80.5468a3.77871,3.77871,0,0,1,3.8023,3.8028A3.97343,3.97343,0,0,1,81.416,99.2681Z" fill="#fff"/><circle cx="73.268" cy="68.8492" r="5.9751" fill="#fff"/><path d="M72.6162,46.0352a1.02644,1.02644,0,0,0,1.0864-1.0864V42.1241a1.08645,1.08645,0,1,0-2.1729,0v2.8247A1.02647,1.02647,0,0,0,72.6162,46.0352Z" fill="#fff"/><path d="M59.145,48.8599a1.11851,1.11851,0,0,0,1.9555-1.0864l-1.5209-2.499a1.11855,1.11855,0,0,0-1.9556,1.0864Z" fill="#fff"/><path d="M51.4316,56.5728l-2.4985-1.4121a1.11853,1.11853,0,0,0-1.0865,1.9555l2.4986,1.4122a1.09892,1.09892,0,0,0,1.521-.4346A1.20271,1.20271,0,0,0,51.4316,56.5728Z" fill="#fff"/><path d="M48.6069,70.044a1.02608,1.02608,0,0,0-1.0864-1.086H44.6963a1.0862,1.0862,0,1,0,0,2.1724h2.8242A1.08857,1.08857,0,0,0,48.6069,70.044Z" fill="#fff"/><path d="M50.3452,81.6685l-2.4986,1.4121a1.11858,1.11858,0,0,0,1.0865,1.9556l2.4985-1.4121a1.11855,1.11855,0,0,0-1.0864-1.9556Z" fill="#fff"/><path d="M97.3857,83.1895l-2.4985-1.4121a1.11836,1.11836,0,1,0-1.0865,1.9551l2.4986,1.4126a1.09966,1.09966,0,0,0,1.521-.4346C98.0376,84.0586,97.9292,83.4068,97.3857,83.1895Z" fill="#fff"/><path d="M100.5361,68.958H97.7119a1.0862,1.0862,0,1,0,0,2.1724h2.8242a1.0862,1.0862,0,1,0,0-2.1724Z" fill="#fff"/><path d="M94.8872,58.5284l2.4985-1.4122a1.11851,1.11851,0,1,0-1.0864-1.9555l-2.4986,1.4121a1.11858,1.11858,0,0,0,1.0865,1.9556Z" fill="#fff"/><path d="M84.6753,49.294a1.09923,1.09923,0,0,0,1.521-.4341l1.4121-2.499a1.11855,1.11855,0,1,0-1.9556-1.0864l-1.4121,2.499A1.09831,1.09831,0,0,0,84.6753,49.294Z" fill="#fff"/></g></g></svg>