<svg xmlns="http://www.w3.org/2000/svg" xmlns:xlink="http://www.w3.org/1999/xlink" viewBox="0 0 310 310"><defs><linearGradient id="New_Gradient_Swatch_7" x1="45.39603" y1="264.60157" x2="264.59913" y2="45.39847" gradientTransform="matrix(-1, 0, 0, 1, 309.9976, 0)" gradientUnits="userSpaceOnUse"><stop offset="0" stop-color="#38a380"/><stop offset="0.06811" stop-color="#4fa684"/><stop offset="0.19954" stop-color="#74ac8a"/><stop offset="0.33708" stop-color="#93b090"/><stop offset="0.4803" stop-color="#abb494"/><stop offset="0.63159" stop-color="#bcb697"/><stop offset="0.79642" stop-color="#c6b898"/><stop offset="1" stop-color="#c9b899"/></linearGradient></defs><g id="Layer_2" data-name="Layer 2"><g id="Layer_1-2" data-name="Layer 1"><circle cx="155" cy="155" r="154" fill="#fff" stroke-miterlimit="10" stroke-width="2" stroke="url(#New_Gradient_Swatch_7)"/><path d="M62.90905,199.46652h-1.7168l1.46973-7.07129H55.87877l-1.49121,7.07129H52.64049l3.17578-15.02734h1.748l-1.34668,6.39355h6.78418l1.36621-6.39355h1.72754Z" fill="#232323"/><path d="M71.08971,199.67257A3.92791,3.92791,0,0,1,68.12,198.55148a4.28564,4.28564,0,0,1-1.08007-3.10352,9.2522,9.2522,0,0,1,.7666-3.70605,6.85555,6.85555,0,0,1,2.02929-2.75977,4.42773,4.42773,0,0,1,2.78614-.98632,3.52935,3.52935,0,0,1,2.36328.68359,2.38258,2.38258,0,0,1,.792,1.90625,3.261,3.261,0,0,1-1.706,2.9043,9.34991,9.34991,0,0,1-4.88282,1.05273h-.33886l-.041.82227a3.18422,3.18422,0,0,0,.63184,2.10254,2.40953,2.40953,0,0,0,1.958.75488,5.09787,5.09787,0,0,0,1.33106-.18457,10.15382,10.15382,0,0,0,1.70117-.67871v1.501a9.252,9.252,0,0,1-1.70605.63184A6.90878,6.90878,0,0,1,71.08971,199.67257Zm1.42871-10.207a2.74782,2.74782,0,0,0-1.98828.96582,6.31952,6.31952,0,0,0-1.42383,2.68262h.12305a8.38683,8.38683,0,0,0,3.59277-.61133,1.9193,1.9193,0,0,0,1.249-1.77246,1.20294,1.20294,0,0,0-.375-.90527A1.65668,1.65668,0,0,0,72.51842,189.46554Z" fill="#232323"/><path d="M78.72643,199.46652H76.99987L80.412,183.47336h1.72754Z" fill="#232323"/><path d="M87.36022,199.67257a3.01589,3.01589,0,0,1-1.74707-.51464,3.3357,3.3357,0,0,1-1.16113-1.43848H84.3485l-.041.39062c-.0205.1709-.05664.41114-.10742.71875q-.07764.4629-1.17676,5.69434h-1.707l3.4541-16.32227h1.42872l-.26758,2.14844h.082q1.83984-2.33349,3.82422-2.333a2.70294,2.70294,0,0,1,2.21972,1.002,4.35653,4.35653,0,0,1,.8125,2.81152,10.90225,10.90225,0,0,1-.71,3.99805,6.63757,6.63757,0,0,1-1.96289,2.832A4.39648,4.39648,0,0,1,87.36022,199.67257ZM89.27233,189.445a2.971,2.971,0,0,0-2.00977.97657,6.97633,6.97633,0,0,0-1.624,2.456,8.00051,8.00051,0,0,0-.60059,3.03223,2.42063,2.42063,0,0,0,.57032,1.73242,2.16665,2.16665,0,0,0,1.64941.60156,2.71955,2.71955,0,0,0,1.89648-.833,5.84306,5.84306,0,0,0,1.41309-2.36915,9.86058,9.86058,0,0,0,.53418-3.26367Q91.10143,189.44455,89.27233,189.445Z" fill="#232323"/><path d="M96.24108,199.46652H94.51452l2.40527-11.26563h1.72656ZM97.40319,185.323a1.35267,1.35267,0,0,1,.32812-.94043,1.09641,1.09641,0,0,1,.85352-.36425.80834.80834,0,0,1,.90429.9248,1.395,1.395,0,0,1-.34375.95606,1.03692,1.03692,0,0,1-.79687.39062.95067.95067,0,0,1-.67871-.25195A.93621.93621,0,0,1,97.40319,185.323Z" fill="#232323"/><path d="M106.746,199.46652l1.52148-7.11231a9.39784,9.39784,0,0,0,.20508-1.48046,1.46068,1.46068,0,0,0-.36523-1.03809,1.52877,1.52877,0,0,0-1.166-.39063,3.04508,3.04508,0,0,0-1.7832.61622,5.4925,5.4925,0,0,0-1.53223,1.75781,9.27834,9.27834,0,0,0-1.00195,2.76562l-1.03809,4.88184H99.85924l2.40528-11.26563h1.42871l-.22657,2.08692h.10352a6.87,6.87,0,0,1,1.90625-1.77344,3.83294,3.83294,0,0,1,1.90625-.51855,2.88273,2.88273,0,0,1,2.06152.71386,2.62362,2.62362,0,0,1,.75489,2,8.40079,8.40079,0,0,1-.23633,1.84961l-1.46973,6.90723Z" fill="#232323"/><path d="M122.70885,188.20089l-.25683,1.10059-2.169.24609a2.89515,2.89515,0,0,1,.4209,1.624,4.17057,4.17057,0,0,1-1.19727,3.12988,4.38765,4.38765,0,0,1-3.20117,1.167,3.46282,3.46282,0,0,1-.86426-.082q-1.42822.54492-1.42871,1.3457a.54512.54512,0,0,0,.33985.56055,4.07543,4.07543,0,0,0,.98632.2207l1.20313.14454a5.35072,5.35072,0,0,1,2.69726.90429,2.41356,2.41356,0,0,1,.8379,1.99414,3.35465,3.35465,0,0,1-1.5,2.92871,7.3598,7.3598,0,0,1-4.22461,1.03809,5.57247,5.57247,0,0,1-3.125-.75488,2.42,2.42,0,0,1-1.13086-2.13282,2.64887,2.64887,0,0,1,.74023-1.87109,5.76894,5.76894,0,0,1,2.39453-1.34668,1.33743,1.33743,0,0,1-.80078-1.24316,1.63584,1.63584,0,0,1,.52344-1.21778,5.3932,5.3932,0,0,1,1.46-.95117,2.679,2.679,0,0,1-1.05859-.97168,2.70684,2.70684,0,0,1-.41114-1.49512,4.5144,4.5144,0,0,1,1.22852-3.26855,4.16968,4.16968,0,0,1,3.13965-1.27441,6.21,6.21,0,0,1,1.583.20507Zm-10.94726,13.26954a1.44611,1.44611,0,0,0,.66894,1.2539,3.48824,3.48824,0,0,0,1.9834.46289,5.54928,5.54928,0,0,0,2.92383-.65234,2.05831,2.05831,0,0,0,1.05371-1.8457,1.15112,1.15112,0,0,0-.55469-1.00684,4.44789,4.44789,0,0,0-1.8916-.51367l-1.63379-.165a3.71512,3.71512,0,0,0-1.8916.90527A2.112,2.112,0,0,0,111.76159,201.47043Zm2.85742-8.99317a1.79048,1.79048,0,0,0,.46289,1.33106,1.7489,1.7489,0,0,0,1.28515.457,2.37968,2.37968,0,0,0,1.418-.43164,2.74941,2.74941,0,0,0,.93067-1.18653,4.12142,4.12142,0,0,0,.32324-1.63965,1.71745,1.71745,0,0,0-.45215-1.28515,1.78022,1.78022,0,0,0-1.29492-.44141,2.40729,2.40729,0,0,0-1.40332.416,2.73234,2.73234,0,0,0-.93555,1.16113A3.91611,3.91611,0,0,0,114.619,192.47726Z" fill="#232323"/><path d="M133.01744,199.67257a2.995,2.995,0,0,1-1.75195-.52441,3.20342,3.20342,0,0,1-1.13574-1.42871h-.10352l-.71875,1.74707h-1.28515l3.3916-15.99316h1.72754q-.52441,2.4873-.80762,3.80761-.28272,1.32129-.77539,3.08887h.0918a7.5166,7.5166,0,0,1,1.88672-1.7832,3.62369,3.62369,0,0,1,1.917-.57032,2.729,2.729,0,0,1,2.26074,1.01758,4.36894,4.36894,0,0,1,.8125,2.7959,10.95987,10.95987,0,0,1-.7041,3.97266,6.65559,6.65559,0,0,1-1.96387,2.84668A4.38316,4.38316,0,0,1,133.01744,199.67257Zm1.91211-10.22754a2.971,2.971,0,0,0-2.00976.97657,6.97619,6.97619,0,0,0-1.624,2.456,8.00032,8.00032,0,0,0-.60059,3.03223,2.42063,2.42063,0,0,0,.57031,1.73242,2.16667,2.16667,0,0,0,1.64942.60156,2.71956,2.71956,0,0,0,1.89648-.833,5.84306,5.84306,0,0,0,1.41309-2.36915,9.86058,9.86058,0,0,0,.53418-3.26367Q136.75866,189.44455,134.92955,189.445Z" fill="#232323"/><path d="M144.201,188.20089l-1.542,7.14356a7.74108,7.74108,0,0,0-.18457,1.42871,1.31765,1.31765,0,0,0,1.51074,1.4707,3.05953,3.05953,0,0,0,1.77832-.61718,5.48046,5.48046,0,0,0,1.541-1.76758,9.47069,9.47069,0,0,0,1.01758-2.77539l1.02832-4.88282h1.70606l-2.374,11.26563h-1.42871l.22559-2.08691h-.12305a6.75321,6.75321,0,0,1-1.92187,1.78906,3.88329,3.88329,0,0,1-1.8916.5039,2.87126,2.87126,0,0,1-2.06543-.71484,2.68117,2.68117,0,0,1-.751-2.04,9.59693,9.59693,0,0,1,.22656-1.76855l1.501-6.94825Z" fill="#232323"/><path d="M154.04772,199.46652h-1.72656l2.40527-11.26563H156.453Zm1.16211-14.14356a1.35267,1.35267,0,0,1,.32812-.94043,1.09641,1.09641,0,0,1,.85352-.36425.80835.80835,0,0,1,.9043.9248,1.395,1.395,0,0,1-.34375.95606,1.037,1.037,0,0,1-.79688.39062.95067.95067,0,0,1-.67871-.25195A.93621.93621,0,0,1,155.20983,185.323Z" fill="#232323"/><path d="M159.37194,199.46652h-1.72657l3.41211-15.99316H162.785Z" fill="#232323"/><path d="M168.97252,188.01632a2.99813,2.99813,0,0,1,2.8877,1.95313h.10254a23.89612,23.89612,0,0,1,.46289-2.81641l.80176-3.67968h1.70605l-3.3916,15.99316h-1.42871l.22558-2.14844h-.082a7.73479,7.73479,0,0,1-1.94238,1.81934,3.63112,3.63112,0,0,1-1.87109.53515,2.69183,2.69183,0,0,1-2.23047-1.00781,4.382,4.382,0,0,1-.80176-2.7959,10.65634,10.65634,0,0,1,.74023-4.02929,6.723,6.723,0,0,1,1.999-2.82618A4.43077,4.43077,0,0,1,168.97252,188.01632Zm-1.95312,10.22754a2.99339,2.99339,0,0,0,1.99414-.96191,6.75876,6.75876,0,0,0,1.6289-2.45606,8.11306,8.11306,0,0,0,.60157-3.04785,2.46059,2.46059,0,0,0-.55567-1.7373,2.10081,2.10081,0,0,0-1.61328-.59571,2.74938,2.74938,0,0,0-1.92773.84766,5.96847,5.96847,0,0,0-1.42871,2.38477,9.6959,9.6959,0,0,0-.53907,3.23242Q165.17955,198.24337,167.0194,198.24386Z" fill="#232323"/><path d="M186.58971,187.99582a2.90712,2.90712,0,0,1,1.68555.50879,3.30625,3.30625,0,0,1,1.15136,1.46484h.11231l.68945-1.76856h1.30469l-2.39453,11.26563h-1.36719l.26758-2.14844h-.083q-1.83984,2.354-3.875,2.35449a2.70961,2.70961,0,0,1-2.24023-1.01757,4.3527,4.3527,0,0,1-.8125-2.78614,10.60272,10.60272,0,0,1,.73047-3.96777,6.85111,6.85111,0,0,1,2.01464-2.86719A4.38024,4.38024,0,0,1,186.58971,187.99582Zm-1.95312,10.248a2.89377,2.89377,0,0,0,1.98339-.95117,7.04189,7.04189,0,0,0,1.60352-2.47754,8.10546,8.10546,0,0,0,.61719-3.05762,2.39493,2.39493,0,0,0-.57617-1.68554,1.95494,1.95494,0,0,0-1.51075-.627,2.8317,2.8317,0,0,0-1.98925.88379,5.959,5.959,0,0,0-1.44336,2.39454,9.6546,9.6546,0,0,0-.52442,3.18652,2.70089,2.70089,0,0,0,.48242,1.75293A1.66944,1.66944,0,0,0,184.63659,198.24386Z" fill="#232323"/><path d="M199.6942,199.46652h-1.72656l3.41211-15.99316h1.72754Z" fill="#232323"/><path d="M209.29479,187.99582a2.90712,2.90712,0,0,1,1.68555.50879,3.30625,3.30625,0,0,1,1.15136,1.46484h.11231l.68945-1.76856h1.30469l-2.39453,11.26563h-1.36719l.26758-2.14844h-.083q-1.83984,2.354-3.875,2.35449a2.70961,2.70961,0,0,1-2.24023-1.01757,4.3527,4.3527,0,0,1-.8125-2.78614,10.60291,10.60291,0,0,1,.73046-3.96777,6.85121,6.85121,0,0,1,2.01465-2.86719A4.38022,4.38022,0,0,1,209.29479,187.99582Zm-1.95313,10.248a2.89377,2.89377,0,0,0,1.9834-.95117,7.042,7.042,0,0,0,1.60352-2.47754,8.10546,8.10546,0,0,0,.61719-3.05762,2.39489,2.39489,0,0,0-.57618-1.68554,1.95492,1.95492,0,0,0-1.51074-.627,2.83172,2.83172,0,0,0-1.98926.88379,5.95918,5.95918,0,0,0-1.44336,2.39454,9.65459,9.65459,0,0,0-.52441,3.18652,2.70089,2.70089,0,0,0,.48242,1.75293A1.66943,1.66943,0,0,0,207.34166,198.24386Z" fill="#232323"/><path d="M222.3485,187.99582a4.70247,4.70247,0,0,1,1.2334.14355l-.37012,1.542a4.528,4.528,0,0,0-1.0791-.13379,2.85631,2.85631,0,0,0-1.75293.61719,5.41582,5.41582,0,0,0-1.42871,1.71094,8.74245,8.74245,0,0,0-.89942,2.43066l-1.0996,5.16016h-1.72657l2.40528-11.26563h1.42871l-.22657,2.08692h.10352a10.10425,10.10425,0,0,1,1.22266-1.40332,3.87775,3.87775,0,0,1,1.01269-.65723A2.90543,2.90543,0,0,1,222.3485,187.99582Z" fill="#232323"/><path d="M234.26159,188.20089l-.25684,1.10059-2.16895.24609a2.89507,2.89507,0,0,1,.4209,1.624,4.17056,4.17056,0,0,1-1.19726,3.12988,4.38767,4.38767,0,0,1-3.20117,1.167,3.46276,3.46276,0,0,1-.86426-.082q-1.42822.54492-1.42871,1.3457a.54512.54512,0,0,0,.33984.56055,4.07564,4.07564,0,0,0,.98633.2207l1.20312.14454a5.35073,5.35073,0,0,1,2.69727.90429,2.41358,2.41358,0,0,1,.83789,1.99414,3.35465,3.35465,0,0,1-1.5,2.92871,7.3598,7.3598,0,0,1-4.22461,1.03809,5.5725,5.5725,0,0,1-3.125-.75488,2.42,2.42,0,0,1-1.13086-2.13282,2.64884,2.64884,0,0,1,.74024-1.87109,5.76894,5.76894,0,0,1,2.39453-1.34668,1.33743,1.33743,0,0,1-.80078-1.24316,1.63583,1.63583,0,0,1,.52343-1.21778,5.3932,5.3932,0,0,1,1.46-.95117,2.679,2.679,0,0,1-1.05859-.97168,2.70692,2.70692,0,0,1-.41113-1.49512,4.51444,4.51444,0,0,1,1.22851-3.26855,4.1697,4.1697,0,0,1,3.13965-1.27441,6.21013,6.21013,0,0,1,1.583.20507Zm-10.94727,13.26954a1.44612,1.44612,0,0,0,.66895,1.2539,3.4882,3.4882,0,0,0,1.98339.46289,5.54928,5.54928,0,0,0,2.92383-.65234,2.05831,2.05831,0,0,0,1.05371-1.8457,1.15113,1.15113,0,0,0-.55468-1.00684,4.4479,4.4479,0,0,0-1.89161-.51367l-1.63379-.165a3.71516,3.71516,0,0,0-1.8916.90527A2.112,2.112,0,0,0,223.31432,201.47043Zm2.85742-8.99317a1.79052,1.79052,0,0,0,.46289,1.33106,1.74892,1.74892,0,0,0,1.28516.457,2.37972,2.37972,0,0,0,1.418-.43164,2.74946,2.74946,0,0,0,.93066-1.18653,4.12142,4.12142,0,0,0,.32324-1.63965,1.71749,1.71749,0,0,0-.45214-1.28515,1.78023,1.78023,0,0,0-1.29493-.44141,2.40729,2.40729,0,0,0-1.40332.416,2.73224,2.73224,0,0,0-.93554,1.16113A3.916,3.916,0,0,0,226.17174,192.47726Z" fill="#232323"/><path d="M238.55748,199.67257a3.92789,3.92789,0,0,1-2.96972-1.12109,4.2856,4.2856,0,0,1-1.08008-3.10352,9.2522,9.2522,0,0,1,.7666-3.70605,6.85557,6.85557,0,0,1,2.0293-2.75977,4.42769,4.42769,0,0,1,2.78613-.98632,3.52934,3.52934,0,0,1,2.36328.68359,2.38258,2.38258,0,0,1,.792,1.90625,3.26094,3.26094,0,0,1-1.70605,2.9043,9.34989,9.34989,0,0,1-4.88281,1.05273h-.33887l-.041.82227a3.18422,3.18422,0,0,0,.63184,2.10254,2.40954,2.40954,0,0,0,1.958.75488,5.09774,5.09774,0,0,0,1.331-.18457,10.15348,10.15348,0,0,0,1.70117-.67871v1.501a9.252,9.252,0,0,1-1.70605.63184A6.90872,6.90872,0,0,1,238.55748,199.67257Zm1.42871-10.207a2.74784,2.74784,0,0,0-1.98828.96582,6.31962,6.31962,0,0,0-1.42382,2.68262h.123a8.38688,8.38688,0,0,0,3.59278-.61133,1.91929,1.91929,0,0,0,1.249-1.77246,1.20294,1.20294,0,0,0-.375-.90527A1.65668,1.65668,0,0,0,239.98619,189.46554Z" fill="#232323"/><path d="M251.61119,187.99582a4.70247,4.70247,0,0,1,1.2334.14355l-.37011,1.542a4.52809,4.52809,0,0,0-1.07911-.13379,2.85633,2.85633,0,0,0-1.75293.61719,5.41608,5.41608,0,0,0-1.42871,1.71094,8.74244,8.74244,0,0,0-.89941,2.43066l-1.09961,5.16016h-1.72656l2.40527-11.26563h1.42871l-.22656,2.08692h.10352a10.105,10.105,0,0,1,1.22265-1.40332,3.8778,3.8778,0,0,1,1.0127-.65723A2.90538,2.90538,0,0,1,251.61119,187.99582Z" fill="#232323"/><path d="M43.04577,224.93332a3.82666,3.82666,0,0,1-4.19434-4.20411,9.3554,9.3554,0,0,1,.76074-3.793,6.44069,6.44069,0,0,1,2.10254-2.708,5.01062,5.01062,0,0,1,3.0166-.97168,7.53542,7.53542,0,0,1,2.75488.52441l-.48339,1.44922a5.81189,5.81189,0,0,0-2.251-.52441,3.21692,3.21692,0,0,0-2.10156.78613,5.17687,5.17687,0,0,0-1.49121,2.18945,8.42774,8.42774,0,0,0-.53907,3.04785,2.87367,2.87367,0,0,0,.6836,2.04493,2.45416,2.45416,0,0,0,1.88574.73047,4.68011,4.68011,0,0,0,1.39844-.20606,12.69911,12.69911,0,0,0,1.29492-.4834v1.46973A6.17479,6.17479,0,0,1,43.04577,224.93332Z" fill="#232323"/><path d="M53.93053,213.31808a4.11506,4.11506,0,0,1,3.083,1.15625A4.35587,4.35587,0,0,1,58.1444,217.656a9.12048,9.12048,0,0,1-.74024,3.64844,6.313,6.313,0,0,1-2.0039,2.65234,4.68727,4.68727,0,0,1-2.85742.93457,4.09539,4.09539,0,0,1-3.09375-1.16113,4.38228,4.38228,0,0,1-1.1211-3.17578,9.10143,9.10143,0,0,1,.751-3.6748,6.22827,6.22827,0,0,1,2.02441-2.64161A4.71944,4.71944,0,0,1,53.93053,213.31808Zm2.42578,4.10156a2.80853,2.80853,0,0,0-.64258-1.917,2.19522,2.19522,0,0,0-1.74218-.73535,3.01056,3.01056,0,0,0-2.00977.76074,4.88926,4.88926,0,0,0-1.377,2.11231,8.78409,8.78409,0,0,0-.48828,3.00683,3.02919,3.02919,0,0,0,.65234,2.08106,2.37663,2.37663,0,0,0,1.876.73437,2.83348,2.83348,0,0,0,1.92187-.75,4.88994,4.88994,0,0,0,1.33106-2.13281A9.65518,9.65518,0,0,0,56.35631,217.41964Z" fill="#232323"/><path d="M66.62389,224.72726l1.52148-7.1123a9.39792,9.39792,0,0,0,.20508-1.48047,1.46068,1.46068,0,0,0-.36523-1.03809,1.52877,1.52877,0,0,0-1.166-.39062,3.04514,3.04514,0,0,0-1.7832.61621,5.4925,5.4925,0,0,0-1.53223,1.75781,9.27831,9.27831,0,0,0-1.002,2.76563l-1.03809,4.88183H59.73717l2.40527-11.26562h1.42872l-.22657,2.08691h.10352a6.87,6.87,0,0,1,1.90625-1.77344,3.83294,3.83294,0,0,1,1.90625-.51855,2.8827,2.8827,0,0,1,2.06152.71387,2.62359,2.62359,0,0,1,.75489,2,8.40078,8.40078,0,0,1-.23633,1.8496L68.371,224.72726Z" fill="#232323"/><path d="M78.83483,221.531a3.01529,3.01529,0,0,1-1.13574,2.50293,5.04287,5.04287,0,0,1-3.20215.89942,6.82965,6.82965,0,0,1-3.13477-.71v-1.624a6.36384,6.36384,0,0,0,1.55274.668,5.6451,5.6451,0,0,0,1.541.23731A3.13291,3.13291,0,0,0,76.409,222.99a1.59887,1.59887,0,0,0,.6582-1.31543,1.42,1.42,0,0,0-.36035-.98633,7.24116,7.24116,0,0,0-1.55176-1.10059,6.242,6.242,0,0,1-1.8916-1.46972,2.70929,2.70929,0,0,1-.55469-1.70606,2.83571,2.83571,0,0,1,1.03809-2.28711,4.12047,4.12047,0,0,1,2.73437-.86816,7.95364,7.95364,0,0,1,3.3916.76074l-.55468,1.4082-.57618-.25683a5.70657,5.70657,0,0,0-2.26074-.44239,2.30033,2.30033,0,0,0-1.501.44727,1.50587,1.50587,0,0,0-.17969,2.14258,6.42334,6.42334,0,0,0,1.50586,1.05859,8.709,8.709,0,0,1,1.57715,1.05957,3.05045,3.05045,0,0,1,.71484.9502A2.695,2.695,0,0,1,78.83483,221.531Z" fill="#232323"/><path d="M84.35436,223.52511a5.58581,5.58581,0,0,0,1.48047-.26758v1.32618a4.75192,4.75192,0,0,1-.86328.24609,4.45425,4.45425,0,0,1-.82227.10352,2.85746,2.85746,0,0,1-1.96875-.61231,2.32342,2.32342,0,0,1-.68359-1.82422,7.47762,7.47762,0,0,1,.18554-1.542l1.30567-6.1875H81.21959l.14453-.75,1.90137-.80176,1.28418-2.34375h1.00781l-.56543,2.58985h2.81641l-.26758,1.30566H84.73522l-1.32617,6.208a7.33714,7.33714,0,0,0-.18457,1.35742,1.219,1.219,0,0,0,.29785.88379A1.10522,1.10522,0,0,0,84.35436,223.52511Z" fill="#232323"/><path d="M89.453,224.72726H87.72643l2.40527-11.26562h1.72657Zm1.16211-14.14355a1.35264,1.35264,0,0,1,.32813-.94043,1.09635,1.09635,0,0,1,.85351-.36426.80835.80835,0,0,1,.9043.9248,1.395,1.395,0,0,1-.34375.95606,1.037,1.037,0,0,1-.79688.39062.95067.95067,0,0,1-.67871-.25195A.93624.93624,0,0,1,90.6151,210.58371Z" fill="#232323"/><path d="M96.52428,223.52511a5.58581,5.58581,0,0,0,1.48047-.26758v1.32618a4.75192,4.75192,0,0,1-.86328.24609,4.45425,4.45425,0,0,1-.82227.10352,2.85746,2.85746,0,0,1-1.96875-.61231,2.32342,2.32342,0,0,1-.68359-1.82422,7.477,7.477,0,0,1,.18555-1.542l1.30566-6.1875H93.38952l.14453-.75,1.90136-.80176,1.28418-2.34375h1.00782l-.56543,2.58985h2.8164l-.26758,1.30566H96.90514l-1.32617,6.208a7.33714,7.33714,0,0,0-.18457,1.35742,1.219,1.219,0,0,0,.29785.88379A1.10522,1.10522,0,0,0,96.52428,223.52511Z" fill="#232323"/><path d="M103.92565,213.46164l-1.542,7.14355a7.74118,7.74118,0,0,0-.18457,1.42871,1.31766,1.31766,0,0,0,1.51074,1.47071,3.05954,3.05954,0,0,0,1.77832-.61719,5.48046,5.48046,0,0,0,1.541-1.76758,9.47058,9.47058,0,0,0,1.01758-2.77539l1.02832-4.88281h1.70606l-2.374,11.26562h-1.42871l.22559-2.08691h-.123a6.75321,6.75321,0,0,1-1.92187,1.78906,3.88334,3.88334,0,0,1-1.89161.50391,2.87125,2.87125,0,0,1-2.06542-.71485,2.68117,2.68117,0,0,1-.751-2.04,9.59693,9.59693,0,0,1,.22656-1.76855l1.501-6.94824Z" fill="#232323"/><path d="M116.496,224.93332a3.92792,3.92792,0,0,1-2.96973-1.1211,4.28563,4.28563,0,0,1-1.08007-3.10351,9.25222,9.25222,0,0,1,.7666-3.70606,6.85544,6.85544,0,0,1,2.02929-2.75976,4.42769,4.42769,0,0,1,2.78614-.98633,3.52935,3.52935,0,0,1,2.36328.68359,2.38259,2.38259,0,0,1,.792,1.90625,3.261,3.261,0,0,1-1.706,2.9043,9.34991,9.34991,0,0,1-4.88282,1.05273h-.33886l-.041.82227a3.1842,3.1842,0,0,0,.63184,2.10254,2.40953,2.40953,0,0,0,1.958.75488,5.09787,5.09787,0,0,0,1.33106-.18457,10.15382,10.15382,0,0,0,1.70117-.67871v1.501a9.25263,9.25263,0,0,1-1.70605.63183A6.90876,6.90876,0,0,1,116.496,224.93332Zm1.42871-10.207a2.7478,2.7478,0,0,0-1.98828.96583,6.31948,6.31948,0,0,0-1.42383,2.68261h.12305a8.38683,8.38683,0,0,0,3.59277-.61133,1.9193,1.9193,0,0,0,1.249-1.77246,1.20294,1.20294,0,0,0-.375-.90527A1.65668,1.65668,0,0,0,117.92467,214.72628Z" fill="#232323"/><path d="M129.31334,224.72726l1.52149-7.1123a9.39792,9.39792,0,0,0,.20508-1.48047,1.46064,1.46064,0,0,0-.36524-1.03809,1.52873,1.52873,0,0,0-1.166-.39062,3.04514,3.04514,0,0,0-1.78321.61621,5.49235,5.49235,0,0,0-1.53222,1.75781,9.27831,9.27831,0,0,0-1.002,2.76563l-1.03808,4.88183h-1.72657l2.40528-11.26562h1.42871l-.22656,2.08691h.10351a6.87,6.87,0,0,1,1.90625-1.77344,3.833,3.833,0,0,1,1.90625-.51855,2.88274,2.88274,0,0,1,2.06153.71387,2.62358,2.62358,0,0,1,.75488,2,8.40078,8.40078,0,0,1-.23633,1.8496l-1.46973,6.90723Z" fill="#232323"/><path d="M139.17077,224.93332a3.82666,3.82666,0,0,1-4.19434-4.20411,9.3554,9.3554,0,0,1,.76074-3.793,6.44069,6.44069,0,0,1,2.10254-2.708,5.01062,5.01062,0,0,1,3.0166-.97168,7.53542,7.53542,0,0,1,2.75488.52441l-.48339,1.44922a5.81189,5.81189,0,0,0-2.251-.52441,3.21692,3.21692,0,0,0-2.10156.78613,5.17687,5.17687,0,0,0-1.49121,2.18945,8.42774,8.42774,0,0,0-.53907,3.04785,2.87367,2.87367,0,0,0,.6836,2.04493,2.45416,2.45416,0,0,0,1.88574.73047,4.68011,4.68011,0,0,0,1.39844-.20606,12.69911,12.69911,0,0,0,1.29492-.4834v1.46973A6.17479,6.17479,0,0,1,139.17077,224.93332Z" fill="#232323"/><path d="M144.453,213.46164h1.72754l.76074,5.60254q.10254.709.2002,2.09082.09667,1.38281.09765,2.22558h.06153q.35889-.89355.89453-2.05566.53321-1.16163.791-1.60352l3.34083-6.25976h1.8291l-7.15332,13.17773a7.43925,7.43925,0,0,1-1.89161,2.45606,3.69325,3.69325,0,0,1-2.251.68847,4.82564,4.82564,0,0,1-1.43848-.21582v-1.38769a4.84691,4.84691,0,0,0,1.3457.18554,2.13168,2.13168,0,0,0,1.44434-.51953,5.60493,5.60493,0,0,0,1.167-1.53613l.78125-1.39844Z" fill="#232323"/><path d="M157.56823,229.7839a3.619,3.619,0,0,1-1.28418-.21582v-1.44922a3.59943,3.59943,0,0,0,1.15136.22657,1.35783,1.35783,0,0,0,1.20215-.6377,5.44718,5.44718,0,0,0,.67871-1.81934l2.333-11.12109h-1.9834l.13281-.68848,2.11817-.67871.23633-1.02734a6.0821,6.0821,0,0,1,1.31054-2.9043,3.33973,3.33973,0,0,1,2.48145-.84765,5.38645,5.38645,0,0,1,1.00781.11816,4.71543,4.71543,0,0,1,.92481.26172l-.44141,1.32617a4.01338,4.01338,0,0,0-1.4082-.29785,1.81551,1.81551,0,0,0-1.37305.49805,3.96515,3.96515,0,0,0-.77539,1.82519l-.25684,1.10938h2.44629l-.25683,1.30566h-2.43653l-2.38476,11.28613a5.87916,5.87916,0,0,1-1.2334,2.83692A2.851,2.851,0,0,1,157.56823,229.7839Z" fill="#232323"/><path d="M171.8358,213.31808a4.115,4.115,0,0,1,3.083,1.15625,4.35583,4.35583,0,0,1,1.13086,3.18164,9.12065,9.12065,0,0,1-.74023,3.64844,6.31306,6.31306,0,0,1-2.00391,2.65234,4.68725,4.68725,0,0,1-2.85742.93457,4.09539,4.09539,0,0,1-3.09375-1.16113,4.38227,4.38227,0,0,1-1.12109-3.17578,9.10142,9.10142,0,0,1,.751-3.6748,6.22828,6.22828,0,0,1,2.02442-2.64161A4.71943,4.71943,0,0,1,171.8358,213.31808Zm2.42579,4.10156a2.80857,2.80857,0,0,0-.64258-1.917,2.19522,2.19522,0,0,0-1.74219-.73535,3.01058,3.01058,0,0,0-2.00977.76074,4.88935,4.88935,0,0,0-1.37695,2.11231,8.78409,8.78409,0,0,0-.48828,3.00683,3.02923,3.02923,0,0,0,.65234,2.08106,2.37663,2.37663,0,0,0,1.876.73437,2.8335,2.8335,0,0,0,1.92188-.75,4.89,4.89,0,0,0,1.33105-2.13281A9.65517,9.65517,0,0,0,174.26159,217.41964Z" fill="#232323"/><path d="M184.76549,213.25656a4.70247,4.70247,0,0,1,1.2334.14355l-.37012,1.542a4.52744,4.52744,0,0,0-1.0791-.13379,2.8563,2.8563,0,0,0-1.75293.61718,5.41606,5.41606,0,0,0-1.42871,1.71094,8.74207,8.74207,0,0,0-.89941,2.43067l-1.09961,5.16015h-1.72657l2.40528-11.26562h1.42871l-.22656,2.08691h.10351a10.10552,10.10552,0,0,1,1.22266-1.40332,3.87775,3.87775,0,0,1,1.01269-.65723A2.9056,2.9056,0,0,1,184.76549,213.25656Z" fill="#232323"/><path d="M193.15221,224.72726h-1.72656l3.41211-15.99316h1.72754Z" fill="#232323"/><path d="M202.79381,213.31808a4.11506,4.11506,0,0,1,3.083,1.15625,4.35583,4.35583,0,0,1,1.13086,3.18164,9.12048,9.12048,0,0,1-.74024,3.64844,6.313,6.313,0,0,1-2.0039,2.65234,4.68725,4.68725,0,0,1-2.85742.93457,4.09539,4.09539,0,0,1-3.09375-1.16113,4.38228,4.38228,0,0,1-1.1211-3.17578,9.10143,9.10143,0,0,1,.751-3.6748,6.22827,6.22827,0,0,1,2.02441-2.64161A4.71946,4.71946,0,0,1,202.79381,213.31808Zm2.42578,4.10156a2.80857,2.80857,0,0,0-.64257-1.917,2.19524,2.19524,0,0,0-1.74219-.73535,3.01058,3.01058,0,0,0-2.00977.76074,4.88926,4.88926,0,0,0-1.37695,2.11231,8.78409,8.78409,0,0,0-.48828,3.00683,3.02919,3.02919,0,0,0,.65234,2.08106,2.37663,2.37663,0,0,0,1.876.73437,2.83348,2.83348,0,0,0,1.92187-.75,4.88994,4.88994,0,0,0,1.33106-2.13281A9.65518,9.65518,0,0,0,205.21959,217.41964Z" fill="#232323"/><path d="M213.19518,224.93332a3.82666,3.82666,0,0,1-4.19434-4.20411,9.35524,9.35524,0,0,1,.76075-3.793,6.44067,6.44067,0,0,1,2.10253-2.708,5.01065,5.01065,0,0,1,3.01661-.97168,7.5355,7.5355,0,0,1,2.75488.52441l-.4834,1.44922a5.81189,5.81189,0,0,0-2.251-.52441,3.21694,3.21694,0,0,0-2.10156.78613,5.177,5.177,0,0,0-1.49121,2.18945,8.428,8.428,0,0,0-.53906,3.04785,2.87371,2.87371,0,0,0,.68359,2.04493,2.45417,2.45417,0,0,0,1.88574.73047,4.68,4.68,0,0,0,1.39844-.20606,12.69823,12.69823,0,0,0,1.29492-.4834v1.46973A6.17479,6.17479,0,0,1,213.19518,224.93332Z" fill="#232323"/><path d="M224.03893,213.25656a2.90712,2.90712,0,0,1,1.68555.50879,3.3063,3.3063,0,0,1,1.15136,1.46484h.11231l.68945-1.76855h1.30469l-2.39453,11.26562h-1.36719l.26758-2.14844h-.083q-1.83984,2.354-3.875,2.3545a2.70962,2.70962,0,0,1-2.24023-1.01758,4.35265,4.35265,0,0,1-.8125-2.78613,10.60293,10.60293,0,0,1,.73046-3.96778,6.85128,6.85128,0,0,1,2.01465-2.86719A4.38022,4.38022,0,0,1,224.03893,213.25656Zm-1.95313,10.24805a2.89379,2.89379,0,0,0,1.9834-.95118,7.04189,7.04189,0,0,0,1.60352-2.47754,8.10541,8.10541,0,0,0,.61719-3.05761,2.3949,2.3949,0,0,0-.57618-1.68555,1.95491,1.95491,0,0,0-1.51074-.62695,2.8317,2.8317,0,0,0-1.98926.88379,5.95907,5.95907,0,0,0-1.44336,2.39453,9.65485,9.65485,0,0,0-.52441,3.18652,2.70087,2.70087,0,0,0,.48242,1.75293A1.66944,1.66944,0,0,0,222.0858,223.50461Z" fill="#232323"/><path d="M231.67565,224.72726h-1.72656l3.4121-15.99316h1.72754Z" fill="#232323"/><path d="M237.04088,224.72726h-1.72656l2.40527-11.26562h1.72657Zm1.16211-14.14355a1.35264,1.35264,0,0,1,.32813-.94043,1.09635,1.09635,0,0,1,.85351-.36426.80835.80835,0,0,1,.9043.9248,1.395,1.395,0,0,1-.34375.95606,1.037,1.037,0,0,1-.79688.39062.95067.95067,0,0,1-.67871-.25195A.93624.93624,0,0,1,238.203,210.58371Z" fill="#232323"/><path d="M247.60729,221.531a3.01529,3.01529,0,0,1-1.13574,2.50293,5.04287,5.04287,0,0,1-3.20215.89942,6.82965,6.82965,0,0,1-3.13477-.71v-1.624a6.36384,6.36384,0,0,0,1.55274.668,5.6451,5.6451,0,0,0,1.541.23731,3.13291,3.13291,0,0,0,1.95313-.51465,1.59887,1.59887,0,0,0,.6582-1.31543,1.42,1.42,0,0,0-.36035-.98633,7.24116,7.24116,0,0,0-1.55176-1.10059,6.242,6.242,0,0,1-1.8916-1.46972,2.70929,2.70929,0,0,1-.55469-1.70606,2.83573,2.83573,0,0,1,1.03809-2.28711,4.12047,4.12047,0,0,1,2.73437-.86816,7.95364,7.95364,0,0,1,3.3916.76074l-.55468,1.4082-.57617-.25683a5.70665,5.70665,0,0,0-2.26075-.44239,2.30033,2.30033,0,0,0-1.501.44727,1.50587,1.50587,0,0,0-.17969,2.14258,6.42334,6.42334,0,0,0,1.50586,1.05859,8.709,8.709,0,0,1,1.57715,1.05957,3.05045,3.05045,0,0,1,.71484.9502A2.695,2.695,0,0,1,247.60729,221.531Z" fill="#232323"/><path d="M254.12389,224.93332a3.92792,3.92792,0,0,1-2.96973-1.1211,4.28563,4.28563,0,0,1-1.08007-3.10351,9.252,9.252,0,0,1,.7666-3.70606,6.85544,6.85544,0,0,1,2.02929-2.75976,4.42769,4.42769,0,0,1,2.78614-.98633,3.52935,3.52935,0,0,1,2.36328.68359,2.38259,2.38259,0,0,1,.792,1.90625,3.261,3.261,0,0,1-1.70605,2.9043,9.34991,9.34991,0,0,1-4.88282,1.05273h-.33886l-.041.82227a3.1842,3.1842,0,0,0,.63184,2.10254,2.40952,2.40952,0,0,0,1.958.75488,5.09787,5.09787,0,0,0,1.33106-.18457,10.15382,10.15382,0,0,0,1.70117-.67871v1.501a9.25263,9.25263,0,0,1-1.70605.63183A6.90876,6.90876,0,0,1,254.12389,224.93332Zm1.42871-10.207a2.7478,2.7478,0,0,0-1.98828.96583,6.31948,6.31948,0,0,0-1.42383,2.68261h.12305a8.38683,8.38683,0,0,0,3.59277-.61133,1.9193,1.9193,0,0,0,1.249-1.77246,1.20294,1.20294,0,0,0-.375-.90527A1.65668,1.65668,0,0,0,255.5526,214.72628Z" fill="#232323"/><path d="M266.01647,213.27707a2.99811,2.99811,0,0,1,2.88769,1.95312h.10254a23.90027,23.90027,0,0,1,.46289-2.81641l.80176-3.67968h1.70606l-3.39161,15.99316h-1.42871l.22559-2.14844h-.082a7.735,7.735,0,0,1-1.94238,1.81934,3.63107,3.63107,0,0,1-1.8711.53516,2.69185,2.69185,0,0,1-2.23047-1.00782,4.382,4.382,0,0,1-.80176-2.79589,10.65636,10.65636,0,0,1,.74024-4.0293,6.72292,6.72292,0,0,1,1.999-2.82617A4.43076,4.43076,0,0,1,266.01647,213.27707Zm-1.95313,10.22754a2.99337,2.99337,0,0,0,1.99414-.96192,6.75878,6.75878,0,0,0,1.62891-2.45605,8.11329,8.11329,0,0,0,.60156-3.04786,2.46059,2.46059,0,0,0-.55566-1.7373,2.10085,2.10085,0,0,0-1.61328-.5957,2.74939,2.74939,0,0,0-1.92774.84765,5.96858,5.96858,0,0,0-1.42871,2.38477,9.69614,9.69614,0,0,0-.53906,3.23242Q262.2235,223.50411,264.06334,223.50461Z" fill="#232323"/><path d="M103.37,246.79074a3.01527,3.01527,0,0,1-1.13574,2.50293,5.04285,5.04285,0,0,1-3.20215.89941,6.82951,6.82951,0,0,1-3.13476-.71v-1.624a6.36432,6.36432,0,0,0,1.55273.668,5.64513,5.64513,0,0,0,1.541.2373,3.13279,3.13279,0,0,0,1.95312-.51465,1.59884,1.59884,0,0,0,.65821-1.31543,1.42,1.42,0,0,0-.36036-.98633,7.24117,7.24117,0,0,0-1.55175-1.10058,6.242,6.242,0,0,1-1.89161-1.46973,2.7093,2.7093,0,0,1-.55468-1.706,2.83571,2.83571,0,0,1,1.03808-2.28711,4.12052,4.12052,0,0,1,2.73438-.86817,7.95368,7.95368,0,0,1,3.3916.76075l-.55469,1.4082-.57617-.25684a5.70656,5.70656,0,0,0-2.26074-.44238,2.30029,2.30029,0,0,0-1.501.44727,1.50588,1.50588,0,0,0-.17969,2.14257,6.42323,6.42323,0,0,0,1.50586,1.0586,8.70845,8.70845,0,0,1,1.57715,1.05957,3.05046,3.05046,0,0,1,.71485.95019A2.69513,2.69513,0,0,1,103.37,246.79074Z" fill="#232323"/><path d="M108.88952,248.78488a5.58616,5.58616,0,0,0,1.48046-.26758v1.32617a4.75058,4.75058,0,0,1-.86328.2461,4.4539,4.4539,0,0,1-.82226.10351,2.85742,2.85742,0,0,1-1.96875-.6123,2.32344,2.32344,0,0,1-.6836-1.82422,7.477,7.477,0,0,1,.18555-1.542l1.30566-6.1875h-1.76855l.14453-.75,1.90137-.80176,1.28418-2.34375h1.00781l-.56543,2.58984h2.81641l-.26758,1.30567h-2.80567l-1.32617,6.208a7.338,7.338,0,0,0-.18457,1.35743,1.21906,1.21906,0,0,0,.29785.88378A1.10526,1.10526,0,0,0,108.88952,248.78488Z" fill="#232323"/><path d="M116.71178,250.19308a3.92791,3.92791,0,0,1-2.96973-1.12109,4.28565,4.28565,0,0,1-1.08007-3.10352,9.25217,9.25217,0,0,1,.7666-3.70605,6.85555,6.85555,0,0,1,2.02929-2.75977,4.42774,4.42774,0,0,1,2.78614-.98633,3.5293,3.5293,0,0,1,2.36328.6836,2.38258,2.38258,0,0,1,.792,1.90625,3.26094,3.26094,0,0,1-1.70605,2.90429,9.3499,9.3499,0,0,1-4.88282,1.05274h-.33886l-.041.82226a3.18418,3.18418,0,0,0,.63184,2.10254,2.40951,2.40951,0,0,0,1.958.75489,5.09824,5.09824,0,0,0,1.33106-.18457,10.15382,10.15382,0,0,0,1.70117-.67871v1.501a9.252,9.252,0,0,1-1.70605.63184A6.9093,6.9093,0,0,1,116.71178,250.19308Zm1.42871-10.207a2.74782,2.74782,0,0,0-1.98828.96582,6.31946,6.31946,0,0,0-1.42383,2.68262h.123a8.387,8.387,0,0,0,3.59277-.61133,1.91932,1.91932,0,0,0,1.249-1.77246,1.20294,1.20294,0,0,0-.375-.90527A1.65668,1.65668,0,0,0,118.14049,239.98605Z" fill="#232323"/><path d="M130.577,249.987l-.32813-6.1875q-.04248-.96679-.041-1.76758v-1.60352h-.09277l-.51367,1.21289-.85352,1.94239L125.7567,249.987h-2.07617l-.44238-11.26563h1.68652l.18457,6.10547v.90527q0,1.51026-.082,2.76465h.06152q.48341-1.27442,1.40821-3.30957l3.03222-6.46582h1.87012l.38086,6.10547q.06153,1.72705.06152,2.69336v.54492l-.0205.43164h.06152q.28712-.88476.85351-2.24609.56544-1.3623,3.31934-7.5293h1.83008L132.68444,249.987Z" fill="#232323"/><path d="M143.69323,238.51632a2.90714,2.90714,0,0,1,1.68554.50879,3.30628,3.30628,0,0,1,1.15137,1.46485h.1123l.68946-1.76856h1.30469L146.24205,249.987h-1.36718l.26757-2.14844h-.083q-1.83985,2.354-3.875,2.35449a2.70963,2.70963,0,0,1-2.24024-1.01758,4.35271,4.35271,0,0,1-.8125-2.78613,10.60292,10.60292,0,0,1,.73047-3.96777,6.85121,6.85121,0,0,1,2.01465-2.86719A4.38023,4.38023,0,0,1,143.69323,238.51632Zm-1.95313,10.24805a2.89381,2.89381,0,0,0,1.9834-.95117,7.04217,7.04217,0,0,0,1.60352-2.47754,8.10544,8.10544,0,0,0,.61718-3.05762,2.39487,2.39487,0,0,0-.57617-1.68554,1.95492,1.95492,0,0,0-1.51074-.627,2.83168,2.83168,0,0,0-1.98926.88379,5.95909,5.95909,0,0,0-1.44336,2.39453,9.65469,9.65469,0,0,0-.52441,3.18653,2.70089,2.70089,0,0,0,.48242,1.75293A1.66943,1.66943,0,0,0,141.7401,248.76437Z" fill="#232323"/><path d="M156.74694,238.51632a4.7025,4.7025,0,0,1,1.2334.14356l-.37012,1.542a4.5275,4.5275,0,0,0-1.0791-.13379,2.85629,2.85629,0,0,0-1.75293.61719,5.41571,5.41571,0,0,0-1.42871,1.71094,8.74213,8.74213,0,0,0-.89942,2.43066l-1.09961,5.16016h-1.72656l2.40527-11.26563h1.42871l-.22656,2.08692h.10352a10.105,10.105,0,0,1,1.22265-1.40332,3.8778,3.8778,0,0,1,1.0127-.65723A2.90543,2.90543,0,0,1,156.74694,238.51632Z" fill="#232323"/><path d="M163.92174,238.53683a2.99814,2.99814,0,0,1,2.8877,1.95313h.10254a23.89612,23.89612,0,0,1,.46289-2.81641l.80175-3.67969h1.70606l-3.3916,15.99317h-1.42871l.22558-2.14844h-.082a7.735,7.735,0,0,1-1.94238,1.81934,3.63112,3.63112,0,0,1-1.8711.53515,2.69186,2.69186,0,0,1-2.23046-1.00781,4.382,4.382,0,0,1-.80176-2.7959,10.65643,10.65643,0,0,1,.74023-4.0293,6.723,6.723,0,0,1,1.999-2.82617A4.43072,4.43072,0,0,1,163.92174,238.53683Zm-1.95312,10.22754a2.99339,2.99339,0,0,0,1.99414-.96191,6.75876,6.75876,0,0,0,1.6289-2.45606,8.11326,8.11326,0,0,0,.60157-3.04785,2.46059,2.46059,0,0,0-.55567-1.7373,2.10082,2.10082,0,0,0-1.61328-.59571,2.74938,2.74938,0,0,0-1.92773.84766,5.9685,5.9685,0,0,0-1.42871,2.38476,9.696,9.696,0,0,0-.53907,3.23243Q160.12877,248.76388,161.96862,248.76437Z" fill="#232323"/><path d="M177.05748,246.79074a3.01527,3.01527,0,0,1-1.13574,2.50293,5.04285,5.04285,0,0,1-3.20215.89941,6.82951,6.82951,0,0,1-3.13476-.71v-1.624a6.36432,6.36432,0,0,0,1.55273.668,5.64513,5.64513,0,0,0,1.541.2373,3.13279,3.13279,0,0,0,1.95312-.51465,1.59884,1.59884,0,0,0,.65821-1.31543,1.42,1.42,0,0,0-.36036-.98633,7.24117,7.24117,0,0,0-1.55175-1.10058,6.242,6.242,0,0,1-1.89161-1.46973,2.7093,2.7093,0,0,1-.55468-1.706,2.83571,2.83571,0,0,1,1.03808-2.28711,4.12052,4.12052,0,0,1,2.73438-.86817,7.95368,7.95368,0,0,1,3.3916.76075l-.55469,1.4082-.57617-.25684a5.70656,5.70656,0,0,0-2.26074-.44238,2.30029,2.30029,0,0,0-1.501.44727,1.50588,1.50588,0,0,0-.17969,2.14257,6.42323,6.42323,0,0,0,1.50586,1.0586,8.70845,8.70845,0,0,1,1.57715,1.05957,3.05046,3.05046,0,0,1,.71485.95019A2.69513,2.69513,0,0,1,177.05748,246.79074Z" fill="#232323"/><path d="M186.01061,249.987l1.52148-7.11231a8.48773,8.48773,0,0,0,.18457-1.38769,1.34009,1.34009,0,0,0-1.51074-1.52149,3.07933,3.07933,0,0,0-1.7832.60645,5.34017,5.34017,0,0,0-1.53223,1.76269,9.47965,9.47965,0,0,0-1.00195,2.791l-1.03809,4.86133h-1.72656l3.3916-15.99317H184.243q-.186.84229-.35547,1.63379-.16845.79248-.34863,1.60938-.18018.81591-.39063,1.71093-.21093.89356-.48828,1.94239h.11231a6.85562,6.85562,0,0,1,1.90722-1.8086,3.87008,3.87008,0,0,1,1.96778-.54492,2.80523,2.80523,0,0,1,2.082.74024,2.84985,2.84985,0,0,1,.73437,2.09668,8.31067,8.31067,0,0,1-.23632,1.70605q-.39991,1.98341-1.49024,6.90723Z" fill="#232323"/><path d="M192.99987,249.987H191.2733l2.40528-11.26563h1.72656Zm1.16211-14.14356a1.35265,1.35265,0,0,1,.32812-.94043,1.09642,1.09642,0,0,1,.85352-.36426.80835.80835,0,0,1,.90429.92481,1.395,1.395,0,0,1-.34375.956,1.03691,1.03691,0,0,1-.79687.39063.95069.95069,0,0,1-.67871-.25195A.93621.93621,0,0,1,194.162,235.84347Z" fill="#232323"/><path d="M201.61315,250.19308a3.01582,3.01582,0,0,1-1.74707-.51465,3.3357,3.3357,0,0,1-1.16114-1.43847h-.10351l-.041.39062c-.0205.1709-.05664.41113-.10742.71875q-.07764.4629-1.17676,5.69434h-1.707l3.4541-16.32227H200.452l-.26758,2.14844h.082q1.83984-2.33349,3.82422-2.333a2.703,2.703,0,0,1,2.21972,1.00195,4.35654,4.35654,0,0,1,.8125,2.81153,10.90229,10.90229,0,0,1-.71,3.99805,6.63757,6.63757,0,0,1-1.96289,2.832A4.39648,4.39648,0,0,1,201.61315,250.19308Zm1.91211-10.22754a2.971,2.971,0,0,0-2.00977.97657,6.97633,6.97633,0,0,0-1.624,2.456,8.00047,8.00047,0,0,0-.60059,3.03223,2.42068,2.42068,0,0,0,.57031,1.73242,2.16668,2.16668,0,0,0,1.64942.60156,2.71952,2.71952,0,0,0,1.89648-.833,5.843,5.843,0,0,0,1.41309-2.36914,9.86058,9.86058,0,0,0,.53418-3.26367Q205.35436,239.96506,203.52526,239.96554Z" fill="#232323"/><polygon points="85.5 68.436 98.39 99.988 91.802 67.172 85.5 68.436" fill="#09909f"/><polygon points="210.513 78.684 207.166 111.99 213.554 112.633 210.513 78.684" fill="#09909f"/><polygon points="184.365 37.362 186.522 31.31 152.835 26.112 184.365 37.362" fill="#09909f"/><polygon points="133.381 130.066 133.705 136.482 166.818 128.387 133.381 130.066" fill="#09909f"/><path d="M129.51525,138.02389a1.10476,1.10476,0,0,1,1.01343-1.1571l1.2124-.08319-.376-7.49716a1.07281,1.07281,0,0,1,1.01318-1.12139l3.792-.19594-.18213-3.66243a5.51032,5.51032,0,0,1-3.33057-4.77115l-.83667-16.72152-.33618-6.65055L130.43737,75.366a3.28656,3.28656,0,0,1,4.33789-3.26761l-3.50147,9.81541a5.24509,5.24509,0,0,0,6.40552,6.78074l.06177,1.22363-.10718.29639a5.46182,5.46182,0,0,0,.21558,4.18994l.1311.25049.81445,1.14453a5.46321,5.46321,0,0,0,3.34766,1.70752,5.449,5.449,0,0,0,4.002,2.397l3.27417.33057a4.98,4.98,0,0,0,3.02857,8.47753l20.50195,2.06055-.85449,6.72949a7.9061,7.9061,0,0,1-8.33521,6.93995l.10254,2.13574,4.08252-.20508a1.06188,1.06188,0,0,1,1.12158,1.01318l.376,7.48047.10181-.00586a1.13848,1.13848,0,0,1,1.11572,1.09693l.97583,19.42993h136.5083A153.16662,153.16662,0,0,0,199.4796,8.88131L191.213,32.00155a1.059,1.059,0,0,1-1.36645.62336l-1.13868-.41465-2.52221,7.04854a1.06027,1.06027,0,0,1-1.36084.64634l-3.5813-1.27668L180.014,42.08338a5.51,5.51,0,0,1,1.25244,5.68229l-5.62476,15.764L173.40416,69.804l-7.00268,19.61324c-1.45777,4.08789-7.634,1.88475-6.17749-2.20314L167.22106,67.595l-1.47949-.52393-9.39966,26.34863c-1.68555,4.71972-8.81934,2.1748-7.13379-2.54493l9.39966-26.34863-1.73682-.62061L146.37243,93.32882c-1.679,4.71387-8.81275,2.17432-7.12793-2.54492l10.49267-29.42334-1.605-.5747-8.59155,24.0708c-1.56568,4.40087-8.22095,2.02685-6.65528-2.374l8.585-24.0708.7351-2.05566,1.84986-5.1919-5.5564,9.729c-3.05225,5.34082-11.199,2.96093-9.37695-.22119l14.92773-26.127A7.91085,7.91085,0,0,1,154.41124,31.323l.718-2.01025-3.84888-1.37158a1.0796,1.0796,0,0,1-.64965-1.36621l2.52221-7.05957-.09668-.03418a1.07728,1.07728,0,0,1-.64868-1.3667l5.63819-15.79834c-.94678-.01758-1.89307.04663-2.844.04663A152.6726,152.6726,0,0,0,2.25988,155.38742h128.1228Zm174.13587-6.79035L213.34854,116.782a1.06923,1.06923,0,0,1-.89861-1.21762l.18356-1.19957-7.41388-1.104a1.07593,1.07593,0,0,1-.89861-1.21762l.56325-3.75259-3.62761-.54475a5.5023,5.5023,0,0,1-5.33361,2.32357l-16.552-2.47459-6.58756-.99077-20.59853-3.08063c-4.29027-.6403-3.321-7.126.96823-6.48526l20.59951,3.08068.234-1.55644L146.31436,94.422a3.7985,3.7985,0,0,1-1.99985-.95744,5.339,5.339,0,0,0,.90309-.29223,5.48483,5.48483,0,0,0,2.74159-2.47269l.03563.08727a5.49191,5.49191,0,0,0,10.14618-.01209l.87166-2.1064,1.19425.17744a4.96044,4.96044,0,0,0,5.48049,1.11378,4.64359,4.64359,0,0,0,.47293-.22207l8.94659,1.33836.27088-1.82842-7.45891-1.11791a4.7454,4.7454,0,0,0,.46959-.86654c.22615-.54784,1.22525-2.94482,2.63091-6.32529l5.47765.82327.25283-1.69241-5.05361-.75684,2.79849-6.72832,3.30486.49641,2.156.32067,5.45015.81559L175.2374,70.79008c1.05023-2.51428,2.1275-5.1128,3.17288-7.63807l23.30421,7.851a7.91238,7.91238,0,0,1,5.15886,9.54559l2.11061.319.60577-4.04091a1.06848,1.06848,0,0,1,1.21762-.89886L218.2156,77.032l.01585-.09554a1.07264,1.07264,0,0,1,1.21765-.89934l71.34177,10.52414S302.56989,112.15919,303.65112,131.23354ZM24.23912,76.38742,83.75744,64.48019a1.07632,1.07632,0,0,1,1.2583.84326l.239,1.18408,7.34473-1.46875a1.06545,1.06545,0,0,1,1.2583.83643l.74536,3.71777,3.59253-.71679a5.52629,5.52629,0,0,1,4.23071-3.99707l16.41382-3.29639L125.37,60.27316l2.27149-.45557-.00562.00537a3.52562,3.52562,0,0,0-.34741,2.60206,3.45724,3.45724,0,0,0,1.81079,2.29443,7.90987,7.90987,0,0,0,2.699.95654l-5.13575,1.03076.30762,1.54248,9.68945-1.94091a5.06947,5.06947,0,0,0-.15307.93359L135.35,70.4924a4.99126,4.99126,0,0,0-6.61523,4.95361q.46143,9.27466.93359,18.54248l-5.1748,1.03613,5.22021-.11279.416,8.24365-19.88086.43213a7.9117,7.9117,0,0,1-8.096-7.22461l-2.095.42139.80835,4.00195a1.07066,1.07066,0,0,1-.83691,1.2583l-7.35034,1.47461.023.09717a1.07034,1.07034,0,0,1-.84229,1.2583L5.23912,125.38742C9.23912,99.38742,24.23912,76.38742,24.23912,76.38742Z" fill="#09909f"/></g></g></svg>