<svg xmlns="http://www.w3.org/2000/svg" xmlns:xlink="http://www.w3.org/1999/xlink" viewBox="0 0 146.1074 146.1074"><defs><linearGradient id="linear-gradient" x1="3175.20174" y1="-3398.97222" x2="3176.20174" y2="-3398.97222" gradientTransform="matrix(103.3135, 103.3135, 103.3135, -103.3135, 23139.90811, -679179.51585)" gradientUnits="userSpaceOnUse"><stop offset="0" stop-color="#c9b899"/><stop offset="0.18779" stop-color="#c6b798"/><stop offset="0.34018" stop-color="#bcb395"/><stop offset="0.4802" stop-color="#abac91"/><stop offset="0.61284" stop-color="#93a28a"/><stop offset="0.74019" stop-color="#749581"/><stop offset="0.86361" stop-color="#4e8576"/><stop offset="0.9818" stop-color="#22736a"/><stop offset="1" stop-color="#1a7068"/></linearGradient><clipPath id="clip-path"><path d="M120.942,73.6457A48.5001,48.5001,0,1,1,72.4419,25.1461,48.5,48.5,0,0,1,120.942,73.6457" fill="none" clip-rule="evenodd"/></clipPath></defs><g id="Layer_2" data-name="Layer 2"><g id="Layer_1-2" data-name="Layer 1"><path d="M1,73.0537H0A73.0537,73.0537,0,1,0,73.0537,0,73.05369,73.05369,0,0,0,0,73.0537H1.9999a71.05371,71.05371,0,1,1,20.8112,50.2426A70.82734,70.82734,0,0,1,1.9999,73.0537Z" fill="url(#linear-gradient)"/><circle cx="72.87012" cy="73.4951" r="48.51611" fill="#09909f"/><path d="M17.42055,43.124a2.32774,2.32774,0,0,0-.21582,2.083A3.627,3.627,0,0,0,18.9,46.9912a3.66465,3.66465,0,0,0,2.39941.61426,2.37551,2.37551,0,0,0,1.6709-1.27344,5.18036,5.18036,0,0,0,.4375-.97461q.1626-.498.29395-1.06348l1.03906.60157a6.51455,6.51455,0,0,1-.82129,2.18261,3.6917,3.6917,0,0,1-2.44238,1.94825,4.74107,4.74107,0,0,1-3.33106-.75391,5.207,5.207,0,0,1-1.77734-1.59668,3.49015,3.49015,0,0,1-.61621-2.001,4.33224,4.33224,0,0,1,.63379-2.16211,5.46315,5.46315,0,0,1,1.69921-1.83984l.75586,1.02344a7.75,7.75,0,0,0-.77441.61816A3.33839,3.33839,0,0,0,17.42055,43.124Z" fill="#4d4d4d"/><path d="M27.298,34.92089a4.6687,4.6687,0,0,1,1.88086,2.85449,3.8259,3.8259,0,0,1-.959,3.05273,3.84467,3.84467,0,0,1-2.77344,1.62207,4.69049,4.69049,0,0,1-3.21-1.22656A4.6215,4.6215,0,0,1,20.3517,38.3662a3.8967,3.8967,0,0,1,.99121-3.05762A3.80961,3.80961,0,0,1,24.10267,33.709,4.65673,4.65673,0,0,1,27.298,34.92089Zm-4.11524,5.14062a3.81282,3.81282,0,0,0,2.27442.99707A2.63137,2.63137,0,0,0,27.841,38.09569a3.83,3.83,0,0,0-1.4795-2.00488,3.83234,3.83234,0,0,0-2.26269-.999,2.251,2.251,0,0,0-1.81836.96777,2.30129,2.30129,0,0,0-.56055,2.00391A3.78955,3.78955,0,0,0,23.18275,40.06151Z" fill="#4d4d4d"/><path d="M32.02406,36.38573,26.152,30.14843l1.02734-.9668,5.04786,5.3623L34.88637,32.041l.82324.875Z" fill="#4d4d4d"/><path d="M36.83949,32.0205l-5.11426-6.87207,1.13086-.8418,4.39746,5.9082,2.92969-2.18066.7168.96289Z" fill="#4d4d4d"/><path d="M46.37562,25.82323l-4.22851,2.43555L37.87172,20.835l4.22851-2.43555.58985,1.02539-3.00586,1.73243,1.16406,2.0205,2.81641-1.623.585,1.01562-2.81641,1.623L42.776,26.5244,45.78187,24.792Z" fill="#4d4d4d"/><path d="M48.485,16.78612a2.3291,2.3291,0,0,0-1.43457,1.52539,3.63607,3.63607,0,0,0,.2666,2.44727,3.66138,3.66138,0,0,0,1.53516,1.94336,2.36837,2.36837,0,0,0,2.09961,0,5.161,5.161,0,0,0,.93945-.50879c.28711-.19824.581-.4209.87793-.668l.46289,1.1084a6.50835,6.50835,0,0,1-1.97656,1.23828,3.69835,3.69835,0,0,1-3.125.06738A4.74464,4.74464,0,0,1,45.9391,21.3203a5.22473,5.22473,0,0,1-.44434-2.34765,3.50246,3.50246,0,0,1,.72364-1.96485,4.32673,4.32673,0,0,1,1.81445-1.335,5.4511,5.4511,0,0,1,2.4668-.43164l-.01856,1.27148a7.5377,7.5377,0,0,0-.99121.02247A3.35221,3.35221,0,0,0,48.485,16.78612Z" fill="#4d4d4d"/><path d="M57.79652,21.50878l-1.36035.37109-1.9375-7.10547-2.44824.667L51.734,14.28222l6.25684-1.70606.3164,1.15918-2.44824.668Z" fill="#4d4d4d"/><path d="M61.62953,20.71972l-1.46582-8.44043,1.38965-.24121,1.46582,8.43945Z" fill="#4d4d4d"/><path d="M69.44984,11.10448l1.46-.10644-2.39062,8.76367-1.4834.1084-3.623-8.3252L64.86,11.43944l2.18262,5.18164q.16992.36915.37109.95606c.13574.39258.22656.68359.27148.877.02832-.2998.083-.64844.16016-1.0459.07813-.39746.14258-.69238.19531-.88379Z" fill="#4d4d4d"/><path d="M77.55336,19.95507l-4.873-.251.44043-8.55469,4.87305.251L77.93324,12.582l-3.46484-.17871-.12012,2.33008,3.24609.167L77.5348,16.0703l-3.24609-.167L74.15,18.58886l3.46484.17871Z" fill="#4d4d4d"/><path d="M87.69789,21.94823l-.27441-2.51367-3.20508-.7793-1.38184,2.11133L81.39125,20.415l5.16894-7.5957,1.49121.36328,1.10254,9.12109Zm-.35059-3.77539-.23437-2.457c-.02051-.166-.041-.42383-.06348-.77539-.02246-.34961-.0332-.60645-.03515-.76758a12.87609,12.87609,0,0,1-.8252,1.42188l-1.28418,1.98437Z" fill="#4d4d4d"/><path d="M96.25062,17.01073a2.33032,2.33032,0,0,0-2.09277.0918A3.63968,3.63968,0,0,0,92.64027,19.041a3.66419,3.66419,0,0,0-.25586,2.46387,2.37454,2.37454,0,0,0,1.50489,1.46582,5.10226,5.10226,0,0,0,1.02734.29c.34375.05957.71.10352,1.09473.13477L95.569,24.51171a6.50734,6.50734,0,0,1-2.27832-.49219,3.69957,3.69957,0,0,1-2.28613-2.13184,4.75043,4.75043,0,0,1,.25781-3.40527,5.22522,5.22522,0,0,1,1.32031-1.99219,3.49758,3.49758,0,0,1,1.88965-.90234,4.33369,4.33369,0,0,1,2.23145.31055,5.46188,5.46188,0,0,1,2.06836,1.41211l-.90235.89648a7.75842,7.75842,0,0,0-.72461-.6748A3.36,3.36,0,0,0,96.25062,17.01073Z" fill="#4d4d4d"/><path d="M99.7018,27.00975l-1.23438-.68261,3.56738-6.44434-2.21972-1.22851.582-1.05079,5.67383,3.14063-.582,1.05078-2.21972-1.22851Z" fill="#4d4d4d"/><path d="M102.94105,28.9619l4.833-7.07226,1.16406.7959-4.833,7.07226Z" fill="#4d4d4d"/><path d="M114.486,32.77245a4.6635,4.6635,0,0,1-2.92872,1.76367,3.82474,3.82474,0,0,1-3.01269-1.08008,3.84693,3.84693,0,0,1-1.50879-2.83593,4.69476,4.69476,0,0,1,1.35547-3.15821,4.62657,4.62657,0,0,1,2.93164-1.76953,3.896,3.896,0,0,1,3.01465,1.11328,3.82024,3.82024,0,0,1,1.48828,2.82227A4.6647,4.6647,0,0,1,114.486,32.77245Zm-4.97071-4.31836a3.81488,3.81488,0,0,0-1.08887,2.23242,2.628,2.628,0,0,0,2.86426,2.5,3.8367,3.8367,0,0,0,2.06446-1.39843,3.841,3.841,0,0,0,1.08886-2.21875,2.25122,2.25122,0,0,0-.89453-1.85547,2.29814,2.29814,0,0,0-1.97949-.64258A3.79723,3.79723,0,0,0,109.51527,28.45409Z" fill="#4d4d4d"/><path d="M117.39711,42.78026l-1.09961-1.333,2.56445-7.61718-.03027-.03711-.27539.26562q-.78809.75879-1.4834,1.33106l-3.43457,2.835-.81543-.98731,6.60644-5.45214,1.08887,1.31933-2.54394,7.585.02246.02832q.09668-.0952.72656-.66211.63135-.56543.99609-.86816l3.46192-2.85645.82226.99707Z" fill="#4d4d4d"/><g clip-path="url(#clip-path)"><path d="M59.5708,74.2109,64.7212,59.77l.4409-1.2334,1.1099-3.1148-3.33349,5.837c-1.83111,3.2041-6.71871,1.7763-5.62551-.1329l8.9556-15.6743a4.74582,4.74582,0,0,1,6.2163-1.9331l.4307-1.206-2.30909-.8228a.64789.64789,0,0,1-.38971-.8198L71.73,36.4345l-.0581-.0205a.64624.64624,0,0,1-.3892-.8198l5.7452-16.0977a.64591.64591,0,0,1,.8198-.3896L99.919,26.9834a.6459.6459,0,0,1,.3896.8198L94.56351,43.9008a.64177.64177,0,0,1-.81981.3863l-.6831-.2427-1.5132,4.2319a.63678.63678,0,0,1-.8164.3892l-2.14849-.7651-.73771,2.0732a3.30593,3.30593,0,0,1,.7514,3.4092l-3.3745,9.4575-1.3423,3.7642L79.6782,78.3711a1.96739,1.96739,0,0,1-3.706-1.3218l4.1977-11.77-.8876-.3145L73.6431,80.7724a2.27206,2.27206,0,0,1-4.2798-1.5268L75.00251,63.438l-1.042-.3721L67.6621,80.7177a2.27041,2.27041,0,0,1-4.2763-1.5268L69.6807,61.539l-.9629-.3447L63.56351,75.6352A2.11965,2.11965,0,0,1,59.5708,74.2109ZM71.6416,40.4956l18.9156,6.749,1.2944-3.6309M83.8794,69.7431l1.9947.2017,1.3012.1299,3.2896.331-6.19239-1.7588c.55659-1.5371,1.12689-3.1254,1.68019-4.6689l14.1919,4.0303a4.74667,4.74667,0,0,1,3.3676,5.5708l1.274.1299.2461-2.439a.64075.64075,0,0,1,.7036-.5737l4.4712.4472.0068-.0576a.64347.64347,0,0,1,.70361-.5742l17.00639,1.7114a.64024.64024,0,0,1,.5737.7002l-2.3467,23.3184a.64142.64142,0,0,1-.7036.5737L108.4409,95.104a.64147.64147,0,0,1-.5737-.7036l.0752-.7242-4.4746-.4472a.64533.64533,0,0,1-.5737-.7036l.229-2.2647-2.1895-.2217a3.30166,3.30166,0,0,1-3.1289,1.5469L87.81451,90.582l-3.97611-.4033-12.4326-1.25a1.96693,1.96693,0,0,1,.3926-3.9141l12.43311,1.25.09519-.9394L67.62451,83.645a2.27915,2.27915,0,0,1-1.226-.5161,3.18618,3.18618,0,0,0,.53269-.2012,3.29129,3.29129,0,0,0,1.57131-1.561l.02389.0512a3.29476,3.29476,0,0,0,6.0796-.3007l.4614-1.2876.7207.0717a2.97559,2.97559,0,0,0,3.31641.5088,2.76431,2.76431,0,0,0,.27689-.1465l5.3999.543.1094-1.1035-4.502-.4541a2.85114,2.85114,0,0,0,.2563-.5327c.1197-.335.649-1.8003,1.3936-3.8667l3.3062.3349.1025-1.0214-3.0503-.3072Zm22.3653,2.292-2.0083,19.9815,3.8325.3857M83.60651,91.1831l-.51271,4.0371a4.74317,4.74317,0,0,1-5.0005,4.1636l.0615,1.2812,2.4492-.123a.637.637,0,0,1,.6729.6079l.22561,4.4878.061-.0035a.64067.64067,0,0,1,.66939.6084l.8609,17.0708a.6413.6413,0,0,1-.6079.6729l-23.4073,1.1753a.64163.64163,0,0,1-.6728-.6079l-.8569-17.0713a.64011.64011,0,0,1,.6079-.6694l.7275-.0376-.2256-4.4917a.641.641,0,0,1,.6079-.6695l2.27491-.1162-.10931-2.1963a3.305,3.305,0,0,1-1.9981-2.8618l-.5019-10.0317-.20169-3.9898-.62841-12.477a1.97188,1.97188,0,0,1,2.6025-1.9605L58.604,73.8696a3.14653,3.14653,0,0,0,3.8428,4.0679l.0371.7343-.06439.1778a3.27671,3.27671,0,0,0,.12939,2.5136l.07861.1504.48869.6866a3.27853,3.27853,0,0,0,2.00831,1.0244,3.27018,3.27018,0,0,0,2.40089,1.438l1.9644.1982a2.98756,2.98756,0,0,0,1.8169,5.0859ZM80.0303,101.8535l-20.0601,1.0073.1949,3.8496M57.6407,81.1137l-3.1045.6216,3.1318-.0679.24951,4.9458-11.92721.2593a4.74676,4.74676,0,0,1-4.857-4.3344l-1.25679.2529.48489,2.4009a.64211.64211,0,0,1-.502.7548l-4.4097.8848.0137.0581a.64208.64208,0,0,1-.5054.7549L18.2007,91.0088a.64363.64363,0,0,1-.7549-.502L12.835,67.5302a.64223.64223,0,0,1,.5019-.7548l16.7603-3.3648a.64556.64556,0,0,1,.7549.5059l.1435.7104,4.4063-.8813a.63921.63921,0,0,1,.7549.5019l.4472,2.2305,2.1553-.4302a3.31509,3.31509,0,0,1,2.5381-2.3979l9.8472-1.9776,3.9174-.7856,1.3628-.2735-.0034.0035a2.11542,2.11542,0,0,0-.2085,1.561,2.07477,2.07477,0,0,0,1.0864,1.3765,4.7418,4.7418,0,0,0,1.61921.5737l-3.08111.6186.1846.9253,5.813-1.1645a3.03713,3.03713,0,0,0-.0918.5601l-.6939,1.9501a2.9945,2.9945,0,0,0-3.9687,2.9717Q57.3575,75.55345,57.6407,81.1137ZM38.9781,84.8164,35.0259,65.1289l-3.7808.7583" fill="#fff" fill-rule="evenodd"/></g></g></g></svg>