<svg width="147" height="147" viewBox="0 0 147 147" fill="none" xmlns="http://www.w3.org/2000/svg">
<circle cx="73" cy="73" r="72" fill="white"/>
<path d="M1 73.0537H0C0 87.5024 4.28452 101.627 12.3118 113.64C20.339 125.654 31.7483 135.018 45.0972 140.547C58.446 146.076 73.1346 147.523 87.3057 144.704C101.477 141.885 114.494 134.927 124.71 124.71C134.927 114.494 141.885 101.477 144.704 87.3062C147.522 73.1351 146.076 58.4465 140.547 45.0977C135.017 31.7488 125.654 20.3393 113.64 12.312C101.627 4.28477 87.5022 0 73.0536 0C63.46 -1.31322e-06 53.9605 1.88974 45.0972 5.56104C36.2339 9.23233 28.1805 14.6133 21.3969 21.397C14.6132 28.1806 9.23208 36.2344 5.56079 45.0977C1.8895 53.9609 -1.31322e-06 63.4602 0 73.0537H1.99988C1.99988 56.6151 7.69973 40.6853 18.1283 27.978C28.5569 15.2708 43.0689 6.57226 59.1917 3.36523C75.3144 0.158207 92.0504 2.64102 106.548 10.3901C121.046 18.1393 132.408 30.6755 138.699 45.8628C144.989 61.0501 145.82 77.9489 141.048 93.6797C136.276 109.41 126.197 123 112.529 132.133C98.8607 141.266 82.4486 145.377 66.0891 143.766C49.7296 142.154 34.4349 134.92 22.811 123.296C16.203 116.706 10.9627 108.874 7.39124 100.252C3.81974 91.6296 1.98752 82.3865 1.99988 73.0537H1Z" fill="url(#paint0_linear)"/>
<path d="M1 73.0537H0C0 87.5024 4.28452 101.627 12.3118 113.64C20.339 125.654 31.7483 135.018 45.0972 140.547C58.446 146.076 73.1346 147.523 87.3057 144.704C101.477 141.885 114.494 134.927 124.71 124.71C134.927 114.494 141.885 101.477 144.704 87.3062C147.522 73.1351 146.076 58.4465 140.547 45.0977C135.017 31.7488 125.654 20.3393 113.64 12.312C101.627 4.28477 87.5022 0 73.0536 0C63.46 -1.31322e-06 53.9605 1.88974 45.0972 5.56104C36.2339 9.23233 28.1805 14.6133 21.3969 21.397C14.6132 28.1806 9.23208 36.2344 5.56079 45.0977C1.8895 53.9609 -1.31322e-06 63.4602 0 73.0537H1.99988C1.99988 56.6151 7.69973 40.6853 18.1283 27.978C28.5569 15.2708 43.0689 6.57226 59.1917 3.36523C75.3144 0.158207 92.0504 2.64102 106.548 10.3901C121.046 18.1393 132.408 30.6755 138.699 45.8628C144.989 61.0501 145.82 77.9489 141.048 93.6797C136.276 109.41 126.197 123 112.529 132.133C98.8607 141.266 82.4486 145.377 66.0891 143.766C49.7296 142.154 34.4349 134.92 22.811 123.296C16.203 116.706 10.9627 108.874 7.39124 100.252C3.81974 91.6296 1.98752 82.3865 1.99988 73.0537H1Z" fill="url(#paint1_linear)"/>
<path d="M73.5 122C100.286 122 122 100.286 122 73.5C122 46.7142 100.286 25 73.5 25C46.7142 25 25 46.7142 25 73.5C25 100.286 46.7142 122 73.5 122Z" fill="#09909F"/>
<path d="M17.6592 43.2749C17.4631 43.5811 17.3414 43.9288 17.3039 44.2905C17.2664 44.6523 17.3142 45.018 17.4434 45.3579C17.7833 46.1321 18.383 46.7631 19.1387 47.1421C19.843 47.6191 20.6913 47.8363 21.5381 47.7563C21.8957 47.6864 22.2323 47.5353 22.522 47.3145C22.8118 47.0936 23.0468 46.8091 23.209 46.4829C23.3881 46.174 23.5347 45.8474 23.6465 45.5083C23.7549 45.1763 23.8529 44.8218 23.9405 44.4448L24.9796 45.0464C24.8393 45.8174 24.5611 46.5568 24.1583 47.229C23.9184 47.7126 23.5754 48.1375 23.1534 48.4741C22.7314 48.8107 22.2407 49.0508 21.7159 49.1772C20.5504 49.3485 19.363 49.0797 18.3848 48.4233C17.6766 48.0361 17.0682 47.4895 16.6075 46.8267C16.2021 46.2384 15.9871 45.54 15.9913 44.8257C16.0081 44.0617 16.2268 43.3158 16.6251 42.6636C17.0414 41.927 17.623 41.2972 18.3243 40.8237L19.0801 41.8472C18.8091 42.0365 18.5504 42.243 18.3057 42.4653C18.0494 42.6999 17.8313 42.973 17.6592 43.2749Z" fill="#4D4D4D"/>
<path d="M27.5362 35.0717C28.5015 35.7512 29.1735 36.7711 29.4171 37.9262C29.4872 39.0299 29.1437 40.12 28.4537 40.9843C27.7637 41.8486 26.7765 42.425 25.6847 42.601C24.498 42.6129 23.351 42.1746 22.4747 41.3744C21.5039 40.6983 20.8293 39.6756 20.5899 38.517C20.5282 37.9662 20.5847 37.4085 20.7556 36.8813C20.9265 36.354 21.208 35.8692 21.5811 35.4594C21.8982 35.0091 22.309 34.633 22.7855 34.3569C23.2619 34.0807 23.7926 33.9111 24.3409 33.8598C25.5211 33.8442 26.6632 34.2774 27.5362 35.0717ZM23.421 40.2123C24.0466 40.7892 24.8472 41.1402 25.6954 41.2094C26.0495 41.179 26.3937 41.0772 26.7074 40.9101C27.021 40.743 27.2975 40.5141 27.5202 40.2372C27.743 39.9603 27.9073 39.6414 28.0034 39.2992C28.0994 38.9571 28.1253 38.5989 28.0792 38.2465C27.7708 37.4634 27.2633 36.7743 26.607 36.2475C25.9507 35.7206 25.1683 35.3743 24.337 35.2426C23.9788 35.2476 23.6269 35.3379 23.3106 35.5063C22.9944 35.6746 22.7228 35.916 22.5186 36.2104C22.2744 36.4769 22.0964 36.7973 21.999 37.1454C21.9016 37.4936 21.8876 37.8597 21.9581 38.2143C22.2082 39.0253 22.7234 39.7289 23.421 40.2123Z" fill="#4D4D4D"/>
<path d="M32.2627 36.5366L26.3906 30.2993L27.418 29.3325L32.4658 34.6948L35.125 32.1919L35.9482 33.0669L32.2627 36.5366Z" fill="#4D4D4D"/>
<path d="M37.0781 32.1714L31.9639 25.2993L33.0947 24.4575L37.4922 30.3657L40.4219 28.1851L41.1387 29.1479L37.0781 32.1714Z" fill="#4D4D4D"/>
<path d="M46.6143 25.9741L42.3857 28.4097L38.1104 20.9858L42.3389 18.5503L42.9287 19.5757L39.9229 21.3081L41.0869 23.3286L43.9033 21.7056L44.4883 22.7212L41.6719 24.3442L43.0146 26.6753L46.0205 24.9429L46.6143 25.9741Z" fill="#4D4D4D"/>
<path d="M48.7237 16.9371C48.3821 17.0617 48.0745 17.2645 47.8254 17.5294C47.5763 17.7942 47.3926 18.1139 47.2892 18.4625C47.1466 19.2897 47.24 20.1405 47.5587 20.9171C47.8774 21.6936 48.4084 22.3645 49.0909 22.8531C49.4173 23.0145 49.7766 23.0987 50.1407 23.0987C50.5049 23.0987 50.8641 23.0145 51.1905 22.8531C51.5204 22.7165 51.8353 22.5459 52.13 22.3443C52.4171 22.1461 52.711 21.9234 53.0079 21.6763L53.4708 22.7847C52.8919 23.3131 52.2223 23.7326 51.4942 24.023C51.0099 24.2617 50.4791 24.3913 49.9392 24.4029C49.3993 24.4145 48.8635 24.308 48.3692 24.0904C47.339 23.5196 46.5579 22.586 46.1778 21.4713C45.8504 20.7335 45.6983 19.93 45.7335 19.1236C45.7687 18.4102 46.0212 17.7246 46.4571 17.1588C46.9335 16.5614 47.5595 16.1008 48.2716 15.8238C49.0492 15.4904 49.8938 15.3426 50.7384 15.3922L50.7198 16.6636C50.3893 16.6494 50.0582 16.6569 49.7286 16.6861C49.3827 16.7172 49.0437 16.8018 48.7237 16.9371Z" fill="#4D4D4D"/>
<path d="M58.0352 21.6597L56.6748 22.0308L54.7373 14.9253L52.2891 15.5923L51.9727 14.4331L58.2295 12.7271L58.5459 13.8862L56.0977 14.5542L58.0352 21.6597Z" fill="#4D4D4D"/>
<path d="M61.8682 20.8706L60.4023 12.4302L61.792 12.189L63.2578 20.6284L61.8682 20.8706Z" fill="#4D4D4D"/>
<path d="M69.6886 11.2554L71.1486 11.1489L68.7579 19.9126L67.2745 20.021L63.6516 11.6958L65.0989 11.5903L67.2815 16.772C67.3948 17.0181 67.5185 17.3368 67.6526 17.728C67.7883 18.1206 67.8792 18.4116 67.9241 18.605C67.9524 18.3052 68.0071 17.9566 68.0842 17.5591C68.1624 17.1616 68.2268 16.8667 68.2795 16.6753L69.6886 11.2554Z" fill="#4D4D4D"/>
<path d="M77.792 20.106L72.9189 19.855L73.3594 11.3003L78.2324 11.5513L78.1719 12.7329L74.707 12.5542L74.5869 14.8843L77.833 15.0513L77.7734 16.2212L74.5273 16.0542L74.3887 18.7397L77.8535 18.9185L77.792 20.106Z" fill="#4D4D4D"/>
<path d="M87.9365 22.0991L87.6621 19.5854L84.457 18.8062L83.0752 20.9175L81.6299 20.5659L86.7988 12.9702L88.29 13.3335L89.3926 22.4546L87.9365 22.0991ZM87.5859 18.3237L87.3516 15.8667C87.3311 15.7007 87.3106 15.4429 87.2881 15.0913C87.2656 14.7417 87.2549 14.4849 87.2529 14.3237C87.0084 14.8148 86.7328 15.2897 86.4277 15.7456L85.1436 17.73L87.5859 18.3237Z" fill="#4D4D4D"/>
<path d="M96.4893 17.1616C96.1575 17.0125 95.7955 16.943 95.4321 16.9589C95.0687 16.9749 94.714 17.0758 94.3965 17.2534C93.7167 17.746 93.1897 18.4204 92.876 19.1992C92.5623 19.9779 92.4746 20.8294 92.6231 21.6557C92.7447 21.9991 92.9437 22.3097 93.2047 22.5639C93.4656 22.8181 93.7815 23.009 94.128 23.1215C94.4594 23.2538 94.8037 23.3511 95.1553 23.4116C95.4991 23.4711 95.8653 23.5151 96.2501 23.5463L95.8077 24.6625C95.0248 24.6369 94.253 24.4702 93.5294 24.1704C93.0158 24.0034 92.545 23.7261 92.1501 23.3579C91.7551 22.9896 91.4456 22.5392 91.2432 22.0385C90.9041 20.9107 90.996 19.6971 91.501 18.6332C91.7813 17.8761 92.2332 17.1942 92.8213 16.6411C93.3443 16.1543 94.0037 15.8394 94.711 15.7387C95.4692 15.6437 96.239 15.7508 96.9424 16.0493C97.732 16.3534 98.44 16.8368 99.0108 17.4614L98.1085 18.3579C97.8815 18.1177 97.6395 17.8923 97.3838 17.6831C97.1144 17.4641 96.8126 17.2881 96.4893 17.1616Z" fill="#4D4D4D"/>
<path d="M99.9404 27.1606L98.7061 26.478L102.273 20.0337L100.054 18.8052L100.636 17.7544L106.31 20.895L105.728 21.9458L103.508 20.7173L99.9404 27.1606Z" fill="#4D4D4D"/>
<path d="M103.18 29.1128L108.013 22.0405L109.177 22.8364L104.344 29.9087L103.18 29.1128Z" fill="#4D4D4D"/>
<path d="M114.725 32.9235C114.007 33.8609 112.96 34.4912 111.796 34.6872C110.69 34.7136 109.614 34.3272 108.778 33.6032C107.942 32.8791 107.406 31.8692 107.274 30.7711C107.311 29.585 107.795 28.4567 108.63 27.6129C109.345 26.6701 110.394 26.0372 111.562 25.8444C112.114 25.8049 112.669 25.8838 113.189 26.0758C113.709 26.2678 114.182 26.5684 114.576 26.9577C115.013 27.2927 115.372 27.7182 115.629 28.2052C115.886 28.6922 116.035 29.2292 116.064 29.779C116.032 30.9589 115.553 32.0827 114.725 32.9235ZM109.754 28.6051C109.152 29.2071 108.769 29.9928 108.665 30.8375C108.681 31.1926 108.769 31.5408 108.923 31.861C109.077 32.1812 109.295 32.4666 109.562 32.7003C109.83 32.934 110.142 33.1108 110.48 33.2204C110.819 33.3299 111.175 33.3698 111.529 33.3375C112.324 33.0615 113.034 32.5823 113.587 31.9479C114.14 31.3134 114.518 30.5457 114.683 29.7204C114.692 29.3622 114.615 29.0069 114.46 28.6842C114.304 28.3615 114.074 28.0807 113.788 27.8649C113.532 27.6095 113.219 27.4183 112.875 27.3068C112.531 27.1953 112.166 27.1667 111.809 27.2233C110.988 27.4408 110.265 27.9274 109.754 28.6051Z" fill="#4D4D4D"/>
<path d="M117.636 42.9312L116.536 41.5981L119.101 33.981L119.07 33.9438L118.795 34.2095C118.27 34.7153 117.776 35.159 117.312 35.5405L113.877 38.3755L113.062 37.3882L119.668 31.936L120.757 33.2554L118.213 40.8403L118.235 40.8687C118.3 40.8052 118.542 40.5845 118.962 40.2065C119.383 39.8296 119.715 39.5402 119.958 39.3384L123.42 36.4819L124.243 37.479L117.636 42.9312Z" fill="#4D4D4D"/>
<mask id="mask0" mask-type="alpha" maskUnits="userSpaceOnUse" x="25" y="25" width="97" height="97">
<path d="M73.5 122C100.286 122 122 100.286 122 73.5C122 46.7142 100.286 25 73.5 25C46.7142 25 25 46.7142 25 73.5C25 100.286 46.7142 122 73.5 122Z" fill="#09909F"/>
</mask>
<g mask="url(#mask0)">
<path fill-rule="evenodd" clip-rule="evenodd" d="M59.8097 74.362L64.9601 59.9211L65.4009 58.6877L66.5109 55.573L63.1774 61.4099C61.3463 64.614 56.4587 63.1863 57.5519 61.2771L66.5075 45.6028C67.1019 44.5488 68.0765 43.7619 69.232 43.4026C70.3874 43.0433 71.6365 43.1387 72.7238 43.6697L73.1545 42.4636L70.8454 41.6409C70.686 41.5825 70.5558 41.4641 70.483 41.3108C70.4101 41.1575 70.4003 40.9815 70.4557 40.821L71.9689 36.5857L71.9108 36.5652C71.7512 36.5071 71.6208 36.3885 71.548 36.2351C71.4752 36.0817 71.4657 35.9057 71.5215 35.7453L77.2668 19.6477C77.3247 19.488 77.4433 19.3578 77.5967 19.2849C77.7502 19.212 77.9262 19.2021 78.0866 19.258L100.158 27.1345C100.318 27.1925 100.448 27.3111 100.521 27.4646C100.594 27.618 100.603 27.7939 100.548 27.9543L94.8024 44.052C94.7447 44.2118 94.626 44.3424 94.4723 44.4148C94.3187 44.4872 94.1425 44.4954 93.9826 44.4382L93.2995 44.1955L91.7863 48.4275C91.7586 48.5069 91.7154 48.5802 91.6592 48.6428C91.6031 48.7054 91.535 48.756 91.4591 48.7922C91.3832 48.8284 91.3009 48.8491 91.217 48.8533C91.133 48.8575 91.049 48.8451 90.9699 48.8166L88.8213 48.0515L88.0837 50.1247C88.5145 50.5663 88.8133 51.1199 88.9461 51.7224C89.0789 52.3249 89.0405 52.9521 88.8351 53.5339L85.4606 62.9914L84.1183 66.7556L79.917 78.5222C79.7389 79.0099 79.3753 79.4075 78.9053 79.6282C78.4354 79.8488 77.8972 79.8748 77.4082 79.7004C76.9192 79.526 76.519 79.1653 76.2947 78.697C76.0705 78.2287 76.0404 77.6907 76.2111 77.2004L80.4087 65.4304L79.5212 65.1159L73.882 80.9236C73.6762 81.4867 73.2562 81.9456 72.7134 82.2004C72.1707 82.4552 71.5492 82.4854 70.9845 82.2839C70.4198 82.0825 69.9576 81.666 69.6987 81.1252C69.4397 80.5845 69.4051 79.9629 69.6022 79.3967L75.2414 63.5891L74.1994 63.217L67.9009 80.8689C67.6952 81.4316 67.2754 81.8903 66.733 82.1448C66.1905 82.3992 65.5694 82.4292 65.0052 82.2278C64.4409 82.0263 63.9791 81.6096 63.7205 81.0691C63.4619 80.5286 63.4275 79.9078 63.6247 79.342L69.9196 61.6902L68.9567 61.3454L63.8024 75.7864C63.6102 76.3114 63.2183 76.7393 62.7121 76.9768C62.2059 77.2143 61.6263 77.2423 61.0997 77.0544C60.573 76.8666 60.1419 76.4781 59.9003 75.9739C59.6587 75.4696 59.6262 74.8902 59.8097 74.362ZM71.8805 40.6467L90.7961 47.3957L92.0905 43.7649L71.8805 40.6467ZM84.1183 69.8943L86.113 70.0959L87.4142 70.2258L90.7038 70.5569L84.5114 68.7981C85.068 67.261 85.6383 65.6726 86.1916 64.1291L100.383 68.1594C101.549 68.4839 102.547 69.2412 103.173 70.2766C103.799 71.312 104.005 72.5474 103.751 73.7302L105.025 73.8601L105.271 71.4211C105.28 71.3372 105.304 71.2557 105.344 71.1814C105.384 71.1071 105.438 71.0418 105.504 70.9885C105.569 70.9352 105.644 70.895 105.725 70.8708C105.806 70.8467 105.891 70.8387 105.975 70.8474L110.446 71.2947L110.453 71.237C110.47 71.0677 110.554 70.9125 110.686 70.8049C110.818 70.6973 110.987 70.646 111.156 70.6628L128.163 72.3742C128.332 72.3911 128.487 72.4744 128.595 72.6057C128.702 72.737 128.753 72.9055 128.736 73.0744L126.39 96.3928C126.381 96.4767 126.356 96.5583 126.316 96.6326C126.276 96.7068 126.222 96.7726 126.157 96.8259C126.092 96.8792 126.016 96.9189 125.936 96.9431C125.855 96.9673 125.77 96.9751 125.686 96.9665L108.68 95.2551C108.596 95.2466 108.514 95.2218 108.44 95.1819C108.366 95.1419 108.3 95.0875 108.247 95.0222C108.194 94.9569 108.154 94.8818 108.13 94.801C108.105 94.7202 108.098 94.6354 108.106 94.5515L108.181 93.8274L103.707 93.3801C103.538 93.362 103.383 93.278 103.275 93.1462C103.168 93.0145 103.117 92.8457 103.133 92.6765L103.362 90.4118L101.173 90.1902C100.848 90.7146 100.382 91.1375 99.8291 91.4109C99.2761 91.6843 98.6576 91.7973 98.0436 91.737L88.0534 90.7331L84.0773 90.3298L71.6447 89.0798C71.1287 89.024 70.6556 88.7666 70.3287 88.3635C70.0017 87.9604 69.8473 87.4444 69.8991 86.928C69.9509 86.4116 70.2048 85.9368 70.6053 85.6067C71.0058 85.2766 71.5205 85.118 72.0373 85.1658L84.4704 86.4158L84.5656 85.4763L67.8633 83.7961C67.4124 83.7498 66.9856 83.5701 66.6374 83.28C66.8206 83.229 66.9989 83.1617 67.1701 83.0788C67.8585 82.7557 68.4137 82.204 68.7414 81.5178L68.7653 81.5691C69.0442 82.1578 69.4914 82.6505 70.0503 82.9851C70.6093 83.3197 71.2548 83.4811 71.9054 83.449C72.5561 83.4168 73.1827 83.1926 73.7059 82.8044C74.229 82.4163 74.6254 81.8816 74.8449 81.2683L75.3063 79.9807L76.027 80.0525C76.4645 80.461 77.015 80.7283 77.6066 80.8191C78.1983 80.9098 78.8036 80.8199 79.3434 80.5613C79.4384 80.5177 79.5308 80.4688 79.6203 80.4148L85.0202 80.9577L85.1296 79.8542L80.6276 79.4001C80.7313 79.2319 80.8171 79.0534 80.8838 78.8674C81.0035 78.5324 81.5329 77.0671 82.2775 75.0007L85.5837 75.3357L85.6862 74.3142L82.6359 74.0071L84.1183 69.8943ZM106.484 72.1863L104.475 92.1677L108.308 92.5535L106.484 72.1863ZM83.8454 91.3342L83.3327 95.3713C83.1872 96.5721 82.5885 97.6721 81.659 98.446C80.7295 99.22 79.5394 99.6093 78.3322 99.5349L78.3937 100.816L80.8428 100.693C80.927 100.688 81.0114 100.7 81.091 100.728C81.1706 100.756 81.2438 100.8 81.3064 100.857C81.369 100.913 81.4198 100.982 81.4557 101.058C81.4917 101.134 81.5121 101.217 81.5158 101.301L81.7414 105.789L81.8024 105.785C81.9718 105.778 82.1373 105.837 82.2627 105.951C82.3882 106.065 82.4634 106.224 82.4717 106.394L83.3327 123.465C83.3413 123.634 83.282 123.801 83.168 123.927C83.054 124.053 82.8946 124.129 82.7248 124.137L59.3174 125.313C59.1476 125.321 58.9814 125.262 58.8553 125.148C58.7291 125.034 58.6534 124.875 58.6447 124.705L57.7878 107.634C57.7798 107.464 57.8393 107.299 57.9533 107.173C58.0673 107.048 58.2264 106.972 58.3957 106.964L59.1232 106.926L58.8976 102.435C58.8899 102.266 58.9495 102.1 59.0634 101.975C59.1773 101.849 59.3363 101.774 59.5055 101.765L61.7803 101.649L61.6711 99.4529C61.1041 99.2098 60.6166 98.8131 60.2635 98.3074C59.9104 97.8016 59.7058 97.207 59.673 96.591L59.1711 86.5593L58.9694 82.5696L58.341 70.0925C58.3259 69.7717 58.3893 69.4525 58.5258 69.1618C58.6623 68.8712 58.8677 68.6178 59.1242 68.4245C59.3807 68.2313 59.6805 68.104 59.9976 68.053C60.3147 68.002 60.6394 68.029 60.9435 68.1321L58.8428 74.0207C58.6507 74.5661 58.6127 75.1539 58.7327 75.7195C58.8527 76.2851 59.1263 76.807 59.5234 77.2273C59.9204 77.6476 60.4256 77.9503 60.9834 78.1023C61.5413 78.2543 62.1303 78.2494 62.6857 78.0886L62.7228 78.823L62.6584 79.0007C62.5132 79.4075 62.4499 79.8394 62.4721 80.2707C62.4943 80.7021 62.6016 81.1246 62.7878 81.5144L62.8664 81.6648L63.355 82.3513C64.8789 83.0712 66.3521 83.8939 67.7643 84.8137L69.7287 85.0119C69.3285 85.4119 69.0502 85.9175 68.9261 86.4695C68.8019 87.0215 68.837 87.5973 69.0274 88.1301C69.2177 88.6629 69.5555 89.1309 70.0013 89.4792C70.4471 89.8276 70.9826 90.042 71.5456 90.0979L83.8454 91.3342ZM80.2692 102.005L60.209 103.012L60.404 106.862L80.2692 102.005ZM57.8796 81.2649L54.7751 81.8865L57.9069 81.8186L58.1564 86.7644L46.2292 87.0237C45.0197 87.0563 43.8433 86.6262 42.9406 85.8205C42.0378 85.0149 41.4769 83.8946 41.3722 82.6892L40.1154 82.9421L40.6003 85.343C40.6335 85.5096 40.5993 85.683 40.5052 85.8244C40.4111 85.9659 40.2648 86.0641 40.0983 86.0979L35.6885 86.9827L35.7023 87.0408C35.7187 87.1235 35.7187 87.209 35.7022 87.2917C35.6857 87.3745 35.6529 87.4531 35.606 87.5232C35.5591 87.5933 35.4988 87.6531 35.4286 87.6999C35.3584 87.7467 35.2796 87.7793 35.1968 87.7956L18.4396 91.1599C18.273 91.1927 18.1002 91.1587 17.9588 91.0647C17.8174 90.9707 17.7189 90.8243 17.6847 90.6579L13.0739 67.6814C13.0407 67.5148 13.0749 67.3419 13.169 67.2004C13.2631 67.059 13.4092 66.9603 13.5757 66.9265L30.3361 63.5617C30.5032 63.5295 30.6763 63.5647 30.8177 63.6594C30.959 63.7541 31.0572 63.9008 31.091 64.0676L31.2344 64.7781L35.6408 63.8967C35.7233 63.8799 35.8083 63.8796 35.891 63.8957C35.9737 63.9119 36.0524 63.9443 36.1226 63.9909C36.1928 64.0376 36.253 64.0977 36.2998 64.1677C36.3467 64.2377 36.3793 64.316 36.3957 64.3987L36.8428 66.6291L38.9982 66.199C39.1563 65.6027 39.4776 65.0625 39.9259 64.6389C40.3743 64.2153 40.932 63.925 41.5363 63.801L51.3835 61.8235L55.3008 61.0378L56.6636 60.7644L56.6603 60.7678C56.3925 61.2419 56.3178 61.8011 56.4518 62.3288C56.5214 62.6237 56.6548 62.8996 56.8424 63.1374C57.0301 63.3752 57.2675 63.5691 57.5381 63.7053C58.0384 63.9935 58.5872 64.188 59.1574 64.279L56.0763 64.8977L56.2609 65.823L62.0739 64.6584C62.0259 64.8419 61.9951 65.0293 61.9821 65.2185L61.2881 67.1687C60.8258 67.009 60.3314 66.9652 59.8481 67.0408C59.3648 67.1163 58.9073 67.3091 58.5158 67.6023C58.1242 67.8955 57.8105 68.2799 57.602 68.7224C57.3934 69.1649 57.2964 69.6517 57.3195 70.1404C57.5041 73.8499 57.6908 77.558 57.8796 81.2649ZM39.217 84.9675L35.2648 65.28L31.4839 66.0383" fill="white"/>
</g>
<defs>
<linearGradient id="paint0_linear" x1="1.99075e+08" y1="-7.27777e+06" x2="1.9909e+08" y2="-7.26267e+06" gradientUnits="userSpaceOnUse">
<stop offset="0.104167" stop-color="#C9B899"/>
<stop offset="1" stop-color="#22736A"/>
</linearGradient>
<linearGradient id="paint1_linear" x1="138.5" y1="138.5" x2="21.5" y2="23.5" gradientUnits="userSpaceOnUse">
<stop stop-color="#38A380"/>
<stop offset="1" stop-color="white" stop-opacity="0"/>
</linearGradient>
</defs>
</svg>
