<svg xmlns="http://www.w3.org/2000/svg" xmlns:xlink="http://www.w3.org/1999/xlink" viewBox="0 0 310 310"><defs><linearGradient id="New_Gradient_Swatch_7" x1="45.39603" y1="264.60157" x2="264.59913" y2="45.39847" gradientTransform="matrix(-1, 0, 0, 1, 309.9976, 0)" gradientUnits="userSpaceOnUse"><stop offset="0" stop-color="#38a380"/><stop offset="0.06811" stop-color="#4fa684"/><stop offset="0.19954" stop-color="#74ac8a"/><stop offset="0.33708" stop-color="#93b090"/><stop offset="0.4803" stop-color="#abb494"/><stop offset="0.63159" stop-color="#bcb697"/><stop offset="0.79642" stop-color="#c6b898"/><stop offset="1" stop-color="#c9b899"/></linearGradient></defs><g id="Layer_2" data-name="Layer 2"><g id="Layer_1-2" data-name="Layer 1"><circle cx="155" cy="155" r="154" fill="#fff" stroke-miterlimit="10" stroke-width="2" stroke="url(#New_Gradient_Swatch_7)"/><path d="M53.05613,199.46706H51.28856l3.17578-15.02734H62.019l-.30761,1.57227H55.87254l-1.12988,5.47851h5.42675l-.3291,1.57227h-5.4375Z" fill="#232323"/><path d="M66.95359,188.05691a4.1188,4.1188,0,0,1,3.083,1.15625,4.35735,4.35735,0,0,1,1.13086,3.18164,9.11726,9.11726,0,0,1-.74023,3.64844,6.307,6.307,0,0,1-2.00391,2.65234,4.68815,4.68815,0,0,1-2.85742.93555,4.0923,4.0923,0,0,1-3.09375-1.16211,4.37913,4.37913,0,0,1-1.12109-3.17578,9.09682,9.09682,0,0,1,.751-3.67383,6.22551,6.22551,0,0,1,2.02442-2.64258A4.71943,4.71943,0,0,1,66.95359,188.05691Zm2.42579,4.10156a2.806,2.806,0,0,0-.64258-1.916,2.1959,2.1959,0,0,0-1.74219-.73633,3.00667,3.00667,0,0,0-2.00977.76172,4.88577,4.88577,0,0,0-1.377,2.11132,8.79386,8.79386,0,0,0-.48828,3.00782,3.02819,3.02819,0,0,0,.65234,2.08007,2.3766,2.3766,0,0,0,1.876.73438,2.8335,2.8335,0,0,0,1.92188-.75,4.89008,4.89008,0,0,0,1.331-2.13281A9.65521,9.65521,0,0,0,69.37938,192.15847Z" fill="#232323"/><path d="M77.355,199.67214a3.82533,3.82533,0,0,1-4.19433-4.20312,9.35525,9.35525,0,0,1,.76074-3.793,6.45,6.45,0,0,1,2.10254-2.709,5.00976,5.00976,0,0,1,3.0166-.9707,7.53431,7.53431,0,0,1,2.75488.52344L81.312,189.969a5.80908,5.80908,0,0,0-2.251-.52344,3.221,3.221,0,0,0-2.10157.78516,5.183,5.183,0,0,0-1.49121,2.18945,8.42949,8.42949,0,0,0-.53906,3.04883,2.87371,2.87371,0,0,0,.68359,2.04492,2.45764,2.45764,0,0,0,1.88575.73047,4.68021,4.68021,0,0,0,1.39843-.207,12.69449,12.69449,0,0,0,1.29493-.48242v1.46875A6.1748,6.1748,0,0,1,77.355,199.67214Z" fill="#232323"/><path d="M86.26609,188.20144l-1.542,7.14258a7.76034,7.76034,0,0,0-.18457,1.42969,1.31766,1.31766,0,0,0,1.51074,1.4707,3.06632,3.06632,0,0,0,1.77832-.61719,5.49064,5.49064,0,0,0,1.541-1.76758,9.48135,9.48135,0,0,0,1.01758-2.77539l1.02832-4.88281h1.70605l-2.374,11.26562H89.31883l.22558-2.08789h-.123a6.75314,6.75314,0,0,1-1.92188,1.78907,3.87274,3.87274,0,0,1-1.8916.5039,2.87127,2.87127,0,0,1-2.06543-.71484,2.68037,2.68037,0,0,1-.751-2.03906,9.59566,9.59566,0,0,1,.22656-1.76953l1.501-6.94727Z" fill="#232323"/><path d="M101.33445,196.2698a3.01716,3.01716,0,0,1-1.13574,2.50391,5.04287,5.04287,0,0,1-3.20215.89843,6.82917,6.82917,0,0,1-3.13476-.709v-1.625a6.28969,6.28969,0,0,0,1.55273.668,5.64873,5.64873,0,0,0,1.541.23828,3.12635,3.12635,0,0,0,1.95312-.51563,1.59706,1.59706,0,0,0,.65821-1.31445,1.41831,1.41831,0,0,0-.36036-.98633,7.23466,7.23466,0,0,0-1.55175-1.10156,6.24152,6.24152,0,0,1-1.89161-1.46875,2.714,2.714,0,0,1-.55468-1.707,2.83706,2.83706,0,0,1,1.03808-2.28711,4.12529,4.12529,0,0,1,2.73438-.86719,7.9671,7.9671,0,0,1,3.3916.75977l-.55469,1.4082-.57617-.25586a5.707,5.707,0,0,0-2.26074-.44336,2.30583,2.30583,0,0,0-1.501.44727,1.50589,1.50589,0,0,0-.17969,2.14258,6.3942,6.3942,0,0,0,1.50586,1.05859,8.75362,8.75362,0,0,1,1.57715,1.06055,3.04693,3.04693,0,0,1,.71485.94921A2.70143,2.70143,0,0,1,101.33445,196.2698Z" fill="#232323"/><path d="M105.12742,199.46706h-1.72656l2.40527-11.26562h1.72657Zm1.16211-14.14453a1.35014,1.35014,0,0,1,.32813-.93945,1.09393,1.09393,0,0,1,.85351-.36523.80905.80905,0,0,1,.9043.92578,1.39083,1.39083,0,0,1-.34375.95508,1.03386,1.03386,0,0,1-.79688.39062.95067.95067,0,0,1-.67871-.25195A.93625.93625,0,0,1,106.28953,185.32253Z" fill="#232323"/><path d="M115.63231,199.46706l1.52148-7.11328a9.38324,9.38324,0,0,0,.20508-1.48047,1.45652,1.45652,0,0,0-.36524-1.0371,1.525,1.525,0,0,0-1.166-.39063,3.05059,3.05059,0,0,0-1.78321.61523,5.51342,5.51342,0,0,0-1.53222,1.75782,9.29813,9.29813,0,0,0-1.002,2.76562l-1.03809,4.88281h-1.72656l2.40527-11.26562h1.42871l-.22656,2.08594h.10351a6.885,6.885,0,0,1,1.90625-1.77344,3.83179,3.83179,0,0,1,1.90625-.51758,2.88658,2.88658,0,0,1,2.06153.71289,2.625,2.625,0,0,1,.75488,2,8.39312,8.39312,0,0,1-.23633,1.84961l-1.46972,6.9082Z" fill="#232323"/><path d="M131.5952,188.20144l-.25684,1.09961-2.16895.24609a2.89843,2.89843,0,0,1,.4209,1.625,4.1683,4.1683,0,0,1-1.19726,3.12891,4.38421,4.38421,0,0,1-3.20117,1.168,3.46324,3.46324,0,0,1-.86426-.082q-1.42822.54492-1.42871,1.3457a.54592.54592,0,0,0,.33984.56055,4.12357,4.12357,0,0,0,.98633.2207l1.20312.14453a5.34134,5.34134,0,0,1,2.69727.9043,2.411,2.411,0,0,1,.83789,1.99414,3.35413,3.35413,0,0,1-1.5,2.92773,7.352,7.352,0,0,1-4.22461,1.03907,5.57222,5.57222,0,0,1-3.125-.75586,2.42,2.42,0,0,1-1.13086-2.13282,2.65049,2.65049,0,0,1,.74024-1.87109,5.7579,5.7579,0,0,1,2.39453-1.3457,1.33877,1.33877,0,0,1-.80078-1.24414,1.63219,1.63219,0,0,1,.52343-1.2168,5.3932,5.3932,0,0,1,1.46-.95117,2.67443,2.67443,0,0,1-1.05859-.97266,2.7059,2.7059,0,0,1-.41113-1.49414,4.51519,4.51519,0,0,1,1.22851-3.26953,4.16894,4.16894,0,0,1,3.13965-1.27344,6.2097,6.2097,0,0,1,1.583.20508ZM120.64793,201.471a1.44845,1.44845,0,0,0,.66895,1.25391,3.48828,3.48828,0,0,0,1.98339.46289,5.55855,5.55855,0,0,0,2.92383-.65235,2.0583,2.0583,0,0,0,1.05371-1.8457,1.15271,1.15271,0,0,0-.55468-1.00781,4.46216,4.46216,0,0,0-1.89161-.51367l-1.63378-.16407a3.71461,3.71461,0,0,0-1.89161.9043A2.11417,2.11417,0,0,0,120.64793,201.471Zm2.85742-8.99414a1.79291,1.79291,0,0,0,.46289,1.332,1.74888,1.74888,0,0,0,1.28516.457,2.38638,2.38638,0,0,0,1.418-.43164,2.75233,2.75233,0,0,0,.93066-1.1875,4.12006,4.12006,0,0,0,.32324-1.63867,1.716,1.716,0,0,0-.45214-1.28516,1.77612,1.77612,0,0,0-1.29493-.4414,2.40735,2.40735,0,0,0-1.40332.416,2.73528,2.73528,0,0,0-.93554,1.16016A3.91924,3.91924,0,0,0,123.50535,192.47683Z" fill="#232323"/><path d="M142.9116,188.05691a4.11882,4.11882,0,0,1,3.083,1.15625,4.35735,4.35735,0,0,1,1.13086,3.18164,9.11726,9.11726,0,0,1-.74023,3.64844,6.307,6.307,0,0,1-2.00391,2.65234,4.68815,4.68815,0,0,1-2.85742.93555,4.0923,4.0923,0,0,1-3.09375-1.16211,4.37914,4.37914,0,0,1-1.1211-3.17578,9.09682,9.09682,0,0,1,.751-3.67383,6.22549,6.22549,0,0,1,2.02441-2.64258A4.71946,4.71946,0,0,1,142.9116,188.05691Zm2.42578,4.10156a2.80594,2.80594,0,0,0-.64257-1.916,2.19591,2.19591,0,0,0-1.74219-.73633,3.00667,3.00667,0,0,0-2.00977.76172,4.88568,4.88568,0,0,0-1.37695,2.11132,8.79386,8.79386,0,0,0-.48828,3.00782,3.02814,3.02814,0,0,0,.65234,2.08007,2.3766,2.3766,0,0,0,1.876.73438,2.83348,2.83348,0,0,0,1.92187-.75,4.89,4.89,0,0,0,1.33106-2.13281A9.65522,9.65522,0,0,0,145.33738,192.15847Z" fill="#232323"/><path d="M155.605,199.46706l1.52149-7.11328a9.38409,9.38409,0,0,0,.20507-1.48047,1.45655,1.45655,0,0,0-.36523-1.0371,1.525,1.525,0,0,0-1.166-.39063,3.05054,3.05054,0,0,0-1.7832.61523,5.51356,5.51356,0,0,0-1.53223,1.75782,9.2984,9.2984,0,0,0-1.00195,2.76562l-1.03808,4.88281h-1.72657l2.40528-11.26562h1.42871l-.22657,2.08594h.10352a6.885,6.885,0,0,1,1.90625-1.77344,3.83173,3.83173,0,0,1,1.90625-.51758,2.88654,2.88654,0,0,1,2.06152.71289,2.62505,2.62505,0,0,1,.75489,2,8.39372,8.39372,0,0,1-.23633,1.84961l-1.46973,6.9082Z" fill="#232323"/><path d="M168.062,199.46706h-1.72656l2.40527-11.26562h1.72657Zm1.16211-14.14453a1.35014,1.35014,0,0,1,.32813-.93945,1.09393,1.09393,0,0,1,.85351-.36523.80905.80905,0,0,1,.9043.92578,1.39083,1.39083,0,0,1-.34375.95508,1.03386,1.03386,0,0,1-.79688.39062.95067.95067,0,0,1-.67871-.25195A.93625.93625,0,0,1,169.2241,185.32253Z" fill="#232323"/><path d="M178.56688,199.46706l1.52148-7.11328a9.38324,9.38324,0,0,0,.20508-1.48047,1.45652,1.45652,0,0,0-.36524-1.0371,1.525,1.525,0,0,0-1.166-.39063,3.05054,3.05054,0,0,0-1.7832.61523,5.51332,5.51332,0,0,0-1.53223,1.75782,9.29813,9.29813,0,0,0-1.002,2.76562l-1.03809,4.88281h-1.72656l2.40527-11.26562h1.42871l-.22656,2.08594h.10351a6.885,6.885,0,0,1,1.90625-1.77344,3.83179,3.83179,0,0,1,1.90625-.51758,2.88658,2.88658,0,0,1,2.06153.71289,2.625,2.625,0,0,1,.75488,2,8.39312,8.39312,0,0,1-.23633,1.84961l-1.46972,6.9082Z" fill="#232323"/><path d="M188.4243,199.67214A3.82534,3.82534,0,0,1,184.23,195.469a9.35541,9.35541,0,0,1,.76074-3.793,6.45008,6.45008,0,0,1,2.10254-2.709,5.00981,5.00981,0,0,1,3.0166-.9707,7.53437,7.53437,0,0,1,2.75489.52344l-.4834,1.44922a5.80916,5.80916,0,0,0-2.251-.52344,3.221,3.221,0,0,0-2.10156.78516,5.183,5.183,0,0,0-1.49121,2.18945,8.42927,8.42927,0,0,0-.53906,3.04883,2.87371,2.87371,0,0,0,.68359,2.04492,2.45762,2.45762,0,0,0,1.88574.73047,4.68023,4.68023,0,0,0,1.39844-.207,12.69344,12.69344,0,0,0,1.29492-.48242v1.46875A6.17479,6.17479,0,0,1,188.4243,199.67214Z" fill="#232323"/><path d="M195.01219,199.46706h-1.72656l3.41211-15.99414h1.72753Z" fill="#232323"/><path d="M202.68016,188.20144l-1.542,7.14258a7.76034,7.76034,0,0,0-.18457,1.42969,1.31766,1.31766,0,0,0,1.51075,1.4707,3.06635,3.06635,0,0,0,1.77832-.61719,5.49074,5.49074,0,0,0,1.541-1.76758,9.48107,9.48107,0,0,0,1.01758-2.77539l1.02832-4.88281h1.70606l-2.374,11.26562h-1.42871l.22559-2.08789h-.12305a6.75312,6.75312,0,0,1-1.92187,1.78907,3.8728,3.8728,0,0,1-1.89161.5039,2.87127,2.87127,0,0,1-2.06543-.71484,2.68037,2.68037,0,0,1-.751-2.03906,9.59566,9.59566,0,0,1,.22656-1.76953l1.501-6.94727Z" fill="#232323"/><path d="M217.74852,196.2698a3.01717,3.01717,0,0,1-1.13575,2.50391,5.04284,5.04284,0,0,1-3.20214.89843,6.82918,6.82918,0,0,1-3.13477-.709v-1.625a6.28969,6.28969,0,0,0,1.55273.668,5.64873,5.64873,0,0,0,1.541.23828,3.1264,3.1264,0,0,0,1.95313-.51563,1.59708,1.59708,0,0,0,.6582-1.31445,1.41835,1.41835,0,0,0-.36035-.98633,7.23507,7.23507,0,0,0-1.55176-1.10156,6.24133,6.24133,0,0,1-1.8916-1.46875,2.714,2.714,0,0,1-.55469-1.707,2.837,2.837,0,0,1,1.03809-2.28711,4.12525,4.12525,0,0,1,2.73437-.86719,7.96707,7.96707,0,0,1,3.3916.75977l-.55469,1.4082-.57617-.25586a5.707,5.707,0,0,0-2.26074-.44336,2.30587,2.30587,0,0,0-1.501.44727,1.50588,1.50588,0,0,0-.17968,2.14258,6.39376,6.39376,0,0,0,1.50586,1.05859,8.75346,8.75346,0,0,1,1.57714,1.06055,3.04677,3.04677,0,0,1,.71485.94921A2.70143,2.70143,0,0,1,217.74852,196.2698Z" fill="#232323"/><path d="M221.54149,199.46706h-1.72657l2.40528-11.26562h1.72656Zm1.1621-14.14453a1.35014,1.35014,0,0,1,.32813-.93945,1.094,1.094,0,0,1,.85352-.36523.80905.80905,0,0,1,.90429.92578,1.39083,1.39083,0,0,1-.34375.95508,1.03386,1.03386,0,0,1-.79687.39062.95065.95065,0,0,1-.67871-.25195A.93622.93622,0,0,1,222.70359,185.32253Z" fill="#232323"/><path d="M231.16258,188.05691a4.11882,4.11882,0,0,1,3.083,1.15625,4.3574,4.3574,0,0,1,1.13086,3.18164,9.11709,9.11709,0,0,1-.74024,3.64844,6.30686,6.30686,0,0,1-2.0039,2.65234,4.68818,4.68818,0,0,1-2.85743.93555,4.09232,4.09232,0,0,1-3.09375-1.16211,4.37913,4.37913,0,0,1-1.12109-3.17578,9.09682,9.09682,0,0,1,.751-3.67383,6.22549,6.22549,0,0,1,2.02441-2.64258A4.71944,4.71944,0,0,1,231.16258,188.05691Zm2.42578,4.10156a2.8059,2.8059,0,0,0-.64258-1.916,2.1959,2.1959,0,0,0-1.74219-.73633,3.00663,3.00663,0,0,0-2.00976.76172,4.88568,4.88568,0,0,0-1.37695,2.11132,8.79361,8.79361,0,0,0-.48829,3.00782,3.02814,3.02814,0,0,0,.65235,2.08007,2.3766,2.3766,0,0,0,1.876.73438,2.83349,2.83349,0,0,0,1.92188-.75,4.8899,4.8899,0,0,0,1.33105-2.13281A9.65521,9.65521,0,0,0,233.58836,192.15847Z" fill="#232323"/><path d="M243.85594,199.46706l1.52148-7.11328a9.38324,9.38324,0,0,0,.20508-1.48047,1.45655,1.45655,0,0,0-.36523-1.0371,1.525,1.525,0,0,0-1.166-.39063,3.05054,3.05054,0,0,0-1.7832.61523,5.51344,5.51344,0,0,0-1.53223,1.75782,9.29813,9.29813,0,0,0-1.00195,2.76562l-1.03809,4.88281h-1.72656l2.40527-11.26562h1.42871l-.22656,2.08594h.10352a6.88486,6.88486,0,0,1,1.90625-1.77344,3.83173,3.83173,0,0,1,1.90625-.51758,2.88657,2.88657,0,0,1,2.06152.71289,2.625,2.625,0,0,1,.75488,2,8.39365,8.39365,0,0,1-.23632,1.84961l-1.46973,6.9082Z" fill="#232323"/><path d="M251.5034,197.0198l.082.23633A45.68685,45.68685,0,0,1,248.81,202.18h-1.32617q1.29639-2.93849,2.09765-5.16016Z" fill="#232323"/><path d="M45.90281,224.93386a3.93156,3.93156,0,0,1-2.96972-1.12109,4.28562,4.28562,0,0,1-1.08008-3.10352,9.25681,9.25681,0,0,1,.7666-3.707,6.85546,6.85546,0,0,1,2.0293-2.75976,4.43335,4.43335,0,0,1,2.78613-.98633,3.53457,3.53457,0,0,1,2.36328.68359,2.38528,2.38528,0,0,1,.792,1.90625,3.25986,3.25986,0,0,1-1.70605,2.9043,9.34041,9.34041,0,0,1-4.88281,1.05273h-.33887l-.041.82227a3.187,3.187,0,0,0,.63184,2.10351,2.40907,2.40907,0,0,0,1.958.75391,5.0959,5.0959,0,0,0,1.331-.18359,10.08618,10.08618,0,0,0,1.70117-.67969v1.502a9.31247,9.31247,0,0,1-1.70605.63086A6.85678,6.85678,0,0,1,45.90281,224.93386Zm1.42871-10.207a2.75016,2.75016,0,0,0-1.98828.96484,6.318,6.318,0,0,0-1.42383,2.6836h.123a8.387,8.387,0,0,0,3.59278-.61133,1.92053,1.92053,0,0,0,1.249-1.77344,1.20079,1.20079,0,0,0-.375-.90429A1.65214,1.65214,0,0,0,47.33152,214.72683Z" fill="#232323"/><path d="M57.8159,213.25613a2.8787,2.8787,0,0,1,1.70117.51953,3.20463,3.20463,0,0,1,1.11524,1.45508h.13281l.68945-1.76953h1.28418l-3.45312,16.32226H57.57957l1.03809-4.93359q.09228-.46.58593-2.27149h-.083a7.30874,7.30874,0,0,1-1.90137,1.79883,3.65909,3.65909,0,0,1-1.91211.55664,2.75364,2.75364,0,0,1-2.25586-1.0039,4.31537,4.31537,0,0,1-.81738-2.80079,10.69,10.69,0,0,1,.74609-4.02929,6.696,6.696,0,0,1,2.01367-2.84571A4.45348,4.45348,0,0,1,57.8159,213.25613Zm-1.97363,10.248a2.92787,2.92787,0,0,0,1.95312-.94531,6.98638,6.98638,0,0,0,1.62891-2.43555,7.94522,7.94522,0,0,0,.62207-3.084,2.47,2.47,0,0,0-.56055-1.707,1.99468,1.99468,0,0,0-1.56738-.62695,2.76475,2.76475,0,0,0-1.94238.86914A5.99446,5.99446,0,0,0,54.5366,217.969a9.61789,9.61789,0,0,0-.53418,3.20117Q54.00242,223.50515,55.84227,223.50417Z" fill="#232323"/><path d="M68.01219,213.46121l-1.542,7.14453a7.72272,7.72272,0,0,0-.18457,1.42773,1.31765,1.31765,0,0,0,1.51074,1.4707,3.05268,3.05268,0,0,0,1.77832-.61718,5.47011,5.47011,0,0,0,1.541-1.76758,9.46022,9.46022,0,0,0,1.01758-2.77539l1.02832-4.88281h1.70606l-2.374,11.26562H71.06492l.22559-2.08594h-.123A6.75327,6.75327,0,0,1,69.24559,224.43a3.894,3.894,0,0,1-1.8916.5039,2.87126,2.87126,0,0,1-2.06543-.71484,2.682,2.682,0,0,1-.751-2.041,9.5983,9.5983,0,0,1,.22656-1.76758l1.501-6.94921Z" fill="#232323"/><path d="M82.09422,213.25613a2.90085,2.90085,0,0,1,1.68555.50976,3.29544,3.29544,0,0,1,1.15136,1.46485h.11231l.68945-1.76953h1.30469l-2.39453,11.26562H83.27586l.26758-2.14844h-.083q-1.83984,2.35548-3.875,2.35547a2.70959,2.70959,0,0,1-2.24023-1.01758,4.35557,4.35557,0,0,1-.8125-2.78711,10.60145,10.60145,0,0,1,.73046-3.96679,6.845,6.845,0,0,1,2.01465-2.86719A4.376,4.376,0,0,1,82.09422,213.25613Zm-1.95313,10.248a2.88959,2.88959,0,0,0,1.9834-.95117,7.02852,7.02852,0,0,0,1.60352-2.47656,8.1103,8.1103,0,0,0,.61719-3.05859,2.39655,2.39655,0,0,0-.57618-1.68555,1.95489,1.95489,0,0,0-1.51074-.62695,2.8289,2.8289,0,0,0-1.98926.88476,5.95243,5.95243,0,0,0-1.44336,2.39453,9.65337,9.65337,0,0,0-.52441,3.18555,2.70573,2.70573,0,0,0,.48242,1.75391A1.66879,1.66879,0,0,0,80.14109,223.50417Z" fill="#232323"/><path d="M89.73094,224.72683H88.00438l3.41211-15.99219H93.144Z" fill="#232323"/><path d="M95.09617,224.72683H93.36961l2.40527-11.26562h1.72657Zm1.16211-14.14258a1.35515,1.35515,0,0,1,.32813-.9414,1.09883,1.09883,0,0,1,.85351-.36329.80766.80766,0,0,1,.9043.92383,1.39919,1.39919,0,0,1-.34375.957,1.04008,1.04008,0,0,1-.79688.39063.95071.95071,0,0,1-.67871-.25195A.93625.93625,0,0,1,96.25828,210.58425Z" fill="#232323"/><path d="M102.16746,223.52566a5.58622,5.58622,0,0,0,1.48047-.26758v1.32617a4.75105,4.75105,0,0,1-.86328.2461,4.454,4.454,0,0,1-.82227.10351,2.85766,2.85766,0,0,1-1.96875-.61328,2.32206,2.32206,0,0,1-.68359-1.82422,7.476,7.476,0,0,1,.18555-1.541l1.30566-6.1875H99.0327l.14453-.75,1.90136-.80274,1.28418-2.34375h1.00782l-.56543,2.58985h2.8164l-.26757,1.30664h-2.80567l-1.32617,6.207a7.34734,7.34734,0,0,0-.18457,1.35742,1.22152,1.22152,0,0,0,.29785.88476A1.10522,1.10522,0,0,0,102.16746,223.52566Z" fill="#232323"/><path d="M105.93992,213.46121h1.72754l.76074,5.60351q.10254.709.2002,2.08984.09668,1.38282.09766,2.22657h.06152q.35889-.89357.89453-2.05664.53321-1.16016.791-1.60352l3.34082-6.25976h1.8291l-7.15332,13.17773a7.44494,7.44494,0,0,1-1.8916,2.457,3.69264,3.69264,0,0,1-2.251.6875,4.82485,4.82485,0,0,1-1.43848-.21484V228.18a4.81073,4.81073,0,0,0,1.34571.18554,2.12687,2.12687,0,0,0,1.44433-.51953,5.61357,5.61357,0,0,0,1.167-1.53516l.78125-1.39843Z" fill="#232323"/><path d="M117.64793,222.28152l.082.23633a46.06328,46.06328,0,0,1-2.77539,4.92382H113.6284q1.29639-2.94139,2.09766-5.16015Z" fill="#232323"/><path d="M132.91063,213.25613a4.69963,4.69963,0,0,1,1.23339.14453l-.37011,1.541a4.57629,4.57629,0,0,0-1.0791-.13281,2.85025,2.85025,0,0,0-1.75293.61719,5.39429,5.39429,0,0,0-1.42872,1.71094,8.72443,8.72443,0,0,0-.89941,2.42968l-1.09961,5.16016h-1.72656l2.40527-11.26562h1.42871l-.22656,2.08789h.10352a10.0671,10.0671,0,0,1,1.22265-1.4043,3.89869,3.89869,0,0,1,1.0127-.65625A2.9057,2.9057,0,0,1,132.91063,213.25613Z" fill="#232323"/><path d="M138.57371,224.93386a3.93156,3.93156,0,0,1-2.96972-1.12109,4.28562,4.28562,0,0,1-1.08008-3.10352,9.25681,9.25681,0,0,1,.7666-3.707,6.85537,6.85537,0,0,1,2.0293-2.75976,4.43335,4.43335,0,0,1,2.78613-.98633,3.53457,3.53457,0,0,1,2.36328.68359,2.38528,2.38528,0,0,1,.792,1.90625,3.25986,3.25986,0,0,1-1.70605,2.9043,9.34042,9.34042,0,0,1-4.88282,1.05273h-.33886l-.041.82227a3.187,3.187,0,0,0,.63184,2.10351,2.40907,2.40907,0,0,0,1.958.75391,5.0959,5.0959,0,0,0,1.33105-.18359,10.08651,10.08651,0,0,0,1.70117-.67969v1.502a9.31247,9.31247,0,0,1-1.70605.63086A6.85678,6.85678,0,0,1,138.57371,224.93386Zm1.42871-10.207a2.75015,2.75015,0,0,0-1.98828.96484,6.31778,6.31778,0,0,0-1.42383,2.6836h.12305a8.387,8.387,0,0,0,3.59277-.61133,1.92054,1.92054,0,0,0,1.249-1.77344,1.20079,1.20079,0,0,0-.375-.90429A1.65214,1.65214,0,0,0,140.00242,214.72683Z" fill="#232323"/><path d="M151.45262,221.53152a3.0134,3.0134,0,0,1-1.13574,2.50195,5.04292,5.04292,0,0,1-3.20215.90039,6.83,6.83,0,0,1-3.13477-.71094v-1.623a6.44028,6.44028,0,0,0,1.55274.668,5.64148,5.64148,0,0,0,1.541.23632,3.13939,3.13939,0,0,0,1.95313-.51367,1.60063,1.60063,0,0,0,.6582-1.3164,1.4217,1.4217,0,0,0-.36035-.98633,7.24735,7.24735,0,0,0-1.55176-1.09961,6.24264,6.24264,0,0,1-1.8916-1.4707,2.70456,2.70456,0,0,1-.55469-1.70508,2.83436,2.83436,0,0,1,1.03809-2.28711,4.11565,4.11565,0,0,1,2.73437-.86914,7.94028,7.94028,0,0,1,3.3916.76172l-.55468,1.4082-.57618-.25781a5.70594,5.70594,0,0,0-2.26074-.44141,2.29481,2.29481,0,0,0-1.501.44727,1.50586,1.50586,0,0,0-.17969,2.14257,6.45264,6.45264,0,0,0,1.50586,1.0586,8.66315,8.66315,0,0,1,1.57715,1.05859,3.05384,3.05384,0,0,1,.71484.95117A2.68873,2.68873,0,0,1,151.45262,221.53152Z" fill="#232323"/><path d="M158.51414,224.93386a3.00938,3.00938,0,0,1-1.74707-.51562,3.33287,3.33287,0,0,1-1.16113-1.4375h-.10352l-.041.39062c-.02051.16992-.05664.41016-.10742.71875q-.07764.4629-1.17676,5.69336h-1.707l3.4541-16.32226H157.353l-.26758,2.14843h.082q1.83984-2.332,3.82422-2.332a2.703,2.703,0,0,1,2.21973,1.00195,4.35551,4.35551,0,0,1,.8125,2.81055,10.89874,10.89874,0,0,1-.71,3.998,6.63172,6.63172,0,0,1-1.96289,2.832A4.39208,4.39208,0,0,1,158.51414,224.93386Zm1.91211-10.22851a2.97523,2.97523,0,0,0-2.00976.97656,6.98932,6.98932,0,0,0-1.624,2.457,7.99561,7.99561,0,0,0-.60058,3.03125,2.419,2.419,0,0,0,.57031,1.73242,2.16666,2.16666,0,0,0,1.64941.60156,2.7183,2.7183,0,0,0,1.89649-.832,5.84966,5.84966,0,0,0,1.41308-2.36914,9.86873,9.86873,0,0,0,.53418-3.26367Q162.25535,214.70437,160.42625,214.70535Z" fill="#232323"/><path d="M171.67137,213.31863a4.11131,4.11131,0,0,1,3.083,1.15625,4.35429,4.35429,0,0,1,1.13086,3.18164,9.12412,9.12412,0,0,1-.74024,3.64844,6.31907,6.31907,0,0,1-2.00391,2.65234,4.68634,4.68634,0,0,1-2.85742.93359,4.09858,4.09858,0,0,1-3.09375-1.16015,4.38543,4.38543,0,0,1-1.12109-3.17578,9.10613,9.10613,0,0,1,.751-3.67579,6.23111,6.23111,0,0,1,2.02441-2.64062A4.71944,4.71944,0,0,1,171.67137,213.31863Zm2.42578,4.10156a2.81114,2.81114,0,0,0-.64258-1.918,2.19452,2.19452,0,0,0-1.74219-.73437,3.01437,3.01437,0,0,0-2.00976.75976,4.89279,4.89279,0,0,0-1.377,2.11328,8.77448,8.77448,0,0,0-.48828,3.00586,3.03014,3.03014,0,0,0,.65235,2.082,2.37657,2.37657,0,0,0,1.876.73438,2.8335,2.8335,0,0,0,1.92188-.75,4.89008,4.89008,0,0,0,1.33105-2.13281A9.65521,9.65521,0,0,0,174.09715,217.42019Z" fill="#232323"/><path d="M184.36473,224.72683l1.52148-7.11133a9.41234,9.41234,0,0,0,.20508-1.48047,1.46476,1.46476,0,0,0-.36523-1.03906,1.53255,1.53255,0,0,0-1.166-.39062,3.03975,3.03975,0,0,0-1.7832.61718,5.47155,5.47155,0,0,0-1.53223,1.75782,9.258,9.258,0,0,0-1.00195,2.76562l-1.03809,4.88086H177.478l2.40527-11.26562H181.312l-.22656,2.08789h.10352a6.8547,6.8547,0,0,1,1.90625-1.77344,3.83416,3.83416,0,0,1,1.90625-.51953,2.87894,2.87894,0,0,1,2.06152.71484,2.62213,2.62213,0,0,1,.75488,2,8.40728,8.40728,0,0,1-.23633,1.84961l-1.46972,6.90625Z" fill="#232323"/><path d="M196.57566,221.53152a3.01337,3.01337,0,0,1-1.13574,2.50195,5.0429,5.0429,0,0,1-3.20215.90039,6.83,6.83,0,0,1-3.13476-.71094v-1.623a6.44038,6.44038,0,0,0,1.55273.668,5.64154,5.64154,0,0,0,1.541.23632,3.13934,3.13934,0,0,0,1.95312-.51367,1.60061,1.60061,0,0,0,.65821-1.3164,1.4217,1.4217,0,0,0-.36035-.98633,7.24735,7.24735,0,0,0-1.55176-1.09961,6.24239,6.24239,0,0,1-1.8916-1.4707,2.70456,2.70456,0,0,1-.55469-1.70508,2.83438,2.83438,0,0,1,1.03808-2.28711,4.1157,4.1157,0,0,1,2.73438-.86914,7.94031,7.94031,0,0,1,3.3916.76172l-.55469,1.4082-.57617-.25781a5.70594,5.70594,0,0,0-2.26074-.44141,2.29482,2.29482,0,0,0-1.501.44727,1.50587,1.50587,0,0,0-.17968,2.14257,6.45252,6.45252,0,0,0,1.50585,1.0586,8.66315,8.66315,0,0,1,1.57715,1.05859,3.05387,3.05387,0,0,1,.71485.95117A2.68888,2.68888,0,0,1,196.57566,221.53152Z" fill="#232323"/><path d="M200.36863,224.72683h-1.72656l2.40527-11.26562h1.72657Zm1.16211-14.14258a1.35515,1.35515,0,0,1,.32813-.9414,1.09883,1.09883,0,0,1,.85351-.36329.80766.80766,0,0,1,.9043.92383,1.39919,1.39919,0,0,1-.34375.957,1.04007,1.04007,0,0,1-.79687.39063.95073.95073,0,0,1-.67872-.25195A.93625.93625,0,0,1,201.53074,210.58425Z" fill="#232323"/><path d="M208.98191,224.93386a2.9957,2.9957,0,0,1-1.75195-.52539,3.206,3.206,0,0,1-1.13574-1.42773h-.10352l-.71875,1.74609H203.9868l3.3916-15.99219h1.72754q-.52442,2.48731-.80762,3.80664-.28272,1.32129-.77539,3.08985h.0918a7.51648,7.51648,0,0,1,1.88672-1.78321,3.615,3.615,0,0,1,1.917-.57031,2.72628,2.72628,0,0,1,2.26074,1.01758,4.36412,4.36412,0,0,1,.8125,2.79492,10.95987,10.95987,0,0,1-.7041,3.97266,6.65307,6.65307,0,0,1-1.96387,2.84765A4.38843,4.38843,0,0,1,208.98191,224.93386Zm1.91211-10.22851a2.97523,2.97523,0,0,0-2.00976.97656,6.9893,6.9893,0,0,0-1.624,2.457,7.99543,7.99543,0,0,0-.60059,3.03125,2.419,2.419,0,0,0,.57031,1.73242,2.16667,2.16667,0,0,0,1.64942.60156,2.71828,2.71828,0,0,0,1.89648-.832A5.84967,5.84967,0,0,0,212.189,220.303a9.869,9.869,0,0,0,.53418-3.26367Q212.72313,214.70437,210.894,214.70535Z" fill="#232323"/><path d="M217.86277,224.72683h-1.72656l2.40528-11.26562h1.72656Zm1.16211-14.14258a1.35515,1.35515,0,0,1,.32813-.9414,1.09884,1.09884,0,0,1,.85351-.36329.80766.80766,0,0,1,.9043.92383,1.39919,1.39919,0,0,1-.34375.957,1.04007,1.04007,0,0,1-.79687.39063.95069.95069,0,0,1-.67871-.25195A.93622.93622,0,0,1,219.02488,210.58425Z" fill="#232323"/><path d="M223.187,224.72683h-1.72656l3.41211-15.99219h1.72754Z" fill="#232323"/><path d="M228.55223,224.72683h-1.72657l2.40528-11.26562h1.72656Zm1.16211-14.14258a1.35515,1.35515,0,0,1,.32812-.9414,1.09886,1.09886,0,0,1,.85352-.36329.80765.80765,0,0,1,.90429.92383,1.39915,1.39915,0,0,1-.34375.957,1.04,1.04,0,0,1-.79687.39063.95071.95071,0,0,1-.67871-.25195A.93621.93621,0,0,1,229.71434,210.58425Z" fill="#232323"/><path d="M235.62352,223.52566a5.58628,5.58628,0,0,0,1.48047-.26758v1.32617a4.75094,4.75094,0,0,1-.86329.2461,4.4539,4.4539,0,0,1-.82226.10351,2.85763,2.85763,0,0,1-1.96875-.61328,2.322,2.322,0,0,1-.6836-1.82422,7.476,7.476,0,0,1,.18555-1.541l1.30567-6.1875h-1.76856l.14453-.75,1.90137-.80274,1.28418-2.34375h1.00781l-.56543,2.58985h2.81641l-.26758,1.30664h-2.80566l-1.32618,6.207a7.34821,7.34821,0,0,0-.18457,1.35742,1.22153,1.22153,0,0,0,.29786.88476A1.10522,1.10522,0,0,0,235.62352,223.52566Z" fill="#232323"/><path d="M240.72215,224.72683h-1.72656l2.40527-11.26562h1.72656Zm1.16211-14.14258a1.35515,1.35515,0,0,1,.32812-.9414,1.09886,1.09886,0,0,1,.85352-.36329.80766.80766,0,0,1,.9043.92383,1.39919,1.39919,0,0,1-.34375.957,1.04008,1.04008,0,0,1-.79688.39063.95071.95071,0,0,1-.67871-.25195A.93625.93625,0,0,1,241.88426,210.58425Z" fill="#232323"/><path d="M248.79051,224.93386a3.93159,3.93159,0,0,1-2.96973-1.12109,4.28566,4.28566,0,0,1-1.08008-3.10352,9.25665,9.25665,0,0,1,.76661-3.707,6.85544,6.85544,0,0,1,2.02929-2.75976,4.4334,4.4334,0,0,1,2.78614-.98633,3.53459,3.53459,0,0,1,2.36328.68359,2.38528,2.38528,0,0,1,.792,1.90625,3.25987,3.25987,0,0,1-1.70606,2.9043,9.34036,9.34036,0,0,1-4.88281,1.05273h-.33887l-.041.82227a3.187,3.187,0,0,0,.63183,2.10351,2.40909,2.40909,0,0,0,1.958.75391,5.096,5.096,0,0,0,1.33106-.18359,10.08651,10.08651,0,0,0,1.70117-.67969v1.502a9.31227,9.31227,0,0,1-1.70606.63086A6.85663,6.85663,0,0,1,248.79051,224.93386Zm1.42871-10.207a2.75015,2.75015,0,0,0-1.98828.96484,6.31778,6.31778,0,0,0-1.42383,2.6836h.12305a8.387,8.387,0,0,0,3.59277-.61133,1.92053,1.92053,0,0,0,1.249-1.77344,1.20079,1.20079,0,0,0-.375-.90429A1.6521,1.6521,0,0,0,250.21922,214.72683Z" fill="#232323"/><path d="M261.66941,221.53152a3.01337,3.01337,0,0,1-1.13574,2.50195,5.0429,5.0429,0,0,1-3.20215.90039,6.83,6.83,0,0,1-3.13476-.71094v-1.623a6.44038,6.44038,0,0,0,1.55273.668,5.64154,5.64154,0,0,0,1.541.23632,3.13934,3.13934,0,0,0,1.95312-.51367,1.60061,1.60061,0,0,0,.65821-1.3164,1.4217,1.4217,0,0,0-.36035-.98633,7.24735,7.24735,0,0,0-1.55176-1.09961,6.24239,6.24239,0,0,1-1.8916-1.4707,2.70456,2.70456,0,0,1-.55469-1.70508,2.83438,2.83438,0,0,1,1.03808-2.28711,4.1157,4.1157,0,0,1,2.73438-.86914,7.94031,7.94031,0,0,1,3.3916.76172l-.55469,1.4082-.57617-.25781a5.70594,5.70594,0,0,0-2.26074-.44141,2.29482,2.29482,0,0,0-1.501.44727,1.50587,1.50587,0,0,0-.17968,2.14257,6.45252,6.45252,0,0,0,1.50585,1.0586,8.66315,8.66315,0,0,1,1.57715,1.05859,3.05387,3.05387,0,0,1,.71485.95117A2.68888,2.68888,0,0,1,261.66941,221.53152Z" fill="#232323"/><path d="M77.063,238.51589a2.90079,2.90079,0,0,1,1.68555.50977,3.29547,3.29547,0,0,1,1.15136,1.46484h.11231l.68945-1.76953h1.30469L79.6118,249.9866H78.24461l.26758-2.14844h-.083q-1.83984,2.35547-3.875,2.35547a2.70962,2.70962,0,0,1-2.24023-1.01758,4.35559,4.35559,0,0,1-.8125-2.78711,10.6015,10.6015,0,0,1,.73046-3.9668,6.84492,6.84492,0,0,1,2.01465-2.86718A4.376,4.376,0,0,1,77.063,238.51589Zm-1.95313,10.248a2.88964,2.88964,0,0,0,1.9834-.95117,7.02861,7.02861,0,0,0,1.60352-2.47656,8.11031,8.11031,0,0,0,.61719-3.0586,2.39655,2.39655,0,0,0-.57618-1.68555,1.95493,1.95493,0,0,0-1.51074-.62695,2.82887,2.82887,0,0,0-1.98926.88477,5.95236,5.95236,0,0,0-1.44336,2.39453A9.65329,9.65329,0,0,0,73.27,246.43a2.70568,2.70568,0,0,0,.48242,1.7539A1.66877,1.66877,0,0,0,75.10984,248.76394Z" fill="#232323"/><path d="M89.88035,249.9866l1.52149-7.11133a9.412,9.412,0,0,0,.20507-1.48047,1.46476,1.46476,0,0,0-.36523-1.03906,1.5325,1.5325,0,0,0-1.166-.39063,3.03976,3.03976,0,0,0-1.7832.61719,5.47149,5.47149,0,0,0-1.53222,1.75781,9.25806,9.25806,0,0,0-1.002,2.76563L84.7202,249.9866H82.99363L85.39891,238.721h1.42871l-.22656,2.08789h.10351a6.85512,6.85512,0,0,1,1.90625-1.77344,3.83416,3.83416,0,0,1,1.90625-.51953,2.87887,2.87887,0,0,1,2.06152.71485,2.62212,2.62212,0,0,1,.75489,2,8.408,8.408,0,0,1-.23633,1.84961l-1.46973,6.90625Z" fill="#232323"/><path d="M101.105,238.53738a2.9968,2.9968,0,0,1,2.8877,1.95312h.10254a23.86177,23.86177,0,0,1,.46289-2.8164l.80175-3.67969h1.70606l-3.3916,15.99219h-1.42871l.22558-2.14844h-.082a7.74135,7.74135,0,0,1-1.94238,1.82031,3.6404,3.6404,0,0,1-1.8711.53516,2.69184,2.69184,0,0,1-2.23046-1.00782,4.38307,4.38307,0,0,1-.80176-2.79687,10.66363,10.66363,0,0,1,.74023-4.0293,6.7354,6.7354,0,0,1,1.999-2.82617A4.43529,4.43529,0,0,1,101.105,238.53738Zm-1.95312,10.22656a2.99613,2.99613,0,0,0,1.99414-.96094,6.75438,6.75438,0,0,0,1.6289-2.457,8.10463,8.10463,0,0,0,.60157-3.04687,2.46324,2.46324,0,0,0-.55567-1.73829,2.10085,2.10085,0,0,0-1.61328-.5957,2.75346,2.75346,0,0,0-1.92773.84766,5.98228,5.98228,0,0,0-1.42871,2.38476A9.70429,9.70429,0,0,0,97.312,246.43Q97.312,248.76492,99.15184,248.76394Z" fill="#232323"/><path d="M114.46629,249.9866h-1.72656l3.41211-15.99219h1.72754Z" fill="#232323"/><path d="M122.55516,250.19363a3.93154,3.93154,0,0,1-2.96973-1.1211,4.28559,4.28559,0,0,1-1.08008-3.10351,9.25681,9.25681,0,0,1,.7666-3.707,6.85559,6.85559,0,0,1,2.0293-2.75977,4.43337,4.43337,0,0,1,2.78613-.98633,3.53455,3.53455,0,0,1,2.36328.6836,2.38525,2.38525,0,0,1,.792,1.90625A3.25985,3.25985,0,0,1,125.5366,244.01a9.34025,9.34025,0,0,1-4.88281,1.05274h-.33887l-.041.82226a3.187,3.187,0,0,0,.63183,2.10352,2.40909,2.40909,0,0,0,1.958.75391,5.09563,5.09563,0,0,0,1.33106-.1836,10.08651,10.08651,0,0,0,1.70117-.67969v1.502a9.31227,9.31227,0,0,1-1.70606.63086A6.85663,6.85663,0,0,1,122.55516,250.19363Zm1.42871-10.207a2.75009,2.75009,0,0,0-1.98828.96484,6.31767,6.31767,0,0,0-1.42383,2.68359h.12305a8.387,8.387,0,0,0,3.59277-.61132,1.92054,1.92054,0,0,0,1.249-1.77344,1.20082,1.20082,0,0,0-.375-.9043A1.65216,1.65216,0,0,0,123.98387,239.9866Z" fill="#232323"/><path d="M134.44774,238.51589a2.90073,2.90073,0,0,1,1.68554.50977,3.29542,3.29542,0,0,1,1.15137,1.46484h.1123l.68946-1.76953h1.30468l-2.39453,11.26563h-1.36718l.26757-2.14844h-.083q-1.83986,2.35547-3.875,2.35547a2.70965,2.70965,0,0,1-2.24024-1.01758,4.35565,4.35565,0,0,1-.8125-2.78711,10.60151,10.60151,0,0,1,.73047-3.9668,6.84492,6.84492,0,0,1,2.01465-2.86718A4.376,4.376,0,0,1,134.44774,238.51589Zm-1.95313,10.248a2.88967,2.88967,0,0,0,1.9834-.95117,7.02873,7.02873,0,0,0,1.60351-2.47656,8.11012,8.11012,0,0,0,.61719-3.0586,2.39654,2.39654,0,0,0-.57617-1.68555,1.955,1.955,0,0,0-1.51074-.62695,2.82886,2.82886,0,0,0-1.98926.88477,5.95225,5.95225,0,0,0-1.44336,2.39453,9.653,9.653,0,0,0-.52441,3.18555,2.70568,2.70568,0,0,0,.48242,1.7539A1.66874,1.66874,0,0,0,132.49461,248.76394Z" fill="#232323"/><path d="M146.34031,238.53738a2.99679,2.99679,0,0,1,2.8877,1.95312h.10254a23.86384,23.86384,0,0,1,.46289-2.8164l.80176-3.67969h1.70605l-3.3916,15.99219h-1.42871l.22558-2.14844h-.082a7.74135,7.74135,0,0,1-1.94238,1.82031,3.64039,3.64039,0,0,1-1.87109.53516,2.69184,2.69184,0,0,1-2.23047-1.00782,4.38307,4.38307,0,0,1-.80176-2.79687,10.66363,10.66363,0,0,1,.74023-4.0293,6.7354,6.7354,0,0,1,1.999-2.82617A4.43529,4.43529,0,0,1,146.34031,238.53738Zm-1.95312,10.22656a2.99613,2.99613,0,0,0,1.99414-.96094,6.75453,6.75453,0,0,0,1.62891-2.457,8.10462,8.10462,0,0,0,.60156-3.04687,2.46324,2.46324,0,0,0-.55567-1.73829,2.10084,2.10084,0,0,0-1.61328-.5957,2.75346,2.75346,0,0,0-1.92773.84766,5.98228,5.98228,0,0,0-1.42871,2.38476,9.70429,9.70429,0,0,0-.53907,3.23243Q142.54734,248.76492,144.38719,248.76394Z" fill="#232323"/><path d="M156.978,250.19363a3.93155,3.93155,0,0,1-2.96973-1.1211,4.28563,4.28563,0,0,1-1.08008-3.10351,9.25665,9.25665,0,0,1,.76661-3.707,6.85548,6.85548,0,0,1,2.02929-2.75977,4.4334,4.4334,0,0,1,2.78614-.98633,3.53459,3.53459,0,0,1,2.36328.6836,2.38527,2.38527,0,0,1,.792,1.90625,3.25985,3.25985,0,0,1-1.70606,2.90429,9.34025,9.34025,0,0,1-4.88281,1.05274h-.33887l-.041.82226a3.18709,3.18709,0,0,0,.63183,2.10352,2.40909,2.40909,0,0,0,1.958.75391,5.09563,5.09563,0,0,0,1.33106-.1836,10.08651,10.08651,0,0,0,1.70117-.67969v1.502a9.31227,9.31227,0,0,1-1.70606.63086A6.85663,6.85663,0,0,1,156.978,250.19363Zm1.42871-10.207a2.75011,2.75011,0,0,0-1.98828.96484,6.31767,6.31767,0,0,0-1.42383,2.68359h.12305a8.387,8.387,0,0,0,3.59277-.61132,1.92054,1.92054,0,0,0,1.249-1.77344,1.20082,1.20082,0,0,0-.375-.9043A1.65215,1.65215,0,0,0,158.40672,239.9866Z" fill="#232323"/><path d="M170.03172,238.51589a4.69966,4.69966,0,0,1,1.2334.14453l-.37012,1.541a4.57629,4.57629,0,0,0-1.0791-.13281,2.85032,2.85032,0,0,0-1.75293.61718,5.39414,5.39414,0,0,0-1.42871,1.71094,8.72451,8.72451,0,0,0-.89942,2.42969l-1.0996,5.16016h-1.72657L165.314,238.721h1.42871l-.22657,2.08789h.10352a10.067,10.067,0,0,1,1.22266-1.4043,3.89864,3.89864,0,0,1,1.01269-.65625A2.90587,2.90587,0,0,1,170.03172,238.51589Z" fill="#232323"/><path d="M178.19285,246.79128a3.01339,3.01339,0,0,1-1.13574,2.502,5.04292,5.04292,0,0,1-3.20215.90039,6.83,6.83,0,0,1-3.13476-.71094v-1.623a6.44,6.44,0,0,0,1.55273.668,5.64158,5.64158,0,0,0,1.541.23633,3.13942,3.13942,0,0,0,1.95312-.51367,1.60061,1.60061,0,0,0,.6582-1.31641,1.42167,1.42167,0,0,0-.36035-.98633,7.24744,7.24744,0,0,0-1.55176-1.09961,6.24249,6.24249,0,0,1-1.8916-1.4707,2.70457,2.70457,0,0,1-.55468-1.70508A2.83441,2.83441,0,0,1,173.105,239.385a4.11573,4.11573,0,0,1,2.73438-.86914,7.94049,7.94049,0,0,1,3.3916.76172l-.55469,1.4082-.57617-.25781a5.70611,5.70611,0,0,0-2.26074-.4414,2.29482,2.29482,0,0,0-1.501.44726,1.50589,1.50589,0,0,0-.17969,2.14258,6.45291,6.45291,0,0,0,1.50586,1.05859,8.66361,8.66361,0,0,1,1.57715,1.0586,3.05368,3.05368,0,0,1,.71484.95117A2.68869,2.68869,0,0,1,178.19285,246.79128Z" fill="#232323"/><path d="M187.146,249.9866l1.52148-7.11133a8.48312,8.48312,0,0,0,.18457-1.38867,1.34047,1.34047,0,0,0-1.51074-1.52149,3.08074,3.08074,0,0,0-1.7832.60742,5.346,5.346,0,0,0-1.53223,1.76172,9.48952,9.48952,0,0,0-1.00195,2.791l-1.03809,4.86133h-1.72656l3.3916-15.99219h1.72754q-.186.84083-.35547,1.63281c-.1123.5293-.22949,1.06445-.34863,1.60938q-.18018.81738-.39063,1.71093-.21093.89356-.48828,1.94336h.11231a6.84125,6.84125,0,0,1,1.90722-1.80859,3.87008,3.87008,0,0,1,1.96778-.54492,2.80137,2.80137,0,0,1,2.082.74023,2.84592,2.84592,0,0,1,.73437,2.0957,8.30941,8.30941,0,0,1-.23633,1.707q-.3999,1.98339-1.49023,6.90625Z" fill="#232323"/><path d="M194.13524,249.9866h-1.72657L194.814,238.721h1.72656Zm1.1621-14.14258a1.35516,1.35516,0,0,1,.32813-.94141,1.09885,1.09885,0,0,1,.85352-.36328.80765.80765,0,0,1,.90429.92383,1.39923,1.39923,0,0,1-.34375.957,1.04006,1.04006,0,0,1-.79687.39062.95065.95065,0,0,1-.67871-.25195A.93621.93621,0,0,1,195.29734,235.844Z" fill="#232323"/><path d="M202.74852,250.19363a3.00937,3.00937,0,0,1-1.74707-.51563,3.33277,3.33277,0,0,1-1.16114-1.4375h-.10351l-.041.39063c-.02051.16992-.05664.41015-.10742.71875q-.07764.46288-1.17676,5.69336h-1.707l3.4541-16.32227h1.42871l-.26757,2.14844h.082q1.83984-2.332,3.82422-2.332a2.70293,2.70293,0,0,1,2.21972,1.00195,4.35545,4.35545,0,0,1,.8125,2.81055,10.89872,10.89872,0,0,1-.71,3.998,6.63167,6.63167,0,0,1-1.96289,2.832A4.39207,4.39207,0,0,1,202.74852,250.19363Zm1.91211-10.22852a2.97523,2.97523,0,0,0-2.00977.97656,6.98944,6.98944,0,0,0-1.624,2.457,7.99554,7.99554,0,0,0-.60059,3.03125,2.419,2.419,0,0,0,.57031,1.73242,2.16668,2.16668,0,0,0,1.64942.60156,2.71828,2.71828,0,0,0,1.89648-.832,5.84974,5.84974,0,0,0,1.41309-2.36914,9.869,9.869,0,0,0,.53418-3.26367Q206.48973,239.96414,204.66063,239.96511Z" fill="#232323"/><path d="M221.3325,238.51589a2.90079,2.90079,0,0,1,1.68555.50977,3.29547,3.29547,0,0,1,1.15136,1.46484h.11231l.68945-1.76953h1.30469l-2.39453,11.26563h-1.36719l.26758-2.14844h-.083q-1.83984,2.35547-3.875,2.35547a2.70962,2.70962,0,0,1-2.24023-1.01758,4.35559,4.35559,0,0,1-.8125-2.78711,10.60131,10.60131,0,0,1,.73047-3.9668,6.84482,6.84482,0,0,1,2.01464-2.86718A4.376,4.376,0,0,1,221.3325,238.51589Zm-1.95312,10.248a2.88963,2.88963,0,0,0,1.98339-.95117,7.02861,7.02861,0,0,0,1.60352-2.47656,8.11031,8.11031,0,0,0,.61719-3.0586,2.39659,2.39659,0,0,0-.57617-1.68555,1.955,1.955,0,0,0-1.51075-.62695,2.82883,2.82883,0,0,0-1.98925.88477,5.95214,5.95214,0,0,0-1.44336,2.39453,9.653,9.653,0,0,0-.52442,3.18555,2.70568,2.70568,0,0,0,.48242,1.7539A1.66877,1.66877,0,0,0,219.37938,248.76394Z" fill="#232323"/><path d="M230.71629,248.78542a5.58613,5.58613,0,0,0,1.48047-.26757V249.844a4.75192,4.75192,0,0,1-.86328.24609,4.45425,4.45425,0,0,1-.82227.10352,2.85766,2.85766,0,0,1-1.96875-.61328,2.322,2.322,0,0,1-.68359-1.82422,7.47669,7.47669,0,0,1,.18554-1.541l1.30567-6.1875h-1.76856l.14454-.75,1.90136-.80273,1.28418-2.34375h1.00781L231.354,238.721h2.8164l-.26758,1.30664h-2.80566l-1.32617,6.207a7.34744,7.34744,0,0,0-.18457,1.35742,1.22153,1.22153,0,0,0,.29785.88477A1.10522,1.10522,0,0,0,230.71629,248.78542Z" fill="#232323"/><path d="M112.18309,275.45339a3.92424,3.92424,0,0,1-2.96973-1.12109,4.2856,4.2856,0,0,1-1.08008-3.10352,9.24753,9.24753,0,0,1,.7666-3.70507,6.85552,6.85552,0,0,1,2.0293-2.75977,4.422,4.422,0,0,1,2.78613-.98633,3.524,3.524,0,0,1,2.36328.6836,2.37988,2.37988,0,0,1,.792,1.90625,3.262,3.262,0,0,1-1.70606,2.90429,9.35944,9.35944,0,0,1-4.88281,1.05274h-.33887l-.041.82226a3.18134,3.18134,0,0,0,.63183,2.10156,2.41,2.41,0,0,0,1.958.75586,5.10055,5.10055,0,0,0,1.33106-.18554,10.22142,10.22142,0,0,0,1.70117-.67774v1.5a9.19294,9.19294,0,0,1-1.70606.63282A6.962,6.962,0,0,1,112.18309,275.45339Zm1.42871-10.207a2.74549,2.74549,0,0,0-1.98828.9668,6.32127,6.32127,0,0,0-1.42383,2.68164h.123a8.387,8.387,0,0,0,3.59277-.61133,1.91808,1.91808,0,0,0,1.249-1.77148,1.20509,1.20509,0,0,0-.375-.90625A1.66122,1.66122,0,0,0,113.6118,265.24636Z" fill="#232323"/><path d="M119.7993,275.24831l-1.28516-11.26562h1.72754l.65723,6.30078q.24756,2.65137.24707,3.7207h.06152q1.30518-2.82714,1.83984-3.8125l3.34082-6.209h1.82911l-6.07422,11.26562Z" fill="#232323"/><path d="M132.28758,275.45339a3.92425,3.92425,0,0,1-2.96973-1.12109,4.28564,4.28564,0,0,1-1.08008-3.10352,9.24737,9.24737,0,0,1,.76661-3.70507,6.85541,6.85541,0,0,1,2.02929-2.75977,4.422,4.422,0,0,1,2.78614-.98633,3.524,3.524,0,0,1,2.36328.6836,2.37987,2.37987,0,0,1,.792,1.90625,3.262,3.262,0,0,1-1.70606,2.90429,9.35944,9.35944,0,0,1-4.88281,1.05274h-.33887l-.041.82226a3.1814,3.1814,0,0,0,.63183,2.10156,2.41,2.41,0,0,0,1.958.75586,5.10055,5.10055,0,0,0,1.33106-.18554,10.22142,10.22142,0,0,0,1.70117-.67774v1.5a9.19294,9.19294,0,0,1-1.70606.63282A6.962,6.962,0,0,1,132.28758,275.45339Zm1.42871-10.207a2.74551,2.74551,0,0,0-1.98828.9668,6.32127,6.32127,0,0,0-1.42383,2.68164h.12305a8.387,8.387,0,0,0,3.59277-.61133,1.91808,1.91808,0,0,0,1.249-1.77148,1.20509,1.20509,0,0,0-.375-.90625A1.66121,1.66121,0,0,0,133.71629,265.24636Z" fill="#232323"/><path d="M145.34129,263.77761a4.70528,4.70528,0,0,1,1.2334.14258l-.37012,1.543a4.47979,4.47979,0,0,0-1.0791-.13477,2.86231,2.86231,0,0,0-1.75293.61719,5.43768,5.43768,0,0,0-1.42871,1.71094,8.76038,8.76038,0,0,0-.89942,2.43164l-1.0996,5.16015h-1.72657l2.40528-11.26562h1.42871l-.22657,2.08594h.10352a10.14394,10.14394,0,0,1,1.22266-1.40235,3.85735,3.85735,0,0,1,1.01269-.6582A2.90517,2.90517,0,0,1,145.34129,263.77761Z" fill="#232323"/><path d="M146.95457,263.98269h1.72754l.76074,5.60156q.10254.709.2002,2.0918.09668,1.38281.09765,2.22461h.06153q.35889-.89355.89453-2.05469.5332-1.16309.791-1.60351l3.34082-6.25977h1.82911l-7.15332,13.17773a7.43353,7.43353,0,0,1-1.89161,2.45508,3.69379,3.69379,0,0,1-2.251.68946,4.82649,4.82649,0,0,1-1.43848-.2168v-1.38672a4.88334,4.88334,0,0,0,1.3457.18555,2.13649,2.13649,0,0,0,1.44434-.51953,5.59656,5.59656,0,0,0,1.167-1.53711l.78125-1.39844Z" fill="#232323"/><path d="M163.45164,275.24831h-1.72656l3.41211-15.99414h1.72754Z" fill="#232323"/><path d="M171.54051,275.45339a3.92425,3.92425,0,0,1-2.96973-1.12109,4.28564,4.28564,0,0,1-1.08008-3.10352,9.24737,9.24737,0,0,1,.76661-3.70507,6.85541,6.85541,0,0,1,2.02929-2.75977,4.422,4.422,0,0,1,2.78614-.98633,3.524,3.524,0,0,1,2.36328.6836,2.37987,2.37987,0,0,1,.792,1.90625,3.262,3.262,0,0,1-1.70606,2.90429,9.35944,9.35944,0,0,1-4.88281,1.05274h-.33887l-.041.82226a3.1814,3.1814,0,0,0,.63183,2.10156,2.41,2.41,0,0,0,1.958.75586,5.10055,5.10055,0,0,0,1.33106-.18554,10.22142,10.22142,0,0,0,1.70117-.67774v1.5a9.19294,9.19294,0,0,1-1.70606.63282A6.962,6.962,0,0,1,171.54051,275.45339Zm1.42871-10.207a2.74551,2.74551,0,0,0-1.98828.9668,6.32127,6.32127,0,0,0-1.42383,2.68164h.12305a8.387,8.387,0,0,0,3.59277-.61133,1.91808,1.91808,0,0,0,1.249-1.77148,1.20509,1.20509,0,0,0-.375-.90625A1.66121,1.66121,0,0,0,172.96922,265.24636Z" fill="#232323"/><path d="M179.15672,275.24831l-1.28516-11.26562h1.72754l.65723,6.30078q.24756,2.65137.24707,3.7207h.06152q1.30518-2.82714,1.83985-3.8125l3.34082-6.209h1.8291l-6.07422,11.26562Z" fill="#232323"/><path d="M191.645,275.45339a3.92425,3.92425,0,0,1-2.96973-1.12109,4.28564,4.28564,0,0,1-1.08007-3.10352,9.24753,9.24753,0,0,1,.7666-3.70507,6.85541,6.85541,0,0,1,2.02929-2.75977,4.422,4.422,0,0,1,2.78614-.98633,3.524,3.524,0,0,1,2.36328.6836,2.37987,2.37987,0,0,1,.792,1.90625,3.262,3.262,0,0,1-1.70605,2.90429,9.35951,9.35951,0,0,1-4.88282,1.05274h-.33886l-.041.82226a3.18134,3.18134,0,0,0,.63184,2.10156,2.40994,2.40994,0,0,0,1.958.75586,5.10049,5.10049,0,0,0,1.33106-.18554,10.22142,10.22142,0,0,0,1.70117-.67774v1.5a9.19314,9.19314,0,0,1-1.706.63282A6.96214,6.96214,0,0,1,191.645,275.45339Zm1.42871-10.207a2.74551,2.74551,0,0,0-1.98828.9668,6.32127,6.32127,0,0,0-1.42383,2.68164h.12305a8.387,8.387,0,0,0,3.59277-.61133,1.91809,1.91809,0,0,0,1.249-1.77148,1.20509,1.20509,0,0,0-.375-.90625A1.66125,1.66125,0,0,0,193.07371,265.24636Z" fill="#232323"/><path d="M199.28172,275.24831h-1.72656l3.41211-15.99414h1.72754Z" fill="#232323"/><path d="M156.77464,86.19265a1.81652,1.81652,0,0,0-1.82129,1.76929,1.85034,1.85034,0,0,0,1.88525,1.83471,1.76714,1.76714,0,0,0,1.73194-1.69067A1.82823,1.82823,0,0,0,156.77464,86.19265Z" fill="#4464a4"/><path d="M94.68309,152.39785a9.17328,9.17328,0,0,0,4.0791-7.5777,18.269,18.269,0,0,0-.38745-3.9097,4.41141,4.41141,0,0,0-.68628-1.3086c-.80908.80566-1.52881,1.50682-1.98926,1.96556-1.6665-.99658-3.00977-1.80786-4.68726-2.81079.262-.73584.62354-1.75586.95874-2.69751-1.25683-1.83716-2.77539-3.74683-3.94165-5.8501a13.8989,13.8989,0,0,1-1.67114-6.93042c.03027-3.37695.00757-6.75488.00757-10.17529,1.57617-.12452,3.06689-.20337,4.5481-.36646,4.772-.52563,9.17138-1.89954,12.48071-5.65686.66186-1.00879.88135-.85626,1.41894-.12457a13.57423,13.57423,0,0,0,6.54175,4.41378,26.61264,26.61264,0,0,0,9.21631,1.59789c.35376.00244.3291.00023,1.3291.00023v1.34009c0,3.06591-.04492,6.13232-.0874,9.19775a16.07256,16.07256,0,0,1-4.68689,11.15649c-.519.54468-1.13995,1.01124-1.52765,1.35743.31372,1.176.54868,2.094.72861,2.76757-1.57984.937-2.9305,1.73511-4.59407,2.72168-.34131-.27539-1.01811-.81933-1.68559-1.35791-1.66894,2.417-.62087,9.22632,2.38011,11.12769a12.96508,12.96508,0,0,1,.21642-2.96509,2.72191,2.72191,0,0,1,2.381-1.85937,3.22363,3.22363,0,0,1,3.59506,2.34863c.36182,2.58032-.67757,4.01062-3.804,4.43a21.7928,21.7928,0,0,1,3.14518,2.268h7.00977a13.88268,13.88268,0,0,1,4.96045-6.162c4.76733-3.26929,9.64136-6.50787,14.46435-9.69635,1.81787-1.20166,1.7815-1.2493,3.44751.32565,1.606,1.51856,3.2273,2.99681,4.92969,4.40429,2.39453,1.97949,5.08106,1.75121,7.50855-.47291q2.621-2.40125,5.259-4.79151c.71973-.65405,1.27539-.65015,2.1355.01782,1.7229,1.33813,3.62524,2.44507,5.46484,3.63086,4.08594,2.63428,8.533,5.03186,11.718,8.88a16.4106,16.4106,0,0,1,2.77514,3.86414h6.89624c1.36231-1,2.53809-1.85144,3.70289-2.58435,3.2622-2.05274,5.084-5.0069,4.80273-8.98444-.09009-1.27661.32007-2.73343-.71265-3.79275a9.26871,9.26871,0,0,0-2.14355-1.78493c-5.2124-2.76636-8.4856-7.065-9.25391-12.85743-.53955-4.06494-.32129-8.23829-.44238-12.38648,1.803-.13476,3.41528-.19458,5.01025-.39111,4.364-.53785,8.42041-1.846,11.68482-4.97828a19.96548,19.96548,0,0,0,1.249-1.86548,9.28485,9.28485,0,0,0,.52075.92994c2.88526,3.47753,6.639,4.97387,10.91834,5.67944,1.97729.32617,4.03381.446,6.03381.68091v1.0166c0,2.82861.21106,5.65869.13489,8.48511-.19238,7.13916-3.36456,12.48144-9.68366,15.79834a4.42926,4.42926,0,0,0-2.63162,4.40551,11.84056,11.84056,0,0,0,.92613,5.65235,11.45786,11.45786,0,0,0,4.04144,4.45178,33.49461,33.49461,0,0,1,3.66521,2.52527h85.54175a152.89209,152.89209,0,0,0-305.78418,0H90.21507C91.84983,153.50027,93.2805,153.31338,94.68309,152.39785Zm24.19922-6.48694a14.98875,14.98875,0,0,0-2.7334-.92627,14.8819,14.8819,0,0,0-2.90479.13526c-.26465-2.02344.30225-3.37671,1.62866-3.92652a3.62834,3.62834,0,0,1,3.83545.68067A3.76113,3.76113,0,0,1,118.88231,145.91091ZM226.501,112.033a28.40249,28.40249,0,0,1-10.35962-1.884,12.19232,12.19232,0,0,1-6.17432-4.84546,21.70667,21.70667,0,0,1-1.45947-3.71728,25.06659,25.06659,0,0,1-1.5686,3.84179,12.07834,12.07834,0,0,1-6.344,4.82007,27.10278,27.10278,0,0,1-10.241,1.78394c.36572-6.49219,7.397-14.63306,16.88378-15.12329C218.35032,96.33425,225.91063,104.94265,226.501,112.033ZM208.62059,57.40359c.41748-.09155,1.17309.03564,1.33105.32031a15.43126,15.43126,0,0,1,1.36939,3.30127c.085.30322-.44068,1.00049-.82373,1.14111a1.39922,1.39922,0,0,1-1.21045-.56738,34.23964,34.23964,0,0,1-1.49488-3.16333C208.11082,58.01247,208.3137,57.471,208.62059,57.40359ZM202.69944,49.147c.71778-.59156,1.32886-.156,1.8147.448.9082,1.12842,1.81738,2.2566,2.69141,3.41114a5.706,5.706,0,0,1,.5,1.126c-.21192.33936-.40283.90479-.59522.90528a2.61343,2.61343,0,0,1-1.71313-.38452,29.63213,29.63213,0,0,1-2.71118-3.38135C202.21043,50.61038,201.92088,49.78884,202.69944,49.147ZM201.864,70.81472a4.07465,4.07465,0,0,1,4.25635-3.50342c3.344-.00683,6.69239.10083,10.03076-.03564a4.74967,4.74967,0,0,1,4.74244,4.34033,5.59105,5.59105,0,0,1,.00683.59692v13.846c0,.09424-.21069.18872-.31518.2832-.72071-.54638-1.48059-1.04882-2.15491-1.64746a9.94548,9.94548,0,0,0-7.39923-2.8208,48.42575,48.42575,0,0,1-4.89517,0,4.38145,4.38145,0,0,1-4.08309-2.72851,3.46974,3.46974,0,0,1-.40922-1.33448A62.28286,62.28286,0,0,1,201.864,70.81472Zm-6.78955-28.23511a1.60771,1.60771,0,0,1,1.571-.24243c1.415.9834,2.71948,2.12866,4.03369,3.251.17065.14551.16138.502.2915.956-.18652.29346-.3435.8147-.67968.9878a1.36611,1.36611,0,0,1-1.19068-.16089,42.76091,42.76091,0,0,1-3.90991-3.20606A1.61077,1.61077,0,0,1,195.07444,42.57961Zm-7.24878-5.76733c1.5691.78589,3.08057,1.69263,4.584,2.60181.57275.34619.84228.98535.30273,1.49536-.35009.331-1.11035.65185-1.45849.489-1.62549-.76-3.18482-1.66748-4.73023-2.58545-.2146-.12768-.22-.60791-.24609-.6897C186.289,36.93923,186.9785,36.388,187.82566,36.81228ZM142.49705,138.98977a17.4406,17.4406,0,0,0-2.491,1.53223c-1.60034,1.49218-3.39062,1.22412-5.219.79614-1.94434-.45532-3.87207-.98169-6.14185-1.5625a9.32037,9.32037,0,0,1,1.11866-1.17651,14.79879,14.79879,0,0,0,5.58325-7.71,25.41661,25.41661,0,0,0,.79443-12.1228c-.34619-2.04248-.64111-4.09375-.99682-6.38281.40991.22851.75927.31421.93481.53711a27.90218,27.90218,0,0,0,9.606,7.68848,3.9125,3.9125,0,0,1,2.36206,3.9104c-.13159,2.33081.03833,4.69751-.30054,6.99267A10.78648,10.78648,0,0,1,142.49705,138.98977Zm22.51026-1.311c-2.073,1.82447-4.10621,3.69654-6.22071,5.4712a3.92106,3.92106,0,0,1-5.342-.28687q-2.807-2.54-5.70337-4.98022a1.15192,1.15192,0,0,1-.23364-1.7981,12.41846,12.41846,0,0,0,2.229-7.43677c-.05053-1.27221-.01513-2.54834-.00732-3.82275a5.978,5.978,0,0,0-3.6023-5.75366,24.9107,24.9107,0,0,1-6.9038-4.85254,22.67333,22.67333,0,0,1-6.46289-12.31421,35.9472,35.9472,0,0,1-.47779-5.41065c-.06762-4.2561-.02173-8.51391-.02173-12.74707,1.82251-.46655,3.60254-.7749,5.27344-1.3833a15.05724,15.05724,0,0,0,7.27149-5.20385c.92358-1.26612,1.08276-1.22144,2.26562-.17041a26.65525,26.65525,0,0,0,9.95947,5.375,47.85541,47.85541,0,0,0,16.00952,1.90136c1.57032-.05273,3.13331-.30322,4.70289-.42041.74169-.05517,1.49121-.00927,2.54028-.00927,0,4.53125.092,8.97314-.02832,13.40918a23.9914,23.9914,0,0,1-13.62134,21.68432,6.78029,6.78029,0,0,0-4.02344,6.52295c.00782,2.6438-.12109,5.3064.94214,7.81079a18.92962,18.92962,0,0,0,1.60474,3.12256C165.55369,136.98074,165.457,137.28274,165.00731,137.67873Zm10.27734,3.92334a1.83462,1.83462,0,0,1-1.24463-.17773c-1.85742-1.15112-3.73853-2.28149-5.48853-3.58423a9.116,9.116,0,0,1-3.82641-6.23193,57.1226,57.1226,0,0,1-.175-8.116,3.6266,3.6266,0,0,1,2.41748-3.0896,26.1857,26.1857,0,0,0,7.97534-5.74267,5.37522,5.37522,0,0,1,.79224-.5835q.15308.09558.30591.19116c-.19654,1.592-.38941,3.18433-.59034,4.77588-.73657,5.83032-.31518,11.46411,3.21705,16.42163a25.66707,25.66707,0,0,0,3.39917,3.28125c.27075.25928.50781.55371.94775,1.03809C180.21678,140.45,177.75731,141.05593,175.28465,141.60207Zm1.54687-108.011a1.48138,1.48138,0,0,1,1.32081-.623,52.915,52.915,0,0,1,5.05566,1.79028c.34888.14039.55127.64478.69214.82056-.05835,1.25415-.71948,1.564-1.47534,1.34277a45.8028,45.8028,0,0,1-5.16675-1.81713C176.93211,34.96511,176.69651,34.032,176.83152,33.59109Zm-6.636-2.55737a19.1775,19.1775,0,0,1,3.21557.5957c.87061.20605.79883.98633.61866,1.54-.12232.37573-.69507.60522-.9231.78613a24.1799,24.1799,0,0,1-3.28906-.76514,1.45641,1.45641,0,0,1-.675-1.239A1.42327,1.42327,0,0,1,170.19554,31.03372Zm9.74,51.20581c-4.15088.12158-8.10571.45581-12.04126.30029a35.56762,35.56762,0,0,1-15.94751-3.98462,17.43608,17.43608,0,0,1-6.28565-5.55908,14.67314,14.67314,0,0,1-5.19775,6.20923,15.80589,15.80589,0,0,1-7.78906,2.64111,21.47424,21.47424,0,0,1,7.75342-14.09229c8.67871-7.05322,18.24853-7.989,28.03711-2.53442C174.92064,68.81716,178.65721,74.59866,179.93553,82.23953Zm-28.645-60.84913c1.65918.1377,3.33935.0254,5.01025.0254,1.51172,0,3.032.10253,4.53345-.02149,3.03418-.25073,4.88281,1.72046,5.05,4.51318a40.35779,40.35779,0,0,1-.19238,6.40137,4.19842,4.19842,0,0,1-4.2544,3.6604,2.53239,2.53239,0,0,0-2.57593,1.18286c-.501.83252-1.39013,1.43189-1.88842,2.26538-.5962.99707-1.01416.59424-1.5044.01734-.7644-.89942-1.56177-1.77881-2.24145-2.73975a1.73044,1.73044,0,0,0-1.70069-.71069,4.47613,4.47613,0,0,1-3.44409-1.23706,4.6623,4.6623,0,0,1-1.47827-3.58862c.00024-1.7107.03906-3.42237-.009-5.1316A4.47085,4.47085,0,0,1,151.29051,21.3904ZM138.20457,31.67507a23.22328,23.22328,0,0,1,3.169-.80322c.25171.19727.77929.4021.86157.72168.14477.56274.30127,1.33789-.5752,1.56543a16.35766,16.35766,0,0,1-3.09106.63037,1.51878,1.51878,0,0,1-1.19483-.88989A1.54689,1.54689,0,0,1,138.20457,31.67507Zm-9.9458,3.07764a42.616,42.616,0,0,1,5.176-1.79883,1.2584,1.2584,0,0,1,1.09692.58643c.11206.45312-.0144,1.33178-.29443,1.45556-1.77.78223-3.60987,1.4065-5.5813,2.14038-.32105-.2583-.87085-.50268-.86621-.73608C127.80125,35.82815,127.91233,34.90359,128.25877,34.75271ZM119.094,39.34744a35.82348,35.82348,0,0,1,4.4519-2.53955,1.15211,1.15211,0,0,1,1.7041.55639,1.29447,1.29447,0,0,1-.7041,1.76343c-1.35742.67529-2.65259,1.47583-3.98926,2.19531a4.95582,4.95582,0,0,1-1.0498.2627c-.23926-.15381-.79517-.34766-.79541-.54248C118.71067,40.46121,118.73289,39.59451,119.094,39.34744Zm-8.36231,6.45385c1.25366-1.248,2.625-2.38012,3.98706-3.51416.17627-.14673.53906-.07007,1.10059-.12426.146.10278.65844.27587.72241.55249a1.66929,1.66929,0,0,1-.21558,1.36377,41.558,41.558,0,0,1-4.00586,3.28881,1.59386,1.59386,0,0,1-1.52319-.11718A1.4606,1.4606,0,0,1,110.73167,45.80129Zm-6.74512,7.66846a34.86487,34.86487,0,0,1,3.30933-4.23437,1.6441,1.6441,0,0,1,1.55054.008,1.43507,1.43507,0,0,1,.21753,1.3999c-.98389,1.4502-2.09156,2.81885-3.20313,4.177-.18652.22754-.61011.26074-.708.29907C103.8535,55.1155,103.36766,54.42068,103.98655,53.46975Zm-3.92382,7.38159a17.3721,17.3721,0,0,1,1.39233-3.20117c.12622-.24316.57422-.31982.68921-.37842,1.13208.00293,1.65356.74976,1.324,1.62427a13.91055,13.91055,0,0,1-1.16113,2.675,1.646,1.646,0,0,1-1.44946.582A1.54045,1.54045,0,0,1,100.06273,60.85134ZM91.90037,80.427c0-2.666-.14075-5.332-.13733-7.99805a4.92663,4.92663,0,0,1,5.07477-5.147c3.05957.11694,6.09244.02392,9.1564.02856a4.66133,4.66133,0,0,1,4.76912,4.77637c.00244,1.59155-.07259,3.18652.00578,4.77417a4.87561,4.87561,0,0,1-4.99357,5.0249c-1.67115.021-3.35006.09033-5.01461-.01611A8.3978,8.3978,0,0,0,94.539,84.24539c-.81225.6853-1.63865,1.323-2.63865,2.20092ZM100.674,97.43289a17.91523,17.91523,0,0,1,21.02881,14.38061c-5.34546-.12939-10.33178-.99756-14.508-4.47974a7.96369,7.96369,0,0,1-2.61646-4.35986c-.10718-.44043-.22729-.87768-.43091-1.6604-.20508.76343-.3269,1.19531-.437,1.63037-.70752,2.79419-2.6167,4.59375-4.95654,6.0625-2.853,1.79077-9.48,3.13013-12.0249,2.67188C86.5886,106.41506,92.63719,98.792,100.674,97.43289ZM87.96141,144.91335a3.19748,3.19748,0,1,1,6.291-.572c-.05053.69068-.219,1.05347-1.03174.72876a3.89594,3.89594,0,0,0-3.77636.5044C88.605,146.13381,88.2888,146.01492,87.96141,144.91335Zm3.86279,1.52979A3.09338,3.09338,0,0,1,94.97,149.70193,3.053,3.053,0,0,1,91.7285,152.845c-1.8274-.00756-2.98731-1.31762-2.97266-3.35742A2.99244,2.99244,0,0,1,91.8242,146.44314Z" fill="#4464a4"/></g></g></svg>