<svg xmlns="http://www.w3.org/2000/svg" xmlns:xlink="http://www.w3.org/1999/xlink" viewBox="0 0 146.1074 146.1069"><defs><linearGradient id="linear-gradient" x1="2515.11413" y1="-3331.08229" x2="2516.11412" y2="-3331.08229" gradientTransform="matrix(103.3135, 103.3135, 103.3135, -103.3135, 84321.92209, -603969.61053)" gradientUnits="userSpaceOnUse"><stop offset="0" stop-color="#c9b899"/><stop offset="0.18779" stop-color="#c6b798"/><stop offset="0.34018" stop-color="#bcb395"/><stop offset="0.4802" stop-color="#abac91"/><stop offset="0.61284" stop-color="#93a28a"/><stop offset="0.74019" stop-color="#749581"/><stop offset="0.86361" stop-color="#4e8576"/><stop offset="0.9818" stop-color="#22736a"/><stop offset="1" stop-color="#1a7068"/></linearGradient></defs><g id="Layer_2" data-name="Layer 2"><g id="Layer_1-2" data-name="Layer 1"><circle cx="73.0537" cy="73.05333" r="72.05355" transform="translate(-22.53954 112.2396) rotate(-67.28992)" fill="#fff"/><path d="M1,73.0532H0A73.0537,73.0537,0,1,0,73.0537,0,73.054,73.054,0,0,0,0,73.0532H2a71.05371,71.05371,0,1,1,20.8112,50.2426A70.82624,70.82624,0,0,1,2,73.0532Z" fill="url(#linear-gradient)"/><circle cx="73.0537" cy="74.66257" r="48.51609" transform="translate(-20.01715 27.23727) rotate(-18.62239)" fill="#4464a4"/><path d="M11.00039,63.14555a2.32761,2.32761,0,0,0,.46631,2.041,3.62946,3.62946,0,0,0,2.18018,1.14356,3.66663,3.66663,0,0,0,2.46924-.19043,2.3765,2.3765,0,0,0,1.17138-1.74414,5.1485,5.1485,0,0,0,.10059-1.0625q-.00586-.52441-.06445-1.10157l1.17773.23438a6.5181,6.5181,0,0,1-.0752,2.331,3.68713,3.68713,0,0,1-1.68554,2.62989,4.73492,4.73492,0,0,1-3.39551.35937,5.229,5.229,0,0,1-2.19678-.93945,3.49274,3.49274,0,0,1-1.228-1.69727,4.33725,4.33725,0,0,1-.0957-2.25,5.47087,5.47087,0,0,1,1.0166-2.28906l1.04493.72558a7.48291,7.48291,0,0,0-.5337.835A3.3645,3.3645,0,0,0,11.00039,63.14555Z" fill="#4d4d4d"/><path d="M17.73184,52.03226a4.66829,4.66829,0,0,1,2.69629,2.10157,3.82335,3.82335,0,0,1,.07129,3.20019A3.84753,3.84753,0,0,1,18.392,59.7598a4.69376,4.69376,0,0,1-3.4331-.13379,4.621,4.621,0,0,1-2.70166-2.10351,3.89243,3.89243,0,0,1-.041-3.21289,3.81461,3.81461,0,0,1,2.1001-2.40039A4.66486,4.66486,0,0,1,17.73184,52.03226Zm-2.25,6.18946a3.81538,3.81538,0,0,0,2.4751.21484,2.62966,2.62966,0,0,0,1.30712-3.57031,3.82917,3.82917,0,0,0-2.04394-1.42481,3.84194,3.84194,0,0,0-2.46387-.2207,2.25129,2.25129,0,0,0-1.41113,1.499,2.2965,2.2965,0,0,0,.11084,2.07813A3.78318,3.78318,0,0,0,15.48184,58.22172Z" fill="#4d4d4d"/><path d="M24.40078,48.8848l-7.4375-1.458-.02343.04q1.42528.71925,2.62793,1.42481l3.59472,2.10644-.64746,1.1045-7.39062-4.332,1.00586-1.71485,7.08984,1.37891.01855-.03028-4.63183-5.57324,1.00879-1.7207,7.38965,4.331-.68555,1.1709-3.65527-2.1416q-.55078-.32373-1.41993-.87012-.86718-.54637-1.043-.67578l-.02343.041,4.85254,5.84472Z" fill="#4d4d4d"/><path d="M30.65908,39.85941l-7.01367-2.87207-.03125.03516q1.25978.98145,2.30274,1.90722l3.11914,2.7627-.84961.958L21.7753,36.96976l1.31835-1.48828,6.68848,2.72559.02442-.02637L26.3417,31.81644,27.664,30.32328l6.41113,5.68066-.89844,1.01563L30.00479,34.21q-.47754-.42334-1.22461-1.12793-.74561-.70312-.89258-.86426l-.03125.03516,3.62891,6.6748Z" fill="#4d4d4d"/><path d="M35.58926,23.75883l3.44434,4.34375a3.25711,3.25711,0,0,1,.71093,1.55664,2.71092,2.71092,0,0,1-.248,1.59375,4.13727,4.13727,0,0,1-1.21485,1.45508,3.48757,3.48757,0,0,1-2.47949.88867,3.041,3.041,0,0,1-2.14062-1.26367l-3.42969-4.32422,1.11035-.88086L34.71035,31.375a2.15431,2.15431,0,0,0,1.35938.918,2.05153,2.05153,0,0,0,1.50586-.55176,1.8012,1.8012,0,0,0,.26953-2.86914l-3.36035-4.23633Z" fill="#4d4d4d"/><path d="M48.96621,25.877l-1.50976.84277-7.03028-3.89453-.042.02344.21192.31836q.602.91113,1.043,1.69922L43.809,28.75492l-1.11817.624L38.516,21.89847l1.49414-.833,7.0039,3.86816.03125-.01758q-.07617-.11133-.5205-.834-.44238-.72218-.67383-1.13574l-2.1875-3.91993,1.12793-.62988Z" fill="#4d4d4d"/><path d="M51.03946,24.99125l-3.27344-7.916,1.30371-.53906,3.27344,7.916Z" fill="#4d4d4d"/><path d="M57.26309,22.69926l-1.34766.41308-2.16015-7.041-2.42579.74414L50.97793,15.667l6.19922-1.90137.35156,1.14844-2.42578.74414Z" fill="#4d4d4d"/><path d="M62.54629,16.76273l1.33692-4.20215,1.51074-.26464-1.92481,5.66113.57325,3.27246-1.39454.24512-.56543-3.22657L58.35,13.53031l1.51172-.26465Z" fill="#4d4d4d"/><path d="M71.15371,20.45707,70.974,11.89262l1.40918-.0293.17968,8.56445Z" fill="#4d4d4d"/><path d="M81.87637,21.13676l-1.7207-.16309-3.582-7.19434-.04786-.00488-.00586.38281q-.0205,1.09278-.10449,1.99024l-.41894,4.43359L74.72207,20.461l.80567-8.52832,1.70312.16016L80.8041,19.252l.03516.00293q.00293-.13476.04492-.98145.04542-.8452.08985-1.31835l.42187-4.46875,1.28613.12207Z" fill="#4d4d4d"/><path d="M86.893,22.22758l-1.37012-.332,1.73536-7.15821-2.46582-.59765.2832-1.168,6.30176,1.52734-.28321,1.168-2.46582-.59766Z" fill="#4d4d4d"/><path d="M95.24063,24.96976l-4.56934-1.71289,3.00684-8.02148,4.56933,1.71289-.415,1.1084-3.249-1.21778-.81934,2.1836L96.808,20.16312l-.41113,1.09766-3.04395-1.14063-.94433,2.51758,3.249,1.21875Z" fill="#4d4d4d"/><path d="M99.64688,23.37211l-1.60157,3.02441-1.24609-.65918L100.808,18.166l2.15332,1.14063a4.02607,4.02607,0,0,1,1.89551,1.70605,2.22355,2.22355,0,0,1-.169,2.03223,2.345,2.345,0,0,1-2.54687,1.23047l.3789,4.49023-1.418-.751-.22364-3.99024Zm.543-1.02539.86621.459a2.25283,2.25283,0,0,0,1.43164.34766,1.31666,1.31666,0,0,0,.89551-.7461,1.15847,1.15847,0,0,0,.06543-1.1455,2.63019,2.63019,0,0,0-1.124-.95313l-.82422-.43652Z" fill="#4d4d4d"/><path d="M107.76358,32.5098l.69238-2.43261-2.67383-1.92969L103.706,29.58305l-1.20606-.87012,7.64942-5.08789,1.24414.89843-2.41406,8.86329Zm1.09668-3.62988.71-2.36426q.06445-.24169.2334-.74219c.11132-.333.19824-.57421.25683-.7246a13.00976,13.00976,0,0,1-1.2998,1.00585l-1.9375,1.35547Z" fill="#4d4d4d"/><path d="M117.57852,31.17777a2.3289,2.3289,0,0,0-1.97363-.70117,3.63612,3.63612,0,0,0-2.13379,1.22754,3.65148,3.65148,0,0,0-1.16309,2.18652,2.372,2.372,0,0,0,.84375,1.92285,5.05941,5.05941,0,0,0,.84277.65528q.44679.27685.96485.53613l-.83008.86914a6.51943,6.51943,0,0,1-1.92676-1.31348,3.69779,3.69779,0,0,1-1.31738-2.833,4.74424,4.74424,0,0,1,1.51855-3.05957,5.22666,5.22666,0,0,1,1.97071-1.35059,3.51433,3.51433,0,0,1,2.09082-.12695,4.34485,4.34485,0,0,1,1.95117,1.126,5.46658,5.46658,0,0,1,1.38672,2.08594l-1.17188.49317a7.81262,7.81262,0,0,0-.41992-.89844A3.32837,3.32837,0,0,0,117.57852,31.17777Z" fill="#4d4d4d"/><path d="M116.98672,41.81547l-.88867-1.09571,5.7207-4.63867-1.59765-1.9707.93261-.75684,4.084,5.03711-.93262.75684-1.59766-1.9707Z" fill="#4d4d4d"/><path d="M119.25918,44.92484l7.127-4.75293.78222,1.17383-7.127,4.75293Z" fill="#4d4d4d"/><path d="M128.67422,52.78031a4.66753,4.66753,0,0,1-3.376.53809,4.449,4.449,0,0,1-2.72363-5.32715,4.69419,4.69419,0,0,1,2.44043-2.419,4.61614,4.61614,0,0,1,3.38184-.53906,3.88675,3.88675,0,0,1,2.37695,2.16113,3.81926,3.81926,0,0,1,.32129,3.17481A4.665,4.665,0,0,1,128.67422,52.78031Zm-2.98877-5.86719a3.82151,3.82151,0,0,0-1.84619,1.66114,2.62923,2.62923,0,0,0,1.71777,3.39257,4.833,4.833,0,0,0,4.2793-2.17187,2.25009,2.25009,0,0,0-.13281-2.05469,2.29736,2.29736,0,0,0-1.59473-1.33691A3.78576,3.78576,0,0,0,125.68545,46.91312Z" fill="#4d4d4d"/><path d="M127.6127,63.1768l-.51709-1.6504,5.24463-6.08984-.01465-.04492-.35449.14258q-1.01514.4043-1.87647.67383l-4.249,1.332-.38281-1.22071,8.17431-2.5625.51172,1.63086L128.934,61.45805l.01074.0332c.084-.03516.3916-.14649.92285-.33985q.79688-.2871,1.25-.42773l4.2832-1.34375.38575,1.23242Z" fill="#4d4d4d"/><path d="M42.1084,91.6084a2.0938,2.0938,0,1,1-2.8911-.6402A2.09384,2.09384,0,0,1,42.1084,91.6084Z" fill="#fff"/><path d="M42.1084,91.6084l-.4217.2687a2.737,2.737,0,1,0,.0001.0001l.4216-.2688.4216-.2689a2.58638,2.58638,0,1,1,0,.0001Z" fill="#4464a4"/><path d="M40.2388,94.2548a2.09363,2.09363,0,1,1-2.9531-.2133A2.094,2.094,0,0,1,40.2388,94.2548Z" fill="#fff"/><path d="M40.2388,94.2548l-.3781.3272a1.59314,1.59314,0,1,1-1.20609-.5511,1.58525,1.58525,0,0,1,1.20609.5511l.3781-.3272.378-.3271a2.59381,2.59381,0,1,0,.6324,1.6962,2.58918,2.58918,0,0,0-.6324-1.6962Z" fill="#4464a4"/><path d="M40.8277,97.3906A2.09373,2.09373,0,1,1,37.937,96.75,2.09394,2.09394,0,0,1,40.8277,97.3906Z" fill="#fff"/><path d="M40.8277,97.3906l-.4217.2687a.87511.87511,0,1,0,0,.0001l.4217-.2688.4215-.2689a1.50934,1.50934,0,1,0,.0001.0001Z" fill="#4464a4"/><path d="M48.4063,91.6084a2.0938,2.0938,0,1,0,2.8906-.6402A2.09384,2.09384,0,0,0,48.4063,91.6084Z" fill="#fff"/><path d="M48.4063,91.6084l-.42169-.2688a2.32554,2.32554,0,1,1-.00011.0002l.4218.2686.4217.2685a.92778.92778,0,1,1-.0002.0002Z" fill="#4464a4"/><path d="M50.2754,94.2548a2.09382,2.09382,0,1,0,2.9536-.2133A2.09447,2.09447,0,0,0,50.2754,94.2548Z" fill="#fff"/><path d="M50.2754,94.2548l-.3782-.3271a2.59393,2.59393,0,1,0,1.9627-.8968,2.58661,2.58661,0,0,0-1.9627.8968l.3782.3271.3781.3272a1.59388,1.59388,0,1,1-.3886,1.0421,1.58861,1.58861,0,0,1,.3886-1.0421Z" fill="#4464a4"/><path d="M49.6865,97.3906a2.09373,2.09373,0,1,0,2.8912-.6406A2.09408,2.09408,0,0,0,49.6865,97.3906Z" fill="#fff"/><path d="M49.6865,97.3906l-.4216-.2688a4.45492,4.45492,0,1,1-.0001.0001l.4217.2687.4217.2687a.92721.92721,0,1,1-.0001.0001Z" fill="#4464a4"/><path d="M61.06061,76.6997S65.7031,89.0546,58.375,93.2421c4.1875,1.0469,5.7671,1.7413,10.7354.3472,4.9677-1.394,6.0151-11.8633-1.3135-16.0508C60.4688,73.351,61.06061,76.6997,61.06061,76.6997Z" fill="#fff"/><path d="M83.9893,76.6997s-4.6426,12.3549,2.6855,16.5424c-4.1875,1.0469-5.7671,1.7413-10.7353.3472-4.9678-1.394-6.0147-11.8633,1.3134-16.0508S83.9893,76.6997,83.9893,76.6997Z" fill="#fff"/><path d="M54.0498,102.3144l-3.5991-2.2241a4.83328,4.83328,0,0,1-2.292-4.1104V94.52a2.08052,2.08052,0,0,1,1.21391-1.8755,9.19467,9.19467,0,0,0,5.28509-8.3237V80.0913a9.19455,9.19455,0,1,0-18.38909,0v4.2295a9.19467,9.19467,0,0,0,5.28509,8.3237A2.08036,2.08036,0,0,1,42.76761,94.52v1.4599a4.83217,4.83217,0,0,1-2.292,4.1104l-2.727,1.685a40.5661,40.5661,0,0,0,20.997,13.6495v-4.689A9.89944,9.89944,0,0,0,54.0498,102.3144Z" fill="#fff"/><path d="M54.0498,102.3144l-3.5991-2.2241a4.82817,4.82817,0,0,1-1.1182-.9561h-.0014l-2.7412,2.4292a1.69885,1.69885,0,0,1-2.2535,0l-2.7412-2.4292h-.0019a4.81545,4.81545,0,0,1-1.11769.9561l-2.727,1.685a40.5661,40.5661,0,0,0,20.997,13.6495v-4.689A9.89944,9.89944,0,0,0,54.0498,102.3144Z" fill="#fff"/><path d="M102.73,95.9799V94.52a2.08035,2.08035,0,0,1,1.2139-1.8755,9.19468,9.19468,0,0,0,5.2851-8.3237V80.0913a9.19455,9.19455,0,1,0-18.3891,0v4.2295a9.19468,9.19468,0,0,0,5.2851,8.3237A2.08052,2.08052,0,0,1,97.3389,94.52v1.4599a4.83215,4.83215,0,0,1-2.292,4.1104l-3.5991,2.2241a9.89943,9.89943,0,0,0-4.6958,8.4214v4.689a40.56618,40.56618,0,0,0,20.997-13.6495l-2.727-1.685A4.83215,4.83215,0,0,1,102.73,95.9799Z" fill="#fff"/><path d="M103.9038,99.1342h-.0014l-2.7412,2.4292a1.69885,1.69885,0,0,1-2.2535,0l-2.7412-2.4292h-.00189a4.83621,4.83621,0,0,1-1.11771.9561l-3.5991,2.2241a9.89943,9.89943,0,0,0-4.6958,8.4214v4.689a40.56618,40.56618,0,0,0,20.997-13.6495l-2.727-1.685A4.82817,4.82817,0,0,1,103.9038,99.1342Z" fill="#fff"/><path d="M45.4634,70.8964h-.0005q-.40065,0-.7934.0342a9.19646,9.19646,0,0,0-8.3252,7.9956c7.98531-.0229,9.15431-4.1045,9.15431-4.1045s1.16349,4.0557,9.083,4.1036A9.1941,9.1941,0,0,0,45.4634,70.8964Z" fill="#fff"/><path d="M45.4634,70.8964v-.5h-.0005q-.42255,0-.8362.0361a9.69613,9.69613,0,0,0-8.7785,8.4309l-.07159.5644.56909-.0016c4.0752-.0097,6.4908-1.065,7.8808-2.1691a5.01489,5.01489,0,0,0,1.7527-2.2977l-.48059-.1377-.48071.1379a5.00723,5.00723,0,0,0,1.7409,2.2871c1.37981,1.1006,3.7772,2.1561,7.8197,2.1785l.5707.0035-.07159-.5663a9.694,9.694,0,0,0-9.61421-8.466v1a8.69412,8.69412,0,0,1,8.6221,7.5917l.49611-.0628.003-.5c-3.87711-.0254-6.02111-1.0217-7.20291-1.9609a4.92708,4.92708,0,0,1-1.151-1.269,3.07923,3.07923,0,0,1-.2067-.3953l-.0388-.0988-.0067-.0196-.0742.0236.0748-.0215-.0006-.0021-.0742.0236.0748-.0215-.4812-1.6765-.4801,1.6768.0751.0215-.0744-.0236-.0007.0021.0751.0215-.0744-.0236a4.24463,4.24463,0,0,1-1.52789,1.8803c-1.21271.9146-3.36011,1.8514-7.14781,1.8639l.0015.5.496.0628a8.69654,8.69654,0,0,1,7.8717-7.5602q.372-.03195.7509-.0324h.0005Z" fill="#4464a4"/><path d="M84.85161,96.4643,79.7783,93.3295a6.80955,6.80955,0,0,1-3.2299-5.7929V85.479a2.93176,2.93176,0,0,1,1.7109-2.6436A12.95908,12.95908,0,0,0,85.7085,71.104V65.1425a12.95945,12.95945,0,0,0-25.91889,0V71.104A12.95948,12.95948,0,0,0,67.2383,82.8354a2.93174,2.93174,0,0,1,1.7109,2.6436v2.0576a6.80955,6.80955,0,0,1-3.2299,5.7929l-5.0728,3.1348a13.95292,13.95292,0,0,0-6.6182,11.8696v6.2242a40.59906,40.59906,0,0,0,37.441,0v-6.2242A13.95382,13.95382,0,0,0,84.85161,96.4643Z" fill="#fff"/><path d="M84.85161,96.4643l.26279-.4253-5.0732-3.1348a6.30949,6.30949,0,0,1-2.9929-5.3676V85.479a2.43181,2.43181,0,0,1,1.4238-2.1912A13.45933,13.45933,0,0,0,86.2085,71.104V65.1425a13.45945,13.45945,0,0,0-26.91889,0V71.104A13.45945,13.45945,0,0,0,67.0254,83.2878a2.43164,2.43164,0,0,1,1.4238,2.1912v2.0576a6.30962,6.30962,0,0,1-2.9928,5.3676L60.38361,96.039a14.45305,14.45305,0,0,0-6.85531,12.2949v6.5273l.2688.1402a41.09857,41.09857,0,0,0,37.9033,0l.2688-.1401v-6.5274A14.45348,14.45348,0,0,0,85.1144,96.039l-.26279.4253-.26291.4253a13.45388,13.45388,0,0,1,6.3806,11.4443v6.2242h.5l-.2312-.4434a40.09856,40.09856,0,0,1-36.9786,0l-.2312.4434h.5v-6.2242a13.45312,13.45312,0,0,1,6.381-11.4443l5.0728-3.1347a7.30986,7.30986,0,0,0,3.4671-6.2183V85.479a3.432,3.432,0,0,0-1.9981-3.096,12.45966,12.45966,0,0,1-7.1616-11.279V65.1425a12.4595,12.4595,0,1,1,24.919,0V71.104a12.45909,12.45909,0,0,1-7.1621,11.279,3.43177,3.43177,0,0,0-1.998,3.096v2.0576a7.30963,7.30963,0,0,0,3.4671,6.2183l5.0732,3.1348Z" fill="#4464a4"/><path d="M84.85161,96.4643,79.7783,93.3295a6.81,6.81,0,0,1-1.5756-1.3471h-.002l-3.8638,3.4238a2.39454,2.39454,0,0,1-3.1762,0l-3.8638-3.4238h-.0024a6.79968,6.79968,0,0,1-1.5752,1.3471l-5.0728,3.1348a13.95292,13.95292,0,0,0-6.6182,11.8696v6.2242a40.59906,40.59906,0,0,0,37.441,0v-6.2242A13.95382,13.95382,0,0,0,84.85161,96.4643Z" fill="#fff"/><path d="M84.85161,96.4643l.26279-.4253-5.0732-3.1348a6.31151,6.31151,0,0,1-1.46-1.2484l-.1497-.1734H78.011L74.0053,95.032a1.89476,1.89476,0,0,1-2.513.0001l-4.0058-3.5497h-.4211l-.1497.1736a6.29764,6.29764,0,0,1-1.4594,1.2482L60.38361,96.039a14.45305,14.45305,0,0,0-6.85531,12.2949v6.5273l.2688.1402a41.09857,41.09857,0,0,0,37.9033,0l.2688-.1401v-6.5274A14.45348,14.45348,0,0,0,85.1144,96.039l-.26279.4253-.26291.4253a13.45388,13.45388,0,0,1,6.3806,11.4443v6.2242h.5l-.2312-.4434a40.09856,40.09856,0,0,1-36.9786,0l-.2312.4434h.5v-6.2242a13.45312,13.45312,0,0,1,6.381-11.4443l5.0728-3.1347a7.29817,7.29817,0,0,0,1.6911-1.4461l-.3787-.3264v.5h.0024v-.5l-.3317.3742,3.8638,3.4238a2.89461,2.89461,0,0,0,3.8395,0l3.8638-3.4238-.3316-.3742v.5h.002v-.5l-.3786.3266a7.30942,7.30942,0,0,0,1.6913,1.4459l5.0733,3.1348Z" fill="#4464a4"/><path d="M72.749,52.1831h-.00039q-.56476,0-1.11871.0478A12.96169,12.96169,0,0,0,59.8965,63.5004a8.54078,8.54078,0,0,0,7.377-4.2827S71.461,65.499,85.60061,63.499A12.95859,12.95859,0,0,0,72.749,52.1831Z" fill="#fff"/><path d="M72.749,52.1831v-.5h-.00039q-.58621,0-1.16161.0497A13.46128,13.46128,0,0,0,59.4004,63.4376l-.0726.5731.5777-.0103a9.04443,9.04443,0,0,0,5.994-2.3043,8.40557,8.40557,0,0,0,1.8212-2.2548l-.4472-.2236-.4161.2774a9.21071,9.21071,0,0,0,2.9655,2.4927A20.67385,20.67385,0,0,0,80.323,64.3921a38.21891,38.21891,0,0,0,5.34761-.398l.48789-.069-.06189-.4889A13.45852,13.45852,0,0,0,72.749,51.6831v1A12.45852,12.45852,0,0,1,85.1045,63.5618l.49611-.0628-.07011-.4951a37.21775,37.21775,0,0,1-5.2075.3882,19.6831,19.6831,0,0,1-9.9995-2.27,10.3016,10.3016,0,0,1-2.058-1.5312,6.09458,6.09458,0,0,1-.4518-.489l-.1004-.1284-.0212-.0293-.0036-.0052-.1245.0851.1255-.0837-.001-.0014-.1245.0851.1255-.0837-.4781-.7168-.3852.7705-.0025.0049a7.61853,7.61853,0,0,1-1.6973,2.0453,8.03892,8.03892,0,0,1-5.2389,1.9562l.009.4999.496.0628A12.462,12.462,0,0,1,71.6724,52.7291q.53205-.04575,1.07621-.046H72.749Z" fill="#4464a4"/><path d="M100.0347,70.8964h-.0005q-.40065,0-.7935.0342a9.19663,9.19663,0,0,0-8.3252,7.9956c7.9854-.0229,9.1543-4.1045,9.1543-4.1045s1.1636,4.0557,9.083,4.1036A9.1939,9.1939,0,0,0,100.0347,70.8964Z" fill="#fff"/><path d="M100.0347,70.8964v-.5h-.0005q-.42255,0-.8362.0361a9.69613,9.69613,0,0,0-8.7785,8.4309l-.0716.5644.569-.0016c4.0753-.0097,6.4909-1.065,7.8809-2.1691a5.015,5.015,0,0,0,1.7527-2.2977l-.4807-.1377-.4806.1379a5.00723,5.00723,0,0,0,1.7409,2.2871c1.3798,1.1006,3.7772,2.1561,7.8197,2.1785l.5707.0035-.0716-.5663a9.6941,9.6941,0,0,0-9.6142-8.466v1a8.69412,8.69412,0,0,1,8.6221,7.5917l.496-.0628.003-.5c-3.877-.0254-6.021-1.0217-7.2028-1.9609a4.92708,4.92708,0,0,1-1.151-1.269,3.06623,3.06623,0,0,1-.2067-.3953l-.0388-.0988-.0067-.0196-.0743.0236.0749-.0215-.0006-.0021-.0743.0236.0749-.0215-.4812-1.6766-.4801,1.6769.075.0215-.0744-.0236-.0006.0021.075.0215-.0744-.0236a4.2428,4.2428,0,0,1-1.5279,1.8803c-1.2126.9146-3.36,1.8514-7.1477,1.8639l.0014.5.49611.0628a8.69652,8.69652,0,0,1,7.87169-7.5602q.372-.03195.7509-.0324h.0005Z" fill="#4464a4"/><path d="M75.292,31.4956H70.20561A2.3927,2.3927,0,0,0,67.813,33.8881v2.7017a2.39262,2.39262,0,0,0,2.39261,2.3921h.76609l1.7773,2.1352,1.7769-2.1352h.7661a2.39263,2.39263,0,0,0,2.39261-2.3921V33.8881A2.39271,2.39271,0,0,0,75.292,31.4956Z" fill="#fff"/><path d="M46.4487,55.5048h-4.934a2.46871,2.46871,0,0,0-2.4688,2.4688v7.3613l1.7476-1.4072a4.23343,4.23343,0,0,1,2.6567-.9365h2.9985a2.469,2.469,0,0,0,2.4688-2.4688V57.9736A2.46871,2.46871,0,0,0,46.4487,55.5048Z" fill="#fff"/><path d="M99.0488,55.5048h4.9341a2.46871,2.46871,0,0,1,2.4688,2.4688v7.3613l-1.7476-1.4072a4.23309,4.23309,0,0,0-2.6562-.9365H99.0488a2.469,2.469,0,0,1-2.4687-2.4688V57.9736A2.4687,2.4687,0,0,1,99.0488,55.5048Z" fill="#fff"/><path d="M44.43361,52.3432l.00569-.0162a11.38809,11.38809,0,0,1,.5751-1.2818.5.5,0,0,0-.8901-.4558,11.70973,11.70973,0,0,0-.638,1.4335.5.5,0,1,0,.9474.3203Z" fill="#fff"/><path d="M58.5723,39.4543q1.1685-.47025,2.4606-.8828a.5.5,0,0,0-.3026-.9531q-1.32853.422-2.5313.9082a.5.5,0,0,0,.3733.9277Zm-4.6601,2.3388c.7093-.4369,1.4679-.8615,2.279-1.2675a.5.5,0,0,0-.44759-.8942c-.83751.4192-1.62181.8581-2.35581,1.3102a.5.5,0,1,0,.5245.8515Zm-4.1497,3.1346c.6023-.5563,1.2664-1.1156,1.9978-1.667a.5.5,0,0,0-.602-.7985c-.7586.5719-1.4483,1.1527-2.0743,1.7309a.5.5,0,1,0,.6785.7346Zm-3.4136,3.9049a22.89118,22.89118,0,0,1,1.5989-2.0442.5.5,0,0,0-.7521-.6591,23.88627,23.88627,0,0,0-1.6686,2.1337.5.5,0,1,0,.8219.5696Z" fill="#fff"/><path d="M63.56761,37.8633q.70678-.17145,1.44709-.3238a.5.5,0,0,0-.2012-.9795q-.7572.15555-1.4817.3315a.5.5,0,1,0,.23581.9718Z" fill="#fff"/><path d="M101.4752,52.0233a11.617,11.617,0,0,0-.6382-1.4341.5.5,0,0,0-.8898.4562c.211.4118.3579.7412.4511.9652.0466.112.0798.1976.1009.2539l.0228.0622.0057.0161a.5.5,0,1,0,.9476-.3195Z" fill="#fff"/><path d="M86.7628,38.5266q-1.2036-.48435-2.5313-.9082a.5.5,0,0,0-.3026.9531q1.293.41055,2.4606.8828a.5.5,0,0,0,.3734-.9277Zm4.8111,2.4151c-.734-.4521-1.51829-.891-2.3557-1.3103a.50005.50005,0,0,0-.4477.8943c.81111.406,1.5697.8306,2.279,1.2675a.5.5,0,0,0,.5244-.8515Zm4.3038,3.2515c-.626-.5781-1.3157-1.1589-2.0743-1.7309a.5.5,0,1,0-.602.7985c.7314.5514,1.3955,1.1108,1.9978,1.667a.5.5,0,1,0,.6785-.7346Zm3.5571,4.0697a23.90082,23.90082,0,0,0-1.6688-2.1335.49994.49994,0,1,0-.7519.6591,22.92626,22.92626,0,0,1,1.5989,2.0442.5.5,0,1,0,.8219-.5698Z" fill="#fff"/><path d="M81.62961,36.8915q-.72422-.17565-1.48171-.3315a.5.5,0,1,0-.201.9795q.7404.1521,1.4469.3238a.5.5,0,0,0,.2359-.9718Z" fill="#fff"/><path d="M74.0781,66.2841a1.04685,1.04685,0,1,1-1.0468-1.0468A1.04622,1.04622,0,0,1,74.0781,66.2841Z" fill="#4464a4"/></g></g></svg>