<svg viewBox="0 0 310 310" xmlns="http://www.w3.org/2000/svg" xmlns:xlink="http://www.w3.org/1999/xlink"><linearGradient id="a" gradientUnits="userSpaceOnUse" x1="45.39843" x2="264.60153" y1="264.60157" y2="45.39847"><stop offset="0" stop-color="#38a380"/><stop offset=".06811" stop-color="#4fa684"/><stop offset=".19954" stop-color="#74ac8a"/><stop offset=".33708" stop-color="#93b090"/><stop offset=".4803" stop-color="#abb494"/><stop offset=".63159" stop-color="#bcb697"/><stop offset=".79642" stop-color="#c6b898"/><stop offset="1" stop-color="#c9b899"/></linearGradient><clipPath id="b"><path d="m307.8921 153.8921h-305.7842a152.8921 152.8921 0 0 1 305.7842 0z"/></clipPath><circle cx="155" cy="155" fill="#fff" r="154" stroke="url(#a)" stroke-miterlimit="10" stroke-width="2"/><g fill="#232323"><path d="m79.73513 199.46614-1.70605-13.32031h-.082q-.07325.74121-.293 2.0293-.22119 1.292-.38574 2.05078l-1.95313 9.24023h-1.665l3.17579-15.02734h2.50879l1.53125 12.377h.09278l6.77343-12.377h2.7334l-3.11426 15.02734h-1.78813q1.29492-6.06446 1.9834-9.30664.68847-3.24317.96679-4.03515h-.06245l-7.36914 13.34179z"/><path d="m96.97244 187.99544a2.90073 2.90073 0 0 1 1.68554.50977 3.29542 3.29542 0 0 1 1.15137 1.46479h.11231l.68945-1.76953h1.30469l-2.39453 11.26562h-1.36719l.26758-2.14843h-.083q-1.83984 2.35547-3.875 2.35546a2.70965 2.70965 0 0 1 -2.24024-1.01757 4.35567 4.35567 0 0 1 -.8125-2.78711 10.60147 10.60147 0 0 1 .73047-3.9668 6.845 6.845 0 0 1 2.01461-2.86714 4.376 4.376 0 0 1 2.81644-1.03906zm-1.95313 10.24805a2.88965 2.88965 0 0 0 1.9834-.95118 7.02879 7.02879 0 0 0 1.60352-2.47656 8.11028 8.11028 0 0 0 .61718-3.05859 2.39654 2.39654 0 0 0 -.57617-1.68555 1.95491 1.95491 0 0 0 -1.51074-.62695 2.82889 2.82889 0 0 0 -1.98926.88476 5.9524 5.9524 0 0 0 -1.44336 2.39454 9.653 9.653 0 0 0 -.52441 3.18554 2.70571 2.70571 0 0 0 .48242 1.75391 1.66875 1.66875 0 0 0 1.35742.58008z"/><path d="m105.68826 193.72 5.40722-5.51953h2.06543l-4.82031 4.80078 3.03223 6.46484h-1.92183l-2.416-5.38476-1.5625 1.26367-.84278 4.12109h-1.74707l3.39155-15.99209h1.748q-.74121 3.45117-1.32617 6.1875a36.62256 36.62256 0 0 1 -1.04883 4.05859z"/><path d="m114.89724 199.46614h-1.72656l2.40527-11.26562h1.72657zm1.16211-14.14258a1.35515 1.35515 0 0 1 .32813-.9414 1.09882 1.09882 0 0 1 .85351-.36328.80765.80765 0 0 1 .9043.92383 1.39923 1.39923 0 0 1 -.34375.957 1.0401 1.0401 0 0 1 -.79688.39062.95067.95067 0 0 1 -.67871-.25195.93625.93625 0 0 1 -.2666-.71482z"/><path d="m125.40212 199.46614 1.52149-7.11133a9.41241 9.41241 0 0 0 .20508-1.48046 1.46475 1.46475 0 0 0 -.36524-1.03907 1.53251 1.53251 0 0 0 -1.166-.39062 3.03981 3.03981 0 0 0 -1.78321.61719 5.47138 5.47138 0 0 0 -1.53222 1.75781 9.25827 9.25827 0 0 0 -1.002 2.76562l-1.03808 4.88086h-1.72656l2.40527-11.26562h1.42871l-.22656 2.08789h.10351a6.855 6.855 0 0 1 1.90625-1.77344 3.83419 3.83419 0 0 1 1.90625-.51953 2.879 2.879 0 0 1 2.06153.71484 2.62215 2.62215 0 0 1 .75488 2 8.40788 8.40788 0 0 1 -.23633 1.84961l-1.46972 6.90625z"/><path d="m141.365 188.20052-.25684 1.10156-2.16895.24609a2.89167 2.89167 0 0 1 .4209 1.62305 4.17283 4.17283 0 0 1 -1.19726 3.13086 4.39115 4.39115 0 0 1 -3.20117 1.166 3.46268 3.46268 0 0 1 -.86426-.082q-1.42823.54494-1.42871 1.34571a.54432.54432 0 0 0 .33984.56054 4.0297 4.0297 0 0 0 .98633.22071l1.20312.14453a5.36 5.36 0 0 1 2.69727.9043 2.41613 2.41613 0 0 1 .83789 1.99414 3.35517 3.35517 0 0 1 -1.5 2.92968 7.36775 7.36775 0 0 1 -4.22461 1.03711 5.57278 5.57278 0 0 1 -3.125-.7539 2.42 2.42 0 0 1 -1.13086-2.13282 2.64717 2.64717 0 0 1 .74024-1.87109 5.78 5.78 0 0 1 2.39453-1.34766 1.3361 1.3361 0 0 1 -.80078-1.24218 1.63944 1.63944 0 0 1 .52343-1.21875 5.393 5.393 0 0 1 1.46-.95117 2.70073 2.70073 0 0 1 -1.46972-2.4668 4.51368 4.51368 0 0 1 1.22851-3.26758 4.17047 4.17047 0 0 1 3.13965-1.27539 6.2097 6.2097 0 0 1 1.583.20508zm-10.94725 13.26948a1.44383 1.44383 0 0 0 .66895 1.25391 3.48828 3.48828 0 0 0 1.98339.46289 5.53994 5.53994 0 0 0 2.92383-.65235 2.0583 2.0583 0 0 0 1.05371-1.8457 1.14954 1.14954 0 0 0 -.55468-1.00586 4.43359 4.43359 0 0 0 -1.89161-.51367l-1.63379-.166a3.71588 3.71588 0 0 0 -1.8916.90625 2.10987 2.10987 0 0 0 -.6582 1.56053zm2.85742-8.99219a1.7881 1.7881 0 0 0 .46289 1.33008 1.74888 1.74888 0 0 0 1.28516.457 2.373 2.373 0 0 0 1.418-.43164 2.74646 2.74646 0 0 0 .93066-1.18555 4.12277 4.12277 0 0 0 .32324-1.64062 1.719 1.719 0 0 0 -.45214-1.28516 1.7844 1.7844 0 0 0 -1.29493-.4414 2.40735 2.40735 0 0 0 -1.40332.416 2.72938 2.72938 0 0 0 -.93554 1.16211 3.91268 3.91268 0 0 0 -.33402 1.61923z"/><path d="m148.40505 199.46614h-1.72656l2.40528-11.26562h1.72656zm1.16211-14.14258a1.35515 1.35515 0 0 1 .32813-.9414 1.09885 1.09885 0 0 1 .85351-.36328.80765.80765 0 0 1 .9043.92383 1.39923 1.39923 0 0 1 -.34375.957 1.04009 1.04009 0 0 1 -.79687.39062.95065.95065 0 0 1 -.67871-.25195.93622.93622 0 0 1 -.26661-.71482z"/><path d="m158.91091 199.46614 1.52149-7.11133a9.41241 9.41241 0 0 0 .20508-1.48046 1.46475 1.46475 0 0 0 -.36524-1.03907 1.53251 1.53251 0 0 0 -1.166-.39062 3.03977 3.03977 0 0 0 -1.78321.61719 5.47138 5.47138 0 0 0 -1.53222 1.75781 9.25827 9.25827 0 0 0 -1.002 2.76562l-1.03808 4.88086h-1.72653l2.40527-11.26562h1.42871l-.22656 2.08789h.10351a6.855 6.855 0 0 1 1.90625-1.77344 3.83419 3.83419 0 0 1 1.90625-.51953 2.879 2.879 0 0 1 2.06153.71484 2.62215 2.62215 0 0 1 .75488 2 8.40788 8.40788 0 0 1 -.23633 1.84961l-1.46973 6.90625z"/><path d="m162.49685 204.52278a3.61918 3.61918 0 0 1 -1.28418-.21484v-1.44922a3.62657 3.62657 0 0 0 1.15137.22656 1.35658 1.35658 0 0 0 1.20215-.63867 5.44108 5.44108 0 0 0 .67871-1.81836l2.333-11.12109h-1.9834l.13281-.68945 2.11816-.67774.23633-1.02734a6.07751 6.07751 0 0 1 1.31055-2.9043 3.33575 3.33575 0 0 1 2.48144-.84766 5.37476 5.37476 0 0 1 1.00782.11719 4.78456 4.78456 0 0 1 .9248.26172l-.4414 1.32617a4.03232 4.03232 0 0 0 -1.40821-.29687 1.8155 1.8155 0 0 0 -1.373.498 3.96073 3.96073 0 0 0 -.7754 1.82422l-.25683 1.10938h2.44629l-.25684 1.30664h-2.43652l-2.38477 11.28515a5.88754 5.88754 0 0 1 -1.2334 2.8379 2.85023 2.85023 0 0 1 -2.18948.89261z"/><path d="m176.76443 188.05794a4.11135 4.11135 0 0 1 3.083 1.15625 4.35429 4.35429 0 0 1 1.13086 3.18164 9.12391 9.12391 0 0 1 -.74024 3.64844 6.31914 6.31914 0 0 1 -2.0039 2.65234 4.6864 4.6864 0 0 1 -2.85743.9336 4.09855 4.09855 0 0 1 -3.09372-1.16021 4.38543 4.38543 0 0 1 -1.12109-3.17578 9.10605 9.10605 0 0 1 .751-3.67578 6.23108 6.23108 0 0 1 2.02441-2.64063 4.71944 4.71944 0 0 1 2.82711-.91987zm2.42578 4.10156a2.81114 2.81114 0 0 0 -.64258-1.918 2.19451 2.19451 0 0 0 -1.74218-.73437 3.01437 3.01437 0 0 0 -2.00977.75976 4.89281 4.89281 0 0 0 -1.37695 2.11329 8.77418 8.77418 0 0 0 -.48828 3.00585 3.03019 3.03019 0 0 0 .65234 2.082 2.37663 2.37663 0 0 0 1.876.73437 2.83348 2.83348 0 0 0 1.92187-.75 4.89 4.89 0 0 0 1.33106-2.13281 9.65549 9.65549 0 0 0 .47849-3.16009z"/><path d="m189.69412 187.99544a4.69971 4.69971 0 0 1 1.2334.14453l-.37012 1.541a4.5763 4.5763 0 0 0 -1.0791-.13282 2.85025 2.85025 0 0 0 -1.75293.61719 5.39414 5.39414 0 0 0 -1.42871 1.71094 8.72408 8.72408 0 0 0 -.89942 2.42969l-1.09961 5.16015h-1.72656l2.40527-11.26562h1.42871l-.22656 2.08789h.10352a10.0671 10.0671 0 0 1 1.22265-1.4043 3.89869 3.89869 0 0 1 1.0127-.65625 2.9057 2.9057 0 0 1 1.17676-.2324z"/><path d="m197.45486 199.46614 1.52051-7.11133a8.40494 8.40494 0 0 0 .18554-1.38867 1.76043 1.76043 0 0 0 -.31933-1.12109 1.31812 1.31812 0 0 0 -1.08887-.40039 2.75614 2.75614 0 0 0 -1.68066.61719 5.34891 5.34891 0 0 0 -1.43946 1.76367 10.18868 10.18868 0 0 0 -.96093 2.75976l-1.03809 4.88086h-1.72657l2.40527-11.26562h1.42873l-.22656 2.08789h.10352a6.40779 6.40779 0 0 1 1.7832-1.75781 3.50567 3.50567 0 0 1 1.834-.53516 2.33505 2.33505 0 0 1 1.78907.668 3.06167 3.06167 0 0 1 .74023 1.86133h.082a6.57217 6.57217 0 0 1 1.88086-1.90625 3.75948 3.75948 0 0 1 2.01465-.62305 2.772 2.772 0 0 1 2.01953.69922 2.7219 2.7219 0 0 1 .71484 2.03515 9.8156 9.8156 0 0 1 -.22656 1.83008l-1.48047 6.90625h-1.74707l1.52149-7.11133a9.35891 9.35891 0 0 0 .20507-1.50195 1.29619 1.29619 0 0 0 -1.46972-1.4082 2.76559 2.76559 0 0 0 -1.64453.5957 5.22877 5.22877 0 0 0 -1.42383 1.69141 9.25044 9.25044 0 0 0 -.92969 2.5957l-1.09961 5.13867z"/><path d="m213.71462 199.67317a3.93156 3.93156 0 0 1 -2.96972-1.12109 4.2856 4.2856 0 0 1 -1.08008-3.10352 9.25685 9.25685 0 0 1 .7666-3.707 6.85555 6.85555 0 0 1 2.0293-2.75976 4.43335 4.43335 0 0 1 2.78613-.98633 3.53462 3.53462 0 0 1 2.36328.68359 2.38528 2.38528 0 0 1 .792 1.90625 3.25985 3.25985 0 0 1 -1.70605 2.9043 9.34029 9.34029 0 0 1 -4.88281 1.05273h-.33887l-.041.82227a3.187 3.187 0 0 0 .63184 2.10352 2.40911 2.40911 0 0 0 1.958.7539 5.09547 5.09547 0 0 0 1.33105-.18359 10.08656 10.08656 0 0 0 1.70118-.67969v1.50195a9.31206 9.31206 0 0 1 -1.70606.63086 6.85621 6.85621 0 0 1 -1.63479.18161zm1.42872-10.207a2.75014 2.75014 0 0 0 -1.98829.96485 6.31777 6.31777 0 0 0 -1.42382 2.68359h.123a8.38688 8.38688 0 0 0 3.59278-.61133 1.92052 1.92052 0 0 0 1.249-1.77344 1.20079 1.20079 0 0 0 -.375-.90429 1.65213 1.65213 0 0 0 -1.17767-.35941z"/><path d="m225.60818 188.01692a2.99678 2.99678 0 0 1 2.88769 1.95313h.10254a23.86646 23.86646 0 0 1 .46289-2.81641l.80176-3.67968h1.70606l-3.3916 15.99218h-1.42872l.22559-2.14843h-.082a7.74135 7.74135 0 0 1 -1.94239 1.82029 3.64041 3.64041 0 0 1 -1.8711.53515 2.69185 2.69185 0 0 1 -2.23047-1.00781 4.38307 4.38307 0 0 1 -.80175-2.79687 10.66356 10.66356 0 0 1 .74023-4.0293 6.73532 6.73532 0 0 1 1.999-2.82617 4.43534 4.43534 0 0 1 2.82227-.99608zm-1.95313 10.22657a2.99618 2.99618 0 0 0 1.99415-.96094 6.75468 6.75468 0 0 0 1.6289-2.457 8.10467 8.10467 0 0 0 .60156-3.04688 2.46321 2.46321 0 0 0 -.55566-1.73828 2.10085 2.10085 0 0 0 -1.61328-.5957 2.75353 2.75353 0 0 0 -1.92774.84765 5.98243 5.98243 0 0 0 -1.42871 2.38477 9.70452 9.70452 0 0 0 -.53906 3.23242q0 2.33493 1.83984 2.33396z"/><path d="m59.48123 213.27669a2.99945 2.99945 0 0 1 2.88769 1.95312h.10254a23.934 23.934 0 0 1 .46289-2.8164l.80176-3.67969h1.70605l-3.3916 15.99414h-1.42871l.22559-2.14844h-.082a7.72835 7.72835 0 0 1 -1.94239 1.81836 3.62171 3.62171 0 0 1 -1.87109.53516 2.69187 2.69187 0 0 1 -2.23047-1.00781 4.38093 4.38093 0 0 1 -.80176-2.79492 10.649 10.649 0 0 1 .74024-4.0293 6.71047 6.71047 0 0 1 1.999-2.82617 4.42617 4.42617 0 0 1 2.82226-.99805zm-1.95313 10.22852a2.99061 2.99061 0 0 0 1.99414-.9629 6.763 6.763 0 0 0 1.62891-2.45507 8.122 8.122 0 0 0 .60156-3.04883 2.458 2.458 0 0 0 -.55566-1.73633 2.10087 2.10087 0 0 0 -1.61328-.5957 2.7453 2.7453 0 0 0 -1.92774.84765 5.95494 5.95494 0 0 0 -1.42871 2.38477 9.68782 9.68782 0 0 0 -.53906 3.23242q0 2.33204 1.83984 2.33399z"/><path d="m70.11892 224.93294a3.92427 3.92427 0 0 1 -2.96972-1.12109 4.28562 4.28562 0 0 1 -1.08008-3.10352 9.24757 9.24757 0 0 1 .7666-3.70508 6.85537 6.85537 0 0 1 2.0293-2.75976 4.42194 4.42194 0 0 1 2.78613-.98633 3.52407 3.52407 0 0 1 2.36328.68359 2.3799 2.3799 0 0 1 .792 1.90625 3.262 3.262 0 0 1 -1.70605 2.9043 9.35952 9.35952 0 0 1 -4.88282 1.05273h-.33886l-.041.82227a3.18134 3.18134 0 0 0 .63184 2.10156 2.41 2.41 0 0 0 1.958.75586 5.1 5.1 0 0 0 1.33105-.18555 10.22124 10.22124 0 0 0 1.70117-.67773v1.5a9.193 9.193 0 0 1 -1.706.63281 6.96212 6.96212 0 0 1 -1.63484.17969zm1.42871-10.207a2.74547 2.74547 0 0 0 -1.98828.9668 6.32127 6.32127 0 0 0 -1.42383 2.68164h.12305a8.387 8.387 0 0 0 3.59277-.61133 1.91809 1.91809 0 0 0 1.249-1.77149 1.2051 1.2051 0 0 0 -.375-.90625 1.66125 1.66125 0 0 0 -1.17771-.3594z"/><path d="m80.64431 224.93294a3.82533 3.82533 0 0 1 -4.19431-4.20313 9.35523 9.35523 0 0 1 .76074-3.793 6.44994 6.44994 0 0 1 2.10254-2.709 5.0097 5.0097 0 0 1 3.0166-.9707 7.53431 7.53431 0 0 1 2.75488.52344l-.4834 1.44921a5.80923 5.80923 0 0 0 -2.251-.52343 3.22105 3.22105 0 0 0 -2.10157.78515 5.18318 5.18318 0 0 0 -1.49121 2.18946 8.42943 8.42943 0 0 0 -.53906 3.04882 2.87371 2.87371 0 0 0 .68359 2.04493 2.45768 2.45768 0 0 0 1.88575.73047 4.68021 4.68021 0 0 0 1.39843-.207 12.68976 12.68976 0 0 0 1.29493-.48242v1.46875a6.1748 6.1748 0 0 1 -2.83691.64845z"/><path d="m87.25271 224.72786h-1.72656l2.40527-11.26562h1.72658zm1.16211-14.14453a1.35012 1.35012 0 0 1 .32813-.93945 1.09393 1.09393 0 0 1 .85351-.36524.80906.80906 0 0 1 .9043.92578 1.39079 1.39079 0 0 1 -.34375.95508 1.03384 1.03384 0 0 1 -.79688.39063.95067.95067 0 0 1 -.67871-.252.93623.93623 0 0 1 -.2666-.7148z"/><path d="m97.81912 221.5306a3.01715 3.01715 0 0 1 -1.13575 2.5039 5.04278 5.04278 0 0 1 -3.20214.89844 6.82918 6.82918 0 0 1 -3.13477-.709v-1.625a6.28958 6.28958 0 0 0 1.55274.668 5.64826 5.64826 0 0 0 1.541.23829 3.1264 3.1264 0 0 0 1.95313-.51563 1.59709 1.59709 0 0 0 .6582-1.31445 1.41831 1.41831 0 0 0 -.36035-.98633 7.23471 7.23471 0 0 0 -1.55176-1.10156 6.24146 6.24146 0 0 1 -1.8916-1.46875 2.714 2.714 0 0 1 -.55469-1.707 2.837 2.837 0 0 1 1.03809-2.28711 4.12525 4.12525 0 0 1 2.73437-.86719 7.96706 7.96706 0 0 1 3.3916.75976l-.55468 1.40821-.57618-.25586a5.707 5.707 0 0 0 -2.26074-.44336 2.30593 2.30593 0 0 0 -1.501.44726 1.50588 1.50588 0 0 0 -.17968 2.14258 6.39372 6.39372 0 0 0 1.50586 1.0586 8.75421 8.75421 0 0 1 1.57715 1.06054 3.047 3.047 0 0 1 .71484.94922 2.70128 2.70128 0 0 1 .23636 1.14644z"/><path d="m101.61209 224.72786h-1.72657l2.40528-11.26562h1.72656zm1.16211-14.14453a1.35012 1.35012 0 0 1 .32812-.93945 1.094 1.094 0 0 1 .85352-.36524.80905.80905 0 0 1 .90429.92578 1.39079 1.39079 0 0 1 -.34375.95508 1.03382 1.03382 0 0 1 -.79687.39063.95066.95066 0 0 1 -.67871-.252.93619.93619 0 0 1 -.2666-.7148z"/><path d="m111.23318 213.31771a4.11878 4.11878 0 0 1 3.083 1.15625 4.3574 4.3574 0 0 1 1.13086 3.18164 9.117 9.117 0 0 1 -.74024 3.64843 6.3069 6.3069 0 0 1 -2.0039 2.65235 4.68823 4.68823 0 0 1 -2.85743.93554 4.09228 4.09228 0 0 1 -3.09375-1.16211 4.37912 4.37912 0 0 1 -1.12109-3.17578 9.09678 9.09678 0 0 1 .751-3.67382 6.22549 6.22549 0 0 1 2.02441-2.64258 4.71944 4.71944 0 0 1 2.82714-.91992zm2.42578 4.10156a2.80592 2.80592 0 0 0 -.64258-1.916 2.19593 2.19593 0 0 0 -1.74218-.73633 3.00668 3.00668 0 0 0 -2.00977.76172 4.88572 4.88572 0 0 0 -1.377 2.11133 8.79356 8.79356 0 0 0 -.48828 3.00781 3.02815 3.02815 0 0 0 .65234 2.08008 2.3766 2.3766 0 0 0 1.876.73438 2.83348 2.83348 0 0 0 1.92187-.75 4.89 4.89 0 0 0 1.33106-2.13282 9.65543 9.65543 0 0 0 .47858-3.16017z"/><path d="m123.92752 224.72786 1.52148-7.11328a9.38339 9.38339 0 0 0 .20508-1.48047 1.45656 1.45656 0 0 0 -.36524-1.03711 1.525 1.525 0 0 0 -1.166-.39062 3.05059 3.05059 0 0 0 -1.78321.61523 5.51349 5.51349 0 0 0 -1.53222 1.75781 9.29819 9.29819 0 0 0 -1.002 2.76563l-1.03809 4.88281h-1.72652l2.40527-11.26562h1.42871l-.22656 2.08593h.10351a6.88494 6.88494 0 0 1 1.90625-1.77343 3.83168 3.83168 0 0 1 1.90625-.51758 2.88658 2.88658 0 0 1 2.06153.71289 2.625 2.625 0 0 1 .75488 2 8.39326 8.39326 0 0 1 -.23633 1.84961l-1.46972 6.9082z"/><path d="m136.13748 221.5306a3.01715 3.01715 0 0 1 -1.13575 2.5039 5.04278 5.04278 0 0 1 -3.20214.89844 6.82918 6.82918 0 0 1 -3.13477-.709v-1.625a6.28967 6.28967 0 0 0 1.55273.668 5.64838 5.64838 0 0 0 1.541.23829 3.1264 3.1264 0 0 0 1.95313-.51563 1.59709 1.59709 0 0 0 .6582-1.31445 1.41831 1.41831 0 0 0 -.36035-.98633 7.23471 7.23471 0 0 0 -1.55176-1.10156 6.24133 6.24133 0 0 1 -1.8916-1.46875 2.714 2.714 0 0 1 -.55469-1.707 2.837 2.837 0 0 1 1.03809-2.28711 4.12525 4.12525 0 0 1 2.73437-.86719 7.96706 7.96706 0 0 1 3.3916.75976l-.55469 1.40821-.57617-.25586a5.707 5.707 0 0 0 -2.26074-.44336 2.30593 2.30593 0 0 0 -1.501.44726 1.50588 1.50588 0 0 0 -.17968 2.14258 6.39372 6.39372 0 0 0 1.50586 1.0586 8.75406 8.75406 0 0 1 1.57714 1.06054 3.04692 3.04692 0 0 1 .71485.94922 2.70143 2.70143 0 0 1 .23637 1.14644z"/><path d="m141.99587 229.7845a3.61877 3.61877 0 0 1 -1.28417-.21679v-1.44922a3.573 3.573 0 0 0 1.15136.22656 1.35905 1.35905 0 0 0 1.20215-.63672 5.45361 5.45361 0 0 0 .67871-1.82031l2.333-11.1211h-1.9834l.13281-.6875 2.11817-.67968.23633-1.02735a6.08665 6.08665 0 0 1 1.31054-2.90429 3.34365 3.34365 0 0 1 2.48145-.84766 5.39833 5.39833 0 0 1 1.00781.11914 4.64865 4.64865 0 0 1 .92481.26172l-.44141 1.32617a3.99483 3.99483 0 0 0 -1.4082-.29883 1.81553 1.81553 0 0 0 -1.37305.49805 3.96988 3.96988 0 0 0 -.77539 1.82617l-.25684 1.10938h2.44629l-.25683 1.30468h-2.43653l-2.38475 11.28708a5.87079 5.87079 0 0 1 -1.2334 2.83594 2.85169 2.85169 0 0 1 -2.18946.89456z"/><path d="m156.26345 213.31771a4.11878 4.11878 0 0 1 3.083 1.15625 4.35735 4.35735 0 0 1 1.13086 3.18164 9.11721 9.11721 0 0 1 -.74023 3.64843 6.307 6.307 0 0 1 -2.00391 2.65235 4.68821 4.68821 0 0 1 -2.85742.93554 4.09226 4.09226 0 0 1 -3.09375-1.16211 4.37912 4.37912 0 0 1 -1.1211-3.17578 9.09678 9.09678 0 0 1 .751-3.67382 6.22557 6.22557 0 0 1 2.02441-2.64258 4.71946 4.71946 0 0 1 2.82714-.91992zm2.42578 4.10156a2.806 2.806 0 0 0 -.64257-1.916 2.19593 2.19593 0 0 0 -1.74219-.73633 3.00672 3.00672 0 0 0 -2.00977.76172 4.88581 4.88581 0 0 0 -1.37695 2.11133 8.7938 8.7938 0 0 0 -.48828 3.00781 3.0282 3.0282 0 0 0 .65234 2.08008 2.3766 2.3766 0 0 0 1.876.73438 2.83348 2.83348 0 0 0 1.92187-.75 4.89 4.89 0 0 0 1.33106-2.13282 9.65516 9.65516 0 0 0 .47849-3.16017z"/><path d="m169.19314 213.25716a4.70486 4.70486 0 0 1 1.2334.14258l-.37012 1.543a4.47973 4.47973 0 0 0 -1.0791-.13477 2.86231 2.86231 0 0 0 -1.75293.61719 5.43788 5.43788 0 0 0 -1.42871 1.71093 8.76012 8.76012 0 0 0 -.89941 2.43165l-1.09961 5.16015h-1.72657l2.40528-11.26562h1.42871l-.22656 2.08593h.10351a10.14441 10.14441 0 0 1 1.22266-1.40234 3.85685 3.85685 0 0 1 1.01269-.6582 2.90517 2.90517 0 0 1 1.17676-.2305z"/><path d="m180.325 224.93294a3.92427 3.92427 0 0 1 -2.96973-1.12109 4.28562 4.28562 0 0 1 -1.08008-3.10352 9.24757 9.24757 0 0 1 .7666-3.70508 6.85555 6.85555 0 0 1 2.0293-2.75976 4.42194 4.42194 0 0 1 2.78613-.98633 3.52407 3.52407 0 0 1 2.36328.68359 2.37991 2.37991 0 0 1 .792 1.90625 3.262 3.262 0 0 1 -1.70606 2.9043 9.35945 9.35945 0 0 1 -4.88281 1.05273h-.33887l-.041.82227a3.18134 3.18134 0 0 0 .63183 2.10156 2.41 2.41 0 0 0 1.958.75586 5.1 5.1 0 0 0 1.33105-.18555 10.221 10.221 0 0 0 1.70118-.67773v1.5a9.19282 9.19282 0 0 1 -1.70606.63281 6.962 6.962 0 0 1 -1.63476.17969zm1.42871-10.207a2.74545 2.74545 0 0 0 -1.98828.9668 6.32127 6.32127 0 0 0 -1.42383 2.68164h.123a8.387 8.387 0 0 0 3.59278-.61133 1.91808 1.91808 0 0 0 1.249-1.77149 1.2051 1.2051 0 0 0 -.375-.90625 1.66122 1.66122 0 0 0 -1.17769-.3594z"/><path d="m191.25076 229.7845a3.51036 3.51036 0 0 1 -1.28418-.21679v-1.44922a3.44643 3.44643 0 0 0 1.18164.22656 1.36638 1.36638 0 0 0 1.14062-.58984 4.87033 4.87033 0 0 0 .71-1.86719l2.333-11.1211h-4.94433l-2.3848 11.28708a5.8706 5.8706 0 0 1 -1.2334 2.83594 2.85168 2.85168 0 0 1 -2.18945.89453 3.61883 3.61883 0 0 1 -1.28418-.21679v-1.44922a3.57308 3.57308 0 0 0 1.15137.22656 1.4056 1.4056 0 0 0 1.1709-.5957 4.68679 4.68679 0 0 0 .71-1.86133l2.333-11.1211h-1.98339l.13281-.6875 2.11816-.67968.23633-1.02735a6.08655 6.08655 0 0 1 1.31055-2.90429 3.34362 3.34362 0 0 1 2.48144-.84766 5.39824 5.39824 0 0 1 1.00781.11914 4.64845 4.64845 0 0 1 .92481.26172l-.44141 1.32617a3.99474 3.99474 0 0 0 -1.4082-.29883 1.81554 1.81554 0 0 0 -1.373.49805 3.96988 3.96988 0 0 0 -.77539 1.82617l-.25683 1.10938h4.9541l.24609-1.10938a6.05465 6.05465 0 0 1 1.2959-2.8789 3.343 3.343 0 0 1 2.49707-.85352 5.448 5.448 0 0 1 1.00195.11328 5.0173 5.0173 0 0 1 .95118.26758l-.46289 1.32617a3.99052 3.99052 0 0 0 -1.40821-.29883 1.77085 1.77085 0 0 0 -1.38672.52539 4.07294 4.07294 0 0 0 -.76074 1.79883l-.24707 1.10938h2.457l-.26758 1.30468h-2.44629l-2.374 11.28711a6.02715 6.02715 0 0 1 -1.26953 2.86719 2.85988 2.85988 0 0 1 -2.16414.86331z"/><path d="m203.98611 224.93294a3.92429 3.92429 0 0 1 -2.96973-1.12109 4.28566 4.28566 0 0 1 -1.08008-3.10352 9.24741 9.24741 0 0 1 .76661-3.70508 6.85544 6.85544 0 0 1 2.02929-2.75976 4.422 4.422 0 0 1 2.78614-.98633 3.52408 3.52408 0 0 1 2.36328.68359 2.3799 2.3799 0 0 1 .792 1.90625 3.262 3.262 0 0 1 -1.70606 2.9043 9.35945 9.35945 0 0 1 -4.88281 1.05273h-.33887l-.041.82227a3.18134 3.18134 0 0 0 .63184 2.10156 2.40993 2.40993 0 0 0 1.958.75586 5.10015 5.10015 0 0 0 1.33106-.18555 10.22124 10.22124 0 0 0 1.70117-.67773v1.5a9.19282 9.19282 0 0 1 -1.70606.63281 6.962 6.962 0 0 1 -1.63478.17969zm1.42871-10.207a2.74547 2.74547 0 0 0 -1.98828.9668 6.32127 6.32127 0 0 0 -1.42383 2.68164h.12305a8.387 8.387 0 0 0 3.59277-.61133 1.91808 1.91808 0 0 0 1.249-1.77149 1.2051 1.2051 0 0 0 -.375-.90625 1.66121 1.66121 0 0 0 -1.17771-.3594z"/><path d="m214.5115 224.93294a3.82534 3.82534 0 0 1 -4.19434-4.20313 9.35524 9.35524 0 0 1 .76075-3.793 6.44986 6.44986 0 0 1 2.10254-2.709 5.0097 5.0097 0 0 1 3.0166-.9707 7.53435 7.53435 0 0 1 2.75488.52344l-.4834 1.44921a5.80924 5.80924 0 0 0 -2.251-.52343 3.221 3.221 0 0 0 -2.10156.78515 5.18309 5.18309 0 0 0 -1.49121 2.18946 8.42943 8.42943 0 0 0 -.53906 3.04882 2.87371 2.87371 0 0 0 .68359 2.04493 2.45767 2.45767 0 0 0 1.88574.73047 4.68023 4.68023 0 0 0 1.39844-.207 12.68871 12.68871 0 0 0 1.29492-.48242v1.46875a6.17476 6.17476 0 0 1 -2.83689.64845z"/><path d="m222.84646 223.52474a5.58622 5.58622 0 0 0 1.48047-.26758v1.32617a4.75192 4.75192 0 0 1 -.86328.24609 4.45425 4.45425 0 0 1 -.82227.10352 2.85725 2.85725 0 0 1 -1.96875-.61133 2.3248 2.3248 0 0 1 -.68359-1.82422 7.47819 7.47819 0 0 1 .18555-1.543l1.30566-6.1875h-1.76855l.14453-.75 1.90136-.80078 1.28418-2.34375h1.00782l-.56543 2.58985h2.8164l-.26758 1.30468h-2.80566l-1.32617 6.209a7.32687 7.32687 0 0 0 -.18457 1.35742 1.21655 1.21655 0 0 0 .29785.88281 1.10522 1.10522 0 0 0 .83203.30862z"/><path d="m227.94509 224.72786h-1.72656l2.40527-11.26562h1.72657zm1.16211-14.14453a1.35012 1.35012 0 0 1 .32813-.93945 1.09393 1.09393 0 0 1 .85351-.36524.80906.80906 0 0 1 .9043.92578 1.39079 1.39079 0 0 1 -.34375.95508 1.03384 1.03384 0 0 1 -.79687.39063.9507.9507 0 0 1 -.67872-.252.93623.93623 0 0 1 -.2666-.7148z"/><path d="m233.2488 224.72786-1.28515-11.26562h1.72754l.65722 6.30078q.24756 2.65137.24707 3.7207h.06153q1.30516-2.82714 1.83984-3.8125l3.34082-6.209h1.8291l-6.07422 11.26562z"/><path d="m245.73709 224.93294a3.92427 3.92427 0 0 1 -2.96973-1.12109 4.28562 4.28562 0 0 1 -1.08008-3.10352 9.24757 9.24757 0 0 1 .7666-3.70508 6.85555 6.85555 0 0 1 2.0293-2.75976 4.42194 4.42194 0 0 1 2.78613-.98633 3.52407 3.52407 0 0 1 2.36328.68359 2.37991 2.37991 0 0 1 .792 1.90625 3.262 3.262 0 0 1 -1.70606 2.9043 9.35945 9.35945 0 0 1 -4.88281 1.05273h-.33887l-.041.82227a3.18134 3.18134 0 0 0 .63183 2.10156 2.41 2.41 0 0 0 1.958.75586 5.1 5.1 0 0 0 1.33105-.18555 10.221 10.221 0 0 0 1.70118-.67773v1.5a9.19308 9.19308 0 0 1 -1.70606.63281 6.962 6.962 0 0 1 -1.63476.17969zm1.42871-10.207a2.74545 2.74545 0 0 0 -1.98828.9668 6.32127 6.32127 0 0 0 -1.42383 2.68164h.123a8.387 8.387 0 0 0 3.59278-.61133 1.91808 1.91808 0 0 0 1.249-1.77149 1.2051 1.2051 0 0 0 -.375-.90625 1.66124 1.66124 0 0 0 -1.17767-.3594z"/><path d="m89.29861 250.19271a3.92426 3.92426 0 0 1 -2.96973-1.1211 4.28563 4.28563 0 0 1 -1.08008-3.10351 9.24741 9.24741 0 0 1 .76661-3.70508 6.85555 6.85555 0 0 1 2.02929-2.75977 4.422 4.422 0 0 1 2.78614-.98633 3.52408 3.52408 0 0 1 2.36328.6836 2.37989 2.37989 0 0 1 .792 1.90625 3.262 3.262 0 0 1 -1.70606 2.90429 9.35935 9.35935 0 0 1 -4.88281 1.05274h-.33887l-.041.82226a3.18139 3.18139 0 0 0 .63184 2.10157 2.41 2.41 0 0 0 1.958.75586 5.10015 5.10015 0 0 0 1.33106-.18555 10.22212 10.22212 0 0 0 1.70117-.67773v1.5a9.19282 9.19282 0 0 1 -1.70606.63281 6.962 6.962 0 0 1 -1.63478.17969zm1.42871-10.207a2.74551 2.74551 0 0 0 -1.98828.9668 6.32127 6.32127 0 0 0 -1.42383 2.68164h.12305a8.38683 8.38683 0 0 0 3.59277-.61133 1.91807 1.91807 0 0 0 1.249-1.77148 1.20509 1.20509 0 0 0 -.375-.90625 1.66121 1.66121 0 0 0 -1.17771-.35942z"/><path d="m99.824 250.19271a3.82534 3.82534 0 0 1 -4.19434-4.20313 9.35529 9.35529 0 0 1 .76075-3.793 6.44983 6.44983 0 0 1 2.10254-2.709 5.00971 5.00971 0 0 1 3.0166-.97071 7.53435 7.53435 0 0 1 2.75488.52344l-.4834 1.44922a5.80909 5.80909 0 0 0 -2.251-.52344 3.221 3.221 0 0 0 -2.10156.78516 5.18311 5.18311 0 0 0 -1.49121 2.18945 8.42949 8.42949 0 0 0 -.53906 3.04883 2.87371 2.87371 0 0 0 .68359 2.04492 2.45763 2.45763 0 0 0 1.88574.73047 4.68023 4.68023 0 0 0 1.39844-.207 12.69344 12.69344 0 0 0 1.29492-.48242v1.46875a6.17476 6.17476 0 0 1 -2.83689.64846z"/><path d="m110.70974 238.57747a4.11882 4.11882 0 0 1 3.083 1.15625 4.35737 4.35737 0 0 1 1.13086 3.18164 9.11709 9.11709 0 0 1 -.74024 3.64844 6.3068 6.3068 0 0 1 -2.0039 2.65234 4.68815 4.68815 0 0 1 -2.85742.93555 4.0923 4.0923 0 0 1 -3.09375-1.16211 4.37914 4.37914 0 0 1 -1.1211-3.17578 9.09686 9.09686 0 0 1 .751-3.67383 6.22549 6.22549 0 0 1 2.02441-2.64258 4.71946 4.71946 0 0 1 2.82714-.91992zm2.42578 4.10156a2.80594 2.80594 0 0 0 -.64257-1.916 2.19591 2.19591 0 0 0 -1.74219-.73633 3.00672 3.00672 0 0 0 -2.00977.76172 4.88572 4.88572 0 0 0 -1.37695 2.11133 8.79376 8.79376 0 0 0 -.48828 3.00781 3.02818 3.02818 0 0 0 .65234 2.08008 2.37663 2.37663 0 0 0 1.876.73437 2.83348 2.83348 0 0 0 1.92187-.75 4.89 4.89 0 0 0 1.33106-2.13281 9.65522 9.65522 0 0 0 .47849-3.1602z"/><path d="m116.47537 245.16731.35937-1.625h4.92383l-.34961 1.625z"/><path d="m130.20779 238.51692a4.70528 4.70528 0 0 1 1.2334.14258l-.37012 1.543a4.48027 4.48027 0 0 0 -1.0791-.13476 2.86236 2.86236 0 0 0 -1.75293.61718 5.43768 5.43768 0 0 0 -1.42871 1.71094 8.7605 8.7605 0 0 0 -.89942 2.43164l-1.09961 5.16016h-1.72656l2.40526-11.26566h1.42871l-.22657 2.08594h.10352a10.14312 10.14312 0 0 1 1.22266-1.40234 3.85714 3.85714 0 0 1 1.01269-.65821 2.90534 2.90534 0 0 1 1.17678-.23047z"/><path d="m135.87087 250.19271a3.92423 3.92423 0 0 1 -2.96972-1.1211 4.28559 4.28559 0 0 1 -1.08008-3.10351 9.24757 9.24757 0 0 1 .7666-3.70508 6.85566 6.85566 0 0 1 2.0293-2.75977 4.422 4.422 0 0 1 2.78613-.98633 3.52407 3.52407 0 0 1 2.36328.6836 2.37989 2.37989 0 0 1 .792 1.90625 3.262 3.262 0 0 1 -1.70605 2.90429 9.35937 9.35937 0 0 1 -4.88281 1.05274h-.33887l-.041.82226a3.18139 3.18139 0 0 0 .63184 2.10157 2.41 2.41 0 0 0 1.958.75586 5.1 5.1 0 0 0 1.33105-.18555 10.22217 10.22217 0 0 0 1.70118-.67773v1.5a9.19335 9.19335 0 0 1 -1.70606.63281 6.96206 6.96206 0 0 1 -1.63479.17969zm1.42872-10.207a2.74553 2.74553 0 0 0 -1.98829.9668 6.32137 6.32137 0 0 0 -1.42382 2.68164h.123a8.38688 8.38688 0 0 0 3.59278-.61133 1.91807 1.91807 0 0 0 1.249-1.77148 1.20509 1.20509 0 0 0 -.375-.90625 1.66124 1.66124 0 0 0 -1.17767-.35942z"/><path d="m148.74978 246.79036a3.01719 3.01719 0 0 1 -1.13574 2.50391 5.04283 5.04283 0 0 1 -3.20215.89844 6.82912 6.82912 0 0 1 -3.13477-.709v-1.625a6.28993 6.28993 0 0 0 1.55274.668 5.64872 5.64872 0 0 0 1.541.23828 3.12638 3.12638 0 0 0 1.95313-.51562 1.59707 1.59707 0 0 0 .6582-1.31446 1.4183 1.4183 0 0 0 -.36035-.98633 7.23516 7.23516 0 0 0 -1.55176-1.10156 6.24158 6.24158 0 0 1 -1.8916-1.46875 2.714 2.714 0 0 1 -.55469-1.707 2.83707 2.83707 0 0 1 1.03809-2.28711 4.12533 4.12533 0 0 1 2.73438-.86719 7.96714 7.96714 0 0 1 3.3916.75977l-.55469 1.4082-.57617-.25586a5.70706 5.70706 0 0 0 -2.26074-.44336 2.30583 2.30583 0 0 0 -1.501.44727 1.50589 1.50589 0 0 0 -.17969 2.14258 6.3942 6.3942 0 0 0 1.50586 1.05859 8.75415 8.75415 0 0 1 1.57715 1.06055 3.04688 3.04688 0 0 1 .71484.94922 2.7012 2.7012 0 0 1 .23636 1.14643z"/><path d="m154.26931 248.7845a5.58574 5.58574 0 0 0 1.48047-.26758v1.32618a4.75192 4.75192 0 0 1 -.86328.24609 4.45415 4.45415 0 0 1 -.82227.10352 2.85725 2.85725 0 0 1 -1.96875-.61133 2.32487 2.32487 0 0 1 -.68359-1.82422 7.478 7.478 0 0 1 .18555-1.543l1.30566-6.1875h-1.76855l.14453-.75 1.90137-.80078 1.28417-2.34375h1.00782l-.56544 2.58987h2.8164l-.26757 1.30469h-2.80567l-1.32617 6.209a7.327 7.327 0 0 0 -.18457 1.35743 1.21655 1.21655 0 0 0 .29785.88281 1.10522 1.10522 0 0 0 .83204.30857z"/><path d="m163.64334 238.57747a4.11879 4.11879 0 0 1 3.083 1.15625 4.35737 4.35737 0 0 1 1.13086 3.18164 9.11726 9.11726 0 0 1 -.74023 3.64844 6.30682 6.30682 0 0 1 -2.00391 2.65234 4.68815 4.68815 0 0 1 -2.85742.93555 4.0923 4.0923 0 0 1 -3.09375-1.16211 4.37913 4.37913 0 0 1 -1.12109-3.17578 9.09685 9.09685 0 0 1 .751-3.67383 6.22551 6.22551 0 0 1 2.02442-2.64258 4.71944 4.71944 0 0 1 2.82712-.91992zm2.42578 4.10156a2.806 2.806 0 0 0 -.64258-1.916 2.1959 2.1959 0 0 0 -1.74219-.73633 3.00668 3.00668 0 0 0 -2.00976.76172 4.88573 4.88573 0 0 0 -1.377 2.11133 8.79376 8.79376 0 0 0 -.48828 3.00781 3.02819 3.02819 0 0 0 .65235 2.08008 2.37659 2.37659 0 0 0 1.876.73437 2.8335 2.8335 0 0 0 1.92188-.75 4.89008 4.89008 0 0 0 1.33105-2.13281 9.65521 9.65521 0 0 0 .47853-3.1602z"/><path d="m176.574 238.51692a4.70528 4.70528 0 0 1 1.2334.14258l-.37012 1.543a4.48027 4.48027 0 0 0 -1.0791-.13476 2.86236 2.86236 0 0 0 -1.75293.61718 5.43768 5.43768 0 0 0 -1.42871 1.71094 8.7605 8.7605 0 0 0 -.89942 2.43164l-1.0996 5.16016h-1.72652l2.40528-11.26563h1.42871l-.22657 2.08594h.10352a10.14312 10.14312 0 0 1 1.22266-1.40234 3.85714 3.85714 0 0 1 1.01269-.65821 2.90534 2.90534 0 0 1 1.17671-.2305z"/><path d="m183.7488 238.51692a2.91345 2.91345 0 0 1 1.68555.50782 3.31723 3.31723 0 0 1 1.15137 1.46484h.1123l.68946-1.76758h1.30468l-2.39453 11.26563h-1.36718l.26757-2.14844h-.083q-1.83985 2.35254-3.875 2.35352a2.70965 2.70965 0 0 1 -2.24024-1.01758 4.3498 4.3498 0 0 1 -.8125-2.78516 10.60438 10.60438 0 0 1 .73047-3.96875 6.85748 6.85748 0 0 1 2.01465-2.86719 4.38448 4.38448 0 0 1 2.8164-1.03711zm-1.95312 10.24808a2.898 2.898 0 0 0 1.9834-.95117 7.05542 7.05542 0 0 0 1.60351-2.47852 8.10037 8.10037 0 0 0 .61719-3.05664 2.39322 2.39322 0 0 0 -.57617-1.68554 1.95493 1.95493 0 0 0 -1.51074-.627 2.83449 2.83449 0 0 0 -1.98926.88282 5.96575 5.96575 0 0 0 -1.44336 2.39453 9.65617 9.65617 0 0 0 -.52441 3.1875 2.69605 2.69605 0 0 0 .48242 1.75195 1.67008 1.67008 0 0 0 1.35742.58207z"/><path d="m193.13162 248.7845a5.58587 5.58587 0 0 0 1.48047-.26758v1.32618a4.75181 4.75181 0 0 1 -.86329.24609 4.45406 4.45406 0 0 1 -.82226.10352 2.85722 2.85722 0 0 1 -1.96875-.61133 2.32483 2.32483 0 0 1 -.68359-1.82422 7.47865 7.47865 0 0 1 .18554-1.543l1.30567-6.1875h-1.76856l.14453-.75 1.90137-.80078 1.28418-2.34375h1.00781l-.56543 2.58984h2.81641l-.26758 1.30469h-2.80566l-1.32618 6.209a7.32783 7.32783 0 0 0 -.18457 1.35743 1.21655 1.21655 0 0 0 .29786.88281 1.10522 1.10522 0 0 0 .83203.3086z"/><path d="m198.23025 249.98763h-1.72656l2.40531-11.26563h1.72656zm1.16211-14.14453a1.35014 1.35014 0 0 1 .32812-.93946 1.094 1.094 0 0 1 .85352-.36523.80905.80905 0 0 1 .9043.92578 1.39083 1.39083 0 0 1 -.34375.95508 1.03383 1.03383 0 0 1 -.79688.39062.95067.95067 0 0 1 -.67871-.25195.93624.93624 0 0 1 -.2666-.71484z"/><path d="m207.85134 238.57747a4.1188 4.1188 0 0 1 3.083 1.15625 4.35737 4.35737 0 0 1 1.13086 3.18164 9.11726 9.11726 0 0 1 -.74023 3.64844 6.3069 6.3069 0 0 1 -2.00391 2.65234 4.68815 4.68815 0 0 1 -2.85742.93555 4.0923 4.0923 0 0 1 -3.09375-1.16211 4.37914 4.37914 0 0 1 -1.1211-3.17578 9.09686 9.09686 0 0 1 .751-3.67383 6.22551 6.22551 0 0 1 2.02442-2.64258 4.71941 4.71941 0 0 1 2.82713-.91992zm2.42578 4.10156a2.80594 2.80594 0 0 0 -.64257-1.916 2.1959 2.1959 0 0 0 -1.74219-.73633 3.00672 3.00672 0 0 0 -2.00977.76172 4.88581 4.88581 0 0 0 -1.37695 2.11133 8.79376 8.79376 0 0 0 -.48828 3.00781 3.02823 3.02823 0 0 0 .65234 2.08008 2.37663 2.37663 0 0 0 1.876.73437 2.83346 2.83346 0 0 0 1.92187-.75 4.89 4.89 0 0 0 1.33106-2.13281 9.65522 9.65522 0 0 0 .47849-3.1602z"/><path d="m220.5447 249.98763 1.52149-7.11328a9.38339 9.38339 0 0 0 .20508-1.48047 1.45654 1.45654 0 0 0 -.36524-1.03711 1.525 1.525 0 0 0 -1.166-.39063 3.05049 3.05049 0 0 0 -1.78321.61524 5.51338 5.51338 0 0 0 -1.53222 1.75781 9.2984 9.2984 0 0 0 -1.002 2.76562l-1.03808 4.88282h-1.72652l2.40528-11.26563h1.42872l-.22656 2.08594h.10351a6.885 6.885 0 0 1 1.90625-1.77344 3.83176 3.83176 0 0 1 1.90625-.51758 2.88662 2.88662 0 0 1 2.06153.71289 2.62511 2.62511 0 0 1 .75488 2 8.39372 8.39372 0 0 1 -.23633 1.84961l-1.46973 6.90821z"/></g><path d="m307.8921 155h-305.7842a152.8921 152.8921 0 0 1 305.7842 0z" fill="#56a8a4"/><g clip-path="url(#b)"><path d="m240.074 59.217h-10.17v54.919h-61.022v-54.919h-12.204l40.681-40.681z" fill="#fff"/><path d="m167.2771 114.0081s22.5081.2644 6.1022 6.2302-130.1788-6.1022-129.1833 11.6672c2.1404 38.206 165.796 43.2519 165.796 43.2519l22.1962-21.2653s-203.226-19.4155-102.9797-19.0037c108.8849.4472 101.124-20.7523 99.0899-20.7523-16.4059 0-39.4321-.128-39.4321-.128z" fill="#fff"/><path d="m195.7266 114.0081s18.1699 3.5116-12.1771 8.2642l10.1702 2.034s37.8851-5.8239 18.0073-10.2982c-3.769.128-16.0004 0-16.0004 0z" fill="#56a8a4"/><path d="m165.0032 125.9397s-40.3074.9433-56.7133 2.4347c7.4572 1.4915 10.1702 2.0341 10.1702 2.0341s61.4575-1.4859 54.0003-2.9774z" fill="#56a8a4"/><path d="m85.9778 153.8921c-5.8924-2.2778-16.4157-6.7535-20.8671-11.2362l24.6329-.7784 84.9677 12.2043c-15.4861 4.8033-23.5783 8.8714-23.5783 8.8714l-29.9553-2.2822a62.99437 62.99437 0 0 1 -9.2976-1.4124l-19.5356-4.4811" fill="#56a8a4"/><path d="m187.1887 67.3531h24.2592v46.783h-24.2592z" fill="#56a8a4"/><g fill="#fff"><path d="m96.8595 70.3548a6.07715 6.07715 0 1 0 -6.0765-6.0759 6.0776 6.0776 0 0 0 6.0765 6.0759z"/><path d="m115.1219 58.1999a6.07715 6.07715 0 1 1 -6.0771 6.0771 6.07715 6.07715 0 0 1 6.0771-6.0771z"/><path d="m133.3843 58.1999a6.07715 6.07715 0 1 1 -6.0772 6.0771 6.07715 6.07715 0 0 1 6.0772-6.0771z"/><path d="m139.4474 89.40244a1.33788 1.33788 0 0 1 .1972-1.06348l2.6255-3.40776a1.39443 1.39443 0 0 0 .2137-1.0684l-3.0297-11.2958a.83963.83963 0 0 0 -.7658-.5875h-10.6111a.83812.83812 0 0 0 -.7646.5875l-3.0279 11.2958a1.04166 1.04166 0 0 0 -.0316.2642 1.04022 1.04022 0 0 0 -.0317-.2641l-3.0297-11.2959a.8384.8384 0 0 0 -.7658-.5875h-10.6105a.83949.83949 0 0 0 -.7652.5875l-3.0279 11.2958a1.04166 1.04166 0 0 0 -.0316.2642 1.04022 1.04022 0 0 0 -.0317-.2641l-3.0291-11.2959a.83952.83952 0 0 0 -.7658-.5875h-10.6111a.83789.83789 0 0 0 -.7645.5875l-3.0286 11.2958a1.40334 1.40334 0 0 0 .2125 1.0696l2.6036 3.40534a1.346 1.346 0 0 1 .1954 1.0647l-2.8526 9.54088a.4286.4286 0 0 0 .4335.58257h3.0352a.67266.67266 0 0 1 .6574.60509l.9868 12.16152a.6722.6722 0 0 0 .6574.6057h6.3194a.67217.67217 0 0 0 .6569-.6057l.9855-12.16151a.67263.67263 0 0 1 .6569-.6051h3.037a.42781.42781 0 0 0 .4328-.58257l-2.855-9.54088a1.33551 1.33551 0 0 1 .1972-1.06348l2.6256-3.40776a1.40185 1.40185 0 0 0 .2453-.8005 1.40991 1.40991 0 0 0 .2441.8017l2.6036 3.40534a1.346 1.346 0 0 1 .1954 1.0647l-2.8526 9.54088a.42855.42855 0 0 0 .4334.58257h3.0352a.67165.67165 0 0 1 .6569.6051l.9874 12.16151a.67207.67207 0 0 0 .6568.6057h6.3194a.67275.67275 0 0 0 .6575-.6057l.9849-12.16151a.67253.67253 0 0 1 .6568-.6051h3.0371a.42855.42855 0 0 0 .4334-.58257l-2.855-9.54088a1.33788 1.33788 0 0 1 .1972-1.06348l2.6255-3.40776a1.406 1.406 0 0 0 .2448-.8005 1.41409 1.41409 0 0 0 .2435.8017l2.6036 3.40534a1.34405 1.34405 0 0 1 .1954 1.0647l-2.8532 9.54088a.42875.42875 0 0 0 .4334.58257h3.0352a.672.672 0 0 1 .6568.6051l.9868 12.16151a.67275.67275 0 0 0 .6575.6057h6.3194a.67162.67162 0 0 0 .6568-.6057l.9856-12.16151a.67253.67253 0 0 1 .6568-.6051h3.037a.42811.42811 0 0 0 .4329-.58257z"/></g></g></svg>