<svg xmlns="http://www.w3.org/2000/svg" xmlns:xlink="http://www.w3.org/1999/xlink" viewBox="0 0 146.1074 146.1074"><defs><linearGradient id="New_Gradient_Swatch_7" x1="21.39692" y1="124.71048" x2="124.71044" y2="21.39696" gradientUnits="userSpaceOnUse"><stop offset="0" stop-color="#38a380"/><stop offset="0.06811" stop-color="#4fa684"/><stop offset="0.19954" stop-color="#74ac8a"/><stop offset="0.33708" stop-color="#93b090"/><stop offset="0.4803" stop-color="#abb494"/><stop offset="0.63159" stop-color="#bcb697"/><stop offset="0.79642" stop-color="#c6b898"/><stop offset="1" stop-color="#c9b899"/></linearGradient><clipPath id="clip-path"><circle cx="73.05368" cy="74.05373" r="48.51619" transform="translate(-30.96697 73.34658) rotate(-45)" fill="none"/></clipPath></defs><g id="Layer_2" data-name="Layer 2"><g id="Layer_1-2" data-name="Layer 1"><circle cx="73.0537" cy="73.0537" r="72.0537" fill="#fff" stroke-miterlimit="10" stroke-width="2" stroke="url(#New_Gradient_Swatch_7)"/><circle cx="73.05368" cy="74.05373" r="48.25419" transform="translate(-30.96697 73.34658) rotate(-45)" fill="#56a8a4"/><path d="M12.447,51.96294l.499-1.44336,7.41993,5.90136-.50684,1.4668-9.477.04688.49512-1.43164,5.86816.041c.28272-.00586.63965.00586,1.0708.03809s.74854.06543.95166.10058q-.41308-.22559-.93652-.584-.52368-.35742-.76709-.55176Z" fill="#4d4d4d"/><path d="M21.97381,52.45708l-8.10157-3.78223.62256-1.334,8.10156,3.7832Z" fill="#4d4d4d"/><path d="M23.62957,49.00883,15.924,44.4727l.74707-1.26855,6.62451,3.90039,1.93409-3.28516,1.08056.63477Z" fill="#4d4d4d"/><path d="M27.18035,43.251l-7.10352-5.42969.89356-1.16992,6.10791,4.669L29.39324,38.292l.99609.76074Z" fill="#4d4d4d"/><path d="M35.2824,34.02934,32.89031,32.9102l-2.43359,2.43457L31.591,37.72368l-1.09716,1.09765L26.5241,30.09282,27.65593,28.96l8.73194,3.96289ZM31.72478,32.294l-2.31787-1.123q-.23877-.10839-.72607-.36425-.48706-.25635-.70362-.38575a13.71046,13.71046,0,0,1,.81983,1.50684l1.07324,2.22168Z" fill="#4d4d4d"/><path d="M37.32,26.19731l2.67138-1.96,2.65577,3.61816a9.67624,9.67624,0,0,1-1.0376,1.22461,11.252,11.252,0,0,1-1.23828,1.0459,4.0736,4.0736,0,0,1-3.25293.89649A4.82016,4.82016,0,0,1,34.218,28.94438a4.50214,4.50214,0,0,1-.99121-3.46387A4.71751,4.71751,0,0,1,35.28,22.46a6.72715,6.72715,0,0,1,2.47314-1.14746l.30323,1.2871a5.21991,5.21991,0,0,0-2.06446.89356,2.96027,2.96027,0,0,0-1.30469,2.07227,3.463,3.463,0,0,0,.7793,2.47753A3.66038,3.66038,0,0,0,37.549,29.60649a2.74994,2.74994,0,0,0,2.25537-.59766,7.15108,7.15108,0,0,0,1.126-1.04687l-1.36426-1.8584L38.0617,27.20805Z" fill="#4d4d4d"/><path d="M49.1325,24.73149l-4.4917,2.40039-4.21436-7.88476,4.4917-2.40137.58252,1.08984-3.19385,1.70606,1.14746,2.14746L46.447,20.1895l.57666,1.0791-2.99316,1.59961,1.32324,2.47461,3.19385-1.70606Z" fill="#4d4d4d"/><path d="M53.97185,22.7852l-2.93457-8.44629,1.39063-.48242,2.93457,8.44531Z" fill="#4d4d4d"/><path d="M64.85857,19.9229l-1.76416.38086-5.83057-6.03125-.04785.00976.11377.38281q.32373,1.09278.52246,2.01368l.98,4.54394-1.30615.28223L55.6408,12.76469l1.74609-.37695,5.81055,5.998.03613-.00781q-.04175-.13478-.26416-.99122-.22193-.85692-.32666-1.34082l-.98779-4.5791,1.31885-.28418Z" fill="#4d4d4d"/><path d="M72.11785,16.96294a2.24313,2.24313,0,0,1-.74512,1.92382,3.79978,3.79978,0,0,1-2.34668.833,5.75625,5.75625,0,0,1-2.52588-.30859l-.08935-1.37891a6.87177,6.87177,0,0,0,1.33545.36719,5.53892,5.53892,0,0,0,1.29785.08008,2.06063,2.06063,0,0,0,1.26611-.41211,1.0759,1.0759,0,0,0,.35742-.91211,1.10872,1.10872,0,0,0-.436-.82422,5.78186,5.78186,0,0,0-1.627-.7207,4.17064,4.17064,0,0,1-1.80616-1.01758,2.37787,2.37787,0,0,1-.60351-1.49219,2.13607,2.13607,0,0,1,.68506-1.80957,3.3384,3.3384,0,0,1,2.103-.78027,6.35028,6.35028,0,0,1,2.60547.39453L71.1989,12.126a5.66134,5.66134,0,0,0-2.17138-.36133,1.648,1.648,0,0,0-1.06153.37793,1.012,1.012,0,0,0-.31591.83887,1.14464,1.14464,0,0,0,.186.58594,1.51024,1.51024,0,0,0,.51611.43457,8.26023,8.26023,0,0,0,1.2544.501,6.73981,6.73981,0,0,1,1.5.668,2.26356,2.26356,0,0,1,.728.75586A2.40121,2.40121,0,0,1,72.11785,16.96294Z" fill="#4d4d4d"/><path d="M77.02215,19.58891l-1.46973-.084.4375-7.67578-2.64356-.15039.07129-1.252,6.75733.38575-.07129,1.252-2.644-.15137Z" fill="#4d4d4d"/><path d="M80.985,20.00786l1.37158-8.835,1.45459.22558-1.37158,8.835Z" fill="#4d4d4d"/><path d="M87.777,21.40532l-1.42529-.36719,1.91845-7.44336-2.56445-.66211.313-1.21289,6.5542,1.68848-.313,1.21387L89.69549,13.962Z" fill="#4d4d4d"/><path d="M101.48552,16.94438l-2.24121,5.334a3.41614,3.41614,0,0,1-1.0664,1.43261,2.84248,2.84248,0,0,1-1.58448.5752,4.31688,4.31688,0,0,1-1.94091-.38184,3.63827,3.63827,0,0,1-2.06006-1.82129,3.1746,3.1746,0,0,1,.08056-2.59277L94.905,14.17876l1.36279.57324-2.19141,5.21582a2.24715,2.24715,0,0,0-.15576,1.70508,2.139,2.139,0,0,0,1.26075,1.10058,1.88017,1.88017,0,0,0,2.76025-1.19433l2.187-5.20508Z" fill="#4d4d4d"/><path d="M102.57244,27.85258l-1.26026-.76074,3.97168-6.58105-2.26709-1.36914.648-1.07325,5.79444,3.49708-.64746,1.07324-2.26758-1.36817Z" fill="#4d4d4d"/><path d="M105.902,30.08989l5.34375-7.16895,1.18017.88086-5.34423,7.168Z" fill="#4d4d4d"/><path d="M117.82146,34.5684a4.87118,4.87118,0,0,1-3.1372,1.69922,3.98975,3.98975,0,0,1-3.08936-1.2705,4.01894,4.01894,0,0,1-1.43848-3.03125,4.89862,4.89862,0,0,1,1.56446-3.22657,4.82073,4.82073,0,0,1,3.1416-1.70312,4.06474,4.06474,0,0,1,3.09033,1.30469,3.98506,3.98506,0,0,1,1.416,3.01367A4.86526,4.86526,0,0,1,117.82146,34.5684Zm-4.97656-4.74121a3.99087,3.99087,0,0,0-1.24121,2.27637,2.74665,2.74665,0,0,0,2.86719,2.74512,3.99958,3.99958,0,0,0,2.21777-1.35938,4.00484,4.00484,0,0,0,1.2417-2.26367,2.34708,2.34708,0,0,0-.84277-1.97656,2.398,2.398,0,0,0-2.03321-.76367A3.95565,3.95565,0,0,0,112.8449,29.82719Z" fill="#4d4d4d"/><path d="M120.32342,45.18266l-1.07374-1.45019,3.0918-7.79785-.0293-.04-.30126.26172q-.8628.7456-1.61963,1.30566l-3.73584,2.76562L115.86,39.15337l7.18652-5.31934,1.0625,1.43555-3.06934,7.7666.022.0293q.10546-.09375.79394-.64844.68849-.55665,1.08643-.85059l3.76513-2.78808.80274,1.084Z" fill="#4d4d4d"/><path d="M126.00945,50.56255a2.24478,2.24478,0,0,1-2.06006.11425,3.79141,3.79141,0,0,1-1.72656-1.79394,5.74151,5.74151,0,0,1-.76123-2.42774l1.21924-.65136a6.81491,6.81491,0,0,0,.21679,1.36816,5.56408,5.56408,0,0,0,.46143,1.21582,2.0624,2.0624,0,0,0,.89893.9834,1.0713,1.0713,0,0,0,.978-.05078,1.10894,1.10894,0,0,0,.57032-.73731,5.7703,5.7703,0,0,0-.01368-1.77929,4.16748,4.16748,0,0,1,.18067-2.06446,2.38714,2.38714,0,0,1,1.11133-1.166,2.13705,2.13705,0,0,1,1.93115-.12207,3.33682,3.33682,0,0,1,1.57812,1.59472,6.3507,6.3507,0,0,1,.71534,2.53516l-1.27247.14844a5.66986,5.66986,0,0,0-.5664-2.127,1.65234,1.65234,0,0,0-.78272-.81054,1.00708,1.00708,0,0,0-.89453.05859,1.14745,1.14745,0,0,0-.45654.41016,1.50452,1.50452,0,0,0-.18359.65039,8.18763,8.18763,0,0,0,.06152,1.34863,6.68959,6.68959,0,0,1,.00928,1.64258,2.24971,2.24971,0,0,1-.3877.97461A2.409,2.409,0,0,1,126.00945,50.56255Z" fill="#4d4d4d"/><g clip-path="url(#clip-path)"><polygon points="111.237 65.105 106.237 65.105 106.237 92.105 76.237 92.105 76.237 65.105 70.237 65.105 90.237 45.105 111.237 65.105" fill="#fff"/><path d="M76.2373,92.0422s11.0657.1299,3,3.0629-64-3-63.5106,5.736c1.0523,18.7833,81.5106,21.264,81.5106,21.264l9-11s-98-9-48.7158-8.7975c53.5313.2199,49.7158-10.2025,48.7158-10.2025-8.0657,0-19.3861-.0629-19.3861-.0629Z" fill="#fff"/><path d="M90.2239,92.0422s8.933,1.7264-5.9866,4.0629l5,1s18.6255-2.8632,8.8529-5.0629C96.2373,92.1051,90.2239,92.0422,90.2239,92.0422Z" fill="#56a8a4"/><path d="M75.1193,97.9081s-19.8163.4638-27.882,1.197c3.6662.7333,5,1,5,1s30.2145-.7305,26.5483-1.4637Z" fill="#56a8a4"/><path d="M79.8922,111.7437a84.23617,84.23617,0,0,0-11.6549,4.3614l-33-5,2.6549-5.3614Z" fill="#56a8a4"/><path d="M41.6177,70.5808a2.9877,2.9877,0,1,0-2.9874-2.9871A2.98791,2.98791,0,0,0,41.6177,70.5808Z" fill="#fff"/><circle cx="50.5961" cy="67.5928" r="2.9877" fill="#fff"/><circle cx="59.5745" cy="67.5928" r="2.9877" fill="#fff"/><path d="M62.5553,79.9453a.65763.65763,0,0,1,.097-.5229l1.2908-1.6753a.686.686,0,0,0,.105-.5253l-1.4895-5.5534a.41281.41281,0,0,0-.3765-.2888H56.9654a.41206.41206,0,0,0-.3759.2888l-1.4886,5.5534a.51053.51053,0,0,0-.0156.1299.51053.51053,0,0,0-.0156-.1299l-1.4895-5.5534a.41219.41219,0,0,0-.3765-.2888H47.9873a.41274.41274,0,0,0-.3762.2888l-1.4886,5.5534a.51053.51053,0,0,0-.0156.1299.51515.51515,0,0,0-.0155-.1299l-1.4892-5.5534a.41281.41281,0,0,0-.3765-.2888H39.0089a.41206.41206,0,0,0-.3759.2888l-1.4889,5.5534a.68985.68985,0,0,0,.1045.5259l1.28,1.6741a.66208.66208,0,0,1,.0961.5235l-1.4025,4.6906a.21073.21073,0,0,0,.2131.2864h1.4922a.33075.33075,0,0,1,.3233.2974l.4851,5.979a.33045.33045,0,0,0,.3232.2978h3.1068a.3303.3303,0,0,0,.3229-.2978l.4846-5.9789a.33052.33052,0,0,1,.3229-.2975h1.4931a.21033.21033,0,0,0,.2128-.2864l-1.4036-4.6906a.6568.6568,0,0,1,.0969-.5229l1.2908-1.6753a.68915.68915,0,0,0,.1206-.3936.69368.69368,0,0,0,.12.3942l1.2801,1.6741a.662.662,0,0,1,.096.5235l-1.4024,4.6906a.2107.2107,0,0,0,.2131.2864h1.4922a.33007.33007,0,0,1,.3229.2975l.4854,5.9789a.33055.33055,0,0,0,.323.2978H52.144a.33066.33066,0,0,0,.3232-.2978l.4842-5.9789a.33069.33069,0,0,1,.323-.2975h1.4931a.21073.21073,0,0,0,.2131-.2864l-1.4037-4.6906a.65763.65763,0,0,1,.097-.5229l1.2908-1.6753a.69121.69121,0,0,0,.1203-.3936.69577.69577,0,0,0,.1197.3942l1.28,1.6741a.66049.66049,0,0,1,.0961.5235l-1.4027,4.6906a.2108.2108,0,0,0,.2131.2864h1.4922a.33037.33037,0,0,1,.3229.2975l.4851,5.9789a.33075.33075,0,0,0,.3232.2978h3.1069a.33015.33015,0,0,0,.3229-.2978l.4845-5.9789a.3306.3306,0,0,1,.3229-.2975h1.4931a.21044.21044,0,0,0,.2128-.2864Z" fill="#fff"/><rect x="85.2373" y="69.1051" width="11.9266" height="23" fill="#56a8a4"/></g></g></g></svg>