<svg xmlns="http://www.w3.org/2000/svg" xmlns:xlink="http://www.w3.org/1999/xlink" viewBox="0 0 310 310"><defs><linearGradient id="New_Gradient_Swatch_7" x1="45.25201" y1="263.88019" x2="263.74799" y2="45.38421" gradientUnits="userSpaceOnUse"><stop offset="0" stop-color="#38a380"/><stop offset="0.06811" stop-color="#4fa684"/><stop offset="0.19954" stop-color="#74ac8a"/><stop offset="0.33708" stop-color="#93b090"/><stop offset="0.4803" stop-color="#abb494"/><stop offset="0.63159" stop-color="#bcb697"/><stop offset="0.79642" stop-color="#c6b898"/><stop offset="1" stop-color="#c9b899"/></linearGradient><linearGradient id="New_Gradient_Swatch_7-2" x1="45.39843" y1="264.60157" x2="264.60153" y2="45.39847" xlink:href="#New_Gradient_Swatch_7"/></defs><g id="Layer_2" data-name="Layer 2"><g id="Layer_1-2" data-name="Layer 1"><circle cx="154.5" cy="154.6322" r="153.5" fill="#56a8a4" stroke-miterlimit="10" stroke-width="2" stroke="url(#New_Gradient_Swatch_7)"/><path d="M50.09957,115.65608,48.5273,99.05842h-.082a39.78766,39.78766,0,0,1-.752,4.64844l-2.51563,11.94922H42.18355l4.22461-19.98829h4.416l1.49023,15.709h.082l8.28516-15.709h4.70313L61.2148,115.65608H58.11129l2.48828-11.92188q.5332-2.543,1.17578-4.67578h-.082l-8.791,16.59766Z" fill="#fff"/><path d="M70.73043,115.92951a3.71034,3.71034,0,0,1-3.04883-1.38672,6.06489,6.06489,0,0,1-1.12109-3.90429,13.946,13.946,0,0,1,.95019-5.168,9.32031,9.32031,0,0,1,2.61817-3.80664,5.57008,5.57008,0,0,1,3.66406-1.40235,3.88715,3.88715,0,0,1,3.77344,2.4336h.13672l.84765-2.16016h2.46094l-3.22656,15.1211H75.29684l.2871-2.40625h-.082A6.136,6.136,0,0,1,70.73043,115.92951Zm1.17578-2.59765a3.16848,3.16848,0,0,0,2.20117-1.0586,8.01175,8.01175,0,0,0,1.77735-2.83789,10.53372,10.53372,0,0,0,.69726-3.88281,2.82233,2.82233,0,0,0-.64258-1.93359,2.13113,2.13113,0,0,0-1.68164-.73243,3.04,3.04,0,0,0-2.1875,1.05274,7.50088,7.50088,0,0,0-1.64062,2.86523,11.58784,11.58784,0,0,0-.61524,3.752,3.29624,3.29624,0,0,0,.55371,2.08593A1.862,1.862,0,0,0,71.90621,113.33186Z" fill="#fff"/><path d="M93.61715,100.535H97.3359l-6.60352,6.63086,3.97852,8.49024h-3.582l-2.85743-6.43946-1.85937,1.3125-1.05273,5.127H82.13277l4.51172-21.27344h3.21289q-1.84571,8.57226-2.18066,9.97461-.33545,1.40039-.81348,3.0957h.05469Z" fill="#fff"/><path d="M100.13863,115.65608H96.91207l3.22656-15.1211h3.21289Zm.64258-18.83985a2.123,2.123,0,0,1,.5332-1.5039,1.95032,1.95032,0,0,1,1.50391-.57422,1.8163,1.8163,0,0,1,1.17578.36328,1.32443,1.32443,0,0,1,.45117,1.09961,2.09707,2.09707,0,0,1-.54687,1.53125,1.90951,1.90951,0,0,1-1.43555.56054,1.954,1.954,0,0,1-1.20312-.35546A1.30121,1.30121,0,0,1,100.78121,96.81623Z" fill="#fff"/><path d="M113.56441,115.65608l1.94141-9.1875a10.315,10.315,0,0,0,.24609-1.791,1.57134,1.57134,0,0,0-1.76367-1.791,3.06338,3.06338,0,0,0-1.9414.7793,7.05632,7.05632,0,0,0-1.72266,2.25,12.70966,12.70966,0,0,0-1.14844,3.32813l-1.33984,6.41211h-3.22656l3.22656-15.1211h2.51562l-.28711,2.80274h.12305a8.20808,8.20808,0,0,1,2.33789-2.34375,4.93047,4.93047,0,0,1,2.61133-.73243,3.76767,3.76767,0,0,1,2.83691,1.03907,4.07775,4.07775,0,0,1,1.00489,2.95312,12.87042,12.87042,0,0,1-.31446,2.47461l-1.873,8.92774Z" fill="#fff"/><path d="M136.10934,100.535l-.42383,1.873-2.625.45117a4.27769,4.27769,0,0,1,.38281,1.873,5.5186,5.5186,0,0,1-1.62695,4.1914,6.05751,6.05751,0,0,1-4.36133,1.55079,6.36193,6.36193,0,0,1-1.25781-.10938q-1.51758.54784-1.51758,1.42188a.70667.70667,0,0,0,.43066.71093,4.69469,4.69469,0,0,0,1.251.30078l1.73633.21875a6.56353,6.56353,0,0,1,3.44531,1.19727,3.19927,3.19927,0,0,1,1.03906,2.5625,4.77767,4.77767,0,0,1-2.06445,4.14258,10.04313,10.04313,0,0,1-5.86524,1.46289,7.65945,7.65945,0,0,1-4.2998-1.02539,3.21937,3.21937,0,0,1-1.52441-2.81641,3.45865,3.45865,0,0,1,.95019-2.43359,7.32925,7.32925,0,0,1,3.05566-1.73633,1.921,1.921,0,0,1-1.03906-1.73633,2.3287,2.3287,0,0,1,.63574-1.63281,6.48047,6.48047,0,0,1,2.00293-1.334,3.73323,3.73323,0,0,1-1.8457-3.44531,5.77924,5.77924,0,0,1,1.67481-4.32031,6.048,6.048,0,0,1,4.42285-1.64063,9.02134,9.02134,0,0,1,2.1875.27344ZM124.91207,115.41a4.59287,4.59287,0,0,0-2.35156.97071,2.296,2.296,0,0,0-.82032,1.791,1.64154,1.64154,0,0,0,.75879,1.416,4.11108,4.11108,0,0,0,2.31739.52539,6.91083,6.91083,0,0,0,3.48632-.73828,2.32876,2.32876,0,0,0,1.25782-2.11914,1.23727,1.23727,0,0,0-.61524-1.09375,5.3086,5.3086,0,0,0-2.16015-.56055Zm3.69141-13.002a2.446,2.446,0,0,0-1.5586.52734,3.40693,3.40693,0,0,0-1.03906,1.43555,5.23656,5.23656,0,0,0-.36914,1.98828,2.13179,2.13179,0,0,0,.48535,1.498,1.79364,1.79364,0,0,0,1.3877.52539,2.34708,2.34708,0,0,0,1.53808-.5332,3.46887,3.46887,0,0,0,1.01172-1.4629,5.56809,5.56809,0,0,0,.36231-2.0371Q130.42184,102.41,128.60348,102.408Z" fill="#fff"/><path d="M146.21285,115.65608h-3.22656l3.22656-15.1211h3.21289Zm.64258-18.83985a2.123,2.123,0,0,1,.5332-1.5039,1.95032,1.95032,0,0,1,1.50391-.57422,1.8163,1.8163,0,0,1,1.17578.36328,1.32443,1.32443,0,0,1,.45117,1.09961,2.09711,2.09711,0,0,1-.54687,1.53125,1.90951,1.90951,0,0,1-1.43555.56054,1.95408,1.95408,0,0,1-1.20313-.35546A1.30123,1.30123,0,0,1,146.85543,96.81623Z" fill="#fff"/><path d="M159.63863,115.65608l1.94141-9.1875a10.315,10.315,0,0,0,.24609-1.791,1.57134,1.57134,0,0,0-1.76367-1.791,3.06342,3.06342,0,0,0-1.94141.7793,7.05645,7.05645,0,0,0-1.72265,2.25A12.70966,12.70966,0,0,0,155.25,109.244l-1.33984,6.41211h-3.22657l3.22657-15.1211h2.51562l-.28711,2.80274h.12305a8.208,8.208,0,0,1,2.33789-2.34375,4.93047,4.93047,0,0,1,2.61133-.73243,3.76767,3.76767,0,0,1,2.83691,1.03907,4.07774,4.07774,0,0,1,1.00488,2.95312,12.87028,12.87028,0,0,1-.31445,2.47461l-1.873,8.92774Z" fill="#fff"/><path d="M165.51754,122.38264a5.65444,5.65444,0,0,1-2.03711-.31445v-2.59766a5.28567,5.28567,0,0,0,1.55859.27344q1.83252,0,2.41992-2.80274l2.9668-13.97265h-2.44726l.28711-1.44922,2.65234-1.03907.28711-1.25781a7.313,7.313,0,0,1,1.83887-3.84765,4.98144,4.98144,0,0,1,3.50683-1.14258,6.99842,6.99842,0,0,1,2.88477.58789l-.834,2.40625a5.32243,5.32243,0,0,0-1.85937-.38281,2.00712,2.00712,0,0,0-1.51074.58789,4.05225,4.05225,0,0,0-.86817,1.92773l-.24609,1.17578H177.248l-.50586,2.4336h-3.13086l-3.04883,14.39648a7.33558,7.33558,0,0,1-1.791,3.80078A4.45323,4.45323,0,0,1,165.51754,122.38264Z" fill="#fff"/><path d="M190.90621,106.19514a12.32558,12.32558,0,0,1-.998,5.02539,8.05417,8.05417,0,0,1-2.74121,3.47266,6.864,6.864,0,0,1-4.01269,1.209,5.59576,5.59576,0,0,1-4.16992-1.56445,5.79771,5.79771,0,0,1-1.54493-4.25977,12.49559,12.49559,0,0,1,.97754-4.99023,8.23114,8.23114,0,0,1,2.74121-3.53321,6.80862,6.80862,0,0,1,4.07422-1.26562,5.47365,5.47365,0,0,1,4.16992,1.58594A6.024,6.024,0,0,1,190.90621,106.19514Zm-3.24023-.13672a3.54128,3.54128,0,0,0-.66993-2.28906,2.321,2.321,0,0,0-1.91406-.82813,3.17988,3.17988,0,0,0-2.27637.97852,6.43905,6.43905,0,0,0-1.55859,2.65234,11.317,11.317,0,0,0-.55371,3.57422,3.52422,3.52422,0,0,0,.67676,2.32422,2.46276,2.46276,0,0,0,2.00293.80664,3.14024,3.14024,0,0,0,2.21484-.92969,6.1036,6.1036,0,0,0,1.53125-2.60351A11.83542,11.83542,0,0,0,187.666,106.05842Z" fill="#fff"/><path d="M203.10152,100.26154a5.888,5.888,0,0,1,1.47657.16407l-.69727,2.99414a5.59494,5.59494,0,0,0-1.39453-.19141,4.01741,4.01741,0,0,0-3.07617,1.54492,8.80546,8.80546,0,0,0-1.88672,4.04688l-1.44922,6.83594h-3.22656l3.22656-15.1211h2.51562l-.28711,2.80274h.123a8.36079,8.36079,0,0,1,2.26953-2.35743A4.429,4.429,0,0,1,203.10152,100.26154Z" fill="#fff"/><path d="M214.66793,100.26154q3.00732,0,3.47266,3.2129H218.25A7.64293,7.64293,0,0,1,220.581,101.076a5.057,5.057,0,0,1,2.71387-.81446,3.55226,3.55226,0,0,1,2.76856,1.04688,4.22416,4.22416,0,0,1,.95019,2.94531,14.42973,14.42973,0,0,1-.30078,2.47461l-1.91406,8.92774H221.5859l1.95508-9.1875a10.95406,10.95406,0,0,0,.25976-1.81836q0-1.76367-1.6543-1.76368a3.54046,3.54046,0,0,0-2.75488,1.69532,11.2337,11.2337,0,0,0-1.86621,4.498l-1.38086,6.57618H212.9316l1.95508-9.1875a9.164,9.164,0,0,0,.23242-1.73633q0-1.8457-1.59961-1.84571a3.5426,3.5426,0,0,0-2.78223,1.73633,11.94986,11.94986,0,0,0-1.89355,4.6211l-1.33984,6.41211H204.2773l3.22657-15.1211h2.51562l-.28711,2.80274h.12305Q211.87838,100.26155,214.66793,100.26154Z" fill="#fff"/><path d="M235.50387,115.92951a5.6667,5.6667,0,0,1-4.20411-1.51757,5.74463,5.74463,0,0,1-1.51074-4.23829,12.02991,12.02991,0,0,1,1.05957-5.03711,8.63693,8.63693,0,0,1,2.8711-3.60351,6.89191,6.89191,0,0,1,4.05371-1.27149,5.30077,5.30077,0,0,1,3.4248.99219,3.40928,3.40928,0,0,1,1.22364,2.8086,4.3529,4.3529,0,0,1-2.27637,3.89062,12.44168,12.44168,0,0,1-6.48731,1.40039h-.58789l-.02734.42383v.39648a3.43719,3.43719,0,0,0,.77246,2.37891,2.93632,2.93632,0,0,0,2.30371.86133,7.50669,7.50669,0,0,0,1.95508-.25977,13.74657,13.74657,0,0,0,2.29687-.88867v2.55664a12.63707,12.63707,0,0,1-2.41308.85547A11.01642,11.01642,0,0,1,235.50387,115.92951Zm2.07812-13.207a3.43978,3.43978,0,0,0-2.46777,1.17578,6.78054,6.78054,0,0,0-1.66113,3.10352h.39648a9.0621,9.0621,0,0,0,4.01953-.73047,2.2656,2.2656,0,0,0,1.44922-2.07227,1.37681,1.37681,0,0,0-.4375-1.08593A1.89946,1.89946,0,0,0,237.582,102.72248Z" fill="#fff"/><path d="M251.71871,100.26154a3.90887,3.90887,0,0,1,3.66406,2.4336h.10938a25.50121,25.50121,0,0,1,.50586-3.418l1.03906-4.89453h3.18555l-4.51172,21.27344h-2.51563l.25977-2.40625h-.0957a8.47,8.47,0,0,1-2.32422,2.06445,4.86961,4.86961,0,0,1-2.37891.61523,3.7011,3.7011,0,0,1-3.0625-1.38672,6.16592,6.16592,0,0,1-1.10742-3.93164,13.92993,13.92993,0,0,1,.97754-5.23632,9.15958,9.15958,0,0,1,2.61816-3.77344A5.61585,5.61585,0,0,1,251.71871,100.26154Zm-1.832,13.07032a3.16206,3.16206,0,0,0,2.22168-1.1211A8.087,8.087,0,0,0,253.872,109.285a10.506,10.506,0,0,0,.66309-3.65039,3.13028,3.13028,0,0,0-.59473-1.99609,2.17178,2.17178,0,0,0-1.81152-.752,2.99769,2.99769,0,0,0-2.17383,1.05274,7.46647,7.46647,0,0,0-1.61328,2.88476,11.89472,11.89472,0,0,0-.60157,3.73243Q247.74019,113.33381,249.88668,113.33186Z" fill="#fff"/><path d="M78.11324,133.86213a3.9074,3.9074,0,0,1,3.66406,2.43359h.10938a25.45266,25.45266,0,0,1,.50586-3.418l1.03906-4.89454h3.18555l-4.51172,21.27344H79.5898l.25977-2.40625h-.0957a8.48623,8.48623,0,0,1-2.32422,2.06446,4.86972,4.86972,0,0,1-2.37891.61523,3.69913,3.69913,0,0,1-3.0625-1.3877,6.16106,6.16106,0,0,1-1.10742-3.93066,13.92272,13.92272,0,0,1,.97754-5.23633,9.14683,9.14683,0,0,1,2.61816-3.77344A5.61062,5.61062,0,0,1,78.11324,133.86213Zm-1.832,13.07031a3.1659,3.1659,0,0,0,2.22168-1.12109,8.09546,8.09546,0,0,0,1.76367-2.92578,10.506,10.506,0,0,0,.66309-3.65039,3.12651,3.12651,0,0,0-.59473-1.9961,2.169,2.169,0,0,0-1.81152-.75195,2.99406,2.99406,0,0,0-2.17383,1.05274,7.452,7.452,0,0,0-1.61328,2.88476,11.88565,11.88565,0,0,0-.60156,3.73242Q74.13473,146.93294,76.28121,146.93244Z" fill="#fff"/><path d="M92.97457,149.5301a5.66662,5.66662,0,0,1-4.2041-1.51758,5.7461,5.7461,0,0,1-1.51074-4.23828,12.03742,12.03742,0,0,1,1.05957-5.03809,8.63976,8.63976,0,0,1,2.87109-3.60253,6.89193,6.89193,0,0,1,4.05371-1.27149,5.30639,5.30639,0,0,1,3.42481.99121,3.41122,3.41122,0,0,1,1.22363,2.80957,4.35141,4.35141,0,0,1-2.27637,3.88965,12.43132,12.43132,0,0,1-6.4873,1.40137H90.541l-.02735.42383v.39648a3.43719,3.43719,0,0,0,.77246,2.37891,2.93633,2.93633,0,0,0,2.30371.86132,7.54859,7.54859,0,0,0,1.95508-.25976,13.92072,13.92072,0,0,0,2.29688-.88867v2.55664a12.62977,12.62977,0,0,1-2.41309.85449A11.01379,11.01379,0,0,1,92.97457,149.5301Zm2.07812-13.207a3.436,3.436,0,0,0-2.46777,1.17578,6.77553,6.77553,0,0,0-1.66113,3.10352h.39648a9.04709,9.04709,0,0,0,4.01953-.73145,2.26435,2.26435,0,0,0,1.44922-2.07129,1.37894,1.37894,0,0,0-.4375-1.08691A1.89936,1.89936,0,0,0,95.05269,136.32307Z" fill="#fff"/><path d="M107.5898,149.5301a5.68409,5.68409,0,0,1-4.15625-1.44922,5.54317,5.54317,0,0,1-1.47656-4.14258,12.80619,12.80619,0,0,1,1.00488-5.14746,8.5045,8.5045,0,0,1,2.82325-3.62305,6.90544,6.90544,0,0,1,4.1289-1.30566,9.63041,9.63041,0,0,1,4.06055.834l-.957,2.51562a7.67728,7.67728,0,0,0-3.02149-.72461,4.00374,4.00374,0,0,0-3.418,2.09863,9.31434,9.31434,0,0,0-1.36719,5.18848,3.29787,3.29787,0,0,0,.76562,2.33789,2.75722,2.75722,0,0,0,2.11914.82031,5.83456,5.83456,0,0,0,1.89356-.30078,14.81744,14.81744,0,0,0,1.77051-.73828v2.666A9.08317,9.08317,0,0,1,107.5898,149.5301Z" fill="#fff"/><path d="M117.58394,149.25666h-3.22656l3.22656-15.12109h3.2129Zm.64258-18.83984a2.12138,2.12138,0,0,1,.53321-1.50391,1.95032,1.95032,0,0,1,1.5039-.57422,1.8215,1.8215,0,0,1,1.17578.36231,1.32773,1.32773,0,0,1,.45118,1.10058,2.10019,2.10019,0,0,1-.54688,1.53125,1.91314,1.91314,0,0,1-1.43555.56055,1.96028,1.96028,0,0,1-1.20312-.35547A1.30357,1.30357,0,0,1,118.22652,130.41682Z" fill="#fff"/><path d="M132.10348,144.60822a4.3776,4.3776,0,0,1-1.61329,3.64356,7.04524,7.04524,0,0,1-4.48437,1.27832,9.64988,9.64988,0,0,1-4.40234-.916v-2.77539a8.32192,8.32192,0,0,0,4.26562,1.23047,3.80858,3.80858,0,0,0,2.14649-.54687,1.70334,1.70334,0,0,0,.82031-1.49024,1.68083,1.68083,0,0,0-.47168-1.19629,9.23108,9.23108,0,0,0-1.93457-1.333,7.2078,7.2078,0,0,1-2.41309-1.86622,3.66871,3.66871,0,0,1-.7041-2.249,4.06521,4.06521,0,0,1,1.46289-3.32226,6.03476,6.03476,0,0,1,3.95117-1.20313,9.5184,9.5184,0,0,1,4.73047,1.14844l-1.03906,2.40625a7.65181,7.65181,0,0,0-3.63672-1.03906,2.69626,2.69626,0,0,0-1.62012.45117,1.46453,1.46453,0,0,0-.62207,1.25781,1.55039,1.55039,0,0,0,.45117,1.09375,7.9671,7.9671,0,0,0,1.84571,1.23047,10.747,10.747,0,0,1,2.03711,1.38086,4.14671,4.14671,0,0,1,.916,1.251A3.67224,3.67224,0,0,1,132.10348,144.60822Z" fill="#fff"/><path d="M137.88668,149.25666h-3.22656l3.22656-15.12109h3.21289Zm.64258-18.83984a2.12137,2.12137,0,0,1,.5332-1.50391,1.95035,1.95035,0,0,1,1.50391-.57422,1.82152,1.82152,0,0,1,1.17578.36231,1.32773,1.32773,0,0,1,.45117,1.10058,2.10019,2.10019,0,0,1-.54688,1.53125,1.91311,1.91311,0,0,1-1.43554.56055,1.96033,1.96033,0,0,1-1.20313-.35547A1.30359,1.30359,0,0,1,138.52926,130.41682Z" fill="#fff"/><path d="M156.46676,139.79572a12.32093,12.32093,0,0,1-.99805,5.02442,8.0483,8.0483,0,0,1-2.74121,3.47265,6.86471,6.86471,0,0,1-4.0127,1.21,5.5926,5.5926,0,0,1-4.16992-1.56543A5.79537,5.79537,0,0,1,143,143.67854a12.48871,12.48871,0,0,1,.97754-4.99024,8.23417,8.23417,0,0,1,2.74121-3.53418,6.81448,6.81448,0,0,1,4.07422-1.26465,5.47008,5.47008,0,0,1,4.16992,1.58594A6.02082,6.02082,0,0,1,156.46676,139.79572Zm-3.24024-.13671a3.54418,3.54418,0,0,0-.66992-2.29,2.32316,2.32316,0,0,0-1.91406-.82715,3.18272,3.18272,0,0,0-2.27637.97754,6.45186,6.45186,0,0,0-1.55859,2.65234,11.32313,11.32313,0,0,0-.55371,3.5752,3.526,3.526,0,0,0,.67675,2.32422,2.46578,2.46578,0,0,0,2.00293.80664,3.14439,3.14439,0,0,0,2.21485-.92969,6.10756,6.10756,0,0,0,1.53125-2.60449A11.82468,11.82468,0,0,0,153.22652,139.659Z" fill="#fff"/><path d="M167.36324,149.25666l1.94141-9.1875a10.32665,10.32665,0,0,0,.24609-1.791,1.571,1.571,0,0,0-1.76367-1.791,3.06342,3.06342,0,0,0-1.94141.7793,7.06255,7.06255,0,0,0-1.72265,2.249,12.71645,12.71645,0,0,0-1.14844,3.3291l-1.33984,6.41211h-3.22657l3.22657-15.12109h2.51562l-.28711,2.80273h.12305a8.21289,8.21289,0,0,1,2.33789-2.34472,4.93827,4.93827,0,0,1,2.61133-.73145,3.764,3.764,0,0,1,2.83691,1.03906,4.07463,4.07463,0,0,1,1.00488,2.95313,12.87938,12.87938,0,0,1-.31445,2.47461l-1.87305,8.92773Z" fill="#fff"/><path d="M184.97262,144.60822a4.37762,4.37762,0,0,1-1.61328,3.64356,7.04529,7.04529,0,0,1-4.48438,1.27832,9.64988,9.64988,0,0,1-4.40234-.916v-2.77539a8.32192,8.32192,0,0,0,4.26562,1.23047,3.80858,3.80858,0,0,0,2.14649-.54687,1.70334,1.70334,0,0,0,.82031-1.49024,1.68083,1.68083,0,0,0-.47168-1.19629,9.2308,9.2308,0,0,0-1.93457-1.333,7.2078,7.2078,0,0,1-2.41309-1.86622,3.66871,3.66871,0,0,1-.7041-2.249,4.06524,4.06524,0,0,1,1.46289-3.32226,6.03476,6.03476,0,0,1,3.95117-1.20313,9.5184,9.5184,0,0,1,4.73047,1.14844l-1.03906,2.40625a7.65181,7.65181,0,0,0-3.63672-1.03906,2.69626,2.69626,0,0,0-1.62012.45117,1.46453,1.46453,0,0,0-.62207,1.25781,1.55035,1.55035,0,0,0,.45118,1.09375,7.96675,7.96675,0,0,0,1.8457,1.23047,10.747,10.747,0,0,1,2.03711,1.38086,4.14671,4.14671,0,0,1,.916,1.251A3.67224,3.67224,0,0,1,184.97262,144.60822Z" fill="#fff"/><path d="M193.12105,155.98322a5.65448,5.65448,0,0,1-2.03711-.31445v-2.59765a5.286,5.286,0,0,0,1.5586.27343q1.83252,0,2.41992-2.80273l2.9668-13.97266H195.582l.28711-1.44922,2.65234-1.03906.28711-1.25781a7.32046,7.32046,0,0,1,1.83887-3.84863,4.98567,4.98567,0,0,1,3.50684-1.14161,6.98284,6.98284,0,0,1,2.88476.58789l-.834,2.40625a5.30062,5.30062,0,0,0-1.85938-.38281,2.00352,2.00352,0,0,0-1.51074.58789,4.043,4.043,0,0,0-.86816,1.92774l-.2461,1.17578h3.13086l-.50586,2.43359H201.2148L198.166,150.96565a7.33957,7.33957,0,0,1-1.791,3.80078A4.45327,4.45327,0,0,1,193.12105,155.98322Z" fill="#fff"/><path d="M218.50973,139.79572a12.32093,12.32093,0,0,1-.998,5.02442,8.0483,8.0483,0,0,1-2.74121,3.47265,6.86471,6.86471,0,0,1-4.0127,1.21,5.59259,5.59259,0,0,1-4.16992-1.56543,5.79537,5.79537,0,0,1-1.54492-4.25879,12.48871,12.48871,0,0,1,.97754-4.99024,8.23417,8.23417,0,0,1,2.74121-3.53418,6.81448,6.81448,0,0,1,4.07422-1.26465,5.47008,5.47008,0,0,1,4.16992,1.58594A6.02082,6.02082,0,0,1,218.50973,139.79572Zm-3.24024-.13671a3.54418,3.54418,0,0,0-.66992-2.29,2.32316,2.32316,0,0,0-1.91406-.82715,3.18272,3.18272,0,0,0-2.27637.97754,6.45186,6.45186,0,0,0-1.55859,2.65234,11.32313,11.32313,0,0,0-.55371,3.5752,3.526,3.526,0,0,0,.67675,2.32422,2.46576,2.46576,0,0,0,2.00293.80664,3.14439,3.14439,0,0,0,2.21485-.92969,6.10756,6.10756,0,0,0,1.53125-2.60449A11.825,11.825,0,0,0,215.26949,139.659Z" fill="#fff"/><path d="M230.705,133.86213a5.88833,5.88833,0,0,1,1.47656.16406l-.69726,2.99414a5.55025,5.55025,0,0,0-1.39454-.1914,4.01432,4.01432,0,0,0-3.07617,1.54492,8.80081,8.80081,0,0,0-1.88672,4.04687l-1.44922,6.83594h-3.22656l3.22656-15.12109h2.51563l-.28711,2.80273h.12305a8.36581,8.36581,0,0,1,2.26953-2.3584A4.42782,4.42782,0,0,1,230.705,133.86213Z" fill="#fff"/><path d="M103.63863,183.13069a5.66664,5.66664,0,0,1-4.2041-1.51758,5.74612,5.74612,0,0,1-1.51074-4.23828,12.04192,12.04192,0,0,1,1.05957-5.03907,8.64291,8.64291,0,0,1,2.87109-3.60156,6.89194,6.89194,0,0,1,4.05371-1.27148,5.3062,5.3062,0,0,1,3.42481.99023,3.41318,3.41318,0,0,1,1.22363,2.81055,4.351,4.351,0,0,1-2.27637,3.88867,12.421,12.421,0,0,1-6.4873,1.40234H101.205l-.02735.42383v.39649a3.43719,3.43719,0,0,0,.77247,2.3789,2.93631,2.93631,0,0,0,2.30371.86133,7.5481,7.5481,0,0,0,1.95507-.25977,14.00726,14.00726,0,0,0,2.29688-.88867v2.55664a12.68805,12.68805,0,0,1-2.41309.85352A10.95415,10.95415,0,0,1,103.63863,183.13069Zm2.07813-13.207a3.43606,3.43606,0,0,0-2.46778,1.17579,6.77058,6.77058,0,0,0-1.66113,3.10351h.39649a9.04578,9.04578,0,0,0,4.01953-.73242,2.26313,2.26313,0,0,0,1.44922-2.07031,1.381,1.381,0,0,0-.4375-1.08789A1.89929,1.89929,0,0,0,105.71676,169.92365Z" fill="#fff"/><path d="M110.29684,189.58381a5.67592,5.67592,0,0,1-2.03711-.31445V186.6717a5.31776,5.31776,0,0,0,1.55859.27344q1.81787,0,2.41992-2.80274l2.9668-13.97265h-2.44727l.28711-1.44922,2.65235-1.03906.28711-1.25782a7.32409,7.32409,0,0,1,1.83886-3.84961,4.99,4.99,0,0,1,3.50684-1.14062,6.96722,6.96722,0,0,1,2.88476.58789l-.834,2.40625a5.27867,5.27867,0,0,0-1.85938-.38281,1.99988,1.99988,0,0,0-1.51074.58789,4.043,4.043,0,0,0-.86816,1.92773l-.2461,1.17578h5.98829l.31445-1.3125a7.4464,7.4464,0,0,1,1.81836-3.84179,4.90844,4.90844,0,0,1,3.5-1.14844,7.03416,7.03416,0,0,1,2.91211.58789l-.84766,2.40625a5.2522,5.2522,0,0,0-1.8457-.38281,1.99,1.99,0,0,0-1.52442.58789,4.13144,4.13144,0,0,0-.85449,1.92773l-.24609,1.17578h3.13086l-.53321,2.4336h-3.10351l-3.04883,14.39648a7.49825,7.49825,0,0,1-1.82519,3.82031,4.43807,4.43807,0,0,1-3.21973,1.19727,5.34259,5.34259,0,0,1-2.03711-.31445V186.6717a4.94932,4.94932,0,0,0,1.55859.27344q1.85889,0,2.40625-2.80274l2.93946-13.97265h-5.98828l-3.04883,14.39648a7.34337,7.34337,0,0,1-1.791,3.80078A4.45721,4.45721,0,0,1,110.29684,189.58381Z" fill="#fff"/><path d="M137.1484,183.13069a5.66662,5.66662,0,0,1-4.2041-1.51758,5.74612,5.74612,0,0,1-1.51075-4.23828,12.04207,12.04207,0,0,1,1.05957-5.03907,8.643,8.643,0,0,1,2.8711-3.60156,6.89192,6.89192,0,0,1,4.05371-1.27148,5.30619,5.30619,0,0,1,3.4248.99023,3.41318,3.41318,0,0,1,1.22364,2.81055,4.351,4.351,0,0,1-2.27637,3.88867,12.421,12.421,0,0,1-6.48731,1.40234h-.58789l-.02734.42383v.39649a3.43718,3.43718,0,0,0,.77246,2.3789,2.93632,2.93632,0,0,0,2.30371.86133,7.54818,7.54818,0,0,0,1.95508-.25977,14.0076,14.0076,0,0,0,2.29688-.88867v2.55664a12.68805,12.68805,0,0,1-2.41309.85352A10.95428,10.95428,0,0,1,137.1484,183.13069Zm2.07812-13.207a3.436,3.436,0,0,0-2.46777,1.17579,6.77048,6.77048,0,0,0-1.66113,3.10351h.39648a9.04575,9.04575,0,0,0,4.01953-.73242,2.26313,2.26313,0,0,0,1.44922-2.07031,1.381,1.381,0,0,0-.4375-1.08789A1.89928,1.89928,0,0,0,139.22652,169.92365Z" fill="#fff"/><path d="M151.76363,183.13069a5.68409,5.68409,0,0,1-4.15625-1.44922,5.54619,5.54619,0,0,1-1.47656-4.14258,12.811,12.811,0,0,1,1.00488-5.14844,8.50448,8.50448,0,0,1,2.82324-3.623,6.91118,6.91118,0,0,1,4.12891-1.30468,9.61562,9.61562,0,0,1,4.06055.834l-.957,2.51563a7.67728,7.67728,0,0,0-3.02149-.72461,4.00265,4.00265,0,0,0-3.418,2.09765,9.31778,9.31778,0,0,0-1.36718,5.18946,3.2979,3.2979,0,0,0,.76562,2.33789,2.75725,2.75725,0,0,0,2.11914.82031,5.83483,5.83483,0,0,0,1.89356-.30078,15.14682,15.14682,0,0,0,1.7705-.73828v2.666A9.09534,9.09534,0,0,1,151.76363,183.13069Z" fill="#fff"/><path d="M164.10934,180.533a5.96641,5.96641,0,0,0,2.06445-.42383v2.43359a6.00124,6.00124,0,0,1-1.29883.41016,7.81281,7.81281,0,0,1-1.64062.17774q-3.74562,0-3.7461-3.377a8.61135,8.61135,0,0,1,.21875-1.791l1.6543-7.793h-2.21485l.28711-1.50391,2.59766-1.12109,1.76367-3.17188h1.9961l-.71094,3.36328h3.81445l-.5332,2.4336h-3.78711l-1.668,7.82031a5.66629,5.66629,0,0,0-.17773,1.25781,1.27936,1.27936,0,0,0,.34179.93555A1.39589,1.39589,0,0,0,164.10934,180.533Z" fill="#fff"/><path d="M172.039,182.85725h-3.22656l3.22656-15.1211h3.21289Zm.64258-18.83985a2.12141,2.12141,0,0,1,.5332-1.5039,1.95035,1.95035,0,0,1,1.50391-.57422,1.82669,1.82669,0,0,1,1.17578.36133,1.32973,1.32973,0,0,1,.45117,1.10156,2.10175,2.10175,0,0,1-.54687,1.53125,1.91684,1.91684,0,0,1-1.43555.56055,1.96664,1.96664,0,0,1-1.20312-.35547A1.30479,1.30479,0,0,1,172.6816,164.0174Z" fill="#fff"/><path d="M179.02535,182.85725l-1.791-15.1211h3.17187l.752,8.17579q.19189,2.17382.19141,4.06054h.0957q.38234-1.0122.957-2.25586.57423-1.24512.88868-1.80468l4.252-8.17579h3.418l-8.17578,15.1211Z" fill="#fff"/><path d="M196.498,183.13069a5.66662,5.66662,0,0,1-4.2041-1.51758,5.74612,5.74612,0,0,1-1.51075-4.23828,12.04207,12.04207,0,0,1,1.05957-5.03907,8.643,8.643,0,0,1,2.8711-3.60156,6.89192,6.89192,0,0,1,4.05371-1.27148,5.30619,5.30619,0,0,1,3.4248.99023,3.41318,3.41318,0,0,1,1.22364,2.81055,4.351,4.351,0,0,1-2.27637,3.88867,12.421,12.421,0,0,1-6.48731,1.40234h-.58789l-.02734.42383v.39649a3.43718,3.43718,0,0,0,.77246,2.3789,2.93632,2.93632,0,0,0,2.30371.86133,7.54818,7.54818,0,0,0,1.95508-.25977,14.0072,14.0072,0,0,0,2.29687-.88867v2.55664a12.688,12.688,0,0,1-2.41308.85352A10.95428,10.95428,0,0,1,196.498,183.13069Zm2.07812-13.207a3.436,3.436,0,0,0-2.46777,1.17579,6.77048,6.77048,0,0,0-1.66113,3.10351h.39648a9.04575,9.04575,0,0,0,4.01953-.73242,2.26313,2.26313,0,0,0,1.44922-2.07031,1.381,1.381,0,0,0-.4375-1.08789A1.89928,1.89928,0,0,0,198.57613,169.92365Z" fill="#fff"/><path d="M63.09469,216.73029a5.66662,5.66662,0,0,1-4.2041-1.51757,5.74612,5.74612,0,0,1-1.51075-4.23828,12.04207,12.04207,0,0,1,1.05957-5.03907,8.643,8.643,0,0,1,2.8711-3.60156,6.8919,6.8919,0,0,1,4.05371-1.27148,5.30619,5.30619,0,0,1,3.4248.99023,3.41318,3.41318,0,0,1,1.22364,2.81055,4.351,4.351,0,0,1-2.27637,3.88867,12.421,12.421,0,0,1-6.48731,1.40234h-.58789l-.02734.42383v.39649a3.43718,3.43718,0,0,0,.77246,2.3789,2.93632,2.93632,0,0,0,2.30371.86133,7.54818,7.54818,0,0,0,1.95508-.25977,14.0072,14.0072,0,0,0,2.29687-.88867v2.55664a12.688,12.688,0,0,1-2.41308.85352A10.9543,10.9543,0,0,1,63.09469,216.73029Zm2.07812-13.207A3.43606,3.43606,0,0,0,62.705,204.699a6.77057,6.77057,0,0,0-1.66113,3.10352h.39648a9.04575,9.04575,0,0,0,4.01953-.73242,2.26313,2.26313,0,0,0,1.44922-2.07031,1.381,1.381,0,0,0-.4375-1.08789A1.89928,1.89928,0,0,0,65.17281,203.52326Z" fill="#fff"/><path d="M77.70992,216.73029a5.68409,5.68409,0,0,1-4.15625-1.44921,5.54619,5.54619,0,0,1-1.47656-4.14258,12.811,12.811,0,0,1,1.00488-5.14844,8.50448,8.50448,0,0,1,2.82324-3.62305,6.91118,6.91118,0,0,1,4.12891-1.30468,9.61562,9.61562,0,0,1,4.06055.834l-.957,2.51563a7.67732,7.67732,0,0,0-3.02149-.72461,4.00262,4.00262,0,0,0-3.418,2.09765,9.31779,9.31779,0,0,0-1.36719,5.18946,3.2979,3.2979,0,0,0,.76563,2.33789,2.75725,2.75725,0,0,0,2.11914.82031,5.83487,5.83487,0,0,0,1.89356-.30078,15.14682,15.14682,0,0,0,1.7705-.73828v2.666A9.09533,9.09533,0,0,1,77.70992,216.73029Z" fill="#fff"/><path d="M98.58687,206.99592a12.31626,12.31626,0,0,1-.998,5.02344,8.04259,8.04259,0,0,1-2.74121,3.47265,6.86552,6.86552,0,0,1-4.0127,1.21094,5.58934,5.58934,0,0,1-4.16992-1.56641,5.79452,5.79452,0,0,1-1.54492-4.25781,12.48527,12.48527,0,0,1,.97754-4.99023,8.23131,8.23131,0,0,1,2.74121-3.53516,6.82028,6.82028,0,0,1,4.07422-1.26367,5.47008,5.47008,0,0,1,4.16992,1.58594A6.01922,6.01922,0,0,1,98.58687,206.99592Zm-3.24023-.13672a3.54893,3.54893,0,0,0-.66992-2.291,2.32247,2.32247,0,0,0-1.91406-.82618,3.18561,3.18561,0,0,0-2.27637.97657,6.45843,6.45843,0,0,0-1.5586,2.65234,11.32484,11.32484,0,0,0-.55371,3.57617,3.526,3.526,0,0,0,.67676,2.32422,2.46875,2.46875,0,0,0,2.00293.80664,3.14854,3.14854,0,0,0,2.21484-.92969,6.11124,6.11124,0,0,0,1.53125-2.60547A11.81394,11.81394,0,0,0,95.34664,206.8592Z" fill="#fff"/><path d="M100.52828,210.3592l.61523-2.77539h6.86329l-.61524,2.77539Z" fill="#fff"/><path d="M119.65523,201.06233a5.888,5.888,0,0,1,1.47657.16406l-.69727,2.99414a5.55021,5.55021,0,0,0-1.39453-.19141,4.01429,4.01429,0,0,0-3.07617,1.54492,8.796,8.796,0,0,0-1.88672,4.04688l-1.44922,6.83594h-3.22656l3.22656-15.1211h2.51562l-.2871,2.80274h.123a8.37143,8.37143,0,0,1,2.26953-2.35938A4.42675,4.42675,0,0,1,119.65523,201.06233Z" fill="#fff"/><path d="M127.18844,216.73029a5.66662,5.66662,0,0,1-4.2041-1.51757,5.74612,5.74612,0,0,1-1.51075-4.23828,12.04207,12.04207,0,0,1,1.05957-5.03907,8.643,8.643,0,0,1,2.8711-3.60156,6.8919,6.8919,0,0,1,4.05371-1.27148,5.30619,5.30619,0,0,1,3.4248.99023,3.41318,3.41318,0,0,1,1.22364,2.81055,4.351,4.351,0,0,1-2.27637,3.88867,12.421,12.421,0,0,1-6.48731,1.40234h-.58789l-.02734.42383v.39649a3.43718,3.43718,0,0,0,.77246,2.3789,2.93632,2.93632,0,0,0,2.30371.86133,7.54818,7.54818,0,0,0,1.95508-.25977,14.0072,14.0072,0,0,0,2.29687-.88867v2.55664a12.688,12.688,0,0,1-2.41308.85352A10.9543,10.9543,0,0,1,127.18844,216.73029Zm2.07812-13.207a3.43606,3.43606,0,0,0-2.46777,1.17578,6.77057,6.77057,0,0,0-1.66113,3.10352h.39648a9.04575,9.04575,0,0,0,4.01953-.73242,2.26313,2.26313,0,0,0,1.44922-2.07031,1.381,1.381,0,0,0-.4375-1.08789A1.89928,1.89928,0,0,0,129.26656,203.52326Z" fill="#fff"/><path d="M145.57711,211.80842a4.377,4.377,0,0,1-1.61328,3.64258,7.03955,7.03955,0,0,1-4.48438,1.27929,9.65,9.65,0,0,1-4.40234-.916v-2.77539a8.322,8.322,0,0,0,4.26562,1.23047,3.80849,3.80849,0,0,0,2.14649-.54688,1.70446,1.70446,0,0,0,.82031-1.49023,1.68477,1.68477,0,0,0-.47168-1.19727,9.23726,9.23726,0,0,0-1.93457-1.332,7.2084,7.2084,0,0,1-2.41309-1.86719,3.66783,3.66783,0,0,1-.7041-2.248,4.06526,4.06526,0,0,1,1.46289-3.32227,6.02939,6.02939,0,0,1,3.95118-1.20312,9.51847,9.51847,0,0,1,4.73046,1.14843l-1.03906,2.40625a7.6407,7.6407,0,0,0-3.63672-1.03906,2.6962,2.6962,0,0,0-1.62011.45117,1.46455,1.46455,0,0,0-.62207,1.25782,1.5504,1.5504,0,0,0,.45117,1.09375,8.0311,8.0311,0,0,0,1.8457,1.23046,10.701,10.701,0,0,1,2.03711,1.38086,4.14316,4.14316,0,0,1,.916,1.25A3.67679,3.67679,0,0,1,145.57711,211.80842Z" fill="#fff"/><path d="M153.71187,214.13264a5.96642,5.96642,0,0,0,2.06446-.42383v2.43359a6.00142,6.00142,0,0,1-1.29883.41016,7.81289,7.81289,0,0,1-1.64063.17773q-3.74561,0-3.74609-3.37695a8.61135,8.61135,0,0,1,.21875-1.791l1.6543-7.793H148.749l.28711-1.50391,2.59766-1.12109,1.76367-3.17188h1.99609l-.71093,3.36328H158.497l-.5332,2.4336h-3.78711l-1.668,7.82031a5.66639,5.66639,0,0,0-.17774,1.25781,1.27936,1.27936,0,0,0,.3418.93555A1.39588,1.39588,0,0,0,153.71187,214.13264Z" fill="#fff"/><path d="M172.52437,206.99592a12.31626,12.31626,0,0,1-.998,5.02344,8.04259,8.04259,0,0,1-2.74121,3.47265,6.86552,6.86552,0,0,1-4.0127,1.21094,5.58934,5.58934,0,0,1-4.16992-1.56641,5.79452,5.79452,0,0,1-1.54492-4.25781,12.48527,12.48527,0,0,1,.97754-4.99023,8.23131,8.23131,0,0,1,2.74121-3.53516,6.82028,6.82028,0,0,1,4.07422-1.26367,5.47008,5.47008,0,0,1,4.16992,1.58594A6.01922,6.01922,0,0,1,172.52437,206.99592Zm-3.24023-.13672a3.54893,3.54893,0,0,0-.66992-2.291,2.32247,2.32247,0,0,0-1.91406-.82618,3.18561,3.18561,0,0,0-2.27637.97657,6.45843,6.45843,0,0,0-1.5586,2.65234,11.32484,11.32484,0,0,0-.55371,3.57617,3.526,3.526,0,0,0,.67676,2.32422,2.46875,2.46875,0,0,0,2.00293.80664,3.14854,3.14854,0,0,0,2.21484-.92969,6.11124,6.11124,0,0,0,1.53125-2.60547A11.81394,11.81394,0,0,0,169.28414,206.8592Z" fill="#fff"/><path d="M184.71969,201.06233a5.88792,5.88792,0,0,1,1.47656.16406l-.69727,2.99414a5.55015,5.55015,0,0,0-1.39453-.19141,4.01429,4.01429,0,0,0-3.07617,1.54492,8.7961,8.7961,0,0,0-1.88672,4.04688l-1.44922,6.83594h-3.22656l3.22656-15.1211H180.208l-.28711,2.80274h.12305a8.37116,8.37116,0,0,1,2.26953-2.35938A4.4267,4.4267,0,0,1,184.71969,201.06233Z" fill="#fff"/><path d="M190.708,216.73029a3.70915,3.70915,0,0,1-3.04883-1.38867,6.05716,6.05716,0,0,1-1.12109-3.90234,13.93129,13.93129,0,0,1,.95019-5.168,9.33406,9.33406,0,0,1,2.61817-3.80859,5.57283,5.57283,0,0,1,3.66406-1.40039,3.87987,3.87987,0,0,1,3.77344,2.43359h.13671l.84766-2.16016h2.46094l-3.22656,15.1211h-2.48829l.28711-2.40625h-.082A6.13883,6.13883,0,0,1,190.708,216.73029Zm1.17578-2.59765a3.16746,3.16746,0,0,0,2.20117-1.06055,7.99365,7.99365,0,0,0,1.77734-2.83594,10.54461,10.54461,0,0,0,.69727-3.88281,2.82589,2.82589,0,0,0-.64258-1.93555,2.1358,2.1358,0,0,0-1.68164-.73046,3.03632,3.03632,0,0,0-2.1875,1.05273,7.48448,7.48448,0,0,0-1.64062,2.86328,11.59958,11.59958,0,0,0-.61524,3.75391,3.28627,3.28627,0,0,0,.55371,2.084A1.86076,1.86076,0,0,0,191.88375,214.13264Z" fill="#fff"/><path d="M207.68844,214.13264a5.96641,5.96641,0,0,0,2.06445-.42383v2.43359a6.00124,6.00124,0,0,1-1.29883.41016,7.8128,7.8128,0,0,1-1.64062.17773q-3.74561,0-3.7461-3.37695a8.612,8.612,0,0,1,.21875-1.791l1.6543-7.793h-2.21484l.28711-1.50391,2.59765-1.12109,1.76367-3.17188h1.9961l-.71094,3.36328h3.81445l-.5332,2.4336h-3.78711l-1.668,7.82031a5.66629,5.66629,0,0,0-.17773,1.25781,1.2794,1.2794,0,0,0,.34179.93555A1.39589,1.39589,0,0,0,207.68844,214.13264Z" fill="#fff"/><path d="M215.61812,216.45686h-3.22656l3.22656-15.1211H218.831Zm.64258-18.83985a2.12137,2.12137,0,0,1,.53321-1.5039,1.95028,1.95028,0,0,1,1.5039-.57422,1.82669,1.82669,0,0,1,1.17578.36133,1.32973,1.32973,0,0,1,.45117,1.10156,2.10175,2.10175,0,0,1-.54687,1.53125,1.91683,1.91683,0,0,1-1.43555.56055,1.96664,1.96664,0,0,1-1.20312-.35547A1.30479,1.30479,0,0,1,216.2607,197.617Z" fill="#fff"/><path d="M234.1982,206.99592a12.31643,12.31643,0,0,1-.998,5.02344,8.0426,8.0426,0,0,1-2.74122,3.47265,6.86549,6.86549,0,0,1-4.01269,1.21094,5.58934,5.58934,0,0,1-4.16992-1.56641,5.79448,5.79448,0,0,1-1.54492-4.25781,12.48544,12.48544,0,0,1,.97753-4.99023,8.23133,8.23133,0,0,1,2.74122-3.53516,6.82027,6.82027,0,0,1,4.07421-1.26367,5.47008,5.47008,0,0,1,4.16993,1.58594A6.01922,6.01922,0,0,1,234.1982,206.99592Zm-3.24023-.13672a3.54893,3.54893,0,0,0-.66992-2.291,2.32248,2.32248,0,0,0-1.91407-.82618,3.1856,3.1856,0,0,0-2.27636.97657,6.45821,6.45821,0,0,0-1.5586,2.65234,11.32484,11.32484,0,0,0-.55371,3.57617,3.526,3.526,0,0,0,.67676,2.32422,2.46875,2.46875,0,0,0,2.00293.80664,3.14854,3.14854,0,0,0,2.21484-.92969,6.11124,6.11124,0,0,0,1.53125-2.60547A11.81394,11.81394,0,0,0,230.958,206.8592Z" fill="#fff"/><path d="M245.09469,216.45686l1.9414-9.1875a10.33783,10.33783,0,0,0,.2461-1.791,1.571,1.571,0,0,0-1.76368-1.791,3.06336,3.06336,0,0,0-1.9414.77929,7.06848,7.06848,0,0,0-1.72266,2.24805,12.71191,12.71191,0,0,0-1.14844,3.33008l-1.33984,6.41211h-3.22656l3.22656-15.1211h2.51563l-.28711,2.80274h.123a8.20549,8.20549,0,0,1,2.33789-2.34571,4.9463,4.9463,0,0,1,2.61133-.73046,3.76026,3.76026,0,0,1,2.83692,1.03906,4.07461,4.07461,0,0,1,1.00488,2.95312,12.88822,12.88822,0,0,1-.31445,2.47461l-1.87305,8.92774Z" fill="#fff"/><circle cx="155" cy="155" r="154" fill="#fff" stroke-miterlimit="10" stroke-width="2" stroke="url(#New_Gradient_Swatch_7-2)"/><path d="M81.09176,184.43928q4.4414,0,4.44043,3.4541a3.53411,3.53411,0,0,1-.89356,2.44629,4.31052,4.31052,0,0,1-2.51855,1.29492v.10254a3.37008,3.37008,0,0,1,1.81445,1.13574,3.04943,3.04943,0,0,1,.63184,1.9375,4.12024,4.12024,0,0,1-1.5625,3.418,6.54965,6.54965,0,0,1-4.1836,1.23828H74.06148l3.17578-15.02734Zm-4.96387,13.53711h2.7334a4.36766,4.36766,0,0,0,2.85742-.82715,2.86838,2.86838,0,0,0,.99707-2.33887,2.22854,2.22854,0,0,0-.76562-1.82422,3.37857,3.37857,0,0,0-2.20411-.63183H77.32027Zm1.51074-7.10254h2.54883a4.03494,4.03494,0,0,0,2.55957-.75,2.46142,2.46142,0,0,0,.95606-2.0459,1.89834,1.89834,0,0,0-.6836-1.59863,3.5264,3.5264,0,0,0-2.15332-.5293H78.69723Z" fill="#232323"/><path d="M90.40426,188.201l-1.542,7.14355a7.74205,7.74205,0,0,0-.18457,1.42871,1.31766,1.31766,0,0,0,1.51075,1.47071,3.05954,3.05954,0,0,0,1.77832-.61719,5.48035,5.48035,0,0,0,1.541-1.76758,9.47058,9.47058,0,0,0,1.01758-2.77539l1.02832-4.88281h1.70606l-2.374,11.26562H93.457l.22559-2.08691h-.12305a6.75321,6.75321,0,0,1-1.92187,1.78906,3.88334,3.88334,0,0,1-1.89161.50391,2.87124,2.87124,0,0,1-2.06543-.71485,2.6812,2.6812,0,0,1-.751-2.04,9.597,9.597,0,0,1,.22656-1.76855l1.501-6.94824Z" fill="#232323"/><path d="M100.25094,199.46662H98.52437l2.40528-11.26562h1.72656Zm1.16211-14.14355a1.35263,1.35263,0,0,1,.32812-.94043,1.09638,1.09638,0,0,1,.85352-.36426.80835.80835,0,0,1,.90429.92481,1.395,1.395,0,0,1-.34375.95605,1.037,1.037,0,0,1-.79687.39063.95066.95066,0,0,1-.67871-.252A.93621.93621,0,0,1,101.41305,185.32307Z" fill="#232323"/><path d="M105.57516,199.46662h-1.72657l3.41211-15.99316h1.72754Z" fill="#232323"/><path d="M115.17574,188.01643a2.99813,2.99813,0,0,1,2.8877,1.95312h.10254a23.89592,23.89592,0,0,1,.46289-2.8164l.80175-3.67969h1.70606l-3.3916,15.99316h-1.42871l.22558-2.14843h-.082a7.73472,7.73472,0,0,1-1.94238,1.81933,3.631,3.631,0,0,1-1.8711.53516,2.69186,2.69186,0,0,1-2.23046-1.00781,4.382,4.382,0,0,1-.80176-2.7959,10.65643,10.65643,0,0,1,.74023-4.0293,6.72293,6.72293,0,0,1,1.999-2.82617A4.43072,4.43072,0,0,1,115.17574,188.01643ZM113.22262,198.244a2.99341,2.99341,0,0,0,1.99414-.96192,6.75863,6.75863,0,0,0,1.6289-2.45605,8.11329,8.11329,0,0,0,.60157-3.04785,2.4606,2.4606,0,0,0-.55567-1.73731,2.10085,2.10085,0,0,0-1.61328-.5957,2.74941,2.74941,0,0,0-1.92773.84765,5.96854,5.96854,0,0,0-1.42871,2.38477,9.6959,9.6959,0,0,0-.53907,3.23242Q111.38277,198.24349,113.22262,198.244Z" fill="#232323"/><path d="M123.0898,199.46662h-1.72656l2.40527-11.26562h1.72657Zm1.16211-14.14355a1.35264,1.35264,0,0,1,.32813-.94043,1.09635,1.09635,0,0,1,.85351-.36426.80836.80836,0,0,1,.9043.92481,1.395,1.395,0,0,1-.34375.95605,1.037,1.037,0,0,1-.79687.39063.9507.9507,0,0,1-.67872-.252A.93624.93624,0,0,1,124.25191,185.32307Z" fill="#232323"/><path d="M133.59469,199.46662l1.52148-7.1123a9.39792,9.39792,0,0,0,.20508-1.48047,1.46066,1.46066,0,0,0-.36524-1.03809,1.52873,1.52873,0,0,0-1.166-.39062,3.04514,3.04514,0,0,0-1.7832.61621,5.49225,5.49225,0,0,0-1.53223,1.75781,9.278,9.278,0,0,0-1.00195,2.76563l-1.03809,4.88183H126.708l2.40527-11.26562H130.542l-.22656,2.08691h.10352a6.86968,6.86968,0,0,1,1.90625-1.77344,3.83294,3.83294,0,0,1,1.90625-.51855,2.88273,2.88273,0,0,1,2.06152.71387,2.62358,2.62358,0,0,1,.75488,2,8.40034,8.40034,0,0,1-.23633,1.84961l-1.46972,6.90722Z" fill="#232323"/><path d="M149.55758,188.201l-.25684,1.10058-2.16894.2461a2.89509,2.89509,0,0,1,.42089,1.624,4.17056,4.17056,0,0,1-1.19726,3.12988,4.38768,4.38768,0,0,1-3.20117,1.167,3.46268,3.46268,0,0,1-.86426-.082q-1.42822.54494-1.42871,1.34571a.54511.54511,0,0,0,.33984.56054,4.07557,4.07557,0,0,0,.98633.22071l1.20313.14453a5.35072,5.35072,0,0,1,2.69726.9043,2.41357,2.41357,0,0,1,.83789,1.99414,3.35467,3.35467,0,0,1-1.5,2.92871,7.35988,7.35988,0,0,1-4.22461,1.03808,5.57241,5.57241,0,0,1-3.125-.75488,2.42,2.42,0,0,1-1.13086-2.13281,2.64886,2.64886,0,0,1,.74024-1.8711,5.76894,5.76894,0,0,1,2.39453-1.34668,1.33743,1.33743,0,0,1-.80078-1.24316,1.63583,1.63583,0,0,1,.52343-1.21777,5.39287,5.39287,0,0,1,1.46-.95117,2.679,2.679,0,0,1-1.0586-.97168,2.707,2.707,0,0,1-.41113-1.49512,4.51446,4.51446,0,0,1,1.22851-3.26856,4.1697,4.1697,0,0,1,3.13965-1.27441,6.2097,6.2097,0,0,1,1.583.20508Zm-10.94727,13.26953a1.44613,1.44613,0,0,0,.66895,1.25391,3.4883,3.4883,0,0,0,1.9834.46289,5.54921,5.54921,0,0,0,2.92382-.65235,2.0583,2.0583,0,0,0,1.05371-1.8457,1.15113,1.15113,0,0,0-.55468-1.00684,4.44789,4.44789,0,0,0-1.8916-.51367l-1.63379-.165a3.71524,3.71524,0,0,0-1.89161.90528A2.112,2.112,0,0,0,138.61031,201.47053Zm2.85742-8.99316a1.79049,1.79049,0,0,0,.46289,1.33105,1.74888,1.74888,0,0,0,1.28516.457,2.37963,2.37963,0,0,0,1.418-.43164,2.74936,2.74936,0,0,0,.93066-1.18652,4.12146,4.12146,0,0,0,.32325-1.63965,1.71752,1.71752,0,0,0-.45215-1.28516,1.78026,1.78026,0,0,0-1.29492-.4414,2.40738,2.40738,0,0,0-1.40333.416,2.73231,2.73231,0,0,0-.93554,1.16113A3.916,3.916,0,0,0,141.46773,192.47737Z" fill="#232323"/><path d="M161.8193,196.27033a3.01527,3.01527,0,0,1-1.13575,2.50293,5.04282,5.04282,0,0,1-3.20214.89942,6.82965,6.82965,0,0,1-3.13477-.71v-1.624a6.36355,6.36355,0,0,0,1.55273.668,5.64478,5.64478,0,0,0,1.541.23731,3.13286,3.13286,0,0,0,1.95312-.51465,1.59885,1.59885,0,0,0,.65821-1.31543,1.42,1.42,0,0,0-.36035-.98633,7.24116,7.24116,0,0,0-1.55176-1.10059,6.24178,6.24178,0,0,1-1.8916-1.46972,2.70925,2.70925,0,0,1-.55469-1.70606,2.83572,2.83572,0,0,1,1.03809-2.28711,4.12047,4.12047,0,0,1,2.73437-.86816,7.95379,7.95379,0,0,1,3.3916.76074l-.55469,1.40821-.57617-.25684a5.70656,5.70656,0,0,0-2.26074-.44238,2.30038,2.30038,0,0,0-1.501.44726,1.50588,1.50588,0,0,0-.17968,2.14258,6.42312,6.42312,0,0,0,1.50586,1.05859,8.70918,8.70918,0,0,1,1.57714,1.05957,3.05049,3.05049,0,0,1,.71485.9502A2.69512,2.69512,0,0,1,161.8193,196.27033Z" fill="#232323"/><path d="M166.67086,193.72053l5.40723-5.51953h2.06542l-4.82031,4.80078,3.03223,6.46484h-1.92188l-2.416-5.38574-1.5625,1.26367-.84278,4.12207h-1.74707l3.39161-15.99316h1.748q-.74121,3.45264-1.32617,6.1875a36.65237,36.65237,0,0,1-1.04883,4.05957Z" fill="#232323"/><path d="M175.87984,199.46662h-1.72656l2.40527-11.26562h1.72657Zm1.16211-14.14355a1.35264,1.35264,0,0,1,.32813-.94043,1.09635,1.09635,0,0,1,.85351-.36426.80836.80836,0,0,1,.9043.92481,1.395,1.395,0,0,1-.34375.95605,1.037,1.037,0,0,1-.79688.39063.95067.95067,0,0,1-.67871-.252A.93624.93624,0,0,1,177.042,185.32307Z" fill="#232323"/><path d="M181.20406,199.46662H179.4775l3.41211-15.99316h1.72754Z" fill="#232323"/><path d="M186.54879,199.46662h-1.72656l3.41211-15.99316h1.72753Z" fill="#232323"/><path d="M197.1357,196.27033A3.01527,3.01527,0,0,1,196,198.77326a5.04287,5.04287,0,0,1-3.20215.89942,6.82964,6.82964,0,0,1-3.13476-.71v-1.624a6.36355,6.36355,0,0,0,1.55273.668,5.64478,5.64478,0,0,0,1.541.23731,3.13288,3.13288,0,0,0,1.95312-.51465,1.59884,1.59884,0,0,0,.6582-1.31543,1.42,1.42,0,0,0-.36035-.98633A7.24089,7.24089,0,0,0,193.456,194.327a6.242,6.242,0,0,1-1.8916-1.46972,2.70931,2.70931,0,0,1-.55468-1.70606,2.83574,2.83574,0,0,1,1.03808-2.28711,4.12049,4.12049,0,0,1,2.73438-.86816,7.95385,7.95385,0,0,1,3.3916.76074l-.55469,1.40821-.57617-.25684a5.70656,5.70656,0,0,0-2.26074-.44238,2.30034,2.30034,0,0,0-1.501.44726,1.50589,1.50589,0,0,0-.17969,2.14258,6.42357,6.42357,0,0,0,1.50586,1.05859,8.709,8.709,0,0,1,1.57715,1.05957,3.0503,3.0503,0,0,1,.71484.9502A2.695,2.695,0,0,1,197.1357,196.27033Z" fill="#232323"/><path d="M202.9941,204.52326a3.619,3.619,0,0,1-1.28418-.21582v-1.44922a3.59953,3.59953,0,0,0,1.15137.22657,1.35781,1.35781,0,0,0,1.20215-.6377,5.44742,5.44742,0,0,0,.67871-1.81933l2.333-11.1211h-1.9834l.13281-.68847,2.11816-.67872.23633-1.02734a6.082,6.082,0,0,1,1.31055-2.9043,3.33971,3.33971,0,0,1,2.48144-.84765,5.38646,5.38646,0,0,1,1.00782.11816,4.7153,4.7153,0,0,1,.9248.26172l-.44141,1.32617a4.01338,4.01338,0,0,0-1.4082-.29785,1.81554,1.81554,0,0,0-1.37305.49805,3.96542,3.96542,0,0,0-.77539,1.82519l-.25683,1.10938h2.44629l-.25684,1.30566h-2.43652L206.417,200.79279a5.87906,5.87906,0,0,1-1.2334,2.83692A2.851,2.851,0,0,1,202.9941,204.52326Z" fill="#232323"/><path d="M217.26168,188.05744a4.1151,4.1151,0,0,1,3.083,1.15625,4.35587,4.35587,0,0,1,1.13086,3.18164,9.12048,9.12048,0,0,1-.74024,3.64844,6.31306,6.31306,0,0,1-2.0039,2.65235,4.68735,4.68735,0,0,1-2.85743.93457,4.09541,4.09541,0,0,1-3.09375-1.16114,4.38227,4.38227,0,0,1-1.12109-3.17578,9.10143,9.10143,0,0,1,.751-3.6748,6.2283,6.2283,0,0,1,2.02441-2.6416A4.71938,4.71938,0,0,1,217.26168,188.05744Zm2.42578,4.10157a2.80853,2.80853,0,0,0-.64258-1.917,2.19522,2.19522,0,0,0-1.74219-.73535,3.01054,3.01054,0,0,0-2.00976.76074,4.88926,4.88926,0,0,0-1.377,2.11231,8.78388,8.78388,0,0,0-.48829,3.00683,3.02915,3.02915,0,0,0,.65235,2.08106,2.37662,2.37662,0,0,0,1.876.73437,2.83349,2.83349,0,0,0,1.92188-.75,4.88984,4.88984,0,0,0,1.33105-2.13281A9.65515,9.65515,0,0,0,219.68746,192.159Z" fill="#232323"/><path d="M230.19234,187.99592a4.70247,4.70247,0,0,1,1.2334.14355l-.37012,1.542a4.52744,4.52744,0,0,0-1.0791-.13379,2.85625,2.85625,0,0,0-1.75293.61719,5.416,5.416,0,0,0-1.42871,1.71093,8.74238,8.74238,0,0,0-.89941,2.43067l-1.09961,5.16015H223.0693l2.40527-11.26562h1.42871l-.22656,2.08691h.10351a10.10552,10.10552,0,0,1,1.22266-1.40332,3.8775,3.8775,0,0,1,1.0127-.65722A2.90535,2.90535,0,0,1,230.19234,187.99592Z" fill="#232323"/><path d="M66.58883,224.93342a3.92791,3.92791,0,0,1-2.96973-1.12109,4.28562,4.28562,0,0,1-1.08008-3.10352,9.25213,9.25213,0,0,1,.7666-3.70605,6.85559,6.85559,0,0,1,2.0293-2.75977,4.42766,4.42766,0,0,1,2.78613-.98633,3.52931,3.52931,0,0,1,2.36329.6836,2.38258,2.38258,0,0,1,.792,1.90625,3.26094,3.26094,0,0,1-1.70606,2.90429,9.34984,9.34984,0,0,1-4.88281,1.05274h-.33887l-.041.82226a3.18418,3.18418,0,0,0,.63183,2.10254,2.40952,2.40952,0,0,0,1.958.75488,5.09787,5.09787,0,0,0,1.33106-.18457,10.153,10.153,0,0,0,1.70117-.67871v1.501a9.25182,9.25182,0,0,1-1.70606.63184A6.90915,6.90915,0,0,1,66.58883,224.93342Zm1.42871-10.207a2.74777,2.74777,0,0,0-1.98828.96582,6.31946,6.31946,0,0,0-1.42383,2.68262h.12305a8.387,8.387,0,0,0,3.59277-.61133,1.91931,1.91931,0,0,0,1.249-1.77246,1.203,1.203,0,0,0-.375-.90528A1.6567,1.6567,0,0,0,68.01754,214.72639Z" fill="#232323"/><path d="M79.06734,224.72737l1.52051-7.11231a8.40975,8.40975,0,0,0,.18555-1.38769,1.75856,1.75856,0,0,0-.31934-1.1211,1.31512,1.31512,0,0,0-1.08887-.40039,2.76085,2.76085,0,0,0-1.68066.61621,5.36943,5.36943,0,0,0-1.43945,1.76367,10.18853,10.18853,0,0,0-.96094,2.75977l-1.03809,4.88184H72.51949l2.40527-11.26563h1.42872l-.22657,2.08691h.10352a6.43557,6.43557,0,0,1,1.7832-1.75781,3.51353,3.51353,0,0,1,1.834-.53418,2.335,2.335,0,0,1,1.78906.668,3.0587,3.0587,0,0,1,.74023,1.86035h.082a6.58462,6.58462,0,0,1,1.88086-1.90625,3.76653,3.76653,0,0,1,2.01465-.62207,2.768,2.768,0,0,1,2.01953.69922,2.72037,2.72037,0,0,1,.71485,2.03516,9.81557,9.81557,0,0,1-.22657,1.8291l-1.48046,6.90723H85.63473l1.52148-7.11231a9.365,9.365,0,0,0,.20508-1.501,1.29508,1.29508,0,0,0-1.46973-1.4082,2.76561,2.76561,0,0,0-1.64453.5957A5.20825,5.20825,0,0,0,82.8232,216.993a9.23269,9.23269,0,0,0-.92969,2.59473l-1.0996,5.13965Z" fill="#232323"/><path d="M95.32711,224.93342a3.92791,3.92791,0,0,1-2.96973-1.12109,4.28566,4.28566,0,0,1-1.08008-3.10352,9.252,9.252,0,0,1,.76661-3.70605A6.85548,6.85548,0,0,1,94.0732,214.243a4.42769,4.42769,0,0,1,2.78614-.98633,3.5293,3.5293,0,0,1,2.36328.6836,2.38258,2.38258,0,0,1,.792,1.90625,3.26094,3.26094,0,0,1-1.70606,2.90429,9.34984,9.34984,0,0,1-4.88281,1.05274h-.33887l-.041.82226a3.18423,3.18423,0,0,0,.63183,2.10254,2.40952,2.40952,0,0,0,1.958.75488,5.09787,5.09787,0,0,0,1.33106-.18457,10.153,10.153,0,0,0,1.70117-.67871v1.501a9.25182,9.25182,0,0,1-1.70606.63184A6.90915,6.90915,0,0,1,95.32711,224.93342Zm1.42871-10.207a2.74779,2.74779,0,0,0-1.98828.96582,6.31946,6.31946,0,0,0-1.42383,2.68262h.123a8.387,8.387,0,0,0,3.59277-.61133,1.91931,1.91931,0,0,0,1.249-1.77246,1.203,1.203,0,0,0-.375-.90528A1.65669,1.65669,0,0,0,96.75582,214.72639Z" fill="#232323"/><path d="M108.3818,213.25666a4.70194,4.70194,0,0,1,1.23339.14356l-.37011,1.542a4.5275,4.5275,0,0,0-1.0791-.13379,2.85622,2.85622,0,0,0-1.75293.61719,5.41578,5.41578,0,0,0-1.42871,1.71093,8.7422,8.7422,0,0,0-.89942,2.43067l-1.09961,5.16016h-1.72656l2.40527-11.26563h1.42871l-.22656,2.08691h.10352a10.10619,10.10619,0,0,1,1.22265-1.40332,3.8775,3.8775,0,0,1,1.0127-.65722A2.90543,2.90543,0,0,1,108.3818,213.25666Z" fill="#232323"/><path d="M120.29488,213.46174l-.25683,1.10059-2.16895.24609a2.89511,2.89511,0,0,1,.4209,1.624,4.17055,4.17055,0,0,1-1.19727,3.12989,4.38765,4.38765,0,0,1-3.20117,1.167,3.4633,3.4633,0,0,1-.86426-.082q-1.42821.54492-1.42871,1.3457a.54513.54513,0,0,0,.33985.56055,4.07591,4.07591,0,0,0,.98632.2207l1.20313.14453a5.35079,5.35079,0,0,1,2.69727.9043,2.41358,2.41358,0,0,1,.83789,1.99414,3.35467,3.35467,0,0,1-1.5,2.92871,7.35988,7.35988,0,0,1-4.22461,1.03809,5.57239,5.57239,0,0,1-3.125-.75489,2.41992,2.41992,0,0,1-1.13086-2.13281,2.64885,2.64885,0,0,1,.74023-1.87109,5.76878,5.76878,0,0,1,2.39453-1.34668,1.33745,1.33745,0,0,1-.80078-1.24317,1.63583,1.63583,0,0,1,.52344-1.21777,5.3932,5.3932,0,0,1,1.46-.95117,2.679,2.679,0,0,1-1.05859-.97168,2.70687,2.70687,0,0,1-.41114-1.49512,4.5144,4.5144,0,0,1,1.22852-3.26855,4.16969,4.16969,0,0,1,3.13965-1.27442,6.2097,6.2097,0,0,1,1.583.20508Zm-10.94726,13.26953a1.44612,1.44612,0,0,0,.66894,1.25391,3.48832,3.48832,0,0,0,1.9834.46289,5.54928,5.54928,0,0,0,2.92383-.65235,2.0583,2.0583,0,0,0,1.05371-1.8457,1.15111,1.15111,0,0,0-.55469-1.00683,4.448,4.448,0,0,0-1.8916-.51368l-1.63379-.165a3.71525,3.71525,0,0,0-1.8916.90528A2.112,2.112,0,0,0,109.34762,226.73127Zm2.85742-8.99316a1.79049,1.79049,0,0,0,.46289,1.33105,1.74887,1.74887,0,0,0,1.28516.457,2.3796,2.3796,0,0,0,1.418-.43164,2.74932,2.74932,0,0,0,.93067-1.18652,4.12146,4.12146,0,0,0,.32324-1.63965,1.71749,1.71749,0,0,0-.45215-1.28516,1.78026,1.78026,0,0,0-1.29492-.4414,2.40735,2.40735,0,0,0-1.40332.416,2.73243,2.73243,0,0,0-.93555,1.16114A3.91611,3.91611,0,0,0,112.205,217.73811Z" fill="#232323"/><path d="M121.86715,224.72737h-1.72656l2.40527-11.26563h1.72656Zm1.16211-14.14356a1.35263,1.35263,0,0,1,.32812-.94043,1.09642,1.09642,0,0,1,.85352-.36426.80835.80835,0,0,1,.90429.92481,1.395,1.395,0,0,1-.34375.956,1.03693,1.03693,0,0,1-.79687.39063.95067.95067,0,0,1-.67871-.252A.93619.93619,0,0,1,123.02926,210.58381Z" fill="#232323"/><path d="M132.372,224.72737l1.52148-7.11231a9.39777,9.39777,0,0,0,.20508-1.48047,1.46065,1.46065,0,0,0-.36523-1.03808,1.52874,1.52874,0,0,0-1.166-.39063,3.04514,3.04514,0,0,0-1.7832.61621,5.4925,5.4925,0,0,0-1.53223,1.75781,9.27841,9.27841,0,0,0-1.002,2.76563l-1.03809,4.88184h-1.72656l2.40528-11.26563h1.42871l-.22657,2.08691h.10352a6.87,6.87,0,0,1,1.90625-1.77343,3.83285,3.83285,0,0,1,1.90625-.51856,2.8827,2.8827,0,0,1,2.06152.71387,2.62359,2.62359,0,0,1,.75489,2,8.40087,8.40087,0,0,1-.23633,1.84961l-1.46973,6.90723Z" fill="#232323"/><path d="M148.33394,213.46174l-.25683,1.10059-2.16895.24609a2.895,2.895,0,0,1,.4209,1.624,4.17059,4.17059,0,0,1-1.19726,3.12989,4.38769,4.38769,0,0,1-3.20118,1.167,3.46321,3.46321,0,0,1-.86425-.082q-1.42823.54492-1.42871,1.3457a.54513.54513,0,0,0,.33984.56055,4.07612,4.07612,0,0,0,.98633.2207l1.20312.14453a5.35076,5.35076,0,0,1,2.69727.9043,2.41358,2.41358,0,0,1,.83789,1.99414,3.35467,3.35467,0,0,1-1.5,2.92871,7.35988,7.35988,0,0,1-4.22461,1.03809,5.57241,5.57241,0,0,1-3.125-.75489,2.41992,2.41992,0,0,1-1.13086-2.13281,2.64885,2.64885,0,0,1,.74023-1.87109,5.76883,5.76883,0,0,1,2.39454-1.34668,1.33746,1.33746,0,0,1-.80079-1.24317,1.63583,1.63583,0,0,1,.52344-1.21777,5.3932,5.3932,0,0,1,1.46-.95117,2.679,2.679,0,0,1-1.05859-.97168,2.70686,2.70686,0,0,1-.41113-1.49512,4.51444,4.51444,0,0,1,1.22851-3.26855,4.16971,4.16971,0,0,1,3.13965-1.27442,6.2097,6.2097,0,0,1,1.583.20508Zm-10.94726,13.26953a1.44615,1.44615,0,0,0,.66894,1.25391,3.48834,3.48834,0,0,0,1.9834.46289,5.54928,5.54928,0,0,0,2.92383-.65235,2.0583,2.0583,0,0,0,1.05371-1.8457,1.15111,1.15111,0,0,0-.55469-1.00683,4.44792,4.44792,0,0,0-1.8916-.51368l-1.63379-.165a3.71525,3.71525,0,0,0-1.8916.90528A2.112,2.112,0,0,0,137.38668,226.73127Zm2.85742-8.99316a1.79049,1.79049,0,0,0,.46289,1.33105,1.74888,1.74888,0,0,0,1.28516.457,2.37965,2.37965,0,0,0,1.418-.43164,2.74937,2.74937,0,0,0,.93066-1.18652,4.12146,4.12146,0,0,0,.32324-1.63965,1.71749,1.71749,0,0,0-.45215-1.28516,1.78023,1.78023,0,0,0-1.29492-.4414,2.40735,2.40735,0,0,0-1.40332.416,2.73234,2.73234,0,0,0-.93554,1.16114A3.916,3.916,0,0,0,140.2441,217.73811Z" fill="#232323"/><path d="M155.35445,224.72737h-1.72656L157.04,208.7342h1.72754Z" fill="#232323"/><path d="M160.71969,224.72737h-1.72657l2.40528-11.26563H163.125Zm1.16211-14.14356a1.35263,1.35263,0,0,1,.32812-.94043,1.09642,1.09642,0,0,1,.85352-.36426.80835.80835,0,0,1,.90429.92481,1.395,1.395,0,0,1-.34375.956,1.037,1.037,0,0,1-.79687.39063.95066.95066,0,0,1-.67871-.252A.93619.93619,0,0,1,161.8818,210.58381Z" fill="#232323"/><path d="M166.0234,224.72737l-1.28516-11.26563h1.72754l.65723,6.30078q.24756,2.65284.24707,3.7207h.06152q1.30518-2.82567,1.83984-3.8125l3.34082-6.209h1.82911l-6.07422,11.26563Z" fill="#232323"/><path d="M178.51168,224.93342a3.92791,3.92791,0,0,1-2.96973-1.12109,4.28566,4.28566,0,0,1-1.08008-3.10352,9.252,9.252,0,0,1,.76661-3.70605,6.85548,6.85548,0,0,1,2.02929-2.75977,4.42769,4.42769,0,0,1,2.78614-.98633,3.5293,3.5293,0,0,1,2.36328.6836,2.38258,2.38258,0,0,1,.792,1.90625,3.26094,3.26094,0,0,1-1.70606,2.90429,9.34984,9.34984,0,0,1-4.88281,1.05274h-.33887l-.041.82226a3.18423,3.18423,0,0,0,.63183,2.10254,2.40952,2.40952,0,0,0,1.958.75488,5.09787,5.09787,0,0,0,1.33106-.18457,10.153,10.153,0,0,0,1.70117-.67871v1.501a9.25182,9.25182,0,0,1-1.70606.63184A6.90915,6.90915,0,0,1,178.51168,224.93342Zm1.42871-10.207a2.74779,2.74779,0,0,0-1.98828.96582,6.31946,6.31946,0,0,0-1.42383,2.68262h.12305a8.387,8.387,0,0,0,3.59277-.61133,1.91931,1.91931,0,0,0,1.249-1.77246,1.203,1.203,0,0,0-.375-.90528A1.65669,1.65669,0,0,0,179.94039,214.72639Z" fill="#232323"/><path d="M186.1484,224.72737h-1.72656l3.4121-15.99317h1.72754Z" fill="#232323"/><path d="M191.51363,224.72737h-1.72656l2.40527-11.26563h1.72657Zm1.16211-14.14356a1.35264,1.35264,0,0,1,.32813-.94043,1.09638,1.09638,0,0,1,.85351-.36426.80836.80836,0,0,1,.9043.92481,1.395,1.395,0,0,1-.34375.956,1.037,1.037,0,0,1-.79688.39063.95067.95067,0,0,1-.67871-.252A.93623.93623,0,0,1,192.67574,210.58381Z" fill="#232323"/><path d="M202.01851,224.72737l1.52149-7.11231a8.48773,8.48773,0,0,0,.18457-1.38769,1.34009,1.34009,0,0,0-1.51074-1.52149,3.07938,3.07938,0,0,0-1.78321.60645,5.34,5.34,0,0,0-1.53222,1.76269,9.47955,9.47955,0,0,0-1.002,2.791l-1.03808,4.86133H195.1318l3.3916-15.99317h1.72754q-.186.84228-.35547,1.63379-.16846.79248-.34863,1.60938-.18018.81591-.39063,1.71093-.21093.89356-.48828,1.94239h.1123a6.85564,6.85564,0,0,1,1.90723-1.8086,3.87,3.87,0,0,1,1.96777-.54492,2.80525,2.80525,0,0,1,2.082.74023,2.84988,2.84988,0,0,1,.73438,2.09668,8.3108,8.3108,0,0,1-.23633,1.70606q-.3999,1.98339-1.49023,6.90723Z" fill="#232323"/><path d="M213.28414,213.31819a4.11506,4.11506,0,0,1,3.083,1.15625,4.35584,4.35584,0,0,1,1.13086,3.18164,9.12047,9.12047,0,0,1-.74024,3.64843,6.31306,6.31306,0,0,1-2.0039,2.65235,4.68735,4.68735,0,0,1-2.85743.93457,4.09541,4.09541,0,0,1-3.09375-1.16114,4.38226,4.38226,0,0,1-1.12109-3.17578,9.10146,9.10146,0,0,1,.751-3.6748,6.2283,6.2283,0,0,1,2.02441-2.6416A4.71944,4.71944,0,0,1,213.28414,213.31819Zm2.42578,4.10156a2.80849,2.80849,0,0,0-.64258-1.917,2.19519,2.19519,0,0,0-1.74218-.73536,3.01052,3.01052,0,0,0-2.00977.76075,4.88917,4.88917,0,0,0-1.37695,2.1123,8.7839,8.7839,0,0,0-.48828,3.00684,3.02914,3.02914,0,0,0,.65234,2.08105,2.3766,2.3766,0,0,0,1.876.73438,2.83348,2.83348,0,0,0,1.92187-.75,4.89,4.89,0,0,0,1.33106-2.13282A9.65543,9.65543,0,0,0,215.70992,217.41975Z" fill="#232323"/><path d="M225.09371,213.31819a4.11506,4.11506,0,0,1,3.083,1.15625,4.35584,4.35584,0,0,1,1.13086,3.18164,9.12047,9.12047,0,0,1-.74024,3.64843,6.31306,6.31306,0,0,1-2.0039,2.65235,4.68735,4.68735,0,0,1-2.85743.93457,4.09543,4.09543,0,0,1-3.09375-1.16114,4.38226,4.38226,0,0,1-1.12109-3.17578,9.10146,9.10146,0,0,1,.751-3.6748,6.2283,6.2283,0,0,1,2.02441-2.6416A4.71944,4.71944,0,0,1,225.09371,213.31819Zm2.42578,4.10156a2.80849,2.80849,0,0,0-.64258-1.917,2.19519,2.19519,0,0,0-1.74218-.73536,3.01052,3.01052,0,0,0-2.00977.76075,4.88917,4.88917,0,0,0-1.37695,2.1123,8.78414,8.78414,0,0,0-.48828,3.00684,3.02914,3.02914,0,0,0,.65234,2.08105,2.3766,2.3766,0,0,0,1.876.73438,2.83348,2.83348,0,0,0,1.92187-.75,4.89,4.89,0,0,0,1.33106-2.13282A9.65516,9.65516,0,0,0,227.51949,217.41975Z" fill="#232323"/><path d="M236.86324,213.27717a2.99814,2.99814,0,0,1,2.8877,1.95312h.10254a23.89592,23.89592,0,0,1,.46289-2.8164l.80175-3.67969h1.70606l-3.3916,15.99317h-1.42871l.22558-2.14844h-.082a7.73472,7.73472,0,0,1-1.94238,1.81933,3.631,3.631,0,0,1-1.8711.53516,2.69186,2.69186,0,0,1-2.23046-1.00781,4.382,4.382,0,0,1-.80176-2.7959,10.65643,10.65643,0,0,1,.74023-4.0293,6.723,6.723,0,0,1,1.999-2.82617A4.43072,4.43072,0,0,1,236.86324,213.27717Zm-1.95312,10.22754a2.99336,2.99336,0,0,0,1.99414-.96192,6.75863,6.75863,0,0,0,1.6289-2.45605,8.11329,8.11329,0,0,0,.60157-3.04785,2.46062,2.46062,0,0,0-.55567-1.73731,2.10085,2.10085,0,0,0-1.61328-.5957,2.74938,2.74938,0,0,0-1.92773.84766,5.9685,5.9685,0,0,0-1.42871,2.38476,9.69594,9.69594,0,0,0-.53907,3.23242Q233.07027,223.50423,234.91012,223.50471Z" fill="#232323"/><path d="M126.78023,238.578a4.115,4.115,0,0,1,3.083,1.15625,4.35583,4.35583,0,0,1,1.13086,3.18164,9.12065,9.12065,0,0,1-.74023,3.64844,6.31306,6.31306,0,0,1-2.00391,2.65234,4.68725,4.68725,0,0,1-2.85742.93457,4.09543,4.09543,0,0,1-3.09375-1.16113,4.38228,4.38228,0,0,1-1.1211-3.17578,9.10151,9.10151,0,0,1,.751-3.67481,6.22831,6.22831,0,0,1,2.02442-2.6416A4.71941,4.71941,0,0,1,126.78023,238.578Zm2.42578,4.10156a2.80857,2.80857,0,0,0-.64257-1.917,2.19522,2.19522,0,0,0-1.74219-.73535,3.01058,3.01058,0,0,0-2.00977.76074,4.88935,4.88935,0,0,0-1.377,2.11231,8.78409,8.78409,0,0,0-.48828,3.00683,3.02923,3.02923,0,0,0,.65234,2.08106,2.37663,2.37663,0,0,0,1.876.73437,2.83346,2.83346,0,0,0,1.92187-.75,4.89,4.89,0,0,0,1.33106-2.13281A9.65522,9.65522,0,0,0,129.206,242.67951Z" fill="#232323"/><path d="M137.582,250.19319a3.01589,3.01589,0,0,1-1.74707-.51465,3.33577,3.33577,0,0,1-1.16113-1.43848h-.10352l-.041.39063c-.02051.17089-.05664.41113-.10742.71875q-.07764.46289-1.17676,5.69433h-1.707l3.4541-16.32226h1.42871l-.26758,2.14843h.082q1.83984-2.33349,3.82422-2.333a2.703,2.703,0,0,1,2.21973,1.002,4.35659,4.35659,0,0,1,.8125,2.81152,10.90246,10.90246,0,0,1-.71,3.998,6.63768,6.63768,0,0,1-1.96289,2.832A4.3965,4.3965,0,0,1,137.582,250.19319Zm1.91211-10.22754a2.97093,2.97093,0,0,0-2.00976.97656,6.97639,6.97639,0,0,0-1.624,2.45605,8.0005,8.0005,0,0,0-.60058,3.03223,2.42061,2.42061,0,0,0,.57031,1.73242,2.16666,2.16666,0,0,0,1.64941.60156,2.71959,2.71959,0,0,0,1.89649-.833,5.84308,5.84308,0,0,0,1.41308-2.36914,9.86043,9.86043,0,0,0,.53418-3.26368Q141.3232,239.96516,139.4941,239.96565Z" fill="#232323"/><path d="M148.18941,248.785a5.58574,5.58574,0,0,0,1.48047-.26758v1.32618a4.75192,4.75192,0,0,1-.86328.24609,4.45416,4.45416,0,0,1-.82226.10352,2.85742,2.85742,0,0,1-1.96875-.61231,2.32342,2.32342,0,0,1-.6836-1.82422,7.477,7.477,0,0,1,.18555-1.542l1.30566-6.1875h-1.76855l.14453-.75,1.90137-.80176,1.28418-2.34375h1.00781l-.56543,2.58985h2.8164l-.26757,1.30566h-2.80567l-1.32617,6.208a7.33714,7.33714,0,0,0-.18457,1.35742,1.219,1.219,0,0,0,.29785.88379A1.10522,1.10522,0,0,0,148.18941,248.785Z" fill="#232323"/><path d="M153.28805,249.98713h-1.72657l2.40528-11.26562h1.72656Zm1.16211-14.14355a1.35263,1.35263,0,0,1,.32812-.94043,1.09638,1.09638,0,0,1,.85352-.36426.80835.80835,0,0,1,.90429.9248,1.395,1.395,0,0,1-.34375.95606,1.03694,1.03694,0,0,1-.79687.39062.95065.95065,0,0,1-.67871-.25195A.93621.93621,0,0,1,154.45016,235.84358Z" fill="#232323"/><path d="M162.90914,238.578a4.11506,4.11506,0,0,1,3.083,1.15625,4.35587,4.35587,0,0,1,1.13086,3.18164,9.12048,9.12048,0,0,1-.74024,3.64844,6.313,6.313,0,0,1-2.0039,2.65234,4.68728,4.68728,0,0,1-2.85743.93457,4.09544,4.09544,0,0,1-3.09375-1.16113,4.38227,4.38227,0,0,1-1.12109-3.17578,9.10151,9.10151,0,0,1,.751-3.67481,6.2283,6.2283,0,0,1,2.02441-2.6416A4.71944,4.71944,0,0,1,162.90914,238.578Zm2.42578,4.10156a2.80853,2.80853,0,0,0-.64258-1.917,2.19522,2.19522,0,0,0-1.74218-.73535,3.01056,3.01056,0,0,0-2.00977.76074,4.88926,4.88926,0,0,0-1.37695,2.11231,8.78385,8.78385,0,0,0-.48828,3.00683,3.02919,3.02919,0,0,0,.65234,2.08106,2.37663,2.37663,0,0,0,1.876.73437,2.83348,2.83348,0,0,0,1.92187-.75,4.89,4.89,0,0,0,1.33106-2.13281A9.65549,9.65549,0,0,0,165.33492,242.67951Z" fill="#232323"/><path d="M175.6025,249.98713l1.52148-7.1123a9.39792,9.39792,0,0,0,.20508-1.48047,1.46068,1.46068,0,0,0-.36523-1.03809,1.52877,1.52877,0,0,0-1.166-.39062,3.04507,3.04507,0,0,0-1.7832.61621,5.49238,5.49238,0,0,0-1.53223,1.75781,9.27834,9.27834,0,0,0-1.00195,2.76562l-1.03809,4.88184h-1.72656l2.40527-11.26562h1.42871l-.22656,2.08691h.10352A6.86981,6.86981,0,0,1,174.333,239.035a3.83294,3.83294,0,0,1,1.90625-.51855,2.88273,2.88273,0,0,1,2.06152.71386,2.62361,2.62361,0,0,1,.75488,2,8.40073,8.40073,0,0,1-.23632,1.84961l-1.46973,6.90723Z" fill="#232323"/><path d="M187.81344,246.79084a3.01527,3.01527,0,0,1-1.13575,2.50293,5.04282,5.04282,0,0,1-3.20214.89942,6.82953,6.82953,0,0,1-3.13477-.71v-1.624a6.36394,6.36394,0,0,0,1.55273.668,5.64513,5.64513,0,0,0,1.541.2373,3.13291,3.13291,0,0,0,1.95313-.51464,1.59887,1.59887,0,0,0,.6582-1.31543,1.42,1.42,0,0,0-.36035-.98633,7.24116,7.24116,0,0,0-1.55176-1.10059,6.24193,6.24193,0,0,1-1.8916-1.46972,2.70929,2.70929,0,0,1-.55469-1.70606,2.83571,2.83571,0,0,1,1.03809-2.28711,4.12047,4.12047,0,0,1,2.73437-.86816,7.95364,7.95364,0,0,1,3.3916.76074l-.55468,1.4082-.57618-.25683a5.70657,5.70657,0,0,0-2.26074-.44239,2.30038,2.30038,0,0,0-1.501.44727,1.50588,1.50588,0,0,0-.17968,2.14258,6.42312,6.42312,0,0,0,1.50586,1.05859,8.70829,8.70829,0,0,1,1.57714,1.05957,3.05034,3.05034,0,0,1,.71485.9502A2.69493,2.69493,0,0,1,187.81344,246.79084Z" fill="#232323"/><path d="M180.25752,141.95238a1.741,1.741,0,0,0-.31871.33973c2.24269.65953,4.36415,1.32383,6.50956,1.8966a20.032,20.032,0,0,0,3.07417.50544,1.2882,1.2882,0,0,0,1.40046-.41818,13.5034,13.5034,0,0,1-1.84333-1.74239c-1.25528-1.7199-2.39764-3.52167-3.59671-5.28312a6.47942,6.47942,0,0,1-.94732-5.42293c.31626-1.28314.66919-2.55736,1.03433-3.94425-2.51105.31846-3.3303,1.1734-3.32688,3.42415.00342,2.22656.06012,4.45336.05084,6.67992A4.22628,4.22628,0,0,1,180.25752,141.95238Z" fill="#38a380"/><path d="M171.39577,124.49224a12.07389,12.07389,0,0,0,1.15117,4.81862c2.14688-.53867,2.83024-1.45044,2.62152-3.37918a19.96482,19.96482,0,0,0-.413-2.36856c-.3324-1.4293-.86912-1.65978-2.556-1.01454.31235.16033.55089.283.93461.48a4.17755,4.17755,0,0,0-1.10668.47745C171.74625,123.77417,171.36693,124.17952,171.39577,124.49224Z" fill="#38a380"/><path d="M186.03044,120.32105c-1.047-1.41684-1.71086-1.43749-2.44457-.11414a19.87242,19.87242,0,0,0-.82366,1.91469c.08115.07858.16278.15728.24392.236Q184.51657,121.3406,186.03044,120.32105Z" fill="#38a380"/><path d="M171.124,128.43209a9.12491,9.12491,0,0,0-1.60038-3.3991c-.1662.08872-.28009.10974-.31382.17353q-2.25246,4.20669-4.481,8.42572a2.516,2.516,0,0,0-.11291.78553,11.37329,11.37329,0,0,0,5.552-2.83477A3.57974,3.57974,0,0,0,171.124,128.43209Z" fill="#38a380"/><path d="M201.88176,122.38385c-1.64-.43517-3.342-.63546-5.01476-.94635a2.73378,2.73378,0,0,0-3.22912,1.47525,51.7259,51.7259,0,0,0-2.98618,6.27444,14.00638,14.00638,0,0,0,.58316,11.05837c.59782,1.22766,1.30709,2.40118,2.00024,3.66343q8.24.43425,16.46136.86777.12026-.15232.241-.30454c-1.22839-.24978-1.45129-1.17059-1.66246-2.10863-.16718-.74031-.36222-1.47426-.54357-2.21128a24.58287,24.58287,0,0,1-.55969-9.44062C207.80963,126.2235,205.65787,123.38568,201.88176,122.38385Z" fill="#38a380"/><path d="M122.00971,132.93519c-.95319-.27692-1.94744-.40706-2.91139-.65171a5.58325,5.58325,0,0,0-6.09651,1.99815c-1.18147,1.42221-2.32432,2.87742-3.53316,4.2758-1.68251,1.94659-2.88939,4.30268-5.06413,5.8785a82.398,82.398,0,0,0,19.53113-1.94585c-.21948-.8195-.43407-1.43615-.54454-2.07087a15.133,15.133,0,0,1,.17548-5.08674C123.80856,133.84891,123.4439,133.3519,122.00971,132.93519Z" fill="#38a380"/><path d="M126.87343,141.10379a6.07764,6.07764,0,0,0-.37639.695c.81437.073,1.51436.17414,2.2163.19271,8.30449.21924,16.61241.35146,24.913.66809a69.2333,69.2333,0,0,0,12.19352-.73677,23.78921,23.78921,0,0,1,8.06791.046,18.34539,18.34539,0,0,0,2.34436.1464c-.71318-.96577-1.22888-1.66417-1.75436-2.37589-.67848.33509-1.22009.63107-1.78467.873a8.41258,8.41258,0,0,1-1.73187.62251,1.53885,1.53885,0,0,1-2.00366-1.4612c-.05084-.326.022-.67444-.04839-.99352-.11341-.51484-.29867-1.01368-.49029-1.6379-2.405,1.51876-4.635,2.87339-6.80334,4.31992a5.29441,5.29441,0,0,1-3.35963.8773q-3.69765-.18276-7.39921-.2625c-1.987-.03971-2.81362-.61016-3.42024-2.54245-.38324-1.22094-.74105-2.44982-1.12428-3.67064-1.50653-4.79541-3.02528-9.587-4.523-14.38512a2.50526,2.50526,0,0,0-1.59549-1.83221,9.5524,9.5524,0,0,0-.32164,1.72748c.00391.85078.13,1.70205.2185,2.55162.55089,5.28679,1.113,10.5726,1.65073,15.86085a17.77708,17.77708,0,0,1,.0088,1.8641c-.7474.36344-1.08371.095-1.23377-.444a9.12076,9.12076,0,0,1-.34853-1.6698c-.35-4.25966-.66674-8.522-1.00989-12.78229-.16767-2.07979-.351-4.15873-.56361-6.23448-.10558-1.03312-.53916-1.28474-1.54759-.97324-.40718.12587-.79286.32164-1.20053.44495-1.38384.41855-2.02956.13577-2.63961-1.16106-.20139-.42821-.3451-.88329-.52352-1.32274-.90871-2.2422-1.815-4.48537-2.73835-6.72183a6.79888,6.79888,0,0,0-.59733-.91189c-.49664,1.27838-.94488,2.32249-1.31,3.39495a10.71357,10.71357,0,0,0,.0132,7.11888c.38665,1.1189.85885,2.20969,1.32518,3.29914a14.54625,14.54625,0,0,1,1.35549,7.45737A20.27253,20.27253,0,0,1,126.87343,141.10379Z" fill="#38a380"/><path d="M1.99951,152.11926c.02-1.02737.06453-2.21433.11781-3.70437Q2.0374,150.2617,1.99951,152.11926Z" fill="#38a380" opacity="0.5"/><path d="M57.06562,142.44828a106.61153,106.61153,0,0,1-9.88-29.12659c-.30062-1.62336-.5157-3.26248-.77673-4.93435.90431-.22639,1.67419-.41922,2.54086-.6362a6.61319,6.61319,0,0,0,3.42465,1.35219,14.43007,14.43007,0,0,1,6.34972,2.33019c1.10668.8151,1.51973.65318,2.42453-.51-.35537-.33557-.71612-.68978-1.09153-1.02755-1.51875-1.36649-3.04483-2.72485-4.56114-4.09371a7.66167,7.66167,0,0,1-.89991-.91183c-.78406-.99376-.5812-1.80269.62079-2.15989a23.29,23.29,0,0,1,2.92459-.56868c1.30856-.21141,2.62836-.356,3.934-.58469,1.34816-.23616,2.44506-.76322,2.56677-2.38524a1.831,1.831,0,0,1,.58952-.92294,14.53147,14.53147,0,0,1,1.27043-1.142,22.894,22.894,0,0,0,5.54268-6.98536,29.24988,29.24988,0,0,1,2.536-3.94841,8.77446,8.77446,0,0,1,2.29157-2.0977A3.43811,3.43811,0,0,1,82.21422,86.144a6.40484,6.40484,0,0,1-2.01587,7.07372c-.33191.26548-.6863.5028-1.0187.74452.01858.11475.002.24111.04888.2716a6.61645,6.61645,0,0,1,3.05071,4.89342,2.43843,2.43843,0,0,0,3.46228,2.09451c1.397-.4414,2.73-1.08523,4.0953-1.63026.57192-.22852,1.15361-.43346,1.73041-.65074a3.21735,3.21735,0,0,1,3.41682.77906,2.48334,2.48334,0,0,1-1.989,1.88206c-.91506.23989-1.85017.40138-2.775.60613a8.38888,8.38888,0,0,0-4.12463,2.109,4.3202,4.3202,0,0,1-2.73492,1.37546,1.73128,1.73128,0,0,0-1.22546.79873,55.30374,55.30374,0,0,0-2.26078,5.20161,6.85837,6.85837,0,0,0,.38959,5.0034,41.17746,41.17746,0,0,1,2.53695,9.59913,6.43318,6.43318,0,0,0,2.45,4.34191,23.96434,23.96434,0,0,1,7.04726,9.1813c.09727.21667.195.43371.27716.65636.74251,2.02492.18819,2.9032-1.98313,3.19441-.634.08494-1.25919.23684-2.1855.41538,1.33545.51692,8.02832.72161,13.15209.51032-.47415-.441-.7127-.838-.31969-1.42808,2.45679-3.68616,3.62848-7.91112,4.99815-12.05395,2.51691-7.61111,5.0045-15.23261,7.60842-22.81372.87645-2.5507,2.06525-4.99454,3.12109-7.48292.68532-1.6159,1.43907-3.20486,2.07209-4.84068a9.2503,9.2503,0,0,1,3.78588-4.67369c1.005-.62612,2.04374-1.20426,3.10007-1.73976,1.7001-.86209,2.13564-2.17609,1.60821-3.61858a5.02885,5.02885,0,0,1-.20873-2.10087,2.80579,2.80579,0,0,1,1.86386-2.62831c.66821-.24184,1.32371-.52138,1.99877-.74129a4.0317,4.0317,0,0,1,3.66758.4755c1.09739.7298,2.23438,1.4004,3.23792,2.02492-.52255,1.60552-1.02358,3.07441-1.47867,4.55741a6.28776,6.28776,0,0,1-3.58009,4.51972c0,.08615-.03617.2.00538.261a8.87983,8.87983,0,0,1,1.13747,7.09247,19.74317,19.74317,0,0,0-.33239,3.66618,1.48965,1.48965,0,0,0,1.704,1.64243c1.07882-.03123,1.74068-.58988,1.7001-1.66448-.07918-2.08486-.28546-4.16447-.40522-6.24829-.07919-1.3726-.10021-2.74862-.14421-4.12317-.01466-.45331.044-.86447.81486-.96816a14.78833,14.78833,0,0,1,.54943,2.11645c.40181,3.58015.74838,7.16653,1.11988,10.75011.1222,1.17957.24832,2.359.39594,3.5356a2.08424,2.08424,0,0,0,1.21959,1.79292,6.70406,6.70406,0,0,1,4.1481,5.90569c2.843,1.67041,5.702,3.35059,8.52935,5.01183-.05279,1.343-.05426,1.37357-1.09935,1.33227-.89991-.03568-1.7964-.15862-2.69582-.23048-1.08077-.08627-1.37406.05939-1.60234,1.13528a4.064,4.064,0,0,0,.04155,1.947q1.81767,5.99007,3.75851,11.94251c.50592,1.55737,1.11548,1.83477,2.68506,1.42172,2.79505-.73554,4.60318-2.42844,4.96931-5.37233a13.59031,13.59031,0,0,1,2.4431-6.29974,2.19409,2.19409,0,0,0-.98888-3.58559,5.90048,5.90048,0,0,0-2.63471-.33459c-1.45276.12917-2.64694-.46878-4.07428-.96187a7.69928,7.69928,0,0,1,4.35-1.59073c.90284-.009,1.80617.01992,2.708-.00587a2.16551,2.16551,0,0,0,2.42306-2.224c.219-1.93387.43554-3.869.59587-5.80823.28987-3.49882.49908-7.00449.81339-10.50081a7.90981,7.90981,0,0,1,4.7464-6.92383c1.419-.65984,2.81754-1.36569,4.25563-1.98068A13.09974,13.09974,0,0,1,182.817,92.167a6.70368,6.70368,0,0,0,2.11168.16839c5.594-.39722,11.188-.73188,16.8011-.61872a11.80757,11.80757,0,0,0,5.7739-1.27153,40.42975,40.42975,0,0,1,4.36561-1.72173,7.15755,7.15755,0,0,1,4.60807-.07931,25.0249,25.0249,0,0,0,4.195.68459,8.05569,8.05569,0,0,0,4.12267-.90273,30.6781,30.6781,0,0,1,3.47255-1.18311,2.78729,2.78729,0,0,1,3.11425.68733,4.949,4.949,0,0,0-.22535-2.89831c-.23316-.96706-.61-1.90015-.83392-2.86886-.40669-1.75913-.42722-3.859,1.34669-5.25172.23024.18147.47415.374.7826.61713.42869-.6742.84956-1.33575,1.27043-1.99736l.28351.03666c.06306.87272.151,1.7444.18478,2.61828a8.14657,8.14657,0,0,0,3.46815,6.55264,4.89851,4.89851,0,0,0,1.62971.85182,12.2717,12.2717,0,0,1,4.00438,1.78681c.88378.6046,1.08761.53965,2.05009-.18471a7.24367,7.24367,0,0,0-.34852-.86c-.85152-1.537-1.72308-3.06323-2.57851-4.59817-.197-.35335-.525-.72033.10314-1.264.591.61139,1.18294,1.22449,1.966,2.035-.0831-.88219-.14224-1.51093-.20188-2.13967l.20824-.14035c.27813.33949.57582.66467.831,1.02065a23.1497,23.1497,0,0,0,6.293,6.12248,7.681,7.681,0,0,1,3.40314,5.21891,32.21594,32.21594,0,0,0,1.334,4.7951,21.7005,21.7005,0,0,0,1.75876,3.40075c.84809,1.45026.49028,2.70114-1.026,3.337a8.29263,8.29263,0,0,1-4.57629.75424A4.72281,4.72281,0,0,0,248.987,105.7a4.17861,4.17861,0,0,1-5.38578.002,2.39534,2.39534,0,0,0-2.44946-.2182c-2.18207.90462-4.18279,2.026-5.15652,4.40582a4.47084,4.47084,0,0,1-1.31442,1.45582,9.48607,9.48607,0,0,0-2.59953,3.14932,6.74369,6.74369,0,0,1-4.19941,3.61809c-.08995.02933-.18771.03678-.27618.0688-1.36527.49261-1.54124,1.05817-.55237,2.17927a24.8225,24.8225,0,0,0,3.08541,3.15115,5.22107,5.22107,0,0,1,2.01,5.54122,19.87151,19.87151,0,0,0-.34706,5.80774,3.679,3.679,0,0,1-2.43479,4.08223c-.63448.30123-1.20884.72674-1.82768,1.06427-.77869.4249-1.575.81791-2.50323,1.29646-.24245-.63032-.45411-1.09531-.60124-1.58009a2.03643,2.03643,0,0,1,1.26163-2.88842c.21312-.10265.437-.18379.65795-.26958,2.53353-.9813,3.24965-2.93876,2.93827-5.38235a6.85761,6.85761,0,0,0-3.38163-5.19636c-1.50555-.90566-3.04092-1.76389-4.589-2.59561-1.88292-1.01185-3.47695-.02383-3.41047,2.13221a6.04916,6.04916,0,0,0,.44433,1.91836c.5069,1.3297,1.10032,2.626,1.639,3.94389a7.01355,7.01355,0,0,1-.17988,5.93753q-1.51191,3.14406-3.00329,6.29815c-.09679.205-.16131.42551-.21019.55676,2.24709,0,4.47267.06648,6.69189-.01833a13.664,13.664,0,0,0,6.50272-1.89832,3.17183,3.17183,0,0,1,.89258-.42136c1.99388-.43065,3.98189-.91128,5.99679-1.20762a11.34229,11.34229,0,0,1,3.2433.09214,6.61783,6.61783,0,0,0,2.37711.01662c2.3253-.48173,4.67846-.83245,6.99545-1.34889a18.1401,18.1401,0,0,0,2.83366-1.192c.39839.05963,1.14334.17084,2.00806.30013-.13149.36466,53.16754.53183,53.12795.85225a153.06551,153.06551,0,0,0-305.119,8.15C2.31578,145.62168,57.91567,144.11734,57.06562,142.44828ZM189.15935,50.51451c2.20065-1.74354,4.31135-3.6044,6.557-5.28685a47.85847,47.85847,0,0,1,4.45067-2.74372c.831-.49053,1.71867-.88506,2.54575-1.38121a7.44492,7.44492,0,0,0,2.72759-2.68715c2.73835-4.829,7.01793-7.53858,12.24631-8.951.7997-.21594,1.6126-.38146,2.41768-.57735,2.8806-.70078-.92875-2.16986,6.58289-3.17053-.63155-.7763,33.283,20.522,35.6606,30.28271-.7694.64071-19.61961.16406-20.33915.7631-1.681-1.07992-3.5928-1.13094-5.54317-1.117-5.38676.03832-10.77449.02426-16.16173.02561-9.43952.00232-18.879-.021-28.31858.00751l-5.72061-.3883C182.09351,52.287,188.2609,51.22635,189.15935,50.51451ZM84.34057,23.65151c1.33252-.22406,2.87424-.68324,3.28778.11737a1.7249,1.7249,0,0,0,1.48062.942c1.2939.08109,2.59268.17054,3.88658.14353a34.29929,34.29929,0,0,0,3.64217-.31437,4.48486,4.48486,0,0,1,3.02724.65673,9.20293,9.20293,0,0,0,3.96527,1.46076,7.21732,7.21732,0,0,0,6.22067-2.48489c2.074-2.25839,3.02235-1.81467,5.2142-.73555a5.34538,5.34538,0,0,1,2.98667,3.51312,51.2509,51.2509,0,0,0,7.46031,14.321,5.36543,5.36543,0,0,0,3.86751,2.49534,2.663,2.663,0,0,1,1.28657.62538,8.3073,8.3073,0,0,0,3.99607,1.68122,7.92029,7.92029,0,0,0,1.68886.19809,7.05316,7.05316,0,0,1,4.372,1.54961,13.30228,13.30228,0,0,0,7.255,2.17371c1.86728.05181,3.739.00079,5.60721-.0553a16.82086,16.82086,0,0,1,7.61576,1.28265,9.7644,9.7644,0,0,0,7.70863.1673c.72344-.27,1.45716-.51118,2.187-.76194a2.11667,2.11667,0,0,1,2.50616.73487c.36172.43865.69069.90425,1.03922,1.35384.37346.48136.72149.9871,1.135,1.43137,1.006,1.08017,3.95355-1.2177,3.95355,2.3118l-.57485,1.12036c-6.667.02011-8.4267.07253-15.09366.11946-4.30941.03031-8.61881.099-12.92772.06849-7.51946-.05315-15.03989-.11267-22.5569-.28113-4.38126-.09813-8.76057-.37192-13.135-.6555a13.67682,13.67682,0,0,1-3.91053-.78571,11.16771,11.16771,0,0,0-3.37478-.35518c-11.90316-.46847-23.81072-.69431-35.72219-.61561-3.49455.023-6.98811.16119-10.48119.28584-1.08615.03874-4.93949.21972-9.61159.13626a13.97583,13.97583,0,0,1-5.93325-.51021C61.19025,33.85017,84.34057,23.65151,84.34057,23.65151Z" fill="#38a380"/><path d="M179.01837,136.32782c.36221-1.48967.71416-2.938,1.09641-4.50933A2.67423,2.67423,0,0,0,179.01837,136.32782Z" fill="#38a380"/><path d="M1.98974,153.15141c-.01124.75314-.02884,1.26053-.02884,2.26053H2.044C1.99951,154.41194,1.98436,153.958,1.98974,153.15141Z" fill="#38a380" opacity="0.5"/><path d="M211.65124,142.25227a.90764.90764,0,0,0,.88133-.11769c.49909-.89282,1.25382-1.83953,1.26164-2.77305a73.03922,73.03922,0,0,0-.47318-8.06681,28.32076,28.32076,0,0,0-.93412-3.99155c-.09972-.39044-.30454-.7199-.9004-.441a8.32077,8.32077,0,0,0-.11634.88793q-.14811,4.831-.27667,9.66243c-.03324,1.2796-.08163,2.56164-.02982,3.83867A1.53945,1.53945,0,0,0,211.65124,142.25227Z" fill="#38a380"/><path d="M307.27758,139.411c.141,1.835.28278,3.43638.41354,4.88474C307.57625,142.66092,307.44329,141.0312,307.27758,139.411Z" fill="#38a380" opacity="0.5"/></g></g></svg>