<svg xmlns="http://www.w3.org/2000/svg" xmlns:xlink="http://www.w3.org/1999/xlink" viewBox="0 0 146.1073 146.1074"><defs><linearGradient id="New_Gradient_Swatch_7" x1="21.39691" y1="124.71047" x2="124.71041" y2="21.39697" gradientUnits="userSpaceOnUse"><stop offset="0" stop-color="#38a380"/><stop offset="0.06811" stop-color="#4fa684"/><stop offset="0.19954" stop-color="#74ac8a"/><stop offset="0.33708" stop-color="#93b090"/><stop offset="0.4803" stop-color="#abb494"/><stop offset="0.63159" stop-color="#bcb697"/><stop offset="0.79642" stop-color="#c6b898"/><stop offset="1" stop-color="#c9b899"/></linearGradient><clipPath id="clip-path"><circle cx="72.78468" cy="75.43487" r="49.10602" transform="translate(-17.35474 128.94109) rotate(-76.71746)" fill="none"/></clipPath><clipPath id="clip-path-2"><rect x="22.3167" y="24.9916" width="100.9359" height="100.8865" fill="none"/></clipPath><clipPath id="clip-path-3"><rect x="22.1226" y="22.4035" width="101.9056" height="103.5232" fill="none"/></clipPath><clipPath id="clip-path-4"><path d="M69.6786,24.9916h6.2113c.2831.0558.5638.1205.8485.165,2.5808.4003,5.1988.6373,7.7383,1.2212a50.38818,50.38818,0,0,1,38.0189,40.4339c.3065,1.8383.5071,3.6945.757,5.5417v6.2114c-.0574.3106-.1221.6203-.1706.9333-.398,2.5477-.6374,5.1325-1.2124,7.6405a50.39856,50.39856,0,0,1-40.425,38.0302c-1.8424.3049-3.7026.5088-5.5547.7579H69.6786c-.2823-.055-.5638-.1197-.8484-.1642-2.5808-.3996-5.1989-.6381-7.7376-1.2213A50.38555,50.38555,0,0,1,23.0729,84.1073c-.3065-1.8383-.5071-3.6944-.7562-5.5425V72.3534c.0574-.3106.1189-.6203.1707-.9317.465-2.8315.7408-5.7091,1.4226-8.4873a50.38472,50.38472,0,0,1,40.2139-37.185C65.9663,25.4453,67.8265,25.2423,69.6786,24.9916ZM59.5511,98.1315c-.7829.3081-1.1663.0315-1.1865-.8007-.0097-.3874-.0833-.774-.0671-1.1582.0283-.6599.389-1.5512.0881-1.9176-.372-.4545-1.2689-.4974-1.9499-.6745a2.6488,2.6488,0,0,0-2.8914.8719c-1.0158,1.2148-2.0227,2.4409-2.9722,3.7058a1.96539,1.96539,0,0,1-2.6019.8718,22.14035,22.14035,0,0,0,1.4938-2.9358c1.5513-4.5372,2.9666-9.1198,4.5421-13.6481.6753-1.9386,1.6936-3.7567,2.4191-5.6824a4.91447,4.91447,0,0,1,2.5654-2.5598c.1698-.093.347-.1731.5233-.2523a1.24026,1.24026,0,0,0,.7901-1.6548,1.70445,1.70445,0,0,1,.5719-2.1327c.7618-.2896,1.7259-.8646,2.6665-.2127.4634.321.964.5887,1.62.985-1.0078,1.2674-.4457,3.4115-2.5784,4.0835a3.94092,3.94092,0,0,1,.6106,3.6897,5.43732,5.43732,0,0,0-.1229,1.1533c-.0178.605.1181,1.1218.8921,1.0821.8176-.0428.8815-.5702.8201-1.2285-.1197-1.2876-.2087-2.5784-.2896-3.8692a6.06145,6.06145,0,0,1,.0728-.8912c.0882-.0057.1763-.0114.2645-.0178a8.26463,8.26463,0,0,1,.2103.9454c.245,2.2751.4593,4.5542.7327,6.8261a1.0127,1.0127,0,0,0,.5888.6535,2.86218,2.86218,0,0,1,1.8036,2.6584c1.3522.7918,2.7223,1.5941,4.0924,2.3948-.0534.1658-.106.3316-.1594.4982-.6793-.0412-1.3603-.0809-2.2152-.1318-.0809.2766-.4092.7715-.3041,1.1452.5645,2.0211,1.2237,4.0139,1.8804,6.0076.1925.5847.6155.7343,1.2374.558a2.98676,2.98676,0,0,0,2.4296-2.973,5.50037,5.50037,0,0,1,.753-2.0236c.2814-.4958.8257-.8549.4763-1.5326a1.69741,1.69741,0,0,0-1.7275-.8242c-.1909,0-.3971.1157-.5718.0761-.4918-.1157-.9714-.2847-1.455-.4319a6.11745,6.11745,0,0,1,1.3684-.6034,12.79424,12.79424,0,0,1,1.9322-.0582,1.03426,1.03426,0,0,0,1.0918-1.0174c.2305-2.3139.5411-4.6278.5953-6.9482A3.90087,3.90087,0,0,1,79.5262,76.5c1.9427-1.0174,3.9719-2.0923,6.3416-1.3126a2.96153,2.96153,0,0,0,1.0538.0242c1.4486-.0873,2.8954-.2232,4.3456-.275,1.4525-.0525,2.9164.0696,4.3577-.0711a10.2172,10.2172,0,0,0,2.1966-.8323,9.23794,9.23794,0,0,1,2.3301-.6971,12.32541,12.32541,0,0,1,2.0664.4327,6.03691,6.03691,0,0,0,2.0826-.0372c.7586-.1877,1.3345-.7506,2.2371-.8573.7101-.0833,1.2058-.2863,1.7032.4828.2564-1.9111-1.6693-3.6427.0583-5.3225.0533.0776.1787.2612.3259.4771.2499-.4488.4529-.8112.6559-1.1751a13.47773,13.47773,0,0,1,.1836,1.878,3.69374,3.69374,0,0,0,2.4821,2.9399,4.08278,4.08278,0,0,1,1.5319.6826c.537.3971.8945.3857,1.201-.0453-.5726-1.0167-1.0991-1.9532-1.6273-2.8906.0947-.0574.1909-.1148.2863-.1723.2977.3672.5953.7344.9762,1.2019-.0776-.4683-.1334-.8136-.2369-1.4461a26.63726,26.63726,0,0,0,1.9062,2.3082c.6471.6212,1.4955,1.0361,2.1279,1.6685a3.38426,3.38426,0,0,1,.8436,1.5885,9.858,9.858,0,0,0,1.607,4.2129,1.20958,1.20958,0,0,1-.1601,1.1452,4.40424,4.40424,0,0,1-2.246.5637,2.38349,2.38349,0,0,0-1.8901.3429,1.88437,1.88437,0,0,1-2.4918-.0169,1.30272,1.30272,0,0,0-1.121-.0906,3.82809,3.82809,0,0,0-2.4037,2.0931c-.1253.3494-.5807.575-.8718.8686a3.17266,3.17266,0,0,0-.7433.8387,3.32573,3.32573,0,0,1-2.2646,2.0826c-.7238.1941-.6753.5953-.2563,1.0506a13.14057,13.14057,0,0,0,1.5609,1.5844,2.08983,2.08983,0,0,1,.8177,2.2128,9.28906,9.28906,0,0,0-.2079,2.5937,1.80349,1.80349,0,0,1-1.4048,2.2476c-.254.0809-.4392.3575-.6826.4958-.313.1771-.6527.3049-.9811.4553a5.14613,5.14613,0,0,1-.3251-1.0392c-.0542-.5654.2936-.8104.8225-1.0078a2.36035,2.36035,0,0,0,1.2439-.926,3.24312,3.24312,0,0,0-1.4922-4.1733c-.5451-.2798-1.0603-.6179-1.6022-.905-.5006-.2653-1.0101-.6996-1.5819-.1553a1.46091,1.46091,0,0,0-.22,1.7882,18.30343,18.30343,0,0,1,.9916,2.5218,2.97556,2.97556,0,0,1-.1198,1.7219c-.4965,1.2414-1.133,2.4247-1.7639,3.7373a5.83569,5.83569,0,0,1,.9188-.1254c1.9168.0777,3.8101.0744,5.515-1.0214a2.13059,2.13059,0,0,1,.7506-.1723c1.3328-.2467,2.6333-.812,4.039-.3575a1.90426,1.90426,0,0,0,.8621-.0752c1.0773-.2006,2.1465-.4618,3.2311-.6098a1.367,1.367,0,0,0,1.1994-.905,48.31181,48.31181,0,0,0,4.5235-17.7365,51.11529,51.11529,0,0,0-2.6148-19.4809,2.98466,2.98466,0,0,0-3.3127-2.3139c-7.1164.0339-14.2329-.0041-21.3501.0186-1.7299.0048-38.5219.4569-39.2822-.8266-.2046-.3454-26.9775-.9463-28.0127-.1779-1.3175.9786-2.2176,6.2275-2.4522,6.0941a10.44526,10.44526,0,0,0-.3397,1.1395c-.4367,2.4353-.9511,4.8608-1.2592,7.313A42.27431,42.27431,0,0,0,23.69,81.4691a1.482,1.482,0,0,0,1.3304,1.4049,8.02945,8.02945,0,0,1,3.1171.9616c.9017.6713,1.2439.537,1.5803-.0752-1.0417-.9293-2.0438-1.8012-3.0119-2.7078-.1779-.1674-.3575-.5419-.2855-.7142.0825-.1957.436-.3413.6931-.3882.8557-.1552,1.7244-.2369,2.5817-.3841.7699-.1311,1.5819-.2354,1.5932-1.324.0017-.1343.2491-.2653.3834-.3963a17.51936,17.51936,0,0,0,1.9475-1.9411c.7077-.9567,1.214-2.0599,1.8732-3.0555a4.76161,4.76161,0,0,1,1.235-1.3312,1.63192,1.63192,0,0,1,2.6665,1.2988,2.89745,2.89745,0,0,1-1.7235,3.1842,2.76057,2.76057,0,0,1,1.6507,2.3551,1.1592,1.1592,0,0,0,1.4865,1.0312,11.11145,11.11145,0,0,0,1.8707-.7246c.8225-.3413,1.641-.8331,2.5169-.0316-.3162.7522-.9276.8072-1.5876.9285a5.13146,5.13146,0,0,0-2.0963.7635c-.567.4197-.9601,1.0247-1.7882.9713-.1561-.0097-.3834.2038-.4821.3712-.2402.4101-.4181.8574-.6324,1.2844a4.03924,4.03924,0,0,0-.1812,3.6136,17.63518,17.63518,0,0,1,1.1129,4.1814,2.8517,2.8517,0,0,0,1.0441,2.0518,11.32633,11.32633,0,0,1,3.4308,4.4992c.4457,1.0442.123,1.5302-.9948,1.5335a3.63865,3.63865,0,0,0-.8435.207c.021.0857.0428.169.0647.2532.2467.0202.4925.0566.7392.0566,2.6843-.0065,5.3727.0631,8.0538-.0477a33.22291,33.22291,0,0,0,8.4978-1.1873q4.934.0849,9.8678.1739c.4449.0072.8897.0331,1.3345.0485a32.0788,32.0788,0,0,0,4.5211.1197c2.1157-.2273,4.1991-.7053,6.3448-.3154a14.34741,14.34741,0,0,0,1.565.118c-.0777.0429-.1545.0858-.2321.127-.3874-.5386-.7748-1.0789-1.0021-1.3951-.7368.3049-1.3393.7837-1.9039.7392-1.0578-.0809-.2855-1.2285-.9462-1.9176-.9261.588-1.9071,1.218-2.8995,1.8311-.3494.2143-.7246.5459-1.091.5507-1.4202.0162-2.8421-.1148-4.2631-.1148a1.25181,1.25181,0,0,1-1.3474-1.0773q-1.31145-4.35525-2.7126-8.6838c-.0866-.2669-.4254-.4529-.647-.6761a2.34259,2.34259,0,0,0-.258.8249c.2725,2.8623.5815,5.7213.871,8.5819a9.18456,9.18456,0,0,1,.0049.9447c-.1214.0145-.2419.0275-.3624.0396a4.72518,4.72518,0,0,1-.2183-.8169q-.3834-4.39275-.736-8.7889c-.0494-.6204-.1472-1.0239-.9261-.6915-1.1816.5006-1.4056.3097-1.831-.9511-.4077-1.2067-.9609-2.3649-1.5076-3.684-1.3628,2.5654-1.2795,4.1361-.1828,6.4233a7.47406,7.47406,0,0,1,.7271,3.4114,11.03516,11.03516,0,0,1-.9851,3.4203A9.99227,9.99227,0,0,1,59.5511,98.1315ZM41.7863,37.0213c.2621.3089.6462.554.6737.833.1076,1.087,1.0668,1.0652,1.6572,1.1048a38.14249,38.14249,0,0,0,3.8288-.1892,1.92858,1.92858,0,0,1,1.0473.2919,4.18967,4.18967,0,0,0,5.9033-.7295c1.1476-1.2722,1.9224-.4141,3.7139.5492A28.3043,28.3043,0,0,0,62.4222,46.89c.7198,1.0708,1.3094,2.144,2.7709,2.254a1.10025,1.10025,0,0,1,.6017.2952,5.48672,5.48672,0,0,0,3.4308,1.0878,2.61064,2.61064,0,0,1,1.286.3098c2.2306,1.7825,4.7718,1.831,7.4561,1.6499a8.82647,8.82647,0,0,1,4.1377.6082,5.35676,5.35676,0,0,0,4.4628.1326c1.9144-.7295,1.9249-.702,3.1154.9665.8581,1.2035,1.5286,1.4073,2.762.5645,1.1371-.7764,2.1311-1.7583,3.2262-2.6018a14.29149,14.29149,0,0,1,2.5112-1.7041,5.82664,5.82664,0,0,0,2.9472-2.2168c1.5092-2.631,3.9978-3.832,6.8406-4.4063a1.463,1.463,0,0,0,1.0077-2.4902,4.61337,4.61337,0,0,0-.461-.4974Q88.5792,21.08555,61.1427,27.0046a44.40358,44.40358,0,0,0-15.137,6.5187,1.5493,1.5493,0,0,0-.6462.9277A15.36914,15.36914,0,0,1,41.7863,37.0213Zm58.8481,62.5336c.0024-.0598.0049-.1205.0081-.1787-.7683-.0364-1.5399-.0348-2.3002-.1262a.93988.93988,0,0,1-.6874-.4691,13.51014,13.51014,0,0,1-.6859-5.5134c.4174-2.6317-.7287-4.0341-3.3119-4.4701-.1917-.0331-.3801-.0792-.5718-.1043-1.9839-.2637-1.9499-.2434-2.9148,1.5181-1.4696,2.6867-1.8044,5.3484-.0502,8.0465a5.32339,5.32339,0,0,1,.3591.7651C93.9111,99.2023,97.2731,99.3778,100.6344,99.5549Zm-13.4992-8.129c-1.5424.4158-1.7866.749-1.7284,2.0737.0364.8363.0687,1.6718.0712,2.5072.0024,1.0822-.3017,1.9856-1.565,2.2719,2.0074.1278,3.7592,1.4437,5.752,1.0279a7.6991,7.6991,0,0,1-1.0215-.985,26.05621,26.05621,0,0,1-1.9443-2.9925,3.07475,3.07475,0,0,1-.1617-1.7041A16.33776,16.33776,0,0,1,87.1352,91.4259Zm12.1777-.444c-.1383.0267-.2758.0542-.4141.0809-.0502,2.0139-.11,4.0277-.1464,6.0424-.0097.499-.2774,1.273.5831,1.1986.2879-.0251.5395-.7676.7514-1.2083.0687-.1456-.0542-.3745-.0647-.5654-.0672-1.2811-.0841-2.567-.2095-3.8417A9.21518,9.21518,0,0,0,99.3129,90.9819Zm-22.12,3.5311c.0849.0785.169.1577.2547.2362,1.0393-.4974,2.2808-.8088,2.8291-1.9225.4319-.8775-.1116-1.7607-.7117-2.7765C78.7118,91.6548,77.9523,93.0831,77.1929,94.513Zm4.1118-5.1519c-.7958.1028-1.0401.406-.8694,1.0223.1108.3996.131.825.2426,1.2261.072.2572.2402.6932.3567.6915a1.42165,1.42165,0,0,0,.8419-.3631c.7093-.6397.3324-1.4388.2135-2.174-.1537-.9519-.4319-1.0692-1.5027-.6365C80.8089,89.2002,80.9416,89.2431,81.3047,89.3611Zm3.2901,3.9242c-1.142.2653-1.3054,1.1121-.6551,2.5622Q84.2673,94.56515,84.5948,93.2853Zm.9697-4.0107c.592-.3979,1.1849-.795,1.7898-1.2002C86.5561,87.1265,86.1719,87.3691,85.5645,89.2746ZM64.7224,84.1502c.0881-.0857.1755-.1723.2628-.2572-.5815-.5362-1.1614-1.0716-1.8189-1.6782C62.9698,83.6463,63.9265,83.8218,64.7224,84.1502Z" fill="none" clip-rule="evenodd"/></clipPath><clipPath id="clip-path-5"><rect x="22.1226" y="24.8298" width="101.9056" height="101.0969" fill="none"/></clipPath></defs><g id="Layer_2" data-name="Layer 2"><g id="Layer_1-2" data-name="Layer 1"><circle cx="73.05367" cy="73.0537" r="72.05366" fill="#fff" stroke-miterlimit="10" stroke-width="2" stroke="url(#New_Gradient_Swatch_7)"/><circle cx="73.05367" cy="74.97517" r="48.51612" transform="translate(-16.70014 128.84881) rotate(-76.71746)" fill="#38a380"/><path d="M21.8368,54.58966l-7.82275-3.85743.63525-1.2871,6.72559,3.3164,1.645-3.33594,1.09668.541Z" fill="#4d4d4d"/><path d="M24.93885,48.69708l-7.43017-4.56836.752-1.22266,7.43017,4.56836Z" fill="#4d4d4d"/><path d="M22.99159,36.285l.9038-1.18359,5.06788,7.73632-.91846,1.20313-8.79248-2.85547.89648-1.17481,5.42285,1.833q.39552.12012.98.36328.58447.24171.85108.38477-.31348-.33692-.689-.82813-.37572-.49218-.5415-.74609Z" fill="#4d4d4d"/><path d="M35.1117,36.09942l-3.49218,3.53516-6.20411-6.13086,3.49219-3.53418.85742.84668-2.48291,2.51269,1.689,1.669,2.32666-2.35449.84863.83886-2.32666,2.3545,1.94775,1.9248,2.48291-2.51269Z" fill="#4d4d4d"/><path d="M36.51356,34.88263l-5.43018-6.82618,1.12354-.89355,4.66894,5.86816L39.786,30.71661l.76172.957Z" fill="#4d4d4d"/><path d="M41.809,30.89044l-4.77881-7.29688,1.20117-.78711,4.77881,7.29688Z" fill="#4d4d4d"/><path d="M51.09266,25.72833l-1.28857.64648-1.76172-3.51562-3.62012,1.81445L46.184,28.18927l-1.28369.64257L40.99207,21.035l1.2837-.64356,1.59863,3.18946L47.494,21.76641,45.89588,18.577l1.28858-.64551Z" fill="#4d4d4d"/><path d="M59.28016,18.43731a4.752,4.752,0,0,1-.05518,3.48047,4.53207,4.53207,0,0,1-5.82226,1.793,4.78019,4.78019,0,0,1-1.99561-2.874,4.70408,4.70408,0,0,1,.05371-3.48535,3.9681,3.9681,0,0,1,2.58789-2.00391,3.88864,3.88864,0,0,1,3.23926.2373A4.74348,4.74348,0,0,1,59.28016,18.43731Zm-6.41064,1.96387a3.8979,3.8979,0,0,0,1.34179,2.14453,2.67763,2.67763,0,0,0,3.70508-1.126,3.90078,3.90078,0,0,0-.09521-2.53515,3.90531,3.90531,0,0,0-1.33057-2.13867,2.29015,2.29015,0,0,0-2.084-.22852,2.33982,2.33982,0,0,0-1.62109,1.36328A3.85819,3.85819,0,0,0,52.86952,20.40118Z" fill="#4d4d4d"/><path d="M69.45155,16.96856a4.74832,4.74832,0,0,1-.646,3.41992,4.53147,4.53147,0,0,1-6.04248.77735,4.77837,4.77837,0,0,1-1.478-3.16992,4.707,4.707,0,0,1,.64551-3.42578A3.96806,3.96806,0,0,1,64.82118,13.035a3.89008,3.89008,0,0,1,3.15185.78418A4.74508,4.74508,0,0,1,69.45155,16.96856Zm-6.65088.84571a3.89494,3.89494,0,0,0,.95752,2.34179,2.67878,2.67878,0,0,0,3.84228-.48047,3.89687,3.89687,0,0,0,.3374-2.51367,3.90572,3.90572,0,0,0-.94775-2.334,2.29056,2.29056,0,0,0-2.01465-.58008,2.33878,2.33878,0,0,0-1.8291,1.06934A3.848,3.848,0,0,0,62.80067,17.81427Z" fill="#4d4d4d"/><path d="M79.02674,17.10528a4.33064,4.33064,0,0,1-1.32422,3.25781,4.87253,4.87253,0,0,1-3.51709,1.01758l-2.45556-.08789.31054-8.7168,2.71387.09766A4.50571,4.50571,0,0,1,77.9745,13.91,4.174,4.174,0,0,1,79.02674,17.10528Zm-1.51465-.00586q.11133-3.13036-2.83642-3.23535L73.433,13.82013l-.22558,6.32617,1.021.03515Q77.39832,20.29572,77.51209,17.09942Z" fill="#4d4d4d"/><path d="M89.35047,21.242a2.18977,2.18977,0,0,1-1.24609,1.58008,3.70636,3.70636,0,0,1-2.42676.10449,5.60874,5.60874,0,0,1-2.26709-1.01074l.31152-1.31153a6.61478,6.61478,0,0,0,1.14014.72461,5.474,5.474,0,0,0,1.1875.44727,2.0095,2.0095,0,0,0,1.29883-.02246,1.04878,1.04878,0,0,0,.59424-.74805,1.07945,1.07945,0,0,0-.1709-.89258,5.58765,5.58765,0,0,0-1.31006-1.13867,4.07452,4.07452,0,0,1-1.39355-1.46582,2.32421,2.32421,0,0,1-.13477-1.56543,2.0811,2.0811,0,0,1,1.15674-1.49023,3.25117,3.25117,0,0,1,2.18457-.126,6.19394,6.19394,0,0,1,2.31689,1.11426l-.71338,1.02637a5.53068,5.53068,0,0,0-1.92089-.959,1.61825,1.61825,0,0,0-1.09815.04883.98669.98669,0,0,0-.53515.69238,1.11051,1.11051,0,0,0,.00634.59864,1.462,1.462,0,0,0,.356.55371,7.98547,7.98547,0,0,0,1.02686.82617,6.57679,6.57679,0,0,1,1.207,1.05273,2.2063,2.2063,0,0,1,.4624.91407A2.33841,2.33841,0,0,1,89.35047,21.242Z" fill="#4d4d4d"/><path d="M94.33,20.46563l3.34131-2.999,1.46289.54687-4.61084,3.97657-1.18505,3.168-1.35059-.50391,1.16846-3.125-.8418-6.06641,1.46289.54785Z" fill="#4d4d4d"/><path d="M102.61414,26.95684a2.188,2.188,0,0,1-1.59716,1.22461,3.70591,3.70591,0,0,1-2.37745-.498,5.60617,5.60617,0,0,1-1.94775-1.53907l.62549-1.19336a6.61047,6.61047,0,0,0,.92627.98243,5.39108,5.39108,0,0,0,1.04.72656,2.0174,2.0174,0,0,0,1.26465.29883,1.04665,1.04665,0,0,0,.76025-.57813,1.08052,1.08052,0,0,0,.05518-.90722,5.64515,5.64515,0,0,0-.98877-1.42676,4.06422,4.06422,0,0,1-.98877-1.76367,2.32646,2.32646,0,0,1,.25537-1.55079,2.08183,2.08183,0,0,1,1.48926-1.15918,3.257,3.257,0,0,1,2.14795.418,6.18631,6.18631,0,0,1,1.96972,1.65137l-.94433.81836a5.52762,5.52762,0,0,0-1.625-1.40332,1.61053,1.61053,0,0,0-1.07618-.22363.98657.98657,0,0,0-.689.53906,1.1162,1.1162,0,0,0-.14209.582,1.46831,1.46831,0,0,0,.2085.624,7.98875,7.98875,0,0,0,.791,1.05372A6.51336,6.51336,0,0,1,102.681,24.951a2.204,2.204,0,0,1,.22314,1A2.34141,2.34141,0,0,1,102.61414,26.95684Z" fill="#4d4d4d"/><path d="M105.40125,31.65313l-1.18164-.81543,4.2583-6.17285-2.12646-1.4668.69433-1.00683,5.43506,3.75-.69482,1.00586-2.12647-1.4668Z" fill="#4d4d4d"/><path d="M112.22205,37.26348l-3.7163-3.29785,5.78906-6.52441,3.71631,3.29785-.79981.90137-2.64209-2.34375-1.57617,1.77539,2.47607,2.19726-.792.89258-2.47607-2.19726-1.81738,2.04882,2.64209,2.34375Z" fill="#4d4d4d"/><path d="M115.94227,41.35919l4.02148-6.58594-.03076-.03711q-1.19091,1.10742-2.28906,2.00684l-3.28174,2.68847-.82568-1.00976,6.74756-5.52539,1.28271,1.5664-3.82226,6.28321.02294.02734,6.959-2.45312,1.28662,1.57031-6.74756,5.52734L118.39,44.34845l3.33692-2.7334q.50244-.41163,1.33154-1.04785.82837-.63574,1.01465-.75684l-.03027-.03711-7.29737,2.56641Z" fill="#4d4d4d"/><path d="M124.96278,50.50958a2.189,2.189,0,0,1-2.00391.18652,3.70575,3.70575,0,0,1-1.74805-1.68652,5.61227,5.61227,0,0,1-.83007-2.33985l1.165-.67773a6.681,6.681,0,0,0,.26075,1.3252,5.43779,5.43779,0,0,0,.49414,1.16894,2.00605,2.00605,0,0,0,.91162.92578,1.04812,1.04812,0,0,0,.95166-.085,1.08131,1.08131,0,0,0,.5293-.73926,5.63384,5.63384,0,0,0-.07764-1.73437,4.071,4.071,0,0,1,.10156-2.01953,2.3277,2.3277,0,0,1,1.041-1.17578,2.08478,2.08478,0,0,1,1.87793-.18946,3.26022,3.26022,0,0,1,1.59619,1.49707,6.20554,6.20554,0,0,1,.78906,2.44629l-1.23535.19141a5.51012,5.51012,0,0,0-.62891-2.05274,1.60993,1.60993,0,0,0-.79248-.76269.9874.9874,0,0,0-.86963.08887,1.11225,1.11225,0,0,0-.43017.418,1.46917,1.46917,0,0,0-.15576.63868,8.06807,8.06807,0,0,0,.10888,1.31347,6.56352,6.56352,0,0,1,.06885,1.60059,2.20836,2.20836,0,0,1-.34326.96484A2.33436,2.33436,0,0,1,124.96278,50.50958Z" fill="#4d4d4d"/><g clip-path="url(#clip-path)"><g clip-path="url(#clip-path-2)"><g style="isolation:isolate"><g clip-path="url(#clip-path-3)"><g clip-path="url(#clip-path-4)"><g clip-path="url(#clip-path-5)"><rect x="18.2728" y="20.9477" width="109.0237" height="109.0228" fill="#fffffd"/></g></g></g></g></g></g></g></g></svg>