<svg xmlns="http://www.w3.org/2000/svg" xmlns:xlink="http://www.w3.org/1999/xlink" viewBox="0 0 309 309"><defs><linearGradient id="New_Gradient_Swatch_7" x1="45.25201" y1="263.74799" x2="263.74799" y2="45.25201" gradientUnits="userSpaceOnUse"><stop offset="0" stop-color="#38a380"/><stop offset="0.06811" stop-color="#4fa684"/><stop offset="0.19954" stop-color="#74ac8a"/><stop offset="0.33708" stop-color="#93b090"/><stop offset="0.4803" stop-color="#abb494"/><stop offset="0.63159" stop-color="#bcb697"/><stop offset="0.79642" stop-color="#c6b898"/><stop offset="1" stop-color="#c9b899"/></linearGradient></defs><g id="Layer_2" data-name="Layer 2"><g id="Layer_1-2" data-name="Layer 1"><circle cx="154.5" cy="154.5" r="153.5" fill="#fff" stroke-miterlimit="10" stroke-width="2" stroke="url(#New_Gradient_Swatch_7)"/><path d="M58.59859,193.977a10.05777,10.05777,0,0,1-1.0791,4.73926,7.55455,7.55455,0,0,1-3.084,3.165,9.54014,9.54014,0,0,1-4.69727,1.11035H46.12008l3.17578-15.02734h3.51562a5.70228,5.70228,0,0,1,4.31153,1.53711A6.21768,6.21768,0,0,1,58.59859,193.977Zm-8.74707,7.50391A6.97034,6.97034,0,0,0,53.5,200.54048a6.16758,6.16758,0,0,0,2.41016-2.65723,8.84115,8.84115,0,0,0,.83789-3.92676,4.74188,4.74188,0,0,0-1.0586-3.3457,4.03926,4.03926,0,0,0-3.10351-1.13574H50.75582l-2.56934,12.00586Z" fill="#232323"/><path d="M64.31246,203.1977a3.92791,3.92791,0,0,1-2.96973-1.12109,4.28564,4.28564,0,0,1-1.08007-3.10352,9.252,9.252,0,0,1,.7666-3.70605,6.85555,6.85555,0,0,1,2.02929-2.75977,4.42773,4.42773,0,0,1,2.78614-.98632,3.52935,3.52935,0,0,1,2.36328.68359A2.38258,2.38258,0,0,1,69,194.11079a3.261,3.261,0,0,1-1.70605,2.9043,9.34991,9.34991,0,0,1-4.88282,1.05273h-.33886l-.041.82227a3.18422,3.18422,0,0,0,.63184,2.10254,2.40952,2.40952,0,0,0,1.958.75488,5.09787,5.09787,0,0,0,1.33106-.18457,10.15382,10.15382,0,0,0,1.70117-.67871v1.501a9.252,9.252,0,0,1-1.706.63184A6.90878,6.90878,0,0,1,64.31246,203.1977Zm1.42871-10.207a2.74782,2.74782,0,0,0-1.98828.96582,6.31952,6.31952,0,0,0-1.42383,2.68262h.123a8.38683,8.38683,0,0,0,3.59277-.61133,1.9193,1.9193,0,0,0,1.249-1.77246,1.20294,1.20294,0,0,0-.375-.90527A1.65668,1.65668,0,0,0,65.74117,192.99067Z" fill="#232323"/><path d="M71.92965,202.99165,70.64449,191.726H72.372l.65723,6.30079q.24756,2.65282.24707,3.7207h.06152q1.30518-2.82568,1.83984-3.8125l3.34082-6.209h1.82911L74.2734,202.99165Z" fill="#232323"/><path d="M84.41793,203.1977a3.92791,3.92791,0,0,1-2.96973-1.12109,4.28564,4.28564,0,0,1-1.08008-3.10352,9.252,9.252,0,0,1,.76661-3.70605,6.85555,6.85555,0,0,1,2.02929-2.75977,4.42773,4.42773,0,0,1,2.78614-.98632,3.52935,3.52935,0,0,1,2.36328.68359,2.38258,2.38258,0,0,1,.792,1.90625,3.261,3.261,0,0,1-1.70606,2.9043,9.34985,9.34985,0,0,1-4.88281,1.05273h-.33887l-.041.82227a3.18427,3.18427,0,0,0,.63183,2.10254,2.40955,2.40955,0,0,0,1.958.75488,5.09787,5.09787,0,0,0,1.33106-.18457,10.15382,10.15382,0,0,0,1.70117-.67871v1.501a9.25182,9.25182,0,0,1-1.70606.63184A6.90863,6.90863,0,0,1,84.41793,203.1977Zm1.42871-10.207a2.74782,2.74782,0,0,0-1.98828.96582,6.31952,6.31952,0,0,0-1.42383,2.68262h.12305a8.38683,8.38683,0,0,0,3.59277-.61133,1.91929,1.91929,0,0,0,1.249-1.77246,1.20294,1.20294,0,0,0-.375-.90527A1.65664,1.65664,0,0,0,85.84664,192.99067Z" fill="#232323"/><path d="M92.05465,202.99165H90.32809l3.4121-15.99316h1.72754Z" fill="#232323"/><path d="M101.69625,191.58247a4.11506,4.11506,0,0,1,3.083,1.15625,4.35584,4.35584,0,0,1,1.13086,3.18164,9.12048,9.12048,0,0,1-.74024,3.64844,6.313,6.313,0,0,1-2.0039,2.65234,4.68728,4.68728,0,0,1-2.85743.93457,4.09544,4.09544,0,0,1-3.09375-1.16113,4.38227,4.38227,0,0,1-1.12109-3.17578,9.10148,9.10148,0,0,1,.751-3.67481,6.2283,6.2283,0,0,1,2.02441-2.6416A4.71944,4.71944,0,0,1,101.69625,191.58247ZM104.122,195.684a2.80853,2.80853,0,0,0-.64258-1.917,2.19522,2.19522,0,0,0-1.74219-.73535,3.01049,3.01049,0,0,0-2.00976.76074,4.88926,4.88926,0,0,0-1.377,2.11231,8.78384,8.78384,0,0,0-.48829,3.00683,3.02919,3.02919,0,0,0,.65235,2.08106,2.37663,2.37663,0,0,0,1.876.73437,2.83348,2.83348,0,0,0,1.92187-.75,4.8899,4.8899,0,0,0,1.33105-2.13281A9.65521,9.65521,0,0,0,104.122,195.684Z" fill="#232323"/><path d="M112.498,203.1977a3.01586,3.01586,0,0,1-1.74707-.51464,3.33579,3.33579,0,0,1-1.16114-1.43848h-.10351l-.041.39062c-.02051.1709-.05664.41114-.10742.71875q-.07764.4629-1.17676,5.69434h-1.707l3.4541-16.32227h1.42871l-.26757,2.14844h.082q1.83984-2.33349,3.82422-2.333a2.70294,2.70294,0,0,1,2.21972,1.002,4.35653,4.35653,0,0,1,.8125,2.81152,10.90246,10.90246,0,0,1-.71,3.99805,6.63757,6.63757,0,0,1-1.96289,2.832A4.39648,4.39648,0,0,1,112.498,203.1977Zm1.91211-10.22753a2.97094,2.97094,0,0,0-2.00977.97656,6.97619,6.97619,0,0,0-1.624,2.45605,8.00051,8.00051,0,0,0-.60059,3.03223,2.42061,2.42061,0,0,0,.57031,1.73242,2.16668,2.16668,0,0,0,1.64942.60156,2.71956,2.71956,0,0,0,1.89648-.833,5.84306,5.84306,0,0,0,1.41309-2.36915,9.86058,9.86058,0,0,0,.53418-3.26367Q116.23922,192.96968,114.41012,192.97017Z" fill="#232323"/><path d="M121.37887,202.99165H119.6523l2.40528-11.26563h1.72656Zm1.16211-14.14356a1.35263,1.35263,0,0,1,.32812-.94042,1.09638,1.09638,0,0,1,.85352-.36426.80834.80834,0,0,1,.90429.9248,1.395,1.395,0,0,1-.34375.95606,1.03694,1.03694,0,0,1-.79687.39062.95065.95065,0,0,1-.67871-.25195A.93621.93621,0,0,1,122.541,188.84809Z" fill="#232323"/><path d="M131.88375,202.99165l1.52148-7.11231a9.39784,9.39784,0,0,0,.20508-1.48046,1.46068,1.46068,0,0,0-.36523-1.03809,1.52877,1.52877,0,0,0-1.166-.39062,3.04507,3.04507,0,0,0-1.7832.61621,5.49238,5.49238,0,0,0-1.53223,1.75781,9.27834,9.27834,0,0,0-1.002,2.76562l-1.03809,4.88184H124.997L127.4023,191.726H128.831l-.22656,2.08692h.10352a6.86981,6.86981,0,0,1,1.90625-1.77344,3.83294,3.83294,0,0,1,1.90625-.51855,2.88273,2.88273,0,0,1,2.06152.71386,2.62361,2.62361,0,0,1,.75488,2,8.40073,8.40073,0,0,1-.23632,1.84961l-1.46973,6.90723Z" fill="#232323"/><path d="M147.84664,191.726l-.25684,1.10059-2.16894.24609a2.89515,2.89515,0,0,1,.4209,1.624,4.17057,4.17057,0,0,1-1.19727,3.12988,4.38765,4.38765,0,0,1-3.20117,1.167,3.46282,3.46282,0,0,1-.86426-.082q-1.42822.54492-1.42871,1.3457a.54512.54512,0,0,0,.33984.56055,4.07564,4.07564,0,0,0,.98633.2207l1.20313.14454a5.35072,5.35072,0,0,1,2.69726.90429,2.41356,2.41356,0,0,1,.83789,1.99414,3.35465,3.35465,0,0,1-1.5,2.92871,7.35978,7.35978,0,0,1-4.22461,1.03809,5.57252,5.57252,0,0,1-3.125-.75488,2.42,2.42,0,0,1-1.13085-2.13282,2.64887,2.64887,0,0,1,.74023-1.87109,5.76894,5.76894,0,0,1,2.39453-1.34668,1.33743,1.33743,0,0,1-.80078-1.24316,1.63584,1.63584,0,0,1,.52344-1.21778,5.393,5.393,0,0,1,1.46-.95117,2.679,2.679,0,0,1-1.0586-.97168,2.70691,2.70691,0,0,1-.41113-1.49511,4.51441,4.51441,0,0,1,1.22852-3.26856,4.16968,4.16968,0,0,1,3.13965-1.27441,6.21,6.21,0,0,1,1.583.20507Zm-10.94727,13.26954a1.44612,1.44612,0,0,0,.66895,1.2539,3.48821,3.48821,0,0,0,1.9834.46289,5.54928,5.54928,0,0,0,2.92383-.65234,2.05833,2.05833,0,0,0,1.05371-1.8457,1.15112,1.15112,0,0,0-.55469-1.00684,4.44789,4.44789,0,0,0-1.8916-.51367l-1.63379-.165a3.71508,3.71508,0,0,0-1.8916.90527A2.112,2.112,0,0,0,136.89937,204.99556Zm2.85743-8.99317a1.79048,1.79048,0,0,0,.46289,1.33106,1.74888,1.74888,0,0,0,1.28515.457,2.3797,2.3797,0,0,0,1.418-.43164,2.74941,2.74941,0,0,0,.93067-1.18653,4.12141,4.12141,0,0,0,.32324-1.63964,1.71746,1.71746,0,0,0-.45215-1.28516,1.78022,1.78022,0,0,0-1.29492-.44141,2.40727,2.40727,0,0,0-1.40332.416,2.73234,2.73234,0,0,0-.93555,1.16113A3.916,3.916,0,0,0,139.7568,196.00239Z" fill="#232323"/><path d="M159.122,191.521a2.90712,2.90712,0,0,1,1.68555.50879,3.30625,3.30625,0,0,1,1.15136,1.46484h.11231l.68945-1.76856h1.30469l-2.39453,11.26563h-1.36719l.26758-2.14844h-.083q-1.83984,2.354-3.875,2.35449a2.70961,2.70961,0,0,1-2.24023-1.01757,4.35268,4.35268,0,0,1-.8125-2.78614,10.60272,10.60272,0,0,1,.73047-3.96777,6.85117,6.85117,0,0,1,2.01464-2.86719A4.38024,4.38024,0,0,1,159.122,191.521Zm-1.95312,10.248a2.89377,2.89377,0,0,0,1.98339-.95117,7.04189,7.04189,0,0,0,1.60352-2.47754,8.10544,8.10544,0,0,0,.61719-3.05761,2.39494,2.39494,0,0,0-.57617-1.68555,1.95493,1.95493,0,0,0-1.51075-.62695,2.83169,2.83169,0,0,0-1.98925.88378,5.959,5.959,0,0,0-1.44336,2.39454,9.6546,9.6546,0,0,0-.52442,3.18652,2.70089,2.70089,0,0,0,.48242,1.75293A1.66944,1.66944,0,0,0,157.16891,201.769Z" fill="#232323"/><path d="M175.11519,203.1977a3.82664,3.82664,0,0,1-4.19433-4.2041,9.35531,9.35531,0,0,1,.76074-3.793,6.44072,6.44072,0,0,1,2.10254-2.708,5.0106,5.0106,0,0,1,3.0166-.97168,7.53542,7.53542,0,0,1,2.75488.52441l-.48339,1.44922a5.81189,5.81189,0,0,0-2.251-.52441,3.21687,3.21687,0,0,0-2.10156.78613,5.17681,5.17681,0,0,0-1.49121,2.18945,8.42774,8.42774,0,0,0-.53907,3.04785,2.87363,2.87363,0,0,0,.6836,2.04492,2.45412,2.45412,0,0,0,1.88574.73047,4.68011,4.68011,0,0,0,1.39844-.20605,12.69911,12.69911,0,0,0,1.29492-.4834v1.46973A6.1748,6.1748,0,0,1,175.11519,203.1977Z" fill="#232323"/><path d="M186.00094,191.58247a4.115,4.115,0,0,1,3.083,1.15625,4.35579,4.35579,0,0,1,1.13086,3.18164,9.12065,9.12065,0,0,1-.74023,3.64844,6.3129,6.3129,0,0,1-2.00391,2.65234,4.68725,4.68725,0,0,1-2.85742.93457,4.09544,4.09544,0,0,1-3.09375-1.16113,4.38227,4.38227,0,0,1-1.12109-3.17578,9.10147,9.10147,0,0,1,.751-3.67481,6.22831,6.22831,0,0,1,2.02442-2.6416A4.71944,4.71944,0,0,1,186.00094,191.58247Zm2.42578,4.10156a2.80857,2.80857,0,0,0-.64258-1.917,2.19522,2.19522,0,0,0-1.74219-.73535,3.01049,3.01049,0,0,0-2.00976.76074,4.88928,4.88928,0,0,0-1.377,2.11231,8.78409,8.78409,0,0,0-.48828,3.00683,3.02919,3.02919,0,0,0,.65235,2.08106,2.37659,2.37659,0,0,0,1.876.73437,2.8335,2.8335,0,0,0,1.92188-.75,4.89008,4.89008,0,0,0,1.33105-2.13281A9.65521,9.65521,0,0,0,188.42672,195.684Z" fill="#232323"/><path d="M198.35543,202.99165l1.52051-7.11231a8.40943,8.40943,0,0,0,.18554-1.38769,1.75853,1.75853,0,0,0-.31933-1.12109,1.31511,1.31511,0,0,0-1.08887-.40039,2.76079,2.76079,0,0,0-1.68066.61621,5.36922,5.36922,0,0,0-1.43946,1.76367,10.18868,10.18868,0,0,0-.96093,2.75976l-1.03809,4.88184h-1.72656l2.40527-11.26563h1.42871l-.22656,2.08692h.10351a6.43545,6.43545,0,0,1,1.78321-1.75781,3.5134,3.5134,0,0,1,1.834-.53418,2.335,2.335,0,0,1,1.78906.668,3.05868,3.05868,0,0,1,.74024,1.86035h.082a6.58449,6.58449,0,0,1,1.88086-1.90625,3.7665,3.7665,0,0,1,2.01465-.62207,2.76793,2.76793,0,0,1,2.01953.69922,2.7204,2.7204,0,0,1,.71484,2.03515,9.81617,9.81617,0,0,1-.22656,1.8291l-1.48047,6.90723h-1.74707l1.52149-7.11231a9.36592,9.36592,0,0,0,.20507-1.501,1.29508,1.29508,0,0,0-1.46972-1.4082,2.76553,2.76553,0,0,0-1.64453.5957,5.20809,5.20809,0,0,0-1.42383,1.6914,9.23219,9.23219,0,0,0-.92969,2.59473l-1.09961,5.13965Z" fill="#232323"/><path d="M216.71285,202.99165l1.52051-7.11231a8.40975,8.40975,0,0,0,.18555-1.38769,1.75853,1.75853,0,0,0-.31934-1.12109,1.3151,1.3151,0,0,0-1.08887-.40039,2.76079,2.76079,0,0,0-1.68066.61621,5.3692,5.3692,0,0,0-1.43945,1.76367,10.18834,10.18834,0,0,0-.96094,2.75976l-1.03809,4.88184H210.165l2.40527-11.26563H213.999l-.22656,2.08692h.10352a6.43543,6.43543,0,0,1,1.7832-1.75781,3.5134,3.5134,0,0,1,1.834-.53418,2.335,2.335,0,0,1,1.78907.668,3.05867,3.05867,0,0,1,.74023,1.86035h.082a6.58449,6.58449,0,0,1,1.88086-1.90625A3.7665,3.7665,0,0,1,224,191.521a2.76793,2.76793,0,0,1,2.01953.69922,2.7204,2.7204,0,0,1,.71485,2.03515,9.81632,9.81632,0,0,1-.22657,1.8291l-1.48047,6.90723h-1.74707l1.52149-7.11231a9.3651,9.3651,0,0,0,.20508-1.501,1.29509,1.29509,0,0,0-1.46973-1.4082,2.76553,2.76553,0,0,0-1.64453.5957,5.20809,5.20809,0,0,0-1.42383,1.6914,9.2325,9.2325,0,0,0-.92969,2.59473l-1.09961,5.13965Z" fill="#232323"/><path d="M232.55172,191.726l-1.542,7.14356a7.74108,7.74108,0,0,0-.18457,1.42871,1.31765,1.31765,0,0,0,1.51074,1.4707,3.05953,3.05953,0,0,0,1.77832-.61718,5.48046,5.48046,0,0,0,1.541-1.76758,9.47069,9.47069,0,0,0,1.01758-2.77539l1.02832-4.88282h1.70606l-2.374,11.26563h-1.42871l.22559-2.08691H235.707a6.75321,6.75321,0,0,1-1.92187,1.78906,3.88332,3.88332,0,0,1-1.89161.5039,2.87125,2.87125,0,0,1-2.06542-.71484,2.68117,2.68117,0,0,1-.751-2.04,9.59693,9.59693,0,0,1,.22656-1.76855l1.501-6.94825Z" fill="#232323"/><path d="M247.55855,202.99165l1.52149-7.11231a9.39784,9.39784,0,0,0,.20508-1.48046,1.46064,1.46064,0,0,0-.36524-1.03809,1.52873,1.52873,0,0,0-1.166-.39062,3.04507,3.04507,0,0,0-1.78321.61621,5.49235,5.49235,0,0,0-1.53222,1.75781,9.27834,9.27834,0,0,0-1.002,2.76562l-1.03808,4.88184h-1.72656l2.40527-11.26563h1.42871l-.22656,2.08692h.10351a6.87,6.87,0,0,1,1.90625-1.77344,3.833,3.833,0,0,1,1.90625-.51855,2.88278,2.88278,0,0,1,2.06153.71386,2.62361,2.62361,0,0,1,.75488,2,8.40079,8.40079,0,0,1-.23633,1.84961l-1.46973,6.90723Z" fill="#232323"/><path d="M254.54684,202.99165h-1.72657l2.40528-11.26563h1.72656Zm1.1621-14.14356a1.35263,1.35263,0,0,1,.32813-.94042,1.09638,1.09638,0,0,1,.85352-.36426.80835.80835,0,0,1,.90429.9248,1.395,1.395,0,0,1-.34375.95606,1.037,1.037,0,0,1-.79687.39062.95065.95065,0,0,1-.67871-.25195A.93622.93622,0,0,1,255.70894,188.84809Z" fill="#232323"/><path d="M261.61812,201.7895a5.58574,5.58574,0,0,0,1.48047-.26758v1.32617a4.75081,4.75081,0,0,1-.86328.2461,4.454,4.454,0,0,1-.82226.10351,2.85742,2.85742,0,0,1-1.96875-.6123,2.32344,2.32344,0,0,1-.6836-1.82422,7.477,7.477,0,0,1,.18555-1.542l1.30566-6.1875h-1.76855l.14453-.75,1.90137-.80176,1.28418-2.34375h1.00781l-.56543,2.58984h2.81641l-.26758,1.30567H261.999l-1.32617,6.208a7.337,7.337,0,0,0-.18457,1.35742,1.219,1.219,0,0,0,.29785.88379A1.10525,1.10525,0,0,0,261.61812,201.7895Z" fill="#232323"/><path d="M265.39059,191.726h1.72753l.76075,5.60254q.10254.709.20019,2.09082.09667,1.38282.09766,2.22559h.06152q.35889-.89355.89453-2.05566.53321-1.16163.791-1.60352l3.34082-6.25977h1.8291l-7.15332,13.17774a7.43919,7.43919,0,0,1-1.8916,2.45605,3.69324,3.69324,0,0,1-2.251.68848,4.82563,4.82563,0,0,1-1.43847-.21582v-1.3877a4.84654,4.84654,0,0,0,1.3457.18555,2.13166,2.13166,0,0,0,1.44433-.51953,5.60513,5.60513,0,0,0,1.167-1.53613l.78125-1.39844Z" fill="#232323"/><path d="M105.59664,228.25239l-.32813-6.1875q-.04248-.96679-.041-1.76758V218.6938h-.09277l-.51368,1.21289-.85351,1.94238-2.99121,6.40332H98.70016l-.44239-11.26562H99.9443l.18457,6.10547v.90527q0,1.51025-.082,2.76465h.06152q.48339-1.27441,1.4082-3.30957l3.03223-6.46582h1.87012l.38085,6.10547q.06153,1.727.06153,2.69335v.54493l-.02051.43164h.06152q.28712-.88477.85352-2.2461.56542-1.3623,3.31934-7.52929h1.83007l-5.20117,11.26562Z" fill="#232323"/><path d="M114.4775,228.25239h-1.72656l2.40527-11.26562h1.72656Zm1.16211-14.14355a1.35263,1.35263,0,0,1,.32812-.94043,1.09638,1.09638,0,0,1,.85352-.36426.80835.80835,0,0,1,.9043.9248,1.395,1.395,0,0,1-.34375.95606,1.037,1.037,0,0,1-.79688.39062.95067.95067,0,0,1-.67871-.25195A.93624.93624,0,0,1,115.63961,214.10884Z" fill="#232323"/><path d="M121.54879,227.05024a5.58613,5.58613,0,0,0,1.48047-.26757v1.32617a4.75192,4.75192,0,0,1-.86328.24609,4.45425,4.45425,0,0,1-.82227.10352,2.85742,2.85742,0,0,1-1.96875-.61231,2.32341,2.32341,0,0,1-.68359-1.82422,7.47762,7.47762,0,0,1,.18554-1.542l1.30567-6.1875H118.414l.14453-.75,1.90137-.80176,1.28418-2.34375h1.00781l-.56543,2.58985h2.81641l-.26758,1.30566h-2.80566l-1.32617,6.208a7.33714,7.33714,0,0,0-.18457,1.35742,1.219,1.219,0,0,0,.29785.88379A1.10522,1.10522,0,0,0,121.54879,227.05024Z" fill="#232323"/><path d="M131.80758,228.25239l1.52148-7.1123a8.48769,8.48769,0,0,0,.18457-1.3877,1.34008,1.34008,0,0,0-1.51074-1.52148,3.07938,3.07938,0,0,0-1.7832.60644,5.34021,5.34021,0,0,0-1.53223,1.7627,9.4793,9.4793,0,0,0-1.00195,2.791l-1.03809,4.86133h-1.72656l3.3916-15.99316H130.04q-.186.84228-.35547,1.63379-.16845.79248-.34863,1.60937-.18018.81592-.39063,1.71094-.21093.89355-.48828,1.94238h.11231a6.85571,6.85571,0,0,1,1.90722-1.80859,3.87008,3.87008,0,0,1,1.96778-.54492,2.80528,2.80528,0,0,1,2.082.74023,2.84985,2.84985,0,0,1,.73437,2.09668,8.31019,8.31019,0,0,1-.23633,1.70606q-.3999,1.98339-1.49023,6.90722Z" fill="#232323"/><path d="M148.5,216.78169a2.90712,2.90712,0,0,1,1.68555.50879,3.3063,3.3063,0,0,1,1.15136,1.46484h.11231l.68945-1.76855h1.30469l-2.39453,11.26562H149.6816l.26758-2.14844h-.083q-1.83984,2.354-3.875,2.3545a2.70962,2.70962,0,0,1-2.24023-1.01758,4.35265,4.35265,0,0,1-.8125-2.78613,10.60277,10.60277,0,0,1,.73047-3.96778,6.85117,6.85117,0,0,1,2.01464-2.86719A4.38024,4.38024,0,0,1,148.5,216.78169Zm-1.95312,10.24805a2.89378,2.89378,0,0,0,1.98339-.95118,7.04189,7.04189,0,0,0,1.60352-2.47754,8.10541,8.10541,0,0,0,.61719-3.05761,2.3949,2.3949,0,0,0-.57618-1.68555,1.95489,1.95489,0,0,0-1.51074-.62695,2.8317,2.8317,0,0,0-1.98926.88379,5.95894,5.95894,0,0,0-1.44335,2.39453,9.6546,9.6546,0,0,0-.52442,3.18652,2.70087,2.70087,0,0,0,.48242,1.75293A1.66944,1.66944,0,0,0,146.54684,227.02974Z" fill="#232323"/><path d="M160.39156,216.8022a2.99813,2.99813,0,0,1,2.8877,1.95312h.10254a23.89557,23.89557,0,0,1,.46289-2.8164l.80175-3.67969h1.70606l-3.3916,15.99316h-1.42871l.22558-2.14844h-.082a7.73479,7.73479,0,0,1-1.94238,1.81934,3.631,3.631,0,0,1-1.8711.53516,2.69184,2.69184,0,0,1-2.23046-1.00782,4.382,4.382,0,0,1-.80176-2.79589,10.65643,10.65643,0,0,1,.74023-4.0293,6.72293,6.72293,0,0,1,1.999-2.82617A4.43072,4.43072,0,0,1,160.39156,216.8022Zm-1.95312,10.22754a2.99341,2.99341,0,0,0,1.99414-.96192,6.75863,6.75863,0,0,0,1.6289-2.45605,8.11329,8.11329,0,0,0,.60157-3.04785,2.4606,2.4606,0,0,0-.55567-1.73731,2.10085,2.10085,0,0,0-1.61328-.5957,2.74937,2.74937,0,0,0-1.92773.84765,5.96854,5.96854,0,0,0-1.42871,2.38477,9.6959,9.6959,0,0,0-.53907,3.23242Q156.59859,227.02925,158.43844,227.02974Z" fill="#232323"/><path d="M172.541,216.78169a2.90706,2.90706,0,0,1,1.68554.50879,3.30625,3.30625,0,0,1,1.15137,1.46484h.1123l.68946-1.76855h1.30469l-2.39454,11.26562h-1.36718l.26757-2.14844h-.083q-1.83985,2.354-3.875,2.3545a2.70965,2.70965,0,0,1-2.24024-1.01758,4.35271,4.35271,0,0,1-.8125-2.78613,10.603,10.603,0,0,1,.73047-3.96778,6.85128,6.85128,0,0,1,2.01465-2.86719A4.3802,4.3802,0,0,1,172.541,216.78169Zm-1.95313,10.24805a2.89382,2.89382,0,0,0,1.9834-.95118,7.042,7.042,0,0,0,1.60351-2.47754,8.10521,8.10521,0,0,0,.61719-3.05761,2.39489,2.39489,0,0,0-.57617-1.68555,1.95491,1.95491,0,0,0-1.51074-.62695,2.83168,2.83168,0,0,0-1.98926.88379,5.959,5.959,0,0,0-1.44336,2.39453,9.65459,9.65459,0,0,0-.52441,3.18652,2.70087,2.70087,0,0,0,.48242,1.75293A1.66941,1.66941,0,0,0,170.58785,227.02974Z" fill="#232323"/><path d="M183.46676,228.45845a3.01587,3.01587,0,0,1-1.74707-.51465,3.33579,3.33579,0,0,1-1.16114-1.43848H180.455l-.041.39063c-.02051.17089-.05664.41113-.10742.71875q-.07764.46289-1.17676,5.69433h-1.707l3.4541-16.32226h1.42871l-.26757,2.14843h.082q1.83984-2.33349,3.82422-2.333a2.70293,2.70293,0,0,1,2.21972,1.00195,4.35653,4.35653,0,0,1,.8125,2.81152,10.90246,10.90246,0,0,1-.71,3.99805,6.63751,6.63751,0,0,1-1.96289,2.832A4.39643,4.39643,0,0,1,183.46676,228.45845Zm1.91211-10.22754a2.97094,2.97094,0,0,0-2.00977.97656,6.97637,6.97637,0,0,0-1.624,2.45605,8.00051,8.00051,0,0,0-.60059,3.03223,2.4206,2.4206,0,0,0,.57031,1.73242,2.16669,2.16669,0,0,0,1.64942.60157,2.71953,2.71953,0,0,0,1.89648-.833,5.84309,5.84309,0,0,0,1.41309-2.36914,9.86067,9.86067,0,0,0,.53418-3.26367Q187.208,218.23042,185.37887,218.23091Z" fill="#232323"/><path d="M194.07418,227.05024a5.58613,5.58613,0,0,0,1.48047-.26757v1.32617a4.75192,4.75192,0,0,1-.86328.24609,4.45425,4.45425,0,0,1-.82227.10352,2.85746,2.85746,0,0,1-1.96875-.61231,2.32341,2.32341,0,0,1-.68359-1.82422,7.47762,7.47762,0,0,1,.18554-1.542l1.30567-6.1875h-1.76856l.14453-.75,1.90137-.80176,1.28418-2.34375h1.00781l-.56543,2.58985h2.81641l-.26758,1.30566H194.455l-1.32617,6.208a7.33714,7.33714,0,0,0-.18457,1.35742,1.219,1.219,0,0,0,.29785.88379A1.10522,1.10522,0,0,0,194.07418,227.05024Z" fill="#232323"/><path d="M199.17184,228.25239h-1.72657l2.40528-11.26562h1.72656Zm1.1621-14.14355a1.35264,1.35264,0,0,1,.32813-.94043,1.09638,1.09638,0,0,1,.85352-.36426.80835.80835,0,0,1,.90429.9248,1.395,1.395,0,0,1-.34375.95606,1.037,1.037,0,0,1-.79687.39062.95065.95065,0,0,1-.67871-.25195A.93621.93621,0,0,1,200.33394,214.10884Z" fill="#232323"/><path d="M204.47555,228.25239l-1.28516-11.26562h1.72754l.65723,6.30078q.24755,2.65282.24707,3.7207h.06152q1.30518-2.82568,1.83984-3.8125l3.34082-6.209h1.8291l-6.07421,11.26562Z" fill="#232323"/><path d="M216.96383,228.45845a3.92792,3.92792,0,0,1-2.96973-1.1211,4.28559,4.28559,0,0,1-1.08008-3.10351,9.25222,9.25222,0,0,1,.7666-3.70606,6.85555,6.85555,0,0,1,2.0293-2.75976,4.42766,4.42766,0,0,1,2.78613-.98633,3.52937,3.52937,0,0,1,2.36329.68359,2.38259,2.38259,0,0,1,.792,1.90625,3.261,3.261,0,0,1-1.70606,2.9043,9.34985,9.34985,0,0,1-4.88281,1.05273h-.33887l-.041.82227a3.1842,3.1842,0,0,0,.63183,2.10254,2.40955,2.40955,0,0,0,1.958.75488,5.09787,5.09787,0,0,0,1.33106-.18457,10.15382,10.15382,0,0,0,1.70117-.67871v1.501a9.25243,9.25243,0,0,1-1.70606.63183A6.90861,6.90861,0,0,1,216.96383,228.45845Zm1.42871-10.207a2.74777,2.74777,0,0,0-1.98828.96582,6.31948,6.31948,0,0,0-1.42383,2.68261h.123a8.38683,8.38683,0,0,0,3.59277-.61133,1.91929,1.91929,0,0,0,1.249-1.77246,1.20294,1.20294,0,0,0-.375-.90527A1.65666,1.65666,0,0,0,218.39254,218.25142Z" fill="#232323"/><path d="M121.70894,253.71821a3.82664,3.82664,0,0,1-4.19433-4.2041,9.35528,9.35528,0,0,1,.76074-3.793,6.44075,6.44075,0,0,1,2.10254-2.708,5.01066,5.01066,0,0,1,3.0166-.97168,7.53544,7.53544,0,0,1,2.75488.52442l-.48339,1.44922a5.81192,5.81192,0,0,0-2.251-.52442,3.21688,3.21688,0,0,0-2.10156.78614,5.17681,5.17681,0,0,0-1.49121,2.18945,8.42774,8.42774,0,0,0-.53907,3.04785,2.87366,2.87366,0,0,0,.6836,2.04492,2.45412,2.45412,0,0,0,1.88574.73047,4.68011,4.68011,0,0,0,1.39844-.20605,12.70148,12.70148,0,0,0,1.29492-.4834v1.46972A6.17468,6.17468,0,0,1,121.70894,253.71821Z" fill="#232323"/><path d="M132.55269,242.04145a2.90714,2.90714,0,0,1,1.68555.50879,3.30635,3.30635,0,0,1,1.15137,1.46485h.1123l.68946-1.76856h1.30468l-2.39453,11.26563h-1.36718l.26757-2.14844h-.083q-1.83986,2.354-3.875,2.35449a2.70963,2.70963,0,0,1-2.24024-1.01758,4.35271,4.35271,0,0,1-.8125-2.78613,10.60292,10.60292,0,0,1,.73047-3.96777,6.85121,6.85121,0,0,1,2.01465-2.86719A4.38021,4.38021,0,0,1,132.55269,242.04145Zm-1.95312,10.24805a2.89381,2.89381,0,0,0,1.9834-.95117,7.042,7.042,0,0,0,1.60351-2.47754,8.10526,8.10526,0,0,0,.61719-3.05762,2.39487,2.39487,0,0,0-.57617-1.68554,1.95493,1.95493,0,0,0-1.51074-.627,2.83168,2.83168,0,0,0-1.98926.88379,5.95909,5.95909,0,0,0-1.44336,2.39453,9.65469,9.65469,0,0,0-.52441,3.18653,2.70089,2.70089,0,0,0,.48242,1.75293A1.6694,1.6694,0,0,0,130.59957,252.2895Z" fill="#232323"/><path d="M143.47848,253.71821a3.0158,3.0158,0,0,1-1.74707-.51465,3.3357,3.3357,0,0,1-1.16114-1.43847h-.10351l-.041.39062c-.02051.1709-.05664.41113-.10742.71875q-.07764.4629-1.17676,5.69434h-1.707l3.4541-16.32227h1.42871l-.26758,2.14844h.082q1.83984-2.33349,3.82421-2.333a2.703,2.703,0,0,1,2.21973,1.002,4.35649,4.35649,0,0,1,.8125,2.81152,10.90249,10.90249,0,0,1-.71,3.99805,6.63766,6.63766,0,0,1-1.96289,2.832A4.39648,4.39648,0,0,1,143.47848,253.71821Zm1.91211-10.22754a2.971,2.971,0,0,0-2.00977.97657,6.97619,6.97619,0,0,0-1.624,2.45605,8.00047,8.00047,0,0,0-.60059,3.03223,2.42063,2.42063,0,0,0,.57031,1.73242,2.16668,2.16668,0,0,0,1.64942.60156,2.71953,2.71953,0,0,0,1.89648-.833,5.843,5.843,0,0,0,1.41309-2.36914,9.86058,9.86058,0,0,0,.53418-3.26367Q147.21969,243.49019,145.39059,243.49067Z" fill="#232323"/><path d="M156.59469,242.04145a2.90714,2.90714,0,0,1,1.68554.50879,3.30628,3.30628,0,0,1,1.15137,1.46485h.11231l.68945-1.76856h1.30469l-2.39454,11.26563h-1.36718l.26758-2.14844h-.083q-1.83984,2.354-3.875,2.35449a2.70963,2.70963,0,0,1-2.24024-1.01758,4.35271,4.35271,0,0,1-.8125-2.78613,10.60292,10.60292,0,0,1,.73047-3.96777,6.85121,6.85121,0,0,1,2.01465-2.86719A4.38023,4.38023,0,0,1,156.59469,242.04145Zm-1.95313,10.24805a2.89381,2.89381,0,0,0,1.9834-.95117,7.04217,7.04217,0,0,0,1.60352-2.47754,8.10544,8.10544,0,0,0,.61718-3.05762,2.39487,2.39487,0,0,0-.57617-1.68554,1.95492,1.95492,0,0,0-1.51074-.627,2.83168,2.83168,0,0,0-1.98926.88379,5.95909,5.95909,0,0,0-1.44336,2.39453,9.65469,9.65469,0,0,0-.52441,3.18653,2.70089,2.70089,0,0,0,.48242,1.75293A1.66942,1.66942,0,0,0,154.64156,252.2895Z" fill="#232323"/><path d="M167.1191,253.71821a3.82665,3.82665,0,0,1-4.19434-4.2041,9.35529,9.35529,0,0,1,.76075-3.793,6.44067,6.44067,0,0,1,2.10254-2.708,5.01066,5.01066,0,0,1,3.0166-.97168,7.53551,7.53551,0,0,1,2.75488.52442l-.4834,1.44922a5.81183,5.81183,0,0,0-2.251-.52442,3.21692,3.21692,0,0,0-2.10157.78614,5.1769,5.1769,0,0,0-1.49121,2.18945,8.428,8.428,0,0,0-.53906,3.04785,2.87371,2.87371,0,0,0,.68359,2.04492,2.45414,2.45414,0,0,0,1.88575.73047,4.68,4.68,0,0,0,1.39843-.20605,12.7006,12.7006,0,0,0,1.29492-.4834v1.46972A6.17461,6.17461,0,0,1,167.1191,253.71821Z" fill="#232323"/><path d="M173.7275,253.51216h-1.72656l2.40527-11.26563h1.72656Zm1.16211-14.14356a1.35265,1.35265,0,0,1,.32812-.94043,1.09641,1.09641,0,0,1,.85352-.36425.80835.80835,0,0,1,.9043.9248,1.395,1.395,0,0,1-.34375.95605,1.03693,1.03693,0,0,1-.79688.39063.95067.95067,0,0,1-.67871-.25195A.93625.93625,0,0,1,174.88961,239.3686Z" fill="#232323"/><path d="M180.79879,252.31a5.58581,5.58581,0,0,0,1.48047-.26758v1.32617a4.75105,4.75105,0,0,1-.86328.2461,4.45408,4.45408,0,0,1-.82227.10351,2.85742,2.85742,0,0,1-1.96875-.6123,2.32343,2.32343,0,0,1-.68359-1.82422,7.47762,7.47762,0,0,1,.18554-1.542l1.30567-6.1875H177.664l.14453-.75,1.90137-.80176,1.28418-2.34375h1.00781l-.56543,2.58984h2.81641l-.26758,1.30567h-2.80566l-1.32617,6.208a7.33712,7.33712,0,0,0-.18457,1.35743,1.219,1.219,0,0,0,.29785.88379A1.10526,1.10526,0,0,0,180.79879,252.31Z" fill="#232323"/><path d="M185.89742,253.51216h-1.72656l2.40527-11.26563h1.72656Zm1.16211-14.14356a1.35266,1.35266,0,0,1,.32813-.94043,1.09637,1.09637,0,0,1,.85351-.36425.80835.80835,0,0,1,.9043.9248,1.395,1.395,0,0,1-.34375.95605,1.03693,1.03693,0,0,1-.79688.39063.95067.95067,0,0,1-.67871-.25195A.93625.93625,0,0,1,187.05953,239.3686Z" fill="#232323"/><path d="M193.96578,253.71821a3.92791,3.92791,0,0,1-2.96973-1.12109,4.28565,4.28565,0,0,1-1.08007-3.10352,9.2522,9.2522,0,0,1,.7666-3.706,6.85555,6.85555,0,0,1,2.02929-2.75977,4.42774,4.42774,0,0,1,2.78614-.98633,3.5293,3.5293,0,0,1,2.36328.6836,2.38258,2.38258,0,0,1,.792,1.90625,3.26094,3.26094,0,0,1-1.70605,2.90429,9.3499,9.3499,0,0,1-4.88282,1.05274h-.33886l-.041.82226a3.18418,3.18418,0,0,0,.63184,2.10254,2.40951,2.40951,0,0,0,1.958.75489,5.09829,5.09829,0,0,0,1.33106-.18457,10.15382,10.15382,0,0,0,1.70117-.67871v1.501a9.252,9.252,0,0,1-1.70605.63184A6.90878,6.90878,0,0,1,193.96578,253.71821Zm1.42871-10.207a2.74782,2.74782,0,0,0-1.98828.96582,6.31946,6.31946,0,0,0-1.42383,2.68262h.12305a8.387,8.387,0,0,0,3.59277-.61133,1.91932,1.91932,0,0,0,1.249-1.77246,1.20294,1.20294,0,0,0-.375-.90527A1.65668,1.65668,0,0,0,195.39449,243.51118Z" fill="#232323"/><path d="M206.84566,250.31587a3.01527,3.01527,0,0,1-1.13574,2.50293,5.04285,5.04285,0,0,1-3.20215.89941,6.82951,6.82951,0,0,1-3.13476-.71v-1.624a6.36432,6.36432,0,0,0,1.55273.668,5.64513,5.64513,0,0,0,1.541.2373,3.13279,3.13279,0,0,0,1.95312-.51465,1.59884,1.59884,0,0,0,.65821-1.31543,1.42,1.42,0,0,0-.36036-.98633,7.24117,7.24117,0,0,0-1.55175-1.10058,6.242,6.242,0,0,1-1.89161-1.46973,2.7093,2.7093,0,0,1-.55468-1.70605,2.83573,2.83573,0,0,1,1.03808-2.28711,4.12052,4.12052,0,0,1,2.73438-.86817,7.95368,7.95368,0,0,1,3.3916.76075l-.55469,1.4082-.57617-.25684a5.70656,5.70656,0,0,0-2.26074-.44238,2.30029,2.30029,0,0,0-1.501.44727,1.50588,1.50588,0,0,0-.17969,2.14257,6.42323,6.42323,0,0,0,1.50586,1.0586,8.70845,8.70845,0,0,1,1.57715,1.05957,3.05046,3.05046,0,0,1,.71485.95019A2.69513,2.69513,0,0,1,206.84566,250.31587Z" fill="#232323"/><path d="M51.35152,128.62468a20.71624,20.71624,0,0,1-6.60876-5.67307c-4.49-5.3584-8.43479-14.60084-8.41834-29.79443,0-.44407.07141-.9.07976-1.36781a3.75518,3.75518,0,0,1,7.50905.13112c-.0059.41055-.00151.82289,0,1.23608.00859,12.64157,3.00558,19.23227,5.93345,23.312,2.632,3.64683,5.31812,4.81117,6.30178,4.81117H72.86978c.2674,0,.65757.26817,1.14179-.00733a13.76588,13.76588,0,0,0,4.26217-3.37825c1.52729-1.839,2.52879-4.31817,3.8071-8.0658,1.76178,1.64987,3.27068,3.00582,4.27068,3.87431v3.77722a24.50806,24.50806,0,0,1-3.35386,5.47172,20.77588,20.77588,0,0,1-6.64614,5.67234v25.65579h13V112.16482a30.08043,30.08043,0,0,1-7.84873-6.82855C76.09662,98.88476,71.40026,87.75642,71.42089,69.465c0-.53577.11108-1.08444.12286-1.64656a4.53058,4.53058,0,0,1,9.05945.15746c-.00786.49409.00038.99108.00186,1.48849.01178,15.21919,3.61976,23.6333,7.14481,28.54438,3.17,4.39084,6.40523,5.27094,7.58925,6.27094h20.13223a3.09486,3.09486,0,0,0,1.37579-.48725,18.18674,18.18674,0,0,0,5.12919-4.30736,27.67749,27.67749,0,0,0,3.73734-5.97295,27.92473,27.92473,0,0,0,5.63785,4.63853v3.691c-1,1.29267-1.76378,2.455-2.635,3.49386a30.63849,30.63849,0,0,1-8.365,6.82922v42.11492h16V95.14634a41.923,41.923,0,0,1-9.55219-8.01717c-6.34709-7.57224-12.02962-20.63492-12.00507-42.10605,0-.6286.04635-1.27315.05961-1.93263a5.28653,5.28653,0,0,1,10.5714.18514c-.00933.58053-.00909,1.163-.00786,1.74749.01325,17.865,4.24448,27.93569,8.3829,33.70078,3.72074,5.15424,7.51171,6.55584,8.90149,7.55584h23.63273c.37961-1,.92914-.37733,1.61372-.76682a22.05169,22.05169,0,0,0,6.02248-5.1526c4.51729-5.43827,9.61431-15.66674,9.63985-35.343,0-.57133-.00638-1.1621-.013-1.7716a5.27065,5.27065,0,1,1,10.54051-.12828c.00736.62921.01252,1.26621.01375,1.9053.02578,21.47114-5.23536,34.53468-11.58221,42.10692a42.024,42.024,0,0,1-9.2181,8.01606v59.134h16V112.16482a30.62723,30.62723,0,0,1-8.36551-6.82922c-.87045-1.03823-1.63449-2.20119-2.63449-3.49251V98.15071c2-1.13184,3.30294-2.64072,5.30118-4.59347a28.29783,28.29783,0,0,0,3.58845,6.02057,19.23318,19.23318,0,0,0,5.432,4.40005,3.20782,3.20782,0,0,0,1.67836.67261v-.37073h19.34127c1.18377-1,4.41244-1.88075,7.58194-6.27164,3.525-4.911,7.12645-13.41814,7.13824-28.63739.00123-.49735-.00393-.94815-.01179-1.44225a4.4896,4.4896,0,0,1,8.97835-.12288c.01179.56211.01449,1.11661.01449,1.65239.02038,18.29133-4.62243,29.42262-10.02811,35.87413a30.27088,30.27088,0,0,1-8.01439,6.83272v42.11492h13V128.62468a20.78,20.78,0,0,1-6.64687-5.67233,24.52879,24.52879,0,0,1-3.35313-5.46927v-3.7798c1-.86849,2.67333-2.08652,4.43512-3.73511a25.73608,25.73608,0,0,0,4.19812,8.20231,11.91934,11.91934,0,0,0,4.149,3.10224c.48421.27611.76072.007,1.02836.007H252.882c.98414,0,3.66525-1.16391,6.29749-4.81086,2.92788-4.07961,5.92058-10.94592,5.92918-23.58756.00122-.41319-.0027-.68753-.0086-1.09808a3.6694,3.6694,0,0,1,3.663-3.72606,3.75841,3.75841,0,0,1,3.79465,3.69832c.00934.46648.01179.94037.01179,1.38444.01719,15.19291-3.95556,24.44464-8.44559,29.80305a21.03186,21.03186,0,0,1-6.77246,5.68169v25.65506h49.70313c0-84-68.29417-152.53907-152.53919-152.53907S1.97652,70.27974,1.97652,154.27974h49.375Zm203.66134-19.38792A10.48981,10.48981,0,1,1,244.52293,98.747,10.49,10.49,0,0,1,255.01286,109.23676ZM203.62716,76.194a12.62912,12.62912,0,1,1-12.62911,12.62912A12.62929,12.62929,0,0,1,203.62716,76.194Zm-49.11-23.27189a14.82453,14.82453,0,1,1-14.82453,14.82465A14.82451,14.82451,0,0,1,154.51718,52.92212ZM105.40548,76.194A12.62912,12.62912,0,1,1,92.77612,88.82313,12.62907,12.62907,0,0,1,105.40548,76.194ZM64.50873,98.747A10.48981,10.48981,0,1,1,54.0188,109.23676,10.48965,10.48965,0,0,1,64.50873,98.747Z" fill="#637e20"/><path d="M203.35152,154.27974h2v-2h-2Z" fill="#637e20" opacity="0.5"/><path d="M104.35152,154.27974h2v-2h-2Z" fill="#637e20" opacity="0.5"/><path d="M153.35152,154.27974h4v-14h-4Z" fill="#637e20" opacity="0.5"/></g></g></svg>