<svg width="147" height="147" viewBox="0 0 147 147" fill="none" xmlns="http://www.w3.org/2000/svg">
<g clip-path="url(#clip0)">
<path d="M124.003 124.003C152.142 95.8645 152.142 50.2427 124.003 22.1039C95.8646 -6.03477 50.2428 -6.03476 22.1041 22.1039C-6.03465 50.2427 -6.03465 95.8645 22.1041 124.003C50.2428 152.142 95.8646 152.142 124.003 124.003Z" fill="white" stroke="url(#paint0_linear)" stroke-width="2" stroke-miterlimit="10"/>
<path d="M115.978 95.1052C128.465 71.3989 119.371 42.0579 95.6644 29.5704C71.958 17.0829 42.617 26.1776 30.1295 49.884C17.642 73.5904 26.7367 102.931 50.4431 115.419C74.1495 127.906 103.49 118.812 115.978 95.1052Z" fill="#637E20"/>
<g opacity="0.5">
<path opacity="0.5" d="M41.8306 72.093C42.5964 72.911 43.4312 73.6615 44.3257 74.3362C44.7591 74.6596 45.2364 74.9195 45.7432 75.1081C46.3169 75.2868 46.8409 75.5969 47.2734 76.0139C48.0867 76.8398 48.7366 77.8119 49.189 78.8791C49.6584 79.9138 50.0264 80.9916 50.2876 82.0974C49.8276 81.0637 49.3804 80.031 48.8447 79.051C48.3468 78.0683 47.7019 77.1673 46.9321 76.3791C46.5545 76.0039 46.0948 75.7216 45.5894 75.5544C45.0424 75.3359 44.5363 75.0266 44.0923 74.6394C43.2213 73.9023 42.4598 73.0449 41.8306 72.093Z" fill="#637E20"/>
</g>
<g opacity="0.5">
<path opacity="0.5" d="M39.0117 69.9748C38.5236 70.0471 38.025 69.9665 37.5845 69.7439C37.1288 69.5404 36.7607 69.1809 36.5464 68.7302C36.7881 68.8166 36.9868 68.9226 37.1953 69.0124L37.8023 69.2942C38.2218 69.4907 38.626 69.7182 39.0117 69.9748Z" fill="#637E20"/>
</g>
<g opacity="0.5">
<path opacity="0.5" d="M49.8442 44.9773C49.5736 44.7688 49.3472 44.5086 49.178 44.2119C49.0087 43.9152 48.9001 43.5878 48.8584 43.2488C48.8068 42.908 48.833 42.5599 48.9351 42.2307C49.0373 41.9014 49.2127 41.5996 49.4482 41.3479C49.3872 41.6595 49.3442 41.9743 49.3193 42.2908C49.2999 42.5887 49.3113 42.8878 49.3535 43.1833C49.4471 43.7983 49.6118 44.4003 49.8442 44.9773Z" fill="#637E20"/>
</g>
<g opacity="0.5">
<path opacity="0.5" d="M47.3989 40.2663C47.4268 39.7687 47.5649 39.2835 47.8032 38.8459C48.0259 38.3986 48.3507 38.01 48.7515 37.7117C48.7037 37.9555 48.6327 38.1941 48.5396 38.4245C48.4551 38.6483 48.3569 38.8666 48.2456 39.0784C48.0241 39.5143 47.7387 39.9147 47.3989 40.2663Z" fill="#637E20"/>
</g>
<path d="M34.4789 29.7162L36.6439 32.3666L35.5511 33.2591L30.1331 26.6234L32.0208 25.0814C32.6527 24.4806 33.4624 24.101 34.3284 23.9994C34.6833 24.0012 35.0326 24.088 35.347 24.2525C35.6615 24.4169 35.932 24.6543 36.136 24.9447C36.4644 25.3355 36.6561 25.8229 36.682 26.3327C36.7079 26.8425 36.5666 27.3468 36.2796 27.7689L40.5647 29.1654L39.3216 30.1801L35.558 28.8353L34.4789 29.7162ZM33.7455 28.8177L34.5043 28.1986C34.9212 27.9131 35.2298 27.4955 35.3803 27.013C35.4133 26.8138 35.4 26.6095 35.3412 26.4163C35.2824 26.223 35.1798 26.0459 35.0414 25.8988C34.9286 25.7321 34.7741 25.5977 34.5934 25.509C34.4128 25.4203 34.212 25.3803 34.0111 25.3929C33.5185 25.4856 33.0624 25.7162 32.6957 26.0579L31.974 26.6478L33.7455 28.8177Z" fill="#4D4D4D"/>
<path d="M42.9388 17.7074L45.7797 22.4672C46.0881 22.9589 46.2603 23.5237 46.2787 24.1039C46.2867 24.6542 46.1273 25.194 45.8217 25.6517C45.4616 26.1811 44.9835 26.6197 44.4252 26.933C43.672 27.4475 42.7472 27.6467 41.849 27.4877C41.4336 27.3834 41.0449 27.1927 40.7082 26.928C40.3715 26.6633 40.0943 26.3306 39.8949 25.9516L37.0668 21.2123L38.2826 20.4857L41.0599 25.14C41.3094 25.651 41.7506 26.0427 42.2875 26.2298C42.5584 26.2799 42.8366 26.2749 43.1055 26.2152C43.3745 26.1555 43.6287 26.0422 43.8529 25.8822C44.1085 25.7688 44.3341 25.5974 44.512 25.3817C44.6899 25.166 44.8152 24.9119 44.8779 24.6394C44.9406 24.367 44.9391 24.0836 44.8734 23.8119C44.8077 23.5401 44.6796 23.2873 44.4994 23.0736L41.7279 18.43L42.9388 17.7074Z" fill="#4D4D4D"/>
<path d="M49.2103 20.476L50.514 23.64L49.2103 24.1771L45.9466 16.2572L48.1996 15.3275C48.9783 14.9349 49.8636 14.806 50.722 14.9603C51.0611 15.0647 51.3703 15.2488 51.6236 15.4972C51.8769 15.7456 52.067 16.0511 52.178 16.3881C52.379 16.8575 52.4212 17.3797 52.2984 17.8753C52.1755 18.3709 51.8943 18.8129 51.4974 19.1342L55.1946 21.7103L53.7112 22.3217L50.4983 19.9447L49.2103 20.476ZM48.7689 19.4037L49.6742 19.0297C50.1557 18.8774 50.5719 18.5675 50.8558 18.1498C50.9452 17.9684 50.9916 17.7688 50.9912 17.5666C50.9909 17.3644 50.9438 17.1649 50.8538 16.9838C50.794 16.7919 50.6852 16.6189 50.5381 16.4819C50.3909 16.3449 50.2106 16.2486 50.015 16.2026C49.5164 16.1478 49.0126 16.2366 48.5628 16.4584L47.7015 16.8139L48.7689 19.4037Z" fill="#4D4D4D"/>
<path d="M61.4974 20.0726L60.0706 17.9828L56.8763 18.8041L56.6507 21.3177L55.2103 21.6869L56.1966 12.5531L57.683 12.1713L62.9486 19.7006L61.4974 20.0726ZM59.4105 16.9056L58.0472 14.849C57.9515 14.7123 57.8109 14.4935 57.6263 14.1947C57.4417 13.8949 57.3109 13.6752 57.2347 13.5326C57.249 14.0808 57.2291 14.6294 57.1751 15.1752L56.9759 17.5316L59.4105 16.9056Z" fill="#4D4D4D"/>
<path d="M64.0209 19.6185L62.974 11.1165L64.3734 10.9446L65.2738 18.2551L68.8988 17.8079L69.0453 19.0003L64.0209 19.6185Z" fill="#4D4D4D"/>
<path d="M77.7474 11.6107C77.3858 11.5733 77.0204 11.6212 76.6806 11.7504C76.3407 11.8796 76.0359 12.0866 75.7904 12.3548C75.2522 13.0068 74.958 13.8259 74.9584 14.6713C74.8491 15.5151 75.0369 16.3707 75.4897 17.0912C75.7127 17.3792 75.9991 17.6119 76.3267 17.7712C76.6542 17.9306 77.0141 18.0123 77.3783 18.0101C77.7345 18.0315 78.0919 18.0158 78.4447 17.9632C78.7905 17.9115 79.1511 17.8395 79.5267 17.7474L79.4574 18.9466C78.7054 19.1677 77.9197 19.2514 77.1381 19.1937C76.5983 19.1967 76.0645 19.0814 75.5742 18.8558C75.0839 18.6302 74.649 18.2999 74.3002 17.888C73.623 16.9241 73.3288 15.7426 73.475 14.5736C73.5029 13.7672 73.7176 12.9783 74.102 12.2689C74.4457 11.6424 74.9729 11.136 75.6127 10.8177C76.3032 10.4901 77.0678 10.3503 77.8295 10.4125C78.6743 10.453 79.498 10.6894 80.2358 11.1029L79.6625 12.2377C79.3712 12.081 79.0702 11.9434 78.7611 11.8255C78.4366 11.7013 78.0945 11.6288 77.7474 11.6107Z" fill="#4D4D4D"/>
<path d="M86.4242 20.4837L86.0404 17.9827L82.805 17.3431L81.516 19.513L80.057 19.225L84.892 11.4125L86.3969 11.7103L87.8949 20.7748L86.4242 20.4837ZM85.9105 16.7269L85.5697 14.2826C85.5414 14.1175 85.5088 13.8604 85.472 13.5111C85.4349 13.1605 85.4125 12.9056 85.4046 12.7445C85.181 13.2454 84.9259 13.7317 84.641 14.2005L83.4447 16.2395L85.9105 16.7269Z" fill="#4D4D4D"/>
<path d="M96.9632 19.3665C96.8007 19.9386 96.5198 20.4701 96.1387 20.9266C95.7577 21.3832 95.285 21.7547 94.7513 22.017C93.586 22.4532 92.2965 22.4181 91.1566 21.9193L88.8851 21.1029L91.7806 13.0404L94.2914 13.9427C95.4183 14.271 96.3688 15.0332 96.9339 16.0619C97.1677 16.5806 97.291 17.1422 97.296 17.7111C97.3011 18.28 97.1877 18.8438 96.9632 19.3665ZM95.5482 18.9075C96.2416 16.9779 95.6794 15.6865 93.8617 15.0335L92.7123 14.6205L90.6107 20.472L91.555 20.8099C93.5091 21.513 94.8402 20.8789 95.5482 18.9075L95.5482 18.9075Z" fill="#4D4D4D"/>
<path d="M99.9066 21.8978L98.2914 24.9134L97.0482 24.2484L101.091 16.6967L103.24 17.847C104.038 18.1986 104.7 18.8001 105.126 19.5608C105.261 19.8892 105.315 20.245 105.284 20.5985C105.253 20.9521 105.138 21.2931 104.949 21.5931C104.714 22.0462 104.337 22.4103 103.876 22.6301C103.416 22.8499 102.896 22.9133 102.396 22.8108L102.754 27.304L101.339 26.5462L101.134 22.554L99.9066 21.8978ZM100.453 20.8743L101.318 21.3372C101.741 21.6121 102.245 21.7366 102.747 21.6908C102.944 21.6446 103.128 21.5537 103.284 21.4249C103.44 21.2962 103.564 21.1332 103.647 20.9486C103.757 20.7804 103.822 20.5864 103.834 20.3857C103.847 20.1851 103.807 19.9846 103.718 19.804C103.444 19.3843 103.055 19.0516 102.598 18.845L101.776 18.4056L100.453 20.8743Z" fill="#4D4D4D"/>
<path d="M107.661 30.8265L103.687 27.9955L108.657 21.0179L112.631 23.849L111.945 24.8129L109.118 22.8002L107.766 24.6996L110.413 26.5853L109.734 27.5404L107.086 25.6537L105.526 27.8451L108.352 29.8578L107.661 30.8265Z" fill="#4D4D4D"/>
<path d="M27.6358 83.6446V117.813C27.6358 118.51 27.9127 119.178 28.4056 119.671C28.8985 120.164 29.567 120.441 30.2641 120.441C30.9611 120.441 31.6296 120.164 32.1225 119.671C32.6154 119.178 32.8923 118.51 32.8923 117.813V98.6231H33.8777V117.813C33.8777 118.51 34.1546 119.178 34.6475 119.671C35.1403 120.164 35.8088 120.441 36.5058 120.441C37.2028 120.441 37.8713 120.164 38.3642 119.671C38.857 119.178 39.1339 118.51 39.1339 117.813V83.6443C40.3402 82.9974 41.4067 82.1184 42.2721 81.0579C42.9079 80.289 43.4569 79.4522 43.9091 78.5629V76.8406C43.1091 76.3513 42.362 75.7803 41.6797 75.1369C41.2421 76.497 40.5581 77.7649 39.6617 78.8775C39.1193 79.5451 38.4609 80.1095 37.7183 80.5436C37.5505 80.6399 37.3766 80.725 37.1976 80.7984H29.5732C28.4065 80.2676 27.4117 79.4205 26.7018 78.3532C25.3667 76.493 24.0021 73.2364 23.9982 67.4722C23.9976 67.2838 23.9994 67.0958 24.0021 66.9086C24.006 66.6853 23.966 66.4635 23.8841 66.2557C23.8023 66.0479 23.6804 65.8583 23.5253 65.6976C23.3702 65.537 23.185 65.4084 22.9802 65.3193C22.7754 65.2303 22.5551 65.1824 22.3318 65.1785C22.1085 65.1746 21.8867 65.2147 21.6789 65.2965C21.4711 65.3783 21.2815 65.5002 21.1208 65.6553C20.9602 65.8104 20.8317 65.9957 20.7426 66.2004C20.6535 66.4052 20.6056 66.6255 20.6017 66.8488C20.5978 67.0621 20.5965 67.27 20.5965 67.4725C20.589 74.4003 22.4502 78.6146 24.4975 81.0579C25.363 82.1185 26.4295 82.9975 27.6358 83.6446Z" fill="white"/>
<path d="M33.3853 70.0212C34.3313 70.0213 35.2561 70.3018 36.0426 70.8274C36.8292 71.3529 37.4422 72.0999 37.8042 72.9739C38.1662 73.8479 38.261 74.8096 38.0764 75.7375C37.8918 76.6653 37.4363 77.5175 36.7673 78.1865C36.0984 78.8554 35.2462 79.3109 34.3183 79.4954C33.3905 79.68 32.4288 79.5853 31.5548 79.2232C30.6808 78.8612 29.9338 78.2481 29.4083 77.4616C28.8827 76.675 28.6022 75.7502 28.6022 74.8042C28.6022 74.1761 28.7259 73.5541 28.9663 72.9738C29.2067 72.3935 29.559 71.8663 30.0031 71.4221C30.4473 70.978 30.9746 70.6257 31.5549 70.3853C32.1352 70.1449 32.7572 70.0212 33.3853 70.0212Z" fill="white"/>
<path d="M45.1108 76.1394V117.277C45.1108 118.116 45.4442 118.921 46.0376 119.514C46.6311 120.108 47.4359 120.441 48.2752 120.441C49.1144 120.441 49.9193 120.108 50.5127 119.514C51.1061 118.921 51.4395 118.116 51.4395 117.277V94.1729H52.6253V117.277C52.6253 118.116 52.9587 118.921 53.5521 119.514C54.1455 120.108 54.9504 120.441 55.7897 120.441C56.6289 120.441 57.4338 120.108 58.0272 119.514C58.6206 118.921 58.954 118.116 58.954 117.277V76.1394C60.4063 75.3605 61.6903 74.3023 62.7321 73.0255C63.1543 72.5199 63.5436 71.9878 63.8975 71.4324V69.7494C62.9695 69.1364 62.1029 68.4352 61.3099 67.6555C60.8546 68.6394 60.2763 69.5617 59.5888 70.4001C58.9363 71.2041 58.144 71.8837 57.25 72.4064C57.0479 72.5223 56.8383 72.6247 56.6227 72.7131H47.443C46.0383 72.0738 44.8407 71.054 43.9857 69.7692C42.3784 67.5299 40.7363 63.6088 40.7309 56.6693C40.7303 56.4425 40.7327 56.2159 40.7363 55.9906C40.741 55.7218 40.6927 55.4547 40.5942 55.2046C40.4957 54.9544 40.3489 54.7262 40.1622 54.5328C39.9755 54.3394 39.7525 54.1847 39.506 54.0774C39.2595 53.9702 38.9942 53.9126 38.7255 53.9079C38.4567 53.9032 38.1896 53.9515 37.9395 54.05C37.6893 54.1485 37.4611 54.2953 37.2677 54.482C37.0743 54.6687 36.9196 54.8917 36.8123 55.1382C36.7051 55.3848 36.6475 55.65 36.6428 55.9188C36.6374 56.1751 36.6365 56.4253 36.6365 56.6696C36.6271 65.0099 38.868 70.0841 41.333 73.0258C42.3747 74.3025 43.6586 75.3606 45.1108 76.1394Z" fill="white"/>
<path d="M52.0329 59.7378C53.1718 59.7378 54.2852 60.0756 55.2321 60.7083C56.1791 61.3411 56.9172 62.2404 57.353 63.2927C57.7888 64.3449 57.9029 65.5027 57.6807 66.6198C57.4585 67.7368 56.91 68.7629 56.1047 69.5682C55.2993 70.3735 54.2732 70.922 53.1562 71.1441C52.0392 71.3663 50.8813 71.2523 49.8291 70.8164C48.7769 70.3806 47.8775 69.6425 47.2448 68.6955C46.612 67.7486 46.2743 66.6352 46.2743 65.4963C46.2743 64.7401 46.4233 63.9912 46.7127 63.2926C47.0021 62.5939 47.4263 61.9591 47.961 61.4244C48.4957 60.8897 49.1306 60.4655 49.8292 60.1761C50.5279 59.8867 51.2767 59.7378 52.0329 59.7378Z" fill="white"/>
<path d="M111.654 80.7987C111.475 80.7254 111.301 80.6403 111.133 80.5439C110.391 80.1097 109.732 79.5453 109.19 78.8778C108.294 77.7653 107.61 76.4976 107.172 75.1378C106.49 75.7808 105.743 76.3515 104.943 76.8409V78.5644C105.395 79.4532 105.944 80.2896 106.58 81.0582C107.445 82.1187 108.511 82.9977 109.718 83.6446V117.813C109.718 118.51 109.995 119.178 110.488 119.671C110.98 120.164 111.649 120.441 112.346 120.441C113.043 120.441 113.711 120.164 114.204 119.671C114.697 119.178 114.974 118.51 114.974 117.813V98.6234H115.959V117.813C115.959 118.51 116.236 119.178 116.729 119.671C117.222 120.164 117.891 120.441 118.588 120.441C119.285 120.441 119.953 120.164 120.446 119.671C120.939 119.178 121.216 118.51 121.216 117.813V83.6446C122.422 82.9975 123.488 82.1184 124.354 81.0579C126.401 78.6146 128.263 74.4 128.255 67.4725C128.255 67.27 128.254 67.0618 128.249 66.8491C128.245 66.6258 128.198 66.4055 128.109 66.2007C128.019 65.9959 127.891 65.8107 127.73 65.6556C127.57 65.5005 127.38 65.3785 127.172 65.2967C126.964 65.2149 126.743 65.1748 126.519 65.1787C126.296 65.1827 126.076 65.2305 125.871 65.3196C125.666 65.4087 125.481 65.5372 125.326 65.6979C125.171 65.8585 125.049 66.0482 124.967 66.2559C124.885 66.4637 124.845 66.6856 124.849 66.9089C124.852 67.0961 124.853 67.2841 124.853 67.4725C124.849 73.2367 123.484 76.4933 122.149 78.3535C121.439 79.4208 120.445 80.2679 119.278 80.7987H111.654Z" fill="white"/>
<path d="M115.466 70.0212C116.412 70.0213 117.337 70.3018 118.124 70.8274C118.91 71.3529 119.523 72.0999 119.885 72.9739C120.247 73.8479 120.342 74.8096 120.157 75.7375C119.973 76.6653 119.517 77.5175 118.848 78.1865C118.18 78.8554 117.327 79.3109 116.399 79.4954C115.472 79.68 114.51 79.5853 113.636 79.2232C112.762 78.8612 112.015 78.2481 111.489 77.4616C110.964 76.675 110.683 75.7502 110.683 74.8042C110.683 74.1761 110.807 73.5541 111.047 72.9738C111.288 72.3935 111.64 71.8663 112.084 71.4221C112.528 70.978 113.056 70.6257 113.636 70.3853C114.216 70.1449 114.838 70.0212 115.466 70.0212Z" fill="white"/>
<path d="M92.2289 72.713C92.0133 72.6246 91.8038 72.5222 91.6016 72.4063C90.7076 71.8837 89.9153 71.2041 89.2628 70.4C88.5756 69.5612 87.9973 68.6388 87.5417 67.6548C86.7486 68.4343 85.8823 69.1357 84.9548 69.7493V71.4329C85.3088 71.9881 85.6979 72.52 86.1198 73.0254C87.1616 74.3023 88.4456 75.3606 89.8979 76.1393V117.277C89.8979 118.116 90.2313 118.921 90.8248 119.514C91.4182 120.108 92.2231 120.441 93.0623 120.441C93.9016 120.441 94.7065 120.108 95.2999 119.514C95.8933 118.921 96.2267 118.116 96.2267 117.277V94.1731H97.4124V117.277C97.4124 118.116 97.7458 118.921 98.3392 119.514C98.9327 120.108 99.7375 120.441 100.577 120.441C101.416 120.441 102.221 120.108 102.814 119.514C103.408 118.921 103.741 118.116 103.741 117.277V76.1393C105.193 75.3603 106.477 74.302 107.519 73.0251C109.984 70.0834 112.225 65.0092 112.216 56.6689C112.216 56.4246 112.215 56.1744 112.209 55.9181C112.205 55.6493 112.147 55.384 112.04 55.1375C111.932 54.891 111.778 54.668 111.584 54.4812C111.391 54.2945 111.163 54.1476 110.912 54.0491C110.662 53.9506 110.395 53.9023 110.126 53.9071C109.858 53.9118 109.592 53.9694 109.346 54.0766C109.099 54.1838 108.876 54.3386 108.689 54.532C108.503 54.7254 108.356 54.9537 108.257 55.2038C108.159 55.454 108.111 55.7211 108.115 55.9899C108.119 56.2152 108.121 56.4418 108.121 56.6686C108.115 63.6081 106.473 67.5292 104.866 69.7685C104.011 71.0533 102.813 72.0731 101.409 72.7124H92.2289V72.713Z" fill="white"/>
<path d="M96.8191 71.2548C99.9994 71.2548 102.578 68.6766 102.578 65.4963C102.578 62.316 99.9994 59.7378 96.8191 59.7378C93.6388 59.7378 91.0606 62.316 91.0606 65.4963C91.0606 68.6766 93.6388 71.2548 96.8191 71.2548Z" fill="white"/>
<path d="M66.3009 68.3794V116.667C66.3009 117.652 66.6922 118.597 67.3888 119.294C68.0854 119.99 69.0302 120.382 70.0153 120.382C71.0004 120.382 71.9452 119.99 72.6418 119.294C73.3384 118.597 73.7297 117.652 73.7297 116.667V89.5478H75.1222V116.667C75.1222 117.652 75.5136 118.597 76.2101 119.294C76.9067 119.99 77.8515 120.382 78.8367 120.382C79.8218 120.382 80.7666 119.99 81.4632 119.294C82.1598 118.597 82.5511 117.652 82.5511 116.667V68.3791C84.2557 67.4649 85.7629 66.2227 86.9859 64.7241C89.8799 61.2714 92.5104 55.3149 92.4987 45.5247C92.4981 45.2333 92.4957 44.943 92.4924 44.6561C92.4845 44.0188 92.2238 43.4107 91.7675 42.9656C91.3113 42.5205 90.6969 42.2749 90.0596 42.2828C89.4222 42.2907 88.8141 42.5514 88.369 43.0077C87.9239 43.4639 87.6783 44.0783 87.6862 44.7156C87.6892 44.9935 87.6922 45.2642 87.6922 45.5247C87.6805 54.4965 85.3564 59.163 83.2967 61.6427C82.5306 62.5865 81.6003 63.3843 80.5506 63.9974C80.3136 64.1337 80.0678 64.254 79.8148 64.3576H69.0389C67.3903 63.6072 65.9847 62.41 64.9814 60.9018C63.0944 58.2731 61.1663 53.6706 61.1603 45.5247C61.1597 45.2582 61.1617 44.9926 61.1663 44.7279C61.1719 44.4124 61.1152 44.0989 60.9996 43.8052C60.8839 43.5116 60.7116 43.2436 60.4924 43.0166C60.2732 42.7895 60.0114 42.6079 59.722 42.482C59.4326 42.3562 59.1213 42.2885 58.8058 42.283C58.4902 42.2774 58.1767 42.3341 57.8831 42.4497C57.5894 42.5654 57.3214 42.7377 57.0944 42.9569C56.8674 43.1761 56.6857 43.4379 56.5599 43.7272C56.434 44.0166 56.3664 44.328 56.3608 44.6435C56.3548 44.9442 56.3533 45.2381 56.3533 45.5247C56.3421 55.3149 58.9726 61.2711 61.8666 64.7238C63.0893 66.2227 64.5963 67.4651 66.3009 68.3794Z" fill="white"/>
<path d="M74.4264 62.6455C78.1596 62.6455 81.1859 59.6191 81.1859 55.886C81.1859 52.1528 78.1596 49.1265 74.4264 49.1265C70.6932 49.1265 67.6669 52.1528 67.6669 55.886C67.6669 59.6191 70.6932 62.6455 74.4264 62.6455Z" fill="white"/>
</g>
<defs>
<linearGradient id="paint0_linear" x1="21.397" y1="124.71" x2="124.71" y2="21.3969" gradientUnits="userSpaceOnUse">
<stop stop-color="#38A380"/>
<stop offset="0.06811" stop-color="#4FA684"/>
<stop offset="0.19954" stop-color="#74AC8A"/>
<stop offset="0.33708" stop-color="#93B090"/>
<stop offset="0.4803" stop-color="#ABB494"/>
<stop offset="0.63159" stop-color="#BCB697"/>
<stop offset="0.79642" stop-color="#C6B898"/>
<stop offset="1" stop-color="#C9B899"/>
</linearGradient>
<clipPath id="clip0">
<rect width="146.107" height="146.107" fill="white"/>
</clipPath>
</defs>
</svg>
