<svg xmlns="http://www.w3.org/2000/svg" xmlns:xlink="http://www.w3.org/1999/xlink" viewBox="0 0 146.1074 146.1073"><defs><linearGradient id="New_Gradient_Swatch_7" x1="21.39697" y1="124.71039" x2="124.71047" y2="21.39689" gradientTransform="translate(73.05365 -30.25986) rotate(45)" gradientUnits="userSpaceOnUse"><stop offset="0" stop-color="#38a380"/><stop offset="0.06811" stop-color="#4fa684"/><stop offset="0.19954" stop-color="#74ac8a"/><stop offset="0.33708" stop-color="#93b090"/><stop offset="0.4803" stop-color="#abb494"/><stop offset="0.63159" stop-color="#bcb697"/><stop offset="0.79642" stop-color="#c6b898"/><stop offset="1" stop-color="#c9b899"/></linearGradient></defs><g id="Layer_2" data-name="Layer 2"><g id="Layer_1-2" data-name="Layer 1"><circle cx="73.0537" cy="73.05362" r="72.05368" transform="translate(-30.25978 73.05368) rotate(-45)" fill="#fff" stroke-miterlimit="10" stroke-width="2" stroke="url(#New_Gradient_Swatch_7)"/><circle cx="73.05372" cy="72.49473" r="48.51523" transform="translate(-25.13335 103.34324) rotate(-62.22168)" fill="#637e20"/><g opacity="0.5"><path d="M41.8306,72.093a19.51032,19.51032,0,0,0,2.4951,2.2432,5.68953,5.68953,0,0,0,1.4175.7719,3.85778,3.85778,0,0,1,1.5302.9058,9.20255,9.20255,0,0,1,1.9156,2.8652,17.56742,17.56742,0,0,1,1.0986,3.2183c-.46-1.0337-.9072-2.0664-1.4429-3.0464a10.82737,10.82737,0,0,0-1.9126-2.6719,3.43715,3.43715,0,0,0-1.3427-.8247,5.22887,5.22887,0,0,1-1.4971-.915A12.01489,12.01489,0,0,1,41.8306,72.093Z" fill="#637e20"/></g><g opacity="0.5"><path d="M39.0117,69.9748a2.38866,2.38866,0,0,1-1.4272-.2309,2.09624,2.09624,0,0,1-1.0381-1.0137c.2417.0864.4404.1924.6489.2822l.607.2818A9.32569,9.32569,0,0,1,39.0117,69.9748Z" fill="#637e20"/></g><g opacity="0.5"><path d="M49.8442,44.9773a2.57988,2.57988,0,0,1-.9858-1.7285,2.28192,2.28192,0,0,1,.5898-1.9009,8.28668,8.28668,0,0,0-.1289.9429,4.32441,4.32441,0,0,0,.0342.8925A8.0419,8.0419,0,0,0,49.8442,44.9773Z" fill="#637e20"/></g><g opacity="0.5"><path d="M47.3989,40.2663a3.36289,3.36289,0,0,1,.4043-1.4204,3.18059,3.18059,0,0,1,.9483-1.1342,3.91414,3.91414,0,0,1-.2119.7128,5.83349,5.83349,0,0,1-.294.6539A4.90884,4.90884,0,0,1,47.3989,40.2663Z" fill="#637e20"/></g><g opacity="0.5"><path d="M34.47885,29.71618l2.165,2.65039-1.09277.89258-5.418-6.63575,1.8877-1.542a4.0306,4.0306,0,0,1,2.30761-1.082,2.223,2.223,0,0,1,1.80762.94531,2.3426,2.3426,0,0,1,.14356,2.82422l4.28515,1.39649-1.24316,1.01465L35.558,28.83532Zm-.73339-.89844.75879-.61914a2.24766,2.24766,0,0,0,.876-1.18555,1.31233,1.31233,0,0,0-.33887-1.11425,1.15627,1.15627,0,0,0-1.03027-.50586,2.647,2.647,0,0,0-1.31543.665l-.72168.58984Z" fill="#4d4d4d"/><path d="M42.93882,17.70739l2.84082,4.75976a3.27475,3.27475,0,0,1,.499,1.63672,2.71565,2.71565,0,0,1-.457,1.54786A4.13778,4.13778,0,0,1,44.42514,26.933a3.48913,3.48913,0,0,1-2.57617.55468,3.04667,3.04667,0,0,1-1.9541-1.53613l-2.82812-4.73926,1.21582-.72656L41.05991,25.14a2.15554,2.15554,0,0,0,1.22754,1.08984,2.05275,2.05275,0,0,0,1.56543-.34766,1.80183,1.80183,0,0,0,.64648-2.80859l-2.77148-4.64355Z" fill="#4d4d4d"/><path d="M49.2103,20.47594,50.514,23.64l-1.30371.53711-3.26367-7.91993,2.25293-.92968a4.0217,4.0217,0,0,1,2.52246-.36719,2.22059,2.22059,0,0,1,1.456,1.42773,2.34534,2.34534,0,0,1-.68066,2.7461l3.69726,2.57617-1.48339.61133-3.21289-2.377Zm-.44141-1.07226.90528-.374a2.2487,2.2487,0,0,0,1.18164-.87988,1.31414,1.31414,0,0,0-.002-1.166,1.15581,1.15581,0,0,0-.83886-.78125,2.63248,2.63248,0,0,0-1.45215.25586l-.86133.35546Z" fill="#4d4d4d"/><path d="M61.49741,20.07262l-1.42676-2.08984-3.19433.82129-.22559,2.51367-1.44043.36914.98633-9.13379,1.48633-.38183,5.26562,7.52929Zm-2.08691-3.167L58.04721,14.849c-.0957-.13672-.23632-.35547-.42089-.6543-.18457-.2998-.31543-.51953-.39161-.66211a13.182,13.182,0,0,1-.05957,1.64258l-.19922,2.35645Z" fill="#4d4d4d"/><path d="M64.02085,19.61852l-1.04688-8.502,1.39942-.17188.90039,7.31055,3.625-.44726.14648,1.19238Z" fill="#4d4d4d"/><path d="M77.74741,11.61071a2.32844,2.32844,0,0,0-1.957.74414,3.63555,3.63555,0,0,0-.832,2.31641,3.66357,3.66357,0,0,0,.53125,2.41992,2.37061,2.37061,0,0,0,1.88867.91894,5.1438,5.1438,0,0,0,1.0664-.04687q.51856-.07764,1.082-.21582l-.06934,1.19922a6.52219,6.52219,0,0,1-2.31934.24707,3.69227,3.69227,0,0,1-2.83789-1.30567A4.74239,4.74239,0,0,1,73.475,14.5736a5.21645,5.21645,0,0,1,.62695-2.30469,3.502,3.502,0,0,1,1.51074-1.45117,4.34653,4.34653,0,0,1,2.2168-.40527,5.45544,5.45544,0,0,1,2.40625.69043l-.57324,1.13476a7.68855,7.68855,0,0,0-.90137-.41211A3.32143,3.32143,0,0,0,77.74741,11.61071Z" fill="#4d4d4d"/><path d="M86.42417,20.48376l-.38379-2.501L82.805,17.34313,81.516,19.51305,80.057,19.225l4.835-7.8125,1.50488.29785,1.498,9.06445Zm-.51367-3.75684-.34083-2.44434q-.04248-.24754-.09765-.77148c-.03711-.35059-.05957-.60547-.06738-.7666a13.04054,13.04054,0,0,1-.76368,1.456l-1.19629,2.03907Z" fill="#4d4d4d"/><path d="M96.96323,19.36657A4.24683,4.24683,0,0,1,94.75132,22.017a4.78381,4.78381,0,0,1-3.59473-.09766l-2.27149-.8164,2.89551-8.0625,2.51074.90234a4.42792,4.42792,0,0,1,2.64258,2.11914A4.10272,4.10272,0,0,1,96.96323,19.36657Zm-1.415-.459q1.04-2.89452-1.68652-3.874l-1.14942-.41308L90.61069,20.472l.94434.33789Q94.48618,21.86461,95.54819,18.90758Z" fill="#4d4d4d"/><path d="M99.90659,21.89782l-1.61524,3.01562-1.24316-.665,4.043-7.55175L103.2396,17.847a4.02272,4.02272,0,0,1,1.88672,1.71386,2.2239,2.2239,0,0,1-.17774,2.03223,2.34506,2.34506,0,0,1-2.55273,1.21777l.3584,4.49317-1.415-.75781-.20508-3.99219Zm.54687-1.02344.86426.46289a2.25012,2.25012,0,0,0,1.42969.35352,1.31379,1.31379,0,0,0,.89941-.74219,1.15843,1.15843,0,0,0,.07129-1.14453,2.63444,2.63444,0,0,0-1.12011-.959l-.82227-.43945Z" fill="#4d4d4d"/><path d="M107.66147,30.82653l-3.97461-2.83105,4.96973-6.97754L112.6312,23.849l-.68653.96387-2.82617-2.0127L107.766,24.69958l2.64746,1.88574-.67968.95508-2.64746-1.88672-1.56055,2.1914,2.82617,2.0127Z" fill="#4d4d4d"/></g><path d="M27.6358,83.6446v34.1681a2.62825,2.62825,0,1,0,5.2565,0V98.6231h.9854v19.1896a2.6281,2.6281,0,1,0,5.2562,0V83.6443a10.38427,10.38427,0,0,0,3.1382-2.5864,13.55847,13.55847,0,0,0,1.637-2.495V76.8406a13.56382,13.56382,0,0,1-2.2294-1.7037,11.64929,11.64929,0,0,1-2.018,3.7406,7.16035,7.16035,0,0,1-1.9434,1.6661,4.40206,4.40206,0,0,1-.5207.2548H29.5732a6.86087,6.86087,0,0,1-2.8714-2.4452c-1.3351-1.8602-2.6997-5.1168-2.7036-10.881-.0006-.1884.0012-.3764.0039-.5636a1.70046,1.70046,0,1,0-3.4004-.0598c-.0039.2133-.0052.4212-.0052.6237-.0075,6.9278,1.8537,11.1421,3.901,13.5854A10.38884,10.38884,0,0,0,27.6358,83.6446Z" fill="#fff"/><path d="M33.3853,70.0213a4.78305,4.78305,0,1,1-4.7831,4.783A4.783,4.783,0,0,1,33.3853,70.0213Z" fill="#fff"/><path d="M45.1108,76.1394v41.1373a3.16435,3.16435,0,0,0,6.3287,0V94.1729h1.1858v23.1038a3.16435,3.16435,0,0,0,6.3287,0V76.1394a12.50214,12.50214,0,0,0,3.7781-3.1139,15.36431,15.36431,0,0,0,1.1654-1.5931v-1.683a17.25287,17.25287,0,0,1-2.5876-2.0939,12.81821,12.81821,0,0,1-1.7211,2.7446A8.60593,8.60593,0,0,1,57.25,72.4064a5.30689,5.30689,0,0,1-.6273.3067H47.443a8.26451,8.26451,0,0,1-3.4573-2.9439c-1.6073-2.2393-3.2494-6.1604-3.2548-13.0999-.0006-.2268.0018-.4534.0054-.6787a2.04706,2.04706,0,1,0-4.0935-.0718c-.0054.2563-.0063.5065-.0063.7508-.0094,8.3403,2.2315,13.4145,4.6965,16.3562A12.4998,12.4998,0,0,0,45.1108,76.1394Z" fill="#fff"/><path d="M52.0329,59.7378a5.7585,5.7585,0,1,1-5.7586,5.7585A5.75854,5.75854,0,0,1,52.0329,59.7378Z" fill="#fff"/><path d="M111.654,80.7987a4.3549,4.3549,0,0,1-.5206-.2548,7.16341,7.16341,0,0,1-1.9435-1.6661,11.65276,11.65276,0,0,1-2.0176-3.74,13.60217,13.60217,0,0,1-2.2292,1.7031v1.7235a13.5713,13.5713,0,0,0,1.6364,2.4938,10.38443,10.38443,0,0,0,3.1383,2.5864v34.1683a2.6281,2.6281,0,1,0,5.2562,0V98.6234h.9853v19.1895a2.62825,2.62825,0,1,0,5.2565,0V83.6446a10.38939,10.38939,0,0,0,3.138-2.5867c2.0474-2.4433,3.9088-6.6579,3.901-13.5854,0-.2025-.0012-.4107-.0054-.6234a1.70051,1.70051,0,1,0-3.4005.0598c.0027.1872.0045.3752.0039.5636-.0039,5.7642-1.3685,9.0208-2.7035,10.881a6.85971,6.85971,0,0,1-2.8715,2.4452Z" fill="#fff"/><path d="M115.4664,70.0213a4.78305,4.78305,0,1,1-4.7831,4.783A4.783,4.783,0,0,1,115.4664,70.0213Z" fill="#fff"/><path d="M92.2289,72.7131a5.30689,5.30689,0,0,1-.6273-.3067,8.60341,8.60341,0,0,1-2.3388-2.0063,12.84735,12.84735,0,0,1-1.7211-2.7452,17.342,17.342,0,0,1-2.5869,2.0945V71.433a15.41451,15.41451,0,0,0,1.165,1.5925,12.49754,12.49754,0,0,0,3.7781,3.1139V117.277a3.1644,3.1644,0,0,0,6.3288,0V94.1732h1.1857V117.277a3.16435,3.16435,0,0,0,6.3287,0V76.1394a12.5067,12.5067,0,0,0,3.7782-3.1142c2.4649-2.9417,4.7058-8.0159,4.6965-16.3562,0-.2443-.0012-.4945-.0066-.7508a2.04726,2.04726,0,1,0-4.0939.0718c.0036.2253.006.4519.0054.6787-.0054,6.9395-1.6475,10.8606-3.2548,13.0999a8.26447,8.26447,0,0,1-3.4572,2.9439H92.2289Z" fill="#fff"/><circle cx="96.8191" cy="65.4963" r="5.7585" fill="#fff"/><path d="M66.3009,68.3795v48.2879a3.7144,3.7144,0,0,0,7.4288,0V89.5479h1.3925v27.1195a3.71445,3.71445,0,0,0,7.4289,0V68.3792a14.68119,14.68119,0,0,0,4.4348-3.655c2.894-3.4527,5.5245-9.4092,5.5128-19.1994-.0006-.2914-.003-.5817-.0063-.8686a2.40328,2.40328,0,1,0-4.8062.0595c.003.2779.006.5486.006.8091-.0117,8.9718-2.3358,13.6383-4.3955,16.118a10.09622,10.09622,0,0,1-2.7461,2.3547,6.15522,6.15522,0,0,1-.7358.3602H69.0389a9.69969,9.69969,0,0,1-4.0575-3.4558c-1.887-2.6287-3.8151-7.2312-3.8211-15.3771q-.0009-.39975.006-.7968a2.40312,2.40312,0,1,0-4.8055-.0844c-.006.3007-.0075.5946-.0075.8812-.0112,9.7902,2.6193,15.7464,5.5133,19.1991A14.67356,14.67356,0,0,0,66.3009,68.3795Z" fill="#fff"/><circle cx="74.4264" cy="55.88607" r="6.75951" fill="#fff"/></g></g></svg>