<svg xmlns="http://www.w3.org/2000/svg" xmlns:xlink="http://www.w3.org/1999/xlink" viewBox="0 0 309 309"><defs><linearGradient id="New_Gradient_Swatch_7" x1="2430.99775" y1="263.74799" x2="2649.49374" y2="45.25201" gradientTransform="matrix(-1, 0, 0, 1, 2694.74574, 0)" gradientUnits="userSpaceOnUse"><stop offset="0" stop-color="#38a380"/><stop offset="0.06811" stop-color="#4fa684"/><stop offset="0.19954" stop-color="#74ac8a"/><stop offset="0.33708" stop-color="#93b090"/><stop offset="0.4803" stop-color="#abb494"/><stop offset="0.63159" stop-color="#bcb697"/><stop offset="0.79642" stop-color="#c6b898"/><stop offset="1" stop-color="#c9b899"/></linearGradient></defs><g id="Layer_2" data-name="Layer 2"><g id="Layer_1-2" data-name="Layer 1"><circle cx="154.5" cy="154.5" r="153.5" fill="#fff" stroke-miterlimit="10" stroke-width="2" stroke="url(#New_Gradient_Swatch_7)"/><path d="M61.37674,186.4425a5.41853,5.41853,0,0,0-3.20215.99707,6.6911,6.6911,0,0,0-2.24023,2.92383,10.53058,10.53058,0,0,0-.82813,4.19921,4.49355,4.49355,0,0,0,1.00293,3.06836,3.47519,3.47519,0,0,0,2.75977,1.14551,11.32834,11.32834,0,0,0,3.30957-.58594v1.53223a10.46174,10.46174,0,0,1-1.68555.46192,11.15013,11.15013,0,0,1-1.93262.14453,5.05465,5.05465,0,0,1-3.90625-1.53711,5.93724,5.93724,0,0,1-1.418-4.18848,11.589,11.589,0,0,1,1.084-4.99023,8.35532,8.35532,0,0,1,2.91406-3.52051A7.328,7.328,0,0,1,61.37674,184.88a7.5268,7.5268,0,0,1,3.57617.82226l-.709,1.44922A6.3537,6.3537,0,0,0,61.37674,186.4425Z" fill="#232323"/><path d="M71.73709,188.65246a4.70247,4.70247,0,0,1,1.2334.14355l-.37012,1.542a4.5275,4.5275,0,0,0-1.0791-.13379,2.8563,2.8563,0,0,0-1.75293.61718,5.41593,5.41593,0,0,0-1.42871,1.71094,8.7424,8.7424,0,0,0-.89942,2.43067l-1.0996,5.16015H64.614l2.40528-11.26562H68.448l-.22657,2.08691H68.325a10.10485,10.10485,0,0,1,1.22266-1.40332,3.87775,3.87775,0,0,1,1.01269-.65723A2.9056,2.9056,0,0,1,71.73709,188.65246Z" fill="#232323"/><path d="M77.40018,200.32922a3.92791,3.92791,0,0,1-2.96973-1.1211,4.28559,4.28559,0,0,1-1.08008-3.10351,9.25222,9.25222,0,0,1,.7666-3.70606,6.85555,6.85555,0,0,1,2.0293-2.75976,4.42764,4.42764,0,0,1,2.78613-.98633,3.52934,3.52934,0,0,1,2.36328.68359,2.3826,2.3826,0,0,1,.792,1.90625,3.261,3.261,0,0,1-1.70606,2.9043,9.34985,9.34985,0,0,1-4.88281,1.05273h-.33887l-.041.82227a3.1842,3.1842,0,0,0,.63183,2.10254,2.40955,2.40955,0,0,0,1.958.75488,5.09774,5.09774,0,0,0,1.33105-.18457,10.15387,10.15387,0,0,0,1.70118-.67871v1.501a9.25269,9.25269,0,0,1-1.70606.63183A6.90861,6.90861,0,0,1,77.40018,200.32922Zm1.42871-10.207a2.74777,2.74777,0,0,0-1.98828.96582,6.31948,6.31948,0,0,0-1.42383,2.68261h.123a8.38688,8.38688,0,0,0,3.59278-.61133,1.91929,1.91929,0,0,0,1.249-1.77246,1.20294,1.20294,0,0,0-.375-.90527A1.65667,1.65667,0,0,0,78.82889,190.12219Z" fill="#232323"/><path d="M89.29275,188.65246a2.90707,2.90707,0,0,1,1.68555.50879,3.30639,3.30639,0,0,1,1.15137,1.46484h.1123l.68946-1.76855h1.30468l-2.39453,11.26562H90.47439l.26758-2.14844h-.083q-1.83984,2.354-3.875,2.3545a2.70965,2.70965,0,0,1-2.24023-1.01758,4.35265,4.35265,0,0,1-.8125-2.78613,10.60277,10.60277,0,0,1,.73047-3.96778,6.85128,6.85128,0,0,1,2.01465-2.86719A4.3802,4.3802,0,0,1,89.29275,188.65246Zm-1.95312,10.24805a2.89382,2.89382,0,0,0,1.9834-.95118,7.042,7.042,0,0,0,1.60351-2.47754,8.10521,8.10521,0,0,0,.61719-3.05761,2.39489,2.39489,0,0,0-.57617-1.68555,1.95492,1.95492,0,0,0-1.51074-.627,2.83168,2.83168,0,0,0-1.98926.88379A5.959,5.959,0,0,0,86.0242,193.38a9.6546,9.6546,0,0,0-.52442,3.18652,2.70087,2.70087,0,0,0,.48243,1.75293A1.66941,1.66941,0,0,0,87.33963,198.90051Z" fill="#232323"/><path d="M98.67654,198.921a5.58607,5.58607,0,0,0,1.48047-.26757v1.32617a4.75192,4.75192,0,0,1-.86328.24609,4.45415,4.45415,0,0,1-.82227.10352,2.85746,2.85746,0,0,1-1.96875-.61231,2.32344,2.32344,0,0,1-.68359-1.82422,7.477,7.477,0,0,1,.18555-1.542l1.30566-6.1875H95.54178l.14453-.75,1.90137-.80176,1.28418-2.34375h1.00781l-.56543,2.58985h2.8164l-.26757,1.30566H99.0574l-1.32617,6.208a7.33714,7.33714,0,0,0-.18457,1.35742,1.219,1.219,0,0,0,.29785.88379A1.10522,1.10522,0,0,0,98.67654,198.921Z" fill="#232323"/><path d="M103.77518,200.12316h-1.72657l2.40528-11.26562h1.72656Zm1.1621-14.14355a1.35264,1.35264,0,0,1,.32813-.94043,1.09638,1.09638,0,0,1,.85352-.36426.80835.80835,0,0,1,.90429.9248,1.395,1.395,0,0,1-.34375.95606,1.03694,1.03694,0,0,1-.79687.39062.95065.95065,0,0,1-.67871-.252A.93621.93621,0,0,1,104.93728,185.97961Z" fill="#232323"/><path d="M114.28006,200.12316l1.52148-7.1123a9.39792,9.39792,0,0,0,.20508-1.48047,1.46068,1.46068,0,0,0-.36523-1.03809,1.52877,1.52877,0,0,0-1.166-.39062,3.04514,3.04514,0,0,0-1.7832.61621,5.49238,5.49238,0,0,0-1.53223,1.75781,9.278,9.278,0,0,0-1.002,2.76563l-1.03809,4.88183h-1.72656l2.40527-11.26562h1.42871l-.22656,2.08691h.10352a6.86981,6.86981,0,0,1,1.90625-1.77344,3.83294,3.83294,0,0,1,1.90625-.51855,2.88273,2.88273,0,0,1,2.06152.71387,2.62358,2.62358,0,0,1,.75488,2,8.40087,8.40087,0,0,1-.23632,1.84961l-1.46973,6.90722Z" fill="#232323"/><path d="M130.243,188.85754l-.25684,1.10058-2.16894.2461a2.89509,2.89509,0,0,1,.4209,1.624,4.17057,4.17057,0,0,1-1.19727,3.12988,4.38765,4.38765,0,0,1-3.20117,1.167,3.46282,3.46282,0,0,1-.86426-.082q-1.42822.54492-1.42871,1.34571a.54511.54511,0,0,0,.33984.56054,4.07557,4.07557,0,0,0,.98633.22071l1.20313.14453a5.35082,5.35082,0,0,1,2.69726.90429,2.41358,2.41358,0,0,1,.83789,1.99415,3.35467,3.35467,0,0,1-1.5,2.92871,7.35986,7.35986,0,0,1-4.22461,1.03808,5.57244,5.57244,0,0,1-3.125-.75488,2.42,2.42,0,0,1-1.13086-2.13281,2.64886,2.64886,0,0,1,.74024-1.8711,5.76894,5.76894,0,0,1,2.39453-1.34668,1.33743,1.33743,0,0,1-.80078-1.24316,1.6358,1.6358,0,0,1,.52344-1.21777,5.393,5.393,0,0,1,1.46-.95118,2.679,2.679,0,0,1-1.0586-.97168,2.70691,2.70691,0,0,1-.41113-1.49511,4.51442,4.51442,0,0,1,1.22852-3.26856,4.16968,4.16968,0,0,1,3.13964-1.27441,6.2097,6.2097,0,0,1,1.583.20508Zm-10.94727,13.26953a1.4461,1.4461,0,0,0,.66895,1.2539,3.48821,3.48821,0,0,0,1.9834.46289,5.54928,5.54928,0,0,0,2.92383-.65234,2.05833,2.05833,0,0,0,1.05371-1.8457,1.15112,1.15112,0,0,0-.55469-1.00684,4.44789,4.44789,0,0,0-1.8916-.51367l-1.63379-.165a3.71516,3.71516,0,0,0-1.8916.90527A2.112,2.112,0,0,0,119.29568,202.12707Zm2.85743-8.99317a1.79046,1.79046,0,0,0,.46289,1.33106,1.74884,1.74884,0,0,0,1.28515.457,2.37963,2.37963,0,0,0,1.418-.43164,2.74936,2.74936,0,0,0,.93066-1.18652,4.12132,4.12132,0,0,0,.32325-1.63965,1.71746,1.71746,0,0,0-.45215-1.28516,1.78027,1.78027,0,0,0-1.29492-.44141,2.40734,2.40734,0,0,0-1.40332.416,2.73234,2.73234,0,0,0-.93555,1.16113A3.916,3.916,0,0,0,122.15311,193.1339Z" fill="#232323"/><path d="M141.51834,188.65246a2.90712,2.90712,0,0,1,1.68555.50879,3.3063,3.3063,0,0,1,1.15136,1.46484h.11231l.68945-1.76855h1.30469l-2.39453,11.26562H142.7l.26758-2.14844h-.083q-1.83984,2.354-3.875,2.3545a2.70962,2.70962,0,0,1-2.24023-1.01758,4.35265,4.35265,0,0,1-.8125-2.78613,10.603,10.603,0,0,1,.73046-3.96778,6.85128,6.85128,0,0,1,2.01465-2.86719A4.38024,4.38024,0,0,1,141.51834,188.65246Zm-1.95313,10.24805a2.89379,2.89379,0,0,0,1.9834-.95118,7.04189,7.04189,0,0,0,1.60352-2.47754,8.10541,8.10541,0,0,0,.61719-3.05761,2.3949,2.3949,0,0,0-.57618-1.68555,1.95489,1.95489,0,0,0-1.51074-.627,2.8317,2.8317,0,0,0-1.98926.88379,5.95907,5.95907,0,0,0-1.44336,2.39453,9.65485,9.65485,0,0,0-.52441,3.18652,2.70087,2.70087,0,0,0,.48242,1.75293A1.66944,1.66944,0,0,0,139.56521,198.90051Z" fill="#232323"/><path d="M154.57107,188.65246a4.70247,4.70247,0,0,1,1.2334.14355l-.37011,1.542a4.52758,4.52758,0,0,0-1.07911-.13379,2.85632,2.85632,0,0,0-1.75293.61718,5.41619,5.41619,0,0,0-1.42871,1.71094,8.74238,8.74238,0,0,0-.89941,2.43067l-1.09961,5.16015H147.448l2.40527-11.26562H151.282l-.22656,2.08691h.10351a10.10619,10.10619,0,0,1,1.22266-1.40332,3.8778,3.8778,0,0,1,1.0127-.65723A2.90555,2.90555,0,0,1,154.57107,188.65246Z" fill="#232323"/><path d="M160.23416,200.32922a3.92792,3.92792,0,0,1-2.96973-1.1211,4.28563,4.28563,0,0,1-1.08007-3.10351,9.252,9.252,0,0,1,.7666-3.70606,6.85544,6.85544,0,0,1,2.02929-2.75976,4.42769,4.42769,0,0,1,2.78614-.98633,3.52935,3.52935,0,0,1,2.36328.68359,2.38259,2.38259,0,0,1,.792,1.90625,3.261,3.261,0,0,1-1.70605,2.9043,9.34991,9.34991,0,0,1-4.88282,1.05273h-.33886l-.041.82227a3.1842,3.1842,0,0,0,.63184,2.10254,2.40952,2.40952,0,0,0,1.958.75488,5.09787,5.09787,0,0,0,1.33106-.18457,10.15382,10.15382,0,0,0,1.70117-.67871v1.501a9.25263,9.25263,0,0,1-1.70605.63183A6.90876,6.90876,0,0,1,160.23416,200.32922Zm1.42871-10.207a2.74779,2.74779,0,0,0-1.98828.96582,6.31948,6.31948,0,0,0-1.42383,2.68261h.123a8.38683,8.38683,0,0,0,3.59277-.61133,1.9193,1.9193,0,0,0,1.249-1.77246,1.20294,1.20294,0,0,0-.375-.90527A1.65668,1.65668,0,0,0,161.66287,190.12219Z" fill="#232323"/><path d="M172.12771,188.65246a2.90707,2.90707,0,0,1,1.68555.50879,3.30632,3.30632,0,0,1,1.15137,1.46484h.1123l.68946-1.76855h1.30468l-2.39453,11.26562h-1.36718l.26757-2.14844h-.083q-1.83986,2.354-3.875,2.3545a2.70965,2.70965,0,0,1-2.24024-1.01758,4.35271,4.35271,0,0,1-.8125-2.78613,10.603,10.603,0,0,1,.73047-3.96778,6.85128,6.85128,0,0,1,2.01465-2.86719A4.3802,4.3802,0,0,1,172.12771,188.65246Zm-1.95312,10.24805a2.89382,2.89382,0,0,0,1.9834-.95118,7.042,7.042,0,0,0,1.60351-2.47754,8.10521,8.10521,0,0,0,.61719-3.05761,2.39489,2.39489,0,0,0-.57617-1.68555,1.95492,1.95492,0,0,0-1.51074-.627,2.83168,2.83168,0,0,0-1.98926.88379,5.959,5.959,0,0,0-1.44336,2.39453,9.65459,9.65459,0,0,0-.52441,3.18652,2.70087,2.70087,0,0,0,.48242,1.75293A1.66941,1.66941,0,0,0,170.17459,198.90051Z" fill="#232323"/><path d="M178.01639,195.30285l.35937-1.624h4.92383l-.34961,1.624Z" fill="#232323"/><path d="M191.574,196.92687a3.01527,3.01527,0,0,1-1.13574,2.50293,5.04285,5.04285,0,0,1-3.20215.89942,6.82964,6.82964,0,0,1-3.13476-.71v-1.624a6.36394,6.36394,0,0,0,1.55273.668,5.64517,5.64517,0,0,0,1.541.23731,3.13286,3.13286,0,0,0,1.95312-.51465,1.59885,1.59885,0,0,0,.65821-1.31543,1.42,1.42,0,0,0-.36036-.98633,7.24075,7.24075,0,0,0-1.55175-1.10059,6.242,6.242,0,0,1-1.89161-1.46972,2.70933,2.70933,0,0,1-.55468-1.70606,2.83573,2.83573,0,0,1,1.03808-2.28711,4.12051,4.12051,0,0,1,2.73438-.86816,7.95367,7.95367,0,0,1,3.3916.76074l-.55469,1.4082-.57617-.25683a5.70656,5.70656,0,0,0-2.26074-.44238,2.30034,2.30034,0,0,0-1.501.44726,1.50589,1.50589,0,0,0-.17969,2.14258,6.42357,6.42357,0,0,0,1.50586,1.05859,8.709,8.709,0,0,1,1.57715,1.05957,3.05049,3.05049,0,0,1,.71485.9502A2.69511,2.69511,0,0,1,191.574,196.92687Z" fill="#232323"/><path d="M198.63553,200.32922a3.01587,3.01587,0,0,1-1.74707-.51465,3.33579,3.33579,0,0,1-1.16114-1.43848h-.10351l-.041.39063c-.02051.17089-.05664.41113-.10742.71875q-.07764.46289-1.17676,5.69433h-1.707l3.4541-16.32226h1.42871l-.26757,2.14843h.082q1.83984-2.33349,3.82422-2.333a2.70293,2.70293,0,0,1,2.21972,1.00195,4.35653,4.35653,0,0,1,.8125,2.81152,10.90246,10.90246,0,0,1-.71,3.99805,6.63751,6.63751,0,0,1-1.96289,2.832A4.39643,4.39643,0,0,1,198.63553,200.32922Zm1.91211-10.22754a2.97094,2.97094,0,0,0-2.00977.97656,6.97637,6.97637,0,0,0-1.624,2.45605,8.00051,8.00051,0,0,0-.60059,3.03223,2.4206,2.4206,0,0,0,.57031,1.73242,2.16669,2.16669,0,0,0,1.64942.60157,2.71953,2.71953,0,0,0,1.89648-.833,5.84309,5.84309,0,0,0,1.41309-2.36914,9.86067,9.86067,0,0,0,.53418-3.26367Q202.37674,190.10119,200.54764,190.10168Z" fill="#232323"/><path d="M210.239,200.32922a3.9279,3.9279,0,0,1-2.96972-1.1211,4.28559,4.28559,0,0,1-1.08008-3.10351,9.25222,9.25222,0,0,1,.7666-3.70606,6.85546,6.85546,0,0,1,2.0293-2.75976,4.42764,4.42764,0,0,1,2.78613-.98633,3.52934,3.52934,0,0,1,2.36328.68359,2.38259,2.38259,0,0,1,.792,1.90625,3.26094,3.26094,0,0,1-1.706,2.9043,9.34989,9.34989,0,0,1-4.88281,1.05273h-.33887l-.041.82227a3.1842,3.1842,0,0,0,.63184,2.10254,2.40954,2.40954,0,0,0,1.958.75488,5.09774,5.09774,0,0,0,1.33105-.18457,10.15348,10.15348,0,0,0,1.70117-.67871v1.501a9.25263,9.25263,0,0,1-1.70605.63183A6.90876,6.90876,0,0,1,210.239,200.32922Zm1.42871-10.207a2.7478,2.7478,0,0,0-1.98828.96582,6.3197,6.3197,0,0,0-1.42383,2.68261h.12305a8.3868,8.3868,0,0,0,3.59277-.61133,1.91929,1.91929,0,0,0,1.249-1.77246,1.20294,1.20294,0,0,0-.375-.90527A1.65668,1.65668,0,0,0,211.66775,190.12219Z" fill="#232323"/><path d="M220.76541,200.32922a3.82666,3.82666,0,0,1-4.19434-4.20411,9.35524,9.35524,0,0,1,.76075-3.793,6.44061,6.44061,0,0,1,2.10254-2.708,5.0106,5.0106,0,0,1,3.0166-.97168,7.5355,7.5355,0,0,1,2.75488.52441l-.4834,1.44922a5.81181,5.81181,0,0,0-2.251-.52441,3.21694,3.21694,0,0,0-2.10156.78613,5.177,5.177,0,0,0-1.49121,2.18945,8.428,8.428,0,0,0-.53906,3.04785,2.87371,2.87371,0,0,0,.68359,2.04493,2.45417,2.45417,0,0,0,1.88574.73047,4.68,4.68,0,0,0,1.39844-.20606,12.69823,12.69823,0,0,0,1.29492-.4834v1.46973A6.17476,6.17476,0,0,1,220.76541,200.32922Z" fill="#232323"/><path d="M227.37381,200.12316h-1.72656l2.40527-11.26562h1.72656Zm1.16211-14.14355a1.35263,1.35263,0,0,1,.32812-.94043,1.09638,1.09638,0,0,1,.85352-.36426.80835.80835,0,0,1,.9043.9248,1.395,1.395,0,0,1-.34375.95606,1.037,1.037,0,0,1-.79688.39062.95067.95067,0,0,1-.67871-.252A.93621.93621,0,0,1,228.53592,185.97961Z" fill="#232323"/><path d="M229.31619,205.1798a3.619,3.619,0,0,1-1.28418-.21582v-1.44922a3.59953,3.59953,0,0,0,1.15137.22657,1.35781,1.35781,0,0,0,1.20215-.6377,5.4474,5.4474,0,0,0,.67871-1.81934l2.333-11.12109h-1.9834l.13281-.68848,2.11816-.67871.23633-1.02734a6.08219,6.08219,0,0,1,1.31055-2.9043,3.33971,3.33971,0,0,1,2.48144-.84765,5.38646,5.38646,0,0,1,1.00782.11816,4.7153,4.7153,0,0,1,.9248.26172l-.4414,1.32617a4.01348,4.01348,0,0,0-1.40821-.29785,1.81551,1.81551,0,0,0-1.373.49805,3.96525,3.96525,0,0,0-.7754,1.82519l-.25683,1.10938h2.44629l-.25684,1.30566h-2.43652L232.739,201.44933a5.87906,5.87906,0,0,1-1.2334,2.83692A2.851,2.851,0,0,1,229.31619,205.1798Zm10.01172-5.05664h-1.72656l2.40527-11.26562h1.72656Zm1.16113-14.14355a1.34871,1.34871,0,0,1,.3291-.94043,1.09638,1.09638,0,0,1,.85352-.36426.80835.80835,0,0,1,.9043.9248,1.39575,1.39575,0,0,1-.34473.95606,1.03507,1.03507,0,0,1-.7959.39062.94906.94906,0,0,1-.67871-.252A.93316.93316,0,0,1,240.489,185.97961Z" fill="#232323"/><path d="M247.56131,200.32922a3.82666,3.82666,0,0,1-4.19434-4.20411,9.3554,9.3554,0,0,1,.76074-3.793,6.44076,6.44076,0,0,1,2.10254-2.708,5.01065,5.01065,0,0,1,3.01661-.97168,7.5355,7.5355,0,0,1,2.75488.52441l-.4834,1.44922a5.81189,5.81189,0,0,0-2.251-.52441,3.21692,3.21692,0,0,0-2.10156.78613,5.17687,5.17687,0,0,0-1.49121,2.18945,8.42778,8.42778,0,0,0-.53906,3.04785,2.87371,2.87371,0,0,0,.68359,2.04493,2.45417,2.45417,0,0,0,1.88574.73047,4.68,4.68,0,0,0,1.39844-.20606,12.69823,12.69823,0,0,0,1.29492-.4834v1.46973A6.17479,6.17479,0,0,1,247.56131,200.32922Z" fill="#232323"/><path d="M48.71853,225.59a3.92786,3.92786,0,0,1-2.96972-1.1211,4.28559,4.28559,0,0,1-1.08008-3.10351,9.25222,9.25222,0,0,1,.7666-3.70606,6.85555,6.85555,0,0,1,2.0293-2.75976,4.42764,4.42764,0,0,1,2.78613-.98633,3.52934,3.52934,0,0,1,2.36328.68359,2.38259,2.38259,0,0,1,.792,1.90625A3.26093,3.26093,0,0,1,51.7,219.40734a9.34986,9.34986,0,0,1-4.88281,1.05274H46.4783l-.041.82226a3.1842,3.1842,0,0,0,.63184,2.10254,2.40952,2.40952,0,0,0,1.958.75488,5.09774,5.09774,0,0,0,1.331-.18457,10.153,10.153,0,0,0,1.70118-.67871v1.501a9.25223,9.25223,0,0,1-1.70606.63183A6.9087,6.9087,0,0,1,48.71853,225.59Zm1.42872-10.207a2.74781,2.74781,0,0,0-1.98829.96582,6.31958,6.31958,0,0,0-1.42382,2.68261h.123A8.38705,8.38705,0,0,0,50.451,218.42a1.91931,1.91931,0,0,0,1.249-1.77246,1.203,1.203,0,0,0-.375-.90528A1.65667,1.65667,0,0,0,50.14725,215.38293Z" fill="#232323"/><path d="M59.24393,225.59a3.82666,3.82666,0,0,1-4.19434-4.2041,9.35541,9.35541,0,0,1,.76074-3.793,6.44075,6.44075,0,0,1,2.10254-2.708,5.01062,5.01062,0,0,1,3.0166-.97168,7.53572,7.53572,0,0,1,2.75489.52441l-.4834,1.44922a5.81189,5.81189,0,0,0-2.251-.52441,3.21692,3.21692,0,0,0-2.10156.78613,5.17691,5.17691,0,0,0-1.49121,2.18946,8.4277,8.4277,0,0,0-.53907,3.04785,2.87366,2.87366,0,0,0,.6836,2.04492,2.45416,2.45416,0,0,0,1.88574.73047,4.68011,4.68011,0,0,0,1.39844-.20606,12.69911,12.69911,0,0,0,1.29492-.4834v1.46973A6.17479,6.17479,0,0,1,59.24393,225.59Z" fill="#232323"/><path d="M70.12967,213.97472a4.1151,4.1151,0,0,1,3.083,1.15625,4.35586,4.35586,0,0,1,1.13085,3.18164,9.12065,9.12065,0,0,1-.74023,3.64844,6.313,6.313,0,0,1-2.00391,2.65235,4.6873,4.6873,0,0,1-2.85742.93457,4.09541,4.09541,0,0,1-3.09375-1.16114,4.38226,4.38226,0,0,1-1.12109-3.17578,9.10143,9.10143,0,0,1,.751-3.6748,6.2283,6.2283,0,0,1,2.02441-2.6416A4.71938,4.71938,0,0,1,70.12967,213.97472Zm2.42578,4.10157a2.80853,2.80853,0,0,0-.64258-1.917,2.19522,2.19522,0,0,0-1.74219-.73535,3.0105,3.0105,0,0,0-2.00976.76075,4.88918,4.88918,0,0,0-1.377,2.1123,8.78414,8.78414,0,0,0-.48828,3.00684,3.02914,3.02914,0,0,0,.65235,2.08105,2.3766,2.3766,0,0,0,1.876.73438,2.8335,2.8335,0,0,0,1.92188-.75,4.89006,4.89006,0,0,0,1.33105-2.13282A9.65515,9.65515,0,0,0,72.55545,218.07629Z" fill="#232323"/><path d="M77.64236,225.3839H75.9158l3.41211-15.99316h1.72754Z" fill="#232323"/><path d="M87.284,213.97472a4.11508,4.11508,0,0,1,3.083,1.15625,4.35583,4.35583,0,0,1,1.13086,3.18164,9.12065,9.12065,0,0,1-.74023,3.64844,6.31316,6.31316,0,0,1-2.00391,2.65235,4.68732,4.68732,0,0,1-2.85742.93457,4.0954,4.0954,0,0,1-3.09375-1.16114,4.38226,4.38226,0,0,1-1.12109-3.17578,9.10142,9.10142,0,0,1,.751-3.6748,6.22831,6.22831,0,0,1,2.02442-2.6416A4.71937,4.71937,0,0,1,87.284,213.97472Zm2.42579,4.10157a2.80858,2.80858,0,0,0-.64258-1.917,2.19522,2.19522,0,0,0-1.74219-.73535,3.01054,3.01054,0,0,0-2.00977.76075,4.88926,4.88926,0,0,0-1.37695,2.1123,8.78414,8.78414,0,0,0-.48828,3.00684,3.02919,3.02919,0,0,0,.65234,2.08105,2.37664,2.37664,0,0,0,1.876.73438,2.8335,2.8335,0,0,0,1.92188-.75,4.89006,4.89006,0,0,0,1.331-2.13282A9.65515,9.65515,0,0,0,89.70975,218.07629Z" fill="#232323"/><path d="M103.79178,214.11828l-.25684,1.10058-2.16894.2461a2.89511,2.89511,0,0,1,.42089,1.624,4.17055,4.17055,0,0,1-1.19726,3.12988,4.38764,4.38764,0,0,1-3.20117,1.167,3.46324,3.46324,0,0,1-.86426-.082q-1.42822.54492-1.42871,1.3457a.54513.54513,0,0,0,.33984.56055,4.07612,4.07612,0,0,0,.98633.2207l1.20312.14453a5.35072,5.35072,0,0,1,2.69727.9043,2.41358,2.41358,0,0,1,.83789,1.99414,3.35467,3.35467,0,0,1-1.5,2.92871,7.35988,7.35988,0,0,1-4.22461,1.03808,5.57241,5.57241,0,0,1-3.125-.75488,2.41994,2.41994,0,0,1-1.13086-2.13281,2.64882,2.64882,0,0,1,.74024-1.87109,5.76872,5.76872,0,0,1,2.39453-1.34668,1.33745,1.33745,0,0,1-.80078-1.24317,1.63582,1.63582,0,0,1,.52343-1.21777,5.39287,5.39287,0,0,1,1.46-.95117,2.679,2.679,0,0,1-1.0586-.97168,2.70694,2.70694,0,0,1-.41113-1.49512,4.51446,4.51446,0,0,1,1.22851-3.26856,4.16974,4.16974,0,0,1,3.13965-1.27441,6.2097,6.2097,0,0,1,1.583.20508ZM92.84451,227.38781a1.44613,1.44613,0,0,0,.66895,1.25391,3.4883,3.4883,0,0,0,1.9834.46289,5.54924,5.54924,0,0,0,2.92382-.65235,2.0583,2.0583,0,0,0,1.05371-1.8457,1.15114,1.15114,0,0,0-.55468-1.00684,4.448,4.448,0,0,0-1.8916-.51367l-1.63379-.165a3.71524,3.71524,0,0,0-1.89161.90528A2.112,2.112,0,0,0,92.84451,227.38781Zm2.85742-8.99316a1.79049,1.79049,0,0,0,.46289,1.331,1.74888,1.74888,0,0,0,1.28516.457,2.37963,2.37963,0,0,0,1.418-.43164,2.7493,2.7493,0,0,0,.93066-1.18652,4.12146,4.12146,0,0,0,.32325-1.63965,1.71753,1.71753,0,0,0-.45215-1.28516,1.78027,1.78027,0,0,0-1.29493-.4414,2.40737,2.40737,0,0,0-1.40332.416,2.73234,2.73234,0,0,0-.93554,1.16114A3.91593,3.91593,0,0,0,95.70193,218.39465Z" fill="#232323"/><path d="M105.36307,225.3839H103.6365l2.40528-11.26562h1.72656Zm1.16211-14.14355a1.35263,1.35263,0,0,1,.32812-.94043,1.09642,1.09642,0,0,1,.85352-.36426.80835.80835,0,0,1,.90429.92481,1.395,1.395,0,0,1-.34375.95605,1.037,1.037,0,0,1-.79687.39063.95066.95066,0,0,1-.67871-.252A.93621.93621,0,0,1,106.52518,211.24035Z" fill="#232323"/><path d="M113.576,225.59a3.82666,3.82666,0,0,1-4.19434-4.2041,9.35541,9.35541,0,0,1,.76074-3.793,6.44083,6.44083,0,0,1,2.10254-2.708,5.01064,5.01064,0,0,1,3.0166-.97168,7.53572,7.53572,0,0,1,2.75489.52441l-.4834,1.44922a5.81189,5.81189,0,0,0-2.251-.52441,3.21692,3.21692,0,0,0-2.10156.78613,5.17691,5.17691,0,0,0-1.49121,2.18946,8.4277,8.4277,0,0,0-.53906,3.04785,2.87366,2.87366,0,0,0,.68359,2.04492,2.45416,2.45416,0,0,0,1.88574.73047,4.68,4.68,0,0,0,1.39844-.20606,12.69823,12.69823,0,0,0,1.29492-.4834v1.46973A6.17479,6.17479,0,0,1,113.576,225.59Z" fill="#232323"/><path d="M124.42068,213.9132a2.90707,2.90707,0,0,1,1.68555.50879,3.30645,3.30645,0,0,1,1.15137,1.46484h.1123l.68946-1.76855H129.364l-2.39453,11.26562h-1.36719l.26758-2.14843h-.083q-1.83984,2.354-3.875,2.35449a2.70965,2.70965,0,0,1-2.24023-1.01758,4.35265,4.35265,0,0,1-.8125-2.78613,10.60277,10.60277,0,0,1,.73047-3.96778,6.85118,6.85118,0,0,1,2.01465-2.86718A4.38015,4.38015,0,0,1,124.42068,213.9132Zm-1.95312,10.24805a2.89385,2.89385,0,0,0,1.9834-.95117,7.0421,7.0421,0,0,0,1.60351-2.47754,8.1053,8.1053,0,0,0,.61719-3.05762,2.39489,2.39489,0,0,0-.57617-1.68555,1.95492,1.95492,0,0,0-1.51074-.627,2.83168,2.83168,0,0,0-1.98926.88379,5.959,5.959,0,0,0-1.44336,2.39453,9.6546,9.6546,0,0,0-.52442,3.18652,2.70087,2.70087,0,0,0,.48243,1.75293A1.66941,1.66941,0,0,0,122.46756,224.16125Z" fill="#232323"/><path d="M132.05643,225.3839h-1.72657l3.41211-15.99316h1.72754Z" fill="#232323"/><path d="M146.159,225.59a3.01589,3.01589,0,0,1-1.74707-.51465,3.33571,3.33571,0,0,1-1.16113-1.43848h-.10351l-.041.39063c-.02051.1709-.05664.41113-.10742.71875q-.07764.46289-1.17676,5.69433h-1.707l3.4541-16.32226h1.42871l-.26758,2.14844h.082q1.83986-2.3335,3.82422-2.333a2.703,2.703,0,0,1,2.21973,1.002,4.35654,4.35654,0,0,1,.8125,2.81153,10.90244,10.90244,0,0,1-.71,3.998,6.6376,6.6376,0,0,1-1.96289,2.832A4.39644,4.39644,0,0,1,146.159,225.59Zm1.91211-10.22754a2.97093,2.97093,0,0,0-2.00976.97656,6.97648,6.97648,0,0,0-1.624,2.45606,8.00041,8.00041,0,0,0-.60058,3.03222,2.42064,2.42064,0,0,0,.57031,1.73243,2.16667,2.16667,0,0,0,1.64942.60156,2.71953,2.71953,0,0,0,1.89648-.833,5.84309,5.84309,0,0,0,1.41309-2.36914,9.86063,9.86063,0,0,0,.53418-3.26367Q149.90018,215.36193,148.07107,215.36242Z" fill="#232323"/><path d="M160.43533,213.9132a4.702,4.702,0,0,1,1.2334.14356l-.37012,1.542a4.52744,4.52744,0,0,0-1.0791-.13379,2.85625,2.85625,0,0,0-1.75293.61719,5.41591,5.41591,0,0,0-1.42871,1.71093,8.74219,8.74219,0,0,0-.89941,2.43067l-1.09961,5.16015h-1.72657l2.40528-11.26562h1.42871l-.22656,2.08691h.10351a10.10612,10.10612,0,0,1,1.22266-1.40332,3.87745,3.87745,0,0,1,1.01269-.65722A2.90543,2.90543,0,0,1,160.43533,213.9132Z" fill="#232323"/><path d="M167.65115,213.97472a4.1151,4.1151,0,0,1,3.083,1.15625,4.35583,4.35583,0,0,1,1.13086,3.18164,9.12048,9.12048,0,0,1-.74024,3.64844,6.31306,6.31306,0,0,1-2.0039,2.65235,4.68732,4.68732,0,0,1-2.85742.93457,4.0954,4.0954,0,0,1-3.09375-1.16114,4.38226,4.38226,0,0,1-1.1211-3.17578,9.10143,9.10143,0,0,1,.751-3.6748,6.2283,6.2283,0,0,1,2.02441-2.6416A4.7194,4.7194,0,0,1,167.65115,213.97472Zm2.42578,4.10157a2.80858,2.80858,0,0,0-.64257-1.917,2.19524,2.19524,0,0,0-1.74219-.73535,3.01054,3.01054,0,0,0-2.00977.76075,4.88917,4.88917,0,0,0-1.37695,2.1123,8.78414,8.78414,0,0,0-.48828,3.00684,3.02914,3.02914,0,0,0,.65234,2.08105,2.37664,2.37664,0,0,0,1.876.73438,2.83348,2.83348,0,0,0,1.92187-.75,4.89,4.89,0,0,0,1.33106-2.13282A9.65516,9.65516,0,0,0,170.07693,218.07629Z" fill="#232323"/><path d="M171.783,230.44054a3.61876,3.61876,0,0,1-1.28418-.21582v-1.44921a3.59966,3.59966,0,0,0,1.15137.22656,1.3578,1.3578,0,0,0,1.20214-.6377,5.4472,5.4472,0,0,0,.67871-1.81933l2.333-11.1211h-1.9834l.13282-.68847,2.11816-.67871.23633-1.02735a6.082,6.082,0,0,1,1.31055-2.9043,3.33973,3.33973,0,0,1,2.48144-.84765,5.38636,5.38636,0,0,1,1.00781.11816,4.71543,4.71543,0,0,1,.92481.26172l-.44141,1.32617a4.01338,4.01338,0,0,0-1.4082-.29785,1.81554,1.81554,0,0,0-1.37305.498,3.9652,3.9652,0,0,0-.77539,1.82519l-.25683,1.10938H180.284l-.25683,1.30566h-2.43652l-2.38477,11.28614a5.87907,5.87907,0,0,1-1.2334,2.83691A2.851,2.851,0,0,1,171.783,230.44054Zm10.01172-5.05664h-1.72657l2.40528-11.26562H184.2Zm1.16113-14.14355a1.34867,1.34867,0,0,1,.3291-.94043,1.09642,1.09642,0,0,1,.85352-.36426.80835.80835,0,0,1,.90429.92481,1.39574,1.39574,0,0,1-.34472.95605,1.0351,1.0351,0,0,1-.7959.39063.949.949,0,0,1-.67871-.252A.93316.93316,0,0,1,182.95584,211.24035Z" fill="#232323"/><path d="M187.13943,225.3839h-1.72656l3.41211-15.99316h1.72754Z" fill="#232323"/><path d="M192.50467,225.3839h-1.72656l2.40527-11.26562h1.72656Zm1.16211-14.14355a1.35263,1.35263,0,0,1,.32812-.94043,1.09642,1.09642,0,0,1,.85352-.36426.80835.80835,0,0,1,.90429.92481,1.395,1.395,0,0,1-.34375.95605,1.03693,1.03693,0,0,1-.79687.39063.95067.95067,0,0,1-.67871-.252A.93621.93621,0,0,1,193.66678,211.24035Z" fill="#232323"/><path d="M203.00955,225.3839l1.52148-7.1123a9.39792,9.39792,0,0,0,.20508-1.48047,1.46069,1.46069,0,0,0-.36523-1.03809,1.52877,1.52877,0,0,0-1.166-.39062,3.04514,3.04514,0,0,0-1.7832.61621,5.4925,5.4925,0,0,0-1.53223,1.75781,9.27841,9.27841,0,0,0-1.00195,2.76563l-1.03809,4.88183h-1.72656l2.40528-11.26562h1.42871l-.22657,2.08691h.10352a6.87,6.87,0,0,1,1.90625-1.77343,3.83285,3.83285,0,0,1,1.90625-.51856,2.8827,2.8827,0,0,1,2.06152.71387,2.62359,2.62359,0,0,1,.75489,2,8.40094,8.40094,0,0,1-.23633,1.84961l-1.46973,6.90722Z" fill="#232323"/><path d="M218.97244,214.11828l-.25683,1.10058-2.16895.2461a2.89511,2.89511,0,0,1,.4209,1.624,4.17055,4.17055,0,0,1-1.19727,3.12988,4.38762,4.38762,0,0,1-3.20117,1.167,3.4633,3.4633,0,0,1-.86426-.082q-1.42822.54492-1.42871,1.3457a.54513.54513,0,0,0,.33985.56055,4.07591,4.07591,0,0,0,.98632.2207l1.20313.14453a5.35072,5.35072,0,0,1,2.69726.9043,2.41356,2.41356,0,0,1,.8379,1.99414,3.35467,3.35467,0,0,1-1.5,2.92871,7.35988,7.35988,0,0,1-4.22461,1.03808,5.57239,5.57239,0,0,1-3.125-.75488,2.41992,2.41992,0,0,1-1.13086-2.13281,2.64885,2.64885,0,0,1,.74023-1.87109,5.76872,5.76872,0,0,1,2.39453-1.34668,1.33745,1.33745,0,0,1-.80078-1.24317,1.63583,1.63583,0,0,1,.52344-1.21777,5.393,5.393,0,0,1,1.46-.95117,2.679,2.679,0,0,1-1.05859-.97168,2.70687,2.70687,0,0,1-.41114-1.49512,4.51442,4.51442,0,0,1,1.22852-3.26856,4.16972,4.16972,0,0,1,3.13965-1.27441,6.20956,6.20956,0,0,1,1.583.20508Zm-10.94726,13.26953a1.44612,1.44612,0,0,0,.66894,1.25391,3.48832,3.48832,0,0,0,1.9834.46289,5.54928,5.54928,0,0,0,2.92383-.65235,2.0583,2.0583,0,0,0,1.05371-1.8457,1.15113,1.15113,0,0,0-.55469-1.00684,4.448,4.448,0,0,0-1.8916-.51367l-1.63379-.165a3.71521,3.71521,0,0,0-1.8916.90528A2.112,2.112,0,0,0,208.02518,227.38781Zm2.85742-8.99316a1.79045,1.79045,0,0,0,.46289,1.331,1.74886,1.74886,0,0,0,1.28515.457,2.37961,2.37961,0,0,0,1.418-.43164,2.74932,2.74932,0,0,0,.93067-1.18652,4.12146,4.12146,0,0,0,.32324-1.63965,1.71749,1.71749,0,0,0-.45215-1.28516,1.78026,1.78026,0,0,0-1.29492-.4414,2.40735,2.40735,0,0,0-1.40332.416,2.73243,2.73243,0,0,0-.93555,1.16114A3.91608,3.91608,0,0,0,210.8826,218.39465Z" fill="#232323"/><path d="M230.24783,213.9132a2.90712,2.90712,0,0,1,1.68555.50879,3.30645,3.30645,0,0,1,1.15137,1.46484h.1123l.68945-1.76855h1.30469l-2.39453,11.26562h-1.36719l.26758-2.14843h-.083q-1.83984,2.354-3.875,2.35449a2.70962,2.70962,0,0,1-2.24023-1.01758,4.35265,4.35265,0,0,1-.8125-2.78613,10.60277,10.60277,0,0,1,.73047-3.96778,6.85109,6.85109,0,0,1,2.01465-2.86718A4.38015,4.38015,0,0,1,230.24783,213.9132Zm-1.95312,10.24805a2.89385,2.89385,0,0,0,1.9834-.95117,7.0421,7.0421,0,0,0,1.60351-2.47754,8.10549,8.10549,0,0,0,.61719-3.05762,2.39489,2.39489,0,0,0-.57617-1.68555,1.95493,1.95493,0,0,0-1.51075-.627,2.83166,2.83166,0,0,0-1.98925.88379,5.959,5.959,0,0,0-1.44336,2.39453,9.6546,9.6546,0,0,0-.52442,3.18652,2.70093,2.70093,0,0,0,.48242,1.75293A1.66944,1.66944,0,0,0,228.29471,224.16125Z" fill="#232323"/><path d="M243.06424,225.3839l1.52148-7.1123a9.39792,9.39792,0,0,0,.20508-1.48047,1.46069,1.46069,0,0,0-.36523-1.03809,1.52877,1.52877,0,0,0-1.166-.39062,3.04514,3.04514,0,0,0-1.7832.61621,5.49238,5.49238,0,0,0-1.53223,1.75781,9.27814,9.27814,0,0,0-1.00195,2.76563l-1.03809,4.88183h-1.72656l2.40527-11.26562h1.42871l-.22656,2.08691h.10352a6.86991,6.86991,0,0,1,1.90625-1.77343,3.83285,3.83285,0,0,1,1.90625-.51856,2.88273,2.88273,0,0,1,2.06152.71387,2.62358,2.62358,0,0,1,.75488,2,8.40034,8.40034,0,0,1-.23633,1.84961l-1.46972,6.90722Z" fill="#232323"/><path d="M254.28885,213.93371a2.99812,2.99812,0,0,1,2.88769,1.95312h.10254a23.90008,23.90008,0,0,1,.46289-2.8164l.80176-3.67969h1.70605l-3.3916,15.99316h-1.42871l.22559-2.14843h-.082a7.7349,7.7349,0,0,1-1.94239,1.81933,3.631,3.631,0,0,1-1.87109.53516,2.69187,2.69187,0,0,1-2.23047-1.00781,4.382,4.382,0,0,1-.80176-2.7959,10.65624,10.65624,0,0,1,.74024-4.0293,6.72283,6.72283,0,0,1,1.999-2.82617A4.43076,4.43076,0,0,1,254.28885,213.93371Zm-1.95313,10.22754a2.99332,2.99332,0,0,0,1.99414-.96192,6.75878,6.75878,0,0,0,1.62891-2.45605,8.11328,8.11328,0,0,0,.60156-3.04785,2.46066,2.46066,0,0,0-.55566-1.73731,2.10087,2.10087,0,0,0-1.61328-.5957,2.7494,2.7494,0,0,0-1.92774.84766,5.96861,5.96861,0,0,0-1.42871,2.38476,9.69619,9.69619,0,0,0-.53906,3.23242Q250.49588,224.16076,252.33572,224.16125Z" fill="#232323"/><path d="M97.65994,250.84972a2.995,2.995,0,0,1-1.752-.52441,3.20336,3.20336,0,0,1-1.13574-1.42871h-.10352L93.95,250.64367H92.66482l3.39161-15.99316H97.784q-.5244,2.4873-.80761,3.80761-.28272,1.32129-.77539,3.08887h.09179a7.51693,7.51693,0,0,1,1.88672-1.7832,3.62371,3.62371,0,0,1,1.917-.57032,2.729,2.729,0,0,1,2.26075,1.01758,4.369,4.369,0,0,1,.8125,2.7959,10.95987,10.95987,0,0,1-.7041,3.97266,6.65568,6.65568,0,0,1-1.96387,2.84668A4.38316,4.38316,0,0,1,97.65994,250.84972Zm1.91211-10.22753a2.971,2.971,0,0,0-2.00977.97656,6.97633,6.97633,0,0,0-1.624,2.45605,8.0005,8.0005,0,0,0-.60058,3.03223,2.42061,2.42061,0,0,0,.57031,1.73242,2.16666,2.16666,0,0,0,1.64941.60156,2.71959,2.71959,0,0,0,1.89649-.833,5.84305,5.84305,0,0,0,1.41308-2.36915,9.86033,9.86033,0,0,0,.53418-3.26367Q101.40115,240.6217,99.57205,240.62219Z" fill="#232323"/><path d="M110.77615,239.173a2.90712,2.90712,0,0,1,1.68555.50879,3.30634,3.30634,0,0,1,1.15137,1.46484h.1123l.68945-1.76856h1.30469L113.325,250.64367h-1.36719l.26758-2.14844h-.083q-1.83984,2.354-3.875,2.35449a2.70961,2.70961,0,0,1-2.24023-1.01757,4.35268,4.35268,0,0,1-.8125-2.78614,10.60272,10.60272,0,0,1,.73047-3.96777,6.85119,6.85119,0,0,1,2.01465-2.86719A4.3802,4.3802,0,0,1,110.77615,239.173ZM108.823,249.421a2.89381,2.89381,0,0,0,1.9834-.95117,7.042,7.042,0,0,0,1.60351-2.47754,8.10544,8.10544,0,0,0,.61719-3.05761,2.39489,2.39489,0,0,0-.57617-1.68555,1.95493,1.95493,0,0,0-1.51075-.627,2.83169,2.83169,0,0,0-1.98925.88378,5.95906,5.95906,0,0,0-1.44336,2.39454,9.6546,9.6546,0,0,0-.52442,3.18652,2.70089,2.70089,0,0,0,.48243,1.75293A1.6694,1.6694,0,0,0,108.823,249.421Z" fill="#232323"/><path d="M123.65408,247.44738a3.01527,3.01527,0,0,1-1.13574,2.50293,5.04287,5.04287,0,0,1-3.20215.89941,6.82951,6.82951,0,0,1-3.13476-.71v-1.624a6.36394,6.36394,0,0,0,1.55273.668,5.64513,5.64513,0,0,0,1.541.2373,3.13281,3.13281,0,0,0,1.95312-.51465,1.59882,1.59882,0,0,0,.6582-1.31542,1.42,1.42,0,0,0-.36035-.98633,7.24089,7.24089,0,0,0-1.55176-1.10059,6.242,6.242,0,0,1-1.8916-1.46973,2.7093,2.7093,0,0,1-.55468-1.70605,2.83573,2.83573,0,0,1,1.03808-2.28711,4.12049,4.12049,0,0,1,2.73438-.86816,7.95371,7.95371,0,0,1,3.3916.76074l-.55469,1.4082-.57617-.25683a5.70639,5.70639,0,0,0-2.26074-.44239,2.30034,2.30034,0,0,0-1.501.44727,1.50589,1.50589,0,0,0-.17969,2.14258,6.42357,6.42357,0,0,0,1.50586,1.05859,8.70845,8.70845,0,0,1,1.57715,1.05957,3.0503,3.0503,0,0,1,.71484.9502A2.69493,2.69493,0,0,1,123.65408,247.44738Z" fill="#232323"/><path d="M130.17068,250.84972a3.92789,3.92789,0,0,1-2.96972-1.12109,4.2856,4.2856,0,0,1-1.08008-3.10352,9.2522,9.2522,0,0,1,.7666-3.70605,6.85557,6.85557,0,0,1,2.0293-2.75977,4.42769,4.42769,0,0,1,2.78613-.98632,3.52934,3.52934,0,0,1,2.36328.68359,2.38258,2.38258,0,0,1,.792,1.90625,3.26094,3.26094,0,0,1-1.70605,2.9043,9.34989,9.34989,0,0,1-4.88281,1.05273h-.33887l-.041.82227a3.18422,3.18422,0,0,0,.63184,2.10254,2.40954,2.40954,0,0,0,1.958.75488,5.09774,5.09774,0,0,0,1.33105-.18457,10.15348,10.15348,0,0,0,1.70117-.67871v1.501a9.252,9.252,0,0,1-1.70605.63184A6.90878,6.90878,0,0,1,130.17068,250.84972Zm1.42871-10.207a2.74784,2.74784,0,0,0-1.98828.96582,6.31974,6.31974,0,0,0-1.42383,2.68262h.12305a8.38688,8.38688,0,0,0,3.59278-.61133,1.91929,1.91929,0,0,0,1.249-1.77246,1.20294,1.20294,0,0,0-.375-.90527A1.65668,1.65668,0,0,0,131.59939,240.64269Z" fill="#232323"/><path d="M137.8074,250.64367h-1.72656l3.41211-15.99316h1.72754Z" fill="#232323"/><path d="M143.17264,250.64367h-1.72657l2.40528-11.26563h1.72656Zm1.16211-14.14356a1.35263,1.35263,0,0,1,.32812-.94042,1.09638,1.09638,0,0,1,.85352-.36426.80834.80834,0,0,1,.90429.9248,1.395,1.395,0,0,1-.34375.95606,1.03694,1.03694,0,0,1-.79687.39062.95065.95065,0,0,1-.67871-.252A.93621.93621,0,0,1,144.33475,236.50011Z" fill="#232323"/><path d="M153.6785,250.64367,155.2,243.53136a9.39784,9.39784,0,0,0,.20508-1.48046,1.46064,1.46064,0,0,0-.36524-1.03809,1.52873,1.52873,0,0,0-1.166-.39062,3.04507,3.04507,0,0,0-1.7832.61621,5.49225,5.49225,0,0,0-1.53223,1.75781,9.27807,9.27807,0,0,0-1.00195,2.76562l-1.03809,4.88184h-1.72656l2.40527-11.26563h1.42871l-.22656,2.08692h.10351a6.87,6.87,0,0,1,1.90625-1.77344,3.833,3.833,0,0,1,1.90625-.51855,2.88278,2.88278,0,0,1,2.06153.71386,2.62361,2.62361,0,0,1,.75488,2,8.40019,8.40019,0,0,1-.23633,1.84961l-1.46972,6.90723Z" fill="#232323"/><path d="M163.39041,250.84972a3.92791,3.92791,0,0,1-2.96973-1.12109,4.28564,4.28564,0,0,1-1.08007-3.10352,9.252,9.252,0,0,1,.7666-3.70605,6.85555,6.85555,0,0,1,2.02929-2.75977,4.42773,4.42773,0,0,1,2.78614-.98632,3.52935,3.52935,0,0,1,2.36328.68359,2.38258,2.38258,0,0,1,.792,1.90625,3.261,3.261,0,0,1-1.70605,2.9043,9.34991,9.34991,0,0,1-4.88282,1.05273h-.33886l-.041.82227a3.18422,3.18422,0,0,0,.63184,2.10254,2.40952,2.40952,0,0,0,1.958.75488,5.09787,5.09787,0,0,0,1.33106-.18457,10.15382,10.15382,0,0,0,1.70117-.67871v1.501a9.252,9.252,0,0,1-1.70605.63184A6.90878,6.90878,0,0,1,163.39041,250.84972Zm1.42871-10.207a2.74782,2.74782,0,0,0-1.98828.96582,6.31952,6.31952,0,0,0-1.42383,2.68262h.123a8.38683,8.38683,0,0,0,3.59277-.61133,1.9193,1.9193,0,0,0,1.249-1.77246,1.20294,1.20294,0,0,0-.375-.90527A1.65668,1.65668,0,0,0,164.81912,240.64269Z" fill="#232323"/><path d="M180.75174,239.19347a2.99812,2.99812,0,0,1,2.88769,1.95313h.10254a23.90027,23.90027,0,0,1,.46289-2.81641l.80176-3.67968h1.70606l-3.39161,15.99316h-1.42871l.22559-2.14844h-.082a7.735,7.735,0,0,1-1.94239,1.81934,3.63109,3.63109,0,0,1-1.87109.53515,2.69185,2.69185,0,0,1-2.23047-1.00781,4.382,4.382,0,0,1-.80176-2.7959,10.65615,10.65615,0,0,1,.74024-4.02929,6.723,6.723,0,0,1,1.999-2.82618A4.43082,4.43082,0,0,1,180.75174,239.19347ZM178.79861,249.421a2.99335,2.99335,0,0,0,1.99414-.96191,6.7589,6.7589,0,0,0,1.62891-2.45606,8.11324,8.11324,0,0,0,.60156-3.04785,2.46059,2.46059,0,0,0-.55566-1.7373,2.10082,2.10082,0,0,0-1.61328-.5957,2.74939,2.74939,0,0,0-1.92774.84765,5.96858,5.96858,0,0,0-1.42871,2.38477,9.69614,9.69614,0,0,0-.53906,3.23242Q176.95877,249.42052,178.79861,249.421Z" fill="#232323"/><path d="M192.90115,239.173a2.90712,2.90712,0,0,1,1.68555.50879,3.30634,3.30634,0,0,1,1.15137,1.46484h.1123l.68945-1.76856h1.30469L195.45,250.64367h-1.36719l.26758-2.14844h-.083q-1.83984,2.354-3.875,2.35449a2.70961,2.70961,0,0,1-2.24023-1.01757,4.35268,4.35268,0,0,1-.8125-2.78614,10.60272,10.60272,0,0,1,.73047-3.96777,6.85119,6.85119,0,0,1,2.01465-2.86719A4.3802,4.3802,0,0,1,192.90115,239.173ZM190.948,249.421a2.89381,2.89381,0,0,0,1.9834-.95117,7.042,7.042,0,0,0,1.60351-2.47754,8.10544,8.10544,0,0,0,.61719-3.05761,2.39489,2.39489,0,0,0-.57617-1.68555,1.95493,1.95493,0,0,0-1.51075-.627,2.83169,2.83169,0,0,0-1.98925.88378,5.95906,5.95906,0,0,0-1.44336,2.39454,9.6546,9.6546,0,0,0-.52442,3.18652,2.70089,2.70089,0,0,0,.48243,1.75293A1.6694,1.6694,0,0,0,190.948,249.421Z" fill="#232323"/><path d="M202.284,249.44152a5.58574,5.58574,0,0,0,1.48047-.26758v1.32617a4.75081,4.75081,0,0,1-.86328.2461,4.454,4.454,0,0,1-.82226.10351,2.85742,2.85742,0,0,1-1.96875-.6123,2.32344,2.32344,0,0,1-.6836-1.82422,7.477,7.477,0,0,1,.18555-1.542l1.30566-6.1875H199.1492l.14453-.75,1.90137-.80176,1.28418-2.34375h1.00781l-.56543,2.58984h2.81641l-.26758,1.30567h-2.80567l-1.32617,6.208a7.33791,7.33791,0,0,0-.18457,1.35742,1.219,1.219,0,0,0,.29785.88379A1.10525,1.10525,0,0,0,202.284,249.44152Z" fill="#232323"/><path d="M211.618,239.173a2.90712,2.90712,0,0,1,1.68555.50879,3.30625,3.30625,0,0,1,1.15136,1.46484h.11231l.68945-1.76856h1.30469l-2.39453,11.26563h-1.36719l.26758-2.14844h-.083q-1.83984,2.354-3.875,2.35449a2.70961,2.70961,0,0,1-2.24023-1.01757,4.35268,4.35268,0,0,1-.8125-2.78614,10.60291,10.60291,0,0,1,.73046-3.96777,6.85128,6.85128,0,0,1,2.01465-2.86719A4.38022,4.38022,0,0,1,211.618,239.173Zm-1.95313,10.248a2.89377,2.89377,0,0,0,1.9834-.95117,7.04189,7.04189,0,0,0,1.60352-2.47754,8.10544,8.10544,0,0,0,.61719-3.05761,2.3949,2.3949,0,0,0-.57618-1.68555,1.95491,1.95491,0,0,0-1.51074-.627,2.83171,2.83171,0,0,0-1.98926.88378,5.95918,5.95918,0,0,0-1.44336,2.39454,9.65459,9.65459,0,0,0-.52441,3.18652,2.70089,2.70089,0,0,0,.48242,1.75293A1.66943,1.66943,0,0,0,209.66482,249.421Z" fill="#232323"/><path d="M86.6082,145.68669a65.49084,65.49084,0,0,1,5.45776-3.93408c1.67651-1.1156,3.68652-2.33167,5.87744-3.5647,1.10791-.594,2.23511-1.24011,3.42383-1.814q.88476-.4433,1.78076-.89258l1.82446-.837c1.21-.57617,2.45289-1.07666,3.67334-1.57519,1.21-.52393,2.44288-.933,3.61988-1.36768,1.17163-.45068,2.34082-.78027,3.43652-1.12805q.82361-.25415,1.6001-.49365.78588-.202,1.51587-.38977c.97314-.24341,1.8584-.49292,2.654-.66724.79883-.16,1.49536-.29956,2.06885-.41455l1.80127-.36084s-.65186.14649-1.79248.403c-.57007.12818-1.26221.2837-2.05616.46216-.79028.19275-1.66894.46265-2.634.72815q-.72254.204-1.50244.42407-.76758.25654-1.58472.52979c-1.08447.37231-2.24072.72742-3.39819,1.2041-1.16235.46057-2.37915.89588-3.572,1.44592-1.20313.52466-2.42749,1.051-3.61743,1.65259l-1.79419.87439q-.87927.46656-1.749.92847c-1.16748.59741-2.27246,1.26587-3.35815,1.881-2.14624,1.2749-4.11108,2.52734-5.74561,3.671a64.46635,64.46635,0,0,0-5.28564,3.99963Z" fill="#39ae4a"/><path d="M118.73718,137.21145a11.63048,11.63048,0,0,1,1.02539-1.8606,15.90858,15.90858,0,0,1,3.03687-3.41272c.30469-.281.65332-.50952.97412-.75867.32324-.24658.675-.44238.99609-.656.32325-.21118.66578-.366.97315-.53845a8.99363,8.99363,0,0,1,.90015-.42054c.28466-.11621.53466-.24695.77441-.31921.23608-.07947.44214-.1488.61182-.20581.33813-.11377.53149-.17871.53149-.17871s-.188.07959-.5166.219l-.59131.25073c-.231.08936-.47046.23877-.74219.37488a8.81,8.81,0,0,0-.85449.48206c-.28979.19324-.61206.36914-.9126.60034-.29834.23376-.625.44885-.9209.71338-.29345.26684-.61279.51172-.88671.807a15.21754,15.21754,0,0,0-2.65113,3.47937,10.52212,10.52212,0,0,0-.81054,1.77331Z" fill="#39ae4a"/><path d="M148.12206,144.65126a31.93931,31.93931,0,0,0-2.01636-3.05261c-.32129-.44873-.68652-.92212-1.07935-1.4187-.38427-.50342-.82812-1.00244-1.26684-1.53686-.46656-.50916-.92847-1.05616-1.4375-1.57386-.5083-.51831-1.01367-1.05761-1.56153-1.55261-.53149-.51318-1.07934-1.00854-1.64111-1.47058-.54517-.48315-1.11157-.92065-1.66675-1.33606-.543-.4331-1.09668-.81055-1.62793-1.16052-.52441-.36109-1.02636-.69348-1.51367-.96094-.4812-.27869-.92212-.53418-1.31323-.7605-.40552-.19946-.759-.37341-1.05029-.5166-.58326-.28674-.91651-.45068-.91651-.45068s.33985.14966.93457.41174c.29761.1311.65943.29053,1.074.47327.40161.21045.85473.44787,1.34887.707.50122.24841,1.019.56067,1.56153.90149.54931.32971,1.12353.68664,1.68823,1.09936.57715.39514,1.16748.81287,1.73779,1.27674.58716.44311,1.16138.92016,1.72046,1.416.57569.478,1.10938,1.001,1.64649,1.50452.53759.50317,1.02856,1.0365,1.52368,1.53393.46753.52247.93969,1.01111,1.3518,1.50562.42017.48755.812.95361,1.15845,1.39673a33.01608,33.01608,0,0,1,2.20459,3.05261Z" fill="#39ae4a"/><path d="M17.57748,148.271l.1725.20621c3.54395-2.585,12.17745-6.29713,20.27923-6.51944a38.15108,38.15108,0,0,1,10.86887,1.55208c3.87447,1.07585,7.71311,2.2197,11.42268,3.32107,4.82358,1.43237,9.812,2.912,14.88713,4.25518a19.58738,19.58738,0,0,0-7.632-4.60076l4.6485-1.775V142.4548a3.03095,3.03095,0,0,1-2-2.87113v-5.21581a3.03123,3.03123,0,0,1,2,2.87125v-6.50623a3.031,3.031,0,0,1-2-2.87125v-2.87125a3.03111,3.03111,0,0,1,2,2.87125v-4.86848a3.031,3.031,0,0,1-2-2.87125V119.595a3.03125,3.03125,0,0,1,2,2.87131v-1.18393h2v1.18393a3.03182,3.03182,0,0,1,2-2.87131v.52694a3.031,3.031,0,0,1-2,2.87125v4.86848a3.03173,3.03173,0,0,1,2-2.87125v2.87125a3.0316,3.0316,0,0,1-2,2.87125v6.50623a3.03186,3.03186,0,0,1,2-2.87125v5.21581a3.03157,3.03157,0,0,1-2,2.87113v1.81651l9-3.38617v-5.05448c-2-.27187-3-1.4558-3-2.87113v-5.21568c2,.27188,3,1.45581,3,2.87125v-6.50623c-2-.27212-3-1.45581-3-2.87125v-2.87131c2,.27193,3,1.4558,3,2.87131v-4.86848c-2-.272-3-1.45593-3-2.87131v-.52694c2,.272,3,1.4558,3,2.87131v-.55986h1v.55986a3.03111,3.03111,0,0,1,2-2.87131v.52694a3.03125,3.03125,0,0,1-2,2.87131v4.86848a3.03168,3.03168,0,0,1,2-2.87131v2.87131a3.032,3.032,0,0,1-2,2.87125v6.50623a3.031,3.031,0,0,1,2-2.87125v5.21568a3.03143,3.03143,0,0,1-2,2.87113v4.6155l9-3.29146v-1.35459c-2-.272-3-1.45593-3-2.87125v-5.21568c2,.27187,3,1.45581,3,2.87113V124.0782c-2-.272-3-1.45593-3-2.87131V118.3357c2,.27181,3,1.4558,3,2.87119v-4.86848c-2-.272-3-1.45581-3-2.87138v-.52675c2,.27187,3,1.4558,3,2.87119v-.52913h1v.52913a3.03152,3.03152,0,0,1,2-2.87119v.52675a3.03116,3.03116,0,0,1-2,2.87138v4.86848a3.03139,3.03139,0,0,1,2-2.87119v2.87119a3.03189,3.03189,0,0,1-2,2.87131v6.50611a3.03157,3.03157,0,0,1,2-2.87113v5.21568a3.03186,3.03186,0,0,1-2,2.87125v.91574l14.28214-5.22734c.51921-.18427,1.71786-.44351,2.71786-.73023v-3.69645c-2-.4575-5-2.44957-5-4.83112v-8.776c3,.45763,5,2.44976,5,4.83131V107.33843c-2-.45737-5-2.44951-5-4.83106v-4.8313c3,.45762,5,2.44958,5,4.8313v-7.848c-4-.45977-5-2.45012-5-4.82958v-.88654c3,.45339,5,2.41455,5,4.76689v-1.4278h2v1.13151c0-2.21665,2-4.03666,4-4.4706v.88654a5.268,5.268,0,0,1-4,4.82185v7.85573a5.25607,5.25607,0,0,1,4-4.8313v4.8313a5.25552,5.25552,0,0,1-4,4.83106V118.286a5.25626,5.25626,0,0,1,4-4.83131v8.776a5.25578,5.25578,0,0,1-4,4.83112v3.1992a45.24556,45.24556,0,0,1,12.276-1.97869h.13643c.64852,0,2.58759.3721,3.58759.41307v-7.20505c-3-.45763-4-2.44958-4-4.83113v-8.776a5.255,5.255,0,0,1,4,4.8313V101.767c-3-.45763-4-2.44952-4-4.83106V92.10459a5.255,5.255,0,0,1,4,4.83131V87.28234h.92607c.19017-2,3.07393-3.82634,5.07393-4.25606v.8866a5.30423,5.30423,0,0,1-4,4.79554V96.9359c0-2.38063,1-4.37368,4-4.83131V96.9359a5.256,5.256,0,0,1-4,4.83106v10.94757c0-2.38173,1-4.37368,4-4.8313v8.776a5.25586,5.25586,0,0,1-4,4.83113v7.34A60.82494,60.82494,0,0,1,143.8488,131.507c.87034.28451,1.37559.60963,2.37559.94015v-2.28407a5.25522,5.25522,0,0,1-4-4.8313V116.556c3,.45744,4,2.44958,4,4.83112V110.43979a5.25524,5.25524,0,0,1-4-4.83131v-4.83112c3,.45738,4,2.44958,4,4.83112V95.28234h1.013c.41763-2,2.987-3.196,4.987-3.58329v.88636a5.33992,5.33992,0,0,1-4,4.76928v8.25379a5.25555,5.25555,0,0,1,4-4.83112v4.83112c0,2.38063-1,4.37368-4,4.83131v10.94732a5.2558,5.2558,0,0,1,4-4.83112v8.77583c0,2.38148-1,4.37257-4,4.8313v3.09332a69.00407,69.00407,0,0,1,7.82666,3.9363l9.559-23.82815-.00959-.32727c2.12961-9.145,7.26124-22.37878,12.12972-23.16521,2.47092-.36708,4.85737,2.752,6.50334,5.44763,2.32836,3.80564,4.621,7.84493,6.85022,11.74142,2.89861,5.06711,5.88928,10.32487,8.93929,15.07655,0,0-1.83968-11.50745-4.53095-16.21178L219.565,53.041c1.30882-2.73439,5.778-9.75861,10.67227-9.75861h.0822c4.26363,0,7.98326,5.25053,10.359,9.82081,4.72175,9.08475,9.30927,24.48327,14.16474,40.95926l1.14468,3.87359,3.09761-5.15134c-1.38244-4.7-2.74746-9.34124-4.09972-13.77331,1.85773-4.16444,4.75634-8.8039,8.33292-8.48847,6.92055.49683,15.28807,16.19281,19.06806,30.53018,3.7216,14.1045,16.63223,36.6355,24.60765,49.76243A151.99773,151.99773,0,0,0,264.69871,49.05a4.75548,4.75548,0,0,1-2.31241.62453l-17.09722.04812a5.6676,5.6676,0,0,1-4.10291-9.57713l.09619-.10851a5.633,5.633,0,0,1,3.92207-1.66052,5.5323,5.5323,0,0,1,1.20331-1.86466,5.76025,5.76025,0,0,1,2.12912-1.39582c.03951-.19973.106-.38965.162-.58362a152.93589,152.93589,0,0,0-12.69593-8.96728,7.33617,7.33617,0,0,1-4.56,1.69843l-28.43132.08465a8.37726,8.37726,0,0,1-5.9312-2.45454l-.024-.01184a8.41028,8.41028,0,0,1-.02429-11.87546l.02429-.02386a8.39129,8.39129,0,0,1,5.95524-2.46688l.5781.02429c.04343-.14771.10478-.28709.15606-.4313a152.30719,152.30719,0,0,0-48.48922-8.11724,16.39917,16.39917,0,0,1-14.18388,8.174A16.36906,16.36906,0,0,1,128.4321,4.21029q-2.84769.49044-5.65858,1.08584a1.27706,1.27706,0,0,1-.60092.83017l-4.43319,2.56576a1.28424,1.28424,0,0,1-1.7397-.47014,1.25377,1.25377,0,0,1,.0633-1.35128A152.49248,152.49248,0,0,0,40.665,53.00236a43.00123,43.00123,0,0,1,6.26269-.45694,42.11163,42.11163,0,0,1,29.9762,12.41644l-2.21917,2.21923a38.99548,38.99548,0,0,0-27.757-11.497,39.63077,39.63077,0,0,0-9.59365,1.33825,140.02072,140.02072,0,0,0-21.52378,34.26h2.48246a1.72866,1.72866,0,0,1,1.4347.50925,1.68635,1.68635,0,0,1,.39653,1.45254l-3.37906,17.71805a1.70369,1.70369,0,0,1-1.83147,1.32016h-7.111a149.06086,149.06086,0,0,0-5.836,42H2.698ZM172.05383,49.52252a1.13148,1.13148,0,0,1,1.128,1.12811c0,.62037-.33548,1.12811-.95579,1.12811a4.03473,4.03473,0,0,0-4.00163,4.17352v1.41a1.00725,1.00725,0,1,1-2,0v-1.489a4.44591,4.44591,0,0,0-4.47376-4.17376,1.26966,1.26966,0,0,1-1.27807-1.12787,1.06931,1.06931,0,0,1,1.05294-1.12811,6.34411,6.34411,0,0,1,5.28661,2.84267A6.366,6.366,0,0,1,172.05383,49.52252ZM159.51494,4.386a1.26819,1.26819,0,0,1,1.74019-.457l4.43294,2.55281A1.2746,1.2746,0,0,1,164.418,8.69206L159.98508,6.1263A1.27242,1.27242,0,0,1,159.51494,4.386Zm-.4672,67.05377a6.40844,6.40844,0,0,1,5.27924-2.7523,1.124,1.124,0,0,1,1.12774,1.12811c0,.62037.02806,1.12805-.59224,1.12805-2.30137,0-3.63809,1.87227-3.63809,4.17351v1.41011a1.00725,1.00725,0,1,1-2,0V75.03817c0-2.30124-2.53606-4.17376-4.83718-4.17376-.62031,0-1.45979-.50749-1.45979-1.12786,0-.63172.34178-1.12811.96209-1.12811A6.10939,6.10939,0,0,1,159.04774,71.43975Zm-7.3313-59.25491a1.26824,1.26824,0,0,1,1.7402.45714l2.56563,4.44569a1.26909,1.26909,0,1,1-2.19757,1.27006L151.25931,13.912A1.261,1.261,0,0,1,151.71644,12.18484Zm-5.49205,84.8946a5.255,5.255,0,0,1-4-4.8313v-.88636a5.25463,5.25463,0,0,1,4,4.83106Zm-5-80.7793c0-.69845.3013-1.27,1.00013-1.27.71109,0,.99987.57135.99987,1.27V21.4316c0,.69846-.28878,1.27006-.99987,1.27006-.69883,0-1.00013-.5716-1.00013-1.27006Zm-6.28225,41.1186a6.41084,6.41084,0,0,1,5.32414,2.84248,6.43436,6.43436,0,0,1,5.27923-2.76371,1.13148,1.13148,0,0,1,1.128,1.12811c0,.62036-.08145,1.12811-.70176,1.12811-2.30112,0-3.74735,1.87245-3.74735,4.1737v1.40986a1.00727,1.00727,0,1,1-2,0V63.84823c0-2.30125-2.42654-4.17352-4.72791-4.17352-.62031,0-1.40516-.50768-1.40516-1.128S134.32183,57.41874,134.94214,57.41874ZM126.1354,17.08767,128.701,12.642a1.269,1.269,0,0,1,2.19733,1.27006l-2.56563,4.44569a1.269,1.269,0,1,1-2.19733-1.27006Zm-.911,65.93861a5.25493,5.25493,0,0,1,4,4.83131v.8866a5.25523,5.25523,0,0,1-4-4.83131ZM46.92772,64.34591a27.47964,27.47964,0,0,1,19.561,8.10227l-2.21893,2.21917a24.5263,24.5263,0,0,0-34.68395,0L27.3667,72.44818A27.48509,27.48509,0,0,1,46.92772,64.34591ZM39.794,81.9467l-2.21893-2.219a13.2414,13.2414,0,0,1,18.70737,0l-2.21917,2.219A10.10286,10.10286,0,0,0,39.794,81.9467Zm9.79265,8.32936a2.65814,2.65814,0,1,1-2.65888-2.65894A2.66088,2.66088,0,0,1,49.5866,90.27606ZM22.55613,97.19661l2.52589-.6462a14.90732,14.90732,0,0,1,8.36261.2866A156.15765,156.15765,0,0,0,50.177,101.574l3.42665.77919a2.58018,2.58018,0,0,1-.50424,5.0949A41.86,41.86,0,0,1,33.503,103.07051l-1.40379,2.80764A44.54362,44.54362,0,0,0,51.99447,110.602c.412,0,.81219-.00614,1.19374-.01687a5.69729,5.69729,0,0,0,3.6021-1.42949l12.946-5.08527a5.84553,5.84553,0,0,1,6.53138,2.40467l-.07484.25752L50.21059,118.50286a8.01162,8.01162,0,0,1-6.12234.21764l-23.92256-8.85041Z" fill="#39ae4a"/></g></g></svg>