<svg id="Layer_1" data-name="Layer 1" xmlns="http://www.w3.org/2000/svg" xmlns:xlink="http://www.w3.org/1999/xlink" viewBox="0 0 147 146"><defs><linearGradient id="linear-gradient" x1="5490.992" y1="4927.36116" x2="5491.992" y2="4927.36116" gradientTransform="matrix(103.3135, 103.3135, 103.3135, -103.3135, -1076334.66595, -58209.3661)" gradientUnits="userSpaceOnUse"><stop offset="0" stop-color="#c9b899"/><stop offset="0.18779" stop-color="#c6b798"/><stop offset="0.34018" stop-color="#bcb395"/><stop offset="0.4802" stop-color="#abac91"/><stop offset="0.61284" stop-color="#93a28a"/><stop offset="0.74019" stop-color="#749581"/><stop offset="0.86361" stop-color="#4e8576"/><stop offset="0.9818" stop-color="#22736a"/><stop offset="1" stop-color="#1a7068"/></linearGradient><clipPath id="clip-path"><path d="M122.06189,72.8941A48.49975,48.49975,0,1,1,73.5624,24.394a48.49934,48.49934,0,0,1,48.49949,48.5001" fill="none"/></clipPath></defs><circle cx="73.4928" cy="72.9505" r="72.0537" fill="#fff"/><path d="M1.4391,72.9505h-1A73.0536,73.0536,0,1,0,73.4928-.1032,73.0538,73.0538,0,0,0,.4391,72.9505H2.4389A71.05388,71.05388,0,1,1,23.2501,123.193,70.829,70.829,0,0,1,2.4389,72.9505Z" fill="url(#linear-gradient)"/><path d="M122.028,72.8577A48.51615,48.51615,0,1,1,73.5114,24.3416,48.51627,48.51627,0,0,1,122.028,72.8577Z" fill="#39ae4a"/><path d="M33.29,31.45215l2.25976,2.56933-1.05957.93067L28.833,28.51953l1.83008-1.6084a4.021,4.021,0,0,1,2.26757-1.166,2.22086,2.22086,0,0,1,1.84082.87793,2.34518,2.34518,0,0,1,.24707,2.81738l4.333,1.2373L38.14648,31.7373l-3.81054-1.20507Zm-.76563-.8711.73536-.64746a2.2477,2.2477,0,0,0,.832-1.21484,1.31371,1.31371,0,0,0-.37989-1.10156,1.15761,1.15761,0,0,0-1.04687-.46875,2.63546,2.63546,0,0,0-1.29.71289l-.7002.61621Z" fill="#4d4d4d"/><path d="M44.41406,27.31494l-4.04394,2.73242L35.5752,22.94922l4.04394-2.73242.66211.98047-2.875,1.94238,1.30566,1.93262,2.69434-1.81934.65625.9707L39.36816,26.043l1.50489,2.22851,2.875-1.94238Z" fill="#4d4d4d"/><path d="M49.2666,22.09473a2.14876,2.14876,0,0,1,.08106,1.97461,3.636,3.636,0,0,1-1.74317,1.62988,5.52974,5.52974,0,0,1-2.33594.6958l-.60644-1.17725a6.57064,6.57064,0,0,0,1.3125-.18847,5.37714,5.37714,0,0,0,1.17187-.42578,1.97858,1.97858,0,0,0,.95411-.84766,1.03,1.03,0,0,0-.03418-.9375,1.06664,1.06664,0,0,0-.69825-.55664,5.52734,5.52734,0,0,0-1.70605-.01074,4.02138,4.02138,0,0,1-1.97656-.20215,2.2858,2.2858,0,0,1-1.09961-1.08057,2.04627,2.04627,0,0,1-.0918-1.85107A3.201,3.201,0,0,1,44.044,17.627a6.0699,6.0699,0,0,1,2.44042-.65039l.123,1.22119a5.42238,5.42238,0,0,0-2.04492.51319,1.57988,1.57988,0,0,0-.78809.73877.96916.96916,0,0,0,.04395.85693,1.09241,1.09241,0,0,0,.38672.44336,1.45853,1.45853,0,0,0,.62012.18457,7.7578,7.7578,0,0,0,1.29492-.04,6.44451,6.44451,0,0,1,1.57129.01367,2.15724,2.15724,0,0,1,.92968.38526A2.30339,2.30339,0,0,1,49.2666,22.09473Z" fill="#4d4d4d"/><path d="M57.60937,16.916a4.66524,4.66524,0,0,1,.06543,3.41748,4.44825,4.44825,0,0,1-5.65234,1.96093,4.69,4.69,0,0,1-2.05762-2.751,4.6172,4.6172,0,0,1-.06738-3.42359,3.89312,3.89312,0,0,1,2.46973-2.05542,3.818,3.818,0,0,1,3.1875.12036A4.663,4.663,0,0,1,57.60937,16.916Zm-6.22363,2.14941a3.81828,3.81828,0,0,0,1.38965,2.05811,2.62849,2.62849,0,0,0,3.59668-1.23292,3.8281,3.8281,0,0,0-.17871-2.48535,3.85179,3.85179,0,0,0-1.37988-2.05273A2.25148,2.25148,0,0,0,52.75977,15.2a2.29438,2.29438,0,0,0-1.544,1.39478A3.7769,3.7769,0,0,0,51.38574,19.06543Z" fill="#4d4d4d"/><path d="M65.88184,11.062l.93457,5.46362a3.27194,3.27194,0,0,1-.125,1.70655A2.72519,2.72519,0,0,1,65.707,19.512a4.13805,4.13805,0,0,1-1.76367.69068,3.48448,3.48448,0,0,1-2.60254-.41114,3.04027,3.04027,0,0,1-1.26855-2.137l-.93067-5.44043,1.39551-.23852.91406,5.34228a2.15382,2.15382,0,0,0,.751,1.45874,2.05241,2.05241,0,0,0,1.585.24,1.801,1.801,0,0,0,1.61523-2.38623l-.91113-5.33081Z" fill="#4d4d4d"/><path d="M70.86426,15.87305l.07812,3.4209-1.41015.03247-.19629-8.56421,2.43554-.05591a4.025,4.025,0,0,1,2.48633.56421,2.22181,2.22181,0,0,1,.84473,1.856,2.345,2.345,0,0,1-1.62207,2.31739l2.52246,3.73388-1.60352.03711-2.14355-3.37353Zm-.02735-1.15967.97852-.02246a2.25043,2.25043,0,0,0,1.41992-.39624,1.31192,1.31192,0,0,0,.417-1.08814,1.15689,1.15689,0,0,0-.501-1.03174,2.63738,2.63738,0,0,0-1.44629-.28295l-.93164.02124Z" fill="#4d4d4d"/><path d="M81.53223,12.30347a2.3288,2.3288,0,0,0-1.99414.63916,3.62932,3.62932,0,0,0-.95215,2.26977,3.65975,3.65975,0,0,0,.40136,2.44434,2.3753,2.3753,0,0,0,1.83692,1.01758,5.15061,5.15061,0,0,0,1.06836.00976q.52147-.05127,1.09082-.15869l-.13184,1.19385a6.5178,6.5178,0,0,1-2.33008.124,3.6885,3.6885,0,0,1-2.76464-1.45361,4.74436,4.74436,0,0,1-.64844-3.353,5.22547,5.22547,0,0,1,.749-2.269,3.49237,3.49237,0,0,1,1.585-1.36841,4.32933,4.32933,0,0,1,2.2334-.28833,5.46394,5.46394,0,0,1,2.36817.81738L83.41016,13.031a7.61569,7.61569,0,0,0-.877-.46021A3.35249,3.35249,0,0,0,81.53223,12.30347Z" fill="#4d4d4d"/><path d="M89.39258,21.42969l-4.74219-1.15137,2.02051-8.32471L91.41309,13.105l-.2793,1.15039L87.7627,13.437l-.54981,2.26563,3.15918.76709-.27637,1.13916-3.15918-.76709-.63476,2.61377,3.37109.81836Z" fill="#4d4d4d"/><path d="M103.71777,18.14746l-2.33593,5.02637a3.26744,3.26744,0,0,1-1.07227,1.334,2.71721,2.71721,0,0,1-1.53613.49414,4.14125,4.14125,0,0,1-1.84473-.43359A3.48866,3.48866,0,0,1,95.01953,22.751a3.04458,3.04458,0,0,1,.16992-2.4795l2.32617-5.00488,1.28418.5957-2.28418,4.916a2.15891,2.15891,0,0,0-.21,1.627,2.05351,2.05351,0,0,0,1.16895,1.09864,1.80137,1.80137,0,0,0,2.68457-1.0459l2.2793-4.90528Z" fill="#4d4d4d"/><path d="M107.36719,27.71289a2.14807,2.14807,0,0,1-1.6709,1.05566,3.64255,3.64255,0,0,1-2.28223-.69726,5.52169,5.52169,0,0,1-1.76953-1.67676l.71777-1.11328a6.57494,6.57494,0,0,0,.81934,1.043,5.29491,5.29491,0,0,0,.95313.80273,1.988,1.988,0,0,0,1.21093.40528,1.02915,1.02915,0,0,0,.79492-.498,1.06366,1.06366,0,0,0,.13379-.88379,5.53265,5.53265,0,0,0-.84082-1.4834,3.99684,3.99684,0,0,1-.81152-1.8125,2.29225,2.29225,0,0,1,.3877-1.49316,2.04053,2.04053,0,0,1,1.55957-1.00195,3.19146,3.19146,0,0,1,2.06347.59863,6.06728,6.06728,0,0,1,1.78125,1.79l-.99707.71582a5.41084,5.41084,0,0,0-1.46387-1.51563,1.59375,1.59375,0,0,0-1.03417-.31445.96884.96884,0,0,0-.72168.46582,1.10015,1.10015,0,0,0-.19043.55664,1.46055,1.46055,0,0,0,.14941.62891,7.80508,7.80508,0,0,0,.68066,1.10156,6.4201,6.4201,0,0,1,.77246,1.36914,2.17721,2.17721,0,0,1,.12989.99805A2.3103,2.3103,0,0,1,107.36719,27.71289Z" fill="#4d4d4d"/><path d="M111.24316,33.76172l-3.76171-3.10938,5.458-6.60254,3.76172,3.1084-.75488.91211-2.67481-2.21-1.48535,1.79785,2.50586,2.07129-.74707.90332-2.50586-2.07129-1.71289,2.07325,2.67481,2.21Z" fill="#4d4d4d"/><g clip-path="url(#clip-path)"><path d="M97.7252,35.115a4.83159,4.83159,0,0,1,8.212,3.0806,4.88052,4.88052,0,0,1,2.02929,2.1724,3.68555,3.68555,0,0,1,2.3212,3.5312,4.691,4.691,0,0,1-1.1992,2.9478,3.597,3.597,0,0,1-2.65129,1.3144l-12.9971.0391a3.83153,3.83153,0,0,1-2.7119-1.1221l-.0108-.0054a3.846,3.846,0,0,1-.0107-5.4292l.0107-.0107a3.836,3.836,0,0,1,2.7227-1.1274l.2646.0107a3.77712,3.77712,0,0,1,.918-1.5732,3.88181,3.88181,0,0,1,1.6992-1.0284,4.85427,4.85427,0,0,1,1.4033-2.7998m17.42389,14.9702a3.1829,3.1829,0,0,1,5.3955,1.8804,3.25584,3.25584,0,0,1,.6211.5005,3.20636,3.20636,0,0,1,.539.7593,2.5733,2.5733,0,0,1,.9571.7593l.0439.0551a2.53266,2.53266,0,0,1,.4678,1.523,3.12981,3.12981,0,0,1-.792,1.9585,2.43386,2.43386,0,0,1-1.7988.8852l-7.8155.022a2.59089,2.59089,0,0,1-1.8759-4.3779l.0439-.0498a2.57446,2.57446,0,0,1,1.793-.7588,2.52175,2.52175,0,0,1,.55081-.8526,2.62092,2.62092,0,0,1,.97259-.6381A3.19661,3.19661,0,0,1,115.14909,50.0852Z" fill="#fff" fill-rule="evenodd"/><path d="M73.1237,39.1263V41.472a.5806.5806,0,1,1-1.1612,0V39.1263a.5806.5806,0,1,1,1.1612,0Z" fill="#fff"/><path d="M80.0504,28.8142a7.50485,7.50485,0,1,1-7.5078-7.5019A7.50839,7.50839,0,0,1,80.0504,28.8142Z" fill="#fff"/><path d="M84.0104,35.4334a.58636.58636,0,0,1-.7949.2148l-2.0264-1.1728a.58.58,0,1,1,.5801-1.0044l2.0264,1.167A.58053.58053,0,0,1,84.0104,35.4334Z" fill="#fff"/><path d="M85.7819,28.8142a.57893.57893,0,0,1-.5811.5806H82.861a.58055.58055,0,0,1,0-1.1611h2.3398A.57891.57891,0,0,1,85.7819,28.8142Z" fill="#fff"/><path d="M79.3776,39.4861a.58041.58041,0,1,1-1.0049.5811l-1.1729-2.0323a.58039.58039,0,0,1,1.0049-.581Z" fill="#fff"/><path d="M75.1032,58.4754a.517.517,0,0,1-.5157.5156,1.9097,1.9097,0,0,0-1.9072,1.9077v.6446a.5161.5161,0,0,1-1.0322,0v-.6807a1.90964,1.90964,0,0,0-1.9072-1.9077.51565.51565,0,1,1,0-1.0313,2.931,2.931,0,0,1,2.4336,1.2993,2.941,2.941,0,0,1,2.413-1.2631A.51672.51672,0,0,1,75.1032,58.4754Z" fill="#fff"/><path d="M64.1178,33.68a.58131.58131,0,0,1-.2148.7954l-2.0264,1.1728a.58268.58268,0,1,1-.581-1.0102l2.0263-1.167A.57986.57986,0,0,1,64.1178,33.68Z" fill="#fff"/><path d="M83.6891,63.5906a.51664.51664,0,0,1-.5156.5156,1.91051,1.91051,0,0,0-1.9082,1.9078v.645a.51565.51565,0,0,1-1.0313,0v-.6812a1.90964,1.90964,0,0,0-1.9072-1.9077.5156.5156,0,0,1,0-1.0312,2.92534,2.92534,0,0,1,2.4336,1.2944,2.92992,2.92992,0,0,1,2.4131-1.2583A.51326.51326,0,0,1,83.6891,63.5906Z" fill="#fff"/><path d="M87.2213,54.8294a.51664.51664,0,0,1-.5156.5156,1.91066,1.91066,0,0,0-1.9082,1.9082v.6445a.5156.5156,0,1,1-1.0312,0v-.6806a1.90977,1.90977,0,0,0-1.9073-1.9082.51565.51565,0,0,1,0-1.0313,2.93014,2.93014,0,0,1,2.4336,1.2998,2.94149,2.94149,0,0,1,2.4131-1.2636A.51664.51664,0,0,1,87.2213,54.8294Z" fill="#fff"/><path d="M62.2311,29.3948H59.8913a.58055.58055,0,1,1,0-1.1611h2.3398a.58055.58055,0,0,1,0,1.1611Z" fill="#fff"/><path d="M67.8922,38.0349l-1.1728,2.0323a.58041.58041,0,1,1-1.0049-.5811l1.1728-2.0322a.5804.5804,0,0,1,1.0049.581Z" fill="#fff"/><path d="M43.6647,101.1429l-.3359.269H45.942l1.2168-.9736a11.9902,11.9902,0,0,1,2.918-1.709A11.22043,11.22043,0,0,0,43.6647,101.1429Z" fill="#fff"/><path d="M65.6676,101.1429a11.22687,11.22687,0,0,0-6.4121-2.4141,11.97921,11.97921,0,0,1,2.918,1.7095l1.2168.9736h2.6133Z" fill="#fff"/><path d="M54.6657,98.7068a11.15273,11.15273,0,0,0-6.9434,2.4361l-.3369.269H61.9459l-.3359-.269A11.15544,11.15544,0,0,0,54.6657,98.7068Z" fill="#fff"/><path d="M54.2155,94.1531v4.103h.9013v-4.103a2.25811,2.25811,0,0,0,1.8038-2.2085V87.9329a2.2577,2.2577,0,0,0-1.8038,2.2085V85.1365a2.25811,2.25811,0,0,0,1.8038-2.2085V80.7195a2.25894,2.25894,0,0,0-1.8038,2.2085V78.4202h-.9013V82.928a2.25854,2.25854,0,0,0-1.8037-2.2085V82.928a2.25761,2.25761,0,0,0,1.8037,2.2085v5.0049a2.25771,2.25771,0,0,0-1.8037-2.2085v4.0117A2.25761,2.25761,0,0,0,54.2155,94.1531Z" fill="#fff"/><path d="M56.9206,76.9749v-.4053a2.2577,2.2577,0,0,0-1.8038,2.2085v.4053A2.2577,2.2577,0,0,0,56.9206,76.9749Z" fill="#fff"/><path d="M54.2155,79.1834v-.4053a2.25771,2.25771,0,0,0-1.8037-2.2085v.4053A2.25761,2.25761,0,0,0,54.2155,79.1834Z" fill="#fff"/><path d="M62.3297,98.118v2.2993h.9024V98.118a2.25829,2.25829,0,0,0,1.8027-2.209V91.8973a2.258,2.258,0,0,0-1.8027,2.2085V89.1014a2.25733,2.25733,0,0,0,1.8027-2.2085V84.6844a2.25716,2.25716,0,0,0-1.8027,2.2085V82.3846h-.9024v4.5083a2.25675,2.25675,0,0,0-1.8027-2.2085v2.2085a2.25691,2.25691,0,0,0,1.8027,2.2085v5.0044a2.25757,2.25757,0,0,0-1.8027-2.2085V95.909A2.25787,2.25787,0,0,0,62.3297,98.118Z" fill="#fff"/><path d="M62.3297,83.1482V82.743a2.25771,2.25771,0,0,0-1.8027-2.209v.4052A2.25771,2.25771,0,0,0,62.3297,83.1482Z" fill="#fff"/><path d="M65.0348,80.9392V80.534a2.25812,2.25812,0,0,0-1.8027,2.209v.4052A2.25771,2.25771,0,0,0,65.0348,80.9392Z" fill="#fff"/><path d="M46.1002,96.8582v2.2993h.9024V96.8582a2.25807,2.25807,0,0,0,1.8027-2.2085V90.6375a2.258,2.258,0,0,0-1.8027,2.2085V87.8416a2.25724,2.25724,0,0,0,1.8027-2.2085V83.4246a2.25724,2.25724,0,0,0-1.8027,2.2085V81.1248h-.9024v4.5083a2.25683,2.25683,0,0,0-1.8027-2.2085v2.2085a2.25683,2.25683,0,0,0,1.8027,2.2085V92.846a2.25766,2.25766,0,0,0-1.8027-2.2085v4.0122A2.25766,2.25766,0,0,0,46.1002,96.8582Z" fill="#fff"/><path d="M48.8053,79.6795v-.4053a2.2582,2.2582,0,0,0-1.8027,2.209v.4053A2.25787,2.25787,0,0,0,48.8053,79.6795Z" fill="#fff"/><path d="M46.1002,81.8885v-.4053a2.25779,2.25779,0,0,0-1.8027-2.209v.4053A2.25787,2.25787,0,0,0,46.1002,81.8885Z" fill="#fff"/><path d="M29.402,103.3738l-.1748.1402h1.3633l.6338-.5074a6.26407,6.26407,0,0,1,1.5224-.8916A5.85458,5.85458,0,0,0,29.402,103.3738Z" fill="#fff"/><path d="M40.8786,103.3738a5.85461,5.85461,0,0,0-3.3448-1.2588,6.20812,6.20812,0,0,1,1.5215.8916l.6348.5074h1.3633Z" fill="#fff"/><path d="M35.1403,102.1033a5.82,5.82,0,0,0-3.6221,1.2705l-.1748.1402h7.5938l-.1749-.1402A5.81968,5.81968,0,0,0,35.1403,102.1033Z" fill="#fff"/><path d="M34.9049,99.7283v2.1397h.4707V99.7283a1.17828,1.17828,0,0,0,.9405-1.1518V96.4837a1.17769,1.17769,0,0,0-.9405,1.1518V95.0257a1.17872,1.17872,0,0,0,.9405-1.1519V92.722a1.1767,1.1767,0,0,0-.9405,1.1518V91.5223h-.4707v2.3515a1.17671,1.17671,0,0,0-.9404-1.1518v1.1518a1.17732,1.17732,0,0,0,.9404,1.1519v2.6098a1.1777,1.1777,0,0,0-.9404-1.1518v2.0928A1.17729,1.17729,0,0,0,34.9049,99.7283Z" fill="#fff"/><path d="M36.3161,90.2908v-.3906a2.26315,2.26315,0,0,0-.9405,2.1289v.3906A2.26519,2.26519,0,0,0,36.3161,90.2908Z" fill="#fff"/><path d="M34.9049,92.4197v-.3906a2.26332,2.26332,0,0,0-.9404-2.1289v.3906A2.26332,2.26332,0,0,0,34.9049,92.4197Z" fill="#fff"/><path d="M39.1373,101.139v1.1997h.4708V101.139a1.17832,1.17832,0,0,0,.9404-1.1519V97.8948a1.17722,1.17722,0,0,0-.9404,1.1519V96.4363a1.17829,1.17829,0,0,0,.9404-1.1518V94.1326a1.17681,1.17681,0,0,0-.9404,1.1519V92.9329h-.4708v2.3516a1.17681,1.17681,0,0,0-.9404-1.1519v1.1519a1.17688,1.17688,0,0,0,.9404,1.1518v2.6104a1.17681,1.17681,0,0,0-.9404-1.1519v2.0923A1.17691,1.17691,0,0,0,39.1373,101.139Z" fill="#fff"/><path d="M39.1373,93.6795v-.3672a2.08484,2.08484,0,0,0-.9404-2.0015v.3672A2.085,2.085,0,0,0,39.1373,93.6795Z" fill="#fff"/><path d="M40.5485,91.678v-.3672a2.08538,2.08538,0,0,0-.9404,2.0015v.3672A2.08688,2.08688,0,0,0,40.5485,91.678Z" fill="#fff"/><path d="M30.6725,101.139v1.1997h.4707V101.139a1.17822,1.17822,0,0,0,.9404-1.1519V97.8948a1.17732,1.17732,0,0,0-.9404,1.1519V96.4363a1.17819,1.17819,0,0,0,.9404-1.1518V94.1326a1.17691,1.17691,0,0,0-.9404,1.1519V92.9329h-.4707v2.3516a1.17691,1.17691,0,0,0-.9404-1.1519v1.1519a1.17688,1.17688,0,0,0,.9404,1.1518v2.6104a1.17691,1.17691,0,0,0-.9404-1.1519v2.0923A1.17691,1.17691,0,0,0,30.6725,101.139Z" fill="#fff"/><path d="M32.0836,91.5901v-.4302c-.5361.2222-.9404,1.189-.9404,2.3438v.4302C31.6784,93.7122,32.0836,92.7454,32.0836,91.5901Z" fill="#fff"/><path d="M30.6725,93.9339v-.4302c0-1.1553-.4043-2.1216-.9404-2.3438v.4302C29.7321,92.7454,30.1364,93.7122,30.6725,93.9339Z" fill="#fff"/><path d="M62.1608,108.6214l8.6836-21.4688.0498-.1572c1.0215-4.3867,3.5098-10.7354,5.8457-11.1128,1.1846-.1758,2.3428,1.3179,3.1328,2.6108,1.1162,1.8257,2.2236,3.7588,3.292,5.628,1.3906,2.4306,2.8291,4.9438,4.292,7.2231,0,0-.8809-5.5366-2.1719-7.7929l11.5479-25.418c.6279-1.312,2.7724-4.7266,5.1201-4.7661h.039c2.045,0,3.8291,2.6049,4.96879,4.7968,2.2646,4.358,4.4658,11.8213,6.7939,19.7242l.5498,1.8647,1.4854-2.4634c-.6631-2.2544-1.3174-4.4697-1.9668-6.5957.8916-1.997,2.2822-4.2021,3.99711-4.0508,3.32029.2383,7.333,7.8077,9.14649,14.6846,2.1669,8.2139,10.8349,22.4575,13.8701,27.2935Z" fill="#fff"/><path d="M-10.9046,112.3431l13.7724-5.7832.0791-.0425a18.983,18.983,0,0,1,9.2705-2.9937,17.45411,17.45411,0,0,1,4.9688.7036c1.7715.4917,3.5263,1.0122,5.2217,1.5157,2.205.6547,4.4863,1.332,6.8056,1.9458a8.59677,8.59677,0,0,0-3.4433-2.0992l18.3144-6.8471a27.89408,27.89408,0,0,1,8.1201-1.2837h.0625a25.83763,25.83763,0,0,1,7.8799,1.292,59.36817,59.36817,0,0,1,10.7754,5.3134l.8711.5025,2.3564-.6641c-1.0517-.6069-2.0898-1.2036-3.1191-1.7763a17.221,17.221,0,0,1,6.3398-1.0914c5.2647.064,11.6299,2.1031,14.5049,3.9556,3.4375,2.2129,17.18359,6.0498,21.99809,7.3526Z" fill="#fff"/><path d="M28.6823,111.5052c4.3115.624,4.8515,5.6128,10.8359,5.6128,6.3545,0,6.5762-5.6885,11.8438-5.6885,5.2802,0,5.456,5.6885,11.8408,5.6885,6.3496,0,6.5683-5.6885,11.8428-5.6885,5.2832,0,5.4589,5.6885,11.8476,5.6885,6.3545,0,6.5762-5.6885,11.8438-5.6885,5.2832,0,5.4628,5.6885,11.85149,5.6885,6.0147,0,6.501-4.9854,10.8438-5.6133v7.7456c-5.4825.5937-5.8076,5.6255-10.8438,5.6255-5.28419,0-5.46089-5.688-11.85149-5.688-6.3545,0-6.5762,5.688-11.8438,5.688-5.2832,0-5.459-5.688-11.8476-5.688-6.3545,0-6.5752,5.688-11.8428,5.688-5.2803,0-5.4561-5.688-11.8408-5.688-6.3545,0-6.5762,5.688-11.8438,5.688-4.9521,0-5.4199-5.0386-10.8359-5.6255Zm10.8359-4.0811c6.3545,0,6.5762-5.688,11.8438-5.688,5.2802,0,5.456,5.688,11.8408,5.688,6.3496,0,6.5683-5.688,11.8428-5.688,5.2832,0,5.4589,5.688,11.8476,5.688,6.3545,0,6.5762-5.688,11.8438-5.688,5.2832,0,5.4628,5.688,11.85149,5.688,5.9893,0,6.5479-5.0029,10.8438-5.6191v7.7509a9.11015,9.11015,0,0,0-5.6309,3.065c-1.4307,1.374-2.668,2.5605-5.2129,2.5605-5.28419,0-5.46089-5.6884-11.85149-5.6884-6.3545,0-6.5762,5.6884-11.8438,5.6884-5.2832,0-5.459-5.6884-11.8476-5.6884-6.3545,0-6.5752,5.6884-11.8428,5.6884-5.2803,0-5.4561-5.6884-11.8408-5.6884-6.3545,0-6.5762,5.6884-11.8438,5.6884-4.9521,0-5.4199-5.0385-10.8359-5.6255V101.805C32.9997,102.4246,33.5182,107.4241,39.5182,107.4241ZM28.6823,130.3094v-9.1099c4.3115.6245,4.8515,5.6128,10.8359,5.6128,6.3545,0,6.5762-5.6885,11.8438-5.6885,5.2802,0,5.456,5.6885,11.8408,5.6885,6.3496,0,6.5683-5.6885,11.8428-5.6885,5.2832,0,5.4589,5.6885,11.8476,5.6885,6.3545,0,6.5762-5.6885,11.8438-5.6885,5.2832,0,5.4628,5.6885,11.85149,5.6885,6.0147,0,6.501-4.9854,10.8438-5.6128v9.1099a2.47323,2.47323,0,0,1-2.5215,2.4218H31.2047A2.47409,2.47409,0,0,1,28.6823,130.3094Z" fill="#fff"/><path d="M28.6823,111.5052l-.0718.4947a5.24823,5.24823,0,0,1,2.4446,1.0474c1.0605.7794,1.9831,1.8994,3.2392,2.8575a8.17052,8.17052,0,0,0,5.2239,1.713,8.291,8.291,0,0,0,4.0264-.9478,20.21853,20.21853,0,0,0,3.7593-3.064,5.74846,5.74846,0,0,1,4.0581-1.6766,5.28428,5.28428,0,0,1,2.916.8136,40.24323,40.24323,0,0,1,3.4514,2.9648,8.88391,8.88391,0,0,0,9.4968.962,20.24534,20.24534,0,0,0,3.7571-3.0638,5.7548,5.7548,0,0,1,4.0623-1.6766,5.28941,5.28941,0,0,1,2.9179.8137,40.28179,40.28179,0,0,1,3.4534,2.9648,8.89489,8.89489,0,0,0,9.5027.9621,20.21853,20.21853,0,0,0,3.7593-3.064,5.74846,5.74846,0,0,1,4.0581-1.6766,5.29166,5.29166,0,0,1,2.9184.8137,40.2803,40.2803,0,0,1,3.4556,2.9649,8.22169,8.22169,0,0,0,5.47749,1.9098,8.41888,8.41888,0,0,0,3.8438-.841,15.17634,15.17634,0,0,0,3.5871-2.8544,6.26241,6.26241,0,0,1,3.4844-1.923l-.0715-.4947h-.5v7.7456h.5l-.054-.4972a9.42344,9.42344,0,0,0-5.8806,3.1708,11.67455,11.67455,0,0,1-2.1133,1.7245,5.68765,5.68765,0,0,1-5.7148-.0864,40.23131,40.23131,0,0,1-3.45489-2.9646,8.89812,8.89812,0,0,0-9.5044-.9617,20.20931,20.20931,0,0,0-3.7592,3.0636,5.74947,5.74947,0,0,1-4.0579,1.6765,5.29243,5.29243,0,0,1-2.9182-.8136,40.29516,40.29516,0,0,1-3.4534-2.9646,8.89476,8.89476,0,0,0-9.5027-.9619,20.20335,20.20335,0,0,0-3.7585,3.0636,5.74874,5.74874,0,0,1-4.0576,1.6765,5.28624,5.28624,0,0,1-2.9163-.8136,40.23648,40.23648,0,0,1-3.4514-2.9645,8.88955,8.88955,0,0,0-9.4998-.962,20.20931,20.20931,0,0,0-3.7592,3.0636,5.74947,5.74947,0,0,1-4.0579,1.6765,5.27521,5.27521,0,0,1-2.7688-.7283,24.5113,24.5113,0,0,1-3.2395-2.7395,8.39193,8.39193,0,0,0-4.7739-2.1549l-.0537.4972h.4997v-7.7451h-.4997l-.0718.4947.0718-.4947h-.5v8.1936l.446.0486c2.5444.2817,3.8777,1.5598,5.3028,2.8994a12.95858,12.95858,0,0,0,2.3142,1.8642,6.62889,6.62889,0,0,0,6.7153-.099,38.699,38.699,0,0,0,3.563-3.0344,7.18992,7.18992,0,0,1,4.8384-1.6899,7.30554,7.30554,0,0,1,3.5651.8297,19.45929,19.45929,0,0,1,3.5625,2.9347,6.73716,6.73716,0,0,0,4.7132,1.9235,6.30877,6.30877,0,0,0,3.4424-.9636,38.70025,38.70025,0,0,0,3.5622-3.0344,7.18936,7.18936,0,0,1,4.8382-1.6899,7.31653,7.31653,0,0,1,3.5676.8297,19.47451,19.47451,0,0,1,3.5647,2.9348,6.74165,6.74165,0,0,0,4.7153,1.9234,6.30851,6.30851,0,0,0,3.4424-.9636,38.699,38.699,0,0,0,3.563-3.0344,7.18992,7.18992,0,0,1,4.8384-1.6899,7.32164,7.32164,0,0,1,3.5691.8298,19.47486,19.47486,0,0,1,3.5659,2.9347,6.74483,6.74483,0,0,0,4.71649,1.9234,6.33542,6.33542,0,0,0,3.2998-.8635,23.7205,23.7205,0,0,0,3.3582-2.8425,7.31534,7.31534,0,0,1,4.23951-1.9222l.446-.0483v-8.7722l-.57151.0829a6.26847,6.26847,0,0,0-2.90649,1.235c-1.19141.8878-2.10131,2.004-3.23931,2.8646a7.14553,7.14553,0,0,1-4.6262,1.5086,7.32119,7.32119,0,0,1-3.5686-.8299,19.492,19.492,0,0,1-3.56659-2.935,6.74639,6.74639,0,0,0-4.7163-1.9236,6.30993,6.30993,0,0,0-3.4427.9637,38.71462,38.71462,0,0,0-3.563,3.0347,7.19061,7.19061,0,0,1-4.8381,1.6901,7.31683,7.31683,0,0,1-3.5679-.8299,19.47841,19.47841,0,0,1-3.5647-2.9349,6.74145,6.74145,0,0,0-4.715-1.9237,6.31943,6.31943,0,0,0-3.4461.9636,38.53329,38.53329,0,0,0-3.563,3.0349,7.18037,7.18037,0,0,1-4.8337,1.69,7.30968,7.30968,0,0,1-3.5655-.8298,19.47173,19.47173,0,0,1-3.5625-2.935,6.73726,6.73726,0,0,0-4.7128-1.9237,6.30993,6.30993,0,0,0-3.4427.9637,38.71462,38.71462,0,0,0-3.563,3.0347,7.19061,7.19061,0,0,1-4.8381,1.6901,7.39163,7.39163,0,0,1-3.3889-.737,14.50985,14.50985,0,0,1-3.3613-2.692,7.26655,7.26655,0,0,0-4.0142-2.1787l-.5715-.0827v.5776Zm10.8359-4.0811v.4999a8.291,8.291,0,0,0,4.0264-.9479,20.21345,20.21345,0,0,0,3.7593-3.0636,5.74923,5.74923,0,0,1,4.0581-1.6765,5.28593,5.28593,0,0,1,2.916.8136,40.23648,40.23648,0,0,1,3.4514,2.9645,8.88446,8.88446,0,0,0,9.4968.962,20.2528,20.2528,0,0,0,3.7571-3.0636,5.75557,5.75557,0,0,1,4.0623-1.6765,5.29187,5.29187,0,0,1,2.9179.8136,40.29516,40.29516,0,0,1,3.4534,2.9646,8.89477,8.89477,0,0,0,9.5027.9619,20.21345,20.21345,0,0,0,3.7593-3.0636,5.74923,5.74923,0,0,1,4.0581-1.6765,5.29331,5.29331,0,0,1,2.9184.8137,40.22791,40.22791,0,0,1,3.4556,2.9646,8.22166,8.22166,0,0,0,5.47749,1.9097,8.40863,8.40863,0,0,0,3.8396-.8436,15.34467,15.34467,0,0,0,3.6048-2.8605,6.261,6.261,0,0,1,3.4702-1.9201l-.0708-.4948h-.5v7.7509h.5l-.054-.4971a9.60407,9.60407,0,0,0-5.92329,3.2014,11.38537,11.38537,0,0,1-2.09351,1.7238,5.74637,5.74637,0,0,1-5.6919-.1163,40.28933,40.28933,0,0,1-3.45489-2.9648,8.89781,8.89781,0,0,0-9.5044-.9621,20.21439,20.21439,0,0,0-3.7592,3.064,5.7487,5.7487,0,0,1-4.0579,1.6766,5.29079,5.29079,0,0,1-2.9182-.8137,40.28179,40.28179,0,0,1-3.4534-2.9648,8.89488,8.89488,0,0,0-9.5027-.9621,20.2124,20.2124,0,0,0-3.7585,3.064,5.74881,5.74881,0,0,1-4.0576,1.6766,5.28541,5.28541,0,0,1-2.9163-.8136,40.24323,40.24323,0,0,1-3.4514-2.9648,8.88967,8.88967,0,0,0-9.4998-.9622,20.21439,20.21439,0,0,0-3.7592,3.064,5.7487,5.7487,0,0,1-4.0579,1.6766,5.2752,5.2752,0,0,1-2.7688-.7282,24.5266,24.5266,0,0,1-3.2395-2.7395,8.39128,8.39128,0,0,0-4.7739-2.1549l-.0537.4971h.4997V101.805h-.4997l-.0711.4948a5.22322,5.22322,0,0,1,2.4439,1.0461c1.0586.7796,1.9782,1.9015,3.2334,2.8615a8.16318,8.16318,0,0,0,5.2297,1.7166v-.9999a7.39175,7.39175,0,0,1-3.3943-.7384,14.45,14.45,0,0,1-3.3569-2.6963,7.23074,7.23074,0,0,0-4.0139-2.1794l-.5708-.0817v8.7761l.446.0486c2.5444.2818,3.8777,1.5598,5.3028,2.8994a12.95466,12.95466,0,0,0,2.3142,1.8643,6.62859,6.62859,0,0,0,6.7153-.0991,38.70133,38.70133,0,0,0,3.563-3.0347,7.19047,7.19047,0,0,1,4.8384-1.6901,7.30863,7.30863,0,0,1,3.5651.8297,19.46965,19.46965,0,0,1,3.5625,2.9351,6.7377,6.7377,0,0,0,4.7132,1.9237,6.30963,6.30963,0,0,0,3.4424-.9637,38.71819,38.71819,0,0,0,3.5622-3.0347,7.18991,7.18991,0,0,1,4.8382-1.6901,7.31532,7.31532,0,0,1,3.5676.8299,19.47506,19.47506,0,0,1,3.5647,2.9349,6.74182,6.74182,0,0,0,4.7153,1.9237,6.30938,6.30938,0,0,0,3.4424-.9637,38.70133,38.70133,0,0,0,3.563-3.0347,7.19047,7.19047,0,0,1,4.8384-1.6901,7.31948,7.31948,0,0,1,3.5688.8299,19.46836,19.46836,0,0,1,3.5662,2.935,6.74538,6.74538,0,0,0,4.71649,1.9236,6.283,6.283,0,0,0,3.2754-.8326,12.26734,12.26734,0,0,0,2.2837-1.8672c1.3728-1.314,2.7791-2.6467,5.33841-2.9285l.446-.0482v-8.7767l-.57081.0819a6.22383,6.22383,0,0,0-2.8911,1.2311c-1.1902.8872-2.1086,2.0053-3.2536,2.8691a7.169,7.169,0,0,1-4.628,1.5139,7.32124,7.32124,0,0,1-3.5686-.8298,19.49445,19.49445,0,0,1-3.56659-2.9347,6.74676,6.74676,0,0,0-4.7163-1.9235,6.30991,6.30991,0,0,0-3.4427.9636,38.72863,38.72863,0,0,0-3.563,3.0345,7.19067,7.19067,0,0,1-4.8381,1.6899,7.318,7.318,0,0,1-3.5679-.8297,19.47786,19.47786,0,0,1-3.5647-2.9348,6.74176,6.74176,0,0,0-4.715-1.9235,6.32025,6.32025,0,0,0-3.4461.9635,38.53172,38.53172,0,0,0-3.563,3.0347,7.18082,7.18082,0,0,1-4.8337,1.6898,7.30664,7.30664,0,0,1-3.5655-.8297,19.466,19.466,0,0,1-3.5625-2.9347,6.7372,6.7372,0,0,0-4.7128-1.9236,6.30991,6.30991,0,0,0-3.4427.9636,38.72863,38.72863,0,0,0-3.563,3.0345,7.19067,7.19067,0,0,1-4.8381,1.6899ZM28.6823,130.3094h.4997v-9.1099h-.4997l-.0718.4948a5.25027,5.25027,0,0,1,2.4446,1.0474c1.0605.7796,1.9831,1.8996,3.2392,2.8576a8.17165,8.17165,0,0,0,5.2239,1.7129,8.291,8.291,0,0,0,4.0264-.9479,20.21454,20.21454,0,0,0,3.7593-3.064,5.74888,5.74888,0,0,1,4.0581-1.6766,5.28593,5.28593,0,0,1,2.916.8136,40.24323,40.24323,0,0,1,3.4514,2.9648,8.88369,8.88369,0,0,0,9.4968.9621,20.24961,20.24961,0,0,0,3.7571-3.0639,5.75522,5.75522,0,0,1,4.0623-1.6766,5.29106,5.29106,0,0,1,2.9179.8137,40.26618,40.26618,0,0,1,3.4534,2.9649,8.89455,8.89455,0,0,0,9.5027.962,20.21454,20.21454,0,0,0,3.7593-3.064,5.74888,5.74888,0,0,1,4.0581-1.6766,5.29331,5.29331,0,0,1,2.9184.8137,40.28255,40.28255,0,0,1,3.4556,2.965,8.22169,8.22169,0,0,0,5.47749,1.9098,8.41884,8.41884,0,0,0,3.8438-.8411,15.17836,15.17836,0,0,0,3.5871-2.8542,6.26137,6.26137,0,0,1,3.4842-1.9226l-.0713-.4948h-.5v9.1099a1.86666,1.86666,0,0,1-.585,1.3518,2.06717,2.06717,0,0,1-1.4365.57H31.2047a2.0678,2.0678,0,0,1-1.4372-.5702,1.86584,1.86584,0,0,1-.5855-1.3516h-.9997a2.97658,2.97658,0,0,0,3.0224,2.9217h87.70609a2.97549,2.97549,0,0,0,3.02121-2.9217V120.622l-.57131.0826a6.26712,6.26712,0,0,0-2.90669,1.2348c-1.19141.8875-2.10131,2.0038-3.23931,2.8643a7.145,7.145,0,0,1-4.6262,1.5086,7.32124,7.32124,0,0,1-3.5686-.8298,19.49666,19.49666,0,0,1-3.56659-2.9351,6.74639,6.74639,0,0,0-4.7163-1.9236,6.30911,6.30911,0,0,0-3.4427.9638,38.69826,38.69826,0,0,0-3.563,3.0346,7.19061,7.19061,0,0,1-4.8381,1.6901,7.31688,7.31688,0,0,1-3.5679-.8298,19.483,19.483,0,0,1-3.5647-2.935,6.74145,6.74145,0,0,0-4.715-1.9237,6.31943,6.31943,0,0,0-3.4461.9636,38.51865,38.51865,0,0,0-3.563,3.035,7.18085,7.18085,0,0,1-4.8337,1.6899,7.30972,7.30972,0,0,1-3.5655-.8297,19.47636,19.47636,0,0,1-3.5625-2.9351,6.73726,6.73726,0,0,0-4.7128-1.9237,6.30911,6.30911,0,0,0-3.4427.9638,38.69826,38.69826,0,0,0-3.563,3.0346,7.19061,7.19061,0,0,1-4.8381,1.6901,7.3917,7.3917,0,0,1-3.3889-.7369,14.51164,14.51164,0,0,1-3.3613-2.6918,7.26873,7.26873,0,0,0-4.0142-2.179l-.5715-.0826v9.6874Z" fill="#39ae4a"/><path d="M35.1403,105.6468s11.7881-7.5581,15.9717-8.188" fill="#fff"/><path d="M34.8707,105.2259q3.8892-2.31885,7.8926-4.3975c1.3408-.6846,2.6944-1.3457,4.0723-1.9541a18.97084,18.97084,0,0,1,4.2764-1.4155,18.88349,18.88349,0,0,0-4.1709,1.6416c-1.334.6806-2.6426,1.4121-3.9366,2.1665q-3.86865,2.2851-7.5947,4.8008Z" fill="#39ae4a"/><path d="M50.5436,101.5525a13.61876,13.61876,0,0,1,5.4746-3.792" fill="#fff"/><path d="M50.1618,101.2298a15.64349,15.64349,0,0,1,2.7324-2.1309,10.68446,10.68446,0,0,1,3.124-1.3384,10.44406,10.44406,0,0,0-2.832,1.7442,14.97358,14.97358,0,0,0-2.2608,2.3711Z" fill="#39ae4a"/><path d="M61.5944,106.9065a33.23427,33.23427,0,0,0-1.2598-8.8178" fill="#fff"/><path d="M61.0944,106.9065a38.48492,38.48492,0,0,0-.0674-4.4228,24.18151,24.18151,0,0,0-.6924-4.395,24.52744,24.52744,0,0,1,1.1885,4.33,39.2643,39.2643,0,0,1,.5713,4.4878Z" fill="#39ae4a"/><path d="M47.7584,53.9285a6.053,6.053,0,0,0-8.5517,0l1.0146,1.0142a4.61753,4.61753,0,0,1,6.5225,0Z" fill="#fff"/><path d="M52.4245,50.6004a12.64758,12.64758,0,0,0-17.8848,0l1.0146,1.0146a11.21173,11.21173,0,0,1,15.8555,0Z" fill="#fff"/><path d="M43.4821,42.9368a17.82626,17.82626,0,0,1,12.6894,5.2559l1.0137-1.0147a19.37962,19.37962,0,0,0-27.4062,0l1.0146,1.0147A17.82573,17.82573,0,0,1,43.4821,42.9368Z" fill="#fff"/><path d="M30.3922,59.0603H25.3424v9.8926h3.5049a.85145.85145,0,0,0,.8369-.6933l1.5449-8.19a.85162.85162,0,0,0-.8369-1.0093Z" fill="#fff"/><path d="M53.9088,65.0564l-5.9179,2.3247a2.60464,2.60464,0,0,1-1.6465.6534c-.1748.0048-.3574.0078-.5459.0078a20.36029,20.36029,0,0,1-9.0947-2.1597l.6416-1.2832a19.132,19.132,0,0,0,8.958,2.001,1.17946,1.17946,0,0,0,.2304-2.3291l-1.5664-.356a71.3678,71.3678,0,0,1-7.6484-2.1655,6.81276,6.81276,0,0,0-3.8233-.1309l-1.1552.295-1.0928,5.7939,10.9365,4.0459a3.66222,3.66222,0,0,0,2.7989-.0996L56.861,66.2732l.0342-.1176A2.673,2.673,0,0,0,53.9088,65.0564Z" fill="#fff"/><path d="M42.2672,58.7503a1.21535,1.21535,0,1,0,1.2149-1.2154A1.21629,1.21629,0,0,0,42.2672,58.7503Z" fill="#fff"/></g></svg>