<svg xmlns="http://www.w3.org/2000/svg" xmlns:xlink="http://www.w3.org/1999/xlink" viewBox="0 0 157.4511 146.1073"><defs><linearGradient id="linear-gradient" x1="21.39691" y1="21.39692" x2="124.71038" y2="124.71039" gradientTransform="translate(18.73857 -14.83003) rotate(13.28253)" gradientUnits="userSpaceOnUse"><stop offset="0" stop-color="#c9b899"/><stop offset="0.1882" stop-color="#c6b798"/><stop offset="0.34061" stop-color="#bcb395"/><stop offset="0.48053" stop-color="#abac91"/><stop offset="0.61299" stop-color="#93a28a"/><stop offset="0.74014" stop-color="#749581"/><stop offset="0.86335" stop-color="#4e8577"/><stop offset="0.98129" stop-color="#22736a"/><stop offset="1" stop-color="#1a7068"/></linearGradient><clipPath id="clip-path" transform="translate(11.3438)"><circle cx="73.1229" cy="72.9966" r="48.5" fill="none"/></clipPath></defs><g id="Layer_2" data-name="Layer 2"><g id="Layer_1-2" data-name="Layer 1"><circle cx="73.05362" cy="73.05368" r="72.05368" transform="translate(-3.48624 18.73856) rotate(-13.28253)" fill="#fff" stroke-miterlimit="10" stroke-width="2" stroke="url(#linear-gradient)"/><circle cx="73.07218" cy="72.96068" r="48.51612" transform="translate(-3.38148 127.31515) rotate(-76.71746)" fill="#39ae4a"/><path d="M32.86247,31.58943l2.25976,2.57031-1.05908.93067-5.65674-6.43262,1.83008-1.60938a4.02031,4.02031,0,0,1,2.2666-1.166,2.2203,2.2203,0,0,1,1.84082.87793,2.34374,2.34374,0,0,1,.24658,2.81738L38.924,30.816l-1.20508,1.06055-3.81055-1.207Zm-.76612-.87109.73584-.64649a2.25183,2.25183,0,0,0,.83252-1.2168,1.31407,1.31407,0,0,0-.37988-1.10156,1.15561,1.15561,0,0,0-1.04736-.46679,2.62846,2.62846,0,0,0-1.29053.71289l-.69971.61523Z" transform="translate(11.3438)" fill="#4d4d4d"/><path d="M43.95622,27.443l-4.04346,2.73242-4.7959-7.09864,4.04346-2.73144.66259.98047L36.9484,23.26814l1.30518,1.93262,2.69385-1.82031.65625.9707-2.69385,1.82031L40.4152,28.4l2.875-1.94239Z" transform="translate(11.3438)" fill="#4d4d4d"/><path d="M48.88151,22.1988a2.1504,2.1504,0,0,1,.08154,1.97461,3.6309,3.6309,0,0,1-1.74267,1.62891,5.51094,5.51094,0,0,1-2.33643.69727l-.60645-1.17774A6.55776,6.55776,0,0,0,45.591,25.1324a5.33116,5.33116,0,0,0,1.17139-.42481,1.97986,1.97986,0,0,0,.9541-.84668,1.03206,1.03206,0,0,0-.03516-.93847,1.0605,1.0605,0,0,0-.69824-.55567A5.48048,5.48048,0,0,0,45.278,22.355a4.00187,4.00187,0,0,1-1.97558-.20214,2.28044,2.28044,0,0,1-1.10059-1.08106,2.04391,2.04391,0,0,1-.09082-1.85156A3.19641,3.19641,0,0,1,43.65983,17.73a6.11431,6.11431,0,0,1,2.43945-.64941l.12451,1.22168a5.40469,5.40469,0,0,0-2.04541.5127,1.582,1.582,0,0,0-.78759.73828.96836.96836,0,0,0,.04345.85742,1.09342,1.09342,0,0,0,.38721.44336,1.44317,1.44317,0,0,0,.61963.18457,7.8211,7.8211,0,0,0,1.29346-.03906,6.34581,6.34581,0,0,1,1.57324.01269,2.14781,2.14781,0,0,1,.92871.38574A2.28619,2.28619,0,0,1,48.88151,22.1988Z" transform="translate(11.3438)" fill="#4d4d4d"/><path d="M57.20524,17.03474a4.66685,4.66685,0,0,1,.06592,3.418,4.4491,4.4491,0,0,1-5.65283,1.96094,4.6904,4.6904,0,0,1-2.05762-2.751,4.61781,4.61781,0,0,1-.06787-3.42285,3.89935,3.89935,0,0,1,2.4707-2.05664,3.81719,3.81719,0,0,1,3.1875.12109A4.661,4.661,0,0,1,57.20524,17.03474Zm-6.22412,2.15039a3.827,3.827,0,0,0,1.39062,2.05762,2.63032,2.63032,0,0,0,3.59766-1.2334,3.82441,3.82441,0,0,0-.18066-2.48437,3.83531,3.83531,0,0,0-1.37989-2.05274,2.24981,2.24981,0,0,0-2.05322-.15332,2.2953,2.2953,0,0,0-1.54395,1.39551A3.783,3.783,0,0,0,50.98112,19.18513Z" transform="translate(11.3438)" fill="#4d4d4d"/><path d="M65.49333,11.14412l.93408,5.46289a3.27261,3.27261,0,0,1-.12451,1.707,2.72165,2.72165,0,0,1-.98438,1.2793,4.13694,4.13694,0,0,1-1.76416.6914,3.486,3.486,0,0,1-2.60254-.41113,3.04128,3.04128,0,0,1-1.269-2.13672l-.93018-5.44043,1.396-.23828L61.06168,17.4a2.15587,2.15587,0,0,0,.752,1.459,2.05283,2.05283,0,0,0,1.58545.24024,1.80234,1.80234,0,0,0,1.61572-2.38672l-.91162-5.33106Z" transform="translate(11.3438)" fill="#4d4d4d"/><path d="M70.37125,15.984l.07862,3.42188-1.40967.03125-.19678-8.56348,2.436-.05566a4.0224,4.0224,0,0,1,2.48633.56445,2.22317,2.22317,0,0,1,.84521,1.85547A2.3453,2.3453,0,0,1,72.988,15.55525l2.523,3.7334-1.60449.03711-2.14307-3.373Zm-.02636-1.15918.979-.02246a2.2457,2.2457,0,0,0,1.41944-.39648,1.31369,1.31369,0,0,0,.41748-1.08789,1.15547,1.15547,0,0,0-.502-1.03125,2.63058,2.63058,0,0,0-1.44629-.28321l-.93213.02149Z" transform="translate(11.3438)" fill="#4d4d4d"/><path d="M81.1276,12.37263a2.33034,2.33034,0,0,0-1.99463.63867,3.63634,3.63634,0,0,0-.95263,2.26954,3.66132,3.66132,0,0,0,.40234,2.44433,2.37077,2.37077,0,0,0,1.83691,1.01758,5.14531,5.14531,0,0,0,1.06788.00977q.52148-.05127,1.09179-.15918l-.13232,1.19433a6.49137,6.49137,0,0,1-2.3291.124,3.69026,3.69026,0,0,1-2.76563-1.45313,4.74708,4.74708,0,0,1-.64844-3.35352,5.24446,5.24446,0,0,1,.748-2.26953,3.50083,3.50083,0,0,1,1.58545-1.36816,4.34785,4.34785,0,0,1,2.23486-.28809,5.4708,5.4708,0,0,1,2.3667.81739L83.006,13.0992a7.63137,7.63137,0,0,0-.87793-.46A3.3343,3.3343,0,0,0,81.1276,12.37263Z" transform="translate(11.3438)" fill="#4d4d4d"/><path d="M88.90348,21.564l-4.74219-1.15039,2.02149-8.32422,4.7417,1.15039-.2793,1.15039-3.37158-.81836-.54981,2.26563L89.883,16.605l-.27636,1.13868-3.15967-.76758-.63428,2.61328,3.37158.81934Z" transform="translate(11.3438)" fill="#4d4d4d"/><path d="M103.34782,18.21736l-2.33545,5.02637a3.26388,3.26388,0,0,1-1.07178,1.334,2.7203,2.7203,0,0,1-1.53711.49414,4.159,4.159,0,0,1-1.84473-.43359,3.49,3.49,0,0,1-1.9082-1.81641,3.04438,3.04438,0,0,1,.16992-2.48047l2.32569-5.00586,1.28418.59766-2.28369,4.91406a2.159,2.159,0,0,0-.20948,1.62891,2.05,2.05,0,0,0,1.168,1.09765,1.80163,1.80163,0,0,0,2.68506-1.04589l2.27881-4.90528Z" transform="translate(11.3438)" fill="#4d4d4d"/><path d="M106.98649,27.82087a2.14983,2.14983,0,0,1-1.6709,1.05567,3.63033,3.63033,0,0,1-2.28125-.69727,5.506,5.506,0,0,1-1.769-1.67773l.71777-1.11231a6.52245,6.52245,0,0,0,.81885,1.04395,5.36,5.36,0,0,0,.95312.80273,1.97833,1.97833,0,0,0,1.21045.4043,1.02739,1.02739,0,0,0,.79492-.498,1.06077,1.06077,0,0,0,.13379-.88281,5.4913,5.4913,0,0,0-.84082-1.48437,3.98821,3.98821,0,0,1-.81054-1.8125,2.28183,2.28183,0,0,1,.3872-1.49317,2.04778,2.04778,0,0,1,1.55909-1.00293,3.20574,3.20574,0,0,1,2.064.59961,6.0856,6.0856,0,0,1,1.78076,1.78906l-.99609.71778a5.42568,5.42568,0,0,0-1.46533-1.5166,1.59059,1.59059,0,0,0-1.03321-.31446.969.969,0,0,0-.72119.46582,1.09069,1.09069,0,0,0-.19092.55762,1.44753,1.44753,0,0,0,.14893.62891,7.948,7.948,0,0,0,.68018,1.10058,6.41523,6.41523,0,0,1,.77343,1.37012,2.158,2.158,0,0,1,.1294.99707A2.29339,2.29339,0,0,1,106.98649,27.82087Z" transform="translate(11.3438)" fill="#4d4d4d"/><path d="M110.76579,33.86091l-3.76123-3.10839L112.46208,24.15l3.76123,3.10839-.7544.91211-2.67432-2.21-1.48535,1.79688,2.50586,2.07226-.74658.90235-2.50586-2.07031L108.84928,30.734l2.67432,2.21094Z" transform="translate(11.3438)" fill="#4d4d4d"/><g clip-path="url(#clip-path)"><path d="M97.2855,35.218a4.83195,4.83195,0,0,1,8.2122,3.0804,4.88482,4.88482,0,0,1,2.0295,2.1725,3.68565,3.68565,0,0,1,2.3211,3.5311,4.69276,4.69276,0,0,1-1.1993,2.9481,3.59718,3.59718,0,0,1-2.651,1.3145l-12.9972.0387a3.82988,3.82988,0,0,1-2.7115-1.1221l-.0109-.0054a3.84455,3.84455,0,0,1-.0111-5.4288l.0111-.0109a3.83586,3.83586,0,0,1,2.7224-1.1277l.2642.0111a3.78185,3.78185,0,0,1,.9186-1.5733,3.88415,3.88415,0,0,1,1.6994-1.0283,4.8571,4.8571,0,0,1,1.4025-2.7999m17.4239,14.97a3.18316,3.18316,0,0,1,5.3957,1.8807,3.26377,3.26377,0,0,1,.6215.5005,3.22153,3.22153,0,0,1,.539.7593,2.57293,2.57293,0,0,1,.9569.7591l.0442.055a2.53427,2.53427,0,0,1,.4672,1.5234,3.12463,3.12463,0,0,1-.7919,1.9581,2.43452,2.43452,0,0,1-1.7984.8855l-7.8159.022a2.59089,2.59089,0,0,1-1.8756-4.3781l.0439-.0496a2.57527,2.57527,0,0,1,1.793-.7591,2.52779,2.52779,0,0,1,.5501-.8524,2.63217,2.63217,0,0,1,.9733-.6381A3.20074,3.20074,0,0,1,114.7094,50.188Z" transform="translate(11.3438)" fill="#fff" fill-rule="evenodd"/><path d="M72.6843,39.2294v2.3458a.58065.58065,0,0,1-1.1613,0V39.2294a.58065.58065,0,0,1,1.1613,0Z" transform="translate(11.3438)" fill="#fff"/><path d="M79.6114,28.9172a7.50485,7.50485,0,1,1-7.5077-7.502A7.50852,7.50852,0,0,1,79.6114,28.9172Z" transform="translate(11.3438)" fill="#fff"/><path d="M65.2753,18.2449a.58015.58015,0,0,1,1.0045-.5807l1.1729,2.0323a.58011.58011,0,1,1-1.0045.5806Z" transform="translate(11.3438)" fill="#fff"/><path d="M83.5714,35.5365a.58732.58732,0,0,1-.7955.2149l-2.0264-1.1729a.58013.58013,0,1,1,.5806-1.0045l2.0265,1.167A.58154.58154,0,0,1,83.5714,35.5365Z" transform="translate(11.3438)" fill="#fff"/><path d="M85.3424,28.9172a.57865.57865,0,0,1-.5807.5806h-2.34a.58065.58065,0,0,1,0-1.1613h2.34A.57867.57867,0,0,1,85.3424,28.9172Z" transform="translate(11.3438)" fill="#fff"/><path d="M78.9379,39.5894a.58016.58016,0,1,1-1.0046.5806l-1.1728-2.0323a.58011.58011,0,0,1,1.0045-.5806Z" transform="translate(11.3438)" fill="#fff"/><path d="M80.5346,24.0513a.58134.58134,0,0,1,.2149-.7954l2.0264-1.1671a.58015.58015,0,1,1,.5807,1.0045l-2.0265,1.1729A.58721.58721,0,0,1,80.5346,24.0513Z" transform="translate(11.3438)" fill="#fff"/><path d="M74.6642,58.5782a.51726.51726,0,0,1-.5157.5157,1.91024,1.91024,0,0,0-1.9079,1.908v.6445a.5157.5157,0,1,1-1.0314,0v-.6807a1.91009,1.91009,0,0,0-1.9079-1.9079.51565.51565,0,1,1,0-1.0313,2.93079,2.93079,0,0,1,2.4339,1.2994,2.94127,2.94127,0,0,1,2.4133-1.2634A.51726.51726,0,0,1,74.6642,58.5782Z" transform="translate(11.3438)" fill="#fff"/><path d="M63.6785,33.7829a.58165.58165,0,0,1-.2148.7956l-2.0265,1.1729a.58267.58267,0,0,1-.5806-1.0104l2.0264-1.167A.57968.57968,0,0,1,63.6785,33.7829Z" transform="translate(11.3438)" fill="#fff"/><path d="M63.6785,24.0513a.58725.58725,0,0,1-.7955.2149l-2.0264-1.1729a.58012.58012,0,1,1,.5806-1.0045l2.0265,1.1671A.5814.5814,0,0,1,63.6785,24.0513Z" transform="translate(11.3438)" fill="#fff"/><path d="M71.523,18.6049V16.2591a.58065.58065,0,0,1,1.1613,0v2.3458a.58065.58065,0,1,1-1.1613,0Z" transform="translate(11.3438)" fill="#fff"/><path d="M76.7604,19.6965l1.1729-2.0323a.58019.58019,0,0,1,1.0046.5807L77.765,20.2771a.58017.58017,0,1,1-1.0046-.5806Z" transform="translate(11.3438)" fill="#fff"/><path d="M83.2499,63.6936a.51718.51718,0,0,1-.5156.5157,1.91009,1.91009,0,0,0-1.9079,1.9079v.6446a.5157.5157,0,0,1-1.0314,0v-.6807a1.91024,1.91024,0,0,0-1.9079-1.908.51565.51565,0,1,1,0-1.0313,2.92624,2.92624,0,0,1,2.4339,1.2943,2.92951,2.92951,0,0,1,2.4133-1.2582A.51385.51385,0,0,1,83.2499,63.6936Z" transform="translate(11.3438)" fill="#fff"/><path d="M86.7822,54.9325a.51718.51718,0,0,1-.5156.5157,1.91017,1.91017,0,0,0-1.908,1.9079v.6446a.51565.51565,0,0,1-1.0313,0V57.32a1.91026,1.91026,0,0,0-1.908-1.908.51565.51565,0,0,1,0-1.0313,2.93093,2.93093,0,0,1,2.434,1.2995,2.94127,2.94127,0,0,1,2.4133-1.2634A.51718.51718,0,0,1,86.7822,54.9325Z" transform="translate(11.3438)" fill="#fff"/><path d="M61.7914,29.4978h-2.34a.58065.58065,0,0,1,0-1.1613h2.34a.58065.58065,0,1,1,0,1.1613Z" transform="translate(11.3438)" fill="#fff"/><path d="M67.4527,38.1377,66.2798,40.17a.58011.58011,0,1,1-1.0045-.5806l1.1729-2.0323a.58013.58013,0,0,1,1.0045.5806Z" transform="translate(11.3438)" fill="#fff"/><path d="M43.2254,101.2456l-.3363.2692H45.503l1.2167-.9734a11.98973,11.98973,0,0,1,2.9173-1.709A11.22,11.22,0,0,0,43.2254,101.2456Z" transform="translate(11.3438)" fill="#fff"/><path d="M65.2281,101.2456a11.2248,11.2248,0,0,0-6.4115-2.4137,11.97626,11.97626,0,0,1,2.9172,1.7095l1.2168.9734h2.6138Z" transform="translate(11.3438)" fill="#fff"/><path d="M54.2268,98.8098a11.15614,11.15614,0,0,0-6.944,2.4358l-.3363.2692H61.5071l-.3363-.2692A11.15635,11.15635,0,0,0,54.2268,98.8098Z" transform="translate(11.3438)" fill="#fff"/><path d="M53.776,94.2561V98.359h.9016V94.2561a2.25792,2.25792,0,0,0,1.8033-2.2085V88.0357a2.25762,2.25762,0,0,0-1.8033,2.2086V85.2397a2.258,2.258,0,0,0,1.8033-2.2085V80.8226a2.258,2.258,0,0,0-1.8033,2.2086V78.523H53.776v4.5082a2.25762,2.25762,0,0,0-1.8033-2.2086v2.2086a2.25749,2.25749,0,0,0,1.8033,2.2085v5.0046a2.25762,2.25762,0,0,0-1.8033-2.2086v4.0119A2.25749,2.25749,0,0,0,53.776,94.2561Z" transform="translate(11.3438)" fill="#fff"/><path d="M56.4809,77.0778v-.4053a2.25762,2.25762,0,0,0-1.8033,2.2086v.4053A2.2577,2.2577,0,0,0,56.4809,77.0778Z" transform="translate(11.3438)" fill="#fff"/><path d="M53.776,79.2864v-.4053a2.25762,2.25762,0,0,0-1.8033-2.2086v.4053A2.2576,2.2576,0,0,0,53.776,79.2864Z" transform="translate(11.3438)" fill="#fff"/><path d="M61.8907,98.2208v2.2996h.9017V98.2208a2.258,2.258,0,0,0,1.8032-2.2086V92.0004a2.25783,2.25783,0,0,0-1.8032,2.2085V89.2044a2.25794,2.25794,0,0,0,1.8032-2.2086V84.7873a2.25775,2.25775,0,0,0-1.8032,2.2085V82.4876h-.9017v4.5082a2.25741,2.25741,0,0,0-1.8033-2.2085v2.2085a2.2577,2.2577,0,0,0,1.8033,2.2086v5.0045a2.25741,2.25741,0,0,0-1.8033-2.2085v4.0118A2.2577,2.2577,0,0,0,61.8907,98.2208Z" transform="translate(11.3438)" fill="#fff"/><path d="M61.8907,83.251v-.4053a2.25741,2.25741,0,0,0-1.8033-2.2085v.4052A2.25762,2.25762,0,0,0,61.8907,83.251Z" transform="translate(11.3438)" fill="#fff"/><path d="M64.5956,81.0424v-.4052a2.25775,2.25775,0,0,0-1.8032,2.2085v.4053A2.25753,2.25753,0,0,0,64.5956,81.0424Z" transform="translate(11.3438)" fill="#fff"/><path d="M45.6612,96.961v2.2997h.9017V96.961a2.25783,2.25783,0,0,0,1.8032-2.2085V90.7406a2.258,2.258,0,0,0-1.8032,2.2086V87.9446a2.25775,2.25775,0,0,0,1.8032-2.2085V83.5275a2.25794,2.25794,0,0,0-1.8032,2.2086V81.2279h-.9017v4.5082a2.25752,2.25752,0,0,0-1.8033-2.2086v2.2086a2.25751,2.25751,0,0,0,1.8033,2.2085v5.0046a2.2576,2.2576,0,0,0-1.8033-2.2086v4.0119A2.25751,2.25751,0,0,0,45.6612,96.961Z" transform="translate(11.3438)" fill="#fff"/><path d="M48.3661,79.7827v-.4053a2.25794,2.25794,0,0,0-1.8032,2.2086v.4053A2.25761,2.25761,0,0,0,48.3661,79.7827Z" transform="translate(11.3438)" fill="#fff"/><path d="M45.6612,81.9913V81.586a2.2576,2.2576,0,0,0-1.8033-2.2086v.4053A2.2577,2.2577,0,0,0,45.6612,81.9913Z" transform="translate(11.3438)" fill="#fff"/><path d="M28.9629,103.4767l-.1754.1404h1.3633l.6346-.5077a6.25547,6.25547,0,0,1,1.5215-.8914A5.85193,5.85193,0,0,0,28.9629,103.4767Z" transform="translate(11.3438)" fill="#fff"/><path d="M40.4388,103.4767a5.85465,5.85465,0,0,0-3.3441-1.2589,6.24659,6.24659,0,0,1,1.5215.8916l.6347.5077h1.3633Z" transform="translate(11.3438)" fill="#fff"/><path d="M34.7008,102.2063a5.81829,5.81829,0,0,0-3.6217,1.2704l-.1754.1404H38.498l-.1754-.1404A5.81857,5.81857,0,0,0,34.7008,102.2063Z" transform="translate(11.3438)" fill="#fff"/><path d="M34.4657,99.8312v2.1399h.4702V99.8312a1.17769,1.17769,0,0,0,.9406-1.1519V96.5868a1.17756,1.17756,0,0,0-.9406,1.152V95.1286a1.1778,1.1778,0,0,0,.9406-1.152V92.8247a1.17769,1.17769,0,0,0-.9406,1.1519V91.6253h-.4702v2.3513a1.17753,1.17753,0,0,0-.9406-1.1519v1.1519a1.17756,1.17756,0,0,0,.9406,1.152v2.6102a1.17756,1.17756,0,0,0-.9406-1.152v2.0925A1.17753,1.17753,0,0,0,34.4657,99.8312Z" transform="translate(11.3438)" fill="#fff"/><path d="M35.8765,90.3938v-.3907a2.26368,2.26368,0,0,0-.9406,2.1289v.3906A2.26349,2.26349,0,0,0,35.8765,90.3938Z" transform="translate(11.3438)" fill="#fff"/><path d="M34.4657,92.5226V92.132a2.26368,2.26368,0,0,0-.9406-2.1289v.3907A2.26349,2.26349,0,0,0,34.4657,92.5226Z" transform="translate(11.3438)" fill="#fff"/><path d="M38.6981,101.242v1.1994h.4702V101.242a1.17769,1.17769,0,0,0,.9406-1.1519V97.9976a1.1778,1.1778,0,0,0-.9406,1.152V96.5393a1.17769,1.17769,0,0,0,.9406-1.1519V94.2355a1.17769,1.17769,0,0,0-.9406,1.1519V93.0361h-.4702v2.3513a1.17753,1.17753,0,0,0-.9406-1.1519v1.1519a1.17745,1.17745,0,0,0,.9406,1.1519v2.6103a1.17756,1.17756,0,0,0-.9406-1.152v2.0925A1.17753,1.17753,0,0,0,38.6981,101.242Z" transform="translate(11.3438)" fill="#fff"/><path d="M38.6981,93.7824v-.3673a2.08537,2.08537,0,0,0-.9406-2.0012v.3673A2.08537,2.08537,0,0,0,38.6981,93.7824Z" transform="translate(11.3438)" fill="#fff"/><path d="M40.1089,91.7812v-.3673a2.0858,2.0858,0,0,0-.9406,2.0012v.3673A2.08537,2.08537,0,0,0,40.1089,91.7812Z" transform="translate(11.3438)" fill="#fff"/><path d="M30.2333,101.242v1.1994h.4703V101.242a1.17771,1.17771,0,0,0,.9405-1.1519V97.9976a1.17772,1.17772,0,0,0-.9405,1.152V96.5393a1.17771,1.17771,0,0,0,.9405-1.1519V94.2355a1.17761,1.17761,0,0,0-.9405,1.1519V93.0361h-.4703v2.3513a1.17754,1.17754,0,0,0-.9405-1.1519v1.1519a1.17736,1.17736,0,0,0,.9405,1.1519v2.6103a1.17757,1.17757,0,0,0-.9405-1.152v2.0925A1.17744,1.17744,0,0,0,30.2333,101.242Z" transform="translate(11.3438)" fill="#fff"/><path d="M31.6441,91.693v-.4301c-.5359.222-.9405,1.1889-.9405,2.3439v.4302C31.2394,93.815,31.6441,92.8485,31.6441,91.693Z" transform="translate(11.3438)" fill="#fff"/><path d="M30.2333,94.037v-.4302c0-1.1554-.4047-2.1219-.9405-2.3439v.4301C29.2928,92.8485,29.6974,93.815,30.2333,94.037Z" transform="translate(11.3438)" fill="#fff"/><path d="M61.7211,108.7244l8.6841-21.4687.0497-.1575c1.0215-4.3865,3.5101-10.7353,5.8453-11.1125,1.1852-.1761,2.3435,1.3179,3.133,2.6109,1.1168,1.8254,2.2233,3.7587,3.2925,5.6277,1.3904,2.4305,2.8284,4.944,4.2913,7.2232,0,0-.8807-5.5365-2.1716-7.793L96.3931,58.2364c.6278-1.3116,2.7724-4.7264,5.12-4.7657h.0394c2.0451,0,3.8292,2.6046,4.9688,4.7968,2.2648,4.3576,4.4653,11.8211,6.7943,19.724l.5491,1.8649,1.4857-2.4637c-.663-2.2544-1.3178-4.4695-1.9664-6.5954.891-1.9975,2.2814-4.2022,3.997-4.0509,3.3195.2383,7.3331,7.8076,9.1462,14.6847,2.1673,8.2137,10.8348,22.4571,13.8704,27.2933Z" transform="translate(11.3438)" fill="#fff"/><path d="M-11.3438,112.4461l13.7726-5.7834.0789-.0424a18.98124,18.98124,0,0,1,9.2705-2.9935,17.46021,17.46021,0,0,1,4.9688.7033c1.7712.4918,3.5261,1.0125,5.2218,1.516,2.2051.6548,4.4857,1.3319,6.8058,1.9459a8.59713,8.59713,0,0,0-3.444-2.0994l18.3142-6.8472a27.9223,27.9223,0,0,1,8.1203-1.2838h.0624a25.83148,25.83148,0,0,1,7.8804,1.2922,59.37854,59.37854,0,0,1,10.7756,5.3133l.8708.5024,2.3563-.6637c-1.0516-.6073-2.0901-1.204-3.1187-1.7767a17.22648,17.22648,0,0,1,6.3392-1.0913c5.2645.0642,11.63,2.1033,14.5054,3.9559,3.4374,2.2126,17.1837,6.0496,21.9981,7.3524Z" transform="translate(11.3438)" fill="#fff"/><path d="M28.2434,111.608c4.3109.6244,4.8508,5.6128,10.8356,5.6128,6.3544,0,6.5763-5.6883,11.8438-5.6883,5.2802,0,5.4559,5.6883,11.8408,5.6883,6.3494,0,6.5681-5.6883,11.8428-5.6883,5.2833,0,5.4591,5.6883,11.8477,5.6883,6.3544,0,6.5763-5.6883,11.8438-5.6883,5.2833,0,5.463,5.6883,11.8516,5.6883,6.0142,0,6.501-4.9851,10.8435-5.6129v7.7453c-5.4829.5939-5.8078,5.6256-10.8435,5.6256-5.2848,0-5.4611-5.6883-11.8516-5.6883-6.3545,0-6.5763,5.6883-11.8438,5.6883-5.2833,0-5.4591-5.6883-11.8477-5.6883-6.3545,0-6.5753,5.6883-11.8428,5.6883-5.2802,0-5.4559-5.6883-11.8408-5.6883-6.3545,0-6.5763,5.6883-11.8438,5.6883-4.9525,0-5.4198-5.0384-10.8356-5.6255Zm10.8356-4.0808c6.3544,0,6.5763-5.6882,11.8438-5.6882,5.2802,0,5.4559,5.6882,11.8408,5.6882,6.3494,0,6.5681-5.6882,11.8428-5.6882,5.2833,0,5.4591,5.6882,11.8477,5.6882,6.3544,0,6.5763-5.6882,11.8438-5.6882,5.2833,0,5.463,5.6882,11.8516,5.6882,5.9893,0,6.5476-5.0031,10.8435-5.6192v7.7507a9.10853,9.10853,0,0,0-5.6304,3.0652c-1.4315,1.3738-2.6681,2.5605-5.2131,2.5605-5.2848,0-5.4611-5.6883-11.8516-5.6883-6.3545,0-6.5763,5.6883-11.8438,5.6883-5.2833,0-5.4591-5.6883-11.8477-5.6883-6.3545,0-6.5753,5.6883-11.8428,5.6883-5.2802,0-5.4559-5.6883-11.8408-5.6883-6.3545,0-6.5763,5.6883-11.8438,5.6883-4.9525,0-5.4198-5.0385-10.8356-5.6256V101.908C32.5604,102.5277,33.0789,107.5272,39.079,107.5272ZM28.2434,130.4123v-9.1098c4.3109.6244,4.8508,5.6128,10.8356,5.6128,6.3544,0,6.5763-5.6883,11.8438-5.6883,5.2802,0,5.4559,5.6883,11.8408,5.6883,6.3494,0,6.5681-5.6883,11.8428-5.6883,5.2833,0,5.4591,5.6883,11.8477,5.6883,6.3544,0,6.5763-5.6883,11.8438-5.6883,5.2833,0,5.463,5.6883,11.8516,5.6883,6.0142,0,6.501-4.9851,10.8435-5.6129v9.1099a2.4734,2.4734,0,0,1-2.5218,2.422H30.7652A2.4734,2.4734,0,0,1,28.2434,130.4123Z" transform="translate(11.3438)" fill="#fff" stroke="#39ae4a" stroke-miterlimit="10"/><path d="M34.7008,105.7499s11.7886-7.5585,15.9722-8.1883" transform="translate(11.3438)" fill="#fff"/><path d="M34.43167,105.32844s3.876-2.32979,7.89258-4.39685a58.52412,58.52412,0,0,1,5.64111-2.59289c.39991-.14173.75684-.29374,1.09082-.38253.33155-.09424.61377-.19615.856-.24518.48438-.09506.76074-.14938.76074-.14938l-.74951.1909c-.2373.06181-.51416.17944-.83691.29089-.3252.10584-.67383.27756-1.06153.4399a58.21485,58.21485,0,0,0-5.46,2.88641c-3.87793,2.27641-7.59521,4.80165-7.59521,4.80165Z" transform="translate(11.3438)" fill="#39ae4a"/><path d="M50.1042,101.6557a13.62092,13.62092,0,0,1,5.475-3.7923" transform="translate(11.3438)" fill="#fff"/><path d="M49.72757,101.32694l.21484-.20554c.14161-.13626.34668-.32048.59522-.5269a16.4583,16.4583,0,0,1,1.918-1.39044c.37988-.20517.73437-.44437,1.10547-.60292.3706-.15745.6997-.33188,1.00488-.42943l1.01318-.30832-.9497.451c-.28028.138-.57862.35844-.90967.56065-.33155.20313-.64258.48886-.97217.73506a15.72123,15.72123,0,0,0-1.62061,1.58837c-.20654.23114-.36718.42567-.47265.56237l-.17334.22365Z" transform="translate(11.3438)" fill="#39ae4a"/><path d="M61.1554,107.0096a33.23868,33.23868,0,0,0-1.2598-8.8182" transform="translate(11.3438)" fill="#fff"/><path d="M60.6553,107.01383s.03272-.54706.03174-1.37836c.00977-.83069-.02636-1.93927-.10058-3.04837-.05762-.55087-.0918-1.1083-.16553-1.62376-.08057-.51386-.14014-.99967-.21973-1.40965-.1831-.81737-.30566-1.36229-.30566-1.36229s.1831.52983.45752,1.32457c.12549.40187.23926.87957.3789,1.38943.13282.51125.2295,1.06493.35059,1.61673.2002,1.10841.36279,2.2265.44727,3.07031.09521.84206.12548,1.41292.12548,1.41292Z" transform="translate(11.3438)" fill="#39ae4a"/><path d="M47.3193,54.0313a6.05329,6.05329,0,0,0-8.552,0l1.0144,1.0144a4.61843,4.61843,0,0,1,6.5231,0Z" transform="translate(11.3438)" fill="#fff"/><path d="M51.9851,50.7035a12.64637,12.64637,0,0,0-17.8844,0l1.0145,1.0145a11.212,11.212,0,0,1,15.8555,0Z" transform="translate(11.3438)" fill="#fff"/><path d="M43.0429,43.0399a17.82636,17.82636,0,0,1,12.6889,5.2558l1.0145-1.0145a19.3795,19.3795,0,0,0-27.4067,0l1.0144,1.0145A17.82653,17.82653,0,0,1,43.0429,43.0399Z" transform="translate(11.3438)" fill="#fff"/><path d="M29.9526,59.1632H24.9035v9.8929h3.5043a.85236.85236,0,0,0,.8372-.6936l1.5448-8.1898a.85162.85162,0,0,0-.8372-1.0095Z" transform="translate(11.3438)" fill="#fff"/><path d="M53.4697,65.1594l-5.9182,2.3247a2.60461,2.60461,0,0,1-1.6467.6535c-.1744.0049-.3573.0077-.5457.0077a20.3632,20.3632,0,0,1-9.095-2.1595l.6418-1.2835a19.13581,19.13581,0,0,0,8.9583,2.0012,1.1795,1.1795,0,0,0,.2305-2.3291l-1.5665-.3562a71.37932,71.37932,0,0,1-7.649-2.1655,6.81512,6.81512,0,0,0-3.823-.131l-1.1546.2954-1.0928,5.7936,10.936,4.0459a3.66246,3.66246,0,0,0,2.7988-.0995l11.8776-5.3807.0343-.1177A2.67233,2.67233,0,0,0,53.4697,65.1594Z" transform="translate(11.3438)" fill="#fff"/><path d="M41.8281,58.8534a1.21515,1.21515,0,1,0,1.2148-1.2155A1.21636,1.21636,0,0,0,41.8281,58.8534Z" transform="translate(11.3438)" fill="#fff"/></g></g></g></svg>