<svg xmlns="http://www.w3.org/2000/svg" xmlns:xlink="http://www.w3.org/1999/xlink" viewBox="0 0 309 309"><defs><linearGradient id="New_Gradient_Swatch_7" x1="681.21186" y1="263.74799" x2="899.70785" y2="45.25201" gradientTransform="matrix(-1, 0, 0, 1, 944.95985, 0)" gradientUnits="userSpaceOnUse"><stop offset="0" stop-color="#38a380"/><stop offset="0.06811" stop-color="#4fa684"/><stop offset="0.19954" stop-color="#74ac8a"/><stop offset="0.33708" stop-color="#93b090"/><stop offset="0.4803" stop-color="#abb494"/><stop offset="0.63159" stop-color="#bcb697"/><stop offset="0.79642" stop-color="#c6b898"/><stop offset="1" stop-color="#c9b899"/></linearGradient></defs><g id="Layer_2" data-name="Layer 2"><g id="Layer_1-2" data-name="Layer 1"><circle cx="154.5" cy="154.5" r="153.5" fill="#fff" stroke-miterlimit="10" stroke-width="2" stroke="url(#New_Gradient_Swatch_7)"/><path d="M72.37051,188.97154a4.694,4.694,0,0,1-1.68554,3.89551,7.78448,7.78448,0,0,1-4.94434,1.34668h-1.3877l-1.26464,5.91015H61.34122L64.517,185.09654h3.39257a4.98591,4.98591,0,0,1,3.33008.97168A3.61733,3.61733,0,0,1,72.37051,188.97154Zm-7.69922,3.74121h1.36719a5.24564,5.24564,0,0,0,3.37109-.93457,3.33062,3.33062,0,0,0,1.15137-2.74512,2.2349,2.2349,0,0,0-.71387-1.85449,3.48507,3.48507,0,0,0-2.19433-.57129H65.977Z" fill="#232323"/><path d="M80.1,188.65318a4.70247,4.70247,0,0,1,1.2334.14355l-.37011,1.542a4.52758,4.52758,0,0,0-1.07911-.13379,2.85632,2.85632,0,0,0-1.75293.61718,5.41619,5.41619,0,0,0-1.42871,1.71094,8.74238,8.74238,0,0,0-.89941,2.43067l-1.09961,5.16015H72.977l2.40527-11.26562h1.42871l-.22656,2.08691h.10352a10.10559,10.10559,0,0,1,1.22265-1.40332,3.8778,3.8778,0,0,1,1.0127-.65723A2.90555,2.90555,0,0,1,80.1,188.65318Z" fill="#232323"/><path d="M87.31582,188.7147a4.115,4.115,0,0,1,3.083,1.15625,4.35583,4.35583,0,0,1,1.13086,3.18164,9.12065,9.12065,0,0,1-.74023,3.64844,6.31306,6.31306,0,0,1-2.00391,2.65234,4.68725,4.68725,0,0,1-2.85742.93457,4.09539,4.09539,0,0,1-3.09375-1.16113,4.38227,4.38227,0,0,1-1.12109-3.17578,9.10142,9.10142,0,0,1,.751-3.6748,6.22828,6.22828,0,0,1,2.02442-2.64161A4.71943,4.71943,0,0,1,87.31582,188.7147Zm2.42579,4.10156a2.80857,2.80857,0,0,0-.64258-1.917,2.19522,2.19522,0,0,0-1.74219-.73535,3.01058,3.01058,0,0,0-2.00977.76074,4.88935,4.88935,0,0,0-1.377,2.11231,8.78409,8.78409,0,0,0-.48828,3.00683,3.02923,3.02923,0,0,0,.65234,2.08106,2.37663,2.37663,0,0,0,1.876.73437,2.8335,2.8335,0,0,0,1.92188-.75,4.89,4.89,0,0,0,1.33105-2.13281A9.65517,9.65517,0,0,0,89.74161,192.81626Z" fill="#232323"/><path d="M94.808,200.12388l-1.28515-11.26562H95.2504l.65722,6.30078q.24756,2.65283.24707,3.7207h.06153q1.30517-2.82568,1.83984-3.8125l3.34082-6.209h1.8291l-6.07422,11.26562Z" fill="#232323"/><path d="M104.57266,200.12388H102.8461l2.40527-11.26562h1.72656Zm1.16211-14.14355a1.35264,1.35264,0,0,1,.32813-.94043,1.09635,1.09635,0,0,1,.85351-.36426.80835.80835,0,0,1,.9043.9248,1.395,1.395,0,0,1-.34375.95606,1.037,1.037,0,0,1-.79688.39062.95067.95067,0,0,1-.67871-.252A.93624.93624,0,0,1,105.73477,185.98033Z" fill="#232323"/><path d="M114.15274,188.67369a2.99811,2.99811,0,0,1,2.88769,1.95312h.10254a23.90027,23.90027,0,0,1,.46289-2.81641l.80176-3.67968h1.70606l-3.39161,15.99316h-1.42871l.22559-2.14844h-.082a7.735,7.735,0,0,1-1.94238,1.81934,3.63107,3.63107,0,0,1-1.8711.53516,2.69185,2.69185,0,0,1-2.23047-1.00782,4.382,4.382,0,0,1-.80175-2.79589,10.65635,10.65635,0,0,1,.74023-4.0293,6.72292,6.72292,0,0,1,1.999-2.82617A4.43076,4.43076,0,0,1,114.15274,188.67369Zm-1.95313,10.22754a2.99337,2.99337,0,0,0,1.99414-.96192,6.75878,6.75878,0,0,0,1.62891-2.45605,8.11329,8.11329,0,0,0,.60156-3.04786,2.46059,2.46059,0,0,0-.55566-1.7373,2.10085,2.10085,0,0,0-1.61328-.5957,2.74941,2.74941,0,0,0-1.92774.84765,5.96858,5.96858,0,0,0-1.42871,2.38477,9.69614,9.69614,0,0,0-.53906,3.23242Q110.35977,198.90073,112.19961,198.90123Z" fill="#232323"/><path d="M122.0668,200.12388h-1.72656l2.40527-11.26562h1.72656Zm1.16211-14.14355a1.35264,1.35264,0,0,1,.32813-.94043,1.09635,1.09635,0,0,1,.85351-.36426.80835.80835,0,0,1,.9043.9248,1.395,1.395,0,0,1-.34375.95606,1.037,1.037,0,0,1-.79688.39062.95067.95067,0,0,1-.67871-.252A.93624.93624,0,0,1,123.22891,185.98033Z" fill="#232323"/><path d="M132.57168,200.12388l1.52149-7.1123a9.39792,9.39792,0,0,0,.20508-1.48047,1.46064,1.46064,0,0,0-.36524-1.03809,1.52873,1.52873,0,0,0-1.166-.39062,3.04519,3.04519,0,0,0-1.78321.61621,5.49235,5.49235,0,0,0-1.53222,1.75781,9.27831,9.27831,0,0,0-1.002,2.76563l-1.03808,4.88183H125.685l2.40527-11.26562H129.519l-.22656,2.08691h.10351a6.87,6.87,0,0,1,1.90625-1.77344,3.833,3.833,0,0,1,1.90625-.51855,2.88274,2.88274,0,0,1,2.06153.71387,2.62358,2.62358,0,0,1,.75488,2,8.40078,8.40078,0,0,1-.23633,1.8496l-1.46973,6.90723Z" fill="#232323"/><path d="M148.5336,188.85826l-.25684,1.10058-2.16894.2461a2.89509,2.89509,0,0,1,.4209,1.624,4.17057,4.17057,0,0,1-1.19727,3.12988,4.38765,4.38765,0,0,1-3.20117,1.167,3.46276,3.46276,0,0,1-.86426-.082q-1.42822.54492-1.42871,1.34571a.54511.54511,0,0,0,.33984.56054,4.07557,4.07557,0,0,0,.98633.22071l1.20313.14453a5.35082,5.35082,0,0,1,2.69726.90429,2.41358,2.41358,0,0,1,.83789,1.99415,3.35467,3.35467,0,0,1-1.5,2.92871,7.35986,7.35986,0,0,1-4.22461,1.03808,5.57241,5.57241,0,0,1-3.125-.75488,2.42,2.42,0,0,1-1.13086-2.13281,2.64886,2.64886,0,0,1,.74024-1.8711,5.76894,5.76894,0,0,1,2.39453-1.34668,1.33743,1.33743,0,0,1-.80078-1.24316,1.6358,1.6358,0,0,1,.52344-1.21777,5.39289,5.39289,0,0,1,1.46-.95118,2.679,2.679,0,0,1-1.0586-.97168,2.70691,2.70691,0,0,1-.41113-1.49511,4.51442,4.51442,0,0,1,1.22852-3.26856,4.16966,4.16966,0,0,1,3.13964-1.27441,6.2097,6.2097,0,0,1,1.583.20508Zm-10.94727,13.26953a1.4461,1.4461,0,0,0,.66895,1.2539,3.48821,3.48821,0,0,0,1.9834.46289,5.54922,5.54922,0,0,0,2.92382-.65234,2.05832,2.05832,0,0,0,1.05372-1.8457,1.15112,1.15112,0,0,0-.55469-1.00684,4.44789,4.44789,0,0,0-1.8916-.51367l-1.63379-.165a3.71516,3.71516,0,0,0-1.8916.90527A2.112,2.112,0,0,0,137.58633,202.12779Zm2.85742-8.99317a1.79048,1.79048,0,0,0,.4629,1.33106,1.74884,1.74884,0,0,0,1.28515.457,2.3797,2.3797,0,0,0,1.418-.43164,2.74936,2.74936,0,0,0,.93066-1.18652,4.1215,4.1215,0,0,0,.32325-1.63965,1.71746,1.71746,0,0,0-.45215-1.28516,1.78027,1.78027,0,0,0-1.29492-.44141,2.40734,2.40734,0,0,0-1.40332.416,2.73234,2.73234,0,0,0-.93555,1.16113A3.916,3.916,0,0,0,140.44375,193.13462Z" fill="#232323"/><path d="M155.57461,200.12388h-1.72656l2.40527-11.26562h1.72657Zm1.16211-14.14355a1.35264,1.35264,0,0,1,.32813-.94043,1.09635,1.09635,0,0,1,.85351-.36426.80835.80835,0,0,1,.9043.9248,1.395,1.395,0,0,1-.34375.95606,1.037,1.037,0,0,1-.79687.39062.95069.95069,0,0,1-.67872-.252A.93624.93624,0,0,1,156.73672,185.98033Z" fill="#232323"/><path d="M166.0795,200.12388l1.52148-7.1123a9.39792,9.39792,0,0,0,.20508-1.48047,1.46064,1.46064,0,0,0-.36524-1.03809,1.52873,1.52873,0,0,0-1.166-.39062,3.04514,3.04514,0,0,0-1.7832.61621,5.49225,5.49225,0,0,0-1.53223,1.75781,9.278,9.278,0,0,0-1.002,2.76563l-1.03809,4.88183h-1.72656l2.40527-11.26562h1.42871l-.22656,2.08691h.10352a6.86968,6.86968,0,0,1,1.90625-1.77344,3.83294,3.83294,0,0,1,1.90625-.51855,2.88273,2.88273,0,0,1,2.06152.71387,2.62358,2.62358,0,0,1,.75488,2,8.40018,8.40018,0,0,1-.23633,1.8496l-1.46972,6.90723Z" fill="#232323"/><path d="M176.33731,200.32994a3.01589,3.01589,0,0,1-1.74707-.51465,3.3357,3.3357,0,0,1-1.16113-1.43848h-.10352l-.041.39063c-.0205.17089-.05664.41113-.10742.71875q-.07762.46289-1.17675,5.69433h-1.707l3.45411-16.32226h1.42871l-.26758,2.14843h.082q1.83984-2.33349,3.82422-2.333a2.70293,2.70293,0,0,1,2.21972,1.00195,4.35653,4.35653,0,0,1,.8125,2.81152,10.90225,10.90225,0,0,1-.71,3.99805,6.63751,6.63751,0,0,1-1.96289,2.832A4.39641,4.39641,0,0,1,176.33731,200.32994Zm1.91211-10.22754a2.971,2.971,0,0,0-2.00977.97656,6.97651,6.97651,0,0,0-1.624,2.45605,8.00051,8.00051,0,0,0-.60059,3.03223,2.4206,2.4206,0,0,0,.57032,1.73242,2.16665,2.16665,0,0,0,1.64941.60157,2.71956,2.71956,0,0,0,1.89648-.833,5.843,5.843,0,0,0,1.41309-2.36914,9.86043,9.86043,0,0,0,.53418-3.26368Q180.07852,190.10191,178.24942,190.1024Z" fill="#232323"/><path d="M187.51993,188.85826l-1.542,7.14355a7.74205,7.74205,0,0,0-.18457,1.42871,1.31766,1.31766,0,0,0,1.51075,1.47071,3.05954,3.05954,0,0,0,1.77832-.61719,5.48046,5.48046,0,0,0,1.541-1.76758,9.47086,9.47086,0,0,0,1.01758-2.77539l1.02832-4.88281h1.70606l-2.374,11.26562h-1.42871l.22559-2.08691h-.12305a6.75323,6.75323,0,0,1-1.92188,1.78906,3.88327,3.88327,0,0,1-1.8916.50391,2.87128,2.87128,0,0,1-2.06543-.71485,2.6812,2.6812,0,0,1-.751-2.04,9.59693,9.59693,0,0,1,.22656-1.76855l1.501-6.94824Z" fill="#232323"/><path d="M199.09317,198.92173a5.58581,5.58581,0,0,0,1.48047-.26758v1.32618a4.75192,4.75192,0,0,1-.86328.24609,4.45425,4.45425,0,0,1-.82227.10352,2.85746,2.85746,0,0,1-1.96875-.61231,2.32342,2.32342,0,0,1-.68359-1.82422,7.47762,7.47762,0,0,1,.18554-1.542l1.30567-6.1875H195.9584l.14453-.75,1.90137-.80176,1.28418-2.34375h1.00781l-.56543,2.58985h2.81641l-.26758,1.30566H199.474l-1.32617,6.208a7.33714,7.33714,0,0,0-.18457,1.35742,1.219,1.219,0,0,0,.29785.88379A1.10522,1.10522,0,0,0,199.09317,198.92173Z" fill="#232323"/><path d="M209.41348,196.92759a3.01529,3.01529,0,0,1-1.13574,2.50293,5.04287,5.04287,0,0,1-3.20215.89942,6.82971,6.82971,0,0,1-3.13477-.71v-1.624a6.36418,6.36418,0,0,0,1.55274.668,5.64516,5.64516,0,0,0,1.541.23731,3.13289,3.13289,0,0,0,1.95313-.51465,1.59884,1.59884,0,0,0,.6582-1.31543,1.42,1.42,0,0,0-.36035-.98633,7.24089,7.24089,0,0,0-1.55176-1.10059,6.242,6.242,0,0,1-1.8916-1.46972,2.70929,2.70929,0,0,1-.55469-1.70606,2.83573,2.83573,0,0,1,1.03809-2.28711,4.12049,4.12049,0,0,1,2.73438-.86816,7.95371,7.95371,0,0,1,3.3916.76074l-.55469,1.4082-.57617-.25683a5.7066,5.7066,0,0,0-2.26074-.44239,2.30034,2.30034,0,0,0-1.501.44727,1.50589,1.50589,0,0,0-.17969,2.14258,6.42357,6.42357,0,0,0,1.50586,1.05859,8.709,8.709,0,0,1,1.57715,1.05957,3.0503,3.0503,0,0,1,.71484.9502A2.695,2.695,0,0,1,209.41348,196.92759Z" fill="#232323"/><path d="M215.27188,205.18052a3.619,3.619,0,0,1-1.28418-.21582v-1.44922a3.59953,3.59953,0,0,0,1.15137.22657,1.35784,1.35784,0,0,0,1.20215-.6377,5.4474,5.4474,0,0,0,.67871-1.81934l2.333-11.12109h-1.98339l.13281-.68848,2.11816-.67871.23633-1.02734a6.082,6.082,0,0,1,1.31055-2.9043,3.33969,3.33969,0,0,1,2.48144-.84765,5.38655,5.38655,0,0,1,1.00782.11816,4.7153,4.7153,0,0,1,.9248.26172l-.44141,1.32617a4.01338,4.01338,0,0,0-1.4082-.29785,1.81551,1.81551,0,0,0-1.37305.49805,3.96526,3.96526,0,0,0-.77539,1.82519l-.25683,1.10938h2.44629l-.25684,1.30566H221.0795l-2.38477,11.28613a5.87906,5.87906,0,0,1-1.2334,2.83692A2.851,2.851,0,0,1,215.27188,205.18052Z" fill="#232323"/><path d="M229.53848,188.7147a4.11506,4.11506,0,0,1,3.083,1.15625,4.35583,4.35583,0,0,1,1.13086,3.18164,9.12048,9.12048,0,0,1-.74024,3.64844,6.313,6.313,0,0,1-2.0039,2.65234,4.68727,4.68727,0,0,1-2.85742.93457,4.09539,4.09539,0,0,1-3.09375-1.16113,4.38228,4.38228,0,0,1-1.1211-3.17578,9.10143,9.10143,0,0,1,.751-3.6748,6.22827,6.22827,0,0,1,2.02441-2.64161A4.71944,4.71944,0,0,1,229.53848,188.7147Zm2.42578,4.10156a2.80853,2.80853,0,0,0-.64258-1.917,2.1952,2.1952,0,0,0-1.74218-.73535,3.01056,3.01056,0,0,0-2.00977.76074,4.88926,4.88926,0,0,0-1.37695,2.11231,8.78409,8.78409,0,0,0-.48828,3.00683,3.02919,3.02919,0,0,0,.65234,2.08106,2.37663,2.37663,0,0,0,1.876.73437,2.83348,2.83348,0,0,0,1.92187-.75,4.88994,4.88994,0,0,0,1.33106-2.13281A9.65518,9.65518,0,0,0,231.96426,192.81626Z" fill="#232323"/><path d="M242.46915,188.65318a4.70245,4.70245,0,0,1,1.23339.14355l-.37011,1.542a4.52752,4.52752,0,0,0-1.07911-.13379,2.85627,2.85627,0,0,0-1.75292.61718,5.41609,5.41609,0,0,0-1.42872,1.71094,8.74238,8.74238,0,0,0-.89941,2.43067l-1.09961,5.16015H235.3461l2.40527-11.26562h1.42871l-.22656,2.08691h.10352a10.10559,10.10559,0,0,1,1.22265-1.40332,3.8778,3.8778,0,0,1,1.0127-.65723A2.90556,2.90556,0,0,1,242.46915,188.65318Z" fill="#232323"/><path d="M67.725,214.119l-.25683,1.10058-2.16895.2461a2.895,2.895,0,0,1,.4209,1.624,4.17055,4.17055,0,0,1-1.19726,3.12988,4.3877,4.3877,0,0,1-3.20118,1.167,3.46321,3.46321,0,0,1-.86425-.082q-1.42823.54492-1.42871,1.3457a.54513.54513,0,0,0,.33984.56055,4.07612,4.07612,0,0,0,.98633.2207l1.20312.14453a5.35076,5.35076,0,0,1,2.69727.9043,2.41358,2.41358,0,0,1,.83789,1.99414,3.35467,3.35467,0,0,1-1.5,2.92871,7.35988,7.35988,0,0,1-4.22461,1.03808,5.57241,5.57241,0,0,1-3.125-.75488,2.41992,2.41992,0,0,1-1.13086-2.13281,2.64885,2.64885,0,0,1,.74023-1.87109,5.76883,5.76883,0,0,1,2.39454-1.34668,1.33746,1.33746,0,0,1-.80079-1.24317,1.63583,1.63583,0,0,1,.52344-1.21777,5.393,5.393,0,0,1,1.46-.95117,2.679,2.679,0,0,1-1.05859-.97168,2.70686,2.70686,0,0,1-.41113-1.49512,4.51446,4.51446,0,0,1,1.22851-3.26856,4.16974,4.16974,0,0,1,3.13965-1.27441,6.2097,6.2097,0,0,1,1.583.20508ZM56.77774,227.38853a1.44615,1.44615,0,0,0,.66894,1.25391,3.48834,3.48834,0,0,0,1.9834.46289,5.54928,5.54928,0,0,0,2.92383-.65235,2.0583,2.0583,0,0,0,1.05371-1.8457,1.15113,1.15113,0,0,0-.55469-1.00684,4.44795,4.44795,0,0,0-1.8916-.51367l-1.63379-.165a3.71525,3.71525,0,0,0-1.8916.90528A2.112,2.112,0,0,0,56.77774,227.38853Zm2.85742-8.99316a1.79049,1.79049,0,0,0,.46289,1.331,1.74888,1.74888,0,0,0,1.28516.457,2.37965,2.37965,0,0,0,1.418-.43164,2.74937,2.74937,0,0,0,.93066-1.18652,4.12146,4.12146,0,0,0,.32324-1.63965,1.71748,1.71748,0,0,0-.45215-1.28516,1.78023,1.78023,0,0,0-1.29492-.4414,2.40735,2.40735,0,0,0-1.40332.416,2.73228,2.73228,0,0,0-.93554,1.16114A3.91593,3.91593,0,0,0,59.63516,218.39537Z" fill="#232323"/><path d="M74.69375,213.91392a4.702,4.702,0,0,1,1.2334.14356l-.37011,1.542a4.52758,4.52758,0,0,0-1.07911-.13379,2.85627,2.85627,0,0,0-1.75293.61719,5.416,5.416,0,0,0-1.42871,1.71093,8.7425,8.7425,0,0,0-.89941,2.43067l-1.09961,5.16015H67.57071L69.976,214.119h1.42871l-.22656,2.08691h.10352a10.10619,10.10619,0,0,1,1.22265-1.40332,3.8775,3.8775,0,0,1,1.0127-.65722A2.90538,2.90538,0,0,1,74.69375,213.91392Z" fill="#232323"/><path d="M80.35684,225.59068a3.92792,3.92792,0,0,1-2.96973-1.1211,4.28563,4.28563,0,0,1-1.08007-3.10351,9.25222,9.25222,0,0,1,.7666-3.70606,6.85544,6.85544,0,0,1,2.02929-2.75976,4.42769,4.42769,0,0,1,2.78614-.98633,3.52935,3.52935,0,0,1,2.36328.68359,2.38259,2.38259,0,0,1,.792,1.90625,3.261,3.261,0,0,1-1.70605,2.9043,9.3499,9.3499,0,0,1-4.88282,1.05274h-.33886l-.041.82226a3.1842,3.1842,0,0,0,.63184,2.10254,2.4095,2.4095,0,0,0,1.958.75488,5.09787,5.09787,0,0,0,1.33106-.18457,10.153,10.153,0,0,0,1.70117-.67871v1.501a9.2519,9.2519,0,0,1-1.70605.63183A6.90876,6.90876,0,0,1,80.35684,225.59068Zm1.42871-10.207a2.74779,2.74779,0,0,0-1.98828.96582,6.31948,6.31948,0,0,0-1.42383,2.68261h.123a8.387,8.387,0,0,0,3.59277-.61132,1.91932,1.91932,0,0,0,1.249-1.77246,1.203,1.203,0,0,0-.375-.90528A1.65668,1.65668,0,0,0,81.78555,215.38365Z" fill="#232323"/><path d="M92.24942,213.91392a2.90712,2.90712,0,0,1,1.68555.50879,3.30636,3.30636,0,0,1,1.15136,1.46484h.11231l.68945-1.76855h1.30469l-2.39453,11.26562H93.43106l.26758-2.14843h-.083q-1.83984,2.354-3.875,2.35449a2.70962,2.70962,0,0,1-2.24023-1.01758,4.35265,4.35265,0,0,1-.8125-2.78613,10.603,10.603,0,0,1,.73046-3.96778A6.85118,6.85118,0,0,1,89.433,214.952,4.38018,4.38018,0,0,1,92.24942,213.91392ZM90.29629,224.162a2.89381,2.89381,0,0,0,1.9834-.95117,7.04212,7.04212,0,0,0,1.60352-2.47754,8.10549,8.10549,0,0,0,.61719-3.05762,2.3949,2.3949,0,0,0-.57618-1.68555,1.95491,1.95491,0,0,0-1.51074-.627,2.83168,2.83168,0,0,0-1.98926.88379,5.95907,5.95907,0,0,0-1.44336,2.39453,9.65459,9.65459,0,0,0-.52441,3.18652,2.70087,2.70087,0,0,0,.48242,1.75293A1.66944,1.66944,0,0,0,90.29629,224.162Z" fill="#232323"/><path d="M101.63321,224.18248a5.58628,5.58628,0,0,0,1.48047-.26758v1.32617a4.75192,4.75192,0,0,1-.86328.24609,4.45425,4.45425,0,0,1-.82227.10352,2.85737,2.85737,0,0,1-1.96875-.61231,2.32341,2.32341,0,0,1-.68359-1.82422,7.4777,7.4777,0,0,1,.18554-1.542l1.30567-6.1875H98.49844l.14453-.75,1.90137-.80176,1.28418-2.34375h1.00781l-.56543,2.58985h2.81641l-.26758,1.30566h-2.80566l-1.32617,6.208a7.33735,7.33735,0,0,0-.18458,1.35742,1.219,1.219,0,0,0,.29786.88379A1.10522,1.10522,0,0,0,101.63321,224.18248Z" fill="#232323"/><path d="M109.4545,225.59068a3.92791,3.92791,0,0,1-2.96973-1.1211,4.28559,4.28559,0,0,1-1.08008-3.10351,9.25222,9.25222,0,0,1,.7666-3.70606,6.85555,6.85555,0,0,1,2.0293-2.75976,4.42764,4.42764,0,0,1,2.78613-.98633,3.52934,3.52934,0,0,1,2.36328.68359,2.3826,2.3826,0,0,1,.792,1.90625,3.26094,3.26094,0,0,1-1.70606,2.9043,9.34984,9.34984,0,0,1-4.88281,1.05274h-.33887l-.041.82226a3.1842,3.1842,0,0,0,.63183,2.10254,2.40952,2.40952,0,0,0,1.958.75488,5.09787,5.09787,0,0,0,1.33106-.18457,10.153,10.153,0,0,0,1.70117-.67871v1.501a9.2517,9.2517,0,0,1-1.70606.63183A6.90861,6.90861,0,0,1,109.4545,225.59068Zm1.42871-10.207a2.74777,2.74777,0,0,0-1.98828.96582,6.31948,6.31948,0,0,0-1.42383,2.68261h.123a8.387,8.387,0,0,0,3.59277-.61132,1.91931,1.91931,0,0,0,1.249-1.77246,1.203,1.203,0,0,0-.375-.90528A1.65666,1.65666,0,0,0,110.88321,215.38365Z" fill="#232323"/><path d="M122.50918,213.91392a4.702,4.702,0,0,1,1.2334.14356l-.37011,1.542a4.52758,4.52758,0,0,0-1.07911-.13379,2.85627,2.85627,0,0,0-1.75293.61719,5.416,5.416,0,0,0-1.42871,1.71093,8.7425,8.7425,0,0,0-.89941,2.43067l-1.09961,5.16015h-1.72656l2.40527-11.26562h1.42871l-.22656,2.08691h.10351a10.10679,10.10679,0,0,1,1.22266-1.40332,3.8775,3.8775,0,0,1,1.0127-.65722A2.90538,2.90538,0,0,1,122.50918,213.91392Z" fill="#232323"/><path d="M136.3129,213.91392a4.702,4.702,0,0,1,1.23339.14356l-.37011,1.542a4.52752,4.52752,0,0,0-1.07911-.13379,2.85622,2.85622,0,0,0-1.75292.61719,5.41593,5.41593,0,0,0-1.42872,1.71093,8.7425,8.7425,0,0,0-.89941,2.43067l-1.09961,5.16015h-1.72656l2.40527-11.26562h1.42871l-.22656,2.08691h.10352a10.10619,10.10619,0,0,1,1.22265-1.40332,3.8775,3.8775,0,0,1,1.0127-.65722A2.9054,2.9054,0,0,1,136.3129,213.91392Z" fill="#232323"/><path d="M141.976,225.59068a3.92792,3.92792,0,0,1-2.96973-1.1211,4.28563,4.28563,0,0,1-1.08007-3.10351,9.25222,9.25222,0,0,1,.7666-3.70606,6.85544,6.85544,0,0,1,2.02929-2.75976,4.42769,4.42769,0,0,1,2.78614-.98633,3.52934,3.52934,0,0,1,2.36328.68359,2.38259,2.38259,0,0,1,.792,1.90625,3.26093,3.26093,0,0,1-1.70605,2.9043,9.3499,9.3499,0,0,1-4.88282,1.05274h-.33886l-.041.82226a3.1842,3.1842,0,0,0,.63184,2.10254,2.4095,2.4095,0,0,0,1.958.75488,5.09781,5.09781,0,0,0,1.33106-.18457,10.153,10.153,0,0,0,1.70117-.67871v1.501a9.2519,9.2519,0,0,1-1.70605.63183A6.90876,6.90876,0,0,1,141.976,225.59068Zm1.42871-10.207a2.74779,2.74779,0,0,0-1.98828.96582,6.31948,6.31948,0,0,0-1.42383,2.68261h.12305a8.387,8.387,0,0,0,3.59277-.61132,1.91932,1.91932,0,0,0,1.249-1.77246,1.203,1.203,0,0,0-.375-.90528A1.65668,1.65668,0,0,0,143.40469,215.38365Z" fill="#232323"/><path d="M158.60782,214.119l-.25684,1.10058-2.16894.2461a2.89511,2.89511,0,0,1,.42089,1.624,4.17055,4.17055,0,0,1-1.19726,3.12988,4.38768,4.38768,0,0,1-3.20117,1.167,3.46324,3.46324,0,0,1-.86426-.082q-1.42822.54492-1.42871,1.3457a.54513.54513,0,0,0,.33984.56055,4.07612,4.07612,0,0,0,.98633.2207l1.20312.14453a5.35072,5.35072,0,0,1,2.69727.9043,2.41358,2.41358,0,0,1,.83789,1.99414,3.35467,3.35467,0,0,1-1.5,2.92871,7.35988,7.35988,0,0,1-4.22461,1.03808,5.57241,5.57241,0,0,1-3.125-.75488,2.41994,2.41994,0,0,1-1.13086-2.13281,2.64882,2.64882,0,0,1,.74024-1.87109,5.76872,5.76872,0,0,1,2.39453-1.34668,1.33745,1.33745,0,0,1-.80078-1.24317,1.63582,1.63582,0,0,1,.52343-1.21777,5.39287,5.39287,0,0,1,1.46-.95117,2.679,2.679,0,0,1-1.0586-.97168,2.70694,2.70694,0,0,1-.41113-1.49512,4.51446,4.51446,0,0,1,1.22851-3.26856,4.16974,4.16974,0,0,1,3.13965-1.27441,6.2097,6.2097,0,0,1,1.583.20508Zm-10.94727,13.26953a1.44613,1.44613,0,0,0,.66895,1.25391,3.4883,3.4883,0,0,0,1.9834.46289,5.54924,5.54924,0,0,0,2.92382-.65235,2.0583,2.0583,0,0,0,1.05371-1.8457,1.15114,1.15114,0,0,0-.55468-1.00684,4.448,4.448,0,0,0-1.8916-.51367l-1.63379-.165a3.71524,3.71524,0,0,0-1.89161.90528A2.112,2.112,0,0,0,147.66055,227.38853Zm2.85742-8.99316a1.79049,1.79049,0,0,0,.46289,1.331,1.74888,1.74888,0,0,0,1.28516.457,2.37963,2.37963,0,0,0,1.418-.43164,2.7493,2.7493,0,0,0,.93066-1.18652,4.12146,4.12146,0,0,0,.32325-1.63965,1.71752,1.71752,0,0,0-.45215-1.28516,1.78027,1.78027,0,0,0-1.29493-.4414,2.40737,2.40737,0,0,0-1.40332.416,2.73228,2.73228,0,0,0-.93554,1.16114A3.91593,3.91593,0,0,0,150.518,218.39537Z" fill="#232323"/><path d="M162.90274,225.59068a3.92792,3.92792,0,0,1-2.96973-1.1211,4.28563,4.28563,0,0,1-1.08008-3.10351,9.25206,9.25206,0,0,1,.76661-3.70606,6.85544,6.85544,0,0,1,2.02929-2.75976,4.42769,4.42769,0,0,1,2.78614-.98633,3.52935,3.52935,0,0,1,2.36328.68359,2.38259,2.38259,0,0,1,.792,1.90625,3.26094,3.26094,0,0,1-1.70606,2.9043,9.34984,9.34984,0,0,1-4.88281,1.05274h-.33887l-.041.82226a3.18425,3.18425,0,0,0,.63183,2.10254,2.40952,2.40952,0,0,0,1.958.75488,5.09787,5.09787,0,0,0,1.33106-.18457,10.153,10.153,0,0,0,1.70117-.67871v1.501a9.2517,9.2517,0,0,1-1.70606.63183A6.90861,6.90861,0,0,1,162.90274,225.59068Zm1.42871-10.207a2.74779,2.74779,0,0,0-1.98828.96582,6.31948,6.31948,0,0,0-1.42383,2.68261h.12305a8.387,8.387,0,0,0,3.59277-.61132,1.91931,1.91931,0,0,0,1.249-1.77246,1.203,1.203,0,0,0-.375-.90528A1.65664,1.65664,0,0,0,164.33145,215.38365Z" fill="#232323"/><path d="M175.7211,225.38462l1.52148-7.1123a9.39792,9.39792,0,0,0,.20508-1.48047,1.46069,1.46069,0,0,0-.36523-1.03809,1.52877,1.52877,0,0,0-1.166-.39062,3.04514,3.04514,0,0,0-1.7832.61621,5.49238,5.49238,0,0,0-1.53223,1.75781,9.278,9.278,0,0,0-1.00195,2.76563l-1.03809,4.88183h-1.72656l2.40527-11.26562h1.42871l-.22656,2.08691h.10352a6.86976,6.86976,0,0,1,1.90625-1.77343,3.83285,3.83285,0,0,1,1.90625-.51856,2.88273,2.88273,0,0,1,2.06152.71387,2.62358,2.62358,0,0,1,.75488,2,8.40087,8.40087,0,0,1-.23632,1.84961l-1.46973,6.90722Z" fill="#232323"/><path d="M185.434,225.59068a3.92792,3.92792,0,0,1-2.96973-1.1211,4.28563,4.28563,0,0,1-1.08008-3.10351,9.25206,9.25206,0,0,1,.76661-3.70606,6.85544,6.85544,0,0,1,2.02929-2.75976,4.42769,4.42769,0,0,1,2.78614-.98633,3.52935,3.52935,0,0,1,2.36328.68359,2.38259,2.38259,0,0,1,.792,1.90625,3.26094,3.26094,0,0,1-1.70606,2.9043,9.34984,9.34984,0,0,1-4.88281,1.05274h-.33887l-.041.82226a3.18425,3.18425,0,0,0,.63183,2.10254,2.40952,2.40952,0,0,0,1.958.75488,5.09787,5.09787,0,0,0,1.33106-.18457,10.153,10.153,0,0,0,1.70117-.67871v1.501a9.2517,9.2517,0,0,1-1.70606.63183A6.90861,6.90861,0,0,1,185.434,225.59068Zm1.42871-10.207a2.74779,2.74779,0,0,0-1.98828.96582,6.31948,6.31948,0,0,0-1.42383,2.68261h.12305a8.387,8.387,0,0,0,3.59277-.61132,1.91931,1.91931,0,0,0,1.249-1.77246,1.203,1.203,0,0,0-.375-.90528A1.65664,1.65664,0,0,0,186.8627,215.38365Z" fill="#232323"/><path d="M198.4877,213.91392a4.702,4.702,0,0,1,1.2334.14356l-.37012,1.542a4.5275,4.5275,0,0,0-1.0791-.13379,2.85625,2.85625,0,0,0-1.75293.61719,5.41578,5.41578,0,0,0-1.42871,1.71093,8.74252,8.74252,0,0,0-.89942,2.43067l-1.0996,5.16015h-1.72657l2.40528-11.26562h1.42871l-.22657,2.08691h.10352a10.10545,10.10545,0,0,1,1.22266-1.40332,3.87745,3.87745,0,0,1,1.01269-.65722A2.90543,2.90543,0,0,1,198.4877,213.91392Z" fill="#232323"/><path d="M205.6625,213.91392a2.90707,2.90707,0,0,1,1.68555.50879,3.30638,3.30638,0,0,1,1.15137,1.46484h.1123l.68946-1.76855h1.30468l-2.39453,11.26562h-1.36718l.26757-2.14843h-.083q-1.83985,2.354-3.875,2.35449a2.70965,2.70965,0,0,1-2.24024-1.01758,4.35271,4.35271,0,0,1-.8125-2.78613,10.603,10.603,0,0,1,.73047-3.96778,6.85118,6.85118,0,0,1,2.01465-2.86718A4.38015,4.38015,0,0,1,205.6625,213.91392ZM203.70938,224.162a2.89385,2.89385,0,0,0,1.9834-.95117,7.0421,7.0421,0,0,0,1.60351-2.47754,8.1053,8.1053,0,0,0,.61719-3.05762,2.39489,2.39489,0,0,0-.57617-1.68555,1.95492,1.95492,0,0,0-1.51074-.627,2.83168,2.83168,0,0,0-1.98926.88379,5.959,5.959,0,0,0-1.44336,2.39453,9.65459,9.65459,0,0,0-.52441,3.18652,2.70087,2.70087,0,0,0,.48242,1.75293A1.66941,1.66941,0,0,0,203.70938,224.162Z" fill="#232323"/><path d="M215.04532,224.18248a5.58628,5.58628,0,0,0,1.48047-.26758v1.32617a4.75181,4.75181,0,0,1-.86329.24609,4.45406,4.45406,0,0,1-.82226.10352,2.85737,2.85737,0,0,1-1.96875-.61231,2.32341,2.32341,0,0,1-.68359-1.82422,7.4777,7.4777,0,0,1,.18554-1.542l1.30567-6.1875h-1.76856l.14453-.75,1.90137-.80176,1.28418-2.34375h1.00781L215.683,214.119h2.81641l-.26758,1.30566h-2.80566l-1.32618,6.208a7.338,7.338,0,0,0-.18457,1.35742,1.219,1.219,0,0,0,.29786.88379A1.10522,1.10522,0,0,0,215.04532,224.18248Z" fill="#232323"/><path d="M220.144,225.38462h-1.72656l2.40527-11.26562h1.72656Zm1.16211-14.14355a1.35263,1.35263,0,0,1,.32812-.94043,1.09642,1.09642,0,0,1,.85352-.36426.80836.80836,0,0,1,.9043.92481,1.395,1.395,0,0,1-.34375.95605,1.037,1.037,0,0,1-.79688.39063.95067.95067,0,0,1-.67871-.252A.93624.93624,0,0,1,221.30606,211.24107Z" fill="#232323"/><path d="M229.765,213.97544a4.11508,4.11508,0,0,1,3.083,1.15625,4.35583,4.35583,0,0,1,1.13086,3.18164,9.12065,9.12065,0,0,1-.74023,3.64844,6.31316,6.31316,0,0,1-2.00391,2.65235,4.68732,4.68732,0,0,1-2.85742.93457,4.0954,4.0954,0,0,1-3.09375-1.16114,4.38226,4.38226,0,0,1-1.1211-3.17578,9.10143,9.10143,0,0,1,.751-3.6748,6.22831,6.22831,0,0,1,2.02442-2.6416A4.71935,4.71935,0,0,1,229.765,213.97544Zm2.42578,4.10157a2.80858,2.80858,0,0,0-.64257-1.917,2.19522,2.19522,0,0,0-1.74219-.73535,3.01058,3.01058,0,0,0-2.00977.76074,4.88935,4.88935,0,0,0-1.37695,2.11231,8.78414,8.78414,0,0,0-.48828,3.00684,3.02919,3.02919,0,0,0,.65234,2.08105,2.37664,2.37664,0,0,0,1.876.73438,2.83346,2.83346,0,0,0,1.92187-.75,4.89,4.89,0,0,0,1.33106-2.13282A9.65516,9.65516,0,0,0,232.19082,218.077Z" fill="#232323"/><path d="M242.45938,225.38462l1.52148-7.1123a9.39792,9.39792,0,0,0,.20508-1.48047,1.46069,1.46069,0,0,0-.36523-1.03809,1.52877,1.52877,0,0,0-1.166-.39062,3.04514,3.04514,0,0,0-1.7832.61621,5.4925,5.4925,0,0,0-1.53223,1.75781,9.27831,9.27831,0,0,0-1.00195,2.76563l-1.03809,4.88183h-1.72656l2.40527-11.26562h1.42872l-.22657,2.08691h.10352a6.86976,6.86976,0,0,1,1.90625-1.77343,3.83285,3.83285,0,0,1,1.90625-.51856,2.8827,2.8827,0,0,1,2.06152.71387,2.62358,2.62358,0,0,1,.75488,2,8.40087,8.40087,0,0,1-.23632,1.84961l-1.46973,6.90722Z" fill="#232323"/><path d="M82.57754,239.17369a2.90707,2.90707,0,0,1,1.68555.50879,3.30634,3.30634,0,0,1,1.15137,1.46484h.1123l.68946-1.76856H87.5209l-2.39453,11.26563H83.75918l.26758-2.14844h-.083q-1.83984,2.354-3.875,2.35449a2.70964,2.70964,0,0,1-2.24023-1.01757,4.3527,4.3527,0,0,1-.8125-2.78614,10.60272,10.60272,0,0,1,.73047-3.96777,6.85121,6.85121,0,0,1,2.01465-2.86719A4.3802,4.3802,0,0,1,82.57754,239.17369Zm-1.95312,10.248a2.89381,2.89381,0,0,0,1.9834-.95117,7.042,7.042,0,0,0,1.60351-2.47754,8.10526,8.10526,0,0,0,.61719-3.05762,2.39489,2.39489,0,0,0-.57617-1.68554,1.95493,1.95493,0,0,0-1.51074-.627,2.83172,2.83172,0,0,0-1.98926.88379,5.95906,5.95906,0,0,0-1.44336,2.39454,9.6546,9.6546,0,0,0-.52442,3.18652,2.70089,2.70089,0,0,0,.48243,1.75293A1.6694,1.6694,0,0,0,80.62442,249.42173Z" fill="#232323"/><path d="M95.39493,250.64439l1.52148-7.11231a9.39784,9.39784,0,0,0,.20508-1.48046,1.46064,1.46064,0,0,0-.36524-1.03809,1.52873,1.52873,0,0,0-1.166-.39063,3.04508,3.04508,0,0,0-1.7832.61622,5.49225,5.49225,0,0,0-1.53223,1.75781,9.27807,9.27807,0,0,0-1.002,2.76562l-1.03809,4.88184H88.50821l2.40527-11.26563h1.42871l-.22656,2.08692h.10352a6.86968,6.86968,0,0,1,1.90625-1.77344,3.83294,3.83294,0,0,1,1.90625-.51855,2.88277,2.88277,0,0,1,2.06152.71386,2.62361,2.62361,0,0,1,.75488,2,8.40019,8.40019,0,0,1-.23633,1.84961L97.142,250.64439Z" fill="#232323"/><path d="M106.61856,239.19419a2.99812,2.99812,0,0,1,2.88769,1.95313h.10254a23.90027,23.90027,0,0,1,.46289-2.81641l.80176-3.67968h1.70606l-3.3916,15.99316h-1.42872l.22559-2.14844h-.082a7.73479,7.73479,0,0,1-1.94238,1.81934,3.63115,3.63115,0,0,1-1.8711.53515,2.69185,2.69185,0,0,1-2.23047-1.00781,4.382,4.382,0,0,1-.80175-2.7959,10.65634,10.65634,0,0,1,.74023-4.02929,6.723,6.723,0,0,1,1.999-2.82618A4.43082,4.43082,0,0,1,106.61856,239.19419Zm-1.95313,10.22754a2.99335,2.99335,0,0,0,1.99414-.96191,6.75878,6.75878,0,0,0,1.62891-2.45606,8.11324,8.11324,0,0,0,.60156-3.04785,2.46059,2.46059,0,0,0-.55566-1.7373,2.10082,2.10082,0,0,0-1.61328-.59571,2.74942,2.74942,0,0,0-1.92774.84766,5.96858,5.96858,0,0,0-1.42871,2.38477,9.69614,9.69614,0,0,0-.53906,3.23242Q102.82559,249.42124,104.66543,249.42173Z" fill="#232323"/><path d="M123.26993,250.85044a3.01586,3.01586,0,0,1-1.74707-.51464,3.33579,3.33579,0,0,1-1.16114-1.43848h-.10351l-.041.39062c-.02051.1709-.05664.41114-.10742.71875q-.07764.4629-1.17676,5.69434h-1.707l3.4541-16.32227h1.42871l-.26757,2.14844h.082q1.83984-2.33349,3.82422-2.333a2.70294,2.70294,0,0,1,2.21972,1.002,4.35653,4.35653,0,0,1,.8125,2.81152,10.90246,10.90246,0,0,1-.71,3.99805,6.63766,6.63766,0,0,1-1.96289,2.832A4.39648,4.39648,0,0,1,123.26993,250.85044ZM125.182,240.6229a2.971,2.971,0,0,0-2.00977.97657,6.97619,6.97619,0,0,0-1.624,2.45605,8.00051,8.00051,0,0,0-.60059,3.03223,2.42063,2.42063,0,0,0,.57031,1.73242,2.16668,2.16668,0,0,0,1.64942.60156,2.71956,2.71956,0,0,0,1.89648-.833,5.84306,5.84306,0,0,0,1.41309-2.36915,9.86058,9.86058,0,0,0,.53418-3.26367Q127.01114,240.62242,125.182,240.6229Z" fill="#232323"/><path d="M137.54629,239.17369a4.70247,4.70247,0,0,1,1.2334.14355l-.37012,1.542a4.528,4.528,0,0,0-1.0791-.13379,2.85633,2.85633,0,0,0-1.75293.61719,5.41608,5.41608,0,0,0-1.42871,1.71094,8.74244,8.74244,0,0,0-.89941,2.43066l-1.09961,5.16016h-1.72656l2.40527-11.26563h1.42871l-.22656,2.08692h.10351a10.10492,10.10492,0,0,1,1.22266-1.40332,3.8778,3.8778,0,0,1,1.0127-.65723A2.90535,2.90535,0,0,1,137.54629,239.17369Z" fill="#232323"/><path d="M144.76211,239.23521a4.115,4.115,0,0,1,3.083,1.15625,4.35579,4.35579,0,0,1,1.13086,3.18164,9.12065,9.12065,0,0,1-.74023,3.64844,6.31306,6.31306,0,0,1-2.00391,2.65234,4.68725,4.68725,0,0,1-2.85742.93457,4.09543,4.09543,0,0,1-3.09375-1.16113,4.38229,4.38229,0,0,1-1.1211-3.17578,9.10148,9.10148,0,0,1,.751-3.67481,6.22831,6.22831,0,0,1,2.02442-2.6416A4.71941,4.71941,0,0,1,144.76211,239.23521Zm2.42579,4.10156a2.80857,2.80857,0,0,0-.64258-1.917,2.19522,2.19522,0,0,0-1.74219-.73535,3.01053,3.01053,0,0,0-2.00977.76074,4.88935,4.88935,0,0,0-1.37695,2.11231,8.78409,8.78409,0,0,0-.48828,3.00683,3.02923,3.02923,0,0,0,.65234,2.08106,2.37663,2.37663,0,0,0,1.876.73437,2.83346,2.83346,0,0,0,1.92187-.75,4.89,4.89,0,0,0,1.33106-2.13281A9.65521,9.65521,0,0,0,147.1879,243.33677Z" fill="#232323"/><path d="M156.53165,239.19419a2.99812,2.99812,0,0,1,2.88769,1.95313h.10254a23.89819,23.89819,0,0,1,.46289-2.81641l.80176-3.67968h1.70605l-3.3916,15.99316h-1.42871l.22559-2.14844h-.082a7.73479,7.73479,0,0,1-1.94238,1.81934,3.63109,3.63109,0,0,1-1.87109.53515,2.69185,2.69185,0,0,1-2.23047-1.00781,4.382,4.382,0,0,1-.80176-2.7959,10.65615,10.65615,0,0,1,.74024-4.02929,6.72287,6.72287,0,0,1,1.999-2.82618A4.43078,4.43078,0,0,1,156.53165,239.19419Zm-1.95313,10.22754a2.99339,2.99339,0,0,0,1.99414-.96191,6.7589,6.7589,0,0,0,1.62891-2.45606,8.11324,8.11324,0,0,0,.60156-3.04785,2.46064,2.46064,0,0,0-.55566-1.7373,2.10084,2.10084,0,0,0-1.61329-.59571,2.74938,2.74938,0,0,0-1.92773.84766,5.96858,5.96858,0,0,0-1.42871,2.38477,9.69589,9.69589,0,0,0-.53906,3.23242Q152.73868,249.42124,154.57852,249.42173Z" fill="#232323"/><path d="M166.74747,239.37876l-1.542,7.14356a7.742,7.742,0,0,0-.18457,1.42871,1.31766,1.31766,0,0,0,1.51075,1.4707,3.05955,3.05955,0,0,0,1.77832-.61718,5.48046,5.48046,0,0,0,1.541-1.76758,9.471,9.471,0,0,0,1.01758-2.77539l1.02832-4.88282h1.706l-2.374,11.26563H169.8002l.22559-2.08691h-.12305a6.75323,6.75323,0,0,1-1.92188,1.78906,3.88326,3.88326,0,0,1-1.8916.5039,2.87127,2.87127,0,0,1-2.06543-.71484,2.6812,2.6812,0,0,1-.751-2.04,9.59693,9.59693,0,0,1,.22656-1.76855l1.501-6.94825Z" fill="#232323"/><path d="M179.46231,250.85044a3.82665,3.82665,0,0,1-4.19434-4.2041,9.35532,9.35532,0,0,1,.76075-3.793,6.4407,6.4407,0,0,1,2.10253-2.708,5.01065,5.01065,0,0,1,3.01661-.97168,7.5355,7.5355,0,0,1,2.75488.52441l-.4834,1.44922a5.81192,5.81192,0,0,0-2.251-.52442,3.2169,3.2169,0,0,0-2.10156.78614,5.1769,5.1769,0,0,0-1.49121,2.18945,8.428,8.428,0,0,0-.53906,3.04785,2.87367,2.87367,0,0,0,.68359,2.04492,2.45413,2.45413,0,0,0,1.88574.73047,4.68,4.68,0,0,0,1.39844-.20605,12.69823,12.69823,0,0,0,1.29492-.4834V250.202A6.17479,6.17479,0,0,1,179.46231,250.85044Z" fill="#232323"/><path d="M187.79727,249.44224a5.58581,5.58581,0,0,0,1.48047-.26758v1.32617a4.75105,4.75105,0,0,1-.86328.2461,4.45408,4.45408,0,0,1-.82227.10351,2.85746,2.85746,0,0,1-1.96875-.6123,2.32343,2.32343,0,0,1-.68359-1.82422,7.477,7.477,0,0,1,.18555-1.542l1.30566-6.1875H184.6625l.14454-.75,1.90136-.80176,1.28418-2.34375h1.00782l-.56543,2.58984h2.8164l-.26758,1.30567h-2.80566l-1.32617,6.208a7.337,7.337,0,0,0-.18457,1.35742,1.219,1.219,0,0,0,.29785.88379A1.10522,1.10522,0,0,0,187.79727,249.44224Z" fill="#232323"/><path d="M192.8959,250.64439h-1.72656l2.40527-11.26563h1.72657Zm1.16211-14.14356a1.35268,1.35268,0,0,1,.32813-.94043,1.09637,1.09637,0,0,1,.85351-.36425.80835.80835,0,0,1,.9043.9248,1.395,1.395,0,0,1-.34375.95606,1.037,1.037,0,0,1-.79688.39062.95067.95067,0,0,1-.67871-.252A.93625.93625,0,0,1,194.058,236.50083Z" fill="#232323"/><path d="M198.19961,250.64439l-1.28515-11.26563H198.642l.65722,6.30079q.24756,2.65283.24707,3.7207h.06153q1.30516-2.82568,1.83984-3.8125l3.34082-6.209h1.8291l-6.07422,11.26563Z" fill="#232323"/><path d="M207.96426,250.64439H206.2377l2.40527-11.26563h1.72657Zm1.16211-14.14356a1.35268,1.35268,0,0,1,.32813-.94043,1.09637,1.09637,0,0,1,.85351-.36425.80835.80835,0,0,1,.9043.9248,1.395,1.395,0,0,1-.34375.95606,1.037,1.037,0,0,1-.79688.39062.95067.95067,0,0,1-.67871-.252A.93625.93625,0,0,1,209.12637,236.50083Z" fill="#232323"/><path d="M215.03555,249.44224a5.58581,5.58581,0,0,0,1.48047-.26758v1.32617a4.75105,4.75105,0,0,1-.86328.2461,4.454,4.454,0,0,1-.82227.10351,2.85746,2.85746,0,0,1-1.96875-.6123,2.32347,2.32347,0,0,1-.68359-1.82422,7.477,7.477,0,0,1,.18555-1.542l1.30566-6.1875h-1.76855l.14453-.75,1.90136-.80176,1.28418-2.34375h1.00782l-.56543,2.58984h2.8164l-.26758,1.30567h-2.80566l-1.32617,6.208a7.337,7.337,0,0,0-.18457,1.35742,1.219,1.219,0,0,0,.29785.88379A1.10522,1.10522,0,0,0,215.03555,249.44224Z" fill="#232323"/><path d="M218.808,239.37876h1.72754l.76074,5.60254q.10254.709.2002,2.09082.09668,1.38282.09766,2.22559h.06152q.35889-.89355.89453-2.05566.5332-1.16163.791-1.60352l3.34082-6.25977h1.8291l-7.15332,13.17774a7.43932,7.43932,0,0,1-1.8916,2.45605,3.69324,3.69324,0,0,1-2.251.68848,4.82564,4.82564,0,0,1-1.43848-.21582v-1.3877a4.84661,4.84661,0,0,0,1.34571.18555,2.13166,2.13166,0,0,0,1.44433-.51953,5.60493,5.60493,0,0,0,1.167-1.53613l.78125-1.39844Z" fill="#232323"/><path d="M138.95627,117.33476l5.48282-4.11217c1.14229.45677,2.056.91368,3.19825,1.37064l.91393,6.90834a2.48236,2.48236,0,0,0,2.28457,2.11059h9.595a2.48234,2.48234,0,0,0,2.28457-2.11059l.91369-6.881a13.21934,13.21934,0,0,0,3.19849-1.15594l5.48283,4.10535a2.41927,2.41927,0,0,0,2.96964-.23177l6.62511-6.85542a2.15345,2.15345,0,0,0,.22861-2.97069l-4.11194-5.48325c.45672-1.14228.91344-2.05642,1.37065-3.19871l6.86835-.91379c1.142-.2286,1.07061-1.14239,2.07061-2.513V85.8081a2.44364,2.44364,0,0,0-2.07061-2.28457l-6.861-.91368c-.45721-1.14229-.91759-2.05621-1.37431-3.19832l4.11011-5.483a2.136,2.136,0,0,0-.22952-2.9699l-6.62557-6.85346a2.13593,2.13593,0,0,0-2.96987-.22861l-5.48294,4.11218a9.67451,9.67451,0,0,0-3.19856-1.37064l-.91371-6.90178a2.476,2.476,0,0,0-2.2846-2.10416h-9.595a2.476,2.476,0,0,0-2.28457,2.10416l-.91393,6.87771c-1.14228.457-2.28432.92572-3.19825,1.38268l-5.48282-4.10616a2.41961,2.41961,0,0,0-2.9699.23161l-6.62511,6.855a2.13689,2.13689,0,0,0-.2286,2.97064l4.11218,5.48339a19.25528,19.25528,0,0,0-1.37064,3.1985l-6.67025.91378a2.26278,2.26278,0,0,0-1.8725,2.28466v9.59519a2.26248,2.26248,0,0,0,1.8725,2.28432l6.762.91393c.457,1.14228.86781,2.056,1.32478,3.19825l-4.13512,5.483a2.41716,2.41716,0,0,0,.21714,2.96989l6.61938,6.85347A2.12888,2.12888,0,0,0,138.95627,117.33476ZM155.8617,78.26925a12.5649,12.5649,0,1,1-12.56489,12.56489A12.67651,12.67651,0,0,1,155.8617,78.26925Z" fill="#09909f"/><path d="M138.72766,154.484a8.22524,8.22524,0,0,1-6.16814-7.70742,8.09141,8.09141,0,0,1,7.99575-8.16439h30.61286a8.01957,8.01957,0,0,1,1.82761,15.82255c.08855.14778.14962.17745.22345.17745H306.98532c0-84-68.27394-152.49438-152.49426-152.49438S1.99679,70.61216,1.99679,154.61216H138.56112C138.617,154.61216,138.671,154.62587,138.72766,154.484Zm68.76451-30.29574a2.31185,2.31185,0,0,1-3.19849.91393l-5.25447-2.96989a2.35209,2.35209,0,0,1,2.28457-4.11218l5.25447,2.96989C207.72053,121.44694,207.94889,122.81759,207.49217,124.18823Zm7.99576-31.07607a2.33672,2.33672,0,0,1-2.28457,2.5h-5.93979a2.51016,2.51016,0,0,1,0-5h5.93979A2.33673,2.33673,0,0,1,215.48793,93.11216ZM199.03921,65.01885l5.25447-2.9699a2.35209,2.35209,0,1,1,2.28457,4.11218l-5.25447,2.9699a2.35209,2.35209,0,0,1-2.28457-4.11218ZM178.93528,46.51423l2.96989-5.25447a2.3522,2.3522,0,0,1,4.11243,2.28457l-2.9699,5.25447a2.35219,2.35219,0,0,1-4.11242-2.28457ZM152.33145,34.63465c0-1.37083.62936-2.28451,2-2.28451s2,.91368,2,2.28451v5.93979c0,1.37064-.62936,2.28457-2,2.28457s-2-.91393-2-2.28457ZM123.8782,40.3459a2.52978,2.52978,0,0,1,3.19849.91386l3.19826,5.25447a2.35209,2.35209,0,0,1-4.11218,2.28457l-3.19826-5.25447A2.52941,2.52941,0,0,1,123.8782,40.3459Zm-30.384,52.76626a2.33654,2.33654,0,0,1,2.28432-2.5h5.93979a2.33688,2.33688,0,0,1,2.28457,2.5,2.48951,2.48951,0,0,1-2.28457,2.5H95.77851A2.33653,2.33653,0,0,1,93.49419,93.11216Zm16.44847,28.7915-5.25447,2.96989a2.35208,2.35208,0,0,1-2.28457-4.11217l5.25446-2.9699a2.35209,2.35209,0,0,1,2.28458,4.11218Zm.91368-53.68632a2.31167,2.31167,0,0,1-3.19826.91369l-5.25446-2.9699a2.35209,2.35209,0,0,1,2.28457-4.11218l5.25447,2.9699A2.52944,2.52944,0,0,1,110.85634,68.21734Zm16.67707,56.1995a43.77646,43.77646,0,0,1,23.30243-76.98893c26.7288-2.9699,48.66034,18.0479,48.88869,43.8632a44.03976,44.03976,0,0,1-15.53479,33.35409,20.21541,20.21541,0,0,0-7.08182,10.88011,11.43114,11.43114,0,0,0-5.93979-1.91315H140.55527c-2.056,0-4.11218.99934-5.93979,1.91315A21.2861,21.2861,0,0,0,127.53341,124.41684Z" fill="#09909f"/></g></g></svg>