<svg xmlns="http://www.w3.org/2000/svg" xmlns:xlink="http://www.w3.org/1999/xlink" viewBox="0 0 146.1074 146.1074"><defs><linearGradient id="linear-gradient" x1="21.39696" y1="21.39696" x2="124.71048" y2="124.71048" gradientUnits="userSpaceOnUse"><stop offset="0" stop-color="#c9b899"/><stop offset="0.1882" stop-color="#c6b798"/><stop offset="0.34061" stop-color="#bcb395"/><stop offset="0.48053" stop-color="#abac91"/><stop offset="0.61299" stop-color="#93a28a"/><stop offset="0.74014" stop-color="#749581"/><stop offset="0.86335" stop-color="#4e8577"/><stop offset="0.98129" stop-color="#22736a"/><stop offset="1" stop-color="#1a7068"/></linearGradient></defs><g id="Layer_2" data-name="Layer 2"><g id="Layer_1-2" data-name="Layer 1"><path d="M89.9962,82.2988s-.4567-1.388-.7029-1.9787-2.3136-4.6766-2.3136-4.6766a1.50229,1.50229,0,0,0-.3938,1.2799c.0492.9353.6399,4.6765.6399,4.8242s1.526,3.3475,1.526,3.3475Z" fill="#fff"/><circle cx="73.0537" cy="73.0537" r="72.0537" fill="#fff" stroke-miterlimit="10" stroke-width="2" stroke="url(#linear-gradient)"/><circle cx="72.87033" cy="73.49478" r="48.51611" transform="translate(-30.62543 73.05322) rotate(-45)" fill="#09909f"/><path d="M18.63919,58.48471l-8.11866-2.7334.4502-1.33691,8.11865,2.73437Z" fill="#4d4d4d"/><path d="M22.84426,48.514l-.73974,1.5625-7.98487.91308-.0205.043.35693.13574q1.02027.39258,1.83594.77832l4.0249,1.90528-.54785,1.15722-7.74268-3.665.73242-1.54687,7.94776-.918.01562-.03223q-.12744-.04687-.90771-.377-.78-.32959-1.209-.53418L14.54885,46.016l.55274-1.168Z" fill="#4d4d4d"/><path d="M28.01956,40.77768l-.98828,1.418-8.02637-.41993-.02686.03809.32959.19434q.94116.55371,1.68164,1.07031l3.6543,2.54492-.73193,1.05078-7.0293-4.89648.978-1.4043,7.99072.41016.02-.0293c-.07813-.044-.35547-.21875-.832-.52148q-.71558-.45411-1.10449-.72657l-3.68311-2.56445.73877-1.06055Z" fill="#4d4d4d"/><path d="M31.64651,30.66733a4.66456,4.66456,0,0,1,1.58984,3.02636,3.82124,3.82124,0,0,1-1.25488,2.94336,3.84893,3.84893,0,0,1-2.92041,1.3418,4.693,4.693,0,0,1-3.07227-1.53809,4.62162,4.62162,0,0,1-1.59423-3.03027,3.8943,3.8943,0,0,1,1.28808-2.94434,3.81629,3.81629,0,0,1,2.90381-1.32031A4.65866,4.65866,0,0,1,31.64651,30.66733Zm-4.602,4.71A3.82594,3.82594,0,0,0,29.21,36.59408a2.63042,2.63042,0,0,0,2.66406-2.71386,3.83088,3.83088,0,0,0-1.2749-2.14161,3.84173,3.84173,0,0,0-2.15332-1.21679,2.25432,2.25432,0,0,0-1.9043.7832,2.29892,2.29892,0,0,0-.75537,1.93945A3.78579,3.78579,0,0,0,27.04446,35.37729Z" fill="#4d4d4d"/><path d="M34.833,22.808l1.16651-.88379,2.76318,8.65332-1.18555.89746-7.57031-5.01172,1.15723-.877,4.6499,3.16016c.22852.14453.50586.3457.83252.59961q.48925.38379.7041.58789c-.13867-.26758-.2832-.58789-.43457-.96387-.15088-.376-.25683-.6582-.31641-.84863Z" fill="#4d4d4d"/><path d="M46.76614,25.60092,44.85061,23.9476l-2.87646,1.61426.42822,2.4873-1.29688.72754-1.39355-9.08105,1.33789-.75,7.02344,5.92187Zm-2.83008-2.52441-1.84619-1.6377q-.19189-.16113-.57471-.52441-.38305-.36329-.54883-.53809a13.184,13.184,0,0,1,.36475,1.60254l.4126,2.32812Z" fill="#4d4d4d"/><path d="M51.8262,23.4144l-1.30908.52343L47.78372,17.099l-2.356.9414-.4458-1.11523,6.02148-2.40723.4458,1.11621-2.35595.94141Z" fill="#4d4d4d"/><path d="M55.44436,22.16244l-2.417-8.21875,1.353-.39843,2.417,8.21875Z" fill="#4d4d4d"/><path d="M62.21487,11.81772l1.43848-.27051-1.38672,8.97656-1.46143.27539-4.54-7.86328,1.42676-.26758,2.75244,4.90137q.20947.34863.477.90918.26733.561.36817.83984-.00734-.45117.0415-1.05664.04834-.60644.09473-.90039Z" fill="#4d4d4d"/><path d="M71.17288,19.639l-4.8711.293-.51465-8.55078,4.87061-.293.07129,1.18164-3.46338.208.14014,2.32715,3.2456-.19531.07032,1.16992-3.24512.19531.16162,2.68555,3.46289-.209Z" fill="#4d4d4d"/><path d="M81.37112,18.05893a2.1499,2.1499,0,0,1-1.0293,1.6875,3.63061,3.63061,0,0,1-2.354.38672,5.51025,5.51025,0,0,1-2.3291-.71778l.14941-1.31543a6.59331,6.59331,0,0,0,1.19678.57227,5.36192,5.36192,0,0,0,1.21045.2959,1.97388,1.97388,0,0,0,1.26416-.17481,1.0273,1.0273,0,0,0,.49121-.79883,1.06462,1.06462,0,0,0-.27149-.85156,5.54486,5.54486,0,0,0-1.41162-.95508,4.00764,4.00764,0,0,1-1.53125-1.26562,2.28265,2.28265,0,0,1-.31543-1.50977,2.044,2.044,0,0,1,.95264-1.58984,3.19626,3.19626,0,0,1,2.11572-.37891,6.06521,6.06521,0,0,1,2.38965.81348l-.57471,1.085a5.39725,5.39725,0,0,0-1.98584-.709,1.59089,1.59089,0,0,0-1.06543.17578.97281.97281,0,0,0-.43994.73828,1.09747,1.09747,0,0,0,.07666.584,1.44223,1.44223,0,0,0,.4126.49707,7.76193,7.76193,0,0,0,1.09766.68457,6.44719,6.44719,0,0,1,1.30127.88477,2.159,2.159,0,0,1,.5581.83594A2.30177,2.30177,0,0,1,81.37112,18.05893Z" fill="#4d4d4d"/><path d="M91.15139,18.37924A4.66931,4.66931,0,0,1,89.3096,21.2601a4.45021,4.45021,0,0,1-5.79053-1.50586,4.69088,4.69088,0,0,1-.186-3.42969,4.62525,4.62525,0,0,1,1.84326-2.88672A3.89915,3.89915,0,0,1,88.3721,13.099,3.818,3.818,0,0,1,90.958,14.96811,4.66073,4.66073,0,0,1,91.15139,18.37924Zm-6.37109-1.665a3.82468,3.82468,0,0,0,.01514,2.48438,2.63028,2.63028,0,0,0,3.67724.96972,3.826,3.826,0,0,0,1.22852-2.168,3.834,3.834,0,0,0-.00928-2.47265,2.24782,2.24782,0,0,0-1.62354-1.2666,2.29809,2.29809,0,0,0-2.05859.30371A3.78434,3.78434,0,0,0,84.7803,16.7142Z" fill="#4d4d4d"/><path d="M91.70022,23.23373l3.3252-7.89453,1.29882.54785-2.85839,6.78711,3.36621,1.418-.4668,1.10742Z" fill="#4d4d4d"/><path d="M107.79006,21.87338,104.96194,26.641a3.2721,3.2721,0,0,1-1.2002,1.21973,2.7264,2.7264,0,0,1-1.5791.33691,4.14721,4.14721,0,0,1-1.792-.61719,3.4833,3.4833,0,0,1-1.71582-1.998,3.04278,3.04278,0,0,1,.417-2.45117l2.81641-4.74609,1.21777.72266-2.76562,4.66015a2.15792,2.15792,0,0,0-.3711,1.59961,2.04676,2.04676,0,0,0,1.05176,1.209,1.80085,1.80085,0,0,0,2.77637-.77149l2.75976-4.65039Z" fill="#4d4d4d"/><path d="M107.43167,32.36361l-1.10157-.88085,4.59864-5.75391-1.98145-1.584.75-.9375,5.06543,4.04883-.75.9375-1.98242-1.584Z" fill="#4d4d4d"/><path d="M110.32131,34.90072l5.94825-6.16406,1.01465.97949-5.94825,6.165Z" fill="#4d4d4d"/><path d="M121.15335,40.60483a4.66266,4.66266,0,0,1-3.18262,1.248,3.81806,3.81806,0,0,1-2.78809-1.57031,3.84578,3.84578,0,0,1-1.01269-3.0498,4.69019,4.69019,0,0,1,1.86523-2.88477,4.61964,4.61964,0,0,1,3.1875-1.252,3.89592,3.89592,0,0,1,2.78516,1.60351,3.81319,3.81319,0,0,1,.99316,3.03125A4.65645,4.65645,0,0,1,121.15335,40.60483ZM116.97659,35.514a3.8189,3.8189,0,0,0-1.44727,2.01855,2.63115,2.63115,0,0,0,2.40528,2.94629,4.84115,4.84115,0,0,0,3.71386-3.03906,2.24924,2.24924,0,0,0-.56933-1.97852,2.29826,2.29826,0,0,0-1.84375-.96484A3.79246,3.79246,0,0,0,116.97659,35.514Z" fill="#4d4d4d"/><path d="M122.33889,50.974l-.86035-1.499,3.80762-7.07812-.02344-.041-.31543.21485q-.90381.61523-1.68652,1.06445l-3.86231,2.2168-.63672-1.11133,7.42872-4.26367.85253,1.48339-3.78418,7.04981.01758.03125q.11133-.07911.82813-.5293c.47754-.30273.85351-.53125,1.12793-.68945l3.89258-2.23438.64355,1.1211Z" fill="#4d4d4d"/><path d="M127.19534,56.73569a2.14732,2.14732,0,0,1-1.97363-.11036,3.63841,3.63841,0,0,1-1.45215-1.89257,5.49662,5.49662,0,0,1-.4668-2.39258l1.23047-.48926a6.53293,6.53293,0,0,0,.06055,1.32519,5.28573,5.28573,0,0,0,.31054,1.207,1.971,1.971,0,0,0,.751,1.03222,1.02948,1.02948,0,0,0,.93652.05567,1.061,1.061,0,0,0,.6211-.64063,5.50583,5.50583,0,0,0,.17675-1.69629,3.99722,3.99722,0,0,1,.39161-1.94629,2.27966,2.27966,0,0,1,1.18261-.99121,2.04248,2.04248,0,0,1,1.85157.08887,3.1926,3.1926,0,0,1,1.333,1.68555,6.0847,6.0847,0,0,1,.41114,2.49121l-1.22754.00586a5.43842,5.43842,0,0,0-.3125-2.085,1.58512,1.58512,0,0,0-.65918-.85645.97369.97369,0,0,0-.85742-.04,1.09282,1.09282,0,0,0-.47852.34375,1.4367,1.4367,0,0,0-.24414.59766,7.96663,7.96663,0,0,0-.08594,1.292,6.449,6.449,0,0,1-.165,1.56445,2.15847,2.15847,0,0,1-.47363.88672A2.2892,2.2892,0,0,1,127.19534,56.73569Z" fill="#4d4d4d"/><path d="M71.1954,44.8978A20.81745,20.81745,0,0,0,60.1142,81.5091,10.53086,10.53086,0,0,1,63.482,86.941a6.45213,6.45213,0,0,1,2.8246-.7605H80.8642a5.263,5.263,0,0,1,2.8246.7605,9.99089,9.99089,0,0,1,3.3678-5.3233A20.905,20.905,0,0,0,71.1954,44.8978ZM88.0344,68.907l-3.2592.4345c-.2173.5432-.4345.9778-.6518,1.521l1.9555,2.6073a1.02359,1.02359,0,0,1-.1087,1.4123l-3.1505,3.2592a1.15038,1.15038,0,0,1-1.4123.1086l-2.6073-1.9555a6.2805,6.2805,0,0,1-1.521.5432l-.4345,3.2592a1.15517,1.15517,0,0,1-1.0864.9777H71.1954a1.15517,1.15517,0,0,1-1.0864-.9777l-.4346-3.2592c-.5432-.2173-.9777-.4346-1.5209-.6518l-2.6073,1.9555a1.01573,1.01573,0,0,1-1.4123-.1087l-3.1505-3.2591a1.15027,1.15027,0,0,1-.1087-1.4123l1.9555-2.6074c-.2173-.5432-.4345-.9777-.6518-1.5209l-3.2592-.4346a1.15515,1.15515,0,0,1-.9777-1.0863V63.1491a1.15525,1.15525,0,0,1,.9777-1.0864l3.2592-.4345a9.15481,9.15481,0,0,1,.6518-1.5209l-1.9555-2.6074a1.01574,1.01574,0,0,1,.1087-1.4123l3.1505-3.2591a1.15039,1.15039,0,0,1,1.4123-.1087l2.6073,1.9555c.4346-.2173.9777-.4345,1.5209-.6518l.4346-3.2592a1.15517,1.15517,0,0,1,1.0864-.9777h4.5628a1.15517,1.15517,0,0,1,1.0864.9777l.4345,3.2592a4.60059,4.60059,0,0,1,1.521.6518l2.6073-1.9555a1.01573,1.01573,0,0,1,1.4123.1087l3.1505,3.2591a1.01574,1.01574,0,0,1,.1087,1.4123l-1.9555,2.6074c.2173.5431.4345.9777.6518,1.5209l3.2592.4345a1.15525,1.15525,0,0,1,.9777,1.0864V67.712A1.291,1.291,0,0,1,88.0344,68.907Z" fill="#fff"/><path d="M81.7333,95.958a3.18807,3.18807,0,0,1,.4346,1.7382,3.77075,3.77075,0,0,1-3.0419,3.8024v.3259a5.44768,5.44768,0,0,1-5.4319,5.4319h-.1087a5.44774,5.44774,0,0,1-5.4319-5.4319v-.2173a3.953,3.953,0,0,1-3.1505-3.8023,5.11946,5.11946,0,0,1,.4345-1.8469,3.94494,3.94494,0,0,1-2.9332-3.6937,3.87279,3.87279,0,0,1,3.8023-3.911H80.8642a3.77869,3.77869,0,0,1,3.8024,3.8023A3.97335,3.97335,0,0,1,81.7333,95.958Z" fill="#fff"/><path d="M79.5606,65.5392a5.97515,5.97515,0,1,1-5.9752-5.9751A6.02822,6.02822,0,0,1,79.5606,65.5392Z" fill="#fff"/><path d="M72.9336,42.7251A1.02644,1.02644,0,0,0,74.02,41.6387V38.8141a1.0864,1.0864,0,1,0-2.1728,0v2.8246A1.02644,1.02644,0,0,0,72.9336,42.7251Z" fill="#fff"/><path d="M59.4624,45.5497a1.11851,1.11851,0,0,0,1.9555-1.0864L59.897,41.9646a1.11851,1.11851,0,1,0-1.9555,1.0864Z" fill="#fff"/><path d="M51.7491,53.263l-2.4987-1.4123a1.11851,1.11851,0,1,0-1.0864,1.9555l2.4987,1.4123a1.09928,1.09928,0,0,0,1.5209-.4345A1.20284,1.20284,0,0,0,51.7491,53.263Z" fill="#fff"/><path d="M48.9245,66.7342a1.02644,1.02644,0,0,0-1.0864-1.0864H45.0135a1.0864,1.0864,0,0,0,0,2.1728h2.8246A1.08869,1.08869,0,0,0,48.9245,66.7342Z" fill="#fff"/><path d="M50.6627,78.3585,48.164,79.7708a1.11851,1.11851,0,1,0,1.0864,1.9555l2.4987-1.4123a1.11851,1.11851,0,0,0-1.0864-1.9555Z" fill="#fff"/><path d="M97.7032,79.8795l-2.4987-1.4123a1.11851,1.11851,0,0,0-1.0864,1.9555l2.4987,1.4123a1.09936,1.09936,0,0,0,1.521-.4346C98.355,80.7486,98.2464,80.0968,97.7032,79.8795Z" fill="#fff"/><path d="M100.8537,65.6478H98.0291a1.0864,1.0864,0,0,0,0,2.1728h2.8246a1.0864,1.0864,0,0,0,0-2.1728Z" fill="#fff"/><path d="M95.2045,55.2185l2.4987-1.4123a1.11851,1.11851,0,1,0-1.0864-1.9555L94.1181,53.263a1.11851,1.11851,0,0,0,1.0864,1.9555Z" fill="#fff"/><path d="M84.9925,45.9842a1.09919,1.09919,0,0,0,1.5209-.4345l1.4123-2.4987a1.11851,1.11851,0,1,0-1.9555-1.0864l-1.4123,2.4987A1.09923,1.09923,0,0,0,84.9925,45.9842Z" fill="#fff"/></g></g></svg>