<svg xmlns="http://www.w3.org/2000/svg" xmlns:xlink="http://www.w3.org/1999/xlink" viewBox="0 0 309 309"><defs><linearGradient id="New_Gradient_Swatch_7" x1="-1098.91857" y1="263.74799" x2="-880.42258" y2="45.25201" gradientTransform="matrix(-1, 0, 0, 1, -835.17058, 0)" gradientUnits="userSpaceOnUse"><stop offset="0" stop-color="#38a380"/><stop offset="0.06811" stop-color="#4fa684"/><stop offset="0.19954" stop-color="#74ac8a"/><stop offset="0.33708" stop-color="#93b090"/><stop offset="0.4803" stop-color="#abb494"/><stop offset="0.63159" stop-color="#bcb697"/><stop offset="0.79642" stop-color="#c6b898"/><stop offset="1" stop-color="#c9b899"/></linearGradient></defs><g id="Layer_2" data-name="Layer 2"><g id="Layer_1-2" data-name="Layer 1"><circle cx="154.5" cy="154.5" r="153.5" fill="#fff" stroke-miterlimit="10" stroke-width="2" stroke="url(#New_Gradient_Swatch_7)"/><path d="M43.23547,200.12358l3.19629-15.02734H48.1593L44.962,200.12358Z" fill="#232323"/><path d="M55.25207,200.12358l1.52051-7.1123a8.40885,8.40885,0,0,0,.18555-1.3877,1.75853,1.75853,0,0,0-.31934-1.12109,1.31511,1.31511,0,0,0-1.08886-.40039,2.76079,2.76079,0,0,0-1.68067.61621,5.36932,5.36932,0,0,0-1.43945,1.76367,10.18867,10.18867,0,0,0-.96094,2.75976l-1.03808,4.88184H48.70422L51.1095,188.858h1.42871l-.22657,2.08691h.10352a6.43543,6.43543,0,0,1,1.7832-1.75781,3.51346,3.51346,0,0,1,1.834-.53418,2.335,2.335,0,0,1,1.78906.668,3.0587,3.0587,0,0,1,.74023,1.86035h.082a6.58437,6.58437,0,0,1,1.88086-1.90625,3.76647,3.76647,0,0,1,2.01464-.62207,2.768,2.768,0,0,1,2.01954.69922,2.7204,2.7204,0,0,1,.71484,2.03515,9.81617,9.81617,0,0,1-.22656,1.8291l-1.48047,6.90723H61.81946l1.52148-7.1123a9.365,9.365,0,0,0,.20508-1.501,1.29508,1.29508,0,0,0-1.46973-1.4082,2.76557,2.76557,0,0,0-1.64453.5957,5.20827,5.20827,0,0,0-1.42383,1.69141,9.23231,9.23231,0,0,0-.92968,2.59472l-1.09961,5.13965Z" fill="#232323"/><path d="M72.05676,200.32964a3.01589,3.01589,0,0,1-1.74707-.51465,3.33577,3.33577,0,0,1-1.16113-1.43848H69.045l-.041.39063c-.02051.17089-.05664.41113-.10742.71875q-.07764.46288-1.17676,5.69433h-1.707l3.4541-16.32226h1.42871l-.26758,2.14843h.082q1.83984-2.33349,3.82422-2.333a2.703,2.703,0,0,1,2.21973,1.00195,4.35659,4.35659,0,0,1,.8125,2.81152,10.90246,10.90246,0,0,1-.71,3.99805,6.63768,6.63768,0,0,1-1.96289,2.832A4.3965,4.3965,0,0,1,72.05676,200.32964Zm1.91211-10.22754a2.97093,2.97093,0,0,0-2.00976.97656,6.97653,6.97653,0,0,0-1.624,2.456,8.0005,8.0005,0,0,0-.60058,3.03223,2.42061,2.42061,0,0,0,.57031,1.73242,2.16666,2.16666,0,0,0,1.64941.60156,2.71959,2.71959,0,0,0,1.89649-.833,5.84308,5.84308,0,0,0,1.41308-2.36914,9.86043,9.86043,0,0,0,.53418-3.26368Q75.798,190.10161,73.96887,190.1021Z" fill="#232323"/><path d="M86.33313,188.65288a4.70247,4.70247,0,0,1,1.2334.14355l-.37012,1.542a4.528,4.528,0,0,0-1.0791-.13378,2.8563,2.8563,0,0,0-1.75293.61718,5.41593,5.41593,0,0,0-1.42871,1.71094,8.74245,8.74245,0,0,0-.89942,2.43066l-1.09961,5.16016H79.21008L81.61536,188.858h1.42871l-.22657,2.08691H82.921a10.10485,10.10485,0,0,1,1.22266-1.40332,3.87775,3.87775,0,0,1,1.01269-.65723A2.9056,2.9056,0,0,1,86.33313,188.65288Z" fill="#232323"/><path d="M93.549,188.7144a4.11506,4.11506,0,0,1,3.083,1.15625,4.35587,4.35587,0,0,1,1.13086,3.18164,9.12048,9.12048,0,0,1-.74024,3.64844,6.313,6.313,0,0,1-2.0039,2.65234,4.68728,4.68728,0,0,1-2.85743.93457,4.09544,4.09544,0,0,1-3.09375-1.16113,4.38227,4.38227,0,0,1-1.12109-3.17578,9.10151,9.10151,0,0,1,.751-3.67481,6.2283,6.2283,0,0,1,2.02441-2.6416A4.71944,4.71944,0,0,1,93.549,188.7144Zm2.42578,4.10156a2.80853,2.80853,0,0,0-.64258-1.917,2.19522,2.19522,0,0,0-1.74218-.73535,3.01055,3.01055,0,0,0-2.00977.76074,4.88926,4.88926,0,0,0-1.377,2.11231,8.78385,8.78385,0,0,0-.48828,3.00683,3.02919,3.02919,0,0,0,.65234,2.08106,2.37663,2.37663,0,0,0,1.876.73437,2.83348,2.83348,0,0,0,1.92187-.75,4.89,4.89,0,0,0,1.33106-2.13281A9.65549,9.65549,0,0,0,95.97473,192.816Z" fill="#232323"/><path d="M101.04211,200.12358,99.757,188.858h1.72754l.65722,6.30078q.24756,2.65283.24707,3.7207h.06153q1.30516-2.82568,1.83984-3.8125l3.34082-6.209h1.8291l-6.07422,11.26562Z" fill="#232323"/><path d="M110.80579,200.12358h-1.72657L111.4845,188.858h1.72656Zm1.1621-14.14355a1.35264,1.35264,0,0,1,.32813-.94043,1.09638,1.09638,0,0,1,.85352-.36426.80835.80835,0,0,1,.90429.9248,1.395,1.395,0,0,1-.34375.95606,1.03694,1.03694,0,0,1-.79687.39062.95065.95065,0,0,1-.67871-.25195A.93621.93621,0,0,1,111.96789,185.98Z" fill="#232323"/><path d="M121.31067,200.12358l1.52148-7.1123a9.39792,9.39792,0,0,0,.20508-1.48047,1.46068,1.46068,0,0,0-.36523-1.03809,1.52877,1.52877,0,0,0-1.166-.39062,3.04507,3.04507,0,0,0-1.7832.61621,5.49238,5.49238,0,0,0-1.53223,1.75781,9.27807,9.27807,0,0,0-1.002,2.76562l-1.03809,4.88184H114.424l2.40527-11.26562h1.42871l-.22656,2.08691h.10352a6.86981,6.86981,0,0,1,1.90625-1.77344,3.83294,3.83294,0,0,1,1.90625-.51855,2.88277,2.88277,0,0,1,2.06152.71386,2.62361,2.62361,0,0,1,.75488,2,8.40073,8.40073,0,0,1-.23632,1.84961l-1.46973,6.90723Z" fill="#232323"/><path d="M137.27356,188.858l-.25684,1.10058-2.16894.2461a2.89509,2.89509,0,0,1,.4209,1.624,4.17057,4.17057,0,0,1-1.19727,3.12988,4.38765,4.38765,0,0,1-3.20117,1.167,3.46282,3.46282,0,0,1-.86426-.082q-1.42822.54492-1.42871,1.34571a.54511.54511,0,0,0,.33984.56054,4.07557,4.07557,0,0,0,.98633.22071l1.20313.14453a5.35082,5.35082,0,0,1,2.69726.90429,2.41356,2.41356,0,0,1,.83789,1.99414,3.35467,3.35467,0,0,1-1.5,2.92872,7.35986,7.35986,0,0,1-4.22461,1.03808,5.57252,5.57252,0,0,1-3.125-.75488,2.42,2.42,0,0,1-1.13086-2.13281,2.64886,2.64886,0,0,1,.74024-1.8711,5.76894,5.76894,0,0,1,2.39453-1.34668,1.33743,1.33743,0,0,1-.80078-1.24316,1.63584,1.63584,0,0,1,.52344-1.21778,5.393,5.393,0,0,1,1.46-.95117,2.679,2.679,0,0,1-1.0586-.97168,2.70691,2.70691,0,0,1-.41113-1.49511,4.51441,4.51441,0,0,1,1.22852-3.26856,4.16968,4.16968,0,0,1,3.13964-1.27441,6.2097,6.2097,0,0,1,1.583.20508Zm-10.94727,13.26953a1.4461,1.4461,0,0,0,.66895,1.2539,3.48821,3.48821,0,0,0,1.9834.46289,5.54928,5.54928,0,0,0,2.92383-.65234,2.05833,2.05833,0,0,0,1.05371-1.8457,1.15112,1.15112,0,0,0-.55469-1.00684,4.44789,4.44789,0,0,0-1.8916-.51367l-1.63379-.165a3.71508,3.71508,0,0,0-1.8916.90527A2.112,2.112,0,0,0,126.32629,202.12749Zm2.85743-8.99317a1.79048,1.79048,0,0,0,.46289,1.33106,1.74888,1.74888,0,0,0,1.28515.457,2.3797,2.3797,0,0,0,1.418-.43164,2.74939,2.74939,0,0,0,.93066-1.18653,4.12124,4.12124,0,0,0,.32325-1.63964,1.71746,1.71746,0,0,0-.45215-1.28516,1.78022,1.78022,0,0,0-1.29492-.44141,2.40734,2.40734,0,0,0-1.40332.416,2.73234,2.73234,0,0,0-.93555,1.16113A3.916,3.916,0,0,0,129.18372,193.13432Z" fill="#232323"/><path d="M149.53528,196.92729a3.01529,3.01529,0,0,1-1.13574,2.50293,5.04287,5.04287,0,0,1-3.20215.89942,6.82953,6.82953,0,0,1-3.13477-.71v-1.624a6.36384,6.36384,0,0,0,1.55274.668,5.64506,5.64506,0,0,0,1.541.2373,3.13291,3.13291,0,0,0,1.95313-.51464,1.59887,1.59887,0,0,0,.6582-1.31543,1.42,1.42,0,0,0-.36035-.98633,7.24116,7.24116,0,0,0-1.55176-1.10059,6.24219,6.24219,0,0,1-1.8916-1.46972,2.70929,2.70929,0,0,1-.55469-1.70606,2.83571,2.83571,0,0,1,1.03809-2.28711,4.12047,4.12047,0,0,1,2.73437-.86816,7.95364,7.95364,0,0,1,3.3916.76074l-.55468,1.4082-.57618-.25683a5.70639,5.70639,0,0,0-2.26074-.44239,2.30033,2.30033,0,0,0-1.501.44727,1.50587,1.50587,0,0,0-.17969,2.14258A6.42334,6.42334,0,0,0,147.007,193.771a8.70845,8.70845,0,0,1,1.57715,1.05957,3.05045,3.05045,0,0,1,.71484.9502A2.69493,2.69493,0,0,1,149.53528,196.92729Z" fill="#232323"/><path d="M157.60461,188.7144a4.115,4.115,0,0,1,3.083,1.15625,4.35583,4.35583,0,0,1,1.13086,3.18164,9.12065,9.12065,0,0,1-.74023,3.64844,6.31306,6.31306,0,0,1-2.00391,2.65234,4.68725,4.68725,0,0,1-2.85742.93457,4.09543,4.09543,0,0,1-3.09375-1.16113,4.38228,4.38228,0,0,1-1.1211-3.17578,9.10151,9.10151,0,0,1,.751-3.67481,6.22831,6.22831,0,0,1,2.02442-2.6416A4.71941,4.71941,0,0,1,157.60461,188.7144Zm2.42578,4.10156a2.80857,2.80857,0,0,0-.64257-1.917,2.19522,2.19522,0,0,0-1.74219-.73535,3.01058,3.01058,0,0,0-2.00977.76074,4.88935,4.88935,0,0,0-1.377,2.11231,8.78409,8.78409,0,0,0-.48828,3.00683,3.02923,3.02923,0,0,0,.65234,2.08106,2.37663,2.37663,0,0,0,1.876.73437,2.83346,2.83346,0,0,0,1.92187-.75,4.89,4.89,0,0,0,1.33106-2.13281A9.65522,9.65522,0,0,0,160.03039,192.816Z" fill="#232323"/><path d="M165.13782,200.12358h-1.72657l2.40528-11.26562h1.72656ZM166.29993,185.98a1.35263,1.35263,0,0,1,.32812-.94043,1.09638,1.09638,0,0,1,.85352-.36426.80835.80835,0,0,1,.90429.9248,1.395,1.395,0,0,1-.34375.95606,1.03694,1.03694,0,0,1-.79687.39062.95065.95065,0,0,1-.67871-.25195A.93621.93621,0,0,1,166.29993,185.98Z" fill="#232323"/><path d="M170.463,200.12358h-1.72656l3.41211-15.99316h1.72754Z" fill="#232323"/><path d="M186.11731,200.12358l1.52051-7.1123a8.40965,8.40965,0,0,0,.18554-1.3877,1.75853,1.75853,0,0,0-.31933-1.12109,1.31514,1.31514,0,0,0-1.08887-.40039,2.76079,2.76079,0,0,0-1.68066.61621A5.36922,5.36922,0,0,0,183.295,192.482a10.18868,10.18868,0,0,0-.96093,2.75976l-1.03809,4.88184h-1.72656l2.40527-11.26562h1.42871l-.22656,2.08691h.10351a6.43545,6.43545,0,0,1,1.78321-1.75781,3.5134,3.5134,0,0,1,1.834-.53418,2.335,2.335,0,0,1,1.78906.668,3.0587,3.0587,0,0,1,.74024,1.86035h.082a6.58449,6.58449,0,0,1,1.88086-1.90625,3.7665,3.7665,0,0,1,2.01465-.62207,2.768,2.768,0,0,1,2.01953.69922,2.7204,2.7204,0,0,1,.71484,2.03515,9.81617,9.81617,0,0,1-.22656,1.8291l-1.48047,6.90723h-1.74707l1.52149-7.1123a9.36586,9.36586,0,0,0,.20507-1.501,1.29508,1.29508,0,0,0-1.46972-1.4082,2.76553,2.76553,0,0,0-1.64453.5957,5.208,5.208,0,0,0-1.42383,1.69141,9.232,9.232,0,0,0-.92969,2.59472l-1.09961,5.13965Z" fill="#232323"/><path d="M203.92981,188.7144a4.11506,4.11506,0,0,1,3.083,1.15625,4.35587,4.35587,0,0,1,1.13086,3.18164,9.12048,9.12048,0,0,1-.74024,3.64844,6.313,6.313,0,0,1-2.0039,2.65234,4.68728,4.68728,0,0,1-2.85743.93457,4.09544,4.09544,0,0,1-3.09375-1.16113,4.38227,4.38227,0,0,1-1.12109-3.17578,9.10151,9.10151,0,0,1,.751-3.67481,6.2283,6.2283,0,0,1,2.02441-2.6416A4.71944,4.71944,0,0,1,203.92981,188.7144Zm2.42578,4.10156a2.80853,2.80853,0,0,0-.64258-1.917,2.19522,2.19522,0,0,0-1.74219-.73535,3.01054,3.01054,0,0,0-2.00976.76074,4.88926,4.88926,0,0,0-1.37695,2.11231,8.78384,8.78384,0,0,0-.48829,3.00683,3.02919,3.02919,0,0,0,.65235,2.08106,2.37662,2.37662,0,0,0,1.876.73437,2.83349,2.83349,0,0,0,1.92188-.75,4.8899,4.8899,0,0,0,1.33105-2.13281A9.65521,9.65521,0,0,0,206.35559,192.816Z" fill="#232323"/><path d="M211.463,200.12358h-1.72656l2.40527-11.26562h1.72657ZM212.62512,185.98a1.35264,1.35264,0,0,1,.32813-.94043,1.09635,1.09635,0,0,1,.85351-.36426.80835.80835,0,0,1,.9043.9248,1.395,1.395,0,0,1-.34375.95606,1.037,1.037,0,0,1-.79688.39062.95067.95067,0,0,1-.67871-.25195A.93624.93624,0,0,1,212.62512,185.98Z" fill="#232323"/><path d="M222.02942,196.92729a3.01529,3.01529,0,0,1-1.13574,2.50293,5.04287,5.04287,0,0,1-3.20215.89942,6.82953,6.82953,0,0,1-3.13477-.71v-1.624a6.36384,6.36384,0,0,0,1.55274.668,5.64506,5.64506,0,0,0,1.541.2373,3.13291,3.13291,0,0,0,1.95313-.51464,1.59887,1.59887,0,0,0,.6582-1.31543,1.42,1.42,0,0,0-.36035-.98633,7.24116,7.24116,0,0,0-1.55176-1.10059,6.24219,6.24219,0,0,1-1.8916-1.46972,2.70929,2.70929,0,0,1-.55469-1.70606,2.83571,2.83571,0,0,1,1.03809-2.28711,4.12047,4.12047,0,0,1,2.73437-.86816,7.95364,7.95364,0,0,1,3.3916.76074l-.55468,1.4082-.57618-.25683a5.70639,5.70639,0,0,0-2.26074-.44239,2.30033,2.30033,0,0,0-1.501.44727,1.50587,1.50587,0,0,0-.17969,2.14258,6.42334,6.42334,0,0,0,1.50586,1.05859,8.70845,8.70845,0,0,1,1.57715,1.05957,3.05045,3.05045,0,0,1,.71484.9502A2.69493,2.69493,0,0,1,222.02942,196.92729Z" fill="#232323"/><path d="M227.549,198.92143a5.58581,5.58581,0,0,0,1.48047-.26758V199.98a4.75192,4.75192,0,0,1-.86328.24609,4.45425,4.45425,0,0,1-.82227.10352,2.85746,2.85746,0,0,1-1.96875-.61231,2.32342,2.32342,0,0,1-.68359-1.82422,7.47762,7.47762,0,0,1,.18554-1.542l1.30567-6.1875h-1.76856l.14454-.75,1.90136-.80176,1.28418-2.34375h1.00781l-.56543,2.58985h2.81641l-.26758,1.30566h-2.80566l-1.32617,6.208a7.33714,7.33714,0,0,0-.18457,1.35742,1.219,1.219,0,0,0,.29785.88379A1.10522,1.10522,0,0,0,227.549,198.92143Z" fill="#232323"/><path d="M234.95032,188.858l-1.542,7.14355a7.742,7.742,0,0,0-.18457,1.42871,1.31766,1.31766,0,0,0,1.51075,1.4707,3.05953,3.05953,0,0,0,1.77832-.61718,5.48046,5.48046,0,0,0,1.541-1.76758,9.47086,9.47086,0,0,0,1.01758-2.77539l1.02832-4.88281h1.70606l-2.374,11.26562h-1.42871l.22559-2.08691h-.12305a6.75321,6.75321,0,0,1-1.92187,1.78906,3.88334,3.88334,0,0,1-1.89161.50391,2.87128,2.87128,0,0,1-2.06543-.71485,2.6812,2.6812,0,0,1-.751-2.04,9.59693,9.59693,0,0,1,.22656-1.76855l1.501-6.94824Z" fill="#232323"/><path d="M250.1925,188.65288a4.70247,4.70247,0,0,1,1.2334.14355l-.37011,1.542a4.52807,4.52807,0,0,0-1.07911-.13378,2.85632,2.85632,0,0,0-1.75293.61718,5.41619,5.41619,0,0,0-1.42871,1.71094,8.74244,8.74244,0,0,0-.89941,2.43066l-1.09961,5.16016h-1.72656l2.40527-11.26562h1.42871l-.22656,2.08691h.10351a10.10619,10.10619,0,0,1,1.22266-1.40332,3.8778,3.8778,0,0,1,1.0127-.65723A2.90555,2.90555,0,0,1,250.1925,188.65288Z" fill="#232323"/><path d="M255.85559,200.32964a3.92792,3.92792,0,0,1-2.96973-1.1211,4.28563,4.28563,0,0,1-1.08007-3.10351,9.252,9.252,0,0,1,.7666-3.70606,6.85544,6.85544,0,0,1,2.02929-2.75976,4.42769,4.42769,0,0,1,2.78614-.98633,3.52935,3.52935,0,0,1,2.36328.68359,2.38259,2.38259,0,0,1,.792,1.90625,3.261,3.261,0,0,1-1.70605,2.9043,9.34991,9.34991,0,0,1-4.88282,1.05273h-.33886l-.041.82227a3.1842,3.1842,0,0,0,.63184,2.10254,2.40952,2.40952,0,0,0,1.958.75488,5.09787,5.09787,0,0,0,1.33106-.18457,10.15382,10.15382,0,0,0,1.70117-.67871v1.501a9.25263,9.25263,0,0,1-1.70605.63183A6.90876,6.90876,0,0,1,255.85559,200.32964Zm1.42871-10.207a2.74782,2.74782,0,0,0-1.98828.96582,6.31958,6.31958,0,0,0-1.42383,2.68262h.12305a8.38683,8.38683,0,0,0,3.59277-.61133,1.9193,1.9193,0,0,0,1.249-1.77246,1.20294,1.20294,0,0,0-.375-.90527A1.65668,1.65668,0,0,0,257.2843,190.1226Z" fill="#232323"/><path d="M69.8009,213.91362a2.90707,2.90707,0,0,1,1.68555.50879,3.30645,3.30645,0,0,1,1.15137,1.46484h.1123l.68945-1.76855h1.30469l-2.39453,11.26562H70.98254l.26758-2.14843h-.083q-1.83984,2.354-3.875,2.35449a2.70963,2.70963,0,0,1-2.24023-1.01758,4.35265,4.35265,0,0,1-.8125-2.78613,10.60277,10.60277,0,0,1,.73047-3.96778,6.85109,6.85109,0,0,1,2.01465-2.86718A4.38015,4.38015,0,0,1,69.8009,213.91362Zm-1.95312,10.248a2.89382,2.89382,0,0,0,1.9834-.95118,7.042,7.042,0,0,0,1.60351-2.47753,8.10549,8.10549,0,0,0,.61719-3.05762,2.39489,2.39489,0,0,0-.57617-1.68555,1.95492,1.95492,0,0,0-1.51074-.62695,2.83166,2.83166,0,0,0-1.98926.88379,5.959,5.959,0,0,0-1.44336,2.39453,9.6546,9.6546,0,0,0-.52442,3.18652,2.70087,2.70087,0,0,0,.48243,1.75293A1.66941,1.66941,0,0,0,67.84778,224.16167Z" fill="#232323"/><path d="M82.61829,225.38432l1.52148-7.1123a9.39792,9.39792,0,0,0,.20508-1.48047,1.46066,1.46066,0,0,0-.36524-1.03809,1.52873,1.52873,0,0,0-1.166-.39062,3.04519,3.04519,0,0,0-1.78321.61621,5.49235,5.49235,0,0,0-1.53222,1.75781,9.278,9.278,0,0,0-1.002,2.76563l-1.03809,4.88183H75.73157l2.40527-11.26562h1.42871l-.22656,2.08691h.10351a6.87,6.87,0,0,1,1.90625-1.77344,3.833,3.833,0,0,1,1.90625-.51855,2.88274,2.88274,0,0,1,2.06153.71387,2.62358,2.62358,0,0,1,.75488,2,8.40034,8.40034,0,0,1-.23633,1.84961l-1.46972,6.90722Z" fill="#232323"/><path d="M93.84192,213.93413a2.99811,2.99811,0,0,1,2.88769,1.95312h.10254a23.90008,23.90008,0,0,1,.46289-2.8164l.80176-3.67969h1.70606l-3.39161,15.99316H94.98254l.22559-2.14843h-.082a7.73489,7.73489,0,0,1-1.94238,1.81933,3.63107,3.63107,0,0,1-1.8711.53516,2.69185,2.69185,0,0,1-2.23047-1.00782,4.382,4.382,0,0,1-.80176-2.79589,10.65643,10.65643,0,0,1,.74024-4.0293,6.72292,6.72292,0,0,1,1.999-2.82617A4.43076,4.43076,0,0,1,93.84192,213.93413Zm-1.95313,10.22754a2.99337,2.99337,0,0,0,1.99414-.96192,6.75878,6.75878,0,0,0,1.62891-2.45605,8.11328,8.11328,0,0,0,.60156-3.04785,2.4606,2.4606,0,0,0-.55566-1.73731,2.10085,2.10085,0,0,0-1.61328-.5957,2.74939,2.74939,0,0,0-1.92774.84765,5.96865,5.96865,0,0,0-1.42871,2.38477,9.69614,9.69614,0,0,0-.53906,3.23242Q90.049,224.16119,91.88879,224.16167Z" fill="#232323"/><path d="M113.43274,225.38432l-.32813-6.1875q-.04248-.96679-.041-1.76758v-1.60351h-.09278l-.51367,1.21289-.85351,1.94238-2.99121,6.40332h-2.07618l-.44238-11.26562h1.68652l.18458,6.10547v.90527q0,1.51026-.082,2.76465h.06153q.48339-1.27442,1.4082-3.30957l3.03223-6.46582H114.255l.38086,6.10547q.06153,1.727.06153,2.69336v.54492l-.02051.43164h.06152q.28712-.88478.85352-2.2461.56542-1.3623,3.31933-7.52929h1.83008l-5.20117,11.26562Z" fill="#232323"/><path d="M126.548,213.91362a2.90707,2.90707,0,0,1,1.68555.50879,3.30645,3.30645,0,0,1,1.15137,1.46484h.1123l.68945-1.76855h1.30469l-2.39453,11.26562h-1.36719l.26758-2.14843h-.083q-1.83984,2.354-3.875,2.35449a2.70965,2.70965,0,0,1-2.24023-1.01758,4.35265,4.35265,0,0,1-.8125-2.78613,10.60277,10.60277,0,0,1,.73047-3.96778,6.85109,6.85109,0,0,1,2.01465-2.86718A4.38015,4.38015,0,0,1,126.548,213.91362Zm-1.95312,10.248a2.89382,2.89382,0,0,0,1.9834-.95118,7.042,7.042,0,0,0,1.60351-2.47753,8.10549,8.10549,0,0,0,.61719-3.05762,2.39489,2.39489,0,0,0-.57617-1.68555,1.95492,1.95492,0,0,0-1.51074-.62695,2.83166,2.83166,0,0,0-1.98926.88379,5.959,5.959,0,0,0-1.44336,2.39453,9.6546,9.6546,0,0,0-.52442,3.18652,2.70087,2.70087,0,0,0,.48243,1.75293A1.66941,1.66941,0,0,0,124.59485,224.16167Z" fill="#232323"/><path d="M135.93176,224.18217a5.58607,5.58607,0,0,0,1.48047-.26757v1.32617a4.75192,4.75192,0,0,1-.86328.24609,4.45415,4.45415,0,0,1-.82227.10352,2.85741,2.85741,0,0,1-1.96875-.61231,2.32344,2.32344,0,0,1-.68359-1.82422,7.47708,7.47708,0,0,1,.18555-1.542l1.30566-6.1875H132.797l.14453-.75,1.90136-.80176,1.28418-2.34375h1.00782l-.56543,2.58985h2.8164l-.26757,1.30566h-2.80567l-1.32617,6.208a7.33714,7.33714,0,0,0-.18457,1.35742,1.219,1.219,0,0,0,.29785.88379A1.10522,1.10522,0,0,0,135.93176,224.18217Z" fill="#232323"/><path d="M143.754,225.59038a3.92792,3.92792,0,0,1-2.96973-1.1211,4.28559,4.28559,0,0,1-1.08008-3.10351,9.25222,9.25222,0,0,1,.7666-3.70606,6.85555,6.85555,0,0,1,2.0293-2.75976,4.42766,4.42766,0,0,1,2.78613-.98633,3.52937,3.52937,0,0,1,2.36329.68359,2.38259,2.38259,0,0,1,.792,1.90625,3.26094,3.26094,0,0,1-1.70606,2.9043,9.34985,9.34985,0,0,1-4.88281,1.05273h-.33887l-.041.82227a3.18425,3.18425,0,0,0,.63183,2.10254,2.40952,2.40952,0,0,0,1.958.75488,5.09787,5.09787,0,0,0,1.33106-.18457,10.15382,10.15382,0,0,0,1.70117-.67871v1.501a9.2517,9.2517,0,0,1-1.70606.63183A6.90861,6.90861,0,0,1,143.754,225.59038Zm1.42871-10.207a2.74777,2.74777,0,0,0-1.98828.96582,6.31948,6.31948,0,0,0-1.42383,2.68261h.123a8.387,8.387,0,0,0,3.59277-.61132,1.91931,1.91931,0,0,0,1.249-1.77247,1.203,1.203,0,0,0-.375-.90527A1.65666,1.65666,0,0,0,145.18274,215.38335Z" fill="#232323"/><path d="M156.80774,213.91362a4.70253,4.70253,0,0,1,1.2334.14355l-.37012,1.542a4.5275,4.5275,0,0,0-1.0791-.13379,2.85627,2.85627,0,0,0-1.75293.61718,5.41593,5.41593,0,0,0-1.42871,1.71094,8.7424,8.7424,0,0,0-.89942,2.43067l-1.09961,5.16015h-1.72656L152.09,214.1187h1.42871l-.22657,2.08691h.10352a10.10485,10.10485,0,0,1,1.22266-1.40332,3.87775,3.87775,0,0,1,1.01269-.65723A2.9056,2.9056,0,0,1,156.80774,213.91362Z" fill="#232323"/><path d="M170.61243,213.91362a4.7024,4.7024,0,0,1,1.23339.14355l-.37011,1.542a4.5275,4.5275,0,0,0-1.0791-.13379,2.85627,2.85627,0,0,0-1.75293.61718,5.41593,5.41593,0,0,0-1.42871,1.71094,8.74208,8.74208,0,0,0-.89942,2.43067l-1.09961,5.16015h-1.72656l2.40527-11.26562h1.42871l-.22656,2.08691h.10352a10.10559,10.10559,0,0,1,1.22265-1.40332,3.8778,3.8778,0,0,1,1.0127-.65723A2.9056,2.9056,0,0,1,170.61243,213.91362Z" fill="#232323"/><path d="M176.27454,225.59038a3.92791,3.92791,0,0,1-2.96973-1.1211,4.28559,4.28559,0,0,1-1.08008-3.10351,9.25222,9.25222,0,0,1,.7666-3.70606,6.85555,6.85555,0,0,1,2.0293-2.75976,4.42764,4.42764,0,0,1,2.78613-.98633,3.52934,3.52934,0,0,1,2.36328.68359,2.3826,2.3826,0,0,1,.792,1.90625,3.26094,3.26094,0,0,1-1.70606,2.9043,9.34985,9.34985,0,0,1-4.88281,1.05273h-.33887l-.041.82227a3.1842,3.1842,0,0,0,.63183,2.10254,2.40952,2.40952,0,0,0,1.958.75488,5.09774,5.09774,0,0,0,1.331-.18457,10.15387,10.15387,0,0,0,1.70118-.67871v1.501a9.252,9.252,0,0,1-1.70606.63183A6.90861,6.90861,0,0,1,176.27454,225.59038Zm1.42871-10.207a2.74777,2.74777,0,0,0-1.98828.96582,6.31948,6.31948,0,0,0-1.42383,2.68261h.123a8.38705,8.38705,0,0,0,3.59278-.61132,1.91931,1.91931,0,0,0,1.249-1.77247,1.203,1.203,0,0,0-.375-.90527A1.65667,1.65667,0,0,0,177.70325,215.38335Z" fill="#232323"/><path d="M192.90637,214.1187l-.25683,1.10058-2.16895.2461a2.89509,2.89509,0,0,1,.4209,1.624,4.17057,4.17057,0,0,1-1.19727,3.12988,4.38766,4.38766,0,0,1-3.20117,1.167,3.46273,3.46273,0,0,1-.86426-.082q-1.42822.54494-1.42871,1.34571a.54511.54511,0,0,0,.33985.56054,4.07535,4.07535,0,0,0,.98632.22071l1.20313.14453a5.35072,5.35072,0,0,1,2.69726.9043,2.41355,2.41355,0,0,1,.8379,1.99414,3.35467,3.35467,0,0,1-1.5,2.92871,7.35988,7.35988,0,0,1-4.22461,1.03808,5.57239,5.57239,0,0,1-3.125-.75488,2.41993,2.41993,0,0,1-1.13086-2.13281,2.6489,2.6489,0,0,1,.74023-1.8711,5.769,5.769,0,0,1,2.39453-1.34668,1.33743,1.33743,0,0,1-.80078-1.24316,1.6358,1.6358,0,0,1,.52344-1.21777,5.393,5.393,0,0,1,1.46-.95117,2.679,2.679,0,0,1-1.05859-.97168,2.70689,2.70689,0,0,1-.41114-1.49512,4.51442,4.51442,0,0,1,1.22852-3.26856,4.16968,4.16968,0,0,1,3.13965-1.27441,6.20956,6.20956,0,0,1,1.583.20508Zm-10.94726,13.26953a1.44612,1.44612,0,0,0,.66894,1.25391,3.48832,3.48832,0,0,0,1.9834.46289,5.54928,5.54928,0,0,0,2.92383-.65235,2.0583,2.0583,0,0,0,1.05371-1.8457,1.15112,1.15112,0,0,0-.55469-1.00684,4.44789,4.44789,0,0,0-1.8916-.51367l-1.63379-.165a3.71513,3.71513,0,0,0-1.8916.90528A2.112,2.112,0,0,0,181.95911,227.38823Zm2.85742-8.99317a1.79046,1.79046,0,0,0,.46289,1.33106,1.74886,1.74886,0,0,0,1.28515.457,2.37961,2.37961,0,0,0,1.418-.43164,2.74938,2.74938,0,0,0,.93067-1.18652,4.12146,4.12146,0,0,0,.32324-1.63965,1.71746,1.71746,0,0,0-.45215-1.28516,1.78026,1.78026,0,0,0-1.29492-.4414,2.40735,2.40735,0,0,0-1.40332.416,2.7324,2.7324,0,0,0-.93555,1.16113A3.91611,3.91611,0,0,0,184.81653,218.39506Z" fill="#232323"/><path d="M194.47864,225.38432h-1.72657l2.40528-11.26562h1.72656Zm1.16211-14.14355a1.35263,1.35263,0,0,1,.32812-.94043,1.09638,1.09638,0,0,1,.85352-.36426.80835.80835,0,0,1,.90429.92481,1.395,1.395,0,0,1-.34375.956,1.03692,1.03692,0,0,1-.79687.39062.95065.95065,0,0,1-.67871-.25195A.93621.93621,0,0,1,195.64075,211.24077Z" fill="#232323"/><path d="M204.64465,225.38432l1.52051-7.1123a8.4097,8.4097,0,0,0,.18555-1.3877,1.75855,1.75855,0,0,0-.31934-1.12109,1.31512,1.31512,0,0,0-1.08887-.40039,2.76085,2.76085,0,0,0-1.68066.61621,5.36932,5.36932,0,0,0-1.43945,1.76367,10.18829,10.18829,0,0,0-.96094,2.75977l-1.03809,4.88183H198.0968l2.40527-11.26562h1.42872l-.22657,2.08691h.10352a6.43543,6.43543,0,0,1,1.7832-1.75781,3.51344,3.51344,0,0,1,1.834-.53418,2.335,2.335,0,0,1,1.78906.668,3.0587,3.0587,0,0,1,.74023,1.86035h.082a6.58449,6.58449,0,0,1,1.88086-1.90625,3.76653,3.76653,0,0,1,2.01465-.62207,2.768,2.768,0,0,1,2.01953.69922,2.72036,2.72036,0,0,1,.71485,2.03515,9.81566,9.81566,0,0,1-.22657,1.82911l-1.48046,6.90722H211.212l1.52148-7.1123a9.365,9.365,0,0,0,.20508-1.501,1.29508,1.29508,0,0,0-1.46973-1.4082,2.76561,2.76561,0,0,0-1.64453.5957,5.20825,5.20825,0,0,0-1.42383,1.69141,9.23262,9.23262,0,0,0-.92969,2.59472l-1.0996,5.13965Z" fill="#232323"/><path d="M220.90442,225.59038a3.92792,3.92792,0,0,1-2.96973-1.1211,4.28563,4.28563,0,0,1-1.08008-3.10351,9.25206,9.25206,0,0,1,.76661-3.70606A6.85544,6.85544,0,0,1,219.65051,214.9a4.42768,4.42768,0,0,1,2.78613-.98633,3.52937,3.52937,0,0,1,2.36329.68359,2.38259,2.38259,0,0,1,.792,1.90625,3.26094,3.26094,0,0,1-1.70606,2.9043,9.34985,9.34985,0,0,1-4.88281,1.05273h-.33887l-.041.82227a3.18425,3.18425,0,0,0,.63183,2.10254,2.40952,2.40952,0,0,0,1.958.75488,5.09787,5.09787,0,0,0,1.33106-.18457,10.15382,10.15382,0,0,0,1.70117-.67871v1.501a9.2517,9.2517,0,0,1-1.70606.63183A6.90861,6.90861,0,0,1,220.90442,225.59038Zm1.42871-10.207a2.74779,2.74779,0,0,0-1.98828.96582,6.31948,6.31948,0,0,0-1.42383,2.68261h.12305a8.387,8.387,0,0,0,3.59277-.61132,1.91931,1.91931,0,0,0,1.249-1.77247,1.203,1.203,0,0,0-.375-.90527A1.65664,1.65664,0,0,0,222.33313,215.38335Z" fill="#232323"/><path d="M233.78332,222.188a3.01527,3.01527,0,0,1-1.13574,2.50293,5.04285,5.04285,0,0,1-3.20215.89942,6.82964,6.82964,0,0,1-3.13476-.71v-1.624a6.36355,6.36355,0,0,0,1.55273.668,5.64517,5.64517,0,0,0,1.541.23731,3.13286,3.13286,0,0,0,1.95312-.51465,1.59885,1.59885,0,0,0,.65821-1.31543,1.42,1.42,0,0,0-.36036-.98633,7.24075,7.24075,0,0,0-1.55175-1.10059,6.24178,6.24178,0,0,1-1.8916-1.46972,2.70925,2.70925,0,0,1-.55469-1.70606,2.83574,2.83574,0,0,1,1.03808-2.28711,4.12051,4.12051,0,0,1,2.73438-.86816,7.95382,7.95382,0,0,1,3.3916.76074l-.55469,1.4082-.57617-.25683a5.70656,5.70656,0,0,0-2.26074-.44238,2.30034,2.30034,0,0,0-1.501.44726,1.50589,1.50589,0,0,0-.17969,2.14258,6.42357,6.42357,0,0,0,1.50586,1.05859,8.709,8.709,0,0,1,1.57715,1.05957,3.05049,3.05049,0,0,1,.71485.9502A2.69511,2.69511,0,0,1,233.78332,222.188Z" fill="#232323"/><path d="M238.2345,222.938l.082.23633a45.87606,45.87606,0,0,1-2.77539,4.92383H234.215q1.29638-2.93994,2.09765-5.16016Z" fill="#232323"/><path d="M97.74719,250.85014a2.995,2.995,0,0,1-1.752-.52441A3.20336,3.20336,0,0,1,94.8595,248.897H94.756l-.71875,1.74707H92.75207l3.39161-15.99317h1.72754q-.52442,2.48731-.80762,3.80762-.28272,1.32129-.77539,3.08887H96.38a7.51657,7.51657,0,0,1,1.88672-1.7832,3.62372,3.62372,0,0,1,1.917-.57032,2.729,2.729,0,0,1,2.26074,1.01758,4.369,4.369,0,0,1,.8125,2.7959,10.95987,10.95987,0,0,1-.7041,3.97266,6.65574,6.65574,0,0,1-1.96387,2.84668A4.38316,4.38316,0,0,1,97.74719,250.85014ZM99.6593,240.6226a2.971,2.971,0,0,0-2.00976.97657,6.97621,6.97621,0,0,0-1.624,2.45605,8.0005,8.0005,0,0,0-.60058,3.03223,2.42063,2.42063,0,0,0,.57031,1.73242,2.16666,2.16666,0,0,0,1.64941.60156,2.71956,2.71956,0,0,0,1.89649-.833,5.84294,5.84294,0,0,0,1.41308-2.36914,9.86033,9.86033,0,0,0,.53418-3.26367Q101.4884,240.62212,99.6593,240.6226Z" fill="#232323"/><path d="M106.62805,250.64409h-1.72656l2.40527-11.26563h1.72656Zm1.16211-14.14356a1.35266,1.35266,0,0,1,.32813-.94043,1.09637,1.09637,0,0,1,.85351-.36425.80835.80835,0,0,1,.9043.9248,1.395,1.395,0,0,1-.34375.95606,1.037,1.037,0,0,1-.79688.39062.95067.95067,0,0,1-.67871-.25195A.93625.93625,0,0,1,107.79016,236.50053Z" fill="#232323"/><path d="M116.24914,239.23491a4.115,4.115,0,0,1,3.083,1.15625,4.35579,4.35579,0,0,1,1.13086,3.18164,9.12065,9.12065,0,0,1-.74023,3.64844,6.31306,6.31306,0,0,1-2.00391,2.65234,4.68725,4.68725,0,0,1-2.85742.93457,4.09543,4.09543,0,0,1-3.09375-1.16113,4.38229,4.38229,0,0,1-1.12109-3.17578,9.10147,9.10147,0,0,1,.751-3.67481,6.22831,6.22831,0,0,1,2.02442-2.6416A4.71943,4.71943,0,0,1,116.24914,239.23491Zm2.42579,4.10156a2.80857,2.80857,0,0,0-.64258-1.917,2.19519,2.19519,0,0,0-1.74219-.73535,3.01053,3.01053,0,0,0-2.00977.76074,4.88938,4.88938,0,0,0-1.37695,2.1123,8.78414,8.78414,0,0,0-.48828,3.00684,3.02919,3.02919,0,0,0,.65234,2.08105,2.3766,2.3766,0,0,0,1.876.73438,2.8335,2.8335,0,0,0,1.92188-.75,4.89008,4.89008,0,0,0,1.33105-2.13281A9.65521,9.65521,0,0,0,118.67493,243.33647Z" fill="#232323"/><path d="M128.60364,250.64409l1.5205-7.11231a8.40863,8.40863,0,0,0,.18555-1.38769,1.75858,1.75858,0,0,0-.31933-1.1211,1.31514,1.31514,0,0,0-1.08887-.40039,2.7609,2.7609,0,0,0-1.68067.61621,5.36947,5.36947,0,0,0-1.43945,1.76368,10.189,10.189,0,0,0-.96094,2.75976l-1.03808,4.88184h-1.72656l2.40527-11.26563h1.42871l-.22656,2.08692h.10351a6.43564,6.43564,0,0,1,1.78321-1.75782,3.51348,3.51348,0,0,1,1.834-.53417,2.335,2.335,0,0,1,1.78906.668,3.05873,3.05873,0,0,1,.74024,1.86036h.082a6.58449,6.58449,0,0,1,1.88086-1.90625,3.7665,3.7665,0,0,1,2.01465-.62207,2.768,2.768,0,0,1,2.01953.69921,2.72042,2.72042,0,0,1,.71484,2.03516,9.81617,9.81617,0,0,1-.22656,1.8291l-1.48047,6.90723H135.171l1.52148-7.11231a9.3651,9.3651,0,0,0,.20508-1.501,1.29509,1.29509,0,0,0-1.46972-1.40821,2.76559,2.76559,0,0,0-1.64454.59571,5.20819,5.20819,0,0,0-1.42382,1.6914,9.23219,9.23219,0,0,0-.92969,2.59473l-1.09961,5.13965Z" fill="#232323"/><path d="M146.37512,239.17339a2.90718,2.90718,0,0,1,1.68555.50878A3.30642,3.30642,0,0,1,149.212,241.147h.1123l.68945-1.76856h1.30469L148.924,250.64409h-1.36719l.26758-2.14844h-.083q-1.83984,2.354-3.875,2.35449a2.70959,2.70959,0,0,1-2.24023-1.01758,4.35265,4.35265,0,0,1-.8125-2.78613,10.60272,10.60272,0,0,1,.73047-3.96777,6.851,6.851,0,0,1,2.01465-2.86719A4.3802,4.3802,0,0,1,146.37512,239.17339Zm-1.95312,10.248a2.89377,2.89377,0,0,0,1.98339-.95117,7.04189,7.04189,0,0,0,1.60352-2.47754,8.10546,8.10546,0,0,0,.61719-3.05762,2.39489,2.39489,0,0,0-.57617-1.68554,1.95494,1.95494,0,0,0-1.51075-.627,2.8317,2.8317,0,0,0-1.98925.88379,5.959,5.959,0,0,0-1.44336,2.39453,9.6547,9.6547,0,0,0-.52442,3.18653,2.701,2.701,0,0,0,.48242,1.75293A1.66944,1.66944,0,0,0,144.422,249.42143Z" fill="#232323"/><path d="M159.254,247.4478a3.01529,3.01529,0,0,1-1.13574,2.50293,5.04287,5.04287,0,0,1-3.20215.89941,6.82952,6.82952,0,0,1-3.13477-.71v-1.624a6.36423,6.36423,0,0,0,1.55274.668,5.64506,5.64506,0,0,0,1.541.2373,3.13284,3.13284,0,0,0,1.95313-.51465,1.59886,1.59886,0,0,0,.6582-1.31543,1.42,1.42,0,0,0-.36035-.98632,7.24116,7.24116,0,0,0-1.55176-1.10059,6.242,6.242,0,0,1-1.8916-1.46973,2.70924,2.70924,0,0,1-.55469-1.706,2.83571,2.83571,0,0,1,1.03809-2.28711,4.12047,4.12047,0,0,1,2.73437-.86816,7.95364,7.95364,0,0,1,3.3916.76074l-.55468,1.4082-.57618-.25684a5.70656,5.70656,0,0,0-2.26074-.44238,2.30033,2.30033,0,0,0-1.501.44727,1.50587,1.50587,0,0,0-.17969,2.14258,6.42334,6.42334,0,0,0,1.50586,1.05859,8.70845,8.70845,0,0,1,1.57715,1.05957,3.05042,3.05042,0,0,1,.71484.95019A2.695,2.695,0,0,1,159.254,247.4478Z" fill="#232323"/><path d="M168.2677,247.4478a3.01529,3.01529,0,0,1-1.13574,2.50293,5.04287,5.04287,0,0,1-3.20215.89941,6.82955,6.82955,0,0,1-3.13477-.71v-1.624a6.3644,6.3644,0,0,0,1.55274.668,5.64512,5.64512,0,0,0,1.541.2373,3.13284,3.13284,0,0,0,1.95313-.51465,1.59886,1.59886,0,0,0,.6582-1.31543,1.42,1.42,0,0,0-.36035-.98632,7.24116,7.24116,0,0,0-1.55176-1.10059,6.242,6.242,0,0,1-1.8916-1.46973,2.70924,2.70924,0,0,1-.55469-1.706,2.83573,2.83573,0,0,1,1.03809-2.28711,4.12047,4.12047,0,0,1,2.73437-.86816,7.95372,7.95372,0,0,1,3.39161.76074l-.55469,1.4082-.57617-.25684a5.70665,5.70665,0,0,0-2.26075-.44238,2.30033,2.30033,0,0,0-1.501.44727,1.50589,1.50589,0,0,0-.17969,2.14258,6.42334,6.42334,0,0,0,1.50586,1.05859,8.70845,8.70845,0,0,1,1.57715,1.05957,3.05042,3.05042,0,0,1,.71484.95019A2.695,2.695,0,0,1,168.2677,247.4478Z" fill="#232323"/><path d="M181.76379,239.17339a2.90714,2.90714,0,0,1,1.68555.50878,3.30642,3.30642,0,0,1,1.15137,1.46485h.1123l.68946-1.76856h1.30468l-2.39453,11.26563h-1.36719l.26758-2.14844h-.083q-1.83984,2.354-3.875,2.35449a2.70962,2.70962,0,0,1-2.24023-1.01758,4.35265,4.35265,0,0,1-.8125-2.78613,10.60272,10.60272,0,0,1,.73047-3.96777,6.85121,6.85121,0,0,1,2.01465-2.86719A4.3802,4.3802,0,0,1,181.76379,239.17339Zm-1.95312,10.248a2.89381,2.89381,0,0,0,1.9834-.95117,7.042,7.042,0,0,0,1.60351-2.47754,8.10526,8.10526,0,0,0,.61719-3.05762,2.39489,2.39489,0,0,0-.57617-1.68554,1.95493,1.95493,0,0,0-1.51074-.627,2.83172,2.83172,0,0,0-1.98926.88379,5.95909,5.95909,0,0,0-1.44336,2.39453,9.6547,9.6547,0,0,0-.52442,3.18653,2.70089,2.70089,0,0,0,.48243,1.75293A1.6694,1.6694,0,0,0,179.81067,249.42143Z" fill="#232323"/><path d="M194.58118,250.64409l1.52148-7.11231a9.39777,9.39777,0,0,0,.20508-1.48047,1.46061,1.46061,0,0,0-.36524-1.03808,1.52873,1.52873,0,0,0-1.166-.39063,3.04514,3.04514,0,0,0-1.7832.61621,5.49241,5.49241,0,0,0-1.53223,1.75782,9.278,9.278,0,0,0-1.00195,2.76562l-1.03809,4.88184h-1.72656l2.40527-11.26563h1.42871l-.22656,2.08692h.10351a6.87,6.87,0,0,1,1.90625-1.77344,3.833,3.833,0,0,1,1.90625-.51855,2.88278,2.88278,0,0,1,2.06153.71386,2.6236,2.6236,0,0,1,.75488,2,8.40019,8.40019,0,0,1-.23633,1.84961l-1.46972,6.90723Z" fill="#232323"/><path d="M205.80579,239.19389a2.99812,2.99812,0,0,1,2.88769,1.95313h.10254a23.89819,23.89819,0,0,1,.46289-2.81641l.80176-3.67969h1.70605l-3.3916,15.99317h-1.42871l.22559-2.14844h-.082a7.735,7.735,0,0,1-1.94239,1.81934,3.63109,3.63109,0,0,1-1.87109.53515,2.69185,2.69185,0,0,1-2.23047-1.00781,4.382,4.382,0,0,1-.80176-2.7959,10.65615,10.65615,0,0,1,.74024-4.02929,6.72287,6.72287,0,0,1,1.999-2.82618A4.43072,4.43072,0,0,1,205.80579,239.19389Zm-1.95313,10.22754a2.99337,2.99337,0,0,0,1.99414-.96191,6.7589,6.7589,0,0,0,1.62891-2.45606,8.11324,8.11324,0,0,0,.60156-3.04785,2.46064,2.46064,0,0,0-.55566-1.7373,2.10084,2.10084,0,0,0-1.61329-.59571,2.74938,2.74938,0,0,0-1.92773.84766,5.96858,5.96858,0,0,0-1.42871,2.38477,9.69585,9.69585,0,0,0-.53906,3.23242Q202.01282,249.42094,203.85266,249.42143Z" fill="#232323"/><path d="M104.295,276.11089a2.995,2.995,0,0,1-1.75195-.52442,3.20336,3.20336,0,0,1-1.13574-1.42871h-.10352l-.71875,1.74707H99.29993l3.3916-15.99316h1.72754q-.52442,2.4873-.80762,3.80761-.28272,1.32129-.77539,3.08887h.0918a7.51674,7.51674,0,0,1,1.88671-1.7832,3.62371,3.62371,0,0,1,1.917-.57031,2.729,2.729,0,0,1,2.26074,1.01757,4.369,4.369,0,0,1,.8125,2.7959,10.95987,10.95987,0,0,1-.7041,3.97266,6.65568,6.65568,0,0,1-1.96387,2.84668A4.38317,4.38317,0,0,1,104.295,276.11089Zm1.91211-10.22754a2.97093,2.97093,0,0,0-2.00976.97656,6.97653,6.97653,0,0,0-1.624,2.45605,8.0005,8.0005,0,0,0-.60058,3.03223,2.42061,2.42061,0,0,0,.57031,1.73242,2.16666,2.16666,0,0,0,1.64941.60156,2.71957,2.71957,0,0,0,1.89649-.833,5.843,5.843,0,0,0,1.41308-2.36914,9.86043,9.86043,0,0,0,.53418-3.26368Q108.03625,265.88286,106.20715,265.88335Z" fill="#232323"/><path d="M113.1759,275.90483h-1.72656l2.40527-11.26562h1.72657Zm1.16211-14.14355a1.35264,1.35264,0,0,1,.32813-.94043,1.09635,1.09635,0,0,1,.85351-.36426.80835.80835,0,0,1,.9043.9248,1.395,1.395,0,0,1-.34375.95606,1.037,1.037,0,0,1-.79688.39062.95067.95067,0,0,1-.67871-.252A.93624.93624,0,0,1,114.338,261.76128Z" fill="#232323"/><path d="M122.797,264.49565a4.115,4.115,0,0,1,3.083,1.15625,4.35583,4.35583,0,0,1,1.13086,3.18164,9.12065,9.12065,0,0,1-.74023,3.64844,6.3129,6.3129,0,0,1-2.00391,2.65234,4.68725,4.68725,0,0,1-2.85742.93457,4.09543,4.09543,0,0,1-3.09375-1.16113,4.38227,4.38227,0,0,1-1.12109-3.17578,9.1015,9.1015,0,0,1,.751-3.67481,6.22831,6.22831,0,0,1,2.02442-2.6416A4.71944,4.71944,0,0,1,122.797,264.49565Zm2.42578,4.10156a2.80857,2.80857,0,0,0-.64258-1.917,2.19522,2.19522,0,0,0-1.74219-.73535,3.01054,3.01054,0,0,0-2.00976.76074,4.88928,4.88928,0,0,0-1.377,2.11231,8.78409,8.78409,0,0,0-.48828,3.00683,3.02919,3.02919,0,0,0,.65235,2.08106,2.37659,2.37659,0,0,0,1.876.73437,2.8335,2.8335,0,0,0,1.92188-.75,4.89008,4.89008,0,0,0,1.331-2.13281A9.65521,9.65521,0,0,0,125.22278,268.59721Z" fill="#232323"/><path d="M134.56555,264.45464a2.99813,2.99813,0,0,1,2.8877,1.95312h.10254a23.89612,23.89612,0,0,1,.46289-2.81641l.80175-3.67968h1.70606l-3.3916,15.99316h-1.42871l.22558-2.14844h-.082a7.73479,7.73479,0,0,1-1.94238,1.81934,3.63114,3.63114,0,0,1-1.8711.53516,2.69184,2.69184,0,0,1-2.23046-1.00782,4.382,4.382,0,0,1-.80176-2.7959,10.65634,10.65634,0,0,1,.74023-4.02929,6.72287,6.72287,0,0,1,1.999-2.82617A4.43072,4.43072,0,0,1,134.56555,264.45464Zm-1.95312,10.22753a2.99339,2.99339,0,0,0,1.99414-.96191,6.75863,6.75863,0,0,0,1.6289-2.45605,8.11331,8.11331,0,0,0,.60157-3.04786,2.46059,2.46059,0,0,0-.55567-1.7373,2.10082,2.10082,0,0,0-1.61328-.5957,2.74937,2.74937,0,0,0-1.92773.84765,5.9686,5.9686,0,0,0-1.42872,2.38477,9.69614,9.69614,0,0,0-.53906,3.23242Q130.77258,274.68168,132.61243,274.68217Z" fill="#232323"/><path d="M142.47961,275.90483h-1.72656l2.40527-11.26562h1.72657Zm1.16211-14.14355a1.35264,1.35264,0,0,1,.32813-.94043,1.09635,1.09635,0,0,1,.85351-.36426.80835.80835,0,0,1,.9043.9248,1.395,1.395,0,0,1-.34375.95606,1.037,1.037,0,0,1-.79687.39062.95069.95069,0,0,1-.67872-.252A.93624.93624,0,0,1,143.64172,261.76128Z" fill="#232323"/><path d="M147.78332,275.90483l-1.28515-11.26562h1.72754l.65722,6.30078q.24756,2.65283.24707,3.7207h.06153q1.30517-2.82568,1.83984-3.8125l3.34082-6.209h1.8291l-6.07422,11.26562Z" fill="#232323"/><path d="M160.27161,276.11089a3.92791,3.92791,0,0,1-2.96973-1.1211,4.28559,4.28559,0,0,1-1.08008-3.10351,9.25222,9.25222,0,0,1,.7666-3.70606,6.85555,6.85555,0,0,1,2.0293-2.75976,4.42764,4.42764,0,0,1,2.78613-.98633,3.52934,3.52934,0,0,1,2.36328.68359,2.3826,2.3826,0,0,1,.792,1.90625,3.261,3.261,0,0,1-1.70606,2.9043,9.34985,9.34985,0,0,1-4.88281,1.05273h-.33887l-.041.82227a3.1842,3.1842,0,0,0,.63183,2.10254,2.40955,2.40955,0,0,0,1.958.75488,5.09774,5.09774,0,0,0,1.33105-.18457,10.15353,10.15353,0,0,0,1.70118-.67871v1.501a9.25269,9.25269,0,0,1-1.70606.63183A6.90861,6.90861,0,0,1,160.27161,276.11089Zm1.42871-10.207a2.74781,2.74781,0,0,0-1.98828.96582,6.31958,6.31958,0,0,0-1.42383,2.68262h.123a8.38688,8.38688,0,0,0,3.59278-.61133,1.91929,1.91929,0,0,0,1.249-1.77246,1.20294,1.20294,0,0,0-.375-.90527A1.65667,1.65667,0,0,0,161.70032,265.90385Z" fill="#232323"/><path d="M173.32532,264.43413a4.70253,4.70253,0,0,1,1.2334.14355l-.37012,1.542a4.528,4.528,0,0,0-1.0791-.13378,2.85627,2.85627,0,0,0-1.75293.61718,5.41593,5.41593,0,0,0-1.42871,1.71094,8.74213,8.74213,0,0,0-.89942,2.43066l-1.09961,5.16016h-1.72656l2.40527-11.26562h1.42871l-.22656,2.08691h.10352a10.10559,10.10559,0,0,1,1.22265-1.40332,3.8778,3.8778,0,0,1,1.0127-.65723A2.9056,2.9056,0,0,1,173.32532,264.43413Z" fill="#232323"/><path d="M181.48645,272.70854a3.01529,3.01529,0,0,1-1.13574,2.50293,5.04287,5.04287,0,0,1-3.20215.89942,6.82956,6.82956,0,0,1-3.13477-.71v-1.624a6.364,6.364,0,0,0,1.55274.668,5.64512,5.64512,0,0,0,1.541.2373,3.13291,3.13291,0,0,0,1.95313-.51464,1.59887,1.59887,0,0,0,.6582-1.31543,1.42,1.42,0,0,0-.36035-.98633,7.24116,7.24116,0,0,0-1.55176-1.10059,6.24219,6.24219,0,0,1-1.8916-1.46972,2.70929,2.70929,0,0,1-.55469-1.70606,2.83573,2.83573,0,0,1,1.03809-2.28711,4.12047,4.12047,0,0,1,2.73437-.86816,7.95372,7.95372,0,0,1,3.39161.76074l-.55469,1.4082-.57617-.25683a5.70648,5.70648,0,0,0-2.26075-.44239,2.30033,2.30033,0,0,0-1.501.44727,1.50589,1.50589,0,0,0-.17969,2.14258,6.42334,6.42334,0,0,0,1.50586,1.05859,8.70845,8.70845,0,0,1,1.57715,1.05957,3.05045,3.05045,0,0,1,.71484.9502A2.69493,2.69493,0,0,1,181.48645,272.70854Z" fill="#232323"/><path d="M185.27942,275.90483h-1.72656l2.40527-11.26562h1.72656Zm1.16211-14.14355a1.35263,1.35263,0,0,1,.32812-.94043,1.09638,1.09638,0,0,1,.85352-.36426.80835.80835,0,0,1,.9043.9248,1.395,1.395,0,0,1-.34375.95606,1.037,1.037,0,0,1-.79688.39062.95067.95067,0,0,1-.67871-.252A.93621.93621,0,0,1,186.44153,261.76128Z" fill="#232323"/><path d="M192.35071,274.70268a5.58587,5.58587,0,0,0,1.48047-.26758v1.32618a4.75181,4.75181,0,0,1-.86329.24609,4.45406,4.45406,0,0,1-.82226.10352,2.85742,2.85742,0,0,1-1.96875-.61231,2.32342,2.32342,0,0,1-.68359-1.82422,7.47762,7.47762,0,0,1,.18554-1.542l1.30567-6.1875h-1.76856l.14453-.75,1.90137-.80176,1.28418-2.34375h1.00781l-.56543,2.58985h2.81641l-.26758,1.30566h-2.80566l-1.32618,6.208a7.338,7.338,0,0,0-.18457,1.35742,1.21905,1.21905,0,0,0,.29786.88379A1.10522,1.10522,0,0,0,192.35071,274.70268Z" fill="#232323"/><path d="M196.12317,264.63921h1.72754l.76074,5.60253q.10254.709.20019,2.09082.09669,1.38282.09766,2.22559h.06152q.35889-.89355.89454-2.05566.53319-1.16163.791-1.60352l3.34082-6.25976h1.8291L198.673,277.81694a7.43905,7.43905,0,0,1-1.8916,2.45605,3.6932,3.6932,0,0,1-2.251.68848,4.82563,4.82563,0,0,1-1.43847-.21582V279.358a4.84691,4.84691,0,0,0,1.3457.18554,2.13168,2.13168,0,0,0,1.44434-.51953,5.60512,5.60512,0,0,0,1.167-1.53613l.78125-1.39844Z" fill="#232323"/><path d="M91.81826,123.53213c3.6427-.91055,28.11826-9.25678,32.272-10.11164a16.70548,16.70548,0,0,1,3.24846-.47382c7.30583,0,11.46644,5.24931,4.71229,7.84421-7.07743,2.7197-7.69169,3.988-12.40965,5.20027-2.07267.53295-10.42518,1.85615-14.23222,3.91391a208.31025,208.31025,0,0,0,30.51149,2.51572,138.75631,138.75631,0,0,0,28.96511-3.07887,38.155,38.155,0,0,0,18.62814-9.13065,5.60152,5.60152,0,0,1,3.76072-1.55334c3.31228,0,5.73729,3.38961,2.41663,6.39192-.806.72859-2.88552,2.75763-3.20509,3.09876-17.16826,18.32372-39.65912,20.77965-70.66808,25.08415-.7722.10743-6.55285.522-8.61344.522-.32475,0-.55735.53093-.6633.50777-.06825.02119-.13108.611-.19908.611H307.01181a152.48438,152.48438,0,0,0-304.96875,0H60.53433C68.75478,133.87358,68.21,129.43512,91.81826,123.53213Zm34.10909-49.243c-.185-.83306-.37033-1.57384-.55537-2.4069a1.507,1.507,0,1,1,2.9624-.5555,18.94643,18.94643,0,0,0,.463,2.22186,1.463,1.463,0,0,1-1.111,1.759c-.09264,0-.18529.09252-.37033.09252A1.47468,1.47468,0,0,1,125.92735,74.28915Zm3.70306,7.684a1.43524,1.43524,0,0,1-1.38843-.8333c-.27769-.74054-.64826-1.4812-.926-2.222a1.5063,1.5063,0,0,1,.8333-1.94392,1.54293,1.54293,0,0,1,1.94405.83318c.27769.74066.648,1.48107.92571,2.12934a1.36038,1.36038,0,0,1-.74066,1.94405A1.805,1.805,0,0,1,129.63041,81.9732Zm4.53636,6.01744a1.49329,1.49329,0,0,1-.83306.27769,1.58244,1.58244,0,0,1-1.20363-.648,15.78258,15.78258,0,0,1-1.38868-2.0367,1.477,1.477,0,0,1,2.49967-1.574,11.81016,11.81016,0,0,0,1.296,1.94429A1.47928,1.47928,0,0,1,134.16677,87.99064Zm41.75249,7.86909a33.55281,33.55281,0,0,1-8.05438,1.57372,25.25027,25.25027,0,0,1-9.44282-8.42446A37.26677,37.26677,0,0,1,153.423,78.82551a5.84578,5.84578,0,0,0,1.296-5.09173c3.7957-1.944,7.86909-3.88835,12.03512-5.64736,2.49942-1.0181,4.99909-2.03669,7.49876-2.96239a6.01035,6.01035,0,0,0,4.44372,1.94429,7.04215,7.04215,0,0,0,1.94405-.27793,31.9802,31.9802,0,0,1,2.407,11.9426C183.04769,85.8613,180.548,91.879,175.91926,95.85973Zm1.8514,7.83965a3.37148,3.37148,0,0,0-2.40678,1.1742h-.37033c-.74066,0-1.296-.989-1.48132-1.63705a1.74676,1.74676,0,0,1,1.111-2.022c.74066-.18529,1.48108-.59425,2.22174-.77954.74066-.27768,1.574.38256,1.85165,1.21562A1.59,1.59,0,0,1,177.77066,103.69938Zm-7.22107,1.51841a18.27008,18.27008,0,0,1-2.40678.65579h-.09265c-.74066,0-1.38867-1.11876-1.48132-1.8593a1.68482,1.68482,0,0,1,1.38868-1.80915,18.30218,18.30218,0,0,0,2.222-.3027,1.74657,1.74657,0,0,1,1.66637,1.47251A1.65109,1.65109,0,0,1,170.54959,105.21779Zm-5.9248-1.20351c-.09264.74054-.74066,1.8593-1.48132,1.8593h-.09264c-.74066,0-1.57372-.56327-2.407-.65579a1.71433,1.71433,0,0,1-1.296-1.90167,1.56532,1.56532,0,0,1,1.66636-1.41369c.83331.09252,1.574.36152,2.31463.36152A1.55658,1.55658,0,0,1,164.62479,104.01428Zm16.47885-5.28455c.648-.37033,1.38843-.64814,2.03669-1.01859a1.78554,1.78554,0,0,1,2.12934.55562,1.52,1.52,0,0,1-.64826,2.03669q-1.111.55549-2.22174,1.111a1.80782,1.80782,0,0,1-.648.09252,1.4359,1.4359,0,0,1-1.38867-.83318A1.452,1.452,0,0,1,181.10364,98.72973Zm-2.59207-43.85615H178.141c-.185,0-.27768-.38317-.46273-.56833a40.95945,40.95945,0,0,0-16.94181-12.8284,3.31834,3.31834,0,0,0-.09265-1.64641,3.185,3.185,0,0,0-1.11074-1.749,26.41519,26.41519,0,0,1,8.5171-7.03079,33.31909,33.31909,0,0,1,29.25439,23.60976A128.58,128.58,0,0,0,183.6957,57.8219,6.30828,6.30828,0,0,0,178.51157,54.87358Zm-3.641,1.64069c-1.29628,1.111-2.60432,2.68471-1.60432,4.62889v.55549c-3,.92571-5.154,1.9443-7.65369,2.96252-4.35108,1.85153-8.54788,3.79571-12.52888,5.83228a5.94292,5.94292,0,0,0-1.54315-1.11087,52.23051,52.23051,0,0,1-.3086-5.36955,46.667,46.667,0,0,1,3.5952-17.68223,4.15255,4.15255,0,0,0,1.47335-.27768,8.667,8.667,0,0,0,2.61947-1.296A37.94307,37.94307,0,0,1,174.87055,56.51427ZM155.182,91.32337a35.73157,35.73157,0,0,0,5.27678,5.83252,32.78449,32.78449,0,0,1-22.03331-13.42368c2.22174-1.66637,4.72141-3.33285,7.31347-4.9067a6.53224,6.53224,0,0,0,3.981,1.66637A42.48436,42.48436,0,0,0,155.182,91.32337Zm2.59207,11.91316c-.18529.648-.83331,1.63705-1.48132,1.63705h-.37033c-.83306-1-1.66637-.89639-2.40678-1.1742a1.75281,1.75281,0,0,1-1.0186-2.11455,1.55173,1.55173,0,0,1,1.85166-1.14987,21.79964,21.79964,0,0,0,2.222.84529A2.025,2.025,0,0,1,157.77405,103.23653Zm-6.85075-2.37771a1.72028,1.72028,0,0,1-1.38867.83331,1.37148,1.37148,0,0,1-.648-.09265q-1.111-.55549-2.22174-1.11074a1.51135,1.51135,0,1,1,1.38843-2.685,13.93016,13.93016,0,0,0,2.03694,1.01847A1.6143,1.6143,0,0,1,150.9233,100.85882Zm-6.38777-3.33273a1.349,1.349,0,0,1-1.20363.648,1.494,1.494,0,0,1-.83331-.27768c-.648-.463-1.296-1.01835-1.94405-1.48133a1.45348,1.45348,0,0,1,1.759-2.31438c.55562.463,1.20339.92583,1.85165,1.38868A1.47948,1.47948,0,0,1,144.53553,97.52609Zm2.77711-33.6057c0,1.66636.09265,3.24033.18529,4.8143a4.63744,4.63744,0,0,0-1.20339.46272,5.57061,5.57061,0,0,0-2.49967,6.29538c-2.59231,1.57372-5.09173,3.2402-7.40611,4.90657a35.20768,35.20768,0,0,1-4.35133-16.20116,33.54512,33.54512,0,0,1,5.18439-17.77475,20.81189,20.81189,0,0,1,11.66479-3.42538c0,.09265.09264.27769.09264.37033a3.9274,3.9274,0,0,0,1.85141,2.22174A51.65849,51.65849,0,0,0,147.31264,63.92039ZM135.09248,91.50866a1.50714,1.50714,0,0,1,2.222-2.03682c.46273.55549,1.01835,1.11111,1.48107,1.66649a1.5672,1.5672,0,0,1,0,2.12921,1.35144,1.35144,0,0,1-2.03669,0C136.20347,92.712,135.6481,92.15667,135.09248,91.50866Zm-6.5223,38.39979c-.04756-.00406-.0993-.00665-.14957-.00936a75.93448,75.93448,0,0,1,8.07779-3.62224c-.02291-.13872,11.98708-5.35538,17.39937-3.787a1.42066,1.42066,0,0,1,.57484.34656c9.94127-6.4113,11.359-6.85026,15.06011-6.25632a1.83067,1.83067,0,0,1,.6798.30442C164.49815,121.73839,145.66229,127.144,128.57018,129.90845Zm61.40513-13.032a6.93567,6.93567,0,0,0-2.70344-.54774,7.88007,7.88007,0,0,0-5.3199,2.153,35.95859,35.95859,0,0,1-17.52848,8.57391,138.06842,138.06842,0,0,1-24.11238,2.96042c13.26315-2.91546,26.90969-7.22144,31.87207-11.81448.05987.02046.117.04362.17814.06407.31539-.23383.63471-.454.942-.71233,1.9682-1.65552,4.21753-3.74593,6.71868-4.81023,3.9768-2.195,9.93165-2.9672,10.57326,2.93049A1.10862,1.10862,0,0,1,189.97531,116.87642Zm.57114-20.64636c-.648.5555-1.296,1.01835-1.94405,1.48108a1.49343,1.49343,0,0,1-.83331.27793,1.58223,1.58223,0,0,1-1.20339-.64826,1.479,1.479,0,0,1,.37033-2.03645c.64777-.463,1.296-.926,1.85166-1.38868a1.45341,1.45341,0,1,1,1.75876,2.31438Zm-6.94339-4.166a27.278,27.278,0,0,0,3.14768-13.331,37.79478,37.79478,0,0,0-3.055-14.44227,6.17411,6.17411,0,0,0,.92571-2.68459,123.26591,123.26591,0,0,1,13.51644-3.2402,31.103,31.103,0,0,1,.55537,5.83227A33.25157,33.25157,0,0,1,183.60306,92.064Zm12.31281-.74066c-.55537.55562-1.11075,1.20351-1.66636,1.759a1.35119,1.35119,0,0,1-2.03645,0,1.56737,1.56737,0,0,1,0-2.12934c.55512-.55538,1.11074-1.11087,1.57372-1.66637a1.3774,1.3774,0,0,1,2.03645-.09264A1.56771,1.56771,0,0,1,195.91587,91.32337Zm4.444-6.01744c-.37058.648-.83331,1.38868-1.29628,2.03657a1.34914,1.34914,0,0,1-1.20364.64814,1.48758,1.48758,0,0,1-1.20339-2.3145c.37033-.6479.83306-1.296,1.20339-1.94393a1.48484,1.48484,0,0,1,2.03694-.463A1.465,1.465,0,0,1,200.35984,85.30593Zm3.33272-6.66546a17.25467,17.25467,0,0,1-.926,2.31426,1.72046,1.72046,0,0,1-1.38867.83318,1.37323,1.37323,0,0,1-.648-.09252,1.42476,1.42476,0,0,1-.74066-1.94417c.27793-.74066.55562-1.38868.8333-2.12934a1.46477,1.46477,0,0,1,1.944-.83306A1.57432,1.57432,0,0,1,203.69256,78.64047Zm1.48108-4.79977a1.51424,1.51424,0,0,1-1.48108,1.03288h-.37033a1.27756,1.27756,0,0,1-1.111-1.68089,18.37109,18.37109,0,0,0,.46273-2.1828,1.46834,1.46834,0,0,1,1.759-1.184,1.74345,1.74345,0,0,1,1.296,1.63707C205.544,72.29616,205.35893,73.00765,205.17364,73.8407Zm.648-15.012c.09264.74067.185,1.57385.27768,2.40715a1.4232,1.4232,0,0,1-1.11074,1.57385,1.43074,1.43074,0,0,1,1.296,1.48107,19.8816,19.8816,0,0,1-.09264,2.34693,1.44538,1.44538,0,0,1-1.48133,1.23593h-.09239a1.29057,1.29057,0,0,1-1.38868-1.421,18.84859,18.84859,0,0,0,.09264-2.23825,1.45652,1.45652,0,0,1,1.11075-1.44289,1.46581,1.46581,0,0,1-1.296-1.36959c-.09264-.74066-.185-1.47177-.27768-2.21243a1.49214,1.49214,0,1,1,2.9624-.36079Zm-1.66637-7.22082c.185.83305.463,1.57372.648,2.40677a1.34237,1.34237,0,0,1-1.0181,1.759.557.557,0,0,1-.37058.09265,1.47471,1.47471,0,0,1-1.38868-1.11087,20.02993,20.02993,0,0,0-.648-2.22186,1.46378,1.46378,0,1,1,2.77735-.9257Zm-4.90669-7.40637a1.41606,1.41606,0,0,1,2.03669.55562q.55587,1.11063,1.111,2.22174a1.53465,1.53465,0,0,1-.74041,1.94405.88141.88141,0,0,1-.64826.18529,1.39643,1.39643,0,0,1-1.296-.83319,20.8815,20.8815,0,0,0-1.01835-2.03681A1.57707,1.57707,0,0,1,199.2486,44.20146Zm-4.07339-5.64723a1.387,1.387,0,0,1,2.03694.18517c.55537.648,1.01835,1.29628,1.48107,1.94417a1.48769,1.48769,0,0,1-1.20363,2.3145,1.58249,1.58249,0,0,1-1.20339-.64814,12.32173,12.32173,0,0,0-1.296-1.759A1.38655,1.38655,0,0,1,195.17521,38.55423ZM189.89843,33.555a1.48811,1.48811,0,0,1,2.12934-.185c.648.55538,1.296,1.111,1.85141,1.66649a1.56756,1.56756,0,0,1,0,2.12909,1.35145,1.35145,0,0,1-2.0367,0,9.31584,9.31584,0,0,0-1.75876-1.4812A1.48761,1.48761,0,0,1,189.89843,33.555Zm-5.74-3.8881a1.51247,1.51247,0,0,1,2.03694-.55562c.648.37045,1.38843.8333,2.0367,1.29615a1.47971,1.47971,0,0,1,.37033,2.0367,1.3494,1.3494,0,0,1-1.20364.64814,1.49365,1.49365,0,0,1-.83306-.27769c-.64826-.37045-1.296-.8333-1.94429-1.20351A1.37761,1.37761,0,0,1,184.15843,29.66692Zm-6.57281-2.87a1.54539,1.54539,0,0,1,1.94405-.92571,17.2364,17.2364,0,0,1,2.31463.92571,1.42475,1.42475,0,0,1,.74041,1.94405,1.62039,1.62039,0,0,1-1.38868.926,1.173,1.173,0,0,1-.55537-.09265c-.74066-.27769-1.38868-.55549-2.12909-.8333A1.51052,1.51052,0,0,1,177.58562,26.79692Zm-6.85074-1.48133a1.41112,1.41112,0,0,1,1.66636-1.20339,22.03077,22.03077,0,0,1,2.407.463,1.644,1.644,0,0,1,1.111,1.97333,1.81036,1.81036,0,0,1-1.48133,1.32507h-.37033c-.74066,0-1.48132-.58465-2.22173-.67717A1.67546,1.67546,0,0,1,170.73488,25.31559Zm-5.73976-1.442h.46273c.64826,0,1.38892-.11217,2.0367-.11217a1.59858,1.59858,0,0,1,1.38867,1.64867,1.57608,1.57608,0,0,1-1.48107,1.4635h-2.31438a1.62271,1.62271,0,0,1-1.57372-1.49994A1.47791,1.47791,0,0,1,164.99512,23.87358Zm-7.31372.33127c.83331-.18529,1.66637-.27781,2.40727-.463a1.47514,1.47514,0,0,1,1.66612,1.296c.09265.8333-.46273,1.97345-1.296,2.06585-.74066.09265-1.48132-.23018-2.22174.76982h-.27768c-.64827,0-1.296-.86222-1.48133-1.51023A2.01986,2.01986,0,0,1,157.6814,24.20485Zm-7.03578,2.12934c.74066-.27781,1.57372-.55562,2.31438-.83331a1.46378,1.46378,0,1,1,.9257,2.77736,19.34549,19.34549,0,0,0-2.12909.74054,1.17547,1.17547,0,0,1-.55562.09252,1.48905,1.48905,0,0,1-1.38843-.83306A1.54267,1.54267,0,0,1,150.64562,26.33419Zm-6.6657,3.14756c.74066-.37045,1.38867-.8333,2.12933-1.20351a1.5113,1.5113,0,1,1,1.38868,2.68471q-.972.5555-1.94405,1.11087a1.526,1.526,0,0,1-2.03694-.55525A1.42456,1.42456,0,0,1,143.97992,29.48175Zm16.94181,1.85153A28.90982,28.90982,0,0,0,155.83,36.79522a9.29452,9.29452,0,0,0-2.222.37033,6.79659,6.79659,0,0,0-3.33272,2.03682,6.10751,6.10751,0,0,0-1.296-.09264,27.088,27.088,0,0,0-6.20272.74066A32.86806,32.86806,0,0,1,160.92173,31.33328Zm-22.58892,2.59207c.55537-.55538,1.20363-1.01823,1.8514-1.57372a1.45348,1.45348,0,1,1,1.759,2.31438c-.648.46285-1.20339,1.01834-1.759,1.48132a1.39194,1.39194,0,0,1-1.01834.37033.92342.92342,0,0,1-.92546-.463A1.48106,1.48106,0,0,1,138.33281,33.92535Zm-5.18438,5.46206c.55537-.648,1.01834-1.296,1.574-1.94405a1.51117,1.51117,0,1,1,2.31414,1.94405,13.56214,13.56214,0,0,0-1.48108,1.759,1.49258,1.49258,0,0,1-1.20363.55562,1.56412,1.56412,0,0,1-.92571-.27781A1.46231,1.46231,0,0,1,133.14843,39.38741Zm-3.98075,6.11009c.37033-.74042.83331-1.38856,1.20339-2.1291a1.51464,1.51464,0,0,1,1.94405-.55561,1.43494,1.43494,0,0,1,.55562,2.03681c-.37033.6479-.74066,1.38856-1.111,2.03682a1.39651,1.39651,0,0,1-1.296.83306,1.71731,1.71731,0,0,1-.648-.18517A1.4937,1.4937,0,0,1,129.16768,45.4975ZM126.483,52.34824a22.32681,22.32681,0,0,1,.74042-2.31426,1.54306,1.54306,0,0,1,1.94429-.8333,1.58114,1.58114,0,0,1,.83331,1.94417,14.35317,14.35317,0,0,0-.74066,2.12934,1.391,1.391,0,0,1-1.38868,1.01822c-.18529,0-.27793-.09252-.463-.09252A1.4131,1.4131,0,0,1,126.483,52.34824Zm-1.574,7.04a20.072,20.072,0,0,1,.37033-2.31647,1.52046,1.52046,0,0,1,1.759-1.15811,1.50316,1.50316,0,0,1,1.20364,1.78153,15.91623,15.91623,0,0,0-.37033,2.05207,1.35918,1.35918,0,0,1-1.48132,1.12636H126.205A1.3217,1.3217,0,0,1,124.909,59.3882Zm1.20364,3.60649a1.46239,1.46239,0,0,1,1.48108,1.48132,14.79,14.79,0,0,0,.09264,2.069,1.26589,1.26589,0,0,1-1.38868,1.32858H126.205a1.37183,1.37183,0,0,1-1.48108-1.14329,20.39321,20.39321,0,0,1-.09264-2.377A1.36446,1.36446,0,0,1,126.11264,62.99469Z" fill="#4464a4"/></g></g></svg>