<svg xmlns="http://www.w3.org/2000/svg" xmlns:xlink="http://www.w3.org/1999/xlink" viewBox="0 0 146.1074 146.10736"><defs><linearGradient id="linear-gradient" x1="21.39692" y1="21.39693" x2="124.71044" y2="124.71045" gradientTransform="translate(73.05368 -30.25984) rotate(45)" gradientUnits="userSpaceOnUse"><stop offset="0" stop-color="#c9b899"/><stop offset="0.1882" stop-color="#c6b798"/><stop offset="0.34061" stop-color="#bcb395"/><stop offset="0.48053" stop-color="#abac91"/><stop offset="0.61299" stop-color="#93a28a"/><stop offset="0.74014" stop-color="#749581"/><stop offset="0.86335" stop-color="#4e8577"/><stop offset="0.98129" stop-color="#22736a"/><stop offset="1" stop-color="#1a7068"/></linearGradient><clipPath id="clip-path"><circle cx="72.729" cy="74.99586" r="48.5" fill="none"/></clipPath></defs><g id="Layer_2" data-name="Layer 2"><g id="Layer_1-2" data-name="Layer 1"><circle cx="73.0537" cy="73.05367" r="72.05369" transform="translate(-30.25981 73.05369) rotate(-45)" fill="#fff" stroke-miterlimit="10" stroke-width="2" stroke="url(#linear-gradient)"/><circle cx="73.05368" cy="74.66289" r="48.51619" transform="translate(-31.39771 73.525) rotate(-45)" fill="#4464a4"/><path d="M14.68587,74.2774a2.147,2.147,0,0,1,1.80567.80274,3.63015,3.63015,0,0,1,.6875,2.28418,5.4983,5.4983,0,0,1-.41211,2.40332l-1.32422.02148a6.51941,6.51941,0,0,0,.41406-1.26172,5.39288,5.39288,0,0,0,.1377-1.23828,1.9754,1.9754,0,0,0-.33594-1.23047,1.03156,1.03156,0,0,0-.85645-.38476,1.06209,1.06209,0,0,0-.80859.3789,5.55453,5.55453,0,0,0-.7666,1.52344,4.0075,4.0075,0,0,1-1.05664,1.68164,2.28681,2.28681,0,0,1-1.457.50684A2.04551,2.04551,0,0,1,9.014,79.02545a3.19222,3.19222,0,0,1-.64844-2.04883,6.06767,6.06767,0,0,1,.499-2.47461l1.14942.42969a5.42123,5.42123,0,0,0-.44727,2.06055,1.58391,1.58391,0,0,0,.3125,1.0332.97217.97217,0,0,0,.78809.3418,1.10389,1.10389,0,0,0,.56933-.15137,1.44866,1.44866,0,0,0,.44043-.47363,7.83338,7.83338,0,0,0,.53711-1.17676,6.39838,6.39838,0,0,1,.71-1.40332,2.16626,2.16626,0,0,1,.75684-.66211A2.28861,2.28861,0,0,1,14.68587,74.2774Z" fill="#4d4d4d"/><path d="M17.45736,69.69146,17.306,71.09381l-7.32324-.793L9.70931,72.8233,8.516,72.69342l.69824-6.44629,1.19434.12988-.27344,2.52149Z" fill="#4d4d4d"/><path d="M14.97787,63.78619,18.305,64.588,17.974,65.959,9.64583,63.95123l.57129-2.36914a4.037,4.037,0,0,1,1.1836-2.25781,2.22259,2.22259,0,0,1,2.01074-.33985,2.34467,2.34467,0,0,1,1.82324,2.16309l4.25684-1.48047-.376,1.55957L15.305,62.43268Zm-1.12793-.27246.22949-.95117a2.2501,2.2501,0,0,0-.01758-1.47363,1.31406,1.31406,0,0,0-.94434-.68262,1.15621,1.15621,0,0,0-1.126.21973,2.63393,2.63393,0,0,0-.64551,1.32519l-.21875.90625Z" fill="#4d4d4d"/><path d="M21.67513,54.01959,19.932,58.57818l-8.001-3.06054L13.67318,50.96l1.10644.42285-1.23925,3.24024,2.17773.834L16.87923,52.42l1.09473.418-1.16113,3.03711,2.51269.96094,1.23828-3.24121Z" fill="#4d4d4d"/><path d="M25.85872,46.1192,25.016,47.629l-8.02734.38086-.02344.041.34766.16016q.9917.45849,1.78027.89746l3.88867,2.16894-.623,1.11817-7.48242-4.1709.834-1.49512,7.99121-.38769.01758-.03125q-.12452-.05566-.88086-.4375-.75586-.38086-1.1709-.61133L17.7474,43.07623l.6289-1.12891Z" fill="#4d4d4d"/><path d="M25.60189,38.7149l1.9668-2.49219,3.376,2.666a9.21825,9.21825,0,0,1-.64648,1.39453,10.60433,10.60433,0,0,1-.877,1.28125,3.90488,3.90488,0,0,1-2.77539,1.6582,4.61738,4.61738,0,0,1-3.208-1.17968A4.30927,4.30927,0,0,1,21.639,39.09674a4.52318,4.52318,0,0,1,1.126-3.31348,6.47344,6.47344,0,0,1,1.99122-1.68945l.60839,1.11133a4.99709,4.99709,0,0,0-1.67871,1.35058,2.83922,2.83922,0,0,0-.67675,2.24707,3.31909,3.31909,0,0,0,1.35156,2.08985,3.49829,3.49829,0,0,0,2.32226.91211,2.63155,2.63155,0,0,0,1.92969-1.126,6.85055,6.85055,0,0,0,.77344-1.25391l-1.7334-1.36816L26.54427,39.459Z" fill="#4d4d4d"/><path d="M34.75423,35.626l-1.0166.97753L28.63412,31.293,26.805,33.05182l-.833-.86621,4.6748-4.49415.833.86622-1.8291,1.75878Z" fill="#4d4d4d"/><path d="M43.01888,29.09381l-1.14746.83008L39.60775,26.795l-3.22168,2.332,2.26367,3.12793-1.14258.82715L32.4847,26.14068l1.14258-.82617L35.682,28.15338l3.22168-2.33106-2.05371-2.83886,1.14648-.83008Z" fill="#4d4d4d"/><path d="M49.223,25.7276l-4.31152,2.28418-4.00977-7.57129,4.3125-2.28418.55469,1.04687-3.06641,1.623,1.09083,2.06152,2.873-1.52148.54883,1.03613-2.873,1.52149,1.25879,2.376,3.06543-1.624Z" fill="#4d4d4d"/><path d="M57.58626,22.52936l-1.62793.582-6.293-5-.044.01562.15625.34961q.44385.999.748,1.84766l1.499,4.19336-1.20605.43164-2.88282-8.06641,1.61133-.57617,6.26953,4.9707.03321-.01172q-.05713-.123-.375-.9082c-.21192-.52344-.37207-.93555-.47852-1.23242L53.48568,14.8985l1.21679-.43555Z" fill="#4d4d4d"/><path d="M64.46908,21.07818l-4.78223.96875-1.70117-8.39648,4.7832-.96875.23438,1.16016-3.40039.68945.46289,2.28515,3.18652-.6455.23242,1.14941-3.18555.64453.53321,2.63672,3.40039-.68945Z" fill="#4d4d4d"/><path d="M72.94173,16.00885a4.25769,4.25769,0,0,1-.98144,3.31152,4.788,4.788,0,0,1-3.33985,1.333l-2.4082.15039L65.67708,12.254l2.66211-.166a4.43265,4.43265,0,0,1,3.26563.89844A4.105,4.105,0,0,1,72.94173,16.00885Zm-1.48144.13965q-.1919-3.07032-3.084-2.88868l-1.21875.07618.38867,6.20507,1.001-.06347Q71.65706,19.28276,71.46029,16.1485Z" fill="#4d4d4d"/><path d="M78.21126,20.71686l.88575-8.52051,1.40234.14551-.88574,8.52148Z" fill="#4d4d4d"/><path d="M88.848,22.62506l-1.68652-.37891L84.513,14.65826l-.04687-.00976-.05371.37793q-.1582,1.08252-.3545,1.96191l-.97363,4.3457-1.249-.27929,1.87109-8.35938,1.66992.373,2.64551,7.55176.03418.00683c.01172-.08887.06836-.41113.168-.9668.10059-.55664.18555-.98828.25391-1.29785l.98046-4.37988,1.26172.2832Z" fill="#4d4d4d"/><path d="M93.68392,24.40436l-1.31738-.50293,2.62793-6.87989-2.37012-.90625.42773-1.12109,6.0586,2.3125-.42871,1.123-2.37012-.90625Z" fill="#4d4d4d"/><path d="M101.49154,28.16217l-4.31641-2.27735,3.99805-7.57617,4.31543,2.27637-.55176,1.04687-3.06934-1.61914-1.08789,2.0625,2.875,1.51661-.5459,1.0371-2.876-1.51757-1.25488,2.3789,3.06835,1.61914Z" fill="#4d4d4d"/><path d="M106.1263,27.09479l-1.96875,2.79882-1.15332-.81152,4.92774-7.00684,1.99316,1.40137a4.02814,4.02814,0,0,1,1.665,1.93067,2.22416,2.22416,0,0,1-.42187,1.99511,2.34566,2.34566,0,0,1-2.68262.90039l-.18653,4.50293-1.31347-.92285.27929-3.9873Zm.667-.94922.80175.56347a2.24786,2.24786,0,0,0,1.377.52442,1.31094,1.31094,0,0,0,.98144-.62793,1.1531,1.1531,0,0,0,.209-1.127,2.62918,2.62918,0,0,0-.99512-1.08789l-.7627-.53613Z" fill="#4d4d4d"/><path d="M109.15853,33.62506l5.7666-6.334,1.043.94922-4.958,5.44629,2.70117,2.458-.80859.88867Z" fill="#4d4d4d"/><path d="M113.87533,38.14264l6.31543-5.78711.95312,1.04-6.31641,5.78808Z" fill="#4d4d4d"/><path d="M120.56087,46.60455l-1.01367-1.40039,3.043-7.43848-.02734-.03906-.291.24805q-.835.706-1.56641,1.23437L117.098,41.82037l-.75-1.03808,6.93946-5.02247,1.00293,1.38672-3.02149,7.40821.02149.02929q.10107-.08788.7666-.61328.66649-.52587,1.0498-.80371l3.63672-2.63184.75684,1.04688Z" fill="#4d4d4d"/><path d="M124.6556,54.3526l-.74707-1.4541,2.21094-4.18164-.9795-.43165-2.85058,1.46485-.64453-1.25391,7.61914-3.916.64453,1.2539-3.6377,1.86914q.89063.19337,1.73047.4043l3.499.82227.73339,1.42773q-3.37793-.80567-4.82128-1.16406Z" fill="#4d4d4d"/><path d="M126.76107,60.37506l1.96191-1.59668-1.08691-3.11426-2.52442-.01172-.49023-1.40429,9.18457.21093.50586,1.44922-7.05664,5.88281Zm2.97949-2.3457,1.93457-1.53223c.12793-.10645.334-.26465.61621-.47363.28321-.21.49121-.35938.626-.44727a13.19412,13.19412,0,0,1-1.6416.08008h-2.36426Z" fill="#4d4d4d"/><path d="M132.69076,65.40436l.59082,3.11816-4.22559.80176a9.19815,9.19815,0,0,1-.62891-1.40332,10.67237,10.67237,0,0,1-.39257-1.50293,3.90311,3.90311,0,0,1,.56836-3.18164A4.61039,4.61039,0,0,1,131.597,61.588a4.31047,4.31047,0,0,1,3.40429.57324,4.52325,4.52325,0,0,1,1.7627,3.02246,6.46109,6.46109,0,0,1-.0293,2.61231l-1.23828-.26953a5.01641,5.01641,0,0,0,.08105-2.15332,2.83764,2.83764,0,0,0-1.25292-1.98438,3.31869,3.31869,0,0,0-2.46387-.34961,3.50317,3.50317,0,0,0-2.21094,1.1543,2.62681,2.62681,0,0,0-.416,2.19629,6.86071,6.86071,0,0,0,.43946,1.40527l2.16992-.41016-.333-1.75781Z" fill="#4d4d4d"/><path d="M129.11751,76.22662l-.249-4.874,8.55469-.4375.249,4.874-1.18164.06055-.17773-3.46582-2.32813.11914.166,3.24707-1.1709.06055-.166-3.248-2.68554.13769.17675,3.46485Z" fill="#4d4d4d"/><g clip-path="url(#clip-path)"><path d="M93.8059,92.62356a18.331,18.331,0,0,1-8.9357,4.3708,70.38641,70.38641,0,0,1-12.2922,1.5092c6.7614-1.4863,13.7182-3.6814,16.248-6.0228.0305.0104.0596.0222.0908.0326.1607-.1192.3235-.2314.4801-.3631a14.74541,14.74541,0,0,1,3.4251-2.4522c2.0274-1.119,5.063-1.5126,5.3901,1.4939a.565.565,0,0,1-.316.6132,3.53625,3.53625,0,0,0-1.3782-.2792A4.017,4.017,0,0,0,93.8059,92.62356Z" fill="#fff"/><path d="M66.5165,98.444a38.71044,38.71044,0,0,1,4.1179-1.8466c-.0117-.0707,6.1108-2.7301,8.8699-1.9305a.724.724,0,0,1,.2931.1767c5.0679-3.2684,5.7906-3.4922,7.6774-3.1894a.93224.93224,0,0,1,.3465.1552c-2.913,2.4744-12.5153,5.2301-21.2286,6.6394C66.5685,98.44666,66.5421,98.44536,66.5165,98.444Z" fill="#fff"/><path d="M29.4384,116.51836c7.0843-15.8668,4.4242-18.0973,18.4188-21.5965,1.857-.4642,14.3342-4.5808,16.4517-5.0166a8.22975,8.22975,0,0,1,1.656-.1725c3.7244,0,5.8454,2.7106,2.4023,4.0334-3.6079,1.3865-3.9211,2.0503-6.3262,2.6683-1.0567.2717-5.3146.9549-7.2554,2.0039a106.27508,106.27508,0,0,0,15.5543,1.2868,70.74792,70.74792,0,0,0,14.7659-1.5674,19.44794,19.44794,0,0,0,9.4963-4.6536,2.85482,2.85482,0,0,1,1.9172-.7913c1.6886,0,2.9248,1.7282,1.232,3.2588-.4109.3714-1.471,1.4059-1.6339,1.5798-8.7521,9.3411-20.2176,10.5932-36.0255,12.7876-.3936.0547-3.3405.2661-4.391.2661a2.05283,2.05283,0,0,1-.3381-.0174c-7.139,2.2014-10.826,7.5908-15.4303,16.7989a.3503.3503,0,0,1-.3458.1628C37.5253,127.54946,27.8752,120.02036,29.4384,116.51836Z" fill="#fff"/><path d="M97.359,56.20636a16.98465,16.98465,0,0,0-14.9135-12.0346,13.476,13.476,0,0,0-4.3419,3.5868,1.63726,1.63726,0,0,1,.5663.8967,1.733,1.733,0,0,1,.0472.8495,20.93173,20.93173,0,0,1,8.6366,6.56,1.99819,1.99819,0,0,1,.236.3304h.1888a3.17925,3.17925,0,0,1,2.6429,1.463A66.22006,66.22006,0,0,1,97.359,56.20636Z" fill="#fff"/><path d="M85.7963,57.15026a19.17332,19.17332,0,0,0-8.0703-5.9937,4.09294,4.09294,0,0,1-1.2742.6607,2.13726,2.13726,0,0,1-.7551.1416,23.79118,23.79118,0,0,0-1.8406,9.0141,26.58157,26.58157,0,0,0,.1416,2.7373,2.88241,2.88241,0,0,1,.7551.5663c2.0294-1.0382,4.1059-2.0293,6.324-2.9732,1.2743-.5191,2.5014-1.0383,3.7756-1.5102V59.51A2.6654,2.6654,0,0,1,85.7963,57.15026Z" fill="#fff"/><path d="M66.305,69.32646c1.1798-.8495,2.4541-1.699,3.7755-2.5013a2.8399,2.8399,0,0,1,1.2743-3.2093,2.36662,2.36662,0,0,1,.6135-.2359c-.0472-.8024-.0944-1.6047-.0944-2.4542a26.33483,26.33483,0,0,1,1.7934-9.3445,2.00241,2.00241,0,0,1-.9439-1.1326c0-.0472-.0472-.1416-.0472-.1888a10.60987,10.60987,0,0,0-5.9465,1.7462,17.10031,17.10031,0,0,0-2.6429,9.0613A17.94821,17.94821,0,0,0,66.305,69.32646Z" fill="#fff"/><path d="M71.0716,68.52416c-1.3214.8023-2.5957,1.6518-3.7283,2.5013a16.713,16.713,0,0,0,11.2322,6.8432,18.21708,18.21708,0,0,1-2.69-2.9733,21.66006,21.66006,0,0,1-2.7845-5.5217A3.33022,3.33022,0,0,1,71.0716,68.52416Z" fill="#fff"/><path d="M98.0669,61.06736a15.855,15.855,0,0,0-.2832-2.9732,62.83245,62.83245,0,0,0-6.8904,1.6518,3.14888,3.14888,0,0,1-.4719,1.3686,19.26788,19.26788,0,0,1,1.5574,7.3624,13.90736,13.90736,0,0,1-1.6046,6.796A16.95146,16.95146,0,0,0,98.0669,61.06736Z" fill="#fff"/><path d="M73.3841,48.32486a3.46458,3.46458,0,0,1,1.699-1.0383,4.73831,4.73831,0,0,1,1.1327-.1888,14.74,14.74,0,0,1,2.5957-2.7844,16.75529,16.75529,0,0,0-9.2501,4.3419,13.8101,13.8101,0,0,1,3.162-.3776A3.11475,3.11475,0,0,1,73.3841,48.32486Z" fill="#fff"/><path d="M82.3511,78.01016a17.099,17.099,0,0,0,4.1059-.8023,11.16957,11.16957,0,0,0,3.634-8.7309,16.30167,16.30167,0,0,0-1.2271-6.0881,3.59171,3.59171,0,0,1-.991.1416,3.06425,3.06425,0,0,1-2.2654-.9911c-1.2742.4719-2.5485.9911-3.8227,1.5102-2.1238.8967-4.2003,1.8878-6.1353,2.8789a2.98,2.98,0,0,1-.6607,2.5957,18.99869,18.99869,0,0,0,2.5485,5.1913A12.87109,12.87109,0,0,0,82.3511,78.01016Z" fill="#fff"/><path d="M67.7208,46.95626a.70944.70944,0,0,0,.5191-.1888c.2832-.236.5664-.5192.8967-.7551a.741.741,0,0,0-.8967-1.1799c-.3303.2832-.6607.5192-.9438.8023a.755.755,0,0,0-.0472,1.0855A.471.471,0,0,0,67.7208,46.95626Z" fill="#fff"/><path d="M73.8561,43.18066a.59866.59866,0,0,0,.2832-.0472,9.86073,9.86073,0,0,1,1.0854-.3775.74623.74623,0,1,0-.4719-1.4159c-.3776.1416-.8023.2832-1.1799.4248a.78666.78666,0,0,0-.4247.9911A.75927.75927,0,0,0,73.8561,43.18066Z" fill="#fff"/><path d="M77.3013,42.14236h.1416a9.4479,9.4479,0,0,1,1.1326-.1888.761.761,0,1,0-.1887-1.5102c-.3776.0944-.8023.1416-1.2271.236a.79109.79109,0,0,0-.6135.8967A.80764.80764,0,0,0,77.3013,42.14236Z" fill="#fff"/><path d="M70.5997,44.78526a.88873.88873,0,0,0,.3775-.0944q.4956-.283.9911-.5663a.77042.77042,0,1,0-.7079-1.3686c-.3776.1887-.7079.4247-1.0855.6135a.72615.72615,0,0,0-.236,1.0383A.88433.88433,0,0,0,70.5997,44.78526Z" fill="#fff"/><path d="M65.2667,49.59916a.76089.76089,0,0,0,.6135-.2832,6.908,6.908,0,0,1,.7551-.8967.77042.77042,0,1,0-1.1798-.9911c-.2832.3304-.5192.6607-.8023.9911a.74537.74537,0,0,0,.1415,1.0383A.79739.79739,0,0,0,65.2667,49.59916Z" fill="#fff"/><path d="M80.9353,41.81206h.1887a6.01591,6.01591,0,0,1,.9439.0472h.0472a.76915.76915,0,0,0,.7551-.708.778.778,0,0,0-.7079-.8023c-.3303,0-.7079-.0472-1.0383-.0472h-.2359a.74546.74546,0,0,0-.7551.7552A.81873.81873,0,0,0,80.9353,41.81206Z" fill="#fff"/><path d="M98.0669,51.91166A10.668,10.668,0,0,1,98.586,52.95a.71193.71193,0,0,0,.6607.4247.44935.44935,0,0,0,.3304-.0944.78235.78235,0,0,0,.3775-.9911q-.28305-.56625-.5663-1.1326a.72194.72194,0,0,0-1.0383-.2832A.804.804,0,0,0,98.0669,51.91166Z" fill="#fff"/><path d="M99.4355,55.12086a10.24923,10.24923,0,0,1,.3304,1.1327.75163.75163,0,0,0,.7079.5663.28378.28378,0,0,0,.1888-.0472.68443.68443,0,0,0,.5191-.8967c-.0944-.4247-.236-.8023-.3304-1.227a.74619.74619,0,1,0-1.4158.4719Z" fill="#fff"/><path d="M96.8398,49.92946a.80679.80679,0,0,0,.6135.3304.75839.75839,0,0,0,.6136-1.1799c-.236-.3303-.472-.6607-.7551-.9911a.73722.73722,0,0,0-1.1327.9439A6.2836,6.2836,0,0,1,96.8398,49.92946Z" fill="#fff"/><path d="M87.7785,42.99186c.3775.1416.7079.2832,1.0854.4248a.59866.59866,0,0,0,.2832.0472.82616.82616,0,0,0,.7079-.472.72635.72635,0,0,0-.3775-.9911,8.79629,8.79629,0,0,0-1.1799-.4719.78786.78786,0,0,0-.9911.4719A.77016.77016,0,0,0,87.7785,42.99186Z" fill="#fff"/><path d="M94.5745,47.28656a.689.689,0,0,0,1.0383,0,.79919.79919,0,0,0,0-1.0854c-.2832-.2832-.6136-.5664-.9439-.8495a.77042.77042,0,1,0-.9911,1.1798A4.74856,4.74856,0,0,1,94.5745,47.28656Z" fill="#fff"/><path d="M84.3805,42.09516a9.66385,9.66385,0,0,1,1.1326.236h.1888a.80777.80777,0,0,0,.7551-.5663.72468.72468,0,0,0-.5663-.8967,11.23779,11.23779,0,0,0-1.2271-.236.71938.71938,0,0,0-.8495.6135A.73493.73493,0,0,0,84.3805,42.09516Z" fill="#fff"/><path d="M90.8933,44.455c.3304.1887.6607.4247.9911.6135a.76125.76125,0,0,0,.4247.1416.68785.68785,0,0,0,.6136-.3304.75431.75431,0,0,0-.1888-1.0383c-.3304-.2359-.7079-.4719-1.0383-.6607a.77089.77089,0,0,0-1.0383.2832A.70221.70221,0,0,0,90.8933,44.455Z" fill="#fff"/><path d="M66.7769,73.95146a.76829.76829,0,0,0-1.1327,1.0383c.2832.3304.5664.6135.8495.8967a.689.689,0,0,0,1.0383,0,.79911.79911,0,0,0,0-1.0855C67.2961,74.51786,67.0129,74.23466,66.7769,73.95146Z" fill="#fff"/><path d="M93.0171,76.21686c-.2832.2359-.6136.4719-.9439.7079a.7541.7541,0,0,0-.1888,1.0382.80663.80663,0,0,0,.6135.3304.76131.76131,0,0,0,.4248-.1416c.3303-.2359.6607-.4719.9911-.7551a.74095.74095,0,0,0-.8967-1.1798Z" fill="#fff"/><path d="M95.5656,73.85706c-.236.2832-.5192.5664-.8023.8495a.79911.79911,0,0,0,0,1.0855.6889.6889,0,0,0,1.0382,0c.2832-.2832.5664-.6135.8495-.8967a.79927.79927,0,0,0-.0472-1.0855A.70228.70228,0,0,0,95.5656,73.85706Z" fill="#fff"/><path d="M90.1382,78.15176c-.3304.1888-.7079.3304-1.0383.5192a.7403.7403,0,0,0-.3775.9911.73186.73186,0,0,0,.7079.4247.9207.9207,0,0,0,.3303-.0472l1.1327-.5663a.77491.77491,0,0,0,.3304-1.0383A.91015.91015,0,0,0,90.1382,78.15176Z" fill="#fff"/><path d="M80.0386,80.32276a10.78639,10.78639,0,0,1-1.1799-.0944.761.761,0,0,0-.1888,1.5102,11.61974,11.61974,0,0,0,1.2271.0944h.0472a.80625.80625,0,0,0,.7551-.7079A.70912.70912,0,0,0,80.0386,80.32276Z" fill="#fff"/><path d="M62.9542,52.57236a.8746.8746,0,0,0,.3303.0944.71174.71174,0,0,0,.6607-.4247c.1888-.3304.3776-.708.5664-1.0383a.73144.73144,0,0,0-.2832-1.0383.77217.77217,0,0,0-.9911.2832c-.1887.3775-.4247.7079-.6135,1.0854A.7614.7614,0,0,0,62.9542,52.57236Z" fill="#fff"/><path d="M83.531,80.22836a9.16412,9.16412,0,0,1-1.1327.0944.74507.74507,0,0,0-.7079.8023.80616.80616,0,0,0,.7551.7079h.0472c.4247-.0472.8495-.0472,1.227-.0944a.75213.75213,0,0,0,.6608-.8495A.808.808,0,0,0,83.531,80.22836Z" fill="#fff"/><path d="M101.2761,60.35946a.72551.72551,0,0,0,.5663-.8023c-.0472-.4248-.0944-.8495-.1416-1.2271a.761.761,0,1,0-1.5102.1888l.1416,1.1327a.757.757,0,0,0,.6607.7079.7652.7652,0,0,0-.5663.7551,10.26449,10.26449,0,0,1-.0472,1.1799.74519.74519,0,0,0,.7079.8023h.0472a.80616.80616,0,0,0,.7551-.7079,11.50024,11.50024,0,0,0,.0472-1.2743A.72944.72944,0,0,0,101.2761,60.35946Z" fill="#fff"/><path d="M100.9929,63.94626a.75509.75509,0,0,0-.8967.6135,9.68542,9.68542,0,0,1-.2359,1.1327.72466.72466,0,0,0,.5663.8967h.1888a.80783.80783,0,0,0,.7551-.5664c.0944-.4247.1888-.8023.2831-1.227A.90639.90639,0,0,0,100.9929,63.94626Z" fill="#fff"/><path d="M100.1434,67.48586a.74678.74678,0,0,0-.9911.4247c-.1415.3776-.2831.7079-.4247,1.0855a.72632.72632,0,0,0,.3775.9911.69986.69986,0,0,0,.3304.0472.8771.8771,0,0,0,.7079-.4248,8.78187,8.78187,0,0,0,.472-1.1798A.80244.80244,0,0,0,100.1434,67.48586Z" fill="#fff"/><path d="M98.6804,70.78946a.75687.75687,0,0,0-1.0383.236c-.1888.3303-.4247.6607-.6135.991a.75839.75839,0,0,0,.6135,1.1799.68759.68759,0,0,0,.6135-.3304c.236-.3303.472-.7079.6608-1.0382A.74679.74679,0,0,0,98.6804,70.78946Z" fill="#fff"/><path d="M86.929,79.47326c-.3776.0944-.7551.2359-1.1327.3303a.74563.74563,0,0,0-.5663.8967.76509.76509,0,0,0,.7551.5664h.1888c.4247-.0944.8023-.236,1.227-.3304a.705.705,0,0,0,.472-.9439A.74764.74764,0,0,0,86.929,79.47326Z" fill="#fff"/><path d="M61.1608,63.19116a.77812.77812,0,0,0,.7079-.8023,9.47757,9.47757,0,0,1-.0472-1.1799.74549.74549,0,0,0-.7551-.7551h0a.74543.74543,0,0,0-.7551.7551,11.50024,11.50024,0,0,0,.0472,1.2743.80616.80616,0,0,0,.7551.7079Z" fill="#fff"/><path d="M61.8687,66.73076a.74571.74571,0,0,0,.5663-.8967,9.66545,9.66545,0,0,1-.236-1.1327.76826.76826,0,0,0-1.5102.2832c.0944.4247.1888.8023.2832,1.227a.75161.75161,0,0,0,.7079.5664C61.7743,66.778,61.8215,66.73076,61.8687,66.73076Z" fill="#fff"/><path d="M61.1136,59.55716h.0944a.763.763,0,0,0,.7551-.6607,9.4495,9.4495,0,0,1,.1888-1.1327.75516.75516,0,0,0-.6136-.8967.79115.79115,0,0,0-.8967.6135,10.9987,10.9987,0,0,0-.1887,1.2271A.78678.78678,0,0,0,61.1136,59.55716Z" fill="#fff"/><path d="M61.7271,55.97036c.0944,0,.1416.0472.236.0472a.709.709,0,0,0,.7079-.5191,7.33627,7.33627,0,0,1,.3776-1.0855.80594.80594,0,0,0-.4248-.9911.78661.78661,0,0,0-.9911.4248,11.36113,11.36113,0,0,0-.3775,1.1798A.72035.72035,0,0,0,61.7271,55.97036Z" fill="#fff"/><path d="M64.7004,71.167a.75292.75292,0,0,0-1.2743.8023,8.041,8.041,0,0,0,.7079,1.0383.80682.80682,0,0,0,.6136.3304.75839.75839,0,0,0,.6135-1.1799A6.0187,6.0187,0,0,1,64.7004,71.167Z" fill="#fff"/><path d="M73.2898,78.71816a7.09916,7.09916,0,0,1-1.0383-.5192.77046.77046,0,0,0-.7079,1.3687q.56625.283,1.1326.5663a.69986.69986,0,0,0,.3304.0472.8771.8771,0,0,0,.7079-.4248A.82286.82286,0,0,0,73.2898,78.71816Z" fill="#fff"/><path d="M69.3254,76.31116a.741.741,0,1,0-.8967,1.1799c.3304.236.6607.5191.9911.7551a.76131.76131,0,0,0,.4248.1416.6878.6878,0,0,0,.6135-.3304.7541.7541,0,0,0-.1888-1.0382C69.9389,76.78316,69.6086,76.54716,69.3254,76.31116Z" fill="#fff"/><path d="M76.5934,79.80356a10.24851,10.24851,0,0,1-1.1327-.3303.7617.7617,0,1,0-.4247,1.463,9.3113,9.3113,0,0,0,1.227.3304h.1888a.80783.80783,0,0,0,.7551-.5664A.90352.90352,0,0,0,76.5934,79.80356Z" fill="#fff"/><path d="M63.5677,69.09046c-.1416-.3304-.3304-.7079-.472-1.0855a.78654.78654,0,0,0-.991-.4247.76785.76785,0,0,0-.4248.991c.1416.3776.3304.7552.472,1.1327a.73179.73179,0,0,0,.7079.4248.9207.9207,0,0,0,.3303-.0472A.69363.69363,0,0,0,63.5677,69.09046Z" fill="#fff"/></g></g></g></svg>