<svg width="22" height="18" viewBox="0 0 22 18" fill="none" xmlns="http://www.w3.org/2000/svg">
<path d="M20.779 12.9605C21.026 12.4296 20.9707 12.1682 20.9707 10.5492C20.9707 8.28155 20.495 6.08513 19.5567 4.02086C19.3398 3.54383 18.9528 3.17659 18.4872 2.97763C18.5815 2.67464 18.5643 2.53764 18.5643 1.78039C18.5643 0.832609 17.7932 0.0615234 16.8455 0.0615234H14.0953C13.1475 0.0615234 12.3764 0.832609 12.3764 1.78039C12.3764 2.48964 12.3654 2.58805 12.411 2.81172H9.5916C9.63522 2.59767 9.62619 2.51732 9.62619 1.78039C9.62619 0.832609 8.85511 0.0615234 7.90732 0.0615234H5.15713C4.20934 0.0615234 3.43826 0.832609 3.43826 1.78039C3.43826 2.4841 3.41763 2.66338 3.51539 2.97763C3.04975 3.17659 2.66275 3.54383 2.44591 4.02086C0.920672 7.37639 1.03184 9.92685 1.03184 12.0936C1.03184 12.4031 1.10081 12.6968 1.22354 12.9605C-1.12569 14.012 0.132012 17.9378 3.09449 17.9378H18.9081C21.8971 17.9377 23.1076 14.0028 20.779 12.9605ZM13.7515 2.4679V1.78035C13.7515 1.5908 13.9057 1.43658 14.0953 1.43658H16.8455C17.035 1.43658 17.1892 1.5908 17.1892 1.78035V2.4679C17.1892 2.65745 17.035 2.81167 16.8455 2.81167H14.0953C13.9057 2.81167 13.7515 2.65749 13.7515 2.4679ZM4.81336 1.78035C4.81336 1.5908 4.96758 1.43658 5.15713 1.43658H7.90732C8.09687 1.43658 8.2511 1.5908 8.2511 1.78035V2.4679C8.2511 2.65745 8.09687 2.81167 7.90732 2.81167H5.15713C4.96758 2.81167 4.81336 2.65745 4.81336 2.4679V1.78035ZM3.69777 4.58985C3.80906 4.34499 4.05478 4.18681 4.32369 4.18681H17.6789C17.9478 4.18681 18.1936 4.34504 18.3048 4.58985C19.7025 7.66469 19.5956 9.97154 19.5956 12.0936C19.5956 12.4727 19.2872 12.7812 18.9081 12.7812H18.5643V9.79738C18.5643 8.59928 17.5896 7.62455 16.3915 7.62455H14.5492C13.3511 7.62455 12.3764 8.59928 12.3764 9.79738V12.7812H9.62624V9.79738C9.62624 8.59928 8.65151 7.62455 7.45341 7.62455H5.61113C4.41303 7.62455 3.4383 8.59928 3.4383 9.79738V12.7812H3.09453C2.71543 12.7812 2.40698 12.4727 2.40698 12.0936C2.40694 10.025 2.28911 7.68875 3.69777 4.58985ZM17.1892 12.7811H13.7515V9.79734C13.7515 9.35748 14.1093 8.99961 14.5492 8.99961H16.3915C16.8314 8.99961 17.1892 9.35748 17.1892 9.79734V12.7811H17.1892ZM8.2511 12.7811H4.81336V9.79734C4.81336 9.35748 5.17122 8.99961 5.61108 8.99961H7.45337C7.89323 8.99961 8.2511 9.35748 8.2511 9.79734V12.7811ZM18.9081 16.5626H3.09449C2.1467 16.5626 1.37561 15.7916 1.37561 14.8438C1.37561 14.4647 1.68407 14.1562 2.06316 14.1562H19.9394C20.3185 14.1562 20.627 14.4647 20.627 14.8438C20.627 15.7916 19.8558 16.5626 18.9081 16.5626Z" fill="#C3002F"/>
</svg>
