<svg width="134" height="118" viewBox="0 0 134 118" fill="none" xmlns="http://www.w3.org/2000/svg">
<path d="M78.0969 63.6775C77.9851 63.707 77.5659 63.707 77.3982 63.707H63.76V67.0312H77.5938C77.7056 67.0312 78.5161 67.0312 78.6837 67.0018C81.5064 66.737 82.792 64.2659 82.792 62.089C82.792 59.8826 81.4505 57.4998 78.8794 57.235C78.3763 57.1762 77.9571 57.1762 77.7615 57.1762H68.7067C68.2874 57.1762 67.8682 57.1468 67.7006 57.0879C66.9739 56.882 66.7224 56.2348 66.7224 55.6759C66.7224 55.1758 66.9739 54.4991 67.7285 54.2638C67.9521 54.205 68.1757 54.205 68.6787 54.205H81.73V50.9102H68.511C67.9521 50.9102 67.5329 50.9396 67.1975 50.969C64.9338 51.2926 63.3408 53.2342 63.3408 55.6759C63.3408 57.6763 64.5425 60.0003 67.1416 60.4121C67.6167 60.471 68.2874 60.471 68.5669 60.471H77.3982C77.5659 60.471 77.9571 60.471 78.041 60.5004C79.0191 60.6475 79.3824 61.4418 79.3824 62.1184C79.3545 62.795 78.9632 63.5304 78.0969 63.6775Z" fill="white"/>
<path d="M52.3012 63.6775C52.1894 63.707 51.7702 63.707 51.6025 63.707H37.9644V67.0312H51.7982C51.9099 67.0312 52.7204 67.0312 52.8881 67.0018C55.7107 66.737 56.9963 64.2659 56.9963 62.089C56.9963 59.8826 55.6548 57.4998 53.0837 57.235C52.5807 57.1762 52.1615 57.1762 51.9658 57.1762H42.911C42.4918 57.1762 42.0726 57.1468 41.9049 57.0879C41.1783 56.882 40.9267 56.2348 40.9267 55.6759C40.9267 55.1758 41.1783 54.4991 41.9328 54.2638C42.1564 54.205 42.38 54.205 42.883 54.205H55.9343V50.9102H42.6595C42.1005 50.9102 41.6813 50.9396 41.346 50.969C39.0822 51.2926 37.4893 53.2342 37.4893 55.6759C37.4893 57.6763 38.691 60.0003 41.2901 60.4121C41.7652 60.471 42.4359 60.471 42.7154 60.471H51.5466C51.7143 60.471 52.1056 60.471 52.1894 60.5004C53.1676 60.6475 53.5309 61.4418 53.5309 62.1184C53.5588 62.795 53.1676 63.5304 52.3012 63.6775Z" fill="white"/>
<path d="M30.8662 50.8506H27.4287V67.1481H30.8662V50.8506Z" fill="white"/>
<path d="M19.8551 67.1481V50.8506H16.4176V62.9708L5.01524 50.8506H0.599609V67.1481H4.0371V54.9103L15.5233 67.1481H19.8551Z" fill="white"/>
<path d="M130.19 50.8506V62.9708L118.76 50.8506H114.372V67.1481H117.782V54.9103L129.296 67.1481H133.6V50.8506H130.19Z" fill="white"/>
<path d="M96.5134 50.8506L86.8438 67.1481H91.0079L92.7406 64.2357H104.003L105.736 67.1481H109.872L100.202 50.8506H96.5134ZM102.215 61.1469H94.4733L98.3579 54.5867L102.215 61.1469Z" fill="white"/>
<path d="M19.6596 41.5844C26.5625 20.3447 45.6504 6.04754 67.1137 6.04754C88.577 6.04754 107.665 20.3152 114.568 41.555L114.624 41.7315H129.743V39.8487L123.455 39.0839C119.57 38.6132 118.76 36.8187 117.698 34.5241L117.446 33.9652C108.364 13.6079 88.605 0.428711 67.1137 0.428711C45.6224 0.428711 25.8639 13.6079 16.7811 33.9652L16.5296 34.5241C15.4676 36.7893 14.6571 38.6132 10.7725 39.0839L4.48438 39.8487V41.7609H19.6037L19.6596 41.5844Z" fill="white"/>
<path d="M114.652 76.2384L114.596 76.4149C107.665 97.6547 88.605 111.922 67.1137 111.922C45.6224 111.922 26.5625 97.6547 19.6596 76.3855L19.6037 76.209H4.48438V78.1212L10.7725 78.886C14.6571 79.3567 15.4676 81.1512 16.5296 83.4458L16.7811 84.0047C25.8639 104.391 45.6224 117.541 67.1137 117.571C88.605 117.571 108.364 104.391 117.446 84.0342L117.698 83.4752C118.76 81.21 119.57 79.3861 123.455 78.9154L129.743 78.1506V76.2384H114.652Z" fill="white"/>
</svg>
