<?xml version="1.0" encoding="utf-8"?>
<!-- Generator: Adobe Illustrator 24.0.0, SVG Export Plug-In . SVG Version: 6.00 Build 0)  -->
<svg version="1.1" id="Layer_1" xmlns="http://www.w3.org/2000/svg" xmlns:xlink="http://www.w3.org/1999/xlink" x="0px" y="0px" viewBox="0 0 579.4 76.2" style="enable-background:new 0 0 579.4 76.2;" xml:space="preserve">
    <style type="text/css">
    .st0 {
        fill: #010101;
    }
    </style>
    <path class="st0" d="M2.8,8.6c0-3,0.7-5.9,2-8.6h22.3c-3.9,2-5.9,4.8-5.9,8.2c-0.1,3.6,1.9,6.8,5.1,8.4c3.4,1.9,9.3,3.4,17.8,4.4
	L66,23.8c12.3,1.6,21.3,4.5,27.1,8.7s8.6,10.1,8.6,17.5c0,8.3-4.3,14.8-12.8,19.3s-20.4,6.9-35.8,6.9c-16.7,0-29.4-2.4-38-7.3
	S1.5,56.5,0,46.3h18.9c1,5.8,4.8,10.7,10.1,13.3c5.5,2.8,13.5,4.1,24.1,4.1c9.5,0,16.8-1.2,21.9-3.6s7.6-5.8,7.6-10.1
	c0-3.6-1.8-6.5-5.3-8.5s-8.9-3.5-16.3-4.4l-18.9-2.4c-9.7-1.2-17.5-2.9-23.2-5.1c-5.7-2.1-9.8-4.9-12.4-8.4C4,17.5,2.7,13.1,2.8,8.6
	z M81.2,10.1h18.5c-0.4-1.3-0.7-2.2-0.7-2.2c-0.8-2.7-2-5.4-3.5-7.8H72.4c0.9,0.5,1.8,1.1,2.6,1.8C77.7,4,79.8,6.8,81.2,10.1z
	 M154.2,73.9V0h-18.8v74L154.2,73.9z M211.7,73.9V7.3l66,66.6h17.4V0H277v52.3L225.2,0h-31.6v74L211.7,73.9z M329.1,29.8
	c0,9.6,2.4,17.8,7.2,24.8c5,7.2,12,12.7,20.2,16c8.6,3.7,18.7,5.5,30.2,5.5c15.3,0,27.5-2.8,36.8-8.3c9.2-5.5,14.9-13.4,16.8-23.7
	h-19.7c-2,6.5-5.7,11.3-11.1,14.3c-5.4,3-12.9,4.6-22.6,4.6c-12,0-21.4-2.9-28.3-8.8c-6.8-5.9-10.3-14-10.3-24.4
	c0-10.3,3.4-18.4,10.2-24.3c2.6-2.3,5.6-4.1,8.8-5.5h-26.8c-1.7,1.8-3.2,3.7-4.6,5.7C331.4,12.9,329,21.3,329.1,29.8L329.1,29.8z
	 M419.6,15.4h19.6c-0.4-1.5-0.7-2.3-0.7-2.3c-1.5-4.7-3.9-9.1-7-13h-25.8c0.7,0.3,1.4,0.7,2,1C413,4,417,8.8,419.6,15.4L419.6,15.4z
	 M467.1,29.8c0,9.6,2.4,17.8,7.2,24.8c5,7.2,12,12.7,20.2,16c8.6,3.7,18.7,5.5,30.2,5.5c15.3,0,27.5-2.8,36.8-8.3
	c6.5-3.7,11.6-9.4,14.5-16.3H555c-1.9,2.8-4.5,5.2-7.5,6.9c-5.4,3.1-12.9,4.6-22.6,4.6c-12,0-21.4-2.9-28.3-8.8
	c-5.7-4.9-9-11.4-10-19.5h92.6c0.1-1.2,0.1-2.4,0.1-3.5c0-3.3-0.3-6.5-0.8-9.7c-0.4-2.9-1.1-5.7-2-8.5c-1.5-4.7-3.9-9.1-7-13h-25.9
	c0.7,0.3,1.4,0.7,2,1c5.3,3,9.2,7.8,11.9,14.3c0.7,2,1.2,4.1,1.5,6.2h-71.7c1.3-6.2,4.5-11.8,9.3-16c2.6-2.3,5.6-4.1,8.8-5.5h-26.8
	c-1.7,1.8-3.2,3.7-4.6,5.7C469.4,12.9,467,21.3,467.1,29.8L467.1,29.8z" />
</svg>