<svg id="Layer_1" data-name="Layer 1" xmlns="http://www.w3.org/2000/svg" viewBox="0 0 1400.73 1406.4"><title>new</title><g id="Expand"><path d="M456,1150a8,8,0,0,0,8-8v-80a8,8,0,0,0-8-8H408v-24a8,8,0,0,0-8-8H112a8,8,0,0,0-8,8v200H56a8,8,0,0,0-8,8v224a8,8,0,0,0,8,8H456a8,8,0,0,0,8-8V1318a8,8,0,0,0-8-8H408v-16h48a8,8,0,0,0,8-8v-48a8,8,0,0,0-8-8H408v-16h48a8,8,0,0,0,8-8v-32a8,8,0,0,0-8-8H408v-16Zm-8-16H320v-64H448Zm0,320H208v-96.88A55.85,55.85,0,0,0,248,1374H408a55.85,55.85,0,0,0,40-16.88ZM208.8,1326H447.2a40.07,40.07,0,0,1-39.2,32H248A40.07,40.07,0,0,1,208.8,1326ZM448,1278H384v-32h64Zm-88,0a8,8,0,0,1-8-8v-24h16v32Zm88-80H352v-16h96Zm-158.11,0-16-8,16-8H336v16ZM392,1166H288a8.08,8.08,0,0,0-3.58.84L254.11,1182H240v16h14.11l30.31,15.2a8.07,8.07,0,0,0,3.58.8H392v16H344a8,8,0,0,0-8,8v32a24,24,0,0,0,24,24h32v16H200a8,8,0,0,0-8,8v136H64V1246H304v48h16v-56a8,8,0,0,0-8-8H120V1038H392v16H312a8,8,0,0,0-8,8v80a8,8,0,0,0,8,8h80Z" transform="translate(-16 -63.6)"/><rect x="320" y="1022.4" width="16" height="16"/><rect x="120" y="990.4" width="16" height="16"/><rect x="64" y="1198.4" width="16" height="16"/><rect x="152" y="990.4" width="64" height="16"/><rect x="96" y="1198.4" width="64" height="16"/><rect x="208" y="1358.4" width="16" height="16"/><rect x="240" y="1358.4" width="64" height="16"/><rect x="352" y="1022.4" width="64" height="16"/><rect y="1254.4" width="16" height="128"/><path d="M104,1006H240V990H104a32,32,0,0,0-32,32v56H88v-56A16,16,0,0,1,104,1006Z" transform="translate(-16 -63.6)"/><rect x="240" y="926.4" width="16" height="16"/><rect x="464" y="1118.4" width="16" height="160"/></g><g id="Icons"><path d="M1409.79,126.57a38.83,38.83,0,0,0-31.9-16.69H1137.27a16.28,16.28,0,1,0,0,32.55h240.61a6.3,6.3,0,0,1,5.9,8.48l-45.09,121.38a6.34,6.34,0,0,1-5.9,4.11H1079.94l-40.28-171.87a46.81,46.81,0,0,0-45.75-36.25H949.07a24.42,24.42,0,0,0,0,48.83h43.38l54.24,231.41a46.72,46.72,0,0,0,44.47,36.14,50.2,50.2,0,1,0,58.9.11h93.63a50.19,50.19,0,1,0,59,0h22.76a24.42,24.42,0,1,0,0-48.83H1093.89l-6.32-27h245.22a39,39,0,0,0,36.4-25.31l45.11-121.4A38.85,38.85,0,0,0,1409.79,126.57Z" transform="translate(-16 -63.6)"/></g><path d="M433.89,247.6a8,8,0,0,1-5.66-2.35L381.38,198.4a39.18,39.18,0,0,1,52.51-58,39.18,39.18,0,0,1,52.52,58l-2.83,2.78-44,44.08A8,8,0,0,1,433.89,247.6ZM409.05,147.54a23.16,23.16,0,0,0-16.37,39.54l41.21,41.2L475.15,187a23.13,23.13,0,0,0,0-32.7c-8.74-8.78-24-8.77-32.83,0l-2.76,2.74a8,8,0,0,1-11.28,0l-2.75-2.73A23.1,23.1,0,0,0,409.05,147.54Z" transform="translate(-16 -63.6)"/><path d="M521.89,343.6a8,8,0,0,1-8-8,8,8,0,0,0-8-8,8,8,0,0,1,0-16,24,24,0,0,1,24,24A8,8,0,0,1,521.89,343.6Z" transform="translate(-16 -63.6)"/><path d="M505.89,399.6a8,8,0,0,1,0-16,8,8,0,0,0,8-8,8,8,0,0,1,16,0A24,24,0,0,1,505.89,399.6Z" transform="translate(-16 -63.6)"/><path d="M521.89,383.6a8,8,0,0,1-8-8v-40a8,8,0,0,1,16,0v40A8,8,0,0,1,521.89,383.6Z" transform="translate(-16 -63.6)"/><path d="M505.89,327.6h-16a8,8,0,0,1,0-16h16a8,8,0,0,1,0,16Z" transform="translate(-16 -63.6)"/><path d="M505.89,399.6h-48a8,8,0,0,1,0-16h48a8,8,0,0,1,0,16Z" transform="translate(-16 -63.6)"/><path d="M489.89,327.6a8,8,0,0,1-8-8v-28a8,8,0,0,1,16,0v28A8,8,0,0,1,489.89,327.6Z" transform="translate(-16 -63.6)"/><path d="M457.9,327.6a8.23,8.23,0,0,1-2.2-.31,8,8,0,0,1-5.51-9.89l8-28a8,8,0,1,1,15.39,4.39l-8,28A8,8,0,0,1,457.9,327.6Z" transform="translate(-16 -63.6)"/><path d="M465.89,299.6a8,8,0,0,1-7.69-10.2c1.39-4.87,5.1-17.8,19.69-17.8a20,20,0,0,1,20,20,8,8,0,0,1-16,0,4,4,0,0,0-4-4c-1.47,0-2.53,0-4.31,6.19A8,8,0,0,1,465.89,299.6Z" transform="translate(-16 -63.6)"/><path d="M457.89,399.6a8,8,0,0,1-5.66-2.35l-8-8a8,8,0,0,1,11.31-11.31l8,8a8,8,0,0,1-5.65,13.66Z" transform="translate(-16 -63.6)"/><path d="M457.89,327.6h-24a8,8,0,0,1,0-16h24a8,8,0,0,1,0,16Z" transform="translate(-16 -63.6)"/><path d="M449.89,391.6h-16a8,8,0,0,1,0-16h16a8,8,0,0,1,0,16Z" transform="translate(-16 -63.6)"/><path d="M433.89,399.6h-32a8,8,0,0,1-8-8v-80a8,8,0,0,1,8-8h32a8,8,0,0,1,8,8v80A8,8,0,0,1,433.89,399.6Zm-24-16h16v-64h-16Z" transform="translate(-16 -63.6)"/><path d="M441.89,551.6a56,56,0,1,1,56-56A56.07,56.07,0,0,1,441.89,551.6Zm0-96a40,40,0,1,0,40,40A40,40,0,0,0,441.89,455.6Z" transform="translate(-16 -63.6)"/><path d="M441.89,519.6a8,8,0,0,1-8-8v-32a8,8,0,0,1,16,0v32A8,8,0,0,1,441.89,519.6Z" transform="translate(-16 -63.6)"/><path d="M457.89,503.6h-32a8,8,0,0,1,0-16h32a8,8,0,0,1,0,16Z" transform="translate(-16 -63.6)"/><path d="M233.89,151.6a24,24,0,1,1,24-24A24,24,0,0,1,233.89,151.6Zm0-32a8,8,0,1,0,8,8A8,8,0,0,0,233.89,119.6Z" transform="translate(-16 -63.6)"/><path d="M305.89,111.6a24,24,0,1,1,24-24A24,24,0,0,1,305.89,111.6Zm0-32a8,8,0,1,0,8,8A8,8,0,0,0,305.89,79.6Z" transform="translate(-16 -63.6)"/><path d="M305.89,191.6a24,24,0,1,1,24-24A24,24,0,0,1,305.89,191.6Zm0-32a8,8,0,1,0,8,8A8,8,0,0,0,305.89,159.6Z" transform="translate(-16 -63.6)"/><path d="M291.9,167.83a7.89,7.89,0,0,1-3.88-1l-44-24.47a8,8,0,1,1,7.76-14l44,24.46a8,8,0,0,1-3.88,15Z" transform="translate(-16 -63.6)"/><path d="M247.88,127.83a8,8,0,0,1-3.89-15L288,88.37a8,8,0,1,1,7.76,14l-44.05,24.47A7.85,7.85,0,0,1,247.88,127.83Z" transform="translate(-16 -63.6)"/><path d="M361.89,279.61a8,8,0,0,1-8-8,32,32,0,0,0-64,0,8,8,0,0,1-16,0,48,48,0,0,1,96,0A8,8,0,0,1,361.89,279.61Z" transform="translate(-16 -63.6)"/><path d="M321.89,479.6a48.05,48.05,0,0,1-48-48,8,8,0,0,1,16,0,32,32,0,0,0,64,0,8,8,0,0,1,16,0A48.05,48.05,0,0,1,321.89,479.6Z" transform="translate(-16 -63.6)"/><path d="M281.89,439.6a8,8,0,0,1-8-8v-160a8,8,0,0,1,16,0v160A8,8,0,0,1,281.89,439.6Z" transform="translate(-16 -63.6)"/><path d="M241.88,279.61a8,8,0,0,1-8-8,48.06,48.06,0,0,1,48-48,8,8,0,0,1,0,16,32,32,0,0,0-32,32A8,8,0,0,1,241.88,279.61Z" transform="translate(-16 -63.6)"/><path d="M281.9,479.6a48.05,48.05,0,0,1-48-48,8,8,0,0,1,16,0,32,32,0,0,0,32,32,8,8,0,0,1,0,16Z" transform="translate(-16 -63.6)"/><path d="M241.9,439.6a8,8,0,0,1-8-8v-160a8,8,0,0,1,16,0v160A8,8,0,0,1,241.9,439.6Z" transform="translate(-16 -63.6)"/><path d="M361.89,439.6a8,8,0,0,1-8-8v-160a8,8,0,0,1,16,0v160A8,8,0,0,1,361.89,439.6Z" transform="translate(-16 -63.6)"/><path d="M313.89,479.6h-32a8,8,0,0,1,0-16h32a8,8,0,0,1,0,16Z" transform="translate(-16 -63.6)"/><path d="M313.89,239.6h-32a8,8,0,0,1,0-16h32a8,8,0,0,1,0,16Z" transform="translate(-16 -63.6)"/><path d="M241.88,279.6h-136a8,8,0,1,1,0-16h136a8,8,0,0,1,0,16Z" transform="translate(-16 -63.6)"/><path d="M241.9,439.6h-136a8,8,0,1,1,0-16h136a8,8,0,0,1,0,16Z" transform="translate(-16 -63.6)"/><path d="M105.89,439.6a88,88,0,0,1,0-176,8,8,0,0,1,0,16,72,72,0,0,0,0,144,8,8,0,0,1,0,16Z" transform="translate(-16 -63.6)"/><path d="M121.88,567.6a8,8,0,0,1-7.93-7l-16-128a8,8,0,0,1,15.88-2l16,128a8,8,0,0,1-7,8.93A8.55,8.55,0,0,1,121.88,567.6Z" transform="translate(-16 -63.6)"/><path d="M185.88,567.6a8,8,0,0,1-7.93-7l-16-128a8,8,0,0,1,15.88-2l16,128a8,8,0,0,1-7,8.93A8.55,8.55,0,0,1,185.88,567.6Z" transform="translate(-16 -63.6)"/><path d="M193.89,567.6h-72a8,8,0,1,1,0-16h72a8,8,0,0,1,0,16Z" transform="translate(-16 -63.6)"/><path d="M209.89,463.6a8,8,0,0,1-7.59-5.48l-8-24a8,8,0,1,1,15.18-5.06l8,24a8,8,0,0,1-7.59,10.54Z" transform="translate(-16 -63.6)"/><path d="M209.89,463.6h-37a8,8,0,0,1,0-16h37a8,8,0,0,1,0,16Z" transform="translate(-16 -63.6)"/><path d="M313.89,375.6a8,8,0,0,1,0-16,8,8,0,0,0,0-16,8,8,0,0,1,0-16,24,24,0,0,1,0,48Z" transform="translate(-16 -63.6)"/><path d="M313.89,375.6h-32a8,8,0,0,1,0-16h32a8,8,0,0,1,0,16Z" transform="translate(-16 -63.6)"/><path d="M313.89,343.6h-32a8,8,0,0,1,0-16h32a8,8,0,0,1,0,16Z" transform="translate(-16 -63.6)"/><path d="M65.89,359.6h-40a8,8,0,1,1,0-16h40a8,8,0,0,1,0,16Z" transform="translate(-16 -63.6)"/><path d="M65.89,319.6H36.6a8,8,0,0,1,0-16H65.89a8,8,0,0,1,0,16Z" transform="translate(-16 -63.6)"/><path d="M65.89,399.6H36.6a8,8,0,0,1,0-16H65.89a8,8,0,0,1,0,16Z" transform="translate(-16 -63.6)"/><path d="M1331.1,1135H1022.7a19.47,19.47,0,0,0-19.45,19.46v50.76c0,6.71-.5,7.66,4,7.66H1015c3.78,0,3-.95,3-7.78v-50.64a4.8,4.8,0,0,1,4.73-4.73h308.4a4.8,4.8,0,0,1,4.74,4.73v190H1116s-7.75,0-7.75,10v23.76c0,10,8,10,8,10H1331.1a19.49,19.49,0,0,0,19.47-19.46V1154.41A19.48,19.48,0,0,0,1331.1,1135Zm-154.19,236.44a8.77,8.77,0,1,1,8.76-8.77A8.78,8.78,0,0,1,1176.91,1371.39Z" transform="translate(-16 -63.6)"/><path d="M1078.2,1230.22H966.63a12.57,12.57,0,0,0-12.56,12.56v183.37a12.58,12.58,0,0,0,12.56,12.56H1078.2a12.58,12.58,0,0,0,12.56-12.56V1242.78A12.58,12.58,0,0,0,1078.2,1230.22ZM1008.65,1243h27.53a2.38,2.38,0,0,1,0,4.76h-27.53a2.38,2.38,0,0,1,0-4.76Zm13.6,186.86a6.5,6.5,0,1,1,6.5-6.5A6.5,6.5,0,0,1,1022.25,1429.89Zm57.72-19.11a3,3,0,0,1-3,3H967.85a3,3,0,0,1-3-3V1258.41a3,3,0,0,1,3-3.05H1077a3,3,0,0,1,3,3.05Z" transform="translate(-16 -63.6)"/><path d="M1013.6,821.81h-136v-32h56a24,24,0,0,0,24-24v-176a24,24,0,0,0-24-24h-192a24,24,0,0,0-24,24v112h-136a24,24,0,0,0-24,24v240a24,24,0,0,0,24,24h216v32a24,24,0,0,0,24,24h192a24,24,0,0,0,24-24v-176A24,24,0,0,0,1013.6,821.81Zm0,16a8,8,0,0,1,8,8v24h-144v-32Zm-272-256h192a8,8,0,0,1,8,8v24h-208v-24A8,8,0,0,1,741.6,581.81Zm-8,48h208v136a8,8,0,0,1-8,8h-56v-48a24,24,0,0,0-24-24h-120Zm-152,88h272a8,8,0,0,1,8,8v24h-288v-24A8,8,0,0,1,581.6,717.81Zm-8,248v-200h288v200a8,8,0,0,1-8,8h-272A8,8,0,0,1,573.6,965.81Zm440,64h-192a8,8,0,0,1-8-8v-32h40a24,24,0,0,0,24-24v-80h144v136A8,8,0,0,1,1013.6,1029.81Z" transform="translate(-16 -63.6)"/></svg>