<?xml version="1.0" encoding="UTF-8"?>
<svg width="82px" height="82px" viewBox="0 0 82 82" version="1.1" xmlns="http://www.w3.org/2000/svg" xmlns:xlink="http://www.w3.org/1999/xlink">
    <title>Group 16</title>
    <g id="Page-1" stroke="none" stroke-width="1" fill="none" fill-rule="evenodd">
        <g id="UI/Web/Core" transform="translate(-224.000000, -1732.000000)">
            <g id="Group-16" transform="translate(225.000000, 1733.000000)">
                <circle id="Oval-Copy-9" stroke="#1C557B" stroke-width="2" cx="39.5088289" cy="39.5088289" r="39.5088289"></circle>
                <ellipse id="Oval" fill="#1C557B" fill-rule="nonzero" cx="60.0133917" cy="33.0246717" rx="2.51464879" ry="2.27900778"></ellipse>
                <path d="M56.3905372,29.377375 L51.9513858,28.2134331 C51.3336204,28.9639007 50.9606561,29.9385527 50.9606561,31.0016356 C50.9606561,33.3773198 52.8185624,35.3036795 55.1098266,35.3036795 C55.8732739,35.3036795 56.4928834,33.3773198 56.4928834,31.0016356 C56.4928834,30.4270737 56.4569239,29.8783241 56.3905372,29.377375 Z" id="Path" fill="#1C557B" fill-rule="nonzero"></path>
                <path d="M55.0399752,36.3165719 C56.0488747,36.3165719 56.9891968,36.0211932 57.7808381,35.5145541 C58.3523153,36.0251483 59.0982384,36.3165719 59.8830025,36.3165719 C61.6188404,36.3165719 63.0309703,34.910195 63.0309703,33.1814289 C63.0309703,31.4846895 61.670467,30.0995351 59.9788945,30.0486976 C59.4350225,27.8353831 57.4275877,26.1876484 55.0399752,26.1876484 C52.2360561,26.1876484 49.9547965,28.4596142 49.9547965,31.2521101 C49.9547965,34.0446061 52.2360561,36.3165719 55.0399752,36.3165719 Z M61.5780621,33.1814289 C61.5780621,34.1122287 60.8176099,34.8695828 59.8830025,34.8695828 C59.522875,34.8695828 59.1780515,34.7551742 58.8933783,34.5511487 C59.6071437,33.7254003 60.0595793,32.6695806 60.1185674,31.511507 C60.9417851,31.6263015 61.5780621,32.3304064 61.5780621,33.1814289 Z M57.2698987,28.3997088 C55.9294456,29.3083215 54.150408,29.3083215 52.8099549,28.3997088 C53.4259879,27.9209484 54.1998068,27.6346375 55.0398784,27.6346375 C55.8799499,27.6346375 56.6539625,27.9209484 57.2698987,28.3997088 Z M51.8610121,29.5045332 C52.8054024,30.1867403 53.922592,30.5284227 55.0399752,30.5284227 C56.1573585,30.5284227 57.274548,30.1867403 58.2189383,29.5045332 C58.507389,30.0229411 58.6722457,30.6186183 58.6722457,31.2521101 C58.6722457,33.2468328 57.0428576,34.8695828 55.0399752,34.8695828 C53.0370928,34.8695828 51.4077047,33.2468328 51.4077047,31.2521101 C51.4077047,30.6186183 51.5725614,30.0229411 51.8610121,29.5045332 Z" id="Shape" fill="#1C557B" fill-rule="nonzero"></path>
                <path d="M59.0075322,40.530635 L59.0075322,53.0292956 L51.8793202,53.0292956 L51.8793202,46.2130179 C49.563252,47.9817499 47.8867106,49.0338293 46.8496959,49.369256 C46.7594728,49.4022092 46.6646775,49.4282348 46.5673818,49.4472004 C46.3993877,49.4824471 46.2543548,49.4944117 46.1305362,49.4826037 L46.0326864,49.4786159 C44.9917628,49.4012825 44.1711043,48.5263427 44.1711043,47.4583877 C44.1711043,46.3395777 45.0717816,45.432603 46.1828233,45.432603 L46.1301043,45.4340422 L46.1305362,45.4324557 C47.1084846,45.2118734 48.4500447,44.2233939 50.1552164,42.4670174 C52.712974,39.8324526 53.3531456,38.5149286 54.8168281,37.6341032 C56.2805106,36.7532778 59.0075322,36.3419413 59.0075322,40.530635 Z" id="Combined-Shape" fill="#1C557B"></path>
                <path d="M32.1007901,40.2956108 L32.1007901,52.7942715 L24.9725781,52.7942715 L24.9725781,45.9779938 C22.6565099,47.7467258 20.9799685,48.7988051 19.9429538,49.1342319 C19.8527307,49.1671851 19.7579354,49.1932107 19.6606397,49.2121763 C19.4926456,49.2474229 19.3476127,49.2593876 19.2237941,49.2475795 L19.1259443,49.2435918 C18.0850206,49.1662583 17.2643622,48.2913185 17.2643622,47.2233635 C17.2643622,46.1045535 18.1650395,45.1975788 19.2760812,45.1975788 L19.2233622,45.199018 L19.2237941,45.1974316 C20.2017425,44.9768492 21.5433026,43.9883698 23.2484743,42.2319932 C25.8062319,39.5974284 26.4464035,38.2799045 27.910086,37.3990791 C29.3737685,36.5182536 32.1007901,36.1069172 32.1007901,40.2956108 Z" id="Combined-Shape-Copy-2" fill="#1C557B" transform="translate(24.682576, 44.808645) scale(-1, 1) translate(-24.682576, -44.808645) "></path>
                <ellipse id="Oval" fill="#1C557B" cx="22.0421949" cy="31.5053332" rx="4.77783271" ry="4.81123865"></ellipse>
                <path d="M28.3293724,49.9906186 L46.9366625,49.9906186 C48.3257715,49.9906186 49.4518668,51.1167139 49.4518668,52.5058228 L49.4518668,53.0292956 L49.4518668,53.0292956 L25.8141681,53.0292956 L25.8141681,52.5058228 C25.8141681,51.1167139 26.9402634,49.9906186 28.3293724,49.9906186 Z" id="Rectangle" fill="#1C557B"></path>
                <ellipse id="Oval-Copy-45" fill="#1C557B" cx="38.1359472" cy="31.5053332" rx="4.77783271" ry="4.81123865"></ellipse>
                <path d="M32.714459,43.690935 L32.714459,50.4970647 L43.5550154,50.4970647 L43.5550154,43.9465431 L43.5550154,42.4852938 C43.5550402,39.4924114 41.1288296,37.0662008 38.1359472,37.0662008 C38.1359472,37.0662008 38.1359472,37.0662008 38.1359472,37.0662008 C38.1359472,37.0662008 38.1359472,37.0662008 38.1359472,37.0662008 C35.1417318,37.0662008 32.7144406,39.493492 32.714459,42.4877074 C32.714459,42.8808504 32.714459,43.2819263 32.714459,43.690935 Z" id="Combined-Shape" fill="#1C557B"></path>
                <path d="M59.1442272,28.2798798 C59.1453071,28.2789398 55.4451632,28.2794098 55.4451632,28.2794098 L55.4451632,35.2514385 C58.1286179,35.2514385 60.3045379,33.3573253 60.3045379,31.021409 C60.3045379,29.9761216 59.8677341,29.0177849 59.1442272,28.2798798 Z" id="Path" fill="#1C557B" fill-rule="nonzero"></path>
                <path d="M55.4316095,26.884863 C54.0468215,26.884863 52.8068709,27.5980487 51.9741813,28.7226653 C53.2903356,30.2360813 55.1681768,30.7078632 56.833556,30.1356898 C56.6084775,28.2288321 56.0654629,26.884863 55.4316095,26.884863 Z" id="Path" fill="#1C557B" fill-rule="nonzero"></path>
            </g>
        </g>
    </g>
</svg>