<?xml version="1.0" encoding="UTF-8"?>
<svg width="80px" height="80px" viewBox="0 0 80 80" version="1.1" xmlns="http://www.w3.org/2000/svg" xmlns:xlink="http://www.w3.org/1999/xlink">
    <title>F41836FA-1861-4B9E-A713-0D423D5389A6</title>
    <defs>
        <filter id="filter-1">
            <feColorMatrix in="SourceGraphic" type="matrix" values="0 0 0 0 0.270588 0 0 0 0 0.000000 0 0 0 0 0.000000 0 0 0 1.000000 0"></feColorMatrix>
        </filter>
    </defs>
    <g id="Core" stroke="none" stroke-width="1" fill="none" fill-rule="evenodd">
        <g id="UI/Web/Core" transform="translate(-225.000000, -1573.000000)">
            <g id="Secure-community--land-rights" transform="translate(225.000000, 1573.000000)">
                <circle id="Oval-Copy-4" stroke="#450000" stroke-width="2" fill-rule="nonzero" cx="39.5088289" cy="39.5088289" r="38.5088289"></circle>
                <g filter="url(#filter-1)" id="Group-5">
                    <g transform="translate(13.271464, 18.592390)">
                        <path d="M34.5228482,45.6016054 L34.5228482,25.5645363 L20.0232519,25.5645363 L20.0232519,45.6016054 L34.5228482,45.6016054 Z M21.7737251,28.1944097 C22.0125623,27.5905652 22.7889828,27.5448204 23.0766185,27.9246698 C23.3669958,28.2310931 23.364414,28.5993272 23.1805302,28.9867458 C22.8105564,29.4738387 22.2009622,29.4442104 21.9495438,29.1131993 C21.7920695,28.9803566 21.618457,28.5869617 21.7737251,28.1944097 Z M21.9495518,31.8020932 C22.2079003,31.4615488 22.8503227,31.5028852 23.0766185,31.8020932 C23.3447187,32.0698354 23.4276883,32.6201129 23.0766185,32.9905722 C22.8056166,33.3484553 22.0191726,33.341417 21.7737251,32.7208323 C21.6391834,32.3806925 21.7306257,32.0208623 21.9495518,31.8020932 Z" id="Shape" fill="#E5491A" fill-rule="nonzero"></path>
                        <path d="M25.8920402,9.67306781 C26.4674317,9.67306781 26.9278216,9.15580731 26.9278216,8.50921014 L26.9278216,1.16385766 C26.9278216,0.525890411 26.4674317,0 25.8920402,0 C25.3243283,0 24.8564507,0.525890411 24.8564507,1.16385766 L24.8564507,8.50921876 C24.8564507,9.15581593 25.3243283,9.67306781 25.8920402,9.67306781 Z" id="Path" fill="#E5491A" fill-rule="nonzero"></path>
                        <path d="M29.344421,9.67306781 C29.9198103,9.67306781 30.3801064,9.15580731 30.3801064,8.50921014 L30.3801064,1.16385766 C30.3801064,0.525890411 29.9198103,0 29.344421,0 C28.7767112,0 28.3087355,0.525890411 28.3087355,1.16385766 L28.3087355,8.50921876 C28.3087355,9.15581593 28.7767112,9.67306781 29.344421,9.67306781 Z" id="Path" fill="#E5491A" fill-rule="nonzero"></path>
                        <path d="M21.7493483,9.67306781 C22.3247121,9.67306781 22.7850798,9.15580731 22.7850798,8.50921014 L22.7850798,1.16385766 C22.7850798,0.525890411 22.3247121,0 21.7493483,0 C21.1816638,0 20.7137089,0.525890411 20.7137089,1.16385766 C20.7137089,1.64917626 20.7137089,8.83872468 20.7137089,8.51784868 C20.7137089,9.15581593 21.1816638,9.67306781 21.7493483,9.67306781 Z" id="Path" fill="#E5491A" fill-rule="nonzero"></path>
                        <path d="M14.6251178,27.1207619 C14.6251178,26.9038159 14.5441237,26.68687 14.3899467,26.5283386 C14.2357698,26.3698073 14.0248685,26.2780343 13.8139592,26.2780343 L12.9380457,26.2780343 L8.11970642,15.7899256 L8.11970642,6.73697613 C8.63885608,6.46161552 9.04443541,5.99437357 9.24722508,5.42699821 L16.8963946,5.42699821 L16.8963946,15.1307856 C16.8963946,15.3810899 17.0180846,15.606388 17.2208743,15.739863 L21.1793286,18.3347626 C21.414597,18.4849418 21.5605488,18.7519503 21.5605488,19.0356631 L21.5605488,23.8249702 L33.0709391,23.8249702 L33.0709391,20.2371638 C33.0709391,16.7466039 34.5228482,16.1389949 34.5228482,13.0448468 L34.5228482,10.7336099 C33.5910378,11.1778815 32.3705603,11.0251657 31.5216017,10.1662429 C30.4904081,11.2269511 28.7941861,11.2639807 27.7091965,10.1662429 C26.6778163,11.2269261 24.9815213,11.2639306 23.8967913,10.1662429 C23.0596187,11.0272016 21.8240618,11.1762377 20.8954474,10.7336099 L20.8954474,12.4357193 L21.7714663,12.6860736 C23.921053,13.286799 25.7137867,14.9054875 26.5573187,17.0247847 C26.7277269,17.4503245 26.5249372,17.9426311 26.1112382,18.1178166 C25.6975392,18.2847001 25.2188826,18.0844583 25.0566914,17.6589184 C23.7352003,14.3531977 20.4220227,14.1381374 19.8733875,13.8792306 C19.516429,13.7791056 19.2731382,13.4536908 19.2731382,13.0782134 L19.2731382,5.23506681 C19.2731382,4.35898085 18.9405388,3.54130952 18.3402895,2.93223207 C17.9347101,2.50669221 17.4399114,2.2146274 16.8964027,2.07280024 L16.8964027,3.7582555 L8.5739066,3.7582555 C8.12782612,3.7582555 7.76274793,4.13373283 7.76274793,4.59263102 C7.76274793,5.00146669 7.44648528,5.33523359 7.04902564,5.33523359 C6.6434463,5.33523359 6.31074146,5.00146669 6.31074146,4.59263102 C6.31074146,4.13373283 5.95388032,3.7582555 5.49958279,3.7582555 C5.0535023,3.7582555 4.68842412,4.13373283 4.68842412,4.59263102 C4.68842412,5.7273734 5.46720134,6.67856984 6.49738907,6.93722626 L6.49738907,15.7899256 L1.68717759,26.2780343 L0.811158672,26.2780343 C0.592129607,26.2780343 0.389339939,26.3698073 0.235171122,26.5283386 C0.081099644,26.68687 0,26.9038159 0,27.1207619 C0.0567405491,31.2175207 3.33385403,34.5466707 7.30854775,34.5466707 C11.2913612,34.5466707 14.5684746,31.2175207 14.6251178,27.1207619 Z M3.47980581,26.2780343 L7.30854775,17.9259269 L11.1371923,26.2780343 L3.47980581,26.2780343 Z" id="Shape" fill="#E5491A" fill-rule="nonzero"></path>
                        <path d="M50.1682812,26.5531164 C50.0141741,26.395075 49.8114655,26.3035856 49.592524,26.3035856 L48.7168553,26.3035856 L43.9085669,15.8478867 L43.9085669,6.93104586 C44.8004685,6.58998406 45.441052,5.71660534 45.441052,4.67685886 C45.441052,4.21937873 45.0762171,3.84506168 44.6302176,3.84506168 C44.1842182,3.84506168 43.8193833,4.21937873 43.8193833,4.67685886 C43.8193833,5.09275745 43.4869168,5.42549296 43.0896161,5.42549296 C42.6923154,5.42549296 42.3679654,5.09275745 42.3679654,4.67685886 C42.3679654,4.21937873 42.0031305,3.84506168 41.557131,3.84506168 L34.6325731,3.84506168 C34.6163402,3.24614275 34.1380776,2.76373366 33.5461848,2.76373366 C32.9460781,2.76373366 32.4514773,3.27112162 32.4514773,3.88664322 L32.4514773,8.26190472 C32.4514773,8.8857526 32.9460781,9.38481428 33.5461848,9.38481428 C34.1543106,9.38481428 34.6406895,8.8857526 34.6406895,8.26190472 L34.6406895,5.50865604 L40.8922874,5.50865604 C41.1273645,6.17408547 41.6382875,6.6981177 42.2868982,6.93932224 L42.2868982,15.8478867 L37.4704934,26.3035856 L36.5948247,26.3035856 C36.384097,26.3035856 36.1732719,26.395075 36.0191647,26.5531164 C35.8650576,26.7111579 35.7839903,26.9274335 35.7839903,27.1437091 C35.8407082,31.2278083 39.1165115,34.5466707 43.0977326,34.5466707 C47.0708372,34.5466707 50.3466405,31.2278083 50.4033583,27.1437091 C50.4033583,26.9274335 50.3222911,26.7111579 50.1682812,26.5531164 Z M39.2706187,26.3035856 L43.0977326,17.9772875 L46.9249438,26.3035856 L39.2706187,26.3035856 Z" id="Shape" fill="#E5491A" fill-rule="nonzero"></path>
                    </g>
                </g>
            </g>
        </g>
    </g>
</svg>