<?xml version="1.0" encoding="UTF-8"?>
<svg width="80px" height="80px" viewBox="0 0 80 80" version="1.1" xmlns="http://www.w3.org/2000/svg" xmlns:xlink="http://www.w3.org/1999/xlink">
    <title>27031FCA-2A52-480A-8EBB-F21C5CE63B28</title>
    <g id="Core" stroke="none" stroke-width="1" fill="none" fill-rule="evenodd">
        <g id="UI/Web/Core" transform="translate(-225.000000, -1893.000000)" fill-rule="nonzero">
            <g id="Access-to-Resources--and-finance" transform="translate(225.000000, 1893.000000)">
                <circle id="Oval-Copy-10" stroke="#007641" stroke-width="2" cx="39.5088289" cy="39.5088289" r="38.5088289"></circle>
                <g id="Group-20" transform="translate(16.691726, 17.687538)">
                    <path d="M11.5035323,42.3496698 L20.0513932,42.3496698 L20.0513932,33.8182797 L7.51197942,23.6493837 C7.50780488,23.6459712 7.50363034,23.6425587 7.49945581,23.6389454 C6.91015038,23.1379078 6.04592188,23.126767 5.44429163,23.6128497 C5.27154532,23.7523614 5.13120137,23.9239909 5.02902462,24.1159951 C5.01560646,24.2475777 4.96630717,24.3684209 4.89106612,24.4682872 C4.85975709,24.5870227 4.84146865,24.7098732 4.83729411,24.8351326 C4.82139111,25.313186 5.01252526,25.7726712 5.36159604,26.0958565 L11.996724,32.2374819 C12.2799961,32.4996434 12.2990797,32.9440734 12.0394633,33.2302229 C11.7797474,33.5161717 11.339632,33.5354423 11.0564593,33.2733812 L4.42133135,27.1316555 C3.77229028,26.5308519 3.41695769,25.6765186 3.44657702,24.7878593 C3.45780852,24.4488158 3.5247005,24.118705 3.64118995,23.8090694 L3.64118995,12.4534208 C3.64118995,11.4397029 2.82447166,10.6149781 1.82059497,10.6149781 C0.816718289,10.6149781 0,11.4397029 0,12.4534208 L0,28.8187431 L11.2807909,39.3853979 C11.4227252,39.5182853 11.5034329,39.70497 11.5034329,39.9004871 L11.5035323,42.3496698 Z" id="Shape" fill="#007641"></path>
                    <path d="M24.8913846,42.3496698 L33.4392455,42.3496698 L33.4393449,39.9004871 C33.4393449,39.70497 33.5200526,39.5182853 33.6618874,39.3853979 L44.9427778,28.8187431 L44.9427778,12.4534208 C44.9427778,11.4397029 44.1260595,10.6149781 43.1221828,10.6149781 C42.1183061,10.6149781 41.3016872,11.4397029 41.3016872,12.4534208 L41.3016872,23.8092701 C41.4181767,24.1188054 41.4849692,24.4490165 41.4963001,24.7878593 C41.5259195,25.6765186 41.1706863,26.5308519 40.5215458,27.1317559 L33.8862191,33.2733812 C33.6031458,33.5355427 33.1630303,33.5163724 32.9032151,33.2301225 C32.6435987,32.9440734 32.6626823,32.4997438 32.9460538,32.2374819 L39.5812811,26.0958565 C39.9303519,25.7726712 40.121486,25.3130856 40.1054837,24.8350323 C40.1013091,24.7098732 40.0830207,24.5868219 40.0517116,24.4681868 C39.9764706,24.3683205 39.9271713,24.2476781 39.9137531,24.1160955 C39.8116758,23.9240913 39.6713318,23.7524618 39.4983867,23.6127494 C38.8968559,23.1268673 38.0326274,23.1377071 37.4432226,23.6389454 C37.4391474,23.6424583 37.4349729,23.6458708 37.4306989,23.6493837 L24.8913846,33.8182797 L24.8913846,42.3496698 Z" id="Shape" fill="#007641"></path>
                    <path d="M27.3627491,18.8935933 C25.6814922,18.8935933 24.0011108,18.1499938 22.8140264,16.7057063 C21.8046692,15.4427029 21.3243101,13.843203 21.4554409,12.1945018 C21.5872527,10.5361631 22.3216049,9.04774663 23.5230863,8.00366385 C26.3862718,5.52990184 29.5401241,5.71362064 32.074607,5.8611232 C32.9685925,5.91316503 33.8133552,5.96226492 34.5036404,5.87938349 C34.8144439,5.84154411 35.1083209,6.02932076 35.2187315,6.33376036 C35.3291421,6.63819997 35.2268056,6.9818992 34.9705752,7.16774837 C34.0787298,7.81466985 33.8569358,9.43506766 33.6221065,11.1505204 C33.3202527,13.3549432 32.9784176,15.8532551 31.148617,17.4410887 C30.0552115,18.416594 28.7084939,18.8935933 27.3627491,18.8935933 Z" id="Shape" fill="#007641"></path>
                    <path d="M22.7254575,21.6531317 C22.3916331,21.6531317 22.0924131,21.4217101 22.0221775,21.0852541 C21.0998734,16.6628243 20.9625855,20.930329 23.8597005,16.373988 C26.0287888,12.9625533 28.4402104,10.875997 28.5418671,10.788858 C28.8419086,10.5314066 29.2958728,10.5635372 29.5558677,10.8607451 C29.8156572,11.1577497 29.7833118,11.6069679 29.4835784,11.8644193 C29.4600639,11.8846534 27.1092256,13.9236239 25.0546295,17.1664747 C22.3374162,21.4549931 22.5746153,16.6956667 23.4300723,20.7971972 C23.5103709,21.1821542 22.7735134,21.6531317 22.7254575,21.6531317 Z" id="Path" fill="#007641"></path>
                    <path d="M16.5589821,19.5834779 C15.8258647,19.5834779 15.1024193,19.3799691 14.4508789,18.9819716 C13.5464989,18.4768481 12.8389781,17.598963 12.5084696,16.57098 C12.5072972,16.5673314 12.5062226,16.5637842 12.5050502,16.5601356 C12.2782957,15.8149164 12.2546531,15.2008427 12.2356999,14.7073744 C12.200529,13.793105 12.1859722,13.4146678 10.7695629,12.7386699 C10.484288,12.6025582 10.3250421,12.2822953 10.3833671,11.9622351 C10.4416922,11.6421749 10.7028359,11.4045115 11.0163452,11.3858633 C11.4726873,11.3588031 12.0292664,11.2218806 12.6184763,11.0768502 C14.2990579,10.6633462 16.3905527,10.1485946 18.5881462,11.4200179 C19.571563,11.976424 20.2829916,12.8984973 20.5856565,14.0131337 C20.8950625,15.1528033 20.7445117,16.3589578 20.1615544,17.4092376 C19.616992,18.4136063 18.7192554,19.1353126 17.6372625,19.4355084 C17.2805712,19.534425 16.9185066,19.5834779 16.5589821,19.5834779 Z" id="Shape" fill="#007641"></path>
                    <path d="M22.1677082,23.1072732 C21.8132995,17.3249619 17.6467164,16.6862113 17.5881436,16.6485385 C17.278695,16.4494909 17.1925134,16.0429617 17.3958407,15.7402671 C17.5991679,15.4376661 18.0146419,15.3530428 18.3242821,15.5515281 C18.5861822,15.719369 23.1120631,16.5801269 23.5073098,23.0287413 C23.5294543,23.3903817 23.2475187,23.7011357 22.8776759,23.7227855 C22.8639674,23.723627 22.18899,23.4556063 22.1677082,23.1072732 Z" id="Path" fill="#007641"></path>
                    <path d="M27.5130466,25.7924394 L17.4297311,25.7924394 C16.2065241,25.7924394 15.2114017,24.7092735 15.2114017,23.3778432 C15.2114017,22.046413 16.2065241,20.9632471 17.4297311,20.9632471 L27.5130466,20.9632471 C28.7362536,20.9632471 29.7313761,22.046413 29.7313761,23.3778432 C29.7313761,24.7092735 28.7362536,25.7924394 27.5130466,25.7924394 Z" id="Shape" fill="#007641"></path>
                    <g id="Group-23" transform="translate(10.000000, 0.000000)">
                        <path d="M4.0000333,0 C1.79457174,0 0,1.79457174 0,4.0000333 C0,6.20549486 1.79457174,8 4.0000333,8 C6.20549486,8 8,6.20549486 8,4.0000333 C8,1.79457174 6.20549486,0 4.0000333,0 Z" id="Shape" fill="#007641"></path>
                        <path d="M5.4082452,2.37247938 C5.57383837,2.37247938 5.70823161,2.21513218 5.70823161,2.02125618 C5.70823161,1.82738019 5.57383837,1.67003222 5.4082452,1.67003222 L2.80833861,1.67003222 C2.64274621,1.67003222 2.5083522,1.82738019 2.5083522,2.02125618 C2.5083522,2.21513218 2.64274621,2.37247938 2.80833861,2.37247938 L3.70829786,2.37247938 C4.02432369,2.37247938 4.28908208,2.62063422 4.3755038,2.95779567 L2.80833861,2.95779567 C2.64274621,2.95779567 2.5083522,3.11514287 2.5083522,3.30901886 C2.5083522,3.50289563 2.64274621,3.66024283 2.80833861,3.66024283 L4.28109886,3.66024283 C4.15432236,3.87195433 3.94507926,4.01146679 3.70829786,4.01146679 L2.80833861,4.01146679 C2.67680184,4.01146679 2.56035182,4.11222052 2.5216089,4.25919274 C2.48279223,4.40625042 2.53039728,4.56599848 2.6391568,4.65303312 L4.83910583,6.4091514 C4.89103246,6.45039645 4.94947643,6.47003222 5.00784819,6.47003222 C5.10386421,6.47003222 5.19826915,6.4166974 5.25627444,6.31688692 C5.34906829,6.15628031 5.31427972,5.9376234 5.17746946,5.82846589 L3.77831446,4.71159856 C4.32431011,4.6778995 4.77670597,4.24470134 4.93944267,3.66024283 L5.4082452,3.66024283 C5.57383837,3.66024283 5.70823161,3.50289563 5.70823161,3.30901886 C5.70823161,3.11514287 5.57383837,2.95779567 5.4082452,2.95779567 L4.98785365,2.95779567 C4.95943721,2.74522638 4.89586572,2.54663413 4.80028915,2.37247938 L5.4082452,2.37247938 Z" id="Path" fill="#FFFFFF"></path>
                    </g>
                    <g id="Group-23-Copy" transform="translate(32.308274, 17.312462)">
                        <path d="M2.50002081,0 C1.12160734,0 0,1.12160734 0,2.50002081 C0,3.87843428 1.12160734,5 2.50002081,5 C3.87843428,5 5,3.87843428 5,2.50002081 C5,1.12160734 3.87843428,0 2.50002081,0 Z" id="Shape" fill="#007641"></path>
                        <path d="M3.38015325,1.48279961 C3.48364898,1.48279961 3.56764476,1.38445761 3.56764476,1.26328512 C3.56764476,1.14211262 3.48364898,1.04377014 3.38015325,1.04377014 L1.75521163,1.04377014 C1.65171638,1.04377014 1.56772012,1.14211262 1.56772012,1.26328512 C1.56772012,1.38445761 1.65171638,1.48279961 1.75521163,1.48279961 L2.31768616,1.48279961 C2.51520231,1.48279961 2.6806763,1.63789639 2.73468988,1.84862229 L1.75521163,1.84862229 C1.65171638,1.84862229 1.56772012,1.94696429 1.56772012,2.06813679 C1.56772012,2.18930977 1.65171638,2.28765177 1.75521163,2.28765177 L2.67568679,2.28765177 C2.59645148,2.41997146 2.46567454,2.50716674 2.31768616,2.50716674 L1.75521163,2.50716674 C1.67300115,2.50716674 1.60021989,2.57013783 1.57600556,2.66199546 C1.55174514,2.75390651 1.5814983,2.85374905 1.649473,2.9081457 L3.02444114,4.00571962 C3.05689529,4.03149778 3.09342277,4.04377014 3.12990512,4.04377014 C3.18991513,4.04377014 3.24891822,4.01043587 3.28517152,3.94805432 C3.34316768,3.84767519 3.32142482,3.71101463 3.23591841,3.64279118 L2.36144654,2.9447491 C2.70269382,2.92368719 2.98544123,2.65293834 3.08715167,2.28765177 L3.38015325,2.28765177 C3.48364898,2.28765177 3.56764476,2.18930977 3.56764476,2.06813679 C3.56764476,1.94696429 3.48364898,1.84862229 3.38015325,1.84862229 L3.11740853,1.84862229 C3.09964826,1.71576649 3.05991608,1.59164633 3.00018072,1.48279961 L3.38015325,1.48279961 Z" id="Path" fill="#FFFFFF"></path>
                    </g>
                    <path d="M16.5929402,40.280016 L11.0641538,40.280016 C10.6815614,40.280016 10.3714103,39.9711448 10.3714103,39.5901314 C10.3714103,39.209118 10.6815614,38.9002468 11.0641538,38.9002468 L16.5929402,38.9002468 C16.9755326,38.9002468 17.2856838,39.209118 17.2856838,39.5901314 C17.2856838,39.9711448 16.9755326,40.280016 16.5929402,40.280016 Z" id="Path" fill="#007641"></path>
                    <path d="M33.878614,40.280016 L28.3498475,40.280016 C27.9672496,40.280016 27.657094,39.9711448 27.657094,39.5901314 C27.657094,39.209118 27.9672496,38.9002468 28.3498475,38.9002468 L33.878614,38.9002468 C34.2612119,38.9002468 34.5713675,39.209118 34.5713675,39.5901314 C34.5713675,39.9711448 34.2612119,40.280016 33.878614,40.280016 Z" id="Path" fill="#007641"></path>
                </g>
            </g>
        </g>
    </g>
</svg>