<svg width="80" height="80" viewBox="0 0 80 80" fill="none" xmlns="http://www.w3.org/2000/svg">
<g id="Secure community  land rights">
<circle id="Oval Copy 4" cx="39.5088" cy="39.5088" r="38.5088" stroke="#450000" stroke-width="2"/>
<g id="Group 5">
<path id="Shape" fill-rule="evenodd" clip-rule="evenodd" d="M47.7943 64.194V44.1569H33.2947V64.194H47.7943ZM35.0452 46.7868C35.284 46.183 36.0605 46.1372 36.3481 46.5171C36.6385 46.8235 36.6359 47.1917 36.452 47.5791C36.082 48.0662 35.4724 48.0366 35.221 47.7056C35.0636 47.5727 34.8899 47.1793 35.0452 46.7868ZM36.3481 50.3945C36.1218 50.0953 35.4794 50.0539 35.221 50.3945C35.0021 50.6132 34.9107 50.9731 35.0452 51.3132C35.2907 51.9338 36.0771 51.9408 36.3481 51.583C36.6992 51.2125 36.6162 50.6622 36.3481 50.3945Z" fill="#450000"/>
<path id="Path" d="M39.1635 28.2655C39.7389 28.2655 40.1993 27.7482 40.1993 27.1016V19.7563C40.1993 19.1183 39.7389 18.5924 39.1635 18.5924C38.5958 18.5924 38.1279 19.1183 38.1279 19.7563V27.1016C38.1279 27.7482 38.5958 28.2655 39.1635 28.2655Z" fill="#450000"/>
<path id="Path_2" d="M42.6159 28.2655C43.1913 28.2655 43.6516 27.7482 43.6516 27.1016V19.7563C43.6516 19.1183 43.1913 18.5924 42.6159 18.5924C42.0482 18.5924 41.5802 19.1183 41.5802 19.7563V27.1016C41.5802 27.7482 42.0482 28.2655 42.6159 28.2655Z" fill="#450000"/>
<path id="Path_3" d="M35.0208 28.2655C35.5962 28.2655 36.0565 27.7482 36.0565 27.1016V19.7563C36.0565 19.1183 35.5962 18.5924 35.0208 18.5924C34.4531 18.5924 33.9852 19.1183 33.9852 19.7563C33.9852 20.2416 33.9852 27.4311 33.9852 27.1103C33.9852 27.7482 34.4531 28.2655 35.0208 28.2655Z" fill="#450000"/>
<path id="Shape_2" fill-rule="evenodd" clip-rule="evenodd" d="M27.6614 45.1208C27.8156 45.2793 27.8966 45.4962 27.8966 45.7132C27.84 49.8099 24.5628 53.1391 20.58 53.1391C16.6053 53.1391 13.3282 49.8099 13.2715 45.7132C13.2715 45.4962 13.3526 45.2793 13.5067 45.1208C13.6608 44.9622 13.8636 44.8705 14.0826 44.8705H14.9587L19.7689 34.3823V25.5296C18.7387 25.271 17.9599 24.3198 17.9599 23.1851C17.9599 22.7262 18.325 22.3507 18.7711 22.3507C19.2254 22.3507 19.5822 22.7262 19.5822 23.1851C19.5822 23.5939 19.9149 23.9277 20.3205 23.9277C20.718 23.9277 21.0342 23.5939 21.0342 23.1851C21.0342 22.7262 21.3993 22.3507 21.8454 22.3507H30.1679V20.6652C30.7114 20.807 31.2062 21.0991 31.6118 21.5247C32.212 22.1337 32.5446 22.9514 32.5446 23.8275V31.6706C32.5446 32.0461 32.7879 32.3715 33.1449 32.4717C33.2375 32.5154 33.4091 32.5579 33.6366 32.6142C34.756 32.8914 37.2299 33.504 38.3282 36.2513C38.4904 36.6769 38.969 36.8771 39.3827 36.7102C39.7964 36.5351 39.9992 36.0427 39.8288 35.6172C38.9853 33.4979 37.1925 31.8792 35.043 31.2785L34.1669 31.0281V29.326C35.0955 29.7687 36.3311 29.6196 37.1683 28.7587C38.253 29.8564 39.9493 29.8193 40.9807 28.7587C42.0657 29.8564 43.7619 29.8194 44.7931 28.7587C45.642 29.6176 46.8625 29.7703 47.7943 29.326V31.6373C47.7943 33.1377 47.4529 34.0535 47.1012 34.9968C46.7276 35.9987 46.3424 37.0317 46.3424 38.8296V42.4174H34.832V37.6281C34.832 37.3444 34.6861 37.0774 34.4508 36.9272L30.4924 34.3323C30.2896 34.1988 30.1679 33.9735 30.1679 33.7232V24.0194H22.5187C22.3159 24.5868 21.9103 25.054 21.3912 25.3294V34.3823L26.2095 44.8705H27.0854C27.2964 44.8705 27.5073 44.9622 27.6614 45.1208ZM20.58 36.5183L16.7513 44.8705H24.4087L20.58 36.5183Z" fill="#450000"/>
<path id="Shape_3" fill-rule="evenodd" clip-rule="evenodd" d="M62.864 44.896C63.0829 44.896 63.2857 44.9875 63.4398 45.1455C63.5938 45.3036 63.6748 45.5198 63.6748 45.7361C63.6181 49.8202 60.3423 53.1391 56.3692 53.1391C52.388 53.1391 49.1122 49.8202 49.0555 45.7361C49.0555 45.5198 49.1365 45.3036 49.2906 45.1455C49.4448 44.9875 49.6556 44.896 49.8663 44.896H50.742L55.5584 34.4403V25.5317C54.9098 25.2905 54.3988 24.7665 54.1638 24.1011H47.9122V26.8543C47.9122 27.4782 47.4258 27.9772 46.8177 27.9772C46.2176 27.9772 45.723 27.4782 45.723 26.8543V22.479C45.723 21.8635 46.2176 21.3561 46.8177 21.3561C47.4096 21.3561 47.8878 21.8385 47.9041 22.4375H54.8286C55.2746 22.4375 55.6394 22.8118 55.6394 23.2693C55.6394 23.6852 55.9638 24.0179 56.3611 24.0179C56.7584 24.0179 57.0909 23.6852 57.0909 23.2693C57.0909 22.8118 57.4557 22.4375 57.9017 22.4375C58.3477 22.4375 58.7125 22.8118 58.7125 23.2693C58.7125 24.309 58.072 25.1824 57.1801 25.5235V34.4403L61.9883 44.896H62.864ZM56.3692 36.5697L52.5421 44.896H60.1964L56.3692 36.5697Z" fill="#450000"/>
</g>
</g>
</svg>
