<?xml version="1.0" encoding="UTF-8"?>
<svg width="82px" height="82px" viewBox="0 0 82 82" version="1.1" xmlns="http://www.w3.org/2000/svg" xmlns:xlink="http://www.w3.org/1999/xlink">
    <title>4701D0BC-5360-429D-B36B-D07055820C2F</title>
    <defs>
        <filter id="filter-1">
            <feColorMatrix in="SourceGraphic" type="matrix" values="0 0 0 0 0.109804 0 0 0 0 0.333333 0 0 0 0 0.482353 0 0 0 1.000000 0"></feColorMatrix>
        </filter>
    </defs>
    <g id="overview" stroke="none" stroke-width="1" fill="none" fill-rule="evenodd">
        <g id="UI/Web/Core" transform="translate(-224.000000, -1732.000000)">
            <g id="Resource-Management-And-Governance-Plans" transform="translate(225.000000, 1733.000000)">
                <circle id="Oval-Copy-9" stroke="#1C557B" stroke-width="2" cx="39.5088289" cy="39.5088289" r="39.5088289"></circle>
                <g filter="url(#filter-1)" id="Group-18">
                    <g transform="translate(17.264362, 25.896543)" id="Group-19" fill="#0E76CA">
                        <g id="Group-16" transform="translate(0.000000, 0.291105)">
                            <ellipse id="Oval" fill-rule="nonzero" cx="42.7490295" cy="6.83702335" rx="2.51464879" ry="2.27900778"></ellipse>
                            <path d="M39.126175,3.18972659 L34.6870236,2.0257847 C34.0692582,2.77625236 33.6962938,3.75090432 33.6962938,4.81398718 C33.6962938,7.18967145 35.5542002,9.11603113 37.8454644,9.11603113 C38.6089117,9.11603113 39.2285212,7.18967145 39.2285212,4.81398718 C39.2285212,4.23942531 39.1925617,3.6906757 39.126175,3.18972659 Z" id="Path" fill-rule="nonzero"></path>
                            <path d="M37.775613,10.1289235 C38.7845125,10.1289235 39.7248346,9.83354478 40.5164759,9.32690567 C41.0879531,9.83749988 41.8338762,10.1289235 42.6186403,10.1289235 C44.3544782,10.1289235 45.7666081,8.72254657 45.7666081,6.9937805 C45.7666081,5.29704112 44.4061048,3.91188671 42.7145323,3.86104916 C42.1706603,1.64773469 40.1632255,1.35583374e-14 37.775613,1.35583374e-14 C34.9716939,1.35583374e-14 32.6904343,2.27196577 32.6904343,5.06446174 C32.6904343,7.85695771 34.9716939,10.1289235 37.775613,10.1289235 Z M44.3136999,6.9937805 C44.3136999,7.92458033 43.5532477,8.68193441 42.6186403,8.68193441 C42.2585128,8.68193441 41.9136893,8.56752581 41.6290161,8.36350035 C42.3427815,7.53775192 42.7952171,6.48193223 42.8542052,5.32385865 C43.6774229,5.43865311 44.3136999,6.14275799 44.3136999,6.9937805 Z M40.0055365,2.21206042 C38.6650834,3.12067309 36.8860457,3.12067309 35.5455927,2.21206042 C36.1616257,1.73329997 36.9354446,1.44698907 37.7755161,1.44698907 C38.6155877,1.44698907 39.3896003,1.73329997 40.0055365,2.21206042 Z M34.5966499,3.31688481 C35.5410402,3.99909192 36.6582297,4.34077427 37.775613,4.34077427 C38.8929963,4.34077427 40.0101858,3.99909192 40.9545761,3.31688481 C41.2430268,3.83529276 41.4078835,4.43096993 41.4078835,5.06446174 C41.4078835,7.0591844 39.7784954,8.68193441 37.775613,8.68193441 C35.7727306,8.68193441 34.1433425,7.0591844 34.1433425,5.06446174 C34.1433425,4.43096993 34.3081992,3.83529276 34.5966499,3.31688481 Z" id="Shape" fill-rule="nonzero"></path>
                            <path d="M41.74317,14.3429866 L41.74317,26.8416472 L34.6149579,26.8416472 L34.6149579,20.0253695 C32.2988898,21.7941015 30.6223484,22.8461809 29.5853337,23.1816076 C29.4951106,23.2145609 29.4003153,23.2405865 29.3030196,23.2595521 C29.1350255,23.2947987 28.9899926,23.3067633 28.866174,23.2949553 L28.7683242,23.2909675 C27.7274005,23.2136341 26.9067421,22.3386943 26.9067421,21.2707393 C26.9067421,20.1519293 27.8074194,19.2449546 28.9184611,19.2449546 L28.8657421,19.2463938 L28.866174,19.2448074 C29.8441224,19.024225 31.1856825,18.0357455 32.8908542,16.279369 C35.4486118,13.6448042 36.0887834,12.3272803 37.5524659,11.4464548 C39.0161484,10.5656294 41.74317,10.1542929 41.74317,14.3429866 Z" id="Combined-Shape"></path>
                            <path d="M14.8364279,14.1079625 L14.8364279,26.6066231 L7.70821585,26.6066231 L7.70821585,19.7903454 C5.39214768,21.5590774 3.71560626,22.6111568 2.67859158,22.9465835 C2.58836849,22.9795367 2.49357317,23.0055623 2.39627745,23.0245279 C2.22828336,23.0597745 2.0832505,23.0717392 1.95943192,23.0599311 L1.86158209,23.0559434 C0.820658441,22.9786099 -1.24344979e-14,22.1036701 -1.24344979e-14,21.0357152 C-1.24344979e-14,19.9169052 0.900677291,19.0099305 2.01171904,19.0099305 L1.959,19.0113697 L1.95943192,19.0097832 C2.93738032,18.7892008 4.27894039,17.8007214 5.98411212,16.0443449 C8.54186973,13.4097801 9.18204133,12.0922561 10.6457238,11.2114307 C12.1094063,10.3306052 14.8364279,9.9192688 14.8364279,14.1079625 Z" id="Combined-Shape-Copy-2" transform="translate(7.418214, 18.620996) scale(-1, 1) translate(-7.418214, -18.620996) "></path>
                            <ellipse id="Oval" cx="4.77783271" cy="5.31768483" rx="4.77783271" ry="4.81123865"></ellipse>
                            <path d="M11.0650102,23.8029702 L29.6723003,23.8029702 C31.0614093,23.8029702 32.1875046,24.9290655 32.1875046,26.3181745 L32.1875046,26.8416472 L32.1875046,26.8416472 L8.5498059,26.8416472 L8.5498059,26.3181745 C8.5498059,24.9290655 9.67590122,23.8029702 11.0650102,23.8029702 Z" id="Rectangle"></path>
                            <ellipse id="Oval-Copy-45" cx="20.871585" cy="5.31768483" rx="4.77783271" ry="4.81123865"></ellipse>
                            <path d="M15.4500968,17.5032866 L15.4500968,24.3094164 L26.2906531,24.3094164 L26.2906531,17.7588947 L26.2906531,16.2976454 C26.290678,13.304763 23.8644674,10.8785524 20.871585,10.8785524 C20.871585,10.8785524 20.871585,10.8785524 20.871585,10.8785524 C20.871585,10.8785524 20.871585,10.8785524 20.871585,10.8785524 C17.8773696,10.8785524 15.4500784,13.3058436 15.4500968,16.300059 C15.4500968,16.693202 15.4500968,17.0942779 15.4500968,17.5032866 Z" id="Combined-Shape"></path>
                        </g>
                        <path d="M41.879865,2.38333646 C41.8809449,2.38239646 38.180801,2.38286646 38.180801,2.38286646 L38.180801,9.35489523 C40.8642557,9.35489523 43.0401757,7.46078198 43.0401757,5.12486564 C43.0401757,4.07957833 42.6033719,3.12124163 41.879865,2.38333646 Z" id="Path" fill-rule="nonzero"></path>
                        <path d="M37.4866047,1.68553433 L38.894047,3.77717821 C39.6489387,3.61065319 40.3607661,3.30709973 40.9575866,2.86801134 C40.1216327,2.14441158 38.8768213,1.68553433 37.4866047,1.68553433 Z" id="Path" fill-rule="nonzero"></path>
                        <path d="M38.1672473,0.988319704 C36.7824592,0.988319704 35.5425087,1.70150537 34.7098191,2.826122 C36.0259734,4.33953796 37.9038146,4.81131986 39.5691938,4.23914649 C39.3441153,2.33228879 38.8011007,0.988319704 38.1672473,0.988319704 Z" id="Path" fill-rule="nonzero"></path>
                    </g>
                </g>
            </g>
        </g>
    </g>
</svg>