<svg xmlns="http://www.w3.org/2000/svg" xmlns:xlink="http://www.w3.org/1999/xlink" viewBox="0 0 310 310"><defs><linearGradient id="New_Gradient_Swatch_7" x1="45.39843" y1="264.60157" x2="264.60153" y2="45.39847" gradientUnits="userSpaceOnUse"><stop offset="0" stop-color="#38a380"/><stop offset="0.06811" stop-color="#4fa684"/><stop offset="0.19954" stop-color="#74ac8a"/><stop offset="0.33708" stop-color="#93b090"/><stop offset="0.4803" stop-color="#abb494"/><stop offset="0.63159" stop-color="#bcb697"/><stop offset="0.79642" stop-color="#c6b898"/><stop offset="1" stop-color="#c9b899"/></linearGradient></defs><g id="Layer_2" data-name="Layer 2"><g id="Layer_1-2" data-name="Layer 1"><circle cx="155" cy="155" r="154" fill="#fff" stroke-miterlimit="10" stroke-width="2" stroke="url(#New_Gradient_Swatch_7)"/><path d="M53.24743,190.452a10.05777,10.05777,0,0,1-1.07911,4.73926,7.55443,7.55443,0,0,1-3.084,3.165,9.54012,9.54012,0,0,1-4.69727,1.11035H40.76891l3.17578-15.02734h3.51563a5.70227,5.70227,0,0,1,4.31152,1.53711A6.21768,6.21768,0,0,1,53.24743,190.452Zm-8.74707,7.50391a6.97033,6.97033,0,0,0,3.64843-.94043,6.16746,6.16746,0,0,0,2.41016-2.65723,8.84115,8.84115,0,0,0,.83789-3.92676,4.74193,4.74193,0,0,0-1.05859-3.3457A4.03934,4.03934,0,0,0,47.23473,185.95H45.40465l-2.56933,12.00586Z" fill="#232323"/><path d="M58.96129,199.67267a3.9279,3.9279,0,0,1-2.96972-1.1211,4.28559,4.28559,0,0,1-1.08008-3.10351,9.25222,9.25222,0,0,1,.7666-3.70606,6.85546,6.85546,0,0,1,2.0293-2.75976,4.42764,4.42764,0,0,1,2.78613-.98633,3.52934,3.52934,0,0,1,2.36328.68359,2.38259,2.38259,0,0,1,.792,1.90625,3.26094,3.26094,0,0,1-1.706,2.9043,9.34989,9.34989,0,0,1-4.88281,1.05273h-.33887l-.041.82227a3.1842,3.1842,0,0,0,.63184,2.10254,2.40954,2.40954,0,0,0,1.958.75488,5.09774,5.09774,0,0,0,1.33105-.18457,10.15348,10.15348,0,0,0,1.70117-.67871v1.501a9.25263,9.25263,0,0,1-1.706.63183A6.90876,6.90876,0,0,1,58.96129,199.67267Zm1.42871-10.207a2.74784,2.74784,0,0,0-1.98828.96582,6.3198,6.3198,0,0,0-1.42383,2.68262h.123a8.3868,8.3868,0,0,0,3.59277-.61133,1.91929,1.91929,0,0,0,1.249-1.77246,1.20294,1.20294,0,0,0-.375-.90527A1.65668,1.65668,0,0,0,60.39,189.46563Z" fill="#232323"/><path d="M66.57848,199.46661,65.29332,188.201h1.72754l.65723,6.30078q.24756,2.65283.24707,3.7207h.06152q1.30518-2.82568,1.83985-3.8125l3.34082-6.209h1.8291l-6.07422,11.26562Z" fill="#232323"/><path d="M79.06676,199.67267a3.92792,3.92792,0,0,1-2.96973-1.1211,4.28563,4.28563,0,0,1-1.08007-3.10351,9.25222,9.25222,0,0,1,.7666-3.70606,6.85537,6.85537,0,0,1,2.0293-2.75976,4.42764,4.42764,0,0,1,2.78613-.98633,3.52934,3.52934,0,0,1,2.36328.68359,2.38259,2.38259,0,0,1,.792,1.90625,3.26094,3.26094,0,0,1-1.70605,2.9043,9.34991,9.34991,0,0,1-4.88282,1.05273h-.33886l-.041.82227a3.1842,3.1842,0,0,0,.63184,2.10254,2.40954,2.40954,0,0,0,1.958.75488,5.09774,5.09774,0,0,0,1.33105-.18457,10.15382,10.15382,0,0,0,1.70117-.67871v1.501a9.25263,9.25263,0,0,1-1.706.63183A6.90876,6.90876,0,0,1,79.06676,199.67267Zm1.42871-10.207a2.74782,2.74782,0,0,0-1.98828.96582,6.31958,6.31958,0,0,0-1.42383,2.68262h.12305a8.3868,8.3868,0,0,0,3.59277-.61133,1.9193,1.9193,0,0,0,1.249-1.77246,1.20294,1.20294,0,0,0-.375-.90527A1.65668,1.65668,0,0,0,80.49547,189.46563Z" fill="#232323"/><path d="M86.70348,199.46661H84.97692L88.389,183.47345h1.72754Z" fill="#232323"/><path d="M96.34508,188.05743a4.11506,4.11506,0,0,1,3.083,1.15625,4.35583,4.35583,0,0,1,1.13086,3.18164,9.12048,9.12048,0,0,1-.74024,3.64844,6.313,6.313,0,0,1-2.0039,2.65234,4.68727,4.68727,0,0,1-2.85742.93457,4.09543,4.09543,0,0,1-3.09375-1.16113,4.38228,4.38228,0,0,1-1.1211-3.17578,9.10151,9.10151,0,0,1,.751-3.67481,6.2283,6.2283,0,0,1,2.02441-2.6416A4.71946,4.71946,0,0,1,96.34508,188.05743Zm2.42578,4.10156a2.80853,2.80853,0,0,0-.64258-1.917,2.1952,2.1952,0,0,0-1.74218-.73535,3.01058,3.01058,0,0,0-2.00977.76074,4.88926,4.88926,0,0,0-1.37695,2.11231,8.78409,8.78409,0,0,0-.48828,3.00683,3.02919,3.02919,0,0,0,.65234,2.08106,2.37663,2.37663,0,0,0,1.876.73437,2.83348,2.83348,0,0,0,1.92187-.75,4.89,4.89,0,0,0,1.33106-2.13281A9.65522,9.65522,0,0,0,98.77086,192.159Z" fill="#232323"/><path d="M107.14684,199.67267a3.01589,3.01589,0,0,1-1.74707-.51465,3.3357,3.3357,0,0,1-1.16113-1.43848h-.10352l-.041.39063c-.02051.17089-.05665.41113-.10743.71875q-.07763.46288-1.17675,5.69433h-1.707L104.557,188.201h1.42871l-.26758,2.14843h.082q1.83984-2.33349,3.82422-2.333a2.703,2.703,0,0,1,2.21973,1.00195,4.35659,4.35659,0,0,1,.8125,2.81152,10.90225,10.90225,0,0,1-.71,3.99805,6.63751,6.63751,0,0,1-1.96289,2.832A4.39647,4.39647,0,0,1,107.14684,199.67267Zm1.91211-10.22754a2.971,2.971,0,0,0-2.00977.97656,6.97651,6.97651,0,0,0-1.624,2.456,8.00051,8.00051,0,0,0-.60059,3.03223,2.42062,2.42062,0,0,0,.57032,1.73242,2.16665,2.16665,0,0,0,1.64941.60156,2.71955,2.71955,0,0,0,1.89648-.833,5.843,5.843,0,0,0,1.41309-2.36914,9.86043,9.86043,0,0,0,.53418-3.26368Q110.88805,189.44464,109.059,189.44513Z" fill="#232323"/><path d="M116.0277,199.46661h-1.72656l2.40527-11.26562H118.433Zm1.16211-14.14355a1.35263,1.35263,0,0,1,.32812-.94043,1.09638,1.09638,0,0,1,.85352-.36426.80835.80835,0,0,1,.9043.9248,1.395,1.395,0,0,1-.34375.95606,1.037,1.037,0,0,1-.79688.39062.95067.95067,0,0,1-.67871-.25195A.93624.93624,0,0,1,117.18981,185.32306Z" fill="#232323"/><path d="M126.53258,199.46661l1.52149-7.1123a9.39876,9.39876,0,0,0,.20507-1.48047,1.46068,1.46068,0,0,0-.36523-1.03809,1.52876,1.52876,0,0,0-1.166-.39062,3.04507,3.04507,0,0,0-1.7832.61621,5.4925,5.4925,0,0,0-1.53223,1.75781,9.27834,9.27834,0,0,0-1.00195,2.76562l-1.03808,4.88184h-1.72657l2.40528-11.26562h1.42871l-.22657,2.08691h.10352a6.87,6.87,0,0,1,1.90625-1.77344,3.83294,3.83294,0,0,1,1.90625-.51855,2.88273,2.88273,0,0,1,2.06152.71386,2.62362,2.62362,0,0,1,.75489,2,8.40079,8.40079,0,0,1-.23633,1.84961l-1.46973,6.90723Z" fill="#232323"/><path d="M142.49547,188.201l-.25683,1.10058-2.16895.2461a2.89509,2.89509,0,0,1,.4209,1.624,4.17053,4.17053,0,0,1-1.19727,3.12988,4.38765,4.38765,0,0,1-3.20117,1.167,3.46282,3.46282,0,0,1-.86426-.082q-1.42821.54492-1.42871,1.34571a.54511.54511,0,0,0,.33985.56054,4.07534,4.07534,0,0,0,.98633.22071l1.20312.14453a5.3509,5.3509,0,0,1,2.69727.90429,2.41358,2.41358,0,0,1,.83789,1.99414,3.35467,3.35467,0,0,1-1.5,2.92872,7.35988,7.35988,0,0,1-4.22461,1.03808,5.57247,5.57247,0,0,1-3.125-.75488,2.42,2.42,0,0,1-1.13086-2.13281,2.6489,2.6489,0,0,1,.74023-1.8711,5.769,5.769,0,0,1,2.39453-1.34668,1.33743,1.33743,0,0,1-.80078-1.24316,1.63584,1.63584,0,0,1,.52344-1.21778,5.3932,5.3932,0,0,1,1.46-.95117,2.679,2.679,0,0,1-1.05859-.97168,2.70683,2.70683,0,0,1-.41114-1.49511,4.51441,4.51441,0,0,1,1.22852-3.26856,4.16968,4.16968,0,0,1,3.13965-1.27441,6.2097,6.2097,0,0,1,1.583.20508Zm-10.94726,13.26953a1.4461,1.4461,0,0,0,.66894,1.2539,3.48824,3.48824,0,0,0,1.9834.46289,5.54928,5.54928,0,0,0,2.92383-.65234,2.05831,2.05831,0,0,0,1.05371-1.8457,1.15112,1.15112,0,0,0-.55469-1.00684,4.44785,4.44785,0,0,0-1.8916-.51367l-1.63379-.165a3.71516,3.71516,0,0,0-1.8916.90527A2.112,2.112,0,0,0,131.54821,201.47052Zm2.85742-8.99317a1.79052,1.79052,0,0,0,.46289,1.33106,1.74891,1.74891,0,0,0,1.28516.457,2.37967,2.37967,0,0,0,1.418-.43164,2.74941,2.74941,0,0,0,.93067-1.18653,4.12141,4.12141,0,0,0,.32324-1.63964,1.71746,1.71746,0,0,0-.45215-1.28516,1.78022,1.78022,0,0,0-1.29492-.44141,2.40736,2.40736,0,0,0-1.40332.416,2.73234,2.73234,0,0,0-.93555,1.16113A3.91611,3.91611,0,0,0,134.40563,192.47735Z" fill="#232323"/><path d="M153.77086,187.99591a2.90707,2.90707,0,0,1,1.68555.50879,3.30634,3.30634,0,0,1,1.15137,1.46484h.1123l.68945-1.76855h1.30469l-2.39453,11.26562H154.9525l.26758-2.14844h-.083q-1.83984,2.354-3.875,2.3545a2.70965,2.70965,0,0,1-2.24023-1.01758,4.35266,4.35266,0,0,1-.8125-2.78614,10.60272,10.60272,0,0,1,.73047-3.96777,6.85119,6.85119,0,0,1,2.01465-2.86719A4.3802,4.3802,0,0,1,153.77086,187.99591Zm-1.95312,10.248a2.89381,2.89381,0,0,0,1.9834-.95117,7.042,7.042,0,0,0,1.60351-2.47754,8.10541,8.10541,0,0,0,.61719-3.05761,2.39489,2.39489,0,0,0-.57617-1.68555,1.95492,1.95492,0,0,0-1.51074-.62695,2.83166,2.83166,0,0,0-1.98926.88379,5.959,5.959,0,0,0-1.44336,2.39453,9.6546,9.6546,0,0,0-.52442,3.18652,2.70089,2.70089,0,0,0,.48243,1.75293A1.6694,1.6694,0,0,0,151.81774,198.244Z" fill="#232323"/><path d="M166.82457,187.99591a4.70247,4.70247,0,0,1,1.2334.14355l-.37011,1.542a4.52807,4.52807,0,0,0-1.07911-.13378,2.85632,2.85632,0,0,0-1.75293.61718,5.41619,5.41619,0,0,0-1.42871,1.71094,8.74244,8.74244,0,0,0-.89941,2.43066l-1.09961,5.16016h-1.72656L162.1068,188.201h1.42871l-.22656,2.08691h.10351a10.10619,10.10619,0,0,1,1.22266-1.40332,3.8778,3.8778,0,0,1,1.0127-.65723A2.90555,2.90555,0,0,1,166.82457,187.99591Z" fill="#232323"/><path d="M172.48766,199.67267a3.92792,3.92792,0,0,1-2.96973-1.1211,4.28563,4.28563,0,0,1-1.08007-3.10351,9.252,9.252,0,0,1,.7666-3.70606,6.85544,6.85544,0,0,1,2.02929-2.75976,4.42769,4.42769,0,0,1,2.78614-.98633,3.52935,3.52935,0,0,1,2.36328.68359,2.38259,2.38259,0,0,1,.792,1.90625,3.261,3.261,0,0,1-1.70605,2.9043,9.34991,9.34991,0,0,1-4.88282,1.05273h-.33886l-.041.82227a3.1842,3.1842,0,0,0,.63184,2.10254,2.40952,2.40952,0,0,0,1.958.75488,5.09787,5.09787,0,0,0,1.33106-.18457,10.15382,10.15382,0,0,0,1.70117-.67871v1.501a9.25263,9.25263,0,0,1-1.70605.63183A6.90876,6.90876,0,0,1,172.48766,199.67267Zm1.42871-10.207a2.74782,2.74782,0,0,0-1.98828.96582,6.31958,6.31958,0,0,0-1.42383,2.68262h.12305a8.38683,8.38683,0,0,0,3.59277-.61133,1.9193,1.9193,0,0,0,1.249-1.77246,1.20294,1.20294,0,0,0-.375-.90527A1.65668,1.65668,0,0,0,173.91637,189.46563Z" fill="#232323"/><path d="M184.38024,187.99591a2.90706,2.90706,0,0,1,1.68554.50879,3.3062,3.3062,0,0,1,1.15137,1.46484h.11231l.68945-1.76855h1.30469l-2.39453,11.26562h-1.36719l.26758-2.14844h-.083q-1.83984,2.354-3.875,2.3545a2.70965,2.70965,0,0,1-2.24024-1.01758,4.35272,4.35272,0,0,1-.8125-2.78614,10.60292,10.60292,0,0,1,.73047-3.96777,6.85128,6.85128,0,0,1,2.01465-2.86719A4.38022,4.38022,0,0,1,184.38024,187.99591Zm-1.95313,10.248a2.89379,2.89379,0,0,0,1.9834-.95117,7.04217,7.04217,0,0,0,1.60352-2.47754,8.10539,8.10539,0,0,0,.61718-3.05761,2.39489,2.39489,0,0,0-.57617-1.68555,1.95491,1.95491,0,0,0-1.51074-.62695,2.83168,2.83168,0,0,0-1.98926.88379,5.95907,5.95907,0,0,0-1.44336,2.39453,9.65459,9.65459,0,0,0-.52441,3.18652,2.70089,2.70089,0,0,0,.48242,1.75293A1.66943,1.66943,0,0,0,182.42711,198.244Z" fill="#232323"/><path d="M190.26989,194.6463l.35937-1.624h4.92383l-.34961,1.624Z" fill="#232323"/><path d="M203.82653,196.27032a3.01527,3.01527,0,0,1-1.13575,2.50293,5.04282,5.04282,0,0,1-3.20214.89942,6.82953,6.82953,0,0,1-3.13477-.71v-1.624a6.36384,6.36384,0,0,0,1.55274.668,5.645,5.645,0,0,0,1.541.2373,3.13291,3.13291,0,0,0,1.95313-.51464,1.59887,1.59887,0,0,0,.6582-1.31543,1.42,1.42,0,0,0-.36035-.98633,7.24116,7.24116,0,0,0-1.55176-1.10059,6.24206,6.24206,0,0,1-1.8916-1.46972,2.70929,2.70929,0,0,1-.55469-1.70606,2.83571,2.83571,0,0,1,1.03809-2.28711,4.12047,4.12047,0,0,1,2.73437-.86816,7.95364,7.95364,0,0,1,3.3916.76074l-.55468,1.4082-.57618-.25683a5.70639,5.70639,0,0,0-2.26074-.44239,2.30038,2.30038,0,0,0-1.501.44727,1.50588,1.50588,0,0,0-.17968,2.14258,6.42312,6.42312,0,0,0,1.50586,1.05859,8.70845,8.70845,0,0,1,1.57715,1.05957,3.05045,3.05045,0,0,1,.71484.9502A2.69493,2.69493,0,0,1,203.82653,196.27032Z" fill="#232323"/><path d="M210.88805,199.67267a3.01589,3.01589,0,0,1-1.74707-.51465,3.3357,3.3357,0,0,1-1.16113-1.43848h-.10352l-.041.39063c-.02051.17089-.05664.41113-.10743.71875q-.07763.46288-1.17675,5.69433h-1.707l3.4541-16.32226h1.42871l-.26758,2.14843h.082q1.83984-2.33349,3.82422-2.333a2.703,2.703,0,0,1,2.21973,1.00195,4.35659,4.35659,0,0,1,.8125,2.81152,10.90246,10.90246,0,0,1-.71,3.99805,6.63761,6.63761,0,0,1-1.9629,2.832A4.39647,4.39647,0,0,1,210.88805,199.67267Zm1.91211-10.22754a2.971,2.971,0,0,0-2.00977.97656,6.97651,6.97651,0,0,0-1.624,2.456,8.00051,8.00051,0,0,0-.60059,3.03223,2.42062,2.42062,0,0,0,.57032,1.73242,2.16665,2.16665,0,0,0,1.64941.60156,2.71959,2.71959,0,0,0,1.89649-.833,5.84308,5.84308,0,0,0,1.41308-2.36914,9.86043,9.86043,0,0,0,.53418-3.26368Q214.62926,189.44464,212.80016,189.44513Z" fill="#232323"/><path d="M222.49254,199.67267a3.9279,3.9279,0,0,1-2.96972-1.1211,4.28559,4.28559,0,0,1-1.08008-3.10351,9.25222,9.25222,0,0,1,.7666-3.70606,6.85546,6.85546,0,0,1,2.0293-2.75976,4.42764,4.42764,0,0,1,2.78613-.98633,3.52934,3.52934,0,0,1,2.36328.68359,2.38259,2.38259,0,0,1,.792,1.90625,3.26094,3.26094,0,0,1-1.70605,2.9043,9.34989,9.34989,0,0,1-4.88281,1.05273h-.33887l-.041.82227a3.1842,3.1842,0,0,0,.63184,2.10254,2.40954,2.40954,0,0,0,1.958.75488,5.09774,5.09774,0,0,0,1.33105-.18457,10.15348,10.15348,0,0,0,1.70117-.67871v1.501a9.25263,9.25263,0,0,1-1.70605.63183A6.90876,6.90876,0,0,1,222.49254,199.67267Zm1.42871-10.207a2.74784,2.74784,0,0,0-1.98828.96582,6.3198,6.3198,0,0,0-1.42383,2.68262h.12305a8.3868,8.3868,0,0,0,3.59277-.61133,1.91929,1.91929,0,0,0,1.249-1.77246,1.20294,1.20294,0,0,0-.375-.90527A1.65668,1.65668,0,0,0,223.92125,189.46563Z" fill="#232323"/><path d="M233.01793,199.67267a3.82665,3.82665,0,0,1-4.19433-4.20411,9.35531,9.35531,0,0,1,.76074-3.793,6.44072,6.44072,0,0,1,2.10254-2.708,5.0106,5.0106,0,0,1,3.0166-.97168,7.53542,7.53542,0,0,1,2.75488.52441l-.4834,1.44922a5.8118,5.8118,0,0,0-2.251-.52441,3.21687,3.21687,0,0,0-2.10156.78613,5.177,5.177,0,0,0-1.49122,2.18945,8.428,8.428,0,0,0-.53906,3.04785,2.87367,2.87367,0,0,0,.6836,2.04493,2.45414,2.45414,0,0,0,1.88574.73046,4.68011,4.68011,0,0,0,1.39844-.20605,12.69911,12.69911,0,0,0,1.29492-.4834v1.46973A6.1748,6.1748,0,0,1,233.01793,199.67267Z" fill="#232323"/><path d="M239.62633,199.46661h-1.72656L240.305,188.201h1.72657Zm1.16211-14.14355a1.35264,1.35264,0,0,1,.32813-.94043,1.09635,1.09635,0,0,1,.85351-.36426.80835.80835,0,0,1,.9043.9248,1.395,1.395,0,0,1-.34375.95606,1.037,1.037,0,0,1-.79688.39062.95067.95067,0,0,1-.67871-.25195A.93624.93624,0,0,1,240.78844,185.32306Z" fill="#232323"/><path d="M241.56871,204.52325a3.619,3.619,0,0,1-1.28418-.21582v-1.44922a3.59949,3.59949,0,0,0,1.15137.22656,1.35782,1.35782,0,0,0,1.20215-.63769,5.44726,5.44726,0,0,0,.67871-1.81934l2.333-11.12109h-1.9834l.13281-.68848,2.11817-.67871.23633-1.02734a6.08205,6.08205,0,0,1,1.31054-2.9043,3.33972,3.33972,0,0,1,2.48145-.84765,5.38561,5.38561,0,0,1,1.00781.11816,4.7144,4.7144,0,0,1,.9248.26172l-.4414,1.32617a4.01347,4.01347,0,0,0-1.4082-.29785,1.81549,1.81549,0,0,0-1.37305.49805,3.96515,3.96515,0,0,0-.77539,1.82519l-.25684,1.10938h2.44629l-.25683,1.30566h-2.43653l-2.38476,11.28613a5.8793,5.8793,0,0,1-1.2334,2.83692A2.851,2.851,0,0,1,241.56871,204.52325Zm10.01172-5.05664h-1.72656l2.40527-11.26562h1.72657Zm1.16114-14.14355a1.34867,1.34867,0,0,1,.3291-.94043,1.09635,1.09635,0,0,1,.85351-.36426.80835.80835,0,0,1,.9043.9248,1.39571,1.39571,0,0,1-.34473.95606,1.03505,1.03505,0,0,1-.79589.39062.94907.94907,0,0,1-.67872-.25195A.93316.93316,0,0,1,252.74157,185.32306Z" fill="#232323"/><path d="M259.81383,199.67267a3.82665,3.82665,0,0,1-4.19433-4.20411,9.35531,9.35531,0,0,1,.76074-3.793,6.44072,6.44072,0,0,1,2.10254-2.708,5.0106,5.0106,0,0,1,3.0166-.97168,7.53546,7.53546,0,0,1,2.75488.52441l-.4834,1.44922a5.8118,5.8118,0,0,0-2.251-.52441,3.21691,3.21691,0,0,0-2.10157.78613,5.177,5.177,0,0,0-1.49121,2.18945,8.428,8.428,0,0,0-.53906,3.04785,2.87371,2.87371,0,0,0,.68359,2.04493,2.45417,2.45417,0,0,0,1.88575.73046,4.68,4.68,0,0,0,1.39843-.20605,12.69928,12.69928,0,0,0,1.29493-.4834v1.46973A6.1748,6.1748,0,0,1,259.81383,199.67267Z" fill="#232323"/><path d="M69.51207,224.72735H67.78551l3.41211-15.99316h1.72754Z" fill="#232323"/><path d="M74.87731,224.72735H73.15075L75.556,213.46173h1.72656Zm1.16211-14.14355a1.35263,1.35263,0,0,1,.32812-.94043,1.09638,1.09638,0,0,1,.85352-.36426.80836.80836,0,0,1,.9043.92481,1.395,1.395,0,0,1-.34375.956,1.037,1.037,0,0,1-.79688.39062.95067.95067,0,0,1-.67871-.25195A.93621.93621,0,0,1,76.03942,210.5838Z" fill="#232323"/><path d="M80.181,224.72735l-1.28516-11.26562H80.6234l.65723,6.30078q.24756,2.65283.24707,3.7207h.06152q1.30518-2.82568,1.83985-3.8125l3.34082-6.209H88.599l-6.07422,11.26562Z" fill="#232323"/><path d="M92.6693,224.93341a3.92792,3.92792,0,0,1-2.96973-1.1211,4.28563,4.28563,0,0,1-1.08007-3.10351,9.25222,9.25222,0,0,1,.7666-3.70606,6.85544,6.85544,0,0,1,2.02929-2.75976,4.42769,4.42769,0,0,1,2.78614-.98633,3.52935,3.52935,0,0,1,2.36328.68359,2.38259,2.38259,0,0,1,.792,1.90625,3.261,3.261,0,0,1-1.70605,2.9043,9.34991,9.34991,0,0,1-4.88282,1.05273h-.33886l-.041.82227a3.1842,3.1842,0,0,0,.63184,2.10254,2.4095,2.4095,0,0,0,1.958.75488,5.09787,5.09787,0,0,0,1.33106-.18457,10.15382,10.15382,0,0,0,1.70117-.67871v1.501a9.2519,9.2519,0,0,1-1.70605.63183A6.90876,6.90876,0,0,1,92.6693,224.93341Zm1.42871-10.207a2.74779,2.74779,0,0,0-1.98828.96582,6.31948,6.31948,0,0,0-1.42383,2.68261h.123a8.387,8.387,0,0,0,3.59277-.61132,1.91932,1.91932,0,0,0,1.249-1.77247,1.203,1.203,0,0,0-.375-.90527A1.65668,1.65668,0,0,0,94.098,214.72638Z" fill="#232323"/><path d="M100.306,224.72735H98.57946l3.41211-15.99316h1.72754Z" fill="#232323"/><path d="M105.67125,224.72735h-1.72656L106.35,213.46173h1.72657Zm1.16211-14.14355a1.35264,1.35264,0,0,1,.32813-.94043,1.09635,1.09635,0,0,1,.85351-.36426.80836.80836,0,0,1,.9043.92481,1.395,1.395,0,0,1-.34375.956,1.037,1.037,0,0,1-.79687.39062.95069.95069,0,0,1-.67872-.25195A.93624.93624,0,0,1,106.83336,210.5838Z" fill="#232323"/><path d="M116.17711,224.72735l1.52149-7.1123a8.48882,8.48882,0,0,0,.18457-1.3877,1.34009,1.34009,0,0,0-1.51074-1.52148,3.07939,3.07939,0,0,0-1.78321.60644,5.34019,5.34019,0,0,0-1.53222,1.7627,9.47958,9.47958,0,0,0-1.002,2.791l-1.03808,4.86133h-1.72657l3.39161-15.99316h1.72753q-.186.84228-.35546,1.63379-.16846.79248-.34864,1.60937-.18017.81592-.39062,1.71094-.21094.89355-.48828,1.94238h.1123a6.85573,6.85573,0,0,1,1.90723-1.80859,3.87,3.87,0,0,1,1.96777-.54492,2.80525,2.80525,0,0,1,2.082.74023,2.84987,2.84987,0,0,1,.73438,2.09668,8.3108,8.3108,0,0,1-.23633,1.70606q-.3999,1.98339-1.49023,6.90722Z" fill="#232323"/><path d="M127.44176,213.31817a4.1151,4.1151,0,0,1,3.083,1.15625,4.35583,4.35583,0,0,1,1.13086,3.18164,9.12048,9.12048,0,0,1-.74024,3.64844,6.313,6.313,0,0,1-2.0039,2.65234,4.68728,4.68728,0,0,1-2.85742.93458,4.0954,4.0954,0,0,1-3.09375-1.16114,4.38228,4.38228,0,0,1-1.1211-3.17578,9.10143,9.10143,0,0,1,.751-3.6748,6.22839,6.22839,0,0,1,2.02441-2.64161A4.71946,4.71946,0,0,1,127.44176,213.31817Zm2.42578,4.10157a2.80853,2.80853,0,0,0-.64258-1.917,2.1952,2.1952,0,0,0-1.74218-.73535,3.01056,3.01056,0,0,0-2.00977.76074,4.88926,4.88926,0,0,0-1.377,2.11231,8.78413,8.78413,0,0,0-.48828,3.00683,3.02917,3.02917,0,0,0,.65234,2.08106,2.37663,2.37663,0,0,0,1.876.73437,2.83348,2.83348,0,0,0,1.92187-.75,4.88994,4.88994,0,0,0,1.33106-2.13281A9.65516,9.65516,0,0,0,129.86754,217.41974Z" fill="#232323"/><path d="M139.25231,213.31817a4.1151,4.1151,0,0,1,3.083,1.15625,4.35587,4.35587,0,0,1,1.13086,3.18164,9.12048,9.12048,0,0,1-.74024,3.64844,6.3129,6.3129,0,0,1-2.00391,2.65234,4.68724,4.68724,0,0,1-2.85742.93458,4.09541,4.09541,0,0,1-3.09375-1.16114,4.38227,4.38227,0,0,1-1.12109-3.17578,9.10143,9.10143,0,0,1,.751-3.6748,6.22839,6.22839,0,0,1,2.02441-2.64161A4.71944,4.71944,0,0,1,139.25231,213.31817Zm2.42578,4.10157a2.80853,2.80853,0,0,0-.64258-1.917,2.19522,2.19522,0,0,0-1.74219-.73535,3.01054,3.01054,0,0,0-2.00976.76074,4.88918,4.88918,0,0,0-1.37695,2.11231,8.78388,8.78388,0,0,0-.48829,3.00683,3.02917,3.02917,0,0,0,.65235,2.08106,2.37659,2.37659,0,0,0,1.876.73437,2.8335,2.8335,0,0,0,1.92188-.75,4.88993,4.88993,0,0,0,1.33105-2.13281A9.65515,9.65515,0,0,0,141.67809,217.41974Z" fill="#232323"/><path d="M151.02086,213.27716a2.99812,2.99812,0,0,1,2.8877,1.95312h.10254a23.89592,23.89592,0,0,1,.46289-2.8164l.80176-3.67969h1.70605l-3.3916,15.99316h-1.42871l.22558-2.14843h-.082a7.73472,7.73472,0,0,1-1.94238,1.81933,3.631,3.631,0,0,1-1.87109.53516,2.69184,2.69184,0,0,1-2.23047-1.00782,4.382,4.382,0,0,1-.80176-2.79589,10.65643,10.65643,0,0,1,.74023-4.0293,6.72293,6.72293,0,0,1,1.999-2.82617A4.43072,4.43072,0,0,1,151.02086,213.27716Zm-1.95312,10.22754a2.99341,2.99341,0,0,0,1.99414-.96192,6.75863,6.75863,0,0,0,1.6289-2.45605,8.1131,8.1131,0,0,0,.60157-3.04785,2.4606,2.4606,0,0,0-.55567-1.73731,2.10084,2.10084,0,0,0-1.61328-.5957,2.74937,2.74937,0,0,0-1.92773.84765,5.96854,5.96854,0,0,0-1.42871,2.38477,9.6959,9.6959,0,0,0-.53907,3.23242Q147.22789,223.50422,149.06774,223.5047Z" fill="#232323"/><path d="M168.63805,213.25665a2.90712,2.90712,0,0,1,1.68555.50879,3.30636,3.30636,0,0,1,1.15136,1.46484h.11231l.68945-1.76855h1.30469l-2.39453,11.26562h-1.36719l.26758-2.14843h-.083q-1.83984,2.354-3.875,2.35449a2.70962,2.70962,0,0,1-2.24023-1.01758,4.35265,4.35265,0,0,1-.8125-2.78613,10.60277,10.60277,0,0,1,.73047-3.96778,6.85107,6.85107,0,0,1,2.01464-2.86718A4.3802,4.3802,0,0,1,168.63805,213.25665Zm-1.95312,10.24805a2.89378,2.89378,0,0,0,1.98339-.95118,7.04185,7.04185,0,0,0,1.60352-2.47753,8.10549,8.10549,0,0,0,.61719-3.05762,2.39494,2.39494,0,0,0-.57617-1.68555,1.95493,1.95493,0,0,0-1.51075-.62695,2.83166,2.83166,0,0,0-1.98925.88379,5.95884,5.95884,0,0,0-1.44336,2.39453,9.6546,9.6546,0,0,0-.52442,3.18652,2.70087,2.70087,0,0,0,.48242,1.75293A1.66944,1.66944,0,0,0,166.68493,223.5047Z" fill="#232323"/><path d="M179.16344,224.93341a3.82665,3.82665,0,0,1-4.19433-4.2041,9.35525,9.35525,0,0,1,.76074-3.793,6.44069,6.44069,0,0,1,2.10254-2.708,5.0106,5.0106,0,0,1,3.0166-.97168,7.5355,7.5355,0,0,1,2.75488.52441l-.4834,1.44922a5.8118,5.8118,0,0,0-2.251-.52441,3.217,3.217,0,0,0-2.10157.78613,5.177,5.177,0,0,0-1.49121,2.18945,8.428,8.428,0,0,0-.53906,3.04786,2.87371,2.87371,0,0,0,.68359,2.04492,2.45418,2.45418,0,0,0,1.88575.73047,4.68,4.68,0,0,0,1.39843-.20606,12.69928,12.69928,0,0,0,1.29493-.4834V224.285A6.1748,6.1748,0,0,1,179.16344,224.93341Z" fill="#232323"/><path d="M187.4984,223.5252a5.58607,5.58607,0,0,0,1.48047-.26757v1.32617a4.75192,4.75192,0,0,1-.86328.24609,4.45415,4.45415,0,0,1-.82227.10352,2.85741,2.85741,0,0,1-1.96875-.61231,2.32344,2.32344,0,0,1-.68359-1.82422,7.47708,7.47708,0,0,1,.18555-1.542l1.30566-6.1875h-1.76855l.14453-.75,1.90136-.80176,1.28418-2.34375h1.00782l-.56543,2.58985h2.8164l-.26757,1.30566h-2.80567l-1.32617,6.208a7.33714,7.33714,0,0,0-.18457,1.35742,1.219,1.219,0,0,0,.29785.88379A1.10522,1.10522,0,0,0,187.4984,223.5252Z" fill="#232323"/><path d="M192.597,224.72735h-1.72656l2.40528-11.26562h1.72656Zm1.16211-14.14355a1.35264,1.35264,0,0,1,.32813-.94043,1.09638,1.09638,0,0,1,.85351-.36426.80836.80836,0,0,1,.9043.92481,1.395,1.395,0,0,1-.34375.956,1.037,1.037,0,0,1-.79687.39062.95065.95065,0,0,1-.67871-.25195A.93621.93621,0,0,1,193.75914,210.5838Z" fill="#232323"/><path d="M197.90075,224.72735l-1.28516-11.26562h1.72754l.65723,6.30078q.24755,2.65283.24707,3.7207h.06152q1.30518-2.82568,1.83984-3.8125l3.34082-6.209h1.8291l-6.07421,11.26562Z" fill="#232323"/><path d="M207.66539,224.72735h-1.72656l2.40528-11.26562h1.72656Zm1.16211-14.14355a1.35264,1.35264,0,0,1,.32813-.94043,1.09636,1.09636,0,0,1,.85351-.36426.80836.80836,0,0,1,.9043.92481,1.395,1.395,0,0,1-.34375.956,1.037,1.037,0,0,1-.79687.39062.95065.95065,0,0,1-.67871-.25195A.93621.93621,0,0,1,208.8275,210.5838Z" fill="#232323"/><path d="M214.73668,223.5252a5.58607,5.58607,0,0,0,1.48047-.26757v1.32617a4.75192,4.75192,0,0,1-.86328.24609,4.45416,4.45416,0,0,1-.82226.10352,2.85737,2.85737,0,0,1-1.96875-.61231,2.32341,2.32341,0,0,1-.6836-1.82422,7.47708,7.47708,0,0,1,.18555-1.542l1.30566-6.1875h-1.76855l.14453-.75,1.90137-.80176,1.28418-2.34375h1.00781l-.56543,2.58985h2.8164l-.26757,1.30566h-2.80567l-1.32617,6.208a7.33714,7.33714,0,0,0-.18457,1.35742,1.219,1.219,0,0,0,.29785.88379A1.10522,1.10522,0,0,0,214.73668,223.5252Z" fill="#232323"/><path d="M219.83434,224.72735h-1.72656l2.40527-11.26562h1.72656Zm1.16211-14.14355a1.35263,1.35263,0,0,1,.32812-.94043,1.09638,1.09638,0,0,1,.85352-.36426.80836.80836,0,0,1,.9043.92481,1.395,1.395,0,0,1-.34375.956,1.037,1.037,0,0,1-.79688.39062.95067.95067,0,0,1-.67871-.25195A.93624.93624,0,0,1,220.99645,210.5838Z" fill="#232323"/><path d="M227.90368,224.93341a3.92791,3.92791,0,0,1-2.96973-1.1211,4.28559,4.28559,0,0,1-1.08008-3.10351,9.25222,9.25222,0,0,1,.7666-3.70606,6.85555,6.85555,0,0,1,2.0293-2.75976,4.42764,4.42764,0,0,1,2.78613-.98633,3.52934,3.52934,0,0,1,2.36328.68359,2.3826,2.3826,0,0,1,.792,1.90625,3.26094,3.26094,0,0,1-1.70606,2.9043,9.34985,9.34985,0,0,1-4.88281,1.05273h-.33887l-.041.82227a3.1842,3.1842,0,0,0,.63183,2.10254,2.40952,2.40952,0,0,0,1.958.75488,5.09774,5.09774,0,0,0,1.33105-.18457,10.15387,10.15387,0,0,0,1.70118-.67871v1.501a9.252,9.252,0,0,1-1.70606.63183A6.90861,6.90861,0,0,1,227.90368,224.93341Zm1.42871-10.207a2.74777,2.74777,0,0,0-1.98828.96582,6.31948,6.31948,0,0,0-1.42383,2.68261h.123a8.38705,8.38705,0,0,0,3.59278-.61132,1.91931,1.91931,0,0,0,1.249-1.77247,1.203,1.203,0,0,0-.375-.90527A1.65667,1.65667,0,0,0,229.33239,214.72638Z" fill="#232323"/><path d="M240.78258,221.53106a3.01527,3.01527,0,0,1-1.13574,2.50293,5.04287,5.04287,0,0,1-3.20215.89942,6.82964,6.82964,0,0,1-3.13476-.71v-1.624a6.36355,6.36355,0,0,0,1.55273.668,5.64517,5.64517,0,0,0,1.541.23731,3.13288,3.13288,0,0,0,1.95312-.51465,1.59884,1.59884,0,0,0,.6582-1.31543,1.42,1.42,0,0,0-.36035-.98633,7.24089,7.24089,0,0,0-1.55176-1.10059,6.242,6.242,0,0,1-1.8916-1.46972,2.70931,2.70931,0,0,1-.55468-1.70606,2.83574,2.83574,0,0,1,1.03808-2.28711,4.12049,4.12049,0,0,1,2.73438-.86816,7.95385,7.95385,0,0,1,3.3916.76074l-.55469,1.4082-.57617-.25683a5.70656,5.70656,0,0,0-2.26074-.44238,2.30034,2.30034,0,0,0-1.501.44726,1.50589,1.50589,0,0,0-.17969,2.14258,6.42357,6.42357,0,0,0,1.50586,1.05859,8.709,8.709,0,0,1,1.57715,1.05957,3.0503,3.0503,0,0,1,.71484.9502A2.695,2.695,0,0,1,240.78258,221.53106Z" fill="#232323"/><path d="M121.4403,64.03106c-3.44385-3.47656-4.56958-3.25244-8.40113-.9917C115.90685,65.8338,117.48253,66.77667,121.4403,64.03106Z" fill="#56a8a4"/><path d="M126.11657,67.89142c3.04467-3.73487,2.228-5.37793-.33912-8.45411C123.22814,63.08526,122.92077,64.19024,126.11657,67.89142Z" fill="#56a8a4"/><path d="M125.52306,68.44171c-3.44312-3.47412-4.56885-3.25244-8.40137-.9917C119.99035,70.2464,121.56481,71.18487,125.52306,68.44171Z" fill="#56a8a4"/><path d="M118.00719,59.13067c3.04492-3.73486,2.228-5.37793-.33789-8.45166C115.119,54.32452,114.81139,55.4295,118.00719,59.13067Z" fill="#56a8a4"/><path d="M117.41344,59.681c-3.44287-3.47413-4.56836-3.25-8.40112-.9917C111.88121,61.48565,113.4569,62.42657,117.41344,59.681Z" fill="#56a8a4"/><path d="M108.86168,50.21563c.4668,4.4253.959,5.46,5.80127,6.15528C114.50963,51.55694,112.81359,50.85284,108.86168,50.21563Z" fill="#56a8a4"/><path d="M101.50817,76.18145a2.09138,2.09138,0,0,0-2.00147.30664l-2.938,2.28516c-1.58886,1.24707-4.00293-1.76367-2.41772-3.00635l3.28174-2.66406a1.87362,1.87362,0,0,0,.57446-1.61865V51.30157a1.90432,1.90432,0,0,0-.66113-1.689l-3.08667-2.59375c-1.58521-1.24756.7771-4.25147,2.36352-3.00879l2.91089,2.28955a2.05827,2.05827,0,0,0,2.11841.2583c4.0415-1.479,10.5271-2.21973,17.06665-2.229,6.59424,0,13.14844.75976,17.19727,2.2749a2.07925,2.07925,0,0,0,1.98974-.30664l2.90772-2.28711c1.59472-1.24951,3.949,1.76611,2.36743,3.00879l-3.38892,2.66357a2.05465,2.05465,0,0,0-.78491,1.61914V63.2879a7.26047,7.26047,0,0,1,4,.96533V52.30011l2.655-2.04346c5.88623-4.62012-1.5166-14.10254-7.39893-9.48438l-2.03613,1.59717c-4.51172-1.4331-11.04565-2.1499-17.52783-2.15722-6.47461,0-13.01538.72168-17.53687,2.15966l-2.071-1.59961c-5.887-4.623-13.41235,4.86182-7.531,9.48438l2.44678,2.041v18.1875l-2.44678,2.04345c-5.88134,4.61817,1.72315,14.105,7.60791,9.48487l2.03272-1.59717c5.50708,1.74658,12.44531,2.18115,18.20923,2.15429a28.67245,28.67245,0,0,1,2.605-4.18115C115.80211,78.63556,107.23375,78.327,101.50817,76.18145Z" fill="#56a8a4"/><path d="M121.69494,55.02911c-2.5503,3.64551-2.85791,4.74854.33911,8.45215C125.079,59.74591,124.2611,58.10333,121.69494,55.02911Z" fill="#56a8a4"/><path d="M214.41491,128.4422c-2.87354,0-5.32032,1.23047-5.55664,4.79638a5.27776,5.27776,0,0,0,5.55664,5.84375,5.41273,5.41273,0,0,0,5.20922-5.32031A5.2642,5.2642,0,0,0,214.41491,128.4422Z" fill="#56a8a4"/><path d="M195.28771,107.74542c-.51392.26074-.80347.4585-.13745.86377a68.38573,68.38573,0,0,0,13.64306,2.0459,1.92306,1.92306,0,0,1,2.06153,1.64062,45.64821,45.64821,0,0,1,.79614,8.47852c.02637,1.86035-.23389,6.30957-.23389,6.30957.23145-.05322.58252-.17627,1.01807-.27295a8.782,8.782,0,0,1,7.57227,2.67578,7.54248,7.54248,0,0,1,1.06176,7.30127c-.09424.22412-.68042.97217-.45483,1.1626.43188.36474,1.74194-.74756,2.12329-.98389a35.17089,35.17089,0,0,0,3.303-2.23193c1.70093-1.356,3.44189-2.40821,5.54809-.12305-.24365-1.38965-.59716-18.41455-.50537-20.89453a8.27668,8.27668,0,0,1,.6128-3.52735,9.48794,9.48794,0,0,1,2.73608-3.48876q2.05-1.80983,4.09082-3.624a39.07264,39.07264,0,0,0,6.47339-7.417,9.483,9.483,0,0,0,1.9292-4.18164,4.32953,4.32953,0,0,0-1.48633-3.49316c-1.48633-.917-3.05347-.16895-4.31909.772A12.95844,12.95844,0,0,0,239.7174,90.077c-1.17163,1.19629-2.28125,2.45606-3.50708,3.59473a31.73759,31.73759,0,0,1-10.07056,6.37012c-7.10938,2.78662-14.78174,3.42334-22.21436,4.90478A33.43846,33.43846,0,0,0,195.28771,107.74542Z" fill="#56a8a4"/><path d="M193.05358,90.77667a7.01734,7.01734,0,1,0,7.01611,7.01611A7.01728,7.01728,0,0,0,193.05358,90.77667Z" fill="#56a8a4"/><path d="M216.555,100.06817a7.58117,7.58117,0,0,0,7.582-7.58349,8.504,8.504,0,0,0-8.18164-8.02735,7.13585,7.13585,0,0,0-6.98144,8.02735C209.44347,96.64679,212.36876,100.06817,216.555,100.06817Z" fill="#56a8a4"/><path d="M207.00524,147.23932c-1.84937-1.37256-3.84351-2.46082-5.65283-3.92273a6.401,6.401,0,0,1-2.50708-6.39374,1.549,1.549,0,0,1,1.72143-1.129c-3.18481-4.84766-4.43115-15.86748-3.19824-16.63261,1.24023-.76954,8.38574.16953,11.55737-1.956a3.6449,3.6449,0,0,0,.84326-4.09565c-.64331-1.13135-1.88574-1.18626-3.062-1.27512a51.70891,51.70891,0,0,1-5.46948-.76672c-5.5542-1.04-10.97559-2.5457-15.57813-5.96953-3.70947-2.75977-5.75927-6.62-7.47583-10.73868a66.332,66.332,0,0,0-3.16674-7.03071,2.122,2.122,0,0,0-3.89551.48246,6.3984,6.3984,0,0,0-.26514,2.67822,37.56138,37.56138,0,0,0,.79,5.77589,39.29086,39.29086,0,0,0,3.41162,9.49414c1.1919,2.34326,2.96875,4.4082,3.78809,6.94629,4.44165,13.73584,2.87353,29.3999,2.39819,33.66308-.19653,1.75635,10.39282,6.31128,12.53931,7.29322.4353.20117,2.49023,1.36889,3.708,1.36889h1.59936C201.63073,153.03106,205.67711,149.53863,207.00524,147.23932Z" fill="#56a8a4"/><path d="M151.9254,116.56353a56.06665,56.06665,0,1,1,96.74268,38.46753H307.8922c0-84-68.45215-152.89209-152.89233-152.89209C70.55993,2.139,2.10778,71.03106,2.10778,155.03106H167.316A55.51809,55.51809,0,0,1,151.9254,116.56353Zm-27.428-.20532A50.47852,50.47852,0,1,1,174.97936,65.887c0,.83643-.02271,1.68018-.063,2.50684A58.91357,58.91357,0,0,0,158.275,85.81866C157.28551,80.18,147.31774,70.157,144.9879,67.77325c-3.76294-3.86328-7.1914-3.62158-11.00586-.05566-3.71948,3.47949-22.75488,22.31347-9.62817,22.31347h29.52734a7.45353,7.45353,0,0,0,2.34766-.50488,57.092,57.092,0,0,0-6.3208,19.96387A50.23409,50.23409,0,0,1,124.49743,116.35821Z" fill="#56a8a4"/><path d="M222.66881,145.9776c-.03125-1.60694.42237-1.47644,1.51294-2.18592a24.64931,24.64931,0,0,0,3.55615-2.61737c1.54541-1.46728,2.63965-3.00155,2.46607-5.253-.27637-3.60449-5.76294,1.2878-6.78589,2.05489a15.0909,15.0909,0,0,1-4.32739,2.27353c-5.7688,1.83838-11.85742-.37983-17.09424-2.78071a2.02907,2.02907,0,0,0-1.84717-.11985c-.6189.34522-.40625,1.08144-.34009,1.6581a3.74258,3.74258,0,0,0,1.11475,2.22968,23.94282,23.94282,0,0,0,7.55786,5.14609c1.32471.56494.90015,2.81816.90967,3.9251.01074,1.60449.042,3.72294.08008,4.72294h13.075C222.60436,152.03106,222.72106,148.59869,222.66881,145.9776Z" fill="#56a8a4"/><path d="M133.04479,73.1922c-1.10767,0-2.00513.5166-2.00513,1.15088,0,.6372.89746,1.15332,2.00513,1.15332,1.106,0,2.00366-.51612,2.00366-1.15332C135.04845,73.7088,134.15075,73.1922,133.04479,73.1922Z" fill="#fff"/><path d="M141.27428,69.05694c-1.10718,0-2.00342.51612-2.00342,1.15088s.89624,1.15088,2.00342,1.15088c1.10645,0,2.00415-.51611,2.00415-1.15088S142.38073,69.05694,141.27428,69.05694Z" fill="#fff"/><path d="M131.08532,78.3919c-.69727,0-1.26172.32325-1.26172.72364s.56445.72656,1.26172.72656,1.26342-.32617,1.26342-.72656S131.78258,78.3919,131.08532,78.3919Z" fill="#fff"/><path d="M137.48766,73.23614c.69751,0,1.26318-.32617,1.26318-.72656,0-.39795-.56567-.72412-1.26318-.72412-.69727,0-1.26172.32617-1.26172.72412C136.22594,72.91,136.79039,73.23614,137.48766,73.23614Z" fill="#fff"/><path d="M140.27208,77.87579c-.69629,0-1.262.3252-1.262.72607,0,.40039.56567.72364,1.262.72364.69727,0,1.26416-.32325,1.26416-.72364C141.53624,78.201,140.96935,77.87579,140.27208,77.87579Z" fill="#fff"/><path d="M140.63414,75.282c0-.63477-.8977-1.15088-2.00415-1.15088-1.10595,0-2.00366.51611-2.00366,1.15088,0,.63428.89771,1.15039,2.00366,1.15039C139.73644,76.43243,140.63414,75.91632,140.63414,75.282Z" fill="#fff"/><path d="M136.753,77.28448c-.696,0-1.262.32569-1.262.72608s.56592.72363,1.262.72363c.69849,0,1.26294-.32324,1.26294-.72363S137.45153,77.28448,136.753,77.28448Z" fill="#fff"/><path d="M158.275,85.76934q-1.08362,1.73951-2.04614,3.5586C158.04064,88.77179,158.57457,87.47686,158.275,85.76934Z" fill="#56a8a4"/></g></g></svg>