<svg xmlns="http://www.w3.org/2000/svg" xmlns:xlink="http://www.w3.org/1999/xlink" viewBox="0 0 146.1073 146.1072"><defs><linearGradient id="linear-gradient" x1="3932.0167" y1="-4631.1298" x2="3933.0167" y2="-4631.1298" gradientTransform="matrix(103.3135, -103.3135, -103.3135, -103.3135, -884667.22924, -72103.11147)" gradientUnits="userSpaceOnUse"><stop offset="0" stop-color="#38a380"/><stop offset="0.06807" stop-color="#4fa684"/><stop offset="0.19952" stop-color="#74ac8a"/><stop offset="0.33709" stop-color="#93b090"/><stop offset="0.48033" stop-color="#abb494"/><stop offset="0.63163" stop-color="#bcb697"/><stop offset="0.79646" stop-color="#c6b898"/><stop offset="1" stop-color="#c9b899"/></linearGradient></defs><g id="Layer_2" data-name="Layer 2"><g id="Layer_1-2" data-name="Layer 1"><circle cx="73.0537" cy="73.0537" r="72.0537" fill="#fff"/><path d="M1,73.0537H0A73.05365,73.05365,0,1,0,73.0537,0,73.054,73.054,0,0,0,0,73.0537H1.9999a71.05405,71.05405,0,1,1,20.8113,50.2425A70.82727,70.82727,0,0,1,1.9999,73.0537Z" fill="url(#linear-gradient)"/><path d="M121.3081,74.0537A48.25415,48.25415,0,1,1,73.0537,25.7989,48.25425,48.25425,0,0,1,121.3081,74.0537Z" fill="#8db1b3"/><path d="M15.04515,83.51094a2.24288,2.24288,0,0,1,2.00049.50293,3.80184,3.80184,0,0,1,1.11425,2.22754,5.75131,5.75131,0,0,1,.00391,2.54395l-1.35791.25781a6.84419,6.84419,0,0,0,.20044-1.3711,5.57713,5.57713,0,0,0-.07861-1.29687,2.06039,2.06039,0,0,0-.56543-1.20606,1.07348,1.07348,0,0,0-.94873-.24414,1.11118,1.11118,0,0,0-.76392.53418,5.77475,5.77475,0,0,0-.5166,1.70411,4.1697,4.1697,0,0,1-.7876,1.917,2.38186,2.38186,0,0,1-1.408.78125,2.13115,2.13115,0,0,1-1.87964-.458,3.33306,3.33306,0,0,1-1.032-1.99121,6.35464,6.35464,0,0,1,.07227-2.63477l1.259.23828a5.64989,5.64989,0,0,0-.09277,2.19825,1.65452,1.65452,0,0,0,.50586,1.00781,1.01187,1.01187,0,0,0,.87109.21094,1.15233,1.15233,0,0,0,.55786-.25684,1.51683,1.51683,0,0,0,.3689-.56641,8.16757,8.16757,0,0,0,.3435-1.30664,6.66524,6.66524,0,0,1,.47974-1.56933,2.25335,2.25335,0,0,1,.6604-.81543A2.38745,2.38745,0,0,1,15.04515,83.51094Z" fill="#4d4d4d"/><path d="M12.48655,73.72481a4.87224,4.87224,0,0,1,3.43555.96289,4.64482,4.64482,0,0,1,.25879,6.24023,4.90494,4.90494,0,0,1-3.36963,1.22852,4.82241,4.82241,0,0,1-3.44141-.96289,4.06658,4.06658,0,0,1-1.311-3.08789A3.98334,3.98334,0,0,1,9.1389,74.95625,4.86354,4.86354,0,0,1,12.48655,73.72481ZM12.761,80.592a3.99512,3.99512,0,0,0,2.47558-.76954,2.74621,2.74621,0,0,0-.14892-3.96777,4.0005,4.0005,0,0,0-2.53858-.5664,4.00289,4.00289,0,0,0-2.46679.76074,2.35169,2.35169,0,0,0-.77051,2.00683,2.39786,2.39786,0,0,0,.9292,1.96289A3.95422,3.95422,0,0,0,12.761,80.592Z" fill="#4d4d4d"/><path d="M9.80735,67.08614a2.43422,2.43422,0,0,0,.65772,2.085,3.79837,3.79837,0,0,0,2.36475,1.0039,3.82282,3.82282,0,0,0,2.55322-.4082,2.47863,2.47863,0,0,0,1.0708-1.91309,5.32693,5.32693,0,0,0,.01465-1.11425q-.05053-.54492-.16065-1.13965l1.24561.14355a6.80735,6.80735,0,0,1,.11914,2.43164,3.84979,3.84979,0,0,1-1.53027,2.87891,4.95588,4.95588,0,0,1-3.50245.66211,5.4601,5.4601,0,0,1-2.36474-.792,3.65045,3.65045,0,0,1-1.42139-1.66114,4.52612,4.52612,0,0,1-.29053-2.333,5.70827,5.70827,0,0,1,.86329-2.4668l1.14843.666a7.92283,7.92283,0,0,0-.48388.91406A3.49145,3.49145,0,0,0,9.80735,67.08614Z" fill="#4d4d4d"/><path d="M18.29271,63.841l-8.7251-1.95313.32178-1.43652,8.72509,1.95313Z" fill="#4d4d4d"/><path d="M20.945,54.9045l-2.64063.0498L17.1931,58.21211l2.0664,1.63575-.501,1.46875-7.41016-6.08692L11.865,53.715l9.585-.291Zm-3.958.00976-2.57617.0127c-.17383.00683-.44482.00293-.81152-.00586q-.55078-.01611-.80225-.03614a13.49976,13.49976,0,0,1,1.3999.99122l1.94336,1.52246Z" fill="#4d4d4d"/><path d="M21.85667,52.49825l-8.001-3.99121.65723-1.31739,6.87891,3.43164L23.094,47.21016l1.12207.55957Z" fill="#4d4d4d"/><path d="M24.487,42.74825a2.46778,2.46778,0,0,1-.85742-1.17188,4.12759,4.12759,0,0,1-.05566-1.84961,5.13812,5.13812,0,0,1-1.39551-.07812,2.33,2.33,0,0,1-.89356-.42969,1.78606,1.78606,0,0,1-.74414-1.43164,2.77674,2.77674,0,0,1,.68262-1.74512,2.57209,2.57209,0,0,1,1.46582-1.02539,1.74358,1.74358,0,0,1,1.49316.37793,2.09491,2.09491,0,0,1,.74122,1.10742,4.55284,4.55284,0,0,1,.041,1.7959l2.92188-.4209a5.51788,5.51788,0,0,0-1.001-1.83789l.918-1.17383a6.70287,6.70287,0,0,1,1.38086,2.83106l2.54492-.36426L30.57884,38.802l-1.26465.17773a4.45209,4.45209,0,0,1-1,2.915,3.38774,3.38774,0,0,1-1.89355,1.34082A2.24033,2.24033,0,0,1,24.487,42.74825Zm-2.31347-4.58594a1.38713,1.38713,0,0,0,.70019.28711,4.2849,4.2849,0,0,0,.92774-.00586,3.5046,3.5046,0,0,0,.02539-1.21973,1.16572,1.16572,0,0,0-.42676-.69043.80871.80871,0,0,0-.666-.17969,1.03166,1.03166,0,0,0-.626.41211,1.14718,1.14718,0,0,0-.28125.7627A.83091.83091,0,0,0,22.17357,38.16231Zm5.21386,2.91308a2.947,2.947,0,0,0,.67188-1.92089l-3.26856.4375a3.06266,3.06266,0,0,0,.05957,1.1875,1.43988,1.43988,0,0,0,.501.70507,1.24013,1.24013,0,0,0,1.03125.26465A1.677,1.677,0,0,0,27.38743,41.07539Z" fill="#4d4d4d"/><path d="M38.88255,31.03731l-3.87988,3.29883-5.793-6.80957,3.87988-3.29981.79981.94043L31.1306,27.51387l1.57715,1.85449,2.585-2.19922.793.93165L33.50071,30.3l1.81836,2.1377L38.07786,30.091Z" fill="#4d4d4d"/><path d="M39.362,21.18477a2.43481,2.43481,0,0,0-1.19238,1.832,3.802,3.802,0,0,0,.72559,2.46484,3.822,3.822,0,0,0,1.93652,1.7129,2.47929,2.47929,0,0,0,2.1582-.3877,5.36728,5.36728,0,0,0,.87012-.69629c.25879-.25684.51953-.54.77832-.84863l.67969,1.05371a6.77592,6.77592,0,0,1-1.80176,1.63574,3.85285,3.85285,0,0,1-3.19629.64746,4.95527,4.95527,0,0,1-2.73438-2.28515,5.46941,5.46941,0,0,1-.8916-2.33008,3.64774,3.64774,0,0,1,.38086-2.15235,4.52112,4.52112,0,0,1,1.61719-1.70605,5.7114,5.7114,0,0,1,2.4541-.90039l.21582,1.31055a7.99063,7.99063,0,0,0-1.01465.206A3.50233,3.50233,0,0,0,39.362,21.18477Z" fill="#4d4d4d"/><path d="M52.59153,18.40938a4.86575,4.86575,0,0,1,.36426,3.54883,4.64619,4.64619,0,0,1-5.71,2.52929,4.902,4.902,0,0,1-2.37891-2.68457,4.82122,4.82122,0,0,1-.36621-3.55468,4.05857,4.05857,0,0,1,2.39161-2.35157,3.98185,3.98185,0,0,1,3.32617-.15039A4.85879,4.85879,0,0,1,52.59153,18.40938Zm-6.28808,2.77344a3.99168,3.99168,0,0,0,1.624,2.0205,2.74345,2.74345,0,0,0,3.63574-1.59375,3.99491,3.99491,0,0,0-.40332-2.56933,4.00984,4.00984,0,0,0-1.6123-2.01563,2.3494,2.3494,0,0,0-2.14844.01856,2.40163,2.40163,0,0,0-1.48633,1.585A3.95108,3.95108,0,0,0,46.30345,21.18282Z" fill="#4d4d4d"/><path d="M63.26927,20.11348l-1.751.43164-6.00293-5.86035-.04687.01172.124.3789q.356,1.084.58106,1.99805l1.11035,4.51367-1.29785.31934-2.13672-8.68164,1.73437-.42774,5.98242,5.82813.03614-.00879q-.04687-.1333-.294-.9834-.24609-.8496-.36523-1.33008L59.823,11.75411l1.30957-.32227Z" fill="#4d4d4d"/><path d="M73.12864,14.8752a4.86944,4.86944,0,0,1-.86621,3.46191,4.64329,4.64329,0,0,1-6.22949.4336,4.89641,4.89641,0,0,1-1.32324-3.333,4.81728,4.81728,0,0,1,.86621-3.46777,4.06549,4.06549,0,0,1,3.0498-1.39747,3.9832,3.9832,0,0,1,3.17871.99219A4.861,4.861,0,0,1,73.12864,14.8752ZM66.2722,15.343a3.99556,3.99556,0,0,0,.83887,2.45313,2.74682,2.74682,0,0,0,3.96191-.26074,4.004,4.004,0,0,0,.49512-2.55274,4.00767,4.00767,0,0,0-.83008-2.44531,2.34552,2.34552,0,0,0-2.02735-.71289,2.39848,2.39848,0,0,0-1.93652.9834A3.95812,3.95812,0,0,0,66.2722,15.343Z" fill="#4d4d4d"/><path d="M79.01243,19.80293l-1.71386-7.72265-.04883-.00586q-.09083,1.66406-.2627,3.10937l-.51269,4.31836L75.1472,19.344,76.20091,10.466l2.06055.24414,1.6455,7.3584.03711.0039,3.39356-6.75976,2.0664.24609L84.35032,20.4377l-1.40527-.168.52148-4.39062q.07764-.66212.23731-1.72071c.10644-.70605.17773-1.13281.21094-1.28027l-.04883-.00586-3.56348,7.084Z" fill="#4d4d4d"/><path d="M86.55833,21.12813l2.25488-8.65234,1.42383.37109-2.25488,8.65234Z" fill="#4d4d4d"/><path d="M96.43528,16.03731a2.43917,2.43917,0,0,0-2.18359.13281,3.7999,3.7999,0,0,0-1.54785,2.05078,3.82055,3.82055,0,0,0-.22363,2.57617,2.47765,2.47765,0,0,0,1.59668,1.502,5.28313,5.28313,0,0,0,1.07617.28515q.542.0835,1.14551.1211l-.44141,1.17383a6.83132,6.83132,0,0,1-2.38867-.47559,3.84856,3.84856,0,0,1-2.4209-2.18262,4.94938,4.94938,0,0,1,.208-3.55859,5.47961,5.47961,0,0,1,1.34179-2.10352,3.66013,3.66013,0,0,1,1.95606-.97461,4.52392,4.52392,0,0,1,2.334.28516,5.7029,5.7029,0,0,1,2.1836,1.43652l-.92481.95215a7.89831,7.89831,0,0,0-.76953-.6914A3.52039,3.52039,0,0,0,96.43528,16.03731Z" fill="#4d4d4d"/><path d="M100.42259,26.55879l4.4834-7.73633,1.27343.73829L101.696,27.29512Z" fill="#4d4d4d"/><path d="M109.76341,32.94161l-1.44043-1.085.75195-8.35546-.03906-.0293-.21582.33594q-.61377.95946-1.18066,1.71191l-2.79786,3.71191-1.06836-.80468,5.38184-7.14063,1.42676,1.07617-.74024,8.31836.0293.02246q.07472-.12158.57715-.84863.50244-.728.7998-1.124l2.82032-3.74121,1.07715.8125Z" fill="#4d4d4d"/><path d="M119.64183,31.76094a2.43471,2.43471,0,0,0-2.03028-.81348,3.80144,3.80144,0,0,0-2.27636,1.19141,3.82478,3.82478,0,0,0-1.30274,2.2334,2.47725,2.47725,0,0,0,.80078,2.041,5.29265,5.29265,0,0,0,.85254.71777q.45411.30615.9834.59863l-.90039.87207a6.77351,6.77351,0,0,1-1.957-1.44922,3.8526,3.8526,0,0,1-1.25586-3.00879,4.95765,4.95765,0,0,1,1.709-3.1289,5.46215,5.46215,0,0,1,2.11133-1.32617,3.64146,3.64146,0,0,1,2.18555-.04493A4.50741,4.50741,0,0,1,120.55,30.89668a5.71528,5.71528,0,0,1,1.36035,2.2334l-1.24219.46485a7.90493,7.90493,0,0,0-.40039-.95411A3.50939,3.50939,0,0,0,119.64183,31.76094Z" fill="#4d4d4d"/><path d="M116.737,40.33418l7.17627-5.332.87793,1.17969-6.16992,4.58594,2.27441,3.06054-1.00634.748Z" fill="#4d4d4d"/><path d="M131.89622,47.60567l-5.085,2.75976a3.428,3.428,0,0,1-1.728.45118,2.8474,2.8474,0,0,1-1.59521-.543,4.33766,4.33766,0,0,1-1.27637-1.51172,3.634,3.634,0,0,1-.46875-2.709,3.18031,3.18031,0,0,1,1.68457-1.97265l5.06348-2.748.70605,1.29883-4.97217,2.69922a2.2477,2.2477,0,0,0-1.189,1.23242,2.13763,2.13763,0,0,0,.29639,1.64648,1.88036,1.88036,0,0,0,2.90088.79493l4.96093-2.69336Z" fill="#4d4d4d"/><path d="M128.9409,57.95235a2.246,2.246,0,0,1-2.0564-.167,3.79973,3.79973,0,0,1-1.46557-2.0127,5.74789,5.74789,0,0,1-.42334-2.50879l1.29663-.47754a6.80688,6.80688,0,0,0,.02832,1.38379,5.59314,5.59314,0,0,0,.2915,1.26856,2.05781,2.05781,0,0,0,.75635,1.0957,1.07305,1.07305,0,0,0,.97583.083,1.109,1.109,0,0,0,.66528-.65235,5.76345,5.76345,0,0,0,.22925-1.76465,4.17865,4.17865,0,0,1,.46045-2.02148A2.38149,2.38149,0,0,1,130.959,51.176a2.13753,2.13753,0,0,1,1.92993.14258,3.33128,3.33128,0,0,1,1.34594,1.79394,6.34854,6.34854,0,0,1,.3628,2.61036l-1.281-.02735a5.65108,5.65108,0,0,0-.27075-2.18359,1.6515,1.6515,0,0,0-.6648-.91016,1.01129,1.01129,0,0,0-.89428-.06543,1.15158,1.15158,0,0,0-.50806.34571,1.50813,1.50813,0,0,0-.27075.61816,8.271,8.271,0,0,0-.12329,1.3457,6.68209,6.68209,0,0,1-.21411,1.62793,2.25651,2.25651,0,0,1-.51734.91309A2.40055,2.40055,0,0,1,128.9409,57.95235Z" fill="#4d4d4d"/><path d="M126.9658,60.51875l8.647-2.27441.37452,1.42285-8.647,2.27442Z" fill="#4d4d4d"/><path d="M133.59593,71.4543a4.8742,4.8742,0,0,1-3.51148-.63281,4.64367,4.64367,0,0,1-.85034-6.18653,4.89242,4.89242,0,0,1,3.23731-1.543,4.8153,4.8153,0,0,1,3.51758.63183,4.06314,4.06314,0,0,1,1.59863,2.94824,3.98169,3.98169,0,0,1-.77588,3.23731A4.86611,4.86611,0,0,1,133.59593,71.4543Zm-.92578-6.81055a3.98637,3.98637,0,0,0-2.39112,1.002,2.74521,2.74521,0,0,0,.52539,3.93457,5.04177,5.04177,0,0,0,4.96387-.66895A2.3488,2.3488,0,0,0,136.345,66.841a2.39939,2.39939,0,0,0-1.11181-1.86621A3.95207,3.95207,0,0,0,132.67015,64.64375Z" fill="#4d4d4d"/><path d="M128.85374,81.30782l.06568-1.80274,7.28149-4.166.00171-.04883-.39844.01562q-1.13964.04542-2.08105.01075l-4.645-.16895.04858-1.33594,8.93555.3252-.06519,1.78515-7.24414,4.15528-.00122.03711q.141-.00733,1.02564-.0127.88438-.00439,1.37963.01367l4.68116.16993-.04883,1.34765Z" fill="#4d4d4d"/><path d="M75.6826,62.086A20.43235,20.43235,0,1,1,55.25,41.6543,20.43223,20.43223,0,0,1,75.6826,62.086Z" fill="#fff"/><path d="M112.2373,82.6416A23.19285,23.19285,0,1,1,89.0445,59.4492,23.193,23.193,0,0,1,112.2373,82.6416Z" fill="#fff"/><path d="M112.2373,82.6416h-.5a22.69308,22.69308,0,1,1-6.6466-16.0459,22.62147,22.62147,0,0,1,6.6466,16.0459h.9999a23.6928,23.6928,0,1,0-23.6927,23.6931,23.69279,23.69279,0,0,0,23.6927-23.6931Z" fill="#8db1b3"/><path d="M62.7886,56.5918v4.8379a2.96137,2.96137,0,0,0-1.6699-.3906V56.1875a.83758.83758,0,0,1,.3198-.6552l1.3726-1.0782c.6401-.5029-.3121-1.7236-.9576-1.2177l-1.1767.9257a.84161.84161,0,0,1-.8052.1241,22.03072,22.03072,0,0,0-6.9605-.9209,22.36246,22.36246,0,0,0-6.9077.9023.83336.83336,0,0,1-.8574-.1045l-1.1782-.9267c-.6421-.503-1.5982.7128-.9566,1.2177l1.337,1.0498a.83537.83537,0,0,1,.3554.6836v8.169a.83809.83809,0,0,1-.3203.6552l-1.3721,1.0782c-.6416.5029.3135,1.7217.9566,1.2168l1.1782-.9248a.8353.8353,0,0,1,.8047-.1241,23.79068,23.79068,0,0,0,8.2974.8936,11.61057,11.61057,0,0,0-1.0557,1.6924,25.47146,25.47146,0,0,1-7.3716-.8721l-.8227.6465c-2.3819,1.8701-5.3975-1.9697-3.0171-3.8389l1.0527-.8271V56.5908l-1.0527-.8261c-2.3804-1.8711.6343-5.71,3.0171-3.8389l.8227.6475a25.21021,25.21021,0,0,1,7.0903-.8741,25.36416,25.36416,0,0,1,7.0904.8731l.8222-.6465c2.3809-1.8691,5.3995,1.9688,3.0171,3.8389ZM52.2647,62.7237c1.5512-.9151,2.0068-1.0049,3.4004.4013C54.063,64.2354,53.4258,63.8555,52.2647,62.7237Zm-3.3433-6.9756c.189,1.791.3882,2.2099,2.3481,2.4912C51.2075,56.291,50.521,56.0059,48.9214,55.7481Zm3.5649.1875c-1.0322,1.4756-1.1567,1.9228.1368,3.4209C53.8555,57.8448,53.5249,57.1797,52.4863,55.9356Zm-3.5039,3.2422c1.5513-.9141,2.0069-1.0049,3.4004.4013C50.7813,60.6905,50.1436,60.3096,48.9824,59.1778Zm5.1333-1.4815c-1.0322,1.4756-1.1567,1.9219.1372,3.4209C55.4854,59.6055,55.1543,58.9405,54.1157,57.6963Zm-3.5034,3.2422c1.5508-.915,2.0064-1.0059,3.4004.4014C52.4107,62.4512,51.773,62.0694,50.6123,60.9385Zm5.1558-1.458c-1.0318,1.4766-1.1563,1.9238.1372,3.4219C57.1377,61.3907,56.8071,60.7256,55.7681,59.4805Zm-.5762,12.2227H67.1431c5.1914,0-2.272-7.5303-3.5996-8.8887-1.523-1.5635-2.9107-1.5059-4.4546-.0625C57.5835,64.1602,49.8789,71.7032,55.1919,71.7032Zm2.7246-4.5508c.2822,0,.5113.1308.5113.2929s-.2291.294-.5113.294-.5107-.1319-.5107-.294S57.6343,67.1524,57.9165,67.1524Zm3.7183-.209c.2822,0,.5117.1318.5117.2939s-.2295.293-.5117.293c-.2818,0-.5108-.1309-.5108-.293S61.353,66.9434,61.6348,66.9434Zm-1.4243-.2393c.2827,0,.5112.1319.5112.294s-.2285.2929-.5112.2929c-.2818,0-.5108-.1308-.5108-.2929S59.9287,66.7041,60.2105,66.7041Zm.2973-2.2256c.2823,0,.5113.1319.5113.293,0,.1621-.229.294-.5113.294s-.5107-.1319-.5107-.294C59.9971,64.6104,60.2256,64.4785,60.5078,64.4785Zm.4624.9493c.4478,0,.8111.2089.8111.4658s-.3633.4658-.8111.4658-.811-.209-.811-.4658S60.5225,65.4278,60.9702,65.4278Zm-2.2607-.3799c.4477,0,.811.209.811.4658,0,.2578-.3633.4668-.811.4668-.4483,0-.8115-.209-.8115-.4668C57.898,65.2569,58.2612,65.0479,58.7095,65.0479Zm3.331-1.6738c.4478,0,.8111.2089.8111.4658s-.3633.4658-.8111.4658c-.4482,0-.811-.209-.811-.4658S61.5923,63.3741,62.0405,63.3741Z" fill="#8db1b3"/><path d="M104.2012,71.0352a1.53179,1.53179,0,0,0-1.7481.3125,5.23022,5.23022,0,0,0-.5678.5342c-.4742.4843-.9234.9941-1.4195,1.455a12.84441,12.84441,0,0,1-4.0761,2.5782c-2.8775,1.1279-5.9829,1.3857-8.9912,1.9853a13.53217,13.53217,0,0,0-3.4961,1.1328c-.208.1055-.3252.1856-.0557.3496a27.68314,27.68314,0,0,0,5.522.8282.77807.77807,0,0,1,.8344.664,18.46989,18.46989,0,0,1,.3223,3.4317c.0107.7529-.0947,2.5537-.0947,2.5537.0937-.0215.2358-.0713.4121-.1104a3.55442,3.55442,0,0,1,3.0649,1.083,3.05288,3.05288,0,0,1,.4297,2.9551c-.0381.0908-.2754.3936-.1841.4707.1748.1475.7051-.3027.8594-.3984a14.20047,14.20047,0,0,0,1.3369-.9033c.6885-.5489,1.3931-.9747,2.2456-.0498-.0986-.5625-.2417-7.4532-.2046-8.4571a3.35183,3.35183,0,0,1,.2481-1.4277,3.84119,3.84119,0,0,1,1.1074-1.4121q.8298-.73245,1.6558-1.4668a15.81226,15.81226,0,0,0,2.6201-3.002,3.83886,3.83886,0,0,0,.7808-1.6924A1.75229,1.75229,0,0,0,104.2012,71.0352ZM95.2881,91.2715a6.09757,6.09757,0,0,1-1.7515.919c-2.3349.7441-4.7993-.1543-6.9189-1.126a.82091.82091,0,0,0-.7476-.0488c-.2505.1396-.1645.4375-.1377.6709a1.515,1.515,0,0,0,.4512.9023,9.69282,9.69282,0,0,0,3.0591,2.083c.5361.2285.3643,1.1797.3682,1.6279.0068,1.0127.0297,2.0284.0605,3.043a39.13862,39.13862,0,0,0,5.252-.2568c.0078-1.3194.0878-3.2207.0615-4.5391-.0127-.6504.1709-.6172.6123-.9043a9.96557,9.96557,0,0,0,1.4394-1.0693,2.55694,2.55694,0,0,0,.9981-2.1309C97.9229,88.9834,95.7022,90.961,95.2881,91.2715Zm-12.29-13.4258a2.8403,2.8403,0,1,0-2.8413-2.8408A2.84011,2.84011,0,0,0,82.9981,77.8457Zm9.5122-1.9199a3.06833,3.06833,0,0,0,3.0688-3.0693,3.442,3.442,0,0,0-3.3115-3.2491,2.88814,2.88814,0,0,0-2.8257,3.2491A3.20623,3.20623,0,0,0,92.5103,75.9258Zm-.8662,15.791a2.19067,2.19067,0,0,0,2.1084-2.1533,2.13074,2.13074,0,0,0-2.1084-2.1533,1.97814,1.97814,0,0,0-2.2491,1.9414A2.13619,2.13619,0,0,0,91.6441,91.7168Zm-6.3018-.8642a.63.63,0,0,1,.6968-.4619c-1.2891-1.962-1.7935-6.4249-1.2945-6.7344.502-.3115,3.3941.0674,4.6778-.793a1.476,1.476,0,0,0,.3413-1.6582c-.2603-.458-.7632-.4805-1.2393-.5166a20.8661,20.8661,0,0,1-2.2138-.3105,14.82364,14.82364,0,0,1-6.3052-2.4161,9.76016,9.76016,0,0,1-3.0259-4.3466,26.853,26.853,0,0,0-1.2817-2.8457.8589.8589,0,0,0-1.5767.1953,2.59037,2.59037,0,0,0-.1074,1.084,15.206,15.206,0,0,0,.3198,2.3378,15.90055,15.90055,0,0,0,1.3809,3.8428,20.11466,20.11466,0,0,1,1.5332,2.8115c1.7978,5.5596,1.1631,11.8995.9707,13.625-.0796.711,4.2065,2.5938,5.0752,2.9913.2534.1171,1.8647.6982,1.8701.7802a13.95251,13.95251,0,0,0,3.4814-3.3799c-.7485-.5556-1.5556-1.0156-2.288-1.6074A2.60505,2.60505,0,0,1,85.3423,90.8526Z" fill="#8db1b3" fill-rule="evenodd"/></g></g></svg>