<svg xmlns="http://www.w3.org/2000/svg" xmlns:xlink="http://www.w3.org/1999/xlink" viewBox="0 0 310 310"><defs><linearGradient id="New_Gradient_Swatch_7" x1="45.39843" y1="264.60157" x2="264.60153" y2="45.39847" gradientUnits="userSpaceOnUse"><stop offset="0" stop-color="#38a380"/><stop offset="0.06811" stop-color="#4fa684"/><stop offset="0.19954" stop-color="#74ac8a"/><stop offset="0.33708" stop-color="#93b090"/><stop offset="0.4803" stop-color="#abb494"/><stop offset="0.63159" stop-color="#bcb697"/><stop offset="0.79642" stop-color="#c6b898"/><stop offset="1" stop-color="#c9b899"/></linearGradient></defs><g id="Layer_2" data-name="Layer 2"><g id="Layer_1-2" data-name="Layer 1"><circle cx="155" cy="155" r="154" fill="#fff" stroke-miterlimit="10" stroke-width="2" stroke="url(#New_Gradient_Swatch_7)"/><path d="M57.2445,199.46664H55.49743l-.50391-9.919q-.082-1.39746-.082-2.89844H54.85q-.25781.73976-.627,1.5879-.3706.84814-5.18066,11.22949H47.25426l-.63769-15.02735h1.74707L48.683,193.7l.02051.90527q0,1.00635-.10352,2.65137h.0625q.91407-2.49756,1.60352-3.93653l4.16211-8.88086h1.83008l.4414,8.83985q.0923,1.57177.09278,3.124l-.00977.85352h.0918q.772-2.30274,1.34668-3.63868l3.97754-9.17871h1.87109Z" fill="#232323"/><path d="M68.8695,188.05746a4.115,4.115,0,0,1,3.083,1.15625,4.35579,4.35579,0,0,1,1.13086,3.18164,9.12072,9.12072,0,0,1-.74023,3.64844,6.313,6.313,0,0,1-2.00391,2.65234,4.68725,4.68725,0,0,1-2.85742.93457,4.09543,4.09543,0,0,1-3.09375-1.16113,4.38229,4.38229,0,0,1-1.12109-3.17578,9.10147,9.10147,0,0,1,.751-3.67481,6.22831,6.22831,0,0,1,2.02442-2.6416A4.71944,4.71944,0,0,1,68.8695,188.05746Zm2.42578,4.10156a2.80856,2.80856,0,0,0-.64258-1.917,2.19519,2.19519,0,0,0-1.74219-.73535,3.01049,3.01049,0,0,0-2.00976.76074,4.88924,4.88924,0,0,0-1.377,2.1123,8.78414,8.78414,0,0,0-.48828,3.00684,3.02914,3.02914,0,0,0,.65235,2.08105,2.37657,2.37657,0,0,0,1.876.73438,2.8335,2.8335,0,0,0,1.92188-.75,4.89008,4.89008,0,0,0,1.33105-2.13281A9.65521,9.65521,0,0,0,71.29528,192.159Z" fill="#232323"/><path d="M81.80016,187.99593a4.70245,4.70245,0,0,1,1.2334.14356l-.37012,1.542a4.5275,4.5275,0,0,0-1.0791-.13379,2.85631,2.85631,0,0,0-1.75293.61719,5.41582,5.41582,0,0,0-1.42871,1.71094,8.74245,8.74245,0,0,0-.89942,2.43066l-1.0996,5.16016H74.67711L77.08239,188.201H78.5111l-.22657,2.08692h.10352a10.10425,10.10425,0,0,1,1.22266-1.40332,3.87775,3.87775,0,0,1,1.01269-.65723A2.90543,2.90543,0,0,1,81.80016,187.99593Z" fill="#232323"/><path d="M85.79821,193.72054l5.40722-5.51953h2.06543l-4.82031,4.80078,3.03223,6.46485H89.5609l-2.416-5.38574-1.5625,1.26367-.84278,4.12207H82.99254l3.3916-15.99317h1.748q-.74121,3.45264-1.32617,6.1875a36.6563,36.6563,0,0,1-1.04883,4.05957Z" fill="#232323"/><path d="M95.00719,199.46664H93.28063L95.6859,188.201h1.72656Zm1.16211-14.14356a1.35266,1.35266,0,0,1,.32813-.94043,1.09637,1.09637,0,0,1,.85351-.36425.80835.80835,0,0,1,.9043.9248,1.395,1.395,0,0,1-.34375.95605,1.03693,1.03693,0,0,1-.79688.39063.95067.95067,0,0,1-.67871-.252A.93625.93625,0,0,1,96.1693,185.32308Z" fill="#232323"/><path d="M105.51207,199.46664l1.52149-7.11231a9.39777,9.39777,0,0,0,.20508-1.48047,1.46061,1.46061,0,0,0-.36524-1.03808,1.52873,1.52873,0,0,0-1.166-.39063,3.04514,3.04514,0,0,0-1.78321.61621,5.4924,5.4924,0,0,0-1.53222,1.75782,9.27824,9.27824,0,0,0-1.002,2.76562l-1.03808,4.88184H98.62536l2.40527-11.26563h1.42871l-.22656,2.08692h.10351a6.87,6.87,0,0,1,1.90625-1.77344,3.833,3.833,0,0,1,1.90625-.51856,2.88278,2.88278,0,0,1,2.06153.71387,2.6236,2.6236,0,0,1,.75488,2,8.40079,8.40079,0,0,1-.23633,1.84961l-1.46973,6.90723Z" fill="#232323"/><path d="M121.475,188.201l-.25683,1.10059-2.16895.24609a2.89507,2.89507,0,0,1,.4209,1.624,4.17058,4.17058,0,0,1-1.19726,3.12988,4.38769,4.38769,0,0,1-3.20118,1.167,3.46273,3.46273,0,0,1-.86425-.082q-1.42822.54492-1.42871,1.3457a.54512.54512,0,0,0,.33984.56055,4.07564,4.07564,0,0,0,.98633.2207l1.20312.14453a5.35076,5.35076,0,0,1,2.69727.9043,2.41358,2.41358,0,0,1,.83789,1.99414,3.35466,3.35466,0,0,1-1.5,2.92871,7.3598,7.3598,0,0,1-4.22461,1.03809,5.5725,5.5725,0,0,1-3.125-.75488,2.42,2.42,0,0,1-1.13086-2.13282,2.64887,2.64887,0,0,1,.74023-1.87109,5.76905,5.76905,0,0,1,2.39454-1.34668,1.33744,1.33744,0,0,1-.80079-1.24316,1.63584,1.63584,0,0,1,.52344-1.21778,5.3932,5.3932,0,0,1,1.46-.95117,2.679,2.679,0,0,1-1.05859-.97168,2.70684,2.70684,0,0,1-.41113-1.49512,4.51444,4.51444,0,0,1,1.22851-3.26855,4.16971,4.16971,0,0,1,3.13965-1.27442,6.2097,6.2097,0,0,1,1.583.20508ZM110.5277,201.47054a1.44615,1.44615,0,0,0,.66894,1.25391,3.48834,3.48834,0,0,0,1.9834.46289,5.54928,5.54928,0,0,0,2.92383-.65234,2.05831,2.05831,0,0,0,1.05371-1.84571,1.15111,1.15111,0,0,0-.55469-1.00683,4.4478,4.4478,0,0,0-1.8916-.51367l-1.63379-.165a3.71516,3.71516,0,0,0-1.8916.90527A2.112,2.112,0,0,0,110.5277,201.47054Zm2.85742-8.99316a1.79048,1.79048,0,0,0,.46289,1.331,1.74889,1.74889,0,0,0,1.28516.457,2.37972,2.37972,0,0,0,1.418-.43164,2.74946,2.74946,0,0,0,.93066-1.18653,4.12142,4.12142,0,0,0,.32324-1.63965,1.71745,1.71745,0,0,0-.45215-1.28515,1.78019,1.78019,0,0,0-1.29492-.44141,2.40729,2.40729,0,0,0-1.40332.416,2.73224,2.73224,0,0,0-.93554,1.16113A3.916,3.916,0,0,0,113.38512,192.47738Z" fill="#232323"/><path d="M130.24157,198.26449a5.58575,5.58575,0,0,0,1.48046-.26758v1.32617a4.75058,4.75058,0,0,1-.86328.2461,4.4539,4.4539,0,0,1-.82226.10351,2.85742,2.85742,0,0,1-1.96875-.6123,2.32344,2.32344,0,0,1-.6836-1.82422,7.477,7.477,0,0,1,.18555-1.542l1.30567-6.1875H127.1068l.14453-.75,1.90137-.80176,1.28418-2.34375h1.00781l-.56543,2.58984h2.81641l-.26758,1.30567h-2.80566l-1.32618,6.208a7.338,7.338,0,0,0-.18457,1.35743,1.21909,1.21909,0,0,0,.29785.88379A1.1053,1.1053,0,0,0,130.24157,198.26449Z" fill="#232323"/><path d="M139.61657,188.05746a4.115,4.115,0,0,1,3.083,1.15625,4.35579,4.35579,0,0,1,1.13086,3.18164,9.12072,9.12072,0,0,1-.74023,3.64844,6.313,6.313,0,0,1-2.00391,2.65234,4.68725,4.68725,0,0,1-2.85742.93457,4.09543,4.09543,0,0,1-3.09375-1.16113,4.38229,4.38229,0,0,1-1.12109-3.17578,9.10147,9.10147,0,0,1,.751-3.67481,6.22831,6.22831,0,0,1,2.02442-2.6416A4.71944,4.71944,0,0,1,139.61657,188.05746Zm2.42578,4.10156a2.80856,2.80856,0,0,0-.64258-1.917,2.19519,2.19519,0,0,0-1.74219-.73535,3.01049,3.01049,0,0,0-2.00976.76074,4.88924,4.88924,0,0,0-1.377,2.1123,8.78414,8.78414,0,0,0-.48828,3.00684,3.02914,3.02914,0,0,0,.65235,2.08105,2.37657,2.37657,0,0,0,1.876.73438,2.8335,2.8335,0,0,0,1.92188-.75,4.89008,4.89008,0,0,0,1.33105-2.13281A9.65521,9.65521,0,0,0,142.04235,192.159Z" fill="#232323"/><path d="M153.35875,199.46664l-.32812-6.1875q-.04248-.9668-.041-1.76758V189.908h-.09277l-.51367,1.21289-.85352,1.94239-2.99121,6.40332h-2.07617l-.44238-11.26563h1.68652l.18457,6.10547v.90527q0,1.51026-.082,2.76465h.06152q.4834-1.27442,1.40821-3.30957l3.03222-6.46582H154.181l.38086,6.10547q.06152,1.72706.06152,2.69336v.54492l-.02051.43164h.06153q.2871-.88476.85351-2.24609.56544-1.3623,3.31934-7.5293h1.83008l-5.20117,11.26563Z" fill="#232323"/><path d="M166.475,187.99593a2.90714,2.90714,0,0,1,1.68555.50879,3.30635,3.30635,0,0,1,1.15137,1.46485h.1123l.68946-1.76856h1.30468l-2.39453,11.26563h-1.36718l.26757-2.14844h-.083q-1.83985,2.354-3.875,2.35449a2.70963,2.70963,0,0,1-2.24024-1.01758,4.35271,4.35271,0,0,1-.8125-2.78613,10.60292,10.60292,0,0,1,.73047-3.96777,6.85121,6.85121,0,0,1,2.01465-2.86719A4.38021,4.38021,0,0,1,166.475,187.99593ZM164.52184,198.244a2.89381,2.89381,0,0,0,1.9834-.95117,7.042,7.042,0,0,0,1.60351-2.47754,8.10526,8.10526,0,0,0,.61719-3.05762,2.39489,2.39489,0,0,0-.57617-1.68554,1.95493,1.95493,0,0,0-1.51074-.627,2.83172,2.83172,0,0,0-1.98926.88379,5.95909,5.95909,0,0,0-1.44336,2.39453A9.65469,9.65469,0,0,0,162.682,195.91a2.70089,2.70089,0,0,0,.48242,1.75293A1.6694,1.6694,0,0,0,164.52184,198.244Z" fill="#232323"/><path d="M179.5277,187.99593a4.70245,4.70245,0,0,1,1.2334.14356l-.37012,1.542a4.5275,4.5275,0,0,0-1.0791-.13379,2.85631,2.85631,0,0,0-1.75293.61719,5.41582,5.41582,0,0,0-1.42871,1.71094,8.74245,8.74245,0,0,0-.89942,2.43066l-1.09961,5.16016h-1.72656l2.40528-11.26563h1.42871l-.22657,2.08692h.10352a10.10425,10.10425,0,0,1,1.22266-1.40332,3.87775,3.87775,0,0,1,1.01269-.65723A2.90543,2.90543,0,0,1,179.5277,187.99593Z" fill="#232323"/><path d="M186.7025,188.01644a2.99812,2.99812,0,0,1,2.8877,1.95313h.10254a23.89819,23.89819,0,0,1,.46289-2.81641l.80176-3.67969h1.70605l-3.3916,15.99317h-1.42871l.22558-2.14844h-.082a7.73479,7.73479,0,0,1-1.94238,1.81934,3.63112,3.63112,0,0,1-1.87109.53515,2.69186,2.69186,0,0,1-2.23047-1.00781,4.382,4.382,0,0,1-.80176-2.7959,10.65643,10.65643,0,0,1,.74023-4.0293,6.723,6.723,0,0,1,1.999-2.82617A4.43072,4.43072,0,0,1,186.7025,188.01644ZM184.74938,198.244a2.99339,2.99339,0,0,0,1.99414-.96191,6.7589,6.7589,0,0,0,1.62891-2.45606,8.11324,8.11324,0,0,0,.60156-3.04785,2.46059,2.46059,0,0,0-.55567-1.7373,2.10081,2.10081,0,0,0-1.61328-.59571,2.74938,2.74938,0,0,0-1.92773.84766,5.96847,5.96847,0,0,0-1.42871,2.38477,9.69585,9.69585,0,0,0-.53907,3.23242Q182.90953,198.24349,184.74938,198.244Z" fill="#232323"/><path d="M199.83825,196.27035a3.01527,3.01527,0,0,1-1.13575,2.50293,5.04284,5.04284,0,0,1-3.20214.89941,6.82952,6.82952,0,0,1-3.13477-.71v-1.624a6.36432,6.36432,0,0,0,1.55273.668,5.64513,5.64513,0,0,0,1.541.2373,3.13279,3.13279,0,0,0,1.95312-.51465,1.59884,1.59884,0,0,0,.65821-1.31543,1.42,1.42,0,0,0-.36035-.98632,7.24116,7.24116,0,0,0-1.55176-1.10059,6.24178,6.24178,0,0,1-1.8916-1.46973,2.70924,2.70924,0,0,1-.55469-1.70605,2.83571,2.83571,0,0,1,1.03809-2.28711,4.12047,4.12047,0,0,1,2.73437-.86817,7.95365,7.95365,0,0,1,3.3916.76075l-.55469,1.4082-.57617-.25684a5.70656,5.70656,0,0,0-2.26074-.44238,2.30034,2.30034,0,0,0-1.501.44727,1.50587,1.50587,0,0,0-.17968,2.14257,6.42277,6.42277,0,0,0,1.50586,1.0586,8.70866,8.70866,0,0,1,1.57714,1.05957,3.05046,3.05046,0,0,1,.71485.95019A2.69513,2.69513,0,0,1,199.83825,196.27035Z" fill="#232323"/><path d="M214.32067,196.27035a3.01529,3.01529,0,0,1-1.13574,2.50293,5.04287,5.04287,0,0,1-3.20215.89941,6.82952,6.82952,0,0,1-3.13477-.71v-1.624a6.36423,6.36423,0,0,0,1.55274.668,5.64506,5.64506,0,0,0,1.541.2373,3.13284,3.13284,0,0,0,1.95313-.51465,1.59886,1.59886,0,0,0,.6582-1.31543,1.42,1.42,0,0,0-.36035-.98632A7.24116,7.24116,0,0,0,210.641,194.327a6.242,6.242,0,0,1-1.8916-1.46973,2.70924,2.70924,0,0,1-.55469-1.70605,2.83571,2.83571,0,0,1,1.03809-2.28711,4.12047,4.12047,0,0,1,2.73437-.86817,7.95365,7.95365,0,0,1,3.3916.76075l-.55468,1.4082-.57618-.25684a5.70656,5.70656,0,0,0-2.26074-.44238,2.30033,2.30033,0,0,0-1.501.44727,1.50586,1.50586,0,0,0-.17969,2.14257,6.423,6.423,0,0,0,1.50586,1.0586,8.70845,8.70845,0,0,1,1.57715,1.05957,3.05042,3.05042,0,0,1,.71484.95019A2.695,2.695,0,0,1,214.32067,196.27035Z" fill="#232323"/><path d="M222.389,188.05746a4.115,4.115,0,0,1,3.083,1.15625,4.35579,4.35579,0,0,1,1.13086,3.18164,9.12072,9.12072,0,0,1-.74023,3.64844,6.3129,6.3129,0,0,1-2.00391,2.65234,4.68723,4.68723,0,0,1-2.85742.93457,4.09544,4.09544,0,0,1-3.09375-1.16113,4.38229,4.38229,0,0,1-1.12109-3.17578,9.10147,9.10147,0,0,1,.751-3.67481,6.22831,6.22831,0,0,1,2.02442-2.6416A4.71944,4.71944,0,0,1,222.389,188.05746Zm2.42578,4.10156a2.80856,2.80856,0,0,0-.64258-1.917,2.19519,2.19519,0,0,0-1.74219-.73535,3.01049,3.01049,0,0,0-2.00976.76074,4.88924,4.88924,0,0,0-1.377,2.1123,8.78414,8.78414,0,0,0-.48828,3.00684,3.02914,3.02914,0,0,0,.65235,2.08105,2.37657,2.37657,0,0,0,1.876.73438,2.8335,2.8335,0,0,0,1.92188-.75,4.89008,4.89008,0,0,0,1.33105-2.13281A9.65521,9.65521,0,0,0,224.81481,192.159Z" fill="#232323"/><path d="M232.79137,199.67269a3.82665,3.82665,0,0,1-4.19434-4.2041,9.35532,9.35532,0,0,1,.76075-3.793,6.44073,6.44073,0,0,1,2.10254-2.708,5.01066,5.01066,0,0,1,3.0166-.97168,7.53551,7.53551,0,0,1,2.75488.52442l-.4834,1.44922a5.81183,5.81183,0,0,0-2.251-.52442,3.21692,3.21692,0,0,0-2.10157.78614,5.1769,5.1769,0,0,0-1.49121,2.18945,8.428,8.428,0,0,0-.53906,3.04785,2.87371,2.87371,0,0,0,.68359,2.04492,2.45414,2.45414,0,0,0,1.88575.73047,4.68,4.68,0,0,0,1.39843-.20605,12.69823,12.69823,0,0,0,1.29492-.4834v1.46972A6.17461,6.17461,0,0,1,232.79137,199.67269Z" fill="#232323"/><path d="M239.39977,199.46664h-1.72656l2.40527-11.26563H241.805Zm1.16211-14.14356a1.35265,1.35265,0,0,1,.32812-.94043,1.09641,1.09641,0,0,1,.85352-.36425.80835.80835,0,0,1,.9043.9248,1.395,1.395,0,0,1-.34375.95605,1.03693,1.03693,0,0,1-.79688.39063.95067.95067,0,0,1-.67871-.252A.93625.93625,0,0,1,240.56188,185.32308Z" fill="#232323"/><path d="M248.97985,187.99593a2.90714,2.90714,0,0,1,1.68554.50879,3.30628,3.30628,0,0,1,1.15137,1.46485h.11231l.68945-1.76856h1.30469l-2.39453,11.26563h-1.36719l.26758-2.14844h-.083q-1.83984,2.354-3.875,2.35449a2.70963,2.70963,0,0,1-2.24024-1.01758,4.35271,4.35271,0,0,1-.8125-2.78613,10.60292,10.60292,0,0,1,.73047-3.96777,6.85121,6.85121,0,0,1,2.01465-2.86719A4.38023,4.38023,0,0,1,248.97985,187.99593ZM247.02672,198.244a2.89381,2.89381,0,0,0,1.9834-.95117,7.04217,7.04217,0,0,0,1.60352-2.47754,8.10544,8.10544,0,0,0,.61718-3.05762,2.39489,2.39489,0,0,0-.57617-1.68554,1.95492,1.95492,0,0,0-1.51074-.627,2.83172,2.83172,0,0,0-1.98926.88379,5.9592,5.9592,0,0,0-1.44336,2.39453,9.65469,9.65469,0,0,0-.52441,3.18653,2.70089,2.70089,0,0,0,.48242,1.75293A1.66942,1.66942,0,0,0,247.02672,198.244Z" fill="#232323"/><path d="M256.61657,199.46664H254.89l3.41211-15.99317h1.72754Z" fill="#232323"/><path d="M52.40953,213.25668a2.90707,2.90707,0,0,1,1.68555.50879,3.30627,3.30627,0,0,1,1.15137,1.46484h.1123l.68946-1.76856h1.30468l-2.39453,11.26563H53.59118l.26757-2.14844h-.083q-1.83985,2.354-3.875,2.35449a2.70965,2.70965,0,0,1-2.24024-1.01757,4.35274,4.35274,0,0,1-.8125-2.78614,10.60292,10.60292,0,0,1,.73047-3.96777,6.85128,6.85128,0,0,1,2.01465-2.86719A4.3802,4.3802,0,0,1,52.40953,213.25668Zm-1.95312,10.248a2.89381,2.89381,0,0,0,1.9834-.95117,7.042,7.042,0,0,0,1.60351-2.47754,8.10525,8.10525,0,0,0,.61719-3.05761,2.39489,2.39489,0,0,0-.57617-1.68555,1.95492,1.95492,0,0,0-1.51074-.62695,2.83171,2.83171,0,0,0-1.98926.88378,5.95906,5.95906,0,0,0-1.44336,2.39454,9.65459,9.65459,0,0,0-.52441,3.18652,2.70089,2.70089,0,0,0,.48242,1.75293A1.6694,1.6694,0,0,0,50.45641,223.50472Z" fill="#232323"/><path d="M65.22692,224.72738l1.52148-7.1123a9.39807,9.39807,0,0,0,.20508-1.48047,1.46068,1.46068,0,0,0-.36523-1.03809,1.52877,1.52877,0,0,0-1.166-.39062,3.04507,3.04507,0,0,0-1.7832.61621,5.49238,5.49238,0,0,0-1.53223,1.75781,9.27807,9.27807,0,0,0-1.002,2.76562l-1.03809,4.88184H58.3402l2.40527-11.26563h1.42871l-.22656,2.08692h.10352a6.86981,6.86981,0,0,1,1.90625-1.77344,3.83294,3.83294,0,0,1,1.90625-.51855,2.88277,2.88277,0,0,1,2.06152.71386,2.62361,2.62361,0,0,1,.75488,2,8.40019,8.40019,0,0,1-.23633,1.84961L66.974,224.72738Z" fill="#232323"/><path d="M76.45055,213.27718a2.99814,2.99814,0,0,1,2.8877,1.95313h.10253a23.89805,23.89805,0,0,1,.4629-2.81641l.80175-3.67968h1.70606l-3.3916,15.99316H77.59118l.22558-2.14844h-.082a7.73479,7.73479,0,0,1-1.94238,1.81934,3.63115,3.63115,0,0,1-1.8711.53515,2.69186,2.69186,0,0,1-2.23047-1.00781,4.382,4.382,0,0,1-.80175-2.7959,10.65634,10.65634,0,0,1,.74023-4.02929,6.723,6.723,0,0,1,1.999-2.82618A4.43082,4.43082,0,0,1,76.45055,213.27718Zm-1.95312,10.22754a2.99339,2.99339,0,0,0,1.99414-.96191,6.75867,6.75867,0,0,0,1.6289-2.45606,8.11324,8.11324,0,0,0,.60156-3.04785,2.46059,2.46059,0,0,0-.55566-1.7373,2.10082,2.10082,0,0,0-1.61328-.5957,2.74937,2.74937,0,0,0-1.92773.84765,5.9686,5.9686,0,0,0-1.42872,2.38477,9.69614,9.69614,0,0,0-.53906,3.23242Q72.65758,223.50423,74.49743,223.50472Z" fill="#232323"/><path d="M92.557,224.93343a3.9279,3.9279,0,0,1-2.96973-1.12109,4.28559,4.28559,0,0,1-1.08008-3.10351,9.25222,9.25222,0,0,1,.7666-3.70606,6.85566,6.85566,0,0,1,2.0293-2.75977,4.42769,4.42769,0,0,1,2.78613-.98632,3.52934,3.52934,0,0,1,2.36328.68359,2.3826,2.3826,0,0,1,.792,1.90625,3.261,3.261,0,0,1-1.70606,2.9043,9.34985,9.34985,0,0,1-4.88281,1.05273h-.33887l-.041.82227a3.18421,3.18421,0,0,0,.63183,2.10254,2.40955,2.40955,0,0,0,1.958.75488,5.09774,5.09774,0,0,0,1.33105-.18457,10.15353,10.15353,0,0,0,1.70118-.67871v1.501a9.25208,9.25208,0,0,1-1.70606.63184A6.90863,6.90863,0,0,1,92.557,224.93343Zm1.42871-10.207a2.74781,2.74781,0,0,0-1.98828.96582,6.31952,6.31952,0,0,0-1.42383,2.68262h.123a8.38688,8.38688,0,0,0,3.59278-.61133,1.91929,1.91929,0,0,0,1.249-1.77246,1.20294,1.20294,0,0,0-.375-.90527A1.65667,1.65667,0,0,0,93.98571,214.7264Z" fill="#232323"/><path d="M105.03551,224.72738l1.52051-7.1123a8.41,8.41,0,0,0,.18555-1.3877,1.75853,1.75853,0,0,0-.31934-1.12109,1.3151,1.3151,0,0,0-1.08887-.40039,2.76079,2.76079,0,0,0-1.68066.61621,5.3692,5.3692,0,0,0-1.43945,1.76367,10.18834,10.18834,0,0,0-.96094,2.75976l-1.03809,4.88184H98.48766l2.40527-11.26563h1.42871l-.22656,2.08692h.10352a6.43543,6.43543,0,0,1,1.7832-1.75781,3.5134,3.5134,0,0,1,1.834-.53418,2.335,2.335,0,0,1,1.78907.668,3.0587,3.0587,0,0,1,.74023,1.86035h.082a6.58449,6.58449,0,0,1,1.88086-1.90625,3.7665,3.7665,0,0,1,2.01465-.62207,2.768,2.768,0,0,1,2.01953.69922,2.7204,2.7204,0,0,1,.71485,2.03515,9.81632,9.81632,0,0,1-.22657,1.8291L113.35,224.72738h-1.74707l1.52149-7.1123a9.36532,9.36532,0,0,0,.20508-1.501,1.29509,1.29509,0,0,0-1.46973-1.4082,2.76553,2.76553,0,0,0-1.64453.5957,5.20809,5.20809,0,0,0-1.42383,1.6914,9.2325,9.2325,0,0,0-.92969,2.59473l-1.09961,5.13965Z" fill="#232323"/><path d="M122.848,213.3182a4.11506,4.11506,0,0,1,3.083,1.15625,4.35579,4.35579,0,0,1,1.13086,3.18164,9.12048,9.12048,0,0,1-.74024,3.64844,6.313,6.313,0,0,1-2.0039,2.65234,4.68727,4.68727,0,0,1-2.85742.93457,4.09543,4.09543,0,0,1-3.09375-1.16113,4.38228,4.38228,0,0,1-1.1211-3.17578,9.10148,9.10148,0,0,1,.751-3.67481,6.2283,6.2283,0,0,1,2.02441-2.6416A4.71946,4.71946,0,0,1,122.848,213.3182Zm2.42578,4.10156a2.80853,2.80853,0,0,0-.64258-1.917,2.1952,2.1952,0,0,0-1.74218-.73535,3.01056,3.01056,0,0,0-2.00977.76074,4.88926,4.88926,0,0,0-1.377,2.11231,8.78409,8.78409,0,0,0-.48828,3.00683,3.02919,3.02919,0,0,0,.65234,2.08106,2.37663,2.37663,0,0,0,1.876.73437,2.83348,2.83348,0,0,0,1.92187-.75,4.89,4.89,0,0,0,1.33106-2.13281A9.65522,9.65522,0,0,0,125.27379,217.41976Z" fill="#232323"/><path d="M132.10778,223.52523a5.58587,5.58587,0,0,0,1.48047-.26758v1.32618a4.75181,4.75181,0,0,1-.86329.24609,4.4539,4.4539,0,0,1-.82226.10351,2.85742,2.85742,0,0,1-1.96875-.6123,2.32343,2.32343,0,0,1-.68359-1.82422,7.47762,7.47762,0,0,1,.18554-1.542l1.30567-6.1875H128.973l.14453-.75,1.90137-.80176,1.28418-2.34375h1.00781l-.56543,2.58984h2.81641l-.26758,1.30567h-2.80566l-1.32618,6.208a7.33791,7.33791,0,0,0-.18457,1.35742,1.21905,1.21905,0,0,0,.29786.88379A1.10522,1.10522,0,0,0,132.10778,223.52523Z" fill="#232323"/><path d="M137.20641,224.72738h-1.72656l2.40527-11.26563h1.72656Zm1.16211-14.14355a1.35263,1.35263,0,0,1,.32812-.94043,1.09638,1.09638,0,0,1,.85352-.36426.80835.80835,0,0,1,.9043.9248,1.395,1.395,0,0,1-.34375.95606,1.037,1.037,0,0,1-.79688.39062.95067.95067,0,0,1-.67871-.252A.93624.93624,0,0,1,138.36852,210.58383Z" fill="#232323"/><path d="M146.8275,213.3182a4.115,4.115,0,0,1,3.083,1.15625,4.35579,4.35579,0,0,1,1.13086,3.18164,9.12065,9.12065,0,0,1-.74023,3.64844,6.31306,6.31306,0,0,1-2.00391,2.65234,4.68725,4.68725,0,0,1-2.85742.93457,4.09543,4.09543,0,0,1-3.09375-1.16113,4.38228,4.38228,0,0,1-1.1211-3.17578,9.10148,9.10148,0,0,1,.751-3.67481,6.22831,6.22831,0,0,1,2.02442-2.6416A4.71941,4.71941,0,0,1,146.8275,213.3182Zm2.42578,4.10156a2.80857,2.80857,0,0,0-.64257-1.917,2.19522,2.19522,0,0,0-1.74219-.73535,3.01058,3.01058,0,0,0-2.00977.76074,4.88935,4.88935,0,0,0-1.37695,2.11231,8.78409,8.78409,0,0,0-.48828,3.00683,3.02923,3.02923,0,0,0,.65234,2.08106,2.37663,2.37663,0,0,0,1.876.73437,2.83346,2.83346,0,0,0,1.92187-.75,4.89,4.89,0,0,0,1.33106-2.13281A9.65522,9.65522,0,0,0,149.25328,217.41976Z" fill="#232323"/><path d="M159.52184,224.72738l1.52148-7.1123a9.39807,9.39807,0,0,0,.20508-1.48047,1.46068,1.46068,0,0,0-.36523-1.03809,1.52877,1.52877,0,0,0-1.166-.39062,3.04507,3.04507,0,0,0-1.7832.61621,5.4925,5.4925,0,0,0-1.53223,1.75781,9.27834,9.27834,0,0,0-1.002,2.76562l-1.03809,4.88184h-1.72656l2.40527-11.26563h1.42872l-.22657,2.08692h.10352a6.86981,6.86981,0,0,1,1.90625-1.77344,3.83294,3.83294,0,0,1,1.90625-.51855,2.88273,2.88273,0,0,1,2.06152.71386,2.62361,2.62361,0,0,1,.75488,2,8.40073,8.40073,0,0,1-.23632,1.84961l-1.46973,6.90723Z" fill="#232323"/><path d="M170.74547,213.25668a2.90707,2.90707,0,0,1,1.68555.50879,3.30634,3.30634,0,0,1,1.15137,1.46484h.1123l.68945-1.76856h1.30469l-2.39453,11.26563h-1.36719l.26758-2.14844h-.083q-1.83984,2.354-3.875,2.35449a2.70961,2.70961,0,0,1-2.24023-1.01757,4.35268,4.35268,0,0,1-.8125-2.78614,10.60272,10.60272,0,0,1,.73047-3.96777,6.85119,6.85119,0,0,1,2.01465-2.86719A4.3802,4.3802,0,0,1,170.74547,213.25668Zm-1.95312,10.248a2.89381,2.89381,0,0,0,1.9834-.95117,7.042,7.042,0,0,0,1.60351-2.47754,8.10544,8.10544,0,0,0,.61719-3.05761,2.39489,2.39489,0,0,0-.57617-1.68555,1.95493,1.95493,0,0,0-1.51075-.62695,2.83169,2.83169,0,0,0-1.98925.88378,5.95906,5.95906,0,0,0-1.44336,2.39454,9.6546,9.6546,0,0,0-.52442,3.18652,2.70089,2.70089,0,0,0,.48243,1.75293A1.6694,1.6694,0,0,0,168.79235,223.50472Z" fill="#232323"/><path d="M178.38219,224.72738h-1.72656l3.41211-15.99316h1.72754Z" fill="#232323"/><path d="M194.43688,221.53109a3.01529,3.01529,0,0,1-1.13574,2.50293,5.04287,5.04287,0,0,1-3.20215.89941,6.82952,6.82952,0,0,1-3.13477-.71v-1.624a6.36384,6.36384,0,0,0,1.55274.668,5.64506,5.64506,0,0,0,1.541.2373,3.13291,3.13291,0,0,0,1.95313-.51464,1.59887,1.59887,0,0,0,.6582-1.31543,1.42,1.42,0,0,0-.36035-.98633,7.24116,7.24116,0,0,0-1.55176-1.10059,6.242,6.242,0,0,1-1.8916-1.46973,2.70924,2.70924,0,0,1-.55469-1.70605,2.83573,2.83573,0,0,1,1.03809-2.28711,4.12047,4.12047,0,0,1,2.73437-.86816,7.95364,7.95364,0,0,1,3.3916.76074l-.55468,1.4082-.57617-.25683a5.70648,5.70648,0,0,0-2.26075-.44239,2.30033,2.30033,0,0,0-1.501.44727,1.50587,1.50587,0,0,0-.17969,2.14258,6.42334,6.42334,0,0,0,1.50586,1.05859,8.70845,8.70845,0,0,1,1.57715,1.05957,3.05045,3.05045,0,0,1,.71484.9502A2.69493,2.69493,0,0,1,194.43688,221.53109Z" fill="#232323"/><path d="M200.95348,224.93343a3.92791,3.92791,0,0,1-2.96973-1.12109,4.28563,4.28563,0,0,1-1.08007-3.10351,9.252,9.252,0,0,1,.7666-3.70606,6.85555,6.85555,0,0,1,2.02929-2.75977,4.42773,4.42773,0,0,1,2.78614-.98632,3.52935,3.52935,0,0,1,2.36328.68359,2.38259,2.38259,0,0,1,.792,1.90625,3.261,3.261,0,0,1-1.70605,2.9043,9.34991,9.34991,0,0,1-4.88282,1.05273h-.33886l-.041.82227a3.18422,3.18422,0,0,0,.63184,2.10254,2.40952,2.40952,0,0,0,1.958.75488,5.09787,5.09787,0,0,0,1.33106-.18457,10.15382,10.15382,0,0,0,1.70117-.67871v1.501a9.252,9.252,0,0,1-1.70605.63184A6.90878,6.90878,0,0,1,200.95348,224.93343Zm1.42871-10.207a2.74782,2.74782,0,0,0-1.98828.96582,6.31952,6.31952,0,0,0-1.42383,2.68262h.12305a8.38683,8.38683,0,0,0,3.59277-.61133,1.9193,1.9193,0,0,0,1.249-1.77246,1.20294,1.20294,0,0,0-.375-.90527A1.65668,1.65668,0,0,0,202.38219,214.7264Z" fill="#232323"/><path d="M211.47887,224.93343a3.82665,3.82665,0,0,1-4.19434-4.2041,9.35532,9.35532,0,0,1,.76075-3.793,6.44064,6.44064,0,0,1,2.10254-2.708,5.0106,5.0106,0,0,1,3.0166-.97168,7.5355,7.5355,0,0,1,2.75488.52441l-.4834,1.44922a5.8118,5.8118,0,0,0-2.251-.52441,3.21691,3.21691,0,0,0-2.10157.78613,5.1769,5.1769,0,0,0-1.49121,2.18945,8.428,8.428,0,0,0-.53906,3.04785,2.87367,2.87367,0,0,0,.68359,2.04492,2.45414,2.45414,0,0,0,1.88575.73047,4.68,4.68,0,0,0,1.39843-.20605,12.69823,12.69823,0,0,0,1.29492-.4834V224.285A6.17473,6.17473,0,0,1,211.47887,224.93343Z" fill="#232323"/><path d="M220.391,213.46175l-1.542,7.14356a7.74108,7.74108,0,0,0-.18457,1.42871,1.31765,1.31765,0,0,0,1.51074,1.4707,3.05953,3.05953,0,0,0,1.77832-.61718,5.4806,5.4806,0,0,0,1.541-1.76758,9.47086,9.47086,0,0,0,1.01757-2.77539l1.02832-4.88282h1.70606l-2.374,11.26563h-1.42872l.22559-2.08691h-.12305a6.75321,6.75321,0,0,1-1.92187,1.78906,3.88329,3.88329,0,0,1-1.8916.5039,2.87126,2.87126,0,0,1-2.06543-.71484,2.68117,2.68117,0,0,1-.751-2.04,9.5978,9.5978,0,0,1,.22656-1.76855l1.501-6.94825Z" fill="#232323"/><path d="M235.63317,213.25668a4.70253,4.70253,0,0,1,1.2334.14355l-.37012,1.542a4.528,4.528,0,0,0-1.0791-.13379,2.85629,2.85629,0,0,0-1.75293.61719,5.41582,5.41582,0,0,0-1.42871,1.71094,8.74245,8.74245,0,0,0-.89942,2.43066l-1.09961,5.16016h-1.72656l2.40527-11.26563h1.42872l-.22657,2.08692h.10352a10.105,10.105,0,0,1,1.22265-1.40332,3.8778,3.8778,0,0,1,1.0127-.65723A2.9056,2.9056,0,0,1,235.63317,213.25668Z" fill="#232323"/><path d="M238.57262,224.72738h-1.72656l2.40527-11.26563h1.72656Zm1.16211-14.14355a1.35264,1.35264,0,0,1,.32813-.94043,1.09635,1.09635,0,0,1,.85351-.36426.80835.80835,0,0,1,.9043.9248,1.395,1.395,0,0,1-.34375.95606,1.037,1.037,0,0,1-.79688.39062.95067.95067,0,0,1-.67871-.252A.93624.93624,0,0,1,239.73473,210.58383Z" fill="#232323"/><path d="M245.64391,223.52523a5.58581,5.58581,0,0,0,1.48047-.26758v1.32618a4.75192,4.75192,0,0,1-.86328.24609,4.45408,4.45408,0,0,1-.82227.10351,2.85746,2.85746,0,0,1-1.96875-.6123,2.32343,2.32343,0,0,1-.68359-1.82422,7.47762,7.47762,0,0,1,.18554-1.542l1.30567-6.1875h-1.76856l.14454-.75,1.90136-.80176,1.28418-2.34375H246.847l-.56542,2.58984h2.8164l-.26758,1.30567h-2.80566l-1.32617,6.208a7.337,7.337,0,0,0-.18457,1.35742,1.219,1.219,0,0,0,.29785.88379A1.10522,1.10522,0,0,0,245.64391,223.52523Z" fill="#232323"/><path d="M249.41637,213.46175h1.72754l.76074,5.60254q.10254.709.2002,2.09082.09668,1.38282.09765,2.22559h.06153q.35888-.89355.89453-2.05566.5332-1.16163.791-1.60352l3.34082-6.25977h1.82911l-7.15332,13.17774a7.43919,7.43919,0,0,1-1.89161,2.45605,3.69319,3.69319,0,0,1-2.251.68848,4.82564,4.82564,0,0,1-1.43848-.21582v-1.3877a4.84654,4.84654,0,0,0,1.3457.18555,2.13168,2.13168,0,0,0,1.44434-.51953,5.60493,5.60493,0,0,0,1.167-1.53613l.78125-1.39844Z" fill="#232323"/><path d="M98.08629,255.04379a3.619,3.619,0,0,1-1.28418-.21582v-1.44922a3.59976,3.59976,0,0,0,1.15137.22656,1.35781,1.35781,0,0,0,1.20215-.6377,5.44742,5.44742,0,0,0,.67871-1.81933l2.333-11.1211H100.184l.13281-.68847,2.11817-.67871.23632-1.02735a6.08215,6.08215,0,0,1,1.31055-2.90429,3.33972,3.33972,0,0,1,2.48145-.84766,5.38645,5.38645,0,0,1,1.00781.11816,4.7158,4.7158,0,0,1,.9248.26172l-.4414,1.32617a4.01348,4.01348,0,0,0-1.40821-.29785,1.81551,1.81551,0,0,0-1.373.498,3.96525,3.96525,0,0,0-.77539,1.8252l-.25684,1.10937h2.44629l-.25684,1.30566h-2.43652l-2.38477,11.28614a5.87916,5.87916,0,0,1-1.23339,2.83691A2.851,2.851,0,0,1,98.08629,255.04379Z" fill="#232323"/><path d="M112.35387,238.578a4.11506,4.11506,0,0,1,3.083,1.15625,4.35584,4.35584,0,0,1,1.13086,3.18164,9.12047,9.12047,0,0,1-.74024,3.64843,6.313,6.313,0,0,1-2.0039,2.65235,4.68734,4.68734,0,0,1-2.85742.93457,4.09543,4.09543,0,0,1-3.09375-1.16113,4.3823,4.3823,0,0,1-1.1211-3.17579,9.10146,9.10146,0,0,1,.751-3.6748,6.2283,6.2283,0,0,1,2.02441-2.6416A4.71944,4.71944,0,0,1,112.35387,238.578Zm2.42578,4.10156a2.80849,2.80849,0,0,0-.64258-1.917,2.19519,2.19519,0,0,0-1.74218-.73536,3.01052,3.01052,0,0,0-2.00977.76075,4.88917,4.88917,0,0,0-1.37695,2.1123,8.78414,8.78414,0,0,0-.48828,3.00684,3.02914,3.02914,0,0,0,.65234,2.08105,2.3766,2.3766,0,0,0,1.876.73438,2.83348,2.83348,0,0,0,1.92187-.75,4.89,4.89,0,0,0,1.33106-2.13282A9.65512,9.65512,0,0,0,114.77965,242.67953Z" fill="#232323"/><path d="M125.28356,238.51644a4.70208,4.70208,0,0,1,1.2334.14356l-.37012,1.542a4.5275,4.5275,0,0,0-1.0791-.13379,2.85622,2.85622,0,0,0-1.75293.61719,5.41571,5.41571,0,0,0-1.42871,1.71094,8.74233,8.74233,0,0,0-.89942,2.43066l-1.09961,5.16016h-1.72656l2.40527-11.26563h1.42872l-.22657,2.08691h.10352a10.10545,10.10545,0,0,1,1.22266-1.40332,3.87728,3.87728,0,0,1,1.01269-.65722A2.90543,2.90543,0,0,1,125.28356,238.51644Z" fill="#232323"/><path d="M135.41735,248.785a5.58628,5.58628,0,0,0,1.48047-.26758v1.32617a4.751,4.751,0,0,1-.86329.24609,4.45406,4.45406,0,0,1-.82226.10352,2.85742,2.85742,0,0,1-1.96875-.6123,2.32343,2.32343,0,0,1-.68359-1.82422,7.47779,7.47779,0,0,1,.18554-1.542l1.30567-6.1875h-1.76856l.14453-.75,1.90137-.80175,1.28418-2.34375h1.00781l-.56543,2.58984h2.81641l-.26758,1.30566h-2.80566l-1.32618,6.208a7.338,7.338,0,0,0-.18457,1.35742,1.219,1.219,0,0,0,.29786.88379A1.10522,1.10522,0,0,0,135.41735,248.785Z" fill="#232323"/><path d="M145.67614,249.98715l1.52148-7.11231a8.48773,8.48773,0,0,0,.18457-1.38769,1.34009,1.34009,0,0,0-1.51074-1.52149,3.07933,3.07933,0,0,0-1.7832.60645,5.34,5.34,0,0,0-1.53223,1.76269,9.47926,9.47926,0,0,0-1.00195,2.791l-1.03809,4.86133h-1.72656L142.181,233.994h1.72754q-.186.84228-.35547,1.63379-.16847.79248-.34863,1.60938-.18018.81591-.39063,1.71093-.21093.89356-.48828,1.94239h.11231a6.85562,6.85562,0,0,1,1.90722-1.8086,3.87,3.87,0,0,1,1.96778-.54492,2.80528,2.80528,0,0,1,2.082.74023,2.84992,2.84992,0,0,1,.73437,2.09668,8.3101,8.3101,0,0,1-.23633,1.70606q-.3999,1.98339-1.49023,6.90723Z" fill="#232323"/><path d="M155.389,250.1932a3.9279,3.9279,0,0,1-2.96973-1.12109,4.28562,4.28562,0,0,1-1.08008-3.10352,9.25213,9.25213,0,0,1,.7666-3.70605,6.85559,6.85559,0,0,1,2.0293-2.75977,4.42766,4.42766,0,0,1,2.78613-.98633,3.52926,3.52926,0,0,1,2.36328.6836,2.38255,2.38255,0,0,1,.792,1.90625,3.26094,3.26094,0,0,1-1.70606,2.90429,9.34984,9.34984,0,0,1-4.88281,1.05274h-.33887l-.041.82226a3.18418,3.18418,0,0,0,.63183,2.10254,2.40952,2.40952,0,0,0,1.958.75488,5.09787,5.09787,0,0,0,1.33106-.18457,10.15208,10.15208,0,0,0,1.70117-.67871v1.501a9.25182,9.25182,0,0,1-1.70606.63184A6.90915,6.90915,0,0,1,155.389,250.1932Zm1.42871-10.207a2.74777,2.74777,0,0,0-1.98828.96582,6.31946,6.31946,0,0,0-1.42383,2.68262h.12305a8.387,8.387,0,0,0,3.59277-.61133,1.91931,1.91931,0,0,0,1.249-1.77246,1.203,1.203,0,0,0-.375-.90528A1.6567,1.6567,0,0,0,156.81774,239.98617Z" fill="#232323"/><path d="M171.78356,250.1932a3.01582,3.01582,0,0,1-1.74707-.51465,3.33561,3.33561,0,0,1-1.16113-1.43847h-.10352l-.041.39062c-.0205.1709-.05664.41113-.10742.71875q-.07764.46289-1.17676,5.69434h-1.707l3.4541-16.32227h1.42872l-.26758,2.14844h.082q1.83984-2.33351,3.82422-2.333a2.70293,2.70293,0,0,1,2.21972,1.002,4.35654,4.35654,0,0,1,.8125,2.81153,10.90219,10.90219,0,0,1-.71,3.998,6.63751,6.63751,0,0,1-1.96289,2.832A4.39643,4.39643,0,0,1,171.78356,250.1932Zm1.91211-10.22754a2.971,2.971,0,0,0-2.00977.97656,6.97646,6.97646,0,0,0-1.624,2.45606,8.00046,8.00046,0,0,0-.60059,3.03222,2.42064,2.42064,0,0,0,.57032,1.73243,2.16665,2.16665,0,0,0,1.64941.60156,2.71952,2.71952,0,0,0,1.89648-.833,5.84309,5.84309,0,0,0,1.41309-2.36914,9.86058,9.86058,0,0,0,.53418-3.26367Q175.52477,239.96517,173.69567,239.96566Z" fill="#232323"/><path d="M184.93981,238.578a4.11506,4.11506,0,0,1,3.083,1.15625,4.35584,4.35584,0,0,1,1.13086,3.18164,9.12047,9.12047,0,0,1-.74024,3.64843,6.31293,6.31293,0,0,1-2.00391,2.65235,4.6873,4.6873,0,0,1-2.85742.93457,4.09544,4.09544,0,0,1-3.09375-1.16113,4.3823,4.3823,0,0,1-1.12109-3.17579,9.10146,9.10146,0,0,1,.751-3.6748,6.2283,6.2283,0,0,1,2.02441-2.6416A4.71944,4.71944,0,0,1,184.93981,238.578Zm2.42578,4.10156a2.80849,2.80849,0,0,0-.64258-1.917,2.1952,2.1952,0,0,0-1.74219-.73536,3.0105,3.0105,0,0,0-2.00976.76075,4.88908,4.88908,0,0,0-1.37695,2.1123,8.7839,8.7839,0,0,0-.48829,3.00684,3.02914,3.02914,0,0,0,.65235,2.08105,2.37657,2.37657,0,0,0,1.876.73438,2.8335,2.8335,0,0,0,1.92188-.75,4.89,4.89,0,0,0,1.33105-2.13282A9.65511,9.65511,0,0,0,187.36559,242.67953Z" fill="#232323"/><path d="M196.75036,238.578a4.115,4.115,0,0,1,3.083,1.15625,4.35579,4.35579,0,0,1,1.13086,3.18164,9.12063,9.12063,0,0,1-.74023,3.64843,6.313,6.313,0,0,1-2.00391,2.65235,4.68732,4.68732,0,0,1-2.85742.93457,4.09543,4.09543,0,0,1-3.09375-1.16113,4.3823,4.3823,0,0,1-1.12109-3.17579,9.10146,9.10146,0,0,1,.751-3.6748,6.22831,6.22831,0,0,1,2.02442-2.6416A4.71944,4.71944,0,0,1,196.75036,238.578Zm2.42578,4.10156a2.80854,2.80854,0,0,0-.64258-1.917,2.1952,2.1952,0,0,0-1.74219-.73536,3.0105,3.0105,0,0,0-2.00976.76075,4.88918,4.88918,0,0,0-1.377,2.1123,8.78414,8.78414,0,0,0-.48828,3.00684,3.02919,3.02919,0,0,0,.65234,2.08105,2.3766,2.3766,0,0,0,1.876.73438,2.8335,2.8335,0,0,0,1.92188-.75,4.89006,4.89006,0,0,0,1.33105-2.13282A9.65511,9.65511,0,0,0,199.17614,242.67953Z" fill="#232323"/><path d="M209.68,238.51644a4.702,4.702,0,0,1,1.2334.14356l-.37012,1.542a4.52744,4.52744,0,0,0-1.0791-.13379,2.85625,2.85625,0,0,0-1.75293.61719,5.41584,5.41584,0,0,0-1.42871,1.71094,8.74232,8.74232,0,0,0-.89941,2.43066l-1.09961,5.16016H202.557l2.40527-11.26563H206.391l-.22656,2.08691h.10351a10.10612,10.10612,0,0,1,1.22266-1.40332,3.87761,3.87761,0,0,1,1.01269-.65722A2.90543,2.90543,0,0,1,209.68,238.51644Z" fill="#232323"/><polygon points="210.452 78.331 207.104 111.637 213.493 112.28 210.452 78.331" fill="#38a380"/><polygon points="85.439 68.083 98.328 99.635 91.741 66.819 85.439 68.083" fill="#38a380"/><path d="M129.28331,137.49862a1.10477,1.10477,0,0,1,1.01343-1.1571l1.2124-.0832-.376-7.49716a1.0728,1.0728,0,0,1,1.01318-1.12138l3.792-.19595-.18213-3.66242a5.51034,5.51034,0,0,1-3.33056-4.77116l-.83667-16.72151-.33618-6.65055-1.04737-20.79745a3.28657,3.28657,0,0,1,4.33789-3.26762l-3.50146,9.81541a5.24509,5.24509,0,0,0,6.40552,6.78075l.06176,1.22363-.10717.29639a5.46187,5.46187,0,0,0,.21557,4.18994l.13111.25048.81445,1.14453a5.46316,5.46316,0,0,0,3.34766,1.70752,5.449,5.449,0,0,0,4.00195,2.397l3.27417.33056a4.98,4.98,0,0,0,3.02856,8.47754l20.502,2.06055-.8545,6.72949a7.90607,7.90607,0,0,1-8.3352,6.93994l.10254,2.13575,4.08252-.20508a1.06188,1.06188,0,0,1,1.12158,1.01318l.376,7.48047.1018-.00586a1.13848,1.13848,0,0,1,1.11573,1.09692l.97583,19.42994H307.912A153.16662,153.16662,0,0,0,199.24767,8.356l-8.2666,23.12024a1.05906,1.05906,0,0,1-1.36646.62335l-1.13867-.41464-2.52222,7.04854a1.06026,1.06026,0,0,1-1.36084.64634l-3.58129-1.27669-1.2295,3.45492a5.51,5.51,0,0,1,1.25244,5.6823l-5.62475,15.764-2.23755,6.27433L166.16954,88.892c-1.45776,4.08789-7.634,1.88475-6.17749-2.20314l6.99707-19.61915-1.47949-.52394L156.11,92.89437c-1.68554,4.71973-8.81933,2.17481-7.13378-2.54492l9.39965-26.34863-1.73681-.62061L146.14049,92.80355c-1.67895,4.71387-8.81274,2.17432-7.12793-2.54492l10.49268-29.42334-1.605-.57471-8.59156,24.0708c-1.56567,4.40088-8.22094,2.02686-6.65527-2.374l8.585-24.0708.73511-2.05566,1.84985-5.1919L138.267,60.368c-3.05225,5.34083-11.199,2.96094-9.377-.22119l14.92774-26.12695a7.91085,7.91085,0,0,1,10.36157-3.22217l.718-2.01025-3.84888-1.37158a1.07961,1.07961,0,0,1-.64966-1.36621l2.52222-7.05957-.09668-.03418a1.07728,1.07728,0,0,1-.64868-1.3667l5.63818-15.79834c-.94678-.01758-1.89306.04663-2.844.04663A152.67261,152.67261,0,0,0,2.02794,154.86215H130.15075Zm174.13588-6.79035-90.30258-14.45158a1.06922,1.06922,0,0,1-.89862-1.21761l.18356-1.19957-7.41387-1.104a1.07593,1.07593,0,0,1-.89862-1.21761l.56325-3.75259-3.6276-.54475a5.50233,5.50233,0,0,1-5.33362,2.32357l-16.552-2.47459-6.58757-.99077L151.953,102.99813c-4.29028-.6403-3.321-7.126.96823-6.48526l20.5995,3.08068.234-1.55645-27.67235-4.14034a3.79847,3.79847,0,0,1-1.99984-.95744,5.33954,5.33954,0,0,0,.90308-.29223,5.4849,5.4849,0,0,0,2.7416-2.47269l.03563.08727a5.49192,5.49192,0,0,0,10.14618-.01209l.87166-2.1064,1.19424.17743a4.96043,4.96043,0,0,0,5.48049,1.11379,4.64282,4.64282,0,0,0,.47294-.22208l8.94659,1.33837.27088-1.82842L167.687,87.60436a4.74633,4.74633,0,0,0,.46959-.86654c.22615-.54784,1.22525-2.94482,2.63091-6.32529l5.47765.82327.25282-1.69241-5.0536-.75684,2.79849-6.72832,3.30485.49641,2.156.32067,5.45016.81559-10.16836-3.42609c1.05023-2.51428,2.12751-5.1128,3.17289-7.63807l23.3042,7.851a7.91237,7.91237,0,0,1,5.15887,9.54559l2.1106.319.60578-4.04091a1.06848,1.06848,0,0,1,1.21762-.89886l7.40824,1.10422.01586-.09554a1.07264,1.07264,0,0,1,1.21765-.89935L290.55894,86.036S302.338,111.63391,303.41919,130.70827ZM24.00719,75.86215,83.5255,63.95492a1.07631,1.07631,0,0,1,1.2583.84326l.239,1.18408,7.34472-1.46875a1.06544,1.06544,0,0,1,1.2583.83643l.74536,3.71777,3.59253-.7168a5.52633,5.52633,0,0,1,4.23072-3.99707l16.41382-3.29638,6.52978-1.30957,2.27148-.45557-.00561.00537a3.52554,3.52554,0,0,0-.34741,2.602,3.45724,3.45724,0,0,0,1.81079,2.29444,7.90982,7.90982,0,0,0,2.699.95654l-5.13574,1.03076.30762,1.54248L136.4276,65.783a5.06887,5.06887,0,0,0-.15307.9336l-1.1565,3.25049a4.99126,4.99126,0,0,0-6.61523,4.95361q.46141,9.27465.93359,18.54248l-5.1748,1.03613,5.22021-.11279.416,8.24365-19.88086.43213a7.9117,7.9117,0,0,1-8.096-7.22461l-2.095.42139.80835,4.002a1.07066,1.07066,0,0,1-.83692,1.2583L92.44713,102.994l.02295.09717a1.07033,1.07033,0,0,1-.84228,1.2583L5.00719,124.86215C9.00719,98.86215,24.00719,75.86215,24.00719,75.86215Z" fill="#38a380"/><polygon points="133.319 129.713 133.644 136.129 166.756 128.034 133.319 129.713" fill="#38a380"/><polygon points="184.303 37.009 186.461 30.956 152.774 25.759 184.303 37.009" fill="#38a380"/></g></g></svg>