<svg xmlns="http://www.w3.org/2000/svg" xmlns:xlink="http://www.w3.org/1999/xlink" viewBox="0 0 146.1073 146.1071"><defs><linearGradient id="linear-gradient" x1="3131.91027" y1="-4582.99735" x2="3132.91027" y2="-4582.99735" gradientTransform="matrix(103.3135, -103.3135, -103.3135, -103.3135, -797032.70297, -149792.17497)" gradientUnits="userSpaceOnUse"><stop offset="0" stop-color="#38a380"/><stop offset="0.06807" stop-color="#4fa684"/><stop offset="0.19952" stop-color="#74ac8a"/><stop offset="0.33709" stop-color="#93b090"/><stop offset="0.48033" stop-color="#abb494"/><stop offset="0.63163" stop-color="#bcb697"/><stop offset="0.79646" stop-color="#c6b898"/><stop offset="1" stop-color="#c9b899"/></linearGradient><clipPath id="clip-path"><path d="M121.8906,75.0478A48.50005,48.50005,0,1,1,73.3909,26.5481a48.49933,48.49933,0,0,1,48.4997,48.4997" fill="none" clip-rule="evenodd"/></clipPath></defs><g id="Layer_2" data-name="Layer 2"><g id="Layer_1-2" data-name="Layer 1"><circle cx="73.0537" cy="73.0537" r="72.0537" fill="#fff"/><path d="M1,73.0537H0A73.05365,73.05365,0,1,0,73.0537,0,73.05331,73.05331,0,0,0,0,73.0537H1.9999a71.05371,71.05371,0,1,1,20.8113,50.2427A70.82821,70.82821,0,0,1,1.9999,73.0537Z" fill="url(#linear-gradient)"/><path d="M121.5698,74.9756A48.5161,48.5161,0,1,1,73.0537,26.459,48.51542,48.51542,0,0,1,121.5698,74.9756Z" fill="#38a380"/><path d="M16.70723,47.79965a2.37169,2.37169,0,0,0-.10059,2.12988,3.69722,3.69722,0,0,0,1.82617,1.71778,3.73,3.73,0,0,0,2.47461.4873,2.419,2.419,0,0,0,1.625-1.39062,5.21425,5.21425,0,0,0,.38868-1.01465q.13769-.51562.23828-1.09863l1.09082.55175a6.61773,6.61773,0,0,1-.71094,2.2666,3.75383,3.75383,0,0,1-2.37109,2.11915,4.82458,4.82458,0,0,1-3.42969-.5752A5.31634,5.31634,0,0,1,15.841,51.47153a3.56267,3.56267,0,0,1-.74121-2,4.41377,4.41377,0,0,1,.52148-2.2334,5.55617,5.55617,0,0,1,1.62207-1.96778l.82715.998a7.49049,7.49049,0,0,0-.75195.67285A3.39291,3.39291,0,0,0,16.70723,47.79965Z" fill="#4d4d4d"/><path d="M26.39033,38.93832a4.74756,4.74756,0,0,1,2.06739,2.79981,3.89347,3.89347,0,0,1-.80762,3.15722,3.92128,3.92128,0,0,1-2.73242,1.80176,4.77921,4.77921,0,0,1-3.33008-1.07422,4.70846,4.70846,0,0,1-2.07227-2.80273,3.97053,3.97053,0,0,1,.84278-3.16309,3.88136,3.88136,0,0,1,2.71777-1.77636A4.73857,4.73857,0,0,1,26.39033,38.93832ZM22.486,44.38949a3.89167,3.89167,0,0,0,2.36816.88965,2.67681,2.67681,0,0,0,2.26172-3.1416,3.90237,3.90237,0,0,0-1.61426-1.958,3.90242,3.90242,0,0,0-2.35449-.89257,2.28633,2.28633,0,0,0-1.79492,1.082,2.34057,2.34057,0,0,0-.46192,2.06836A3.86246,3.86246,0,0,0,22.486,44.38949Z" fill="#4d4d4d"/><path d="M31.13887,40.13364l-6.294-6.03711.99414-1.03711,5.41211,5.1914,2.57422-2.68359.88184.84668Z" fill="#4d4d4d"/><path d="M35.8044,35.452l-5.54493-6.73242,1.10938-.91406,4.76758,5.79,2.87012-2.36426.77734.94336Z" fill="#4d4d4d"/><path d="M45.17256,28.662,40.988,31.34067,36.28584,23.994l4.18457-2.67871.64942,1.01562-2.97559,1.9043,1.28027,2L42.2126,24.45l.64355,1.00586-2.78906,1.7832,1.47656,2.30664,2.97559-1.90429Z" fill="#4d4d4d"/><path d="M46.84053,19.33871A2.37221,2.37221,0,0,0,45.4499,20.9559a3.706,3.706,0,0,0,.38282,2.47656,3.72207,3.72207,0,0,0,1.65039,1.90723,2.41643,2.41643,0,0,0,2.13672-.09473,5.303,5.303,0,0,0,.93066-.56054q.42627-.32227.86426-.72071l.52051,1.10743a6.65776,6.65776,0,0,1-1.95508,1.34863,3.75423,3.75423,0,0,1-3.17383.21094,4.8298,4.8298,0,0,1-2.34961-2.56348A5.35416,5.35416,0,0,1,43.89717,21.7a3.56747,3.56747,0,0,1,.64844-2.03223,4.4023,4.4023,0,0,1,1.78418-1.44042A5.56691,5.56691,0,0,1,48.82,17.67563l.03711,1.29394a7.96556,7.96556,0,0,0-1.00683.06836A3.38588,3.38588,0,0,0,46.84053,19.33871Z" fill="#4d4d4d"/><path d="M56.7585,23.827l-1.36817.43555L53.114,17.117l-2.46192.78516-.37207-1.165,6.291-2.00488.37207,1.165-2.46094.78418Z" fill="#4d4d4d"/><path d="M60.42354,22.75766l-1.8418-8.52539,1.4043-.30274,1.84179,8.52539Z" fill="#4d4d4d"/><path d="M68.03291,12.8602l1.48145-.166-2.08692,9.01074-1.50586.168-4.01367-8.32715,1.46778-.16406,2.42578,5.18555q.18456.36914.41406.959c.15332.39356.25586.68653.31055.88086q.02783-.46.12207-1.07031c.06347-.40723.11914-.71.165-.90723Z" fill="#4d4d4d"/><path d="M76.65205,21.411l-4.96777-.08008.1416-8.7207,4.96777.08008-.01953,1.20507-3.53125-.05761-.03906,2.374,3.30859.05469-.01855,1.19238-3.30859-.05371-.04493,2.73828L76.67158,20.2Z" fill="#4d4d4d"/><path d="M87.04365,23.08285l-.36621-2.5498-3.28808-.68359-1.334,2.19628L80.573,21.73715l5-7.90527,1.5293.31738L88.5378,23.3934Zm-.48632-3.83007-.32325-2.49219c-.02539-.168-.05664-.42969-.09082-.78711-.03418-.35547-.05468-.61719-.06152-.78027a13.47011,13.47011,0,0,1-.791,1.4746l-1.23828,2.06348Z" fill="#4d4d4d"/><path d="M95.51338,17.89926a2.37452,2.37452,0,0,0-2.126.1582A3.71055,3.71055,0,0,0,91.905,20.079a3.72449,3.72449,0,0,0-.18359,2.51562,2.41313,2.41313,0,0,0,1.57617,1.44336,5.16239,5.16239,0,0,0,1.05469.26367q.52881.07325,1.11914.10352l-.415,1.15039a6.63776,6.63776,0,0,1-2.33594-.43164,3.75259,3.75259,0,0,1-2.39062-2.0957,4.82921,4.82921,0,0,1,.15429-3.47461,5.32427,5.32427,0,0,1,1.2793-2.06836,3.57039,3.57039,0,0,1,1.89649-.97852,4.42361,4.42361,0,0,1,2.28027.2461,5.56861,5.56861,0,0,1,2.14844,1.37109l-.8877.94141a8.07072,8.07072,0,0,0-.76074-.66407A3.39156,3.39156,0,0,0,95.51338,17.89926Z" fill="#4d4d4d"/><path d="M99.40938,27.93637l-1.27539-.6582,3.44433-6.66211L99.2834,19.43051l.56152-1.08789,5.86524,3.0332-.56152,1.08594-2.29493-1.18555Z" fill="#4d4d4d"/><path d="M102.76875,29.96176l4.72949-7.32812,1.207.77929-4.7295,7.32813Z" fill="#4d4d4d"/><path d="M114.72432,33.50961a4.75531,4.75531,0,0,1-2.93848,1.86719,3.89355,3.89355,0,0,1-3.09277-1.02637,3.9212,3.9212,0,0,1-1.60547-2.85156,4.77354,4.77354,0,0,1,1.30273-3.24609,4.71045,4.71045,0,0,1,2.94141-1.87207,3.96728,3.96728,0,0,1,3.09668,1.06054,3.89064,3.89064,0,0,1,1.583,2.83594A4.7497,4.7497,0,0,1,114.72432,33.50961Zm-5.165-4.27539a3.88725,3.88725,0,0,0-1.05371,2.29981,2.67619,2.67619,0,0,0,2.97656,2.47558,3.89476,3.89476,0,0,0,2.06641-1.47265,3.91512,3.91512,0,0,0,1.05468-2.28711,2.29282,2.29282,0,0,0-.9541-1.86621,2.33745,2.33745,0,0,0-2.03125-.6045A3.85077,3.85077,0,0,0,109.55928,29.23422Z" fill="#4d4d4d"/><path d="M117.87862,43.67367l-1.14747-1.333,2.44825-7.8086-.03223-.03711-.27441.27637c-.52344.52637-1.01856.98731-1.48243,1.3877l-3.43554,2.958-.85059-.98828,6.60938-5.6914,1.13672,1.32031L118.42061,41.534l.02441.02734c.06348-.06543.30664-.29395.72656-.6875q.62842-.59034.99512-.90527l3.46289-2.98243.8584.9961Z" fill="#4d4d4d"/><g clip-path="url(#clip-path)"><path d="M60.5195,75.6132l5.1504-14.4414.4409-1.2334,1.1099-3.1142-3.3335,5.8369c-1.8311,3.2041-6.7187,1.7764-5.6255-.1338l8.9556-15.6738a4.74687,4.74687,0,0,1,6.2163-1.9336l.4307-1.2051-2.3091-.8232a.64762.64762,0,0,1-.3897-.8194l1.5132-4.2363-.0581-.0195a.64683.64683,0,0,1-.3892-.8203l5.7452-16.0977a.64625.64625,0,0,1,.8198-.3896l22.0713,7.8769a.64524.64524,0,0,1,.3896.8193L95.5122,45.3027a.641.641,0,0,1-.8198.3857l-.6831-.2421-1.5132,4.2324a.63652.63652,0,0,1-.8164.3887l-2.1485-.7647-.7377,2.0732a3.3045,3.3045,0,0,1,.7514,3.4082l-3.3745,9.4581-1.3423,3.7646L80.6269,79.7734a1.96747,1.96747,0,0,1-3.706-1.3223l4.1977-11.7695-.8876-.3144L74.5918,82.1748a2.27216,2.27216,0,0,1-4.2798-1.5274l5.6392-15.8076-1.042-.3721L68.6108,82.1201a2.27051,2.27051,0,0,1-4.2763-1.5274l6.2949-17.6513-.9629-.3457L64.5122,77.0371A2.11958,2.11958,0,0,1,60.5195,75.6132ZM72.5903,41.8974l18.9156,6.7491,1.2944-3.6309M84.8281,71.1455l1.9947.2011,1.3012.1299,3.2896.3311-6.1924-1.7588c.5566-1.5371,1.1269-3.125,1.6802-4.6689l14.1919,4.0302a4.74726,4.74726,0,0,1,3.3676,5.5713l1.274.1299.2461-2.4395a.64044.64044,0,0,1,.7036-.5732l4.4712.4473.0068-.0586a.64312.64312,0,0,1,.7036-.5733l17.0064,1.711a.64041.64041,0,0,1,.5737.7002l-2.3467,23.3183a.64173.64173,0,0,1-.7036.5742l-17.0064-1.7119a.641.641,0,0,1-.5737-.7031l.0752-.7246-4.4746-.4473a.6448.6448,0,0,1-.5737-.7031l.229-2.2646-2.1895-.2227a3.3014,3.3014,0,0,1-3.1289,1.5478l-9.9902-1.0039-3.9761-.4033-12.4326-1.25a1.96688,1.96688,0,0,1,.3926-3.914l12.4331,1.25.0952-.9395L68.5732,85.0468a2.27713,2.27713,0,0,1-1.226-.5156,3.35134,3.35134,0,0,0,.5327-.2012,3.29189,3.29189,0,0,0,1.5713-1.5615l.0239.0518a3.29505,3.29505,0,0,0,6.0796-.3008l.4614-1.2881.7207.0723a2.97734,2.97734,0,0,0,3.3164.5088,2.79259,2.79259,0,0,0,.2769-.1475l5.3999.544.1094-1.1036-4.502-.4541a2.85263,2.85263,0,0,0,.2563-.5332c.1197-.3349.649-1.7998,1.3936-3.8662l3.3062.335.1025-1.0215-3.0503-.3076Zm22.3653,2.292-2.0083,19.9814,3.8325.3858M84.5552,92.5849l-.5127,4.0371a4.74342,4.74342,0,0,1-5.0005,4.1641l.0615,1.2803,2.4492-.1221a.63669.63669,0,0,1,.6729.6074l.2256,4.4883.061-.0039a.641.641,0,0,1,.6694.6084l.8609,17.0713a.64146.64146,0,0,1-.6079.6728l-23.4073,1.1748a.64136.64136,0,0,1-.6728-.6084l-.8569-17.0703a.64068.64068,0,0,1,.6079-.6699l.7275-.0371-.2256-4.4922a.64019.64019,0,0,1,.6079-.6689l2.2749-.1162-.1093-2.1963a3.30584,3.30584,0,0,1-1.9981-2.8623l-.5019-10.0313-.2017-3.9902-.6284-12.4766a1.97192,1.97192,0,0,1,2.6025-1.9609l-2.1006,5.8887a3.14687,3.14687,0,0,0,3.8428,4.0683l.0371.7344-.0644.1767a3.27925,3.27925,0,0,0,.1294,2.5147l.0786.1504.4887.6865a3.27853,3.27853,0,0,0,2.0083,1.0244,3.26934,3.26934,0,0,0,2.4009,1.4375l1.9644.1983a2.98756,2.98756,0,0,0,1.8169,5.0859ZM80.979,103.2558l-20.0601,1.0069.1949,3.8496M58.5894,82.5156l-3.1045.6221,3.1318-.0684.2495,4.9453-11.9272.2598a4.74672,4.74672,0,0,1-4.857-4.334l-1.2568.2529.4849,2.4004a.64247.64247,0,0,1-.502.7549l-4.4097.8848.0137.0586a.64243.64243,0,0,1-.5054.7548L19.1494,92.4111a.64386.64386,0,0,1-.7549-.502L13.7837,68.9316a.64288.64288,0,0,1,.5019-.7549l16.7603-3.3642a.64549.64549,0,0,1,.7549.5058l.1435.71,4.4063-.8809a.64.64,0,0,1,.7549.502l.4472,2.2305,2.1553-.4307a3.31708,3.31708,0,0,1,2.5381-2.3975l9.8472-1.9775,3.9174-.7852,1.3628-.2734-.0034.0029a2.11708,2.11708,0,0,0-.2085,1.5615,2.07477,2.07477,0,0,0,1.0864,1.376,4.72826,4.72826,0,0,0,1.6192.5742l-3.0811.6182.1846.9258,5.813-1.1651a3.0383,3.0383,0,0,0-.0918.5606l-.6939,1.9502a2.994,2.994,0,0,0-3.9687,2.9717Q58.3062,76.9551,58.5894,82.5156ZM39.9268,86.2187,35.9746,66.5312l-3.7808.7578" fill="#fff" fill-rule="evenodd"/></g></g></g></svg>