<svg xmlns="http://www.w3.org/2000/svg" xmlns:xlink="http://www.w3.org/1999/xlink" viewBox="0 0 310 310"><defs><linearGradient id="New_Gradient_Swatch_7" x1="45.39843" y1="264.60157" x2="264.60153" y2="45.39847" gradientUnits="userSpaceOnUse"><stop offset="0" stop-color="#38a380"/><stop offset="0.06811" stop-color="#4fa684"/><stop offset="0.19954" stop-color="#74ac8a"/><stop offset="0.33708" stop-color="#93b090"/><stop offset="0.4803" stop-color="#abb494"/><stop offset="0.63159" stop-color="#bcb697"/><stop offset="0.79642" stop-color="#c6b898"/><stop offset="1" stop-color="#c9b899"/></linearGradient></defs><g id="Layer_2" data-name="Layer 2"><g id="Layer_1-2" data-name="Layer 1"><circle cx="155" cy="155" r="154" fill="#fff" stroke-miterlimit="10" stroke-width="2" stroke="url(#New_Gradient_Swatch_7)"/><path d="M34.32946,199.46664,32.6234,186.14535h-.082q-.07324.74121-.293,2.03027-.22119,1.29052-.38574,2.05078l-1.95313,9.24024h-1.665l3.17578-15.02735h2.50879l1.53125,12.376h.09277l6.77344-12.376h2.7334l-3.11426,15.02735H40.15758q1.29492-6.06446,1.9834-9.30762.68847-3.24169.9668-4.03418h-.0625l-7.36914,13.3418Z" fill="#232323"/><path d="M50.055,199.67269a3.92789,3.92789,0,0,1-2.96972-1.12109,4.28562,4.28562,0,0,1-1.08008-3.10352,9.2522,9.2522,0,0,1,.7666-3.70605,6.85557,6.85557,0,0,1,2.0293-2.75977,4.4277,4.4277,0,0,1,2.78613-.98633,3.52928,3.52928,0,0,1,2.36328.6836,2.38258,2.38258,0,0,1,.792,1.90625,3.26094,3.26094,0,0,1-1.706,2.9043,9.35,9.35,0,0,1-4.88281,1.05273h-.33887l-.041.82227a3.18417,3.18417,0,0,0,.63184,2.10253,2.40951,2.40951,0,0,0,1.958.75489,5.09816,5.09816,0,0,0,1.33105-.18457,10.15348,10.15348,0,0,0,1.70117-.67871v1.501a9.252,9.252,0,0,1-1.706.63184A6.90878,6.90878,0,0,1,50.055,199.67269Zm1.42871-10.207a2.74784,2.74784,0,0,0-1.98828.96582,6.31968,6.31968,0,0,0-1.42383,2.68262h.123a8.387,8.387,0,0,0,3.59277-.61133,1.9193,1.9193,0,0,0,1.249-1.77246,1.20294,1.20294,0,0,0-.375-.90527A1.65668,1.65668,0,0,0,51.48375,189.46566Z" fill="#232323"/><path d="M60.43688,199.67269a3.92791,3.92791,0,0,1-2.96973-1.12109,4.28566,4.28566,0,0,1-1.08008-3.10352,9.252,9.252,0,0,1,.76661-3.70605,6.85555,6.85555,0,0,1,2.02929-2.75977,4.42774,4.42774,0,0,1,2.78614-.98633,3.5293,3.5293,0,0,1,2.36328.6836,2.38258,2.38258,0,0,1,.792,1.90625,3.261,3.261,0,0,1-1.70606,2.9043,9.34994,9.34994,0,0,1-4.88281,1.05273h-.33887l-.041.82227a3.18422,3.18422,0,0,0,.63183,2.10253,2.40953,2.40953,0,0,0,1.958.75489,5.09829,5.09829,0,0,0,1.33106-.18457,10.15382,10.15382,0,0,0,1.70117-.67871v1.501a9.25182,9.25182,0,0,1-1.70606.63184A6.90863,6.90863,0,0,1,60.43688,199.67269Zm1.42871-10.207a2.74782,2.74782,0,0,0-1.98828.96582,6.31946,6.31946,0,0,0-1.42383,2.68262h.123a8.387,8.387,0,0,0,3.59277-.61133,1.91931,1.91931,0,0,0,1.249-1.77246,1.20294,1.20294,0,0,0-.375-.90527A1.65664,1.65664,0,0,0,61.86559,189.46566Z" fill="#232323"/><path d="M69.82067,198.26449a5.58587,5.58587,0,0,0,1.48047-.26758v1.32617a4.75105,4.75105,0,0,1-.86328.2461,4.45408,4.45408,0,0,1-.82227.10351,2.85742,2.85742,0,0,1-1.96875-.6123,2.32343,2.32343,0,0,1-.68359-1.82422,7.47762,7.47762,0,0,1,.18554-1.542l1.30567-6.1875H66.6859l.14453-.75,1.90137-.80176,1.28418-2.34375h1.00781l-.56543,2.58984h2.81641l-.26758,1.30567H70.20153l-1.32617,6.208a7.33733,7.33733,0,0,0-.18458,1.35743,1.21905,1.21905,0,0,0,.29786.88379A1.10526,1.10526,0,0,0,69.82067,198.26449Z" fill="#232323"/><path d="M74.9193,199.46664H73.19274L75.598,188.201h1.72656Zm1.16211-14.14356a1.35265,1.35265,0,0,1,.32812-.94043,1.09641,1.09641,0,0,1,.85352-.36425.80835.80835,0,0,1,.9043.9248,1.395,1.395,0,0,1-.34375.95605,1.03693,1.03693,0,0,1-.79688.39063.95067.95067,0,0,1-.67871-.252A.93625.93625,0,0,1,76.08141,185.32308Z" fill="#232323"/><path d="M85.42418,199.46664l1.52149-7.11231a9.39777,9.39777,0,0,0,.20508-1.48047,1.46061,1.46061,0,0,0-.36524-1.03808,1.52873,1.52873,0,0,0-1.166-.39063,3.04514,3.04514,0,0,0-1.78321.61621,5.4924,5.4924,0,0,0-1.53222,1.75782,9.27824,9.27824,0,0,0-1.002,2.76562L80.264,199.46664H78.53746L80.94274,188.201h1.42871l-.22656,2.08692h.10351a6.87,6.87,0,0,1,1.90625-1.77344,3.833,3.833,0,0,1,1.90625-.51856,2.88278,2.88278,0,0,1,2.06153.71387,2.6236,2.6236,0,0,1,.75488,2,8.40079,8.40079,0,0,1-.23633,1.84961l-1.46973,6.90723Z" fill="#232323"/><path d="M101.38707,188.201l-.25683,1.10059-2.16895.24609a2.89507,2.89507,0,0,1,.4209,1.624,4.17058,4.17058,0,0,1-1.19726,3.12988,4.38769,4.38769,0,0,1-3.20118,1.167,3.46267,3.46267,0,0,1-.86425-.082q-1.42823.54492-1.42872,1.3457a.54513.54513,0,0,0,.33985.56055,4.07553,4.07553,0,0,0,.98633.2207l1.20312.14453a5.35076,5.35076,0,0,1,2.69727.9043,2.41358,2.41358,0,0,1,.83789,1.99414,3.35466,3.35466,0,0,1-1.5,2.92871,7.3598,7.3598,0,0,1-4.22461,1.03809,5.57247,5.57247,0,0,1-3.125-.75488,2.42,2.42,0,0,1-1.13086-2.13282,2.64887,2.64887,0,0,1,.74023-1.87109,5.76907,5.76907,0,0,1,2.39453-1.34668,1.33745,1.33745,0,0,1-.80078-1.24316,1.63584,1.63584,0,0,1,.52344-1.21778,5.3932,5.3932,0,0,1,1.46-.95117,2.679,2.679,0,0,1-1.05859-.97168,2.70684,2.70684,0,0,1-.41113-1.49512,4.51444,4.51444,0,0,1,1.22851-3.26855,4.16971,4.16971,0,0,1,3.13965-1.27442,6.2097,6.2097,0,0,1,1.583.20508ZM90.43981,201.47054a1.44612,1.44612,0,0,0,.66894,1.25391,3.48834,3.48834,0,0,0,1.9834.46289A5.54928,5.54928,0,0,0,96.016,202.535a2.05831,2.05831,0,0,0,1.05371-1.84571,1.15111,1.15111,0,0,0-.55469-1.00683,4.4478,4.4478,0,0,0-1.8916-.51367l-1.63379-.165a3.71516,3.71516,0,0,0-1.8916.90527A2.112,2.112,0,0,0,90.43981,201.47054Zm2.85742-8.99316a1.79048,1.79048,0,0,0,.46289,1.331,1.74887,1.74887,0,0,0,1.28516.457,2.37972,2.37972,0,0,0,1.418-.43164,2.74946,2.74946,0,0,0,.93066-1.18653,4.12142,4.12142,0,0,0,.32324-1.63965,1.71745,1.71745,0,0,0-.45215-1.28515,1.78019,1.78019,0,0,0-1.29492-.44141,2.40729,2.40729,0,0,0-1.40332.416,2.73234,2.73234,0,0,0-.93555,1.16113A3.91611,3.91611,0,0,0,93.29723,192.47738Z" fill="#232323"/><path d="M113.64879,196.27035a3.01527,3.01527,0,0,1-1.13574,2.50293,5.04287,5.04287,0,0,1-3.20215.89941,6.82951,6.82951,0,0,1-3.13476-.71v-1.624a6.36432,6.36432,0,0,0,1.55273.668,5.64513,5.64513,0,0,0,1.541.2373,3.13281,3.13281,0,0,0,1.95312-.51465,1.59883,1.59883,0,0,0,.6582-1.31543,1.42,1.42,0,0,0-.36035-.98632,7.24075,7.24075,0,0,0-1.55175-1.10059,6.242,6.242,0,0,1-1.89161-1.46973,2.7093,2.7093,0,0,1-.55468-1.70605,2.83573,2.83573,0,0,1,1.03808-2.28711,4.1205,4.1205,0,0,1,2.73438-.86817,7.95372,7.95372,0,0,1,3.3916.76075l-.55469,1.4082-.57617-.25684a5.70656,5.70656,0,0,0-2.26074-.44238,2.30034,2.30034,0,0,0-1.501.44727,1.50588,1.50588,0,0,0-.17969,2.14257,6.42323,6.42323,0,0,0,1.50586,1.0586,8.70845,8.70845,0,0,1,1.57715,1.05957,3.05026,3.05026,0,0,1,.71484.95019A2.695,2.695,0,0,1,113.64879,196.27035Z" fill="#232323"/><path d="M119.74352,188.201l-1.542,7.14356a7.74108,7.74108,0,0,0-.18457,1.42871,1.31765,1.31765,0,0,0,1.51074,1.4707,3.05947,3.05947,0,0,0,1.77832-.61719,5.48041,5.48041,0,0,0,1.541-1.76757,9.47069,9.47069,0,0,0,1.01758-2.77539l1.02832-4.88282H126.599l-2.374,11.26563h-1.42871l.22559-2.08692h-.123a6.75312,6.75312,0,0,1-1.92187,1.78907,3.88329,3.88329,0,0,1-1.8916.5039,2.87126,2.87126,0,0,1-2.06543-.71484,2.68117,2.68117,0,0,1-.751-2.04,9.59789,9.59789,0,0,1,.22656-1.76856l1.501-6.94824Z" fill="#232323"/><path d="M132.85875,199.67269a2.995,2.995,0,0,1-1.75195-.52441,3.20336,3.20336,0,0,1-1.13574-1.42871h-.10352l-.71875,1.74707h-1.28515l3.3916-15.99317h1.72754q-.52441,2.48731-.80762,3.80762-.28272,1.32129-.77539,3.08887h.0918a7.51662,7.51662,0,0,1,1.88671-1.78321,3.6238,3.6238,0,0,1,1.917-.57031A2.729,2.729,0,0,1,137.556,189.034a4.369,4.369,0,0,1,.8125,2.7959,10.95987,10.95987,0,0,1-.7041,3.97266,6.65564,6.65564,0,0,1-1.96387,2.84667A4.38312,4.38312,0,0,1,132.85875,199.67269Zm1.91211-10.22754a2.971,2.971,0,0,0-2.00976.97657,6.97635,6.97635,0,0,0-1.624,2.45605,8.0005,8.0005,0,0,0-.60058,3.03223,2.42063,2.42063,0,0,0,.57031,1.73242,2.16666,2.16666,0,0,0,1.64941.60156,2.71954,2.71954,0,0,0,1.89649-.833,5.84283,5.84283,0,0,0,1.41308-2.36914,9.86033,9.86033,0,0,0,.53418-3.26367Q136.6,189.44467,134.77086,189.44515Z" fill="#232323"/><path d="M146.96129,196.27035a3.01527,3.01527,0,0,1-1.13574,2.50293,5.04287,5.04287,0,0,1-3.20215.89941,6.82951,6.82951,0,0,1-3.13476-.71v-1.624a6.36432,6.36432,0,0,0,1.55273.668,5.64513,5.64513,0,0,0,1.541.2373,3.13281,3.13281,0,0,0,1.95312-.51465,1.59883,1.59883,0,0,0,.6582-1.31543,1.42,1.42,0,0,0-.36035-.98632,7.24075,7.24075,0,0,0-1.55175-1.10059,6.242,6.242,0,0,1-1.89161-1.46973,2.7093,2.7093,0,0,1-.55468-1.70605,2.83573,2.83573,0,0,1,1.03808-2.28711,4.1205,4.1205,0,0,1,2.73438-.86817,7.95372,7.95372,0,0,1,3.3916.76075l-.55469,1.4082-.57617-.25684a5.70656,5.70656,0,0,0-2.26074-.44238,2.30034,2.30034,0,0,0-1.501.44727,1.50588,1.50588,0,0,0-.17969,2.14257,6.42323,6.42323,0,0,0,1.50586,1.0586,8.70845,8.70845,0,0,1,1.57715,1.05957,3.05026,3.05026,0,0,1,.71484.95019A2.695,2.695,0,0,1,146.96129,196.27035Z" fill="#232323"/><path d="M150.75328,199.46664h-1.72656L151.432,188.201h1.72656Zm1.16211-14.14356a1.35266,1.35266,0,0,1,.32813-.94043,1.0964,1.0964,0,0,1,.85351-.36425.80835.80835,0,0,1,.9043.9248,1.395,1.395,0,0,1-.34375.95605,1.03693,1.03693,0,0,1-.79687.39063.95065.95065,0,0,1-.67871-.252A.93622.93622,0,0,1,151.91539,185.32308Z" fill="#232323"/><path d="M161.31969,196.27035a3.01529,3.01529,0,0,1-1.13574,2.50293,5.04287,5.04287,0,0,1-3.20215.89941,6.82958,6.82958,0,0,1-3.13477-.71v-1.624a6.36456,6.36456,0,0,0,1.55274.668,5.64512,5.64512,0,0,0,1.541.2373,3.13282,3.13282,0,0,0,1.95313-.51465,1.59883,1.59883,0,0,0,.6582-1.31543,1.42,1.42,0,0,0-.36035-.98632A7.24089,7.24089,0,0,0,157.64,194.327a6.242,6.242,0,0,1-1.8916-1.46973,2.70924,2.70924,0,0,1-.55469-1.70605,2.83573,2.83573,0,0,1,1.03809-2.28711,4.1205,4.1205,0,0,1,2.73438-.86817,7.95372,7.95372,0,0,1,3.3916.76075l-.55469,1.4082-.57617-.25684a5.7066,5.7066,0,0,0-2.26074-.44238,2.30034,2.30034,0,0,0-1.501.44727,1.50588,1.50588,0,0,0-.17969,2.14257,6.42323,6.42323,0,0,0,1.50586,1.0586,8.70845,8.70845,0,0,1,1.57715,1.05957,3.05026,3.05026,0,0,1,.71484.95019A2.695,2.695,0,0,1,161.31969,196.27035Z" fill="#232323"/><path d="M166.83922,198.26449a5.58574,5.58574,0,0,0,1.48047-.26758v1.32617a4.75105,4.75105,0,0,1-.86328.2461,4.454,4.454,0,0,1-.82227.10351,2.85746,2.85746,0,0,1-1.96875-.6123,2.32347,2.32347,0,0,1-.68359-1.82422,7.477,7.477,0,0,1,.18555-1.542l1.30566-6.1875h-1.76855l.14453-.75,1.90137-.80176,1.28417-2.34375h1.00782l-.56543,2.58984h2.8164l-.26757,1.30567h-2.80567l-1.32617,6.208a7.33712,7.33712,0,0,0-.18457,1.35743,1.219,1.219,0,0,0,.29785.88379A1.10526,1.10526,0,0,0,166.83922,198.26449Z" fill="#232323"/><path d="M174.66149,199.67269a3.92791,3.92791,0,0,1-2.96973-1.12109,4.28562,4.28562,0,0,1-1.08008-3.10352,9.2522,9.2522,0,0,1,.7666-3.70605,6.85566,6.85566,0,0,1,2.0293-2.75977,4.42774,4.42774,0,0,1,2.78613-.98633,3.52931,3.52931,0,0,1,2.36329.6836,2.38258,2.38258,0,0,1,.792,1.90625,3.261,3.261,0,0,1-1.70606,2.9043,9.34994,9.34994,0,0,1-4.88281,1.05273h-.33887l-.041.82227a3.18422,3.18422,0,0,0,.63183,2.10253,2.40953,2.40953,0,0,0,1.958.75489,5.09829,5.09829,0,0,0,1.33106-.18457,10.15382,10.15382,0,0,0,1.70117-.67871v1.501a9.25182,9.25182,0,0,1-1.70606.63184A6.90863,6.90863,0,0,1,174.66149,199.67269Zm1.42871-10.207a2.74781,2.74781,0,0,0-1.98828.96582,6.31946,6.31946,0,0,0-1.42383,2.68262h.12305a8.387,8.387,0,0,0,3.59277-.61133,1.91931,1.91931,0,0,0,1.249-1.77246,1.20294,1.20294,0,0,0-.375-.90527A1.65664,1.65664,0,0,0,176.0902,189.46566Z" fill="#232323"/><path d="M187.47887,199.46664l1.52149-7.11231a9.39862,9.39862,0,0,0,.20507-1.48047,1.46065,1.46065,0,0,0-.36523-1.03808,1.52877,1.52877,0,0,0-1.166-.39063,3.04514,3.04514,0,0,0-1.7832.61621,5.49254,5.49254,0,0,0-1.53223,1.75782,9.27824,9.27824,0,0,0-1.00195,2.76562l-1.03809,4.88184h-1.72656l2.40528-11.26563h1.42871l-.22657,2.08692h.10352a6.87,6.87,0,0,1,1.90625-1.77344,3.833,3.833,0,0,1,1.90625-.51856,2.88274,2.88274,0,0,1,2.06152.71387,2.6236,2.6236,0,0,1,.75489,2,8.40079,8.40079,0,0,1-.23633,1.84961l-1.46973,6.90723Z" fill="#232323"/><path d="M197.33629,199.67269a3.82664,3.82664,0,0,1-4.19433-4.2041,9.35531,9.35531,0,0,1,.76074-3.793,6.44081,6.44081,0,0,1,2.10254-2.708,5.01066,5.01066,0,0,1,3.0166-.97168,7.53547,7.53547,0,0,1,2.75488.52442l-.4834,1.44922a5.81183,5.81183,0,0,0-2.251-.52442,3.21692,3.21692,0,0,0-2.10157.78614,5.177,5.177,0,0,0-1.49121,2.18945,8.428,8.428,0,0,0-.53906,3.04785,2.87366,2.87366,0,0,0,.6836,2.04492,2.45411,2.45411,0,0,0,1.88574.73047,4.68,4.68,0,0,0,1.39843-.20605,12.69928,12.69928,0,0,0,1.29493-.4834v1.46972A6.17468,6.17468,0,0,1,197.33629,199.67269Z" fill="#232323"/><path d="M206.66832,199.67269a3.92789,3.92789,0,0,1-2.96972-1.12109,4.28562,4.28562,0,0,1-1.08008-3.10352,9.2522,9.2522,0,0,1,.7666-3.70605,6.85557,6.85557,0,0,1,2.0293-2.75977,4.4277,4.4277,0,0,1,2.78613-.98633,3.52928,3.52928,0,0,1,2.36328.6836,2.38258,2.38258,0,0,1,.792,1.90625,3.26094,3.26094,0,0,1-1.70605,2.9043,9.35,9.35,0,0,1-4.88281,1.05273h-.33887l-.041.82227a3.18417,3.18417,0,0,0,.63184,2.10253,2.40951,2.40951,0,0,0,1.958.75489,5.09816,5.09816,0,0,0,1.33105-.18457,10.15348,10.15348,0,0,0,1.70117-.67871v1.501a9.252,9.252,0,0,1-1.70605.63184A6.90872,6.90872,0,0,1,206.66832,199.67269Zm1.42871-10.207a2.74784,2.74784,0,0,0-1.98828.96582,6.31956,6.31956,0,0,0-1.42382,2.68262h.123a8.387,8.387,0,0,0,3.59278-.61133,1.91931,1.91931,0,0,0,1.249-1.77246,1.20294,1.20294,0,0,0-.375-.90527A1.65668,1.65668,0,0,0,208.097,189.46566Z" fill="#232323"/><path d="M224.95446,199.46664l1.52148-7.11231a9.39777,9.39777,0,0,0,.20508-1.48047,1.46061,1.46061,0,0,0-.36524-1.03808,1.52873,1.52873,0,0,0-1.166-.39063,3.04514,3.04514,0,0,0-1.7832.61621,5.4923,5.4923,0,0,0-1.53223,1.75782,9.278,9.278,0,0,0-1.00195,2.76562l-1.03809,4.88184h-1.72656L220.473,188.201h1.42871l-.22656,2.08692h.10352a6.86968,6.86968,0,0,1,1.90625-1.77344,3.833,3.833,0,0,1,1.90625-.51856,2.88277,2.88277,0,0,1,2.06152.71387,2.6236,2.6236,0,0,1,.75488,2,8.40019,8.40019,0,0,1-.23633,1.84961l-1.46972,6.90723Z" fill="#232323"/><path d="M234.66735,199.67269a3.92791,3.92791,0,0,1-2.96973-1.12109,4.28562,4.28562,0,0,1-1.08008-3.10352,9.2522,9.2522,0,0,1,.7666-3.70605,6.85566,6.85566,0,0,1,2.0293-2.75977,4.42772,4.42772,0,0,1,2.78613-.98633,3.52931,3.52931,0,0,1,2.36329.6836,2.38258,2.38258,0,0,1,.792,1.90625,3.261,3.261,0,0,1-1.70606,2.9043,9.34994,9.34994,0,0,1-4.88281,1.05273h-.33887l-.041.82227a3.18417,3.18417,0,0,0,.63183,2.10253,2.40953,2.40953,0,0,0,1.958.75489,5.09829,5.09829,0,0,0,1.33106-.18457,10.15382,10.15382,0,0,0,1.70117-.67871v1.501a9.25182,9.25182,0,0,1-1.70606.63184A6.90863,6.90863,0,0,1,234.66735,199.67269Zm1.42871-10.207a2.74781,2.74781,0,0,0-1.98828.96582,6.31946,6.31946,0,0,0-1.42383,2.68262h.123a8.387,8.387,0,0,0,3.59277-.61133,1.91931,1.91931,0,0,0,1.249-1.77246,1.20294,1.20294,0,0,0-.375-.90527A1.65666,1.65666,0,0,0,236.09606,189.46566Z" fill="#232323"/><path d="M245.04821,199.67269a3.9279,3.9279,0,0,1-2.96973-1.12109,4.28562,4.28562,0,0,1-1.08008-3.10352,9.2522,9.2522,0,0,1,.7666-3.70605,6.85566,6.85566,0,0,1,2.0293-2.75977,4.4277,4.4277,0,0,1,2.78613-.98633,3.52928,3.52928,0,0,1,2.36328.6836,2.38258,2.38258,0,0,1,.792,1.90625,3.261,3.261,0,0,1-1.70606,2.9043,9.34994,9.34994,0,0,1-4.88281,1.05273H242.808l-.041.82227a3.18417,3.18417,0,0,0,.63183,2.10253,2.40953,2.40953,0,0,0,1.958.75489,5.09829,5.09829,0,0,0,1.33106-.18457,10.15382,10.15382,0,0,0,1.70117-.67871v1.501a9.25182,9.25182,0,0,1-1.70606.63184A6.90863,6.90863,0,0,1,245.04821,199.67269Zm1.42871-10.207a2.74781,2.74781,0,0,0-1.98828.96582,6.31946,6.31946,0,0,0-1.42383,2.68262h.12305a8.387,8.387,0,0,0,3.59277-.61133,1.91931,1.91931,0,0,0,1.249-1.77246,1.20294,1.20294,0,0,0-.375-.90527A1.65666,1.65666,0,0,0,246.47692,189.46566Z" fill="#232323"/><path d="M256.94176,188.01644a2.99814,2.99814,0,0,1,2.8877,1.95313h.10254a23.89612,23.89612,0,0,1,.46289-2.81641l.80175-3.67969h1.70606l-3.3916,15.99317h-1.42871l.22558-2.14844h-.082a7.73479,7.73479,0,0,1-1.94238,1.81934,3.63112,3.63112,0,0,1-1.8711.53515,2.69186,2.69186,0,0,1-2.23046-1.00781,4.382,4.382,0,0,1-.80176-2.7959,10.65643,10.65643,0,0,1,.74023-4.0293,6.723,6.723,0,0,1,1.999-2.82617A4.43072,4.43072,0,0,1,256.94176,188.01644ZM254.98864,198.244a2.99339,2.99339,0,0,0,1.99414-.96191,6.75876,6.75876,0,0,0,1.6289-2.45606,8.11326,8.11326,0,0,0,.60157-3.04785,2.46059,2.46059,0,0,0-.55567-1.7373,2.10082,2.10082,0,0,0-1.61328-.59571,2.74938,2.74938,0,0,0-1.92773.84766,5.96847,5.96847,0,0,0-1.42871,2.38477,9.69585,9.69585,0,0,0-.53907,3.23242Q253.14879,198.24349,254.98864,198.244Z" fill="#232323"/><path d="M270.07653,196.27035a3.01527,3.01527,0,0,1-1.13575,2.50293,5.04282,5.04282,0,0,1-3.20214.89941,6.82952,6.82952,0,0,1-3.13477-.71v-1.624a6.36423,6.36423,0,0,0,1.55274.668,5.645,5.645,0,0,0,1.541.2373,3.13284,3.13284,0,0,0,1.95313-.51465,1.59886,1.59886,0,0,0,.6582-1.31543,1.42,1.42,0,0,0-.36035-.98632,7.24116,7.24116,0,0,0-1.55176-1.10059,6.24191,6.24191,0,0,1-1.8916-1.46973,2.70924,2.70924,0,0,1-.55469-1.70605,2.83571,2.83571,0,0,1,1.03809-2.28711,4.12047,4.12047,0,0,1,2.73437-.86817,7.95365,7.95365,0,0,1,3.3916.76075l-.55468,1.4082-.57618-.25684a5.70656,5.70656,0,0,0-2.26074-.44238,2.30038,2.30038,0,0,0-1.501.44727,1.50587,1.50587,0,0,0-.17968,2.14257,6.42277,6.42277,0,0,0,1.50586,1.0586,8.70845,8.70845,0,0,1,1.57715,1.05957,3.05042,3.05042,0,0,1,.71484.95019A2.695,2.695,0,0,1,270.07653,196.27035Z" fill="#232323"/><path d="M274.5277,197.02035l.082.23633a45.87424,45.87424,0,0,1-2.77539,4.92382h-1.32617q1.29639-2.93994,2.09765-5.16015Z" fill="#232323"/><path d="M85.4027,224.93343a2.995,2.995,0,0,1-1.75195-.52441,3.20338,3.20338,0,0,1-1.13575-1.42871h-.10351l-.71875,1.74707H80.40758l3.3916-15.99316h1.72754q-.52441,2.4873-.80761,3.80761-.28272,1.32129-.7754,3.08887h.0918a7.51677,7.51677,0,0,1,1.88672-1.7832,3.62371,3.62371,0,0,1,1.917-.57032A2.729,2.729,0,0,1,90.1,214.29476a4.36894,4.36894,0,0,1,.8125,2.7959,10.95987,10.95987,0,0,1-.7041,3.97266A6.65558,6.65558,0,0,1,88.2445,223.91,4.38318,4.38318,0,0,1,85.4027,224.93343Zm1.91211-10.22753a2.971,2.971,0,0,0-2.00977.97656,6.97642,6.97642,0,0,0-1.624,2.45605,8.00051,8.00051,0,0,0-.60059,3.03223,2.42062,2.42062,0,0,0,.57032,1.73242,2.16665,2.16665,0,0,0,1.64941.60156,2.71955,2.71955,0,0,0,1.89648-.833,5.84309,5.84309,0,0,0,1.41309-2.36914,9.86043,9.86043,0,0,0,.53418-3.26368Q89.14391,214.70541,87.31481,214.7059Z" fill="#232323"/><path d="M98.55993,213.3182a4.115,4.115,0,0,1,3.083,1.15625,4.35579,4.35579,0,0,1,1.13086,3.18164,9.12065,9.12065,0,0,1-.74023,3.64844,6.313,6.313,0,0,1-2.00391,2.65234,4.68725,4.68725,0,0,1-2.85742.93457,4.09543,4.09543,0,0,1-3.09375-1.16113,4.38227,4.38227,0,0,1-1.12109-3.17578,9.10147,9.10147,0,0,1,.751-3.67481,6.22831,6.22831,0,0,1,2.02442-2.6416A4.71944,4.71944,0,0,1,98.55993,213.3182Zm2.42578,4.10156a2.80857,2.80857,0,0,0-.64258-1.917,2.19522,2.19522,0,0,0-1.74219-.73535,3.01054,3.01054,0,0,0-2.00976.76074,4.88928,4.88928,0,0,0-1.377,2.11231,8.78409,8.78409,0,0,0-.48828,3.00683,3.02923,3.02923,0,0,0,.65234,2.08106,2.37663,2.37663,0,0,0,1.876.73437,2.8335,2.8335,0,0,0,1.92188-.75,4.89008,4.89008,0,0,0,1.331-2.13281A9.65521,9.65521,0,0,0,100.98571,217.41976Z" fill="#232323"/><path d="M110.3695,213.3182a4.115,4.115,0,0,1,3.083,1.15625,4.35579,4.35579,0,0,1,1.13086,3.18164,9.12065,9.12065,0,0,1-.74023,3.64844,6.313,6.313,0,0,1-2.00391,2.65234,4.68725,4.68725,0,0,1-2.85742.93457,4.09543,4.09543,0,0,1-3.09375-1.16113,4.38227,4.38227,0,0,1-1.12109-3.17578,9.10147,9.10147,0,0,1,.751-3.67481,6.22831,6.22831,0,0,1,2.02442-2.6416A4.71944,4.71944,0,0,1,110.3695,213.3182Zm2.42578,4.10156a2.80857,2.80857,0,0,0-.64258-1.917,2.19522,2.19522,0,0,0-1.74219-.73535,3.01054,3.01054,0,0,0-2.00976.76074,4.88928,4.88928,0,0,0-1.377,2.11231,8.78409,8.78409,0,0,0-.48828,3.00683,3.02919,3.02919,0,0,0,.65235,2.08106,2.37659,2.37659,0,0,0,1.876.73437,2.8335,2.8335,0,0,0,1.92188-.75,4.89008,4.89008,0,0,0,1.33105-2.13281A9.65521,9.65521,0,0,0,112.79528,217.41976Z" fill="#232323"/><path d="M123.12536,221.53109a3.01527,3.01527,0,0,1-1.13575,2.50293,5.04285,5.04285,0,0,1-3.20215.89941,6.82951,6.82951,0,0,1-3.13476-.71v-1.624a6.36394,6.36394,0,0,0,1.55273.668,5.64513,5.64513,0,0,0,1.541.2373,3.13286,3.13286,0,0,0,1.95312-.51464,1.59885,1.59885,0,0,0,.65821-1.31543,1.42,1.42,0,0,0-.36035-.98633,7.24116,7.24116,0,0,0-1.55176-1.10059,6.24178,6.24178,0,0,1-1.8916-1.46973,2.70924,2.70924,0,0,1-.55469-1.70605,2.83573,2.83573,0,0,1,1.03808-2.28711,4.12051,4.12051,0,0,1,2.73438-.86816,7.95367,7.95367,0,0,1,3.3916.76074l-.55469,1.4082-.57617-.25683a5.70639,5.70639,0,0,0-2.26074-.44239,2.30034,2.30034,0,0,0-1.501.44727,1.50588,1.50588,0,0,0-.17968,2.14258,6.42323,6.42323,0,0,0,1.50585,1.05859,8.70845,8.70845,0,0,1,1.57715,1.05957,3.05049,3.05049,0,0,1,.71485.9502A2.69508,2.69508,0,0,1,123.12536,221.53109Z" fill="#232323"/><path d="M128.64391,223.52523a5.58581,5.58581,0,0,0,1.48047-.26758v1.32618a4.75192,4.75192,0,0,1-.86328.24609,4.45408,4.45408,0,0,1-.82227.10351,2.85746,2.85746,0,0,1-1.96875-.6123,2.32343,2.32343,0,0,1-.68359-1.82422,7.47762,7.47762,0,0,1,.18554-1.542l1.30567-6.1875h-1.76856l.14454-.75,1.90136-.80176,1.28418-2.34375H129.847l-.56542,2.58984h2.8164l-.26758,1.30567h-2.80566l-1.32617,6.208a7.337,7.337,0,0,0-.18457,1.35742,1.219,1.219,0,0,0,.29785.88379A1.10522,1.10522,0,0,0,128.64391,223.52523Z" fill="#232323"/><path d="M133.74254,224.72738H132.016l2.40527-11.26563h1.72657Zm1.16211-14.14355a1.35264,1.35264,0,0,1,.32813-.94043,1.09635,1.09635,0,0,1,.85351-.36426.80835.80835,0,0,1,.9043.9248,1.395,1.395,0,0,1-.34375.95606,1.037,1.037,0,0,1-.79688.39062.95067.95067,0,0,1-.67871-.252A.93624.93624,0,0,1,134.90465,210.58383Z" fill="#232323"/><path d="M144.24743,224.72738l1.52148-7.1123a9.39807,9.39807,0,0,0,.20508-1.48047,1.46064,1.46064,0,0,0-.36524-1.03809,1.52873,1.52873,0,0,0-1.166-.39062,3.04512,3.04512,0,0,0-1.78321.61621,5.49235,5.49235,0,0,0-1.53222,1.75781,9.27807,9.27807,0,0,0-1.00195,2.76562l-1.03809,4.88184h-1.72656l2.40527-11.26563h1.42871l-.22656,2.08692h.10351a6.87,6.87,0,0,1,1.90625-1.77344,3.833,3.833,0,0,1,1.90625-.51855,2.88278,2.88278,0,0,1,2.06153.71386,2.62361,2.62361,0,0,1,.75488,2,8.40019,8.40019,0,0,1-.23633,1.84961l-1.46972,6.90723Z" fill="#232323"/><path d="M160.21032,213.46175l-.25684,1.10059-2.169.24609a2.89507,2.89507,0,0,1,.4209,1.624,4.17056,4.17056,0,0,1-1.19726,3.12988,4.38767,4.38767,0,0,1-3.20117,1.167,3.46276,3.46276,0,0,1-.86426-.082q-1.42822.54492-1.42871,1.3457a.54512.54512,0,0,0,.33984.56055,4.07516,4.07516,0,0,0,.98633.2207l1.20312.14454a5.35073,5.35073,0,0,1,2.69727.90429,2.41358,2.41358,0,0,1,.83789,1.99414,3.35465,3.35465,0,0,1-1.5,2.92871,7.3598,7.3598,0,0,1-4.22461,1.03809,5.5725,5.5725,0,0,1-3.125-.75488,2.42,2.42,0,0,1-1.13086-2.13281,2.64886,2.64886,0,0,1,.74024-1.8711,5.76894,5.76894,0,0,1,2.39453-1.34668,1.33743,1.33743,0,0,1-.80078-1.24316,1.63583,1.63583,0,0,1,.52343-1.21778,5.3932,5.3932,0,0,1,1.46-.95117,2.679,2.679,0,0,1-1.05859-.97168,2.70691,2.70691,0,0,1-.41113-1.49511,4.51444,4.51444,0,0,1,1.22851-3.26856,4.1697,4.1697,0,0,1,3.13965-1.27441,6.21013,6.21013,0,0,1,1.583.20507Zm-10.94727,13.26954a1.4461,1.4461,0,0,0,.66895,1.2539,3.4882,3.4882,0,0,0,1.98339.46289,5.54928,5.54928,0,0,0,2.92383-.65234,2.05831,2.05831,0,0,0,1.05371-1.8457,1.15113,1.15113,0,0,0-.55468-1.00684,4.4479,4.4479,0,0,0-1.89161-.51367l-1.63378-.165a3.71516,3.71516,0,0,0-1.89161.90527A2.112,2.112,0,0,0,149.26305,226.73129Zm2.85742-8.99317a1.79052,1.79052,0,0,0,.46289,1.33106,1.74892,1.74892,0,0,0,1.28516.457,2.37972,2.37972,0,0,0,1.418-.43164,2.74946,2.74946,0,0,0,.93066-1.18653,4.12141,4.12141,0,0,0,.32324-1.63964,1.7175,1.7175,0,0,0-.45214-1.28516,1.78023,1.78023,0,0,0-1.29493-.44141,2.40729,2.40729,0,0,0-1.40332.416,2.73224,2.73224,0,0,0-.93554,1.16113A3.916,3.916,0,0,0,152.12047,217.73812Z" fill="#232323"/><path d="M171.48571,213.25668a2.90706,2.90706,0,0,1,1.68554.50879,3.3062,3.3062,0,0,1,1.15137,1.46484h.11231l.68945-1.76856h1.30469l-2.39454,11.26563h-1.36718l.26758-2.14844h-.083q-1.83984,2.354-3.875,2.35449a2.70965,2.70965,0,0,1-2.24024-1.01757,4.35274,4.35274,0,0,1-.8125-2.78614,10.60292,10.60292,0,0,1,.73047-3.96777,6.85128,6.85128,0,0,1,2.01465-2.86719A4.38022,4.38022,0,0,1,171.48571,213.25668Zm-1.95313,10.248a2.89381,2.89381,0,0,0,1.9834-.95117,7.04217,7.04217,0,0,0,1.60352-2.47754,8.10543,8.10543,0,0,0,.61718-3.05761,2.39489,2.39489,0,0,0-.57617-1.68555,1.95491,1.95491,0,0,0-1.51074-.62695,2.83171,2.83171,0,0,0-1.98926.88378,5.95906,5.95906,0,0,0-1.44336,2.39454,9.65459,9.65459,0,0,0-.52441,3.18652,2.70089,2.70089,0,0,0,.48242,1.75293A1.66942,1.66942,0,0,0,169.53258,223.50472Z" fill="#232323"/><path d="M182.0111,224.93343a3.82665,3.82665,0,0,1-4.19434-4.2041,9.35548,9.35548,0,0,1,.76074-3.793,6.44079,6.44079,0,0,1,2.10254-2.708,5.01064,5.01064,0,0,1,3.0166-.97168,7.53551,7.53551,0,0,1,2.75489.52441l-.4834,1.44922a5.81189,5.81189,0,0,0-2.251-.52441,3.21687,3.21687,0,0,0-2.10156.78613,5.17681,5.17681,0,0,0-1.49121,2.18945,8.42774,8.42774,0,0,0-.53906,3.04785,2.87367,2.87367,0,0,0,.68359,2.04492,2.45412,2.45412,0,0,0,1.88574.73047,4.68,4.68,0,0,0,1.39844-.20605,12.69823,12.69823,0,0,0,1.29492-.4834V224.285A6.17479,6.17479,0,0,1,182.0111,224.93343Z" fill="#232323"/><path d="M191.48766,224.93343a3.82665,3.82665,0,0,1-4.19434-4.2041,9.35532,9.35532,0,0,1,.76075-3.793,6.44064,6.44064,0,0,1,2.10254-2.708,5.0106,5.0106,0,0,1,3.0166-.97168,7.5355,7.5355,0,0,1,2.75488.52441l-.4834,1.44922a5.81181,5.81181,0,0,0-2.251-.52441,3.21689,3.21689,0,0,0-2.10156.78613,5.1769,5.1769,0,0,0-1.49121,2.18945,8.428,8.428,0,0,0-.53906,3.04785,2.87367,2.87367,0,0,0,.68359,2.04492,2.45413,2.45413,0,0,0,1.88574.73047,4.68,4.68,0,0,0,1.39844-.20605,12.69823,12.69823,0,0,0,1.29492-.4834V224.285A6.17476,6.17476,0,0,1,191.48766,224.93343Z" fill="#232323"/><path d="M200.81969,224.93343a3.92791,3.92791,0,0,1-2.96973-1.12109,4.28563,4.28563,0,0,1-1.08007-3.10351,9.25222,9.25222,0,0,1,.7666-3.70606,6.85555,6.85555,0,0,1,2.02929-2.75977,4.42773,4.42773,0,0,1,2.78614-.98632,3.52934,3.52934,0,0,1,2.36328.68359,2.38259,2.38259,0,0,1,.792,1.90625,3.26094,3.26094,0,0,1-1.70605,2.9043,9.34991,9.34991,0,0,1-4.88282,1.05273h-.33886l-.041.82227a3.18422,3.18422,0,0,0,.63184,2.10254,2.40953,2.40953,0,0,0,1.958.75488,5.09781,5.09781,0,0,0,1.33106-.18457,10.15382,10.15382,0,0,0,1.70117-.67871v1.501a9.252,9.252,0,0,1-1.706.63184A6.90878,6.90878,0,0,1,200.81969,224.93343Zm1.42871-10.207a2.74782,2.74782,0,0,0-1.98828.96582,6.31952,6.31952,0,0,0-1.42383,2.68262h.12305a8.3868,8.3868,0,0,0,3.59277-.61133,1.9193,1.9193,0,0,0,1.249-1.77246,1.20294,1.20294,0,0,0-.375-.90527A1.65668,1.65668,0,0,0,202.2484,214.7264Z" fill="#232323"/><path d="M213.6986,221.53109a3.01529,3.01529,0,0,1-1.13574,2.50293,5.04287,5.04287,0,0,1-3.20215.89941,6.82952,6.82952,0,0,1-3.13477-.71v-1.624a6.36384,6.36384,0,0,0,1.55274.668,5.645,5.645,0,0,0,1.541.2373,3.13291,3.13291,0,0,0,1.95313-.51464,1.59887,1.59887,0,0,0,.6582-1.31543,1.42,1.42,0,0,0-.36035-.98633,7.24116,7.24116,0,0,0-1.55176-1.10059,6.24191,6.24191,0,0,1-1.8916-1.46973,2.70924,2.70924,0,0,1-.55469-1.70605,2.83571,2.83571,0,0,1,1.03809-2.28711,4.12047,4.12047,0,0,1,2.73437-.86816,7.95364,7.95364,0,0,1,3.3916.76074l-.55468,1.4082-.57618-.25683a5.70639,5.70639,0,0,0-2.26074-.44239,2.30033,2.30033,0,0,0-1.501.44727,1.50587,1.50587,0,0,0-.17969,2.14258,6.42312,6.42312,0,0,0,1.50586,1.05859,8.70845,8.70845,0,0,1,1.57715,1.05957,3.05045,3.05045,0,0,1,.71484.9502A2.69493,2.69493,0,0,1,213.6986,221.53109Z" fill="#232323"/><path d="M222.71325,221.53109a3.01527,3.01527,0,0,1-1.13575,2.50293,5.04284,5.04284,0,0,1-3.20214.89941,6.82952,6.82952,0,0,1-3.13477-.71v-1.624a6.36394,6.36394,0,0,0,1.55273.668,5.64513,5.64513,0,0,0,1.541.2373,3.13286,3.13286,0,0,0,1.95312-.51464,1.59885,1.59885,0,0,0,.65821-1.31543,1.42,1.42,0,0,0-.36035-.98633,7.24116,7.24116,0,0,0-1.55176-1.10059,6.24178,6.24178,0,0,1-1.8916-1.46973,2.70924,2.70924,0,0,1-.55469-1.70605,2.83571,2.83571,0,0,1,1.03809-2.28711,4.12047,4.12047,0,0,1,2.73437-.86816,7.95364,7.95364,0,0,1,3.3916.76074l-.55469,1.4082-.57617-.25683a5.70639,5.70639,0,0,0-2.26074-.44239,2.30034,2.30034,0,0,0-1.501.44727,1.50588,1.50588,0,0,0-.17968,2.14258,6.42312,6.42312,0,0,0,1.50586,1.05859,8.70866,8.70866,0,0,1,1.57714,1.05957,3.05049,3.05049,0,0,1,.71485.9502A2.69508,2.69508,0,0,1,222.71325,221.53109Z" fill="#232323"/><path d="M102.27965,248.785a5.58615,5.58615,0,0,0,1.48047-.26758v1.32617a4.75111,4.75111,0,0,1-.86328.24609,4.45415,4.45415,0,0,1-.82227.10352,2.85746,2.85746,0,0,1-1.96875-.6123,2.32347,2.32347,0,0,1-.68359-1.82422,7.47717,7.47717,0,0,1,.18555-1.542l1.30566-6.1875H99.14489l.14453-.75,1.90136-.80175,1.28418-2.34375h1.00782l-.56543,2.58984h2.8164l-.26757,1.30566h-2.80567l-1.32617,6.208a7.33714,7.33714,0,0,0-.18457,1.35742,1.219,1.219,0,0,0,.29785.88379A1.10522,1.10522,0,0,0,102.27965,248.785Z" fill="#232323"/><path d="M111.65465,238.578a4.11506,4.11506,0,0,1,3.083,1.15625,4.35579,4.35579,0,0,1,1.13086,3.18164,9.12047,9.12047,0,0,1-.74024,3.64843,6.313,6.313,0,0,1-2.0039,2.65235,4.68732,4.68732,0,0,1-2.85742.93457,4.09543,4.09543,0,0,1-3.09375-1.16113,4.3823,4.3823,0,0,1-1.1211-3.17579,9.10146,9.10146,0,0,1,.751-3.6748,6.2283,6.2283,0,0,1,2.02441-2.6416A4.71946,4.71946,0,0,1,111.65465,238.578Zm2.42578,4.10156a2.80853,2.80853,0,0,0-.64257-1.917,2.19521,2.19521,0,0,0-1.74219-.73536,3.01054,3.01054,0,0,0-2.00977.76075,4.88917,4.88917,0,0,0-1.377,2.1123,8.78414,8.78414,0,0,0-.48828,3.00684,3.02914,3.02914,0,0,0,.65234,2.08105,2.3766,2.3766,0,0,0,1.876.73438,2.83348,2.83348,0,0,0,1.92187-.75,4.89,4.89,0,0,0,1.33106-2.13282A9.65512,9.65512,0,0,0,114.08043,242.67953Z" fill="#232323"/><path d="M130.05309,238.51644a4.702,4.702,0,0,1,1.2334.14356l-.37012,1.542a4.5275,4.5275,0,0,0-1.0791-.13379,2.85625,2.85625,0,0,0-1.75293.61719,5.41571,5.41571,0,0,0-1.42871,1.71094,8.74233,8.74233,0,0,0-.89942,2.43066l-1.0996,5.16016H122.93l2.40528-11.26563H126.764l-.22657,2.08691h.10352a10.10545,10.10545,0,0,1,1.22266-1.40332,3.87745,3.87745,0,0,1,1.01269-.65722A2.90543,2.90543,0,0,1,130.05309,238.51644Z" fill="#232323"/><path d="M135.7152,250.1932a3.92791,3.92791,0,0,1-2.96973-1.12109,4.28566,4.28566,0,0,1-1.08008-3.10352,9.252,9.252,0,0,1,.76661-3.70605,6.85548,6.85548,0,0,1,2.02929-2.75977,4.42769,4.42769,0,0,1,2.78614-.98633,3.5293,3.5293,0,0,1,2.36328.6836,2.38258,2.38258,0,0,1,.792,1.90625,3.26094,3.26094,0,0,1-1.70606,2.90429,9.34984,9.34984,0,0,1-4.88281,1.05274H133.475l-.041.82226a3.18423,3.18423,0,0,0,.63183,2.10254,2.40952,2.40952,0,0,0,1.958.75488,5.09787,5.09787,0,0,0,1.33106-.18457,10.15208,10.15208,0,0,0,1.70117-.67871v1.501a9.25182,9.25182,0,0,1-1.70606.63184A6.90915,6.90915,0,0,1,135.7152,250.1932Zm1.42871-10.207a2.74779,2.74779,0,0,0-1.98828.96582,6.31946,6.31946,0,0,0-1.42383,2.68262h.12305a8.387,8.387,0,0,0,3.59277-.61133,1.91931,1.91931,0,0,0,1.249-1.77246,1.203,1.203,0,0,0-.375-.90528A1.65669,1.65669,0,0,0,137.14391,239.98617Z" fill="#232323"/><path d="M148.59508,246.79086a3.01527,3.01527,0,0,1-1.13574,2.50293,5.04287,5.04287,0,0,1-3.20215.89941,6.82951,6.82951,0,0,1-3.13476-.71v-1.624a6.36391,6.36391,0,0,0,1.55273.668,5.64478,5.64478,0,0,0,1.541.23731,3.13288,3.13288,0,0,0,1.95312-.51465,1.59883,1.59883,0,0,0,.6582-1.31543,1.42,1.42,0,0,0-.36035-.98633,7.24059,7.24059,0,0,0-1.55176-1.10058,6.242,6.242,0,0,1-1.8916-1.46973,2.7093,2.7093,0,0,1-.55468-1.70605,2.83571,2.83571,0,0,1,1.03808-2.28711,4.12044,4.12044,0,0,1,2.73438-.86817,7.95385,7.95385,0,0,1,3.3916.76074l-.55469,1.40821-.57617-.25684a5.70656,5.70656,0,0,0-2.26074-.44238,2.30034,2.30034,0,0,0-1.501.44726,1.50589,1.50589,0,0,0-.17969,2.14258,6.42323,6.42323,0,0,0,1.50586,1.0586,8.70792,8.70792,0,0,1,1.57715,1.05957,3.05015,3.05015,0,0,1,.71484.95019A2.695,2.695,0,0,1,148.59508,246.79086Z" fill="#232323"/><path d="M156.66344,238.578a4.11506,4.11506,0,0,1,3.083,1.15625,4.35579,4.35579,0,0,1,1.13086,3.18164,9.12047,9.12047,0,0,1-.74024,3.64843,6.313,6.313,0,0,1-2.0039,2.65235,4.68734,4.68734,0,0,1-2.85742.93457,4.09543,4.09543,0,0,1-3.09375-1.16113,4.3823,4.3823,0,0,1-1.1211-3.17579,9.10146,9.10146,0,0,1,.751-3.6748,6.2283,6.2283,0,0,1,2.02441-2.6416A4.71944,4.71944,0,0,1,156.66344,238.578Zm2.42578,4.10156a2.80849,2.80849,0,0,0-.64258-1.917,2.19518,2.19518,0,0,0-1.74218-.73536,3.01052,3.01052,0,0,0-2.00977.76075,4.88917,4.88917,0,0,0-1.377,2.1123,8.78414,8.78414,0,0,0-.48828,3.00684,3.02914,3.02914,0,0,0,.65234,2.08105,2.3766,2.3766,0,0,0,1.876.73438,2.83348,2.83348,0,0,0,1.92187-.75,4.89,4.89,0,0,0,1.33106-2.13282A9.65512,9.65512,0,0,0,159.08922,242.67953Z" fill="#232323"/><path d="M166.50036,238.72152l-1.542,7.14356a7.742,7.742,0,0,0-.18457,1.42871,1.31766,1.31766,0,0,0,1.51074,1.4707,3.05957,3.05957,0,0,0,1.77833-.61719,5.48035,5.48035,0,0,0,1.541-1.76758,9.47076,9.47076,0,0,0,1.01758-2.77539l1.02832-4.88281h1.70605l-2.374,11.26563h-1.42871l.22559-2.08692h-.12305a6.75308,6.75308,0,0,1-1.92188,1.78906,3.88327,3.88327,0,0,1-1.8916.50391,2.87127,2.87127,0,0,1-2.06543-.71484,2.68121,2.68121,0,0,1-.751-2.04,9.597,9.597,0,0,1,.22656-1.76856l1.501-6.94824Z" fill="#232323"/><path d="M181.74352,238.51644a4.702,4.702,0,0,1,1.2334.14356l-.37012,1.542a4.5275,4.5275,0,0,0-1.0791-.13379,2.85625,2.85625,0,0,0-1.75293.61719,5.41571,5.41571,0,0,0-1.42871,1.71094,8.74233,8.74233,0,0,0-.89942,2.43066l-1.09961,5.16016h-1.72656l2.40528-11.26563h1.42871l-.22657,2.08691h.10352a10.10545,10.10545,0,0,1,1.22266-1.40332,3.87745,3.87745,0,0,1,1.01269-.65722A2.90543,2.90543,0,0,1,181.74352,238.51644Z" fill="#232323"/><path d="M187.55016,250.1932a3.82666,3.82666,0,0,1-4.19434-4.2041,9.35525,9.35525,0,0,1,.76075-3.793,6.44067,6.44067,0,0,1,2.10254-2.708,5.0106,5.0106,0,0,1,3.0166-.97168,7.53551,7.53551,0,0,1,2.75488.52442l-.4834,1.44922a5.81184,5.81184,0,0,0-2.251-.52442,3.21694,3.21694,0,0,0-2.10156.78613,5.177,5.177,0,0,0-1.49121,2.18946,8.42791,8.42791,0,0,0-.53906,3.04785,2.87371,2.87371,0,0,0,.68359,2.04492,2.45413,2.45413,0,0,0,1.88574.73047,4.68,4.68,0,0,0,1.39844-.20606,12.69815,12.69815,0,0,0,1.29492-.48339v1.46972A6.17476,6.17476,0,0,1,187.55016,250.1932Z" fill="#232323"/><path d="M196.88317,250.1932a3.92791,3.92791,0,0,1-2.96973-1.12109,4.28562,4.28562,0,0,1-1.08008-3.10352,9.25213,9.25213,0,0,1,.7666-3.70605,6.85559,6.85559,0,0,1,2.0293-2.75977,4.42766,4.42766,0,0,1,2.78613-.98633,3.52931,3.52931,0,0,1,2.36329.6836,2.38258,2.38258,0,0,1,.792,1.90625,3.26094,3.26094,0,0,1-1.70606,2.90429,9.34984,9.34984,0,0,1-4.88281,1.05274h-.33887l-.041.82226a3.18423,3.18423,0,0,0,.63183,2.10254,2.40952,2.40952,0,0,0,1.958.75488,5.09787,5.09787,0,0,0,1.33106-.18457,10.15208,10.15208,0,0,0,1.70117-.67871v1.501a9.25182,9.25182,0,0,1-1.70606.63184A6.90915,6.90915,0,0,1,196.88317,250.1932Zm1.42871-10.207a2.74777,2.74777,0,0,0-1.98828.96582,6.31946,6.31946,0,0,0-1.42383,2.68262h.12305a8.387,8.387,0,0,0,3.59277-.61133,1.91931,1.91931,0,0,0,1.249-1.77246,1.203,1.203,0,0,0-.375-.90528A1.6567,1.6567,0,0,0,198.31188,239.98617Z" fill="#232323"/><path d="M209.76207,246.79086a3.01527,3.01527,0,0,1-1.13574,2.50293,5.04285,5.04285,0,0,1-3.20215.89941,6.82951,6.82951,0,0,1-3.13476-.71v-1.624a6.36391,6.36391,0,0,0,1.55273.668,5.64478,5.64478,0,0,0,1.541.23731,3.13286,3.13286,0,0,0,1.95312-.51465,1.59884,1.59884,0,0,0,.65821-1.31543,1.42,1.42,0,0,0-.36036-.98633,7.24045,7.24045,0,0,0-1.55175-1.10058,6.242,6.242,0,0,1-1.89161-1.46973,2.7093,2.7093,0,0,1-.55468-1.70605,2.83571,2.83571,0,0,1,1.03808-2.28711,4.12046,4.12046,0,0,1,2.73438-.86817,7.95382,7.95382,0,0,1,3.3916.76074l-.55469,1.40821-.57617-.25684a5.70656,5.70656,0,0,0-2.26074-.44238,2.30034,2.30034,0,0,0-1.501.44726,1.50589,1.50589,0,0,0-.17969,2.14258,6.42323,6.42323,0,0,0,1.50586,1.0586,8.70792,8.70792,0,0,1,1.57715,1.05957,3.05034,3.05034,0,0,1,.71485.95019A2.69513,2.69513,0,0,1,209.76207,246.79086Z" fill="#232323"/><path d="M84.83274,83.45427a44.17089,44.17089,0,0,0,5.62281,5.05616,12.84877,12.84877,0,0,0,3.19375,1.73825,8.69387,8.69387,0,0,1,3.44677,2.03972,20.712,20.712,0,0,1,4.31579,6.4578,39.5273,39.5273,0,0,1,2.47524,7.24976c-1.03619-2.32992-2.044-4.65578-3.24963-6.8647a24.46971,24.46971,0,0,0-4.30925-6.02,7.7669,7.7669,0,0,0-3.02657-1.857,11.83532,11.83532,0,0,1-3.3731-2.0618A27.08683,27.08683,0,0,1,84.83274,83.45427Z" fill="#637e20"/><path d="M78.48174,78.68178a5.38212,5.38212,0,0,1-3.21583-.51933A4.73257,4.73257,0,0,1,72.927,75.87872c.54457.19354.99248.43327,1.46225.63582l1.36853.63357A21.09535,21.09535,0,0,1,78.48174,78.68178Z" fill="#637e20"/><path d="M102.88831,22.36113a5.81492,5.81492,0,0,1-2.22132-3.89446,5.14223,5.14223,0,0,1,1.3291-4.284,18.9184,18.9184,0,0,0-.29043,2.12556,9.73012,9.73012,0,0,0,.078,2.01111A18.0414,18.0414,0,0,0,102.88831,22.36113Z" fill="#637e20"/><path d="M215.75064,56.71643a1.59316,1.59316,0,0,1-.769-.94629,1.51846,1.51846,0,0,1,.38393-1.32887,3.18538,3.18538,0,0,1,1.03619-.75682,1.666,1.666,0,0,1,1.59519.05926,2.86972,2.86972,0,0,1,.812,2.47975,6.27144,6.27144,0,0,1-.52474,2.24655c-.14307-.76132-.20909-1.4983-.34-2.19586a3.17372,3.17372,0,0,0-.5973-1.61276c-.08043-.077-.26519-.06173-.53466.00428a4.22273,4.22273,0,0,0-.85054.40038C215.45458,55.33462,215.37865,55.9968,215.75064,56.71643Z" fill="#637e20"/><path d="M126.83654,151.57455c.14282-1.00781.23632-1.98853.37182-2.99732.13208-.98437.29151-1.94714.43506-2.93.12793-.87891.25757-1.74921.37378-2.62958.15015-1.13965.282-2.27695.43482-3.41611a7.7466,7.7466,0,0,1,.20166-.80839c16.84179,2.03418,33.63256,4.06309,50.47558,6.09727.06226.48242.15137.91655.16846,1.35356.05127,1.33447.06738,2.60183.11059,3.93728.051,1.583.10621,3.68094.16114,4.68094H307.89464c0-84-68.45215-152.89209-152.89209-152.89209-84.44018,0-152.89233,68.89209-152.89233,152.89209H126.33605C126.50524,153.86215,126.67809,152.69466,126.83654,151.57455Zm49.3938-35.6333q-3.56837,4.2854-7.14576,8.56445a1.692,1.692,0,0,0-.37719,1.001c-.165,1.8999-.35987,3.79687-.541,5.69531-.02.208-.01318.41846-.02856.62695q-.0813,1.09423-.16968,2.188-.22853,2.7766-.46021,5.55273c-.07324.88624-.148,1.772-.21411,2.6587-.02832.38086-.23022.47656-.583.4331q-2.491-.30762-4.98413-.59326c-1.4021-.15869-2.80688-.29395-4.20971-.44678-1.45288-.1582-2.90552-.31836-4.35694-.49121-1.14209-.13623-2.28-.30615-3.42285-.4375-1.24682-.14306-2.49731-.25537-3.74536-.38769-1.01343-.10791-2.02588-.22461-3.03857-.33838-.85718-.09668-1.71509-.186-2.57032-.29737a8.3709,8.3709,0,0,1-.88842-.22021c.05346-.93262.09106-1.81445.1582-2.69434.07568-.99072.18579-1.97851.26758-2.96923.18945-2.293.3706-4.58643.55664-6.87989a2.80483,2.80483,0,0,1,.06616-.54492,4.66271,4.66271,0,0,0-.48169-3.457c-1.74-3.59522-3.40454-7.22705-5.102-10.84277-1.12012-2.38623-2.24854-4.76807-3.3667-7.15479a4.92533,4.92533,0,0,1-.19189-.644,1.63874,1.63874,0,0,1,.44482.00488c2.22974.81787,4.45264,1.65381,6.68726,2.458a4.73118,4.73118,0,0,0,1.3059.2456c1.32935.07813,2.66138.10743,3.9917.17334,1.82886.09034,3.65723.19629,5.4856.2959,1.27759.06983,2.55566.13233,3.83252.21289,1.356.085,2.7102.19434,4.06616.28028,1.096.06982,2.197.08252,3.28809.19531a.92129.92129,0,0,0,1.0122-.52051c1.06592-1.73975,2.15821-3.46387,3.23951-5.19482q2.37084-3.794,4.73925-7.59082c.08106-.12989.15161-.26563.26148-.45948-.80908-.61963-1.58985-1.22314-2.37647-1.81884q-3.22559-2.44336-6.45434-4.88135a3.79149,3.79149,0,0,0-.43384-.33643c-.47363-.25683-.522-.623-.43359-1.12549.30737-1.748.56323-3.50537.84375-5.2583.09008-.56152.25488-.64892.78759-.51464,2.12159.53564,4.24756,1.05419,6.3689,1.59082,1.719.43408,3.4314.894,5.15112,1.32568,1.36524.34228,2.73828.65234,4.10474.98926,1.24023.30566,2.47729.62353,3.71362.94482.65259.16895,1.30054.35547,1.95386.53516.13647.92773.26733,1.80371.39331,2.68017.18237,1.26709.36768,2.53369.53931,3.80225.14013,1.03516.24975,2.07471.39526,3.10889.13452.95654.30322,1.9082.44849,2.86328q.15893,1.04589.29516,2.0957c.1333,1.03467.25611,2.0708.38282,3.106.00317.02636-.00611.05566.00341.07812.395.9375-.13818,1.52881-.70459,2.19776C181.87487,109.12338,179.06212,112.53988,176.23034,115.94125Zm9.03369-62.876c-.031-.29785.15283-.43213.42236-.44238.46851-.01758.938-.01758,1.407-.021a.50052.50052,0,0,1,.54615.53223c.02026.28515.00488.57324.02856.8584.05322.63672.02686.70117-.56348.73291-.5393.02881-1.08154.00634-1.63916.00634C185.3922,54.13363,185.32018,53.60043,185.264,53.06527ZM223.485,108.95492c-.03.415-.05151.83057-.07983,1.29541-.63281-.02783-.852.37793-.92725.9956q-18.87487-1.79-37.68457-3.5747c.2771-.86182.66431-1.20069,1.37159-1.1709.67822.02881,1.35424.11084,2.03125.16943.54541.04688,1.0913.08789,1.636.14014.44165.04248.88159.10156,1.32276.147.571.0586,1.14282.10938,1.71411.16553,1.48242.14648,2.96386.30029,4.447.438.83276.07763,1.6687.12109,2.50171.19433q2.92785.25856,5.85425.53418c.44116.04151.87915.16895,1.3186.16993a25.43245,25.43245,0,0,0,2.574-.10547c.82788-.0835,1.64307-.33838,2.47046-.37745a8.38825,8.38825,0,0,0,3.35279-.99951,8.95771,8.95771,0,0,0,3.27026-2.63965,1.52883,1.52883,0,0,1,1.26636-.65136c1.09839-.03711,2.19555-.10156,3.29321-.15479.50488-.02441.64648.10547.61035.65186C223.72277,105.77377,223.599,107.3641,223.485,108.95492Zm5.70826-67.813c.39428.02734.52758.30469.48974.66455-.11938,1.14209-.26,2.28223-.37109,3.42529-.16406,1.69141-.30713,3.38477-.46533,5.07715-.03272.35157.03173.74658-.4419,1.0293-.08349-1.65674-.13428-3.25244-.25439-4.84277a15.27033,15.27033,0,0,1,.103-3.35889.94849.94849,0,0,0-.23046-.92627c-.19483-.19678-.12281-.6582-.18067-1.07422C228.37658,41.13607,228.78649,41.1141,229.19323,41.14193ZM82.12194,33.14c.13061-1.377.27978-2.75244.42138-4.12842.04541-.44238.08936-.88477.13672-1.32666.04224-.39356.25025-.51953.647-.47217,1.03735.124,2.07812.21875,3.11865.31494,1.27295.11768,2.54736.21631,3.82007.33789,1.55981.14893,3.11718.32227,4.67749.4668.83374.07715,1.67334.09229,2.50634.17529,1.21973.12207,2.43409.29834,3.65406.41651,1.40478.13672,2.81372.22949,4.21972.353.57056.0503,1.1377.14112,1.708.19629.98731.09571,1.97583.17627,2.96362.26612,1.76978.16162,3.54053.31347,5.30835.49121,1.42823.14355,2.85181.332,4.28.47656,1.16944.11865,2.34326.19434,3.51416.30322,1.63648.15137,3.27149.32032,4.90821.47315,1.74463.16308,3.49145.30566,5.23535.477,1.55908.15332,3.11548.33252,4.67236.50537a.48915.48915,0,0,1,.34644.229,1.82757,1.82757,0,0,1-.31641.07276c-1.85278.10058-3.70532.22119-5.55933.28271a22.35616,22.35616,0,0,1-2.58105-.10058c-1.79639-.14991-3.59058-.32813-5.38428-.50733-1.32519-.13232-2.64746-.29248-3.97265-.42334-.85889-.085-1.72168-.13135-2.58155-.209-2.88769-.26074-5.77588-.51953-8.66211-.79541-2.31494-.22071-4.62548-.4878-6.94238-.68115a3.86406,3.86406,0,0,0-1.4436.25634,23.99173,23.99173,0,0,0-8.27515,4.50489,1.71832,1.71832,0,0,1-.90137.38867c-1.48486.12793-2.97412.20166-4.46191.29687-1.53784.09815-3.0752.20264-4.61353.294a4.3334,4.3334,0,0,1-.67163-.07569C81.97155,35.00472,82.03356,34.07113,82.12194,33.14ZM76.84972,97.36361c-1.20679.05469-1.21655.02441-1.0957-1.18506.179-1.791.31152-3.58691.50024-5.37646a12.9013,12.9013,0,0,1,.356-1.56055c.03662.00586.07324.01221.11011.01807q.21129,4.00341.42236,7.99511A1.33646,1.33646,0,0,1,76.84972,97.36361ZM113.829,107.52572c-3.0813.18018-6.16065.39648-9.24072.59277-2.47706.15821-4.95459.30567-7.4314.46729-2.52954.165-5.05786.3501-7.58765.50976-1.22754.07764-2.458.11036-3.68628.17481-1.541.08056-3.0813.17627-4.62231.25732-.57227.03028-.69775-.04492-.7251-.46093q-.17065-2.60889-.31787-5.21973c-.12158-2.2207-.22876-4.44238-.34106-6.66358-.06324-1.252-.11329-2.50439-.19-3.75585-.0747-1.22315-.19116-2.44434-.261-3.668-.06983-1.22754-.0874-2.458-.15845-3.68506-.14209-2.45166-.31323-4.90088-.45532-7.35254-.05444-.94043-.03955-1.88477-.09522-2.8252-.12329-2.08642-.28466-4.1709-.40429-6.25781-.08106-1.41211-.09644-2.82764-.1792-4.23975-.12549-2.13769-.28687-4.27343-.42627-6.41015-.02393-.36572-.00562-.73389-.02149-1.10059-.10742-2.48291-.209-4.96631-.33178-7.44873-.10743-2.1665-.23975-4.332-.36182-6.49853-.07812-1.38184-.1604-2.76416-.23364-4.147a4.9196,4.9196,0,0,1,.04345-.5913c.30225-.04493.58106-.10791.8628-.12452q73.10155-4.38061,146.23584-8.75634a4.03868,4.03868,0,0,1,.17431.67041c.07959,1.19922.13965,2.3999.21143,3.60009.08594,1.43311.18213,2.86573.26514,4.29883q.14721,2.5437.27783,5.08887c.02588.49658.02051.99512.04931,1.49219.15845,2.74121.33155,5.48144.48243,8.22314.08032,1.46387.10693,2.93018.19165,4.394.11914,2.06055.271,4.11915.40454,6.17872.02221.33984.01465.68115.03345,1.02148.09643,1.74561.2124,3.49072.29223,5.2373.1167,2.561.18042,5.125.31885,7.68457.13086,2.42774.34277,4.8501.49194,7.27686.08521,1.38477.09644,2.77441.176,4.15967.12427,2.16406.291,4.32617.41406,6.49072.05371.94141.0398,1.88623.06323,2.8291a7.64174,7.64174,0,0,0,.05884.85889c.08691.62256.00293.76025-.60156.81641-.78052.07275-1.56226.1372-2.34473.18261q-2.69934.156-5.40014.28907c-1.80323.08837-3.60914.13183-5.40992.25244-2.26465.15185-4.52441.37011-6.78759.54248-.62623.04785-1.25831.01758-1.8855.05566-2.40137.146-4.80152.3125-7.20288.457-1.20191.07227-2.4065.09619-3.60791.17334-2.34619.15039-4.69092.32569-7.03687.48389-.30688.02051-.61645.00293-.947.00293-.095-.38281-.17529-.707-.26343-1.0625.46-.40625,1.051-.21777,1.56323-.34619a4.3763,4.3763,0,0,1,.78321-.03565c1.58935-.09912,3.17822-.208,4.76806-.30078,3.00147-.17578,6.00367-.34131,9.00538-.51465,2.66308-.15381,5.32739-.29,7.9873-.48437a12.17074,12.17074,0,0,0,2.14062-.44727c1.36207-.354,2.74024-.66992,4.06788-1.12842a9.59956,9.59956,0,0,0,6.11572-5.98681,7.104,7.104,0,0,0,.42651-2.6919c-.03662-1.30908.05054-2.62841-.07886-3.92724-.19482-1.95655-.17529-3.92041-.3208-5.87158-.14843-1.98487-.2229-3.9668-.28418-5.95362-.06054-1.95752-.20507-3.91211-.30468-5.86865-.11573-2.27148-.20459-4.54443-.33814-6.81494-.16723-2.84473-.2583-5.69971-.58618-8.52637a26.15141,26.15141,0,0,0-2.13281-7.66113,22.82953,22.82953,0,0,0-12.19971-12.0625,8.00084,8.00084,0,0,0-4.51977-.50635c-.74927.10645-1.511.127-2.26783.17529q-2.42137.15528-4.8435.29932c-1.61841.09814-3.23657.20166-4.85572.2876-.73193.03857-1.46728.01611-2.19848.061-2.60962.15967-5.21753.34668-7.82739.50293-2.06153.123-4.12647.19434-6.1875.32764-2.55567.165-5.10767.38965-7.66358.55371-2.50537.16064-5.01367.27734-7.52051.41357-.5747.03174-1.14941.06006-1.72363.10157a4.38031,4.38031,0,0,0-.56592.13525c.614.26074,1.08887.459,1.56128.66309a21.37852,21.37852,0,0,1,5.686,3.72754,32.46873,32.46873,0,0,1,7.20971,9.61767,43.97962,43.97962,0,0,1,3.62305,9.98633,51.62531,51.62531,0,0,1,1.07959,6.166,55.86715,55.86715,0,0,1,.19971,9.33447c-.09815,1.81836-.46875,3.62207-.731,5.43066-.09277.63867-.22754,1.271-.36059,2.00049-4.99439-1.25342-9.88257-2.48047-14.80591-3.71582-.1377.689-.2854,1.31689-.38672,1.95215-.31592,1.98633-.60352,3.97754-.92871,5.9624a.86.86,0,0,0,.375.93945q3.49144,2.60962,6.96582,5.24366c.64648.48828,1.28222.99121,1.98633,1.53662a5.34633,5.34633,0,0,1-.28.603c-1.14283,1.84668-2.27271,3.70166-3.45533,5.52247a5.89783,5.89783,0,0,1-1.19287,1.47168,8.65268,8.65268,0,0,0-2.30151,1.67041h1.616c-.06739,0-.39771.94677-1.04175,1.01074-.884.08838-1.77295.00366-2.65943.0686-1.14575.084-2.291.11-3.43652.19641-.05225.00391-.10449-.02289-.15674-.02q-2.85572.16626-5.71142.313c-2.169.10938-4.33911.1841-6.5083.28762-.90674.04345-1.81177.12061-2.71875.16114a5.875,5.875,0,0,1-3.2334-.94189,5.698,5.698,0,0,1,.63012-.11866c.47095-.02343.94312-.022,1.41431-.04443,2.24512-.10644,4.49072-.20288,6.73413-.33618.72461-.043,1.44312-.18811,2.28613-.30334-.74414-.32422-1.38745-.57965-2.00927-.88A24.07383,24.07383,0,0,1,138.099,96.682a38.12337,38.12337,0,0,1-5.93823-10.28468,43.62375,43.62375,0,0,1-2.03394-6.65528c-.42871-1.9336-.68872-3.89991-.94434-5.86915a57.99451,57.99451,0,0,1-.18823-9.49121,47.19593,47.19593,0,0,1,.71631-5.35645,35.51422,35.51422,0,0,1,1.79224-6.7207,33.94619,33.94619,0,0,1,4.51709-8.665,23.1202,23.1202,0,0,1,4.11084-4.41065c.99487-.80078,2.09277-1.47363,3.14746-2.1997a1.86025,1.86025,0,0,0,.58764-.51758c-.22119,0-.44287-.01074-.66333.00146-1.61865.08936-3.23681.189-4.85547.27491-2.29882.12207-4.59838.22754-6.897.35449-1.98364.11035-3.96655.23682-5.94922.36328-1.53955.09863-3.07763.2168-4.61718.311-1.669.102-3.33936.1831-5.00855.28027-2.84326.16553-5.68677.32324-8.52881.5083-2.55737.166-5.11206.3706-7.66919.54346-.80932.05468-1.62182.07959-2.4331.08642a4.9478,4.9478,0,0,0-2.09888.55078,22.77038,22.77038,0,0,0-7.50732,5.708,22.33975,22.33975,0,0,0-3.83423,6.26318,26.92553,26.92553,0,0,0-1.708,6.49268c-.1272.90527-.13428,1.82715-.20215,2.74072-.03076.415-.11181.82959-.10742,1.24366.00635.57226.07178,1.14355.11133,1.71582q.26294,3.79688.52392,7.59472c.16138,2.39893.29761,4.79932.47437,7.19678.15356,2.0835.36255,4.1626.52051,6.24561.14038,1.85058.23828,3.70459.36816,5.55615.04565.65185.14673,1.29931.19336,1.95068.1438,2.0083.18774,4.02783.42822,6.02393a9.0126,9.0126,0,0,0,4.90088,7.06152,10.297,10.297,0,0,0,4.40674,1.25195c.83081.0542,1.65088.25977,2.4812.33741.6189.0581,1.24683.02587,1.87061.02246.28735-.002.57519-.05567.86132-.04492,1.64991.05957,3.27735-.22266,4.917-.3125,2.2976-.126,4.59692-.22217,6.89477-.34375,1.54077-.08155,3.08057-.18311,4.62061-.27833,1.87793-.11669,3.75635-.22558,5.63305-.35742,1.824-.12793,3.64551-.293,5.46949-.41894,1.1748-.08106,2.35205-.127,3.52881-.17627.63354-.02637.93627.36523.96459,1.21045-.02294.01269-.04541.03418-.06933.03613q-2.53785.17724-5.07617.35059c-1.3545.09179-2.7085.19287-4.06421.26562C119.1068,107.264,116.46666,107.37191,113.829,107.52572Zm74.85449-54.71387c.0022-.29.19116-.40283.46362-.40967.46851-.01123.93677-.02832,1.40528-.04a.41314.41314,0,0,1,.47729.40429c.03784.51221.05176,1.02637.07935,1.61963-.80982.09668-1.49512.17871-2.18579.26123A4.50476,4.50476,0,0,1,188.68346,52.81185Zm3.355-.04248a.41389.41389,0,0,1,.39453-.49219c.58838-.0747,1.18018-.12109,1.855-.1875.0586.59913.10352,1.06446.14991,1.5293a.56083.56083,0,0,1-.56641.686,2.35547,2.35547,0,0,1-.31079.0415c-.43262-.00879-.865-.02734-1.29761-.04248C192.18712,53.79281,192.10241,53.28256,192.03844,52.76937Zm3.96875,1.09278V52.119a11.50668,11.50668,0,0,1,1.62427-.1582c.24878-.01709.28113.03711.28577.28564.00976.54346-.11561,1.61573-.11561,1.61573Zm2.9165-2.04883c.69581-.01612,1.315-.05518,1.93067-.02637a.55894.55894,0,0,1,.38232.38428c.04712.51318.01831,1.0332.01831,1.61181-.69165.06739-1.259.13965-1.82837.17139a.45084.45084,0,0,1-.499-.48682C198.91393,52.9515,198.92369,52.43441,198.92369,51.81332Zm3.44922-.15479c.64991-.05859,1.21387-.1123,1.77857-.15869.32226-.02685.48.12842.49609.45313.01538.31152.0586.62109.07788.93261.03516.57325-.07763.70117-.6228.76319-.35962.04052-.71729.10009-1.0769.144-.45166.05518-.63013-.08008-.64844-.53613C202.35753,52.765,202.37291,52.27133,202.37291,51.65853Zm3.325-.15283c.76783-.0791,1.45118-.14893,2.23877-.23.05738.62451.11719,1.15967.1521,1.6958a.4292.4292,0,0,1-.4458.52051c-.56787.01025-1.13623.00293-1.78344.00293C205.80382,52.80892,205.75426,52.19857,205.69786,51.5057Zm3.34034.22217c-.03638-.36182.14575-.5376.49756-.54053.56933-.00488,1.13867-.00146,1.80688-.00146.07129.65185.14014,1.28027.22022,2.00927-.73926.042-1.3335.08155-1.928.1084a.41051.41051,0,0,1-.46656-.41406C209.12584,52.50228,209.077,52.11556,209.0382,51.72787ZM123.20739,90.35238c-.46.03613-.92481.00684-1.44263.00684a45.302,45.302,0,0,1-.35693-6.22022c.57763-.03564,1.11865-.09424,1.65966-.09521.47364-.001.63453.17822.66455.67968.0315.52246.01661,1.04786.05347,1.56983.06934.9873.14111,1.9751.25025,2.95849C124.11779,89.994,123.93322,90.29574,123.20739,90.35238Zm-2.5691.25439c-.2268.05323-.34814-.02661-.47241-.01342-.56543.06054-1.13208.29528-1.85156.36609-.07666-2.13624-.44653-4.09729-.334-6.09729h2.24926C120.36608,86.86215,120.50133,88.60189,120.63829,90.60677Zm-8.48876-13.08935a7.03282,7.03282,0,0,1-8.10059-1.28565,8.26408,8.26408,0,0,1-.92383-10.74218,6.83528,6.83528,0,0,1,6.61108-2.95606,7.2754,7.2754,0,0,1,5.96705,4.625,6.84608,6.84608,0,0,1,.65161,3.36914A7.65634,7.65634,0,0,1,112.14953,77.51742Zm1.54394,13.34473h-2.23462c-.11621-2-.23022-3.97657-.3479-6.02784.42847-.07519.77734-.14087,1.1311-.17358.33521-.03076.6753-.03528,1.08448-.03528A33.3242,33.3242,0,0,1,113.69347,90.86215Zm-3.97241.27587c-.23242.02979-.46289.07325-.69483.1045a1.80167,1.80167,0,0,1-.23535.00146c-.63745,0-.69555-.03515-.74658-.71045-.06689-.88525-.094-1.77344-.14819-2.65967-.04615-.75488-.09449-1.50976-.165-2.2622-.0459-.48877.01782-.60889.50708-.66065.43994-.0459.88281-.07226,1.325-.09082.38525-.0166.48218.25684.50268.56543.06543.98828.12037,1.97754.18018,2.96582q.059.97632.12085,1.95166C110.40636,90.98129,110.34093,91.05941,109.72106,91.138Zm-2.696-.31836a2.57857,2.57857,0,0,1-.06372.4502c-.71142.05371-1.40234.10645-2.18823.166-.09644-.8208-.20581-1.561-.26416-2.30567-.05542-.7041-.05-1.4126-.08569-2.11865-.01807-.36279-.05591-.72607-.1045-1.08643-.07275-.53711.07081-.73584.59351-.76806.39136-.02442.78394-.03223,1.175-.06055.311-.022.51343.0874.54639.41357.0581.57081.11743,1.14209.1582,1.71387Q106.9193,89.02132,107.025,90.81966Zm-3.41674.13038a5.41475,5.41475,0,0,1-.02735.5415,8.38055,8.38055,0,0,1-2.28.062,48.435,48.435,0,0,1-.28711-6.0664c.58887-.08106,1.125-.17774,1.66553-.22217.43042-.03516.55688.09424.60474.53076.03125.28613.03125.57519.0498.86279C103.42516,88.08871,103.51989,89.51937,103.60827,90.95ZM114.52282,84.662c.77636-.09814,1.46582-.18555,2.25952-.28564.15356,2.10839.30176,4.14257.45117,6.19531a5.94213,5.94213,0,0,1-2.012.18457c-.39942-.00293-.41162-.3252-.42237-.62256-.031-.86133-.04834-1.72314-.09765-2.583-.03907-.67578-.12378-1.34863-.17554-2.02392C114.50646,85.27133,114.52282,85.013,114.52282,84.662ZM99.33629,91.8309c-.46264.01318-.92578.00244-1.36987.00244a35.439,35.439,0,0,1-.3396-6.25733c.69189-.03125,1.40234-.063,2.10229-.09424a1.86786,1.86786,0,0,1,.09937.24122c.11426,1.74218.24438,3.48388.333,5.22753C100.20153,91.73715,100.10387,91.80941,99.33629,91.8309Z" fill="#637e20"/><path d="M141.33483,54.66c-.53906.86621-1.126,1.80737-1.68628,2.6604-.075.11426-.10962.54175-.1853.54175h2.979a23.70723,23.70723,0,0,1,5.92285.30981,8.00448,8.00448,0,0,1,4.75928,2.90247,6.70572,6.70572,0,0,1,.42773.72613,3.28,3.28,0,0,1-1.62109.1553q-4.87536.00733-9.75049-.03245a.93732.93732,0,0,0-.89892.48255c-.561.88233-1.1543,1.93415-1.72632,2.80915-.074.11328-.09888-.353-.1709.647h.85864c4.27271,0,8.54541-.19117,12.81812-.18873,1.14575.001,1.25756.05188.98535,1.1764a2.19041,2.19041,0,0,1-.10279.24884,7.796,7.796,0,0,1-5.74218,4.94033,15.07594,15.07594,0,0,1-4.80982.55245c-.88354-.044-1.771-.01382-2.71167-.01382a3.29612,3.29612,0,0,0-.0708.47747c-.01.55029.03882,1.10348-.01343,1.64889a2.68346,2.68346,0,0,0,.73951,2.12913c2.37695,2.75488,4.71435,5.54357,7.06347,8.32287,2.07764,2.45752,4.16236,4.909,6.21656,7.386a1.46741,1.46741,0,0,0,1.28637.57022c1.36255-.02441,2.72608-.00542,4.08911-.00737.17359-.00049.34742-.022.52076-.03372a.97947.97947,0,0,0-.1836-.98927q-4.06274-4.94677-8.10791-9.90821-2.65869-3.25194-5.31421-6.50635a2.48429,2.48429,0,0,1-.23364-.46435,1.19261,1.19261,0,0,1,.26-.12793c1.18384-.18164,2.376-.31934,3.551-.54541a11.71964,11.71964,0,0,0,3.97851-1.59278,9.61127,9.61127,0,0,0,4.385-5.0581c.24829-.70606.47485-2.0166.73755-2.0166h.75586c1.04858,0,2.09741-.20508,3.14551-.18457a1.07458,1.07458,0,0,0,.97216-.60474c.46607-.75635.98291-1.52991,1.47437-2.27112.14917-.2251.28442-.48346.46948-.78424-.26074-.022-.3872-.053-.51367-.0535-1.72949-.0122-3.459-.02894-5.18848-.03724-.28808-.00147-.57641.0053-.8645.00872a.62148.62148,0,0,1-.69751-.57963A7.03333,7.03333,0,0,0,157.672,58.1959a1.77406,1.77406,0,0,1-.16675-.49549c.35742-.02051.6355-.05048.91357-.051,1.73023-.00342,3.46021.00674,5.19019-.00888.24048-.002.58862-.04253.70166-.19878.74365-1.02929,1.43652-2.09572,2.22754-3.271-.613-.021-1.07422-.05079-1.5354-.0503-3.43311.00342-6.86621.01757-10.29956.019q-6.17176.0022-12.34351-.01953A1.05244,1.05244,0,0,0,141.33483,54.66Z" fill="#637e20"/></g></g></svg>