<svg xmlns="http://www.w3.org/2000/svg" xmlns:xlink="http://www.w3.org/1999/xlink" viewBox="0 0 146.10733 146.1072"><defs><linearGradient id="linear-gradient" x1="2510.91733" y1="-4566.5156" x2="2511.91733" y2="-4566.5156" gradientTransform="matrix(103.3135, -103.3135, -103.3135, -103.3135, -731172.96351, -212246.34134)" gradientUnits="userSpaceOnUse"><stop offset="0" stop-color="#38a380"/><stop offset="0.06807" stop-color="#4fa684"/><stop offset="0.19952" stop-color="#74ac8a"/><stop offset="0.33709" stop-color="#93b090"/><stop offset="0.48033" stop-color="#abb494"/><stop offset="0.63163" stop-color="#bcb697"/><stop offset="0.79646" stop-color="#c6b898"/><stop offset="1" stop-color="#c9b899"/></linearGradient><clipPath id="clip-path"><path d="M121.2547,72.9294A48.2808,48.2808,0,1,1,72.9739,24.6492a48.28084,48.28084,0,0,1,48.2808,48.2802" fill="none"/></clipPath></defs><g id="Layer_2" data-name="Layer 2"><g id="Layer_1-2" data-name="Layer 1"><circle cx="73.05371" cy="73.0537" r="72.05372" fill="#fff"/><path d="M1,73.0537H0A73.05367,73.05367,0,1,0,73.0537,0,73.05384,73.05384,0,0,0,0,73.0537H1.9999a71.05405,71.05405,0,1,1,20.8112,50.2424A70.82812,70.82812,0,0,1,1.9999,73.0537Z" fill="url(#linear-gradient)"/><path d="M121.5152,70.2139A48.51534,48.51534,0,1,1,70.773,24.0332,48.515,48.515,0,0,1,121.5152,70.2139Z" fill="#637e20"/><path d="M41.8301,72.0928a19.60485,19.60485,0,0,0,2.4956,2.2441,5.70277,5.70277,0,0,0,1.4175.7715,3.85867,3.85867,0,0,1,1.5298.9053,9.19269,9.19269,0,0,1,1.9155,2.8662,17.54384,17.54384,0,0,1,1.0986,3.2177c-.4599-1.0341-.9072-2.0664-1.4423-3.0468a10.86061,10.86061,0,0,0-1.9126-2.6719,3.44722,3.44722,0,0,0-1.3433-.8242,5.25285,5.25285,0,0,1-1.4971-.9151A12.02214,12.02214,0,0,1,41.8301,72.0928Z" fill="#637e20"/><path d="M39.0113,69.9746a2.3888,2.3888,0,0,1-1.4273-.2305,2.10047,2.10047,0,0,1-1.0381-1.0136c.2417.0859.4405.1923.649.2822l.6074.2812A9.36288,9.36288,0,0,1,39.0113,69.9746Z" fill="#637e20"/><path d="M49.8438,44.9775a2.58089,2.58089,0,0,1-.9859-1.7285,2.2823,2.2823,0,0,1,.5899-1.9014,8.397,8.397,0,0,0-.1289.9434,4.3184,4.3184,0,0,0,.0346.8926A8.00732,8.00732,0,0,0,49.8438,44.9775Z" fill="#637e20"/><path d="M47.3985,40.2666a3.35512,3.35512,0,0,1,.4043-1.4199,3.17981,3.17981,0,0,1,.9482-1.1348,3.89555,3.89555,0,0,1-.2119.7129,5.87349,5.87349,0,0,1-.294.6533A4.90863,4.90863,0,0,1,47.3985,40.2666Z" fill="#637e20"/><path d="M99.9361,60.2256a.7071.7071,0,0,1-.3413-.42.674.674,0,0,1,.1704-.5898,1.41374,1.41374,0,0,1,.4599-.3359.73944.73944,0,0,1,.708.0263,1.27367,1.27367,0,0,1,.3604,1.1006,2.78348,2.78348,0,0,1-.2329.9971c-.0635-.3379-.0928-.665-.1509-.9746a1.40859,1.40859,0,0,0-.2651-.7158c-.0357-.0342-.1177-.0274-.2373.0019a1.87418,1.87418,0,0,0-.3775.1777C99.8047,59.6123,99.771,59.9062,99.9361,60.2256Z" fill="#637e20"/><path d="M17.62424,67.42269,9.14817,66.18245l.2041-1.3955,8.47607,1.24023Z" fill="#4d4d4d"/><path d="M19.01291,60.26351l-7.56592.44922-.01269.04492q1.56006.33984,2.90137.72168L18.343,62.619l-.3501,1.23144L9.75315,61.50667l.54394-1.91211,7.21-.44043.00977-.03418-5.87988-4.23632.54541-1.918,8.23974,2.34375L20.051,56.61409l-4.07471-1.15918q-.61377-.17431-1.5918-.48632-.977-.312-1.17968-.39356l-.0127.04492,6.16162,4.44532Z" fill="#4d4d4d"/><path d="M18.31467,45.68441a2.48674,2.48674,0,0,1,1.48145,1.67871,3.921,3.921,0,0,1-.42969,2.583l-.38379.81152,2.89844,1.37012-.60254,1.27441L13.53244,49.742l1.0625-2.24609a3.76914,3.76914,0,0,1,1.62793-1.90918A2.3477,2.3477,0,0,1,18.31467,45.68441Zm-.39648,4.57031.32031-.67871a2.69732,2.69732,0,0,0,.34179-1.59961,1.36272,1.36272,0,0,0-.84375-.959,1.32334,1.32334,0,0,0-1.18945-.05957,2.2528,2.2528,0,0,0-.93359,1.125l-.419.88575Z" fill="#4d4d4d"/><path d="M22.49045,43.8055l2.87012,1.86231-.7666,1.18261-7.1875-4.66113,1.32617-2.044A4.02558,4.02558,0,0,1,20.59885,38.409a2.22187,2.22187,0,0,1,2.00977.34668,2.34582,2.34582,0,0,1,1.001,2.64648l4.50586.01856-.873,1.3457-3.99414-.12988Zm-.97363-.63086.5332-.82226a2.24506,2.24506,0,0,0,.47168-1.39551,1.31035,1.31035,0,0,0-.66308-.957,1.1581,1.1581,0,0,0-1.13477-.168A2.62526,2.62526,0,0,0,19.675,40.868l-.50781.78223Z" fill="#4d4d4d"/><path d="M30.62668,31.90316a4.66431,4.66431,0,0,1,1.73242,2.94726,3.82758,3.82758,0,0,1-1.11328,3,3.84567,3.84567,0,0,1-2.85254,1.47852,4.68991,4.68991,0,0,1-3.14258-1.38965,4.62017,4.62017,0,0,1-1.73632-2.9502,3.89551,3.89551,0,0,1,1.1455-3.00293,3.81694,3.81694,0,0,1,2.8379-1.457A4.65976,4.65976,0,0,1,30.62668,31.90316ZM26.25461,36.827a3.82055,3.82055,0,0,0,2.2207,1.1123,2.62964,2.62964,0,0,0,2.53125-2.83789,3.828,3.828,0,0,0-1.375-2.07813,3.84348,3.84348,0,0,0-2.209-1.1123,2.24889,2.24889,0,0,0-1.86426.873,2.30056,2.30056,0,0,0-.66308,1.97265A3.78325,3.78325,0,0,0,26.25461,36.827Z" fill="#4d4d4d"/><path d="M33.45578,23.88949l1.12305-.93848,3.17285,8.51172-1.14062.95312L28.8093,27.77034l1.11426-.92968,4.79589,2.93359q.35157.20069.85938.56055c.33887.23926.584.42285.73242.55371-.15137-.26172-.31152-.5752-.48047-.94336s-.28711-.64551-.35742-.832Z" fill="#4d4d4d"/><path d="M45.12766,26.31624,41.02121,28.951l-4.626-7.209,4.10644-2.63574.63965.9961-2.91992,1.874,1.25879,1.96289,2.73633-1.75586.63281.98633L40.113,24.92562l1.45215,2.26367,2.91992-1.874Z" fill="#4d4d4d"/><path d="M51.14133,18.56429a4.25608,4.25608,0,0,1,.2832,3.44141,4.786,4.786,0,0,1-2.63183,2.45117l-2.19043,1.01172-3.5918-7.77735,2.4209-1.11816a4.43449,4.43449,0,0,1,3.37109-.34277A4.10292,4.10292,0,0,1,51.14133,18.56429Zm-1.33008.666q-1.28905-2.792-3.91992-1.57813l-1.10938.5127,2.60645,5.64355.91016-.4209Q51.12717,22.08235,49.81125,19.23031Z" fill="#4d4d4d"/><path d="M57.71067,20.96859l-2.23145-8.27051,1.36133-.36719L59.072,20.6014Z" fill="#4d4d4d"/><path d="M68.30539,19.0721l-1.71.252L61.404,13.18831l-.04688.00684.08594.373q.23877,1.0664.37109,1.959l.64844,4.40527L61.196,20.119,59.949,11.64339l1.69238-.249,5.17383,6.10351.03613-.00586q-.03077-.13184-.19043-.96386-.1582-.8335-.22754-1.30176L65.78,10.785l1.27832-.1875Z" fill="#4d4d4d"/><path d="M74.36008,11.44808a2.32977,2.32977,0,0,0-1.9248.82519,3.63815,3.63815,0,0,0-.73438,2.34961,3.66344,3.66344,0,0,0,.62988,2.39453,2.37378,2.37378,0,0,0,1.92578.83985,5.02919,5.02919,0,0,0,1.06446-.09082q.51416-.09961,1.07031-.26074l-.01953,1.20117a6.52251,6.52251,0,0,1-2.30567.34375,3.69311,3.69311,0,0,1-2.89062-1.1875,4.74687,4.74687,0,0,1-.96191-3.27637,5.22871,5.22871,0,0,1,.53125-2.3291,3.4932,3.4932,0,0,1,1.44921-1.51172,4.328,4.328,0,0,1,2.19727-.498,5.46048,5.46048,0,0,1,2.43359.58985l-.52636,1.1582a7.712,7.712,0,0,0-.916-.376A3.37019,3.37019,0,0,0,74.36008,11.44808Z" fill="#4d4d4d"/><path d="M86.28781,15.99886a4.66421,4.66421,0,0,1-1.53613,3.05371,4.44864,4.44864,0,0,1-5.91406-.89844,4.69731,4.69731,0,0,1-.53809-3.39453A4.61882,4.61882,0,0,1,79.83469,11.7a3.89421,3.89421,0,0,1,3.14453-.667,3.81043,3.81043,0,0,1,2.7627,1.5918A4.65865,4.65865,0,0,1,86.28781,15.99886Zm-6.50878-1a3.82435,3.82435,0,0,0,.2705,2.46973,2.62882,2.62882,0,0,0,3.75684.58593,3.832,3.832,0,0,0,1-2.2832,3.84063,3.84063,0,0,0-.26465-2.459,2.24663,2.24663,0,0,0-1.74512-1.0918,2.30005,2.30005,0,0,0-2.01757.51367A3.78925,3.78925,0,0,0,79.779,14.99886Z" fill="#4d4d4d"/><path d="M90.84641,21.81527l-.0127-7.57911-.04394-.01562q-.42921,1.53808-.8877,2.85547l-1.36914,3.93457-1.209-.4209,2.81445-8.08984,1.87793.65234.02344,7.22461.03418.01172,4.56836-5.627,1.88281.65527-2.81445,8.09082-1.28125-.44531,1.3916-4.001q.20947-.60351.57812-1.56152.36621-.958.46-1.1543l-.04394-.01563-4.793,5.89454Z" fill="#4d4d4d"/><path d="M101.89719,26.89437l-4.29883-2.31055,4.05469-7.5459,4.29883,2.30957-.55957,1.043-3.05664-1.6416-1.1045,2.05371,2.86426,1.53906-.55469,1.03223-2.86425-1.53906L99.404,24.20394l3.05664,1.64258Z" fill="#4d4d4d"/><path d="M106.0549,29.54378l5.30079-6.72949,1.10839.873-4.55761,5.78613,2.86914,2.25977-.74317.94335Z" fill="#4d4d4d"/><path d="M114.43332,37.14534,110.97824,33.7l6.04786-6.0664,3.45507,3.44531-.835.83789-2.457-2.4502L115.5427,31.118l2.30273,2.2959-.82812.83008-2.30274-2.2959-1.89844,1.9043,2.457,2.45019Z" fill="#4d4d4d"/><path d="M125.42307,37.14046l.89941,1.15528-8.61523,2.8789-.91309-1.17383,4.91016-7.63672.8916,1.14551L119.49924,38.202c-.14209.23046-.33887.51171-.58984.83984q-.37647.49512-.57715.71289c.26562-.14258.58447-.291.958-.44824q.5603-.23437.84375-.32813Z" fill="#4d4d4d"/><path d="M122.57248,48.6971l-2.49121-4.19531,7.36572-4.373,2.49121,4.19532-1.01757.60449-1.77149-2.9834-2.00537,1.19043,1.66016,2.7959-1.00733.59765-1.66015-2.79492-2.3125,1.373,1.77148,2.98242Z" fill="#4d4d4d"/><path d="M123.33127,50.2137l7.82959-3.47558.57227,1.28906-6.73194,2.98828,1.48194,3.33789-1.09766.48731Z" fill="#4d4d4d"/><path d="M129.54758,60.34847a2.15049,2.15049,0,0,1-1.959-.26367,3.64289,3.64289,0,0,1-1.30127-2,5.51146,5.51146,0,0,1-.27881-2.42188l1.26513-.3916a6.55454,6.55454,0,0,0-.04345,1.3252,5.38181,5.38181,0,0,0,.21582,1.22754,1.97107,1.97107,0,0,0,.66845,1.08691,1.02706,1.02706,0,0,0,.9292.12891,1.0586,1.0586,0,0,0,.66944-.59082,5.50956,5.50956,0,0,0,.3081-1.67774,4.00827,4.00827,0,0,1,.54248-1.91016,2.28693,2.28693,0,0,1,1.25586-.8955,2.047,2.047,0,0,1,1.83887.23242,3.19638,3.19638,0,0,1,1.19775,1.78418,6.08058,6.08058,0,0,1,.21582,2.5166l-1.22412-.09082a5.419,5.419,0,0,0-.14941-2.10254,1.582,1.582,0,0,0-.59033-.9043.97029.97029,0,0,0-.852-.10644,1.10037,1.10037,0,0,0-.50342.30371,1.45733,1.45733,0,0,0-.29.57812,7.81921,7.81921,0,0,0-.18555,1.28125,6.36414,6.36414,0,0,1-.2876,1.5459,2.13347,2.13347,0,0,1-.54052.84766A2.27987,2.27987,0,0,1,129.54758,60.34847Z" fill="#4d4d4d"/><g clip-path="url(#clip-path)"><rect x="57.4318" y="29.62821" width="32.96701" height="66.79723" transform="translate(4.18344 130.65315) rotate(-84.57568)" fill="#637e20"/><path d="M104.1094,81.2256,40.4268,75.1787,43.5,44.8428l.2305.0214,63.4624,6.0782ZM40.937,74.7598l62.7564,5.9589,2.9888-29.3574L43.9165,45.3496Z" fill="#fff"/><path d="M97.5332,50.3828s6.9995,1.9189,6.8452,10.6523l-1.0551,15.2676a4.16736,4.16736,0,0,1-3.2354,3.543l-2.8218.4209,7.2022.5918,1.9292-29.9131Z" fill="#fff"/><path d="M52.3706,45.9971s-7.2099.8349-8.3828,9.4902l-1.2724,15.251a4.16713,4.16713,0,0,0,2.6601,3.9931l2.7251.8438-7.208-.5078L43.523,45.208Z" fill="#fff"/><path d="M58.3472,60.6308a3.16907,3.16907,0,1,1-2.8291-3.6591A3.27379,3.27379,0,0,1,58.3472,60.6308Z" fill="#fff"/><rect x="48.31816" y="67.03307" width="2.61863" height="0.91086" transform="matrix(0.09431, -0.99554, 0.99554, 0.09431, -22.24044, 110.53019)" fill="#fff"/><rect x="49.79176" y="67.17324" width="2.61823" height="0.91031" transform="translate(-21.04803 112.11924) rotate(-84.58503)" fill="#fff"/><rect x="51.26518" y="67.31267" width="2.61813" height="0.91076" transform="translate(-19.85034 113.71627) rotate(-84.588)" fill="#fff"/><rect x="52.73801" y="67.45252" width="2.61873" height="0.91086" transform="translate(-18.7067 115.2308) rotate(-84.52598)" fill="#fff"/><rect x="54.21182" y="67.59304" width="2.61816" height="0.91057" transform="translate(-17.46064 116.90362) rotate(-84.588)" fill="#fff"/><rect x="55.68509" y="67.73257" width="2.61818" height="0.91081" transform="translate(-16.27032 118.48956) rotate(-84.58233)" fill="#fff"/><rect x="57.15824" y="67.87222" width="2.61818" height="0.91081" transform="translate(-15.07016 120.08987) rotate(-84.588)" fill="#fff"/><rect x="58.63152" y="68.01222" width="2.61861" height="0.91056" transform="translate(-13.93301 121.60277) rotate(-84.52538)" fill="#fff"/><rect x="89.1454" y="57.93494" width="0.81864" height="0.91086" transform="translate(22.97899 142.03938) rotate(-84.58859)" fill="#fff"/><rect x="90.61905" y="58.07489" width="0.81809" height="0.91076" transform="translate(24.16395 143.62489) rotate(-84.58174)" fill="#fff"/><rect x="92.09217" y="58.21452" width="0.81815" height="0.91076" transform="translate(25.36846 145.22524) rotate(-84.588)" fill="#fff"/><rect x="93.56555" y="58.35417" width="0.81814" height="0.91081" transform="translate(26.55511 146.81188) rotate(-84.58233)" fill="#fff"/><rect x="95.03873" y="58.49449" width="0.81859" height="0.91086" transform="translate(27.74875 148.40509) rotate(-84.58174)" fill="#fff"/><rect x="96.51213" y="58.63442" width="0.8181" height="0.91081" transform="translate(28.9544 150.00649) rotate(-84.58859)" fill="#fff"/><rect x="97.98548" y="58.77409" width="0.81814" height="0.91076" transform="translate(30.13875 151.59161) rotate(-84.58174)" fill="#fff"/><rect x="99.4589" y="58.91374" width="0.8181" height="0.91076" transform="translate(31.34425 153.19238) rotate(-84.588)" fill="#fff"/><rect x="71.83953" y="66.36186" width="1.6294" height="21.17958" transform="translate(-10.82044 142.0068) rotate(-84.57608)" fill="#fff"/><path d="M72.4761,78.1816c-2.7397-.2597-5.1548-2.0937-6.7998-5.1621a19.43951,19.43951,0,0,1-1.9224-10.9014,19.44272,19.44272,0,0,1,3.9395-10.3447c2.1933-2.7041,4.9101-4.0508,7.6504-3.79,2.7402.2597,5.1553,2.0937,6.8003,5.1621a19.44292,19.44292,0,0,1,1.9223,10.9014,19.443,19.443,0,0,1-3.9399,10.3447C77.9331,77.0957,75.2163,78.4414,72.4761,78.1816Zm2.8018-29.5029c-5.2168-.4961-10.0747,5.5625-10.8291,13.5049-.7539,7.9433,2.8764,14.8076,8.0937,15.3027,5.2168.4951,10.0742-5.5635,10.8286-13.5058C84.125,56.0381,80.4947,49.1738,75.2779,48.6787Z" fill="#5d8378"/><path d="M83.6763,64.0488c-.7734,8.1475-5.792,14.335-11.2095,13.8203-5.417-.5146-9.1811-7.5361-8.4077-15.6836.7734-8.1465,5.792-14.334,11.2095-13.8193C80.6856,48.8799,84.4502,55.9014,83.6763,64.0488Z" fill="#b3be94"/><rect x="40.34448" y="46.82616" width="66.7972" height="32.96773" transform="translate(-3.72677 4.61911) rotate(-3.49935)" fill="#637e20"/><path d="M106.395,76.6055,42.5449,80.5098,40.8755,50.0635l.231-.0137,63.6367-3.8399ZM42.9839,80.0166l62.9214-3.8477-1.6011-29.4658L41.3653,50.501Z" fill="#fff"/><path d="M95.6548,46.9473s7.1777,1.0771,8.0591,9.7666l.7598,15.2851a4.16675,4.16675,0,0,1-2.7925,3.9014l-2.7525.7519,7.2212-.2656L104.524,46.456Z" fill="#fff"/><path d="M49.8174,49.8281s-6.9932,1.9434-6.8091,10.6758l1.1084,15.2637a4.16772,4.16772,0,0,0,3.2476,3.5322l2.8232.4101-7.1997.6172L40.9546,50.4219Z" fill="#fff"/><path d="M57.9917,63.3574a3.16908,3.16908,0,1,1-3.3628-3.1748A3.27379,3.27379,0,0,1,57.9917,63.3574Z" fill="#fff"/><rect x="49.986" y="70.17576" width="0.9106" height="2.61819" transform="translate(-4.27157 3.21399) rotate(-3.50135)" fill="#fff"/><rect x="51.4633" y="70.0859" width="0.91066" height="2.61819" transform="translate(-4.26851 3.30832) rotate(-3.50571)" fill="#fff"/><rect x="52.94035" y="69.99511" width="0.91085" height="2.61817" transform="translate(-4.26019 3.39848) rotate(-3.50571)" fill="#fff"/><rect x="54.4174" y="69.90526" width="0.9109" height="2.61813" transform="translate(-4.25193 3.48863) rotate(-3.50571)" fill="#fff"/><rect x="55.8947" y="69.81441" width="0.91061" height="2.61819" transform="translate(-4.24588 3.58082) rotate(-3.50763)" fill="#fff"/><rect x="57.372" y="69.72461" width="0.9106" height="2.61814" transform="translate(-4.22843 3.66256) rotate(-3.49982)" fill="#fff"/><rect x="58.849" y="69.63376" width="0.9109" height="2.61818" transform="translate(-4.21968 3.75214) rotate(-3.49943)" fill="#fff"/><rect x="60.32635" y="69.54391" width="0.91061" height="2.61819" transform="translate(-4.22148 3.85188) rotate(-3.50802)" fill="#fff"/><rect x="88.01875" y="55.89423" width="0.91055" height="0.81893" transform="translate(-3.27207 5.50593) rotate(-3.49982)" fill="#fff"/><rect x="89.49575" y="55.80439" width="0.9109" height="0.81792" transform="translate(-3.26901 5.60553) rotate(-3.50571)" fill="#fff"/><rect x="90.97285" y="55.71359" width="0.9108" height="0.81892" transform="translate(-3.26106 5.69631) rotate(-3.50609)" fill="#fff"/><rect x="92.4501" y="55.62373" width="0.91065" height="0.81793" transform="translate(-3.24861 5.77852) rotate(-3.50135)" fill="#fff"/><rect x="93.9274" y="55.53288" width="0.91061" height="0.81893" transform="translate(-3.24448 5.87665) rotate(-3.50609)" fill="#fff"/><rect x="95.40445" y="55.44309" width="0.9109" height="0.81792" transform="translate(-3.23586 5.96616) rotate(-3.50571)" fill="#fff"/><rect x="96.8815" y="55.35224" width="0.91085" height="0.81892" transform="translate(-3.22246 6.04596) rotate(-3.49982)" fill="#fff"/><rect x="98.3588" y="55.26238" width="0.91066" height="0.81793" transform="translate(-3.22095 6.14989) rotate(-3.50763)" fill="#fff"/><rect x="64.06741" y="76.44719" width="21.17967" height="1.62952" transform="translate(-4.57751 4.70186) rotate(-3.50003)" fill="#637e20"/><path d="M74.6724,78.5049c-2.7476.1679-5.4175-1.2686-7.5186-4.045a19.44655,19.44655,0,0,1-3.5903-10.4716,19.44436,19.44436,0,0,1,2.2876-10.8311c1.7471-3.0107,4.2222-4.7627,6.9697-4.9307,2.7471-.1679,5.4175,1.2686,7.5186,4.045a19.44211,19.44211,0,0,1,3.5898,10.4716,19.44424,19.44424,0,0,1-2.2871,10.8311C79.8946,76.5859,77.4195,78.3369,74.6724,78.5049ZM72.8633,48.9238c-5.2305.3203-9.0898,7.0586-8.6025,15.0225.4868,7.9629,5.1382,14.1816,10.3691,13.8613,5.2305-.3193,9.0894-7.0586,8.6025-15.0215C82.7456,54.8223,78.0938,48.6045,72.8633,48.9238Z" fill="#fff"/><path d="M83.5445,62.8056c.4995,8.168-3.4986,15.0596-8.9297,15.3917-5.4317.332-10.2398-6.0206-10.7393-14.1895-.4995-8.168,3.4986-15.0596,8.9302-15.3916C78.2368,48.2842,83.0449,54.6367,83.5445,62.8056Z" fill="#fff"/><polygon points="87.804 74.592 87.167 70.042 77.253 67.556 76.719 70.845 80.912 74.015 77.359 79.699 67.944 79.166 64.036 77.745 68.381 87.04 67.816 93.748 80.325 95.194 81.012 87.32 88.353 78.505 87.804 74.592" fill="#fff"/><polygon points="87.804 74.592 88.052 74.557 87.39 69.84 77.049 67.247 76.448 70.953 80.578 74.076 77.225 79.441 67.995 78.918 63.554 77.304 68.127 87.085 67.547 93.968 80.551 95.472 81.254 87.42 88.616 78.58 88.052 74.557 87.804 74.592 87.557 74.626 88.09 78.43 80.77 87.22 80.098 94.916 68.086 93.527 68.636 86.994 64.518 78.186 67.893 79.414 77.492 79.957 81.245 73.953 76.99 70.736 77.456 67.864 86.942 70.243 87.557 74.626 87.804 74.592" fill="#637e20"/><polygon points="86.774 137.514 85.274 95.925 63.39 93.284 57.285 137.514 86.774 137.514" fill="#fff"/><path d="M75.856,58.0801h2.9516l1.0635-1.5957H69.0347l-1.063,1.5957h2.9805c.3076.0136,2.4599.166,3.2319,1.7539H69.0117l-1.0629,1.5947h6.4965l-.0073.0908s-.0303,3.4903-5.8872,2.8858v.7519l.0059.8233,6.3208,7.4746h2.4004V73.123l-6.0596-7.4121v-.1064s4.769.0761,5.5586-4.1455l.0039-.0303h2.0039l1.064-1.5947H76.6949A3.67129,3.67129,0,0,0,75.856,58.0801Z" fill="#637e20"/></g></g></g></svg>