<svg xmlns="http://www.w3.org/2000/svg" xmlns:xlink="http://www.w3.org/1999/xlink" viewBox="0 0 310 310"><defs><linearGradient id="New_Gradient_Swatch_7" x1="45.39603" y1="264.60157" x2="264.59913" y2="45.39847" gradientTransform="matrix(-1, 0, 0, 1, 309.9976, 0)" gradientUnits="userSpaceOnUse"><stop offset="0" stop-color="#38a380"/><stop offset="0.06811" stop-color="#4fa684"/><stop offset="0.19954" stop-color="#74ac8a"/><stop offset="0.33708" stop-color="#93b090"/><stop offset="0.4803" stop-color="#abb494"/><stop offset="0.63159" stop-color="#bcb697"/><stop offset="0.79642" stop-color="#c6b898"/><stop offset="1" stop-color="#c9b899"/></linearGradient></defs><g id="Layer_2" data-name="Layer 2"><g id="Layer_1-2" data-name="Layer 1"><circle cx="155" cy="155" r="154" fill="#fff" stroke-miterlimit="10" stroke-width="2" stroke="url(#New_Gradient_Swatch_7)"/><path d="M51.59752,188.31472a4.69074,4.69074,0,0,1-1.68554,3.89453,7.7843,7.7843,0,0,1-4.94434,1.34766h-1.3877l-1.26464,5.91015H40.56823L43.744,184.43972h3.39258a4.99115,4.99115,0,0,1,3.33007.9707A3.61949,3.61949,0,0,1,51.59752,188.31472ZM43.8983,192.055h1.36719a5.24575,5.24575,0,0,0,3.3711-.9336,3.33263,3.33263,0,0,0,1.15136-2.74609,2.23284,2.23284,0,0,0-.71386-1.85352,3.48483,3.48483,0,0,0-2.19434-.57226H45.204Z" fill="#232323"/><path d="M53.93053,199.46706H52.204l2.40527-11.26562H56.3358Zm1.16211-14.14453a1.35014,1.35014,0,0,1,.32813-.93945,1.09393,1.09393,0,0,1,.85351-.36523.80905.80905,0,0,1,.9043.92578,1.39083,1.39083,0,0,1-.34375.95508,1.03386,1.03386,0,0,1-.79688.39062.95067.95067,0,0,1-.67871-.25195A.93625.93625,0,0,1,55.09264,185.32253Z" fill="#232323"/><path d="M59.25475,199.46706H57.52819l3.41211-15.99414h1.72754Z" fill="#232323"/><path d="M68.89635,188.05691a4.11882,4.11882,0,0,1,3.083,1.15625,4.35735,4.35735,0,0,1,1.13086,3.18164,9.11709,9.11709,0,0,1-.74024,3.64844,6.30686,6.30686,0,0,1-2.0039,2.65234,4.68817,4.68817,0,0,1-2.85742.93555,4.0923,4.0923,0,0,1-3.09375-1.16211,4.37914,4.37914,0,0,1-1.1211-3.17578,9.09682,9.09682,0,0,1,.751-3.67383,6.22549,6.22549,0,0,1,2.02441-2.64258A4.71944,4.71944,0,0,1,68.89635,188.05691Zm2.42578,4.10156a2.8059,2.8059,0,0,0-.64258-1.916,2.19588,2.19588,0,0,0-1.74218-.73633,3.00665,3.00665,0,0,0-2.00977.76172,4.88568,4.88568,0,0,0-1.37695,2.11132,8.79386,8.79386,0,0,0-.48828,3.00782,3.02814,3.02814,0,0,0,.65234,2.08007,2.3766,2.3766,0,0,0,1.876.73438,2.83348,2.83348,0,0,0,1.92187-.75,4.89,4.89,0,0,0,1.33106-2.13281A9.65522,9.65522,0,0,0,71.32213,192.15847Z" fill="#232323"/><path d="M78.15612,198.26394a5.58587,5.58587,0,0,0,1.48047-.26758v1.32617a4.75094,4.75094,0,0,1-.86329.2461,4.4539,4.4539,0,0,1-.82226.10351,2.85717,2.85717,0,0,1-1.96875-.61133,2.3248,2.3248,0,0,1-.6836-1.82421,7.478,7.478,0,0,1,.18555-1.543l1.30567-6.1875H75.02135l.14453-.75,1.90137-.80078,1.28418-2.34375h1.00781l-.56543,2.58984h2.81641l-.26758,1.30469H78.537l-1.32618,6.209a7.32774,7.32774,0,0,0-.18457,1.35742,1.21656,1.21656,0,0,0,.29786.88282A1.10526,1.10526,0,0,0,78.15612,198.26394Z" fill="#232323"/><path d="M83.25475,199.46706H81.52819l2.40527-11.26562H85.66Zm1.16211-14.14453a1.35013,1.35013,0,0,1,.32812-.93945,1.094,1.094,0,0,1,.85352-.36523.80905.80905,0,0,1,.9043.92578,1.39083,1.39083,0,0,1-.34375.95508,1.03386,1.03386,0,0,1-.79688.39062.95067.95067,0,0,1-.67871-.25195A.93625.93625,0,0,1,84.41686,185.32253Z" fill="#232323"/><path d="M93.75963,199.46706l1.52149-7.11328a9.38285,9.38285,0,0,0,.20507-1.48047,1.45655,1.45655,0,0,0-.36523-1.0371,1.525,1.525,0,0,0-1.166-.39063,3.05054,3.05054,0,0,0-1.7832.61523,5.51342,5.51342,0,0,0-1.53222,1.75782,9.29813,9.29813,0,0,0-1.002,2.76562l-1.03808,4.88281H86.87291l2.40528-11.26562H90.7069l-.22656,2.08594h.10351a6.885,6.885,0,0,1,1.90625-1.77344,3.83173,3.83173,0,0,1,1.90625-.51758,2.88654,2.88654,0,0,1,2.06152.71289,2.62505,2.62505,0,0,1,.75489,2,8.39372,8.39372,0,0,1-.23633,1.84961l-1.46973,6.9082Z" fill="#232323"/><path d="M109.72252,188.20144l-.25683,1.09961-2.16895.24609a2.89843,2.89843,0,0,1,.4209,1.625,4.16827,4.16827,0,0,1-1.19727,3.12891,4.38419,4.38419,0,0,1-3.20117,1.168,3.4633,3.4633,0,0,1-.86426-.082q-1.42821.54492-1.42871,1.3457a.54593.54593,0,0,0,.33985.56055,4.12345,4.12345,0,0,0,.98633.2207l1.20312.14453a5.34137,5.34137,0,0,1,2.69727.9043,2.411,2.411,0,0,1,.83789,1.99414,3.35413,3.35413,0,0,1-1.5,2.92773,7.352,7.352,0,0,1-4.22461,1.03907,5.57219,5.57219,0,0,1-3.125-.75586,2.42,2.42,0,0,1-1.13086-2.13282,2.65052,2.65052,0,0,1,.74023-1.87109,5.758,5.758,0,0,1,2.39453-1.3457,1.33877,1.33877,0,0,1-.80078-1.24414,1.6322,1.6322,0,0,1,.52344-1.2168,5.3932,5.3932,0,0,1,1.46-.95117,2.67437,2.67437,0,0,1-1.05859-.97266,2.70582,2.70582,0,0,1-.41114-1.49414,4.51516,4.51516,0,0,1,1.22852-3.26953,4.16892,4.16892,0,0,1,3.13965-1.27344,6.2097,6.2097,0,0,1,1.583.20508ZM98.77526,201.471a1.44845,1.44845,0,0,0,.66894,1.25391,3.48834,3.48834,0,0,0,1.9834.46289,5.55855,5.55855,0,0,0,2.92383-.65235,2.0583,2.0583,0,0,0,1.05371-1.8457,1.1527,1.1527,0,0,0-.55469-1.00781,4.46206,4.46206,0,0,0-1.8916-.51367l-1.63379-.16407a3.71461,3.71461,0,0,0-1.8916.9043A2.11413,2.11413,0,0,0,98.77526,201.471Zm2.85742-8.99414a1.79291,1.79291,0,0,0,.46289,1.332,1.74887,1.74887,0,0,0,1.28516.457,2.38633,2.38633,0,0,0,1.418-.43164,2.75227,2.75227,0,0,0,.93067-1.1875,4.12006,4.12006,0,0,0,.32324-1.63867,1.716,1.716,0,0,0-.45215-1.28516,1.77611,1.77611,0,0,0-1.29492-.4414,2.40735,2.40735,0,0,0-1.40332.416,2.73538,2.73538,0,0,0-.93555,1.16016A3.91939,3.91939,0,0,0,101.63268,192.47683Z" fill="#232323"/><path d="M116.76256,199.46706H115.036l2.40527-11.26562h1.72657Zm1.16211-14.14453a1.35014,1.35014,0,0,1,.32813-.93945,1.09393,1.09393,0,0,1,.85351-.36523.80905.80905,0,0,1,.9043.92578,1.39083,1.39083,0,0,1-.34375.95508,1.03386,1.03386,0,0,1-.79688.39062.95067.95067,0,0,1-.67871-.25195A.93625.93625,0,0,1,117.92467,185.32253Z" fill="#232323"/><path d="M127.26744,199.46706l1.52149-7.11328a9.38324,9.38324,0,0,0,.20508-1.48047,1.45652,1.45652,0,0,0-.36524-1.0371,1.525,1.525,0,0,0-1.166-.39063,3.05059,3.05059,0,0,0-1.78321.61523,5.51342,5.51342,0,0,0-1.53222,1.75782,9.2984,9.2984,0,0,0-1.002,2.76562l-1.03808,4.88281h-1.72656l2.40527-11.26562h1.42871l-.22656,2.08594h.10351a6.885,6.885,0,0,1,1.90625-1.77344,3.83176,3.83176,0,0,1,1.90625-.51758,2.88658,2.88658,0,0,1,2.06153.71289,2.625,2.625,0,0,1,.75488,2,8.39372,8.39372,0,0,1-.23633,1.84961l-1.46972,6.9082Z" fill="#232323"/><path d="M135.98327,198.26394a5.58575,5.58575,0,0,0,1.48046-.26758v1.32617a4.75058,4.75058,0,0,1-.86328.2461,4.4539,4.4539,0,0,1-.82226.10351,2.85717,2.85717,0,0,1-1.96875-.61133,2.3248,2.3248,0,0,1-.6836-1.82421,7.478,7.478,0,0,1,.18555-1.543l1.30566-6.1875H132.8485l.14453-.75,1.90137-.80078,1.28418-2.34375h1.00781l-.56543,2.58984h2.81641l-.26758,1.30469h-2.80567l-1.32617,6.209a7.32774,7.32774,0,0,0-.18457,1.35742,1.2166,1.2166,0,0,0,.29785.88282A1.1053,1.1053,0,0,0,135.98327,198.26394Z" fill="#232323"/><path d="M143.80553,199.67214a3.92425,3.92425,0,0,1-2.96973-1.12109,4.28564,4.28564,0,0,1-1.08007-3.10352,9.24753,9.24753,0,0,1,.7666-3.70507,6.85541,6.85541,0,0,1,2.02929-2.75977,4.422,4.422,0,0,1,2.78614-.98633,3.524,3.524,0,0,1,2.36328.6836,2.37987,2.37987,0,0,1,.792,1.90625,3.262,3.262,0,0,1-1.70605,2.90429,9.35951,9.35951,0,0,1-4.88282,1.05274h-.33886l-.041.82226a3.18134,3.18134,0,0,0,.63184,2.10156,2.40994,2.40994,0,0,0,1.958.75586,5.10049,5.10049,0,0,0,1.33106-.18554,10.22142,10.22142,0,0,0,1.70117-.67774v1.5a9.19314,9.19314,0,0,1-1.70605.63282A6.96214,6.96214,0,0,1,143.80553,199.67214Zm1.42871-10.207a2.74551,2.74551,0,0,0-1.98828.9668,6.32127,6.32127,0,0,0-1.42383,2.68164h.12305a8.387,8.387,0,0,0,3.59277-.61133,1.91809,1.91809,0,0,0,1.249-1.77148,1.20509,1.20509,0,0,0-.375-.90625A1.66125,1.66125,0,0,0,145.23424,189.46511Z" fill="#232323"/><path d="M156.85924,187.99636a4.70528,4.70528,0,0,1,1.2334.14258l-.37012,1.543a4.47973,4.47973,0,0,0-1.0791-.13477,2.86231,2.86231,0,0,0-1.75293.61719,5.43781,5.43781,0,0,0-1.42871,1.71094,8.76005,8.76005,0,0,0-.89941,2.43164l-1.09961,5.16015h-1.72657l2.40528-11.26562h1.42871l-.22656,2.08594h.10351a10.14461,10.14461,0,0,1,1.22266-1.40235,3.85735,3.85735,0,0,1,1.01269-.6582A2.90517,2.90517,0,0,1,156.85924,187.99636Z" fill="#232323"/><path d="M159.75768,199.46706l-1.28516-11.26562h1.72754l.65723,6.30078q.24756,2.65137.24707,3.7207h.06152q1.30518-2.82714,1.83985-3.8125l3.34082-6.209h1.8291l-6.07422,11.26562Z" fill="#232323"/><path d="M172.246,199.67214a3.92425,3.92425,0,0,1-2.96973-1.12109,4.28564,4.28564,0,0,1-1.08007-3.10352,9.24753,9.24753,0,0,1,.7666-3.70507,6.85541,6.85541,0,0,1,2.02929-2.75977,4.422,4.422,0,0,1,2.78614-.98633,3.524,3.524,0,0,1,2.36328.6836,2.37987,2.37987,0,0,1,.792,1.90625,3.262,3.262,0,0,1-1.70605,2.90429,9.35951,9.35951,0,0,1-4.88282,1.05274h-.33886l-.041.82226a3.18134,3.18134,0,0,0,.63184,2.10156,2.40994,2.40994,0,0,0,1.958.75586,5.10055,5.10055,0,0,0,1.33106-.18554,10.22142,10.22142,0,0,0,1.70117-.67774v1.5a9.19314,9.19314,0,0,1-1.70605.63282A6.96214,6.96214,0,0,1,172.246,199.67214Zm1.42871-10.207a2.74551,2.74551,0,0,0-1.98828.9668,6.32127,6.32127,0,0,0-1.42383,2.68164h.12305a8.387,8.387,0,0,0,3.59277-.61133,1.91809,1.91809,0,0,0,1.249-1.77148,1.20509,1.20509,0,0,0-.375-.90625A1.66125,1.66125,0,0,0,173.67467,189.46511Z" fill="#232323"/><path d="M185.06334,199.46706l1.52149-7.11328a9.38324,9.38324,0,0,0,.20508-1.48047,1.45652,1.45652,0,0,0-.36524-1.0371,1.525,1.525,0,0,0-1.166-.39063,3.05055,3.05055,0,0,0-1.78321.61523,5.51342,5.51342,0,0,0-1.53222,1.75782,9.2984,9.2984,0,0,0-1.002,2.76562l-1.03808,4.88281h-1.72657l2.40528-11.26562h1.42871l-.22656,2.08594h.10351a6.885,6.885,0,0,1,1.90625-1.77344,3.83176,3.83176,0,0,1,1.90625-.51758,2.88658,2.88658,0,0,1,2.06153.71289,2.625,2.625,0,0,1,.75488,2,8.39372,8.39372,0,0,1-.23633,1.84961l-1.46973,6.9082Z" fill="#232323"/><path d="M193.77916,198.26394a5.58574,5.58574,0,0,0,1.48047-.26758v1.32617a4.75105,4.75105,0,0,1-.86328.2461,4.454,4.454,0,0,1-.82226.10351,2.85717,2.85717,0,0,1-1.96875-.61133,2.3248,2.3248,0,0,1-.6836-1.82421,7.478,7.478,0,0,1,.18555-1.543l1.30566-6.1875H190.6444l.14453-.75,1.90137-.80078,1.28418-2.34375h1.00781l-.56543,2.58984h2.81641l-.26758,1.30469H194.16l-1.32617,6.209a7.32687,7.32687,0,0,0-.18457,1.35742,1.21656,1.21656,0,0,0,.29785.88282A1.10526,1.10526,0,0,0,193.77916,198.26394Z" fill="#232323"/><path d="M198.8778,199.46706h-1.72657l2.40528-11.26562h1.72656Zm1.16211-14.14453a1.35013,1.35013,0,0,1,.32812-.93945,1.094,1.094,0,0,1,.85352-.36523.809.809,0,0,1,.90429.92578,1.39078,1.39078,0,0,1-.34375.95508,1.03384,1.03384,0,0,1-.79687.39062.95065.95065,0,0,1-.67871-.25195A.93621.93621,0,0,1,200.03991,185.32253Z" fill="#232323"/><path d="M208.49889,188.05691a4.11882,4.11882,0,0,1,3.083,1.15625,4.3574,4.3574,0,0,1,1.13086,3.18164,9.11709,9.11709,0,0,1-.74024,3.64844,6.30686,6.30686,0,0,1-2.0039,2.65234,4.68818,4.68818,0,0,1-2.85743.93555,4.09233,4.09233,0,0,1-3.09375-1.16211,4.37913,4.37913,0,0,1-1.12109-3.17578,9.09682,9.09682,0,0,1,.751-3.67383,6.22549,6.22549,0,0,1,2.02441-2.64258A4.71944,4.71944,0,0,1,208.49889,188.05691Zm2.42578,4.10156a2.8059,2.8059,0,0,0-.64258-1.916,2.19589,2.19589,0,0,0-1.74218-.73633,3.00665,3.00665,0,0,0-2.00977.76172,4.88568,4.88568,0,0,0-1.37695,2.11132,8.79386,8.79386,0,0,0-.48828,3.00782,3.02814,3.02814,0,0,0,.65234,2.08007,2.3766,2.3766,0,0,0,1.876.73438,2.83348,2.83348,0,0,0,1.92187-.75,4.89,4.89,0,0,0,1.33106-2.13281A9.65522,9.65522,0,0,0,210.92467,192.15847Z" fill="#232323"/><path d="M221.19225,199.46706l1.52148-7.11328a9.38324,9.38324,0,0,0,.20508-1.48047,1.45655,1.45655,0,0,0-.36523-1.0371,1.525,1.525,0,0,0-1.166-.39063,3.05054,3.05054,0,0,0-1.7832.61523,5.51356,5.51356,0,0,0-1.53223,1.75782,9.2984,9.2984,0,0,0-1.00195,2.76562l-1.03809,4.88281h-1.72656l2.40527-11.26562h1.42872l-.22657,2.08594h.10352a6.88486,6.88486,0,0,1,1.90625-1.77344,3.83173,3.83173,0,0,1,1.90625-.51758,2.88654,2.88654,0,0,1,2.06152.71289,2.625,2.625,0,0,1,.75488,2,8.39365,8.39365,0,0,1-.23632,1.84961l-1.46973,6.9082Z" fill="#232323"/><path d="M233.40319,196.2698a3.01717,3.01717,0,0,1-1.13575,2.50391,5.04284,5.04284,0,0,1-3.20214.89843,6.82918,6.82918,0,0,1-3.13477-.709v-1.625a6.2896,6.2896,0,0,0,1.55274.668,5.6486,5.6486,0,0,0,1.541.23828,3.1264,3.1264,0,0,0,1.95313-.51563,1.59708,1.59708,0,0,0,.6582-1.31445,1.41835,1.41835,0,0,0-.36035-.98633,7.23507,7.23507,0,0,0-1.55176-1.10156,6.24146,6.24146,0,0,1-1.8916-1.46875,2.714,2.714,0,0,1-.55469-1.707,2.837,2.837,0,0,1,1.03809-2.28711,4.12525,4.12525,0,0,1,2.73437-.86719,7.96707,7.96707,0,0,1,3.3916.75977l-.55468,1.4082-.57618-.25586a5.707,5.707,0,0,0-2.26074-.44336,2.30587,2.30587,0,0,0-1.501.44727,1.50588,1.50588,0,0,0-.17968,2.14258,6.39376,6.39376,0,0,0,1.50586,1.05859,8.75362,8.75362,0,0,1,1.57715,1.06055,3.04689,3.04689,0,0,1,.71484.94921A2.70128,2.70128,0,0,1,233.40319,196.2698Z" fill="#232323"/><path d="M246.9403,188.05691a4.11879,4.11879,0,0,1,3.083,1.15625,4.35735,4.35735,0,0,1,1.13086,3.18164,9.11726,9.11726,0,0,1-.74023,3.64844,6.3068,6.3068,0,0,1-2.00391,2.65234,4.68815,4.68815,0,0,1-2.85742.93555,4.0923,4.0923,0,0,1-3.09375-1.16211,4.37913,4.37913,0,0,1-1.12109-3.17578,9.09682,9.09682,0,0,1,.751-3.67383,6.22551,6.22551,0,0,1,2.02442-2.64258A4.71944,4.71944,0,0,1,246.9403,188.05691Zm2.42578,4.10156a2.806,2.806,0,0,0-.64258-1.916,2.1959,2.1959,0,0,0-1.74219-.73633,3.00663,3.00663,0,0,0-2.00976.76172,4.8857,4.8857,0,0,0-1.377,2.11132,8.79386,8.79386,0,0,0-.48828,3.00782,3.02814,3.02814,0,0,0,.65235,2.08007,2.37657,2.37657,0,0,0,1.876.73438,2.8335,2.8335,0,0,0,1.92188-.75,4.89008,4.89008,0,0,0,1.33105-2.13281A9.65521,9.65521,0,0,0,249.36608,192.15847Z" fill="#232323"/><path d="M259.63366,199.46706l1.52148-7.11328a9.38324,9.38324,0,0,0,.20508-1.48047,1.45652,1.45652,0,0,0-.36524-1.0371,1.525,1.525,0,0,0-1.166-.39063,3.05054,3.05054,0,0,0-1.7832.61523,5.51332,5.51332,0,0,0-1.53223,1.75782,9.29813,9.29813,0,0,0-1.00195,2.76562l-1.03809,4.88281h-1.72656l2.40527-11.26562h1.42871l-.22656,2.08594h.10351a6.885,6.885,0,0,1,1.90625-1.77344,3.83179,3.83179,0,0,1,1.90625-.51758,2.88658,2.88658,0,0,1,2.06153.71289,2.625,2.625,0,0,1,.75488,2,8.39312,8.39312,0,0,1-.23633,1.84961l-1.46972,6.9082Z" fill="#232323"/><path d="M51.43346,224.72683l1.52148-7.11133A9.41234,9.41234,0,0,0,53.16,216.135a1.46476,1.46476,0,0,0-.36523-1.03906,1.53255,1.53255,0,0,0-1.166-.39062,3.03975,3.03975,0,0,0-1.7832.61718,5.47167,5.47167,0,0,0-1.53223,1.75782,9.25827,9.25827,0,0,0-1.00195,2.76562l-1.03809,4.88086H44.54674L46.952,213.46121h1.42871l-.22657,2.08789h.10352a6.855,6.855,0,0,1,1.90625-1.77344,3.83416,3.83416,0,0,1,1.90625-.51953,2.87891,2.87891,0,0,1,2.06152.71484,2.62214,2.62214,0,0,1,.75489,2,8.40788,8.40788,0,0,1-.23633,1.84961l-1.46973,6.90625Z" fill="#232323"/><path d="M62.65807,213.25613a2.90085,2.90085,0,0,1,1.68555.50976,3.29544,3.29544,0,0,1,1.15136,1.46485h.11231l.68945-1.76953h1.30469L65.2069,224.72683H63.83971l.26758-2.14844h-.083q-1.83984,2.35548-3.875,2.35547a2.70959,2.70959,0,0,1-2.24023-1.01758,4.35557,4.35557,0,0,1-.8125-2.78711,10.60126,10.60126,0,0,1,.73047-3.96679,6.84492,6.84492,0,0,1,2.01464-2.86719A4.376,4.376,0,0,1,62.65807,213.25613Zm-1.95313,10.248a2.88959,2.88959,0,0,0,1.9834-.95117,7.02852,7.02852,0,0,0,1.60352-2.47656,8.1103,8.1103,0,0,0,.61719-3.05859,2.39655,2.39655,0,0,0-.57618-1.68555,1.95489,1.95489,0,0,0-1.51074-.62695,2.8289,2.8289,0,0,0-1.98926.88476,5.9523,5.9523,0,0,0-1.44335,2.39453,9.65312,9.65312,0,0,0-.52442,3.18555,2.70573,2.70573,0,0,0,.48242,1.75391A1.66879,1.66879,0,0,0,60.70494,223.50417Z" fill="#232323"/><path d="M72.04088,223.52566a5.58615,5.58615,0,0,0,1.48047-.26758v1.32617a4.75105,4.75105,0,0,1-.86328.2461,4.454,4.454,0,0,1-.82227.10351,2.85766,2.85766,0,0,1-1.96875-.61328,2.32206,2.32206,0,0,1-.68359-1.82422,7.476,7.476,0,0,1,.18555-1.541l1.30566-6.1875H68.90612l.14453-.75,1.90137-.80274,1.28417-2.34375H73.244l-.56543,2.58985H75.495l-.26757,1.30664H72.42174l-1.32617,6.207a7.34734,7.34734,0,0,0-.18457,1.35742,1.22152,1.22152,0,0,0,.29785.88476A1.10522,1.10522,0,0,0,72.04088,223.52566Z" fill="#232323"/><path d="M79.44225,213.46121l-1.542,7.14453a7.72272,7.72272,0,0,0-.18457,1.42773,1.31765,1.31765,0,0,0,1.51074,1.4707,3.05268,3.05268,0,0,0,1.77832-.61718,5.47025,5.47025,0,0,0,1.541-1.76758,9.4605,9.4605,0,0,0,1.01757-2.77539l1.02832-4.88281h1.70606l-2.374,11.26562H82.495l.22559-2.08594h-.123A6.75327,6.75327,0,0,1,80.67565,224.43a3.894,3.894,0,0,1-1.8916.5039,2.87126,2.87126,0,0,1-2.06543-.71484,2.682,2.682,0,0,1-.751-2.041,9.59918,9.59918,0,0,1,.22656-1.76758l1.501-6.94921Z" fill="#232323"/><path d="M94.68541,213.25613a4.69966,4.69966,0,0,1,1.2334.14453l-.37012,1.541a4.57622,4.57622,0,0,0-1.0791-.13281,2.8503,2.8503,0,0,0-1.75293.61719A5.3944,5.3944,0,0,0,91.288,217.137a8.72443,8.72443,0,0,0-.89941,2.42968l-1.09961,5.16016H87.56237l2.40527-11.26562h1.42871l-.22656,2.08789h.10351a10.067,10.067,0,0,1,1.22266-1.4043,3.89869,3.89869,0,0,1,1.0127-.65625A2.90562,2.90562,0,0,1,94.68541,213.25613Z" fill="#232323"/><path d="M101.86022,213.25613a2.90085,2.90085,0,0,1,1.68555.50976,3.29544,3.29544,0,0,1,1.15136,1.46485h.11231l.68945-1.76953h1.30469L104.409,224.72683h-1.36719l.26758-2.14844h-.083q-1.83984,2.35548-3.875,2.35547a2.70963,2.70963,0,0,1-2.24024-1.01758,4.35563,4.35563,0,0,1-.8125-2.78711,10.60145,10.60145,0,0,1,.73047-3.96679,6.845,6.845,0,0,1,2.01465-2.86719A4.376,4.376,0,0,1,101.86022,213.25613Zm-1.95313,10.248a2.88959,2.88959,0,0,0,1.9834-.95117,7.02879,7.02879,0,0,0,1.60352-2.47656,8.11028,8.11028,0,0,0,.61718-3.05859,2.39654,2.39654,0,0,0-.57617-1.68555,1.95491,1.95491,0,0,0-1.51074-.62695,2.82889,2.82889,0,0,0-1.98926.88476,5.95243,5.95243,0,0,0-1.44336,2.39453,9.65311,9.65311,0,0,0-.52441,3.18555,2.70573,2.70573,0,0,0,.48242,1.75391A1.66879,1.66879,0,0,0,99.90709,223.50417Z" fill="#232323"/><path d="M109.496,224.72683H107.7694l3.41211-15.99219h1.72754Z" fill="#232323"/><path d="M125.72643,213.25613a4.69966,4.69966,0,0,1,1.2334.14453l-.37012,1.541a4.57629,4.57629,0,0,0-1.0791-.13281,2.85027,2.85027,0,0,0-1.75293.61719A5.39414,5.39414,0,0,0,122.329,217.137a8.72444,8.72444,0,0,0-.89942,2.42968l-1.09961,5.16016h-1.72656l2.40528-11.26562h1.42871l-.22657,2.08789h.10352a10.06637,10.06637,0,0,1,1.22266-1.4043,3.89864,3.89864,0,0,1,1.01269-.65625A2.9057,2.9057,0,0,1,125.72643,213.25613Z" fill="#232323"/><path d="M131.38952,224.93386a3.93157,3.93157,0,0,1-2.96973-1.12109,4.28562,4.28562,0,0,1-1.08008-3.10352,9.25681,9.25681,0,0,1,.7666-3.707,6.85555,6.85555,0,0,1,2.0293-2.75976,4.43335,4.43335,0,0,1,2.78613-.98633,3.53457,3.53457,0,0,1,2.36328.68359,2.38529,2.38529,0,0,1,.792,1.90625,3.25987,3.25987,0,0,1-1.70606,2.9043,9.34036,9.34036,0,0,1-4.88281,1.05273h-.33887l-.041.82227a3.187,3.187,0,0,0,.63183,2.10351,2.40909,2.40909,0,0,0,1.958.75391,5.0959,5.0959,0,0,0,1.331-.18359,10.08656,10.08656,0,0,0,1.70118-.67969v1.502a9.3128,9.3128,0,0,1-1.70606.63086A6.85669,6.85669,0,0,1,131.38952,224.93386Zm1.42871-10.207a2.75017,2.75017,0,0,0-1.98829.96484,6.31788,6.31788,0,0,0-1.42382,2.6836h.123a8.387,8.387,0,0,0,3.59278-.61133,1.92053,1.92053,0,0,0,1.249-1.77344,1.20079,1.20079,0,0,0-.375-.90429A1.65213,1.65213,0,0,0,132.81823,214.72683Z" fill="#232323"/><path d="M144.26842,221.53152a3.01337,3.01337,0,0,1-1.13574,2.50195,5.04292,5.04292,0,0,1-3.20215.90039,6.83,6.83,0,0,1-3.13476-.71094v-1.623a6.44038,6.44038,0,0,0,1.55273.668,5.64154,5.64154,0,0,0,1.541.23632,3.13936,3.13936,0,0,0,1.95312-.51367,1.6006,1.6006,0,0,0,.6582-1.3164,1.42166,1.42166,0,0,0-.36035-.98633,7.24708,7.24708,0,0,0-1.55176-1.09961,6.24264,6.24264,0,0,1-1.8916-1.4707,2.70462,2.70462,0,0,1-.55469-1.70508,2.83439,2.83439,0,0,1,1.03809-2.28711,4.11568,4.11568,0,0,1,2.73438-.86914,7.94034,7.94034,0,0,1,3.3916.76172l-.55469,1.4082-.57617-.25781a5.70594,5.70594,0,0,0-2.26074-.44141,2.29482,2.29482,0,0,0-1.501.44727,1.50588,1.50588,0,0,0-.17969,2.14257,6.45287,6.45287,0,0,0,1.50586,1.0586,8.66315,8.66315,0,0,1,1.57715,1.05859,3.05368,3.05368,0,0,1,.71484.95117A2.68873,2.68873,0,0,1,144.26842,221.53152Z" fill="#232323"/><path d="M152.33776,213.31863a4.11131,4.11131,0,0,1,3.083,1.15625,4.35429,4.35429,0,0,1,1.13085,3.18164,9.12411,9.12411,0,0,1-.74023,3.64844,6.31907,6.31907,0,0,1-2.00391,2.65234,4.68634,4.68634,0,0,1-2.85742.93359,4.09858,4.09858,0,0,1-3.09375-1.16015,4.38543,4.38543,0,0,1-1.12109-3.17578,9.10613,9.10613,0,0,1,.751-3.67579,6.23113,6.23113,0,0,1,2.02442-2.64062A4.71944,4.71944,0,0,1,152.33776,213.31863Zm2.42578,4.10156a2.81119,2.81119,0,0,0-.64258-1.918,2.19452,2.19452,0,0,0-1.74219-.73437,3.01437,3.01437,0,0,0-2.00976.75976,4.89279,4.89279,0,0,0-1.377,2.11328,8.77448,8.77448,0,0,0-.48828,3.00586,3.03014,3.03014,0,0,0,.65235,2.082,2.37657,2.37657,0,0,0,1.876.73438,2.8335,2.8335,0,0,0,1.92188-.75,4.89008,4.89008,0,0,0,1.33105-2.13281A9.65521,9.65521,0,0,0,154.76354,217.42019Z" fill="#232323"/><path d="M162.17369,213.46121l-1.542,7.14453a7.72359,7.72359,0,0,0-.18457,1.42773,1.31765,1.31765,0,0,0,1.51074,1.4707,3.05266,3.05266,0,0,0,1.77832-.61718,5.47,5.47,0,0,0,1.541-1.76758,9.46051,9.46051,0,0,0,1.01758-2.77539l1.02832-4.88281h1.706l-2.374,11.26562h-1.42871l.22559-2.08594H165.329a6.75328,6.75328,0,0,1-1.92188,1.78907,3.894,3.894,0,0,1-1.8916.5039,2.87127,2.87127,0,0,1-2.06543-.71484,2.682,2.682,0,0,1-.751-2.041,9.5983,9.5983,0,0,1,.22656-1.76758l1.501-6.94921Z" fill="#232323"/><path d="M177.41686,213.25613a4.69966,4.69966,0,0,1,1.2334.14453l-.37012,1.541a4.57629,4.57629,0,0,0-1.0791-.13281,2.85027,2.85027,0,0,0-1.75293.61719,5.39414,5.39414,0,0,0-1.42871,1.71094,8.72444,8.72444,0,0,0-.89942,2.42968l-1.09961,5.16016h-1.72656l2.40528-11.26562h1.42871l-.22657,2.08789h.10352a10.06637,10.06637,0,0,1,1.22266-1.4043,3.89864,3.89864,0,0,1,1.01269-.65625A2.9057,2.9057,0,0,1,177.41686,213.25613Z" fill="#232323"/><path d="M183.22448,224.93386a3.828,3.828,0,0,1-4.19434-4.20508,9.35548,9.35548,0,0,1,.76074-3.793,6.43157,6.43157,0,0,1,2.10254-2.707,5.01159,5.01159,0,0,1,3.0166-.97265,7.53668,7.53668,0,0,1,2.75489.52539l-.4834,1.44922a5.81464,5.81464,0,0,0-2.251-.52539,3.2128,3.2128,0,0,0-2.10156.78711,5.17067,5.17067,0,0,0-1.49121,2.18945,8.42621,8.42621,0,0,0-.53907,3.04687,2.87367,2.87367,0,0,0,.6836,2.04493,2.45066,2.45066,0,0,0,1.88574.73046,4.68017,4.68017,0,0,0,1.39844-.20507,12.7054,12.7054,0,0,0,1.29492-.48438v1.4707A6.17479,6.17479,0,0,1,183.22448,224.93386Z" fill="#232323"/><path d="M192.55651,224.93386a3.93159,3.93159,0,0,1-2.96973-1.12109,4.28562,4.28562,0,0,1-1.08008-3.10352,9.25681,9.25681,0,0,1,.7666-3.707,6.85555,6.85555,0,0,1,2.0293-2.75976,4.43337,4.43337,0,0,1,2.78613-.98633,3.5346,3.5346,0,0,1,2.36329.68359,2.38528,2.38528,0,0,1,.792,1.90625,3.25987,3.25987,0,0,1-1.70606,2.9043,9.34036,9.34036,0,0,1-4.88281,1.05273h-.33887l-.041.82227a3.187,3.187,0,0,0,.63183,2.10351,2.40909,2.40909,0,0,0,1.958.75391,5.096,5.096,0,0,0,1.33106-.18359,10.08651,10.08651,0,0,0,1.70117-.67969v1.502a9.31227,9.31227,0,0,1-1.70606.63086A6.85663,6.85663,0,0,1,192.55651,224.93386Zm1.42871-10.207a2.75013,2.75013,0,0,0-1.98828.96484,6.31778,6.31778,0,0,0-1.42383,2.6836h.123a8.387,8.387,0,0,0,3.59277-.61133,1.92053,1.92053,0,0,0,1.249-1.77344,1.20079,1.20079,0,0,0-.375-.90429A1.65212,1.65212,0,0,0,193.98522,214.72683Z" fill="#232323"/><path d="M198.44616,219.90652l.35937-1.62305h4.92383l-.34961,1.62305Z" fill="#232323"/><path d="M210.05065,224.93386a2.99573,2.99573,0,0,1-1.752-.52539,3.206,3.206,0,0,1-1.13574-1.42773h-.10351l-.71875,1.74609h-1.28516l3.3916-15.99219h1.72754q-.52441,2.48731-.80762,3.80664-.2827,1.32129-.77539,3.08985h.0918a7.51664,7.51664,0,0,1,1.88672-1.78321,3.61507,3.61507,0,0,1,1.917-.57031,2.72627,2.72627,0,0,1,2.26074,1.01758,4.36412,4.36412,0,0,1,.8125,2.79492,10.95987,10.95987,0,0,1-.7041,3.97266,6.653,6.653,0,0,1-1.96387,2.84765A4.38841,4.38841,0,0,1,210.05065,224.93386Zm1.91211-10.22851a2.97523,2.97523,0,0,0-2.00977.97656,6.98944,6.98944,0,0,0-1.624,2.457,7.99562,7.99562,0,0,0-.60059,3.03125,2.41906,2.41906,0,0,0,.57031,1.73242,2.16668,2.16668,0,0,0,1.64942.60156,2.71826,2.71826,0,0,0,1.89648-.832,5.84967,5.84967,0,0,0,1.41309-2.36914,9.869,9.869,0,0,0,.53418-3.26367Q213.79186,214.70437,211.96276,214.70535Z" fill="#232323"/><path d="M223.16686,213.25613a2.90085,2.90085,0,0,1,1.68555.50976,3.29544,3.29544,0,0,1,1.15136,1.46485h.11231l.68945-1.76953h1.30469l-2.39453,11.26562H224.3485l.26758-2.14844h-.083q-1.83984,2.35548-3.875,2.35547a2.70959,2.70959,0,0,1-2.24023-1.01758,4.35557,4.35557,0,0,1-.8125-2.78711,10.60145,10.60145,0,0,1,.73046-3.96679,6.845,6.845,0,0,1,2.01465-2.86719A4.376,4.376,0,0,1,223.16686,213.25613Zm-1.95313,10.248a2.88959,2.88959,0,0,0,1.9834-.95117,7.02852,7.02852,0,0,0,1.60352-2.47656,8.1103,8.1103,0,0,0,.61719-3.05859,2.39655,2.39655,0,0,0-.57618-1.68555,1.95491,1.95491,0,0,0-1.51074-.62695,2.82889,2.82889,0,0,0-1.98926.88476,5.95243,5.95243,0,0,0-1.44336,2.39453,9.65311,9.65311,0,0,0-.52441,3.18555,2.70573,2.70573,0,0,0,.48242,1.75391A1.66879,1.66879,0,0,0,221.21373,223.50417Z" fill="#232323"/><path d="M236.04479,221.53152a3.0134,3.0134,0,0,1-1.13574,2.50195,5.04292,5.04292,0,0,1-3.20215.90039,6.83,6.83,0,0,1-3.13477-.71094v-1.623a6.44028,6.44028,0,0,0,1.55274.668,5.64148,5.64148,0,0,0,1.541.23632,3.13939,3.13939,0,0,0,1.95313-.51367,1.60063,1.60063,0,0,0,.6582-1.3164,1.4217,1.4217,0,0,0-.36035-.98633,7.24735,7.24735,0,0,0-1.55176-1.09961,6.24264,6.24264,0,0,1-1.8916-1.4707,2.70456,2.70456,0,0,1-.55469-1.70508,2.83439,2.83439,0,0,1,1.03809-2.28711,4.11565,4.11565,0,0,1,2.73437-.86914,7.94028,7.94028,0,0,1,3.3916.76172l-.55468,1.4082-.57617-.25781a5.706,5.706,0,0,0-2.26075-.44141,2.29481,2.29481,0,0,0-1.501.44727,1.50586,1.50586,0,0,0-.17969,2.14257,6.45264,6.45264,0,0,0,1.50586,1.0586,8.66315,8.66315,0,0,1,1.57715,1.05859,3.05384,3.05384,0,0,1,.71484.95117A2.68873,2.68873,0,0,1,236.04479,221.53152Z" fill="#232323"/><path d="M242.56139,224.93386a3.93159,3.93159,0,0,1-2.96973-1.12109,4.28565,4.28565,0,0,1-1.08007-3.10352,9.25664,9.25664,0,0,1,.7666-3.707,6.85544,6.85544,0,0,1,2.02929-2.75976,4.4334,4.4334,0,0,1,2.78614-.98633,3.53459,3.53459,0,0,1,2.36328.68359,2.38528,2.38528,0,0,1,.792,1.90625,3.25988,3.25988,0,0,1-1.706,2.9043A9.34042,9.34042,0,0,1,240.66,219.803h-.33886l-.041.82227a3.187,3.187,0,0,0,.63184,2.10351,2.40905,2.40905,0,0,0,1.958.75391,5.096,5.096,0,0,0,1.33106-.18359,10.08651,10.08651,0,0,0,1.70117-.67969v1.502a9.31247,9.31247,0,0,1-1.70605.63086A6.85678,6.85678,0,0,1,242.56139,224.93386Zm1.42871-10.207a2.75015,2.75015,0,0,0-1.98828.96484,6.31778,6.31778,0,0,0-1.42383,2.6836h.12305a8.387,8.387,0,0,0,3.59277-.61133,1.92054,1.92054,0,0,0,1.249-1.77344,1.20079,1.20079,0,0,0-.375-.90429A1.65214,1.65214,0,0,0,243.9901,214.72683Z" fill="#232323"/><path d="M254.454,213.27761a2.99678,2.99678,0,0,1,2.88769,1.95313h.10254a23.86611,23.86611,0,0,1,.46289-2.81641l.80176-3.67969h1.70606l-3.39161,15.99219h-1.42871l.22559-2.14844h-.082a7.74177,7.74177,0,0,1-1.94238,1.82032,3.6405,3.6405,0,0,1-1.8711.53515,2.69187,2.69187,0,0,1-2.23047-1.00781,4.38312,4.38312,0,0,1-.80176-2.79688,10.66354,10.66354,0,0,1,.74024-4.02929,6.73532,6.73532,0,0,1,1.999-2.82617A4.43529,4.43529,0,0,1,254.454,213.27761Zm-1.95313,10.22656a2.99612,2.99612,0,0,0,1.99414-.96093,6.7547,6.7547,0,0,0,1.62891-2.457,8.10467,8.10467,0,0,0,.60156-3.04688,2.46321,2.46321,0,0,0-.55566-1.73828,2.10082,2.10082,0,0,0-1.61328-.5957,2.75351,2.75351,0,0,0-1.92774.84765,5.98243,5.98243,0,0,0-1.42871,2.38477,9.70448,9.70448,0,0,0-.53906,3.23242Q250.661,223.50515,252.50084,223.50417Z" fill="#232323"/><path d="M107.826,249.9866h-1.72656l3.41211-15.99219h1.72753Z" fill="#232323"/><path d="M113.19127,249.9866h-1.72656L113.87,238.721h1.72657Zm1.16211-14.14258a1.35516,1.35516,0,0,1,.32813-.94141,1.09882,1.09882,0,0,1,.85351-.36328.80765.80765,0,0,1,.9043.92383,1.39923,1.39923,0,0,1-.34375.957,1.04007,1.04007,0,0,1-.79688.39062.95067.95067,0,0,1-.67871-.25195A.93624.93624,0,0,1,114.35338,235.844Z" fill="#232323"/><path d="M118.495,249.9866,117.20983,238.721h1.72754l.65722,6.30078q.24756,2.65429.24707,3.72071h.06153q1.30517-2.82423,1.83984-3.8125l3.34082-6.209h1.8291l-6.07422,11.26563Z" fill="#232323"/><path d="M130.98327,250.19363a3.93154,3.93154,0,0,1-2.96973-1.1211,4.28559,4.28559,0,0,1-1.08008-3.10351,9.25681,9.25681,0,0,1,.7666-3.707,6.85559,6.85559,0,0,1,2.0293-2.75977,4.43335,4.43335,0,0,1,2.78613-.98633,3.53457,3.53457,0,0,1,2.36328.6836,2.38528,2.38528,0,0,1,.792,1.90625,3.25985,3.25985,0,0,1-1.70606,2.90429,9.34025,9.34025,0,0,1-4.88281,1.05274H128.743l-.041.82226a3.187,3.187,0,0,0,.63183,2.10352,2.40909,2.40909,0,0,0,1.958.75391,5.0955,5.0955,0,0,0,1.331-.1836,10.08656,10.08656,0,0,0,1.70118-.67969v1.502a9.3128,9.3128,0,0,1-1.70606.63086A6.85669,6.85669,0,0,1,130.98327,250.19363Zm1.42871-10.207a2.75013,2.75013,0,0,0-1.98829.96484,6.31777,6.31777,0,0,0-1.42382,2.68359h.123a8.38705,8.38705,0,0,0,3.59278-.61132,1.92054,1.92054,0,0,0,1.249-1.77344,1.20082,1.20082,0,0,0-.375-.9043A1.65218,1.65218,0,0,0,132.412,239.9866Z" fill="#232323"/><path d="M138.62,249.9866h-1.72656l3.41211-15.99219h1.72754Z" fill="#232323"/><path d="M143.98522,249.9866h-1.72656l2.40527-11.26563h1.72656Zm1.16211-14.14258a1.35516,1.35516,0,0,1,.32812-.94141,1.09885,1.09885,0,0,1,.85352-.36328.80765.80765,0,0,1,.9043.92383,1.39923,1.39923,0,0,1-.34375.957,1.04007,1.04007,0,0,1-.79688.39062.95067.95067,0,0,1-.67871-.25195A.93621.93621,0,0,1,145.14733,235.844Z" fill="#232323"/><path d="M154.49108,249.9866l1.52148-7.11133a8.48312,8.48312,0,0,0,.18457-1.38867,1.34047,1.34047,0,0,0-1.51074-1.52149,3.08074,3.08074,0,0,0-1.7832.60742,5.346,5.346,0,0,0-1.53223,1.76172,9.48952,9.48952,0,0,0-1.00195,2.791l-1.03809,4.86133h-1.72656l3.3916-15.99219h1.72754q-.186.84083-.35547,1.63281c-.1123.5293-.22949,1.06445-.34863,1.60938q-.18018.81738-.39063,1.71093-.21093.89356-.48828,1.94336h.11231A6.84125,6.84125,0,0,1,153.16,239.0823a3.87008,3.87008,0,0,1,1.96778-.54492,2.80137,2.80137,0,0,1,2.082.74023,2.84592,2.84592,0,0,1,.73437,2.0957,8.30941,8.30941,0,0,1-.23633,1.707q-.3999,1.98339-1.49023,6.90625Z" fill="#232323"/><path d="M165.75573,238.57839a4.11132,4.11132,0,0,1,3.083,1.15625,4.35427,4.35427,0,0,1,1.13086,3.18164,9.12408,9.12408,0,0,1-.74023,3.64844,6.31915,6.31915,0,0,1-2.00391,2.65234,4.68637,4.68637,0,0,1-2.85742.9336,4.09853,4.09853,0,0,1-3.09375-1.16016,4.38542,4.38542,0,0,1-1.12109-3.17578,9.10611,9.10611,0,0,1,.751-3.67578,6.23122,6.23122,0,0,1,2.02442-2.64063A4.71944,4.71944,0,0,1,165.75573,238.57839Zm2.42578,4.10157a2.81115,2.81115,0,0,0-.64258-1.918,2.19449,2.19449,0,0,0-1.74219-.73438,3.01438,3.01438,0,0,0-2.00976.75977,4.89273,4.89273,0,0,0-1.377,2.11328,8.77444,8.77444,0,0,0-.48828,3.00586,3.03016,3.03016,0,0,0,.65235,2.082,2.37659,2.37659,0,0,0,1.876.73437,2.8335,2.8335,0,0,0,1.92188-.75,4.89,4.89,0,0,0,1.33105-2.13281A9.65515,9.65515,0,0,0,168.18151,242.68Z" fill="#232323"/><path d="M177.56627,238.57839a4.11135,4.11135,0,0,1,3.083,1.15625,4.35427,4.35427,0,0,1,1.13086,3.18164,9.12408,9.12408,0,0,1-.74023,3.64844,6.31923,6.31923,0,0,1-2.00391,2.65234,4.68637,4.68637,0,0,1-2.85742.9336,4.09853,4.09853,0,0,1-3.09375-1.16016,4.38542,4.38542,0,0,1-1.1211-3.17578,9.10612,9.10612,0,0,1,.751-3.67578,6.23128,6.23128,0,0,1,2.02441-2.64063A4.71946,4.71946,0,0,1,177.56627,238.57839Zm2.42578,4.10157a2.81115,2.81115,0,0,0-.64257-1.918,2.19449,2.19449,0,0,0-1.74219-.73438,3.01442,3.01442,0,0,0-2.00977.75977,4.8928,4.8928,0,0,0-1.37695,2.11328,8.77444,8.77444,0,0,0-.48828,3.00586,3.03021,3.03021,0,0,0,.65234,2.082,2.37663,2.37663,0,0,0,1.876.73437,2.83348,2.83348,0,0,0,1.92187-.75,4.88994,4.88994,0,0,0,1.33106-2.13281A9.65516,9.65516,0,0,0,179.99205,242.68Z" fill="#232323"/><path d="M189.33483,238.53738a2.99678,2.99678,0,0,1,2.88769,1.95312h.10254a23.86591,23.86591,0,0,1,.46289-2.8164l.80176-3.67969h1.70606l-3.39161,15.99219h-1.42871l.22559-2.14844h-.082a7.74153,7.74153,0,0,1-1.94239,1.82031,3.64036,3.64036,0,0,1-1.87109.53516,2.69185,2.69185,0,0,1-2.23047-1.00782,4.38307,4.38307,0,0,1-.80176-2.79687,10.66344,10.66344,0,0,1,.74024-4.0293,6.7353,6.7353,0,0,1,1.999-2.82617A4.43533,4.43533,0,0,1,189.33483,238.53738Zm-1.95313,10.22656a2.99609,2.99609,0,0,0,1.99414-.96094,6.75453,6.75453,0,0,0,1.62891-2.457,8.10462,8.10462,0,0,0,.60156-3.04687,2.46324,2.46324,0,0,0-.55566-1.73829,2.10087,2.10087,0,0,0-1.61328-.5957,2.75348,2.75348,0,0,0-1.92774.84766,5.98239,5.98239,0,0,0-1.42871,2.38476,9.70454,9.70454,0,0,0-.53906,3.23243Q185.54186,248.76492,187.3817,248.76394Z" fill="#232323"/><path d="M202.47057,246.79128a3.01341,3.01341,0,0,1-1.13574,2.502,5.04292,5.04292,0,0,1-3.20215.90039,6.83,6.83,0,0,1-3.13477-.71094v-1.623a6.44006,6.44006,0,0,0,1.55274.668,5.64157,5.64157,0,0,0,1.541.23633,3.13945,3.13945,0,0,0,1.95313-.51367,1.60061,1.60061,0,0,0,.6582-1.31641,1.42172,1.42172,0,0,0-.36035-.98633,7.24771,7.24771,0,0,0-1.55176-1.09961,6.24249,6.24249,0,0,1-1.8916-1.4707,2.70452,2.70452,0,0,1-.55469-1.70508,2.83441,2.83441,0,0,1,1.03809-2.28711,4.11571,4.11571,0,0,1,2.73437-.86914,7.9405,7.9405,0,0,1,3.39161.76172l-.55469,1.4082-.57617-.25781a5.7062,5.7062,0,0,0-2.26075-.4414,2.29481,2.29481,0,0,0-1.501.44726,1.50589,1.50589,0,0,0-.17969,2.14258,6.45268,6.45268,0,0,0,1.50586,1.05859,8.66361,8.66361,0,0,1,1.57715,1.0586,3.05384,3.05384,0,0,1,.71484.95117A2.68869,2.68869,0,0,1,202.47057,246.79128Z" fill="#232323"/><path d="M139.44938,117.16985l5.49333-4.12006c1.14447.45765,2.05991.91543,3.20438,1.37327l.91568,7.01629a2.58336,2.58336,0,0,0,2.289,2.20936h9.61339a2.58337,2.58337,0,0,0,2.289-2.20936l.91543-6.94157a13.26807,13.26807,0,0,0,3.20463-1.18184l5.49333,4.10138a2.42483,2.42483,0,0,0,2.97534-.23813l6.6378-6.87152a2.15942,2.15942,0,0,0,.22905-2.97786l-4.11982-5.4945c.4576-1.14447.91519-2.06074,1.37327-3.20521l7.04149-.91573c1.14423-.229,1.23454-1.14476,2.23454-2.518V85.58276a2.61024,2.61024,0,0,0-2.23454-2.28895l-6.95417-.91543c-.45808-1.14448-.95933-2.06015-1.41693-3.20444l4.098-5.49352a2.14085,2.14085,0,0,0-.24-2.97558l-6.64326-6.86661a2.14312,2.14312,0,0,0-2.97807-.229l-5.4947,4.12006a9.69617,9.69617,0,0,0-3.20531-1.37327l-.91577-6.757a2.33233,2.33233,0,0,0-2.28929-1.95022h-9.61339a2.332,2.332,0,0,0-2.28895,1.95022l-.91568,6.81192c-1.14447.45784-2.2887.888-3.20438,1.34584l-5.49333-4.13378a2.42278,2.42278,0,0,0-2.97559.22218l-6.6378,6.86318a2.13794,2.13794,0,0,0-.229,2.97387l4.12,5.49265a19.28723,19.28723,0,0,0-1.37327,3.204L125.893,83.294a2.08964,2.08964,0,0,0-1.65384,2.28873v9.61358A2.08965,2.08965,0,0,0,125.893,97.485l6.66381.91568c.45784,1.14447.81391,2.05991,1.27175,3.20438l-4.17082,5.49352a2.41988,2.41988,0,0,0,.20367,2.97558l6.62511,6.8666A2.12447,2.12447,0,0,0,139.44938,117.16985Zm16.93783-39.14039a12.589,12.589,0,1,1-12.589,12.589A12.7008,12.7008,0,0,1,156.38721,78.02946Z" fill="#39ae4a"/><path d="M139.22034,154.45526a8.1852,8.1852,0,0,1-6.18-7.67436,8.06528,8.06528,0,0,1,8.01108-8.13219H171.723a7.97659,7.97659,0,0,1,8.01107,8.02945,8.08532,8.08532,0,0,1-6.18,7.76791c.08871.14807.14991.20264.22388.20264H307.80045c0-84-68.40479-152.78664-152.78651-152.78664S2.22743,70.64871,2.22743,154.64871h136.826C139.1095,154.64871,139.16357,154.59743,139.22034,154.45526Zm68.89629-30.41881a2.3163,2.3163,0,0,1-3.20463.91568l-5.26453-2.97559a2.3566,2.3566,0,0,1,2.289-4.12006l5.26453,2.97559C208.34543,121.28991,208.57422,122.66318,208.11663,124.03645Zm8.01108-30.88774a2.337,2.337,0,0,1-2.28895,2.5h-5.95117a2.50973,2.50973,0,0,1,0-5h5.95117A2.337,2.337,0,0,1,216.12771,93.14871Zm-16.48024-28.395,5.26453-2.97559a2.3566,2.3566,0,1,1,2.289,4.12006l-5.26453,2.97559a2.3566,2.3566,0,0,1-2.28895-4.12006ZM179.505,46.21358l2.97558-5.26453a2.35671,2.35671,0,0,1,4.12031,2.289l-2.97558,5.26453a2.35671,2.35671,0,0,1-4.12031-2.28895ZM153.23912,34.31124c0-1.37345.62673-2.28889,2-2.28889s2,.91544,2,2.28889v5.95117c0,1.37327-.62672,2.289-2,2.289s-2-.91568-2-2.28895Zm-28.89671,5.72219a2.53464,2.53464,0,0,1,3.20463.91562l3.20438,5.26453a2.3566,2.3566,0,0,1-4.12006,2.289L123.427,43.238A2.53428,2.53428,0,0,1,124.34241,40.03343ZM93.90017,93.14871a2.33685,2.33685,0,0,1,2.2887-2.5H102.14a2.33718,2.33718,0,0,1,2.289,2.5,2.4896,2.4896,0,0,1-2.28895,2.5H96.18887A2.33685,2.33685,0,0,1,93.90017,93.14871Zm16.48,28.59879-5.26453,2.97558a2.3566,2.3566,0,0,1-2.28895-4.12006l5.26453-2.97558a2.3566,2.3566,0,0,1,2.289,4.12006Zm.91544-53.78921a2.3161,2.3161,0,0,1-3.20439.91544l-5.26453-2.97559a2.3566,2.3566,0,0,1,2.289-4.12006l5.26453,2.97559A2.53429,2.53429,0,0,1,111.2956,67.95829Zm16.709,56.3072A43.86036,43.86036,0,0,1,151.35172,47.129c26.78-2.97558,48.75359,18.08249,48.98239,43.94727a44.12415,44.12415,0,0,1-15.56457,33.418,20.46633,20.46633,0,0,0-7.09539,10.98609,11.34657,11.34657,0,0,0-5.95117-1.83167H141.05145a13.8907,13.8907,0,0,0-5.95117,1.83167A21.55719,21.55719,0,0,0,128.00463,124.26549Z" fill="#39ae4a"/></g></g></svg>