<svg xmlns="http://www.w3.org/2000/svg" xmlns:xlink="http://www.w3.org/1999/xlink" viewBox="0 0 310 310"><defs><linearGradient id="New_Gradient_Swatch_7" x1="45.39603" y1="264.60157" x2="264.59913" y2="45.39847" gradientTransform="matrix(-1, 0, 0, 1, 309.9976, 0)" gradientUnits="userSpaceOnUse"><stop offset="0" stop-color="#38a380"/><stop offset="0.06811" stop-color="#4fa684"/><stop offset="0.19954" stop-color="#74ac8a"/><stop offset="0.33708" stop-color="#93b090"/><stop offset="0.4803" stop-color="#abb494"/><stop offset="0.63159" stop-color="#bcb697"/><stop offset="0.79642" stop-color="#c6b898"/><stop offset="1" stop-color="#c9b899"/></linearGradient></defs><g id="Layer_2" data-name="Layer 2"><g id="Layer_1-2" data-name="Layer 1"><circle cx="155" cy="155" r="154" fill="#fff" stroke-miterlimit="10" stroke-width="2" stroke="url(#New_Gradient_Swatch_7)"/><path d="M53.81823,188.31418a4.69394,4.69394,0,0,1-1.68555,3.8955,7.78438,7.78438,0,0,1-4.94434,1.34668H45.80065L44.536,199.46652H42.78893l3.17578-15.02734h3.39258a4.98589,4.98589,0,0,1,3.33008.97168A3.61736,3.61736,0,0,1,53.81823,188.31418ZM46.119,192.05539h1.36718a5.24575,5.24575,0,0,0,3.3711-.93457,3.33063,3.33063,0,0,0,1.15137-2.74512,2.23492,2.23492,0,0,0-.71387-1.85449,3.4851,3.4851,0,0,0-2.19434-.57129H47.42467Z" fill="#232323"/><path d="M61.54772,187.99582a4.70253,4.70253,0,0,1,1.2334.14355l-.37012,1.542a4.528,4.528,0,0,0-1.0791-.13379,2.85629,2.85629,0,0,0-1.75293.61719,5.41582,5.41582,0,0,0-1.42871,1.71094,8.74245,8.74245,0,0,0-.89942,2.43066l-1.09961,5.16016H54.42467l2.40527-11.26563h1.42872l-.22657,2.08692h.10352a10.10425,10.10425,0,0,1,1.22266-1.40332,3.87758,3.87758,0,0,1,1.01269-.65723A2.90543,2.90543,0,0,1,61.54772,187.99582Z" fill="#232323"/><path d="M68.76354,188.05734a4.11506,4.11506,0,0,1,3.083,1.15625,4.35584,4.35584,0,0,1,1.13086,3.18164,9.12048,9.12048,0,0,1-.74024,3.64844,6.313,6.313,0,0,1-2.0039,2.65234,4.68728,4.68728,0,0,1-2.85743.93457,4.09544,4.09544,0,0,1-3.09375-1.16113,4.38229,4.38229,0,0,1-1.12109-3.17578,9.10148,9.10148,0,0,1,.751-3.67481,6.2283,6.2283,0,0,1,2.02441-2.6416A4.71944,4.71944,0,0,1,68.76354,188.05734Zm2.42578,4.10156a2.80853,2.80853,0,0,0-.64258-1.917,2.19522,2.19522,0,0,0-1.74219-.73535,3.01049,3.01049,0,0,0-2.00976.76074,4.88926,4.88926,0,0,0-1.377,2.11231,8.78384,8.78384,0,0,0-.48829,3.00683,3.02919,3.02919,0,0,0,.65235,2.08106,2.37659,2.37659,0,0,0,1.876.73437,2.83349,2.83349,0,0,0,1.92188-.75,4.89,4.89,0,0,0,1.33105-2.13281A9.65521,9.65521,0,0,0,71.18932,192.1589Z" fill="#232323"/><path d="M81.118,199.46652l1.52051-7.11231a8.40975,8.40975,0,0,0,.18555-1.38769,1.75853,1.75853,0,0,0-.31934-1.12109,1.3151,1.3151,0,0,0-1.08887-.4004,2.7608,2.7608,0,0,0-1.68066.61622,5.3692,5.3692,0,0,0-1.43945,1.76367,10.18834,10.18834,0,0,0-.96094,2.75976l-1.03809,4.88184H74.57018l2.40527-11.26563h1.42871l-.22656,2.08692h.10352a6.43543,6.43543,0,0,1,1.7832-1.75781,3.5134,3.5134,0,0,1,1.834-.53418,2.335,2.335,0,0,1,1.78907.668,3.05873,3.05873,0,0,1,.74023,1.86036h.082a6.58449,6.58449,0,0,1,1.88086-1.90625,3.7665,3.7665,0,0,1,2.01465-.62207,2.768,2.768,0,0,1,2.01953.69921,2.72044,2.72044,0,0,1,.71485,2.03516,9.81632,9.81632,0,0,1-.22657,1.8291l-1.48047,6.90723H87.68541l1.52149-7.11231a9.3651,9.3651,0,0,0,.20508-1.501,1.29511,1.29511,0,0,0-1.46973-1.40821,2.76554,2.76554,0,0,0-1.64453.59571,5.20809,5.20809,0,0,0-1.42383,1.6914,9.2325,9.2325,0,0,0-.92969,2.59473l-1.09961,5.13965Z" fill="#232323"/><path d="M98.93053,188.05734a4.11506,4.11506,0,0,1,3.083,1.15625,4.35584,4.35584,0,0,1,1.13086,3.18164,9.12048,9.12048,0,0,1-.74024,3.64844,6.313,6.313,0,0,1-2.0039,2.65234,4.68727,4.68727,0,0,1-2.85742.93457,4.09543,4.09543,0,0,1-3.09375-1.16113,4.38229,4.38229,0,0,1-1.1211-3.17578,9.10148,9.10148,0,0,1,.751-3.67481,6.2283,6.2283,0,0,1,2.02441-2.6416A4.71944,4.71944,0,0,1,98.93053,188.05734Zm2.42578,4.10156a2.80853,2.80853,0,0,0-.64258-1.917,2.19522,2.19522,0,0,0-1.74218-.73535,3.01051,3.01051,0,0,0-2.00977.76074,4.88926,4.88926,0,0,0-1.377,2.11231,8.78409,8.78409,0,0,0-.48828,3.00683,3.02919,3.02919,0,0,0,.65234,2.08106,2.37663,2.37663,0,0,0,1.876.73437,2.83348,2.83348,0,0,0,1.92187-.75,4.89,4.89,0,0,0,1.33106-2.13281A9.65522,9.65522,0,0,0,101.35631,192.1589Z" fill="#232323"/><path d="M108.1903,198.26437a5.58587,5.58587,0,0,0,1.48047-.26758V199.323a4.75094,4.75094,0,0,1-.86329.2461,4.4539,4.4539,0,0,1-.82226.10351,2.85742,2.85742,0,0,1-1.96875-.6123,2.32344,2.32344,0,0,1-.6836-1.82422,7.477,7.477,0,0,1,.18555-1.542l1.30567-6.1875h-1.76856l.14453-.75,1.90137-.80176,1.28418-2.34375h1.00781l-.56543,2.58984h2.81641l-.26758,1.30567h-2.80566l-1.32618,6.208a7.33791,7.33791,0,0,0-.18457,1.35742,1.21905,1.21905,0,0,0,.29786.88379A1.10522,1.10522,0,0,0,108.1903,198.26437Z" fill="#232323"/><path d="M113.28893,199.46652h-1.72656l2.40527-11.26563h1.72656ZM114.451,185.323a1.35267,1.35267,0,0,1,.32812-.94043,1.09641,1.09641,0,0,1,.85352-.36425.80835.80835,0,0,1,.9043.9248,1.395,1.395,0,0,1-.34375.95606,1.037,1.037,0,0,1-.79688.39062.95067.95067,0,0,1-.67871-.25195A.93625.93625,0,0,1,114.451,185.323Z" fill="#232323"/><path d="M123.79381,199.46652l1.52149-7.11231a9.39745,9.39745,0,0,0,.20507-1.48046,1.46068,1.46068,0,0,0-.36523-1.03809,1.52876,1.52876,0,0,0-1.166-.39063,3.04508,3.04508,0,0,0-1.7832.61622,5.4925,5.4925,0,0,0-1.53223,1.75781,9.27834,9.27834,0,0,0-1.00195,2.76562l-1.03808,4.88184h-1.72657l2.40528-11.26563h1.42871l-.22656,2.08692h.10351a6.87,6.87,0,0,1,1.90625-1.77344,3.83294,3.83294,0,0,1,1.90625-.51855,2.88273,2.88273,0,0,1,2.06152.71386,2.62362,2.62362,0,0,1,.75489,2,8.40079,8.40079,0,0,1-.23633,1.84961l-1.46973,6.90723Z" fill="#232323"/><path d="M139.7567,188.20089l-.25683,1.10059-2.16895.24609a2.89515,2.89515,0,0,1,.4209,1.624,4.17053,4.17053,0,0,1-1.19727,3.12988,4.38765,4.38765,0,0,1-3.20117,1.167,3.46282,3.46282,0,0,1-.86426-.082q-1.42821.54492-1.42871,1.3457a.54512.54512,0,0,0,.33985.56055,4.07541,4.07541,0,0,0,.98633.2207l1.20312.14454a5.3508,5.3508,0,0,1,2.69727.90429,2.41358,2.41358,0,0,1,.83789,1.99414,3.35465,3.35465,0,0,1-1.5,2.92871,7.3598,7.3598,0,0,1-4.22461,1.03809,5.57247,5.57247,0,0,1-3.125-.75488,2.42,2.42,0,0,1-1.13086-2.13282,2.64887,2.64887,0,0,1,.74023-1.87109,5.769,5.769,0,0,1,2.39453-1.34668,1.33743,1.33743,0,0,1-.80078-1.24316,1.63584,1.63584,0,0,1,.52344-1.21778,5.3932,5.3932,0,0,1,1.46-.95117,2.679,2.679,0,0,1-1.05859-.97168,2.70684,2.70684,0,0,1-.41114-1.49512,4.5144,4.5144,0,0,1,1.22852-3.26855,4.16968,4.16968,0,0,1,3.13965-1.27441,6.21013,6.21013,0,0,1,1.583.20507Zm-10.94726,13.26954a1.44611,1.44611,0,0,0,.66894,1.2539,3.48824,3.48824,0,0,0,1.9834.46289,5.54928,5.54928,0,0,0,2.92383-.65234,2.05831,2.05831,0,0,0,1.05371-1.8457,1.15112,1.15112,0,0,0-.55469-1.00684,4.4478,4.4478,0,0,0-1.8916-.51367l-1.63379-.165a3.71516,3.71516,0,0,0-1.8916.90527A2.112,2.112,0,0,0,128.80944,201.47043Zm2.85742-8.99317a1.79052,1.79052,0,0,0,.46289,1.33106,1.74891,1.74891,0,0,0,1.28516.457,2.37967,2.37967,0,0,0,1.418-.43164,2.74941,2.74941,0,0,0,.93067-1.18653,4.12142,4.12142,0,0,0,.32324-1.63965,1.71745,1.71745,0,0,0-.45215-1.28515,1.78022,1.78022,0,0,0-1.29492-.44141,2.40729,2.40729,0,0,0-1.40332.416,2.73234,2.73234,0,0,0-.93555,1.16113A3.91611,3.91611,0,0,0,131.66686,192.47726Z" fill="#232323"/><path d="M148.5233,198.26437a5.58574,5.58574,0,0,0,1.48047-.26758V199.323a4.75081,4.75081,0,0,1-.86328.2461,4.454,4.454,0,0,1-.82226.10351,2.85742,2.85742,0,0,1-1.96875-.6123,2.32344,2.32344,0,0,1-.6836-1.82422,7.477,7.477,0,0,1,.18555-1.542l1.30566-6.1875h-1.76855l.14453-.75,1.90137-.80176,1.28418-2.34375h1.00781l-.56543,2.58984h2.81641l-.26758,1.30567h-2.80567l-1.32617,6.208a7.337,7.337,0,0,0-.18457,1.35742,1.219,1.219,0,0,0,.29785.88379A1.10525,1.10525,0,0,0,148.5233,198.26437Z" fill="#232323"/><path d="M158.78209,199.46652l1.52149-7.11231a8.48887,8.48887,0,0,0,.18457-1.38769,1.34009,1.34009,0,0,0-1.51074-1.52149,3.07933,3.07933,0,0,0-1.78321.60645,5.34019,5.34019,0,0,0-1.53222,1.7627,9.47948,9.47948,0,0,0-1.002,2.791l-1.03808,4.86133h-1.72657l3.39161-15.99316h1.72754q-.186.84228-.35547,1.63378-.16846.79248-.34864,1.60938-.18016.81591-.39062,1.71094-.21095.89355-.48828,1.94238h.1123a6.85573,6.85573,0,0,1,1.90723-1.80859,3.86993,3.86993,0,0,1,1.96777-.54493,2.80522,2.80522,0,0,1,2.082.74024,2.84985,2.84985,0,0,1,.73438,2.09668,8.31081,8.31081,0,0,1-.23633,1.70605q-.3999,1.98341-1.49023,6.90723Z" fill="#232323"/><path d="M168.495,199.67257a3.92789,3.92789,0,0,1-2.96972-1.12109,4.2856,4.2856,0,0,1-1.08008-3.10352,9.2522,9.2522,0,0,1,.7666-3.70605,6.85557,6.85557,0,0,1,2.0293-2.75977,4.42769,4.42769,0,0,1,2.78613-.98632,3.52934,3.52934,0,0,1,2.36328.68359,2.38258,2.38258,0,0,1,.792,1.90625,3.26094,3.26094,0,0,1-1.70605,2.9043,9.34989,9.34989,0,0,1-4.88281,1.05273h-.33887l-.041.82227a3.18422,3.18422,0,0,0,.63184,2.10254,2.40954,2.40954,0,0,0,1.958.75488,5.09774,5.09774,0,0,0,1.331-.18457,10.15348,10.15348,0,0,0,1.70117-.67871v1.501a9.252,9.252,0,0,1-1.70605.63184A6.90872,6.90872,0,0,1,168.495,199.67257Zm1.42871-10.207a2.74784,2.74784,0,0,0-1.98828.96582,6.31962,6.31962,0,0,0-1.42382,2.68262h.123a8.38688,8.38688,0,0,0,3.59278-.61133,1.91929,1.91929,0,0,0,1.249-1.77246,1.20294,1.20294,0,0,0-.375-.90527A1.65668,1.65668,0,0,0,169.92369,189.46554Z" fill="#232323"/><path d="M177.89928,204.52316a3.44911,3.44911,0,0,1-1.26367-.21582v-1.44922a3.57637,3.57637,0,0,0,1.22266.22656q1.28466,0,1.72656-2.10742l2.71386-12.77637h1.70606l-2.73438,12.93067a5.10825,5.10825,0,0,1-1.17675,2.57519A2.9473,2.9473,0,0,1,177.89928,204.52316Zm4.88281-19.2002a1.35268,1.35268,0,0,1,.32813-.94043,1.09637,1.09637,0,0,1,.85351-.36425q.88331,0,.88379.9248a1.395,1.395,0,0,1-.34375.95606,1.03694,1.03694,0,0,1-.79687.39062.92392.92392,0,0,1-.65821-.25195A.93625.93625,0,0,1,182.78209,185.323Z" fill="#232323"/><path d="M189.26744,188.20089l-1.542,7.14356a7.742,7.742,0,0,0-.18457,1.42871,1.31765,1.31765,0,0,0,1.51074,1.4707,3.0595,3.0595,0,0,0,1.77832-.61718,5.48036,5.48036,0,0,0,1.541-1.76758,9.471,9.471,0,0,0,1.01758-2.77539l1.02832-4.88282h1.706l-2.374,11.26563h-1.42871l.22559-2.08691h-.12305a6.75323,6.75323,0,0,1-1.92188,1.78906,3.88326,3.88326,0,0,1-1.8916.5039,2.87127,2.87127,0,0,1-2.06543-.71484,2.6812,2.6812,0,0,1-.751-2.04,9.59693,9.59693,0,0,1,.22656-1.76855l1.501-6.94825Z" fill="#232323"/><path d="M203.34948,188.01632a2.99812,2.99812,0,0,1,2.88769,1.95313h.10254a23.89819,23.89819,0,0,1,.46289-2.81641l.80176-3.67968h1.706l-3.3916,15.99316H204.4901l.22559-2.14844h-.082a7.735,7.735,0,0,1-1.94239,1.81934,3.63109,3.63109,0,0,1-1.87109.53515,2.69185,2.69185,0,0,1-2.23047-1.00781,4.382,4.382,0,0,1-.80176-2.7959,10.65615,10.65615,0,0,1,.74024-4.02929,6.72287,6.72287,0,0,1,1.999-2.82618A4.43078,4.43078,0,0,1,203.34948,188.01632Zm-1.95313,10.22754a2.99337,2.99337,0,0,0,1.99414-.96191,6.7589,6.7589,0,0,0,1.62891-2.45606,8.11324,8.11324,0,0,0,.60156-3.04785,2.46064,2.46064,0,0,0-.55566-1.7373,2.10083,2.10083,0,0,0-1.61328-.59571,2.74938,2.74938,0,0,0-1.92774.84766,5.96858,5.96858,0,0,0-1.42871,2.38477,9.69589,9.69589,0,0,0-.53906,3.23242Q199.55651,198.24337,201.39635,198.24386Z" fill="#232323"/><path d="M211.26354,199.46652H209.537l2.40527-11.26563h1.72656Zm1.16211-14.14356a1.35267,1.35267,0,0,1,.32812-.94043,1.09641,1.09641,0,0,1,.85352-.36425.80835.80835,0,0,1,.9043.9248,1.395,1.395,0,0,1-.34375.95606,1.037,1.037,0,0,1-.79688.39062.95067.95067,0,0,1-.67871-.25195A.93625.93625,0,0,1,212.42565,185.323Z" fill="#232323"/><path d="M219.47643,199.67257a3.82665,3.82665,0,0,1-4.19434-4.2041,9.35532,9.35532,0,0,1,.76075-3.793,6.4407,6.4407,0,0,1,2.10253-2.708,5.01065,5.01065,0,0,1,3.01661-.97168,7.5355,7.5355,0,0,1,2.75488.52441l-.4834,1.44922a5.81192,5.81192,0,0,0-2.251-.52442,3.2169,3.2169,0,0,0-2.10156.78614,5.1769,5.1769,0,0,0-1.49121,2.18945,8.428,8.428,0,0,0-.53906,3.04785,2.87367,2.87367,0,0,0,.68359,2.04492,2.45413,2.45413,0,0,0,1.88574.73047,4.68,4.68,0,0,0,1.39844-.20605,12.69823,12.69823,0,0,0,1.29492-.4834v1.46973A6.17479,6.17479,0,0,1,219.47643,199.67257Z" fill="#232323"/><path d="M226.08483,199.46652h-1.72656l2.40527-11.26563h1.72656Zm1.16211-14.14356a1.35267,1.35267,0,0,1,.32812-.94043,1.09641,1.09641,0,0,1,.85352-.36425.80834.80834,0,0,1,.90429.9248,1.395,1.395,0,0,1-.34375.95606,1.03692,1.03692,0,0,1-.79687.39062.95067.95067,0,0,1-.67871-.25195A.93621.93621,0,0,1,227.24694,185.323Z" fill="#232323"/><path d="M235.70592,188.05734a4.11506,4.11506,0,0,1,3.083,1.15625,4.35579,4.35579,0,0,1,1.13086,3.18164,9.12048,9.12048,0,0,1-.74024,3.64844,6.313,6.313,0,0,1-2.0039,2.65234,4.68727,4.68727,0,0,1-2.85742.93457,4.09543,4.09543,0,0,1-3.09375-1.16113,4.38229,4.38229,0,0,1-1.1211-3.17578,9.10148,9.10148,0,0,1,.751-3.67481,6.2283,6.2283,0,0,1,2.02441-2.6416A4.71946,4.71946,0,0,1,235.70592,188.05734Zm2.42578,4.10156a2.80853,2.80853,0,0,0-.64258-1.917,2.1952,2.1952,0,0,0-1.74218-.73535,3.01051,3.01051,0,0,0-2.00977.76074,4.88926,4.88926,0,0,0-1.37695,2.11231,8.78409,8.78409,0,0,0-.48828,3.00683,3.02919,3.02919,0,0,0,.65234,2.08106,2.37663,2.37663,0,0,0,1.876.73437,2.83348,2.83348,0,0,0,1.92187-.75,4.89,4.89,0,0,0,1.33106-2.13281A9.65522,9.65522,0,0,0,238.1317,192.1589Z" fill="#232323"/><path d="M245.54284,188.20089l-1.542,7.14356a7.742,7.742,0,0,0-.18457,1.42871,1.31766,1.31766,0,0,0,1.51075,1.4707,3.05955,3.05955,0,0,0,1.77832-.61718,5.48046,5.48046,0,0,0,1.541-1.76758,9.471,9.471,0,0,0,1.01758-2.77539l1.02832-4.88282h1.70605l-2.374,11.26563h-1.42871l.22559-2.08691h-.123a6.75323,6.75323,0,0,1-1.92188,1.78906,3.88326,3.88326,0,0,1-1.8916.5039,2.87127,2.87127,0,0,1-2.06543-.71484,2.6812,2.6812,0,0,1-.751-2.04,9.59693,9.59693,0,0,1,.22656-1.76855l1.501-6.94825Z" fill="#232323"/><path d="M260.61119,196.27023a3.01527,3.01527,0,0,1-1.13574,2.50293,5.04285,5.04285,0,0,1-3.20215.89941,6.82951,6.82951,0,0,1-3.13476-.71v-1.624a6.36394,6.36394,0,0,0,1.55273.668,5.64513,5.64513,0,0,0,1.541.2373,3.13279,3.13279,0,0,0,1.95312-.51465,1.59884,1.59884,0,0,0,.65821-1.31543,1.42,1.42,0,0,0-.36035-.98632,7.24116,7.24116,0,0,0-1.55176-1.10059,6.24178,6.24178,0,0,1-1.8916-1.46973,2.70924,2.70924,0,0,1-.55469-1.706,2.83573,2.83573,0,0,1,1.03808-2.28711,4.12051,4.12051,0,0,1,2.73438-.86816,7.95367,7.95367,0,0,1,3.3916.76074l-.55469,1.4082-.57617-.25683a5.70639,5.70639,0,0,0-2.26074-.44239,2.30034,2.30034,0,0,0-1.501.44727,1.50588,1.50588,0,0,0-.17968,2.14258,6.42323,6.42323,0,0,0,1.50585,1.05859,8.70845,8.70845,0,0,1,1.57715,1.05957,3.05049,3.05049,0,0,1,.71485.9502A2.69508,2.69508,0,0,1,260.61119,196.27023Z" fill="#232323"/><path d="M81.73424,213.46164l-1.542,7.14355a7.74118,7.74118,0,0,0-.18457,1.42871,1.31766,1.31766,0,0,0,1.51074,1.47071,3.05954,3.05954,0,0,0,1.77832-.61719,5.4806,5.4806,0,0,0,1.541-1.76758,9.47115,9.47115,0,0,0,1.01758-2.77539l1.02832-4.88281h1.706l-2.374,11.26562H84.787l.22558-2.08691h-.123a6.75323,6.75323,0,0,1-1.92188,1.78906,3.88327,3.88327,0,0,1-1.8916.50391,2.87128,2.87128,0,0,1-2.06543-.71485,2.68117,2.68117,0,0,1-.751-2.04,9.5978,9.5978,0,0,1,.22656-1.76855l1.501-6.94824Z" fill="#232323"/><path d="M96.8026,221.531a3.01529,3.01529,0,0,1-1.13574,2.50293,5.04287,5.04287,0,0,1-3.20215.89942,6.82971,6.82971,0,0,1-3.13477-.71v-1.624a6.36418,6.36418,0,0,0,1.55274.668,5.64516,5.64516,0,0,0,1.541.23731,3.13289,3.13289,0,0,0,1.95313-.51465,1.59884,1.59884,0,0,0,.6582-1.31543,1.42,1.42,0,0,0-.36035-.98633,7.24089,7.24089,0,0,0-1.55176-1.10059,6.242,6.242,0,0,1-1.8916-1.46972,2.70929,2.70929,0,0,1-.55469-1.70606,2.83573,2.83573,0,0,1,1.03809-2.28711,4.12049,4.12049,0,0,1,2.73438-.86816,7.95371,7.95371,0,0,1,3.3916.76074l-.55469,1.4082-.57617-.25683a5.7066,5.7066,0,0,0-2.26074-.44239,2.30034,2.30034,0,0,0-1.501.44727,1.50589,1.50589,0,0,0-.17969,2.14258,6.42357,6.42357,0,0,0,1.50586,1.05859,8.709,8.709,0,0,1,1.57715,1.05957,3.0503,3.0503,0,0,1,.71484.9502A2.695,2.695,0,0,1,96.8026,221.531Z" fill="#232323"/><path d="M103.31823,224.93332a3.92791,3.92791,0,0,1-2.96973-1.1211,4.28559,4.28559,0,0,1-1.08008-3.10351,9.25222,9.25222,0,0,1,.7666-3.70606,6.85555,6.85555,0,0,1,2.0293-2.75976,4.42764,4.42764,0,0,1,2.78613-.98633,3.52934,3.52934,0,0,1,2.36328.68359,2.3826,2.3826,0,0,1,.792,1.90625,3.261,3.261,0,0,1-1.70606,2.9043,9.34985,9.34985,0,0,1-4.88281,1.05273H101.078l-.041.82227a3.1842,3.1842,0,0,0,.63183,2.10254,2.40955,2.40955,0,0,0,1.958.75488,5.09774,5.09774,0,0,0,1.33105-.18457,10.15353,10.15353,0,0,0,1.70118-.67871v1.501a9.25243,9.25243,0,0,1-1.70606.63183A6.90861,6.90861,0,0,1,103.31823,224.93332Zm1.42871-10.207a2.74778,2.74778,0,0,0-1.98828.96583,6.31948,6.31948,0,0,0-1.42383,2.68261h.123a8.38688,8.38688,0,0,0,3.59278-.61133,1.91929,1.91929,0,0,0,1.249-1.77246,1.20294,1.20294,0,0,0-.375-.90527A1.65667,1.65667,0,0,0,104.74694,214.72628Z" fill="#232323"/><path d="M120.72057,213.31808a4.11506,4.11506,0,0,1,3.083,1.15625,4.35587,4.35587,0,0,1,1.13086,3.18164,9.12048,9.12048,0,0,1-.74024,3.64844,6.313,6.313,0,0,1-2.0039,2.65234,4.68728,4.68728,0,0,1-2.85743.93457,4.09541,4.09541,0,0,1-3.09375-1.16113,4.38227,4.38227,0,0,1-1.12109-3.17578,9.10143,9.10143,0,0,1,.751-3.6748,6.22827,6.22827,0,0,1,2.02441-2.64161A4.71944,4.71944,0,0,1,120.72057,213.31808Zm2.42578,4.10156a2.80853,2.80853,0,0,0-.64258-1.917,2.19522,2.19522,0,0,0-1.74218-.73535,3.01056,3.01056,0,0,0-2.00977.76074,4.88926,4.88926,0,0,0-1.37695,2.11231,8.78385,8.78385,0,0,0-.48828,3.00683,3.02919,3.02919,0,0,0,.65234,2.08106,2.37663,2.37663,0,0,0,1.876.73437,2.83348,2.83348,0,0,0,1.92187-.75,4.88994,4.88994,0,0,0,1.33106-2.13281A9.65545,9.65545,0,0,0,123.14635,217.41964Z" fill="#232323"/><path d="M124.85241,229.7839a3.619,3.619,0,0,1-1.28418-.21582v-1.44922a3.59943,3.59943,0,0,0,1.15136.22657,1.35783,1.35783,0,0,0,1.20215-.6377,5.44718,5.44718,0,0,0,.67871-1.81934l2.333-11.12109h-1.9834l.13281-.68848,2.11817-.67871.23633-1.02734a6.0821,6.0821,0,0,1,1.31054-2.9043,3.33973,3.33973,0,0,1,2.48145-.84765,5.38645,5.38645,0,0,1,1.00781.11816,4.71543,4.71543,0,0,1,.92481.26172l-.44141,1.32617a4.01338,4.01338,0,0,0-1.4082-.29785,1.81551,1.81551,0,0,0-1.373.49805,3.96515,3.96515,0,0,0-.77539,1.82519l-.25684,1.10938h2.44629l-.25683,1.30566H130.66l-2.38476,11.28613a5.87916,5.87916,0,0,1-1.2334,2.83692A2.851,2.851,0,0,1,124.85241,229.7839Z" fill="#232323"/><path d="M145.70787,213.25656a4.70247,4.70247,0,0,1,1.2334.14355l-.37011,1.542a4.52758,4.52758,0,0,0-1.07911-.13379,2.85632,2.85632,0,0,0-1.75293.61718,5.41619,5.41619,0,0,0-1.42871,1.71094,8.74238,8.74238,0,0,0-.89941,2.43067l-1.09961,5.16015h-1.72656l2.40527-11.26562h1.42871l-.22656,2.08691h.10352a10.10559,10.10559,0,0,1,1.22265-1.40332,3.8778,3.8778,0,0,1,1.0127-.65723A2.90555,2.90555,0,0,1,145.70787,213.25656Z" fill="#232323"/><path d="M151.37,224.93332a3.9279,3.9279,0,0,1-2.96972-1.1211,4.28559,4.28559,0,0,1-1.08008-3.10351,9.25222,9.25222,0,0,1,.7666-3.70606,6.85546,6.85546,0,0,1,2.0293-2.75976,4.42764,4.42764,0,0,1,2.78613-.98633,3.52934,3.52934,0,0,1,2.36328.68359,2.38259,2.38259,0,0,1,.792,1.90625,3.26094,3.26094,0,0,1-1.70605,2.9043,9.34989,9.34989,0,0,1-4.88281,1.05273h-.33887l-.041.82227a3.1842,3.1842,0,0,0,.63184,2.10254,2.40954,2.40954,0,0,0,1.958.75488,5.09774,5.09774,0,0,0,1.331-.18457,10.15348,10.15348,0,0,0,1.70117-.67871v1.501a9.25263,9.25263,0,0,1-1.70605.63183A6.9087,6.9087,0,0,1,151.37,224.93332Zm1.42871-10.207a2.74782,2.74782,0,0,0-1.98828.96583,6.31958,6.31958,0,0,0-1.42382,2.68261h.123a8.38688,8.38688,0,0,0,3.59278-.61133,1.91929,1.91929,0,0,0,1.249-1.77246,1.20294,1.20294,0,0,0-.375-.90527A1.65668,1.65668,0,0,0,152.79869,214.72628Z" fill="#232323"/><path d="M164.24987,221.531a3.01527,3.01527,0,0,1-1.13575,2.50293,5.04282,5.04282,0,0,1-3.20214.89942,6.82965,6.82965,0,0,1-3.13477-.71v-1.624a6.36394,6.36394,0,0,0,1.55273.668,5.64517,5.64517,0,0,0,1.541.23731,3.13291,3.13291,0,0,0,1.95313-.51465,1.59887,1.59887,0,0,0,.6582-1.31543,1.42,1.42,0,0,0-.36035-.98633,7.24116,7.24116,0,0,0-1.55176-1.10059,6.24178,6.24178,0,0,1-1.8916-1.46972,2.70929,2.70929,0,0,1-.55469-1.70606,2.83571,2.83571,0,0,1,1.03809-2.28711,4.12047,4.12047,0,0,1,2.73437-.86816,7.95364,7.95364,0,0,1,3.3916.76074l-.55468,1.4082-.57618-.25683a5.70657,5.70657,0,0,0-2.26074-.44239,2.30038,2.30038,0,0,0-1.501.44727,1.50588,1.50588,0,0,0-.17968,2.14258,6.42312,6.42312,0,0,0,1.50586,1.05859,8.70882,8.70882,0,0,1,1.57714,1.05957,3.05034,3.05034,0,0,1,.71485.9502A2.695,2.695,0,0,1,164.24987,221.531Z" fill="#232323"/><path d="M172.31823,213.31808a4.115,4.115,0,0,1,3.083,1.15625,4.35583,4.35583,0,0,1,1.13086,3.18164,9.12065,9.12065,0,0,1-.74023,3.64844,6.313,6.313,0,0,1-2.00391,2.65234,4.68725,4.68725,0,0,1-2.85742.93457,4.09539,4.09539,0,0,1-3.09375-1.16113,4.38227,4.38227,0,0,1-1.12109-3.17578,9.10142,9.10142,0,0,1,.751-3.6748,6.22828,6.22828,0,0,1,2.02442-2.64161A4.71944,4.71944,0,0,1,172.31823,213.31808Zm2.42578,4.10156a2.80857,2.80857,0,0,0-.64258-1.917,2.19522,2.19522,0,0,0-1.74219-.73535,3.01054,3.01054,0,0,0-2.00976.76074,4.88928,4.88928,0,0,0-1.377,2.11231,8.78409,8.78409,0,0,0-.48828,3.00683,3.02919,3.02919,0,0,0,.65235,2.08106,2.37659,2.37659,0,0,0,1.876.73437,2.8335,2.8335,0,0,0,1.92188-.75,4.89,4.89,0,0,0,1.33105-2.13281A9.65517,9.65517,0,0,0,174.744,217.41964Z" fill="#232323"/><path d="M182.15514,213.46164l-1.542,7.14355a7.74118,7.74118,0,0,0-.18457,1.42871,1.31766,1.31766,0,0,0,1.51074,1.47071,3.05954,3.05954,0,0,0,1.77832-.61719,5.4806,5.4806,0,0,0,1.541-1.76758,9.47086,9.47086,0,0,0,1.01757-2.77539l1.02832-4.88281h1.70606l-2.374,11.26562h-1.42872l.22559-2.08691h-.12305a6.75321,6.75321,0,0,1-1.92187,1.78906,3.8833,3.8833,0,0,1-1.8916.50391,2.87126,2.87126,0,0,1-2.06543-.71485,2.68117,2.68117,0,0,1-.751-2.04,9.5978,9.5978,0,0,1,.22656-1.76855l1.501-6.94824Z" fill="#232323"/><path d="M197.3983,213.25656a4.70247,4.70247,0,0,1,1.2334.14355l-.37011,1.542a4.52758,4.52758,0,0,0-1.07911-.13379,2.85632,2.85632,0,0,0-1.75293.61718,5.41619,5.41619,0,0,0-1.42871,1.71094,8.74238,8.74238,0,0,0-.89941,2.43067l-1.09961,5.16015h-1.72656l2.40527-11.26562h1.42871l-.22656,2.08691h.10351a10.10619,10.10619,0,0,1,1.22266-1.40332,3.8778,3.8778,0,0,1,1.0127-.65723A2.90555,2.90555,0,0,1,197.3983,213.25656Z" fill="#232323"/><path d="M203.20592,224.93332a3.82665,3.82665,0,0,1-4.19433-4.20411,9.35523,9.35523,0,0,1,.76074-3.793,6.44069,6.44069,0,0,1,2.10254-2.708,5.0106,5.0106,0,0,1,3.0166-.97168,7.5355,7.5355,0,0,1,2.75488.52441l-.4834,1.44922a5.8118,5.8118,0,0,0-2.251-.52441,3.217,3.217,0,0,0-2.10157.78613,5.177,5.177,0,0,0-1.49121,2.18945,8.428,8.428,0,0,0-.53906,3.04785,2.87371,2.87371,0,0,0,.68359,2.04493,2.45418,2.45418,0,0,0,1.88575.73047,4.68,4.68,0,0,0,1.39843-.20606,12.69928,12.69928,0,0,0,1.29493-.4834v1.46973A6.1748,6.1748,0,0,1,203.20592,224.93332Z" fill="#232323"/><path d="M212.538,224.93332a3.9279,3.9279,0,0,1-2.96972-1.1211,4.28559,4.28559,0,0,1-1.08008-3.10351,9.25222,9.25222,0,0,1,.7666-3.70606,6.85546,6.85546,0,0,1,2.0293-2.75976,4.42764,4.42764,0,0,1,2.78613-.98633,3.52934,3.52934,0,0,1,2.36328.68359,2.38259,2.38259,0,0,1,.792,1.90625,3.26094,3.26094,0,0,1-1.70605,2.9043,9.34989,9.34989,0,0,1-4.88281,1.05273h-.33887l-.041.82227a3.1842,3.1842,0,0,0,.63184,2.10254,2.40954,2.40954,0,0,0,1.958.75488,5.09774,5.09774,0,0,0,1.33105-.18457,10.15348,10.15348,0,0,0,1.70117-.67871v1.501a9.25263,9.25263,0,0,1-1.70605.63183A6.90876,6.90876,0,0,1,212.538,224.93332Zm1.42871-10.207a2.74782,2.74782,0,0,0-1.98828.96583,6.3197,6.3197,0,0,0-1.42383,2.68261h.12305a8.3868,8.3868,0,0,0,3.59277-.61133,1.91929,1.91929,0,0,0,1.249-1.77246,1.20294,1.20294,0,0,0-.375-.90527A1.65668,1.65668,0,0,0,213.96666,214.72628Z" fill="#232323"/><path d="M225.41686,221.531a3.01529,3.01529,0,0,1-1.13574,2.50293,5.04287,5.04287,0,0,1-3.20215.89942,6.82968,6.82968,0,0,1-3.13477-.71v-1.624a6.36384,6.36384,0,0,0,1.55274.668,5.6451,5.6451,0,0,0,1.541.23731,3.13291,3.13291,0,0,0,1.95313-.51465,1.59887,1.59887,0,0,0,.6582-1.31543,1.42,1.42,0,0,0-.36035-.98633,7.24116,7.24116,0,0,0-1.55176-1.10059,6.242,6.242,0,0,1-1.8916-1.46972,2.70929,2.70929,0,0,1-.55469-1.70606,2.83573,2.83573,0,0,1,1.03809-2.28711,4.12047,4.12047,0,0,1,2.73437-.86816,7.95364,7.95364,0,0,1,3.3916.76074l-.55468,1.4082-.57617-.25683a5.70665,5.70665,0,0,0-2.26075-.44239,2.30033,2.30033,0,0,0-1.501.44727,1.50587,1.50587,0,0,0-.17969,2.14258,6.42334,6.42334,0,0,0,1.50586,1.05859,8.709,8.709,0,0,1,1.57715,1.05957,3.05045,3.05045,0,0,1,.71484.9502A2.695,2.695,0,0,1,225.41686,221.531Z" fill="#232323"/><path d="M183.49239,8.07627a1.3438,1.3438,0,0,0-.95163-1.047,2.91836,2.91836,0,0,0-1.4676.05511,30.773,30.773,0,0,0-3.00161.99189,8.61263,8.61263,0,0,1,1.36565-.87244,6.7825,6.7825,0,0,1,1.53589-.57861,2.92729,2.92729,0,0,1,1.69182.066A1.34046,1.34046,0,0,1,183.49239,8.07627Z" fill="#0096a4"/><path d="M177.2694,39.18429a39.91449,39.91449,0,0,0-50.57569,60.56787c6.58765-11.88134,16.42945-18.66455,30.124-18.689,13.6709-.02442,23.54663,6.70752,30.11133,18.43408,7.78076-9.47021,11.05542-20.27392,9.12548-32.39648C194.12169,54.96115,187.73082,45.60177,177.2694,39.18429ZM143.74694,71.42257a.93234.93234,0,0,0-.567,1.04932c.02515,1.791.0592,3.58252.0592,5.374v.54151h-4.614c0-2-.02148-3.9502.01318-5.99463.0105-.60791-.13891-.82324-.72851-1.12354A6.61936,6.61936,0,0,1,137.83092,59.37c.65064-.335.61951-.67779.61365-1.34137-.02783-3.21289-.20545-6.41266-.20545-9.626V47.38742h4.85645c.01489,0,.04248.67676.04272,1.00439.00318,3.27.01514,6.55-.01074,9.81958a1.04708,1.04708,0,0,0,.66968,1.10877,6.68621,6.68621,0,0,1-.05029,12.10241Zm15.85888-13.15869c-.541.27442-.55273.56787-.54907,1.15821.02466,4.03711.18237,8.0747.18237,12.11181v.85352h-5v-.75147c0-4.06543.04932-8.13134.07081-12.19726a1.06354,1.06354,0,0,0-.66431-1.16553,6.72552,6.72552,0,0,1,.02991-12.126c.50048-.2539.71514-.27392.69439-.85107-.04858-1.35742-.0119-2.90869-.0119-3.90869h4.54224c0,1,.02759,2.52685-.01343,3.88281-.01685.562.16406.72192.677.98022a6.64144,6.64144,0,0,1,.042,12.01343ZM175.30089,73.657c-.51025.25439-.699.30762-.67969.87549.04517,1.33252.01441,2.855.01441,3.855h-4.4834c0-1-.03467-2.32227.01392-3.58545.02661-.69385-.13648-.967-.8274-1.321a6.28335,6.28335,0,0,1-3.69336-5.99719,6.35217,6.35217,0,0,1,3.75733-5.90362,1.16015,1.16015,0,0,0,.80908-1.19083c-.03174-3.978.02734-7.94278.02734-11.92081V47.38742h4v.9751c0,4.00683.21094,8.01367.18482,12.02a1.21085,1.21085,0,0,0,.82837,1.2212,6.67993,6.67993,0,0,1,.04858,12.05322Z" fill="#09909f"/><path d="M152.59459,83.19992a31.46146,31.46146,0,0,0-27.02246,27.68359,30.99087,30.99087,0,0,0,2.04224,15.21,31.30463,31.30463,0,0,0,9.16553,12.56006c0-1.50928-.01636-2.78467.00268-4.05957a8.75115,8.75115,0,0,1,8.6333-8.86621q11.47413-.14795,22.95117,0a8.74654,8.74654,0,0,1,8.62354,8.9541c.0022,1.24365.00049,2.48682.00049,3.88623a31.45531,31.45531,0,0,0-24.39649-55.36816Zm4.34375,38.11523a11.49739,11.49739,0,1,1,11.46-11.54A11.5355,11.5355,0,0,1,156.93834,121.31515Z" fill="#09909f"/><path d="M155.03112,2.44552A152.6021,152.6021,0,0,0,2.08922,155.38742h305.884A152.60215,152.60215,0,0,0,155.03112,2.44552Zm63.208,82.9419h-7.46923c-1.05176,3-1.90918,6.17163-3.08887,9.01782-1.16992,2.82178-2.6648,5.56677-4.04541,8.37048,1.64551,1.627,3.41675,3.40741,5.11719,5.089-5.88868,5.88868-11.65113,11.66587-17.59937,17.61411-.50708-.65576-1.12427-1.44734-1.7644-2.276-5.97657,16.09717-16.99219,24.85617-34.14868,24.55-13.53467-.24169-26.98877-10.06459-30.76294-24.7433-.8086.89307-1.59717,1.76458-2.33106,2.57561-5.96728-5.96679-11.729-11.72806-17.5625-17.56107,1.697-1.69092,3.4458-3.43288,5.22852-5.20876-.3833-.65625-.73951-1.25965-1.09034-1.86658a52.82089,52.82089,0,0,1-5.76562-14.40766c-.17773-.75635-.48181-.92234-1.18543-.90915-2.15893.03955-4.53186.01419-6.53186.01419V61.38742H97.486c1.53589,0,3.07227-.14429,4.60718-.18579a1.00317,1.00317,0,0,0,.71142-.53333,56.74866,56.74866,0,0,1,7.00757-16.649c-1.78589-1.76464-3.55932-3.53811-5.2854-5.24417,5.85645-5.85644,11.62232-11.63282,17.45117-17.46144,1.68018,1.709,3.42847,3.48168,5.123,5.20532,2.10254-1.11231,4.05127-2.21986,6.06323-3.19446A50.78446,50.78446,0,0,1,143.661,19.63089c.53369-.126.677-.133.67163-.64664-.023-2.24316-.01-4.59683-.01-6.59683H168.911c0,1-.00928,3.11035.00366,4.75293.00659.81982-.22973,1.738.16675,2.29614.35767.50342,1.42529.45959,2.18481.66711A55.02874,55.02874,0,0,1,185.911,26.50479c1.773-1.78369,3.52808-3.56259,5.19971-5.24472,5.91723,5.91748,11.69775,11.69185,17.49243,17.48726-1.6272,1.6206-3.39527,3.54441-5.19336,5.33542a58.03294,58.03294,0,0,1,7.12842,17.30467h7.70092Z" fill="#09909f"/></g></g></svg>