<svg xmlns="http://www.w3.org/2000/svg" xmlns:xlink="http://www.w3.org/1999/xlink" viewBox="0 0 146.1074 146.1072"><defs><linearGradient id="linear-gradient" x1="3215.93386" y1="-5066.73156" x2="3216.93385" y2="-5066.73156" gradientTransform="matrix(103.3135, 103.3135, 103.3135, -103.3135, 191233.78057, -855689.74793)" gradientUnits="userSpaceOnUse"><stop offset="0" stop-color="#c9b899"/><stop offset="0.18779" stop-color="#c6b798"/><stop offset="0.34018" stop-color="#bcb395"/><stop offset="0.4802" stop-color="#abac91"/><stop offset="0.61284" stop-color="#93a28a"/><stop offset="0.74019" stop-color="#749581"/><stop offset="0.86361" stop-color="#4e8576"/><stop offset="0.9818" stop-color="#22736a"/><stop offset="1" stop-color="#1a7068"/></linearGradient></defs><g id="Layer_2" data-name="Layer 2"><g id="Layer_1-2" data-name="Layer 1"><path d="M89.9961,82.2988s-.4565-1.3886-.70259-1.9785c-.24661-.5908-2.314-4.6767-2.314-4.6767a1.50185,1.50185,0,0,0-.39351,1.2793c.0488.9355.6396,4.6767.6396,4.8242,0,.1484,1.5264,3.3476,1.5264,3.3476Z" fill="#fff"/><path d="M89.7217,32.7031a.71439.71439,0,0,0-.5059-.5566,1.55147,1.55147,0,0,0-.7802.0293,16.36,16.36,0,0,0-1.5957.5273,4.57884,4.57884,0,0,1,.726-.4638,3.60576,3.60576,0,0,1,.8165-.3076,1.55623,1.55623,0,0,1,.8994.0351A.7126.7126,0,0,1,89.7217,32.7031Z" fill="#0096a4"/><circle cx="73.0537" cy="73.0537" r="72.0537" fill="#fff"/><path d="M1,73.0537H0A73.0537,73.0537,0,1,0,73.0537,0,73.05378,73.05378,0,0,0,0,73.0537H1.9999a71.05388,71.05388,0,1,1,20.8112,50.2425A70.82816,70.82816,0,0,1,1.9999,73.0537Z" fill="url(#linear-gradient)"/><path d="M121.3863,73.4942A48.51615,48.51615,0,1,1,72.8701,24.9785,48.51629,48.51629,0,0,1,121.3863,73.4942Z" fill="#09909f"/><path d="M12.556,73.10992l3.41455.22461-.09278,1.40723L7.33,74.17926l.16016-2.43164a4.02273,4.02273,0,0,1,.78174-2.42578,2.22363,2.22363,0,0,1,1.92358-.67872,2.34576,2.34576,0,0,1,2.16431,1.82227l3.94287-2.18262-.10523,1.60157-3.55,1.83593Zm-1.15772-.07617.06421-.97754A2.24949,2.24949,0,0,0,11.194,70.608a1.31388,1.31388,0,0,0-1.04711-.5127,1.15925,1.15925,0,0,0-1.072.40821,2.63833,2.63833,0,0,0-.41015,1.416l-.06128.93067Z" fill="#4d4d4d"/><path d="M17.463,62.28473l-.9375,4.78906L8.11877,65.42926l.937-4.78907,1.16162.22657-.6665,3.40429L11.84,64.7193l.624-3.19043,1.15039.22461-.62451,3.19043,2.63916.5166.66651-3.4043Z" fill="#4d4d4d"/><path d="M14.64758,55.66851l1.03125-3.002L19.7467,54.064a9.22,9.22,0,0,1-.14844,1.53028,10.67284,10.67284,0,0,1-.40283,1.499,3.90926,3.90926,0,0,1-2.07031,2.4834,4.62432,4.62432,0,0,1-3.418-.05176,4.31344,4.31344,0,0,1-2.67285-2.18457,4.52037,4.52037,0,0,1-.03369-3.499,6.46409,6.46409,0,0,1,1.31884-2.25391l.94239.84668a5.01746,5.01746,0,0,0-1.13672,1.83008,2.83687,2.83687,0,0,0,.105,2.3457,3.32084,3.32084,0,0,0,1.96679,1.52344,3.49773,3.49773,0,0,0,2.49268.09277A2.63176,2.63176,0,0,0,18.13928,56.524a6.87358,6.87358,0,0,0,.314-1.43847l-2.08887-.71875-.58105,1.6914Z" fill="#4d4d4d"/><path d="M16.49475,42.47613l4.89648,2.59571a3.26544,3.26544,0,0,1,1.27539,1.13964,2.718,2.718,0,0,1,.41309,1.56153,4.14165,4.14165,0,0,1-.5293,1.81933,3.48454,3.48454,0,0,1-1.91406,1.80957,3.04146,3.04146,0,0,1-2.46778-.29882l-4.87695-2.585.66309-1.251,4.78906,2.53808a2.15976,2.15976,0,0,0,1.61426.29493,2.05438,2.05438,0,0,0,1.1582-1.10938,1.80212,1.80212,0,0,0-.9043-2.73633l-4.77832-2.53222Z" fill="#4d4d4d"/><path d="M25.16369,44.77594l-6.95117-5.00586.82422-1.14453,5.97656,4.30371,2.13477-2.96289.97461.70117Z" fill="#4d4d4d"/><path d="M32.76135,35.62457l-2.32617-.99512-2.252,2.40918,1.16114,2.24024L28.32775,40.3648l-4.07714-8.23144,1.04785-1.12012,8.48633,3.51758Zm-3.46192-1.54883-2.25488-1.002c-.15527-.06348-.38965-.17188-.70605-.3252-.31739-.15332-.5459-.26953-.68653-.34668a12.84933,12.84933,0,0,1,.832,1.417l1.09961,2.09277Z" fill="#4d4d4d"/><path d="M36.87854,31.941l-1.08887.89648L31.1051,27.15289l-1.958,1.61426-.76367-.92676,5.00488-4.124.76367.92675-1.958,1.61329Z" fill="#4d4d4d"/><path d="M44.21057,21.96539a4.66931,4.66931,0,0,1,.78711,3.32715,3.82555,3.82555,0,0,1-1.94825,2.53906,3.84257,3.84257,0,0,1-3.16113.57227A4.68913,4.68913,0,0,1,37.29455,26.15a4.60971,4.60971,0,0,1-.79-3.33008A3.89073,3.89073,0,0,1,38.483,20.28766a3.82109,3.82109,0,0,1,3.1416-.55665A4.65758,4.65758,0,0,1,44.21057,21.96539Zm-5.62891,3.417a3.81441,3.81441,0,0,0,1.794,1.71778,2.63,2.63,0,0,0,3.25585-1.96582,3.82628,3.82628,0,0,0-.70214-2.39063,3.848,3.848,0,0,0-1.78223-1.71484,2.25319,2.25319,0,0,0-2.04.28515,2.29635,2.29635,0,0,0-1.21387,1.69043A3.77651,3.77651,0,0,0,38.58166,25.38238Z" fill="#4d4d4d"/><path d="M47.94689,21.24762l1.3125,3.16015-1.30273.541L44.6715,17.03766l2.25-.93457a4.01662,4.01662,0,0,1,2.52149-.375,2.21922,2.21922,0,0,1,1.46,1.42382,2.34421,2.34421,0,0,1-.67188,2.74707l3.70411,2.56739-1.48243.61523L49.233,20.71344Zm-.44531-1.07129.90528-.376a2.24684,2.24684,0,0,0,1.17871-.88281,1.31314,1.31314,0,0,0-.00489-1.165,1.15472,1.15472,0,0,0-.84082-.78027,2.6266,2.6266,0,0,0-1.45117.25976l-.86133.35742Z" fill="#4d4d4d"/><path d="M56.30041,17.04059l.96289-4.30274,1.48242-.39648L57.32385,18.15l.85742,3.21-1.36816.36621-.84571-3.165L51.83752,14.189l1.48144-.39648Z" fill="#4d4d4d"/><path d="M66.55236,20.01617l-1.39355.11621-.7168-8.53613L69.2926,11.189l.09863,1.17969-3.457.29.22461,2.668,3.23926-.27149.09961,1.18457-3.23926.27246Z" fill="#4d4d4d"/><path d="M72.96545,16.21734l-.13379,3.41895-1.40918-.05469.335-8.56055,2.43457.09571a4.02725,4.02725,0,0,1,2.44629.71777,2.22152,2.22152,0,0,1,.72949,1.90527,2.346,2.346,0,0,1-1.76367,2.21192l2.28613,3.88379L76.28674,19.772l-1.92969-3.5Zm.04492-1.15918.97852.03809a2.24473,2.24473,0,0,0,1.4414-.30664A1.31224,1.31224,0,0,0,75.91467,13.73a1.16068,1.16068,0,0,0-.43653-1.06153,2.62588,2.62588,0,0,0-1.42578-.37207l-.93164-.0371Z" fill="#4d4d4d"/><path d="M84.36291,20.9898l-.42871-2.49414-3.24707-.58007-1.249,2.19238-1.46387-.2627,4.69238-7.89843,1.51074.27148,1.66114,9.03516Zm-.582-3.748-.38379-2.4375c-.03223-.16407-.06738-.41992-.1123-.76953-.043-.34961-.07032-.60352-.082-.76563a12.57974,12.57974,0,0,1-.73632,1.4707l-1.15918,2.05957Z" fill="#4d4d4d"/><path d="M90.3092,22.83941l.07617-7.58007-.04492-.01563q-.44678,1.53516-.9209,2.8457l-1.41406,3.918-1.2041-.43359,2.9082-8.0586,1.87012.67579-.05957,7.22265.0332.01172,4.63281-5.57226,1.876.67578-2.9082,8.05859-1.27539-.46094L95.317,20.14215q.2168-.60059.59473-1.55469.37793-.95215.47363-1.14844l-.04394-.0166-4.86036,5.83887Z" fill="#4d4d4d"/><path d="M101.3092,27.93707l-4.27246-2.35938,4.14062-7.499,4.27246,2.35938-.57226,1.03515-3.03711-1.67676-1.127,2.042,2.8457,1.57031-.56641,1.02637-2.8457-1.57129-1.2998,2.35449,3.0371,1.67676Z" fill="#4d4d4d"/><path d="M109.1676,33.63043l-1.209-.94531,1.99414-4.92578c.08887-.21387.22364-.51563.40918-.9043.1836-.38965.31934-.65332.40528-.7959q-.27833.25928-.751.64844-.47167.38964-.72266.56543l-4.25878,3.125-1.207-.94434,1.76368-4.06543,1.74316-4.0664,1.13379.88671-2.10449,4.69239a21.36376,21.36376,0,0,1-.98243,1.92382q.35889-.35156.83985-.75683c.32129-.27051.58691-.48242.7998-.63867l4.18848-3.07617,1.10156.8623-1.96386,4.84668a18.348,18.348,0,0,1-.94141,1.91113,15.31868,15.31868,0,0,1,1.64941-1.418l4.03516-3.166,1.125.87988Z" fill="#4d4d4d"/><path d="M119.76867,38.78863a4.67155,4.67155,0,0,1-3.13379,1.36817,3.82122,3.82122,0,0,1-2.8457-1.46387,3.84928,3.84928,0,0,1-1.12793-3.00879,4.702,4.702,0,0,1,1.75391-2.9541,4.62839,4.62839,0,0,1,3.13867-1.37207,3.89408,3.89408,0,0,1,2.84375,1.49609,3.81152,3.81152,0,0,1,1.10742,2.99121A4.66041,4.66041,0,0,1,119.76867,38.78863Zm-4.36719-4.92871a3.81923,3.81923,0,0,0-1.37109,2.07227,2.63231,2.63231,0,0,0,2.5166,2.85254,3.8331,3.8331,0,0,0,2.22754-1.11817A3.84037,3.84037,0,0,0,120.1427,35.607a2.24909,2.24909,0,0,0-.64454-1.95605,2.29674,2.29674,0,0,0-1.87988-.89356A3.79068,3.79068,0,0,0,115.40148,33.85992Z" fill="#4d4d4d"/><path d="M121.16613,42.42437,118.2926,44.2818l-.76563-1.18457,7.19434-4.65039,1.32226,2.04687a4.02471,4.02471,0,0,1,.8208,2.41309,2.2249,2.2249,0,0,1-1.13867,1.69238,2.34592,2.34592,0,0,1-2.82373-.16992l-1.86133,4.10449-.87109-1.34766L121.922,43.5943Zm.97461-.62988.53125.82227a2.24545,2.24545,0,0,0,1.08057,1.002,1.31307,1.31307,0,0,0,1.14551-.21289,1.15923,1.15923,0,0,0,.61621-.96777,2.6361,2.6361,0,0,0-.51563-1.38086l-.50586-.78321Z" fill="#4d4d4d"/><path d="M124.32238,55.42633,123.63,53.94488l2.36572-4.0957-.96289-.46875L122.13,50.73883l-.59766-1.27735,7.75879-3.62988.59766,1.27734-3.7041,1.7334q.88184.22559,1.71289.46778l3.46679.95214.67969,1.45313q-3.345-.92871-4.77441-1.3418Z" fill="#4d4d4d"/><path d="M128.38293,60.57184a2.14931,2.14931,0,0,1-1.96045-.24512,3.63577,3.63577,0,0,1-1.32031-1.98828,5.4993,5.4993,0,0,1-.30127-2.41895l1.26123-.4043a6.55337,6.55337,0,0,0-.03076,1.32715,5.35623,5.35623,0,0,0,.22656,1.22559,1.97215,1.97215,0,0,0,.6792,1.08008,1.02915,1.02915,0,0,0,.93066.12109,1.065,1.065,0,0,0,.66358-.59766,5.54077,5.54077,0,0,0,.29248-1.67968,3.99883,3.99883,0,0,1,.52441-1.916,2.287,2.287,0,0,1,1.24707-.90723,2.0486,2.0486,0,0,1,1.84131.21485,3.20752,3.20752,0,0,1,1.21436,1.77441,6.08962,6.08962,0,0,1,.23925,2.5127l-1.22509-.0791a5.4225,5.4225,0,0,0-.16895-2.10157,1.58389,1.58389,0,0,0-.59912-.89843.96766.96766,0,0,0-.85254-.09864,1.09748,1.09748,0,0,0-.501.30957,1.44309,1.44309,0,0,0-.28466.58106,7.80063,7.80063,0,0,0-.17334,1.28223,6.43505,6.43505,0,0,1-.27295,1.5498,2.1533,2.1533,0,0,1-.53272.85156A2.28832,2.28832,0,0,1,128.38293,60.57184Z" fill="#4d4d4d"/><path d="M75.2051,54.8535V52.2871H72.85451v2.5664a3.50476,3.50476,0,0,0,0,6.6182v7.2676H75.2051V61.4717a3.50452,3.50452,0,0,0,0-6.6182Z" fill="#fff"/><path d="M83.378,62.8672V55.6416H81.041v7.2256a3.48489,3.48489,0,0,0,0,6.5811V72h2.337V69.4483a3.48513,3.48513,0,0,0,0-6.5811Z" fill="#fff"/><path d="M67.0191,61.6992V55.6416H64.6822v6.0576a3.48438,3.48438,0,0,0,0,6.5801V72h2.3369V68.2793a3.48443,3.48443,0,0,0,0-6.5801Z" fill="#fff"/><path d="M92.08251,42.0674,89.2998,44.8506a28.567,28.567,0,0,0-8.8877-3.6895V37.2344H67.64751v3.9267a28.50234,28.50234,0,0,0-8.88581,3.6895l-2.78319-2.7832L46.9522,51.0938l2.7827,2.7832a28.54244,28.54244,0,0,0-3.69039,8.8877H42.1177V75.5293h3.92681a28.50052,28.50052,0,0,0,3.68889,8.8858l-2.7827,2.7832,9.0264,9.0263,2.7827-2.7832a28.51047,28.51047,0,0,0,8.88771,3.6895v3.9277H80.4121V97.1318a28.54093,28.54093,0,0,0,8.8877-3.6884l2.78271,2.7822,9.02639-9.0264L98.3262,84.417a28.51927,28.51927,0,0,0,3.689-8.8857h3.9267V62.7656h-3.9267a28.51927,28.51927,0,0,0-3.689-8.8857l2.7827-2.7822ZM74.0298,89.8897A20.7427,20.7427,0,1,1,94.773,69.1465,20.742,20.742,0,0,1,74.0298,89.8897Z" fill="#fff"/><path d="M82.33351,86.9649a7.65891,7.65891,0,1,1-7.65921-7.6582A7.65894,7.65894,0,0,1,82.33351,86.9649Z" fill="#fff"/><path d="M88.46051,97.6875c0,5.0762-6.40091,9.1914-14.29641,9.1914-7.896,0-14.2969-4.1152-14.2969-9.1914,0-5.0752,6.4009-9.1904,14.2969-9.1904C82.0596,88.4971,88.46051,92.6123,88.46051,97.6875Z" fill="#fff"/><path d="M74.1641,72.8584a17.35407,17.35407,0,0,0-10.45259,31.2119v-3.1797a4.6091,4.6091,0,0,1,4.60489-4.6054H80.0117a4.60913,4.60913,0,0,1,4.605,4.6054v3.1797A17.35433,17.35433,0,0,0,74.1641,72.8584Zm0,21.1973a5.99365,5.99365,0,1,1,5.9936-5.9932A5.997,5.997,0,0,1,74.1641,94.0557Z" fill="#09909f"/><path d="M91.0122,90.4531h-.5a16.35613,16.35613,0,1,1-4.7904-11.5659,16.3039,16.3039,0,0,1,4.7904,11.5659h1a17.356,17.356,0,1,0-17.3559,17.3562A17.356,17.356,0,0,0,91.5122,90.4531Z" fill="#fff"/></g></g></svg>