<svg xmlns="http://www.w3.org/2000/svg" xmlns:xlink="http://www.w3.org/1999/xlink" viewBox="0 0 310 310"><defs><linearGradient id="New_Gradient_Swatch_7" x1="45.39603" y1="264.60157" x2="264.59913" y2="45.39847" gradientTransform="matrix(-1, 0, 0, 1, 309.9976, 0)" gradientUnits="userSpaceOnUse"><stop offset="0" stop-color="#38a380"/><stop offset="0.06811" stop-color="#4fa684"/><stop offset="0.19954" stop-color="#74ac8a"/><stop offset="0.33708" stop-color="#93b090"/><stop offset="0.4803" stop-color="#abb494"/><stop offset="0.63159" stop-color="#bcb697"/><stop offset="0.79642" stop-color="#c6b898"/><stop offset="1" stop-color="#c9b899"/></linearGradient></defs><g id="Layer_2" data-name="Layer 2"><g id="Layer_1-2" data-name="Layer 1"><circle cx="155" cy="155" r="154" fill="#fff" stroke-miterlimit="10" stroke-width="2" stroke="url(#New_Gradient_Swatch_7)"/><path d="M46.13914,199.46706H44.37156l3.17578-15.02734H55.102l-.30762,1.57227H48.95555l-1.12989,5.47851h5.42676l-.3291,1.57227h-5.4375Z" fill="#232323"/><path d="M59.99559,187.99636a2.91343,2.91343,0,0,1,1.68554.50781A3.31725,3.31725,0,0,1,62.8325,189.969h.11231l.68945-1.76758H64.939l-2.39454,11.26562H61.17723l.26758-2.14843h-.083q-1.83984,2.35254-3.875,2.35351a2.70963,2.70963,0,0,1-2.24024-1.01758,4.34977,4.34977,0,0,1-.8125-2.78515,10.60438,10.60438,0,0,1,.73047-3.96875,6.85748,6.85748,0,0,1,2.01465-2.86719A4.38445,4.38445,0,0,1,59.99559,187.99636Zm-1.95313,10.248a2.898,2.898,0,0,0,1.9834-.95117,7.05558,7.05558,0,0,0,1.60352-2.47852,8.10063,8.10063,0,0,0,.61718-3.05664,2.39326,2.39326,0,0,0-.57617-1.68555,1.95491,1.95491,0,0,0-1.51074-.62695,2.83451,2.83451,0,0,0-1.98926.88281,5.96581,5.96581,0,0,0-1.44336,2.39453,9.65626,9.65626,0,0,0-.52441,3.1875,2.69608,2.69608,0,0,0,.48242,1.752A1.67009,1.67009,0,0,0,58.04246,198.24441Z" fill="#232323"/><path d="M70.52,199.67214a3.82534,3.82534,0,0,1-4.19434-4.20312,9.35525,9.35525,0,0,1,.76075-3.793,6.44993,6.44993,0,0,1,2.10254-2.709,5.00976,5.00976,0,0,1,3.0166-.9707,7.53435,7.53435,0,0,1,2.75488.52344L74.477,189.969a5.80908,5.80908,0,0,0-2.251-.52344,3.221,3.221,0,0,0-2.10157.78516,5.183,5.183,0,0,0-1.49121,2.18945,8.42949,8.42949,0,0,0-.53906,3.04883,2.87371,2.87371,0,0,0,.68359,2.04492,2.45764,2.45764,0,0,0,1.88575.73047,4.68021,4.68021,0,0,0,1.39843-.207,12.69344,12.69344,0,0,0,1.29492-.48242v1.46875A6.17473,6.17473,0,0,1,70.52,199.67214Z" fill="#232323"/><path d="M77.12938,199.46706H75.40281l2.40528-11.26562h1.72656Zm1.16211-14.14453a1.35013,1.35013,0,0,1,.32812-.93945,1.094,1.094,0,0,1,.85352-.36523.80905.80905,0,0,1,.90429.92578,1.39083,1.39083,0,0,1-.34375.95508,1.03384,1.03384,0,0,1-.79687.39062.95065.95065,0,0,1-.67871-.25195A.93621.93621,0,0,1,78.29149,185.32253Z" fill="#232323"/><path d="M82.45359,199.46706H80.727l3.41211-15.99414h1.72754Z" fill="#232323"/><path d="M87.81883,199.46706H86.09227l2.40527-11.26562H90.2241Zm1.16211-14.14453a1.35013,1.35013,0,0,1,.32812-.93945,1.094,1.094,0,0,1,.85352-.36523.80905.80905,0,0,1,.9043.92578,1.39083,1.39083,0,0,1-.34375.95508,1.03386,1.03386,0,0,1-.79688.39062.95067.95067,0,0,1-.67871-.25195A.93625.93625,0,0,1,88.98094,185.32253Z" fill="#232323"/><path d="M94.89012,198.26394a5.58581,5.58581,0,0,0,1.48047-.26758v1.32617a4.75105,4.75105,0,0,1-.86328.2461,4.45408,4.45408,0,0,1-.82227.10351,2.85717,2.85717,0,0,1-1.96875-.61133,2.32479,2.32479,0,0,1-.68359-1.82421,7.47865,7.47865,0,0,1,.18554-1.543l1.30567-6.1875H91.75535l.14453-.75,1.90137-.80078,1.28418-2.34375h1.00781l-.56543,2.58984h2.81641l-.26758,1.30469H95.271l-1.32617,6.209a7.32687,7.32687,0,0,0-.18457,1.35742,1.21656,1.21656,0,0,0,.29785.88282A1.10526,1.10526,0,0,0,94.89012,198.26394Z" fill="#232323"/><path d="M104.2241,187.99636a2.91344,2.91344,0,0,1,1.68555.50781A3.31739,3.31739,0,0,1,107.061,189.969h.1123l.68945-1.76758h1.30469l-2.39453,11.26562h-1.36719l.26758-2.14843h-.083q-1.83984,2.35254-3.875,2.35351a2.70959,2.70959,0,0,1-2.24023-1.01758,4.34971,4.34971,0,0,1-.8125-2.78515,10.60419,10.60419,0,0,1,.73047-3.96875,6.85739,6.85739,0,0,1,2.01465-2.86719A4.38443,4.38443,0,0,1,104.2241,187.99636Zm-1.95312,10.248a2.898,2.898,0,0,0,1.9834-.95117,7.05542,7.05542,0,0,0,1.60351-2.47852,8.10064,8.10064,0,0,0,.61719-3.05664,2.39326,2.39326,0,0,0-.57617-1.68555,1.95493,1.95493,0,0,0-1.51075-.62695,2.83449,2.83449,0,0,0-1.98925.88281,5.96581,5.96581,0,0,0-1.44336,2.39453,9.65626,9.65626,0,0,0-.52442,3.1875,2.69608,2.69608,0,0,0,.48243,1.752A1.67008,1.67008,0,0,0,102.271,198.24441Z" fill="#232323"/><path d="M113.60691,198.26394a5.58574,5.58574,0,0,0,1.48047-.26758v1.32617a4.75058,4.75058,0,0,1-.86328.2461,4.454,4.454,0,0,1-.82226.10351,2.85717,2.85717,0,0,1-1.96875-.61133,2.3248,2.3248,0,0,1-.6836-1.82421,7.478,7.478,0,0,1,.18555-1.543l1.30566-6.1875h-1.76855l.14453-.75,1.90137-.80078,1.28418-2.34375H114.81l-.56543,2.58984H117.061l-.26758,1.30469h-2.80567l-1.32617,6.209a7.32774,7.32774,0,0,0-.18457,1.35742,1.21656,1.21656,0,0,0,.29785.88282A1.10529,1.10529,0,0,0,113.60691,198.26394Z" fill="#232323"/><path d="M118.70555,199.46706H116.979l2.40527-11.26562h1.72656Zm1.16211-14.14453a1.35013,1.35013,0,0,1,.32812-.93945,1.094,1.094,0,0,1,.85352-.36523.809.809,0,0,1,.90429.92578,1.39078,1.39078,0,0,1-.34375.95508,1.03383,1.03383,0,0,1-.79687.39062.95067.95067,0,0,1-.67871-.25195A.93621.93621,0,0,1,119.86766,185.32253Z" fill="#232323"/><path d="M129.21043,199.46706l1.52148-7.11328a9.38324,9.38324,0,0,0,.20508-1.48047,1.45655,1.45655,0,0,0-.36523-1.0371,1.525,1.525,0,0,0-1.166-.39063,3.05054,3.05054,0,0,0-1.7832.61523,5.51356,5.51356,0,0,0-1.53223,1.75782,9.2984,9.2984,0,0,0-1.002,2.76562l-1.03809,4.88281h-1.72656l2.40528-11.26562h1.42871l-.22657,2.08594h.10352a6.885,6.885,0,0,1,1.90625-1.77344,3.83173,3.83173,0,0,1,1.90625-.51758,2.88654,2.88654,0,0,1,2.06152.71289,2.62505,2.62505,0,0,1,.75489,2,8.39372,8.39372,0,0,1-.23633,1.84961l-1.46973,6.9082Z" fill="#232323"/><path d="M145.17332,188.20144l-.25683,1.09961-2.169.24609a2.89851,2.89851,0,0,1,.4209,1.625,4.16831,4.16831,0,0,1-1.19727,3.12891,4.38419,4.38419,0,0,1-3.20117,1.168,3.4633,3.4633,0,0,1-.86426-.082q-1.42823.54492-1.42871,1.3457a.54592.54592,0,0,0,.33985.56055,4.12335,4.12335,0,0,0,.98632.2207l1.20313.14453a5.34133,5.34133,0,0,1,2.69726.9043,2.411,2.411,0,0,1,.8379,1.99414,3.35413,3.35413,0,0,1-1.5,2.92773,7.352,7.352,0,0,1-4.22461,1.03907,5.57219,5.57219,0,0,1-3.125-.75586A2.42,2.42,0,0,1,132.561,201.635a2.65052,2.65052,0,0,1,.74023-1.87109,5.7579,5.7579,0,0,1,2.39453-1.3457,1.33877,1.33877,0,0,1-.80078-1.24414,1.6322,1.6322,0,0,1,.52344-1.2168,5.3932,5.3932,0,0,1,1.46-.95117,2.67437,2.67437,0,0,1-1.05859-.97266,2.70582,2.70582,0,0,1-.41114-1.49414,4.51516,4.51516,0,0,1,1.22852-3.26953,4.16892,4.16892,0,0,1,3.13965-1.27344,6.20956,6.20956,0,0,1,1.583.20508ZM134.22606,201.471a1.44845,1.44845,0,0,0,.66894,1.25391,3.48832,3.48832,0,0,0,1.9834.46289,5.55855,5.55855,0,0,0,2.92383-.65235,2.0583,2.0583,0,0,0,1.05371-1.8457,1.1527,1.1527,0,0,0-.55469-1.00781,4.46215,4.46215,0,0,0-1.8916-.51367l-1.63379-.16407a3.71457,3.71457,0,0,0-1.8916.9043A2.11413,2.11413,0,0,0,134.22606,201.471Zm2.85742-8.99414a1.79287,1.79287,0,0,0,.46289,1.332,1.74886,1.74886,0,0,0,1.28515.457,2.38634,2.38634,0,0,0,1.418-.43164,2.75227,2.75227,0,0,0,.93067-1.1875,4.12006,4.12006,0,0,0,.32324-1.63867,1.716,1.716,0,0,0-.45215-1.28516,1.77611,1.77611,0,0,0-1.29492-.4414,2.40735,2.40735,0,0,0-1.40332.416,2.73538,2.73538,0,0,0-.93555,1.16016A3.91939,3.91939,0,0,0,137.08348,192.47683Z" fill="#232323"/><path d="M152.21336,199.46706H150.4868l2.40527-11.26562h1.72656Zm1.16211-14.14453a1.35013,1.35013,0,0,1,.32812-.93945,1.094,1.094,0,0,1,.85352-.36523.80905.80905,0,0,1,.9043.92578,1.39083,1.39083,0,0,1-.34375.95508,1.03386,1.03386,0,0,1-.79688.39062.95067.95067,0,0,1-.67871-.25195A.93625.93625,0,0,1,153.37547,185.32253Z" fill="#232323"/><path d="M162.71824,199.46706l1.52149-7.11328a9.38324,9.38324,0,0,0,.20508-1.48047,1.45652,1.45652,0,0,0-.36524-1.0371,1.525,1.525,0,0,0-1.166-.39063,3.05055,3.05055,0,0,0-1.78321.61523,5.51342,5.51342,0,0,0-1.53222,1.75782,9.2984,9.2984,0,0,0-1.002,2.76562l-1.03808,4.88281h-1.72657l2.40528-11.26562h1.42871l-.22656,2.08594h.10351a6.885,6.885,0,0,1,1.90625-1.77344,3.83176,3.83176,0,0,1,1.90625-.51758,2.88658,2.88658,0,0,1,2.06153.71289,2.62508,2.62508,0,0,1,.75488,2,8.39372,8.39372,0,0,1-.23633,1.84961l-1.46973,6.9082Z" fill="#232323"/><path d="M166.30516,204.52371a3.61883,3.61883,0,0,1-1.28418-.2168v-1.44922a3.573,3.573,0,0,0,1.15136.22656,1.35905,1.35905,0,0,0,1.20215-.63672,5.45361,5.45361,0,0,0,.67871-1.82031l2.333-11.12109h-1.9834l.13282-.6875,2.11816-.67969.23633-1.02734a6.08669,6.08669,0,0,1,1.31054-2.9043,3.34371,3.34371,0,0,1,2.48145-.84766,5.39833,5.39833,0,0,1,1.00781.11914,4.64865,4.64865,0,0,1,.92481.26172l-.44141,1.32617a3.99493,3.99493,0,0,0-1.4082-.29882,1.81554,1.81554,0,0,0-1.37305.498,3.96993,3.96993,0,0,0-.77539,1.82617l-.25684,1.10938h2.44629l-.25683,1.30469h-2.43653L169.728,200.79324a5.8707,5.8707,0,0,1-1.2334,2.83593A2.85166,2.85166,0,0,1,166.30516,204.52371Z" fill="#232323"/><path d="M180.57176,188.05691a4.11882,4.11882,0,0,1,3.083,1.15625,4.3574,4.3574,0,0,1,1.13086,3.18164,9.11709,9.11709,0,0,1-.74024,3.64844,6.30686,6.30686,0,0,1-2.0039,2.65234,4.68818,4.68818,0,0,1-2.85743.93555,4.09232,4.09232,0,0,1-3.09375-1.16211,4.37913,4.37913,0,0,1-1.12109-3.17578,9.09682,9.09682,0,0,1,.751-3.67383,6.22549,6.22549,0,0,1,2.02441-2.64258A4.71944,4.71944,0,0,1,180.57176,188.05691Zm2.42578,4.10156a2.8059,2.8059,0,0,0-.64258-1.916,2.1959,2.1959,0,0,0-1.74219-.73633,3.00663,3.00663,0,0,0-2.00976.76172,4.88568,4.88568,0,0,0-1.377,2.11132,8.79361,8.79361,0,0,0-.48829,3.00782,3.02814,3.02814,0,0,0,.65235,2.08007,2.37657,2.37657,0,0,0,1.876.73438,2.83349,2.83349,0,0,0,1.92188-.75,4.89,4.89,0,0,0,1.33105-2.13281A9.65521,9.65521,0,0,0,182.99754,192.15847Z" fill="#232323"/><path d="M193.50242,187.99636a4.70528,4.70528,0,0,1,1.2334.14258l-.37012,1.543a4.47973,4.47973,0,0,0-1.0791-.13477,2.86231,2.86231,0,0,0-1.75293.61719,5.43781,5.43781,0,0,0-1.42871,1.71094,8.76037,8.76037,0,0,0-.89941,2.43164l-1.09961,5.16015h-1.72656l2.40527-11.26562h1.42871l-.22656,2.08594h.10351A10.14461,10.14461,0,0,1,191.313,188.885a3.85751,3.85751,0,0,1,1.01269-.6582A2.90517,2.90517,0,0,1,193.50242,187.99636Z" fill="#232323"/><path d="M201.26316,199.46706l1.52051-7.11328a8.41313,8.41313,0,0,0,.18555-1.38672,1.75669,1.75669,0,0,0-.31934-1.12109,1.31212,1.31212,0,0,0-1.08886-.40039,2.76558,2.76558,0,0,0-1.68067.61523,5.38973,5.38973,0,0,0-1.43945,1.76368,10.18867,10.18867,0,0,0-.96094,2.75976l-1.03808,4.88281h-1.72657l2.40528-11.26562h1.42871l-.22656,2.08594h.10351a6.46323,6.46323,0,0,1,1.7832-1.75782,3.52134,3.52134,0,0,1,1.834-.5332,2.335,2.335,0,0,1,1.78906.668,3.05583,3.05583,0,0,1,.74024,1.85938h.082a6.59673,6.59673,0,0,1,1.88086-1.90625,3.77346,3.77346,0,0,1,2.01464-.6211,2.76391,2.76391,0,0,1,2.01954.69922,2.7189,2.7189,0,0,1,.71484,2.03516,9.81675,9.81675,0,0,1-.22656,1.82812l-1.48047,6.9082h-1.74707l1.52148-7.11328a9.37092,9.37092,0,0,0,.20508-1.5,1.294,1.294,0,0,0-1.46973-1.4082,2.76564,2.76564,0,0,0-1.64453.5957,5.1879,5.1879,0,0,0-1.42383,1.69141,9.21441,9.21441,0,0,0-.92968,2.59375l-1.09961,5.14062Z" fill="#232323"/><path d="M219.03465,187.99636a2.91348,2.91348,0,0,1,1.68555.50781,3.3173,3.3173,0,0,1,1.15136,1.46485h.11231l.68945-1.76758H223.978l-2.39453,11.26562h-1.36719l.26758-2.14843h-.083q-1.83984,2.35254-3.875,2.35351a2.70959,2.70959,0,0,1-2.24023-1.01758,4.34971,4.34971,0,0,1-.8125-2.78515,10.60438,10.60438,0,0,1,.73046-3.96875,6.85748,6.85748,0,0,1,2.01465-2.86719A4.38445,4.38445,0,0,1,219.03465,187.99636Zm-1.95313,10.248a2.898,2.898,0,0,0,1.9834-.95117,7.0553,7.0553,0,0,0,1.60352-2.47852,8.10064,8.10064,0,0,0,.61719-3.05664,2.39327,2.39327,0,0,0-.57618-1.68555,1.95491,1.95491,0,0,0-1.51074-.62695,2.83453,2.83453,0,0,0-1.98926.88281,5.96593,5.96593,0,0,0-1.44336,2.39453,9.65651,9.65651,0,0,0-.52441,3.1875,2.69608,2.69608,0,0,0,.48242,1.752A1.6701,1.6701,0,0,0,217.08152,198.24441Z" fill="#232323"/><path d="M228.41746,198.26394a5.58581,5.58581,0,0,0,1.48047-.26758v1.32617a4.75105,4.75105,0,0,1-.86328.2461,4.454,4.454,0,0,1-.82227.10351,2.8572,2.8572,0,0,1-1.96875-.61133,2.32483,2.32483,0,0,1-.68359-1.82421,7.478,7.478,0,0,1,.18555-1.543l1.30566-6.1875H225.2827l.14453-.75,1.90136-.80078,1.28418-2.34375h1.00782l-.56543,2.58984h2.8164l-.26757,1.30469h-2.80567l-1.32617,6.209a7.32687,7.32687,0,0,0-.18457,1.35742,1.21656,1.21656,0,0,0,.29785.88282A1.10526,1.10526,0,0,0,228.41746,198.26394Z" fill="#232323"/><path d="M233.51609,199.46706h-1.72656l2.40528-11.26562h1.72656Zm1.16211-14.14453a1.35014,1.35014,0,0,1,.32813-.93945,1.094,1.094,0,0,1,.85351-.36523.80905.80905,0,0,1,.9043.92578,1.39083,1.39083,0,0,1-.34375.95508,1.03386,1.03386,0,0,1-.79687.39062.95065.95065,0,0,1-.67871-.25195A.93622.93622,0,0,1,234.6782,185.32253Z" fill="#232323"/><path d="M243.13719,188.05691a4.11882,4.11882,0,0,1,3.083,1.15625,4.3574,4.3574,0,0,1,1.13086,3.18164,9.11709,9.11709,0,0,1-.74024,3.64844,6.3068,6.3068,0,0,1-2.00391,2.65234,4.68813,4.68813,0,0,1-2.85742.93555,4.09232,4.09232,0,0,1-3.09375-1.16211,4.37913,4.37913,0,0,1-1.12109-3.17578,9.09682,9.09682,0,0,1,.751-3.67383,6.22549,6.22549,0,0,1,2.02441-2.64258A4.71944,4.71944,0,0,1,243.13719,188.05691Zm2.42578,4.10156a2.8059,2.8059,0,0,0-.64258-1.916,2.1959,2.1959,0,0,0-1.74219-.73633,3.00663,3.00663,0,0,0-2.00976.76172,4.88559,4.88559,0,0,0-1.37695,2.11132,8.79361,8.79361,0,0,0-.48829,3.00782,3.02814,3.02814,0,0,0,.65235,2.08007,2.37657,2.37657,0,0,0,1.876.73438,2.8335,2.8335,0,0,0,1.92188-.75,4.89,4.89,0,0,0,1.33105-2.13281A9.65521,9.65521,0,0,0,245.563,192.15847Z" fill="#232323"/><path d="M255.83152,199.46706l1.52149-7.11328a9.38324,9.38324,0,0,0,.20508-1.48047,1.45652,1.45652,0,0,0-.36524-1.0371,1.525,1.525,0,0,0-1.166-.39063,3.05059,3.05059,0,0,0-1.78321.61523,5.51342,5.51342,0,0,0-1.53222,1.75782,9.2984,9.2984,0,0,0-1.002,2.76562l-1.03808,4.88281h-1.72656l2.40527-11.26562h1.42871l-.22656,2.08594h.10351a6.885,6.885,0,0,1,1.90625-1.77344,3.83176,3.83176,0,0,1,1.90625-.51758,2.88658,2.88658,0,0,1,2.06153.71289,2.625,2.625,0,0,1,.75488,2,8.39372,8.39372,0,0,1-.23633,1.84961l-1.46973,6.9082Z" fill="#232323"/><path d="M70.13426,221.53152a3.0134,3.0134,0,0,1-1.13574,2.50195,5.04292,5.04292,0,0,1-3.20215.90039,6.83,6.83,0,0,1-3.13477-.71094v-1.623a6.44028,6.44028,0,0,0,1.55274.668,5.64148,5.64148,0,0,0,1.541.23632,3.13939,3.13939,0,0,0,1.95313-.51367,1.60063,1.60063,0,0,0,.6582-1.3164,1.4217,1.4217,0,0,0-.36035-.98633,7.24735,7.24735,0,0,0-1.55176-1.09961,6.24264,6.24264,0,0,1-1.8916-1.4707,2.70456,2.70456,0,0,1-.55469-1.70508,2.83439,2.83439,0,0,1,1.03809-2.28711,4.11565,4.11565,0,0,1,2.73437-.86914,7.94028,7.94028,0,0,1,3.3916.76172l-.55468,1.4082-.57617-.25781a5.706,5.706,0,0,0-2.26075-.44141,2.29481,2.29481,0,0,0-1.501.44727,1.50586,1.50586,0,0,0-.17969,2.14257,6.45264,6.45264,0,0,0,1.50586,1.0586,8.66315,8.66315,0,0,1,1.57715,1.05859,3.05384,3.05384,0,0,1,.71484.95117A2.68873,2.68873,0,0,1,70.13426,221.53152Z" fill="#232323"/><path d="M76.23,213.46121l-1.542,7.14453a7.72272,7.72272,0,0,0-.18457,1.42773,1.31765,1.31765,0,0,0,1.51074,1.4707,3.05268,3.05268,0,0,0,1.77832-.61718,5.47025,5.47025,0,0,0,1.541-1.76758,9.46079,9.46079,0,0,0,1.01758-2.77539l1.02832-4.88281h1.70605l-2.374,11.26562H79.2827l.22558-2.08594h-.123A6.75328,6.75328,0,0,1,77.46336,224.43a3.894,3.894,0,0,1-1.8916.5039,2.87127,2.87127,0,0,1-2.06543-.71484,2.682,2.682,0,0,1-.751-2.041,9.59918,9.59918,0,0,1,.22656-1.76758l1.501-6.94921Z" fill="#232323"/><path d="M89.34422,224.93386a3.00938,3.00938,0,0,1-1.74707-.51562,3.33279,3.33279,0,0,1-1.16113-1.4375H86.3325l-.041.39062c-.02051.16992-.05665.41016-.10743.71875q-.07762.4629-1.17675,5.69336h-1.707l3.45411-16.32226h1.42871l-.26758,2.14843h.082q1.83984-2.332,3.82422-2.332a2.703,2.703,0,0,1,2.21973,1.00195,4.35551,4.35551,0,0,1,.8125,2.81055,10.89853,10.89853,0,0,1-.71,3.998,6.63155,6.63155,0,0,1-1.96289,2.832A4.39206,4.39206,0,0,1,89.34422,224.93386Zm1.91211-10.22851a2.97525,2.97525,0,0,0-2.00977.97656,6.98944,6.98944,0,0,0-1.624,2.457,7.99562,7.99562,0,0,0-.60059,3.03125,2.419,2.419,0,0,0,.57032,1.73242,2.16665,2.16665,0,0,0,1.64941.60156,2.71826,2.71826,0,0,0,1.89648-.832,5.84956,5.84956,0,0,0,1.41309-2.36914,9.86873,9.86873,0,0,0,.53418-3.26367Q93.08543,214.70437,91.25633,214.70535Z" fill="#232323"/><path d="M101.49363,224.93386a3.00938,3.00938,0,0,1-1.74707-.51562,3.33287,3.33287,0,0,1-1.16113-1.4375h-.10352l-.041.39062c-.02051.16992-.05664.41016-.10742.71875q-.07764.4629-1.17676,5.69336h-1.707l3.4541-16.32226h1.42871l-.26758,2.14843h.082q1.83986-2.332,3.82422-2.332a2.703,2.703,0,0,1,2.21973,1.00195,4.35551,4.35551,0,0,1,.8125,2.81055,10.89874,10.89874,0,0,1-.71,3.998,6.63164,6.63164,0,0,1-1.96289,2.832A4.39208,4.39208,0,0,1,101.49363,224.93386Zm1.91211-10.22851a2.97523,2.97523,0,0,0-2.00976.97656,6.98946,6.98946,0,0,0-1.624,2.457,7.99561,7.99561,0,0,0-.60058,3.03125,2.419,2.419,0,0,0,.57031,1.73242,2.16666,2.16666,0,0,0,1.64941.60156,2.71829,2.71829,0,0,0,1.89649-.832,5.84955,5.84955,0,0,0,1.41308-2.36914,9.86873,9.86873,0,0,0,.53418-3.26367Q105.23484,214.70437,103.40574,214.70535Z" fill="#232323"/><path d="M114.65086,213.31863a4.11131,4.11131,0,0,1,3.083,1.15625,4.35429,4.35429,0,0,1,1.13086,3.18164,9.124,9.124,0,0,1-.74024,3.64844,6.31914,6.31914,0,0,1-2.0039,2.65234,4.68639,4.68639,0,0,1-2.85743.93359,4.09859,4.09859,0,0,1-3.09375-1.16015,4.38543,4.38543,0,0,1-1.12109-3.17578,9.10613,9.10613,0,0,1,.751-3.67579,6.23111,6.23111,0,0,1,2.02441-2.64062A4.71944,4.71944,0,0,1,114.65086,213.31863Zm2.42578,4.10156a2.81114,2.81114,0,0,0-.64258-1.918,2.19451,2.19451,0,0,0-1.74218-.73437,3.01439,3.01439,0,0,0-2.00977.75976,4.89277,4.89277,0,0,0-1.37695,2.11328,8.77448,8.77448,0,0,0-.48828,3.00586,3.03014,3.03014,0,0,0,.65234,2.082,2.3766,2.3766,0,0,0,1.876.73438,2.83348,2.83348,0,0,0,1.92187-.75,4.89,4.89,0,0,0,1.33106-2.13281A9.65522,9.65522,0,0,0,117.07664,217.42019Z" fill="#232323"/><path d="M127.58055,213.25613a4.69971,4.69971,0,0,1,1.2334.14453l-.37012,1.541a4.57629,4.57629,0,0,0-1.0791-.13281,2.85025,2.85025,0,0,0-1.75293.61719,5.39414,5.39414,0,0,0-1.42871,1.71094,8.72444,8.72444,0,0,0-.89942,2.42968l-1.09961,5.16016H120.4575l2.40527-11.26562h1.42872l-.22657,2.08789h.10352a10.0671,10.0671,0,0,1,1.22265-1.4043,3.89869,3.89869,0,0,1,1.0127-.65625A2.9057,2.9057,0,0,1,127.58055,213.25613Z" fill="#232323"/><path d="M132.24656,223.52566a5.58615,5.58615,0,0,0,1.48047-.26758v1.32617a4.75105,4.75105,0,0,1-.86328.2461,4.454,4.454,0,0,1-.82226.10351,2.85763,2.85763,0,0,1-1.96875-.61328,2.322,2.322,0,0,1-.6836-1.82422,7.476,7.476,0,0,1,.18555-1.541l1.30566-6.1875H129.1118l.14453-.75,1.90137-.80274,1.28418-2.34375h1.00781l-.56543,2.58985h2.8164l-.26757,1.30664h-2.80567l-1.32617,6.207a7.34734,7.34734,0,0,0-.18457,1.35742,1.22152,1.22152,0,0,0,.29785.88476A1.10522,1.10522,0,0,0,132.24656,223.52566Z" fill="#232323"/><path d="M147.04832,213.25613a2.90085,2.90085,0,0,1,1.68555.50976,3.29553,3.29553,0,0,1,1.15137,1.46485h.1123l.68945-1.76953h1.30469l-2.39453,11.26562H148.23l.26758-2.14844h-.083q-1.83984,2.35548-3.875,2.35547a2.70959,2.70959,0,0,1-2.24023-1.01758,4.35557,4.35557,0,0,1-.8125-2.78711,10.60126,10.60126,0,0,1,.73047-3.96679,6.84492,6.84492,0,0,1,2.01464-2.86719A4.376,4.376,0,0,1,147.04832,213.25613Zm-1.95312,10.248a2.88959,2.88959,0,0,0,1.98339-.95117,7.02852,7.02852,0,0,0,1.60352-2.47656,8.1103,8.1103,0,0,0,.61719-3.05859,2.39659,2.39659,0,0,0-.57617-1.68555,1.95493,1.95493,0,0,0-1.51075-.62695,2.82886,2.82886,0,0,0-1.98925.88476,5.95221,5.95221,0,0,0-1.44336,2.39453,9.65312,9.65312,0,0,0-.52442,3.18555,2.70579,2.70579,0,0,0,.48242,1.75391A1.6688,1.6688,0,0,0,145.0952,223.50417Z" fill="#232323"/><path d="M159.8657,224.72683l1.52149-7.11133a9.41234,9.41234,0,0,0,.20508-1.48047,1.46472,1.46472,0,0,0-.36524-1.03906,1.53251,1.53251,0,0,0-1.166-.39062,3.03975,3.03975,0,0,0-1.78321.61718,5.47153,5.47153,0,0,0-1.53222,1.75782,9.25827,9.25827,0,0,0-1.002,2.76562l-1.03808,4.88086H152.979l2.40527-11.26562H156.813l-.22656,2.08789h.10351a6.855,6.855,0,0,1,1.90625-1.77344,3.83419,3.83419,0,0,1,1.90625-.51953,2.879,2.879,0,0,1,2.06153.71484,2.62213,2.62213,0,0,1,.75488,2,8.40788,8.40788,0,0,1-.23633,1.84961l-1.46973,6.90625Z" fill="#232323"/><path d="M171.09031,213.27761a2.99679,2.99679,0,0,1,2.8877,1.95313h.10254a23.864,23.864,0,0,1,.46289-2.81641l.80176-3.67969h1.70605l-3.3916,15.99219h-1.42871l.22558-2.14844h-.082a7.7416,7.7416,0,0,1-1.94238,1.82032,3.64047,3.64047,0,0,1-1.87109.53515,2.69186,2.69186,0,0,1-2.23047-1.00781,4.38312,4.38312,0,0,1-.80176-2.79688,10.66354,10.66354,0,0,1,.74023-4.02929,6.73534,6.73534,0,0,1,1.999-2.82617A4.43524,4.43524,0,0,1,171.09031,213.27761Zm-1.95312,10.22656a2.99616,2.99616,0,0,0,1.99414-.96093,6.7547,6.7547,0,0,0,1.62891-2.457,8.10467,8.10467,0,0,0,.60156-3.04688,2.46322,2.46322,0,0,0-.55567-1.73828,2.1008,2.1008,0,0,0-1.61328-.5957,2.75349,2.75349,0,0,0-1.92773.84765,5.98232,5.98232,0,0,0-1.42871,2.38477,9.70423,9.70423,0,0,0-.53907,3.23242Q167.29734,223.50515,169.13719,223.50417Z" fill="#232323"/><path d="M188.7075,213.25613a2.90085,2.90085,0,0,1,1.68555.50976,3.29544,3.29544,0,0,1,1.15136,1.46485h.11231l.68945-1.76953h1.30469l-2.39453,11.26562h-1.36719l.26758-2.14844h-.083q-1.83984,2.35548-3.875,2.35547a2.70959,2.70959,0,0,1-2.24023-1.01758,4.35557,4.35557,0,0,1-.8125-2.78711,10.60126,10.60126,0,0,1,.73047-3.96679,6.84492,6.84492,0,0,1,2.01464-2.86719A4.376,4.376,0,0,1,188.7075,213.25613Zm-1.95312,10.248a2.88959,2.88959,0,0,0,1.98339-.95117,7.02852,7.02852,0,0,0,1.60352-2.47656,8.1103,8.1103,0,0,0,.61719-3.05859,2.39659,2.39659,0,0,0-.57617-1.68555,1.95493,1.95493,0,0,0-1.51075-.62695,2.82886,2.82886,0,0,0-1.98925.88476,5.95221,5.95221,0,0,0-1.44336,2.39453,9.65312,9.65312,0,0,0-.52442,3.18555,2.70573,2.70573,0,0,0,.48242,1.75391A1.6688,1.6688,0,0,0,186.75438,223.50417Z" fill="#232323"/><path d="M199.23191,224.93386a3.828,3.828,0,0,1-4.19433-4.20508,9.35548,9.35548,0,0,1,.76074-3.793,6.43157,6.43157,0,0,1,2.10254-2.707,5.01155,5.01155,0,0,1,3.0166-.97265,7.53659,7.53659,0,0,1,2.75488.52539l-.48339,1.44922a5.81464,5.81464,0,0,0-2.251-.52539,3.2128,3.2128,0,0,0-2.10156.78711,5.17067,5.17067,0,0,0-1.49121,2.18945,8.42621,8.42621,0,0,0-.53907,3.04687,2.87367,2.87367,0,0,0,.6836,2.04493,2.45066,2.45066,0,0,0,1.88574.73046,4.68022,4.68022,0,0,0,1.39844-.20507,12.70628,12.70628,0,0,0,1.29492-.48438v1.4707A6.1748,6.1748,0,0,1,199.23191,224.93386Z" fill="#232323"/><path d="M208.70945,224.93386a3.828,3.828,0,0,1-4.19433-4.20508,9.35531,9.35531,0,0,1,.76074-3.793,6.43157,6.43157,0,0,1,2.10254-2.707,5.01155,5.01155,0,0,1,3.0166-.97265,7.53659,7.53659,0,0,1,2.75488.52539l-.48339,1.44922a5.81464,5.81464,0,0,0-2.251-.52539,3.2128,3.2128,0,0,0-2.10156.78711,5.17067,5.17067,0,0,0-1.49121,2.18945,8.42621,8.42621,0,0,0-.53907,3.04687,2.87367,2.87367,0,0,0,.6836,2.04493,2.45065,2.45065,0,0,0,1.88574.73046,4.68022,4.68022,0,0,0,1.39844-.20507,12.70628,12.70628,0,0,0,1.29492-.48438v1.4707A6.1748,6.1748,0,0,1,208.70945,224.93386Z" fill="#232323"/><path d="M218.04149,224.93386a3.93157,3.93157,0,0,1-2.96973-1.12109,4.28562,4.28562,0,0,1-1.08008-3.10352,9.25681,9.25681,0,0,1,.7666-3.707,6.85555,6.85555,0,0,1,2.0293-2.75976,4.43335,4.43335,0,0,1,2.78613-.98633,3.53457,3.53457,0,0,1,2.36328.68359,2.38529,2.38529,0,0,1,.792,1.90625,3.25987,3.25987,0,0,1-1.70606,2.9043,9.34036,9.34036,0,0,1-4.88281,1.05273h-.33887l-.041.82227a3.187,3.187,0,0,0,.63183,2.10351,2.40909,2.40909,0,0,0,1.958.75391,5.0959,5.0959,0,0,0,1.33105-.18359,10.08656,10.08656,0,0,0,1.70118-.67969v1.502a9.3128,9.3128,0,0,1-1.70606.63086A6.85669,6.85669,0,0,1,218.04149,224.93386Zm1.42871-10.207a2.75017,2.75017,0,0,0-1.98829.96484,6.31788,6.31788,0,0,0-1.42382,2.6836h.123a8.387,8.387,0,0,0,3.59278-.61133,1.92053,1.92053,0,0,0,1.249-1.77344,1.20079,1.20079,0,0,0-.375-.90429A1.65213,1.65213,0,0,0,219.4702,214.72683Z" fill="#232323"/><path d="M230.92039,221.53152a3.01337,3.01337,0,0,1-1.13574,2.50195,5.04292,5.04292,0,0,1-3.20215.90039,6.83,6.83,0,0,1-3.13476-.71094v-1.623a6.44038,6.44038,0,0,0,1.55273.668,5.64154,5.64154,0,0,0,1.541.23632,3.13936,3.13936,0,0,0,1.95312-.51367,1.6006,1.6006,0,0,0,.6582-1.3164,1.42166,1.42166,0,0,0-.36035-.98633,7.24708,7.24708,0,0,0-1.55176-1.09961,6.24264,6.24264,0,0,1-1.8916-1.4707,2.70462,2.70462,0,0,1-.55469-1.70508,2.83439,2.83439,0,0,1,1.03809-2.28711,4.11568,4.11568,0,0,1,2.73438-.86914,7.94034,7.94034,0,0,1,3.3916.76172l-.55469,1.4082-.57617-.25781a5.70594,5.70594,0,0,0-2.26074-.44141,2.29482,2.29482,0,0,0-1.501.44727,1.50588,1.50588,0,0,0-.17969,2.14257,6.45287,6.45287,0,0,0,1.50586,1.0586,8.66315,8.66315,0,0,1,1.57715,1.05859,3.05368,3.05368,0,0,1,.71484.95117A2.68873,2.68873,0,0,1,230.92039,221.53152Z" fill="#232323"/><path d="M239.935,221.53152a3.0134,3.0134,0,0,1-1.13574,2.50195,5.04292,5.04292,0,0,1-3.20215.90039,6.83,6.83,0,0,1-3.13477-.71094v-1.623a6.44045,6.44045,0,0,0,1.55274.668,5.64153,5.64153,0,0,0,1.541.23632,3.13939,3.13939,0,0,0,1.95313-.51367,1.6006,1.6006,0,0,0,.6582-1.3164,1.4217,1.4217,0,0,0-.36035-.98633,7.24735,7.24735,0,0,0-1.55176-1.09961,6.24264,6.24264,0,0,1-1.8916-1.4707,2.70456,2.70456,0,0,1-.55469-1.70508,2.83439,2.83439,0,0,1,1.03809-2.28711,4.11565,4.11565,0,0,1,2.73437-.86914,7.94035,7.94035,0,0,1,3.39161.76172l-.55469,1.4082-.57617-.25781a5.706,5.706,0,0,0-2.26075-.44141,2.29481,2.29481,0,0,0-1.501.44727,1.50588,1.50588,0,0,0-.17969,2.14257,6.45264,6.45264,0,0,0,1.50586,1.0586,8.66315,8.66315,0,0,1,1.57715,1.05859,3.05384,3.05384,0,0,1,.71484.95117A2.68873,2.68873,0,0,1,239.935,221.53152Z" fill="#232323"/><path d="M110.89305,248.78542a5.5862,5.5862,0,0,0,1.48047-.26757V249.844a4.75192,4.75192,0,0,1-.86328.24609,4.45425,4.45425,0,0,1-.82227.10352,2.85763,2.85763,0,0,1-1.96875-.61328,2.322,2.322,0,0,1-.68359-1.82422,7.47669,7.47669,0,0,1,.18554-1.541l1.30567-6.1875h-1.76856l.14453-.75,1.90137-.80273,1.28418-2.34375h1.00781l-.56543,2.58984h2.81641l-.26758,1.30664h-2.80566l-1.32617,6.207a7.34765,7.34765,0,0,0-.18458,1.35742,1.22154,1.22154,0,0,0,.29786.88477A1.10522,1.10522,0,0,0,110.89305,248.78542Z" fill="#232323"/><path d="M120.26805,238.57839a4.11135,4.11135,0,0,1,3.083,1.15625,4.3543,4.3543,0,0,1,1.13085,3.18164,9.12408,9.12408,0,0,1-.74023,3.64844,6.31907,6.31907,0,0,1-2.00391,2.65234,4.68635,4.68635,0,0,1-2.85742.9336,4.09855,4.09855,0,0,1-3.09375-1.16016,4.38542,4.38542,0,0,1-1.12109-3.17578,9.10612,9.10612,0,0,1,.751-3.67578,6.2312,6.2312,0,0,1,2.02441-2.64063A4.71944,4.71944,0,0,1,120.26805,238.57839Zm2.42578,4.10157a2.8111,2.8111,0,0,0-.64258-1.918,2.19449,2.19449,0,0,0-1.74219-.73438,3.01438,3.01438,0,0,0-2.00976.75977,4.89273,4.89273,0,0,0-1.377,2.11328,8.77444,8.77444,0,0,0-.48828,3.00586,3.03016,3.03016,0,0,0,.65235,2.082,2.37659,2.37659,0,0,0,1.876.73437,2.8335,2.8335,0,0,0,1.92188-.75,4.89,4.89,0,0,0,1.33105-2.13281A9.65515,9.65515,0,0,0,122.69383,242.68Z" fill="#232323"/><path d="M138.49168,246.79128a3.01341,3.01341,0,0,1-1.13574,2.502,5.04292,5.04292,0,0,1-3.20215.90039,6.83,6.83,0,0,1-3.13477-.71094v-1.623a6.44006,6.44006,0,0,0,1.55274.668,5.64157,5.64157,0,0,0,1.541.23633,3.13943,3.13943,0,0,0,1.95313-.51367,1.60061,1.60061,0,0,0,.6582-1.31641,1.42167,1.42167,0,0,0-.36035-.98633,7.24771,7.24771,0,0,0-1.55176-1.09961,6.24249,6.24249,0,0,1-1.8916-1.4707,2.70452,2.70452,0,0,1-.55469-1.70508,2.83441,2.83441,0,0,1,1.03809-2.28711,4.11572,4.11572,0,0,1,2.73437-.86914,7.9405,7.9405,0,0,1,3.39161.76172l-.55469,1.4082-.57617-.25781a5.7062,5.7062,0,0,0-2.26075-.4414,2.29481,2.29481,0,0,0-1.501.44726,1.50589,1.50589,0,0,0-.17969,2.14258,6.45268,6.45268,0,0,0,1.50586,1.05859,8.66361,8.66361,0,0,1,1.57715,1.0586,3.05384,3.05384,0,0,1,.71484.95117A2.68869,2.68869,0,0,1,138.49168,246.79128Z" fill="#232323"/><path d="M145.00731,250.19363a3.93154,3.93154,0,0,1-2.96973-1.1211,4.28559,4.28559,0,0,1-1.08008-3.10351,9.25681,9.25681,0,0,1,.7666-3.707,6.85559,6.85559,0,0,1,2.0293-2.75977,4.43335,4.43335,0,0,1,2.78613-.98633,3.53457,3.53457,0,0,1,2.36328.6836,2.38528,2.38528,0,0,1,.792,1.90625,3.25985,3.25985,0,0,1-1.70606,2.90429,9.34025,9.34025,0,0,1-4.88281,1.05274h-.33887l-.041.82226a3.187,3.187,0,0,0,.63183,2.10352,2.40909,2.40909,0,0,0,1.958.75391,5.0955,5.0955,0,0,0,1.33105-.1836,10.08656,10.08656,0,0,0,1.70118-.67969v1.502a9.31254,9.31254,0,0,1-1.70606.63086A6.85663,6.85663,0,0,1,145.00731,250.19363Zm1.42871-10.207a2.75009,2.75009,0,0,0-1.98828.96484,6.31767,6.31767,0,0,0-1.42383,2.68359h.123a8.38705,8.38705,0,0,0,3.59278-.61132,1.92054,1.92054,0,0,0,1.249-1.77344,1.20082,1.20082,0,0,0-.375-.9043A1.65218,1.65218,0,0,0,146.436,239.9866Z" fill="#232323"/><path d="M158.062,238.51589a4.69966,4.69966,0,0,1,1.2334.14453l-.37012,1.541a4.57622,4.57622,0,0,0-1.0791-.13281,2.85032,2.85032,0,0,0-1.75293.61718,5.3944,5.3944,0,0,0-1.42871,1.71094,8.7245,8.7245,0,0,0-.89941,2.42969l-1.09961,5.16016H150.939l2.40527-11.26563h1.42871l-.22656,2.08789h.10351a10.06763,10.06763,0,0,1,1.22266-1.4043,3.89869,3.89869,0,0,1,1.0127-.65625A2.90578,2.90578,0,0,1,158.062,238.51589Z" fill="#232323"/><path d="M160.95945,249.9866,159.6743,238.721h1.72754l.65722,6.30078q.24756,2.65429.24707,3.72071h.06153q1.30517-2.82423,1.83984-3.8125l3.34082-6.209h1.8291L163.3032,249.9866Z" fill="#232323"/><path d="M170.7241,249.9866h-1.72656l2.40527-11.26563h1.72657Zm1.16211-14.14258a1.35516,1.35516,0,0,1,.32813-.94141,1.09882,1.09882,0,0,1,.85351-.36328.80765.80765,0,0,1,.9043.92383,1.39923,1.39923,0,0,1-.34375.957,1.04007,1.04007,0,0,1-.79688.39062.95067.95067,0,0,1-.67871-.25195A.93624.93624,0,0,1,171.88621,235.844Z" fill="#232323"/><path d="M178.937,250.19363a3.828,3.828,0,0,1-4.19433-4.20508,9.35528,9.35528,0,0,1,.76074-3.793,6.43151,6.43151,0,0,1,2.10254-2.707,5.0115,5.0115,0,0,1,3.0166-.97266,7.53659,7.53659,0,0,1,2.75488.52539l-.4834,1.44922a5.81456,5.81456,0,0,0-2.251-.52539,3.21285,3.21285,0,0,0-2.10156.78711,5.1709,5.1709,0,0,0-1.49122,2.18945,8.42647,8.42647,0,0,0-.53906,3.04688,2.87366,2.87366,0,0,0,.6836,2.04492,2.45065,2.45065,0,0,0,1.88574.73047,4.6799,4.6799,0,0,0,1.39844-.20508,12.70858,12.70858,0,0,0,1.29492-.48437v1.4707A6.1748,6.1748,0,0,1,178.937,250.19363Z" fill="#232323"/><path d="M188.27,250.19363a3.93155,3.93155,0,0,1-2.96973-1.1211,4.28563,4.28563,0,0,1-1.08007-3.10351,9.25681,9.25681,0,0,1,.7666-3.707,6.85548,6.85548,0,0,1,2.02929-2.75977,4.4334,4.4334,0,0,1,2.78614-.98633,3.53459,3.53459,0,0,1,2.36328.6836,2.38527,2.38527,0,0,1,.792,1.90625,3.25986,3.25986,0,0,1-1.70605,2.90429,9.34032,9.34032,0,0,1-4.88282,1.05274h-.33886l-.041.82226a3.187,3.187,0,0,0,.63184,2.10352,2.40907,2.40907,0,0,0,1.958.75391,5.09557,5.09557,0,0,0,1.33106-.1836,10.08651,10.08651,0,0,0,1.70117-.67969v1.502a9.31247,9.31247,0,0,1-1.706.63086A6.85678,6.85678,0,0,1,188.27,250.19363Zm1.42871-10.207a2.75011,2.75011,0,0,0-1.98828.96484,6.31767,6.31767,0,0,0-1.42383,2.68359h.12305a8.387,8.387,0,0,0,3.59277-.61132,1.92055,1.92055,0,0,0,1.249-1.77344,1.20082,1.20082,0,0,0-.375-.9043A1.65219,1.65219,0,0,0,189.69871,239.9866Z" fill="#232323"/><path d="M201.14891,246.79128a3.0134,3.0134,0,0,1-1.13575,2.502,5.04287,5.04287,0,0,1-3.20214.90039,6.83,6.83,0,0,1-3.13477-.71094v-1.623a6.43988,6.43988,0,0,0,1.55274.668,5.64146,5.64146,0,0,0,1.541.23633,3.13945,3.13945,0,0,0,1.95313-.51367,1.60063,1.60063,0,0,0,.6582-1.31641,1.42172,1.42172,0,0,0-.36035-.98633,7.24771,7.24771,0,0,0-1.55176-1.09961,6.24236,6.24236,0,0,1-1.8916-1.4707,2.70452,2.70452,0,0,1-.55469-1.70508A2.83438,2.83438,0,0,1,196.061,239.385a4.11571,4.11571,0,0,1,2.73437-.86914,7.94042,7.94042,0,0,1,3.3916.76172l-.55468,1.4082-.57618-.25781a5.70611,5.70611,0,0,0-2.26074-.4414,2.29486,2.29486,0,0,0-1.501.44726,1.50588,1.50588,0,0,0-.17968,2.14258,6.45246,6.45246,0,0,0,1.50586,1.05859,8.66361,8.66361,0,0,1,1.57715,1.0586,3.05384,3.05384,0,0,1,.71484.95117A2.68869,2.68869,0,0,1,201.14891,246.79128Z" fill="#232323"/><path d="M105.98558,151.43484c-.68384-.01563-.97364-.332-1.22608-.99707-.39209-1.03369,5.19532-24.19434,5.3291-24.813,1.37183-6.355,2.74317-12.74072,4.1543-19.08691a150.54928,150.54928,0,0,1,4.88355-18.29151,19.9394,19.9394,0,0,1,4.75146-7.87842c3.34375-3.20507,7.20093-5.32373,12.02393-5.28027a16.51779,16.51779,0,0,0,6.02246-.687.954.954,0,0,1,.79834.394c1.43847,2.35645,2.86328,4.72168,4.22583,7.12256a13.37693,13.37693,0,0,1,.78589,2.21362c.21362-.73291.50781-.57483.91186-.20178a43.96372,43.96372,0,0,0,3.8606,3.43549c3.42724,2.48291,6.96728,2.40377,10.49487.12985q4.86841-3.13916,9.74268-6.26906a4.24373,4.24373,0,0,1,.91064-.29591,20.62027,20.62027,0,0,1,1.89868-1.69775c1.47193-1.05323,2.99927-2.03028,4.52271-3.00879a1.34733,1.34733,0,0,1,.94629-.27393,49.00976,49.00976,0,0,1,9.30395,3.92822A6.71125,6.71125,0,0,1,193.542,84.6033c1.49048,6.95068,3.01856,13.89355,4.47486,20.85107q1.40075,6.69141,2.633,13.417c.91285,4.98535,1.73951,9.98682,2.58838,14.98389q.71192,4.188,1.36841,8.38525a14.72342,14.72342,0,0,0,.352,2.8501c.542,1.44287-.31933,5.39355-1.12573,6.42627a13.14685,13.14685,0,0,1-4.40234,3.706c-.01612.0083-.02955-.72265-.04566.27735H307.89451a152.89209,152.89209,0,1,0-305.78418,0h110.875C111.49046,152.50027,108.96775,151.50222,105.98558,151.43484Z" fill="#4464a4"/><path d="M125.71629,141.50027h1.26953q20.454,0,40.90772.04223a5.11729,5.11729,0,0,0,4.36206-1.73693c-2.718-1.37745-5.44556-2.74128-8.16016-4.13483a18.91561,18.91561,0,0,1-6.91553-6.44852,2.01514,2.01514,0,0,1-.13818-.77626c-.25049-.26416-.70435-.5268-.8125-.89252-.512-1.73047-1.01074-3.47336-1.3523-5.2429-.23291-1.20654.38428-1.62633,1.51539-1.09117,1.72241.81543,3.41381,1.69929,5.09252,2.60212,1.35206.72705,2.66553,1.52591,3.9961,2.293a1.2341,1.2341,0,0,0-.23731-.7617c-1.35449-1.88135-2.75464-3.73095-4.05713-5.64745a3.80038,3.80038,0,0,1-1.04443-2.82812,6.84438,6.84438,0,0,1,1.541.61865c1.99267,1.47608,3.938,3.01612,5.91382,4.51514,2.31909,1.75879,4.65258,3.49853,6.98461,5.25049.14795-.188.24561-.25586.25977-.33838q.60206-3.4878,1.18726-6.978c.79516-4.78125,1.55859-9.68652,2.385-14.46191.42749-2.47168-.68677-3.98291-3.21973-3.98291h-41.0791c.49072-3,.96093-5.55493,1.43115-8.33032-.1084-.02735-.2168.00451-.325-.02332a2.00918,2.00918,0,0,0-.28369.54913c-.4104,2.38819-.81861,4.79215-1.18946,7.18717-.094.60693-.29712.88337-.96753.86287q-2.40966-.074-4.82324-.00265a4.04849,4.04849,0,0,0-3.998,2.58,15.899,15.899,0,0,0-.67652,3.06294q-1.2484,7.20851-2.46313,14.4238-1.21,7.11915-2.41577,14.23949a10.03,10.03,0,0,0-.407,2.34436,15.93853,15.93853,0,0,0,.75025,2.84478C119.15037,141.91693,123.567,142.47647,125.71629,141.50027Z" fill="#4464a4"/><path d="M179.59935,131.85037a1.119,1.119,0,0,0-.8667.35546c-1.27783,1.582-2.51782,3.19483-3.75513,4.80909-.76416.99658-1.5022,2.01367-2.22559,2.98632.957.91846,2.10889,1.33643,3.06885,2.19971,3.61572,3.25049,7.47461,6.231,11.25269,9.29981a4.163,4.163,0,0,0,.86108.41845l.10254-.2207c-1.11035-.937-2.20532-1.89258-3.3335-2.80762-2.88989-2.34375-5.80126-4.66162-8.67724-7.022a.86391.86391,0,0,1-.11939-.83447,27.6783,27.6783,0,0,0,4.96753-8.77q5.4397,1.82592,10.83667,3.63818.06336-.1853.12647-.3706a5.91877,5.91877,0,0,0-.55347-.25879c-1.95312-.68555-3.91455-1.34766-5.85571-2.06543a1.16149,1.16149,0,0,1-.68579-.71192c-.4253-3.29-.79956-6.5874-1.1792-9.8833-.2815-2.4414-.54785-4.88427-.82813-7.32568-.36377-3.17041-.73413-6.2915-1.10351-9.46094-.20948-1.79492-.42261-3.32568-.63282-5.32568h-.36865c1.14844,11,2.29663,21.38525,3.45508,32.19433-.34448-.05908-.62012-.12744-.89453-.17773C181.99461,132.29568,180.803,132.01785,179.59935,131.85037Z" fill="#4464a4"/><path d="M145.50948,72.88758c.11118-.134.14135-.19761.19155-.227,1.55717-.91111,1.51409-.85534,2.9337.25935a12.1594,12.1594,0,0,0,8.19746,2.91339,10.353,10.353,0,0,0,9.73234-7.086,40.4149,40.4149,0,0,0,1.11346-4.11079l-.40543-.27857c-.74869.83937-1.46126,1.71464-2.2532,2.511a10.50483,10.50483,0,0,1-7.09257,3.33666,11.26875,11.26875,0,0,1-7.66538-2.67613,26.38783,26.38783,0,0,1-7.75428-10.04575,17.71538,17.71538,0,0,1-.99059-4.35838c-.32613-2.07578-.49835-4.1756-.81548-6.25306-.0628-.41136-.48027-.77009-.739-1.14981-2.66442-3.91081-5.42832-7.7407-6.49685-12.51415a11.18338,11.18338,0,0,1,4.03665-10.602c2.71256-2.0323,5.8558-2.83274,9.04257-3.64907,3.07344-.7873,6.10824-1.72973,9.14694-2.6473,3.74257-1.1301,7.45065-2.37994,11.21431-3.43264a8.20765,8.20765,0,0,1,6.51716,1.1061,32.69286,32.69286,0,0,1,5.17892,3.68916c4.42107,4.00716,5.47645,9.02483,3.88409,14.6566a1.36347,1.36347,0,0,0,.46957,1.61275A12.08211,12.08211,0,0,1,184.489,49.57855a11.54147,11.54147,0,0,1-7.78628,4.87716,5.39508,5.39508,0,0,0-1.05143.35278c-.73855.29329-1.45388.65579-2.20882.89492-1.68592.534-1.85378.71717-2.07249,2.47894q-.74793,6.0247-1.52615,12.04558a1.00478,1.00478,0,0,0,.82576,1.30886c1.27729.4018,1.276.58036.53656,1.69288a5.61693,5.61693,0,0,1-4.75381,2.78892,40.80666,40.80666,0,0,0-9.71486,1.45489,11.49068,11.49068,0,0,1-5.79314.0097C148.43866,76.7975,146.90066,74.96051,145.50948,72.88758ZM180.738,37.58193l-.2682-.08152c-.53436,1.61787-1.0914,3.22888-1.58518,4.859a1.77741,1.77741,0,0,0,.049,1.15533,7.39354,7.39354,0,0,1,.57637,4.94053c-.18229.75536-.39639,1.503-.596,2.25421a6.56848,6.56848,0,0,0,.80592-6.57041,3.65571,3.65571,0,0,1-.10812-2.75975c.13216-.39172.27506-.78043.39028-1.17712C180.255,39.331,180.49351,38.45562,180.738,37.58193Zm-5.958,14.43085c1.44715-1.08014,1.92328-3.65625.7858-4.90092-.34829-.38112-.31569-.62616.02447-.9625.44571-.44073.852-.92135,1.2752-1.38482-1.384.33758-3.35158,3.06656-3.22425,4.43636a13.83571,13.83571,0,0,1,.7411-1.37153c.14682-.21083.45092-.47959.6396-.44884a.82686.82686,0,0,1,.51709.595,7.31858,7.31858,0,0,1-.02472,2.00152A13.50134,13.50134,0,0,1,174.77992,52.01278Zm-8.5264-8.1499c-1.944-1.61427-4.12282-1.95961-5.53179-.98317ZM151.453,42.58942a4.19671,4.19671,0,0,0-5.10628,0Zm-11.27881-.14195.1053.01493V36.32062l-.1053.0006Z" fill="#fff"/><path d="M174.77992,52.01278a13.50134,13.50134,0,0,0,.73429-2.03573,7.31858,7.31858,0,0,0,.02472-2.00152.82686.82686,0,0,0-.51709-.595c-.18868-.03075-.49278.238-.6396.44884a13.83571,13.83571,0,0,0-.7411,1.37153c-.12733-1.3698,1.84022-4.09878,3.22425-4.43636-.42323.46347-.82949.94409-1.2752,1.38482-.34016.33634-.37276.58138-.02447.9625C176.7032,48.35653,176.22707,50.93264,174.77992,52.01278Z" fill="#4464a4"/><path d="M140.17416,42.44747V36.32122l.1053-.0006V42.4624Z" fill="#4464a4"/></g></g></svg>