<svg xmlns="http://www.w3.org/2000/svg" xmlns:xlink="http://www.w3.org/1999/xlink" viewBox="0 0 146.1074 146.1072"><defs><linearGradient id="linear-gradient" x1="2496.2763" y1="-5062.00437" x2="2497.2763" y2="-5062.00437" gradientTransform="matrix(103.3135, 103.3135, 103.3135, -103.3135, 265095.73817, -780851.02642)" gradientUnits="userSpaceOnUse"><stop offset="0" stop-color="#c9b899"/><stop offset="0.18779" stop-color="#c6b798"/><stop offset="0.34018" stop-color="#bcb395"/><stop offset="0.4802" stop-color="#abac91"/><stop offset="0.61284" stop-color="#93a28a"/><stop offset="0.74019" stop-color="#749581"/><stop offset="0.86361" stop-color="#4e8576"/><stop offset="0.9818" stop-color="#22736a"/><stop offset="1" stop-color="#1a7068"/></linearGradient><clipPath id="clip-path"><path d="M121.4519,76.6729A47.82375,47.82375,0,1,1,73.6285,28.8494a47.82359,47.82359,0,0,1,47.8234,47.8235" fill="none"/></clipPath></defs><g id="Layer_2" data-name="Layer 2"><g id="Layer_1-2" data-name="Layer 1"><circle cx="73.0537" cy="73.0537" r="72.0537" fill="#fff"/><path d="M1,73.0537H0A73.0537,73.0537,0,1,0,73.0537,0,73.05346,73.05346,0,0,0,0,73.0537H2a71.05354,71.05354,0,1,1,20.8112,50.2427A70.82729,70.82729,0,0,1,2,73.0537Z" fill="url(#linear-gradient)"/><path d="M121.5698,75.6631A48.5161,48.5161,0,1,1,73.0537,27.1475,48.51621,48.51621,0,0,1,121.5698,75.6631Z" fill="#4464a4"/><path d="M37.92249,32.76439l-5.11523-6.87207,1.13086-.84179,4.39746,5.9082,2.92968-2.18164.71778.96386Z" fill="#4d4d4d"/><path d="M47.7428,21.61107a4.66794,4.66794,0,0,1,.63086,3.35938,4.44742,4.44742,0,0,1-5.249,2.86914,4.68763,4.68763,0,0,1-2.48535-2.37207,4.61624,4.61624,0,0,1-.63281-3.36524,3.89126,3.89126,0,0,1,2.0957-2.43554,3.81216,3.81216,0,0,1,3.16308-.40918A4.65987,4.65987,0,0,1,47.7428,21.61107Zm-5.78222,3.14942a3.81982,3.81982,0,0,0,1.71289,1.7998,2.62961,2.62961,0,0,0,3.34277-1.81152,3.82164,3.82164,0,0,0-.58887-2.4209,3.837,3.837,0,0,0-1.70019-1.7959,2.24665,2.24665,0,0,0-2.04981.18945,2.2993,2.2993,0,0,0-1.29394,1.63184A3.79023,3.79023,0,0,0,41.96058,24.76049Z" fill="#4d4d4d"/><path d="M52.43226,16.49a2.3272,2.3272,0,0,0-1.50586,1.45508,3.63194,3.63194,0,0,0,.14843,2.457,3.66923,3.66923,0,0,0,1.44043,2.01562,2.37386,2.37386,0,0,0,2.09766.10059,5.09747,5.09747,0,0,0,.96289-.46387c.29688-.18359.59961-.39258.90918-.624l.4082,1.1289A6.52945,6.52945,0,0,1,54.859,23.70092a3.69727,3.69727,0,0,1-3.123-.082,4.74777,4.74777,0,0,1-2.06348-2.72168,5.22184,5.22184,0,0,1-.33105-2.36621,3.495,3.495,0,0,1,.81738-1.92871,4.33133,4.33133,0,0,1,1.876-1.24511,5.45705,5.45705,0,0,1,2.48535-.31348l-.08106,1.26855a7.70474,7.70474,0,0,0-.99023-.02441A3.38772,3.38772,0,0,0,52.43226,16.49Z" fill="#4d4d4d"/><path d="M63.93909,21.18529l-1.335-2.15039-3.22656.68164-.335,2.502-1.45508.30762,1.38184-9.083,1.501-.31738,4.93555,7.749Zm-1.94824-3.25391-1.27246-2.11523c-.09082-.14062-.2207-.36426-.39258-.67187-.1709-.30665-.292-.53321-.36328-.67774a12.79274,12.79274,0,0,1-.12988,1.63867l-.29981,2.34571Z" fill="#4d4d4d"/><path d="M66.36292,20.89428l-.68359-8.53907,1.40527-.11328.58691,7.3418,3.64063-.291L71.40882,20.49Z" fill="#4d4d4d"/><path d="M82.818,21.25951l-1.40723-.1582.43262-3.83692-3.95215-.44531L77.45862,20.656l-1.40136-.1582.96-8.51172,1.40136.15723L78.026,15.62474l3.95215.44629.39257-3.48144,1.40723.1582Z" fill="#4d4d4d"/><path d="M93.70081,15.14428,92.21546,20.4851a3.2572,3.2572,0,0,1-.83984,1.49023,2.72244,2.72244,0,0,1-1.43555.7373,4.11806,4.11806,0,0,1-1.89063-.127,3.48742,3.48742,0,0,1-2.17871-1.48144,3.04385,3.04385,0,0,1-.23632-2.47364l1.47851-5.31836,1.36426.37891L87.025,18.91381a2.15327,2.15327,0,0,0,.05859,1.63964,2.05252,2.05252,0,0,0,1.332.89356,1.80058,1.80058,0,0,0,2.47753-1.46875l1.44922-5.21094Z" fill="#4d4d4d"/><path d="M96.9098,16.45482l2.33691,1.04785a4.89593,4.89593,0,0,1,2.13965,1.52442,1.80349,1.80349,0,0,1,.05664,1.81054,1.96548,1.96548,0,0,1-.86524.98047,1.74192,1.74192,0,0,1-1.27929.11231l-.02442.05371a2.22859,2.22859,0,0,1,.94434,1.15918,2.0184,2.0184,0,0,1-.16406,1.41308,2.19449,2.19449,0,0,1-1.48047,1.31641,3.50062,3.50062,0,0,1-2.32617-.32715l-2.84278-1.27441Zm-.626,4.84375-1.11035,2.47461,1.36719.61328a2.21234,2.21234,0,0,0,1.35742.24024,1.24043,1.24043,0,0,0,.84765-.78516,1.126,1.126,0,0,0-.01562-1.09277,2.44536,2.44536,0,0,0-1.14356-.86621Zm.46484-1.03711,1.23828.55469a2.3372,2.3372,0,0,0,1.293.27539,1.06412,1.06412,0,0,0,.75879-.69726.9442.9442,0,0,0-.04394-.97657,2.77361,2.77361,0,0,0-1.16309-.8164l-1.11426-.5Z" fill="#4d4d4d"/><path d="M105.984,28.16967a2.14951,2.14951,0,0,1-1.64746,1.09375,3.65623,3.65623,0,0,1-2.29687-.64844,5.496,5.496,0,0,1-1.80469-1.63867l.69238-1.12891a6.64583,6.64583,0,0,0,.8418,1.02734,5.35474,5.35474,0,0,0,.9707.78125,1.97131,1.97131,0,0,0,1.21973.377,1.02906,1.02906,0,0,0,.7832-.51563,1.06031,1.06031,0,0,0,.11524-.88476,5.55192,5.55192,0,0,0-.87305-1.46485,3.99907,3.99907,0,0,1-.85058-1.79492,2.2864,2.2864,0,0,1,.35449-1.50195,2.04924,2.04924,0,0,1,1.53613-1.03516,3.20666,3.20666,0,0,1,2.07715.55274,6.095,6.095,0,0,1,1.81933,1.75l-.98046.74023a5.40109,5.40109,0,0,0-1.49805-1.48437,1.58729,1.58729,0,0,0-1.03906-.293.96983.96983,0,0,0-.71192.48242,1.09316,1.09316,0,0,0-.17773.56055,1.442,1.442,0,0,0,.16211.627,7.95639,7.95639,0,0,0,.70508,1.08594,6.35182,6.35182,0,0,1,.80175,1.35156,2.1457,2.1457,0,0,1,.15235.99414A2.28556,2.28556,0,0,1,105.984,28.16967Z" fill="#4d4d4d"/><path d="M90.063,50.3965a7.64405,7.64405,0,1,1-7.644-7.6445A7.64367,7.64367,0,0,1,90.063,50.3965Z" fill="#fff"/><g clip-path="url(#clip-path)"><path d="M94.0161,76.1016c-1.08349-2.167-7.7417-4.0645-9.5732-4.7188l4.3164,37.4073-2.2036-.4903a17.63233,17.63233,0,0,1-3.6255,6.2647l11.1919,9.1357a10.26373,10.26373,0,0,0,4.5776-.1308c2.3545-.6534,2.8775-5.1006,2.8775-8.501C101.5772,111.667,95.2222,78.5127,94.0161,76.1016Z" fill="#fff"/><path d="M61.3848,54.8711a28.19788,28.19788,0,0,0-2.5015-4.2676c-1.6186-2.207-3.7524-6.1796-3.0903-8.9023.6621-2.7217,2.4282-5.2236,7.8725-6.4004,5.4444-1.1777,6.91611-1.9873,6.91611-1.9873l.14689,8.9766Z" fill="#fff"/><path d="M49.4737,123.4893H92.5322S87.856,81.7949,87.4663,78.0928c-.3896-3.7012-.9741-6.2344-2.53269-6.624a49.80982,49.80982,0,0,1-5.84521-2.5332l1.7534-14.0283-12.664,1.3642s-.3897,9.3525-.7793,10.5215-5.066,5.0654-9.5474,4.6758L52.7857,100.499Z" fill="#fff"/><path d="M72.9844,77.6104c3.2148-.918,5.7637-4.1641,7.8906-7.8115-1.0097-.4747-1.7866-.8633-1.7866-.8633l1.7534-14.0283-12.664,1.3642s-.3897,9.3525-.7793,10.5215c-.21289.6377-1.7085,2.0879-3.7476,3.2109C66.0493,73.7901,69.0088,78.7471,72.9844,77.6104Z" fill="#fff"/><path d="M73.61961,80.1514C77.7119,78.333,82.419,74.2842,87.1968,71.417c-.69819-.2969-3.8223-.9551-6.689-1.9111-2.1269,3.6474-4.4287,1.9482-7.644,2.8672-3.9756,1.1357-6.8145,1.417-9.2129-2.3692a13.53942,13.53942,0,0,1-2.125.9453C63.855,76.3711,68.999,82.4619,73.61961,80.1514Z" fill="#4464a4"/><path d="M75.8945,69.7061c3.0757-4.1006,1.8628-7.7188,1.2198-14.3965l-8.9365.9619s-.3897,9.3525-.7793,10.5215a7.78155,7.78155,0,0,1-2.7295,2.5898C67.8272,72.4082,72.53761,73.0625,75.8945,69.7061Z" fill="#4464a4"/><path d="M63.5112,38.8311c-1.2021.6474-2.8671,2.0342-3.1445,5.456s.3701,13.7803,1.29491,15.7227,4.53179,8.0459,9.52589,8.1387c4.9942.0918,8.8784-6.9366,9.24811-8.8789,0,0,.92479-4.5313,1.29489-6.8438.37011-2.3115-.3701-11.8379-.3701-11.8379Z" fill="#fff"/><path d="M77.6001,48.7207a10.89055,10.89055,0,0,0,4.1118,3.6817l2.481-1.0625a15.35534,15.35534,0,0,0,1.7656-3.8262c1.1035-3.0166,2.6489-5.8857,1.398-9.5645-1.2505-3.6787-6.3267-6.956-8.75489-6.8818-2.42781.0733-7.12311,1.9844-10.58111,3.1621-3.458,1.1768-4.8701,3.3516-6.3413,6.0742a6.03669,6.03669,0,0,1,1.6919-.8095s1.4717,9.123,5.5918,10.7422a11.546,11.546,0,0,1-1.5449-6.9903,10.86715,10.86715,0,0,0,6.7012,7.1865,11.50517,11.50517,0,0,0,4.4013.6309l.4488-.0186Z" fill="#fff"/><path d="M81.8384,50.8985s1.2139-1.7686,2.5015-1.1036a1.81636,1.81636,0,0,1,.4995.3868c1.7534,1.8838,1.3584,7.997-4.399,8.8095Z" fill="#fff"/><path d="M81.8828,54.6778,81.4409,54.5a7.80241,7.80241,0,0,1,2.22171-3.0547l.30569.3662A7.30993,7.30993,0,0,0,81.8828,54.6778Z" fill="#4464a4"/><path d="M82.6607,56.5791l-.35109-.3222a2.58213,2.58213,0,0,0,.61859-2.2217c-.0395-.1963-.144-.541-.4013-.6455l.1792-.4414a1.26847,1.26847,0,0,1,.6894.9922A3.07039,3.07039,0,0,1,82.6607,56.5791Z" fill="#4464a4"/><path d="M63.5884,50.4434a3.25965,3.25965,0,0,1,4.2568.1611,18.01319,18.01319,0,0,0-2.1225-.2373A17.4566,17.4566,0,0,0,63.5884,50.4434Z" fill="#4464a4"/><path d="M72.8047,50.876a.84906.84906,0,0,1,.5015-.4639,3.23052,3.23052,0,0,1,.6425-.1894,3.40624,3.40624,0,0,1,1.3443.0117,4.11831,4.11831,0,0,1,1.2339.5049,2.31042,2.31042,0,0,1,.92971.9336,4.89989,4.89989,0,0,0-1.12991-.5078,9.65716,9.65716,0,0,0-1.1572-.3155,7.86205,7.86205,0,0,0-1.1778-.1142A2.26342,2.26342,0,0,0,72.8047,50.876Z" fill="#4464a4"/><path d="M59.5479,71.6192a11.17107,11.17107,0,0,0-7.7178,1.5263c-3.4771,2.3741-4.9189,4.4952-6.8696,11.958-1.9502,7.4629-5.1734,22.9834-5.4278,25.3584-.2544,2.3741,6.7002,2.2891,6.7002,2.2891h5.5972L56.919,83.0684Z" fill="#fff"/><path d="M40.2114,106.3907c1.0259-1.6612,2.9683-3.5616,7.2085-3.4776l.17,10.6016s-5.0889,2.375-6.3609,2.29-2.7138-.4238-2.7988-1.3574C38.3457,113.5147,38.4302,109.2744,40.2114,106.3907Z" fill="#fff"/><path d="M47.80961,101.1475s-3.41751,2.8144-3.35011,3.9531c.0669,1.1397.4687,5.293,1.6748,5.8965,1.206.6025,3.082-.2012,3.082-.2012s.8042-4.958.73731-5.1592S47.80961,101.1475,47.80961,101.1475Z" fill="#fff"/><rect x="88.28771" y="111.90885" width="0.47662" height="14.447" transform="translate(-59.74312 112.37706) rotate(-50.77569)" fill="#4464a4"/><rect x="89.8205" y="105.79271" width="0.47669" height="7.40287" transform="translate(-42.63802 159.40513) rotate(-71.17541)" fill="#4464a4"/><rect x="87.31975" y="87.64553" width="0.47649" height="21.58933" transform="translate(-10.64676 10.61822) rotate(-6.54295)" fill="#4464a4"/><rect x="42.37531" y="95.09279" width="24.88268" height="0.47606" transform="translate(-48.4499 133.13097) rotate(-80.20533)" fill="#4464a4"/><path d="M78.7061,114.5342H47.5127a1.83018,1.83018,0,0,1-1.8667-2.2109l3.64161-21.4805a2.74579,2.74579,0,0,1,2.61569-2.2109H83.0972a1.82947,1.82947,0,0,1,1.8662,2.2109l-3.6411,21.4805A2.74737,2.74737,0,0,1,78.7061,114.5342Z" fill="#4464a4"/><path d="M81.6084,113.5274s-5.9497-2.8369-6.8647-3.4776c-.9156-.6416-4.668-3.5703-4.9424-7.414a2.1422,2.1422,0,0,1,0-1.3731c.2744-.5498,7.5967,3.9356,7.5967,3.9356s-4.7593-6.041-4.3018-6.4981c.4575-.458,5.0342,3.6612,6.4985,4.668s3.11191,2.1963,3.11191,2.1963l2.19669,3.2031Z" fill="#fff"/><path d="M85.228,108.0049l-4.2612,5.5274,1.9634,1.0322a17.63233,17.63233,0,0,0,3.6255-6.2647Z" fill="#4464a4"/><path d="M63.8003,39.5371c.1187.7412.2749,1.4727.4409,2.2002.17341.7256.3535,1.4502.5933,2.1543a12.794,12.794,0,0,0,1.9775,3.9795,8.00464,8.00464,0,0,1-1.33639-1.8164,13.99961,13.99961,0,0,1-.87841-2.0859A17.2861,17.2861,0,0,1,63.8003,39.5371Z" fill="#4464a4"/><path d="M60.6914,40.5196c-.1186,1.1328-.208,2.2675-.292,3.4013-.0776,1.1348-.1543,2.2686-.17179,3.4043-.03671,1.1348-.04111,2.2715.02,3.4053a21.197,21.197,0,0,0,.40519,3.3789,22.274,22.274,0,0,1-.6748-6.791A45.8084,45.8084,0,0,1,60.6914,40.5196Z" fill="#4464a4"/><path d="M43.8008,106.2022l.4224,1.3174c.144.4365.2773.8759.4443,1.3027.1479.4326.3159.8584.5034,1.2744a8.42207,8.42207,0,0,0,.647,1.2129,6.60569,6.60569,0,0,1-1.3858-2.4033A12.108,12.108,0,0,1,43.8008,106.2022Z" fill="#4464a4"/><path d="M39.1631,108.7559a7.98633,7.98633,0,0,1,1.8257-3.8477,5.61379,5.61379,0,0,1,1.7305-1.2939,5.09934,5.09934,0,0,1,2.0898-.4619,6.17061,6.17061,0,0,0-2.0039.6347,5.831,5.831,0,0,0-1.6314,1.2881,8.507,8.507,0,0,0-1.1904,1.7256A11.32612,11.32612,0,0,0,39.1631,108.7559Z" fill="#4464a4"/><path d="M69.3555,102.8682c1.1572.4639,2.2715,1.0127,3.38911,1.5557,1.105.5683,2.21289,1.1298,3.27739,1.7783-1.1572-.4629-2.2715-1.0127-3.3887-1.5557C71.5283,104.0782,70.4209,103.5166,69.3555,102.8682Z" fill="#4464a4"/><path d="M69.3555,105.0908c1.1572.4629,2.2715,1.0127,3.38911,1.5547,1.105.5684,2.21289,1.1299,3.27739,1.7784-1.1572-.4629-2.2715-1.0118-3.3887-1.5547C71.5283,106.3008,70.4209,105.7383,69.3555,105.0908Z" fill="#4464a4"/></g></g></g></svg>