<svg width="111" height="42" viewBox="0 0 111 42" fill="none" xmlns="http://www.w3.org/2000/svg">
<g filter="url(#filter0_b)">
<rect width="111" height="42" rx="4" fill="black"/>
<rect x="0.5" y="0.5" width="110" height="41" rx="3.5" stroke="white"/>
</g>
<path d="M43.712 15.6H41.72L39.524 21.516L37.328 15.6H35.288L38.684 24.06H40.316L43.712 15.6ZM46.772 16.86V15.24H44.852V16.86H46.772ZM46.724 24V17.568H44.9V24H46.724ZM54.4371 20.964V20.94C54.4371 20.484 54.3731 20.048 54.2451 19.632C54.1251 19.208 53.9331 18.836 53.6691 18.516C53.4131 18.188 53.0891 17.928 52.6971 17.736C52.3051 17.544 51.8411 17.448 51.3051 17.448C50.8331 17.448 50.4011 17.536 50.0091 17.712C49.6251 17.888 49.2931 18.128 49.0131 18.432C48.7331 18.736 48.5131 19.092 48.3531 19.5C48.2011 19.908 48.1251 20.34 48.1251 20.796V20.82C48.1251 21.316 48.2091 21.768 48.3771 22.176C48.5451 22.576 48.7771 22.924 49.0731 23.22C49.3771 23.516 49.7331 23.744 50.1411 23.904C50.5571 24.064 51.0051 24.144 51.4851 24.144C52.0691 24.144 52.5771 24.04 53.0091 23.832C53.4411 23.616 53.8091 23.32 54.1131 22.944L53.0691 22.02C52.8131 22.252 52.5651 22.42 52.3251 22.524C52.0851 22.628 51.8131 22.68 51.5091 22.68C51.1011 22.68 50.7571 22.576 50.4771 22.368C50.2051 22.152 50.0251 21.836 49.9371 21.42H54.4131C54.4211 21.332 54.4251 21.256 54.4251 21.192C54.4331 21.128 54.4371 21.052 54.4371 20.964ZM52.6611 20.28H49.9131C49.9851 19.864 50.1371 19.532 50.3691 19.284C50.6091 19.036 50.9211 18.912 51.3051 18.912C51.6891 18.912 51.9971 19.04 52.2291 19.296C52.4611 19.544 52.6051 19.872 52.6611 20.28ZM65.0245 17.568H63.2125L62.1565 21.48L60.9325 17.544H59.3605L58.1485 21.468L57.1165 17.568H55.2685L57.2485 24.048H58.8805L60.1405 20.1L61.3765 24.048H63.0205L65.0245 17.568ZM71.6861 16.86V15.24H69.7661V16.86H71.6861ZM71.6381 24V17.568H69.8141V24H71.6381ZM79.2432 24V19.836C79.2432 19.092 79.0512 18.508 78.6672 18.084C78.2912 17.66 77.7552 17.448 77.0592 17.448C76.8272 17.448 76.6192 17.476 76.4352 17.532C76.2512 17.588 76.0832 17.664 75.9312 17.76C75.7792 17.856 75.6392 17.968 75.5112 18.096C75.3912 18.216 75.2792 18.344 75.1752 18.48V17.568H73.3512V24H75.1752V20.412C75.1752 19.98 75.2752 19.656 75.4752 19.44C75.6832 19.216 75.9632 19.104 76.3152 19.104C76.6672 19.104 76.9392 19.216 77.1312 19.44C77.3232 19.656 77.4192 19.98 77.4192 20.412V24H79.2432ZM92.8014 24L89.2014 15.54H87.4974L83.8974 24H85.7814L86.5494 22.116H90.1014L90.8694 24H92.8014ZM89.4414 20.484H87.2094L88.3254 17.76L89.4414 20.484ZM101.358 24L99.3058 21C99.8418 20.8 100.274 20.488 100.602 20.064C100.938 19.632 101.106 19.076 101.106 18.396V18.372C101.106 17.5 100.826 16.82 100.266 16.332C99.7138 15.844 98.9378 15.6 97.9378 15.6H94.0978V24H95.9458V21.312H97.3978L99.1978 24H101.358ZM99.2338 18.492C99.2338 18.852 99.1098 19.14 98.8618 19.356C98.6218 19.572 98.2738 19.68 97.8178 19.68H95.9458V17.268H97.7818C98.2378 17.268 98.5938 17.368 98.8498 17.568C99.1058 17.768 99.2338 18.068 99.2338 18.468V18.492Z" fill="white"/>
<g clip-path="url(#clip0)">
<path d="M19 16.8333C18.9492 16.8333 18.8983 16.8241 18.85 16.8058L13.4333 14.7224C13.2725 14.6608 13.1667 14.5058 13.1667 14.3333C13.1667 14.1608 13.2725 14.0058 13.4333 13.9441L18.85 11.8608C18.9467 11.8241 19.0525 11.8241 19.1492 11.8608L24.5658 13.9441C24.7275 14.0058 24.8333 14.1608 24.8333 14.3333C24.8333 14.5058 24.7275 14.6608 24.5667 14.7224L19.15 16.8058C19.1017 16.8241 19.0508 16.8333 19 16.8333ZM14.7442 14.3333L19 15.9699L23.2558 14.3333L19 12.6966L14.7442 14.3333Z" fill="white"/>
<path d="M19 23.5001C18.9492 23.5001 18.8983 23.4909 18.85 23.4726L13.4333 21.3892C13.2725 21.3276 13.1667 21.1726 13.1667 21.0001V14.3334C13.1667 14.1034 13.3533 13.9167 13.5833 13.9167C13.8133 13.9167 14 14.1034 14 14.3334V20.7142L19 22.6376L24 20.7142V14.3334C24 14.1034 24.1867 13.9167 24.4167 13.9167C24.6467 13.9167 24.8333 14.1034 24.8333 14.3334V21.0001C24.8333 21.1726 24.7275 21.3276 24.5667 21.3892L19.15 23.4726C19.1017 23.4909 19.0508 23.5001 19 23.5001Z" fill="white"/>
<path d="M19 23.5C18.77 23.5 18.5833 23.3133 18.5833 23.0833V16.4167C18.5833 16.1867 18.77 16 19 16C19.23 16 19.4167 16.1867 19.4167 16.4167V23.0833C19.4167 23.3133 19.23 23.5 19 23.5Z" fill="white"/>
<path d="M17.75 29.3333C17.6233 29.3333 17.4983 29.2758 17.4167 29.1666C17.2783 28.9825 17.3158 28.7217 17.5 28.5833L18.7217 27.6666L17.5 26.75C17.3158 26.6116 17.2783 26.3508 17.4167 26.1667C17.555 25.9825 17.8158 25.9458 18 26.0833L19.6667 27.3333C19.7717 27.4117 19.8333 27.5358 19.8333 27.6666C19.8333 27.7975 19.7717 27.9216 19.6667 28L18 29.25C17.925 29.3058 17.8375 29.3333 17.75 29.3333Z" fill="white"/>
<path d="M19 28.0833C17.74 28.0833 16.5475 28.0233 15.455 27.9058C13.9433 27.7533 9 27.105 9 25.1667C9 24.3758 9.81583 23.715 11.4233 23.2033C11.6875 23.1217 11.9708 23.3275 11.9708 23.6008C11.9708 23.8025 11.8308 23.9708 11.6408 24.0092C10.3075 24.4383 9.83333 24.9008 9.83333 25.1667C9.83333 25.7217 11.6042 26.68 15.5417 27.0767C16.6067 27.1917 17.7692 27.25 19 27.25C19.23 27.25 19.4167 27.4367 19.4167 27.6667C19.4167 27.8967 19.23 28.0833 19 28.0833Z" fill="white"/>
<path d="M21.9083 27.9583C21.6933 27.9583 21.5108 27.7933 21.4933 27.5758C21.475 27.3466 21.6458 27.1449 21.875 27.1266C26.1667 26.7758 28.1667 25.7499 28.1667 25.1666C28.1667 24.8983 27.6842 24.4308 26.3233 23.9974C26.1042 23.9274 25.9833 23.6933 26.0525 23.4741C26.1225 23.2549 26.3558 23.1341 26.5758 23.2033C28.1842 23.7149 29 24.3758 29 25.1666C29 27.2208 23.5983 27.8216 21.9425 27.9574C21.9308 27.9583 21.9192 27.9583 21.9083 27.9583Z" fill="white"/>
</g>
<defs>
<filter id="filter0_b" x="-10" y="-10" width="131" height="62" filterUnits="userSpaceOnUse" color-interpolation-filters="sRGB">
<feFlood flood-opacity="0" result="BackgroundImageFix"/>
<feGaussianBlur in="BackgroundImage" stdDeviation="5"/>
<feComposite in2="SourceAlpha" operator="in" result="effect1_backgroundBlur"/>
<feBlend mode="normal" in="SourceGraphic" in2="effect1_backgroundBlur" result="shape"/>
</filter>
<clipPath id="clip0">
<rect width="20" height="20" fill="white" transform="translate(9 11)"/>
</clipPath>
</defs>
</svg>
