<svg width="40" height="40" viewBox="0 0 40 40" fill="none" xmlns="http://www.w3.org/2000/svg">
<path d="M4.8291 6.96812L11.1516 17.964C11.7541 15.3338 13.4866 13.0961 15.7791 11.8885C17.729 10.8609 19.5315 10.9234 22.3215 10.9234C26.169 10.9209 33.2715 10.9259 37.809 10.9234C31.3664 -1.71759 14.1266 -3.85277 4.8291 6.96812Z" fill="white"/>
<path d="M19.9951 13.3516C16.3276 13.3491 13.3477 16.3343 13.3477 20.0021C13.3477 23.6699 16.3301 26.6527 19.9951 26.6527C23.6601 26.6527 26.6426 23.6699 26.6426 20.0021C26.6426 16.3343 23.6601 13.3516 19.9951 13.3516Z" fill="white"/>
<path d="M12.0844 24.4573C10.2595 21.3071 5.43447 12.9039 3.24448 9.08105C-4.43549 20.852 2.18199 36.8908 16.1219 39.6286L22.5719 28.7077C18.8419 29.8153 14.4744 28.5877 12.0844 24.4573Z" fill="white"/>
<path d="M38.8495 13.3457L26.167 13.3482C29.2745 16.2384 29.952 20.9188 27.847 24.5466C26.262 27.2818 21.1996 35.825 18.7471 39.9604C33.1096 40.8455 43.5795 26.7693 38.8495 13.3457Z" fill="white"/>
</svg>
