<svg width="33" height="36" viewBox="0 0 33 36" fill="none" xmlns="http://www.w3.org/2000/svg">
<path d="M32.5232 17.1575C32.5232 13.8983 31.8592 11.0744 30.5312 8.68581C29.1133 6.15567 27.2391 4.21733 24.9023 2.86864C22.5655 1.51995 19.9245 0.84668 16.9751 0.84668C15.0881 0.84668 13.3232 1.12113 11.6825 1.67005C10.0418 2.21896 8.61526 2.96942 7.40294 3.92144C6.19062 4.87345 5.12181 5.997 4.19651 7.29423C3.27121 8.59146 2.53654 9.97661 1.99464 11.4539C1.45648 12.921 1.08332 14.4516 0.878906 16.0498C1.65073 14.939 2.5271 13.9058 3.49825 12.9506C4.47924 11.9857 5.60374 11.0873 6.86747 10.2575C8.13119 9.4277 9.55555 8.76085 11.1448 8.25483C12.7341 7.7488 14.392 7.46577 16.1141 7.40144L16.5339 7.42503C16.8166 7.43789 17.1743 7.49364 17.607 7.58799C18.0396 7.68233 18.5194 7.81527 19.042 7.98037C19.5668 8.14547 20.0809 8.40706 20.5842 8.76514C21.0876 9.12108 21.5374 9.54777 21.9336 10.0388C22.3299 10.5298 22.6297 11.1795 22.8332 11.9836C23.0388 12.7876 23.0902 13.6818 22.9874 14.6659H10.83C11.0335 13.4652 11.3269 12.4446 11.7103 11.6083C12.0937 10.7721 12.5906 9.97017 13.2032 9.20256C10.5108 10.4548 8.43534 12.168 6.98099 14.34C5.52663 16.5121 4.81766 19.143 4.85622 22.2349C4.88192 24.7393 5.67657 27.1193 7.24016 29.3664C8.80375 31.6135 10.7914 33.2045 13.2032 34.1372C15.0046 34.8277 17.0201 35.1665 19.2541 35.1536C21.4881 35.1407 23.4822 34.8963 25.2364 34.4246C26.9906 33.9528 28.4557 33.3653 29.6295 32.662V25.4362C28.6977 26.088 27.5904 26.6262 26.3074 27.055C25.0244 27.4838 23.6985 27.7819 22.3256 27.947C20.9526 28.1121 19.5947 28.0928 18.2474 27.8891C16.9001 27.6854 15.69 27.3209 14.619 26.7977C13.5481 26.2745 12.6763 25.4919 12.0059 24.4498C11.3355 23.4078 10.9949 22.177 10.9821 20.7597H32.5232V17.1575Z" fill="white"/>
<path d="M0.856445 16.0828H0.875455C0.876841 16.0718 0.878425 16.0609 0.879877 16.0498C0.872154 16.0609 0.864168 16.0717 0.856445 16.0828Z" fill="#DCB443"/>
</svg>
