<svg width="41" height="40" viewBox="0 0 41 40" fill="none" xmlns="http://www.w3.org/2000/svg">
<path d="M38.0498 14.5153C37.9205 14.4952 37.7936 14.565 37.7397 14.6857L37.3412 15.5785C37.1898 14.4049 36.9091 12.5159 36.5383 11.2773C35.9733 9.37014 34.7766 8.13718 34.7259 8.08554C34.6343 7.9923 34.493 7.97162 34.3788 8.03472C34.2648 8.09783 34.2057 8.2296 34.234 8.35794L34.5436 9.77005C33.7985 8.98228 32.6015 7.85155 31.417 7.30036C31.1322 7.15985 30.8427 7.03104 30.5892 6.91995C28.0157 4.6065 24.7155 3.33301 21.291 3.33301C16.4683 3.33301 12.073 5.77799 9.47061 9.89036C9.22574 9.69016 8.88243 9.34 8.68567 8.83526C8.32788 7.94751 8.14665 6.9502 8.14479 6.94028C8.12552 6.83321 8.04985 6.74552 7.94756 6.71196C7.8455 6.67839 7.73317 6.70439 7.65551 6.77967C5.51088 8.86091 5.72375 12.1056 5.80374 12.841C5.53797 13.1283 4.78678 13.9801 4.02788 15.2091C3.08553 16.7361 2.80025 19.4055 2.78869 19.5183C2.77573 19.6443 2.84334 19.7646 2.95696 19.8176C3.07105 19.8705 3.20522 19.8441 3.29093 19.7522L3.91858 19.0812C3.85015 19.338 3.78125 19.6307 3.71761 19.9585C3.43491 21.3737 3.51758 23.5689 3.5212 23.6616C3.52657 23.7976 3.62291 23.9123 3.75475 23.9394C3.88646 23.9668 4.01947 23.8991 4.07692 23.776L4.44627 22.9846C4.71858 24.9111 5.76404 29.0103 9.7727 32.7864C12.7417 35.5853 16.8713 37.1908 21.1025 37.191C21.103 37.191 21.1031 37.191 21.1035 37.191C25.2102 37.191 29.0877 35.7046 32.3162 32.8927C36.1337 29.5643 37.5559 24.8112 38.0766 21.4098C38.6387 17.7376 38.3097 14.8913 38.2953 14.7719C38.2798 14.6403 38.1795 14.5353 38.0498 14.5153ZM31.5316 14.6222C31.5356 14.6274 31.9317 15.1524 32.0181 16.4975C32.0777 17.5041 31.8735 19.1139 31.7447 19.9947L30.9669 19.0813C30.883 18.9827 30.7455 18.9511 30.6278 19.0039C30.5102 19.0565 30.4405 19.1807 30.456 19.3097C30.4587 19.3324 30.7238 21.6068 30.2779 23.5837C30.0667 24.5127 29.7364 25.1805 29.453 25.6212L29.5617 24.1321C29.5721 23.9892 29.4798 23.8595 29.3426 23.8241C29.2053 23.7886 29.0628 23.8579 29.0046 23.9885C28.9915 24.018 27.6432 26.9474 23.9508 28.1073C23.4351 28.268 22.892 28.3495 22.3364 28.3495C20.3684 28.3497 18.5801 27.3334 17.5664 26.6194C17.6536 26.6239 17.7404 26.6261 17.8267 26.6261C19.2788 26.6261 20.3954 25.9931 21.293 25.4843C21.5287 25.3507 21.7514 25.2244 21.9657 25.1173C23.2554 24.4609 23.855 24.4058 24.3157 24.4058C24.5591 24.4058 24.7467 24.262 24.8056 24.0306C24.9498 23.4626 24.2751 22.4503 23.4419 21.9861C23.0287 21.7587 22.5868 21.6529 22.0516 21.6529C21.2001 21.6529 20.1444 21.9247 18.6321 22.339C18.3545 22.4139 18.0804 22.452 17.8175 22.452C16.8908 22.4521 16.278 21.9984 15.9271 21.6178C15.4548 21.1056 15.1859 20.4288 15.2255 19.8516C15.2435 19.5884 15.3453 19.3193 15.9641 19.3193C16.513 19.3193 17.1231 19.5483 17.1291 19.5505C17.1624 19.5632 17.1973 19.5695 17.232 19.5695C17.2326 19.5695 17.2334 19.5695 17.2342 19.5695C17.3955 19.5695 17.5261 19.4373 17.5261 19.2741C17.5261 19.2581 17.5248 19.2424 17.5225 19.2271L17.4409 16.6392C17.7357 16.4489 18.4413 15.986 19.1195 15.487C20.7602 14.28 20.98 13.8184 20.8044 13.4677C20.5718 12.9903 19.9595 12.9128 19.2506 12.8229C18.8449 12.7715 18.3852 12.7133 17.97 12.5742C17.1049 12.2832 16.535 11.5274 16.4052 11.3416C16.3784 11.1861 16.3141 10.6621 16.5681 10.2148C16.843 9.72585 17.7937 8.96892 18.1368 8.71838C18.2349 8.64689 18.2793 8.5215 18.2484 8.4032C18.2174 8.28502 18.1177 8.19816 17.9975 8.18505C17.9681 8.18174 17.0959 8.09358 15.6712 8.57102C14.5112 8.96431 13.6115 9.60177 13.3014 9.83824C13.1681 9.81177 12.9398 9.77525 12.5616 9.73578C14.7832 7.19684 17.9342 5.75152 21.2914 5.75152C23.7554 5.75152 26.0835 6.50987 28.0656 7.95176L26.1029 8.28396C25.9696 8.30653 25.869 8.4188 25.8598 8.55518C25.8506 8.69168 25.9352 8.81671 26.0641 8.85748C26.0903 8.86575 28.7041 9.70198 30.6544 11.2235C31.0885 11.5673 31.4853 12.0125 31.8343 12.547C32.1597 13.253 32.4144 13.981 32.5948 14.7199L31.9386 14.2039C31.822 14.1123 31.6576 14.1244 31.5537 14.2302C31.4492 14.3357 31.4406 14.5049 31.5316 14.6222Z" fill="white"/>
</svg>
