<svg width="24" height="24" viewBox="0 0 24 24" fill="none" xmlns="http://www.w3.org/2000/svg">
<g clip-path="url(#clip0)">
<path d="M23.6709 2.72364C23.1396 1.66066 22.0706 1 20.8814 1H11.1923C9.33706 1 7.56627 1.79491 6.33364 3.18166L1.63855 8.46292C0.579315 9.65383 -0.00381025 11.1875 8.03789e-05 12.8457L0.836143 19.2989H0.836612C0.956237 20.2237 1.38552 21.0963 2.04528 21.7559C2.84764 22.5582 3.91424 23.0001 5.04917 23.0001H21.9997C23.103 23 24.0001 22.103 24.0001 21V4.11817C24.0001 3.63672 23.8863 3.15433 23.6709 2.72364ZM23.0001 21H23.0001C23.0001 21.5513 22.5514 22 22.0001 22H5.05231C4.18513 22 3.36922 21.6621 2.75591 21.0488C2.25153 20.5444 1.92341 19.8774 1.8321 19.1699L1.00006 12.7812C1.00006 11.4326 1.49371 10.1352 2.38921 9.12695L7.0836 3.84573C8.12656 2.67287 9.62511 2.00003 11.1944 2.00003H20.882C21.6896 2.00003 22.4157 2.44877 22.7765 3.17092C22.923 3.46342 23.0001 3.79103 23.0001 4.11817V21Z" fill="black"/>
<path d="M21.8818 3.61814C21.6918 3.23681 21.3085 3 20.8818 3H11.1943C9.91066 3 8.68455 3.55031 7.83105 4.51027L3.13619 9.79148C2.54636 10.456 1.99994 11.2441 1.99994 12.5C1.99994 12.7763 2.22358 13 2.49995 13H21.4999C21.7763 13 22 12.7763 22 12.5V4.11816C22 3.94528 21.9589 3.77245 21.8818 3.61814ZM21 12H21H3.04C3.13178 11.4707 3.38814 11.0142 3.88375 10.4556L8.5781 5.17481C9.24217 4.42823 10.1958 3.99998 11.1943 3.99998H20.8818C20.9283 3.99998 20.9668 4.02342 21 4.11816V12Z" fill="black"/>
<path d="M21.5 15H18.5C18.2236 15 18 15.2236 18 15.5C18 15.7764 18.2236 16 18.5 16H21.5C21.7764 16 22 15.7764 22 15.5C22 15.2236 21.7764 15 21.5 15Z" fill="black"/>
<path d="M21.5 18H3.50002C3.22364 18 3 18.2236 3 18.5C3 18.7764 3.22364 19 3.50002 19H21.5C21.7764 19 22 18.7764 22 18.5C22 18.2236 21.7764 18 21.5 18Z" fill="black"/>
</g>
<defs>
<clipPath id="clip0">
<rect width="24" height="24" fill="white"/>
</clipPath>
</defs>
</svg>
