<svg width="30" height="30" viewBox="0 0 30 30" fill="none" xmlns="http://www.w3.org/2000/svg">
<path d="M15.8981 6.26929C16.4774 8.05708 17.168 11.0328 17.168 15.0565C17.168 16.2751 17.1046 17.4767 16.9796 18.6282C16.91 19.2716 16.3323 19.7367 15.6882 19.6669C15.0449 19.5971 14.5798 19.0187 14.6496 18.3753C14.7654 17.3076 14.8242 16.1909 14.8242 15.0565C14.8242 11.3388 14.1957 8.61899 13.6684 6.99187C13.5493 6.62428 13.2907 6.33108 12.9401 6.16652C12.586 6.00012 12.1905 5.98868 11.8261 6.13402C10.109 6.81883 7.64259 7.96919 5.6424 9.56038C3.4536 11.3015 2.34375 13.1508 2.34375 15.0565C2.34375 16.9624 3.4536 18.8118 5.6424 20.5529C7.64259 22.1438 10.109 23.2944 11.8261 23.9792C12.1902 24.1246 12.586 24.1131 12.9401 23.9467C13.2907 23.7822 13.5493 23.489 13.6684 23.1214C13.868 22.5057 14.5287 22.1683 15.1444 22.3679C15.7601 22.5673 16.0975 23.2283 15.8981 23.844C15.5816 24.8208 14.8663 25.6318 13.9362 26.0685C13.4351 26.3035 12.8904 26.4219 12.3452 26.4219C11.8739 26.4219 11.4022 26.3335 10.9577 26.1564C6.86531 24.5238 0 20.9111 0 15.0565C0 9.20218 6.86531 5.58951 10.9577 3.95689C11.9167 3.57443 13.0023 3.60647 13.9362 4.04478C14.8663 4.48149 15.5816 5.29242 15.8981 6.26929ZM28.8453 19.5682H19.9805C19.4099 19.5682 18.9226 19.9839 18.8367 20.5481C18.8351 20.5586 18.8335 20.5694 18.8319 20.5801C18.7246 21.2805 19.2643 21.912 19.9729 21.912H28.8451C29.483 21.912 30 21.3952 30 20.7573V20.7232C30 20.0853 29.483 19.5682 28.8453 19.5682ZM28.8453 13.8846H20.6664C20.0267 13.8846 19.5115 14.4049 19.5117 15.0448V15.0565V15.0684C19.5115 15.7084 20.0267 16.2284 20.6664 16.2284H28.8453C29.483 16.2284 30 15.7116 30 15.0737V15.0396C30 14.4017 29.483 13.8846 28.8453 13.8846ZM28.8453 8.02527H19.9164C19.2057 8.02527 18.6655 8.66064 18.7761 9.36262C18.7777 9.37178 18.7791 9.38093 18.7804 9.39009C18.869 9.95314 19.352 10.369 19.9219 10.369H28.8453C29.483 10.369 30 9.8522 30 9.21431V9.1802C30 8.54231 29.483 8.02527 28.8453 8.02527Z" fill="#C3002F"/>
<path d="M1.5 1.5L28.5 28.5" stroke="#C3002F" stroke-width="2" stroke-linecap="round"/>
</svg>
