<svg width="30" height="24" viewBox="0 0 30 24" fill="none" xmlns="http://www.w3.org/2000/svg">
<path d="M15.8981 3.26929C16.4774 5.05708 17.168 8.03277 17.168 12.0565C17.168 13.2751 17.1046 14.4767 16.9796 15.6282C16.91 16.2716 16.3323 16.7367 15.6882 16.6669C15.0449 16.5971 14.5798 16.0187 14.6496 15.3753C14.7654 14.3076 14.8242 13.1909 14.8242 12.0565C14.8242 8.33879 14.1957 5.61899 13.6684 3.99187C13.5493 3.62428 13.2907 3.33108 12.9401 3.16652C12.586 3.00012 12.1905 2.98868 11.8261 3.13402C10.109 3.81883 7.64259 4.96919 5.6424 6.56038C3.4536 8.30148 2.34375 10.1508 2.34375 12.0565C2.34375 13.9624 3.4536 15.8118 5.6424 17.5529C7.64259 19.1438 10.109 20.2944 11.8261 20.9792C12.1902 21.1246 12.586 21.1131 12.9401 20.9467C13.2907 20.7822 13.5493 20.489 13.6684 20.1214C13.868 19.5057 14.5287 19.1683 15.1444 19.3679C15.7601 19.5673 16.0975 20.2283 15.8981 20.844C15.5816 21.8208 14.8663 22.6318 13.9362 23.0685C13.4351 23.3035 12.8904 23.4219 12.3452 23.4219C11.8739 23.4219 11.4022 23.3335 10.9577 23.1564C6.86531 21.5238 0 17.9111 0 12.0565C0 6.20218 6.86531 2.58951 10.9577 0.956892C11.9167 0.574431 13.0023 0.606474 13.9362 1.04478C14.8663 1.48149 15.5816 2.29242 15.8981 3.26929ZM28.8453 16.5682H19.9805C19.4099 16.5682 18.9226 16.9839 18.8367 17.5481C18.8351 17.5586 18.8335 17.5694 18.8319 17.5801C18.7246 18.2805 19.2643 18.912 19.9729 18.912H28.8451C29.483 18.912 30 18.3952 30 17.7573V17.7232C30 17.0853 29.483 16.5682 28.8453 16.5682ZM28.8453 10.8846H20.6664C20.0267 10.8846 19.5115 11.4049 19.5117 12.0448V12.0565V12.0684C19.5115 12.7084 20.0267 13.2284 20.6664 13.2284H28.8453C29.483 13.2284 30 12.7116 30 12.0737V12.0396C30 11.4017 29.483 10.8846 28.8453 10.8846ZM28.8453 5.02527H19.9164C19.2057 5.02527 18.6655 5.66064 18.7761 6.36262C18.7777 6.37178 18.7791 6.38093 18.7804 6.39009C18.869 6.95314 19.352 7.36902 19.9219 7.36902H28.8453C29.483 7.36902 30 6.8522 30 6.21431V6.1802C30 5.54231 29.483 5.02527 28.8453 5.02527Z" fill="#C3002F"/>
</svg>
