<svg width="20" height="20" viewBox="0 0 20 20" fill="none" xmlns="http://www.w3.org/2000/svg">
<g clip-path="url(#clip0)">
<path d="M9.99999 5.83328C9.94916 5.83328 9.89832 5.82412 9.84999 5.80578L4.43332 3.72245C4.27249 3.66078 4.16666 3.50578 4.16666 3.33328C4.16666 3.16078 4.27249 3.00578 4.43332 2.94412L9.84999 0.860782C9.94666 0.824116 10.0525 0.824116 10.1492 0.860782L15.5658 2.94412C15.7275 3.00578 15.8333 3.16078 15.8333 3.33328C15.8333 3.50578 15.7275 3.66078 15.5667 3.72245L10.15 5.80578C10.1017 5.82412 10.0508 5.83328 9.99999 5.83328ZM5.74416 3.33328L9.99999 4.96995L14.2558 3.33328L9.99999 1.69662L5.74416 3.33328Z" fill="white"/>
<path d="M9.99999 12.5001C9.94916 12.5001 9.89832 12.4909 9.84999 12.4726L4.43332 10.3892C4.27249 10.3276 4.16666 10.1726 4.16666 10.0001V3.33338C4.16666 3.10338 4.35332 2.91672 4.58332 2.91672C4.81332 2.91672 4.99999 3.10338 4.99999 3.33338V9.71422L9.99999 11.6376L15 9.71422V3.33338C15 3.10338 15.1867 2.91672 15.4167 2.91672C15.6467 2.91672 15.8333 3.10338 15.8333 3.33338V10.0001C15.8333 10.1726 15.7275 10.3276 15.5667 10.3892L10.15 12.4726C10.1017 12.4909 10.0508 12.5001 9.99999 12.5001Z" fill="white"/>
<path d="M10 12.5C9.77001 12.5 9.58334 12.3133 9.58334 12.0833V5.41667C9.58334 5.18667 9.77001 5 10 5C10.23 5 10.4167 5.18667 10.4167 5.41667V12.0833C10.4167 12.3133 10.23 12.5 10 12.5Z" fill="white"/>
<path d="M8.74998 18.3333C8.62332 18.3333 8.49832 18.2758 8.41665 18.1666C8.27832 17.9825 8.31582 17.7217 8.49998 17.5833L9.72165 16.6666L8.49998 15.75C8.31582 15.6116 8.27832 15.3508 8.41665 15.1667C8.55499 14.9825 8.81582 14.9458 8.99998 15.0833L10.6667 16.3333C10.7717 16.4117 10.8333 16.5358 10.8333 16.6666C10.8333 16.7975 10.7717 16.9216 10.6667 17L8.99998 18.25C8.92498 18.3058 8.83748 18.3333 8.74998 18.3333Z" fill="white"/>
<path d="M10 17.0833C8.74 17.0833 7.5475 17.0233 6.455 16.9058C4.94333 16.7533 0 16.105 0 14.1667C0 13.3758 0.815833 12.715 2.42333 12.2033C2.6875 12.1217 2.97083 12.3275 2.97083 12.6008C2.97083 12.8025 2.83083 12.9708 2.64083 13.0092C1.3075 13.4383 0.833333 13.9008 0.833333 14.1667C0.833333 14.7217 2.60417 15.68 6.54167 16.0767C7.60667 16.1917 8.76917 16.25 10 16.25C10.23 16.25 10.4167 16.4367 10.4167 16.6667C10.4167 16.8967 10.23 17.0833 10 17.0833Z" fill="white"/>
<path d="M12.9083 16.9583C12.6933 16.9583 12.5108 16.7933 12.4933 16.5758C12.475 16.3466 12.6458 16.1449 12.875 16.1266C17.1667 15.7758 19.1667 14.7499 19.1667 14.1666C19.1667 13.8983 18.6842 13.4308 17.3233 12.9974C17.1042 12.9274 16.9833 12.6933 17.0525 12.4741C17.1225 12.2549 17.3558 12.1341 17.5758 12.2033C19.1842 12.7149 20 13.3758 20 14.1666C20 16.2208 14.5983 16.8216 12.9425 16.9574C12.9308 16.9583 12.9192 16.9583 12.9083 16.9583Z" fill="white"/>
</g>
<defs>
<clipPath id="clip0">
<rect width="20" height="20" fill="white"/>
</clipPath>
</defs>
</svg>
