<svg width="30" height="30" viewBox="0 0 30 30" fill="none" xmlns="http://www.w3.org/2000/svg">
<g clip-path="url(#clip0)">
<path d="M15 0C13.067 0 11.5 1.567 11.5 3.5C11.5022 5.43206 13.0679 6.99781 15 7C16.933 7 18.5 5.433 18.5 3.5C18.5 1.567 16.933 0 15 0ZM15 6C13.6193 6 12.5 4.88069 12.5 3.5C12.5016 2.12 13.62 1.00162 15 1C16.3807 1 17.5 2.11931 17.5 3.5C17.5 4.88069 16.3807 6 15 6Z" fill="#C3002F"/>
<path d="M16.5 7.5H13.5C11.0159 7.50275 9.00275 9.51588 9 12V20.5H11V30H12V18.5H11V19.5H10V12C10.0022 10.0679 11.5679 8.50219 13.5 8.5H16.5C18.4321 8.50219 19.9978 10.0679 20 12V19.5H19V18.5H18V30H19V20.5H21V12C20.9972 9.51588 18.9841 7.50275 16.5 7.5Z" fill="#C3002F"/>
<path d="M15.5 20.5H14.5V30H15.5V20.5Z" fill="#C3002F"/>
<path d="M25 5C23.3431 5 22 6.34312 22 8C22.0016 9.65619 23.3438 10.9984 25 11C26.6569 11 28 9.65688 28 8C28 6.34312 26.6569 5 25 5ZM25 10C23.8954 10 23 9.10456 23 8C23 6.89544 23.8954 6 25 6C26.1046 6 27 6.89544 27 8C27 9.10456 26.1046 10 25 10Z" fill="#C3002F"/>
<path d="M26.5 11.5H22V12.5H26.5C27.88 12.5016 28.9984 13.62 29 15V21.5H28V20.5H27V30H28V22.5H30V15C29.9978 13.0679 28.4321 11.5022 26.5 11.5Z" fill="#C3002F"/>
<path d="M22 20.5V21.5H20V22.5H22V30H23V20.5H22Z" fill="#C3002F"/>
<path d="M25.5 22.5H24.5V30H25.5V22.5Z" fill="#C3002F"/>
<path d="M5 5C3.34312 5 2 6.34312 2 8C2.00163 9.65619 3.34381 10.9984 5 11C6.65688 11 8 9.65688 8 8C8 6.34312 6.65688 5 5 5ZM5 10C3.89544 10 3 9.10456 3 8C3 6.89544 3.89544 6 5 6C6.10456 6 7 6.89544 7 8C7 9.10456 6.10456 10 5 10Z" fill="#C3002F"/>
<path d="M3.5 11.5C1.56794 11.5022 0.0021875 13.0679 0 15V22.5H2V30H3V20.5H2V21.5H1V15C1.00162 13.62 2.12 12.5016 3.5 12.5H8V11.5H3.5Z" fill="#C3002F"/>
<path d="M8 21.5V20.5H7V30H8V22.5H10V21.5H8Z" fill="#C3002F"/>
<path d="M5.5 22.5H4.5V30H5.5V22.5Z" fill="#C3002F"/>
</g>
<defs>
<clipPath id="clip0">
<rect width="30" height="30" fill="white"/>
</clipPath>
</defs>
</svg>
