<svg width="24" height="24" viewBox="0 0 24 24" fill="none" xmlns="http://www.w3.org/2000/svg">
<path d="M12 23.3512C9.75489 23.3512 7.56022 22.6855 5.6935 21.4382C3.82678 20.1909 2.37185 18.418 1.5127 16.3438C0.653539 14.2696 0.428744 11.9873 0.866739 9.78532C1.30473 7.58337 2.38584 5.56075 3.97336 3.97324C5.56087 2.38572 7.58349 1.30461 9.78544 0.866617C11.9874 0.428622 14.2698 0.653417 16.3439 1.51257C18.4181 2.37173 20.191 3.82666 21.4383 5.69338C22.6856 7.5601 23.3513 9.75477 23.3513 11.9999C23.3479 15.0094 22.1508 17.8946 20.0228 20.0227C17.8948 22.1507 15.0095 23.3478 12 23.3512ZM12 1.29715C9.88318 1.29715 7.81392 1.92485 6.05387 3.10088C4.29382 4.27691 2.92203 5.94845 2.11197 7.90411C1.30191 9.85977 1.08996 12.0117 1.50292 14.0879C1.91589 16.164 2.93522 18.071 4.43202 19.5678C5.92882 21.0646 7.83586 22.0839 9.91198 22.4969C11.9881 22.9099 14.1401 22.6979 16.0957 21.8879C18.0514 21.0778 19.7229 19.706 20.8989 17.946C22.075 16.1859 22.7027 14.1167 22.7027 11.9999C22.6995 9.1623 21.5709 6.44187 19.5644 4.43541C17.558 2.42895 14.8375 1.30033 12 1.29715Z" fill="white"/>
<path d="M12 21.0812C10.204 21.0812 8.44823 20.5486 6.95485 19.5507C5.46148 18.5529 4.29753 17.1346 3.61021 15.4753C2.92288 13.8159 2.74304 11.99 3.09344 10.2285C3.44384 8.4669 4.30872 6.84881 5.57874 5.5788C6.84875 4.30879 8.46684 3.4439 10.2284 3.0935C11.99 2.74311 13.8159 2.92294 15.4752 3.61027C17.1346 4.29759 18.5528 5.46154 19.5507 6.95491C20.5485 8.44829 21.0811 10.204 21.0811 12.0001C21.0784 14.4077 20.1208 16.716 18.4184 18.4184C16.7159 20.1209 14.4077 21.0785 12 21.0812ZM12 3.56766C10.3323 3.56766 8.70193 4.06221 7.31522 4.98878C5.92852 5.91535 4.84771 7.23231 4.20948 8.77314C3.57125 10.314 3.40426 12.0094 3.72962 13.6452C4.05499 15.2809 4.8581 16.7834 6.0374 17.9627C7.2167 19.142 8.71921 19.9451 10.3549 20.2705C11.9907 20.5959 13.6862 20.4289 15.227 19.7906C16.7678 19.1524 18.0848 18.0716 19.0113 16.6849C19.9379 15.2982 20.4325 13.6679 20.4325 12.0001C20.43 9.76444 19.5408 7.62106 17.9599 6.04021C16.3791 4.45936 14.2357 3.57015 12 3.56766Z" fill="white"/>
<path d="M13.9459 20.8605C13.8599 20.8605 13.7774 20.8264 13.7166 20.7656C13.6558 20.7047 13.6216 20.6222 13.6216 20.5362V18.1622C13.6233 16.6144 14.2389 15.1305 15.3333 14.0361C16.4278 12.9417 17.9117 12.3261 19.4594 12.3243H20.7308C20.8168 12.3243 20.8993 12.3585 20.9601 12.4193C21.0209 12.4802 21.0551 12.5626 21.0551 12.6487C21.0551 12.7347 21.0209 12.8172 20.9601 12.878C20.8993 12.9388 20.8168 12.973 20.7308 12.973H19.4594C18.0836 12.9745 16.7646 13.5217 15.7918 14.4946C14.819 15.4674 14.2718 16.7864 14.2702 18.1622V20.5362C14.2702 20.6222 14.2361 20.7047 14.1752 20.7656C14.1144 20.8264 14.0319 20.8605 13.9459 20.8605Z" fill="white"/>
<path d="M10.0541 20.8605C9.96806 20.8605 9.88557 20.8264 9.82474 20.7656C9.76392 20.7047 9.72975 20.6222 9.72975 20.5362V18.1622C9.72821 16.7864 9.18099 15.4674 8.20817 14.4946C7.23534 13.5217 5.91635 12.9745 4.54056 12.973H3.26921C3.18319 12.973 3.1007 12.9388 3.03988 12.878C2.97906 12.8172 2.94489 12.7347 2.94489 12.6487C2.94489 12.5626 2.97906 12.4802 3.03988 12.4193C3.1007 12.3585 3.18319 12.3243 3.26921 12.3243H4.54056C6.08833 12.3261 7.57221 12.9417 8.66664 14.0361C9.76108 15.1305 10.3767 16.6144 10.3784 18.1622V20.5362C10.3784 20.6222 10.3442 20.7047 10.2834 20.7656C10.2226 20.8264 10.1401 20.8605 10.0541 20.8605Z" fill="white"/>
<path d="M20.5362 10.3784C20.5041 10.3784 20.4722 10.3735 20.4415 10.3641C14.9424 8.66167 9.05701 8.66167 3.55786 10.3641C3.51685 10.3775 3.47356 10.3826 3.43055 10.3791C3.38754 10.3755 3.34567 10.3634 3.30739 10.3435C3.2691 10.3236 3.23518 10.2963 3.2076 10.2631C3.18003 10.2299 3.15935 10.1915 3.14679 10.1502C3.13423 10.1089 3.13004 10.0655 3.13445 10.0226C3.13887 9.97969 3.15181 9.93808 3.17252 9.90021C3.19322 9.86235 3.22127 9.829 3.25503 9.80212C3.28879 9.77523 3.32757 9.75535 3.36911 9.74365C8.99113 8.00261 15.0083 8.00261 20.6303 9.74365C20.7047 9.76621 20.7686 9.81477 20.8102 9.88047C20.8518 9.94617 20.8684 10.0246 20.857 10.1016C20.8456 10.1785 20.807 10.2488 20.7481 10.2996C20.6892 10.3504 20.614 10.3783 20.5362 10.3784Z" fill="white"/>
<path d="M12 14.0677C11.5378 14.0672 11.0947 13.8834 10.7679 13.5566C10.4411 13.2298 10.2573 12.7867 10.2568 12.3245V10.9056C10.2568 10.8195 10.2909 10.7371 10.3518 10.6762C10.4126 10.6154 10.4951 10.5812 10.5811 10.5812H13.4189C13.5049 10.5812 13.5874 10.6154 13.6483 10.6762C13.7091 10.7371 13.7433 10.8195 13.7433 10.9056V12.3245C13.7427 12.7867 13.5589 13.2298 13.2321 13.5566C12.9053 13.8834 12.4622 14.0672 12 14.0677ZM10.9054 11.2299V12.3245C10.9054 12.6148 11.0207 12.8932 11.226 13.0985C11.4313 13.3038 11.7097 13.4191 12 13.4191C12.2903 13.4191 12.5687 13.3038 12.774 13.0985C12.9793 12.8932 13.0946 12.6148 13.0946 12.3245V11.2299H10.9054Z" fill="white"/>
</svg>
