<?xml version="1.0" standalone="no"?>
<!DOCTYPE svg PUBLIC "-//W3C//DTD SVG 1.1//EN" "http://www.w3.org/Graphics/SVG/1.1/DTD/svg11.dtd" >
<svg>
<metadata>
Created by FontForge 20090622 at Thu Jun 11 10:42:16 2020
 By deploy user
Copyright 2015 Dalton Maag Ltd. Modification of this file requires prior written permission from Dalton Maag Ltd.
</metadata>
<defs>
<font id="AktivGroteskEx-Light" horiz-adv-x="492" >
  <font-face 
    font-family="Aktiv Grotesk Ex Light"
    font-weight="300"
    font-stretch="expanded"
    units-per-em="1000"
    panose-1="2 11 4 4 2 2 3 2 2 4"
    ascent="714"
    descent="-286"
    x-height="515"
    cap-height="714"
    bbox="-209 -213 1479 930"
    underline-thickness="68"
    underline-position="-65"
    unicode-range="U+0008-U+FEFF"
  />
<missing-glyph horiz-adv-x="610" 
d="M65 0v750h480v-750h-480zM495 700h-380v-650h380v650z" />
    <glyph glyph-name="f_f" unicode="ff" horiz-adv-x="798" 
d="M127 0v465h-102v50h102v52q0 73 47.5 114t132.5 41q51 0 96 -14l-12 -49q-37 10 -75 10q-126 0 -126 -102v-52h185v-50h-185v-465h-63zM526 0v465h-102v50h102v52q0 73 47.5 114t132.5 41q51 0 96 -14l-12 -49q-37 10 -75 10q-126 0 -126 -102v-52h185v-50h-185v-465h-63
z" />
    <glyph glyph-name="f_i" unicode="fi" horiz-adv-x="632" 
d="M127 0v465h-102v50h102v52q0 73 47.5 114t132.5 41q51 0 96 -14l-12 -49q-37 10 -75 10q-126 0 -126 -102v-52h185v-50h-185v-465h-63zM484 0v515h63v-515h-63zM482 616v98h67v-98h-67z" />
    <glyph glyph-name="f_l" unicode="fl" horiz-adv-x="632" 
d="M127 0v465h-102v50h102v52q0 73 47.5 114t132.5 41q51 0 96 -14l-12 -49q-37 10 -75 10q-126 0 -126 -102v-52h185v-50h-185v-465h-63zM484 0v714h63v-714h-63z" />
    <glyph glyph-name="f_f_i" unicode="ffi" horiz-adv-x="1031" 
d="M127 0v465h-102v50h102v52q0 73 47.5 114t132.5 41q51 0 96 -14l-12 -49q-37 10 -75 10q-126 0 -126 -102v-52h185v-50h-185v-465h-63zM526 0v465h-102v50h102v52q0 73 47.5 114t132.5 41q51 0 96 -14l-12 -49q-37 10 -75 10q-126 0 -126 -102v-52h185v-50h-185v-465h-63
zM883 0v515h63v-515h-63zM881 616v98h67v-98h-67z" />
    <glyph glyph-name="f_f_l" unicode="ffl" horiz-adv-x="1031" 
d="M127 0v465h-102v50h102v52q0 73 47.5 114t132.5 41q51 0 96 -14l-12 -49q-37 10 -75 10q-126 0 -126 -102v-52h185v-50h-185v-465h-63zM526 0v465h-102v50h102v52q0 73 47.5 114t132.5 41q51 0 96 -14l-12 -49q-37 10 -75 10q-126 0 -126 -102v-52h185v-50h-185v-465h-63
zM883 0v714h63v-714h-63z" />
    <glyph glyph-name=".notdef" horiz-adv-x="610" 
d="M65 0v750h480v-750h-480zM495 700h-380v-650h380v650z" />
    <glyph glyph-name=".null" horiz-adv-x="0" 
 />
    <glyph glyph-name=".null" horiz-adv-x="0" 
 />
    <glyph glyph-name=".null" horiz-adv-x="0" 
 />
    <glyph glyph-name="nonmarkingreturn" unicode="&#x9;" horiz-adv-x="281" 
 />
    <glyph glyph-name="nonmarkingreturn" unicode="&#xd;" horiz-adv-x="281" 
 />
    <glyph glyph-name="space" unicode=" " horiz-adv-x="281" 
 />
    <glyph glyph-name="period" unicode="." horiz-adv-x="234" 
d="M82 0v110h70v-110h-70z" />
    <glyph glyph-name="colon" unicode=":" horiz-adv-x="234" 
d="M82 0v110h70v-110h-70zM82 405v110h70v-110h-70z" />
    <glyph glyph-name="comma" unicode="," horiz-adv-x="234" 
d="M52 -92l38 202h68l-54 -202h-52z" />
    <glyph glyph-name="semicolon" unicode=";" horiz-adv-x="234" 
d="M52 -92l38 202h68l-54 -202h-52zM84 405v110h70v-110h-70z" />
    <glyph glyph-name="question" unicode="?" horiz-adv-x="616" 
d="M263 193v10q0 52 25.5 90t96.5 90q42 31 63.5 53.5t30 44.5t8.5 50q0 67 -47.5 103.5t-134.5 36.5q-88 0 -138 -33t-70 -104l-59 9q21 91 88.5 137t179.5 46q116 0 181.5 -49.5t65.5 -137.5q0 -55 -26.5 -97t-91.5 -90q-48 -35 -70.5 -57.5t-31 -42.5t-8.5 -47v-12h-62z
M259 0v110h70v-110h-70z" />
    <glyph glyph-name="exclam" unicode="!" horiz-adv-x="234" 
d="M86 193l-2 521h66l-2 -521h-62zM82 0v110h70v-110h-70z" />
    <glyph glyph-name="questiondown" unicode="&#xbf;" horiz-adv-x="616" 
d="M578 -28q-21 -91 -88.5 -137t-179.5 -46q-116 0 -181.5 49.5t-65.5 137.5q0 55 26.5 97t91.5 90q48 35 70.5 57.5t31 42.5t8.5 47v12h62v-10q0 -52 -25.5 -90t-96.5 -90q-42 -31 -63.5 -53.5t-30 -44.5t-8.5 -50q0 -67 47.5 -103.5t134.5 -36.5q88 0 138 33t70 104z
M287 405v110h70v-110h-70z" />
    <glyph glyph-name="exclamdown" unicode="&#xa1;" horiz-adv-x="234" 
d="M84 -199l2 521h62l2 -521h-66zM82 405v110h70v-110h-70z" />
    <glyph glyph-name="quotesingle" unicode="'" horiz-adv-x="166" 
d="M55 473l-4 241h64l-4 -241h-56z" />
    <glyph glyph-name="quotedbl" unicode="&#x22;" horiz-adv-x="330" 
d="M55 473l-4 241h64l-4 -241h-56zM219 473l-4 241h64l-4 -241h-56z" />
    <glyph glyph-name="ellipsis" unicode="&#x2026;" horiz-adv-x="1220" 
d="M168 0v110h70v-110h-70zM575 0v110h70v-110h-70zM982 0v110h70v-110h-70z" />
    <glyph glyph-name="uni00A0" unicode="&#xa0;" horiz-adv-x="281" 
 />
    <glyph glyph-name="uni2000" unicode="&#x2000;" horiz-adv-x="610" 
 />
    <glyph glyph-name="uni2001" unicode="&#x2001;" horiz-adv-x="1220" 
 />
    <glyph glyph-name="uni2002" unicode="&#x2002;" horiz-adv-x="610" 
 />
    <glyph glyph-name="uni2003" unicode="&#x2003;" horiz-adv-x="1220" 
 />
    <glyph glyph-name="uni2004" unicode="&#x2004;" horiz-adv-x="407" 
 />
    <glyph glyph-name="uni2005" unicode="&#x2005;" horiz-adv-x="305" 
 />
    <glyph glyph-name="uni2006" unicode="&#x2006;" horiz-adv-x="203" 
 />
    <glyph glyph-name="uni2007" unicode="&#x2007;" horiz-adv-x="700" 
 />
    <glyph glyph-name="uni2008" unicode="&#x2008;" horiz-adv-x="234" 
 />
    <glyph glyph-name="uni2009" unicode="&#x2009;" horiz-adv-x="244" 
 />
    <glyph glyph-name="uni200A" unicode="&#x200a;" horiz-adv-x="50" 
 />
    <glyph glyph-name="uni200B" unicode="&#x200b;" horiz-adv-x="0" 
 />
    <glyph glyph-name="zero" unicode="0" horiz-adv-x="700" 
d="M350 -18q-145 0 -219.5 92.5t-74.5 270.5t75.5 271.5t218.5 93.5q145 0 219.5 -92.5t74.5 -270.5t-75.5 -271.5t-218.5 -93.5zM350 39q228 0 228 308q0 152 -57.5 229t-170.5 77q-228 0 -228 -308q0 -152 57.5 -229t170.5 -77z" />
    <glyph glyph-name="one" unicode="1" horiz-adv-x="700" 
d="M370 0v622l-203 -120l-28 49l236 140h59v-691h-64z" />
    <glyph glyph-name="two" unicode="2" horiz-adv-x="700" 
d="M79 0v53l250 188q94 73 136 115t57.5 74.5t15.5 72.5q0 71 -49.5 110.5t-138.5 39.5q-83 0 -133 -34.5t-71 -105.5l-59 10q23 92 91 139.5t175 47.5q116 0 183.5 -54t67.5 -147q0 -56 -21 -99t-69 -89.5t-137 -113.5l-204 -150h443l-13 -57h-524z" />
    <glyph glyph-name="three" unicode="3" horiz-adv-x="700" 
d="M258 332v57h111q81 0 127 36.5t46 99.5t-49.5 96t-143.5 33q-84 0 -134.5 -32t-72.5 -99l-60 10q21 85 91 131t179 46q77 0 133.5 -21t88 -61t31.5 -96q0 -119 -135 -166q76 -19 115 -63.5t39 -111.5q0 -99 -71 -154t-199 -55q-123 0 -196.5 51t-82.5 142h63
q24 -137 214 -137q101 0 154.5 38.5t53.5 112.5q0 70 -49 106.5t-143 36.5h-110z" />
    <glyph glyph-name="four" unicode="4" horiz-adv-x="700" 
d="M473 0v181h-431v48l428 462h62v-458h126l-12 -52h-114v-181h-59zM473 618l-356 -385h356v385z" />
    <glyph glyph-name="five" unicode="5" horiz-adv-x="700" 
d="M198 634l-23 -250q43 30 89.5 43t112.5 13q119 0 185 -59t66 -164q0 -113 -68.5 -174t-195.5 -61q-119 0 -187.5 46.5t-81.5 134.5h63q15 -64 64.5 -94.5t140.5 -30.5q100 0 150.5 45t50.5 134q0 169 -199 169q-64 0 -110.5 -15t-86.5 -49h-56l31 369h435v-57h-380z" />
    <glyph glyph-name="six" unicode="6" horiz-adv-x="700" 
d="M550 545q-17 53 -61.5 81t-114.5 28q-220 0 -228 -306l-1 -25q28 57 88 87.5t144 30.5q121 0 188 -59t67 -166q0 -68 -33 -121t-94 -83t-142 -30q-136 0 -208 83t-72 241q0 200 74.5 302t218.5 102q95 0 155 -40t77 -114zM568 215q0 84 -51 127.5t-150 43.5
q-94 0 -151.5 -44t-57.5 -116q0 -54 25 -96.5t71.5 -67t108.5 -24.5q93 0 149 48.5t56 128.5z" />
    <glyph glyph-name="seven" unicode="7" horiz-adv-x="700" 
d="M216 0q118 343 319 634h-480v57h549v-53q-206 -298 -320 -638h-68z" />
    <glyph glyph-name="eight" unicode="8" horiz-adv-x="700" 
d="M479 354q78 -16 122.5 -62t44.5 -111q0 -95 -77 -147t-219 -52t-218.5 51t-76.5 145q0 67 44.5 113.5t122.5 62.5q-66 18 -102 61.5t-36 104.5q0 88 71.5 139t195.5 51t195 -50.5t71 -139.5q0 -61 -36.5 -105t-101.5 -61zM582 182q0 68 -59.5 104t-171.5 36
q-113 0 -172.5 -36.5t-59.5 -104.5t60.5 -105.5t171.5 -37.5t171 37.5t60 106.5zM555 518q0 63 -55 99.5t-150 36.5t-149.5 -36.5t-54.5 -100.5q0 -67 52.5 -103t151.5 -36q100 0 152.5 36t52.5 104z" />
    <glyph glyph-name="nine" unicode="9" horiz-adv-x="700" 
d="M553 369q-28 -56 -88.5 -87t-142.5 -31q-121 0 -188 59t-67 165q0 69 32.5 122t93.5 83t142 30q137 0 209 -85.5t72 -250.5q0 -195 -70.5 -293.5t-209.5 -98.5q-109 0 -171.5 40t-75.5 117h64q27 -101 183 -101q106 0 159 75t58 231v25zM541 465q0 84 -57 136.5
t-148 52.5q-93 0 -149 -48.5t-56 -129.5q0 -83 51 -126.5t150 -43.5q94 0 151.5 44t57.5 115z" />
    <glyph glyph-name="zero.pnum" horiz-adv-x="714" 
d="M357 -18q-145 0 -219.5 92.5t-74.5 270.5t75.5 271.5t218.5 93.5q145 0 219.5 -92.5t74.5 -270.5t-75.5 -271.5t-218.5 -93.5zM357 39q228 0 228 308q0 152 -57.5 229t-170.5 77q-228 0 -228 -308q0 -152 57.5 -229t170.5 -77z" />
    <glyph glyph-name="one.pnum" horiz-adv-x="486" 
d="M268 0v622l-203 -120l-28 49l236 140h59v-691h-64z" />
    <glyph glyph-name="two.pnum" horiz-adv-x="653" 
d="M56 0v53l250 188q94 73 136 115t57.5 74.5t15.5 72.5q0 71 -49.5 110.5t-138.5 39.5q-83 0 -133 -34.5t-71 -105.5l-59 10q23 92 91 139.5t175 47.5q116 0 183.5 -54t67.5 -147q0 -56 -21 -99t-69 -89.5t-137 -113.5l-204 -150h443l-13 -57h-524z" />
    <glyph glyph-name="three.pnum" horiz-adv-x="672" 
d="M242 332v57h111q81 0 127 36.5t46 99.5t-49.5 96t-143.5 33q-84 0 -134.5 -32t-72.5 -99l-60 10q21 85 91 131t179 46q77 0 133.5 -21t88 -61t31.5 -96q0 -119 -135 -166q76 -19 115 -63.5t39 -111.5q0 -99 -71 -154t-199 -55q-123 0 -196.5 51t-82.5 142h63
q24 -137 214 -137q101 0 154.5 38.5t53.5 112.5q0 70 -49 106.5t-143 36.5h-110z" />
    <glyph glyph-name="four.pnum" horiz-adv-x="678" 
d="M465 0v181h-431v48l428 462h62v-458h126l-12 -52h-114v-181h-59zM465 618l-356 -385h356v385z" />
    <glyph glyph-name="five.pnum" horiz-adv-x="664" 
d="M180 634l-23 -250q43 30 89.5 43t112.5 13q119 0 185 -59t66 -164q0 -113 -68.5 -174t-195.5 -61q-119 0 -187.5 46.5t-81.5 134.5h63q15 -64 64.5 -94.5t140.5 -30.5q100 0 150.5 45t50.5 134q0 169 -199 169q-64 0 -110.5 -15t-86.5 -49h-56l31 369h435v-57h-380z" />
    <glyph glyph-name="six.pnum" horiz-adv-x="678" 
d="M539 545q-17 53 -61.5 81t-114.5 28q-220 0 -228 -306l-1 -25q28 57 88 87.5t144 30.5q121 0 188 -59t67 -166q0 -68 -33 -121t-94 -83t-142 -30q-136 0 -208 83t-72 241q0 200 74.5 302t218.5 102q95 0 155 -40t77 -114zM557 215q0 84 -51 127.5t-150 43.5
q-94 0 -151.5 -44t-57.5 -116q0 -54 25 -96.5t71.5 -67t108.5 -24.5q93 0 149 48.5t56 128.5z" />
    <glyph glyph-name="seven.pnum" horiz-adv-x="601" 
d="M185 0q118 343 319 634h-480v57h549v-53q-206 -298 -320 -638h-68z" />
    <glyph glyph-name="eight.pnum" horiz-adv-x="693" 
d="M476 354q78 -16 122.5 -62t44.5 -111q0 -95 -77 -147t-219 -52t-218.5 51t-76.5 145q0 67 44.5 113.5t122.5 62.5q-66 18 -102 61.5t-36 104.5q0 88 71.5 139t195.5 51t195 -50.5t71 -139.5q0 -61 -36.5 -105t-101.5 -61zM579 182q0 68 -59.5 104t-171.5 36
q-113 0 -172.5 -36.5t-59.5 -104.5t60.5 -105.5t171.5 -37.5t171 37.5t60 106.5zM552 518q0 63 -55 99.5t-150 36.5t-149.5 -36.5t-54.5 -100.5q0 -67 52.5 -103t151.5 -36q100 0 152.5 36t52.5 104z" />
    <glyph glyph-name="nine.pnum" horiz-adv-x="682" 
d="M549 369q-28 -56 -88.5 -87t-142.5 -31q-121 0 -188 59t-67 165q0 69 32.5 122t93.5 83t142 30q137 0 209 -85.5t72 -250.5q0 -195 -70.5 -293.5t-209.5 -98.5q-109 0 -171.5 40t-75.5 117h64q27 -101 183 -101q106 0 159 75t58 231v25zM537 465q0 84 -57 136.5
t-148 52.5q-93 0 -149 -48.5t-56 -129.5q0 -83 51 -126.5t150 -43.5q94 0 151.5 44t57.5 115z" />
    <glyph glyph-name="uni2080" unicode="&#x2080;" 
d="M246 -135q-90 0 -141 57t-51 157q0 99 51.5 156.5t140.5 57.5q90 0 141 -57t51 -157q0 -99 -51.5 -156.5t-140.5 -57.5zM246 -90q66 0 101 43.5t35 125.5q0 83 -34.5 126t-101.5 43q-66 0 -101 -43.5t-35 -125.5q0 -83 34.5 -126t101.5 -43z" />
    <glyph glyph-name="uni2081" unicode="&#x2081;" 
d="M265 -122v344l-130 -72l-22 38l158 92h48v-402h-54z" />
    <glyph glyph-name="uni2082" unicode="&#x2082;" 
d="M80 -122v41q80 54 138 97q63 46 90 70t36.5 42t9.5 41q0 38 -26 58.5t-75 20.5q-52 0 -81.5 -19t-42.5 -62l-48 9q15 57 59.5 87t114.5 30t112 -32t42 -86q0 -32 -14.5 -57t-49 -55.5t-100.5 -78.5l-45 -31.5t-45 -29.5h264l-11 -45h-328z" />
    <glyph glyph-name="uni2083" unicode="&#x2083;" 
d="M198 64v46h64q46 0 71 18.5t25 52.5q0 68 -107 68q-50 0 -78.5 -17t-41.5 -55l-48 8q14 51 58.5 79.5t110.5 28.5q74 0 116 -28.5t42 -79.5q0 -66 -79 -93q43 -11 66.5 -37.5t23.5 -65.5q0 -59 -44.5 -91.5t-125.5 -32.5q-76 0 -123 34t-50 91h48q7 -41 37.5 -61
t86.5 -20q59 0 89 20t30 59q0 76 -104 76h-67z" />
    <glyph glyph-name="uni2084" unicode="&#x2084;" 
d="M319 -122v104h-253v36l251 262h51v-256h71l-10 -42h-61v-104h-49zM319 224l-193 -200h193v200z" />
    <glyph glyph-name="uni2085" unicode="&#x2085;" 
d="M162 235l-13 -134q18 16 49.5 24.5t68.5 8.5q76 0 117.5 -34t41.5 -96q0 -66 -43.5 -102.5t-122.5 -36.5q-75 0 -119 29t-51 83h47q16 -68 123 -68q114 0 114 94q0 90 -113 90q-81 0 -120 -36h-43l22 223h275v-45h-233z" />
    <glyph glyph-name="uni2086" unicode="&#x2086;" 
d="M365 188q-10 32 -35 46.5t-70 14.5q-135 0 -139 -175q39 61 143 61q76 0 118 -34t42 -96q0 -64 -47.5 -102t-126.5 -38q-87 0 -133 49t-46 141q0 114 49.5 176t140.5 62q63 0 100 -23.5t51 -72.5zM373 3q0 44 -30 67.5t-87 23.5q-61 0 -94.5 -23t-33.5 -63
q0 -46 33 -72.5t89 -26.5q57 0 90 25t33 69z" />
    <glyph glyph-name="uni2087" unicode="&#x2087;" 
d="M175 -122q39 106 82.5 191t99.5 166h-283v45h342v-39q-123 -175 -183 -363h-58z" />
    <glyph glyph-name="uni2088" unicode="&#x2088;" 
d="M330 85q43 -11 68 -37.5t25 -64.5q0 -57 -45 -87.5t-131 -30.5q-87 0 -132.5 30.5t-45.5 87.5q0 37 25 64t68 38q-37 12 -56.5 36.5t-19.5 57.5q0 54 42.5 84t117.5 30t117.5 -30t42.5 -84q0 -33 -20 -57.5t-56 -36.5zM356 179q0 35 -28.5 53.5t-81.5 18.5t-81.5 -19
t-28.5 -54q0 -36 28 -55t82 -19q110 0 110 75zM372 -16q0 38 -32 58t-94 20t-94 -20t-32 -58q0 -37 32.5 -57t93.5 -20t93.5 20t32.5 57z" />
    <glyph glyph-name="uni2089" unicode="&#x2089;" 
d="M132 -29q9 -32 35.5 -47t75.5 -15q69 0 101 42.5t33 133.5q-38 -62 -144 -62q-75 0 -117 34.5t-42 96.5t47.5 100.5t125.5 38.5q86 0 133 -49.5t47 -140.5q0 -120 -45.5 -179t-138.5 -59q-70 0 -109.5 26t-50.5 80h49zM368 150q0 45 -33 72t-89 27t-88.5 -25t-32.5 -68
q0 -46 29.5 -69t86.5 -23q59 0 93 23t34 63z" />
    <glyph glyph-name="uni2070" unicode="&#x2070;" 
d="M246 393q-90 0 -141 57t-51 157q0 99 51.5 156.5t140.5 57.5q90 0 141 -57t51 -157q0 -99 -51.5 -156.5t-140.5 -57.5zM246 438q66 0 101 43.5t35 125.5q0 83 -34.5 126t-101.5 43q-66 0 -101 -43.5t-35 -125.5q0 -83 34.5 -126t101.5 -43z" />
    <glyph glyph-name="uni00B9" unicode="&#xb9;" 
d="M265 406v344l-130 -72l-22 38l158 92h48v-402h-54z" />
    <glyph glyph-name="uni00B2" unicode="&#xb2;" 
d="M80 406v41q80 54 138 97q63 46 90 70t36.5 42t9.5 41q0 38 -26 58.5t-75 20.5q-52 0 -81.5 -19t-42.5 -62l-48 9q15 57 59.5 87t114.5 30t112 -32t42 -86q0 -32 -14.5 -57t-49 -55.5t-100.5 -78.5l-45 -31.5t-45 -29.5h264l-11 -45h-328z" />
    <glyph glyph-name="uni00B3" unicode="&#xb3;" 
d="M198 592v46h64q46 0 71 18.5t25 52.5q0 68 -107 68q-50 0 -78.5 -17t-41.5 -55l-48 8q14 51 58.5 79.5t110.5 28.5q74 0 116 -28.5t42 -79.5q0 -66 -79 -93q43 -11 66.5 -37.5t23.5 -65.5q0 -59 -44.5 -91.5t-125.5 -32.5q-76 0 -123 34t-50 91h48q7 -41 37.5 -61
t86.5 -20q59 0 89 20t30 59q0 76 -104 76h-67z" />
    <glyph glyph-name="uni2074" unicode="&#x2074;" 
d="M319 406v104h-253v36l251 262h51v-256h71l-10 -42h-61v-104h-49zM319 752l-193 -200h193v200z" />
    <glyph glyph-name="uni2075" unicode="&#x2075;" 
d="M162 763l-13 -134q18 16 49.5 24.5t68.5 8.5q76 0 117.5 -34t41.5 -96q0 -66 -43.5 -102.5t-122.5 -36.5q-75 0 -119 29t-51 83h47q16 -68 123 -68q114 0 114 94q0 90 -113 90q-81 0 -120 -36h-43l22 223h275v-45h-233z" />
    <glyph glyph-name="uni2076" unicode="&#x2076;" 
d="M365 716q-10 32 -35 46.5t-70 14.5q-135 0 -139 -175q39 61 143 61q76 0 118 -34t42 -96q0 -64 -47.5 -102t-126.5 -38q-87 0 -133 49t-46 141q0 114 49.5 176t140.5 62q63 0 100 -23.5t51 -72.5zM373 531q0 44 -30 67.5t-87 23.5q-61 0 -94.5 -23t-33.5 -63
q0 -46 33 -72.5t89 -26.5q57 0 90 25t33 69z" />
    <glyph glyph-name="uni2077" unicode="&#x2077;" 
d="M175 406q39 106 82.5 191t99.5 166h-283v45h342v-39q-123 -175 -183 -363h-58z" />
    <glyph glyph-name="uni2078" unicode="&#x2078;" 
d="M330 613q43 -11 68 -37.5t25 -64.5q0 -57 -45 -87.5t-131 -30.5q-87 0 -132.5 30.5t-45.5 87.5q0 37 25 64t68 38q-37 12 -56.5 36.5t-19.5 57.5q0 54 42.5 84t117.5 30t117.5 -30t42.5 -84q0 -33 -20 -57.5t-56 -36.5zM356 707q0 35 -28.5 53.5t-81.5 18.5t-81.5 -19
t-28.5 -54q0 -36 28 -55t82 -19q110 0 110 75zM372 512q0 38 -32 58t-94 20t-94 -20t-32 -58q0 -37 32.5 -57t93.5 -20t93.5 20t32.5 57z" />
    <glyph glyph-name="uni2079" unicode="&#x2079;" 
d="M132 499q9 -32 35.5 -47t75.5 -15q69 0 101 42.5t33 133.5q-38 -62 -144 -62q-75 0 -117 34.5t-42 96.5t47.5 100.5t125.5 38.5q86 0 133 -49.5t47 -140.5q0 -120 -45.5 -179t-138.5 -59q-70 0 -109.5 26t-50.5 80h49zM368 678q0 45 -33 72t-89 27t-88.5 -25t-32.5 -68
q0 -46 29.5 -69t86.5 -23q59 0 93 23t34 63z" />
    <glyph glyph-name="zero.dnom" unicode="&#xf814;" 
d="M246 -13q-90 0 -141 57t-51 157q0 99 51.5 156.5t140.5 57.5q90 0 141 -57t51 -157q0 -99 -51.5 -156.5t-140.5 -57.5zM246 32q66 0 101 43.5t35 125.5q0 83 -34.5 126t-101.5 43q-66 0 -101 -43.5t-35 -125.5q0 -83 34.5 -126t101.5 -43z" />
    <glyph glyph-name="one.dnom" unicode="&#xf815;" 
d="M265 0v344l-130 -72l-22 38l158 92h48v-402h-54z" />
    <glyph glyph-name="two.dnom" unicode="&#xf816;" 
d="M80 0v41q80 54 138 97q63 46 90 70t36.5 42t9.5 41q0 38 -26 58.5t-75 20.5q-52 0 -81.5 -19t-42.5 -62l-48 9q15 57 59.5 87t114.5 30t112 -32t42 -86q0 -32 -14.5 -57t-49 -55.5t-100.5 -78.5l-45 -31.5t-45 -29.5h264l-11 -45h-328z" />
    <glyph glyph-name="three.dnom" unicode="&#xf817;" 
d="M198 186v46h64q46 0 71 18.5t25 52.5q0 68 -107 68q-50 0 -78.5 -17t-41.5 -55l-48 8q14 51 58.5 79.5t110.5 28.5q74 0 116 -28.5t42 -79.5q0 -66 -79 -93q43 -11 66.5 -37.5t23.5 -65.5q0 -59 -44.5 -91.5t-125.5 -32.5q-76 0 -123 34t-50 91h48q7 -41 37.5 -61
t86.5 -20q59 0 89 20t30 59q0 76 -104 76h-67z" />
    <glyph glyph-name="four.dnom" unicode="&#xf818;" 
d="M319 0v104h-253v36l251 262h51v-256h71l-10 -42h-61v-104h-49zM319 346l-193 -200h193v200z" />
    <glyph glyph-name="five.dnom" unicode="&#xf819;" 
d="M162 357l-13 -134q18 16 49.5 24.5t68.5 8.5q76 0 117.5 -34t41.5 -96q0 -66 -43.5 -102.5t-122.5 -36.5q-75 0 -119 29t-51 83h47q16 -68 123 -68q114 0 114 94q0 90 -113 90q-81 0 -120 -36h-43l22 223h275v-45h-233z" />
    <glyph glyph-name="six.dnom" unicode="&#xf81a;" 
d="M365 310q-10 32 -35 46.5t-70 14.5q-135 0 -139 -175q39 61 143 61q76 0 118 -34t42 -96q0 -64 -47.5 -102t-126.5 -38q-87 0 -133 49t-46 141q0 114 49.5 176t140.5 62q63 0 100 -23.5t51 -72.5zM373 125q0 44 -30 67.5t-87 23.5q-61 0 -94.5 -23t-33.5 -63
q0 -46 33 -72.5t89 -26.5q57 0 90 25t33 69z" />
    <glyph glyph-name="seven.dnom" unicode="&#xf81b;" 
d="M175 0q39 106 82.5 191t99.5 166h-283v45h342v-39q-123 -175 -183 -363h-58z" />
    <glyph glyph-name="eight.dnom" unicode="&#xf81c;" 
d="M330 207q43 -11 68 -37.5t25 -64.5q0 -57 -45 -87.5t-131 -30.5q-87 0 -132.5 30.5t-45.5 87.5q0 37 25 64t68 38q-37 12 -56.5 36.5t-19.5 57.5q0 54 42.5 84t117.5 30t117.5 -30t42.5 -84q0 -33 -20 -57.5t-56 -36.5zM356 301q0 35 -28.5 53.5t-81.5 18.5t-81.5 -19
t-28.5 -54q0 -36 28 -55t82 -19q110 0 110 75zM372 106q0 38 -32 58t-94 20t-94 -20t-32 -58q0 -37 32.5 -57t93.5 -20t93.5 20t32.5 57z" />
    <glyph glyph-name="nine.dnom" unicode="&#xf81d;" 
d="M132 93q9 -32 35.5 -47t75.5 -15q69 0 101 42.5t33 133.5q-38 -62 -144 -62q-75 0 -117 34.5t-42 96.5t47.5 100.5t125.5 38.5q86 0 133 -49.5t47 -140.5q0 -120 -45.5 -179t-138.5 -59q-70 0 -109.5 26t-50.5 80h49zM368 272q0 45 -33 72t-89 27t-88.5 -25t-32.5 -68
q0 -46 29.5 -69t86.5 -23q59 0 93 23t34 63z" />
    <glyph glyph-name="zero.numr" unicode="&#xf80a;" 
d="M246 276q-90 0 -141 57t-51 157q0 99 51.5 156.5t140.5 57.5q90 0 141 -57t51 -157q0 -99 -51.5 -156.5t-140.5 -57.5zM246 321q66 0 101 43.5t35 125.5q0 83 -34.5 126t-101.5 43q-66 0 -101 -43.5t-35 -125.5q0 -83 34.5 -126t101.5 -43z" />
    <glyph glyph-name="one.numr" unicode="&#xf80b;" 
d="M265 290v344l-130 -72l-22 38l158 92h48v-402h-54z" />
    <glyph glyph-name="two.numr" unicode="&#xf80c;" 
d="M80 290v41q80 54 138 97q63 46 90 70t36.5 42t9.5 41q0 38 -26 58.5t-75 20.5q-52 0 -81.5 -19t-42.5 -62l-48 9q15 57 59.5 87t114.5 30t112 -32t42 -86q0 -32 -14.5 -57t-49 -55.5t-100.5 -78.5l-45 -31.5t-45 -29.5h264l-11 -45h-328z" />
    <glyph glyph-name="three.numr" unicode="&#xf80d;" 
d="M198 476v46h64q46 0 71 18.5t25 52.5q0 68 -107 68q-50 0 -78.5 -17t-41.5 -55l-48 8q14 51 58.5 79.5t110.5 28.5q74 0 116 -28.5t42 -79.5q0 -66 -79 -93q43 -11 66.5 -37.5t23.5 -65.5q0 -59 -44.5 -91.5t-125.5 -32.5q-76 0 -123 34t-50 91h48q7 -41 37.5 -61
t86.5 -20q59 0 89 20t30 59q0 76 -104 76h-67z" />
    <glyph glyph-name="four.numr" unicode="&#xf80e;" 
d="M319 290v104h-253v36l251 262h51v-256h71l-10 -42h-61v-104h-49zM319 636l-193 -200h193v200z" />
    <glyph glyph-name="five.numr" unicode="&#xf80f;" 
d="M162 647l-13 -134q18 16 49.5 24.5t68.5 8.5q76 0 117.5 -34t41.5 -96q0 -66 -43.5 -102.5t-122.5 -36.5q-75 0 -119 29t-51 83h47q16 -68 123 -68q114 0 114 94q0 90 -113 90q-81 0 -120 -36h-43l22 223h275v-45h-233z" />
    <glyph glyph-name="six.numr" unicode="&#xf810;" 
d="M365 600q-10 32 -35 46.5t-70 14.5q-135 0 -139 -175q39 61 143 61q76 0 118 -34t42 -96q0 -64 -47.5 -102t-126.5 -38q-87 0 -133 49t-46 141q0 114 49.5 176t140.5 62q63 0 100 -23.5t51 -72.5zM373 415q0 44 -30 67.5t-87 23.5q-61 0 -94.5 -23t-33.5 -63
q0 -46 33 -72.5t89 -26.5q57 0 90 25t33 69z" />
    <glyph glyph-name="seven.numr" unicode="&#xf811;" 
d="M175 290q39 106 82.5 191t99.5 166h-283v45h342v-39q-123 -175 -183 -363h-58z" />
    <glyph glyph-name="eight.numr" unicode="&#xf812;" 
d="M330 497q43 -11 68 -37.5t25 -64.5q0 -57 -45 -87.5t-131 -30.5q-87 0 -132.5 30.5t-45.5 87.5q0 37 25 64t68 38q-37 12 -56.5 36.5t-19.5 57.5q0 54 42.5 84t117.5 30t117.5 -30t42.5 -84q0 -33 -20 -57.5t-56 -36.5zM356 591q0 35 -28.5 53.5t-81.5 18.5t-81.5 -19
t-28.5 -54q0 -36 28 -55t82 -19q110 0 110 75zM372 396q0 38 -32 58t-94 20t-94 -20t-32 -58q0 -37 32.5 -57t93.5 -20t93.5 20t32.5 57z" />
    <glyph glyph-name="nine.numr" unicode="&#xf813;" 
d="M132 383q9 -32 35.5 -47t75.5 -15q69 0 101 42.5t33 133.5q-38 -62 -144 -62q-75 0 -117 34.5t-42 96.5t47.5 100.5t125.5 38.5q86 0 133 -49.5t47 -140.5q0 -120 -45.5 -179t-138.5 -59q-70 0 -109.5 26t-50.5 80h49zM368 562q0 45 -33 72t-89 27t-88.5 -25t-32.5 -68
q0 -46 29.5 -69t86.5 -23q59 0 93 23t34 63z" />
    <glyph glyph-name="fraction" unicode="&#x2044;" horiz-adv-x="78" 
d="M-209 0l434 691h62l-434 -691h-62z" />
    <glyph glyph-name="percent" unicode="%" horiz-adv-x="1068" 
d="M286 0l434 691h62l-434 -691h-62zM822 -13q-90 0 -141 57t-51 157q0 99 51.5 156.5t140.5 57.5q90 0 141 -57t51 -157q0 -99 -51.5 -156.5t-140.5 -57.5zM822 32q66 0 101 43.5t35 125.5q0 83 -34.5 126t-101.5 43q-66 0 -101 -43.5t-35 -125.5q0 -83 34.5 -126
t101.5 -43zM246 276q-90 0 -141 57t-51 157q0 99 51.5 156.5t140.5 57.5q90 0 141 -57t51 -157q0 -99 -51.5 -156.5t-140.5 -57.5zM246 321q66 0 101 43.5t35 125.5q0 83 -34.5 126t-101.5 43q-66 0 -101 -43.5t-35 -125.5q0 -83 34.5 -126t101.5 -43z" />
    <glyph glyph-name="perthousand" unicode="&#x2030;" horiz-adv-x="1533" 
d="M286 0l434 691h62l-434 -691h-62zM822 -13q-90 0 -141 57t-51 157q0 99 51.5 156.5t140.5 57.5q90 0 141 -57t51 -157q0 -99 -51.5 -156.5t-140.5 -57.5zM822 32q66 0 101 43.5t35 125.5q0 83 -34.5 126t-101.5 43q-66 0 -101 -43.5t-35 -125.5q0 -83 34.5 -126
t101.5 -43zM1287 -13q-90 0 -141 57t-51 157q0 99 51.5 156.5t140.5 57.5q90 0 141 -57t51 -157q0 -99 -51.5 -156.5t-140.5 -57.5zM1287 32q66 0 101 43.5t35 125.5q0 83 -34.5 126t-101.5 43q-66 0 -101 -43.5t-35 -125.5q0 -83 34.5 -126t101.5 -43zM246 276
q-90 0 -141 57t-51 157q0 99 51.5 156.5t140.5 57.5q90 0 141 -57t51 -157q0 -99 -51.5 -156.5t-140.5 -57.5zM246 321q66 0 101 43.5t35 125.5q0 83 -34.5 126t-101.5 43q-66 0 -101 -43.5t-35 -125.5q0 -83 34.5 -126t101.5 -43z" />
    <glyph glyph-name="onehalf" unicode="&#xbd;" horiz-adv-x="1068" 
d="M266 0l434 691h62l-434 -691h-62zM656 0v41q80 54 138 97q63 46 90 70t36.5 42t9.5 41q0 38 -26 58.5t-75 20.5q-52 0 -81.5 -19t-42.5 -62l-48 9q15 57 59.5 87t114.5 30t112 -32t42 -86q0 -32 -14.5 -57t-49 -55.5t-100.5 -78.5l-45 -31.5t-45 -29.5h264l-11 -45h-328z
M265 289v344l-130 -72l-22 38l158 92h48v-402h-54z" />
    <glyph glyph-name="onethird" unicode="&#x2153;" horiz-adv-x="1068" 
d="M264 0l434 691h62l-434 -691h-62zM774 186v46h64q46 0 71 18.5t25 52.5q0 68 -107 68q-50 0 -78.5 -17t-41.5 -55l-48 8q14 51 58.5 79.5t110.5 28.5q74 0 116 -28.5t42 -79.5q0 -66 -79 -93q43 -11 66.5 -37.5t23.5 -65.5q0 -59 -44.5 -91.5t-125.5 -32.5q-76 0 -123 34
t-50 91h48q7 -41 37.5 -61t86.5 -20q59 0 89 20t30 59q0 76 -104 76h-67zM265 289v344l-130 -72l-22 38l158 92h48v-402h-54z" />
    <glyph glyph-name="twothirds" unicode="&#x2154;" horiz-adv-x="1068" 
d="M303 0l434 691h62l-434 -691h-62zM774 186v46h64q46 0 71 18.5t25 52.5q0 68 -107 68q-50 0 -78.5 -17t-41.5 -55l-48 8q14 51 58.5 79.5t110.5 28.5q74 0 116 -28.5t42 -79.5q0 -66 -79 -93q43 -11 66.5 -37.5t23.5 -65.5q0 -59 -44.5 -91.5t-125.5 -32.5q-76 0 -123 34
t-50 91h48q7 -41 37.5 -61t86.5 -20q59 0 89 20t30 59q0 76 -104 76h-67zM80 289v41q80 54 138 97q63 46 90 70t36.5 42t9.5 41q0 38 -26 58.5t-75 20.5q-52 0 -81.5 -19t-42.5 -62l-48 9q15 57 59.5 87t114.5 30t112 -32t42 -86q0 -32 -14.5 -57t-49 -55.5t-100.5 -78.5
l-45 -31.5t-45 -29.5h264l-11 -45h-328z" />
    <glyph glyph-name="onequarter" unicode="&#xbc;" horiz-adv-x="1068" 
d="M294 0l434 691h62l-434 -691h-62zM895 0v104h-253v36l251 262h51v-256h71l-10 -42h-61v-104h-49zM895 346l-193 -200h193v200zM265 289v344l-130 -72l-22 38l158 92h48v-402h-54z" />
    <glyph glyph-name="threequarters" unicode="&#xbe;" horiz-adv-x="1068" 
d="M325 0l434 691h62l-434 -691h-62zM895 0v104h-253v36l251 262h51v-256h71l-10 -42h-61v-104h-49zM895 346l-193 -200h193v200zM198 475v46h64q46 0 71 18.5t25 52.5q0 68 -107 68q-50 0 -78.5 -17t-41.5 -55l-48 8q14 51 58.5 79.5t110.5 28.5q74 0 116 -28.5t42 -79.5
q0 -66 -79 -93q43 -11 66.5 -37.5t23.5 -65.5q0 -59 -44.5 -91.5t-125.5 -32.5q-76 0 -123 34t-50 91h48q7 -41 37.5 -61t86.5 -20q59 0 89 20t30 59q0 76 -104 76h-67z" />
    <glyph glyph-name="onefifth" unicode="&#x2155;" horiz-adv-x="1068" 
d="M260 0l434 691h62l-434 -691h-62zM738 357l-13 -134q18 16 49.5 24.5t68.5 8.5q76 0 117.5 -34t41.5 -96q0 -66 -43.5 -102.5t-122.5 -36.5q-75 0 -119 29t-51 83h47q16 -68 123 -68q114 0 114 94q0 90 -113 90q-81 0 -120 -36h-43l22 223h275v-45h-233zM265 289v344
l-130 -72l-22 38l158 92h48v-402h-54z" />
    <glyph glyph-name="twofifths" unicode="&#x2156;" horiz-adv-x="1068" 
d="M309 0l434 691h62l-434 -691h-62zM738 357l-13 -134q18 16 49.5 24.5t68.5 8.5q76 0 117.5 -34t41.5 -96q0 -66 -43.5 -102.5t-122.5 -36.5q-75 0 -119 29t-51 83h47q16 -68 123 -68q114 0 114 94q0 90 -113 90q-81 0 -120 -36h-43l22 223h275v-45h-233zM80 289v41
q80 54 138 97q63 46 90 70t36.5 42t9.5 41q0 38 -26 58.5t-75 20.5q-52 0 -81.5 -19t-42.5 -62l-48 9q15 57 59.5 87t114.5 30t112 -32t42 -86q0 -32 -14.5 -57t-49 -55.5t-100.5 -78.5l-45 -31.5t-45 -29.5h264l-11 -45h-328z" />
    <glyph glyph-name="threefifths" unicode="&#x2157;" horiz-adv-x="1068" 
d="M289 0l434 691h62l-434 -691h-62zM738 357l-13 -134q18 16 49.5 24.5t68.5 8.5q76 0 117.5 -34t41.5 -96q0 -66 -43.5 -102.5t-122.5 -36.5q-75 0 -119 29t-51 83h47q16 -68 123 -68q114 0 114 94q0 90 -113 90q-81 0 -120 -36h-43l22 223h275v-45h-233zM198 475v46h64
q46 0 71 18.5t25 52.5q0 68 -107 68q-50 0 -78.5 -17t-41.5 -55l-48 8q14 51 58.5 79.5t110.5 28.5q74 0 116 -28.5t42 -79.5q0 -66 -79 -93q43 -11 66.5 -37.5t23.5 -65.5q0 -59 -44.5 -91.5t-125.5 -32.5q-76 0 -123 34t-50 91h48q7 -41 37.5 -61t86.5 -20q59 0 89 20
t30 59q0 76 -104 76h-67z" />
    <glyph glyph-name="fourfifths" unicode="&#x2158;" horiz-adv-x="1068" 
d="M295 0l434 691h62l-434 -691h-62zM738 357l-13 -134q18 16 49.5 24.5t68.5 8.5q76 0 117.5 -34t41.5 -96q0 -66 -43.5 -102.5t-122.5 -36.5q-75 0 -119 29t-51 83h47q16 -68 123 -68q114 0 114 94q0 90 -113 90q-81 0 -120 -36h-43l22 223h275v-45h-233zM319 289v104
h-253v36l251 262h51v-256h71l-10 -42h-61v-104h-49zM319 635l-193 -200h193v200z" />
    <glyph glyph-name="onesixth" unicode="&#x2159;" horiz-adv-x="1068" 
d="M259 0l434 691h62l-434 -691h-62zM941 310q-10 32 -35 46.5t-70 14.5q-135 0 -139 -175q39 61 143 61q76 0 118 -34t42 -96q0 -64 -47.5 -102t-126.5 -38q-87 0 -133 49t-46 141q0 114 49.5 176t140.5 62q63 0 100 -23.5t51 -72.5zM949 125q0 44 -30 67.5t-87 23.5
q-61 0 -94.5 -23t-33.5 -63q0 -46 33 -72.5t89 -26.5q57 0 90 25t33 69zM265 289v344l-130 -72l-22 38l158 92h48v-402h-54z" />
    <glyph glyph-name="fivesixths" unicode="&#x215a;" horiz-adv-x="1068" 
d="M297 0l434 691h62l-434 -691h-62zM941 310q-10 32 -35 46.5t-70 14.5q-135 0 -139 -175q39 61 143 61q76 0 118 -34t42 -96q0 -64 -47.5 -102t-126.5 -38q-87 0 -133 49t-46 141q0 114 49.5 176t140.5 62q63 0 100 -23.5t51 -72.5zM949 125q0 44 -30 67.5t-87 23.5
q-61 0 -94.5 -23t-33.5 -63q0 -46 33 -72.5t89 -26.5q57 0 90 25t33 69zM162 646l-13 -134q18 16 49.5 24.5t68.5 8.5q76 0 117.5 -34t41.5 -96q0 -66 -43.5 -102.5t-122.5 -36.5q-75 0 -119 29t-51 83h47q16 -68 123 -68q114 0 114 94q0 90 -113 90q-81 0 -120 -36h-43
l22 223h275v-45h-233z" />
    <glyph glyph-name="oneseventh" unicode="&#x2150;" horiz-adv-x="1068" 
d="M244 0l434 691h62l-434 -691h-62zM751 0q39 106 82.5 191t99.5 166h-283v45h342v-39q-123 -175 -183 -363h-58zM265 289v344l-130 -72l-22 38l158 92h48v-402h-54z" />
    <glyph glyph-name="twosevenths" unicode="&#xf507;" horiz-adv-x="1068" 
d="M278 0l434 691h62l-434 -691h-62zM751 0q39 106 82.5 191t99.5 166h-283v45h342v-39q-123 -175 -183 -363h-58zM80 289v41q80 54 138 97q63 46 90 70t36.5 42t9.5 41q0 38 -26 58.5t-75 20.5q-52 0 -81.5 -19t-42.5 -62l-48 9q15 57 59.5 87t114.5 30t112 -32t42 -86
q0 -32 -14.5 -57t-49 -55.5t-100.5 -78.5l-45 -31.5t-45 -29.5h264l-11 -45h-328z" />
    <glyph glyph-name="threesevenths" unicode="&#xf508;" horiz-adv-x="1068" 
d="M265 0l434 691h62l-434 -691h-62zM751 0q39 106 82.5 191t99.5 166h-283v45h342v-39q-123 -175 -183 -363h-58zM198 475v46h64q46 0 71 18.5t25 52.5q0 68 -107 68q-50 0 -78.5 -17t-41.5 -55l-48 8q14 51 58.5 79.5t110.5 28.5q74 0 116 -28.5t42 -79.5q0 -66 -79 -93
q43 -11 66.5 -37.5t23.5 -65.5q0 -59 -44.5 -91.5t-125.5 -32.5q-76 0 -123 34t-50 91h48q7 -41 37.5 -61t86.5 -20q59 0 89 20t30 59q0 76 -104 76h-67z" />
    <glyph glyph-name="foursevenths" unicode="&#xf509;" horiz-adv-x="1068" 
d="M262 0l434 691h62l-434 -691h-62zM751 0q39 106 82.5 191t99.5 166h-283v45h342v-39q-123 -175 -183 -363h-58zM319 289v104h-253v36l251 262h51v-256h71l-10 -42h-61v-104h-49zM319 635l-193 -200h193v200z" />
    <glyph glyph-name="fivesevenths" unicode="&#xf50a;" horiz-adv-x="1068" 
d="M262 0l434 691h62l-434 -691h-62zM751 0q39 106 82.5 191t99.5 166h-283v45h342v-39q-123 -175 -183 -363h-58zM162 646l-13 -134q18 16 49.5 24.5t68.5 8.5q76 0 117.5 -34t41.5 -96q0 -66 -43.5 -102.5t-122.5 -36.5q-75 0 -119 29t-51 83h47q16 -68 123 -68
q114 0 114 94q0 90 -113 90q-81 0 -120 -36h-43l22 223h275v-45h-233z" />
    <glyph glyph-name="sixsevenths" unicode="&#xf50b;" horiz-adv-x="1068" 
d="M265 0l434 691h62l-434 -691h-62zM751 0q39 106 82.5 191t99.5 166h-283v45h342v-39q-123 -175 -183 -363h-58zM365 599q-10 32 -35 46.5t-70 14.5q-135 0 -139 -175q39 61 143 61q76 0 118 -34t42 -96q0 -64 -47.5 -102t-126.5 -38q-87 0 -133 49t-46 141
q0 114 49.5 176t140.5 62q63 0 100 -23.5t51 -72.5zM373 414q0 44 -30 67.5t-87 23.5q-61 0 -94.5 -23t-33.5 -63q0 -46 33 -72.5t89 -26.5q57 0 90 25t33 69z" />
    <glyph glyph-name="oneeighth" unicode="&#x215b;" horiz-adv-x="1068" 
d="M263 0l434 691h62l-434 -691h-62zM906 207q43 -11 68 -37.5t25 -64.5q0 -57 -45 -87.5t-131 -30.5q-87 0 -132.5 30.5t-45.5 87.5q0 37 25 64t68 38q-37 12 -56.5 36.5t-19.5 57.5q0 54 42.5 84t117.5 30t117.5 -30t42.5 -84q0 -33 -20 -57.5t-56 -36.5zM932 301
q0 35 -28.5 53.5t-81.5 18.5t-81.5 -19t-28.5 -54q0 -36 28 -55t82 -19q110 0 110 75zM948 106q0 38 -32 58t-94 20t-94 -20t-32 -58q0 -37 32.5 -57t93.5 -20t93.5 20t32.5 57zM265 289v344l-130 -72l-22 38l158 92h48v-402h-54z" />
    <glyph glyph-name="threeeighths" unicode="&#x215c;" horiz-adv-x="1068" 
d="M294 0l434 691h62l-434 -691h-62zM906 207q43 -11 68 -37.5t25 -64.5q0 -57 -45 -87.5t-131 -30.5q-87 0 -132.5 30.5t-45.5 87.5q0 37 25 64t68 38q-37 12 -56.5 36.5t-19.5 57.5q0 54 42.5 84t117.5 30t117.5 -30t42.5 -84q0 -33 -20 -57.5t-56 -36.5zM932 301
q0 35 -28.5 53.5t-81.5 18.5t-81.5 -19t-28.5 -54q0 -36 28 -55t82 -19q110 0 110 75zM948 106q0 38 -32 58t-94 20t-94 -20t-32 -58q0 -37 32.5 -57t93.5 -20t93.5 20t32.5 57zM198 475v46h64q46 0 71 18.5t25 52.5q0 68 -107 68q-50 0 -78.5 -17t-41.5 -55l-48 8
q14 51 58.5 79.5t110.5 28.5q74 0 116 -28.5t42 -79.5q0 -66 -79 -93q43 -11 66.5 -37.5t23.5 -65.5q0 -59 -44.5 -91.5t-125.5 -32.5q-76 0 -123 34t-50 91h48q7 -41 37.5 -61t86.5 -20q59 0 89 20t30 59q0 76 -104 76h-67z" />
    <glyph glyph-name="fiveeighths" unicode="&#x215d;" horiz-adv-x="1068" 
d="M292 0l434 691h62l-434 -691h-62zM906 207q43 -11 68 -37.5t25 -64.5q0 -57 -45 -87.5t-131 -30.5q-87 0 -132.5 30.5t-45.5 87.5q0 37 25 64t68 38q-37 12 -56.5 36.5t-19.5 57.5q0 54 42.5 84t117.5 30t117.5 -30t42.5 -84q0 -33 -20 -57.5t-56 -36.5zM932 301
q0 35 -28.5 53.5t-81.5 18.5t-81.5 -19t-28.5 -54q0 -36 28 -55t82 -19q110 0 110 75zM948 106q0 38 -32 58t-94 20t-94 -20t-32 -58q0 -37 32.5 -57t93.5 -20t93.5 20t32.5 57zM162 646l-13 -134q18 16 49.5 24.5t68.5 8.5q76 0 117.5 -34t41.5 -96q0 -66 -43.5 -102.5
t-122.5 -36.5q-75 0 -119 29t-51 83h47q16 -68 123 -68q114 0 114 94q0 90 -113 90q-81 0 -120 -36h-43l22 223h275v-45h-233z" />
    <glyph glyph-name="seveneighths" unicode="&#x215e;" horiz-adv-x="1068" 
d="M243 0l434 691h62l-434 -691h-62zM906 207q43 -11 68 -37.5t25 -64.5q0 -57 -45 -87.5t-131 -30.5q-87 0 -132.5 30.5t-45.5 87.5q0 37 25 64t68 38q-37 12 -56.5 36.5t-19.5 57.5q0 54 42.5 84t117.5 30t117.5 -30t42.5 -84q0 -33 -20 -57.5t-56 -36.5zM932 301
q0 35 -28.5 53.5t-81.5 18.5t-81.5 -19t-28.5 -54q0 -36 28 -55t82 -19q110 0 110 75zM948 106q0 38 -32 58t-94 20t-94 -20t-32 -58q0 -37 32.5 -57t93.5 -20t93.5 20t32.5 57zM175 289q39 106 82.5 191t99.5 166h-283v45h342v-39q-123 -175 -183 -363h-58z" />
    <glyph glyph-name="oneninth" unicode="&#x2151;" horiz-adv-x="1068" 
d="M261 0l434 691h62l-434 -691h-62zM708 93q9 -32 35.5 -47t75.5 -15q69 0 101 42.5t33 133.5q-38 -62 -144 -62q-75 0 -117 34.5t-42 96.5t47.5 100.5t125.5 38.5q86 0 133 -49.5t47 -140.5q0 -120 -45.5 -179t-138.5 -59q-70 0 -109.5 26t-50.5 80h49zM944 272
q0 45 -33 72t-89 27t-88.5 -25t-32.5 -68q0 -46 29.5 -69t86.5 -23q59 0 93 23t34 63zM265 289v344l-130 -72l-22 38l158 92h48v-402h-54z" />
    <glyph glyph-name="twoninths" unicode="&#xf50d;" horiz-adv-x="1068" 
d="M299 0l434 691h62l-434 -691h-62zM708 93q9 -32 35.5 -47t75.5 -15q69 0 101 42.5t33 133.5q-38 -62 -144 -62q-75 0 -117 34.5t-42 96.5t47.5 100.5t125.5 38.5q86 0 133 -49.5t47 -140.5q0 -120 -45.5 -179t-138.5 -59q-70 0 -109.5 26t-50.5 80h49zM944 272
q0 45 -33 72t-89 27t-88.5 -25t-32.5 -68q0 -46 29.5 -69t86.5 -23q59 0 93 23t34 63zM80 289v41q80 54 138 97q63 46 90 70t36.5 42t9.5 41q0 38 -26 58.5t-75 20.5q-52 0 -81.5 -19t-42.5 -62l-48 9q15 57 59.5 87t114.5 30t112 -32t42 -86q0 -32 -14.5 -57t-49 -55.5
t-100.5 -78.5l-45 -31.5t-45 -29.5h264l-11 -45h-328z" />
    <glyph glyph-name="fourninths" unicode="&#xf50e;" horiz-adv-x="1068" 
d="M283 0l434 691h62l-434 -691h-62zM708 93q9 -32 35.5 -47t75.5 -15q69 0 101 42.5t33 133.5q-38 -62 -144 -62q-75 0 -117 34.5t-42 96.5t47.5 100.5t125.5 38.5q86 0 133 -49.5t47 -140.5q0 -120 -45.5 -179t-138.5 -59q-70 0 -109.5 26t-50.5 80h49zM944 272
q0 45 -33 72t-89 27t-88.5 -25t-32.5 -68q0 -46 29.5 -69t86.5 -23q59 0 93 23t34 63zM319 289v104h-253v36l251 262h51v-256h71l-10 -42h-61v-104h-49zM319 635l-193 -200h193v200z" />
    <glyph glyph-name="fiveninths" unicode="&#xf50f;" horiz-adv-x="1068" 
d="M286 0l434 691h62l-434 -691h-62zM708 93q9 -32 35.5 -47t75.5 -15q69 0 101 42.5t33 133.5q-38 -62 -144 -62q-75 0 -117 34.5t-42 96.5t47.5 100.5t125.5 38.5q86 0 133 -49.5t47 -140.5q0 -120 -45.5 -179t-138.5 -59q-70 0 -109.5 26t-50.5 80h49zM944 272
q0 45 -33 72t-89 27t-88.5 -25t-32.5 -68q0 -46 29.5 -69t86.5 -23q59 0 93 23t34 63zM162 646l-13 -134q18 16 49.5 24.5t68.5 8.5q76 0 117.5 -34t41.5 -96q0 -66 -43.5 -102.5t-122.5 -36.5q-75 0 -119 29t-51 83h47q16 -68 123 -68q114 0 114 94q0 90 -113 90
q-81 0 -120 -36h-43l22 223h275v-45h-233z" />
    <glyph glyph-name="sevenninths" unicode="&#xf510;" horiz-adv-x="1068" 
d="M234 0l434 691h62l-434 -691h-62zM708 93q9 -32 35.5 -47t75.5 -15q69 0 101 42.5t33 133.5q-38 -62 -144 -62q-75 0 -117 34.5t-42 96.5t47.5 100.5t125.5 38.5q86 0 133 -49.5t47 -140.5q0 -120 -45.5 -179t-138.5 -59q-70 0 -109.5 26t-50.5 80h49zM944 272
q0 45 -33 72t-89 27t-88.5 -25t-32.5 -68q0 -46 29.5 -69t86.5 -23q59 0 93 23t34 63zM175 289q39 106 82.5 191t99.5 166h-283v45h342v-39q-123 -175 -183 -363h-58z" />
    <glyph glyph-name="eightninths" unicode="&#xf511;" horiz-adv-x="1068" 
d="M287 0l434 691h62l-434 -691h-62zM708 93q9 -32 35.5 -47t75.5 -15q69 0 101 42.5t33 133.5q-38 -62 -144 -62q-75 0 -117 34.5t-42 96.5t47.5 100.5t125.5 38.5q86 0 133 -49.5t47 -140.5q0 -120 -45.5 -179t-138.5 -59q-70 0 -109.5 26t-50.5 80h49zM944 272
q0 45 -33 72t-89 27t-88.5 -25t-32.5 -68q0 -46 29.5 -69t86.5 -23q59 0 93 23t34 63zM330 496q43 -11 68 -37.5t25 -64.5q0 -57 -45 -87.5t-131 -30.5q-87 0 -132.5 30.5t-45.5 87.5q0 37 25 64t68 38q-37 12 -56.5 36.5t-19.5 57.5q0 54 42.5 84t117.5 30t117.5 -30
t42.5 -84q0 -33 -20 -57.5t-56 -36.5zM356 590q0 35 -28.5 53.5t-81.5 18.5t-81.5 -19t-28.5 -54q0 -36 28 -55t82 -19q110 0 110 75zM372 395q0 38 -32 58t-94 20t-94 -20t-32 -58q0 -37 32.5 -57t93.5 -20t93.5 20t32.5 57z" />
    <glyph glyph-name="dollar" unicode="$" horiz-adv-x="700" 
d="M334 -108v91q-125 7 -196 57t-84 141h62q14 -66 69 -102t149 -42v286l-36 5q-114 16 -167.5 62t-53.5 129q0 56 30 98t87.5 66t139.5 27v83h52v-83q107 -5 169 -48.5t84 -128.5l-57 -10q-22 65 -68.5 96.5t-127.5 36.5v-280l31 -4q119 -16 175 -62.5t56 -131.5
q0 -89 -68.5 -140t-193.5 -55v-91h-52zM385 317v-280q103 10 150.5 44.5t47.5 96.5q0 59 -41.5 92t-132.5 44zM333 656q-95 -4 -144.5 -37.5t-49.5 -95.5q0 -61 38.5 -92.5t128.5 -44.5l27 -4v274z" />
    <glyph glyph-name="cent" unicode="&#xa2;" horiz-adv-x="700" 
d="M337 -16v87q-126 7 -195.5 78.5t-69.5 192.5q0 78 31.5 138.5t91.5 96t142 40.5v84h53v-84q95 -5 154 -48t79 -122l-61 -10q-17 60 -60 92.5t-112 36.5v-444q152 9 181 136h62q-15 -85 -77.5 -133t-165.5 -54v-87h-53zM337 565q-95 -7 -147.5 -65t-52.5 -157t51.5 -156
t148.5 -64v442z" />
    <glyph glyph-name="sterling" unicode="&#xa3;" horiz-adv-x="700" 
d="M99 0v53q74 68 74 187q0 25 -8 78h-93v54h85q-16 79 -16 123q0 99 69 157t188 58q98 0 156 -38.5t81 -119.5l-58 -11q-21 60 -62.5 86.5t-115.5 26.5q-92 0 -143 -42t-51 -117q0 -43 15 -123h290v-54h-281q8 -49 8 -76q0 -112 -67 -185h480l-13 -57h-538z" />
    <glyph glyph-name="yen" unicode="&#xa5;" horiz-adv-x="700" 
d="M381 168v-168h-62v168h-237v51h237v87l-18 24h-219v51h179l-237 310h73l255 -336l255 336h69l-237 -310h179v-51h-219l-18 -24v-87h237v-51h-237z" />
    <glyph glyph-name="Euro" unicode="&#x20ac;" horiz-adv-x="700" 
d="M678 194q-16 -104 -85.5 -158t-187.5 -54q-254 0 -290 257h-91l13 51h72q-3 26 -3 54q0 26 3 57h-84l13 51h78q22 125 98 191.5t196 66.5q106 0 169.5 -45t87.5 -137l-58 -11q-22 71 -70 104t-131 33q-93 0 -152 -52t-77 -150h325l-13 -51h-319q-3 -31 -3 -57
q0 -28 3 -54h297l-13 -51h-278q17 -101 73.5 -151t154.5 -50q91 0 143 38.5t68 117.5h61z" />
    <glyph glyph-name="uni20B9" unicode="&#x20b9;" horiz-adv-x="700" 
d="M526 0l-403 288v50h154q107 0 158 30t57 96h-369v50h369q-14 127 -204 127h-165v50h543l-9 -50h-189q78 -38 87 -127h81l-9 -50h-72q-8 -88 -74 -131.5t-196 -43.5h-67l404 -289h-96z" />
    <glyph glyph-name="uni20BA" unicode="&#x20ba;" horiz-adv-x="700" 
d="M639 288q-7 -92 -51.5 -156.5t-122.5 -98t-185 -33.5h-108v273l-88 -30l-15 44l103 35v102l-88 -30l-15 44l103 35v218h65v-196l238 83l15 -44l-253 -88v-102l238 83l15 -44l-253 -88v-238h36q135 0 212 59t90 172h64z" />
    <glyph glyph-name="currency" unicode="&#xa4;" horiz-adv-x="700" 
d="M555 74l-62 67q-60 -44 -143 -44t-143 44l-62 -67l-41 40l61 66q-28 37 -40.5 77t-12.5 89t12.5 89t40.5 77l-61 66l41 40l62 -67q60 44 143 44t143 -44l62 67l41 -40l-61 -66q28 -37 40.5 -77t12.5 -89t-12.5 -89t-40.5 -77l61 -66zM350 149q84 0 131 52t47 145t-47 145
t-131 52t-131 -52t-47 -145t47 -145t131 -52z" />
    <glyph glyph-name="asciicircum" unicode="^" horiz-adv-x="700" 
d="M561 314l-212 341l-212 -341h-67l252 400h56l252 -400h-69z" />
    <glyph glyph-name="plus" unicode="+" horiz-adv-x="700" 
d="M321 73v241h-241v54h241v241h58v-241h241v-54h-241v-241h-58z" />
    <glyph glyph-name="minus" unicode="&#x2212;" horiz-adv-x="700" 
d="M93 313v56h514v-56h-514z" />
    <glyph glyph-name="plusminus" unicode="&#xb1;" horiz-adv-x="700" 
d="M93 0v56h514v-56h-514zM321 73v241h-241v54h241v241h58v-241h241v-54h-241v-241h-58z" />
    <glyph glyph-name="equal" unicode="=" horiz-adv-x="700" 
d="M93 199v56h514v-56h-514zM93 426v56h514v-56h-514z" />
    <glyph glyph-name="notequal" unicode="&#x2260;" horiz-adv-x="700" 
d="M280 199l-76 -107h-61l76 107h-126v56h166l121 171h-287v56h327l76 107h61l-76 -107h126v-56h-166l-121 -171h287v-56h-327z" />
    <glyph glyph-name="divide" unicode="&#xf7;" horiz-adv-x="700" 
d="M80 314v54h540v-54h-540zM312 114v92h76v-92h-76zM312 476v92h76v-92h-76z" />
    <glyph glyph-name="less" unicode="&#x3c;" horiz-adv-x="700" 
d="M88 316v48l514 234v-60l-441 -197l441 -198v-61z" />
    <glyph glyph-name="greater" unicode="&#x3e;" horiz-adv-x="700" 
d="M98 82v60l441 197l-441 198v61l514 -234v-48z" />
    <glyph glyph-name="lessequal" unicode="&#x2264;" horiz-adv-x="700" 
d="M88 334v48l514 226v-59l-441 -190l441 -190v-61zM88 0v55h514v-55h-514z" />
    <glyph glyph-name="greaterequal" unicode="&#x2265;" horiz-adv-x="700" 
d="M98 108v59l441 190l-441 190v61l514 -226v-48zM98 0v55h514v-55h-514z" />
    <glyph glyph-name="asciitilde" unicode="~" horiz-adv-x="700" 
d="M643 414q0 -79 -39.5 -121.5t-112.5 -42.5q-37 0 -71.5 14t-81.5 50t-74.5 47.5t-56.5 11.5q-45 0 -68.5 -27.5t-23.5 -80.5h-58q0 79 39.5 121.5t112.5 42.5q37 0 71.5 -14t81.5 -50t74.5 -47.5t56.5 -11.5q45 0 68.5 27.5t23.5 80.5h58z" />
    <glyph glyph-name="approxequal" unicode="&#x2248;" horiz-adv-x="700" 
d="M643 287q0 -79 -39.5 -121.5t-112.5 -42.5q-37 0 -71.5 14t-81.5 50t-74.5 47.5t-56.5 11.5q-45 0 -68.5 -27.5t-23.5 -80.5h-58q0 79 39.5 121.5t112.5 42.5q37 0 71.5 -14t81.5 -50t74.5 -47.5t56.5 -11.5q45 0 68.5 27.5t23.5 80.5h58zM643 519q0 -79 -39.5 -121.5
t-112.5 -42.5q-37 0 -71.5 14t-81.5 50t-74.5 47.5t-56.5 11.5q-45 0 -68.5 -27.5t-23.5 -80.5h-58q0 79 39.5 121.5t112.5 42.5q37 0 71.5 -14t81.5 -50t74.5 -47.5t56.5 -11.5q45 0 68.5 27.5t23.5 80.5h58z" />
    <glyph glyph-name="multiply" unicode="&#xd7;" horiz-adv-x="700" 
d="M350 302l-188 -188l-39 39l188 188l-188 188l39 39l188 -188l188 188l39 -39l-188 -188l188 -188l-39 -39z" />
    <glyph glyph-name="underscore" unicode="_" horiz-adv-x="610" 
d="M0 -175v52h610v-52h-610z" />
    <glyph glyph-name="section" unicode="&#xa7;" horiz-adv-x="602" 
d="M241 160q-105 21 -150 58t-45 100q0 54 35 89.5t99 45.5q-67 19 -98 50.5t-31 81.5q0 70 64.5 108.5t180.5 38.5q107 0 168.5 -33.5t84.5 -102.5l-57 -10q-15 36 -39.5 57t-62.5 30.5t-94 9.5q-91 0 -138.5 -25t-47.5 -73q0 -39 33 -63.5t107 -39.5l114 -23
q103 -21 148.5 -57t45.5 -97q0 -56 -35 -92t-99 -46q68 -18 99.5 -50t31.5 -84q0 -76 -62.5 -115t-183.5 -39t-187 40.5t-82 123.5h61q14 -59 64.5 -87t142.5 -28q187 0 187 103q0 42 -32 66.5t-106 39.5zM307 197q26 -6 54 -6q64 0 100.5 29.5t36.5 79.5q0 43 -35.5 69.5
t-113.5 42.5l-54 11q-29 6 -54 6q-64 0 -100.5 -29.5t-36.5 -79.5q0 -42 35 -68.5t111 -42.5z" />
    <glyph glyph-name="degree" unicode="&#xb0;" horiz-adv-x="384" 
d="M351 558q0 -69 -44.5 -112.5t-114.5 -43.5t-114.5 43.5t-44.5 112.5t44.5 112.5t114.5 43.5t114.5 -43.5t44.5 -112.5zM192 450q47 0 77 30t30 78t-30 78t-77 30t-77 -30t-30 -78t30 -78t77 -30z" />
    <glyph glyph-name="mu" unicode="&#xb5;" horiz-adv-x="675" 
d="M528 0v102q-41 -58 -100.5 -88t-134.5 -30q-53 0 -88.5 15.5t-56.5 48.5v-242h-63v709h63v-326q0 -75 39.5 -113t115.5 -38q92 0 158 54q32 25 49 56.5t17 65.5v301h63v-515h-62z" />
    <glyph glyph-name="paragraph" unicode="&#xb6;" horiz-adv-x="688" 
d="M525 -139v799h-156v-799h-63v449q-140 2 -208.5 52t-68.5 149q0 106 76.5 154.5t242.5 48.5h240v-853h-63z" />
    <glyph glyph-name="numbersign" unicode="#" horiz-adv-x="700" 
d="M412 0l31 181h-241l-31 -181h-58l31 181h-124v51h132l39 227h-127v51h135l31 181h58l-31 -181h241l31 181h58l-31 -181h124v-51h-132l-39 -227h127v-51h-135l-31 -181h-58zM490 459h-241l-39 -227h241z" />
    <glyph glyph-name="bar" unicode="|" horiz-adv-x="260" 
d="M100 -124v858h60v-858h-60z" />
    <glyph glyph-name="brokenbar" unicode="&#xa6;" horiz-adv-x="260" 
d="M100 -124v353h60v-353h-60zM100 398v336h60v-336h-60z" />
    <glyph glyph-name="dagger" unicode="&#x2020;" horiz-adv-x="547" 
d="M242 -87v546h-224v56h224v199h63v-199h224v-56h-224v-546h-63z" />
    <glyph glyph-name="daggerdbl" unicode="&#x2021;" horiz-adv-x="547" 
d="M305 112v-199h-63v199h-224v56h224v291h-224v56h224v199h63v-199h224v-56h-224v-291h224v-56h-224z" />
    <glyph glyph-name="logicalnot" unicode="&#xac;" horiz-adv-x="700" 
d="M549 163v210h-491v54h549v-264h-58z" />
    <glyph glyph-name="ampersand" unicode="&#x26;" horiz-adv-x="749" 
d="M665 0l-80 76q-44 -45 -110.5 -68.5t-148.5 -23.5q-138 0 -212.5 51.5t-74.5 147.5q0 68 47 121.5t152 98.5q-54 53 -75.5 90t-21.5 77q0 64 53 104.5t136 40.5t131.5 -38t48.5 -101q0 -58 -39 -98.5t-139 -87.5l249 -234q24 36 36 77.5t13 96.5h58q-2 -128 -66 -212
l126 -118h-83zM275 366q-70 -32 -104.5 -58t-50.5 -55t-16 -63q0 -75 58 -114t169 -39q66 0 121 19.5t92 56.5zM296 426q62 28 95 50t47 44.5t14 50.5q0 44 -32.5 69.5t-87.5 25.5q-61 0 -96 -26t-35 -71q0 -34 20.5 -64.5t74.5 -78.5z" />
    <glyph glyph-name="asterisk" unicode="*" horiz-adv-x="420" 
d="M297 364l-87 129l-87 -129l-49 37l101 121l-137 45l24 56l125 -58l-8 149h62l-8 -149l125 58l24 -56l-137 -45l101 -121z" />
    <glyph glyph-name="hyphen" unicode="-" horiz-adv-x="468" 
d="M54 258v62h360v-62h-360z" />
    <glyph glyph-name="endash" unicode="&#x2013;" horiz-adv-x="610" 
d="M0 260v58h610v-58h-610z" />
    <glyph glyph-name="emdash" unicode="&#x2014;" horiz-adv-x="1220" 
d="M0 260v58h1220v-58h-1220z" />
    <glyph glyph-name="parenleft" unicode="(" horiz-adv-x="285" 
d="M201 -124q-139 181 -139 429t139 429h61q-70 -101 -102 -204t-32 -225t32 -225t102 -204h-61z" />
    <glyph glyph-name="parenright" unicode=")" horiz-adv-x="285" 
d="M23 -124q70 101 102 204t32 225t-32 225t-102 204h61q139 -181 139 -429t-139 -429h-61z" />
    <glyph glyph-name="slash" unicode="/" horiz-adv-x="364" 
d="M10 0l280 734h64l-280 -734h-64z" />
    <glyph glyph-name="backslash" unicode="\" horiz-adv-x="364" 
d="M354 0h-64l-280 734h64z" />
    <glyph glyph-name="bracketleft" unicode="[" horiz-adv-x="341" 
d="M100 -124v858h218v-53h-154v-752h154v-53h-218z" />
    <glyph glyph-name="bracketright" unicode="]" horiz-adv-x="341" 
d="M241 -124h-218v53h154v752h-154v53h218v-858z" />
    <glyph glyph-name="braceleft" unicode="{" horiz-adv-x="349" 
d="M246 -124q-61 0 -92.5 27.5t-31.5 82.5v221q0 71 -84 71h-7v54h7q84 0 84 71v221q0 55 31.5 82.5t92.5 27.5h80v-53h-73q-67 0 -67 -59v-227q0 -76 -72 -90q72 -14 72 -90v-227q0 -59 67 -59h73v-53h-80z" />
    <glyph glyph-name="braceright" unicode="}" horiz-adv-x="349" 
d="M227 -14q0 -55 -31.5 -82.5t-92.5 -27.5h-80v53h73q67 0 67 59v227q0 76 72 90q-72 14 -72 90v227q0 59 -67 59h-73v53h80q61 0 92.5 -27.5t31.5 -82.5v-221q0 -71 84 -71h7v-54h-7q-84 0 -84 -71v-221z" />
    <glyph glyph-name="bullet" unicode="&#x2022;" horiz-adv-x="364" 
d="M316 291q0 -55 -37 -89t-97 -34t-97 34t-37 89t37 89t97 34t97 -34t37 -89z" />
    <glyph glyph-name="guilsinglleft" unicode="&#x2039;" horiz-adv-x="334" 
d="M218 34l-176 222l176 222h67l-171 -221l172 -223h-68z" />
    <glyph glyph-name="guilsinglright" unicode="&#x203a;" horiz-adv-x="334" 
d="M49 34l171 221l-172 223h68l176 -222l-176 -222h-67z" />
    <glyph glyph-name="guillemotleft" unicode="&#xab;" horiz-adv-x="554" 
d="M218 34l-176 222l176 222h67l-171 -221l172 -223h-68zM438 34l-176 222l176 222h67l-171 -221l172 -223h-68z" />
    <glyph glyph-name="guillemotright" unicode="&#xbb;" horiz-adv-x="554" 
d="M49 34l171 221l-172 223h68l176 -222l-176 -222h-67zM269 34l171 221l-172 223h68l176 -222l-176 -222h-67z" />
    <glyph glyph-name="at" unicode="@" horiz-adv-x="1100" 
d="M916 -60q-64 -77 -162 -114.5t-235 -37.5q-143 0 -247 46t-160 134.5t-56 212.5q0 136 65 246.5t185.5 175.5t275.5 65q138 0 242.5 -45t162 -130.5t57.5 -202.5q0 -86 -29 -154t-83.5 -107t-126.5 -39q-58 0 -87.5 23.5t-33.5 72.5q-30 -46 -79.5 -71t-112.5 -25
q-91 0 -142.5 50.5t-51.5 139.5q0 75 32 137t91 99t133 37q64 0 108 -25t61 -70l15 83h58l-58 -319q-3 -18 -3 -29q0 -58 74 -58q52 0 93 30.5t64.5 87.5t23.5 133q0 100 -48.5 175t-141.5 116.5t-220 41.5q-131 0 -236.5 -53t-167.5 -152t-62 -228q0 -167 107.5 -258
t305.5 -91q107 0 181.5 24.5t133.5 78.5h74zM701 244q4 19 4 41q0 52 -40 85t-104 33q-56 0 -101.5 -27t-72.5 -77t-27 -115q0 -69 36.5 -106.5t104.5 -37.5q78 0 128 42t64 118z" />
    <glyph glyph-name="periodcentered" unicode="&#xb7;" horiz-adv-x="234" 
d="M82 318v110h70v-110h-70z" />
    <glyph glyph-name="hyphen.case" horiz-adv-x="468" 
d="M54 328v62h360v-62h-360z" />
    <glyph glyph-name="endash.case" horiz-adv-x="610" 
d="M0 330v58h610v-58h-610z" />
    <glyph glyph-name="emdash.case" horiz-adv-x="1220" 
d="M0 330v58h1220v-58h-1220z" />
    <glyph glyph-name="parenleft.case" horiz-adv-x="285" 
d="M201 -72q-139 181 -139 429t139 429h61q-70 -101 -102 -204t-32 -225t32 -225t102 -204h-61z" />
    <glyph glyph-name="parenright.case" horiz-adv-x="285" 
d="M23 -72q70 101 102 204t32 225t-32 225t-102 204h61q139 -181 139 -429t-139 -429h-61z" />
    <glyph glyph-name="slash.case" horiz-adv-x="364" 
d="M10 -9l280 734h64l-280 -734h-64z" />
    <glyph glyph-name="backslash.case" horiz-adv-x="364" 
d="M354 -9h-64l-280 734h64z" />
    <glyph glyph-name="bracketleft.case" horiz-adv-x="341" 
d="M100 -72v858h218v-53h-154v-752h154v-53h-218z" />
    <glyph glyph-name="bracketright.case" horiz-adv-x="341" 
d="M241 -72h-218v53h154v752h-154v53h218v-858z" />
    <glyph glyph-name="braceleft.case" horiz-adv-x="349" 
d="M246 -72q-61 0 -92.5 27.5t-31.5 82.5v221q0 71 -84 71h-7v54h7q84 0 84 71v221q0 55 31.5 82.5t92.5 27.5h80v-53h-73q-67 0 -67 -59v-227q0 -76 -72 -90q72 -14 72 -90v-227q0 -59 67 -59h73v-53h-80z" />
    <glyph glyph-name="braceright.case" horiz-adv-x="349" 
d="M227 38q0 -55 -31.5 -82.5t-92.5 -27.5h-80v53h73q67 0 67 59v227q0 76 72 90q-72 14 -72 90v227q0 59 -67 59h-73v53h80q61 0 92.5 -27.5t31.5 -82.5v-221q0 -71 84 -71h7v-54h-7q-84 0 -84 -71v-221z" />
    <glyph glyph-name="bullet.case" horiz-adv-x="364" 
d="M316 358q0 -55 -37 -89t-97 -34t-97 34t-37 89t37 89t97 34t97 -34t37 -89z" />
    <glyph glyph-name="guilsinglleft.case" horiz-adv-x="334" 
d="M218 134l-176 222l176 222h67l-171 -221l172 -223h-68z" />
    <glyph glyph-name="guilsinglright.case" horiz-adv-x="334" 
d="M49 134l171 221l-172 223h68l176 -222l-176 -222h-67z" />
    <glyph glyph-name="guillemotleft.case" horiz-adv-x="554" 
d="M218 134l-176 222l176 222h67l-171 -221l172 -223h-68zM438 134l-176 222l176 222h67l-171 -221l172 -223h-68z" />
    <glyph glyph-name="guillemotright.case" horiz-adv-x="554" 
d="M49 134l171 221l-172 223h68l176 -222l-176 -222h-67zM269 134l171 221l-172 223h68l176 -222l-176 -222h-67z" />
    <glyph glyph-name="at.case" horiz-adv-x="1110" 
d="M921 69q-64 -77 -162 -114.5t-235 -37.5q-143 0 -247 46t-160 134.5t-56 212.5q0 136 65 246.5t185.5 175.5t275.5 65q138 0 242.5 -45t162 -130.5t57.5 -202.5q0 -86 -29 -154t-83.5 -107t-126.5 -39q-58 0 -87.5 23.5t-33.5 72.5q-30 -46 -79.5 -71t-112.5 -25
q-91 0 -142.5 50.5t-51.5 139.5q0 75 32 137t91 99t133 37q64 0 108 -25t61 -70l15 83h58l-58 -319q-3 -18 -3 -29q0 -58 74 -58q52 0 93 30.5t64.5 87.5t23.5 133q0 100 -48.5 175t-141.5 116.5t-220 41.5q-131 0 -236.5 -53t-167.5 -152t-62 -228q0 -167 107.5 -258
t305.5 -91q107 0 181.5 24.5t133.5 78.5h74zM706 373q4 19 4 41q0 52 -40 85t-104 33q-56 0 -101.5 -27t-72.5 -77t-27 -115q0 -69 36.5 -106.5t104.5 -37.5q78 0 128 42t64 118z" />
    <glyph glyph-name="periodcentered.case" horiz-adv-x="234" 
d="M82 301v110h70v-110h-70z" />
    <glyph glyph-name="questiondown.case" horiz-adv-x="616" 
d="M578 171q-21 -91 -88.5 -137t-179.5 -46q-116 0 -181.5 49.5t-65.5 137.5q0 55 26.5 97t91.5 90q48 35 70.5 57.5t31 42.5t8.5 47v12h62v-10q0 -52 -25.5 -90t-96.5 -90q-42 -31 -63.5 -53.5t-30 -44.5t-8.5 -50q0 -67 47.5 -103.5t134.5 -36.5q88 0 138 33t70 104z
M287 604v110h70v-110h-70z" />
    <glyph glyph-name="exclamdown.case" horiz-adv-x="234" 
d="M84 0l2 521h62l2 -521h-66zM82 604v110h70v-110h-70z" />
    <glyph glyph-name="uni2010" unicode="&#x2010;" horiz-adv-x="468" 
d="M54 258v62h360v-62h-360z" />
    <glyph glyph-name="uni2012" unicode="&#x2012;" horiz-adv-x="700" 
d="M45 317v58h610v-58h-610z" />
    <glyph glyph-name="uni2015" unicode="&#x2015;" horiz-adv-x="1220" 
d="M0 260v58h1220v-58h-1220z" />
    <glyph glyph-name="uni00AD" unicode="&#xad;" horiz-adv-x="468" 
d="M54 258v62h360v-62h-360z" />
    <glyph glyph-name="A" unicode="A" horiz-adv-x="801" 
d="M709 0l-105 217h-409l-105 -217h-71l347 714h69l347 -714h-73zM399 644l-178 -370h356z" />
    <glyph glyph-name="B" unicode="B" horiz-adv-x="767" 
d="M100 0v714h319q131 0 197.5 -45.5t66.5 -133.5q0 -61 -33 -101t-97 -57q78 -20 118.5 -65t40.5 -112q0 -98 -72 -149t-212 -51h-328zM425 402q97 0 144.5 32t47.5 98q0 65 -49 95.5t-154 30.5h-249v-256h260zM423 56q114 0 168 35t54 109q0 72 -54 109t-158 37h-268v-290
h258z" />
    <glyph glyph-name="C" unicode="C" horiz-adv-x="843" 
d="M786 232q-20 -119 -110.5 -184.5t-234.5 -65.5q-114 0 -199.5 44.5t-133 129t-47.5 200.5q0 110 45 195t131 133t201 48q134 0 219 -58.5t116 -173.5l-64 -10q-31 95 -96.5 139.5t-174.5 44.5q-92 0 -161.5 -37.5t-108 -109.5t-38.5 -171q0 -147 83 -231.5t228 -84.5
q117 0 187 48.5t90 143.5h68z" />
    <glyph glyph-name="D" unicode="D" horiz-adv-x="845" 
d="M100 0v714h292q188 0 290 -93t102 -264q0 -173 -107.5 -265t-307.5 -92h-269zM371 57q169 0 256.5 76.5t87.5 223.5t-82.5 223.5t-240.5 76.5h-226v-600h205z" />
    <glyph glyph-name="E" unicode="E" horiz-adv-x="718" 
d="M100 0v714h553v-57h-487v-260h462v-57h-462v-283h503l-13 -57h-556z" />
    <glyph glyph-name="F" unicode="F" horiz-adv-x="660" 
d="M166 331v-331h-66v714h526v-57h-460v-269h435v-57h-435z" />
    <glyph glyph-name="G" unicode="G" horiz-adv-x="843" 
d="M712 297h-249v57h312v-274q-60 -46 -144.5 -72t-174.5 -26q-120 0 -209 43.5t-137.5 127t-48.5 201.5q0 113 45.5 198.5t132.5 132.5t205 47q120 0 200.5 -51.5t112.5 -147.5l-65 -12q-27 76 -90 114.5t-160 38.5q-95 0 -165 -37.5t-108.5 -109.5t-38.5 -172
q0 -150 86 -232.5t241 -82.5q73 0 139 16.5t116 48.5v192z" />
    <glyph glyph-name="H" unicode="H" horiz-adv-x="844" 
d="M678 0v340h-512v-340h-66v714h66v-314h512v314h66v-714h-66z" />
    <glyph glyph-name="I" unicode="I" horiz-adv-x="266" 
d="M100 0v714h66v-714h-66z" />
    <glyph glyph-name="J" unicode="J" horiz-adv-x="694" 
d="M536 714h66v-471q0 -129 -71 -195t-210 -66q-128 0 -202 57.5t-89 167.5h67q31 -167 223 -167q109 0 162.5 51t53.5 158v465z" />
    <glyph glyph-name="K" unicode="K" horiz-adv-x="781" 
d="M678 0l-330 407l-182 -145v-262h-66v714h66v-381l475 381h87l-329 -269l361 -445h-82z" />
    <glyph glyph-name="L" unicode="L" horiz-adv-x="682" 
d="M100 0v714h66v-657h486l-13 -57h-539z" />
    <glyph glyph-name="M" unicode="M" horiz-adv-x="1011" 
d="M846 0v619l-312 -619h-57l-312 614v-614h-65v714h83l324 -643l324 643h80v-714h-65z" />
    <glyph glyph-name="N" unicode="N" horiz-adv-x="848" 
d="M682 0l-516 620v-620h-66v714h66l516 -620v620h66v-714h-66z" />
    <glyph glyph-name="O" unicode="O" horiz-adv-x="901" 
d="M840 357q0 -111 -46.5 -195.5t-134.5 -132t-208 -47.5q-116 0 -204 44.5t-137 129.5t-49 201q0 111 46.5 195.5t134.5 132t208 47.5q116 0 204 -44.5t137 -129.5t49 -201zM771 357q0 148 -85 232.5t-236 84.5q-97 0 -169 -37t-111.5 -109t-39.5 -171q0 -148 85 -232.5
t236 -84.5q97 0 169 37t111.5 109t39.5 171z" />
    <glyph glyph-name="P" unicode="P" horiz-adv-x="751" 
d="M100 0v714h332q131 0 199 -55t68 -159q0 -217 -279 -217h-254v-283h-66zM422 340q208 0 208 161q0 156 -204 156h-260v-317h256z" />
    <glyph glyph-name="Q" unicode="Q" horiz-adv-x="901" 
d="M789 -78l-116 116q-95 -56 -222 -56q-116 0 -204 44.5t-137 129.5t-49 201q0 111 46.5 195.5t134.5 132t208 47.5q116 0 204 -44.5t137 -129.5t49 -201q0 -90 -31 -163.5t-90 -123.5l110 -108zM519 190l40 40l116 -116q47 42 71.5 104t24.5 139q0 148 -85 232.5
t-236 84.5q-97 0 -169 -37t-111.5 -109t-39.5 -171q0 -148 85 -232.5t236 -84.5q106 0 178 42z" />
    <glyph glyph-name="R" unicode="R" horiz-adv-x="753" 
d="M648 0l-178 310q-17 -2 -53 -2h-252v-308h-65v714h328q130 0 197 -51.5t67 -152.5q0 -75 -39.5 -122.5t-115.5 -65.5l187 -322h-76zM420 365q204 0 204 146q0 74 -49 110t-152 36h-258v-292h255z" />
    <glyph glyph-name="S" unicode="S" horiz-adv-x="760" 
d="M620 541q-27 72 -83 103t-159 31q-116 0 -177.5 -35t-61.5 -101q0 -59 43.5 -89.5t147.5 -45.5l128 -18q126 -18 183.5 -66t57.5 -135q0 -98 -79.5 -150.5t-226.5 -52.5q-310 0 -340 211h68q16 -79 82 -116.5t190 -37.5q118 0 178 37t60 110q0 60 -44 92.5t-148 47.5
l-114 16q-134 19 -193.5 64.5t-59.5 130.5q0 92 81 143.5t225 51.5q130 0 201.5 -41.5t103.5 -137.5z" />
    <glyph glyph-name="T" unicode="T" horiz-adv-x="712" 
d="M323 0v657h-305v57h676v-57h-305v-657h-66z" />
    <glyph glyph-name="U" unicode="U" horiz-adv-x="824" 
d="M666 714h66v-431q0 -301 -320 -301t-320 301v431h66v-434q0 -240 254 -240t254 240v434z" />
    <glyph glyph-name="V" unicode="V" horiz-adv-x="770" 
d="M349 0l-330 714h77l292 -643l289 643h74l-330 -714h-72z" />
    <glyph glyph-name="W" unicode="W" horiz-adv-x="1102" 
d="M762 0l-212 630l-213 -630h-72l-242 714h74l206 -631l213 627h72l213 -629l206 633h72l-242 -714h-75z" />
    <glyph glyph-name="X" unicode="X" horiz-adv-x="763" 
d="M658 0l-282 328l-278 -328h-79l314 373l-291 341h86l251 -294l254 294h79l-291 -337l323 -377h-86z" />
    <glyph glyph-name="Y" unicode="Y" horiz-adv-x="714" 
d="M324 0v304l-305 410h81l259 -351l259 351h77l-305 -409v-305h-66z" />
    <glyph glyph-name="Z" unicode="Z" horiz-adv-x="694" 
d="M33 0v52l537 605h-528v57h612v-52l-537 -605h547l-13 -57h-618z" />
    <glyph glyph-name="a" unicode="a" horiz-adv-x="644" 
d="M503 0v96q-82 -109 -243 -109q-101 0 -155.5 41t-54.5 117q0 81 69.5 121t216.5 44l166 4v25q0 72 -42.5 107t-131.5 35q-81 0 -128 -22t-62 -67l-58 9q17 66 78.5 98t171.5 32q118 0 175.5 -47.5t57.5 -144.5v-339h-60zM502 268l-164 -5q-119 -4 -171 -30.5t-52 -83.5
q0 -52 41.5 -81t117.5 -29q47 0 90.5 13.5t74.5 37.5q30 23 46.5 52t16.5 59v67z" />
    <glyph glyph-name="b" unicode="b" horiz-adv-x="708" 
d="M85 0v714h63v-300q33 54 96.5 85.5t142.5 31.5t139 -32.5t93 -94t33 -145.5q0 -81 -33 -143t-95 -97t-145 -35q-160 0 -232 113v-97h-62zM147 237q0 -46 17 -85t50 -66q29 -24 67.5 -36.5t82.5 -12.5q106 0 164 57.5t58 164.5q0 102 -57.5 160.5t-157.5 58.5
q-45 0 -87.5 -15t-73.5 -42q-30 -26 -46.5 -63t-16.5 -78v-43z" />
    <glyph glyph-name="c" unicode="c" horiz-adv-x="646" 
d="M597 172q-16 -89 -84.5 -138.5t-175.5 -49.5q-85 0 -148.5 32t-98 93t-34.5 146q0 81 34 143t98.5 97.5t151.5 35.5q98 0 162.5 -44.5t84.5 -125.5l-62 -10q-17 61 -65.5 94t-121.5 33q-100 0 -158 -59.5t-58 -162.5t57.5 -161t158.5 -58q80 0 131 35t65 100h63z" />
    <glyph glyph-name="d" unicode="d" horiz-adv-x="708" 
d="M561 0v103q-33 -55 -97 -87t-143 -32t-139 32.5t-93 94t-33 145.5q0 81 33 143t95 97t145 35q158 0 231 -112v295h63v-714h-62zM561 278q0 46 -17 85t-50 66q-29 24 -67.5 36.5t-82.5 12.5q-106 0 -164 -57.5t-58 -164.5q0 -102 57.5 -160.5t157.5 -58.5q45 0 87.5 15
t73.5 42q30 26 46.5 63t16.5 78v43z" />
    <glyph glyph-name="e" unicode="e" horiz-adv-x="656" 
d="M118 240q2 -95 59.5 -149.5t156.5 -54.5q77 0 127.5 26t68.5 75h61q-21 -75 -87 -114t-172 -39q-130 0 -203 70.5t-73 198.5q0 82 33 144.5t95.5 98t147.5 35.5q126 0 197 -68.5t71 -191.5v-31h-482zM538 288q-1 91 -55 141.5t-151 50.5q-91 0 -148.5 -52.5t-63.5 -139.5
h418z" />
    <glyph glyph-name="f" unicode="f" horiz-adv-x="399" 
d="M127 0v465h-102v50h102v52q0 73 47.5 114t132.5 41q51 0 96 -14l-12 -49q-37 10 -75 10q-126 0 -126 -102v-52h185v-50h-185v-465h-63z" />
    <glyph glyph-name="g" unicode="g" horiz-adv-x="708" 
d="M560 127q-34 -58 -96 -88.5t-143 -30.5q-79 0 -138.5 30.5t-93 89t-33.5 138.5q0 76 33.5 136t95.5 94.5t144 34.5t139 -27t94 -84v95h61v-461q0 -136 -66 -197.5t-209 -61.5q-119 0 -184 36.5t-82 112.5h62q18 -52 65.5 -74.5t137.5 -22.5q110 0 161.5 44t51.5 140v96z
M561 284q0 91 -67 147q-56 47 -151 47q-103 0 -162 -56t-59 -155q0 -97 57 -151.5t158 -54.5q46 0 88.5 15t70.5 41q65 57 65 135v32z" />
    <glyph glyph-name="h" unicode="h" horiz-adv-x="682" 
d="M538 0v322q0 155 -165 155q-45 0 -87 -15t-73 -41q-65 -52 -65 -120v-301h-63v714h63v-300q40 57 101.5 87t136.5 30q105 0 160 -51t55 -149v-331h-63z" />
    <glyph glyph-name="i" unicode="i" horiz-adv-x="233" 
d="M85 0v515h63v-515h-63zM83 616v98h67v-98h-67z" />
    <glyph glyph-name="j" unicode="j" horiz-adv-x="233" 
d="M85 515h63v-556q0 -83 -36 -123.5t-110 -40.5q-52 0 -103 18l12 50q43 -14 85 -14q45 0 67 24t22 73v569zM83 616v98h67v-98h-67z" />
    <glyph glyph-name="k" unicode="k" horiz-adv-x="611" 
d="M532 0l-235 316l-149 -105v-211h-63v714h63v-440l338 241h90l-231 -165l261 -350h-74z" />
    <glyph glyph-name="l" unicode="l" horiz-adv-x="233" 
d="M85 0v714h63v-714h-63z" />
    <glyph glyph-name="m" unicode="m" horiz-adv-x="1045" 
d="M901 0v325q0 152 -146 152q-77 0 -140 -53q-59 -51 -59 -113v-311h-63v325q0 152 -146 152q-78 0 -140 -57q-59 -52 -59 -119v-301h-63v515h62v-102q37 57 92 87.5t122 30.5q73 0 120 -30.5t64 -89.5q82 120 224 120q95 0 145 -51t50 -146v-334h-63z" />
    <glyph glyph-name="n" unicode="n" horiz-adv-x="682" 
d="M538 0v322q0 155 -165 155q-45 0 -87 -15t-73 -41q-65 -52 -65 -120v-301h-63v515h62v-102q40 57 101.5 87.5t137.5 30.5q105 0 160 -51t55 -149v-331h-63z" />
    <glyph glyph-name="o" unicode="o" horiz-adv-x="696" 
d="M640 260q0 -127 -79.5 -201.5t-214.5 -74.5t-212.5 72.5t-77.5 199.5q0 82 35 144t101.5 96.5t157.5 34.5q135 0 212.5 -72.5t77.5 -198.5zM574 259q0 103 -59.5 161t-166.5 58t-166.5 -58.5t-59.5 -162.5t59.5 -162t165.5 -58q107 0 167 58.5t60 163.5z" />
    <glyph glyph-name="p" unicode="p" horiz-adv-x="708" 
d="M85 -194v709h62v-103q33 55 97 87t143 32t139 -32.5t93 -94t33 -145.5q0 -81 -33 -143t-95 -97t-145 -35q-158 0 -231 112v-290h-63zM147 237q0 -46 17 -85t50 -66q29 -24 67.5 -36.5t82.5 -12.5q106 0 164 57.5t58 164.5q0 102 -57.5 160.5t-157.5 58.5q-45 0 -87.5 -15
t-73.5 -42q-30 -26 -46.5 -63t-16.5 -78v-43z" />
    <glyph glyph-name="q" unicode="q" horiz-adv-x="708" 
d="M560 -194v295q-33 -54 -96.5 -85.5t-142.5 -31.5t-139 32.5t-93 94t-33 145.5q0 81 33 143t95 97t145 35q160 0 232 -113v97h62v-709h-63zM561 278q0 46 -17 85t-50 66q-29 24 -67.5 36.5t-82.5 12.5q-106 0 -164 -57.5t-58 -164.5q0 -102 57.5 -160.5t157.5 -58.5
q45 0 87.5 15t73.5 42q30 26 46.5 63t16.5 78v43z" />
    <glyph glyph-name="r" unicode="r" horiz-adv-x="431" 
d="M85 0v515h62v-103q37 54 90 82.5t115 28.5q27 0 52 -5l-7 -56q-23 5 -50 5q-47 0 -84 -15t-68 -46q-47 -47 -47 -106v-300h-63z" />
    <glyph glyph-name="s" unicode="s" horiz-adv-x="618" 
d="M489 388q-17 49 -61.5 71t-126.5 22t-127.5 -24.5t-45.5 -67.5q0 -41 33.5 -61.5t121.5 -32.5l64 -9q83 -12 129.5 -30.5t66 -46.5t19.5 -71q0 -154 -248 -154q-117 0 -182 39.5t-81 119.5h61q17 -57 65.5 -83t136.5 -26q92 0 140 25.5t48 75.5q0 24 -9 39t-29 25.5
t-51 18t-79 14.5l-61 9q-113 16 -158.5 48.5t-45.5 97.5q0 68 61.5 106t170.5 38q108 0 166 -31.5t80 -102.5z" />
    <glyph glyph-name="t" unicode="t" horiz-adv-x="421" 
d="M400 9q-55 -20 -117 -20q-80 0 -118 39t-38 120v317h-102v50h102v142h63v-142h196v-50h-196v-320q0 -103 102 -103q46 0 97 18z" />
    <glyph glyph-name="u" unicode="u" horiz-adv-x="671" 
d="M524 0v102q-41 -58 -101.5 -88t-135.5 -30q-98 0 -152 51t-54 145v335h63v-326q0 -74 39.5 -112.5t116.5 -38.5q91 0 157 54q32 25 49 56.5t17 65.5v301h63v-515h-62z" />
    <glyph glyph-name="v" unicode="v" horiz-adv-x="593" 
d="M263 0l-252 515h73l214 -450l214 450h70l-252 -515h-67z" />
    <glyph glyph-name="w" unicode="w" horiz-adv-x="875" 
d="M606 0l-169 442l-168 -442h-67l-189 515h68l157 -445l169 442h64l169 -441l157 444h65l-189 -515h-67z" />
    <glyph glyph-name="x" unicode="x" horiz-adv-x="588" 
d="M499 0l-208 230l-206 -230h-74l243 272l-224 243h78l186 -201l184 201h74l-223 -242l248 -273h-78z" />
    <glyph glyph-name="y" unicode="y" horiz-adv-x="593" 
d="M274 8l-263 507h73l224 -441l205 441h69l-281 -589q-35 -73 -72.5 -102t-95.5 -29q-46 0 -87 16l12 50q35 -11 68 -11q42 0 66 18t46 64z" />
    <glyph glyph-name="z" unicode="z" horiz-adv-x="568" 
d="M36 0v47l393 417h-385v51h467v-47l-393 -417h415l-11 -51h-486z" />
    <glyph glyph-name="trademark" unicode="&#x2122;" horiz-adv-x="1058" 
d="M185 314v357h-169v43h389v-43h-169v-357h-51zM920 314v325l-176 -325h-40l-176 325v-325h-48v400h59l187 -347l185 347h57v-400h-48z" />
    <glyph glyph-name="ordfeminine" unicode="&#xaa;" horiz-adv-x="502" 
d="M379 342v66q-24 -35 -69 -55t-102 -20q-78 0 -120.5 30t-42.5 85q0 60 51.5 90.5t156.5 33.5l124 3v18q-1 52 -29.5 73.5t-96.5 21.5q-63 0 -93 -13.5t-42 -47.5l-47 7q13 51 57 74.5t127 23.5q91 0 133.5 -34t42.5 -107v-249h-50zM377 535l-125 -3q-81 -2 -116.5 -20.5
t-35.5 -58.5q0 -76 116 -76q74 0 114 29q26 20 36.5 38t10.5 45v46z" />
    <glyph glyph-name="ordmasculine" unicode="&#xba;" horiz-adv-x="534" 
d="M483 532q0 -93 -58.5 -148.5t-158.5 -55.5t-157.5 53.5t-57.5 146.5t58.5 148.5t158.5 55.5t157.5 -53.5t57.5 -146.5zM426 531q0 73 -42 113t-116 40q-76 0 -118 -41t-42 -114t42 -113t116 -40q76 0 118 41t42 114z" />
    <glyph glyph-name="afii61289" unicode="&#x2113;" horiz-adv-x="401" 
d="M372 40q-52 -58 -128 -58q-61 0 -95 32t-34 90v112l-65 -53l-25 32l90 77v297q0 73 33.5 114.5t92.5 41.5q57 0 86.5 -34t29.5 -100q0 -85 -47 -171t-137 -166v-141q0 -40 21 -61.5t59 -21.5q50 0 91 40zM174 315q62 59 98.5 132.5t36.5 141.5q0 91 -67 91
q-33 0 -50.5 -27.5t-17.5 -77.5v-260z" />
    <glyph glyph-name="estimated" unicode="&#x212e;" horiz-adv-x="911" 
d="M775 129q-54 -66 -139 -103t-182 -37q-107 0 -198.5 46.5t-148.5 130t-57 186.5q0 95 51.5 178t145 135t207.5 52q107 0 199.5 -47t150 -131.5t57.5 -186.5v-10h-657q-5 0 -5 -4v-199q0 -13 9 -22q50 -53 113 -80.5t135 -27.5q75 0 141.5 31t119.5 89h58zM711 568
q0 14 -9 24q-50 50 -113.5 76.5t-132.5 26.5q-68 0 -132 -28t-115 -79q-10 -7 -10 -24v-195q0 -7 5 -7h503q4 0 4 7v199z" />
    <glyph glyph-name="copyright" unicode="&#xa9;" horiz-adv-x="931" 
d="M870 357q0 -105 -48.5 -185.5t-140.5 -126t-215 -45.5q-119 0 -210 43t-142.5 124t-51.5 190q0 105 48.5 185.5t140.5 126t215 45.5q119 0 210 -43t142.5 -124t51.5 -190zM815 357q0 92 -41.5 161.5t-120.5 108t-187 38.5q-104 0 -182.5 -36.5t-122.5 -106t-44 -165.5
q0 -92 41.5 -161.5t120.5 -108t187 -38.5q104 0 182.5 36.5t122.5 106t44 165.5zM668 294q-13 -67 -64 -103.5t-132 -36.5q-97 0 -153.5 54.5t-56.5 146.5t58.5 149t153.5 57q73 0 121 -32.5t64 -92.5l-54 -11q-25 88 -133 88q-69 0 -110.5 -42.5t-41.5 -114.5
q0 -73 40.5 -113.5t111.5 -40.5q58 0 94 23.5t46 68.5h56z" />
    <glyph glyph-name="registered" unicode="&#xae;" horiz-adv-x="576" 
d="M531 519q0 -97 -66 -155t-177 -58t-177 58t-66 155t66 155t177 58t177 -58t66 -155zM491 519q0 82 -54.5 129.5t-148.5 47.5t-148.5 -47.5t-54.5 -129.5t54.5 -129.5t148.5 -47.5t148.5 47.5t54.5 129.5zM361 420l-50 77h-75v-77h-38v202h108q86 0 86 -60q0 -43 -45 -57
l56 -85h-42zM302 528q26 0 39 7.5t13 24.5q0 16 -12.5 23.5t-41.5 7.5h-64v-63h66z" />
    <glyph glyph-name="partialdiff" unicode="&#x2202;" horiz-adv-x="666" 
d="M121 553q26 80 85 118.5t154 38.5q252 0 252 -307q0 -91 -20.5 -172.5t-56.5 -133.5q-79 -115 -249 -115q-72 0 -128 25.5t-88 73t-32 110.5q0 110 78.5 177t207.5 67q83 0 143 -33t78 -89q8 50 8 90q0 130 -48.5 192.5t-148.5 62.5q-73 0 -115 -27t-66 -88zM519 234
q0 69 -53.5 109.5t-144.5 40.5q-101 0 -160.5 -51.5t-59.5 -138.5q0 -71 52.5 -115t138.5 -44q63 0 114.5 24.5t82 70t30.5 104.5z" />
    <glyph glyph-name="product" unicode="&#x220f;" horiz-adv-x="821" 
d="M655 0v657h-489v-657h-66v714h621v-714h-66z" />
    <glyph glyph-name="summation" unicode="&#x2211;" horiz-adv-x="676" 
d="M33 -102v51l292 361l-290 353v51h614v-57h-532l284 -345l-289 -357h552l-13 -57h-618z" />
    <glyph glyph-name="uni2215" unicode="&#x2215;" horiz-adv-x="78" 
d="M-209 0l434 691h62l-434 -691h-62z" />
    <glyph glyph-name="uni2219" unicode="&#x2219;" horiz-adv-x="234" 
d="M82 285v110h70v-110h-70z" />
    <glyph glyph-name="radical" unicode="&#x221a;" horiz-adv-x="672" 
d="M296 0l-162 318h-103v56h146l154 -309l288 666h70l-325 -731h-68z" />
    <glyph glyph-name="infinity" unicode="&#x221e;" horiz-adv-x="720" 
d="M360 294q-50 -119 -169 -119q-71 0 -113.5 45t-42.5 126t42.5 126t113.5 45q119 0 169 -119q50 119 169 119q71 0 113.5 -45t42.5 -126t-42.5 -126t-113.5 -45q-119 0 -169 119zM332 346q-19 59 -53.5 90t-83.5 31q-50 0 -78 -32t-28 -89t28 -89t78 -32q49 0 83.5 31
t53.5 90zM388 346q19 -59 53.5 -90t83.5 -31q50 0 78 32t28 89t-28 89t-78 32q-49 0 -83.5 -31t-53.5 -90z" />
    <glyph glyph-name="integral" unicode="&#x222b;" horiz-adv-x="356" 
d="M47 -57q32 -10 62 -10q85 0 85 78q0 17 -6 54l-81 470q-6 35 -6 57q0 61 36.5 95.5t104.5 34.5q46 0 80 -12l-13 -51q-32 10 -62 10q-85 0 -85 -78q0 -16 6 -54l81 -470q6 -34 6 -57q0 -61 -36.5 -95.5t-104.5 -34.5q-45 0 -80 12z" />
    <glyph glyph-name="lozenge" unicode="&#x25ca;" horiz-adv-x="696" 
d="M320 0l-274 357l274 357h56l274 -357l-274 -357h-56zM581 357l-233 301l-233 -301l233 -301z" />
    <glyph glyph-name="uni2206" unicode="&#x2206;" horiz-adv-x="795" 
d="M19 0l344 714h69l344 -714h-757zM396 644l-278 -587h558z" />
    <glyph glyph-name="uni2126" unicode="&#x2126;" horiz-adv-x="886" 
d="M540 0v51q106 56 156 135.5t50 189.5q0 140 -80 219t-223 79t-223 -79t-80 -219q0 -110 50 -189.5t156 -135.5v-51h-309v57h218q-184 118 -184 321q0 104 45 184t129 125t198 45q109 0 193 -42.5t131.5 -123t47.5 -188.5q0 -203 -184 -321h218l-13 -57h-296z" />
    <glyph glyph-name="quoteleft" unicode="&#x2018;" horiz-adv-x="192" 
d="M45 512l56 202h51l-40 -202h-67z" />
    <glyph glyph-name="quoteright" unicode="&#x2019;" horiz-adv-x="192" 
d="M40 512l40 202h67l-56 -202h-51z" />
    <glyph glyph-name="quotesinglbase" unicode="&#x201a;" horiz-adv-x="192" 
d="M40 -91l40 202h67l-56 -202h-51z" />
    <glyph glyph-name="quotedblleft" unicode="&#x201c;" horiz-adv-x="333" 
d="M45 512l56 202h51l-40 -202h-67zM186 512l56 202h51l-40 -202h-67z" />
    <glyph glyph-name="quotedblright" unicode="&#x201d;" horiz-adv-x="333" 
d="M40 512l40 202h67l-56 -202h-51zM181 512l40 202h67l-56 -202h-51z" />
    <glyph glyph-name="quotedblbase" unicode="&#x201e;" horiz-adv-x="333" 
d="M40 -91l40 202h67l-56 -202h-51zM181 -91l40 202h67l-56 -202h-51z" />
    <glyph glyph-name="minute" unicode="&#x2032;" horiz-adv-x="220" 
d="M51 464l50 250h67l-65 -250h-52z" />
    <glyph glyph-name="second" unicode="&#x2033;" horiz-adv-x="401" 
d="M51 464l50 250h67l-65 -250h-52zM233 464l50 250h67l-65 -250h-52z" />
    <glyph glyph-name="periodcentered.loclCAT" horiz-adv-x="234" 
d="M82 318v110h70v-110h-70z" />
    <glyph glyph-name="periodcentered.loclCAT.cap" horiz-adv-x="234" 
d="M82 342v110h70v-110h-70z" />
    <glyph glyph-name="uni02BC" unicode="&#x2bc;" horiz-adv-x="682" 
d="M290 512l38 202h68l-54 -202h-52z" />
    <glyph glyph-name="dotlessi" unicode="&#x131;" horiz-adv-x="233" 
d="M85 0v515h63v-515h-63z" />
    <glyph glyph-name="uni0237" unicode="&#x237;" horiz-adv-x="233" 
d="M85 515h63v-556q0 -83 -36 -123.5t-110 -40.5q-52 0 -103 18l12 50q43 -14 85 -14q45 0 67 24t22 73v569z" />
    <glyph glyph-name="i.locl" horiz-adv-x="233" 
d="M85 0v515h63v-515h-63zM83 616v98h67v-98h-67z" />
    <glyph glyph-name="IJ" unicode="&#x132;" horiz-adv-x="960" 
d="M100 0v714h66v-714h-66zM802 714h66v-471q0 -129 -71 -195t-210 -66q-128 0 -202 57.5t-89 167.5h67q31 -167 223 -167q109 0 162.5 51t53.5 158v465z" />
    <glyph glyph-name="Ldot" unicode="&#x13f;" horiz-adv-x="682" 
d="M100 0v714h66v-657h486l-13 -57h-539zM436 342v110h70v-110h-70z" />
    <glyph glyph-name="ij" unicode="&#x133;" horiz-adv-x="466" 
d="M85 0v515h63v-515h-63zM83 616v98h67v-98h-67zM318 515h63v-556q0 -83 -36 -123.5t-110 -40.5q-52 0 -103 18l12 50q43 -14 85 -14q45 0 67 24t22 73v569zM316 616v98h67v-98h-67z" />
    <glyph glyph-name="ldot" unicode="&#x140;" horiz-adv-x="321" 
d="M85 0v714h63v-714h-63zM242 318v110h70v-110h-70z" />
    <glyph glyph-name="napostrophe" unicode="&#x149;" horiz-adv-x="750" 
d="M606 0v322q0 155 -165 155q-45 0 -87 -15t-73 -41q-65 -52 -65 -120v-301h-63v515h62v-102q40 57 101.5 87.5t137.5 30.5q105 0 160 -51t55 -149v-331h-63zM26 512l38 202h68l-54 -202h-52z" />
    <glyph glyph-name="fi" unicode="&#xfb01;" horiz-adv-x="632" 
d="M127 0v465h-102v50h102v52q0 73 47.5 114t132.5 41q51 0 96 -14l-12 -49q-37 10 -75 10q-126 0 -126 -102v-52h185v-50h-185v-465h-63zM484 0v515h63v-515h-63zM482 616v98h67v-98h-67z" />
    <glyph glyph-name="fl" unicode="&#xfb02;" horiz-adv-x="632" 
d="M127 0v465h-102v50h102v52q0 73 47.5 114t132.5 41q51 0 96 -14l-12 -49q-37 10 -75 10q-126 0 -126 -102v-52h185v-50h-185v-465h-63zM484 0v714h63v-714h-63z" />
    <glyph glyph-name="Thorn" unicode="&#xde;" horiz-adv-x="751" 
d="M166 147v-147h-66v714h66v-136h266q131 0 199 -55t68 -159q0 -217 -279 -217h-254zM422 204q208 0 208 161q0 156 -204 156h-260v-317h256z" />
    <glyph glyph-name="AE" unicode="&#xc6;" horiz-adv-x="1246" 
d="M659 0v248h-382l-182 -248h-76l526 714h636v-57h-459v-260h434v-57h-434v-283h475l-13 -57h-525zM659 657h-82l-258 -352h340v352z" />
    <glyph glyph-name="OE" unicode="&#x152;" horiz-adv-x="1329" 
d="M742 0v149q-42 -82 -120.5 -124.5t-187.5 -42.5q-111 0 -195 45t-131 130t-47 200q0 111 44.5 195.5t129 132t199.5 47.5q108 0 187 -42.5t121 -124.5v149h522v-57h-459v-260h434v-57h-434v-283h475l-13 -57h-525zM439 40q142 0 222.5 84.5t80.5 232.5q0 149 -80 233
t-223 84q-144 0 -226.5 -85t-82.5 -232q0 -148 82 -232.5t227 -84.5z" />
    <glyph glyph-name="uni1E9E" unicode="&#x1e9e;" horiz-adv-x="898" 
d="M573 313q-101 20 -142.5 51.5t-41.5 90.5q0 53 44.5 98t157.5 106h-202q-109 0 -168 -58t-59 -164v-437h-66v437q0 131 76.5 204t213.5 73h306v-54l-23 -12q-116 -61 -164.5 -104t-48.5 -84q0 -34 31.5 -53t114.5 -36l43 -9q117 -23 168 -67.5t51 -122.5
q0 -91 -68 -140.5t-192 -49.5t-190 47.5t-79 144.5h69q12 -70 61 -103t139 -33q94 0 143.5 34t49.5 100q0 39 -17.5 63t-57 40t-108.5 30z" />
    <glyph glyph-name="thorn" unicode="&#xfe;" horiz-adv-x="708" 
d="M85 -194v908h63v-300q33 54 96.5 85.5t142.5 31.5t139 -32.5t93 -94t33 -145.5q0 -81 -33 -143t-95 -97t-145 -35q-158 0 -231 112v-290h-63zM147 237q0 -46 17 -85t50 -66q29 -24 67.5 -36.5t82.5 -12.5q106 0 164 57.5t58 164.5q0 102 -57.5 160.5t-157.5 58.5
q-45 0 -87.5 -15t-73.5 -42q-30 -26 -46.5 -63t-16.5 -78v-43z" />
    <glyph glyph-name="ae" unicode="&#xe6;" horiz-adv-x="1087" 
d="M557 240q2 -96 58.5 -150t154.5 -54q74 0 123.5 26.5t67.5 74.5h61q-21 -75 -86 -114t-169 -39q-89 0 -151 34.5t-92 100.5q-21 -46 -69 -79q-77 -53 -195 -53q-101 0 -155.5 41t-54.5 117q0 81 69.5 121t216.5 44l160 4v27q0 71 -41 105.5t-127 34.5q-81 0 -128 -22
t-62 -67l-58 9q17 66 78.5 98t171.5 32q85 0 138 -29.5t71 -87.5q35 57 93.5 87t134.5 30q124 0 194 -69t70 -191v-31h-474zM496 268l-158 -5q-119 -4 -171 -30.5t-52 -83.5q0 -53 42 -81.5t118 -28.5q96 0 164 53q27 22 42 50.5t15 58.5v67zM969 288q-1 91 -54.5 141.5
t-148.5 50.5q-88 0 -144.5 -52t-63.5 -140h411z" />
    <glyph glyph-name="oe" unicode="&#x153;" horiz-adv-x="1161" 
d="M631 240q2 -96 58.5 -150t154.5 -54q74 0 123.5 26.5t67.5 74.5h61q-21 -75 -86 -114t-169 -39q-90 0 -153 37t-92 107q-31 -69 -96 -106.5t-154 -37.5q-135 0 -212.5 72.5t-77.5 199.5q0 82 35 144t101.5 96.5t157.5 34.5q90 0 154.5 -38t94.5 -108q31 70 94 108t148 38
q124 0 194 -69t70 -191v-31h-474zM347 37q104 0 162.5 58.5t58.5 162.5t-58 162t-162 58q-107 0 -166.5 -58.5t-59.5 -162.5t59.5 -162t165.5 -58zM1043 288q-1 91 -54.5 141.5t-148.5 50.5q-88 0 -144.5 -52t-63.5 -140h411z" />
    <glyph glyph-name="germandbls" unicode="&#xdf;" horiz-adv-x="693" 
d="M246 54q65 -17 125 -17q99 0 149.5 40t50.5 119q0 76 -59 118t-167 42h-87v51h72q86 0 131 35.5t45 101.5q0 59 -47 92t-130 33q-89 0 -136 -38t-47 -110v-521h-63v519q0 95 65 149t180 54q114 0 178.5 -46t64.5 -128q0 -120 -130 -158q90 -12 143 -65t53 -131
q0 -98 -69.5 -154t-191.5 -56q-80 0 -142 19z" />
    <glyph glyph-name="longs" unicode="&#x17f;" horiz-adv-x="233" 
d="M85 0v567q0 73 47.5 114t132.5 41q51 0 96 -14l-12 -49q-37 10 -75 10q-126 0 -126 -102v-567h-63z" />
    <glyph glyph-name="kgreenlandic" unicode="&#x138;" horiz-adv-x="611" 
d="M532 0l-235 298l-149 -116v-182h-63v515h63v-269l345 269h83l-231 -181l261 -334h-74z" />
    <glyph glyph-name="Eng" unicode="&#x14a;" horiz-adv-x="848" 
d="M166 620v-620h-66v714h66l516 -620v620h66v-698q0 -108 -68.5 -164.5t-198.5 -56.5q-109 0 -177 27l17 55q70 -24 158 -24q96 0 147.5 37t55.5 110z" />
    <glyph glyph-name="Eng.locl" horiz-adv-x="848" 
d="M682 476q0 101 -54 149.5t-166 48.5q-57 0 -113 -18.5t-97 -50.5q-86 -65 -86 -152v-453h-66v714h66v-130q50 72 128.5 110t177.5 38q135 0 205.5 -62t70.5 -180v-474q0 -108 -68.5 -164.5t-198.5 -56.5q-109 0 -177 27l17 55q70 -24 158 -24q100 0 151.5 41t51.5 120
v462z" />
    <glyph glyph-name="florin" unicode="&#x192;" horiz-adv-x="399" 
d="M127 465h-102v50h102v52q0 73 47.5 114t132.5 41q51 0 96 -14l-12 -49q-37 10 -75 10q-126 0 -126 -102v-52h185v-50h-185v-506q0 -83 -36 -123.5t-110 -40.5q-52 0 -103 18l12 50q43 -14 85 -14q45 0 67 24t22 73v519z" />
    <glyph glyph-name="eng" unicode="&#x14b;" horiz-adv-x="682" 
d="M538 322q0 155 -165 155q-45 0 -87 -15t-73 -41q-65 -52 -65 -120v-301h-63v515h62v-102q40 57 101.5 87.5t137.5 30.5q105 0 160 -51t55 -149v-372q0 -83 -36 -123.5t-110 -40.5q-52 0 -103 18l12 50q43 -14 85 -14q45 0 67 24t22 73v376z" />
    <glyph glyph-name="Eth" unicode="&#xd0;" horiz-adv-x="871" 
d="M126 0v341h-102v55h102v318h292q188 0 290 -93t102 -264q0 -173 -107.5 -265t-307.5 -92h-269zM192 341v-284h205q169 0 256.5 76.5t87.5 223.5t-82.5 223.5t-240.5 76.5h-226v-261h255v-55h-255z" />
    <glyph glyph-name="Dcroat" unicode="&#x110;" horiz-adv-x="871" 
d="M126 0v341h-102v55h102v318h292q188 0 290 -93t102 -264q0 -173 -107.5 -265t-307.5 -92h-269zM192 341v-284h205q169 0 256.5 76.5t87.5 223.5t-82.5 223.5t-240.5 76.5h-226v-261h255v-55h-255z" />
    <glyph glyph-name="Hbar" unicode="&#x126;" horiz-adv-x="896" 
d="M704 0v332h-512v-332h-66v528h-102v53h102v133h66v-133h512v133h66v-133h102v-53h-102v-528h-66zM704 528h-512v-136h512v136z" />
    <glyph glyph-name="Tbar" unicode="&#x166;" horiz-adv-x="712" 
d="M323 0v331h-201v55h201v271h-305v57h676v-57h-305v-271h201v-55h-201v-331h-66z" />
    <glyph glyph-name="Lslash" unicode="&#x141;" horiz-adv-x="708" 
d="M126 0v260l-102 -61v61l102 61v393h66v-357l283 169v-61l-283 -169v-239h486l-13 -57h-539z" />
    <glyph glyph-name="Oslash" unicode="&#xd8;" horiz-adv-x="901" 
d="M121 -12l64 79q-60 50 -92 124.5t-32 165.5q0 111 46.5 195.5t134.5 132t208 47.5q128 0 221 -54l65 82l44 -34l-64 -79q60 -50 92 -124.5t32 -165.5q0 -111 -46.5 -195.5t-135 -132t-208.5 -47.5q-127 0 -220 54l-65 -82zM633 631q-73 43 -183 43q-97 0 -169 -37
t-111.5 -109t-39.5 -171q0 -77 24 -138.5t69 -102.5zM268 83q73 -43 182 -43q150 0 235.5 85t85.5 232q0 77 -24 138.5t-69 102.5z" />
    <glyph glyph-name="eth" unicode="&#xf0;" horiz-adv-x="696" 
d="M404 672q116 -53 176 -156t60 -252q0 -129 -78.5 -204.5t-212.5 -75.5q-135 0 -214 68t-79 184q0 75 34.5 132.5t100 90t153.5 32.5q73 0 126.5 -22.5t92.5 -69.5q-41 169 -200 234l-95 -83l-34 34l78 67q-58 17 -161 25l6 50q121 -9 198 -34l79 69l34 -35zM574 252
q0 85 -61.5 135.5t-165.5 50.5t-164.5 -54t-60.5 -147q0 -92 61 -146t166 -54q64 0 115 24.5t80.5 70.5t29.5 106v14z" />
    <glyph glyph-name="dcroat" unicode="&#x111;" horiz-adv-x="726" 
d="M561 0v103q-33 -57 -96 -88t-144 -31q-78 0 -138 31.5t-93.5 91.5t-33.5 140q0 76 33 135.5t95 93.5t145 35q81 0 137.5 -27.5t93.5 -84.5v187h-218v50h218v78h63v-78h89v-50h-89v-586h-62zM561 267q0 44 -17.5 81t-49.5 63q-58 47 -150 47q-106 0 -164 -55t-58 -157
q0 -98 57.5 -153.5t157.5 -55.5q45 0 87.5 14t73.5 40q30 26 46.5 61t16.5 74v41z" />
    <glyph glyph-name="hbar" unicode="&#x127;" horiz-adv-x="700" 
d="M556 0v302q0 155 -165 155q-45 0 -87 -15t-73 -41q-65 -52 -65 -120v-281h-63v586h-89v50h89v78h63v-78h218v-50h-218v-192q40 57 101.5 87t136.5 30q105 0 160 -51t55 -149v-311h-63z" />
    <glyph glyph-name="tbar" unicode="&#x167;" horiz-adv-x="457" 
d="M418 9q-55 -20 -117 -20q-80 0 -118 39t-38 120v103h-102v50h102v164h-102v50h102v142h63v-142h196v-50h-196v-164h196v-50h-196v-106q0 -103 102 -103q46 0 97 18z" />
    <glyph glyph-name="lslash" unicode="&#x142;" horiz-adv-x="319" 
d="M128 0v346l-107 -69v54l107 69v314h63v-276l107 69v-54l-107 -69v-384h-63z" />
    <glyph glyph-name="oslash" unicode="&#xf8;" horiz-adv-x="696" 
d="M88 -16l54 65q-42 36 -64 88.5t-22 118.5q0 82 35 144t101.5 96.5t157.5 34.5t160 -36l57 69l41 -33l-54 -65q42 -36 64 -88.5t22 -117.5q0 -127 -79.5 -201.5t-214.5 -74.5q-91 0 -160 36l-57 -69zM473 450q-53 28 -125 28q-107 0 -166.5 -58.5t-59.5 -162.5
q0 -102 59 -161zM223 65q53 -28 124 -28q107 0 167 58.5t60 163.5q0 101 -59 160z" />
    <glyph glyph-name="uni0327" unicode="&#x327;" horiz-adv-x="0" 
d="M-99 -145q41 -10 81 -10q79 0 79 35q0 19 -22 27t-77 8h-21l37 93l41 -8l-19 -50q114 -6 114 -73q0 -36 -32.5 -54.5t-94.5 -18.5q-49 0 -86 10v41z" />
    <glyph glyph-name="uni0327.cap" horiz-adv-x="0" 
d="M-102 -158q43 -10 85 -10q39 0 59 10t20 29q0 22 -23 30.5t-81 8.5h-21l40 99l43 -9l-21 -54q119 -7 119 -79q0 -37 -33.5 -57t-96.5 -20q-59 0 -90 11v41z" />
    <glyph glyph-name="cedilla" unicode="&#xb8;" horiz-adv-x="682" 
d="M235 -145q41 -10 81 -10q79 0 79 35q0 19 -22 27t-77 8h-21l37 93l41 -8l-19 -50q114 -6 114 -73q0 -36 -32.5 -54.5t-94.5 -18.5q-49 0 -86 10v41z" />
    <glyph glyph-name="uni0326" unicode="&#x326;" horiz-adv-x="0" 
d="M-122 -208l89 138h68l-100 -138h-57z" />
    <glyph glyph-name="uni0326.cap" horiz-adv-x="0" 
d="M-121 -213l93 143h69l-105 -143h-57z" />
    <glyph glyph-name="uni0312" unicode="&#x312;" horiz-adv-x="0" 
d="M-39 593l100 137h56l-87 -137h-69z" />
    <glyph glyph-name="uni0328" unicode="&#x328;" horiz-adv-x="0" 
d="M45 -170q-18 -3 -40 -3q-53 0 -80.5 18.5t-27.5 54.5q0 29 23 56t71 54l41 -10q-80 -48 -80 -90q0 -40 61 -40q16 0 32 3v-43z" />
    <glyph glyph-name="uni0328.cap" horiz-adv-x="0" 
d="M45 -175q-18 -3 -41 -3q-54 0 -82.5 19.5t-28.5 55.5q0 61 96 113l44 -10q-82 -49 -82 -93q0 -41 61 -41q17 0 33 3v-44z" />
    <glyph glyph-name="uni0328.round" horiz-adv-x="0" 
d="M45 -170q-18 -3 -40 -3q-53 0 -80.5 18.5t-27.5 54.5q0 60 100 111l35 -11q-80 -48 -80 -90q0 -40 61 -40q16 0 32 3v-43z" />
    <glyph glyph-name="uni0328.round.cap" horiz-adv-x="0" 
d="M45 -175q-18 -3 -41 -3q-54 0 -82.5 19.5t-28.5 55.5q0 61 99 112l41 -9q-82 -49 -82 -93q0 -41 61 -41q17 0 33 3v-44z" />
    <glyph glyph-name="ogonek" unicode="&#x2db;" horiz-adv-x="682" 
d="M415 -170q-18 -3 -40 -3q-53 0 -80.5 18.5t-27.5 54.5q0 29 23 56t71 54l41 -10q-80 -48 -80 -90q0 -40 61 -40q16 0 32 3v-43z" />
    <glyph glyph-name="Ccedilla" unicode="&#xc7;" horiz-adv-x="843" 
d="M786 232q-20 -119 -110.5 -184.5t-234.5 -65.5q-114 0 -199.5 44.5t-133 129t-47.5 200.5q0 110 45 195t131 133t201 48q134 0 219 -58.5t116 -173.5l-64 -10q-31 95 -96.5 139.5t-174.5 44.5q-92 0 -161.5 -37.5t-108 -109.5t-38.5 -171q0 -147 83 -231.5t228 -84.5
q117 0 187 48.5t90 143.5h68zM338 -158q43 -10 85 -10q39 0 59 10t20 29q0 22 -23 30.5t-81 8.5h-21l40 99l43 -9l-21 -54q119 -7 119 -79q0 -37 -33.5 -57t-96.5 -20q-59 0 -90 11v41z" />
    <glyph glyph-name="Scedilla" unicode="&#x15e;" horiz-adv-x="760" 
d="M620 541q-27 72 -83 103t-159 31q-116 0 -177.5 -35t-61.5 -101q0 -59 43.5 -89.5t147.5 -45.5l128 -18q126 -18 183.5 -66t57.5 -135q0 -98 -79.5 -150.5t-226.5 -52.5q-310 0 -340 211h68q16 -79 82 -116.5t190 -37.5q118 0 178 37t60 110q0 60 -44 92.5t-148 47.5
l-114 16q-134 19 -193.5 64.5t-59.5 130.5q0 92 81 143.5t225 51.5q130 0 201.5 -41.5t103.5 -137.5zM276 -158q43 -10 85 -10q39 0 59 10t20 29q0 22 -23 30.5t-81 8.5h-21l40 99l43 -9l-21 -54q119 -7 119 -79q0 -37 -33.5 -57t-96.5 -20q-59 0 -90 11v41z" />
    <glyph glyph-name="uni0162" unicode="&#x162;" horiz-adv-x="712" 
d="M323 0v657h-305v57h676v-57h-305v-657h-66zM254 -158q43 -10 85 -10q39 0 59 10t20 29q0 22 -23 30.5t-81 8.5h-21l40 99l43 -9l-21 -54q119 -7 119 -79q0 -37 -33.5 -57t-96.5 -20q-59 0 -90 11v41z" />
    <glyph glyph-name="uni0122" unicode="&#x122;" horiz-adv-x="843" 
d="M712 297h-249v57h312v-274q-60 -46 -144.5 -72t-174.5 -26q-120 0 -209 43.5t-137.5 127t-48.5 201.5q0 113 45.5 198.5t132.5 132.5t205 47q120 0 200.5 -51.5t112.5 -147.5l-65 -12q-27 76 -90 114.5t-160 38.5q-95 0 -165 -37.5t-108.5 -109.5t-38.5 -172
q0 -150 86 -232.5t241 -82.5q73 0 139 16.5t116 48.5v192zM335 -213l93 143h69l-105 -143h-57z" />
    <glyph glyph-name="uni0136" unicode="&#x136;" horiz-adv-x="781" 
d="M678 0l-330 407l-182 -145v-262h-66v714h66v-381l475 381h87l-329 -269l361 -445h-82zM298 -213l93 143h69l-105 -143h-57z" />
    <glyph glyph-name="uni013B" unicode="&#x13b;" horiz-adv-x="682" 
d="M100 0v714h66v-657h486l-13 -57h-539zM248 -213l93 143h69l-105 -143h-57z" />
    <glyph glyph-name="uni0145" unicode="&#x145;" horiz-adv-x="848" 
d="M682 0l-516 620v-620h-66v714h66l516 -620v620h66v-714h-66zM302 -213l93 143h69l-105 -143h-57z" />
    <glyph glyph-name="Rcommaaccent" unicode="&#x156;" horiz-adv-x="753" 
d="M648 0l-178 310q-17 -2 -53 -2h-252v-308h-65v714h328q130 0 197 -51.5t67 -152.5q0 -75 -39.5 -122.5t-115.5 -65.5l187 -322h-76zM420 365q204 0 204 146q0 74 -49 110t-152 36h-258v-292h255zM277 -213l93 143h69l-105 -143h-57z" />
    <glyph glyph-name="uni0218" unicode="&#x218;" horiz-adv-x="760" 
d="M620 541q-27 72 -83 103t-159 31q-116 0 -177.5 -35t-61.5 -101q0 -59 43.5 -89.5t147.5 -45.5l128 -18q126 -18 183.5 -66t57.5 -135q0 -98 -79.5 -150.5t-226.5 -52.5q-310 0 -340 211h68q16 -79 82 -116.5t190 -37.5q118 0 178 37t60 110q0 60 -44 92.5t-148 47.5
l-114 16q-134 19 -193.5 64.5t-59.5 130.5q0 92 81 143.5t225 51.5q130 0 201.5 -41.5t103.5 -137.5zM257 -213l93 143h69l-105 -143h-57z" />
    <glyph glyph-name="uni021A" unicode="&#x21a;" horiz-adv-x="712" 
d="M323 0v657h-305v57h676v-57h-305v-657h-66zM235 -213l93 143h69l-105 -143h-57z" />
    <glyph glyph-name="Aogonek" unicode="&#x104;" horiz-adv-x="801" 
d="M709 0l-105 217h-409l-105 -217h-71l347 714h69l347 -714h-73zM399 644l-178 -370h356zM794 -175q-18 -3 -41 -3q-54 0 -82.5 19.5t-28.5 55.5q0 61 96 113l44 -10q-82 -49 -82 -93q0 -41 61 -41q17 0 33 3v-44z" />
    <glyph glyph-name="Eogonek" unicode="&#x118;" horiz-adv-x="718" 
d="M100 0v714h553v-57h-487v-260h462v-57h-462v-283h503l-13 -57h-556zM668 -175q-18 -3 -41 -3q-54 0 -82.5 19.5t-28.5 55.5q0 61 96 113l44 -10q-82 -49 -82 -93q0 -41 61 -41q17 0 33 3v-44z" />
    <glyph glyph-name="Iogonek" unicode="&#x12e;" horiz-adv-x="266" 
d="M100 0v714h66v-714h-66zM178 -175q-18 -3 -41 -3q-54 0 -82.5 19.5t-28.5 55.5q0 61 96 113l44 -10q-82 -49 -82 -93q0 -41 61 -41q17 0 33 3v-44z" />
    <glyph glyph-name="Uogonek" unicode="&#x172;" horiz-adv-x="825" 
d="M666 714h66v-431q0 -301 -320 -301t-320 301v431h66v-434q0 -240 254 -240t254 240v434zM554 -175q-18 -3 -41 -3q-54 0 -82.5 19.5t-28.5 55.5q0 61 99 112l41 -9q-82 -49 -82 -93q0 -41 61 -41q17 0 33 3v-44z" />
    <glyph glyph-name="ccedilla" unicode="&#xe7;" horiz-adv-x="646" 
d="M597 172q-16 -89 -84.5 -138.5t-175.5 -49.5q-85 0 -148.5 32t-98 93t-34.5 146q0 81 34 143t98.5 97.5t151.5 35.5q98 0 162.5 -44.5t84.5 -125.5l-62 -10q-17 61 -65.5 94t-121.5 33q-100 0 -158 -59.5t-58 -162.5t57.5 -161t158.5 -58q80 0 131 35t65 100h63z
M236 -145q41 -10 81 -10q79 0 79 35q0 19 -22 27t-77 8h-21l37 93l41 -8l-19 -50q114 -6 114 -73q0 -36 -32.5 -54.5t-94.5 -18.5q-49 0 -86 10v41z" />
    <glyph glyph-name="scedilla" unicode="&#x15f;" horiz-adv-x="618" 
d="M489 388q-17 49 -61.5 71t-126.5 22t-127.5 -24.5t-45.5 -67.5q0 -41 33.5 -61.5t121.5 -32.5l64 -9q83 -12 129.5 -30.5t66 -46.5t19.5 -71q0 -154 -248 -154q-117 0 -182 39.5t-81 119.5h61q17 -57 65.5 -83t136.5 -26q92 0 140 25.5t48 75.5q0 24 -9 39t-29 25.5
t-51 18t-79 14.5l-61 9q-113 16 -158.5 48.5t-45.5 97.5q0 68 61.5 106t170.5 38q108 0 166 -31.5t80 -102.5zM214 -145q41 -10 81 -10q79 0 79 35q0 19 -22 27t-77 8h-21l37 93l41 -8l-19 -50q114 -6 114 -73q0 -36 -32.5 -54.5t-94.5 -18.5q-49 0 -86 10v41z" />
    <glyph glyph-name="uni0163" unicode="&#x163;" horiz-adv-x="421" 
d="M400 9q-55 -20 -117 -20q-80 0 -118 39t-38 120v317h-102v50h102v142h63v-142h196v-50h-196v-320q0 -103 102 -103q46 0 97 18zM162 -145q41 -10 81 -10q79 0 79 35q0 19 -22 27t-77 8h-21l37 93l41 -8l-19 -50q114 -6 114 -73q0 -36 -32.5 -54.5t-94.5 -18.5
q-49 0 -86 10v41z" />
    <glyph glyph-name="uni0123" unicode="&#x123;" horiz-adv-x="708" 
d="M560 127q-34 -58 -96 -88.5t-143 -30.5q-79 0 -138.5 30.5t-93 89t-33.5 138.5q0 76 33.5 136t95.5 94.5t144 34.5t139 -27t94 -84v95h61v-461q0 -136 -66 -197.5t-209 -61.5q-119 0 -184 36.5t-82 112.5h62q18 -52 65.5 -74.5t137.5 -22.5q110 0 161.5 44t51.5 140v96z
M561 284q0 91 -67 147q-56 47 -151 47q-103 0 -162 -56t-59 -155q0 -97 57 -151.5t158 -54.5q46 0 88.5 15t70.5 41q65 57 65 135v32zM313 593l100 137h56l-87 -137h-69z" />
    <glyph glyph-name="uni0137" unicode="&#x137;" horiz-adv-x="611" 
d="M532 0l-235 316l-149 -105v-211h-63v714h63v-440l338 241h90l-231 -165l261 -350h-74zM223 -208l89 138h68l-100 -138h-57z" />
    <glyph glyph-name="uni013C" unicode="&#x13c;" horiz-adv-x="233" 
d="M85 0v714h63v-714h-63zM-5 -208l89 138h68l-100 -138h-57z" />
    <glyph glyph-name="uni0146" unicode="&#x146;" horiz-adv-x="682" 
d="M538 0v322q0 155 -165 155q-45 0 -87 -15t-73 -41q-65 -52 -65 -120v-301h-63v515h62v-102q40 57 101.5 87.5t137.5 30.5q105 0 160 -51t55 -149v-331h-63zM221 -208l89 138h68l-100 -138h-57z" />
    <glyph glyph-name="rcommaaccent" unicode="&#x157;" horiz-adv-x="431" 
d="M85 0v515h62v-103q37 54 90 82.5t115 28.5q27 0 52 -5l-7 -56q-23 5 -50 5q-47 0 -84 -15t-68 -46q-47 -47 -47 -106v-300h-63zM-5 -208l89 138h68l-100 -138h-57z" />
    <glyph glyph-name="uni0219" unicode="&#x219;" horiz-adv-x="618" 
d="M489 388q-17 49 -61.5 71t-126.5 22t-127.5 -24.5t-45.5 -67.5q0 -41 33.5 -61.5t121.5 -32.5l64 -9q83 -12 129.5 -30.5t66 -46.5t19.5 -71q0 -154 -248 -154q-117 0 -182 39.5t-81 119.5h61q17 -57 65.5 -83t136.5 -26q92 0 140 25.5t48 75.5q0 24 -9 39t-29 25.5
t-51 18t-79 14.5l-61 9q-113 16 -158.5 48.5t-45.5 97.5q0 68 61.5 106t170.5 38q108 0 166 -31.5t80 -102.5zM191 -208l89 138h68l-100 -138h-57z" />
    <glyph glyph-name="uni021B" unicode="&#x21b;" horiz-adv-x="421" 
d="M400 9q-55 -20 -117 -20q-80 0 -118 39t-38 120v317h-102v50h102v142h63v-142h196v-50h-196v-320q0 -103 102 -103q46 0 97 18zM139 -208l89 138h68l-100 -138h-57z" />
    <glyph glyph-name="aogonek" unicode="&#x105;" horiz-adv-x="644" 
d="M503 0v96q-82 -109 -243 -109q-101 0 -155.5 41t-54.5 117q0 81 69.5 121t216.5 44l166 4v25q0 72 -42.5 107t-131.5 35q-81 0 -128 -22t-62 -67l-58 9q17 66 78.5 98t171.5 32q118 0 175.5 -47.5t57.5 -144.5v-339h-60zM502 268l-164 -5q-119 -4 -171 -30.5t-52 -83.5
q0 -52 41.5 -81t117.5 -29q47 0 90.5 13.5t74.5 37.5q30 23 46.5 52t16.5 59v67zM577 -170q-18 -3 -40 -3q-53 0 -80.5 18.5t-27.5 54.5q0 29 23 56t71 54l41 -10q-80 -48 -80 -90q0 -40 61 -40q16 0 32 3v-43z" />
    <glyph glyph-name="eogonek" unicode="&#x119;" horiz-adv-x="656" 
d="M118 240q2 -95 59.5 -149.5t156.5 -54.5q77 0 127.5 26t68.5 75h61q-21 -75 -87 -114t-172 -39q-130 0 -203 70.5t-73 198.5q0 82 33 144.5t95.5 98t147.5 35.5q126 0 197 -68.5t71 -191.5v-31h-482zM538 288q-1 91 -55 141.5t-151 50.5q-91 0 -148.5 -52.5t-63.5 -139.5
h418zM461 -170q-18 -3 -40 -3q-53 0 -80.5 18.5t-27.5 54.5q0 60 100 111l35 -11q-80 -48 -80 -90q0 -40 61 -40q16 0 32 3v-43z" />
    <glyph glyph-name="iogonek" unicode="&#x12f;" horiz-adv-x="233" 
d="M85 0v515h63v-515h-63zM83 616v98h67v-98h-67zM162 -170q-18 -3 -40 -3q-53 0 -80.5 18.5t-27.5 54.5q0 29 23 56t71 54l41 -10q-80 -48 -80 -90q0 -40 61 -40q16 0 32 3v-43z" />
    <glyph glyph-name="iogonek.dotless" horiz-adv-x="233" 
d="M85 0v515h63v-515h-63zM162 -170q-18 -3 -40 -3q-53 0 -80.5 18.5t-27.5 54.5q0 29 23 56t71 54l41 -10q-80 -48 -80 -90q0 -40 61 -40q16 0 32 3v-43z" />
    <glyph glyph-name="uogonek" unicode="&#x173;" horiz-adv-x="671" 
d="M524 0v102q-41 -58 -101.5 -88t-135.5 -30q-98 0 -152 51t-54 145v335h63v-326q0 -74 39.5 -112.5t116.5 -38.5q91 0 157 54q32 25 49 56.5t17 65.5v301h63v-515h-62zM600 -170q-18 -3 -40 -3q-53 0 -80.5 18.5t-27.5 54.5q0 29 23 56t71 54l41 -10q-80 -48 -80 -90
q0 -40 61 -40q16 0 32 3v-43z" />
    <glyph glyph-name="acutecomb" unicode="&#x301;" horiz-adv-x="0" 
d="M1 593h-66l140 137h80z" />
    <glyph glyph-name="acutecomb.cap" horiz-adv-x="0" 
d="M2 773h-68l142 130h82z" />
    <glyph glyph-name="acute" unicode="&#xb4;" horiz-adv-x="682" 
d="M297 593h-66l140 137h80z" />
    <glyph glyph-name="uni030B" unicode="&#x30b;" horiz-adv-x="0" 
d="M-131 593l125 137h74l-137 -137h-62zM50 593l125 137h74l-137 -137h-62z" />
    <glyph glyph-name="uni030B.cap" horiz-adv-x="0" 
d="M-80 773h-62l130 130h77zM114 773h-62l130 130h77z" />
    <glyph glyph-name="hungarumlaut" unicode="&#x2dd;" horiz-adv-x="682" 
d="M151 593l125 137h74l-137 -137h-62zM332 593l125 137h74l-137 -137h-62z" />
    <glyph glyph-name="Aacute" unicode="&#xc1;" horiz-adv-x="801" 
d="M709 0l-105 217h-409l-105 -217h-71l347 714h69l347 -714h-73zM399 644l-178 -370h356zM401 773h-68l142 130h82z" />
    <glyph glyph-name="Cacute" unicode="&#x106;" horiz-adv-x="843" 
d="M786 232q-20 -119 -110.5 -184.5t-234.5 -65.5q-114 0 -199.5 44.5t-133 129t-47.5 200.5q0 110 45 195t131 133t201 48q134 0 219 -58.5t116 -173.5l-64 -10q-31 95 -96.5 139.5t-174.5 44.5q-92 0 -161.5 -37.5t-108 -109.5t-38.5 -171q0 -147 83 -231.5t228 -84.5
q117 0 187 48.5t90 143.5h68zM440 773h-68l142 130h82z" />
    <glyph glyph-name="Eacute" unicode="&#xc9;" horiz-adv-x="718" 
d="M100 0v714h553v-57h-487v-260h462v-57h-462v-283h503l-13 -57h-556zM378 773h-68l142 130h82z" />
    <glyph glyph-name="Iacute" unicode="&#xcd;" horiz-adv-x="266" 
d="M100 0v714h66v-714h-66zM135 773h-68l142 130h82z" />
    <glyph glyph-name="Lacute" unicode="&#x139;" horiz-adv-x="682" 
d="M100 0v714h66v-657h486l-13 -57h-539zM135 773h-68l142 130h82z" />
    <glyph glyph-name="Nacute" unicode="&#x143;" horiz-adv-x="848" 
d="M682 0l-516 620v-620h-66v714h66l516 -620v620h66v-714h-66zM426 773h-68l142 130h82z" />
    <glyph glyph-name="Oacute" unicode="&#xd3;" horiz-adv-x="901" 
d="M840 357q0 -111 -46.5 -195.5t-134.5 -132t-208 -47.5q-116 0 -204 44.5t-137 129.5t-49 201q0 111 46.5 195.5t134.5 132t208 47.5q116 0 204 -44.5t137 -129.5t49 -201zM771 357q0 148 -85 232.5t-236 84.5q-97 0 -169 -37t-111.5 -109t-39.5 -171q0 -148 85 -232.5
t236 -84.5q97 0 169 37t111.5 109t39.5 171zM452 773h-68l142 130h82z" />
    <glyph glyph-name="Racute" unicode="&#x154;" horiz-adv-x="753" 
d="M648 0l-178 310q-17 -2 -53 -2h-252v-308h-65v714h328q130 0 197 -51.5t67 -152.5q0 -75 -39.5 -122.5t-115.5 -65.5l187 -322h-76zM420 365q204 0 204 146q0 74 -49 110t-152 36h-258v-292h255zM396 773h-68l142 130h82z" />
    <glyph glyph-name="Sacute" unicode="&#x15a;" horiz-adv-x="760" 
d="M620 541q-27 72 -83 103t-159 31q-116 0 -177.5 -35t-61.5 -101q0 -59 43.5 -89.5t147.5 -45.5l128 -18q126 -18 183.5 -66t57.5 -135q0 -98 -79.5 -150.5t-226.5 -52.5q-310 0 -340 211h68q16 -79 82 -116.5t190 -37.5q118 0 178 37t60 110q0 60 -44 92.5t-148 47.5
l-114 16q-134 19 -193.5 64.5t-59.5 130.5q0 92 81 143.5t225 51.5q130 0 201.5 -41.5t103.5 -137.5zM380 773h-68l142 130h82z" />
    <glyph glyph-name="Uacute" unicode="&#xda;" horiz-adv-x="825" 
d="M666 714h66v-431q0 -301 -320 -301t-320 301v431h66v-434q0 -240 254 -240t254 240v434zM414 773h-68l142 130h82z" />
    <glyph glyph-name="Wacute" unicode="&#x1e82;" horiz-adv-x="1102" 
d="M762 0l-212 630l-213 -630h-72l-242 714h74l206 -631l213 627h72l213 -629l206 633h72l-242 -714h-75zM553 773h-68l142 130h82z" />
    <glyph glyph-name="Yacute" unicode="&#xdd;" horiz-adv-x="714" 
d="M324 0v304l-305 410h81l259 -351l259 351h77l-305 -409v-305h-66zM360 773h-68l142 130h82z" />
    <glyph glyph-name="Zacute" unicode="&#x179;" horiz-adv-x="694" 
d="M33 0v52l537 605h-528v57h612v-52l-537 -605h547l-13 -57h-618zM351 773h-68l142 130h82z" />
    <glyph glyph-name="Ohungarumlaut" unicode="&#x150;" horiz-adv-x="901" 
d="M840 357q0 -111 -46.5 -195.5t-134.5 -132t-208 -47.5q-116 0 -204 44.5t-137 129.5t-49 201q0 111 46.5 195.5t134.5 132t208 47.5q116 0 204 -44.5t137 -129.5t49 -201zM771 357q0 148 -85 232.5t-236 84.5q-97 0 -169 -37t-111.5 -109t-39.5 -171q0 -148 85 -232.5
t236 -84.5q97 0 169 37t111.5 109t39.5 171zM370 773h-62l130 130h77zM564 773h-62l130 130h77z" />
    <glyph glyph-name="Uhungarumlaut" unicode="&#x170;" horiz-adv-x="825" 
d="M666 714h66v-431q0 -301 -320 -301t-320 301v431h66v-434q0 -240 254 -240t254 240v434zM332 773h-62l130 130h77zM526 773h-62l130 130h77z" />
    <glyph glyph-name="aacute" unicode="&#xe1;" horiz-adv-x="644" 
d="M503 0v96q-82 -109 -243 -109q-101 0 -155.5 41t-54.5 117q0 81 69.5 121t216.5 44l166 4v25q0 72 -42.5 107t-131.5 35q-81 0 -128 -22t-62 -67l-58 9q17 66 78.5 98t171.5 32q118 0 175.5 -47.5t57.5 -144.5v-339h-60zM502 268l-164 -5q-119 -4 -171 -30.5t-52 -83.5
q0 -52 41.5 -81t117.5 -29q47 0 90.5 13.5t74.5 37.5q30 23 46.5 52t16.5 59v67zM329 593h-66l140 137h80z" />
    <glyph glyph-name="cacute" unicode="&#x107;" horiz-adv-x="646" 
d="M597 172q-16 -89 -84.5 -138.5t-175.5 -49.5q-85 0 -148.5 32t-98 93t-34.5 146q0 81 34 143t98.5 97.5t151.5 35.5q98 0 162.5 -44.5t84.5 -125.5l-62 -10q-17 61 -65.5 94t-121.5 33q-100 0 -158 -59.5t-58 -162.5t57.5 -161t158.5 -58q80 0 131 35t65 100h63zM338 593
h-66l140 137h80z" />
    <glyph glyph-name="eacute" unicode="&#xe9;" horiz-adv-x="656" 
d="M118 240q2 -95 59.5 -149.5t156.5 -54.5q77 0 127.5 26t68.5 75h61q-21 -75 -87 -114t-172 -39q-130 0 -203 70.5t-73 198.5q0 82 33 144.5t95.5 98t147.5 35.5q126 0 197 -68.5t71 -191.5v-31h-482zM538 288q-1 91 -55 141.5t-151 50.5q-91 0 -148.5 -52.5t-63.5 -139.5
h418zM337 593h-66l140 137h80z" />
    <glyph glyph-name="iacute" unicode="&#xed;" horiz-adv-x="233" 
d="M85 0v515h63v-515h-63zM118 593h-66l140 137h80z" />
    <glyph glyph-name="lacute" unicode="&#x13a;" horiz-adv-x="233" 
d="M85 0v714h63v-714h-63zM119 773h-68l142 130h82z" />
    <glyph glyph-name="nacute" unicode="&#x144;" horiz-adv-x="682" 
d="M538 0v322q0 155 -165 155q-45 0 -87 -15t-73 -41q-65 -52 -65 -120v-301h-63v515h62v-102q40 57 101.5 87.5t137.5 30.5q105 0 160 -51t55 -149v-331h-63zM347 593h-66l140 137h80z" />
    <glyph glyph-name="oacute" unicode="&#xf3;" horiz-adv-x="696" 
d="M640 260q0 -127 -79.5 -201.5t-214.5 -74.5t-212.5 72.5t-77.5 199.5q0 82 35 144t101.5 96.5t157.5 34.5q135 0 212.5 -72.5t77.5 -198.5zM574 259q0 103 -59.5 161t-166.5 58t-166.5 -58.5t-59.5 -162.5t59.5 -162t165.5 -58q107 0 167 58.5t60 163.5zM349 593h-66
l140 137h80z" />
    <glyph glyph-name="racute" unicode="&#x155;" horiz-adv-x="431" 
d="M85 0v515h62v-103q37 54 90 82.5t115 28.5q27 0 52 -5l-7 -56q-23 5 -50 5q-47 0 -84 -15t-68 -46q-47 -47 -47 -106v-300h-63zM254 593h-66l140 137h80z" />
    <glyph glyph-name="sacute" unicode="&#x15b;" horiz-adv-x="618" 
d="M489 388q-17 49 -61.5 71t-126.5 22t-127.5 -24.5t-45.5 -67.5q0 -41 33.5 -61.5t121.5 -32.5l64 -9q83 -12 129.5 -30.5t66 -46.5t19.5 -71q0 -154 -248 -154q-117 0 -182 39.5t-81 119.5h61q17 -57 65.5 -83t136.5 -26q92 0 140 25.5t48 75.5q0 24 -9 39t-29 25.5
t-51 18t-79 14.5l-61 9q-113 16 -158.5 48.5t-45.5 97.5q0 68 61.5 106t170.5 38q108 0 166 -31.5t80 -102.5zM300 593h-66l140 137h80z" />
    <glyph glyph-name="uacute" unicode="&#xfa;" horiz-adv-x="671" 
d="M524 0v102q-41 -58 -101.5 -88t-135.5 -30q-98 0 -152 51t-54 145v335h63v-326q0 -74 39.5 -112.5t116.5 -38.5q91 0 157 54q32 25 49 56.5t17 65.5v301h63v-515h-62zM335 593h-66l140 137h80z" />
    <glyph glyph-name="wacute" unicode="&#x1e83;" horiz-adv-x="875" 
d="M606 0l-169 442l-168 -442h-67l-189 515h68l157 -445l169 442h64l169 -441l157 444h65l-189 -515h-67zM440 593h-66l140 137h80z" />
    <glyph glyph-name="yacute" unicode="&#xfd;" horiz-adv-x="593" 
d="M274 8l-263 507h73l224 -441l205 441h69l-281 -589q-35 -73 -72.5 -102t-95.5 -29q-46 0 -87 16l12 50q35 -11 68 -11q42 0 66 18t46 64zM302 593h-66l140 137h80z" />
    <glyph glyph-name="zacute" unicode="&#x17a;" horiz-adv-x="568" 
d="M36 0v47l393 417h-385v51h467v-47l-393 -417h415l-11 -51h-486zM279 593h-66l140 137h80z" />
    <glyph glyph-name="ohungarumlaut" unicode="&#x151;" horiz-adv-x="696" 
d="M640 260q0 -127 -79.5 -201.5t-214.5 -74.5t-212.5 72.5t-77.5 199.5q0 82 35 144t101.5 96.5t157.5 34.5q135 0 212.5 -72.5t77.5 -198.5zM574 259q0 103 -59.5 161t-166.5 58t-166.5 -58.5t-59.5 -162.5t59.5 -162t165.5 -58q107 0 167 58.5t60 163.5zM217 593l125 137
h74l-137 -137h-62zM398 593l125 137h74l-137 -137h-62z" />
    <glyph glyph-name="uhungarumlaut" unicode="&#x171;" horiz-adv-x="671" 
d="M524 0v102q-41 -58 -101.5 -88t-135.5 -30q-98 0 -152 51t-54 145v335h63v-326q0 -74 39.5 -112.5t116.5 -38.5q91 0 157 54q32 25 49 56.5t17 65.5v301h63v-515h-62zM203 593l125 137h74l-137 -137h-62zM384 593l125 137h74l-137 -137h-62z" />
    <glyph glyph-name="gravecomb" unicode="&#x300;" horiz-adv-x="0" 
d="M-1 593l-154 137h80l140 -137h-66z" />
    <glyph glyph-name="gravecomb.cap" horiz-adv-x="0" 
d="M-2 773l-156 130h82l142 -130h-68z" />
    <glyph glyph-name="grave" unicode="`" horiz-adv-x="682" 
d="M385 593l-154 137h80l140 -137h-66z" />
    <glyph glyph-name="uni02CB" unicode="&#x2cb;" horiz-adv-x="682" 
d="M385 593l-154 137h80l140 -137h-66z" />
    <glyph glyph-name="Agrave" unicode="&#xc0;" horiz-adv-x="801" 
d="M709 0l-105 217h-409l-105 -217h-71l347 714h69l347 -714h-73zM399 644l-178 -370h356zM397 773l-156 130h82l142 -130h-68z" />
    <glyph glyph-name="Egrave" unicode="&#xc8;" horiz-adv-x="718" 
d="M100 0v714h553v-57h-487v-260h462v-57h-462v-283h503l-13 -57h-556zM374 773l-156 130h82l142 -130h-68z" />
    <glyph glyph-name="Igrave" unicode="&#xcc;" horiz-adv-x="266" 
d="M100 0v714h66v-714h-66zM131 773l-156 130h82l142 -130h-68z" />
    <glyph glyph-name="Ograve" unicode="&#xd2;" horiz-adv-x="901" 
d="M840 357q0 -111 -46.5 -195.5t-134.5 -132t-208 -47.5q-116 0 -204 44.5t-137 129.5t-49 201q0 111 46.5 195.5t134.5 132t208 47.5q116 0 204 -44.5t137 -129.5t49 -201zM771 357q0 148 -85 232.5t-236 84.5q-97 0 -169 -37t-111.5 -109t-39.5 -171q0 -148 85 -232.5
t236 -84.5q97 0 169 37t111.5 109t39.5 171zM448 773l-156 130h82l142 -130h-68z" />
    <glyph glyph-name="Ugrave" unicode="&#xd9;" horiz-adv-x="825" 
d="M666 714h66v-431q0 -301 -320 -301t-320 301v431h66v-434q0 -240 254 -240t254 240v434zM410 773l-156 130h82l142 -130h-68z" />
    <glyph glyph-name="Wgrave" unicode="&#x1e80;" horiz-adv-x="1102" 
d="M762 0l-212 630l-213 -630h-72l-242 714h74l206 -631l213 627h72l213 -629l206 633h72l-242 -714h-75zM549 773l-156 130h82l142 -130h-68z" />
    <glyph glyph-name="Ygrave" unicode="&#x1ef2;" horiz-adv-x="714" 
d="M324 0v304l-305 410h81l259 -351l259 351h77l-305 -409v-305h-66zM356 773l-156 130h82l142 -130h-68z" />
    <glyph glyph-name="agrave" unicode="&#xe0;" horiz-adv-x="644" 
d="M503 0v96q-82 -109 -243 -109q-101 0 -155.5 41t-54.5 117q0 81 69.5 121t216.5 44l166 4v25q0 72 -42.5 107t-131.5 35q-81 0 -128 -22t-62 -67l-58 9q17 66 78.5 98t171.5 32q118 0 175.5 -47.5t57.5 -144.5v-339h-60zM502 268l-164 -5q-119 -4 -171 -30.5t-52 -83.5
q0 -52 41.5 -81t117.5 -29q47 0 90.5 13.5t74.5 37.5q30 23 46.5 52t16.5 59v67zM327 593l-154 137h80l140 -137h-66z" />
    <glyph glyph-name="egrave" unicode="&#xe8;" horiz-adv-x="656" 
d="M118 240q2 -95 59.5 -149.5t156.5 -54.5q77 0 127.5 26t68.5 75h61q-21 -75 -87 -114t-172 -39q-130 0 -203 70.5t-73 198.5q0 82 33 144.5t95.5 98t147.5 35.5q126 0 197 -68.5t71 -191.5v-31h-482zM538 288q-1 91 -55 141.5t-151 50.5q-91 0 -148.5 -52.5t-63.5 -139.5
h418zM335 593l-154 137h80l140 -137h-66z" />
    <glyph glyph-name="igrave" unicode="&#xec;" horiz-adv-x="233" 
d="M85 0v515h63v-515h-63zM116 593l-154 137h80l140 -137h-66z" />
    <glyph glyph-name="ograve" unicode="&#xf2;" horiz-adv-x="696" 
d="M640 260q0 -127 -79.5 -201.5t-214.5 -74.5t-212.5 72.5t-77.5 199.5q0 82 35 144t101.5 96.5t157.5 34.5q135 0 212.5 -72.5t77.5 -198.5zM574 259q0 103 -59.5 161t-166.5 58t-166.5 -58.5t-59.5 -162.5t59.5 -162t165.5 -58q107 0 167 58.5t60 163.5zM347 593
l-154 137h80l140 -137h-66z" />
    <glyph glyph-name="ugrave" unicode="&#xf9;" horiz-adv-x="671" 
d="M524 0v102q-41 -58 -101.5 -88t-135.5 -30q-98 0 -152 51t-54 145v335h63v-326q0 -74 39.5 -112.5t116.5 -38.5q91 0 157 54q32 25 49 56.5t17 65.5v301h63v-515h-62zM333 593l-154 137h80l140 -137h-66z" />
    <glyph glyph-name="wgrave" unicode="&#x1e81;" horiz-adv-x="875" 
d="M606 0l-169 442l-168 -442h-67l-189 515h68l157 -445l169 442h64l169 -441l157 444h65l-189 -515h-67zM438 593l-154 137h80l140 -137h-66z" />
    <glyph glyph-name="ygrave" unicode="&#x1ef3;" horiz-adv-x="593" 
d="M274 8l-263 507h73l224 -441l205 441h69l-281 -589q-35 -73 -72.5 -102t-95.5 -29q-46 0 -87 16l12 50q35 -11 68 -11q42 0 66 18t46 64zM300 593l-154 137h80l140 -137h-66z" />
    <glyph glyph-name="uni0302" unicode="&#x302;" horiz-adv-x="0" 
d="M109 593l-109 97l-109 -97h-62l140 137h62l140 -137h-62z" />
    <glyph glyph-name="uni0302.cap" horiz-adv-x="0" 
d="M105 773l-105 88l-105 -88h-65l139 130h62l139 -130h-65z" />
    <glyph glyph-name="circumflex" unicode="&#x2c6;" horiz-adv-x="682" 
d="M450 593l-109 97l-109 -97h-62l140 137h62l140 -137h-62z" />
    <glyph glyph-name="tildecomb" unicode="&#x303;" horiz-adv-x="0" 
d="M202 712q0 -52 -29 -80t-81 -28q-24 0 -46 7.5t-53 27.5q-30 19 -46.5 25t-34.5 6q-31 0 -47.5 -15.5t-16.5 -44.5h-49q0 52 29 80t81 28q24 0 46 -7.5t53 -27.5q30 -19 46.5 -25t34.5 -6q31 0 47.5 15.5t16.5 44.5h49z" />
    <glyph glyph-name="tildecomb.cap" horiz-adv-x="0" 
d="M205 882q0 -51 -29.5 -79.5t-82.5 -28.5q-24 0 -46 7.5t-50 25.5q-32 20 -49.5 27t-36.5 7q-63 0 -63 -61h-52q0 51 29.5 79.5t82.5 28.5q24 0 46 -7.5t50 -25.5q32 -20 49.5 -27t36.5 -7q63 0 63 61h52z" />
    <glyph glyph-name="tilde" unicode="&#x2dc;" horiz-adv-x="682" 
d="M543 712q0 -52 -29 -80t-81 -28q-24 0 -46 7.5t-53 27.5q-30 19 -46.5 25t-34.5 6q-31 0 -47.5 -15.5t-16.5 -44.5h-49q0 52 29 80t81 28q24 0 46 -7.5t53 -27.5q30 -19 46.5 -25t34.5 -6q31 0 47.5 15.5t16.5 44.5h49z" />
    <glyph glyph-name="Acircumflex" unicode="&#xc2;" horiz-adv-x="801" 
d="M709 0l-105 217h-409l-105 -217h-71l347 714h69l347 -714h-73zM399 644l-178 -370h356zM504 773l-105 88l-105 -88h-65l139 130h62l139 -130h-65z" />
    <glyph glyph-name="Ccircumflex" unicode="&#x108;" horiz-adv-x="843" 
d="M786 232q-20 -119 -110.5 -184.5t-234.5 -65.5q-114 0 -199.5 44.5t-133 129t-47.5 200.5q0 110 45 195t131 133t201 48q134 0 219 -58.5t116 -173.5l-64 -10q-31 95 -96.5 139.5t-174.5 44.5q-92 0 -161.5 -37.5t-108 -109.5t-38.5 -171q0 -147 83 -231.5t228 -84.5
q117 0 187 48.5t90 143.5h68zM543 773l-105 88l-105 -88h-65l139 130h62l139 -130h-65z" />
    <glyph glyph-name="Ecircumflex" unicode="&#xca;" horiz-adv-x="718" 
d="M100 0v714h553v-57h-487v-260h462v-57h-462v-283h503l-13 -57h-556zM481 773l-105 88l-105 -88h-65l139 130h62l139 -130h-65z" />
    <glyph glyph-name="Gcircumflex" unicode="&#x11c;" horiz-adv-x="843" 
d="M712 297h-249v57h312v-274q-60 -46 -144.5 -72t-174.5 -26q-120 0 -209 43.5t-137.5 127t-48.5 201.5q0 113 45.5 198.5t132.5 132.5t205 47q120 0 200.5 -51.5t112.5 -147.5l-65 -12q-27 76 -90 114.5t-160 38.5q-95 0 -165 -37.5t-108.5 -109.5t-38.5 -172
q0 -150 86 -232.5t241 -82.5q73 0 139 16.5t116 48.5v192zM549 773l-105 88l-105 -88h-65l139 130h62l139 -130h-65z" />
    <glyph glyph-name="Hcircumflex" unicode="&#x124;" horiz-adv-x="844" 
d="M678 0v340h-512v-340h-66v714h66v-314h512v314h66v-714h-66zM527 773l-105 88l-105 -88h-65l139 130h62l139 -130h-65z" />
    <glyph glyph-name="Icircumflex" unicode="&#xce;" horiz-adv-x="266" 
d="M100 0v714h66v-714h-66zM238 773l-105 88l-105 -88h-65l139 130h62l139 -130h-65z" />
    <glyph glyph-name="Jcircumflex" unicode="&#x134;" horiz-adv-x="694" 
d="M536 714h66v-471q0 -129 -71 -195t-210 -66q-128 0 -202 57.5t-89 167.5h67q31 -167 223 -167q109 0 162.5 51t53.5 158v465zM674 773l-105 88l-105 -88h-65l139 130h62l139 -130h-65z" />
    <glyph glyph-name="Ocircumflex" unicode="&#xd4;" horiz-adv-x="901" 
d="M840 357q0 -111 -46.5 -195.5t-134.5 -132t-208 -47.5q-116 0 -204 44.5t-137 129.5t-49 201q0 111 46.5 195.5t134.5 132t208 47.5q116 0 204 -44.5t137 -129.5t49 -201zM771 357q0 148 -85 232.5t-236 84.5q-97 0 -169 -37t-111.5 -109t-39.5 -171q0 -148 85 -232.5
t236 -84.5q97 0 169 37t111.5 109t39.5 171zM555 773l-105 88l-105 -88h-65l139 130h62l139 -130h-65z" />
    <glyph glyph-name="Scircumflex" unicode="&#x15c;" horiz-adv-x="760" 
d="M620 541q-27 72 -83 103t-159 31q-116 0 -177.5 -35t-61.5 -101q0 -59 43.5 -89.5t147.5 -45.5l128 -18q126 -18 183.5 -66t57.5 -135q0 -98 -79.5 -150.5t-226.5 -52.5q-310 0 -340 211h68q16 -79 82 -116.5t190 -37.5q118 0 178 37t60 110q0 60 -44 92.5t-148 47.5
l-114 16q-134 19 -193.5 64.5t-59.5 130.5q0 92 81 143.5t225 51.5q130 0 201.5 -41.5t103.5 -137.5zM483 773l-105 88l-105 -88h-65l139 130h62l139 -130h-65z" />
    <glyph glyph-name="Ucircumflex" unicode="&#xdb;" horiz-adv-x="825" 
d="M666 714h66v-431q0 -301 -320 -301t-320 301v431h66v-434q0 -240 254 -240t254 240v434zM517 773l-105 88l-105 -88h-65l139 130h62l139 -130h-65z" />
    <glyph glyph-name="Wcircumflex" unicode="&#x174;" horiz-adv-x="1102" 
d="M762 0l-212 630l-213 -630h-72l-242 714h74l206 -631l213 627h72l213 -629l206 633h72l-242 -714h-75zM656 773l-105 88l-105 -88h-65l139 130h62l139 -130h-65z" />
    <glyph glyph-name="Ycircumflex" unicode="&#x176;" horiz-adv-x="714" 
d="M324 0v304l-305 410h81l259 -351l259 351h77l-305 -409v-305h-66zM463 773l-105 88l-105 -88h-65l139 130h62l139 -130h-65z" />
    <glyph glyph-name="Atilde" unicode="&#xc3;" horiz-adv-x="801" 
d="M709 0l-105 217h-409l-105 -217h-71l347 714h69l347 -714h-73zM399 644l-178 -370h356zM604 882q0 -51 -29.5 -79.5t-82.5 -28.5q-24 0 -46 7.5t-50 25.5q-32 20 -49.5 27t-36.5 7q-63 0 -63 -61h-52q0 51 29.5 79.5t82.5 28.5q24 0 46 -7.5t50 -25.5q32 -20 49.5 -27
t36.5 -7q63 0 63 61h52z" />
    <glyph glyph-name="Itilde" unicode="&#x128;" horiz-adv-x="266" 
d="M100 0v714h66v-714h-66zM338 882q0 -51 -29.5 -79.5t-82.5 -28.5q-24 0 -46 7.5t-50 25.5q-32 20 -49.5 27t-36.5 7q-63 0 -63 -61h-52q0 51 29.5 79.5t82.5 28.5q24 0 46 -7.5t50 -25.5q32 -20 49.5 -27t36.5 -7q63 0 63 61h52z" />
    <glyph glyph-name="Ntilde" unicode="&#xd1;" horiz-adv-x="848" 
d="M682 0l-516 620v-620h-66v714h66l516 -620v620h66v-714h-66zM629 882q0 -51 -29.5 -79.5t-82.5 -28.5q-24 0 -46 7.5t-50 25.5q-32 20 -49.5 27t-36.5 7q-63 0 -63 -61h-52q0 51 29.5 79.5t82.5 28.5q24 0 46 -7.5t50 -25.5q32 -20 49.5 -27t36.5 -7q63 0 63 61h52z" />
    <glyph glyph-name="Otilde" unicode="&#xd5;" horiz-adv-x="901" 
d="M840 357q0 -111 -46.5 -195.5t-134.5 -132t-208 -47.5q-116 0 -204 44.5t-137 129.5t-49 201q0 111 46.5 195.5t134.5 132t208 47.5q116 0 204 -44.5t137 -129.5t49 -201zM771 357q0 148 -85 232.5t-236 84.5q-97 0 -169 -37t-111.5 -109t-39.5 -171q0 -148 85 -232.5
t236 -84.5q97 0 169 37t111.5 109t39.5 171zM655 882q0 -51 -29.5 -79.5t-82.5 -28.5q-24 0 -46 7.5t-50 25.5q-32 20 -49.5 27t-36.5 7q-63 0 -63 -61h-52q0 51 29.5 79.5t82.5 28.5q24 0 46 -7.5t50 -25.5q32 -20 49.5 -27t36.5 -7q63 0 63 61h52z" />
    <glyph glyph-name="Utilde" unicode="&#x168;" horiz-adv-x="825" 
d="M666 714h66v-431q0 -301 -320 -301t-320 301v431h66v-434q0 -240 254 -240t254 240v434zM617 882q0 -51 -29.5 -79.5t-82.5 -28.5q-24 0 -46 7.5t-50 25.5q-32 20 -49.5 27t-36.5 7q-63 0 -63 -61h-52q0 51 29.5 79.5t82.5 28.5q24 0 46 -7.5t50 -25.5q32 -20 49.5 -27
t36.5 -7q63 0 63 61h52z" />
    <glyph glyph-name="acircumflex" unicode="&#xe2;" horiz-adv-x="644" 
d="M503 0v96q-82 -109 -243 -109q-101 0 -155.5 41t-54.5 117q0 81 69.5 121t216.5 44l166 4v25q0 72 -42.5 107t-131.5 35q-81 0 -128 -22t-62 -67l-58 9q17 66 78.5 98t171.5 32q118 0 175.5 -47.5t57.5 -144.5v-339h-60zM502 268l-164 -5q-119 -4 -171 -30.5t-52 -83.5
q0 -52 41.5 -81t117.5 -29q47 0 90.5 13.5t74.5 37.5q30 23 46.5 52t16.5 59v67zM437 593l-109 97l-109 -97h-62l140 137h62l140 -137h-62z" />
    <glyph glyph-name="ccircumflex" unicode="&#x109;" horiz-adv-x="646" 
d="M597 172q-16 -89 -84.5 -138.5t-175.5 -49.5q-85 0 -148.5 32t-98 93t-34.5 146q0 81 34 143t98.5 97.5t151.5 35.5q98 0 162.5 -44.5t84.5 -125.5l-62 -10q-17 61 -65.5 94t-121.5 33q-100 0 -158 -59.5t-58 -162.5t57.5 -161t158.5 -58q80 0 131 35t65 100h63zM446 593
l-109 97l-109 -97h-62l140 137h62l140 -137h-62z" />
    <glyph glyph-name="ecircumflex" unicode="&#xea;" horiz-adv-x="656" 
d="M118 240q2 -95 59.5 -149.5t156.5 -54.5q77 0 127.5 26t68.5 75h61q-21 -75 -87 -114t-172 -39q-130 0 -203 70.5t-73 198.5q0 82 33 144.5t95.5 98t147.5 35.5q126 0 197 -68.5t71 -191.5v-31h-482zM538 288q-1 91 -55 141.5t-151 50.5q-91 0 -148.5 -52.5t-63.5 -139.5
h418zM445 593l-109 97l-109 -97h-62l140 137h62l140 -137h-62z" />
    <glyph glyph-name="gcircumflex" unicode="&#x11d;" horiz-adv-x="708" 
d="M560 127q-34 -58 -96 -88.5t-143 -30.5q-79 0 -138.5 30.5t-93 89t-33.5 138.5q0 76 33.5 136t95.5 94.5t144 34.5t139 -27t94 -84v95h61v-461q0 -136 -66 -197.5t-209 -61.5q-119 0 -184 36.5t-82 112.5h62q18 -52 65.5 -74.5t137.5 -22.5q110 0 161.5 44t51.5 140v96z
M561 284q0 91 -67 147q-56 47 -151 47q-103 0 -162 -56t-59 -155q0 -97 57 -151.5t158 -54.5q46 0 88.5 15t70.5 41q65 57 65 135v32zM461 593l-109 97l-109 -97h-62l140 137h62l140 -137h-62z" />
    <glyph glyph-name="hcircumflex" unicode="&#x125;" horiz-adv-x="682" 
d="M538 0v322q0 155 -165 155q-45 0 -87 -15t-73 -41q-65 -52 -65 -120v-301h-63v714h63v-300q40 57 101.5 87t136.5 30q105 0 160 -51t55 -149v-331h-63zM360 773l-105 88l-105 -88h-65l139 130h62l139 -130h-65z" />
    <glyph glyph-name="icircumflex" unicode="&#xee;" horiz-adv-x="233" 
d="M85 0v515h63v-515h-63zM226 593l-109 97l-109 -97h-62l140 137h62l140 -137h-62z" />
    <glyph glyph-name="jcircumflex" unicode="&#x135;" horiz-adv-x="233" 
d="M85 515h63v-556q0 -83 -36 -123.5t-110 -40.5q-52 0 -103 18l12 50q43 -14 85 -14q45 0 67 24t22 73v569zM226 593l-109 97l-109 -97h-62l140 137h62l140 -137h-62z" />
    <glyph glyph-name="ocircumflex" unicode="&#xf4;" horiz-adv-x="696" 
d="M640 260q0 -127 -79.5 -201.5t-214.5 -74.5t-212.5 72.5t-77.5 199.5q0 82 35 144t101.5 96.5t157.5 34.5q135 0 212.5 -72.5t77.5 -198.5zM574 259q0 103 -59.5 161t-166.5 58t-166.5 -58.5t-59.5 -162.5t59.5 -162t165.5 -58q107 0 167 58.5t60 163.5zM457 593l-109 97
l-109 -97h-62l140 137h62l140 -137h-62z" />
    <glyph glyph-name="scircumflex" unicode="&#x15d;" horiz-adv-x="618" 
d="M489 388q-17 49 -61.5 71t-126.5 22t-127.5 -24.5t-45.5 -67.5q0 -41 33.5 -61.5t121.5 -32.5l64 -9q83 -12 129.5 -30.5t66 -46.5t19.5 -71q0 -154 -248 -154q-117 0 -182 39.5t-81 119.5h61q17 -57 65.5 -83t136.5 -26q92 0 140 25.5t48 75.5q0 24 -9 39t-29 25.5
t-51 18t-79 14.5l-61 9q-113 16 -158.5 48.5t-45.5 97.5q0 68 61.5 106t170.5 38q108 0 166 -31.5t80 -102.5zM408 593l-109 97l-109 -97h-62l140 137h62l140 -137h-62z" />
    <glyph glyph-name="ucircumflex" unicode="&#xfb;" horiz-adv-x="671" 
d="M524 0v102q-41 -58 -101.5 -88t-135.5 -30q-98 0 -152 51t-54 145v335h63v-326q0 -74 39.5 -112.5t116.5 -38.5q91 0 157 54q32 25 49 56.5t17 65.5v301h63v-515h-62zM443 593l-109 97l-109 -97h-62l140 137h62l140 -137h-62z" />
    <glyph glyph-name="wcircumflex" unicode="&#x175;" horiz-adv-x="875" 
d="M606 0l-169 442l-168 -442h-67l-189 515h68l157 -445l169 442h64l169 -441l157 444h65l-189 -515h-67zM548 593l-109 97l-109 -97h-62l140 137h62l140 -137h-62z" />
    <glyph glyph-name="ycircumflex" unicode="&#x177;" horiz-adv-x="593" 
d="M274 8l-263 507h73l224 -441l205 441h69l-281 -589q-35 -73 -72.5 -102t-95.5 -29q-46 0 -87 16l12 50q35 -11 68 -11q42 0 66 18t46 64zM410 593l-109 97l-109 -97h-62l140 137h62l140 -137h-62z" />
    <glyph glyph-name="atilde" unicode="&#xe3;" horiz-adv-x="644" 
d="M503 0v96q-82 -109 -243 -109q-101 0 -155.5 41t-54.5 117q0 81 69.5 121t216.5 44l166 4v25q0 72 -42.5 107t-131.5 35q-81 0 -128 -22t-62 -67l-58 9q17 66 78.5 98t171.5 32q118 0 175.5 -47.5t57.5 -144.5v-339h-60zM502 268l-164 -5q-119 -4 -171 -30.5t-52 -83.5
q0 -52 41.5 -81t117.5 -29q47 0 90.5 13.5t74.5 37.5q30 23 46.5 52t16.5 59v67zM530 712q0 -52 -29 -80t-81 -28q-24 0 -46 7.5t-53 27.5q-30 19 -46.5 25t-34.5 6q-31 0 -47.5 -15.5t-16.5 -44.5h-49q0 52 29 80t81 28q24 0 46 -7.5t53 -27.5q30 -19 46.5 -25t34.5 -6
q31 0 47.5 15.5t16.5 44.5h49z" />
    <glyph glyph-name="itilde" unicode="&#x129;" horiz-adv-x="233" 
d="M85 0v515h63v-515h-63zM319 712q0 -52 -29 -80t-81 -28q-24 0 -46 7.5t-53 27.5q-30 19 -46.5 25t-34.5 6q-31 0 -47.5 -15.5t-16.5 -44.5h-49q0 52 29 80t81 28q24 0 46 -7.5t53 -27.5q30 -19 46.5 -25t34.5 -6q31 0 47.5 15.5t16.5 44.5h49z" />
    <glyph glyph-name="ntilde" unicode="&#xf1;" horiz-adv-x="682" 
d="M538 0v322q0 155 -165 155q-45 0 -87 -15t-73 -41q-65 -52 -65 -120v-301h-63v515h62v-102q40 57 101.5 87.5t137.5 30.5q105 0 160 -51t55 -149v-331h-63zM548 712q0 -52 -29 -80t-81 -28q-24 0 -46 7.5t-53 27.5q-30 19 -46.5 25t-34.5 6q-31 0 -47.5 -15.5
t-16.5 -44.5h-49q0 52 29 80t81 28q24 0 46 -7.5t53 -27.5q30 -19 46.5 -25t34.5 -6q31 0 47.5 15.5t16.5 44.5h49z" />
    <glyph glyph-name="otilde" unicode="&#xf5;" horiz-adv-x="696" 
d="M640 260q0 -127 -79.5 -201.5t-214.5 -74.5t-212.5 72.5t-77.5 199.5q0 82 35 144t101.5 96.5t157.5 34.5q135 0 212.5 -72.5t77.5 -198.5zM574 259q0 103 -59.5 161t-166.5 58t-166.5 -58.5t-59.5 -162.5t59.5 -162t165.5 -58q107 0 167 58.5t60 163.5zM550 712
q0 -52 -29 -80t-81 -28q-24 0 -46 7.5t-53 27.5q-30 19 -46.5 25t-34.5 6q-31 0 -47.5 -15.5t-16.5 -44.5h-49q0 52 29 80t81 28q24 0 46 -7.5t53 -27.5q30 -19 46.5 -25t34.5 -6q31 0 47.5 15.5t16.5 44.5h49z" />
    <glyph glyph-name="utilde" unicode="&#x169;" horiz-adv-x="671" 
d="M524 0v102q-41 -58 -101.5 -88t-135.5 -30q-98 0 -152 51t-54 145v335h63v-326q0 -74 39.5 -112.5t116.5 -38.5q91 0 157 54q32 25 49 56.5t17 65.5v301h63v-515h-62zM536 712q0 -52 -29 -80t-81 -28q-24 0 -46 7.5t-53 27.5q-30 19 -46.5 25t-34.5 6q-31 0 -47.5 -15.5
t-16.5 -44.5h-49q0 52 29 80t81 28q24 0 46 -7.5t53 -27.5q30 -19 46.5 -25t34.5 -6q31 0 47.5 15.5t16.5 44.5h49z" />
    <glyph glyph-name="uni030C" unicode="&#x30c;" horiz-adv-x="0" 
d="M31 593h-62l-140 137h62l109 -97l109 97h62z" />
    <glyph glyph-name="uni030C.cap" horiz-adv-x="0" 
d="M31 773h-62l-139 130h65l105 -88l105 88h65z" />
    <glyph glyph-name="caron" unicode="&#x2c7;" horiz-adv-x="682" 
d="M372 593h-62l-140 137h62l109 -97l109 97h62z" />
    <glyph glyph-name="uni0315" unicode="&#x315;" horiz-adv-x="0" 
d="M-46 532l33 182h59l-44 -182h-48z" />
    <glyph glyph-name="uni0315.short" horiz-adv-x="0" 
d="M-36 582l25 147h57l-37 -147h-45z" />
    <glyph glyph-name="uni0304" unicode="&#x304;" horiz-adv-x="0" 
d="M-152 632v50h304v-50h-304z" />
    <glyph glyph-name="uni0304.cap" horiz-adv-x="0" 
d="M-172 802v52h344v-52h-344z" />
    <glyph glyph-name="uni02C9" unicode="&#x2c9;" horiz-adv-x="682" 
d="M189 632v50h304v-50h-304z" />
    <glyph glyph-name="macron" unicode="&#xaf;" horiz-adv-x="682" 
d="M189 632v50h304v-50h-304z" />
    <glyph glyph-name="Ccaron" unicode="&#x10c;" horiz-adv-x="843" 
d="M786 232q-20 -119 -110.5 -184.5t-234.5 -65.5q-114 0 -199.5 44.5t-133 129t-47.5 200.5q0 110 45 195t131 133t201 48q134 0 219 -58.5t116 -173.5l-64 -10q-31 95 -96.5 139.5t-174.5 44.5q-92 0 -161.5 -37.5t-108 -109.5t-38.5 -171q0 -147 83 -231.5t228 -84.5
q117 0 187 48.5t90 143.5h68zM469 773h-62l-139 130h65l105 -88l105 88h65z" />
    <glyph glyph-name="Dcaron" unicode="&#x10e;" horiz-adv-x="845" 
d="M100 0v714h292q188 0 290 -93t102 -264q0 -173 -107.5 -265t-307.5 -92h-269zM371 57q169 0 256.5 76.5t87.5 223.5t-82.5 223.5t-240.5 76.5h-226v-600h205zM456 773h-62l-139 130h65l105 -88l105 88h65z" />
    <glyph glyph-name="Ecaron" unicode="&#x11a;" horiz-adv-x="718" 
d="M100 0v714h553v-57h-487v-260h462v-57h-462v-283h503l-13 -57h-556zM407 773h-62l-139 130h65l105 -88l105 88h65z" />
    <glyph glyph-name="Lcaron" unicode="&#x13d;" horiz-adv-x="682" 
d="M100 0v714h66v-657h486l-13 -57h-539zM412 532l33 182h59l-44 -182h-48z" />
    <glyph glyph-name="Ncaron" unicode="&#x147;" horiz-adv-x="848" 
d="M682 0l-516 620v-620h-66v714h66l516 -620v620h66v-714h-66zM455 773h-62l-139 130h65l105 -88l105 88h65z" />
    <glyph glyph-name="Rcaron" unicode="&#x158;" horiz-adv-x="753" 
d="M648 0l-178 310q-17 -2 -53 -2h-252v-308h-65v714h328q130 0 197 -51.5t67 -152.5q0 -75 -39.5 -122.5t-115.5 -65.5l187 -322h-76zM420 365q204 0 204 146q0 74 -49 110t-152 36h-258v-292h255zM425 773h-62l-139 130h65l105 -88l105 88h65z" />
    <glyph glyph-name="Scaron" unicode="&#x160;" horiz-adv-x="760" 
d="M620 541q-27 72 -83 103t-159 31q-116 0 -177.5 -35t-61.5 -101q0 -59 43.5 -89.5t147.5 -45.5l128 -18q126 -18 183.5 -66t57.5 -135q0 -98 -79.5 -150.5t-226.5 -52.5q-310 0 -340 211h68q16 -79 82 -116.5t190 -37.5q118 0 178 37t60 110q0 60 -44 92.5t-148 47.5
l-114 16q-134 19 -193.5 64.5t-59.5 130.5q0 92 81 143.5t225 51.5q130 0 201.5 -41.5t103.5 -137.5zM409 773h-62l-139 130h65l105 -88l105 88h65z" />
    <glyph glyph-name="Tcaron" unicode="&#x164;" horiz-adv-x="712" 
d="M323 0v657h-305v57h676v-57h-305v-657h-66zM387 773h-62l-139 130h65l105 -88l105 88h65z" />
    <glyph glyph-name="Zcaron" unicode="&#x17d;" horiz-adv-x="694" 
d="M33 0v52l537 605h-528v57h612v-52l-537 -605h547l-13 -57h-618zM380 773h-62l-139 130h65l105 -88l105 88h65z" />
    <glyph glyph-name="Amacron" unicode="&#x100;" horiz-adv-x="801" 
d="M709 0l-105 217h-409l-105 -217h-71l347 714h69l347 -714h-73zM399 644l-178 -370h356zM227 802v52h344v-52h-344z" />
    <glyph glyph-name="Emacron" unicode="&#x112;" horiz-adv-x="718" 
d="M100 0v714h553v-57h-487v-260h462v-57h-462v-283h503l-13 -57h-556zM204 802v52h344v-52h-344z" />
    <glyph glyph-name="Imacron" unicode="&#x12a;" horiz-adv-x="266" 
d="M100 0v714h66v-714h-66zM-39 802v52h344v-52h-344z" />
    <glyph glyph-name="Omacron" unicode="&#x14c;" horiz-adv-x="901" 
d="M840 357q0 -111 -46.5 -195.5t-134.5 -132t-208 -47.5q-116 0 -204 44.5t-137 129.5t-49 201q0 111 46.5 195.5t134.5 132t208 47.5q116 0 204 -44.5t137 -129.5t49 -201zM771 357q0 148 -85 232.5t-236 84.5q-97 0 -169 -37t-111.5 -109t-39.5 -171q0 -148 85 -232.5
t236 -84.5q97 0 169 37t111.5 109t39.5 171zM278 802v52h344v-52h-344z" />
    <glyph glyph-name="Umacron" unicode="&#x16a;" horiz-adv-x="825" 
d="M666 714h66v-431q0 -301 -320 -301t-320 301v431h66v-434q0 -240 254 -240t254 240v434zM240 802v52h344v-52h-344z" />
    <glyph glyph-name="ccaron" unicode="&#x10d;" horiz-adv-x="646" 
d="M597 172q-16 -89 -84.5 -138.5t-175.5 -49.5q-85 0 -148.5 32t-98 93t-34.5 146q0 81 34 143t98.5 97.5t151.5 35.5q98 0 162.5 -44.5t84.5 -125.5l-62 -10q-17 61 -65.5 94t-121.5 33q-100 0 -158 -59.5t-58 -162.5t57.5 -161t158.5 -58q80 0 131 35t65 100h63zM368 593
h-62l-140 137h62l109 -97l109 97h62z" />
    <glyph glyph-name="dcaron" unicode="&#x10f;" horiz-adv-x="771" 
d="M561 0v103q-33 -55 -97 -87t-143 -32t-139 32.5t-93 94t-33 145.5q0 81 33 143t95 97t145 35q158 0 231 -112v295h63v-714h-62zM561 278q0 46 -17 85t-50 66q-29 24 -67.5 36.5t-82.5 12.5q-106 0 -164 -57.5t-58 -164.5q0 -102 57.5 -160.5t157.5 -58.5q45 0 87.5 15
t73.5 42q30 26 46.5 63t16.5 78v43zM693 532l33 182h59l-44 -182h-48z" />
    <glyph glyph-name="ecaron" unicode="&#x11b;" horiz-adv-x="656" 
d="M118 240q2 -95 59.5 -149.5t156.5 -54.5q77 0 127.5 26t68.5 75h61q-21 -75 -87 -114t-172 -39q-130 0 -203 70.5t-73 198.5q0 82 33 144.5t95.5 98t147.5 35.5q126 0 197 -68.5t71 -191.5v-31h-482zM538 288q-1 91 -55 141.5t-151 50.5q-91 0 -148.5 -52.5t-63.5 -139.5
h418zM367 593h-62l-140 137h62l109 -97l109 97h62z" />
    <glyph glyph-name="lcaron" unicode="&#x13e;" horiz-adv-x="296" 
d="M85 0v714h63v-714h-63zM218 532l33 182h59l-44 -182h-48z" />
    <glyph glyph-name="ncaron" unicode="&#x148;" horiz-adv-x="682" 
d="M538 0v322q0 155 -165 155q-45 0 -87 -15t-73 -41q-65 -52 -65 -120v-301h-63v515h62v-102q40 57 101.5 87.5t137.5 30.5q105 0 160 -51t55 -149v-331h-63zM377 593h-62l-140 137h62l109 -97l109 97h62z" />
    <glyph glyph-name="rcaron" unicode="&#x159;" horiz-adv-x="431" 
d="M85 0v515h62v-103q37 54 90 82.5t115 28.5q27 0 52 -5l-7 -56q-23 5 -50 5q-47 0 -84 -15t-68 -46q-47 -47 -47 -106v-300h-63zM284 593h-62l-140 137h62l109 -97l109 97h62z" />
    <glyph glyph-name="scaron" unicode="&#x161;" horiz-adv-x="618" 
d="M489 388q-17 49 -61.5 71t-126.5 22t-127.5 -24.5t-45.5 -67.5q0 -41 33.5 -61.5t121.5 -32.5l64 -9q83 -12 129.5 -30.5t66 -46.5t19.5 -71q0 -154 -248 -154q-117 0 -182 39.5t-81 119.5h61q17 -57 65.5 -83t136.5 -26q92 0 140 25.5t48 75.5q0 24 -9 39t-29 25.5
t-51 18t-79 14.5l-61 9q-113 16 -158.5 48.5t-45.5 97.5q0 68 61.5 106t170.5 38q108 0 166 -31.5t80 -102.5zM330 593h-62l-140 137h62l109 -97l109 97h62z" />
    <glyph glyph-name="tcaron" unicode="&#x165;" horiz-adv-x="421" 
d="M400 9q-55 -20 -117 -20q-80 0 -118 39t-38 120v317h-102v50h102v142h63v-142h196v-50h-196v-320q0 -103 102 -103q46 0 97 18zM280 582l25 147h57l-37 -147h-45z" />
    <glyph glyph-name="zcaron" unicode="&#x17e;" horiz-adv-x="568" 
d="M36 0v47l393 417h-385v51h467v-47l-393 -417h415l-11 -51h-486zM309 593h-62l-140 137h62l109 -97l109 97h62z" />
    <glyph glyph-name="amacron" unicode="&#x101;" horiz-adv-x="644" 
d="M503 0v96q-82 -109 -243 -109q-101 0 -155.5 41t-54.5 117q0 81 69.5 121t216.5 44l166 4v25q0 72 -42.5 107t-131.5 35q-81 0 -128 -22t-62 -67l-58 9q17 66 78.5 98t171.5 32q118 0 175.5 -47.5t57.5 -144.5v-339h-60zM502 268l-164 -5q-119 -4 -171 -30.5t-52 -83.5
q0 -52 41.5 -81t117.5 -29q47 0 90.5 13.5t74.5 37.5q30 23 46.5 52t16.5 59v67zM176 632v50h304v-50h-304z" />
    <glyph glyph-name="emacron" unicode="&#x113;" horiz-adv-x="656" 
d="M118 240q2 -95 59.5 -149.5t156.5 -54.5q77 0 127.5 26t68.5 75h61q-21 -75 -87 -114t-172 -39q-130 0 -203 70.5t-73 198.5q0 82 33 144.5t95.5 98t147.5 35.5q126 0 197 -68.5t71 -191.5v-31h-482zM538 288q-1 91 -55 141.5t-151 50.5q-91 0 -148.5 -52.5t-63.5 -139.5
h418zM184 632v50h304v-50h-304z" />
    <glyph glyph-name="imacron" unicode="&#x12b;" horiz-adv-x="233" 
d="M85 0v515h63v-515h-63zM-35 632v50h304v-50h-304z" />
    <glyph glyph-name="omacron" unicode="&#x14d;" horiz-adv-x="696" 
d="M640 260q0 -127 -79.5 -201.5t-214.5 -74.5t-212.5 72.5t-77.5 199.5q0 82 35 144t101.5 96.5t157.5 34.5q135 0 212.5 -72.5t77.5 -198.5zM574 259q0 103 -59.5 161t-166.5 58t-166.5 -58.5t-59.5 -162.5t59.5 -162t165.5 -58q107 0 167 58.5t60 163.5zM196 632v50h304
v-50h-304z" />
    <glyph glyph-name="umacron" unicode="&#x16b;" horiz-adv-x="671" 
d="M524 0v102q-41 -58 -101.5 -88t-135.5 -30q-98 0 -152 51t-54 145v335h63v-326q0 -74 39.5 -112.5t116.5 -38.5q91 0 157 54q32 25 49 56.5t17 65.5v301h63v-515h-62zM182 632v50h304v-50h-304z" />
    <glyph glyph-name="uni0308" unicode="&#x308;" horiz-adv-x="0" 
d="M-131 616v98h63v-98h-63zM68 616v98h63v-98h-63z" />
    <glyph glyph-name="uni0308.cap" horiz-adv-x="0" 
d="M-140 787v100h66v-100h-66zM74 787v100h66v-100h-66z" />
    <glyph glyph-name="dieresis" unicode="&#xa8;" horiz-adv-x="682" 
d="M210 616v98h63v-98h-63zM409 616v98h63v-98h-63z" />
    <glyph glyph-name="uni0306" unicode="&#x306;" horiz-adv-x="0" 
d="M152 723q0 -61 -39.5 -94.5t-112.5 -33.5t-112.5 33.5t-39.5 94.5h51q0 -41 26 -63t75 -22t75 22t26 63h51z" />
    <glyph glyph-name="uni0306.cap" horiz-adv-x="0" 
d="M151 898q0 -61 -39 -93.5t-112 -32.5t-112 32.5t-39 93.5h52q0 -41 25.5 -61.5t73.5 -20.5t73.5 20.5t25.5 61.5h52z" />
    <glyph glyph-name="breve" unicode="&#x2d8;" horiz-adv-x="682" 
d="M493 723q0 -61 -39.5 -94.5t-112.5 -33.5t-112.5 33.5t-39.5 94.5h51q0 -41 26 -63t75 -22t75 22t26 63h51z" />
    <glyph glyph-name="Adieresis" unicode="&#xc4;" horiz-adv-x="801" 
d="M709 0l-105 217h-409l-105 -217h-71l347 714h69l347 -714h-73zM399 644l-178 -370h356zM259 787v100h66v-100h-66zM473 787v100h66v-100h-66z" />
    <glyph glyph-name="Edieresis" unicode="&#xcb;" horiz-adv-x="718" 
d="M100 0v714h553v-57h-487v-260h462v-57h-462v-283h503l-13 -57h-556zM236 787v100h66v-100h-66zM450 787v100h66v-100h-66z" />
    <glyph glyph-name="Idieresis" unicode="&#xcf;" horiz-adv-x="266" 
d="M100 0v714h66v-714h-66zM-7 787v100h66v-100h-66zM207 787v100h66v-100h-66z" />
    <glyph glyph-name="Odieresis" unicode="&#xd6;" horiz-adv-x="901" 
d="M840 357q0 -111 -46.5 -195.5t-134.5 -132t-208 -47.5q-116 0 -204 44.5t-137 129.5t-49 201q0 111 46.5 195.5t134.5 132t208 47.5q116 0 204 -44.5t137 -129.5t49 -201zM771 357q0 148 -85 232.5t-236 84.5q-97 0 -169 -37t-111.5 -109t-39.5 -171q0 -148 85 -232.5
t236 -84.5q97 0 169 37t111.5 109t39.5 171zM310 787v100h66v-100h-66zM524 787v100h66v-100h-66z" />
    <glyph glyph-name="Udieresis" unicode="&#xdc;" horiz-adv-x="825" 
d="M666 714h66v-431q0 -301 -320 -301t-320 301v431h66v-434q0 -240 254 -240t254 240v434zM272 787v100h66v-100h-66zM486 787v100h66v-100h-66z" />
    <glyph glyph-name="Wdieresis" unicode="&#x1e84;" horiz-adv-x="1102" 
d="M762 0l-212 630l-213 -630h-72l-242 714h74l206 -631l213 627h72l213 -629l206 633h72l-242 -714h-75zM411 787v100h66v-100h-66zM625 787v100h66v-100h-66z" />
    <glyph glyph-name="Ydieresis" unicode="&#x178;" horiz-adv-x="714" 
d="M324 0v304l-305 410h81l259 -351l259 351h77l-305 -409v-305h-66zM218 787v100h66v-100h-66zM432 787v100h66v-100h-66z" />
    <glyph glyph-name="Abreve" unicode="&#x102;" horiz-adv-x="801" 
d="M709 0l-105 217h-409l-105 -217h-71l347 714h69l347 -714h-73zM399 644l-178 -370h356zM550 898q0 -61 -39 -93.5t-112 -32.5t-112 32.5t-39 93.5h52q0 -41 25.5 -61.5t73.5 -20.5t73.5 20.5t25.5 61.5h52z" />
    <glyph glyph-name="Ebreve" unicode="&#x114;" horiz-adv-x="718" 
d="M100 0v714h553v-57h-487v-260h462v-57h-462v-283h503l-13 -57h-556zM527 898q0 -61 -39 -93.5t-112 -32.5t-112 32.5t-39 93.5h52q0 -41 25.5 -61.5t73.5 -20.5t73.5 20.5t25.5 61.5h52z" />
    <glyph glyph-name="Gbreve" unicode="&#x11e;" horiz-adv-x="843" 
d="M712 297h-249v57h312v-274q-60 -46 -144.5 -72t-174.5 -26q-120 0 -209 43.5t-137.5 127t-48.5 201.5q0 113 45.5 198.5t132.5 132.5t205 47q120 0 200.5 -51.5t112.5 -147.5l-65 -12q-27 76 -90 114.5t-160 38.5q-95 0 -165 -37.5t-108.5 -109.5t-38.5 -172
q0 -150 86 -232.5t241 -82.5q73 0 139 16.5t116 48.5v192zM595 898q0 -61 -39 -93.5t-112 -32.5t-112 32.5t-39 93.5h52q0 -41 25.5 -61.5t73.5 -20.5t73.5 20.5t25.5 61.5h52z" />
    <glyph glyph-name="Ibreve" unicode="&#x12c;" horiz-adv-x="266" 
d="M100 0v714h66v-714h-66zM284 898q0 -61 -39 -93.5t-112 -32.5t-112 32.5t-39 93.5h52q0 -41 25.5 -61.5t73.5 -20.5t73.5 20.5t25.5 61.5h52z" />
    <glyph glyph-name="Obreve" unicode="&#x14e;" horiz-adv-x="901" 
d="M840 357q0 -111 -46.5 -195.5t-134.5 -132t-208 -47.5q-116 0 -204 44.5t-137 129.5t-49 201q0 111 46.5 195.5t134.5 132t208 47.5q116 0 204 -44.5t137 -129.5t49 -201zM771 357q0 148 -85 232.5t-236 84.5q-97 0 -169 -37t-111.5 -109t-39.5 -171q0 -148 85 -232.5
t236 -84.5q97 0 169 37t111.5 109t39.5 171zM601 898q0 -61 -39 -93.5t-112 -32.5t-112 32.5t-39 93.5h52q0 -41 25.5 -61.5t73.5 -20.5t73.5 20.5t25.5 61.5h52z" />
    <glyph glyph-name="Ubreve" unicode="&#x16c;" horiz-adv-x="825" 
d="M666 714h66v-431q0 -301 -320 -301t-320 301v431h66v-434q0 -240 254 -240t254 240v434zM563 898q0 -61 -39 -93.5t-112 -32.5t-112 32.5t-39 93.5h52q0 -41 25.5 -61.5t73.5 -20.5t73.5 20.5t25.5 61.5h52z" />
    <glyph glyph-name="adieresis" unicode="&#xe4;" horiz-adv-x="644" 
d="M503 0v96q-82 -109 -243 -109q-101 0 -155.5 41t-54.5 117q0 81 69.5 121t216.5 44l166 4v25q0 72 -42.5 107t-131.5 35q-81 0 -128 -22t-62 -67l-58 9q17 66 78.5 98t171.5 32q118 0 175.5 -47.5t57.5 -144.5v-339h-60zM502 268l-164 -5q-119 -4 -171 -30.5t-52 -83.5
q0 -52 41.5 -81t117.5 -29q47 0 90.5 13.5t74.5 37.5q30 23 46.5 52t16.5 59v67zM197 616v98h63v-98h-63zM396 616v98h63v-98h-63z" />
    <glyph glyph-name="edieresis" unicode="&#xeb;" horiz-adv-x="656" 
d="M118 240q2 -95 59.5 -149.5t156.5 -54.5q77 0 127.5 26t68.5 75h61q-21 -75 -87 -114t-172 -39q-130 0 -203 70.5t-73 198.5q0 82 33 144.5t95.5 98t147.5 35.5q126 0 197 -68.5t71 -191.5v-31h-482zM538 288q-1 91 -55 141.5t-151 50.5q-91 0 -148.5 -52.5t-63.5 -139.5
h418zM205 616v98h63v-98h-63zM404 616v98h63v-98h-63z" />
    <glyph glyph-name="idieresis" unicode="&#xef;" horiz-adv-x="233" 
d="M85 0v515h63v-515h-63zM-14 616v98h63v-98h-63zM185 616v98h63v-98h-63z" />
    <glyph glyph-name="odieresis" unicode="&#xf6;" horiz-adv-x="696" 
d="M640 260q0 -127 -79.5 -201.5t-214.5 -74.5t-212.5 72.5t-77.5 199.5q0 82 35 144t101.5 96.5t157.5 34.5q135 0 212.5 -72.5t77.5 -198.5zM574 259q0 103 -59.5 161t-166.5 58t-166.5 -58.5t-59.5 -162.5t59.5 -162t165.5 -58q107 0 167 58.5t60 163.5zM217 616v98h63
v-98h-63zM416 616v98h63v-98h-63z" />
    <glyph glyph-name="udieresis" unicode="&#xfc;" horiz-adv-x="671" 
d="M524 0v102q-41 -58 -101.5 -88t-135.5 -30q-98 0 -152 51t-54 145v335h63v-326q0 -74 39.5 -112.5t116.5 -38.5q91 0 157 54q32 25 49 56.5t17 65.5v301h63v-515h-62zM203 616v98h63v-98h-63zM402 616v98h63v-98h-63z" />
    <glyph glyph-name="wdieresis" unicode="&#x1e85;" horiz-adv-x="875" 
d="M606 0l-169 442l-168 -442h-67l-189 515h68l157 -445l169 442h64l169 -441l157 444h65l-189 -515h-67zM308 616v98h63v-98h-63zM507 616v98h63v-98h-63z" />
    <glyph glyph-name="ydieresis" unicode="&#xff;" horiz-adv-x="593" 
d="M274 8l-263 507h73l224 -441l205 441h69l-281 -589q-35 -73 -72.5 -102t-95.5 -29q-46 0 -87 16l12 50q35 -11 68 -11q42 0 66 18t46 64zM170 616v98h63v-98h-63zM369 616v98h63v-98h-63z" />
    <glyph glyph-name="abreve" unicode="&#x103;" horiz-adv-x="644" 
d="M503 0v96q-82 -109 -243 -109q-101 0 -155.5 41t-54.5 117q0 81 69.5 121t216.5 44l166 4v25q0 72 -42.5 107t-131.5 35q-81 0 -128 -22t-62 -67l-58 9q17 66 78.5 98t171.5 32q118 0 175.5 -47.5t57.5 -144.5v-339h-60zM502 268l-164 -5q-119 -4 -171 -30.5t-52 -83.5
q0 -52 41.5 -81t117.5 -29q47 0 90.5 13.5t74.5 37.5q30 23 46.5 52t16.5 59v67zM480 723q0 -61 -39.5 -94.5t-112.5 -33.5t-112.5 33.5t-39.5 94.5h51q0 -41 26 -63t75 -22t75 22t26 63h51z" />
    <glyph glyph-name="ebreve" unicode="&#x115;" horiz-adv-x="656" 
d="M118 240q2 -95 59.5 -149.5t156.5 -54.5q77 0 127.5 26t68.5 75h61q-21 -75 -87 -114t-172 -39q-130 0 -203 70.5t-73 198.5q0 82 33 144.5t95.5 98t147.5 35.5q126 0 197 -68.5t71 -191.5v-31h-482zM538 288q-1 91 -55 141.5t-151 50.5q-91 0 -148.5 -52.5t-63.5 -139.5
h418zM488 723q0 -61 -39.5 -94.5t-112.5 -33.5t-112.5 33.5t-39.5 94.5h51q0 -41 26 -63t75 -22t75 22t26 63h51z" />
    <glyph glyph-name="gbreve" unicode="&#x11f;" horiz-adv-x="708" 
d="M560 127q-34 -58 -96 -88.5t-143 -30.5q-79 0 -138.5 30.5t-93 89t-33.5 138.5q0 76 33.5 136t95.5 94.5t144 34.5t139 -27t94 -84v95h61v-461q0 -136 -66 -197.5t-209 -61.5q-119 0 -184 36.5t-82 112.5h62q18 -52 65.5 -74.5t137.5 -22.5q110 0 161.5 44t51.5 140v96z
M561 284q0 91 -67 147q-56 47 -151 47q-103 0 -162 -56t-59 -155q0 -97 57 -151.5t158 -54.5q46 0 88.5 15t70.5 41q65 57 65 135v32zM504 723q0 -61 -39.5 -94.5t-112.5 -33.5t-112.5 33.5t-39.5 94.5h51q0 -41 26 -63t75 -22t75 22t26 63h51z" />
    <glyph glyph-name="ibreve" unicode="&#x12d;" horiz-adv-x="233" 
d="M85 0v515h63v-515h-63zM269 723q0 -61 -39.5 -94.5t-112.5 -33.5t-112.5 33.5t-39.5 94.5h51q0 -41 26 -63t75 -22t75 22t26 63h51z" />
    <glyph glyph-name="obreve" unicode="&#x14f;" horiz-adv-x="696" 
d="M640 260q0 -127 -79.5 -201.5t-214.5 -74.5t-212.5 72.5t-77.5 199.5q0 82 35 144t101.5 96.5t157.5 34.5q135 0 212.5 -72.5t77.5 -198.5zM574 259q0 103 -59.5 161t-166.5 58t-166.5 -58.5t-59.5 -162.5t59.5 -162t165.5 -58q107 0 167 58.5t60 163.5zM500 723
q0 -61 -39.5 -94.5t-112.5 -33.5t-112.5 33.5t-39.5 94.5h51q0 -41 26 -63t75 -22t75 22t26 63h51z" />
    <glyph glyph-name="ubreve" unicode="&#x16d;" horiz-adv-x="671" 
d="M524 0v102q-41 -58 -101.5 -88t-135.5 -30q-98 0 -152 51t-54 145v335h63v-326q0 -74 39.5 -112.5t116.5 -38.5q91 0 157 54q32 25 49 56.5t17 65.5v301h63v-515h-62zM486 723q0 -61 -39.5 -94.5t-112.5 -33.5t-112.5 33.5t-39.5 94.5h51q0 -41 26 -63t75 -22t75 22
t26 63h51z" />
    <glyph glyph-name="uni0307" unicode="&#x307;" horiz-adv-x="0" 
d="M-34 616v98h67v-98h-67z" />
    <glyph glyph-name="uni0307.cap" horiz-adv-x="0" 
d="M-34 786v100h68v-100h-68z" />
    <glyph glyph-name="dotaccent" unicode="&#x2d9;" horiz-adv-x="682" 
d="M308 616v98h67v-98h-67z" />
    <glyph glyph-name="Edotaccent" unicode="&#x116;" horiz-adv-x="718" 
d="M100 0v714h553v-57h-487v-260h462v-57h-462v-283h503l-13 -57h-556zM342 786v100h68v-100h-68z" />
    <glyph glyph-name="Idotaccent" unicode="&#x130;" horiz-adv-x="266" 
d="M100 0v714h66v-714h-66zM99 786v100h68v-100h-68z" />
    <glyph glyph-name="Cdotaccent" unicode="&#x10a;" horiz-adv-x="843" 
d="M786 232q-20 -119 -110.5 -184.5t-234.5 -65.5q-114 0 -199.5 44.5t-133 129t-47.5 200.5q0 110 45 195t131 133t201 48q134 0 219 -58.5t116 -173.5l-64 -10q-31 95 -96.5 139.5t-174.5 44.5q-92 0 -161.5 -37.5t-108 -109.5t-38.5 -171q0 -147 83 -231.5t228 -84.5
q117 0 187 48.5t90 143.5h68zM404 786v100h68v-100h-68z" />
    <glyph glyph-name="Gdotaccent" unicode="&#x120;" horiz-adv-x="843" 
d="M712 297h-249v57h312v-274q-60 -46 -144.5 -72t-174.5 -26q-120 0 -209 43.5t-137.5 127t-48.5 201.5q0 113 45.5 198.5t132.5 132.5t205 47q120 0 200.5 -51.5t112.5 -147.5l-65 -12q-27 76 -90 114.5t-160 38.5q-95 0 -165 -37.5t-108.5 -109.5t-38.5 -172
q0 -150 86 -232.5t241 -82.5q73 0 139 16.5t116 48.5v192zM410 786v100h68v-100h-68z" />
    <glyph glyph-name="Zdotaccent" unicode="&#x17b;" horiz-adv-x="694" 
d="M33 0v52l537 605h-528v57h612v-52l-537 -605h547l-13 -57h-618zM315 786v100h68v-100h-68z" />
    <glyph glyph-name="edotaccent" unicode="&#x117;" horiz-adv-x="656" 
d="M118 240q2 -95 59.5 -149.5t156.5 -54.5q77 0 127.5 26t68.5 75h61q-21 -75 -87 -114t-172 -39q-130 0 -203 70.5t-73 198.5q0 82 33 144.5t95.5 98t147.5 35.5q126 0 197 -68.5t71 -191.5v-31h-482zM538 288q-1 91 -55 141.5t-151 50.5q-91 0 -148.5 -52.5t-63.5 -139.5
h418zM302 616v98h67v-98h-67z" />
    <glyph glyph-name="cdotaccent" unicode="&#x10b;" horiz-adv-x="646" 
d="M597 172q-16 -89 -84.5 -138.5t-175.5 -49.5q-85 0 -148.5 32t-98 93t-34.5 146q0 81 34 143t98.5 97.5t151.5 35.5q98 0 162.5 -44.5t84.5 -125.5l-62 -10q-17 61 -65.5 94t-121.5 33q-100 0 -158 -59.5t-58 -162.5t57.5 -161t158.5 -58q80 0 131 35t65 100h63zM303 616
v98h67v-98h-67z" />
    <glyph glyph-name="gdotaccent" unicode="&#x121;" horiz-adv-x="708" 
d="M560 127q-34 -58 -96 -88.5t-143 -30.5q-79 0 -138.5 30.5t-93 89t-33.5 138.5q0 76 33.5 136t95.5 94.5t144 34.5t139 -27t94 -84v95h61v-461q0 -136 -66 -197.5t-209 -61.5q-119 0 -184 36.5t-82 112.5h62q18 -52 65.5 -74.5t137.5 -22.5q110 0 161.5 44t51.5 140v96z
M561 284q0 91 -67 147q-56 47 -151 47q-103 0 -162 -56t-59 -155q0 -97 57 -151.5t158 -54.5q46 0 88.5 15t70.5 41q65 57 65 135v32zM318 616v98h67v-98h-67z" />
    <glyph glyph-name="zdotaccent" unicode="&#x17c;" horiz-adv-x="568" 
d="M36 0v47l393 417h-385v51h467v-47l-393 -417h415l-11 -51h-486zM244 616v98h67v-98h-67z" />
    <glyph glyph-name="uni030A" unicode="&#x30a;" horiz-adv-x="0" 
d="M113 686q0 -44 -31 -69.5t-82 -25.5t-82 25.5t-31 69.5t31 69.5t82 25.5t82 -25.5t31 -69.5zM70 686q0 28 -18.5 43t-51.5 15t-51.5 -15t-18.5 -43t18.5 -43t51.5 -15t51.5 15t18.5 43z" />
    <glyph glyph-name="uni030A.cap" horiz-adv-x="0" 
d="M114 835q0 -43 -31 -69t-83 -26t-83 26t-31 69t31 69t83 26t83 -26t31 -69zM68 835q0 57 -68 57t-68 -57t68 -57t68 57z" />
    <glyph glyph-name="ring" unicode="&#x2da;" horiz-adv-x="682" 
d="M454 686q0 -44 -31 -69.5t-82 -25.5t-82 25.5t-31 69.5t31 69.5t82 25.5t82 -25.5t31 -69.5zM411 686q0 28 -18.5 43t-51.5 15t-51.5 -15t-18.5 -43t18.5 -43t51.5 -15t51.5 15t18.5 43z" />
    <glyph glyph-name="Aring" unicode="&#xc5;" horiz-adv-x="801" 
d="M709 0l-105 217h-409l-105 -217h-71l335 690q-31 10 -48.5 33t-17.5 55q0 43 31 69t83 26t83 -26t31 -69q0 -32 -18 -55.5t-51 -33.5l335 -689h-73zM399 644l-178 -370h356zM470 778q0 57 -68 57t-68 -57t68 -57t68 57z" />
    <glyph glyph-name="Uring" unicode="&#x16e;" horiz-adv-x="825" 
d="M666 714h66v-431q0 -301 -320 -301t-320 301v431h66v-434q0 -240 254 -240t254 240v434zM526 835q0 -43 -31 -69t-83 -26t-83 26t-31 69t31 69t83 26t83 -26t31 -69zM480 835q0 57 -68 57t-68 -57t68 -57t68 57z" />
    <glyph glyph-name="aring" unicode="&#xe5;" horiz-adv-x="644" 
d="M503 0v96q-82 -109 -243 -109q-101 0 -155.5 41t-54.5 117q0 81 69.5 121t216.5 44l166 4v25q0 72 -42.5 107t-131.5 35q-81 0 -128 -22t-62 -67l-58 9q17 66 78.5 98t171.5 32q118 0 175.5 -47.5t57.5 -144.5v-339h-60zM502 268l-164 -5q-119 -4 -171 -30.5t-52 -83.5
q0 -52 41.5 -81t117.5 -29q47 0 90.5 13.5t74.5 37.5q30 23 46.5 52t16.5 59v67zM441 686q0 -44 -31 -69.5t-82 -25.5t-82 25.5t-31 69.5t31 69.5t82 25.5t82 -25.5t31 -69.5zM398 686q0 28 -18.5 43t-51.5 15t-51.5 -15t-18.5 -43t18.5 -43t51.5 -15t51.5 15t18.5 43z" />
    <glyph glyph-name="uring" unicode="&#x16f;" horiz-adv-x="671" 
d="M524 0v102q-41 -58 -101.5 -88t-135.5 -30q-98 0 -152 51t-54 145v335h63v-326q0 -74 39.5 -112.5t116.5 -38.5q91 0 157 54q32 25 49 56.5t17 65.5v301h63v-515h-62zM447 686q0 -44 -31 -69.5t-82 -25.5t-82 25.5t-31 69.5t31 69.5t82 25.5t82 -25.5t31 -69.5zM404 686
q0 28 -18.5 43t-51.5 15t-51.5 -15t-18.5 -43t18.5 -43t51.5 -15t51.5 15t18.5 43z" />
    <glyph glyph-name="uni0394" unicode="&#x394;" horiz-adv-x="795" 
d="M19 0l344 714h69l344 -714h-757zM396 644l-278 -587h558z" />
    <glyph glyph-name="uni03A9" unicode="&#x3a9;" horiz-adv-x="886" 
d="M540 0v51q106 56 156 135.5t50 189.5q0 140 -80 219t-223 79t-223 -79t-80 -219q0 -110 50 -189.5t156 -135.5v-51h-309v57h218q-184 118 -184 321q0 104 45 184t129 125t198 45q109 0 193 -42.5t131.5 -123t47.5 -188.5q0 -203 -184 -321h218l-13 -57h-296z" />
    <glyph glyph-name="uni03BC" unicode="&#x3bc;" horiz-adv-x="675" 
d="M528 0v102q-41 -58 -100.5 -88t-134.5 -30q-53 0 -88.5 15.5t-56.5 48.5v-242h-63v709h63v-326q0 -75 39.5 -113t115.5 -38q92 0 158 54q32 25 49 56.5t17 65.5v301h63v-515h-62z" />
    <glyph glyph-name="pi" unicode="&#x3c0;" horiz-adv-x="706" 
d="M674 -1q-30 -10 -66 -10q-125 0 -125 132v344h-279v-465h-63v465h-122v50h656v-50h-129v-341q0 -42 18.5 -62t56.5 -20q23 0 45 6z" />
    <glyph glyph-name="uniFEFF" unicode="&#xfeff;" horiz-adv-x="0" 
 />
    </font>
</defs>
</svg>
