<svg id="Layer_1" data-name="Layer 1" xmlns="http://www.w3.org/2000/svg" xmlns:xlink="http://www.w3.org/1999/xlink" viewBox="0 0 1558.81 436.84"><defs><linearGradient id="linear-gradient" x1="238.96" y1="706.04" x2="238.96" y2="693.11" gradientUnits="userSpaceOnUse"><stop offset="0.01" stop-color="#fc00ff"/><stop offset="1" stop-color="#00dbde"/></linearGradient><linearGradient id="linear-gradient-2" x1="272.91" y1="706.04" x2="272.91" y2="693.11" xlink:href="#linear-gradient"/><linearGradient id="linear-gradient-3" x1="308.07" y1="706.04" x2="308.07" y2="693.11" xlink:href="#linear-gradient"/><linearGradient id="linear-gradient-4" x1="343.28" y1="706.04" x2="343.28" y2="693.11" xlink:href="#linear-gradient"/><linearGradient id="linear-gradient-5" x1="372.99" y1="706.04" x2="372.99" y2="693.11" xlink:href="#linear-gradient"/><linearGradient id="linear-gradient-6" x1="408.61" y1="706.04" x2="408.61" y2="693.11" xlink:href="#linear-gradient"/><linearGradient id="linear-gradient-7" x1="451.03" y1="706.04" x2="451.03" y2="693.11" xlink:href="#linear-gradient"/><linearGradient id="linear-gradient-8" x1="514.57" y1="706.04" x2="514.57" y2="693.11" xlink:href="#linear-gradient"/><linearGradient id="linear-gradient-9" x1="552.28" y1="706.04" x2="552.28" y2="693.11" xlink:href="#linear-gradient"/><linearGradient id="linear-gradient-10" x1="589.06" y1="706.04" x2="589.06" y2="693.11" xlink:href="#linear-gradient"/><linearGradient id="linear-gradient-11" x1="613.08" y1="706.04" x2="613.08" y2="693.11" xlink:href="#linear-gradient"/><linearGradient id="linear-gradient-12" x1="669.13" y1="706.04" x2="669.13" y2="693.11" xlink:href="#linear-gradient"/><linearGradient id="linear-gradient-13" x1="698.16" y1="706.04" x2="698.16" y2="693.11" xlink:href="#linear-gradient"/><linearGradient id="linear-gradient-14" x1="739.93" y1="706.04" x2="739.93" y2="693.11" xlink:href="#linear-gradient"/><linearGradient id="linear-gradient-15" x1="772.62" y1="706.04" x2="772.62" y2="693.11" xlink:href="#linear-gradient"/><linearGradient id="linear-gradient-16" x1="500.18" y1="257.21" x2="500.18" y2="509.37" xlink:href="#linear-gradient"/><linearGradient id="linear-gradient-17" x1="437.45" y1="257.97" x2="437.45" y2="545.17" gradientTransform="translate(-15.11 23.32) rotate(-3)" xlink:href="#linear-gradient"/><linearGradient id="linear-gradient-18" x1="482.36" y1="257.98" x2="482.36" y2="545.19" gradientTransform="translate(-13.81 25.64) rotate(-3)" xlink:href="#linear-gradient"/><linearGradient id="linear-gradient-19" x1="244.78" y1="-2.03" x2="244.78" y2="278.5" xlink:href="#linear-gradient"/></defs><path d="M291.63,602.78q0,13.71-7.41,21.94-7.65,8.46-21.18,8.46c-2.22,0-5.58-.08-10.07-.26s-7.87-.26-10.13-.26c-1.24,0-1.86.8-1.86,2.39,0,2.07.12,5.16.38,9.28s.38,7.22.38,9.28q0,1-1.11,1a36.87,36.87,0,0,1-3.71-.26c-1.65-.17-2.89-.26-3.71-.26s-1.73.06-3.09.17-2.37.18-3,.18c-1,0-1.46-.6-1.46-1.81q0-6.36.55-19.2t.56-19.26q0-18.21-1.34-39.1l-.06-.88c0-.85.46-1.28,1.51-1.28q3.15,0,9.49.06t9.54.06q2.75,0,8.23-.24c3.65-.15,6.4-.23,8.23-.23q12.9,0,21.18,8.75Q291.64,589.88,291.63,602.78Zm-14.7.88q0-8.76-4.73-14-4.9-5.49-13.54-5.49-2.69,0-9.57.47c-5.25.31-8,.62-8.11.93q-.42.71-.41,20.08,0,2.45.15,7.35t.14,7.36c0,.35.43.62,1.28.81q3.21.65,17.8.64,8.18,0,12.73-5.07Q276.93,611.89,276.93,603.66Z" transform="translate(-224.04 -260.81)" style="fill:#13103d"/><path d="M375.13,654c0,.31-.31.47-.93.47s-1.87-.06-3.38-.18-2.65-.17-3.39-.17-2,.06-3.65.17-2.83.18-3.64.18a2.22,2.22,0,0,1-2.05-1.46q-1.86-4-10.62-24.57-.87-2.1-4.26-2.57-.75-.06-5.31-.06-8.06,0-9.57.24c-.82.11-1.23,1.11-1.23,3q0,4.1.38,12.23t.38,12.17c0,.81-.39,1.22-1.16,1.22a33.41,33.41,0,0,1-3.53-.26c-1.58-.17-2.78-.26-3.59-.26s-1.68.06-3,.17-2.37.18-3,.18c-1,0-1.46-.45-1.46-1.34q0-6.48.61-19.47t.61-19.46q0-18.43-1.34-39.33l-.06-.94c0-.78.78-1.17,2.45-1.17q5,0,15-.26t15-.26q13,0,20.78,6.18,8.63,6.84,8.63,19.38,0,8.64-2.33,13.6-2.44,5.25-9.1,10c-.74.5-1.11,1-1.11,1.46s2.32,5.72,7,15.52S375.13,653.34,375.13,654Zm-16-52.93q0-10.56-6.07-14.12-4.49-2.64-16.16-2.63-9.45,0-9.63,1.52-.4,3.15-.41,16.86v11.15a2.27,2.27,0,0,0,.76.23c.7.08,1.85.18,3.44.29q5.55.3,12,.3Q359.14,614.63,359.14,601Z" transform="translate(-224.04 -260.81)" style="fill:#13103d"/><path d="M472.12,613.46A43.41,43.41,0,0,1,461,643.28a38.35,38.35,0,0,1-57.43.06q-11.09-12.44-11.09-29.88a43.26,43.26,0,0,1,11.21-29.82q11.55-13,28.6-13t28.65,13A43.25,43.25,0,0,1,472.12,613.46Zm-14.07-.18a30,30,0,0,0-7.12-19.9,23.36,23.36,0,0,0-18.73-9q-11.15,0-18.56,9.1a31.87,31.87,0,0,0,0,39.86q7.41,9.1,18.56,9.1,11.32,0,18.79-9.1A30.47,30.47,0,0,0,458.05,613.28Z" transform="translate(-224.04 -260.81)" style="fill:#13103d"/><path d="M565.48,613.05q0,16.4-9.34,28.36-10.15,13-26,13-3,0-9.13-.24c-4.06-.15-7.11-.23-9.13-.23q-2.75,0-8.26.23t-8.26.24a1.29,1.29,0,0,1-1.46-1.46q0-6.36.5-19.2t.49-19.26q0-6.76-.46-20.37t-.47-20.37c0-.81.51-1.22,1.52-1.22q2.16,0,6.45.06t6.45.06q2,0,6.07-.06t6.18-.06q20.25,0,30.17,7.64a35.57,35.57,0,0,1,11,14.77A45.58,45.58,0,0,1,565.48,613.05Zm-14.3,0q0-12.6-7.18-20.54-7.47-8.24-20-8.23-10.32,0-8.34-.12c-4.55.24-6.83,1.07-6.83,2.51q0,4.5-.2,13.45t-.21,13.46q0,4.42.21,13.3t.2,13.31c0,1.48,2.34,2.33,7,2.57q-.93-.06,8.53-.06a33.14,33.14,0,0,0,10.68-1.4,20.47,20.47,0,0,0,8.81-6.48Q551.18,626,551.18,613.05Z" transform="translate(-224.04 -260.81)" style="fill:#13103d"/><path d="M602.94,653.2c0,.82-.57,1.23-1.7,1.23q-1.05,0-3.21-.18c-1.44-.11-2.51-.17-3.21-.17s-1.83.06-3.26.17-2.51.18-3.21.18c-1,0-1.46-.45-1.46-1.34q0-6.66.61-20.05t.61-20.11q0-6.46-.61-19.46T586.89,574c0-1,.44-1.46,1.34-1.46.74,0,1.87.06,3.38.17s2.67.18,3.45.18,1.75-.06,3.15-.18,2.45-.17,3.15-.17c1,0,1.52.39,1.52,1.17q0,6.53-.47,19.61t-.47,19.6q0,6.72.5,20.14T602.94,653.2Z" transform="translate(-224.04 -260.81)" style="fill:#13103d"/><path d="M698.58,651.57c.07.85-.41,1.28-1.46,1.28a14.34,14.34,0,0,1-4.23-1.66,35.2,35.2,0,0,1-4.29-2.36q-10.74,7.29-25.45,7.29a35.65,35.65,0,0,1-28.24-12.84q-10.51-12.13-10.51-29.59,0-17.85,10.33-30,10.92-12.84,28.42-12.84a37.75,37.75,0,0,1,17.31,4.23,34.65,34.65,0,0,1,13.27,11.58,3.5,3.5,0,0,1,.76,1.69q0,.82-4.17,5.4c-2.78,3.06-4.39,4.58-4.82,4.58s-1.49-1.18-3.56-3.56a37.49,37.49,0,0,0-7.12-6.59,19.63,19.63,0,0,0-11.09-3.56q-11,0-18.09,9.22a33.36,33.36,0,0,0,.18,39.57q7.18,9.27,18,9.28a35.12,35.12,0,0,0,19.61-5.84q-.12-1.58-1-11.09-.71-6.76-.7-11c0-.66.43-1,1.28-1s1.85,0,3.33.15,2.59.14,3.33.14,1.86,0,3.38-.11,2.65-.12,3.39-.12,1.22.62,1.22,1.87-.05,3.41-.15,6.15-.14,4.8-.14,6.16q0,8.4,1.11,22.76Z" transform="translate(-224.04 -260.81)" style="fill:#13103d"/><path d="M775,642.7a11.46,11.46,0,0,1-.47,2.68c-.35,1.48-.57,2.38-.64,2.69q-.18,2.1-.82,6.12a1.38,1.38,0,0,1-1.52,1,17.72,17.72,0,0,1-2.21-.23q-7.18-1.05-22.24-1-4.26,0-12.84.23t-12.84.24c-1.28,0-1.92-.57-1.92-1.69q0-6.54.73-19.64t.72-19.64q0-6.66-.69-24.8-.12-4.68-.65-13.95l-.06-.82c0-.89.47-1.34,1.52-1.34q4.1,0,12.26.23t12.25.24q3.92,0,11.7-.24t11.7-.23c1.83,0,2.83.56,3,1.69a88.87,88.87,0,0,1,1.23,9.57c0,.9-.43,1.34-1.29,1.34q-4.95,0-15-.55c-6.72-.37-11.76-.55-15.15-.55-3.19,0-5.2.42-6,1.28s-1.25,3-1.25,6.36v8.7a24.87,24.87,0,0,0,.17,4.14c.35,1.21,1.36,1.81,3,1.81q.69,0,2-.06h2q11.45,0,20.55-.41,3.55-.12,8.4-.58,1.23-.12,1.23,1.05a56.63,56.63,0,0,1-.44,5.72,56.73,56.73,0,0,0-.44,5.78c0,.7-.58,1-1.75,1-.47,0-2.2-.14-5.19-.41q-3.27-.36-14.71-.35-9.63,0-12.2.23a2.65,2.65,0,0,0-2.68,2.45q.06-.4.06,4.5v8.63q0,6.07,1.86,7.59,1.47,1.23,7.3,1.23l6.42-.06q4.08,0,22.93-1.4l.88-.06C774.63,641.16,775,641.65,775,642.7Z" transform="translate(-224.04 -260.81)" style="fill:#13103d"/><path d="M253.88,685.22q0,7.14-5.43,10.52-3.09,1.9-10.09,1.9H224V673.09h15.8q6.38,0,10,2.86Q253.88,679.08,253.88,685.22Zm-5.9-.09q0-7.67-8.09-7.66H229.75V693h7.38c3.49,0,6-.45,7.61-1.34Q248,689.89,248,685.13Z" transform="translate(-224.04 -260.81)" style="fill:url(#linear-gradient)"/><path d="M275.76,697.64h-5.71V673.09h5.71Z" transform="translate(-224.04 -260.81)" style="fill:url(#linear-gradient-2)"/><path d="M322.63,691.84c0,2.28-.44,3.82-1.31,4.61s-2.47,1.19-4.78,1.19H299.6c-2.32,0-3.91-.39-4.78-1.19s-1.31-2.33-1.31-4.61v-13c0-2.28.44-3.82,1.31-4.61s2.46-1.19,4.78-1.19h16.94c2.44,0,4.07.42,4.87,1.26s1.22,2.47,1.22,4.88l-5.57,1v-2.76H299.22V693h17.84v-5.48h-9.32v-4.18h14.89Z" transform="translate(-224.04 -260.81)" style="fill:url(#linear-gradient-3)"/><path d="M346.13,697.64h-5.71V673.09h5.71Z" transform="translate(-224.04 -260.81)" style="fill:url(#linear-gradient-4)"/><path d="M387.15,677.47H375.82v20.17h-5.71V677.47H358.84v-4.38h28.31Z" transform="translate(-224.04 -260.81)" style="fill:url(#linear-gradient-5)"/><path d="M425.36,697.64h-6.43L416,692.27H400.42l-2.85,5.37h-5.71l13.89-24.55h5.52Zm-11.76-9.8-5.28-10-5.47,10Z" transform="translate(-224.04 -260.81)" style="fill:url(#linear-gradient-6)"/><path d="M463.09,697.64H439V673.09h5.71V693h18.42Z" transform="translate(-224.04 -260.81)" style="fill:url(#linear-gradient-7)"/><path d="M527.84,683.32q0,4.75-5.52,4.76H506.91v9.56h-5.62V673.09h21q5.52,0,5.52,4.76Zm-5.52-1.43v-2.61c0-.83-.23-1.37-.71-1.62a3.72,3.72,0,0,0-1.85-.33H506.91v6.51h12.85a3.72,3.72,0,0,0,1.85-.33C522.09,683.26,522.32,682.72,522.32,681.89Z" transform="translate(-224.04 -260.81)" style="fill:url(#linear-gradient-8)"/><path d="M568.1,673.09l-13.52,24.55h-4l-14.18-24.55H543l9.95,17.75,9.47-17.75Z" transform="translate(-224.04 -260.81)" style="fill:url(#linear-gradient-9)"/><path d="M603.21,677.47H591.89v20.17h-5.71V677.47H574.9v-4.38h28.31Z" transform="translate(-224.04 -260.81)" style="fill:url(#linear-gradient-10)"/><path d="M616.77,695.88a2.38,2.38,0,0,1-.28,1.45c-.19.21-.69.31-1.48.31h-4.47c-.76,0-1.14-.58-1.14-1.76V692a2.38,2.38,0,0,1,.28-1.45c.19-.21.68-.31,1.48-.31h4.47c.76,0,1.14.58,1.14,1.76Z" transform="translate(-224.04 -260.81)" style="fill:url(#linear-gradient-11)"/><path d="M681.2,697.64H657.07V673.09h5.71V693H681.2Z" transform="translate(-224.04 -260.81)" style="fill:url(#linear-gradient-12)"/><path d="M712.31,677.47H701v20.17h-5.71V677.47H684v-4.38h28.31Z" transform="translate(-224.04 -260.81)" style="fill:url(#linear-gradient-13)"/><path d="M754.85,685.22q0,7.14-5.42,10.52-3.1,1.9-10.09,1.9H725V673.09h15.79q6.38,0,10,2.86Q754.85,679.08,754.85,685.22Zm-5.9-.09q0-7.67-8.09-7.66H730.73V693h7.37q5.24,0,7.61-1.34Q749,689.89,749,685.13Z" transform="translate(-224.04 -260.81)" style="fill:url(#linear-gradient-14)"/><path d="M776.31,695.88a2.36,2.36,0,0,1-.29,1.45c-.19.21-.68.31-1.47.31h-4.47c-.77,0-1.15-.58-1.15-1.76V692a2.36,2.36,0,0,1,.29-1.45c.19-.21.68-.31,1.47-.31h4.48c.76,0,1.14.58,1.14,1.76Z" transform="translate(-224.04 -260.81)" style="fill:url(#linear-gradient-15)"/><path d="M620.6,402.12l-52-62.29v112.6l-27.29.16v-9c-.95,1.89-17.61,18.88-37.93,21.27-31.26,3.17-47.93-14.14-47.93-14.14s15.4-15.86,19.36-19.19c3.82,3.33,21.74,11.42,36.35,2.53,30.79-20.47,11.27-50.47,11.27-50.47l19.21-19.67V307.52L522.88,285.1a17,17,0,0,0-10.36-5.89l-.47,8.72-11.75-.62.29-5.58a17.46,17.46,0,0,0-1.67,1.23L476.7,301.51l-.33,6.54-7.05-.37-13.41,11.2,8.87.46-.7,13.41L450.67,332l.49-9.19L381.9,380.69a17,17,0,0,0-2.16,23.95l41.33,49.47V356.17l27.29-.16v9c.95-1.91,17.62-18.89,37.94-21.27,31.26-3.17,47.92,14.13,47.92,14.13s-15.39,15.87-19.36,19.2c-3.82-3.33-21.74-11.42-36.35-2.54C447.73,395.05,467.25,425,467.25,425l-19.2,19.68v41.7l29.43,35.24a17,17,0,0,0,24,2.16l117-97.74A17,17,0,0,0,620.6,402.12Zm-131-69.79-11.66-.61.57-10.8,11.65.61ZM482.85,312l.81-15.47,15.47.81-.81,15.47ZM504,325.44l-6.35-.33.33-6.35,6.36.32Z" transform="translate(-224.04 -260.81)" style="fill:url(#linear-gradient-16)"/><rect x="424.11" y="286.7" width="26.68" height="26.68" transform="translate(-207.73 -283.3) rotate(3)" style="fill:url(#linear-gradient-17)"/><rect x="439.02" y="262.53" width="15.72" height="15.72" transform="matrix(1, 0.05, -0.05, 1, -209.27, -283.84)" style="fill:#11cce0"/><rect x="461.13" y="262.93" width="7" height="7" transform="translate(-209.45 -284.77) rotate(3)" style="fill:#6b7eec"/><rect x="471.99" y="265.99" width="20.74" height="20.74" transform="translate(-208.91 -285.69) rotate(3)" style="fill:url(#linear-gradient-18)"/><polygon points="253.12 31.99 252.66 40.7 245.28 46.88 236.43 46.41 237.23 31.16 253.12 31.99" style="fill:url(#linear-gradient-19)"/><rect x="499.05" y="260.99" width="7.16" height="7.16" transform="translate(-209.5 -286.77) rotate(3)" style="fill:#11cce0"/><rect x="432.64" y="319.99" width="7.16" height="7.16" transform="translate(-206.5 -283.21) rotate(3)" style="fill:#6b7eec"/><polygon points="1275.57 4.65 1268.59 4.29 1268.22 11.05 1275.2 11.41 1275.57 4.65" style="fill:#fe413f"/><polygon points="1267.53 84.27 1278.91 84.84 1279.46 74.63 1268.09 74.06 1267.53 84.27" style="fill:none"/><polygon points="1266.37 55.71 1259.16 61.55 1266.04 61.9 1266.37 55.71" style="fill:none"/><polygon points="1286.85 78.02 1293.05 78.34 1293.38 72.32 1287.17 72.02 1286.85 78.02" style="fill:none"/><polygon points="1288.26 51.79 1273.17 51.02 1272.38 65.64 1287.47 66.41 1288.26 51.79" style="fill:none"/><path d="M1281.18,572.66q-2.68,0-8,.22c-3.57.15-6.24.22-8,.22q-3.13,0-9.31-.06t-9.26,0c-1,0-1.52.4-1.48,1.21l.06.83q1.31,19.74,1.31,37,0,6.07-.54,18.2t-.54,18.15c0,1.14.47,1.71,1.42,1.71.65,0,1.63-.06,3-.17s2.34-.17,3-.17,2,.09,3.62.25,2.82.25,3.62.25,1.08-.31,1.08-.94c0-2-.13-4.87-.37-8.77s-.37-6.82-.37-8.76c0-1.51.6-2.27,1.82-2.27,2.2,0,5.5.09,9.88.25s7.67.25,9.83.25q13.22,0,20.68-8,7.23-7.77,7.23-20.73,0-12.19-7.92-20.3Q1293.77,572.67,1281.18,572.66Zm10.08,41.75q-4.44,4.8-12.42,4.8c-9.49,0-15.29-.21-17.37-.61-.84-.18-1.26-.44-1.26-.77,0-1.55,0-3.86-.14-7s-.14-5.41-.14-7q0-18.31.4-19,.23-.45,7.91-.88c4.49-.3,7.6-.45,9.35-.45q8.43,0,13.21,5.19,4.62,5,4.62,13.23Q1295.42,609.84,1291.26,614.41Z" transform="translate(-224.04 -260.81)" style="fill:#fe413f"/><path d="M1380.2,649.87c1.57-.11,2.76-.17,3.56-.17s1.82.06,3.3.17,2.58.17,3.3.17.92-.15.92-.45q0-.87-6.81-14.78t-6.81-14.67c0-.44.36-.9,1.08-1.37q6.49-4.47,8.89-9.44,2.28-4.68,2.28-12.85,0-11.85-8.43-18.31-7.63-5.83-20.28-5.84-4.85,0-14.61.25c-6.52.16-11.4.24-14.67.24-1.63,0-2.43.37-2.39,1.11l0,.88q1.32,19.74,1.31,37.17,0,6.12-.59,18.39t-.6,18.4c0,.84.47,1.27,1.42,1.27.65,0,1.63-.06,3-.17s2.32-.17,3-.17,2,.09,3.5.25a34.23,34.23,0,0,0,3.45.25,1,1,0,0,0,1.14-1.16c0-2.53-.13-6.37-.38-11.5s-.37-9-.37-11.55c0-1.77.4-2.7,1.2-2.81q1.48-.23,9.34-.22c3,0,4.69,0,5.19,0,2.2.3,3.59,1.1,4.16,2.43q8.54,19.47,10.36,23.22a2.16,2.16,0,0,0,2,1.38C1377.43,650,1378.62,650,1380.2,649.87ZM1360,612.42c-4.18,0-8.08-.09-11.68-.27-1.56-.11-2.68-.21-3.36-.28a2.44,2.44,0,0,1-.74-.22V601.12q0-13,.4-15.94.17-1.44,9.39-1.44,11.4,0,15.78,2.49,5.92,3.36,5.93,13.34Q1375.67,612.42,1360,612.42Z" transform="translate(-224.04 -260.81)" style="fill:#fe413f"/><path d="M1447.09,570.84a36.35,36.35,0,0,0-27.91,12.3,42,42,0,0,0-.12,56.42,38.28,38.28,0,0,0,56.06-.06,42,42,0,0,0-.06-56.36A36.41,36.41,0,0,0,1447.09,570.84Zm18.23,59.29a23.06,23.06,0,0,1-18.34,8.6,22.71,22.71,0,0,1-18.12-8.6,29.39,29.39,0,0,1,0-37.67,22.69,22.69,0,0,1,18.12-8.61,23.1,23.1,0,0,1,18.28,8.5,27.77,27.77,0,0,1,7,18.8A28.29,28.29,0,0,1,1465.32,630.13Z" transform="translate(-224.04 -260.81)" style="fill:#fe413f"/><path d="M1528.28,583.65l.2,0Z" transform="translate(-224.04 -260.81)" style="fill:#fe413f"/><path d="M1568,637.74q9.11-11.31,9.11-26.81a42.05,42.05,0,0,0-3.59-17.09,33.75,33.75,0,0,0-10.77-14q-9.68-7.21-29.45-7.22c-1.36,0-3.38,0-6,.05s-4.64.06-5.93.06-3.5,0-6.29-.06-4.89-.05-6.3-.05c-1,0-1.48.38-1.48,1.16q0,6.39.46,19.24t.45,19.25q0,6.08-.48,18.2t-.49,18.15a1.24,1.24,0,0,0,1.43,1.38q2.67,0,8.06-.23c3.59-.14,6.27-.22,8.06-.22,2,0,5,.08,8.91.22s6.94.23,8.92.23Q1558,650,1568,637.74Zm-12-6.24a19.89,19.89,0,0,1-8.6,6.13A33.27,33.27,0,0,1,1537,639c-6.15,0-8.93,0-8.32.06-4.56-.23-6.84-1-6.84-2.43q0-4.2-.2-12.58c-.13-5.58-.19-9.78-.19-12.57s.06-7.07.19-12.71.2-9.88.2-12.71c0-1.34,2.17-2.13,6.47-2.36l.2,0-.2,0q-1.08.09,8.34.09,12.2,0,19.49,7.78,7,7.5,7,19.41Q1563.11,623.13,1556,631.5Z" transform="translate(-224.04 -260.81)" style="fill:#fe413f"/><path d="M1598,648.77c0,.84.48,1.27,1.43,1.27.68,0,1.73-.06,3.13-.17s2.47-.17,3.19-.17,1.73.06,3.13.17,2.45.17,3.14.17c1.1,0,1.65-.39,1.65-1.16q0-6.35-.48-19t-.49-19q0-6.17.46-18.53t.45-18.53c0-.73-.49-1.1-1.48-1.1-.68,0-1.71.05-3.07.16s-2.4.17-3.08.17-1.88-.06-3.36-.17-2.58-.16-3.31-.16-1.31.46-1.31,1.38q0,6.12.6,18.39t.6,18.39q0,6.34-.6,19T1598,648.77Z" transform="translate(-224.04 -260.81)" style="fill:#fe413f"/><path d="M1697.24,644.74a32.88,32.88,0,0,0,4.19,2.23,14.54,14.54,0,0,0,4.13,1.58c1,0,1.5-.41,1.42-1.22l0-.77q-1.1-13.56-1.09-21.51,0-1.92.15-5.82c.09-2.59.14-4.53.14-5.81s-.4-1.77-1.2-1.77-1.82,0-3.3.11-2.59.11-3.31.11-1.8,0-3.24-.14-2.53-.13-3.25-.13-1.25.31-1.25.93a100.93,100.93,0,0,0,.68,10.43q.85,9,1,10.48a35.14,35.14,0,0,1-19.14,5.51q-10.59,0-17.6-8.77a30.68,30.68,0,0,1-.17-37.39,21.52,21.52,0,0,1,17.65-8.71,19.64,19.64,0,0,1,10.83,3.36,35.89,35.89,0,0,1,7,6.23c2,2.24,3.17,3.37,3.47,3.37s2-1.45,4.7-4.33,4.07-4.59,4.07-5.11a3.17,3.17,0,0,0-.74-1.59,33.26,33.26,0,0,0-13-11,37.69,37.69,0,0,0-16.88-4q-17.1,0-27.75,12.13-10.08,11.47-10.08,28.35,0,16.49,10.25,28,10.83,12.13,27.58,12.13Q1686.75,651.63,1697.24,644.74Z" transform="translate(-224.04 -260.81)" style="fill:#fe413f"/><path d="M1754.36,649.59q14.7,0,21.71,1a21.07,21.07,0,0,0,2.16.22,1.35,1.35,0,0,0,1.48-1q.63-3.79.8-5.79c.08-.29.29-1.14.63-2.53a10.58,10.58,0,0,0,.45-2.54q0-1.49-1.14-1.38l-.85.06q-18.4,1.32-22.39,1.32L1751,639q-5.7,0-7.12-1.16-1.83-1.44-1.83-7.17v-8.16c0-3.09,0-4.51,0-4.25a2.55,2.55,0,0,1,2.62-2.32q2.51-.21,11.9-.22,11.17,0,14.36.33,4.38.39,5.07.39,1.71,0,1.71-1A52,52,0,0,1,1778,610a50.11,50.11,0,0,0,.43-5.41q0-1.1-1.2-1c-3.15.29-5.88.48-8.2.55q-8.88.39-20,.39h-1.94c-.83,0-1.48.05-1.93.05-1.64,0-2.62-.57-3-1.71A23.35,23.35,0,0,1,1742,599v-8.22q0-4.8,1.23-6c.81-.81,2.78-1.22,5.89-1.22,3.31,0,8.23.18,14.79.53s11.44.52,14.66.52a1.12,1.12,0,0,0,1.26-1.27,81.29,81.29,0,0,0-1.2-9c-.15-1.07-1.12-1.6-2.9-1.6-2.55,0-6.35.07-11.42.22s-8.88.22-11.43.22-6.64-.07-12-.22-9.3-.22-12-.22c-1,0-1.52.42-1.48,1.27l0,.77c.35,5.85.55,10.24.63,13.18q.69,17.16.68,23.44t-.71,18.56q-.7,12.38-.71,18.56c0,1.06.63,1.6,1.88,1.6q4.15,0,12.53-.23T1754.36,649.59Z" transform="translate(-224.04 -260.81)" style="fill:#fe413f"/><path d="M1269,670.37q-3.53-2.7-9.76-2.7H1243.8v23.2h14c4.55,0,7.82-.59,9.85-1.8q5.28-3.2,5.29-9.94C1272.92,675.28,1271.6,672.35,1269,670.37Zm-5,14.88q-2.32,1.26-7.44,1.26h-7.2v-14.7h9.91q7.88,0,7.88,7.24C1267.15,682,1266.11,684.12,1264,685.25Z" transform="translate(-224.04 -260.81)" style="fill:#545454"/><rect x="1064.67" y="406.87" width="5.57" height="23.2" style="fill:#545454"/><path d="M1340,673.47c0-2.28-.4-3.81-1.19-4.61s-2.37-1.19-4.76-1.19h-16.53c-2.26,0-3.82.38-4.67,1.13s-1.28,2.2-1.28,4.36v12.23c0,2.16.43,3.61,1.28,4.36s2.41,1.12,4.67,1.12h16.53c2.26,0,3.82-.37,4.67-1.12s1.28-2.2,1.28-4.36v-8h-14.54v4h9.1v5.17h-17.41v-14.7h17.41v2.61Z" transform="translate(-224.04 -260.81)" style="fill:#545454"/><rect x="1133.35" y="406.87" width="5.57" height="23.2" style="fill:#545454"/><polygon points="1151.33 411 1162.33 411 1162.33 430.07 1167.9 430.07 1167.9 411 1178.96 411 1178.96 406.87 1151.33 406.87 1151.33 411" style="fill:#545454"/><path d="M1426.54,667.67h-5.38l-13.56,23.2h5.57l2.78-5.08h15.19l2.88,5.08h6.28Zm-8.21,13.94,5.34-9.44,5.15,9.44Z" transform="translate(-224.04 -260.81)" style="fill:#545454"/><polygon points="1235.11 406.87 1229.54 406.87 1229.54 430.07 1253.08 430.07 1253.08 425.71 1235.11 425.71 1235.11 406.87" style="fill:#545454"/><path d="M1535,667.67h-20.54v23.2h5.49v-9h15c3.59,0,5.39-1.51,5.39-4.5v-5.17Q1540.34,667.67,1535,667.67Zm0,8.33a1.56,1.56,0,0,1-.7,1.52,3.83,3.83,0,0,1-1.81.32H1519.9v-6.16h12.54a3.73,3.73,0,0,1,1.81.31,1.56,1.56,0,0,1,.7,1.53Z" transform="translate(-224.04 -260.81)" style="fill:#545454"/><polygon points="1340.77 423.64 1331.06 406.87 1324.7 406.87 1338.54 430.07 1342.39 430.07 1355.58 406.87 1350.01 406.87 1340.77 423.64" style="fill:#545454"/><polygon points="1362.22 411 1373.23 411 1373.23 430.07 1378.8 430.07 1378.8 411 1389.86 411 1389.86 406.87 1362.22 406.87 1362.22 411" style="fill:#545454"/><path d="M1626,683.9h-4.37a2.2,2.2,0,0,0-1.44.3,2.23,2.23,0,0,0-.27,1.37v3.64c0,1.11.37,1.66,1.11,1.66h4.37c.77,0,1.25-.09,1.44-.29a2.23,2.23,0,0,0,.27-1.37v-3.64C1627.13,684.46,1626.76,683.9,1626,683.9Z" transform="translate(-224.04 -260.81)" style="fill:#545454"/><polygon points="1448 406.87 1442.43 406.87 1442.43 430.07 1465.97 430.07 1465.97 425.71 1448 425.71 1448 406.87" style="fill:#545454"/><polygon points="1468.71 411 1479.72 411 1479.72 430.07 1485.29 430.07 1485.29 411 1496.35 411 1496.35 406.87 1468.71 406.87 1468.71 411" style="fill:#545454"/><path d="M1758,670.37c-2.37-1.8-5.61-2.7-9.76-2.7h-15.42v23.2h14c4.55,0,7.84-.59,9.85-1.8q5.28-3.2,5.29-9.94C1761.91,675.28,1760.59,672.35,1758,670.37Zm-5,14.88q-2.33,1.26-7.42,1.26h-7.2v-14.7h9.89q7.89,0,7.9,7.24C1756.16,682,1755.1,684.12,1753,685.25Z" transform="translate(-224.04 -260.81)" style="fill:#545454"/><path d="M1781.74,683.9h-4.37c-.77,0-1.25.1-1.43.3a2.14,2.14,0,0,0-.28,1.37v3.64c0,1.11.37,1.66,1.11,1.66h4.37c.77,0,1.25-.09,1.44-.29a2.23,2.23,0,0,0,.27-1.37v-3.64C1782.85,684.46,1782.48,683.9,1781.74,683.9Z" transform="translate(-224.04 -260.81)" style="fill:#545454"/><path d="M1628.79,434.25l-114.23,92.36a17,17,0,0,1-23.39-2l-28.72-33.3V451.86l18.75-18.49a34.87,34.87,0,0,0,6.7,6.48c-5.65,5.2-18.25,17.64-18.25,17.64s16.27,16.36,46.77,13.37c19.84-2.26,36.1-18.32,37-20.11v8.54l26.64-.14V352.74l50.78,58.86A15.73,15.73,0,0,1,1628.79,434.25Z" transform="translate(-224.04 -260.81)" style="fill:#545454"/><path d="M1535.49,301a16.65,16.65,0,0,0-10.12-5.56l-.44,8.23-11.48-.59.28-5.27c-.55.35-1.1.74-1.64,1.16l-21.68,17.53-.33,6.2-6.87-.36-13.09,10.58,8.66.43-.69,12.67-13.08-.66.47-8.7-67.6,54.68a15.7,15.7,0,0,0-2.11,22.62l40.34,46.75V368.17l26.63-.15v8.55c.94-1.8,17.2-17.84,37-20.1,30.52-3,46.77,13.36,46.77,13.36s-12.51,12.4-18.16,17.61a34.73,34.73,0,0,1,6.69,6.46l18.69-18.44V322.2ZM1503,345.65l-11.39-.57.56-10.21,11.38.57Zm-6.54-19.21.79-14.61,15.09.76-.79,14.62Zm20.67,12.7-6.2-.31.33-6,6.2.31Z" transform="translate(-224.04 -260.81)" style="fill:#fe413f"/><polygon points="1241.75 42.4 1215.74 41.07 1214.37 66.26 1240.38 67.58 1241.75 42.4" style="fill:#545454"/><polygon points="1245.32 19.28 1230 18.5 1229.2 33.34 1244.52 34.12 1245.32 19.28" style="fill:#fe413f"/><polygon points="1258.18 19.43 1251.36 19.09 1251 25.7 1257.83 26.04 1258.18 19.43" style="fill:#545454"/><polygon points="1282.54 22.68 1262.32 21.65 1261.26 41.23 1281.47 42.25 1282.54 22.68" style="fill:#545454"/><polygon points="1266.82 47.49 1251.31 46.7 1250.53 61.11 1259.16 61.55 1266.37 55.71 1266.82 47.49" style="fill:#fe413f"/><polygon points="1295.36 17.61 1288.38 17.25 1288.01 24.01 1294.99 24.36 1295.36 17.61" style="fill:#545454"/><polygon points="1230.16 80.12 1230.53 73.36 1223.55 73.01 1223.18 79.77 1230.16 80.12" style="fill:#fe413f"/><path d="M1487.63,440a34.61,34.61,0,0,0,20.47,6.64c18.79,0,34-14.75,34-32.93a32.15,32.15,0,0,0-7-20Z" transform="translate(-224.04 -260.81)" style="fill:#545454"/><path d="M1508.1,380.73c-18.78,0-34,14.75-34,32.94a32.1,32.1,0,0,0,7,20l47.47-46.3A34.52,34.52,0,0,0,1508.1,380.73Z" transform="translate(-224.04 -260.81)" style="fill:#fe413f"/></svg>