<?xml version="1.0" encoding="UTF-8"?><svg id="Layer_1" xmlns="http://www.w3.org/2000/svg" xmlns:xlink="http://www.w3.org/1999/xlink" viewBox="223.416 130.091 196.833 214.366">
      <defs>
        <linearGradient id="linear-gradient" x1="400.58" y1="571.98" x2="400.58" y2="562.24" gradientUnits="userSpaceOnUse">
          <stop offset="0" stop-color="#fc00ff"></stop>
          <stop offset="1" stop-color="#00dbde"></stop>
        </linearGradient>
        <linearGradient id="linear-gradient-16" x1="263.29" y1="414.6" x2="263.29" y2="604.5" xlink:href="#linear-gradient"></linearGradient>
        <linearGradient id="linear-gradient-17" x1="216.06" y1="415.17" x2="216.06" y2="631.46"
          gradientTransform="translate(-23.11 11.93) rotate(-3)" xlink:href="#linear-gradient"></linearGradient>
        <linearGradient id="linear-gradient-18" x1="249.87" y1="415.18" x2="249.87" y2="631.47"
          gradientTransform="translate(-22.13 13.68) rotate(-3)" xlink:href="#linear-gradient"></linearGradient>
        <linearGradient id="linear-gradient-19" x1="239.68" y1="415.78" x2="239.68" y2="627.04"
          xlink:href="#linear-gradient"></linearGradient>
      </defs>
      <g transform="matrix(1, 0, 0, 1, -942.780518, -263.009064)">
        <polygon points="1253.44 393.58 1247.82 393.3 1247.53 398.73 1253.14 399.02 1253.44 393.58"
          style="fill:url(#linear-gradient-17);"></polygon>
        <polygon points="1246.97 457.64 1256.13 458.1 1256.57 449.89 1247.42 449.43 1246.97 457.64" style="fill:none;">
        </polygon>
        <polygon points="1246.04 434.67 1240.24 439.36 1245.78 439.65 1246.04 434.67" style="fill:none;"></polygon>
        <polygon points="1262.52 452.61 1267.5 452.87 1267.77 448.03 1262.77 447.78 1262.52 452.61" style="fill:none;">
        </polygon>
        <polygon points="1263.65 431.51 1251.51 430.89 1250.87 442.65 1263.02 443.27 1263.65 431.51" style="fill:none;">
        </polygon>
        <path
          d="M1357.37,529.39l-91.9,74.31c-5.66,4.58-14.08,3.83-18.82-1.65l-23.11-26.79v-31.71l15.09-14.88c1.56,1.96,3.36,3.72,5.4,5.21-4.55,4.18-14.69,14.19-14.69,14.19,0,0,13.09,13.16,37.63,10.75,15.96-1.82,29.04-14.74,29.8-16.17v6.87l21.43-.12v-85.62l40.85,47.36c4.74,5.48,3.98,13.64-1.68,18.22Z"
          style="fill: url(#linear-gradient-16);"></path>
        <path
          d="M1282.3,422.19c-2.15-2.49-5.06-4-8.14-4.47l-.36,6.63-9.24-.48,.23-4.24c-.44,.28-.89,.59-1.32,.93l-17.45,14.11-.26,4.98-5.53-.29-10.53,8.52,6.96,.35-.55,10.2-10.53-.53,.38-7-54.39,43.99c-5.67,4.56-6.43,12.72-1.7,18.2l32.45,37.62v-74.47l21.43-.13v6.88c.75-1.45,13.83-14.35,29.8-16.17,24.56-2.41,37.63,10.75,37.63,10.75,0,0-10.07,9.97-14.61,14.17,2.03,1.49,3.84,3.24,5.38,5.2l15.03-14.84v-42.85l-14.71-17.04Zm-26.17,35.92l-9.17-.46,.45-8.21,9.15,.46-.44,8.21Zm-5.27-15.46l.63-11.76,12.15,.61-.63,11.76-12.15-.61Zm16.63,10.22l-4.99-.25,.26-4.83,4.99,.24-.26,4.84Z"
          style="fill: url(#linear-gradient-16);"></path>
        <polygon points="1226.23 423.95 1205.3 422.89 1204.2 443.15 1225.13 444.21 1226.23 423.95"
          style="fill: url(#linear-gradient-17);"></polygon>
        <polygon points="1229.1 405.36 1216.78 404.73 1216.13 416.66 1228.45 417.29 1229.1 405.36"
          style="fill: url(#linear-gradient-17);"></polygon>
        <polygon points="1239.45 405.48 1233.96 405.2 1233.67 410.52 1239.16 410.79 1239.45 405.48"
          style="fill: #6b7eec;">
        </polygon>
        <polygon points="1259.04 408.09 1242.78 407.26 1241.92 423.01 1258.19 423.84 1259.04 408.09"
          style="fill: url(#linear-gradient-18);"></polygon>
        <polygon points="1246.4 428.05 1233.92 427.41 1233.29 439.01 1240.24 439.36 1246.04 434.67 1246.4 428.05"
          style="fill: url(#linear-gradient-19);"></polygon>
        <polygon points="1269.36 404.01 1263.74 403.72 1263.45 409.16 1269.07 409.44 1269.36 404.01"
          style="fill: #11cce0;">
        </polygon>
        <polygon points="1216.91 454.3 1217.2 448.87 1211.58 448.58 1211.29 454.02 1216.91 454.3"
          style="fill: #6b7eec;">
        </polygon>
        <path
          d="M1243.8,533.98c4.58,3.35,10.29,5.34,16.48,5.34,15.11,0,27.37-11.86,27.37-26.5,0-6.06-2.1-11.64-5.64-16.1l-38.2,37.26Z"
          style="fill: url(#linear-gradient-16);"></path>
        <path
          d="M1260.27,486.33c-15.11,0-27.37,11.86-27.37,26.5,0,6.06,2.1,11.64,5.64,16.1l38.2-37.26c-4.58-3.35-10.29-5.34-16.47-5.34Z"
          style="fill: url(#linear-gradient-16);"></path>
      </g>
    </svg>