<?xml version="1.0" encoding="UTF-8"?><svg id="Layer_1" xmlns="http://www.w3.org/2000/svg" xmlns:xlink="http://www.w3.org/1999/xlink" viewBox="0 0 1827 1000"><defs><linearGradient id="linear-gradient" x1="400.58" y1="571.98" x2="400.58" y2="562.24" gradientUnits="userSpaceOnUse"><stop offset="0" stop-color="#fc00ff"/><stop offset="1" stop-color="#00dbde"/></linearGradient><linearGradient id="linear-gradient-2" x1="426.15" x2="426.15" y2="562.24" xlink:href="#linear-gradient"/><linearGradient id="linear-gradient-3" x1="452.63" y1="571.98" x2="452.63" y2="562.24" xlink:href="#linear-gradient"/><linearGradient id="linear-gradient-4" x1="479.14" y1="571.98" x2="479.14" y2="562.24" xlink:href="#linear-gradient"/><linearGradient id="linear-gradient-5" x1="501.52" y1="571.98" x2="501.52" y2="562.24" xlink:href="#linear-gradient"/><linearGradient id="linear-gradient-6" x1="528.34" y1="571.98" x2="528.34" y2="562.24" xlink:href="#linear-gradient"/><linearGradient id="linear-gradient-7" x1="560.28" y1="571.98" x2="560.28" y2="562.24" xlink:href="#linear-gradient"/><linearGradient id="linear-gradient-8" x1="608.14" y1="571.98" x2="608.14" y2="562.24" xlink:href="#linear-gradient"/><linearGradient id="linear-gradient-9" x1="636.53" y1="571.98" x2="636.53" y2="562.24" xlink:href="#linear-gradient"/><linearGradient id="linear-gradient-10" x1="664.23" y1="571.98" x2="664.23" y2="562.24" xlink:href="#linear-gradient"/><linearGradient id="linear-gradient-11" x1="682.33" y1="571.98" x2="682.33" y2="562.24" xlink:href="#linear-gradient"/><linearGradient id="linear-gradient-12" x1="724.54" y1="571.98" x2="724.54" y2="562.24" xlink:href="#linear-gradient"/><linearGradient id="linear-gradient-13" x1="746.39" y1="571.98" x2="746.39" y2="562.24" xlink:href="#linear-gradient"/><linearGradient id="linear-gradient-14" x1="777.85" y1="571.98" x2="777.85" y2="562.24" xlink:href="#linear-gradient"/><linearGradient id="linear-gradient-15" x1="802.47" y1="571.98" x2="802.47" y2="562.24" xlink:href="#linear-gradient"/><linearGradient id="linear-gradient-16" x1="263.29" y1="414.6" x2="263.29" y2="604.5" xlink:href="#linear-gradient"/><linearGradient id="linear-gradient-17" x1="216.06" y1="415.17" x2="216.06" y2="631.46" gradientTransform="translate(-23.11 11.93) rotate(-3)" xlink:href="#linear-gradient"/><linearGradient id="linear-gradient-18" x1="249.87" y1="415.18" x2="249.87" y2="631.47" gradientTransform="translate(-22.13 13.68) rotate(-3)" xlink:href="#linear-gradient"/><linearGradient id="linear-gradient-19" x1="239.68" y1="415.78" x2="239.68" y2="627.04" xlink:href="#linear-gradient"/></defs><rect width="1000" height="1000" style="fill:#13103d;"/><g><g><path d="M440.25,494.22c0,6.89-1.86,12.39-5.58,16.53-3.84,4.25-9.16,6.37-15.95,6.37-1.67,0-4.2-.07-7.58-.2s-5.93-.2-7.63-.2c-.94,0-1.41,.6-1.41,1.8,0,1.55,.09,3.88,.29,6.99,.19,3.11,.29,5.44,.29,6.99,0,.5-.28,.75-.83,.75-.62,0-1.55-.07-2.79-.2-1.25-.13-2.18-.2-2.79-.2-.53,0-1.3,.04-2.33,.13-1.03,.09-1.79,.13-2.29,.13-.73,0-1.1-.45-1.1-1.36,0-3.19,.14-8.01,.42-14.46,.28-6.45,.42-11.28,.42-14.5,0-9.14-.34-18.96-1.01-29.45l-.04-.66c-.03-.64,.35-.97,1.14-.97,1.58,0,3.96,.02,7.14,.04,3.18,.03,5.57,.04,7.19,.04,1.38,0,3.44-.06,6.2-.18,2.75-.12,4.82-.18,6.2-.18,6.48,0,11.79,2.2,15.95,6.59,4.07,4.31,6.11,9.7,6.11,16.17Zm-11.08,.66c0-4.4-1.19-7.91-3.56-10.55-2.46-2.75-5.86-4.13-10.2-4.13-1.35,0-3.75,.12-7.21,.35-3.96,.23-5.99,.47-6.11,.7-.21,.35-.31,5.39-.31,15.12,0,1.23,.04,3.08,.11,5.54,.07,2.46,.11,4.31,.11,5.54,0,.26,.32,.47,.97,.62,1.61,.32,6.08,.48,13.4,.48,4.1,0,7.3-1.27,9.58-3.82,2.14-2.43,3.21-5.71,3.21-9.84Z" style="fill:#fff;"/><path d="M503.13,532.76c0,.23-.23,.35-.7,.35-.56,0-1.41-.04-2.55-.13-1.14-.09-1.99-.13-2.55-.13-.62,0-1.53,.04-2.75,.13-1.22,.09-2.13,.13-2.75,.13-.67,0-1.19-.37-1.54-1.1-.94-1.99-3.6-8.16-8-18.5-.44-1.05-1.51-1.7-3.21-1.93-.38-.03-1.71-.04-4-.04-4.04,0-6.45,.06-7.21,.18-.62,.09-.92,.83-.92,2.24,0,2.05,.09,5.12,.29,9.21,.19,4.09,.29,7.14,.29,9.16,0,.62-.29,.92-.88,.92s-1.47-.07-2.66-.2c-1.19-.13-2.09-.2-2.7-.2-.5,0-1.26,.04-2.29,.13-1.03,.09-1.79,.13-2.29,.13-.73,0-1.1-.34-1.1-1.01,0-3.25,.15-8.14,.46-14.66,.31-6.52,.46-11.4,.46-14.66,0-9.26-.34-19.13-1.01-29.62l-.04-.7c-.03-.59,.59-.88,1.85-.88,2.52,0,6.29-.07,11.32-.2,5.02-.13,8.78-.2,11.27-.2,6.5,0,11.72,1.55,15.65,4.66,4.34,3.43,6.51,8.29,6.51,14.59,0,4.34-.59,7.75-1.76,10.24-1.23,2.64-3.52,5.14-6.86,7.52-.56,.38-.84,.75-.84,1.1,0,.41,1.75,4.31,5.25,11.69s5.25,11.31,5.25,11.78Zm-12.04-39.86c0-5.3-1.52-8.85-4.57-10.64-2.26-1.32-6.31-1.98-12.17-1.98-4.75,0-7.16,.38-7.25,1.14-.21,1.58-.31,5.82-.31,12.7v8.39c.09,.06,.28,.12,.57,.18,.53,.06,1.39,.13,2.59,.22,2.78,.15,5.79,.22,9.01,.22,8.09,0,12.13-3.41,12.13-10.24Z" style="fill:#fff;"/><path d="M576.17,502.26c0,8.7-2.78,16.19-8.35,22.46-5.8,6.5-13.01,9.76-21.62,9.76s-15.85-3.24-21.62-9.71c-5.57-6.24-8.35-13.74-8.35-22.5s2.81-16.16,8.44-22.46c5.8-6.53,12.98-9.8,21.54-9.8s15.78,3.27,21.58,9.8c5.6,6.27,8.39,13.76,8.39,22.46Zm-10.59-.13c0-5.74-1.79-10.74-5.36-14.99-3.75-4.51-8.45-6.77-14.11-6.77s-10.26,2.29-13.98,6.86c-3.52,4.28-5.27,9.29-5.27,15.03s1.76,10.71,5.27,14.99c3.72,4.57,8.38,6.86,13.98,6.86s10.4-2.29,14.15-6.86c3.54-4.28,5.32-9.32,5.32-15.12Z" style="fill:#fff;"/><path d="M646.48,501.95c0,8.23-2.34,15.35-7.03,21.36-5.1,6.53-11.63,9.8-19.6,9.8-1.52,0-3.82-.06-6.88-.18-3.06-.12-5.35-.18-6.88-.18-1.38,0-3.45,.06-6.22,.18-2.77,.12-4.84,.18-6.22,.18-.73,0-1.1-.37-1.1-1.1,0-3.19,.12-8.01,.37-14.46,.25-6.45,.37-11.28,.37-14.5,0-3.4-.12-8.51-.35-15.34-.23-6.83-.35-11.94-.35-15.34,0-.62,.38-.92,1.14-.92,1.08,0,2.7,.02,4.86,.04,2.15,.03,3.77,.04,4.86,.04,1,0,2.52-.01,4.57-.04,2.05-.03,3.6-.04,4.66-.04,10.17,0,17.74,1.92,22.72,5.76,3.57,2.75,6.34,6.46,8.31,11.12,1.85,4.34,2.77,8.88,2.77,13.62Zm-10.77,0c0-6.33-1.8-11.49-5.41-15.47-3.75-4.13-8.76-6.2-15.03-6.2-5.19,0-7.28-.03-6.28-.09-3.43,.18-5.14,.81-5.14,1.89,0,2.26-.05,5.63-.15,10.13-.1,4.5-.15,7.87-.15,10.13s.05,5.57,.15,10.02c.1,4.45,.15,7.79,.15,10.02,0,1.11,1.76,1.76,5.27,1.93-.47-.03,1.67-.04,6.42-.04,3.37,0,6.05-.35,8.04-1.05,2.46-.88,4.67-2.51,6.64-4.88,3.66-4.45,5.49-9.92,5.49-16.39Z" style="fill:#fff;"/><path d="M674.68,532.19c0,.62-.43,.92-1.28,.92-.53,0-1.33-.04-2.42-.13-1.08-.09-1.89-.13-2.42-.13-.56,0-1.38,.04-2.46,.13-1.08,.09-1.89,.13-2.42,.13-.73,0-1.1-.34-1.1-1.01,0-3.34,.15-8.37,.46-15.1,.31-6.72,.46-11.77,.46-15.14s-.15-8.14-.46-14.66c-.31-6.52-.46-11.4-.46-14.66,0-.73,.34-1.1,1.01-1.1,.56,0,1.41,.04,2.55,.13,1.14,.09,2.01,.13,2.59,.13,.53,0,1.32-.04,2.37-.13,1.05-.09,1.85-.13,2.37-.13,.76,0,1.14,.29,1.14,.88,0,3.28-.12,8.2-.35,14.77-.23,6.56-.35,11.49-.35,14.77s.12,8.42,.37,15.16c.25,6.74,.37,11.79,.37,15.16Z" style="fill:#fff;"/><path d="M746.71,530.96c.06,.64-.31,.97-1.1,.97-.44,0-1.5-.42-3.19-1.25-1.68-.83-2.76-1.43-3.23-1.78-5.39,3.66-11.78,5.49-19.16,5.49-8.61,0-15.71-3.22-21.27-9.67-5.27-6.09-7.91-13.52-7.91-22.28s2.59-16.5,7.78-22.59c5.48-6.45,12.61-9.67,21.4-9.67,4.51,0,8.86,1.06,13.03,3.19,4.18,2.12,7.51,5.03,10,8.72,.38,.56,.57,.98,.57,1.27,0,.41-1.05,1.77-3.14,4.07-2.1,2.3-3.3,3.45-3.63,3.45-.23,0-1.13-.89-2.68-2.68-1.88-2.17-3.66-3.82-5.36-4.97-2.67-1.79-5.45-2.68-8.35-2.68-5.54,0-10.08,2.31-13.62,6.94-3.22,4.22-4.83,9.2-4.83,14.94s1.65,10.55,4.97,14.85c3.6,4.66,8.13,6.99,13.58,6.99s10.28-1.46,14.77-4.39c-.06-.79-.31-3.57-.75-8.35-.35-3.4-.53-6.17-.53-8.31,0-.5,.32-.75,.97-.75,.56,0,1.39,.04,2.51,.11,1.11,.07,1.95,.11,2.51,.11s1.41-.03,2.55-.09c1.14-.06,1.99-.09,2.55-.09,.62,0,.92,.47,.92,1.41,0,1.03-.04,2.57-.11,4.64-.07,2.07-.11,3.61-.11,4.64,0,4.22,.28,9.93,.83,17.14l.04,.62Z" style="fill:#fff;"/><path d="M804.27,524.28c0,.47-.12,1.14-.35,2.02-.26,1.11-.43,1.79-.48,2.02-.09,1.05-.29,2.59-.62,4.61-.15,.53-.53,.79-1.14,.79-.29,0-.85-.06-1.67-.18-3.6-.53-9.18-.79-16.74-.79-2.14,0-5.36,.06-9.67,.18-4.31,.12-7.53,.18-9.67,.18-.97,0-1.45-.42-1.45-1.27,0-3.28,.18-8.21,.55-14.79,.37-6.58,.55-11.51,.55-14.79s-.18-9.57-.53-18.68c-.06-2.34-.22-5.85-.48-10.5l-.04-.62c-.03-.67,.35-1.01,1.14-1.01,2.05,0,5.13,.06,9.23,.18,4.1,.12,7.18,.18,9.23,.18s4.9-.06,8.81-.18c3.91-.12,6.85-.18,8.81-.18,1.38,0,2.12,.43,2.24,1.27,.61,3.87,.92,6.27,.92,7.21,0,.67-.32,1.01-.97,1.01-2.49,0-6.26-.14-11.32-.42-5.05-.28-8.86-.42-11.4-.42-2.4,0-3.92,.32-4.55,.97-.63,.64-.94,2.24-.94,4.79v6.55c0,1.79,.04,2.83,.13,3.12,.26,.91,1.02,1.36,2.29,1.36,.35,0,.85-.01,1.49-.04h1.49c5.74,0,10.9-.1,15.47-.31,1.79-.06,3.9-.21,6.33-.44,.61-.06,.92,.21,.92,.79,0,.94-.11,2.37-.33,4.31s-.33,3.38-.33,4.35c0,.53-.44,.79-1.32,.79-.35,0-1.65-.1-3.91-.31-1.64-.18-5.33-.26-11.07-.26-4.83,0-7.9,.06-9.19,.18-1.17,.09-1.85,.7-2.02,1.85,.03-.2,.04,.92,.04,3.38v6.5c0,3.05,.47,4.95,1.41,5.71,.73,.62,2.56,.92,5.49,.92l4.83-.04c2.05,0,7.81-.35,17.27-1.05l.66-.04c.59-.06,.88,.31,.88,1.1Z" style="fill:#fff;"/></g><g><path d="M411.82,556.31c0,3.58-1.36,6.22-4.09,7.92-1.55,.96-4.09,1.43-7.6,1.43h-10.79v-18.49h11.9c3.2,0,5.71,.72,7.53,2.15,2.03,1.58,3.05,3.91,3.05,6.99Zm-4.44-.07c0-3.85-2.03-5.77-6.09-5.77h-7.63v11.72h5.55c2.63,0,4.54-.33,5.73-1,1.62-.91,2.44-2.56,2.44-4.94Z" style="fill:url(#linear-gradient);"/><path d="M428.3,565.66h-4.3v-18.49h4.3v18.49Z" style="fill:url(#linear-gradient-2);"/><path d="M463.59,561.29c0,1.72-.33,2.88-.99,3.48-.66,.6-1.86,.9-3.6,.9h-12.76c-1.74,0-2.94-.3-3.6-.9-.66-.6-.99-1.76-.99-3.48v-9.75c0-1.72,.33-2.88,.99-3.48,.66-.6,1.86-.9,3.6-.9h12.76c1.84,0,3.06,.32,3.67,.95,.61,.63,.91,1.86,.91,3.67l-4.19,.75v-2.08h-13.44v11.72h13.44v-4.12h-7.02v-3.15h11.21v6.38Z" style="fill:url(#linear-gradient-3);"/><path d="M481.29,565.66h-4.3v-18.49h4.3v18.49Z" style="fill:url(#linear-gradient-4);"/><path d="M512.18,550.46h-8.53v15.19h-4.3v-15.19h-8.49v-3.3h21.32v3.3Z" style="fill:url(#linear-gradient-5);"/><path d="M540.95,565.66h-4.84l-2.22-4.05h-11.72l-2.15,4.05h-4.3l10.46-18.49h4.16l10.61,18.49Zm-8.85-7.38l-3.98-7.52-4.12,7.52h8.1Z" style="fill:url(#linear-gradient-6);"/><path d="M569.37,565.66h-18.17v-18.49h4.3v15.01h13.87v3.48Z" style="fill:url(#linear-gradient-7);"/><path d="M618.13,554.87c0,2.39-1.39,3.58-4.16,3.58h-11.61v7.2h-4.23v-18.49h15.84c2.77,0,4.16,1.19,4.16,3.58v4.12Zm-4.16-1.07v-1.97c0-.62-.18-1.03-.54-1.22-.26-.17-.73-.25-1.4-.25h-9.67v4.91h9.67c.67,0,1.13-.08,1.4-.25,.36-.19,.54-.6,.54-1.22Z" style="fill:url(#linear-gradient-8);"/><path d="M648.45,547.17l-10.18,18.49h-2.97l-10.68-18.49h4.91l7.49,13.37,7.13-13.37h4.3Z" style="fill:url(#linear-gradient-9);"/><path d="M674.89,550.46h-8.53v15.19h-4.3v-15.19h-8.49v-3.3h21.32v3.3Z" style="fill:url(#linear-gradient-10);"/><path d="M685.1,564.33c0,.57-.07,.94-.21,1.09-.14,.16-.51,.23-1.11,.23h-3.37c-.57,0-.86-.44-.86-1.33v-2.9c0-.57,.07-.94,.22-1.09,.14-.16,.51-.23,1.11-.23h3.37c.57,0,.86,.44,.86,1.33v2.9Z" style="fill:url(#linear-gradient-11);"/><path d="M733.62,565.66h-18.17v-18.49h4.3v15.01h13.87v3.48Z" style="fill:url(#linear-gradient-12);"/><path d="M757.05,550.46h-8.53v15.19h-4.3v-15.19h-8.49v-3.3h21.32v3.3Z" style="fill:url(#linear-gradient-13);"/><path d="M789.09,556.31c0,3.58-1.36,6.22-4.09,7.92-1.55,.96-4.09,1.43-7.6,1.43h-10.79v-18.49h11.9c3.2,0,5.71,.72,7.53,2.15,2.03,1.58,3.05,3.91,3.05,6.99Zm-4.44-.07c0-3.85-2.03-5.77-6.09-5.77h-7.63v11.72h5.55c2.63,0,4.54-.33,5.73-1,1.62-.91,2.44-2.56,2.44-4.94Z" style="fill:url(#linear-gradient-14);"/><path d="M805.25,564.33c0,.57-.07,.94-.21,1.09-.14,.16-.51,.23-1.11,.23h-3.37c-.57,0-.86-.44-.86-1.33v-2.9c0-.57,.07-.94,.22-1.09,.14-.16,.51-.23,1.11-.23h3.37c.57,0,.86,.44,.86,1.33v2.9Z" style="fill:url(#linear-gradient-15);"/></g></g><g><path d="M353.98,523.73l-39.18-46.91v84.8l-20.55,.12v-6.81c-.71,1.43-13.26,14.22-28.57,16.02-23.54,2.39-36.09-10.64-36.09-10.64,0,0,11.59-11.95,14.58-14.46,2.87,2.51,16.37,8.6,27.37,1.91,23.18-15.42,8.48-38.01,8.48-38.01l14.47-14.81v-42.44l-14.1-16.88c-2.07-2.47-4.86-3.96-7.81-4.43l-.35,6.57-8.85-.47,.22-4.2c-.43,.27-.85,.58-1.26,.92l-16.73,13.97-.25,4.93-5.31-.28-10.1,8.44,6.68,.35-.53,10.1-10.1-.54,.37-6.92-52.15,43.56c-5.43,4.53-6.16,12.61-1.63,18.04l31.12,37.26v-73.76l20.55-.12v6.81c.71-1.44,13.26-14.22,28.57-16.02,23.54-2.39,36.09,10.64,36.09,10.64,0,0-11.59,11.95-14.58,14.46-2.87-2.51-16.37-8.6-27.37-1.92-23.18,15.42-8.48,38.01-8.48,38.01l-14.46,14.82v31.4l22.16,26.54c4.54,5.43,12.62,6.16,18.05,1.63l88.12-73.6c5.43-4.54,6.15-12.62,1.62-18.05Zm-98.69-52.56l-8.78-.46,.43-8.14,8.77,.46-.42,8.14Zm-5.04-15.3l.61-11.65,11.65,.61-.61,11.65-11.65-.61Zm15.95,10.12l-4.78-.25,.24-4.78,4.79,.24-.25,4.79Z" style="fill:url(#linear-gradient-16);"/><g><rect x="206.01" y="436.8" width="20.1" height="20.1" transform="translate(23.7 -10.7) rotate(3)" style="fill:url(#linear-gradient-17);"/><rect x="217.23" y="418.61" width="11.84" height="11.84" transform="translate(22.54 -11.1) rotate(3)" style="fill:#11cce0;"/><rect x="233.89" y="418.9" width="5.27" height="5.27" transform="translate(22.4 -11.81) rotate(3)" style="fill:#6b7eec;"/><rect x="242.06" y="421.21" width="15.62" height="15.62" transform="translate(22.81 -12.5) rotate(3)" style="fill:url(#linear-gradient-18);"/><polygon points="245.96 441.4 245.61 447.96 240.05 452.61 233.39 452.26 233.99 440.77 245.96 441.4" style="fill:url(#linear-gradient-19);"/><rect x="262.45" y="417.45" width="5.39" height="5.39" transform="translate(22.37 -13.31) rotate(3)" style="fill:#11cce0;"/><rect x="212.43" y="461.88" width="5.39" height="5.39" transform="translate(24.63 -10.63) rotate(3)" style="fill:#6b7eec;"/></g></g><g><path d="M1423.35,453.18c-1.44,0-3.59,.06-6.46,.18-2.87,.12-5.03,.18-6.46,.18-1.68,0-4.18-.01-7.49-.04-3.32-.03-5.8-.04-7.45-.04-.83,0-1.22,.33-1.19,.98l.05,.67c.7,10.59,1.05,20.5,1.05,29.73,0,3.26-.15,8.14-.44,14.64-.29,6.51-.44,11.37-.44,14.6,0,.92,.38,1.38,1.15,1.38,.52,0,1.31-.04,2.38-.13,1.07-.09,1.88-.13,2.43-.13,.64,0,1.61,.07,2.91,.2,1.3,.13,2.27,.2,2.91,.2,.58,0,.87-.25,.87-.75,0-1.57-.1-3.92-.3-7.06-.2-3.14-.3-5.49-.3-7.06,0-1.21,.49-1.82,1.47-1.82,1.77,0,4.42,.07,7.95,.2,3.53,.13,6.16,.2,7.91,.2,7.09,0,12.63-2.14,16.64-6.43,3.88-4.17,5.82-9.73,5.82-16.68,0-6.54-2.12-11.98-6.37-16.33-4.34-4.44-9.88-6.66-16.64-6.66Zm8.11,33.59c-2.38,2.57-5.71,3.86-9.99,3.86-7.64,0-12.3-.16-13.98-.49-.67-.15-1.01-.35-1.01-.62,0-1.24-.04-3.11-.11-5.59-.08-2.48-.11-4.35-.11-5.59,0-9.82,.11-14.91,.32-15.26,.12-.24,2.25-.47,6.37-.71,3.6-.24,6.11-.36,7.52-.36,4.52,0,8.07,1.39,10.63,4.17,2.47,2.66,3.71,6.21,3.71,10.65,0,4.17-1.12,7.48-3.35,9.94Z" style="fill:#fe413f;"/><path d="M1503.02,515.3c1.27-.09,2.22-.13,2.87-.13,.58,0,1.47,.04,2.66,.13,1.19,.09,2.08,.13,2.66,.13,.49,0,.73-.12,.73-.36,0-.47-1.83-4.44-5.48-11.89-3.65-7.45-5.48-11.39-5.48-11.8,0-.36,.29-.72,.87-1.11,3.48-2.4,5.87-4.93,7.15-7.59,1.22-2.51,1.83-5.96,1.83-10.34,0-6.36-2.26-11.27-6.78-14.73-4.09-3.14-9.53-4.7-16.32-4.7-2.6,0-6.52,.07-11.76,.2-5.24,.13-9.17,.2-11.8,.2-1.31,0-1.96,.3-1.93,.89l.05,.71c.7,10.59,1.05,20.56,1.05,29.91,0,3.28-.16,8.22-.48,14.8-.32,6.58-.48,11.51-.48,14.8,0,.68,.38,1.02,1.15,1.02,.52,0,1.31-.04,2.38-.13,1.07-.09,1.86-.13,2.38-.13,.64,0,1.58,.07,2.82,.2,1.24,.13,2.16,.2,2.77,.2s.92-.31,.92-.93c0-2.04-.1-5.12-.3-9.25-.2-4.13-.3-7.23-.3-9.3,0-1.42,.32-2.17,.96-2.26,.8-.12,3.3-.18,7.52-.18,2.38,0,3.77,.02,4.17,.04,1.77,.24,2.89,.89,3.35,1.95,4.58,10.44,7.36,16.67,8.34,18.68,.37,.74,.9,1.11,1.6,1.11,.64,0,1.6-.04,2.86-.13Zm-16.29-30.13c-3.36,0-6.49-.07-9.4-.22-1.25-.09-2.15-.16-2.7-.22-.31-.06-.5-.12-.6-.18v-8.48c0-6.95,.11-11.23,.32-12.82,.09-.77,2.61-1.15,7.56-1.15,6.11,0,10.34,.67,12.7,2,3.18,1.8,4.77,5.38,4.77,10.74,0,6.89-4.22,10.34-12.65,10.34Z" style="fill:#fe413f;"/><path d="M1556.85,451.71c-8.92,0-16.41,3.3-22.46,9.9-5.87,6.36-8.8,13.92-8.8,22.67s2.9,16.42,8.71,22.72c6.02,6.54,13.54,9.81,22.55,9.81s16.5-3.28,22.55-9.85c5.81-6.33,8.71-13.89,8.71-22.67s-2.92-16.34-8.75-22.67c-6.05-6.6-13.55-9.9-22.5-9.9Zm14.67,47.7c-3.91,4.61-8.83,6.92-14.76,6.92s-10.7-2.31-14.58-6.92c-3.67-4.32-5.5-9.36-5.5-15.13s1.83-10.86,5.5-15.18c3.88-4.61,8.74-6.92,14.58-6.92s10.8,2.28,14.71,6.83c3.73,4.29,5.59,9.33,5.59,15.13s-1.85,10.95-5.55,15.26Z" style="fill:#fe413f;"/><path d="M1622.17,462.02c.06,0,.1,0,.16-.01-.07,0-.12,0-.16,.01Z" style="fill:#fe413f;"/><path d="M1654.09,505.54c4.89-6.06,7.33-13.25,7.33-21.57,0-4.79-.96-9.38-2.89-13.76-2.05-4.7-4.93-8.45-8.66-11.23-5.19-3.88-13.09-5.81-23.7-5.81-1.1,0-2.72,.02-4.86,.04-2.14,.03-3.73,.04-4.77,.04-1.13,0-2.82-.01-5.06-.04-2.25-.03-3.93-.04-5.06-.04-.8,0-1.19,.31-1.19,.93,0,3.43,.12,8.59,.37,15.49,.24,6.89,.37,12.05,.37,15.49,0,3.25-.13,8.14-.39,14.64-.26,6.51-.39,11.38-.39,14.6,0,.74,.38,1.11,1.15,1.11,1.44,0,3.6-.06,6.48-.18,2.89-.12,5.05-.18,6.49-.18,1.59,0,3.98,.06,7.17,.18,3.19,.12,5.58,.18,7.17,.18,8.31,0,15.13-3.3,20.44-9.9Zm-9.63-5.01c-2.05,2.4-4.35,4.04-6.92,4.93-2.08,.71-4.87,1.06-8.39,1.06-4.95,0-7.18,.02-6.69,.04-3.67-.18-5.5-.83-5.5-1.95,0-2.25-.05-5.62-.16-10.12-.11-4.5-.16-7.87-.16-10.12s.05-5.69,.16-10.23c.11-4.54,.16-7.95,.16-10.23,0-1.08,1.74-1.71,5.2-1.9,.04,0,.09,0,.16-.01-.06,0-.1,0-.16,.01-.58,.05,1.66,.08,6.71,.08,6.54,0,11.76,2.09,15.68,6.26,3.76,4.02,5.64,9.23,5.64,15.62s-1.91,12.06-5.73,16.55Z" style="fill:#fe413f;"/><path d="M1678.24,514.41c0,.68,.38,1.02,1.15,1.02,.55,0,1.39-.04,2.52-.13,1.13-.09,1.99-.13,2.57-.13,.55,0,1.39,.04,2.52,.13,1.13,.09,1.97,.13,2.52,.13,.89,0,1.33-.31,1.33-.93,0-3.4-.13-8.5-.39-15.31-.26-6.8-.39-11.91-.39-15.31s.12-8.28,.37-14.91c.24-6.63,.37-11.6,.37-14.91,0-.59-.4-.89-1.19-.89-.55,0-1.37,.04-2.47,.13-1.1,.09-1.92,.13-2.48,.13-.61,0-1.51-.04-2.7-.13-1.19-.09-2.08-.13-2.66-.13-.7,0-1.05,.37-1.05,1.11,0,3.28,.16,8.22,.48,14.8,.32,6.58,.48,11.51,.48,14.8s-.16,8.5-.48,15.29c-.32,6.79-.48,11.87-.48,15.24Z" style="fill:#fe413f;"/><path d="M1758.11,511.17c.49,.35,1.61,.95,3.37,1.8,1.76,.84,2.86,1.26,3.32,1.26,.82,0,1.21-.32,1.15-.98l-.05-.62c-.58-7.28-.87-13.05-.87-17.31,0-1.04,.04-2.6,.11-4.68,.08-2.09,.11-3.65,.11-4.68,0-.95-.32-1.42-.96-1.42-.58,0-1.47,.03-2.66,.09-1.19,.06-2.08,.09-2.66,.09s-1.45-.04-2.61-.11c-1.16-.07-2.03-.11-2.61-.11-.67,0-1.01,.25-1.01,.75,0,2.16,.18,4.96,.55,8.39,.46,4.82,.72,7.63,.78,8.43-4.68,2.96-9.81,4.44-15.4,4.44s-10.4-2.35-14.16-7.06c-3.45-4.35-5.18-9.35-5.18-15s1.68-10.83,5.04-15.09c3.7-4.67,8.43-7.01,14.21-7.01,3.03,0,5.93,.9,8.71,2.71,1.77,1.15,3.64,2.83,5.59,5.01,1.62,1.8,2.55,2.71,2.8,2.71,.34,0,1.6-1.16,3.78-3.48,2.18-2.32,3.28-3.69,3.28-4.1,0-.3-.2-.72-.6-1.29-2.6-3.73-6.07-6.66-10.43-8.81-4.35-2.14-8.88-3.22-13.59-3.22-9.17,0-16.61,3.25-22.32,9.76-5.41,6.15-8.11,13.76-8.11,22.81s2.75,16.34,8.25,22.5c5.81,6.51,13.2,9.76,22.18,9.76,7.7,0,14.36-1.85,19.98-5.55Z" style="fill:#fe413f;"/><path d="M1804.07,515.08c7.88,0,13.7,.27,17.46,.8,.86,.12,1.44,.18,1.74,.18,.64,0,1.04-.27,1.19-.8,.34-2.04,.55-3.59,.64-4.66,.06-.24,.23-.92,.5-2.04,.24-.89,.37-1.57,.37-2.04,0-.8-.31-1.17-.92-1.11l-.69,.04c-9.87,.71-15.87,1.06-18.01,1.06l-5.04,.04c-3.06,0-4.97-.31-5.73-.93-.98-.77-1.47-2.69-1.47-5.77v-6.57c0-2.49-.02-3.62-.05-3.42,.18-1.15,.89-1.77,2.11-1.86,1.34-.12,4.54-.18,9.58-.18,5.99,0,9.84,.09,11.55,.27,2.35,.21,3.71,.31,4.08,.31,.92,0,1.38-.27,1.38-.8,0-.98,.11-2.44,.34-4.39,.23-1.95,.34-3.4,.34-4.35,0-.59-.32-.86-.96-.8-2.54,.24-4.74,.38-6.6,.44-4.77,.21-10.15,.31-16.13,.31h-1.56c-.67,.03-1.19,.04-1.56,.04-1.31,0-2.11-.46-2.38-1.38-.09-.3-.14-1.35-.14-3.15v-6.61c0-2.57,.33-4.19,.99-4.84,.66-.65,2.24-.98,4.74-.98,2.66,0,6.62,.14,11.89,.42,5.27,.28,9.2,.42,11.8,.42,.67,0,1.01-.34,1.01-1.02,0-.95-.32-3.37-.96-7.28-.12-.86-.9-1.29-2.34-1.29-2.05,0-5.11,.06-9.19,.18-4.08,.12-7.14,.18-9.19,.18s-5.35-.06-9.63-.18c-4.28-.12-7.49-.18-9.63-.18-.82,0-1.22,.34-1.19,1.02l.05,.62c.28,4.7,.44,8.24,.51,10.61,.37,9.2,.55,15.49,.55,18.86s-.19,8.29-.57,14.93c-.38,6.64-.57,11.62-.57,14.93,0,.86,.5,1.29,1.51,1.29,2.23,0,5.59-.06,10.08-.18,4.49-.12,7.85-.18,10.08-.18Z" style="fill:#fe413f;"/><path d="M1413.53,531.79c-1.89-1.45-4.51-2.17-7.85-2.17h-12.4v18.66h11.25c3.66,0,6.29-.48,7.92-1.45,2.84-1.71,4.26-4.38,4.26-7.99,0-3.1-1.07-5.46-3.18-7.06Zm-4,11.98c-1.24,.67-3.24,1.01-5.98,1.01h-5.79v-11.83h7.97c4.22,0,6.34,1.95,6.34,5.83,0,2.41-.84,4.08-2.54,4.99Z" style="fill:#545454;"/><rect x="1429.41" y="529.62" width="4.48" height="18.67" style="fill:#545454;"/><path d="M1470.7,534.29c0-1.83-.32-3.07-.95-3.71-.64-.64-1.91-.96-3.83-.96h-13.3c-1.82,0-3.07,.3-3.76,.9-.68,.6-1.03,1.77-1.03,3.51v9.84c0,1.74,.34,2.91,1.03,3.51,.68,.6,1.94,.9,3.76,.9h13.3c1.82,0,3.07-.3,3.76-.9,.69-.6,1.03-1.77,1.03-3.51v-6.44h-11.7v3.18h7.32v4.16h-14.01v-11.83h14.01v2.1l4.37-.76Z" style="fill:#545454;"/><rect x="1484.68" y="529.62" width="4.48" height="18.67" style="fill:#545454;"/><polygon points="1499.14 532.95 1508 532.95 1508 548.29 1512.48 548.29 1512.48 532.95 1521.37 532.95 1521.37 529.62 1499.14 529.62 1499.14 532.95" style="fill:#545454;"/><path d="M1540.31,529.62h-4.33l-10.91,18.66h4.49l2.24-4.09h12.22l2.32,4.09h5.05l-11.07-18.66Zm-6.61,11.21l4.3-7.6,4.14,7.6h-8.44Z" style="fill:#545454;"/><polygon points="1566.55 529.62 1562.07 529.62 1562.07 548.29 1581.01 548.29 1581.01 544.78 1566.55 544.78 1566.55 529.62" style="fill:#545454;"/><path d="M1627.54,529.62h-16.53v18.66h4.42v-7.26h12.11c2.88,0,4.33-1.22,4.33-3.63v-4.16c0-2.41-1.45-3.61-4.33-3.61Zm0,6.7c0,.63-.19,1.03-.56,1.23-.28,.16-.77,.25-1.46,.25h-10.09v-4.96h10.09c.69,0,1.18,.08,1.46,.25,.37,.19,.56,.6,.56,1.23v1.99Z" style="fill:#545454;"/><polygon points="1651.56 543.12 1643.75 529.62 1638.63 529.62 1649.77 548.29 1652.87 548.29 1663.48 529.62 1659 529.62 1651.56 543.12" style="fill:#545454;"/><polygon points="1668.82 532.95 1677.68 532.95 1677.68 548.29 1682.16 548.29 1682.16 532.95 1691.06 532.95 1691.06 529.62 1668.82 529.62 1668.82 532.95" style="fill:#545454;"/><path d="M1700.81,542.68h-3.51c-.62,0-1.01,.08-1.16,.24-.15,.16-.22,.52-.22,1.1v2.93c0,.89,.3,1.34,.9,1.34h3.51c.62,0,1.01-.08,1.16-.24,.15-.16,.22-.52,.22-1.1v-2.93c0-.89-.3-1.34-.9-1.34Z" style="fill:#545454;"/><polygon points="1737.84 529.62 1733.36 529.62 1733.36 548.29 1752.3 548.29 1752.3 544.78 1737.84 544.78 1737.84 529.62" style="fill:#545454;"/><polygon points="1754.51 532.95 1763.36 532.95 1763.36 548.29 1767.85 548.29 1767.85 532.95 1776.74 532.95 1776.74 529.62 1754.51 529.62 1754.51 532.95" style="fill:#545454;"/><path d="M1806.97,531.79c-1.9-1.45-4.51-2.17-7.85-2.17h-12.41v18.66h11.25c3.66,0,6.31-.48,7.92-1.45,2.84-1.71,4.26-4.38,4.26-7.99,0-3.1-1.07-5.46-3.17-7.06Zm-4.01,11.98c-1.24,.67-3.23,1.01-5.97,1.01h-5.79v-11.83h7.96c4.24,0,6.35,1.95,6.35,5.83,0,2.41-.85,4.08-2.55,4.99Z" style="fill:#545454;"/><path d="M1826.1,542.68h-3.51c-.62,0-1.01,.08-1.16,.24-.15,.16-.22,.52-.22,1.1v2.93c0,.89,.3,1.34,.9,1.34h3.51c.62,0,1.01-.08,1.16-.24,.15-.16,.22-.52,.22-1.1v-2.93c0-.89-.3-1.34-.9-1.34Z" style="fill:#545454;"/></g><g><polygon points="1253.44 393.58 1247.82 393.3 1247.53 398.73 1253.14 399.02 1253.44 393.58" style="fill:#fe413f;"/><polygon points="1246.97 457.64 1256.13 458.1 1256.57 449.89 1247.42 449.43 1246.97 457.64" style="fill:none;"/><polygon points="1246.04 434.67 1240.24 439.36 1245.78 439.65 1246.04 434.67" style="fill:none;"/><polygon points="1262.52 452.61 1267.5 452.87 1267.77 448.03 1262.77 447.78 1262.52 452.61" style="fill:none;"/><polygon points="1263.65 431.51 1251.51 430.89 1250.87 442.65 1263.02 443.27 1263.65 431.51" style="fill:none;"/><path d="M1357.37,529.39l-91.9,74.31c-5.66,4.58-14.08,3.83-18.82-1.65l-23.11-26.79v-31.71l15.09-14.88c1.56,1.96,3.36,3.72,5.4,5.21-4.55,4.18-14.69,14.19-14.69,14.19,0,0,13.09,13.16,37.63,10.75,15.96-1.82,29.04-14.74,29.8-16.17v6.87l21.43-.12v-85.62l40.85,47.36c4.74,5.48,3.98,13.64-1.68,18.22Z" style="fill:#545454;"/><path d="M1282.3,422.19c-2.15-2.49-5.06-4-8.14-4.47l-.36,6.63-9.24-.48,.23-4.24c-.44,.28-.89,.59-1.32,.93l-17.45,14.11-.26,4.98-5.53-.29-10.53,8.52,6.96,.35-.55,10.2-10.53-.53,.38-7-54.39,43.99c-5.67,4.56-6.43,12.72-1.7,18.2l32.45,37.62v-74.47l21.43-.13v6.88c.75-1.45,13.83-14.35,29.8-16.17,24.56-2.41,37.63,10.75,37.63,10.75,0,0-10.07,9.97-14.61,14.17,2.03,1.49,3.84,3.24,5.38,5.2l15.03-14.84v-42.85l-14.71-17.04Zm-26.17,35.92l-9.17-.46,.45-8.21,9.15,.46-.44,8.21Zm-5.27-15.46l.63-11.76,12.15,.61-.63,11.76-12.15-.61Zm16.63,10.22l-4.99-.25,.26-4.83,4.99,.24-.26,4.84Z" style="fill:#fe413f;"/><polygon points="1226.23 423.95 1205.3 422.89 1204.2 443.15 1225.13 444.21 1226.23 423.95" style="fill:#545454;"/><polygon points="1229.1 405.36 1216.78 404.73 1216.13 416.66 1228.45 417.29 1229.1 405.36" style="fill:#fe413f;"/><polygon points="1239.45 405.48 1233.96 405.2 1233.67 410.52 1239.16 410.79 1239.45 405.48" style="fill:#545454;"/><polygon points="1259.04 408.09 1242.78 407.26 1241.92 423.01 1258.19 423.84 1259.04 408.09" style="fill:#545454;"/><polygon points="1246.4 428.05 1233.92 427.41 1233.29 439.01 1240.24 439.36 1246.04 434.67 1246.4 428.05" style="fill:#fe413f;"/><polygon points="1269.36 404.01 1263.74 403.72 1263.45 409.16 1269.07 409.44 1269.36 404.01" style="fill:#545454;"/><polygon points="1216.91 454.3 1217.2 448.87 1211.58 448.58 1211.29 454.02 1216.91 454.3" style="fill:#fe413f;"/><path d="M1243.8,533.98c4.58,3.35,10.29,5.34,16.48,5.34,15.11,0,27.37-11.86,27.37-26.5,0-6.06-2.1-11.64-5.64-16.1l-38.2,37.26Z" style="fill:#545454;"/><path d="M1260.27,486.33c-15.11,0-27.37,11.86-27.37,26.5,0,6.06,2.1,11.64,5.64,16.1l38.2-37.26c-4.58-3.35-10.29-5.34-16.47-5.34Z" style="fill:#fe413f;"/></g></svg>