<svg id="Layer_1" data-name="Layer 1" xmlns="http://www.w3.org/2000/svg" xmlns:xlink="http://www.w3.org/1999/xlink" viewBox="0 0 1754.7 646.01"><defs><linearGradient id="linear-gradient" x1="351.87" y1="259.45" x2="351.87" y2="246.53" gradientUnits="userSpaceOnUse"><stop offset="0.01" stop-color="#fc00ff"/><stop offset="1" stop-color="#00dbde"/></linearGradient><linearGradient id="linear-gradient-2" x1="385.82" y1="259.45" x2="385.82" y2="246.53" xlink:href="#linear-gradient"/><linearGradient id="linear-gradient-3" x1="420.98" y1="259.45" x2="420.98" y2="246.53" xlink:href="#linear-gradient"/><linearGradient id="linear-gradient-4" x1="456.19" y1="259.45" x2="456.19" y2="246.53" xlink:href="#linear-gradient"/><linearGradient id="linear-gradient-5" x1="485.9" y1="259.45" x2="485.9" y2="246.53" xlink:href="#linear-gradient"/><linearGradient id="linear-gradient-6" x1="521.52" y1="259.45" x2="521.52" y2="246.53" xlink:href="#linear-gradient"/><linearGradient id="linear-gradient-7" x1="563.93" y1="259.45" x2="563.93" y2="246.53" xlink:href="#linear-gradient"/><linearGradient id="linear-gradient-8" x1="627.48" y1="259.45" x2="627.48" y2="246.53" xlink:href="#linear-gradient"/><linearGradient id="linear-gradient-9" x1="665.18" y1="259.45" x2="665.18" y2="246.53" xlink:href="#linear-gradient"/><linearGradient id="linear-gradient-10" x1="701.96" y1="259.45" x2="701.96" y2="246.53" xlink:href="#linear-gradient"/><linearGradient id="linear-gradient-11" x1="725.99" y1="259.45" x2="725.99" y2="246.53" xlink:href="#linear-gradient"/><linearGradient id="linear-gradient-12" x1="782.04" y1="259.45" x2="782.04" y2="246.53" xlink:href="#linear-gradient"/><linearGradient id="linear-gradient-13" x1="811.07" y1="259.45" x2="811.07" y2="246.53" xlink:href="#linear-gradient"/><linearGradient id="linear-gradient-14" x1="852.84" y1="259.45" x2="852.84" y2="246.53" xlink:href="#linear-gradient"/><linearGradient id="linear-gradient-15" x1="885.53" y1="259.45" x2="885.53" y2="246.53" xlink:href="#linear-gradient"/><linearGradient id="linear-gradient-16" x1="152.54" y1="41.26" x2="152.54" y2="293.43" xlink:href="#linear-gradient"/><linearGradient id="linear-gradient-17" x1="89.82" y1="42.03" x2="89.82" y2="329.23" gradientTransform="translate(-4.28 4.82) rotate(-3)" xlink:href="#linear-gradient"/><linearGradient id="linear-gradient-18" x1="134.72" y1="42.04" x2="134.72" y2="329.24" gradientTransform="translate(-2.98 7.14) rotate(-3)" xlink:href="#linear-gradient"/><linearGradient id="linear-gradient-19" x1="93.03" y1="-2.03" x2="93.03" y2="278.5" xlink:href="#linear-gradient"/></defs><path d="M404.54,156.2q0,13.71-7.41,21.94-7.65,8.46-21.18,8.46-3.33,0-10.07-.26c-4.5-.18-7.87-.26-10.13-.26-1.24,0-1.86.79-1.86,2.39,0,2.06.12,5.16.37,9.28s.38,7.22.38,9.28c0,.66-.37,1-1.1,1s-2.06-.09-3.71-.26-2.89-.27-3.71-.27-1.73.06-3.09.18-2.37.17-3,.17c-1,0-1.46-.6-1.46-1.8q0-6.36.55-19.2t.56-19.26q0-18.21-1.35-39.1l-.05-.88c0-.86.46-1.28,1.51-1.28q3.15,0,9.49.05t9.54.06c1.83,0,4.57-.07,8.23-.23s6.4-.23,8.23-.23q12.88,0,21.18,8.75Q404.54,143.3,404.54,156.2Zm-14.7.87q0-8.74-4.73-14-4.91-5.49-13.54-5.49-2.69,0-9.57.47-7.89.47-8.11.93-.42.71-.41,20.08,0,2.44.14,7.35t.15,7.35c0,.35.43.63,1.28.82q3.21.64,17.8.64,8.17,0,12.73-5.08C388.41,166.92,389.84,162.56,389.84,157.07Z" transform="translate(-28.15 -44.86)" style="fill:#13103d"/><path d="M488,207.38c0,.31-.31.46-.93.46s-1.87-.05-3.39-.17-2.64-.18-3.38-.18-2,.06-3.65.18-2.83.17-3.65.17a2.21,2.21,0,0,1-2-1.45q-1.86-4-10.62-24.57-.87-2.1-4.26-2.57-.76-.06-5.31-.06-8.06,0-9.57.23c-.82.12-1.23,1.11-1.23,3q0,4.08.38,12.23t.38,12.16q0,1.23-1.17,1.23c-.77,0-2-.09-3.53-.26a34.2,34.2,0,0,0-3.59-.27q-1,0-3,.18c-1.36.12-2.37.17-3,.17-1,0-1.45-.44-1.45-1.34q0-6.48.61-19.46t.61-19.46q0-18.45-1.34-39.34l-.06-.93c0-.78.78-1.17,2.45-1.17q5,0,15-.26t15-.26q13,0,20.78,6.18,8.63,6.82,8.63,19.38,0,8.64-2.33,13.6-2.46,5.25-9.11,10c-.74.5-1.11,1-1.11,1.45s2.33,5.72,7,15.53S488,206.76,488,207.38Zm-16-52.93q0-10.57-6.07-14.13-4.49-2.62-16.16-2.62c-6.3,0-9.52.5-9.63,1.51q-.4,3.15-.41,16.87v11.15a2.89,2.89,0,0,0,.76.23c.7.08,1.85.17,3.44.29,3.7.2,7.68.29,12,.29Q472,168,472.05,154.45Z" transform="translate(-28.15 -44.86)" style="fill:#13103d"/><path d="M585,166.88a43.42,43.42,0,0,1-11.09,29.82,38.37,38.37,0,0,1-57.43.06q-11.08-12.44-11.09-29.88a43.3,43.3,0,0,1,11.21-29.83q11.55-13,28.6-13t28.65,13A43.3,43.3,0,0,1,585,166.88ZM571,166.7a29.93,29.93,0,0,0-7.12-19.9,23.37,23.37,0,0,0-18.73-9q-11.15,0-18.56,9.11a31.87,31.87,0,0,0,0,39.86q7.41,9.1,18.56,9.1,11.32,0,18.79-9.1A30.49,30.49,0,0,0,571,166.7Z" transform="translate(-28.15 -44.86)" style="fill:#13103d"/><path d="M678.39,166.47q0,16.4-9.34,28.36-10.15,13-26,13c-2,0-5.07-.07-9.13-.23s-7.11-.23-9.13-.23q-2.75,0-8.26.23c-3.68.16-6.43.23-8.26.23a1.29,1.29,0,0,1-1.46-1.45q0-6.36.5-19.2t.49-19.26q0-6.78-.46-20.37t-.47-20.37c0-.82.5-1.22,1.52-1.22q2.16,0,6.45,0c2.86,0,5,.06,6.44.06s3.35,0,6.07-.06,4.79,0,6.19,0q20.25,0,30.17,7.64a35.66,35.66,0,0,1,11,14.77A45.72,45.72,0,0,1,678.39,166.47Zm-14.3,0q0-12.61-7.18-20.54-7.47-8.24-20-8.23-10.32,0-8.34-.12-6.83.34-6.83,2.51,0,4.5-.2,13.45T621.37,167q0,4.44.21,13.31t.2,13.31c0,1.47,2.33,2.33,7,2.56q-.93-.06,8.52-.06a32.78,32.78,0,0,0,10.68-1.4,20.33,20.33,0,0,0,8.82-6.47Q664.09,179.36,664.09,166.47Z" transform="translate(-28.15 -44.86)" style="fill:#13103d"/><path d="M715.84,206.62c0,.82-.56,1.22-1.69,1.22-.7,0-1.77-.05-3.21-.17s-2.51-.18-3.21-.18-1.83.06-3.27.18-2.51.17-3.21.17c-1,0-1.45-.44-1.45-1.34q0-6.65.61-20t.61-20.11q0-6.48-.61-19.46t-.61-19.47c0-1,.44-1.45,1.34-1.45.74,0,1.87,0,3.38.17s2.67.18,3.45.18,1.75-.06,3.15-.18,2.45-.17,3.15-.17c1,0,1.52.39,1.52,1.16q0,6.54-.47,19.61t-.47,19.61q0,6.72.5,20.14T715.84,206.62Z" transform="translate(-28.15 -44.86)" style="fill:#13103d"/><path d="M811.49,205c.07.85-.41,1.28-1.46,1.28a14.78,14.78,0,0,1-4.24-1.66,33.79,33.79,0,0,1-4.28-2.37q-10.74,7.31-25.45,7.3a35.69,35.69,0,0,1-28.25-12.84q-10.5-12.13-10.5-29.59,0-17.87,10.33-30,10.9-12.84,28.42-12.84a37.68,37.68,0,0,1,17.3,4.23,34.71,34.71,0,0,1,13.28,11.59,3.46,3.46,0,0,1,.76,1.69q0,.83-4.17,5.4c-2.79,3-4.39,4.58-4.82,4.58s-1.5-1.19-3.56-3.56a36.84,36.84,0,0,0-7.12-6.59,19.56,19.56,0,0,0-11.09-3.56q-11,0-18.09,9.22a33.32,33.32,0,0,0,.18,39.57q7.17,9.27,18,9.27a35.11,35.11,0,0,0,19.61-5.83q-.12-1.58-1-11.09-.71-6.76-.7-11c0-.66.42-1,1.28-1s1.85.05,3.33.14,2.58.15,3.32.15,1.87,0,3.39-.12,2.64-.11,3.38-.11,1.23.62,1.23,1.86-.05,3.42-.15,6.16-.14,4.8-.14,6.16q0,8.4,1.11,22.76Z" transform="translate(-28.15 -44.86)" style="fill:#13103d"/><path d="M887.92,196.11a11.32,11.32,0,0,1-.46,2.69c-.35,1.48-.57,2.37-.64,2.68-.12,1.4-.39,3.45-.82,6.13a1.4,1.4,0,0,1-1.52,1,20.33,20.33,0,0,1-2.22-.23q-7.17-1.05-22.23-1.05-4.26,0-12.84.23t-12.84.23c-1.28,0-1.93-.56-1.93-1.69q0-6.53.73-19.64t.73-19.63q0-6.66-.7-24.81-.12-4.66-.64-13.94l-.06-.82c0-.9.47-1.34,1.52-1.34q4.08,0,12.26.23t12.25.23c2.61,0,6.51-.07,11.7-.23s9.1-.23,11.7-.23c1.83,0,2.82.56,3,1.69a88.25,88.25,0,0,1,1.23,9.57c0,.89-.43,1.34-1.29,1.34-3.31,0-8.31-.18-15-.55s-11.76-.56-15.14-.56q-4.78,0-6,1.29t-1.26,6.36v8.69a24.38,24.38,0,0,0,.18,4.15c.35,1.2,1.36,1.81,3,1.81.47,0,1.13,0,2-.06h2q11.44,0,20.55-.41,3.55-.12,8.4-.58c.82-.08,1.22.27,1.22,1a56.12,56.12,0,0,1-.43,5.72,56.58,56.58,0,0,0-.44,5.77c0,.7-.58,1.05-1.75,1.05-.47,0-2.2-.13-5.2-.4-2.17-.24-7.08-.35-14.7-.35q-9.63,0-12.2.23a2.64,2.64,0,0,0-2.68,2.45c0-.27.05,1.22.05,4.49v8.64c0,4,.63,6.58,1.87,7.59,1,.81,3.41,1.22,7.3,1.22l6.42-.06q4.08,0,22.93-1.4l.88-.05C887.54,194.58,887.92,195.06,887.92,196.11Z" transform="translate(-28.15 -44.86)" style="fill:#13103d"/><path d="M366.78,238.64q0,7.14-5.42,10.52c-2.06,1.26-5.42,1.9-10.09,1.9H337V226.51h15.8q6.38,0,10,2.85Q366.79,232.51,366.78,238.64Zm-5.9-.09q0-7.67-8.09-7.67H342.66v15.56H350q5.22,0,7.61-1.33C359.81,243.91,360.88,241.72,360.88,238.55Z" transform="translate(-28.15 -44.86)" style="fill:url(#linear-gradient)"/><path d="M388.67,251.06H383V226.51h5.71Z" transform="translate(-28.15 -44.86)" style="fill:url(#linear-gradient-2)"/><path d="M435.54,245.25c0,2.29-.44,3.83-1.31,4.62s-2.47,1.19-4.78,1.19H412.51c-2.32,0-3.91-.4-4.78-1.19s-1.31-2.33-1.31-4.62V232.31c0-2.28.43-3.82,1.31-4.61s2.46-1.19,4.78-1.19h16.94q3.66,0,4.87,1.26c.81.84,1.22,2.46,1.22,4.88l-5.57,1v-2.76H412.13v15.56H430V241h-9.33v-4.19h14.9Z" transform="translate(-28.15 -44.86)" style="fill:url(#linear-gradient-3)"/><path d="M459,251.06h-5.71V226.51H459Z" transform="translate(-28.15 -44.86)" style="fill:url(#linear-gradient-4)"/><path d="M500.06,230.88H488.73v20.18H483V230.88H471.75v-4.37h28.31Z" transform="translate(-28.15 -44.86)" style="fill:url(#linear-gradient-5)"/><path d="M538.26,251.06h-6.42l-3-5.38H513.33l-2.85,5.38h-5.71l13.89-24.55h5.52Zm-11.75-9.8-5.28-10-5.47,10Z" transform="translate(-28.15 -44.86)" style="fill:url(#linear-gradient-6)"/><path d="M576,251.06H551.87V226.51h5.71v19.93H576Z" transform="translate(-28.15 -44.86)" style="fill:url(#linear-gradient-7)"/><path d="M640.75,236.74q0,4.75-5.52,4.76H619.82v9.56H614.2V226.51h21c3.68,0,5.52,1.58,5.52,4.76Zm-5.52-1.43v-2.62a1.67,1.67,0,0,0-.71-1.62,3.74,3.74,0,0,0-1.86-.33H619.82v6.52h12.84a3.74,3.74,0,0,0,1.86-.33A1.66,1.66,0,0,0,635.23,235.31Z" transform="translate(-28.15 -44.86)" style="fill:url(#linear-gradient-8)"/><path d="M681,226.51l-13.52,24.55h-4l-14.18-24.55h6.52l10,17.74,9.47-17.74Z" transform="translate(-28.15 -44.86)" style="fill:url(#linear-gradient-9)"/><path d="M716.12,230.88H704.8v20.18h-5.71V230.88H687.81v-4.37h28.31Z" transform="translate(-28.15 -44.86)" style="fill:url(#linear-gradient-10)"/><path d="M729.68,249.3a2.4,2.4,0,0,1-.28,1.45c-.19.21-.69.31-1.48.31h-4.47c-.76,0-1.14-.59-1.14-1.76v-3.86a2.4,2.4,0,0,1,.28-1.45,2.26,2.26,0,0,1,1.48-.31h4.47c.76,0,1.14.59,1.14,1.76Z" transform="translate(-28.15 -44.86)" style="fill:url(#linear-gradient-11)"/><path d="M794.1,251.06H770V226.51h5.71v19.93H794.1Z" transform="translate(-28.15 -44.86)" style="fill:url(#linear-gradient-12)"/><path d="M825.22,230.88H813.9v20.18h-5.71V230.88H796.91v-4.37h28.31Z" transform="translate(-28.15 -44.86)" style="fill:url(#linear-gradient-13)"/><path d="M867.76,238.64q0,7.14-5.43,10.52c-2.06,1.26-5.42,1.9-10.08,1.9H837.93V226.51h15.79q6.38,0,10,2.85Q867.76,232.51,867.76,238.64Zm-5.9-.09q0-7.67-8.09-7.67H843.64v15.56H851q5.24,0,7.61-1.33Q861.86,243.31,861.86,238.55Z" transform="translate(-28.15 -44.86)" style="fill:url(#linear-gradient-14)"/><path d="M889.22,249.3a2.38,2.38,0,0,1-.29,1.45c-.19.21-.68.31-1.47.31H883c-.76,0-1.14-.59-1.14-1.76v-3.86a2.38,2.38,0,0,1,.29-1.45,2.25,2.25,0,0,1,1.47-.31h4.48c.76,0,1.14.59,1.14,1.76Z" transform="translate(-28.15 -44.86)" style="fill:url(#linear-gradient-15)"/><path d="M273,186.18l-52-62.3V236.49l-27.29.16V227.6c-1,1.9-17.62,18.89-37.94,21.27-31.26,3.17-47.92-14.13-47.92-14.13s15.39-15.87,19.36-19.2c3.81,3.33,21.74,11.43,36.35,2.53,30.78-20.47,11.26-50.47,11.26-50.47L194,147.93V91.57L175.25,69.16a16.94,16.94,0,0,0-10.37-5.89L164.42,72l-11.75-.62.28-5.58A15.79,15.79,0,0,0,151.28,67L129.07,85.56l-.34,6.55-7-.37-13.41,11.2,8.87.46-.7,13.41L103,116.1l.49-9.19L34.26,164.75a17,17,0,0,0-2.15,23.95l41.32,49.47V140.22l27.3-.16v9c.94-1.9,17.61-18.88,37.93-21.26,31.26-3.17,47.92,14.13,47.92,14.13s-15.39,15.87-19.35,19.2c-3.82-3.33-21.75-11.43-36.35-2.55-30.79,20.49-11.27,50.47-11.27,50.47l-19.2,19.69v41.7l29.43,35.24a17,17,0,0,0,24,2.15l117-97.73A17,17,0,0,0,273,186.18ZM141.92,116.39l-11.67-.62.58-10.8,11.65.61Zm-6.7-20.32L136,80.6l15.47.81-.82,15.47ZM156.4,109.5l-6.35-.34.32-6.35,6.36.33Z" transform="translate(-28.15 -44.86)" style="fill:url(#linear-gradient-16)"/><rect x="76.47" y="70.75" width="26.68" height="26.68" transform="translate(-23.63 -49.45) rotate(3)" style="fill:url(#linear-gradient-17)"/><rect x="91.38" y="46.59" width="15.72" height="15.72" transform="matrix(1, 0.05, -0.05, 1, -25.16, -49.98)" style="fill:#11cce0"/><rect x="113.5" y="46.98" width="7" height="7" transform="translate(-25.35 -50.92) rotate(3)" style="fill:#6b7eec"/><rect x="124.35" y="50.05" width="20.74" height="20.74" transform="translate(-24.8 -51.83) rotate(3)" style="fill:url(#linear-gradient-18)"/><polygon points="101.38 31.99 100.91 40.7 93.53 46.88 84.69 46.41 85.48 31.16 101.38 31.99" style="fill:url(#linear-gradient-19)"/><rect x="151.42" y="45.04" width="7.16" height="7.16" transform="translate(-25.39 -52.91) rotate(3)" style="fill:#11cce0"/><rect x="85" y="104.04" width="7.16" height="7.16" transform="translate(-22.39 -49.35) rotate(3)" style="fill:#6b7eec"/><polygon points="1471.46 220.59 1464.48 220.24 1464.11 227 1471.09 227.35 1471.46 220.59" style="fill:#fe413f"/><polygon points="1463.42 300.21 1474.8 300.79 1475.35 290.58 1463.98 290 1463.42 300.21" style="fill:none"/><polygon points="1462.26 271.66 1455.05 277.49 1461.93 277.85 1462.26 271.66" style="fill:none"/><polygon points="1482.74 293.96 1488.94 294.28 1489.27 288.27 1483.06 287.96 1482.74 293.96" style="fill:none"/><polygon points="1484.15 267.73 1469.06 266.97 1468.27 281.58 1483.36 282.35 1484.15 267.73" style="fill:none"/><path d="M1281.18,572.66q-2.68,0-8,.22c-3.57.15-6.24.22-8,.22q-3.13,0-9.31-.06t-9.26,0c-1,0-1.52.4-1.48,1.21l.06.83q1.31,19.74,1.31,37,0,6.07-.54,18.2t-.54,18.15c0,1.14.47,1.71,1.42,1.71.65,0,1.63-.06,3-.17s2.34-.17,3-.17,2,.09,3.62.25,2.82.25,3.62.25,1.08-.31,1.08-.94c0-2-.13-4.87-.37-8.77s-.37-6.82-.37-8.76c0-1.51.6-2.27,1.82-2.27,2.2,0,5.5.09,9.88.25s7.67.25,9.83.25q13.22,0,20.68-8,7.23-7.77,7.23-20.73,0-12.19-7.92-20.3Q1293.77,572.67,1281.18,572.66Zm10.08,41.75q-4.44,4.8-12.42,4.8c-9.49,0-15.29-.21-17.37-.61-.84-.18-1.26-.44-1.26-.77,0-1.55,0-3.86-.14-7s-.14-5.41-.14-7q0-18.31.4-19,.23-.45,7.91-.88c4.49-.3,7.6-.45,9.35-.45q8.43,0,13.21,5.19,4.62,5,4.62,13.23Q1295.42,609.84,1291.26,614.41Z" transform="translate(-28.15 -44.86)" style="fill:#fe413f"/><path d="M1380.2,649.87c1.57-.11,2.76-.17,3.56-.17s1.82.06,3.3.17,2.58.17,3.3.17.92-.15.92-.45q0-.87-6.81-14.78t-6.81-14.67c0-.44.36-.9,1.08-1.37q6.49-4.47,8.89-9.44,2.28-4.68,2.28-12.85,0-11.85-8.43-18.31-7.63-5.83-20.28-5.84-4.85,0-14.61.25c-6.52.16-11.4.24-14.67.24-1.63,0-2.43.37-2.39,1.11l0,.88q1.32,19.74,1.31,37.17,0,6.12-.59,18.39t-.6,18.4c0,.84.47,1.27,1.42,1.27.65,0,1.63-.06,3-.17s2.32-.17,3-.17,2,.09,3.5.25a34.23,34.23,0,0,0,3.45.25,1,1,0,0,0,1.14-1.16c0-2.53-.13-6.37-.38-11.5s-.37-9-.37-11.55c0-1.77.4-2.7,1.2-2.81q1.48-.23,9.34-.22c3,0,4.69,0,5.19,0,2.2.3,3.59,1.1,4.16,2.43q8.54,19.47,10.36,23.22a2.16,2.16,0,0,0,2,1.38C1377.43,650,1378.62,650,1380.2,649.87ZM1360,612.42c-4.18,0-8.08-.09-11.68-.27-1.56-.11-2.68-.21-3.36-.28a2.44,2.44,0,0,1-.74-.22V601.12q0-13,.4-15.94.17-1.44,9.39-1.44,11.4,0,15.78,2.49,5.92,3.36,5.93,13.34Q1375.67,612.42,1360,612.42Z" transform="translate(-28.15 -44.86)" style="fill:#fe413f"/><path d="M1447.09,570.84a36.35,36.35,0,0,0-27.91,12.3,42,42,0,0,0-.12,56.42,38.28,38.28,0,0,0,56.06-.06,42,42,0,0,0-.06-56.36A36.41,36.41,0,0,0,1447.09,570.84Zm18.23,59.29a23.06,23.06,0,0,1-18.34,8.6,22.71,22.71,0,0,1-18.12-8.6,29.39,29.39,0,0,1,0-37.67,22.69,22.69,0,0,1,18.12-8.61,23.1,23.1,0,0,1,18.28,8.5,27.77,27.77,0,0,1,7,18.8A28.29,28.29,0,0,1,1465.32,630.13Z" transform="translate(-28.15 -44.86)" style="fill:#fe413f"/><path d="M1528.28,583.65l.2,0Z" transform="translate(-28.15 -44.86)" style="fill:#fe413f"/><path d="M1568,637.74q9.11-11.31,9.11-26.81a42.05,42.05,0,0,0-3.59-17.09,33.75,33.75,0,0,0-10.77-14q-9.68-7.21-29.45-7.22c-1.36,0-3.38,0-6,.05s-4.64.06-5.93.06-3.5,0-6.29-.06-4.89-.05-6.3-.05c-1,0-1.48.38-1.48,1.16q0,6.39.46,19.24t.45,19.25q0,6.08-.48,18.2t-.49,18.15a1.24,1.24,0,0,0,1.43,1.38q2.67,0,8.06-.23c3.59-.14,6.27-.22,8.06-.22,2,0,5,.08,8.91.22s6.94.23,8.92.23Q1558,650,1568,637.74Zm-12-6.24a19.89,19.89,0,0,1-8.6,6.13A33.27,33.27,0,0,1,1537,639c-6.15,0-8.93,0-8.32.06-4.56-.23-6.84-1-6.84-2.43q0-4.2-.2-12.58c-.13-5.58-.19-9.78-.19-12.57s.06-7.07.19-12.71.2-9.88.2-12.71c0-1.34,2.17-2.13,6.47-2.36l.2,0-.2,0q-1.08.09,8.34.09,12.2,0,19.49,7.78,7,7.5,7,19.41Q1563.11,623.13,1556,631.5Z" transform="translate(-28.15 -44.86)" style="fill:#fe413f"/><path d="M1598,648.77c0,.84.48,1.27,1.43,1.27.68,0,1.73-.06,3.13-.17s2.47-.17,3.19-.17,1.73.06,3.13.17,2.45.17,3.14.17c1.1,0,1.65-.39,1.65-1.16q0-6.35-.48-19t-.49-19q0-6.17.46-18.53t.45-18.53c0-.73-.49-1.1-1.48-1.1-.68,0-1.71.05-3.07.16s-2.4.17-3.08.17-1.88-.06-3.36-.17-2.58-.16-3.31-.16-1.31.46-1.31,1.38q0,6.12.6,18.39t.6,18.39q0,6.34-.6,19T1598,648.77Z" transform="translate(-28.15 -44.86)" style="fill:#fe413f"/><path d="M1697.24,644.74a32.88,32.88,0,0,0,4.19,2.23,14.54,14.54,0,0,0,4.13,1.58c1,0,1.5-.41,1.42-1.22l0-.77q-1.1-13.56-1.09-21.51,0-1.92.15-5.82c.09-2.59.14-4.53.14-5.81s-.4-1.77-1.2-1.77-1.82,0-3.3.11-2.59.11-3.31.11-1.8,0-3.24-.14-2.53-.13-3.25-.13-1.25.31-1.25.93a100.93,100.93,0,0,0,.68,10.43q.85,9,1,10.48a35.14,35.14,0,0,1-19.14,5.51q-10.59,0-17.6-8.77a30.68,30.68,0,0,1-.17-37.39,21.52,21.52,0,0,1,17.65-8.71,19.64,19.64,0,0,1,10.83,3.36,35.89,35.89,0,0,1,7,6.23c2,2.24,3.17,3.37,3.47,3.37s2-1.45,4.7-4.33,4.07-4.59,4.07-5.11a3.17,3.17,0,0,0-.74-1.59,33.26,33.26,0,0,0-13-11,37.69,37.69,0,0,0-16.88-4q-17.1,0-27.75,12.13-10.08,11.47-10.08,28.35,0,16.49,10.25,28,10.83,12.13,27.58,12.13Q1686.75,651.63,1697.24,644.74Z" transform="translate(-28.15 -44.86)" style="fill:#fe413f"/><path d="M1754.36,649.59q14.7,0,21.71,1a21.07,21.07,0,0,0,2.16.22,1.35,1.35,0,0,0,1.48-1q.63-3.79.8-5.79c.08-.29.29-1.14.63-2.53a10.58,10.58,0,0,0,.45-2.54q0-1.49-1.14-1.38l-.85.06q-18.4,1.32-22.39,1.32L1751,639q-5.7,0-7.12-1.16-1.83-1.44-1.83-7.17v-8.16c0-3.09,0-4.51,0-4.25a2.55,2.55,0,0,1,2.62-2.32q2.51-.21,11.9-.22,11.17,0,14.36.33,4.38.39,5.07.39,1.71,0,1.71-1A52,52,0,0,1,1778,610a50.11,50.11,0,0,0,.43-5.41q0-1.1-1.2-1c-3.15.29-5.88.48-8.2.55q-8.88.39-20,.39h-1.94c-.83,0-1.48.05-1.93.05-1.64,0-2.62-.57-3-1.71A23.35,23.35,0,0,1,1742,599v-8.22q0-4.8,1.23-6c.81-.81,2.78-1.22,5.89-1.22,3.31,0,8.23.18,14.79.53s11.44.52,14.66.52a1.12,1.12,0,0,0,1.26-1.27,81.29,81.29,0,0,0-1.2-9c-.15-1.07-1.12-1.6-2.9-1.6-2.55,0-6.35.07-11.42.22s-8.88.22-11.43.22-6.64-.07-12-.22-9.3-.22-12-.22c-1,0-1.52.42-1.48,1.27l0,.77c.35,5.85.55,10.24.63,13.18q.69,17.16.68,23.44t-.71,18.56q-.7,12.38-.71,18.56c0,1.06.63,1.6,1.88,1.6q4.15,0,12.53-.23T1754.36,649.59Z" transform="translate(-28.15 -44.86)" style="fill:#fe413f"/><path d="M1269,670.37q-3.53-2.7-9.76-2.7H1243.8v23.2h14c4.55,0,7.82-.59,9.85-1.8q5.28-3.2,5.29-9.94C1272.92,675.28,1271.6,672.35,1269,670.37Zm-5,14.88q-2.32,1.26-7.44,1.26h-7.2v-14.7h9.91q7.88,0,7.88,7.24C1267.15,682,1266.11,684.12,1264,685.25Z" transform="translate(-28.15 -44.86)" style="fill:#545454"/><rect x="1260.56" y="622.81" width="5.57" height="23.2" style="fill:#545454"/><path d="M1340,673.47c0-2.28-.4-3.81-1.19-4.61s-2.37-1.19-4.76-1.19h-16.53c-2.26,0-3.82.38-4.67,1.13s-1.28,2.2-1.28,4.36v12.23c0,2.16.43,3.61,1.28,4.36s2.41,1.12,4.67,1.12h16.53c2.26,0,3.82-.37,4.67-1.12s1.28-2.2,1.28-4.36v-8h-14.54v4h9.1v5.17h-17.41v-14.7h17.41v2.61Z" transform="translate(-28.15 -44.86)" style="fill:#545454"/><rect x="1329.24" y="622.81" width="5.57" height="23.2" style="fill:#545454"/><polygon points="1347.22 626.95 1358.22 626.95 1358.22 646.01 1363.8 646.01 1363.8 626.95 1374.85 626.95 1374.85 622.81 1347.22 622.81 1347.22 626.95" style="fill:#545454"/><path d="M1426.54,667.67h-5.38l-13.56,23.2h5.57l2.78-5.08h15.19l2.88,5.08h6.28Zm-8.21,13.94,5.34-9.44,5.15,9.44Z" transform="translate(-28.15 -44.86)" style="fill:#545454"/><polygon points="1431 622.81 1425.43 622.81 1425.43 646.01 1448.97 646.01 1448.97 641.65 1431 641.65 1431 622.81" style="fill:#545454"/><path d="M1535,667.67h-20.54v23.2h5.49v-9h15c3.59,0,5.39-1.51,5.39-4.5v-5.17Q1540.34,667.67,1535,667.67Zm0,8.33a1.56,1.56,0,0,1-.7,1.52,3.83,3.83,0,0,1-1.81.32H1519.9v-6.16h12.54a3.73,3.73,0,0,1,1.81.31,1.56,1.56,0,0,1,.7,1.53Z" transform="translate(-28.15 -44.86)" style="fill:#545454"/><polygon points="1536.65 639.58 1526.95 622.81 1520.59 622.81 1534.43 646.01 1538.28 646.01 1551.47 622.81 1545.9 622.81 1536.65 639.58" style="fill:#545454"/><polygon points="1558.11 626.95 1569.12 626.95 1569.12 646.01 1574.69 646.01 1574.69 626.95 1585.74 626.95 1585.74 622.81 1558.11 622.81 1558.11 626.95" style="fill:#545454"/><path d="M1626,683.9h-4.37a2.2,2.2,0,0,0-1.44.3,2.23,2.23,0,0,0-.27,1.37v3.64c0,1.11.37,1.66,1.11,1.66h4.37c.77,0,1.25-.09,1.44-.29a2.23,2.23,0,0,0,.27-1.37v-3.64C1627.13,684.46,1626.76,683.9,1626,683.9Z" transform="translate(-28.15 -44.86)" style="fill:#545454"/><polygon points="1643.89 622.81 1638.32 622.81 1638.32 646.01 1661.87 646.01 1661.87 641.65 1643.89 641.65 1643.89 622.81" style="fill:#545454"/><polygon points="1664.6 626.95 1675.61 626.95 1675.61 646.01 1681.18 646.01 1681.18 626.95 1692.24 626.95 1692.24 622.81 1664.6 622.81 1664.6 626.95" style="fill:#545454"/><path d="M1758,670.37c-2.37-1.8-5.61-2.7-9.76-2.7h-15.42v23.2h14c4.55,0,7.84-.59,9.85-1.8q5.28-3.2,5.29-9.94C1761.91,675.28,1760.59,672.35,1758,670.37Zm-5,14.88q-2.33,1.26-7.42,1.26h-7.2v-14.7h9.89q7.89,0,7.9,7.24C1756.16,682,1755.1,684.12,1753,685.25Z" transform="translate(-28.15 -44.86)" style="fill:#545454"/><path d="M1781.74,683.9h-4.37c-.77,0-1.25.1-1.43.3a2.14,2.14,0,0,0-.28,1.37v3.64c0,1.11.37,1.66,1.11,1.66h4.37c.77,0,1.25-.09,1.44-.29a2.23,2.23,0,0,0,.27-1.37v-3.64C1782.85,684.46,1782.48,683.9,1781.74,683.9Z" transform="translate(-28.15 -44.86)" style="fill:#545454"/><path d="M1628.79,434.25l-114.23,92.36a17,17,0,0,1-23.39-2l-28.72-33.3V451.86l18.75-18.49a34.87,34.87,0,0,0,6.7,6.48c-5.65,5.2-18.25,17.64-18.25,17.64s16.27,16.36,46.77,13.37c19.84-2.26,36.1-18.32,37-20.11v8.54l26.64-.14V352.74l50.78,58.86A15.73,15.73,0,0,1,1628.79,434.25Z" transform="translate(-28.15 -44.86)" style="fill:#545454"/><path d="M1535.49,301a16.65,16.65,0,0,0-10.12-5.56l-.44,8.23-11.48-.59.28-5.27c-.55.35-1.1.74-1.64,1.16l-21.68,17.53-.33,6.2-6.87-.36-13.09,10.58,8.66.43-.69,12.67-13.08-.66.47-8.7-67.6,54.68a15.7,15.7,0,0,0-2.11,22.62l40.34,46.75V368.17l26.63-.15v8.55c.94-1.8,17.2-17.84,37-20.1,30.52-3,46.77,13.36,46.77,13.36s-12.51,12.4-18.16,17.61a34.73,34.73,0,0,1,6.69,6.46l18.69-18.44V322.2ZM1503,345.65l-11.39-.57.56-10.21,11.38.57Zm-6.54-19.21.79-14.61,15.09.76-.79,14.62Zm20.67,12.7-6.2-.31.33-6,6.2.31Z" transform="translate(-28.15 -44.86)" style="fill:#fe413f"/><polygon points="1437.64 258.34 1411.63 257.02 1410.26 282.2 1436.27 283.52 1437.64 258.34" style="fill:#545454"/><polygon points="1441.21 235.23 1425.89 234.45 1425.09 249.28 1440.41 250.06 1441.21 235.23" style="fill:#fe413f"/><polygon points="1454.07 235.38 1447.25 235.03 1446.89 241.64 1453.72 241.99 1454.07 235.38" style="fill:#545454"/><polygon points="1478.42 238.62 1458.21 237.6 1457.15 257.17 1477.36 258.2 1478.42 238.62" style="fill:#545454"/><polygon points="1462.71 263.43 1447.2 262.64 1446.42 277.06 1455.05 277.49 1462.26 271.66 1462.71 263.43" style="fill:#fe413f"/><polygon points="1491.25 233.55 1484.27 233.2 1483.9 239.96 1490.88 240.31 1491.25 233.55" style="fill:#545454"/><polygon points="1426.05 296.06 1426.42 289.31 1419.44 288.95 1419.07 295.71 1426.05 296.06" style="fill:#fe413f"/><path d="M1487.63,440a34.61,34.61,0,0,0,20.47,6.64c18.79,0,34-14.75,34-32.93a32.15,32.15,0,0,0-7-20Z" transform="translate(-28.15 -44.86)" style="fill:#545454"/><path d="M1508.1,380.73c-18.78,0-34,14.75-34,32.94a32.1,32.1,0,0,0,7,20l47.47-46.3A34.52,34.52,0,0,0,1508.1,380.73Z" transform="translate(-28.15 -44.86)" style="fill:#fe413f"/></svg>