<svg width="163" height="245" viewBox="0 0 163 245" fill="none" xmlns="http://www.w3.org/2000/svg">
<path d="M65.1996 0V10.82L9.47964 35.65L0.889648 74.41L7.66965 81.68L6.44965 109.54L0.889648 185.25" stroke="white" stroke-width="1.3" stroke-miterlimit="10"/>
<path d="M20.9902 54.4297V85.9197L38.5502 125.29L33.0403 196.62" stroke="white" stroke-width="1.3" stroke-miterlimit="10"/>
<path d="M17.3604 185.25L33.0404 112.94" stroke="white" stroke-width="1.3" stroke-miterlimit="10"/>
<path d="M69.3096 18.3496L72.0496 37.8596" stroke="white" stroke-width="1.3" stroke-miterlimit="10"/>
<path d="M36.0498 40.3301L70.6798 43.6301" stroke="white" stroke-width="1.3" stroke-miterlimit="10"/>
<path d="M97.25 0V10.82L152.97 35.65L161.57 74.41L154.79 81.68L156 109.54L161.57 185.25" stroke="white" stroke-width="1.3" stroke-miterlimit="10"/>
<path d="M141.46 54.4297V85.9197L123.9 125.29L129.41 196.62" stroke="white" stroke-width="1.3" stroke-miterlimit="10"/>
<path d="M145.1 185.25L129.41 112.94" stroke="white" stroke-width="1.3" stroke-miterlimit="10"/>
<path d="M93.1504 18.3496L90.4004 37.8596" stroke="white" stroke-width="1.3" stroke-miterlimit="10"/>
<path d="M126.4 40.3301L91.7695 43.6301" stroke="white" stroke-width="1.3" stroke-miterlimit="10"/>
<path d="M76.8896 47.6504C76.8896 49.6804 79.0096 51.3204 81.6296 51.3204C84.2496 51.3204 86.3696 49.6804 86.3696 47.6504" stroke="white" stroke-width="1.3" stroke-miterlimit="10"/>
<path d="M23.3496 91.21L65.1996 98.1" stroke="white" stroke-width="1.3" stroke-miterlimit="10"/>
<path d="M139.2 91.21L97.3496 98.1" stroke="white" stroke-width="1.3" stroke-miterlimit="10"/>
<path d="M81.6299 87.4297V98.0997" stroke="white" stroke-width="1.3" stroke-miterlimit="10"/>
<path d="M81.6299 164.35V173.45" stroke="white" stroke-width="1.3" stroke-miterlimit="10"/>
<path d="M46.6221 240.868H41.2221L40.3041 244H38.6841L42.5001 231.4H45.3441L49.1601 244H47.5401L46.6221 240.868ZM43.8141 232.048L41.6361 239.464H46.2081L44.0301 232.048H43.8141ZM50.6955 235.072H53.5035V231.4H54.9075V235.072H58.3635V236.368H54.9075V242.164C54.9075 242.524 55.0695 242.704 55.3935 242.704H57.9315V244H54.8895C54.4815 244 54.1455 243.868 53.8815 243.604C53.6295 243.34 53.5035 243.004 53.5035 242.596V236.368H50.6955V235.072ZM63.427 244H62.023V231.4H63.427V236.692H63.643C63.919 236.116 64.303 235.66 64.795 235.324C65.299 234.988 65.911 234.82 66.631 234.82C67.603 234.82 68.389 235.144 68.989 235.792C69.601 236.428 69.907 237.388 69.907 238.672V244H68.503V238.96C68.503 238.024 68.293 237.322 67.873 236.854C67.453 236.386 66.883 236.152 66.163 236.152C65.311 236.152 64.639 236.446 64.147 237.034C63.667 237.61 63.427 238.384 63.427 239.356V244ZM73.0445 242.704H76.2845V232.696H73.1525V231.4H77.6885V242.704H80.9285V244H73.0445V242.704ZM85.092 239.968C85.128 240.856 85.404 241.57 85.92 242.11C86.436 242.65 87.156 242.92 88.08 242.92C88.5 242.92 88.866 242.872 89.178 242.776C89.49 242.68 89.754 242.548 89.97 242.38C90.198 242.212 90.378 242.02 90.51 241.804C90.654 241.576 90.768 241.336 90.852 241.084L92.184 241.444C91.932 242.272 91.464 242.95 90.78 243.478C90.108 243.994 89.196 244.252 88.044 244.252C87.408 244.252 86.82 244.144 86.28 243.928C85.752 243.7 85.296 243.382 84.912 242.974C84.528 242.566 84.228 242.08 84.012 241.516C83.796 240.952 83.688 240.328 83.688 239.644V239.212C83.688 238.588 83.796 238.006 84.012 237.466C84.24 236.926 84.552 236.464 84.948 236.08C85.344 235.684 85.806 235.378 86.334 235.162C86.874 234.934 87.456 234.82 88.08 234.82C88.812 234.82 89.442 234.958 89.97 235.234C90.51 235.498 90.948 235.828 91.284 236.224C91.632 236.62 91.884 237.052 92.04 237.52C92.208 237.988 92.292 238.42 92.292 238.816V239.968H85.092ZM88.08 236.152C87.684 236.152 87.312 236.218 86.964 236.35C86.628 236.47 86.328 236.644 86.064 236.872C85.812 237.1 85.602 237.37 85.434 237.682C85.278 237.982 85.176 238.312 85.128 238.672H90.888C90.864 238.288 90.768 237.94 90.6 237.628C90.444 237.316 90.234 237.052 89.97 236.836C89.718 236.62 89.424 236.452 89.088 236.332C88.764 236.212 88.428 236.152 88.08 236.152ZM94.7815 235.072H97.5895V231.4H98.9935V235.072H102.449V236.368H98.9935V242.164C98.9935 242.524 99.1555 242.704 99.4795 242.704H102.017V244H98.9755C98.5675 244 98.2315 243.868 97.9675 243.604C97.7155 243.34 97.5895 243.004 97.5895 242.596V236.368H94.7815V235.072ZM108.881 232.408C108.881 232.06 109.001 231.766 109.241 231.526C109.493 231.274 109.793 231.148 110.141 231.148C110.489 231.148 110.783 231.274 111.023 231.526C111.275 231.766 111.401 232.06 111.401 232.408C111.401 232.756 111.275 233.056 111.023 233.308C110.783 233.548 110.489 233.668 110.141 233.668C109.793 233.668 109.493 233.548 109.241 233.308C109.001 233.056 108.881 232.756 108.881 232.408ZM106.325 242.704H109.457V236.368H106.649V235.072H110.861V242.704H113.777V244H106.325V242.704ZM125.482 240.832C125.386 241.324 125.218 241.78 124.978 242.2C124.75 242.62 124.456 242.986 124.096 243.298C123.736 243.598 123.316 243.832 122.836 244C122.356 244.168 121.822 244.252 121.234 244.252C120.61 244.252 120.016 244.15 119.452 243.946C118.9 243.742 118.414 243.448 117.994 243.064C117.574 242.668 117.238 242.188 116.986 241.624C116.746 241.06 116.626 240.412 116.626 239.68V239.464C116.626 238.744 116.746 238.096 116.986 237.52C117.238 236.944 117.574 236.458 117.994 236.062C118.414 235.666 118.9 235.36 119.452 235.144C120.016 234.928 120.61 234.82 121.234 234.82C121.798 234.82 122.32 234.904 122.8 235.072C123.28 235.24 123.7 235.48 124.06 235.792C124.432 236.092 124.732 236.452 124.96 236.872C125.2 237.292 125.362 237.748 125.446 238.24L124.042 238.564C124.006 238.252 123.916 237.952 123.772 237.664C123.64 237.364 123.454 237.106 123.214 236.89C122.986 236.662 122.704 236.482 122.368 236.35C122.032 236.218 121.642 236.152 121.198 236.152C120.766 236.152 120.358 236.236 119.974 236.404C119.602 236.56 119.272 236.788 118.984 237.088C118.696 237.376 118.468 237.724 118.3 238.132C118.144 238.54 118.066 238.984 118.066 239.464V239.68C118.066 240.184 118.144 240.64 118.3 241.048C118.468 241.444 118.696 241.78 118.984 242.056C119.272 242.332 119.608 242.548 119.992 242.704C120.376 242.848 120.79 242.92 121.234 242.92C121.678 242.92 122.062 242.854 122.386 242.722C122.722 242.578 123.004 242.398 123.232 242.182C123.472 241.954 123.658 241.696 123.79 241.408C123.934 241.12 124.03 240.82 124.078 240.508L125.482 240.832Z" fill="white"/>
</svg>
