<svg width="156" height="248" viewBox="0 0 156 248" fill="none" xmlns="http://www.w3.org/2000/svg">
<path d="M64.2798 0V8.84L6.96977 39.42L1.50977 180.24" stroke="white" stroke-width="1.3" stroke-miterlimit="10"/>
<path d="M29.4404 61.79V101.09L35.9004 125.11L32.9004 196.62" stroke="white" stroke-width="1.3" stroke-miterlimit="10"/>
<path d="M32.6697 113.1C32.6397 113.03 18.4297 182.83 18.4297 182.83" stroke="white" stroke-width="1.3" stroke-miterlimit="10"/>
<path d="M82.0904 48.4902C82.0904 50.5202 79.9704 52.1602 77.3504 52.1602C74.7304 52.1602 72.6104 50.5202 72.6104 48.4902" stroke="white" stroke-width="1.3" stroke-miterlimit="10"/>
<path d="M65.9502 20.04L68.8302 38.1" stroke="white" stroke-width="1.3" stroke-miterlimit="10"/>
<path d="M34.0098 40.3301C34.5298 40.3301 68.8298 44.6501 68.8298 44.6501" stroke="white" stroke-width="1.3" stroke-miterlimit="10"/>
<path d="M92.3203 0V8.84L149.63 39.42L155.09 180.24" stroke="white" stroke-width="1.3" stroke-miterlimit="10"/>
<path d="M127.17 61.79V101.09L120.7 125.11L123.71 196.62" stroke="white" stroke-width="1.3" stroke-miterlimit="10"/>
<path d="M123.93 113.1C123.96 113.03 138.17 182.83 138.17 182.83" stroke="white" stroke-width="1.3" stroke-miterlimit="10"/>
<path d="M90.6495 20.04L87.7695 38.1" stroke="white" stroke-width="1.3" stroke-miterlimit="10"/>
<path d="M122.59 40.3301C122.07 40.3301 87.7695 44.6501 87.7695 44.6501" stroke="white" stroke-width="1.3" stroke-miterlimit="10"/>
<path d="M29.4404 92.6201L64.2804 99.3101" stroke="white" stroke-width="1.3" stroke-miterlimit="10"/>
<path d="M128.28 92.6201L93.4404 99.3101" stroke="white" stroke-width="1.3" stroke-miterlimit="10"/>
<path d="M78.6299 164.35V173.45" stroke="white" stroke-width="1.3" stroke-miterlimit="10"/>
<path d="M39.0048 231.4H47.8608V232.804H44.1888V244H42.6768V232.804H39.0048V231.4ZM56.9923 242.38H56.7763C56.4883 242.956 56.1103 243.412 55.6423 243.748C55.1743 244.084 54.5803 244.252 53.8603 244.252C53.3683 244.252 52.9123 244.168 52.4923 244C52.0843 243.844 51.7303 243.604 51.4303 243.28C51.1423 242.956 50.9143 242.554 50.7463 242.074C50.5903 241.594 50.5123 241.036 50.5123 240.4V235.072H51.9163V240.22C51.9163 241.156 52.1083 241.84 52.4923 242.272C52.8763 242.704 53.4643 242.92 54.2563 242.92C55.1083 242.92 55.7743 242.632 56.2543 242.056C56.7463 241.468 56.9923 240.688 56.9923 239.716V235.072H58.3963V246.196C58.3963 246.604 58.2643 246.94 58.0003 247.204C57.7483 247.468 57.4183 247.6 57.0103 247.6H51.9163V246.304H56.5063C56.8303 246.304 56.9923 246.124 56.9923 245.764V242.38ZM62.6138 247.6H61.2098V235.072H62.6138V236.476H62.8298C63.1418 235.936 63.5738 235.528 64.1258 235.252C64.6778 234.964 65.2778 234.82 65.9258 234.82C66.4778 234.82 66.9998 234.922 67.4918 235.126C67.9838 235.33 68.4158 235.624 68.7878 236.008C69.1718 236.392 69.4718 236.866 69.6878 237.43C69.9158 237.994 70.0298 238.636 70.0298 239.356V239.716C70.0298 240.448 69.9218 241.096 69.7058 241.66C69.4898 242.224 69.1898 242.698 68.8058 243.082C68.4338 243.466 67.9958 243.76 67.4918 243.964C66.9878 244.156 66.4538 244.252 65.8898 244.252C65.6018 244.252 65.3078 244.216 65.0078 244.144C64.7078 244.084 64.4198 243.988 64.1438 243.856C63.8798 243.712 63.6338 243.544 63.4058 243.352C63.1778 243.148 62.9858 242.908 62.8298 242.632H62.6138V247.6ZM65.6018 242.92C66.0338 242.92 66.4298 242.848 66.7898 242.704C67.1498 242.548 67.4618 242.332 67.7258 242.056C68.0018 241.78 68.2118 241.444 68.3558 241.048C68.5118 240.652 68.5898 240.208 68.5898 239.716V239.356C68.5898 238.876 68.5118 238.444 68.3558 238.06C68.2118 237.664 68.0018 237.328 67.7258 237.052C67.4618 236.764 67.1438 236.542 66.7718 236.386C66.4118 236.23 66.0218 236.152 65.6018 236.152C65.1818 236.152 64.7918 236.236 64.4318 236.404C64.0718 236.56 63.7538 236.782 63.4778 237.07C63.2138 237.358 63.0038 237.706 62.8478 238.114C62.6918 238.51 62.6138 238.948 62.6138 239.428V239.644C62.6138 240.136 62.6918 240.586 62.8478 240.994C63.0038 241.39 63.2138 241.732 63.4778 242.02C63.7538 242.308 64.0718 242.53 64.4318 242.686C64.7918 242.842 65.1818 242.92 65.6018 242.92ZM75.3273 232.408C75.3273 232.06 75.4473 231.766 75.6873 231.526C75.9393 231.274 76.2393 231.148 76.5873 231.148C76.9353 231.148 77.2293 231.274 77.4693 231.526C77.7213 231.766 77.8473 232.06 77.8473 232.408C77.8473 232.756 77.7213 233.056 77.4693 233.308C77.2293 233.548 76.9353 233.668 76.5873 233.668C76.2393 233.668 75.9393 233.548 75.6873 233.308C75.4473 233.056 75.3273 232.756 75.3273 232.408ZM72.7713 242.704H75.9033V236.368H73.0953V235.072H77.3073V242.704H80.2233V244H72.7713V242.704ZM91.9287 240.832C91.8327 241.324 91.6647 241.78 91.4247 242.2C91.1967 242.62 90.9027 242.986 90.5427 243.298C90.1827 243.598 89.7627 243.832 89.2827 244C88.8027 244.168 88.2687 244.252 87.6807 244.252C87.0567 244.252 86.4627 244.15 85.8987 243.946C85.3467 243.742 84.8607 243.448 84.4407 243.064C84.0207 242.668 83.6847 242.188 83.4327 241.624C83.1927 241.06 83.0727 240.412 83.0727 239.68V239.464C83.0727 238.744 83.1927 238.096 83.4327 237.52C83.6847 236.944 84.0207 236.458 84.4407 236.062C84.8607 235.666 85.3467 235.36 85.8987 235.144C86.4627 234.928 87.0567 234.82 87.6807 234.82C88.2447 234.82 88.7667 234.904 89.2467 235.072C89.7267 235.24 90.1467 235.48 90.5067 235.792C90.8787 236.092 91.1787 236.452 91.4067 236.872C91.6467 237.292 91.8087 237.748 91.8927 238.24L90.4887 238.564C90.4527 238.252 90.3627 237.952 90.2187 237.664C90.0867 237.364 89.9007 237.106 89.6607 236.89C89.4327 236.662 89.1507 236.482 88.8147 236.35C88.4787 236.218 88.0887 236.152 87.6447 236.152C87.2127 236.152 86.8047 236.236 86.4207 236.404C86.0487 236.56 85.7187 236.788 85.4307 237.088C85.1427 237.376 84.9147 237.724 84.7467 238.132C84.5907 238.54 84.5127 238.984 84.5127 239.464V239.68C84.5127 240.184 84.5907 240.64 84.7467 241.048C84.9147 241.444 85.1427 241.78 85.4307 242.056C85.7187 242.332 86.0547 242.548 86.4387 242.704C86.8227 242.848 87.2367 242.92 87.6807 242.92C88.1247 242.92 88.5087 242.854 88.8327 242.722C89.1687 242.578 89.4507 242.398 89.6787 242.182C89.9187 241.954 90.1047 241.696 90.2367 241.408C90.3807 241.12 90.4767 240.82 90.5247 240.508L91.9287 240.832ZM101.078 242.488H100.862C100.574 243.088 100.172 243.532 99.6562 243.82C99.1522 244.108 98.6182 244.252 98.0542 244.252C97.4662 244.252 96.9202 244.156 96.4162 243.964C95.9122 243.76 95.4682 243.466 95.0842 243.082C94.7122 242.686 94.4182 242.206 94.2022 241.642C93.9862 241.078 93.8782 240.424 93.8782 239.68V239.392C93.8782 238.66 93.9862 238.012 94.2022 237.448C94.4182 236.884 94.7122 236.41 95.0842 236.026C95.4682 235.63 95.9122 235.33 96.4162 235.126C96.9202 234.922 97.4542 234.82 98.0182 234.82C98.6302 234.82 99.1822 234.958 99.6742 235.234C100.178 235.498 100.574 235.912 100.862 236.476H101.078V235.072H102.482V242.164C102.482 242.524 102.644 242.704 102.968 242.704H103.418V244H102.464C102.056 244 101.72 243.868 101.456 243.604C101.204 243.34 101.078 243.004 101.078 242.596V242.488ZM98.1982 242.92C98.6182 242.92 99.0022 242.842 99.3502 242.686C99.7102 242.53 100.016 242.308 100.268 242.02C100.52 241.732 100.718 241.39 100.862 240.994C101.006 240.586 101.078 240.136 101.078 239.644V239.428C101.078 238.948 101.006 238.51 100.862 238.114C100.718 237.706 100.514 237.358 100.25 237.07C99.9982 236.782 99.6922 236.56 99.3322 236.404C98.9842 236.236 98.6062 236.152 98.1982 236.152C97.7782 236.152 97.3942 236.23 97.0462 236.386C96.6982 236.542 96.3922 236.764 96.1282 237.052C95.8762 237.328 95.6782 237.67 95.5342 238.078C95.3902 238.474 95.3182 238.912 95.3182 239.392V239.68C95.3182 240.7 95.5822 241.498 96.1102 242.074C96.6502 242.638 97.3462 242.92 98.1982 242.92ZM105.62 242.704H108.86V232.696H105.728V231.4H110.264V242.704H113.504V244H105.62V242.704Z" fill="white"/>
</svg>
