<svg width="189" height="248" viewBox="0 0 189 248" fill="none" xmlns="http://www.w3.org/2000/svg">
<path d="M78.2895 0.519531V12.0295L24.3895 51.3995L0.769531 174.34" stroke="white" stroke-width="1.3" stroke-miterlimit="10"/>
<path d="M39.5302 71.9902V104.09L47.4002 112.94L36.5002 137.4L31.6602 197.36" stroke="white" stroke-width="1.3" stroke-miterlimit="10"/>
<path d="M21.9697 180.24L35.5598 149.09" stroke="white" stroke-width="1.3" stroke-miterlimit="10"/>
<path d="M81.6104 24.46L84.7203 42.72" stroke="white" stroke-width="1.3" stroke-miterlimit="10"/>
<path d="M60.6299 45.75L83.1699 49.33" stroke="white" stroke-width="1.3" stroke-miterlimit="10"/>
<path d="M110.63 0.519531V12.0295L164.53 51.3995L188.15 174.34" stroke="white" stroke-width="1.3" stroke-miterlimit="10"/>
<path d="M149.39 71.9902V104.09L141.52 112.94L152.419 137.4L157.26 197.36" stroke="white" stroke-width="1.3" stroke-miterlimit="10"/>
<path d="M166.95 180.24L153.36 149.09" stroke="white" stroke-width="1.3" stroke-miterlimit="10"/>
<path d="M107.31 24.46L104.2 42.72" stroke="white" stroke-width="1.3" stroke-miterlimit="10"/>
<path d="M128.29 45.75L105.75 49.33" stroke="white" stroke-width="1.3" stroke-miterlimit="10"/>
<path d="M88.7695 53.25C88.7695 55.28 91.4295 56.92 94.6995 56.92C97.9695 56.92 100.63 55.28 100.63 53.25" stroke="white" stroke-width="1.3" stroke-miterlimit="10"/>
<path d="M41.7197 106.56L78.2897 112.94" stroke="white" stroke-width="1.3" stroke-miterlimit="10"/>
<path d="M147.29 106.56L110.72 112.94" stroke="white" stroke-width="1.3" stroke-miterlimit="10"/>
<path d="M94.6299 168.35V177.45" stroke="white" stroke-width="1.3" stroke-miterlimit="10"/>
<path d="M51.7281 231.4H53.2401V236.98H58.6041V231.4H60.1161V244H58.6041V238.384H53.2401V244H51.7281V231.4ZM64.0275 239.968C64.0635 240.856 64.3395 241.57 64.8555 242.11C65.3715 242.65 66.0915 242.92 67.0155 242.92C67.4355 242.92 67.8015 242.872 68.1135 242.776C68.4255 242.68 68.6895 242.548 68.9055 242.38C69.1335 242.212 69.3135 242.02 69.4455 241.804C69.5895 241.576 69.7035 241.336 69.7875 241.084L71.1195 241.444C70.8675 242.272 70.3995 242.95 69.7155 243.478C69.0435 243.994 68.1315 244.252 66.9795 244.252C66.3435 244.252 65.7555 244.144 65.2155 243.928C64.6875 243.7 64.2315 243.382 63.8475 242.974C63.4635 242.566 63.1635 242.08 62.9475 241.516C62.7315 240.952 62.6235 240.328 62.6235 239.644V239.212C62.6235 238.588 62.7315 238.006 62.9475 237.466C63.1755 236.926 63.4875 236.464 63.8835 236.08C64.2795 235.684 64.7415 235.378 65.2695 235.162C65.8095 234.934 66.3915 234.82 67.0155 234.82C67.7475 234.82 68.3775 234.958 68.9055 235.234C69.4455 235.498 69.8835 235.828 70.2195 236.224C70.5675 236.62 70.8195 237.052 70.9755 237.52C71.1435 237.988 71.2275 238.42 71.2275 238.816V239.968H64.0275ZM67.0155 236.152C66.6195 236.152 66.2475 236.218 65.8995 236.35C65.5635 236.47 65.2635 236.644 64.9995 236.872C64.7475 237.1 64.5375 237.37 64.3695 237.682C64.2135 237.982 64.1115 238.312 64.0635 238.672H69.8235C69.7995 238.288 69.7035 237.94 69.5355 237.628C69.3795 237.316 69.1695 237.052 68.9055 236.836C68.6535 236.62 68.3595 236.452 68.0235 236.332C67.6995 236.212 67.3635 236.152 67.0155 236.152ZM80.503 242.488H80.287C79.999 243.088 79.597 243.532 79.081 243.82C78.577 244.108 78.043 244.252 77.479 244.252C76.891 244.252 76.345 244.156 75.841 243.964C75.337 243.76 74.893 243.466 74.509 243.082C74.137 242.686 73.843 242.206 73.627 241.642C73.411 241.078 73.303 240.424 73.303 239.68V239.392C73.303 238.66 73.411 238.012 73.627 237.448C73.843 236.884 74.137 236.41 74.509 236.026C74.893 235.63 75.337 235.33 75.841 235.126C76.345 234.922 76.879 234.82 77.443 234.82C78.055 234.82 78.607 234.958 79.099 235.234C79.603 235.498 79.999 235.912 80.287 236.476H80.503V235.072H81.907V242.164C81.907 242.524 82.069 242.704 82.393 242.704H82.843V244H81.889C81.481 244 81.145 243.868 80.881 243.604C80.629 243.34 80.503 243.004 80.503 242.596V242.488ZM77.623 242.92C78.043 242.92 78.427 242.842 78.775 242.686C79.135 242.53 79.441 242.308 79.693 242.02C79.945 241.732 80.143 241.39 80.287 240.994C80.431 240.586 80.503 240.136 80.503 239.644V239.428C80.503 238.948 80.431 238.51 80.287 238.114C80.143 237.706 79.939 237.358 79.675 237.07C79.423 236.782 79.117 236.56 78.757 236.404C78.409 236.236 78.031 236.152 77.623 236.152C77.203 236.152 76.819 236.23 76.471 236.386C76.123 236.542 75.817 236.764 75.553 237.052C75.301 237.328 75.103 237.67 74.959 238.078C74.815 238.474 74.743 238.912 74.743 239.392V239.68C74.743 240.7 75.007 241.498 75.535 242.074C76.075 242.638 76.771 242.92 77.623 242.92ZM90.3545 244H87.5825L84.4685 235.072H86.1245L88.8605 243.352H89.0765L91.8125 235.072H93.4685L90.3545 244ZM102.546 242.38H102.33C102.042 242.956 101.664 243.412 101.196 243.748C100.728 244.084 100.134 244.252 99.414 244.252C98.922 244.252 98.466 244.168 98.046 244C97.638 243.844 97.284 243.604 96.984 243.28C96.696 242.956 96.468 242.554 96.3 242.074C96.144 241.594 96.066 241.036 96.066 240.4V235.072H97.47V240.22C97.47 241.156 97.662 241.84 98.046 242.272C98.43 242.704 99.018 242.92 99.81 242.92C100.662 242.92 101.328 242.632 101.808 242.056C102.3 241.468 102.546 240.688 102.546 239.716V235.072H103.95V246.196C103.95 246.604 103.818 246.94 103.554 247.204C103.302 247.468 102.972 247.6 102.564 247.6H97.47V246.304H102.06C102.384 246.304 102.546 246.124 102.546 245.764V242.38ZM108.941 237.376C108.941 237.808 109.121 238.138 109.481 238.366C109.853 238.594 110.525 238.744 111.497 238.816C112.541 238.9 113.333 239.152 113.873 239.572C114.425 239.98 114.701 240.58 114.701 241.372V241.48C114.701 241.912 114.611 242.302 114.431 242.65C114.263 242.986 114.023 243.274 113.711 243.514C113.411 243.754 113.039 243.934 112.595 244.054C112.163 244.186 111.689 244.252 111.173 244.252C110.477 244.252 109.877 244.162 109.373 243.982C108.881 243.79 108.467 243.544 108.131 243.244C107.807 242.932 107.561 242.584 107.393 242.2C107.225 241.804 107.129 241.408 107.105 241.012L108.437 240.688C108.497 241.372 108.761 241.924 109.229 242.344C109.697 242.752 110.321 242.956 111.101 242.956C111.761 242.956 112.289 242.83 112.685 242.578C113.093 242.314 113.297 241.948 113.297 241.48C113.297 240.976 113.099 240.616 112.703 240.4C112.307 240.184 111.665 240.046 110.777 239.986C109.745 239.914 108.953 239.674 108.401 239.266C107.849 238.858 107.573 238.264 107.573 237.484V237.376C107.573 236.956 107.663 236.59 107.843 236.278C108.023 235.954 108.263 235.684 108.563 235.468C108.875 235.252 109.223 235.09 109.607 234.982C109.991 234.874 110.393 234.82 110.813 234.82C111.401 234.82 111.917 234.904 112.361 235.072C112.805 235.228 113.177 235.438 113.477 235.702C113.777 235.954 114.005 236.248 114.161 236.584C114.329 236.92 114.437 237.256 114.485 237.592L113.153 237.916C113.093 237.34 112.859 236.89 112.451 236.566C112.055 236.242 111.533 236.08 110.885 236.08C110.633 236.08 110.387 236.11 110.147 236.17C109.919 236.218 109.715 236.296 109.535 236.404C109.355 236.512 109.211 236.65 109.103 236.818C108.995 236.974 108.941 237.16 108.941 237.376ZM119.135 239.968C119.171 240.856 119.447 241.57 119.963 242.11C120.479 242.65 121.199 242.92 122.123 242.92C122.543 242.92 122.909 242.872 123.221 242.776C123.533 242.68 123.797 242.548 124.013 242.38C124.241 242.212 124.421 242.02 124.553 241.804C124.697 241.576 124.811 241.336 124.895 241.084L126.227 241.444C125.975 242.272 125.507 242.95 124.823 243.478C124.151 243.994 123.239 244.252 122.087 244.252C121.451 244.252 120.863 244.144 120.323 243.928C119.795 243.7 119.339 243.382 118.955 242.974C118.571 242.566 118.271 242.08 118.055 241.516C117.839 240.952 117.731 240.328 117.731 239.644V239.212C117.731 238.588 117.839 238.006 118.055 237.466C118.283 236.926 118.595 236.464 118.991 236.08C119.387 235.684 119.849 235.378 120.377 235.162C120.917 234.934 121.499 234.82 122.123 234.82C122.855 234.82 123.485 234.958 124.013 235.234C124.553 235.498 124.991 235.828 125.327 236.224C125.675 236.62 125.927 237.052 126.083 237.52C126.251 237.988 126.335 238.42 126.335 238.816V239.968H119.135ZM122.123 236.152C121.727 236.152 121.355 236.218 121.007 236.35C120.671 236.47 120.371 236.644 120.107 236.872C119.855 237.1 119.645 237.37 119.477 237.682C119.321 237.982 119.219 238.312 119.171 238.672H124.931C124.907 238.288 124.811 237.94 124.643 237.628C124.487 237.316 124.277 237.052 124.013 236.836C123.761 236.62 123.467 236.452 123.131 236.332C122.807 236.212 122.471 236.152 122.123 236.152ZM128.824 235.072H131.632V231.4H133.036V235.072H136.492V236.368H133.036V242.164C133.036 242.524 133.198 242.704 133.522 242.704H136.06V244H133.018C132.61 244 132.274 243.868 132.01 243.604C131.758 243.34 131.632 243.004 131.632 242.596V236.368H128.824V235.072Z" fill="white"/>
</svg>
