<svg width="151" height="245" viewBox="0 0 151 245" fill="none" xmlns="http://www.w3.org/2000/svg">
<path d="M60.7104 0V18.77L15.6604 35.66L0.650391 182.83" stroke="white" stroke-width="1.3" stroke-miterlimit="10"/>
<path d="M30.6797 65.7002L39.3097 122.01L34.9997 196.62" stroke="white" stroke-width="1.3" stroke-miterlimit="10"/>
<path d="M30.6803 74.71L12.2803 182.83" stroke="white" stroke-width="1.3" stroke-miterlimit="10"/>
<path d="M64.8398 20.7695L67.0898 38.0395" stroke="white" stroke-width="1.3" stroke-miterlimit="10"/>
<path d="M35 39.9102L64.84 44.4202" stroke="white" stroke-width="1.3" stroke-miterlimit="10"/>
<path d="M39.3096 85.2197L58.8396 88.9697" stroke="white" stroke-width="1.3" stroke-miterlimit="10"/>
<path d="M90.0303 0V18.77L135.08 35.66L150.09 182.83" stroke="white" stroke-width="1.3" stroke-miterlimit="10"/>
<path d="M120.06 65.7002L111.43 122.01L115.74 196.62" stroke="white" stroke-width="1.3" stroke-miterlimit="10"/>
<path d="M120.06 74.71L138.46 182.83" stroke="white" stroke-width="1.3" stroke-miterlimit="10"/>
<path d="M85.9004 20.7695L83.6504 38.0395" stroke="white" stroke-width="1.3" stroke-miterlimit="10"/>
<path d="M115.74 39.9102L85.9004 44.4202" stroke="white" stroke-width="1.3" stroke-miterlimit="10"/>
<path d="M111.43 85.2197L91.9102 88.9697" stroke="white" stroke-width="1.3" stroke-miterlimit="10"/>
<path d="M80.1099 49.0801C80.1099 51.1101 77.9899 52.7501 75.3699 52.7501C72.7499 52.7501 70.6299 51.1101 70.6299 49.0801" stroke="white" stroke-width="1.3" stroke-miterlimit="10"/>
<path d="M74.6299 165.35V174.45" stroke="white" stroke-width="1.3" stroke-miterlimit="10"/>
<path d="M53.935 235.036C53.935 234.628 53.851 234.268 53.683 233.956C53.527 233.644 53.311 233.386 53.035 233.182C52.759 232.978 52.441 232.822 52.081 232.714C51.721 232.606 51.343 232.552 50.947 232.552C50.599 232.552 50.269 232.6 49.957 232.696C49.645 232.78 49.363 232.906 49.111 233.074C48.871 233.242 48.679 233.452 48.535 233.704C48.391 233.944 48.319 234.226 48.319 234.55V234.658C48.319 235.006 48.391 235.306 48.535 235.558C48.679 235.798 48.889 236.008 49.165 236.188C49.453 236.356 49.807 236.5 50.227 236.62C50.647 236.728 51.139 236.824 51.703 236.908C53.023 237.112 53.995 237.502 54.619 238.078C55.243 238.642 55.555 239.404 55.555 240.364V240.58C55.555 241.12 55.459 241.618 55.267 242.074C55.087 242.518 54.811 242.902 54.439 243.226C54.079 243.55 53.629 243.802 53.089 243.982C52.549 244.162 51.925 244.252 51.217 244.252C50.413 244.252 49.699 244.138 49.075 243.91C48.463 243.67 47.947 243.346 47.527 242.938C47.119 242.518 46.807 242.032 46.591 241.48C46.375 240.916 46.267 240.304 46.267 239.644V239.104H47.779V239.536C47.779 240.64 48.079 241.468 48.679 242.02C49.291 242.572 50.137 242.848 51.217 242.848C52.153 242.848 52.855 242.644 53.323 242.236C53.803 241.816 54.043 241.264 54.043 240.58V240.472C54.043 239.812 53.797 239.308 53.305 238.96C52.825 238.612 52.039 238.36 50.947 238.204C50.311 238.12 49.735 237.994 49.219 237.826C48.715 237.646 48.283 237.418 47.923 237.142C47.563 236.854 47.287 236.512 47.095 236.116C46.903 235.72 46.807 235.252 46.807 234.712V234.496C46.807 234.004 46.909 233.554 47.113 233.146C47.317 232.738 47.599 232.384 47.959 232.084C48.331 231.784 48.769 231.556 49.273 231.4C49.789 231.232 50.353 231.148 50.965 231.148C51.673 231.148 52.303 231.25 52.855 231.454C53.419 231.658 53.893 231.934 54.277 232.282C54.661 232.618 54.949 233.02 55.141 233.488C55.345 233.944 55.447 234.424 55.447 234.928V235.684H53.935V235.036ZM58.0445 242.704H61.2845V232.696H58.1525V231.4H62.6885V242.704H65.9285V244H58.0445V242.704ZM71.838 232.408C71.838 232.06 71.958 231.766 72.198 231.526C72.45 231.274 72.75 231.148 73.098 231.148C73.446 231.148 73.74 231.274 73.98 231.526C74.232 231.766 74.358 232.06 74.358 232.408C74.358 232.756 74.232 233.056 73.98 233.308C73.74 233.548 73.446 233.668 73.098 233.668C72.75 233.668 72.45 233.548 72.198 233.308C71.958 233.056 71.838 232.756 71.838 232.408ZM69.282 242.704H72.414V236.368H69.606V235.072H73.818V242.704H76.734V244H69.282V242.704ZM88.6735 244H87.2695V237.592C87.2695 237.172 87.1735 236.83 86.9815 236.566C86.7895 236.29 86.4835 236.152 86.0635 236.152C85.6675 236.152 85.3435 236.302 85.0915 236.602C84.8515 236.89 84.7315 237.34 84.7315 237.952V244H83.3275V237.52C83.3275 237.124 83.2195 236.8 83.0035 236.548C82.7875 236.284 82.4995 236.152 82.1395 236.152C81.7075 236.152 81.3715 236.308 81.1315 236.62C80.9035 236.932 80.7895 237.34 80.7895 237.844V244H79.3855V235.072H80.7895V236.044H81.0055C81.1615 235.624 81.3895 235.318 81.6895 235.126C81.9895 234.922 82.3435 234.82 82.7515 234.82C83.1835 234.82 83.5375 234.934 83.8135 235.162C84.1015 235.39 84.2995 235.684 84.4075 236.044H84.6235C85.0315 235.228 85.6795 234.82 86.5675 234.82C87.2395 234.82 87.7555 235.036 88.1155 235.468C88.4875 235.888 88.6735 236.44 88.6735 237.124V244Z" fill="white"/>
</svg>
