<?xml version="1.0" encoding="utf-8"?>
<!-- Generator: Adobe Illustrator 24.0.0, SVG Export Plug-In . SVG Version: 6.00 Build 0)  -->
<svg version="1.1" id="Layer_1" xmlns="http://www.w3.org/2000/svg" xmlns:xlink="http://www.w3.org/1999/xlink" x="0px" y="0px"
	 viewBox="0 0 1056 275" style="enable-background:new 0 0 1056 275;" xml:space="preserve">
<style type="text/css">
	.st0{fill:#FFFFFF;}
	.st1{clip-path:url(#SVGID_2_);fill:#FFFFFF;}
	.st2{clip-path:url(#SVGID_4_);fill:#FFFFFF;}
	.st3{clip-path:url(#SVGID_6_);fill:#FFFFFF;}
	.st4{clip-path:url(#SVGID_8_);fill:#FFFFFF;}
	.st5{clip-path:url(#SVGID_10_);fill:#FFFFFF;}
	.st6{clip-path:url(#SVGID_12_);fill:#FFFFFF;}
	.st7{clip-path:url(#SVGID_14_);fill:#FFFFFF;}
	.st8{clip-path:url(#SVGID_16_);fill:#FFFFFF;}
	.st9{clip-path:url(#SVGID_18_);fill:#FFFFFF;}
	.st10{clip-path:url(#SVGID_20_);fill:#FFFFFF;}
	.st11{clip-path:url(#SVGID_22_);fill:#FFFFFF;}
	.st12{clip-path:url(#SVGID_24_);fill:#FFFFFF;}
	.st13{clip-path:url(#SVGID_26_);fill:#FFFFFF;}
	.st14{clip-path:url(#SVGID_28_);fill:#FFFFFF;}
	.st15{clip-path:url(#SVGID_30_);fill:#FFFFFF;}
	.st16{clip-path:url(#SVGID_32_);fill:url(#SVGID_33_);}
</style>
<g>
	<rect x="292.1" y="73.9" class="st0" width="18" height="63.1"/>
	<g>
		<g>
			<defs>
				<rect id="SVGID_1_" x="-0.1" y="-480.9" width="1336.1" height="944.7"/>
			</defs>
			<clipPath id="SVGID_2_">
				<use xlink:href="#SVGID_1_"  style="overflow:visible;"/>
			</clipPath>
			<path class="st1" d="M326.3,92.9H342l-0.6,7.4h0.3c3.1-5.3,10-8,20.8-8c15.7,0,23.5,4.9,23.5,14.6V137h-15.8v-26.6v-1.7l-0.3-3.1
				c-0.7-3.3-4.6-5-11.7-5c-10.7,0-16,3.4-16,10.1v26.2h-15.9V92.9z"/>
		</g>
		<g>
			<defs>
				<rect id="SVGID_3_" x="-0.1" y="-480.9" width="1336.1" height="944.7"/>
			</defs>
			<clipPath id="SVGID_4_">
				<use xlink:href="#SVGID_3_"  style="overflow:visible;"/>
			</clipPath>
			<path class="st2" d="M460.6,73.9V137h-15.4l0.6-7.1h-0.3c-3.1,5.2-9.8,7.7-20.2,7.7c-10.5,0-17.4-1.6-20.8-4.8
				c-3.4-3.2-5.1-9.7-5.1-19.4c0-7.9,1.8-13.4,5.5-16.4c3.7-3.1,10.1-4.6,19.5-4.6c10.8,0,17.6,2.3,20.2,6.8h0.3V73.9H460.6z
				 M429.6,100.7c-5.9,0-9.8,0.8-11.5,2.5c-1.8,1.7-2.6,5.3-2.6,10.8c0,6.4,0.9,10.5,2.6,12.4c1.8,1.8,5.7,2.8,11.8,2.8
				c6.4,0,10.5-0.9,12.2-2.7c1.8-1.8,2.7-6,2.7-12.6c0-5.4-1-9-2.9-10.7C439.8,101.6,435.7,100.7,429.6,100.7"/>
		</g>
		<g>
			<defs>
				<rect id="SVGID_5_" x="-0.1" y="-480.9" width="1336.1" height="944.7"/>
			</defs>
			<clipPath id="SVGID_6_">
				<use xlink:href="#SVGID_5_"  style="overflow:visible;"/>
			</clipPath>
			<path class="st3" d="M492.1,82.8h-15.9v-8.9h15.9V82.8z M492.1,137h-15.9V92.9h15.9V137z"/>
		</g>
		<g>
			<defs>
				<rect id="SVGID_7_" x="-0.1" y="-480.9" width="1336.1" height="944.7"/>
			</defs>
			<clipPath id="SVGID_8_">
				<use xlink:href="#SVGID_7_"  style="overflow:visible;"/>
			</clipPath>
			<path class="st4" d="M524.3,105.7h-16.2c0-5.3,1.8-8.8,5.5-10.6c3.7-1.8,11-2.7,22-2.7c11.9,0,20,1.1,24.2,3.3s6.3,6.4,6.3,12.5
				v28.9h-15.8l0.8-6.1h-0.4c-3,4.4-10.1,6.6-21.1,6.6c-16,0-24.1-4.5-24.1-13.6c0-9.2,8.2-13.8,24.6-13.8c11,0,17.6,1.7,20,5h0.3
				V108c0-3.4-0.9-5.7-2.7-6.9c-1.8-1.1-5.5-1.7-11.1-1.7C528.3,99.5,524.3,101.5,524.3,105.7 M534.8,117.3c-9,0-13.5,2.1-13.5,6.2
				c0,2.9,0.9,4.7,2.8,5.6c1.8,0.9,5.7,1.3,11.7,1.3c9.7,0,14.5-2.2,14.5-6.5C550.3,119.5,545.2,117.3,534.8,117.3"/>
		</g>
		<g>
			<defs>
				<rect id="SVGID_9_" x="-0.1" y="-480.9" width="1336.1" height="944.7"/>
			</defs>
			<clipPath id="SVGID_10_">
				<use xlink:href="#SVGID_9_"  style="overflow:visible;"/>
			</clipPath>
			<path class="st5" d="M335.9,162c17.2,0,28.3,1.9,33.2,5.7c4.9,3.8,7.4,12.3,7.4,25.5c0,14.4-2.5,23.6-7.5,27.3
				c-5,3.8-17,5.6-36.1,5.6c-17.2,0-28.3-1.9-33.4-5.6c-5-3.7-7.6-11.9-7.6-24.5c0-15,2.5-24.5,7.4-28.3
				C304.4,163.9,316.6,162,335.9,162 M334.6,172.2c-12.1,0-19.1,1-21.1,3.1s-3.1,9.2-3.1,21.4c0,9.1,1.2,14.5,3.6,16.4
				c2.4,1.8,9.4,2.8,21,2.8c11.1,0,17.8-1,20-3.1s3.3-8.4,3.3-18.9c0-10.6-1.1-16.8-3.2-18.7C353.1,173.2,346.1,172.2,334.6,172.2"
				/>
		</g>
		<g>
			<defs>
				<rect id="SVGID_11_" x="-0.1" y="-480.9" width="1336.1" height="944.7"/>
			</defs>
			<clipPath id="SVGID_12_">
				<use xlink:href="#SVGID_11_"  style="overflow:visible;"/>
			</clipPath>
			<path class="st6" d="M388.2,225.6v-63.1h15.9v25.2l0.3,0.1c2.7-4.7,9.6-7,20.7-7c9.5,0,16.1,1.6,19.6,4.6
				c3.5,3.1,5.3,8.8,5.3,17.2c0,9.2-1.8,15.3-5.4,18.6c-3.6,3.2-10.5,4.8-20.6,4.8c-10.3,0-17.1-2.5-20.3-7.5h-0.3l0.7,7
				L388.2,225.6L388.2,225.6z M419.7,189.2c-10.3,0-15.5,4.3-15.5,12.8c0,6.7,0.9,11,2.6,12.9c1.8,1.9,5.7,2.8,11.9,2.8
				c6.5,0,10.6-0.9,12.4-2.6s2.7-5.7,2.7-11.9c0-5.8-0.9-9.6-2.7-11.3C429.6,190.1,425.6,189.2,419.7,189.2"/>
		</g>
		<g>
			<defs>
				<rect id="SVGID_13_" x="-0.1" y="-480.9" width="1336.1" height="944.7"/>
			</defs>
			<clipPath id="SVGID_14_">
				<use xlink:href="#SVGID_13_"  style="overflow:visible;"/>
			</clipPath>
			<path class="st7" d="M518.7,193.6h-15.5c-0.1-0.4-0.2-0.6-0.2-0.8c-0.3-2.1-1.2-3.5-2.7-4s-5.1-0.8-10.9-0.8
				c-8.3,0-12.4,1.8-12.4,5.4c0,2.4,0.7,3.9,2.2,4.3c1.5,0.5,6.4,0.8,14.8,1.1c11.3,0.4,18.7,1.4,22.1,3s5.1,5,5.1,10
				c0,5.4-2.3,9.1-6.8,11.2c-4.6,2.1-12.7,3.1-24.5,3.1c-11.3,0-19.1-0.9-23.2-2.8c-4.2-1.9-6.2-5.4-6.2-10.5v-1.1H477
				c-0.2,0.6-0.4,1.1-0.4,1.5c-0.6,3.9,3.9,5.9,13.6,5.9c10,0,15-1.9,15-5.8c0-3.7-3.1-5.6-9.4-5.6c-14.2,0-23.6-0.9-28.1-2.7
				c-4.5-1.8-6.8-5.5-6.8-11.1c0-5.1,2.1-8.5,6.2-10.3s12-2.7,23.7-2.7c11,0,18.5,0.9,22.3,2.6C516.8,185.2,518.7,188.6,518.7,193.6
				"/>
		</g>
		<g>
			<defs>
				<rect id="SVGID_15_" x="-0.1" y="-480.9" width="1336.1" height="944.7"/>
			</defs>
			<clipPath id="SVGID_16_">
				<use xlink:href="#SVGID_15_"  style="overflow:visible;"/>
			</clipPath>
			<path class="st8" d="M576.3,211.5h16v1.7c0,8.6-9.7,12.9-29.1,12.9c-13.2,0-21.8-1.5-25.9-4.5s-6.1-9.3-6.1-19
				c0-8.6,2.1-14.4,6.4-17.3c4.3-3,12.6-4.4,24.9-4.4c11.8,0,19.8,1.4,23.8,4.3s6,8.5,6,17v3.2h-44.9c-0.1,1-0.1,1.6-0.1,1.9
				c0,4.3,1,7.2,3,8.7c2,1.4,6,2.2,12,2.2c5.8,0,9.6-0.4,11.4-1.3C575.3,216.1,576.3,214.3,576.3,211.5 M576.4,199l-0.1-1.8
				c0-3.5-0.9-5.8-2.7-6.8c-1.8-1.1-5.8-1.6-11.9-1.6c-5.9,0-9.8,0.6-11.5,1.9c-1.8,1.3-2.7,4-2.7,8.3H576.4z"/>
		</g>
		<g>
			<defs>
				<rect id="SVGID_17_" x="-0.1" y="-480.9" width="1336.1" height="944.7"/>
			</defs>
			<clipPath id="SVGID_18_">
				<use xlink:href="#SVGID_17_"  style="overflow:visible;"/>
			</clipPath>
			<path class="st9" d="M605.8,181.4h15.9l-1,6.2h0.3c3.8-4.6,9.8-6.9,17.9-6.9c11.7,0,17.5,4.9,17.5,14.7v3.1h-15
				c0.2-1.2,0.3-2,0.3-2.4c0-4.7-2.8-7.1-8.2-7.1c-7.9,0-11.8,3.5-11.8,10.5v26h-15.9L605.8,181.4L605.8,181.4z"/>
		</g>
		<g>
			<defs>
				<rect id="SVGID_19_" x="-0.1" y="-480.9" width="1336.1" height="944.7"/>
			</defs>
			<clipPath id="SVGID_20_">
				<use xlink:href="#SVGID_19_"  style="overflow:visible;"/>
			</clipPath>
			<path class="st10" d="M720.6,181.4l-19,44.2h-24.8l-20-44.2h16.8l8.7,20.4c1.2,2.8,2.3,5.6,3.3,8.2l1.6,4.1l1.6,4.1h0.3l1.5-4.1
				l1.5-4.1c1.1-3.1,2.1-5.8,3.1-8.2l8.2-20.4H720.6z"/>
		</g>
		<g>
			<defs>
				<rect id="SVGID_21_" x="-0.1" y="-480.9" width="1336.1" height="944.7"/>
			</defs>
			<clipPath id="SVGID_22_">
				<use xlink:href="#SVGID_21_"  style="overflow:visible;"/>
			</clipPath>
			<path class="st11" d="M744.3,194.2h-16.2c0-5.3,1.8-8.8,5.5-10.6c3.7-1.8,11-2.7,22-2.7c11.9,0,20,1.1,24.2,3.3
				c4.2,2.2,6.3,6.4,6.3,12.5v28.9h-15.9l0.8-6.1h-0.4c-3,4.4-10.1,6.6-21.1,6.6c-16,0-24.1-4.6-24.1-13.6c0-9.2,8.2-13.8,24.6-13.8
				c11,0,17.6,1.7,20,5h0.3v-7.2c0-3.5-0.9-5.7-2.7-6.9c-1.8-1.1-5.5-1.7-11.1-1.7C748.3,188,744.3,190.1,744.3,194.2 M754.8,205.8
				c-9,0-13.5,2.1-13.5,6.2c0,2.9,0.9,4.7,2.8,5.6c1.8,0.9,5.7,1.3,11.6,1.3c9.7,0,14.5-2.2,14.5-6.5S765.2,205.8,754.8,205.8"/>
		</g>
		<g>
			<defs>
				<rect id="SVGID_23_" x="-0.1" y="-480.9" width="1336.1" height="944.7"/>
			</defs>
			<clipPath id="SVGID_24_">
				<use xlink:href="#SVGID_23_"  style="overflow:visible;"/>
			</clipPath>
			<path class="st12" d="M844.7,181.4v8h-25.5v22.2c0,4.1,2.3,6.1,7,6.1c5.1,0,7.7-2.5,7.7-7.4v-1.8h13.5v2.2c0,2-0.1,3.8-0.3,5.2
				c-0.9,6.7-8.4,10.1-22.6,10.1c-14.1,0-21.2-4.3-21.2-13v-23.7h-8.6v-8h8.6v-9.9h15.9v9.9L844.7,181.4L844.7,181.4z"/>
		</g>
		<g>
			<defs>
				<rect id="SVGID_25_" x="-0.1" y="-480.9" width="1336.1" height="944.7"/>
			</defs>
			<clipPath id="SVGID_26_">
				<use xlink:href="#SVGID_25_"  style="overflow:visible;"/>
			</clipPath>
			<path class="st13" d="M885.2,180.9c12.8,0,21.2,1.4,25.2,4.1s6,8.5,6,17.3c0,9.8-1.9,16.2-5.8,19.3c-3.9,3.1-12.1,4.6-24.5,4.6
				c-13.5,0-22.3-1.4-26.3-4.3c-4-2.8-6-9.1-6-18.7c0-9.3,2-15.3,5.9-18.1C863.4,182.3,872.1,180.9,885.2,180.9 M885.1,189.3
				c-6.6,0-10.8,0.8-12.6,2.4c-1.8,1.6-2.7,5.3-2.7,11.1c0,6.7,0.9,10.8,2.6,12.5s6,2.5,12.8,2.5c6.6,0,10.8-0.9,12.5-2.6
				c1.7-1.8,2.6-6,2.6-12.7c0-5.6-0.9-9.2-2.7-10.8C895.8,190.1,891.6,189.3,885.1,189.3"/>
		</g>
		<g>
			<defs>
				<rect id="SVGID_27_" x="-0.1" y="-480.9" width="1336.1" height="944.7"/>
			</defs>
			<clipPath id="SVGID_28_">
				<use xlink:href="#SVGID_27_"  style="overflow:visible;"/>
			</clipPath>
			<path class="st14" d="M929.9,181.4h15.9l-1,6.2h0.3c3.8-4.6,9.8-6.9,17.9-6.9c11.7,0,17.5,4.9,17.5,14.7v3.1h-15
				c0.2-1.2,0.3-2,0.3-2.4c0-4.7-2.7-7.1-8.2-7.1c-7.9,0-11.8,3.5-11.8,10.5v26H930L929.9,181.4L929.9,181.4z"/>
		</g>
		<g>
			<defs>
				<rect id="SVGID_29_" x="-0.1" y="-480.9" width="1336.1" height="944.7"/>
			</defs>
			<clipPath id="SVGID_30_">
				<use xlink:href="#SVGID_29_"  style="display:none;overflow:visible;"/>
			</clipPath>
			<path class="st15" d="M1043.9,181.4l-17.4,47c-2.4,6.7-5.5,11.1-9.1,13.4s-9.4,3.4-17.4,3.4c-1.8,0-3.7-0.1-5.6-0.2v-7.8
				c1.4,0.1,2.5,0.1,3.5,0.1c6.7,0,11-3.9,12.8-11.7h-8.1L981,181.4h17.1l8.3,18.7l4.2,9.4c0.2,0.6,0.9,2.2,1.9,4.7l2,4.7h0.3
				l1.5-4.7c0.7-2.4,1.2-4,1.5-4.7l3.3-9.4l6.4-18.7L1043.9,181.4L1043.9,181.4z"/>
		</g>
	</g>
</g>
<g>
	<g>
		<g>
			<defs>
				<path id="SVGID_31_" d="M13,139.9c0,68.6,55.6,124.3,124.3,124.3c68.6,0,124.3-55.6,124.3-124.3c0-68.6-55.6-124.3-124.3-124.3
					C68.6,15.6,13,71.3,13,139.9"/>
			</defs>
			<clipPath id="SVGID_32_">
				<use xlink:href="#SVGID_31_"  style="overflow:visible;"/>
			</clipPath>
			
				<radialGradient id="SVGID_33_" cx="344.1058" cy="-362.4076" r="1" gradientTransform="matrix(144.019 0 0 144.019 -49444.1719 52290.0547)" gradientUnits="userSpaceOnUse">
				<stop  offset="0" style="stop-color:#FFFFFF"/>
				<stop  offset="5.618000e-03" style="stop-color:#FFFFFF"/>
				<stop  offset="0.1194" style="stop-color:#D2E2CC"/>
				<stop  offset="0.3795" style="stop-color:#6FB168"/>
				<stop  offset="0.4831" style="stop-color:#39A248"/>
				<stop  offset="0.8371" style="stop-color:#1F4397"/>
				<stop  offset="1" style="stop-color:#1F4397"/>
			</radialGradient>
			<rect x="13" y="15.6" class="st16" width="248.6" height="248.6"/>
		</g>
	</g>
	<g>
		<polygon class="st0" points="127.6,264.4 123.8,264.4 123.8,178.7 95,162.4 95,78.9 98.7,78.9 98.7,160.3 127.6,176.6 		"/>
		<polygon class="st0" points="77.8,135.8 53.8,127.9 53.8,101.5 57.5,101.5 57.5,125.2 78.9,132.3 		"/>
		<path class="st0" d="M55.5,101.8c-4.7,0-8.5-3.8-8.5-8.5s3.8-8.5,8.5-8.5s8.5,3.8,8.5,8.5C64,98,60.2,101.8,55.5,101.8 M55.5,88.2
			c-2.8,0-5.2,2.3-5.2,5.2c0,2.8,2.3,5.2,5.2,5.2c2.8,0,5.2-2.3,5.2-5.2S58.4,88.2,55.5,88.2"/>
		<polygon class="st0" points="96.8,152 76.5,143.4 76.5,108.6 80.2,108.6 80.2,141 98.2,148.7 		"/>
		<path class="st0" d="M78.6,109.5c-4.7,0-8.5-3.8-8.5-8.5s3.8-8.5,8.5-8.5s8.5,3.8,8.5,8.5S83.3,109.5,78.6,109.5 M78.6,95.9
			c-2.8,0-5.2,2.3-5.2,5.2c0,2.8,2.3,5.2,5.2,5.2c2.8,0,5.2-2.3,5.2-5.2C83.8,98.2,81.5,95.9,78.6,95.9"/>
		<path class="st0" d="M97,82.2c-4.7,0-8.5-3.8-8.5-8.5s3.8-8.5,8.5-8.5s8.5,3.8,8.5,8.5S101.7,82.2,97,82.2 M97,68.6
			c-2.8,0-5.2,2.3-5.2,5.2c0,2.8,2.3,5.2,5.2,5.2c2.8,0,5.2-2.3,5.2-5.2S99.9,68.6,97,68.6"/>
		<polygon class="st0" points="136.3,167 118.1,158.3 118.1,93.9 121.7,93.9 121.7,156 137.9,163.7 		"/>
		<polygon class="st0" points="122.3,120 120.2,117 140.1,103.2 140.1,80.5 143.6,80.5 143.6,105.1 		"/>
		<polygon class="st0" points="138.9,264.2 135.2,264.2 135.2,139 174.3,103.3 174.3,85.6 178.1,85.6 178.1,105 138.9,140.6 		"/>
		<rect x="159.2" y="63.7" class="st0" width="3.7" height="54.9"/>
		<path class="st0" d="M119.9,96.2c-4.7,0-8.5-3.8-8.5-8.5s3.8-8.5,8.5-8.5s8.5,3.8,8.5,8.5S124.6,96.2,119.9,96.2 M119.9,82.6
			c-2.8,0-5.2,2.3-5.2,5.2c0,2.8,2.3,5.2,5.2,5.2c2.8,0,5.2-2.3,5.2-5.2C125.1,84.9,122.8,82.6,119.9,82.6"/>
		<path class="st0" d="M141.6,82.9c-4.7,0-8.5-3.8-8.5-8.5s3.8-8.5,8.5-8.5s8.5,3.8,8.5,8.5S146.3,82.9,141.6,82.9 M141.6,69.3
			c-2.8,0-5.2,2.3-5.2,5.2c0,2.8,2.3,5.2,5.2,5.2c2.8,0,5.2-2.3,5.2-5.2S144.6,69.3,141.6,69.3"/>
		<path class="st0" d="M161.3,66.1c-4.7,0-8.5-3.8-8.5-8.5s3.8-8.5,8.5-8.5s8.5,3.8,8.5,8.5S166.1,66.1,161.3,66.1 M161.3,52.4
			c-2.8,0-5.2,2.3-5.2,5.2c0,2.8,2.3,5.2,5.2,5.2c2.8,0,5.2-2.3,5.2-5.2C166.6,54.8,164.2,52.4,161.3,52.4"/>
		<path class="st0" d="M176.3,88.2c-4.7,0-8.5-3.8-8.5-8.5s3.8-8.5,8.5-8.5s8.5,3.8,8.5,8.5S180.9,88.2,176.3,88.2 M176.3,74.6
			c-2.8,0-5.2,2.3-5.2,5.2c0,2.8,2.3,5.2,5.2,5.2c2.8,0,5.2-2.3,5.2-5.2C181.4,76.9,179.1,74.6,176.3,74.6"/>
		<polygon class="st0" points="150.6,264 146.8,264 146.8,151.8 147.4,151.3 196.1,108.6 196.1,97.1 199.8,97.1 199.8,110.3 
			199.2,110.9 150.6,153.5 		"/>
		<polygon class="st0" points="194.6,132.6 172.6,132.6 172.6,128.9 193.1,128.9 210.1,112.3 212.7,115 		"/>
		<polygon class="st0" points="149.7,171.2 147.6,168.3 181.6,142.5 219.2,142.5 219.2,146.2 182.8,146.2 		"/>
		<path class="st0" d="M197.7,99.7c-4.7,0-8.5-3.8-8.5-8.5s3.8-8.5,8.5-8.5s8.5,3.8,8.5,8.5S202.4,99.7,197.7,99.7 M197.7,86.1
			c-2.8,0-5.2,2.3-5.2,5.2s2.3,5.2,5.2,5.2c2.8,0,5.2-2.3,5.2-5.2S200.6,86.1,197.7,86.1"/>
		<path class="st0" d="M214.1,118.4c-4.7,0-8.5-3.8-8.5-8.5s3.8-8.5,8.5-8.5s8.5,3.8,8.5,8.5S218.7,118.4,214.1,118.4 M214.1,104.8
			c-2.9,0-5.2,2.3-5.2,5.2c0,2.8,2.3,5.2,5.2,5.2c2.8,0,5.2-2.3,5.2-5.2S216.9,104.8,214.1,104.8"/>
		<path class="st0" d="M225.1,152.4c-4.7,0-8.5-3.8-8.5-8.5s3.8-8.5,8.5-8.5s8.5,3.8,8.5,8.5C233.4,148.6,229.6,152.4,225.1,152.4
			 M225.1,138.8c-2.8,0-5.2,2.3-5.2,5.2c0,2.8,2.3,5.2,5.2,5.2c2.8,0,5.2-2.3,5.2-5.2C230.1,141.1,227.8,138.8,225.1,138.8"/>
		<polygon class="st0" points="161.9,263 158.3,263 158.3,184 170.4,184 191.6,165.5 204.1,165.5 204.1,169.2 193.1,169.2 
			171.8,187.7 161.9,187.7 		"/>
		<path class="st0" d="M210.8,175.8c-4.7,0-8.5-3.8-8.5-8.5s3.8-8.5,8.5-8.5s8.5,3.8,8.5,8.5S215.6,175.8,210.8,175.8 M210.8,162.2
			c-2.8,0-5.2,2.3-5.2,5.2c0,2.8,2.3,5.2,5.2,5.2c2.8,0,5.2-2.3,5.2-5.2C216.1,164.5,213.7,162.2,210.8,162.2"/>
		<polygon class="st0" points="116.1,263.1 112.4,263.1 112.4,187.7 102.5,187.7 81.3,169.2 70.3,169.2 70.3,165.6 82.7,165.5 
			103.9,184.1 116.1,184.1 		"/>
		<path class="st0" d="M63.4,175.9c-4.7,0-8.5-3.8-8.5-8.5s3.8-8.5,8.5-8.5s8.5,3.8,8.5,8.5S68.1,175.9,63.4,175.9 M63.4,162.2
			c-2.8,0-5.2,2.3-5.2,5.2c0,2.8,2.3,5.2,5.2,5.2c2.8,0,5.2-2.3,5.2-5.2C68.6,164.6,66.3,162.2,63.4,162.2"/>
	</g>
</g>
</svg>
