<?xml version="1.0" encoding="utf-8"?>
<!-- Generator: Adobe Illustrator 24.0.0, SVG Export Plug-In . SVG Version: 6.00 Build 0) -->
<svg version="1.1" id="Layer_1" xmlns="http://www.w3.org/2000/svg" xmlns:xlink="http://www.w3.org/1999/xlink" x="0px" y="0px" viewBox="0 0 741 932" style="enable-background:new 0 0 741 932;" xml:space="preserve">
	<style type="text/css">
		.st0{fill:#f00;}
		.st1{fill-rule:evenodd;clip-rule:evenodd;fill:#f00;filter:url(#Adobe_OpacityMaskFilter);}
		.st2{mask:url(#path-2-inside-1_1_);fill:#f0f;}
		.st3{fill-rule:evenodd;clip-rule:evenodd;fill:#f00;filter:url(#Adobe_OpacityMaskFilter_1_);}
		.st4{mask:url(#path-5-inside-2_1_);fill:#f0f;}
	</style>
	<path class="st0" d="M392,460c0,86.2-69.8,156-156,156S80,546.2,80,460s69.8-156,156-156S392,373.8,392,460z M80,637.1
	c41.6,36.7,96.2,58.9,156,58.9c130.3,0,236-105.7,236-236S366.3,224,236,224S0,329.7,0,460v452c0,11,9,20,20,20h40c11,0,20-9,20-20
	V637.1z" />
	<defs>
		<filter id="Adobe_OpacityMaskFilter" filterUnits="userSpaceOnUse" x="-5" y="219" width="482" height="718">
			<feColorMatrix type="matrix" values="1 0 0 0 0  0 1 0 0 0  0 0 1 0 0  0 0 0 1 0" />
		</filter>
	</defs>
	<mask maskUnits="userSpaceOnUse" x="-5" y="219" width="482" height="718" id="path-2-inside-1_1_">
		<path class="st1" d="M392,460c0,86.2-69.8,156-156,156S80,546.2,80,460s69.8-156,156-156S392,373.8,392,460z M80,637.1
		c41.6,36.7,96.2,58.9,156,58.9c130.3,0,236-105.7,236-236S366.3,224,236,224S0,329.7,0,460v452c0,11,9,20,20,20h40c11,0,20-9,20-20
		V637.1z" />
	</mask>
	<path class="st2" d="M80,637l3.3-3.8l-8.3-7.3V637H80z M236,621c88.9,0,161-72.1,161-161h-10c0,83.4-67.6,151-151,151V621z M75,460
	c0,88.9,72.1,161,161,161v-10c-83.4,0-151-67.6-151-151H75z M236,299c-88.9,0-161,72.1-161,161h10c0-83.4,67.6-151,151-151V299z
	 M397,460c0-88.9-72.1-161-161-161v10c83.4,0,151,67.6,151,151H397z M76.7,640.8C119.2,678.3,174.9,701,236,701v-10
	c-58.5,0-112-21.8-152.7-57.7L76.7,640.8z M236,701c133.1,0,241-107.9,241-241h-10c0,127.6-103.4,231-231,231V701z M477,460
	c0-133.1-107.9-241-241-241v10c127.6,0,231,103.4,231,231H477z M236,219C102.9,219-5,326.9-5,460H5c0-127.6,103.4-231,231-231V219z
	 M5,912V460H-5v452H5z M20,927c-8.3,0-15-6.7-15-15H-5c0,13.8,11.2,25,25,25V927z M60,927H20v10h40V927z M75,912c0,8.3-6.7,15-15,15
	v10c13.8,0,25-11.2,25-25H75z M75,637v275h10V637H75z" />
	<path class="st0" d="M295.1,356.3c25.3-52.6,77.7-91.4,99.9-100.2c0,0,80.9,50.1,47.9,64.8c-33,14.7-66.6,53.1-76,70.8
	C357.5,409.4,295.1,356.3,295.1,356.3z" />
	<path class="st0" d="M720.9,472h0.1v-8V20c0-11-9-20-20-20h-40c-11,0-20,9-20,20v266.9c-41.6-36.7-96.2-58.9-156-58.9
	c-130.3,0-236,105.7-236,236s105.7,236,236,236C612.7,700,716.6,598.6,720.9,472z M641,464c0-86.2-69.8-156-156-156
	s-156,69.8-156,156s69.8,156,156,156S641,550.2,641,464z" />
	<defs>
		<filter id="Adobe_OpacityMaskFilter_1_" filterUnits="userSpaceOnUse" x="254" y="-5" width="482" height="710">
			<feColorMatrix type="matrix" values="1 0 0 0 0  0 1 0 0 0  0 0 1 0 0  0 0 0 1 0" />
		</filter>
	</defs>
	<mask maskUnits="userSpaceOnUse" x="254" y="-5" width="482" height="710" id="path-5-inside-2_1_">
		<path class="st3" d="M730.9,472h0.1v-8V20c0-11-9-20-20-20h-40c-11,0-20,9-20,20v266.9c-41.6-36.7-96.2-58.9-156-58.9
		c-130.3,0-236,105.7-236,236s105.7,236,236,236C622.7,700,726.6,598.6,730.9,472z M651,464c0-86.2-69.8-156-156-156
		s-156,69.8-156,156s69.8,156,156,156S651,550.2,651,464z" />
	</mask>
	<path class="st4" d="M731,472v5h5v-5H731z M731,472v-5h-4.8l-0.2,4.8L731,472z M651,287l-3.3,3.8l8.3,7.3V287H651z M731,467h-1v10h1
	V467z M726,464v8h10v-8H726z M726,20v444h10V20H726z M711,5c8.3,0,15,6.7,15,15h10c0-13.8-11.2-25-25-25V5z M671,5h40V-5h-40V5z
	 M656,20c0-8.3,6.7-15,15-15V-5c-13.8,0-25,11.2-25,25H656z M656,287V20h-10v267H656z M654.3,283.2C611.8,245.7,556.1,223,495,223
	v10c58.5,0,112,21.8,152.7,57.7L654.3,283.2z M495,223c-133.1,0-241,107.9-241,241h10c0-127.6,103.4-231,231-231V223z M254,464
	c0,133.1,107.9,241,241,241v-10c-127.6,0-231-103.4-231-231H254z M495,705c130.4,0,236.6-103.5,240.9-232.8l-10-0.3
	C721.7,595.8,620,695,495,695V705z M656,464c0-88.9-72.1-161-161-161v10c83.4,0,151,67.6,151,151H656z M495,303
	c-88.9,0-161,72.1-161,161h10c0-83.4,67.6-151,151-151V303z M334,464c0,88.9,72.1,161,161,161v-10c-83.4,0-151-67.6-151-151H334z
	 M495,625c88.9,0,161-72.1,161-161h-10c0,83.4-67.6,151-151,151V625z" />
</svg>
