<svg width="25" height="24" viewBox="0 0 25 24" fill="none" xmlns="http://www.w3.org/2000/svg">
<path fill-rule="evenodd" clip-rule="evenodd" d="M6.34068 2.05059C4.4108 1.85257 2.27187 1.80807 0.893983 1.8284C0.543533 1.83358 0.255243 1.55367 0.250071 1.20322C0.244898 0.852773 0.524801 0.564484 0.875251 0.559311C2.287 0.538473 4.47765 0.58353 6.47024 0.787992C7.46515 0.890081 8.4286 1.03365 9.2276 1.23441C9.62716 1.33481 9.99913 1.45281 10.3194 1.5936C10.6328 1.73136 10.9362 1.90788 11.1629 2.14423C11.5303 2.52724 11.858 3.11248 12.144 3.73795C12.4369 4.3786 12.7129 5.12219 12.9591 5.86909C13.4512 7.36221 13.8389 8.91362 14.0136 9.77655C14.029 9.85257 14.0301 9.92816 14.0188 10.0005C14.4088 10.4743 14.6872 11.0245 14.8878 11.525C15.2077 12.323 15.3712 13.1037 15.4526 13.4922C15.4577 13.5168 15.4626 13.5398 15.4671 13.5612C15.5395 13.9041 15.3203 14.2408 14.9773 14.3133C14.6344 14.3857 14.2977 14.1665 14.2252 13.8236C14.221 13.8034 14.2165 13.7823 14.2119 13.7601C14.1306 13.3731 13.9868 12.6886 13.7097 11.9972C13.4097 11.2488 12.9985 10.6099 12.4571 10.2979C12.3514 10.237 12.149 10.1591 11.8272 10.0781C11.5155 9.99954 11.129 9.92693 10.6807 9.86086C9.78459 9.72877 8.67806 9.62802 7.50077 9.553C5.148 9.40308 2.55477 9.35847 0.886564 9.36359C0.536077 9.36467 0.25108 9.08141 0.250004 8.73092C0.248929 8.38044 0.532183 8.09544 0.88267 8.09437C2.57025 8.08919 5.19292 8.13414 7.58149 8.28634C8.77487 8.36238 9.92038 8.46584 10.8658 8.60519C11.3383 8.67483 11.77 8.75475 12.1373 8.84731C12.2704 8.88085 12.4008 8.9174 12.5253 8.95778C12.3311 8.17347 12.0638 7.2075 11.7536 6.2664C11.5157 5.54462 11.2563 4.84874 10.9897 4.26577C10.7162 3.66762 10.4601 3.24509 10.247 3.02282C10.1834 2.95653 10.0494 2.86136 9.80863 2.75552C9.57477 2.65272 9.27588 2.55523 8.9183 2.46538C8.20301 2.28565 7.30701 2.14975 6.34068 2.05059ZM0.250001 13.6391C0.250001 13.2887 0.534128 13.0045 0.884617 13.0045H6.4294V16.3258C6.4294 16.6763 6.14527 16.9604 5.79478 16.9604C5.44429 16.9604 5.16016 16.6763 5.16016 16.3258V14.2738H0.884617C0.534128 14.2738 0.250001 13.9896 0.250001 13.6391Z" fill="#C3002F"/>
<path fill-rule="evenodd" clip-rule="evenodd" d="M13.2681 14.3522H9.37707C9.08883 14.3522 8.85517 14.5859 8.85517 14.8741C8.85517 15.1624 9.08883 15.396 9.37707 15.396H13.2681C13.5564 15.396 13.79 15.1624 13.79 14.8741C13.79 14.5859 13.5564 14.3522 13.2681 14.3522ZM9.37707 13.083C8.38785 13.083 7.58594 13.8849 7.58594 14.8741C7.58594 15.8634 8.38785 16.6653 9.37707 16.6653H13.2681C14.2574 16.6653 15.0593 15.8634 15.0593 14.8741C15.0593 13.8849 14.2574 13.083 13.2681 13.083H9.37707Z" fill="#C3002F"/>
<path fill-rule="evenodd" clip-rule="evenodd" d="M14.7504 13.0977C15.9025 13.0977 16.8365 14.0316 16.8365 15.1837V20.5262C16.8365 22.1388 15.5292 23.4461 13.9166 23.4461H13.6387C12.2163 23.4461 11.0565 22.322 10.999 20.9138H0.884615C0.534127 20.9138 0.25 20.6296 0.25 20.2792C0.25 19.9287 0.534127 19.6445 0.884615 19.6445H12.5887C13.5672 19.6445 13.9158 19.3162 14.0566 19.0713C14.1481 18.9119 14.1897 18.7226 14.1958 18.5359H0.884615C0.534127 18.5359 0.25 18.2518 0.25 17.9013C0.25 17.5508 0.534127 17.2667 0.884615 17.2667H15.2291L15.3606 17.7269C15.503 18.2253 15.555 19.0111 15.1571 19.7036C14.7285 20.4495 13.8831 20.9138 12.5887 20.9138H12.2703C12.3262 21.6206 12.9175 22.1768 13.6387 22.1768H13.9166C14.8282 22.1768 15.5672 21.4378 15.5672 20.5262V15.1837C15.5672 14.7326 15.2015 14.3669 14.7504 14.3669V13.0977Z" fill="#C3002F"/>
<path fill-rule="evenodd" clip-rule="evenodd" d="M20.103 4.11396C19.0454 4.11396 18.0815 4.72043 17.6238 5.67384L16.0358 8.98199H21.907C22.2575 8.98199 22.5416 9.26611 22.5416 9.6166C22.5416 9.96709 22.2575 10.2512 21.907 10.2512H13.577C13.2265 10.2512 12.9424 9.96709 12.9424 9.6166C12.9424 9.26611 13.2265 8.98199 13.577 8.98199H14.6279L16.4796 5.12456C17.1486 3.73111 18.5573 2.84473 20.103 2.84473H23.9878V9.05065L25.0001 9.74873V18.0755H16.3247C15.9742 18.0755 15.6901 17.7914 15.6901 17.4409C15.6901 17.0904 15.9742 16.8063 16.3247 16.8063H23.7308V10.4152L22.7185 9.71717V4.11396H20.103Z" fill="#C3002F"/>
</svg>
