<?xml version="1.0" encoding="utf-8"?>
<!-- Generator: Adobe Illustrator 24.0.0, SVG Export Plug-In . SVG Version: 6.00 Build 0)  -->
<svg version="1.1" id="Layer_1" xmlns="http://www.w3.org/2000/svg" xmlns:xlink="http://www.w3.org/1999/xlink" x="0px" y="0px"
	 viewBox="0 0 379.2 150.5" style="enable-background:new 0 0 379.2 150.5;" xml:space="preserve">
<style type="text/css">
	.st0{fill:none;}
	.st1{fill:url(#SVGID_1_);}
	.st2{fill:#FFFFFF;}
</style>
<rect x="179.5" y="20.9" class="st0" width="149.8" height="75.2"/>
<rect x="5.5" y="135.3" class="st0" width="376.1" height="13.8"/>
<radialGradient id="SVGID_1_" cx="93.7132" cy="114.8224" r="62.5847" gradientTransform="matrix(1 0 0 -1 0 152)" gradientUnits="userSpaceOnUse">
	<stop  offset="5.618000e-03" style="stop-color:#FFFFFF"/>
	<stop  offset="0.1194" style="stop-color:#D2E2CC"/>
	<stop  offset="0.3796" style="stop-color:#6FB168"/>
	<stop  offset="0.4831" style="stop-color:#39A248"/>
	<stop  offset="0.8371" style="stop-color:#1F4397"/>
	<stop  offset="1" style="stop-color:#1F4397"/>
</radialGradient>
<path class="st1" d="M158,56c0,29.8-24.2,54-54,54S50,85.8,50,56S74.2,2,104,2S158,26.2,158,56z"/>
<path class="st2" d="M190,76.4V36.9c0-2.6-0.2-4.4-0.6-5.5c-0.4-1.1-1.1-2-2.1-2.8c-0.4-0.3-0.9-0.5-1.4-0.7s-1.1-0.4-1.9-0.5
	c-0.8-0.1-1.3-0.3-1.5-0.5s-0.4-0.5-0.4-0.8c0-0.5,0.2-0.9,0.4-1.1s0.7-0.3,1.4-0.3c0.1,0,0.5,0,1.2,0.1c4.7,0.3,9.6,0.5,14.8,0.5
	h4.3c3.7,0,7.7-0.1,11.9-0.4s6.4-0.4,6.9-0.4c0.6,0,1,0.1,1.2,0.4c0.2,0.2,0.3,0.7,0.3,1.4c0,0.1,0,0.3,0,0.6c0,0.3,0,0.5,0,0.7
	l-0.7,7.5c-0.1,0.7-0.2,1.2-0.4,1.5S223,37,222.6,37c-0.4,0-0.7-0.1-0.8-0.4c-0.2-0.3-0.3-0.7-0.3-1.2c0-0.1,0-0.3,0-0.5
	s0-0.4,0-0.5c0-2.2-0.8-3.8-2.4-4.7c-1.6-0.9-4.5-1.3-8.8-1.3h-6.4c-3,0-4.9,0.3-5.8,0.8c-0.8,0.5-1.3,1.5-1.3,2.9v18.7
	c0,1.6,0.2,2.6,0.6,3c0.4,0.3,1.2,0.5,2.6,0.5h7.5c2.8,0,4.9-0.2,6.1-0.7c1.3-0.4,2.3-1.2,3-2.3c0.3-0.4,0.6-1.3,1-2.4
	c0.4-1.2,0.8-1.8,1.5-1.8c0.4,0,0.6,0.1,0.7,0.4c0.1,0.3,0.2,0.8,0.2,1.7c0,0.5-0.1,1.7-0.2,3.6c-0.1,1.9-0.2,3.6-0.2,5
	c0,1.3,0.1,2.6,0.3,3.9c0.2,1.3,0.3,2,0.3,2.1c0,0.5-0.1,1-0.4,1.4c-0.3,0.4-0.6,0.6-0.9,0.6c-0.7,0-1.2-0.7-1.4-2.2
	c-0.1-1-0.3-1.8-0.5-2.3c-0.5-1.3-1.4-2.2-2.7-2.7s-3.3-0.8-6.1-0.8h-8.7c-1.1,0-1.9,0.2-2.2,0.5s-0.5,1.2-0.5,2.5v15.8
	c0,2.6,0.2,4.5,0.6,5.7c0.4,1.2,1.2,2.1,2.2,2.9c0.8,0.6,1.8,1,3.2,1.2c0.1,0,0.1,0,0.2,0c0.8,0.1,1.3,0.3,1.6,0.5s0.4,0.5,0.4,0.9
	c0,0.5-0.1,0.8-0.4,1c-0.3,0.2-0.8,0.3-1.5,0.3c-0.9,0-2.4-0.1-4.7-0.3c-2.3-0.2-4.1-0.3-5.5-0.3c-2.3,0-4.7,0.2-7.2,0.5
	c-0.5,0.1-0.8,0.1-0.9,0.1c-0.4,0-0.7-0.1-1-0.3c-0.2-0.2-0.3-0.5-0.3-0.9c0-0.3,0.1-0.6,0.3-0.8c0.2-0.2,0.7-0.5,1.3-0.8
	c0.5-0.2,1-0.4,1.4-0.7c0.4-0.3,0.8-0.6,1.1-0.9c0.7-0.9,1.3-1.8,1.6-2.9C189.8,80.4,190,78.7,190,76.4z"/>
<path class="st2" d="M237.5,76.4V36.9c0-2.6-0.2-4.4-0.6-5.5c-0.4-1.1-1.1-2-2-2.8c-0.4-0.3-0.9-0.5-1.4-0.7s-1.1-0.4-1.9-0.5
	c-0.8-0.1-1.3-0.3-1.5-0.5s-0.4-0.5-0.4-0.8c0-0.5,0.2-0.9,0.4-1.1s0.7-0.3,1.4-0.3c0.1,0,0.5,0,1.2,0.1c4.9,0.3,10.1,0.5,15.5,0.5
	c6.6,0,13.2-0.2,19.8-0.7c1.2-0.1,1.9-0.1,2.2-0.1c0.7,0,1.2,0.1,1.4,0.4c0.2,0.3,0.3,0.7,0.3,1.4v0.6c0,0,0,0.1,0,0.2s0,0.2,0,0.5
	l-0.6,7.5c-0.1,0.7-0.2,1.2-0.3,1.5c-0.1,0.3-0.4,0.4-0.8,0.4s-0.7-0.1-0.9-0.4c-0.2-0.3-0.3-0.7-0.3-1.2c0-0.1,0-0.3,0-0.5
	s0-0.4,0-0.5c0-2.2-0.8-3.8-2.4-4.7c-1.6-0.9-4.5-1.3-8.8-1.3h-6.4c-3,0-4.9,0.3-5.8,0.8c-0.8,0.5-1.3,1.5-1.3,2.9v18.7
	c0,1.6,0.2,2.6,0.6,3c0.4,0.3,1.2,0.5,2.6,0.5h7.5c2.8,0,4.8-0.2,6.1-0.7c1.3-0.4,2.3-1.2,3-2.3c0.4-0.5,0.7-1.3,1-2.5
	c0.3-1.1,0.8-1.7,1.4-1.7c0.3,0,0.6,0.2,0.8,0.5c0.2,0.4,0.3,0.8,0.3,1.5c0,0.1-0.1,1.2-0.2,3c-0.1,1.9-0.2,3.7-0.2,5.4
	s0.1,3.4,0.4,5.3c0.1,0.5,0.1,0.8,0.1,1c0,0.5-0.1,1-0.4,1.4s-0.5,0.6-0.9,0.6c-0.7,0-1.2-0.7-1.4-2.2c-0.2-1-0.3-1.8-0.5-2.3
	c-0.5-1.3-1.4-2.2-2.7-2.7c-1.3-0.5-3.3-0.8-6.1-0.8h-8.6c-1.1,0-1.9,0.2-2.2,0.5c-0.3,0.4-0.5,1.2-0.5,2.5v18.6
	c0,2.3,0.5,3.8,1.5,4.6c1,0.8,3,1.2,6,1.2c3.7,0,7.2-0.4,10.6-1.2c3.4-0.8,6.1-1.9,8.2-3.2c1.2-0.8,2.3-1.8,3.3-3.1
	c1-1.3,1.7-2,2.1-2c0.2,0,0.4,0.1,0.6,0.4c0.1,0.3,0.2,0.7,0.2,1.1c0,0.9-0.3,2-0.8,3.4c-0.6,1.4-1.2,2.6-2.1,3.7
	c-1.4,1.7-2.8,2.9-4.3,3.7c-1.5,0.7-3.3,1.1-5.6,1.1c-0.6,0-2.7-0.1-6.3-0.3c-3.6-0.2-6.8-0.3-9.8-0.3c-5.3,0-10.2,0.2-14.9,0.5
	c-0.7,0.1-1.1,0.1-1.2,0.1c-0.2,0-0.4-0.1-0.6-0.3c-0.2-0.2-0.3-0.5-0.3-0.7c0-0.4,0.1-0.7,0.3-1s0.7-0.5,1.4-0.9
	c0.1,0,0.1-0.1,0.2-0.1c1.1-0.5,1.9-1,2.4-1.6c0.8-0.8,1.3-1.7,1.6-2.8S237.5,78.8,237.5,76.4z"/>
<path class="st2" d="M284.1,83.5l-2-10.2c-0.1-0.2-0.1-0.4-0.1-0.7s0-0.6,0-1c0-0.5,0.1-0.9,0.3-1.1c0.2-0.2,0.4-0.4,0.8-0.4
	c0.7,0,1.3,0.9,2,2.8c0.6,1.7,1.2,3.1,1.7,4.2c1.4,2.8,3.5,5.1,6.4,6.7c2.8,1.6,6,2.5,9.5,2.5c4.6,0,8.3-1.3,11.1-3.8
	c2.8-2.5,4.2-5.9,4.2-10c0-3.4-1-6.2-3.1-8.1c-2.1-2-6.1-3.8-12-5.6c-7.1-2.1-12-4.5-14.7-7.2s-4.1-6.4-4.1-11.1
	c0-4.9,1.8-8.9,5.5-12s8.5-4.7,14.5-4.7c3.3,0,6.9,0.7,10.6,2.2c1,0.4,1.6,0.6,1.9,0.6c0.4,0,0.9-0.2,1.5-0.5s0.9-0.5,1-0.5
	s0.3,0.1,0.4,0.4c0.1,0.2,0.2,0.5,0.2,0.9L321,38c0,0.1,0.1,0.3,0.1,0.5s0,0.4,0,0.7c0,0.4-0.1,0.8-0.3,1c-0.2,0.2-0.5,0.3-0.8,0.3
	c-0.7,0-1.3-0.7-1.8-2.1c-0.5-1.4-1.1-2.5-1.6-3.4c-1.9-3-4-5.2-6.2-6.5s-4.9-2-8.1-2c-3.9,0-7.1,1.1-9.7,3.2
	c-2.6,2.2-3.8,4.9-3.8,8.1c0,2.9,0.8,5.2,2.4,6.8s5.3,3.4,11,5.2c4.8,1.5,8.1,2.7,10.1,3.6c1.9,0.9,3.5,1.9,4.6,3
	c2,1.8,3.5,3.9,4.4,6.2c1,2.3,1.4,5,1.4,8c0,5.9-2,10.5-6,13.9s-9.5,5.1-16.4,5.1c-4.3,0-7.9-0.6-11-1.8
	C286.1,86.7,284.5,85.2,284.1,83.5z"/>
<g>
	<g>
		<path class="st2" d="M3.4,145.8v-7.5c0-0.5,0-0.8-0.1-1s-0.2-0.4-0.4-0.5c-0.1-0.1-0.2-0.1-0.3-0.1s-0.2-0.1-0.4-0.1
			c-0.1,0-0.2-0.1-0.3-0.1c0,0-0.1-0.1-0.1-0.2c0-0.1,0-0.2,0.1-0.2c0,0,0.1-0.1,0.3-0.1c0,0,0.1,0,0.2,0c0.9,0.1,1.8,0.1,2.8,0.1H6
			c0.7,0,1.5,0,2.2-0.1c0.8-0.1,1.2-0.1,1.3-0.1s0.2,0,0.2,0.1c0,0,0.1,0.1,0.1,0.3v0.1c0,0.1,0,0.1,0,0.1v1.5c0,0.1,0,0.2-0.1,0.3
			c0,0.1-0.1,0.1-0.2,0.1c-0.1,0-0.1,0-0.2-0.1c0-0.1-0.1-0.1-0.1-0.2V138v-0.1c0-0.4-0.2-0.7-0.5-0.9s-0.9-0.3-1.7-0.3H6
			c-0.6,0-0.9,0-1.1,0.1s-0.2,0.3-0.2,0.5v3.6c0,0.3,0,0.5,0.1,0.6s0.2,0.1,0.5,0.1h1.4c0.5,0,0.9,0,1.2-0.1
			c0.2-0.1,0.4-0.2,0.6-0.4c0.1-0.1,0.1-0.2,0.2-0.5c0.1-0.2,0.2-0.3,0.3-0.3s0.1,0,0.1,0.1c0,0,0,0.2,0,0.3s0,0.3,0,0.7
			s0,0.7,0,0.9s0,0.5,0.1,0.7c0,0.3,0.1,0.4,0.1,0.4c0,0.1,0,0.2-0.1,0.3c0,0.1-0.1,0.1-0.2,0.1c-0.1,0-0.2-0.1-0.3-0.4
			c0-0.2-0.1-0.3-0.1-0.4c-0.1-0.2-0.3-0.4-0.5-0.5s-0.6-0.1-1.2-0.1H5.2c-0.2,0-0.4,0-0.4,0.1c-0.1,0.1-0.1,0.2-0.1,0.5v3
			c0,0.5,0,0.8,0.1,1.1c0.1,0.2,0.2,0.4,0.4,0.5c0.1,0.1,0.3,0.2,0.6,0.2l0,0c0.2,0,0.3,0.1,0.3,0.1s0.1,0.1,0.1,0.2
			c0,0.1,0,0.2-0.1,0.2c0,0-0.1,0.1-0.3,0.1c-0.2,0-0.5,0-0.9,0s-0.8,0-1,0c-0.4,0-0.9,0-1.4,0.1c-0.1,0-0.2,0-0.2,0
			c-0.1,0-0.1,0-0.2-0.1c0,0-0.1-0.1-0.1-0.2c0-0.1,0-0.1,0.1-0.2c0,0,0.1-0.1,0.3-0.2c0.1,0,0.2-0.1,0.3-0.1s0.1-0.1,0.2-0.2
			c0.1-0.2,0.2-0.3,0.3-0.6C3.3,146.6,3.4,146.2,3.4,145.8z"/>
		<path class="st2" d="M11.6,142.1c0-0.8,0.2-1.7,0.5-2.4c0.3-0.8,0.8-1.5,1.4-2.1c0.6-0.6,1.2-1,2-1.4c0.8-0.4,1.6-0.5,2.4-0.5
			c0.9,0,1.8,0.2,2.6,0.5c0.8,0.3,1.4,0.8,2,1.4c0.5,0.6,1,1.2,1.3,2s0.4,1.6,0.4,2.4c0,0.8-0.1,1.6-0.4,2.4c-0.3,0.8-0.7,1.4-1.1,2
			c-0.6,0.7-1.3,1.2-2.1,1.6c-0.8,0.4-1.6,0.5-2.6,0.5c-1.9,0-3.4-0.6-4.5-1.7C12.2,145.5,11.6,144,11.6,142.1z M12.9,141.6
			c0,0.7,0.1,1.4,0.3,2c0.2,0.7,0.5,1.3,0.8,1.9c0.5,0.8,1,1.4,1.7,1.8c0.7,0.4,1.4,0.6,2.3,0.6c1.5,0,2.7-0.5,3.5-1.4
			c0.9-1,1.3-2.3,1.3-3.9c0-0.7-0.1-1.4-0.3-2.1c-0.2-0.7-0.5-1.4-1-2c-0.5-0.7-1-1.2-1.7-1.5c-0.6-0.3-1.4-0.5-2.2-0.5
			c-1.4,0-2.6,0.5-3.5,1.4C13.4,138.8,12.9,140,12.9,141.6z"/>
		<path class="st2" d="M26.9,138.3c0-0.5,0-0.9-0.1-1.1c-0.1-0.2-0.2-0.4-0.4-0.5c-0.1-0.1-0.3-0.2-0.6-0.2l0,0
			c-0.1,0-0.2-0.1-0.3-0.1c0,0-0.1-0.1-0.1-0.2c0-0.1,0-0.1,0.1-0.2c0,0,0.1,0,0.3,0c0,0,0.3,0,0.6,0c0.4,0,0.7,0,1,0
			c0.5,0,1.1,0,1.6-0.1c0.1,0,0.1,0,0.2,0s0.1,0,0.2,0.1l0.1,0.1c0,0.1,0,0.1-0.1,0.2c-0.1,0-0.2,0.1-0.3,0.1H29
			c-0.2,0.1-0.3,0.1-0.4,0.2c-0.1,0.1-0.2,0.3-0.2,0.5s-0.1,0.6-0.1,1v4.2c0,1.2,0,2,0.1,2.5s0.2,0.9,0.5,1.2c0.3,0.4,0.7,0.8,1.2,1
			s1.1,0.4,1.8,0.4c0.7,0,1.3-0.1,1.8-0.3s0.9-0.5,1.3-1c0.3-0.3,0.4-0.7,0.5-1.2s0.2-1.3,0.2-2.5v-0.2v-4.1c0-0.5,0-0.8-0.1-1
			s-0.2-0.4-0.4-0.5c-0.1-0.1-0.2-0.1-0.3-0.1s-0.2-0.1-0.4-0.1s-0.3-0.1-0.3-0.1c-0.1,0-0.1-0.1-0.1-0.2c0-0.1,0-0.2,0.1-0.2
			c0,0,0.1-0.1,0.3-0.1c0.1,0,0.3,0,0.6,0s0.6,0,0.8,0c0.4,0,0.8,0,1.2-0.1c0.1,0,0.2,0,0.2,0c0.1,0,0.1,0,0.2,0.1l0.1,0.1
			c0,0.1,0,0.1-0.1,0.2c0,0.1-0.1,0.1-0.3,0.2c-0.1,0-0.2,0.1-0.3,0.1s-0.1,0.1-0.2,0.1c-0.1,0.1-0.2,0.3-0.3,0.5s-0.1,0.5-0.1,1
			v3.8c0,1.5-0.1,2.5-0.2,3.1c-0.1,0.6-0.4,1.1-0.7,1.5c-0.4,0.5-0.9,0.9-1.6,1.2c-0.6,0.3-1.3,0.4-2.1,0.4c-0.8,0-1.6-0.1-2.2-0.3
			s-1.1-0.6-1.5-1s-0.6-0.9-0.8-1.5s-0.2-1.5-0.2-2.8v-4.1H26.9z"/>
		<path class="st2" d="M40.4,145.3l0.1-4.5c0-0.1,0-0.2,0-0.3s0-0.3,0-0.5c0-0.8-0.1-1.4-0.2-1.8c-0.1-0.4-0.3-0.8-0.6-1
			c-0.2-0.2-0.4-0.3-0.8-0.4c-0.3-0.1-0.5-0.2-0.5-0.3s0-0.1,0.1-0.2c0,0,0.1,0,0.2-0.1c0,0,0.1,0,0.3,0s0.3,0,0.4,0H40
			c0.2,0,0.3,0,0.3,0c0.1,0,0.1,0.1,0.2,0.2l8.2,9.2c0.1,0.1,0.1,0.1,0.1,0.1s0,0,0.1,0c0,0,0,0,0-0.1c0,0,0-0.1,0-0.2v-5.9
			c0-0.9,0-1.5-0.1-1.9s-0.3-0.6-0.5-0.8c-0.2-0.1-0.4-0.2-0.8-0.3c-0.3-0.1-0.5-0.2-0.5-0.3s0-0.1,0.1-0.2l0.1-0.1
			c0,0,0.2,0,0.5,0.1c0.3,0,0.6,0.1,0.9,0.1c0.3,0,0.7,0,1-0.1c0.4,0,0.6-0.1,0.6-0.1c0.1,0,0.2,0,0.2,0.1c0.1,0,0.1,0.1,0.1,0.1
			c0,0.1,0,0.1,0,0.1s-0.1,0.1-0.2,0.1l0,0c-0.1,0-0.2,0.1-0.3,0.2c-0.2,0.1-0.3,0.3-0.4,0.6c-0.1,0.3-0.1,0.6-0.1,1v9.5
			c0,0.2,0,0.3,0,0.4c0,0.1-0.1,0.1-0.2,0.1c0,0-0.1,0-0.1-0.1c-0.1,0-0.1-0.1-0.2-0.2l-7.7-8.8l-0.1-0.1l-0.1-0.1
			c0,0-0.1,0-0.1,0.1v0.1l-0.2,6.1c0,0.1,0,0.2,0,0.4s0,0.3,0,0.3c0,0.5,0,0.8,0.1,1s0.3,0.4,0.5,0.5c0.1,0.1,0.3,0.1,0.5,0.1l0,0
			c0.1,0,0.2,0,0.3,0.1c0,0,0.1,0.1,0.1,0.2c0,0.1,0,0.1-0.1,0.2c0,0-0.2,0-0.3,0s-0.4,0-0.8,0c-0.4,0-0.8,0-1.2,0
			c-0.2,0-0.4,0-0.6,0c-0.2,0-0.4,0-0.4,0c-0.1,0-0.1,0-0.2,0l-0.1-0.1c0-0.1,0.1-0.2,0.3-0.3l0,0l0,0c0.2-0.1,0.3-0.1,0.4-0.2
			C40.1,147.2,40.3,146.5,40.4,145.3L40.4,145.3z"/>
		<path class="st2" d="M54.2,146.1V138c0-0.4,0-0.7-0.1-0.9s-0.2-0.3-0.4-0.4c-0.1-0.1-0.3-0.1-0.5-0.2l0,0c-0.2,0-0.3-0.1-0.3-0.1
			s-0.1-0.1-0.1-0.2c0-0.1,0-0.1,0.1-0.1s0.2-0.1,0.3-0.1c0,0,0.2,0,0.6,0c0.4,0,0.8,0,1.1,0s0.8,0,1.4,0c0.7,0,1.2,0,1.5,0
			c2.1,0,3.7,0.5,4.9,1.6c1.2,1,1.8,2.5,1.8,4.3c0,1.9-0.6,3.4-1.8,4.5s-2.8,1.7-4.8,1.7c-0.6,0-1.2,0-1.8-0.1c-0.7,0-1-0.1-1.1-0.1
			c-0.3,0-0.7,0-1,0.1s-0.5,0.1-0.5,0.1c-0.1,0-0.2,0-0.2-0.1c-0.1,0-0.1-0.1-0.1-0.1c0-0.1,0-0.1,0.1-0.2c0.1-0.1,0.2-0.1,0.3-0.2
			h0.1c0.2-0.1,0.3-0.1,0.3-0.2c0.1-0.1,0.3-0.3,0.3-0.5C54.1,146.8,54.2,146.5,54.2,146.1z M55.5,146.3c0,0.2,0,0.4,0,0.5
			s0.1,0.2,0.1,0.2c0.2,0.2,0.6,0.3,1,0.4c0.5,0.1,1,0.2,1.5,0.2c1.5,0,2.7-0.4,3.6-1.3c0.8-0.9,1.3-2.1,1.3-3.7
			c0-1.8-0.5-3.3-1.6-4.4c-1.1-1.1-2.5-1.6-4.3-1.6c-0.7,0-1.1,0.1-1.3,0.2c-0.2,0.1-0.3,0.4-0.3,0.9V146.3z"/>
		<path class="st2" d="M67.3,146.2l4.8-10.2c0-0.1,0.1-0.2,0.1-0.2s0.1,0,0.1-0.1c0.1,0,0.1,0.1,0.2,0.3l0,0l3.9,10
			c0.2,0.5,0.4,0.9,0.6,1.1c0.2,0.2,0.4,0.4,0.6,0.5c0.1,0,0.2,0.1,0.4,0.1c0.2,0,0.4,0.1,0.4,0.3c0,0.1,0,0.1-0.1,0.2
			c0,0-0.1,0-0.2,0c0,0-0.2,0-0.7-0.1c-0.4,0-0.9-0.1-1.3-0.1s-0.9,0-1.4,0.1c-0.1,0-0.2,0-0.2,0s-0.1,0-0.1-0.1l-0.1-0.1
			c0-0.1,0.1-0.2,0.3-0.3h0.1c0.2-0.1,0.4-0.2,0.5-0.3s0.1-0.2,0.1-0.3s0-0.2,0-0.3s-0.1-0.2-0.1-0.4l-0.9-2.3
			c-0.1-0.2-0.2-0.4-0.3-0.4c-0.1-0.1-0.3-0.1-0.5-0.1h-3.9c-0.2,0-0.3,0-0.4,0.1s-0.2,0.3-0.3,0.5l-0.9,1.8
			c-0.1,0.2-0.2,0.4-0.2,0.5s-0.1,0.3-0.1,0.4c0,0.2,0.1,0.3,0.2,0.4c0.1,0.1,0.3,0.2,0.5,0.3c0.1,0,0.2,0.1,0.3,0.1
			c0.2,0,0.3,0.1,0.3,0.2c0,0.1,0,0.1-0.1,0.2s-0.1,0.1-0.2,0.1s-0.3,0-0.8-0.1c-0.4,0-0.8-0.1-1.2-0.1c-0.2,0-0.4,0-0.6,0.1
			c-0.2,0-0.3,0.1-0.4,0.1s-0.1,0-0.1-0.1c0,0-0.1-0.1-0.1-0.2c0-0.1,0.1-0.2,0.3-0.3l0,0c0,0,0,0,0.1,0c0.1-0.1,0.3-0.1,0.3-0.2
			c0.1-0.1,0.3-0.3,0.4-0.5C67,146.8,67.1,146.5,67.3,146.2z M70.1,142.8h3.3c0.1,0,0.2,0,0.2,0c0.1,0,0.1-0.1,0.1-0.1
			s0-0.1-0.1-0.3l0,0l-1.6-4c0-0.1-0.1-0.1-0.1-0.2l-0.1-0.1c0,0-0.1,0-0.1,0.1l-0.1,0.1l-1.9,4c0,0.1-0.1,0.1-0.1,0.2
			c0,0.1,0,0.1,0,0.1c0,0.1,0,0.1,0.1,0.2C69.8,142.8,70,142.8,70.1,142.8z"/>
		<path class="st2" d="M84.1,146v-8.7c0-0.2,0-0.3-0.1-0.3c-0.1-0.1-0.2-0.1-0.4-0.1h-2.4c-0.3,0-0.6,0.1-0.8,0.2
			c-0.2,0.2-0.4,0.4-0.5,0.8c0,0.1-0.1,0.2-0.1,0.4c-0.1,0.3-0.2,0.4-0.3,0.4c-0.1,0-0.1,0-0.1-0.1c0,0,0-0.1,0-0.2
			c0-0.1,0-0.1,0-0.2v-0.1l0.2-1.7c0-0.2,0.1-0.3,0.1-0.3c0.1,0,0.2-0.1,0.5-0.1c0.1,0,0.3,0,0.8,0.1c0.5,0,0.9,0.1,1.3,0.1h5.4
			c0.4,0,0.9,0,1.4-0.1c0.5,0,0.8-0.1,0.8-0.1c0.1,0,0.2,0,0.3,0.1c0.1,0,0.1,0.1,0.1,0.2l0.1,1.6v0.1c0,0.1,0,0.2-0.1,0.2
			c0,0.1-0.1,0.1-0.2,0.1s-0.2-0.1-0.2-0.3s-0.1-0.4-0.1-0.5c-0.1-0.2-0.3-0.4-0.5-0.5s-0.5-0.2-0.9-0.2H86c-0.2,0-0.4,0-0.4,0.1
			c-0.1,0.1-0.1,0.2-0.1,0.4v8.8c0,0.5,0,0.9,0.1,1c0.1,0.2,0.3,0.3,0.5,0.4c0.1,0.1,0.3,0.1,0.5,0.2h0.1c0.2,0,0.3,0.1,0.3,0.1
			s0.1,0.1,0.1,0.2c0,0.1,0,0.2-0.1,0.2s-0.2,0.1-0.3,0.1c-0.1,0-0.4,0-0.9-0.1c-0.4,0-0.8-0.1-1.1-0.1c-0.4,0-0.8,0-1.2,0.1
			c-0.4,0.1-0.7,0.1-0.7,0.1c-0.1,0-0.2,0-0.2-0.1c-0.1,0-0.1-0.1-0.1-0.2c0-0.1,0-0.2,0.1-0.2s0.2-0.1,0.4-0.1h0.1
			c0.2,0,0.3-0.1,0.4-0.1c0.2-0.1,0.4-0.2,0.5-0.4C84.1,146.9,84.1,146.6,84.1,146z"/>
		<path class="st2" d="M93.1,145.8v-7.5c0-0.5,0-0.8-0.1-1s-0.2-0.4-0.4-0.5c-0.1-0.1-0.3-0.2-0.6-0.2l0,0c-0.2,0-0.3-0.1-0.3-0.1
			s-0.1-0.1-0.1-0.2c0-0.1,0-0.1,0.1-0.2s0.1-0.1,0.3-0.1c0,0,0.3,0,0.6,0.1c0.4,0,0.7,0.1,1.1,0.1c0.6,0,1.2,0,1.7-0.1
			c0.1,0,0.2,0,0.2,0c0.1,0,0.1,0,0.2,0.1c0.1,0,0.1,0.1,0.1,0.2c0,0.1,0,0.1-0.1,0.2c0,0-0.2,0.1-0.3,0.1c-0.2,0-0.3,0.1-0.4,0.1
			s-0.2,0.1-0.2,0.1c-0.1,0.1-0.2,0.3-0.3,0.5c-0.1,0.2-0.1,0.5-0.1,1v7.5c0,0.5,0,0.8,0.1,1.1c0.1,0.2,0.2,0.4,0.4,0.5
			c0.1,0.1,0.3,0.2,0.6,0.2l0,0c0.2,0,0.3,0.1,0.3,0.1c0.1,0,0.1,0.1,0.1,0.2c0,0.1,0,0.2-0.1,0.2c0,0-0.1,0.1-0.3,0.1
			c-0.2,0-0.5,0-0.9,0s-0.7,0-1,0c-0.5,0-1.1,0-1.6,0.1c-0.1,0-0.2,0-0.2,0c-0.1,0-0.2,0-0.2-0.1c0,0-0.1-0.1-0.1-0.2
			c0-0.1,0.1-0.2,0.3-0.3l0,0c0.1,0,0.2-0.1,0.3-0.1c0.1-0.1,0.2-0.1,0.3-0.2c0.2-0.2,0.3-0.3,0.4-0.5
			C93.1,146.6,93.1,146.3,93.1,145.8z"/>
		<path class="st2" d="M97.7,142.1c0-0.8,0.2-1.7,0.5-2.4c0.3-0.8,0.8-1.5,1.4-2.1s1.2-1,2-1.4c0.8-0.3,1.6-0.5,2.4-0.5
			c0.9,0,1.8,0.2,2.6,0.5c0.8,0.3,1.4,0.8,2,1.4c0.5,0.6,1,1.2,1.3,2s0.4,1.6,0.4,2.4c0,0.8-0.1,1.6-0.4,2.4c-0.3,0.8-0.7,1.4-1.1,2
			c-0.6,0.7-1.3,1.2-2.1,1.6c-0.8,0.4-1.6,0.5-2.6,0.5c-1.9,0-3.4-0.6-4.5-1.7C98.3,145.5,97.7,144,97.7,142.1z M99,141.6
			c0,0.7,0.1,1.4,0.3,2s0.5,1.3,0.8,1.9c0.5,0.8,1,1.4,1.7,1.8c0.7,0.4,1.4,0.6,2.3,0.6c1.5,0,2.7-0.5,3.5-1.4
			c0.9-1,1.3-2.3,1.3-3.9c0-0.7-0.1-1.4-0.3-2.1c-0.2-0.7-0.5-1.4-1-2c-0.5-0.7-1-1.2-1.7-1.5c-0.6-0.3-1.4-0.5-2.2-0.5
			c-1.4,0-2.6,0.5-3.5,1.4C99.5,138.8,99,140,99,141.6z"/>
		<path class="st2" d="M113.2,145.3l0.1-4.5c0-0.1,0-0.2,0-0.3s0-0.3,0-0.5c0-0.8-0.1-1.4-0.2-1.8c-0.1-0.4-0.3-0.8-0.6-1
			c-0.2-0.2-0.4-0.3-0.8-0.4c-0.3-0.1-0.5-0.2-0.5-0.3s0-0.1,0.1-0.2c0,0,0.1,0,0.2-0.1c0,0,0.1,0,0.3,0c0.2,0,0.3,0,0.4,0h0.5
			c0.2,0,0.3,0,0.3,0c0.1,0,0.1,0.1,0.2,0.2l8.2,9.2c0.1,0.1,0.1,0.1,0.1,0.1s0,0,0.1,0c0,0,0,0,0-0.1c0,0,0-0.1,0-0.2v-5.9
			c0-0.9,0-1.5-0.1-1.9s-0.3-0.6-0.5-0.8c-0.2-0.1-0.4-0.2-0.8-0.3c-0.3-0.1-0.5-0.2-0.5-0.3s0-0.1,0.1-0.2l0.1-0.1
			c0,0,0.2,0,0.5,0.1c0.3,0,0.6,0.1,0.9,0.1s0.7,0,1-0.1c0.4,0,0.6-0.1,0.6-0.1c0.1,0,0.2,0,0.2,0.1c0.1,0,0.1,0.1,0.1,0.1
			c0,0.1,0,0.1,0,0.1s-0.1,0.1-0.2,0.1l0,0c-0.1,0-0.2,0.1-0.3,0.2c-0.2,0.1-0.3,0.3-0.4,0.6s-0.1,0.6-0.1,1v9.5c0,0.2,0,0.3,0,0.4
			c0,0.1-0.1,0.1-0.2,0.1c0,0-0.1,0-0.1-0.1c-0.1,0-0.1-0.1-0.2-0.2L114,139l-0.1-0.1l-0.1-0.1c0,0-0.1,0-0.1,0.1v0.1l-0.2,6.1
			c0,0.1,0,0.2,0,0.4s0,0.3,0,0.3c0,0.5,0,0.8,0.1,1s0.3,0.4,0.5,0.5c0.1,0.1,0.3,0.1,0.5,0.1l0,0c0.1,0,0.2,0,0.3,0.1
			c0,0,0.1,0.1,0.1,0.2c0,0.1,0,0.1-0.1,0.2c0,0-0.2,0-0.3,0c-0.1,0-0.4,0-0.8,0s-0.8,0-1.2,0c-0.2,0-0.4,0-0.6,0s-0.4,0-0.4,0
			c-0.1,0-0.1,0-0.2,0l-0.1-0.1c0-0.1,0.1-0.2,0.3-0.3l0,0l0,0c0.2-0.1,0.3-0.1,0.4-0.2C113,147.2,113.2,146.5,113.2,145.3
			L113.2,145.3z"/>
		<path class="st2" d="M131.9,145.8v-7.5c0-0.5,0-0.8-0.1-1s-0.2-0.4-0.4-0.5c-0.1-0.1-0.2-0.1-0.3-0.1s-0.2-0.1-0.4-0.1
			c-0.1,0-0.2-0.1-0.3-0.1c0,0-0.1-0.1-0.1-0.2c0-0.1,0-0.2,0.1-0.2c0,0,0.1-0.1,0.3-0.1c0,0,0.1,0,0.2,0c0.9,0.1,1.8,0.1,2.8,0.1
			h0.8c0.7,0,1.5,0,2.2-0.1c0.8-0.1,1.2-0.1,1.3-0.1s0.2,0,0.2,0.1c0,0,0.1,0.1,0.1,0.3v0.1c0,0.1,0,0.1,0,0.1l-0.1,1.4
			c0,0.1,0,0.2-0.1,0.3c0,0.1-0.1,0.1-0.2,0.1c-0.1,0-0.1,0-0.2-0.1c0-0.1-0.1-0.1-0.1-0.2v-0.1v-0.1c0-0.4-0.2-0.7-0.5-0.9
			s-0.9-0.3-1.7-0.3h-1.2c-0.6,0-0.9,0-1.1,0.1c-0.2,0.1-0.2,0.3-0.2,0.5v3.6c0,0.3,0,0.5,0.1,0.6s0.2,0.1,0.5,0.1h1.4
			c0.5,0,0.9,0,1.2-0.1c0.2-0.1,0.4-0.2,0.6-0.4c0.1-0.1,0.1-0.2,0.2-0.5c0.1-0.2,0.2-0.3,0.3-0.3s0.1,0,0.1,0.1c0,0,0,0.2,0,0.3
			s0,0.3,0,0.7s0,0.7,0,0.9s0,0.5,0.1,0.7s0.1,0.4,0.1,0.4c0,0.1,0,0.2-0.1,0.3c0,0.1-0.1,0.1-0.2,0.1c-0.1,0-0.2-0.1-0.3-0.4
			c0-0.2-0.1-0.3-0.1-0.4c-0.1-0.2-0.3-0.4-0.5-0.5s-0.6-0.1-1.2-0.1h-1.6c-0.2,0-0.4,0-0.4,0.1c-0.1,0.1-0.1,0.2-0.1,0.5v3
			c0,0.5,0,0.8,0.1,1.1c0.1,0.2,0.2,0.4,0.4,0.5c0.1,0.1,0.3,0.2,0.6,0.2l0,0c0.2,0,0.3,0.1,0.3,0.1s0.1,0.1,0.1,0.2
			c0,0.1,0,0.2-0.1,0.2c0,0-0.1,0.1-0.3,0.1s-0.5,0-0.9,0s-0.8,0-1,0c-0.4,0-0.9,0-1.4,0.1c-0.1,0-0.2,0-0.2,0c-0.1,0-0.1,0-0.2-0.1
			c0,0-0.1-0.1-0.1-0.2c0-0.1,0-0.1,0.1-0.2c0,0,0.1-0.1,0.3-0.2c0.1,0,0.2-0.1,0.3-0.1s0.1-0.1,0.2-0.2c0.1-0.2,0.2-0.3,0.3-0.6
			C131.8,146.6,131.9,146.2,131.9,145.8z"/>
		<path class="st2" d="M140.1,142.1c0-0.8,0.2-1.7,0.5-2.4c0.3-0.8,0.8-1.5,1.4-2.1c0.6-0.6,1.2-1,2-1.4c0.8-0.3,1.6-0.5,2.4-0.5
			c0.9,0,1.8,0.2,2.6,0.5s1.4,0.8,2,1.4c0.5,0.6,1,1.2,1.3,2s0.4,1.6,0.4,2.4c0,0.8-0.1,1.6-0.4,2.4c-0.3,0.8-0.7,1.4-1.1,2
			c-0.6,0.7-1.3,1.2-2.1,1.6c-0.8,0.4-1.6,0.5-2.6,0.5c-1.9,0-3.4-0.6-4.5-1.7C140.7,145.5,140.1,144,140.1,142.1z M141.4,141.6
			c0,0.7,0.1,1.4,0.3,2c0.2,0.7,0.5,1.3,0.8,1.9c0.5,0.8,1,1.4,1.7,1.8c0.7,0.4,1.4,0.6,2.3,0.6c1.5,0,2.7-0.5,3.5-1.4
			c0.9-1,1.3-2.3,1.3-3.9c0-0.7-0.1-1.4-0.3-2.1c-0.2-0.7-0.5-1.4-1-2c-0.5-0.7-1-1.2-1.7-1.5c-0.6-0.3-1.4-0.5-2.2-0.5
			c-1.4,0-2.6,0.5-3.5,1.4C141.9,138.8,141.4,140,141.4,141.6z"/>
		<path class="st2" d="M155.8,145.8v-7.5c0-0.5,0-0.8-0.1-1s-0.2-0.4-0.4-0.5c-0.1-0.1-0.2-0.1-0.2-0.1c-0.1,0-0.2-0.1-0.3-0.1
			s-0.2-0.1-0.3-0.1c0,0-0.1-0.1-0.1-0.2c0-0.1,0-0.2,0.1-0.2c0,0,0.1-0.1,0.3-0.1c0.1,0,0.3,0,0.6,0c0.4,0,0.7,0,1,0
			c0.1,0,0.5,0,1.1,0s1.1,0,1.5,0c1.2,0,2.1,0.3,2.7,0.8c0.6,0.5,1,1.2,1,2.2c0,0.6-0.2,1.2-0.6,1.8c-0.4,0.5-0.9,0.9-1.6,1.2l2,3
			c0.1,0.1,0.1,0.2,0.2,0.3c0.8,1.3,1.4,2,1.9,2.2c0.1,0.1,0.3,0.1,0.5,0.2c0.2,0,0.3,0.1,0.3,0.2c0,0.1-0.1,0.2-0.2,0.2
			c-0.1,0-0.4,0.1-0.8,0.1c-0.6,0-1-0.1-1.4-0.4c-0.4-0.3-0.9-0.9-1.5-1.8l-1.8-2.8c-0.2-0.3-0.4-0.5-0.6-0.6
			c-0.2-0.1-0.6-0.2-1.1-0.2c-0.3,0-0.6,0-0.7,0.1c-0.1,0.1-0.2,0.2-0.2,0.5v2.8c0,0.5,0,0.9,0.1,1.1c0.1,0.2,0.2,0.4,0.5,0.5
			c0.1,0.1,0.4,0.2,0.7,0.2l0,0c0.2,0,0.3,0.1,0.3,0.1c0.1,0,0.1,0.1,0.1,0.2c0,0.1,0,0.2-0.1,0.2c0,0-0.1,0.1-0.3,0.1
			c-0.1,0-0.3,0-0.8,0c-0.4,0-0.8,0-1.2,0c-0.6,0-1.2,0-1.7,0.1c-0.1,0-0.2,0-0.2,0c-0.1,0-0.2,0-0.2-0.1c0,0-0.1-0.1-0.1-0.2
			c0-0.1,0.1-0.2,0.3-0.3l0,0c0.1,0,0.2-0.1,0.3-0.1c0.1-0.1,0.2-0.1,0.3-0.2c0.2-0.1,0.3-0.3,0.4-0.5
			C155.7,146.6,155.8,146.3,155.8,145.8z M157.1,137.3v4.2c0,0.2,0.1,0.3,0.2,0.3c0.1,0.1,0.4,0.1,0.8,0.1h0.2
			c1.1,0,1.9-0.2,2.4-0.6c0.5-0.4,0.7-1,0.7-1.8c0-0.9-0.3-1.6-0.9-2.1c-0.6-0.5-1.4-0.7-2.4-0.7c-0.4,0-0.6,0-0.8,0.1
			C157.2,136.9,157.1,137,157.1,137.3z"/>
		<path class="st2" d="M172.3,145.8v-7.5c0-0.5,0-0.8-0.1-1s-0.2-0.4-0.4-0.5c-0.1-0.1-0.2-0.1-0.3-0.1s-0.2-0.1-0.4-0.1
			c-0.1,0-0.2-0.1-0.3-0.1c0,0-0.1-0.1-0.1-0.2c0-0.1,0-0.2,0.1-0.2c0,0,0.1-0.1,0.3-0.1c0,0,0.1,0,0.2,0c0.9,0.1,1.9,0.1,2.9,0.1
			c1.3,0,2.5,0,3.8-0.1c0.2,0,0.4,0,0.4,0c0.1,0,0.2,0,0.3,0.1c0,0,0.1,0.1,0.1,0.3v0.1l0,0c0,0,0,0,0,0.1l-0.1,1.4
			c0,0.1,0,0.2-0.1,0.3l-0.1,0.1c-0.1,0-0.1,0-0.2-0.1c0-0.1-0.1-0.1-0.1-0.2V138v-0.1c0-0.4-0.1-0.7-0.4-0.9
			c-0.3-0.2-0.8-0.3-1.6-0.3H175c-0.6,0-0.9,0-1.1,0.1c-0.2,0.1-0.2,0.3-0.2,0.5v3.6c0,0.3,0,0.5,0.1,0.6s0.2,0.1,0.5,0.1h1.4
			c0.5,0,0.9,0,1.2-0.1s0.4-0.2,0.6-0.4c0.1-0.1,0.1-0.3,0.2-0.5c0.1-0.2,0.2-0.3,0.3-0.3s0.1,0,0.1,0.1s0.1,0.2,0.1,0.3
			c0,0,0,0.2,0,0.6c0,0.3,0,0.7,0,1s0,0.6,0.1,1c0,0.1,0,0.2,0,0.2c0,0.1,0,0.2-0.1,0.3c0,0.1-0.1,0.1-0.2,0.1
			c-0.1,0-0.2-0.1-0.3-0.4c0-0.2-0.1-0.3-0.1-0.4c-0.1-0.2-0.3-0.4-0.5-0.5s-0.6-0.1-1.2-0.1h-1.6c-0.2,0-0.4,0-0.4,0.1
			c-0.1,0.1-0.1,0.2-0.1,0.5v3.5c0,0.4,0.1,0.7,0.3,0.9c0.2,0.1,0.6,0.2,1.1,0.2c0.7,0,1.4-0.1,2-0.2c0.6-0.1,1.2-0.3,1.6-0.6
			c0.2-0.1,0.4-0.3,0.6-0.6c0.2-0.3,0.3-0.4,0.4-0.4c0,0,0.1,0,0.1,0.1s0,0.1,0,0.2c0,0.2-0.1,0.4-0.2,0.6c-0.1,0.3-0.2,0.5-0.4,0.7
			c-0.3,0.3-0.5,0.6-0.8,0.7c-0.3,0.1-0.6,0.2-1.1,0.2c-0.1,0-0.5,0-1.2-0.1c-0.7,0-1.3-0.1-1.9-0.1c-1,0-1.9,0-2.8,0.1
			c-0.1,0-0.2,0-0.2,0s-0.1,0-0.1-0.1l-0.1-0.1c0-0.1,0-0.1,0.1-0.2c0,0,0.1-0.1,0.3-0.2l0,0c0.2-0.1,0.4-0.2,0.5-0.3
			c0.1-0.2,0.2-0.3,0.3-0.5C172.2,146.6,172.3,146.3,172.3,145.8z"/>
		<path class="st2" d="M191.5,147c-0.6,0.5-1.3,0.8-2,1s-1.6,0.3-2.5,0.3c-1.8,0-3.2-0.5-4.3-1.6s-1.6-2.6-1.6-4.5
			c0-1,0.2-1.8,0.5-2.6s0.7-1.5,1.3-2.1c0.5-0.6,1.1-1,1.8-1.2c0.7-0.3,1.5-0.4,2.4-0.4c0.5,0,1,0.1,1.5,0.2
			c0.5,0.1,0.9,0.3,1.4,0.5c0.2,0.1,0.4,0.2,0.7,0.4s0.4,0.3,0.5,0.3s0.1,0,0.2-0.1c0.1-0.1,0.2-0.1,0.2-0.1c0.1,0,0.1,0,0.1,0.1
			s0,0.1,0.1,0.3l0.2,1.8v0.1c0,0.1,0,0.1,0,0.2c0,0.1,0,0.2,0,0.2l-0.1,0.1c-0.1,0-0.3-0.2-0.4-0.5c-0.1-0.2-0.2-0.4-0.3-0.6
			c-0.5-0.8-1.1-1.4-1.8-1.8c-0.7-0.4-1.4-0.6-2.2-0.6c-1.3,0-2.4,0.5-3.3,1.5c-0.8,1-1.3,2.2-1.3,3.8c0,1.8,0.4,3.3,1.3,4.5
			c0.9,1.2,2,1.7,3.4,1.7c0.6,0,1.2-0.1,1.8-0.4c0.6-0.2,1.1-0.6,1.6-1c0.2-0.2,0.4-0.5,0.6-0.8c0.2-0.3,0.3-0.5,0.4-0.5
			c0,0,0.1,0,0.1,0.1c0,0,0,0.1,0,0.2v0.1c0,0,0,0.1,0,0.2L191.5,147z"/>
		<path class="st2" d="M193.6,142.1c0-0.8,0.2-1.7,0.5-2.4c0.3-0.8,0.8-1.5,1.4-2.1c0.6-0.6,1.2-1,2-1.4c0.8-0.3,1.6-0.5,2.4-0.5
			c0.9,0,1.8,0.2,2.6,0.5s1.4,0.8,2,1.4c0.5,0.6,1,1.2,1.3,2s0.4,1.6,0.4,2.4c0,0.8-0.1,1.6-0.4,2.4c-0.3,0.8-0.7,1.4-1.1,2
			c-0.6,0.7-1.3,1.2-2.1,1.6c-0.8,0.4-1.6,0.5-2.6,0.5c-1.9,0-3.4-0.6-4.5-1.7C194.2,145.5,193.6,144,193.6,142.1z M194.9,141.6
			c0,0.7,0.1,1.4,0.3,2c0.2,0.7,0.5,1.3,0.8,1.9c0.5,0.8,1,1.4,1.7,1.8c0.7,0.4,1.4,0.6,2.3,0.6c1.5,0,2.7-0.5,3.5-1.4
			c0.9-1,1.3-2.3,1.3-3.9c0-0.7-0.1-1.4-0.3-2.1c-0.2-0.7-0.5-1.4-1-2c-0.5-0.7-1-1.2-1.6-1.5s-1.4-0.5-2.2-0.5
			c-1.4,0-2.6,0.5-3.5,1.4S194.9,140,194.9,141.6z"/>
		<path class="st2" d="M209.2,145.8v-7.5c0-0.5,0-0.9-0.1-1.1c-0.1-0.2-0.2-0.4-0.4-0.5c-0.1-0.1-0.2-0.1-0.3-0.2
			c-0.1,0-0.2-0.1-0.3-0.1l0,0c-0.2,0-0.3-0.1-0.3-0.2c0-0.1,0-0.2,0.1-0.2c0,0,0.1-0.1,0.3-0.1c0.1,0,0.3,0,0.6,0.1
			c0.4,0,0.7,0.1,1,0.1c0.5,0,1.1,0,1.6-0.1c0.1,0,0.2,0,0.2,0c0.1,0,0.1,0,0.2,0.1c0,0,0.1,0.1,0.1,0.2c0,0.1-0.1,0.2-0.4,0.3l0,0
			h-0.1c-0.2,0.1-0.3,0.1-0.4,0.2c-0.1,0.1-0.3,0.3-0.3,0.5c-0.1,0.2-0.1,0.5-0.1,1v8c0,0.4,0.1,0.7,0.3,0.9s0.5,0.2,1.1,0.2
			c0.7,0,1.4-0.1,2-0.2c0.6-0.1,1.2-0.3,1.6-0.6c0.2-0.2,0.4-0.4,0.6-0.6c0.2-0.3,0.3-0.4,0.4-0.4c0,0,0.1,0,0.1,0.1s0,0.1,0,0.2
			c0,0.2-0.1,0.4-0.2,0.7c-0.1,0.3-0.2,0.5-0.4,0.7c-0.2,0.3-0.5,0.5-0.8,0.6s-0.7,0.2-1.1,0.2c-0.1,0-0.6,0-1.3,0s-1.4,0-1.9,0
			c-0.9,0-1.8,0-2.6,0.1c-0.1,0-0.2,0-0.2,0s-0.1,0-0.1-0.1L208,148c0-0.1,0-0.1,0.1-0.2c0,0,0.1-0.1,0.3-0.2l0,0
			c0.2-0.1,0.3-0.2,0.4-0.3c0.2-0.2,0.3-0.3,0.3-0.5C209.2,146.6,209.2,146.2,209.2,145.8z"/>
		<path class="st2" d="M217.9,142.1c0-0.8,0.2-1.7,0.5-2.4c0.3-0.8,0.8-1.5,1.4-2.1c0.6-0.6,1.2-1,2-1.4c0.8-0.3,1.6-0.5,2.4-0.5
			c0.9,0,1.8,0.2,2.6,0.5s1.4,0.8,2,1.4c0.5,0.6,1,1.2,1.3,2s0.4,1.6,0.4,2.4c0,0.8-0.1,1.6-0.4,2.4c-0.3,0.8-0.7,1.4-1.1,2
			c-0.6,0.7-1.3,1.2-2.1,1.6c-0.8,0.4-1.6,0.5-2.6,0.5c-1.9,0-3.4-0.6-4.5-1.7C218.4,145.5,217.9,144,217.9,142.1z M219.2,141.6
			c0,0.7,0.1,1.4,0.3,2c0.2,0.7,0.5,1.3,0.8,1.9c0.5,0.8,1,1.4,1.7,1.8c0.7,0.4,1.4,0.6,2.3,0.6c1.5,0,2.7-0.5,3.5-1.4
			c0.9-1,1.3-2.3,1.3-3.9c0-0.7-0.1-1.4-0.3-2.1c-0.2-0.7-0.5-1.4-1-2c-0.5-0.7-1-1.2-1.6-1.5s-1.4-0.5-2.2-0.5
			c-1.4,0-2.6,0.5-3.5,1.4S219.2,140,219.2,141.6z"/>
		<path class="st2" d="M241.4,145.4v-2.1c0-0.3,0-0.4-0.1-0.6c-0.1-0.1-0.2-0.3-0.5-0.4c-0.1,0-0.2-0.1-0.3-0.1l0,0
			c-0.2,0-0.3-0.1-0.3-0.1s-0.1-0.1-0.1-0.2c0-0.1,0-0.2,0.1-0.2c0,0,0.1-0.1,0.3-0.1c0,0,0.3,0,0.7,0.1c0.4,0,0.8,0.1,1.1,0.1
			s0.6,0,1-0.1c0.1,0,0.1,0,0.2,0c0,0,0,0,0.1,0s0.1,0,0.1,0c0.1,0,0.1,0,0.1,0.1v0.1c0,0.1,0,0.1,0,0.2c0,0-0.1,0.1-0.2,0.1h-0.1
			c0,0-0.1,0-0.1,0.1c-0.1,0.1-0.2,0.2-0.3,0.3s-0.1,0.3-0.1,0.6v2.7c0,0,0,0.1,0,0.2c0,0.1,0,0.2,0,0.2c0,0.2-0.1,0.4-0.4,0.5
			c-0.1,0.1-0.3,0.1-0.4,0.2l-0.2,0.1c-1.5,0.9-2.9,1.3-4.2,1.3c-1.7,0-3.1-0.6-4.2-1.7c-1-1.1-1.6-2.6-1.6-4.4c0-1,0.2-1.8,0.5-2.6
			s0.8-1.5,1.3-2.1s1.2-1,1.8-1.3c0.7-0.3,1.5-0.4,2.4-0.4c0.5,0,1.1,0.1,1.6,0.2c0.5,0.1,1,0.3,1.5,0.5c0.1,0.1,0.3,0.2,0.6,0.3
			c0.2,0.1,0.4,0.2,0.5,0.2c0,0,0.1,0,0.2-0.1c0.1-0.1,0.2-0.1,0.2-0.1c0.1,0,0.1,0,0.1,0.1s0,0.1,0.1,0.3l0.2,1.8
			c0,0.1,0,0.1,0,0.2c0,0,0,0.1,0,0.2c0,0.1,0,0.2,0,0.2l-0.1,0.1c-0.1,0-0.2-0.2-0.4-0.5c-0.2-0.4-0.3-0.7-0.5-0.9
			c-0.4-0.6-1-1-1.7-1.4c-0.7-0.3-1.4-0.5-2.2-0.5c-1.3,0-2.4,0.5-3.3,1.5c-0.9,1-1.3,2.2-1.3,3.8c0,1.8,0.5,3.3,1.4,4.4
			c0.9,1.2,2.1,1.8,3.4,1.8c0.4,0,0.9-0.1,1.4-0.2c0.5-0.1,0.9-0.3,1.2-0.6c0.2-0.2,0.4-0.4,0.5-0.6
			C241.4,146.1,241.4,145.8,241.4,145.4z"/>
		<path class="st2" d="M246.6,145.8v-7.5c0-0.5,0-0.8-0.1-1s-0.2-0.4-0.4-0.5c-0.1-0.1-0.3-0.2-0.6-0.2l0,0c-0.2,0-0.3-0.1-0.3-0.1
			s-0.1-0.1-0.1-0.2c0-0.1,0-0.1,0.1-0.2c0,0,0.1-0.1,0.3-0.1c0,0,0.3,0,0.6,0.1c0.4,0,0.7,0.1,1.1,0.1c0.6,0,1.2,0,1.7-0.1
			c0.1,0,0.2,0,0.2,0c0.1,0,0.1,0,0.2,0.1c0.1,0,0.1,0.1,0.1,0.2c0,0.1,0,0.1-0.1,0.2c0,0-0.2,0.1-0.3,0.1c-0.2,0-0.3,0.1-0.4,0.1
			c-0.1,0-0.2,0.1-0.2,0.1c-0.1,0.1-0.2,0.3-0.3,0.5s-0.1,0.5-0.1,1v7.5c0,0.5,0,0.8,0.1,1.1c0.1,0.2,0.2,0.4,0.4,0.5
			c0.1,0.1,0.3,0.2,0.6,0.2l0,0c0.2,0,0.3,0.1,0.3,0.1c0.1,0,0.1,0.1,0.1,0.2c0,0.1,0,0.2-0.1,0.2c0,0-0.1,0.1-0.3,0.1s-0.5,0-0.9,0
			s-0.7,0-1,0c-0.5,0-1.1,0-1.6,0.1c-0.1,0-0.2,0-0.2,0c-0.1,0-0.2,0-0.2-0.1c0,0-0.1-0.1-0.1-0.2c0-0.1,0.1-0.2,0.3-0.3l0,0
			c0.1,0,0.2-0.1,0.3-0.1c0.1-0.1,0.2-0.1,0.3-0.2c0.2-0.2,0.3-0.3,0.4-0.5C246.6,146.6,246.6,146.3,246.6,145.8z"/>
		<path class="st2" d="M261.5,147c-0.6,0.5-1.3,0.8-2,1s-1.6,0.3-2.5,0.3c-1.8,0-3.2-0.5-4.3-1.6s-1.6-2.6-1.6-4.5
			c0-1,0.2-1.8,0.5-2.6s0.7-1.5,1.3-2.1c0.5-0.6,1.1-1,1.8-1.2c0.7-0.3,1.5-0.4,2.4-0.4c0.5,0,1,0.1,1.5,0.2
			c0.5,0.1,0.9,0.3,1.4,0.5c0.2,0.1,0.4,0.2,0.7,0.4c0.3,0.2,0.4,0.3,0.5,0.3c0,0,0.1,0,0.2-0.1s0.2-0.1,0.2-0.1s0.1,0,0.1,0.1
			s0,0.1,0.1,0.3l0.2,1.8v0.1c0,0.1,0,0.1,0,0.2c0,0.1,0,0.2,0,0.2l-0.1,0.1c-0.1,0-0.3-0.2-0.4-0.5c-0.1-0.2-0.2-0.4-0.3-0.6
			c-0.5-0.8-1.1-1.4-1.8-1.8c-0.7-0.4-1.4-0.6-2.2-0.6c-1.3,0-2.4,0.5-3.3,1.5c-0.8,1-1.3,2.2-1.3,3.8c0,1.8,0.4,3.3,1.3,4.5
			c0.9,1.2,2,1.7,3.4,1.7c0.6,0,1.2-0.1,1.8-0.4c0.6-0.2,1.1-0.6,1.6-1c0.2-0.2,0.4-0.5,0.6-0.8s0.3-0.5,0.4-0.5c0,0,0.1,0,0.1,0.1
			c0,0,0,0.1,0,0.2v0.1c0,0.1,0,0.1,0,0.2L261.5,147z"/>
		<path class="st2" d="M264.8,146.2l4.8-10.2c0-0.1,0.1-0.2,0.1-0.2s0.1,0,0.1-0.1c0.1,0,0.1,0.1,0.2,0.3l0,0l3.9,10
			c0.2,0.5,0.4,0.9,0.6,1.1c0.2,0.2,0.4,0.4,0.6,0.5c0.1,0,0.2,0.1,0.4,0.1c0.2,0,0.4,0.1,0.4,0.3c0,0.1,0,0.1-0.1,0.2
			c0,0-0.1,0-0.2,0c0,0-0.2,0-0.7-0.1c-0.4,0-0.9-0.1-1.3-0.1s-0.9,0-1.4,0.1c-0.1,0-0.2,0-0.2,0s-0.1,0-0.1-0.1l-0.1-0.1
			c0-0.1,0.1-0.2,0.3-0.3h0.1c0.2-0.1,0.4-0.2,0.5-0.3s0.1-0.2,0.1-0.3s0-0.2,0-0.3s-0.1-0.2-0.1-0.4l-0.9-2.3
			c-0.1-0.2-0.2-0.4-0.3-0.4c-0.1-0.1-0.3-0.1-0.5-0.1h-3.9c-0.2,0-0.3,0-0.4,0.1s-0.2,0.3-0.3,0.5l-0.9,1.8
			c-0.1,0.2-0.2,0.4-0.2,0.5s-0.1,0.3-0.1,0.4c0,0.2,0.1,0.3,0.2,0.4c0.1,0.1,0.3,0.2,0.5,0.3c0.1,0,0.2,0.1,0.3,0.1
			c0.2,0,0.3,0.1,0.3,0.2c0,0.1,0,0.1-0.1,0.2c0,0-0.1,0.1-0.2,0.1s-0.3,0-0.8-0.1c-0.4,0-0.8-0.1-1.2-0.1c-0.2,0-0.4,0-0.6,0.1
			c-0.2,0-0.3,0.1-0.4,0.1s-0.1,0-0.1-0.1c0,0-0.1-0.1-0.1-0.2c0-0.1,0.1-0.2,0.3-0.3l0,0c0,0,0,0,0.1,0c0.1-0.1,0.3-0.1,0.3-0.2
			c0.1-0.1,0.3-0.3,0.4-0.5C264.4,146.8,264.6,146.5,264.8,146.2z M267.6,142.8h3.3c0.1,0,0.2,0,0.2,0c0.1,0,0.1-0.1,0.1-0.1
			s0-0.1-0.1-0.3l0,0l-1.6-4c0-0.1-0.1-0.1-0.1-0.2l-0.1-0.1c0,0-0.1,0-0.1,0.1l-0.1,0.1l-1.9,4c0,0.1-0.1,0.1-0.1,0.2
			c0,0.1,0,0.1,0,0.1c0,0.1,0,0.1,0.1,0.2C267.3,142.8,267.4,142.8,267.6,142.8z"/>
		<path class="st2" d="M278.6,145.8v-7.5c0-0.5,0-0.9-0.1-1.1c-0.1-0.2-0.2-0.4-0.4-0.5c-0.1-0.1-0.2-0.1-0.3-0.2
			c-0.1,0-0.2-0.1-0.3-0.1l0,0c-0.2,0-0.3-0.1-0.3-0.2c0-0.1,0-0.2,0.1-0.2c0,0,0.1-0.1,0.3-0.1c0.1,0,0.3,0,0.6,0.1
			c0.4,0,0.7,0.1,1,0.1c0.5,0,1.1,0,1.6-0.1c0.1,0,0.2,0,0.2,0c0.1,0,0.1,0,0.2,0.1c0,0,0.1,0.1,0.1,0.2c0,0.1-0.1,0.2-0.4,0.3l0,0
			h-0.1c-0.2,0.1-0.3,0.1-0.4,0.2c-0.1,0.1-0.3,0.3-0.3,0.5c-0.1,0.2-0.1,0.5-0.1,1v8c0,0.4,0.1,0.7,0.3,0.9
			c0.2,0.2,0.5,0.2,1.1,0.2c0.7,0,1.4-0.1,2-0.2c0.6-0.1,1.2-0.3,1.6-0.6c0.2-0.2,0.4-0.4,0.6-0.6c0.2-0.3,0.3-0.4,0.4-0.4
			c0,0,0.1,0,0.1,0.1s0,0.1,0,0.2c0,0.2-0.1,0.4-0.2,0.7s-0.2,0.5-0.4,0.7c-0.2,0.3-0.5,0.5-0.8,0.6s-0.7,0.2-1.1,0.2
			c-0.1,0-0.6,0-1.3,0c-0.7,0-1.4,0-1.9,0c-0.9,0-1.8,0-2.6,0.1c-0.1,0-0.2,0-0.2,0s-0.1,0-0.1-0.1l-0.1-0.1c0-0.1,0-0.1,0.1-0.2
			c0,0,0.1-0.1,0.3-0.2l0,0c0.2-0.1,0.3-0.2,0.4-0.3c0.2-0.2,0.3-0.3,0.3-0.5C278.6,146.6,278.6,146.2,278.6,145.8z"/>
		<path class="st2" d="M292.5,147.2l-0.4-1.9v-0.1c0,0,0-0.1,0-0.2c0-0.1,0-0.2,0.1-0.2c0,0,0.1-0.1,0.2-0.1s0.2,0.2,0.4,0.5
			c0.1,0.3,0.2,0.6,0.3,0.8c0.3,0.5,0.7,1,1.2,1.3s1.1,0.5,1.8,0.5c0.9,0,1.6-0.2,2.1-0.7s0.8-1.1,0.8-1.9c0-0.7-0.2-1.2-0.6-1.5
			c-0.4-0.4-1.2-0.7-2.3-1.1c-1.3-0.4-2.3-0.8-2.8-1.4c-0.5-0.5-0.8-1.2-0.8-2.1c0-0.9,0.4-1.7,1.1-2.3s1.6-0.9,2.8-0.9
			c0.6,0,1.3,0.1,2,0.4c0.2,0.1,0.3,0.1,0.4,0.1s0.2,0,0.3-0.1c0.1-0.1,0.2-0.1,0.2-0.1s0.1,0,0.1,0.1c0,0,0,0.1,0,0.2l0.2,2.1v0.1
			v0.1c0,0.1,0,0.1-0.1,0.2c0,0-0.1,0.1-0.2,0.1s-0.2-0.1-0.3-0.4c-0.1-0.3-0.2-0.5-0.3-0.6c-0.4-0.6-0.8-1-1.2-1.2
			c-0.4-0.3-0.9-0.4-1.5-0.4c-0.7,0-1.4,0.2-1.8,0.6c-0.5,0.4-0.7,0.9-0.7,1.5s0.2,1,0.5,1.3s1,0.6,2.1,1c0.9,0.3,1.5,0.5,1.9,0.7
			s0.7,0.4,0.9,0.6c0.4,0.3,0.7,0.7,0.8,1.2c0.2,0.4,0.3,0.9,0.3,1.5c0,1.1-0.4,2-1.1,2.6c-0.8,0.6-1.8,1-3.1,1
			c-0.8,0-1.5-0.1-2.1-0.3C292.9,147.8,292.6,147.5,292.5,147.2z"/>
		<path class="st2" d="M303.1,145.8v-7.5c0-0.5,0-0.8-0.1-1s-0.2-0.4-0.4-0.5c-0.1-0.1-0.2-0.1-0.3-0.1c-0.1,0-0.2-0.1-0.4-0.1
			c-0.1,0-0.2-0.1-0.3-0.1c0,0-0.1-0.1-0.1-0.2c0-0.1,0-0.2,0.1-0.2c0,0,0.1-0.1,0.3-0.1c0,0,0.1,0,0.2,0c0.9,0.1,1.9,0.1,2.9,0.1
			c1.3,0,2.5,0,3.8-0.1c0.2,0,0.4,0,0.4,0c0.1,0,0.2,0,0.3,0.1c0,0,0.1,0.1,0.1,0.3v0.1l0,0c0,0,0,0,0,0.1l-0.1,1.4
			c0,0.1,0,0.2-0.1,0.3l-0.1,0.1c-0.1,0-0.1,0-0.2-0.1c0-0.1-0.1-0.1-0.1-0.2V138v-0.1c0-0.4-0.2-0.7-0.4-0.9
			c-0.3-0.2-0.8-0.3-1.6-0.3h-1.2c-0.6,0-0.9,0-1.1,0.1s-0.2,0.3-0.2,0.5v3.6c0,0.3,0,0.5,0.1,0.6s0.2,0.1,0.5,0.1h1.4
			c0.5,0,0.9,0,1.2-0.1c0.2-0.1,0.4-0.2,0.6-0.4c0.1-0.1,0.1-0.3,0.2-0.5s0.2-0.3,0.3-0.3c0.1,0,0.1,0,0.1,0.1s0.1,0.2,0.1,0.3
			c0,0,0,0.2,0,0.6c0,0.3,0,0.7,0,1s0,0.6,0.1,1c0,0.1,0,0.2,0,0.2c0,0.1,0,0.2-0.1,0.3c0,0.1-0.1,0.1-0.2,0.1s-0.2-0.1-0.3-0.4
			c0-0.2-0.1-0.3-0.1-0.4c-0.1-0.2-0.3-0.4-0.5-0.5s-0.6-0.1-1.2-0.1H305c-0.2,0-0.4,0-0.4,0.1c-0.1,0.1-0.1,0.2-0.1,0.5v3.5
			c0,0.4,0.1,0.7,0.3,0.9c0.2,0.1,0.6,0.2,1.1,0.2c0.7,0,1.4-0.1,2-0.2c0.6-0.1,1.2-0.3,1.6-0.6c0.2-0.1,0.4-0.3,0.6-0.6
			s0.3-0.4,0.4-0.4c0,0,0.1,0,0.1,0.1s0,0.1,0,0.2c0,0.2-0.1,0.4-0.2,0.6c-0.1,0.3-0.2,0.5-0.4,0.7c-0.3,0.3-0.5,0.6-0.8,0.7
			c-0.3,0.1-0.6,0.2-1.1,0.2c-0.1,0-0.5,0-1.2-0.1c-0.7,0-1.3-0.1-1.9-0.1c-1,0-1.9,0-2.8,0.1c-0.1,0-0.2,0-0.2,0s-0.1,0-0.1-0.1
			l-0.1-0.1c0-0.1,0-0.1,0.1-0.2c0,0,0.1-0.1,0.3-0.2l0,0c0.2-0.1,0.4-0.2,0.5-0.3c0.1-0.2,0.2-0.3,0.3-0.5
			C303.1,146.6,303.1,146.3,303.1,145.8z"/>
		<path class="st2" d="M322.4,147c-0.6,0.5-1.3,0.8-2,1s-1.6,0.3-2.5,0.3c-1.8,0-3.3-0.5-4.3-1.6c-1.1-1.1-1.6-2.6-1.6-4.5
			c0-1,0.2-1.8,0.5-2.6s0.7-1.5,1.3-2.1c0.5-0.6,1.1-1,1.8-1.2c0.7-0.3,1.5-0.4,2.4-0.4c0.5,0,1,0.1,1.5,0.2
			c0.5,0.1,0.9,0.3,1.4,0.5c0.2,0.1,0.4,0.2,0.7,0.4c0.3,0.2,0.4,0.3,0.5,0.3s0.1,0,0.2-0.1s0.2-0.1,0.2-0.1s0.1,0,0.1,0.1
			s0,0.1,0.1,0.3l0.2,1.8v0.1c0,0.1,0,0.1,0,0.2c0,0.1,0,0.2,0,0.2l-0.1,0.1c-0.1,0-0.3-0.2-0.4-0.5c-0.1-0.2-0.2-0.4-0.3-0.6
			c-0.5-0.8-1.1-1.4-1.8-1.8c-0.7-0.4-1.4-0.6-2.2-0.6c-1.3,0-2.4,0.5-3.3,1.5c-0.8,1-1.3,2.2-1.3,3.8c0,1.8,0.4,3.3,1.3,4.5
			s2,1.7,3.4,1.7c0.6,0,1.2-0.1,1.8-0.4c0.6-0.2,1.1-0.6,1.6-1c0.2-0.2,0.4-0.5,0.6-0.8s0.3-0.5,0.4-0.5c0,0,0.1,0,0.1,0.1
			c0,0,0,0.1,0,0.2v0.1c0,0.1,0,0.1,0,0.2L322.4,147z"/>
		<path class="st2" d="M325.6,138.3c0-0.5,0-0.9-0.1-1.1c-0.1-0.2-0.2-0.4-0.4-0.5c-0.1-0.1-0.3-0.2-0.6-0.2l0,0
			c-0.1,0-0.2-0.1-0.3-0.1c0,0-0.1-0.1-0.1-0.2c0-0.1,0-0.1,0.1-0.2c0,0,0.1,0,0.3,0c0,0,0.3,0,0.6,0c0.4,0,0.7,0,1,0
			c0.5,0,1.1,0,1.6-0.1c0.1,0,0.1,0,0.2,0s0.1,0,0.2,0.1l0.1,0.1c0,0.1,0,0.1-0.1,0.2c-0.1,0-0.2,0.1-0.3,0.1h-0.1
			c-0.2,0.1-0.3,0.1-0.4,0.2c-0.1,0.1-0.2,0.3-0.2,0.5s-0.1,0.6-0.1,1v4.2c0,1.2,0,2,0.1,2.5s0.2,0.9,0.5,1.2c0.3,0.4,0.7,0.8,1.2,1
			s1.1,0.4,1.8,0.4c0.7,0,1.3-0.1,1.8-0.3s0.9-0.5,1.3-1c0.3-0.3,0.4-0.7,0.5-1.2s0.2-1.3,0.2-2.5v-0.2v-4.1c0-0.5,0-0.8-0.1-1
			s-0.2-0.4-0.4-0.5c-0.1-0.1-0.2-0.1-0.3-0.1c-0.1,0-0.2-0.1-0.4-0.1c-0.2,0-0.3-0.1-0.3-0.1c-0.1,0-0.1-0.1-0.1-0.2
			c0-0.1,0-0.2,0.1-0.2c0,0,0.1-0.1,0.3-0.1c0.1,0,0.3,0,0.6,0c0.3,0,0.6,0,0.8,0c0.4,0,0.8,0,1.2-0.1c0.1,0,0.2,0,0.2,0
			c0.1,0,0.1,0,0.2,0.1l0.1,0.1c0,0.1,0,0.1-0.1,0.2c0,0.1-0.1,0.1-0.3,0.2c-0.1,0-0.2,0.1-0.3,0.1c-0.1,0-0.1,0.1-0.2,0.1
			c-0.1,0.1-0.2,0.3-0.3,0.5c-0.1,0.2-0.1,0.5-0.1,1v3.8c0,1.5-0.1,2.5-0.2,3.1s-0.4,1.1-0.7,1.5c-0.4,0.5-0.9,0.9-1.6,1.2
			c-0.6,0.3-1.3,0.4-2.1,0.4c-0.8,0-1.6-0.1-2.2-0.3s-1.1-0.6-1.5-1s-0.6-0.9-0.8-1.5c-0.2-0.6-0.2-1.5-0.2-2.8v-4.1H325.6z"/>
		<path class="st2" d="M339.1,145.8v-7.5c0-0.5,0-0.8-0.1-1s-0.2-0.4-0.4-0.5c-0.1-0.1-0.2-0.1-0.2-0.1c-0.1,0-0.2-0.1-0.4-0.1
			c-0.1,0-0.2-0.1-0.3-0.1c0,0-0.1-0.1-0.1-0.2c0-0.1,0-0.2,0.1-0.2c0,0,0.1-0.1,0.3-0.1c0.1,0,0.3,0,0.6,0c0.4,0,0.7,0,1,0
			c0.1,0,0.5,0,1.1,0s1.1,0,1.5,0c1.2,0,2.1,0.3,2.7,0.8s1,1.2,1,2.2c0,0.6-0.2,1.2-0.6,1.8c-0.4,0.5-0.9,0.9-1.6,1.2l2,3
			c0.1,0.1,0.1,0.2,0.2,0.3c0.8,1.3,1.4,2,1.9,2.2c0.1,0.1,0.3,0.1,0.5,0.2c0.2,0,0.3,0.1,0.3,0.2c0,0.1-0.1,0.2-0.2,0.2
			s-0.4,0.1-0.8,0.1c-0.6,0-1-0.1-1.4-0.4c-0.4-0.3-0.9-0.9-1.5-1.8l-1.8-2.8c-0.2-0.3-0.4-0.5-0.6-0.6s-0.6-0.2-1.1-0.2
			c-0.3,0-0.6,0-0.7,0.1s-0.2,0.2-0.2,0.5v2.8c0,0.5,0,0.9,0.1,1.1c0.1,0.2,0.2,0.4,0.5,0.5c0.1,0.1,0.4,0.2,0.7,0.2l0,0
			c0.2,0,0.3,0.1,0.3,0.1c0.1,0,0.1,0.1,0.1,0.2c0,0.1,0,0.2-0.1,0.2c0,0-0.1,0.1-0.3,0.1c-0.1,0-0.3,0-0.8,0c-0.4,0-0.8,0-1.2,0
			c-0.6,0-1.2,0-1.7,0.1c-0.1,0-0.2,0-0.2,0c-0.1,0-0.2,0-0.2-0.1c0,0-0.1-0.1-0.1-0.2c0-0.1,0.1-0.2,0.3-0.3l0,0
			c0.1,0,0.2-0.1,0.3-0.1c0.1-0.1,0.2-0.1,0.3-0.2c0.2-0.1,0.3-0.3,0.4-0.5C339.1,146.6,339.1,146.3,339.1,145.8z M340.5,137.3v4.2
			c0,0.2,0.1,0.3,0.2,0.3c0.1,0.1,0.4,0.1,0.8,0.1h0.2c1.1,0,1.9-0.2,2.4-0.6c0.5-0.4,0.7-1,0.7-1.8c0-0.9-0.3-1.6-0.9-2.1
			s-1.4-0.7-2.4-0.7c-0.4,0-0.6,0-0.8,0.1C340.5,136.9,340.5,137,340.5,137.3z"/>
		<path class="st2" d="M351,145.8v-7.5c0-0.5,0-0.8-0.1-1s-0.2-0.4-0.4-0.5c-0.1-0.1-0.3-0.2-0.6-0.2l0,0c-0.2,0-0.3-0.1-0.3-0.1
			s-0.1-0.1-0.1-0.2c0-0.1,0-0.1,0.1-0.2c0.1,0,0.1-0.1,0.3-0.1c0,0,0.3,0,0.6,0.1c0.4,0,0.7,0.1,1.1,0.1c0.6,0,1.2,0,1.7-0.1
			c0.1,0,0.2,0,0.2,0c0.1,0,0.1,0,0.2,0.1c0,0,0.1,0.1,0.1,0.2c0,0.1,0,0.1-0.1,0.2c0,0-0.2,0.1-0.3,0.1c-0.2,0-0.3,0.1-0.4,0.1
			s-0.2,0.1-0.2,0.1c-0.1,0.1-0.2,0.3-0.3,0.5c-0.1,0.2-0.1,0.5-0.1,1v7.5c0,0.5,0,0.8,0.1,1.1c0.1,0.2,0.2,0.4,0.4,0.5
			c0.1,0.1,0.3,0.2,0.6,0.2l0,0c0.2,0,0.3,0.1,0.3,0.1s0.1,0.1,0.1,0.2c0,0.1,0,0.2-0.1,0.2c0,0-0.1,0.1-0.3,0.1c-0.2,0-0.5,0-0.9,0
			s-0.7,0-1,0c-0.5,0-1.1,0-1.6,0.1c-0.1,0-0.2,0-0.2,0c-0.1,0-0.2,0-0.2-0.1c0,0-0.1-0.1-0.1-0.2c0-0.1,0.1-0.2,0.3-0.3l0,0
			c0.1,0,0.2-0.1,0.3-0.1c0.1-0.1,0.2-0.1,0.3-0.2c0.2-0.2,0.3-0.3,0.4-0.5C350.9,146.6,351,146.3,351,145.8z"/>
		<path class="st2" d="M360,146v-8.7c0-0.2,0-0.3-0.1-0.3c-0.1-0.1-0.2-0.1-0.4-0.1h-2.4c-0.3,0-0.6,0.1-0.8,0.2
			c-0.2,0.2-0.4,0.4-0.5,0.8c0,0.1-0.1,0.2-0.1,0.4c-0.1,0.3-0.2,0.4-0.3,0.4c-0.1,0-0.1,0-0.1-0.1c0,0,0-0.1,0-0.2
			c0-0.1,0-0.1,0-0.2v-0.1l0.2-1.7c0-0.2,0.1-0.3,0.1-0.3c0.1,0,0.2-0.1,0.5-0.1c0.1,0,0.3,0,0.8,0.1c0.5,0,0.9,0.1,1.3,0.1h5.4
			c0.4,0,0.9,0,1.4-0.1c0.5,0,0.8-0.1,0.8-0.1c0.1,0,0.2,0,0.3,0.1c0.1,0,0.1,0.1,0.1,0.2l0.1,1.6v0.1c0,0.1,0,0.2-0.1,0.2
			c0,0.1-0.1,0.1-0.2,0.1s-0.2-0.1-0.2-0.3s-0.1-0.4-0.1-0.5c-0.1-0.2-0.3-0.4-0.5-0.5s-0.5-0.2-0.9-0.2h-2.2c-0.2,0-0.3,0-0.4,0.1
			s-0.1,0.2-0.1,0.4v8.8c0,0.5,0,0.9,0.1,1c0.1,0.2,0.3,0.3,0.5,0.4c0.1,0.1,0.3,0.1,0.5,0.2h0.1c0.2,0,0.3,0.1,0.3,0.1
			s0.1,0.1,0.1,0.2c0,0.1,0,0.2-0.1,0.2s-0.2,0.1-0.3,0.1c-0.1,0-0.4,0-0.9-0.1c-0.4,0-0.8-0.1-1.1-0.1c-0.4,0-0.8,0-1.2,0.1
			c-0.4,0.1-0.7,0.1-0.7,0.1c-0.1,0-0.2,0-0.2-0.1c-0.1,0-0.1-0.1-0.1-0.2c0-0.1,0-0.2,0.1-0.2s0.2-0.1,0.4-0.1h0.1
			c0.2,0,0.3-0.1,0.4-0.1c0.2-0.1,0.4-0.2,0.5-0.4C359.9,146.9,360,146.6,360,146z"/>
		<path class="st2" d="M371.5,145.8V143c0-0.2,0-0.4-0.1-0.6c0-0.2-0.1-0.3-0.2-0.4l-2.6-4.2v-0.1c-0.4-0.6-0.7-0.9-1-1
			c-0.1,0-0.1,0-0.2-0.1l0,0c-0.1,0-0.2,0-0.3-0.1c0,0-0.1-0.1-0.1-0.2c0-0.1,0-0.1,0.1-0.2c0,0,0.1-0.1,0.2-0.1c0,0,0.2,0,0.6,0
			s0.7,0,1,0s0.8,0,1.4-0.1c0.1,0,0.1,0,0.2,0.1c0,0,0.1,0.1,0.1,0.2c0,0.1-0.1,0.2-0.2,0.3h-0.1c-0.1,0-0.2,0.1-0.3,0.2
			c-0.1,0.1-0.1,0.2-0.1,0.3s0,0.2,0.1,0.3c0,0.1,0.1,0.2,0.2,0.4l2.2,3.5c0,0.1,0.1,0.1,0.1,0.1s0,0,0.1,0h0.1c0,0,0.1,0,0.1-0.1
			l1.9-3c0.1-0.2,0.2-0.4,0.3-0.6c0.1-0.2,0.1-0.4,0.1-0.5s0-0.3-0.1-0.4c-0.1-0.1-0.2-0.2-0.4-0.2c0,0-0.1,0-0.2,0s-0.1,0-0.2,0
			c-0.2,0-0.3,0-0.3-0.1c0,0-0.1-0.1-0.1-0.2c0-0.1,0-0.1,0.1-0.2c0,0,0.1-0.1,0.2-0.1s0.3,0,0.6,0c0.3,0,0.6,0,0.8,0
			c0.4,0,0.8,0,1.3-0.1c0.1,0,0.2,0,0.2,0c0.1,0,0.1,0,0.2,0.1c0,0,0.1,0.1,0.1,0.2c0,0.1-0.1,0.2-0.2,0.3c-0.2,0.1-0.3,0.1-0.3,0.1
			c-0.1,0.1-0.2,0.2-0.4,0.4s-0.4,0.6-0.8,1.2l-2.2,3.3l0,0c-0.2,0.3-0.3,0.7-0.3,1v3.2c0,0.6,0,0.9,0.1,1.1
			c0.1,0.2,0.2,0.4,0.4,0.5c0.1,0.1,0.3,0.2,0.6,0.2l0,0c0.1,0,0.2,0.1,0.3,0.1c0,0,0.1,0.1,0.1,0.2c0,0.1,0,0.2-0.1,0.2
			c0,0-0.1,0.1-0.3,0.1c-0.1,0-0.4,0-0.8,0s-0.7,0-0.9,0c-0.5,0-1,0-1.6,0.1c-0.1,0-0.2,0-0.2,0c-0.1,0-0.2,0-0.2-0.1
			c0,0-0.1-0.1-0.1-0.2c0-0.1,0.1-0.2,0.4-0.3l0,0c0.1,0,0.3-0.1,0.3-0.1c0.1,0,0.2-0.1,0.2-0.1c0.2-0.1,0.3-0.3,0.3-0.5
			C371.4,146.7,371.5,146.3,371.5,145.8z"/>
	</g>
</g>
</svg>
