<?xml version="1.0" encoding="UTF-8"?>
<svg width="80px" height="80px" viewBox="0 0 80 80" version="1.1" xmlns="http://www.w3.org/2000/svg" xmlns:xlink="http://www.w3.org/1999/xlink">
    <!-- Generator: Sketch 64 (93537) - https://sketch.com -->
    <title>Group 15</title>
    <desc>Created with Sketch.</desc>
    <g id="About" stroke="none" stroke-width="1" fill="none" fill-rule="evenodd">
        <g id="UI/Web/Homepage" transform="translate(-570.000000, -6456.000000)">
            <g id="Group-15" transform="translate(570.000000, 6456.000000)">
                <circle id="Oval" fill="#004950" cx="40" cy="40" r="40"></circle>
                <path d="M49.9292605,52 C51.6441586,52 53.0675241,51.3926247 54.1993569,50.1778742 C55.3311897,48.9631236 55.8971061,47.4707158 55.8971061,45.7006508 C55.8971061,44.0347072 55.3140407,42.5683297 54.14791,41.3015184 C52.9817792,40.0347072 51.5069668,39.29718 49.7234727,39.0889371 C49.7234727,36.2776573 51.8156484,33.8308026 56,31.7483731 L56,31.7483731 L54.0450161,28 C46.56806,31.8177874 42.829582,37.1106291 42.829582,43.8785249 C42.829582,46.1344902 43.5326902,48.0520607 44.9389068,49.6312364 C46.3451233,51.2104121 48.0085745,52 49.9292605,52 Z M31.0482315,52 C32.7631297,52 34.1950697,51.3926247 35.3440514,50.1778742 C36.4930332,48.9631236 37.0675241,47.4707158 37.0675241,45.7006508 C37.0675241,44.0347072 36.4844587,42.5683297 35.318328,41.3015184 C34.1521972,40.0347072 32.6602358,39.29718 30.8424437,39.0889371 C30.8424437,36.2776573 32.9517685,33.8308026 37.170418,31.7483731 L37.170418,31.7483731 L35.1639871,28 C27.721329,31.8177874 24,37.1106291 24,43.8785249 C24,46.1344902 24.6945338,48.0520607 26.0836013,49.6312364 C27.4726688,51.2104121 29.1275456,52 31.0482315,52 Z" id="“" fill="#FFFFFF" fill-rule="nonzero" transform="translate(40.000000, 40.000000) scale(-1, -1) translate(-40.000000, -40.000000) "></path>
            </g>
        </g>
    </g>
</svg>