<?xml version="1.0" standalone="no"?>
<!DOCTYPE svg PUBLIC "-//W3C//DTD SVG 1.1//EN" "https://www.w3.org/Graphics/SVG/1.1/DTD/svg11.dtd" >
<svg>
<metadata>
Created by FontForge 20090622 at Mon Jan 22 12:22:19 2018
 By deploy user
Copyright 2015 Nissan Motors Co., Ltd. All rights reserved.
</metadata>
<defs>
<font id="NissanBrand-Italic" horiz-adv-x="400" >
  <font-face 
    font-family="Nissan Brand Italic"
    font-weight="400"
    font-style="italic"
    font-stretch="normal"
    units-per-em="1000"
    panose-1="2 11 5 4 2 2 4 10 2 4"
    ascent="746"
    descent="-254"
    x-height="513"
    cap-height="650"
    bbox="-193 -300 1296 1064"
    underline-thickness="50"
    underline-position="-75"
    slope="-12"
    unicode-range="U+000D-U+FEFF"
  />
<missing-glyph horiz-adv-x="511" 
d="M511 750v-750h-511v750h511zM424 85v580h-337v-580h337z" />
    <glyph glyph-name="f_i.liga" unicode="fi" horiz-adv-x="578" 
d="M360 711q44 0 86 -14l-17 -77q-36 12 -80 12q-39 0 -59.5 -16t-29.5 -59l-9 -44h161l-15 -76h-161l-99 -479q-19 -91 -60.5 -130.5t-116.5 -39.5q-38 0 -78 11l17 75q48 -8 65 -8q40 0 57.5 26t28.5 78l96 467h-93l15 76h94l11 50q18 85 64 116.5t123 31.5zM487 601
l19 90h98l-19 -90h-98zM366 0l107 513h89l-106 -513h-90z" />
    <glyph glyph-name="f_l.liga" unicode="fl" horiz-adv-x="577" 
d="M360 711q44 0 86 -14l-17 -77q-36 12 -80 12q-39 0 -59.5 -16t-29.5 -59l-9 -44h161l-15 -76h-161l-99 -479q-19 -91 -60.5 -130.5t-116.5 -39.5q-38 0 -78 11l17 75q48 -8 65 -8q40 0 57.5 26t28.5 78l96 467h-93l15 76h94l11 50q18 85 64 116.5t123 31.5zM366 0
l143 691h90l-143 -691h-90z" />
    <glyph glyph-name="f_f.liga" unicode="ff" horiz-adv-x="666" 
d="M682 632q-39 0 -59.5 -16t-29.5 -59l-9 -44h161l-15 -76h-161l-99 -479q-19 -91 -60.5 -130.5t-116.5 -39.5q-38 0 -78 11l17 75q48 -8 65 -8q40 0 57.5 26t28.5 78l96 467h-243l-99 -479q-19 -91 -60.5 -130.5t-116.5 -39.5q-38 0 -78 11l17 75q48 -8 65 -8
q40 0 57.5 26t28.5 78l96 467h-93l15 76h94l11 50q18 85 64 116.5t123 31.5q44 0 86 -14l-17 -77q-36 12 -80 12q-39 0 -59.5 -16t-29.5 -59l-9 -44h244l11 50q18 85 64 116.5t123 31.5q44 0 86 -14l-17 -77q-36 12 -80 12z" />
    <glyph glyph-name="f_f_i.liga" unicode="ffi" horiz-adv-x="911" 
d="M745 513l-15 -76h-161l-99 -479q-19 -91 -60.5 -130.5t-116.5 -39.5q-38 0 -78 11l17 75q48 -8 65 -8q40 0 57.5 26t28.5 78l96 467h-243l-99 -479q-19 -91 -60.5 -130.5t-116.5 -39.5q-38 0 -78 11l17 75q48 -8 65 -8q40 0 57.5 26t28.5 78l96 467h-93l15 76h94l11 50
q18 85 64 116.5t123 31.5q44 0 86 -14l-17 -77q-36 12 -80 12q-39 0 -59.5 -16t-29.5 -59l-9 -44h244l11 50q18 85 64 116.5t123 31.5q44 0 86 -14l-17 -77q-36 12 -80 12q-39 0 -59.5 -16t-29.5 -59l-9 -44h161zM839 691h98l-19 -90h-98zM699 0l107 513h89l-106 -513h-90z
" />
    <glyph glyph-name="f_f_l.liga" unicode="ffl" horiz-adv-x="910" 
d="M745 513l-15 -76h-161l-99 -479q-19 -91 -60.5 -130.5t-116.5 -39.5q-38 0 -78 11l17 75q48 -8 65 -8q40 0 57.5 26t28.5 78l96 467h-243l-99 -479q-19 -91 -60.5 -130.5t-116.5 -39.5q-38 0 -78 11l17 75q48 -8 65 -8q40 0 57.5 26t28.5 78l96 467h-93l15 76h94l11 50
q18 85 64 116.5t123 31.5q44 0 86 -14l-17 -77q-36 12 -80 12q-39 0 -59.5 -16t-29.5 -59l-9 -44h244l11 50q18 85 64 116.5t123 31.5q44 0 86 -14l-17 -77q-36 12 -80 12q-39 0 -59.5 -16t-29.5 -59l-9 -44h161zM842 691h90l-143 -691h-90z" />
    <glyph glyph-name=".notdef" horiz-adv-x="511" 
d="M511 750v-750h-511v750h511zM424 85v580h-337v-580h337z" />
    <glyph glyph-name=".null" horiz-adv-x="0" 
 />
    <glyph glyph-name="nonmarkingreturn" horiz-adv-x="333" 
 />
    <glyph glyph-name="CR" unicode="&#xd;" horiz-adv-x="251" 
 />
    <glyph glyph-name="space" unicode=" " horiz-adv-x="251" 
 />
    <glyph glyph-name="exclam" unicode="!" horiz-adv-x="200" 
d="M235 650l-110 -473h-74l86 473h98zM100 0h-100l20 97h100z" />
    <glyph glyph-name="quotedbl" unicode="&#x22;" horiz-adv-x="340" 
d="M164 493h-66l35 230h92zM325 493h-67l36 230h91z" />
    <glyph glyph-name="numbersign" unicode="#" horiz-adv-x="600" 
d="M531 506h104l-15 -70h-116l-60 -157h105l-15 -71h-117l-80 -208h-77l79 208h-123l-80 -208h-77l80 208h-105l15 71h118l60 157h-105l15 70h117l84 217h77l-84 -217h123l84 217h77zM304 436l-61 -157h124l60 157h-123z" />
    <glyph glyph-name="dollar" unicode="$" horiz-adv-x="547" 
d="M577 630l-19 -91q-77 30 -174 35l-43 -205q30 -9 51.5 -17t46 -22.5t39.5 -31t25 -42t10 -56.5q0 -87 -67.5 -143t-182.5 -67l-19 -90h-76l18 89q-52 2 -105 12.5t-79 20.5l-27 9l20 91q101 -41 210 -45l46 222q-40 12 -65.5 22t-54.5 29t-43 48t-14 69q0 91 70 139
t182 55l18 89h76l-18 -89q44 -3 87.5 -10.5t65.5 -14.5zM172 478q0 -33 25 -53t72 -35l38 182q-58 -7 -96.5 -30t-38.5 -64zM413 189q0 34 -23 53.5t-67 35.5l-41 -196q60 10 95.5 38t35.5 69z" />
    <glyph glyph-name="percent" unicode="%" horiz-adv-x="882" 
d="M284 662q66 0 102.5 -36t36.5 -96q0 -41 -11.5 -82.5t-35 -80t-65.5 -62.5t-97 -24q-68 0 -104 37.5t-36 98.5q0 42 11.5 83t34.5 78.5t65.5 60.5t98.5 23zM276 0h-99l471 650h97zM274 592q-55 0 -83.5 -55t-28.5 -116q0 -69 61 -69q54 0 81 54t27 113q0 73 -57 73z
M710 369q66 0 102.5 -36.5t36.5 -95.5q0 -41 -11.5 -82.5t-35 -80t-65.5 -62.5t-97 -24q-68 0 -104 37.5t-36 98.5q0 42 11.5 83t34.5 78.5t65.5 60.5t98.5 23zM700 299q-55 0 -83.5 -55t-28.5 -116q0 -69 61 -69q54 0 81 54t27 113q0 73 -57 73z" />
    <glyph glyph-name="ampersand" unicode="&#x26;" horiz-adv-x="704" 
d="M522 143l148 -143h-136l-85 84q-136 -96 -262 -96q-76 0 -118 39t-42 95q0 63 43 120t160 113q-42 74 -42 124q0 33 12 64t36.5 59t70.5 45t107 17q54 0 103.5 -10t73.5 -23l-18 -90q-82 42 -163 42q-57 0 -92 -27t-34 -75q1 -85 187 -284q67 61 120 132h107
q-94 -113 -176 -186zM212 71q86 0 185 68q-78 84 -129 158q-141 -68 -141 -152q0 -32 21 -53t64 -21z" />
    <glyph glyph-name="quotesingle" unicode="'" horiz-adv-x="180" 
d="M164 493h-66l35 230h92z" />
    <glyph glyph-name="parenleft" unicode="(" horiz-adv-x="294" 
d="M321 708h93l-81 -108t-64.5 -98.5t-55.5 -109.5t-30.5 -112t-13.5 -136q0 -26 2.5 -52t5 -46t8.5 -43.5l9.5 -36.5t12 -35l11 -28.5t11 -27t9.5 -21.5h-92q-59 161 -59 289q0 144 55.5 277.5t178.5 287.5z" />
    <glyph glyph-name="parenright" unicode=")" horiz-adv-x="294" 
d="M-1 -146h-93l81 108t64.5 98.5t55.5 109.5t30.5 112t13.5 136q0 26 -2.5 52t-5 46t-8.5 43.5l-9.5 36.5t-12 35l-11 28.5t-11 27t-9.5 21.5h92q59 -161 59 -289q0 -144 -55.5 -277.5t-178.5 -287.5z" />
    <glyph glyph-name="asterisk" unicode="*" horiz-adv-x="378" 
d="M360 612l-77 -85l115 -1l-6 -57l-111 25l56 -104l-53 -19l-35 107l-59 -99l-45 32l77 88h-116l6 57l114 -23l-59 100l52 21l38 -107l57 97z" />
    <glyph glyph-name="plus" unicode="+" horiz-adv-x="539" 
d="M317 84h-85v172h-172v85h172v172h85v-172h172v-85h-172v-172z" />
    <glyph glyph-name="comma" unicode="," horiz-adv-x="191" 
d="M8 -129h-86l109 226h106z" />
    <glyph glyph-name="hyphen" unicode="-" horiz-adv-x="441" 
d="M392 262h-330l18 85h330z" />
    <glyph glyph-name="period" unicode="." horiz-adv-x="188" 
d="M100 0h-100l20 97h100z" />
    <glyph glyph-name="slash" unicode="/" horiz-adv-x="504" 
d="M60 -80h-102l522 764h104z" />
    <glyph glyph-name="zero" unicode="0" horiz-adv-x="666" 
d="M420 662q102 0 161 -70t59 -182q0 -181 -103.5 -301.5t-251.5 -120.5q-104 0 -165.5 71t-61.5 184q0 180 101.5 299.5t260.5 119.5zM399 576q-44 0 -86.5 -20t-79 -58.5t-59 -104.5t-22.5 -149q0 -75 41 -121.5t104 -46.5q41 0 84 20.5t80.5 59.5t61.5 105t24 146
q0 78 -43 123.5t-105 45.5z" />
    <glyph glyph-name="one" unicode="1" horiz-adv-x="373" 
d="M233 552l-173 -44l18 82l268 72l-138 -662h-91z" />
    <glyph glyph-name="two" unicode="2" horiz-adv-x="568" 
d="M359 662q95 0 147.5 -42t52.5 -116q0 -49 -25.5 -99t-63 -91t-95 -85.5t-106 -75.5t-110.5 -67h327l-18 -86h-466l15 81l55 35.5l63.5 41l64 42.5t66 47l59 47t54.5 50t40.5 48t29 49t9.5 46q0 45 -29.5 67t-98.5 22q-86 0 -199 -49l19 93q112 42 209 42z" />
    <glyph glyph-name="three" unicode="3" horiz-adv-x="567" 
d="M566 582l-244 -192q36 -2 67.5 -10.5t62 -26t48 -50t17.5 -76.5q0 -112 -88 -175.5t-230 -63.5q-89 0 -192 36l19 90q97 -38 185 -38q100 0 156 37.5t56 104.5q0 26 -11 44t-28 28t-45.5 15.5t-53 7t-61.5 1.5h-35l20 74l219 176h-307l18 86h442z" />
    <glyph glyph-name="four" unicode="4" horiz-adv-x="614" 
d="M466 148l-30 -148h-94l31 148h-356v62q93 106 219.5 227.5t240.5 212.5h121q-114 -92 -238.5 -210t-204.5 -211h235l33 157h93l-33 -157h96l-17 -81h-96z" />
    <glyph glyph-name="five" unicode="5" horiz-adv-x="570" 
d="M245 564l-47 -159q46 13 108 13q100 0 161 -51.5t61 -138.5q0 -96 -84.5 -168t-231.5 -72q-114 0 -207 37l19 91q94 -40 201 -40q96 0 153 42t57 111q0 48 -38 79.5t-116 31.5q-101 0 -202 -40l102 350h394l-19 -86h-311z" />
    <glyph glyph-name="six" unicode="6" horiz-adv-x="600" 
d="M264 -12q-105 0 -165.5 56t-60.5 153q0 95 40 176.5t109.5 139t159.5 95t193 52.5l-13 -87q-100 -13 -201.5 -65t-149.5 -127q8 7 21.5 16.5t56 26t85.5 16.5q100 0 155.5 -55.5t55.5 -144.5q0 -100 -78.5 -176t-207.5 -76zM267 70q78 0 133.5 48.5t55.5 121.5
q0 57 -40 89t-100 32q-78 0 -130.5 -46t-52.5 -117q0 -55 35 -91.5t99 -36.5z" />
    <glyph glyph-name="seven" unicode="7" horiz-adv-x="535" 
d="M590 650v-58q-310 -357 -447 -592h-108q146 248 418 564h-371l17 86h491z" />
    <glyph glyph-name="eight" unicode="8" horiz-adv-x="612" 
d="M376 661q106 0 166 -36t60 -108q0 -69 -44 -113.5t-101 -60.5q40 -12 70.5 -48.5t30.5 -88.5q0 -100 -82.5 -159t-206.5 -59q-241 0 -241 174q0 66 53 117t118 64q-34 16 -56.5 48t-22.5 72q0 91 78 144.5t178 53.5zM375 583q-71 0 -115.5 -32.5t-44.5 -84.5
q0 -37 31.5 -64.5t86.5 -27.5q72 0 121.5 37t49.5 85q0 41 -34 64t-95 23zM320 303q-94 0 -145 -42t-51 -98q0 -48 40.5 -71.5t104.5 -23.5q76 0 134.5 33.5t58.5 99.5q0 43 -36 72.5t-106 29.5z" />
    <glyph glyph-name="nine" unicode="9" horiz-adv-x="600" 
d="M361 662q105 0 165.5 -56t60.5 -153q0 -95 -40 -176.5t-109.5 -139t-159.5 -95t-193 -52.5l13 89q101 13 197.5 61t144.5 122q-6 -6 -18.5 -14.5t-52 -23t-82.5 -14.5q-101 0 -156 55.5t-55 144.5q0 100 78.5 176t206.5 76zM358 580q-78 0 -132 -48.5t-54 -121.5
q0 -57 39 -89t98 -32q78 0 130.5 46t52.5 117q0 55 -35 91.5t-99 36.5z" />
    <glyph glyph-name="colon" unicode=":" horiz-adv-x="227" 
d="M177 364h-100l20 97h100zM100 0h-100l20 97h100z" />
    <glyph glyph-name="semicolon" unicode=";" horiz-adv-x="230" 
d="M180 364h-100l20 97h100zM8 -129h-86l109 226h106z" />
    <glyph glyph-name="less" unicode="&#x3c;" horiz-adv-x="589" 
d="M566 487l-416 -162l416 -159v-86l-509 200v92l509 201v-86z" />
    <glyph glyph-name="equal" unicode="=" horiz-adv-x="537" 
d="M500 347h-430v85h430v-85zM500 155h-430v85h430v-85z" />
    <glyph glyph-name="greater" unicode="&#x3e;" horiz-adv-x="589" 
d="M563 372v-92l-509 -200v86l416 159l-416 162v86z" />
    <glyph glyph-name="question" unicode="?" horiz-adv-x="544" 
d="M155 163l9 47q10 53 43.5 91.5t74 59.5l79.5 39.5t65 44t26 60.5q0 72 -137 72q-104 0 -225 -48l18 89q102 44 224 44q95 0 156 -36t61 -108q0 -57 -27.5 -97t-68 -62t-82 -41.5t-74.5 -47.5t-41 -66l-8 -41h-93zM217 0h-100l20 97h100z" />
    <glyph glyph-name="at" unicode="@" horiz-adv-x="976" 
d="M590 695q159 0 262.5 -81t103.5 -226q0 -60 -18 -122.5t-50 -118t-84.5 -90.5t-114.5 -35q-73 0 -102 57q-54 -42 -137 -42q-82 0 -132 46.5t-50 125.5q0 44 15 87.5t44.5 81t81 61t116.5 23.5q71 0 124 -36l14 30h66l-62 -301q-10 -51 40 -51t88 49t54.5 109.5
t16.5 113.5q0 117 -79 176t-206 59q-88 0 -162 -27.5t-124 -72t-85.5 -101t-51.5 -115t-16 -114.5q0 -122 85 -202t230 -80q71 0 154 20l-18 -86q-76 -16 -150 -16q-183 0 -287.5 100.5t-104.5 255.5q0 72 19 144t62 140.5t104 121t152.5 84.5t201.5 32zM518 381
q-79 0 -120.5 -52t-41.5 -113q0 -47 30.5 -74t83.5 -27q59 0 110 35l41 197q-40 34 -103 34z" />
    <glyph glyph-name="A" unicode="A" horiz-adv-x="664" 
d="M618 0h-95q-12 78 -32 181h-322l-96 -181h-105q195 390 401 650h101q100 -332 148 -650zM403 556q-76 -96 -185 -288h256q-33 156 -71 288z" />
    <glyph glyph-name="B" unicode="B" horiz-adv-x="654" 
d="M168 650h251q106 0 161.5 -33.5t55.5 -113.5q0 -58 -42.5 -107.5t-90.5 -62.5q37 -9 65 -46.5t28 -88.5q0 -98 -81.5 -148t-216.5 -50h-265zM205 377h180q64 0 107.5 32.5t43.5 80.5q0 17 -5 30t-16.5 20.5t-22.5 12t-30 6.5t-31 2.5t-33 0.5h-154zM145 88h162
q190 0 190 110q0 92 -133 92h-177z" />
    <glyph glyph-name="C" unicode="C" horiz-adv-x="699" 
d="M500 662q117 0 219 -42l-20 -92q-108 44 -207 44q-138 0 -236 -80.5t-98 -221.5q0 -68 37 -113t89.5 -62t116.5 -17q107 0 218 44l-20 -94q-102 -40 -223 -40q-60 0 -114 15.5t-100 46.5t-73 86t-27 127q0 97 37.5 175t100.5 126t140 73t160 25z" />
    <glyph glyph-name="D" unicode="D" horiz-adv-x="711" 
d="M168 650h211q86 0 152 -24.5t108 -83t42 -144.5q0 -83 -25 -151t-66.5 -113.5t-98 -76t-118 -44t-128.5 -13.5h-212zM145 88h98q164 0 254 80t90 212q0 88 -56.5 135t-164.5 47h-122z" />
    <glyph glyph-name="E" unicode="E" horiz-adv-x="590" 
d="M244 564l-39 -187h332l-18 -85h-332l-42 -206h360l-18 -86h-454l135 650h454l-17 -86h-361z" />
    <glyph glyph-name="F" unicode="F" horiz-adv-x="569" 
d="M244 564l-42 -204h331l-18 -88h-331l-57 -272h-94l135 650h454l-17 -86h-361z" />
    <glyph glyph-name="G" unicode="G" horiz-adv-x="714" 
d="M503 662q54 0 107.5 -11t80.5 -21l27 -11l-19 -89q-96 42 -207 42q-138 0 -236 -79t-98 -222q0 -98 65 -146t165 -48q32 0 65 4.5t49 8.5l17 4l46 225h94l-61 -296q-94 -35 -228 -35q-62 0 -115.5 16t-97.5 48t-69.5 86t-25.5 125q0 96 37 173.5t99.5 126t140.5 74
t164 25.5z" />
    <glyph glyph-name="H" unicode="H" horiz-adv-x="719" 
d="M493 0l60 290h-366l-60 -290h-94l135 650h94l-56 -271h366l56 271h94l-135 -650h-94z" />
    <glyph glyph-name="I" unicode="I" horiz-adv-x="259" 
d="M33 0l135 650h94l-135 -650h-94z" />
    <glyph glyph-name="J" unicode="J" horiz-adv-x="447" 
d="M453 650l-97 -467q-41 -195 -244 -195q-77 0 -156 28l19 88q66 -25 152 -25q51 0 88.5 31.5t50.5 94.5l93 445h94z" />
    <glyph glyph-name="K" unicode="K" horiz-adv-x="610" 
d="M33 0l135 650h94l-135 -650h-94zM211 325q174 181 354 325h139q-218 -170 -378 -327q113 -121 259 -323h-123q-148 220 -251 325z" />
    <glyph glyph-name="L" unicode="L" horiz-adv-x="539" 
d="M262 650l-117 -564h360l-18 -86h-454l135 650h94z" />
    <glyph glyph-name="M" unicode="M" horiz-adv-x="850" 
d="M679 650h111q0 -248 -19 -650h-97q23 318 23 524q-103 -155 -274 -460h-72q-38 307 -75 460q-113 -258 -198 -524h-95q55 173 127 354t127 296h104q47 -230 77 -435q130 235 261 435z" />
    <glyph glyph-name="N" unicode="N" horiz-adv-x="726" 
d="M518 0l-282 524l-109 -524h-94l135 650h103l262 -492l102 492h94l-135 -650h-76z" />
    <glyph glyph-name="O" unicode="O" horiz-adv-x="790" 
d="M464 662q143 0 221 -77t78 -208q0 -174 -111 -281.5t-282 -107.5q-144 0 -226 78.5t-82 210.5q0 172 111 278.5t291 106.5zM451 574q-128 0 -210.5 -79t-82.5 -216q0 -97 60.5 -149t163.5 -52q121 0 203 80.5t82 212.5q0 100 -58 151.5t-158 51.5z" />
    <glyph glyph-name="P" unicode="P" horiz-adv-x="642" 
d="M168 650h250q25 0 51 -4.5t55.5 -17.5t52 -33t37.5 -54.5t15 -78.5q0 -60 -21 -106t-52 -72.5t-72 -44t-75.5 -23t-68.5 -5.5h-169l-44 -211h-94zM190 299h156q80 0 132 39t52 122q0 54 -36.5 78t-92.5 24h-157z" />
    <glyph glyph-name="Q" unicode="Q" horiz-adv-x="790" 
d="M464 662q143 0 221 -77t78 -208q0 -146 -80 -246.5t-211 -130.5l92 -65l-64 -63l-162 117q-130 9 -203 86t-73 202q0 172 111 278.5t291 106.5zM451 574q-128 0 -210.5 -79t-82.5 -216q0 -97 60.5 -149t163.5 -52q121 0 203 80.5t82 212.5q0 100 -58 151.5t-158 51.5z
" />
    <glyph glyph-name="R" unicode="R" horiz-adv-x="634" 
d="M578 0h-112q-68 125 -146 237h-143l-50 -237h-94l135 650h254q37 0 71 -9t66 -29t51 -58t19 -90q0 -89 -60.5 -145t-142.5 -74q79 -114 152 -245zM195 325h154q31 0 60 6t58.5 20t47.5 43t18 69q0 50 -36 74.5t-86 24.5h-167z" />
    <glyph glyph-name="S" unicode="S" horiz-adv-x="603" 
d="M394 662q118 0 214 -32l-19 -91q-96 36 -205 36q-45 0 -84 -8.5t-68 -31.5t-29 -57q0 -37 35 -59.5t85.5 -36t100.5 -30.5t85 -55t35 -97q0 -96 -81 -154t-217 -58q-128 0 -240 43l20 91q114 -45 226 -45q84 0 138 30.5t54 81.5q0 39 -35 62.5t-85 36t-99.5 29t-84.5 54
t-35 96.5q0 99 82 147t207 48z" />
    <glyph glyph-name="T" unicode="T" horiz-adv-x="598" 
d="M411 564l-117 -564h-94l117 564h-244l18 86h582l-18 -86h-244z" />
    <glyph glyph-name="U" unicode="U" horiz-adv-x="706" 
d="M712 650l-75 -366q-61 -296 -333 -296q-122 0 -174 57t-52 148q0 41 11 91l76 366h94l-78 -373q-10 -47 -10 -71q0 -132 144 -132q84 0 144 53t81 151l78 372h94z" />
    <glyph glyph-name="V" unicode="V" horiz-adv-x="633" 
d="M614 650h106q-214 -409 -398 -650h-94q-106 324 -148 650h99q38 -274 115 -545q154 223 320 545z" />
    <glyph glyph-name="W" unicode="W" horiz-adv-x="861" 
d="M831 650h97q-143 -352 -306 -650h-99q-38 171 -69 377q-24 -51 -94 -170.5l-125 -206.5h-92q-35 279 -42 650h92q5 -262 24 -523q100 159 231 415h77q21 -212 63 -423q136 267 243 531z" />
    <glyph glyph-name="X" unicode="X" horiz-adv-x="670" 
d="M604 0h-117l-146 258l-241 -258h-123l308 330l-186 320h115l148 -265l240 265h121l-308 -333z" />
    <glyph glyph-name="Y" unicode="Y" horiz-adv-x="541" 
d="M523 650h113q-187 -276 -320 -439l-41 -211h-95l45 221q-85 191 -167 429h99q60 -189 129 -347q122 162 237 347z" />
    <glyph glyph-name="Z" unicode="Z" horiz-adv-x="598" 
d="M148 86h375l-18 -86h-517l18 65l481 499h-377l17 86h521l-18 -65z" />
    <glyph glyph-name="bracketleft" unicode="[" horiz-adv-x="296" 
d="M371 708l-14 -66h-99l-149 -721h99l-14 -67h-184l177 854h184z" />
    <glyph glyph-name="backslash" unicode="\" horiz-adv-x="504" 
d="M62 684l522 -764h-102l-524 764h104z" />
    <glyph glyph-name="bracketright" unicode="]" horiz-adv-x="318" 
d="M131 -146h-184l14 67h99l149 721h-99l14 66h184z" />
    <glyph glyph-name="asciicircum" unicode="^" horiz-adv-x="476" 
d="M444 281h-82l-107 276l-105 -276h-82l151 369h73z" />
    <glyph glyph-name="underscore" unicode="_" horiz-adv-x="498" 
d="M433 -300h-500l18 85h500z" />
    <glyph glyph-name="grave" unicode="`" horiz-adv-x="240" 
d="M78 736l104 -145h-83l-131 145h110z" />
    <glyph glyph-name="a" unicode="a" horiz-adv-x="633" 
d="M511 0h-61l-7 40q-68 -52 -168 -52q-94 0 -160.5 53t-66.5 159q0 77 29 140.5t75 102.5t101 60t110 21q52 0 97 -14.5t68 -32.5l27 36h62zM139 200q0 -68 42 -101.5t105 -33.5q95 0 161 58l57 277q-18 16 -55.5 28.5t-84.5 12.5q-91 0 -158 -64t-67 -177z" />
    <glyph glyph-name="b" unicode="b" horiz-adv-x="630" 
d="M388 524q96 0 156 -57.5t60 -163.5q0 -76 -28 -137.5t-74.5 -99.5t-102.5 -58t-116 -20q-83 0 -162 51l-26 -39h-62l143 691h90l-45 -217q71 50 167 50zM287 71q97 0 160.5 65.5t63.5 165.5q0 66 -38.5 102.5t-103.5 36.5q-91 0 -166 -56l-55 -266q55 -48 139 -48z" />
    <glyph glyph-name="c" unicode="c" horiz-adv-x="540" 
d="M386 524q105 0 175 -34l-17 -81q-77 34 -166 34q-101 0 -169.5 -63t-68.5 -166q0 -68 44.5 -105t120.5 -37q101 0 190 40l-18 -88q-82 -36 -185 -36q-106 0 -175 59t-69 164q0 99 49.5 172t125 107t163.5 34z" />
    <glyph glyph-name="d" unicode="d" horiz-adv-x="633" 
d="M511 0h-61l-7 40q-68 -52 -168 -52q-94 0 -160.5 53t-66.5 159q0 77 29 140.5t75 102.5t101 60t110 21q96 0 157 -42l45 209h90zM139 200q0 -68 42 -101.5t105 -33.5q95 0 161 58l57 277q-18 16 -55.5 28.5t-84.5 12.5q-91 0 -158 -64t-67 -177z" />
    <glyph glyph-name="e" unicode="e" horiz-adv-x="584" 
d="M139 224l-2 -28q0 -38 17 -64.5t46 -38.5t54 -16.5t53 -4.5q103 0 200 38l-19 -87q-82 -35 -203 -35q-101 0 -169 52.5t-68 154.5q0 84 28.5 149t75.5 103t101.5 57.5t113.5 19.5q94 0 143 -46.5t49 -132.5q0 -33 -17 -121h-403zM157 302h308q3 21 3 32q0 108 -111 108
q-67 0 -123 -35t-77 -105z" />
    <glyph glyph-name="f" unicode="f" horiz-adv-x="333" 
d="M360 711q44 0 86 -14l-17 -77q-36 12 -80 12q-39 0 -59.5 -16t-29.5 -59l-9 -44h161l-15 -76h-161l-99 -479q-19 -91 -60.5 -130.5t-116.5 -39.5q-38 0 -78 11l17 75q48 -8 65 -8q40 0 57.5 26t28.5 78l96 467h-93l15 76h94l11 50q18 85 64 116.5t123 31.5z" />
    <glyph glyph-name="g" unicode="g" horiz-adv-x="630" 
d="M617 513l-108 -521q-22 -104 -102.5 -154t-202.5 -50q-114 0 -201 47l18 88q37 -20 92 -36.5t104 -16.5q32 0 62.5 7t61 22.5t53 44t31.5 66.5l4 20q-65 -42 -154 -42q-94 0 -160.5 53t-66.5 159q0 77 29 140.5t75 102.5t101 60t110 21q52 0 97 -14.5t68 -32.5l27 36h62z
M139 200q0 -68 42 -101.5t105 -33.5q95 0 161 58l57 277q-18 16 -55.5 28.5t-84.5 12.5q-91 0 -158 -64t-67 -177z" />
    <glyph glyph-name="h" unicode="h" horiz-adv-x="630" 
d="M33 0l143 691h90l-46 -223q35 21 89 38.5t107 17.5q167 0 167 -133q0 -23 -8 -65l-67 -326h-90l65 315q8 34 8 53q0 75 -97 75q-52 0 -105.5 -20t-87.5 -45l-78 -378h-90z" />
    <glyph glyph-name="i" unicode="i" horiz-adv-x="245" 
d="M154 601l19 90h98l-19 -90h-98zM33 0l107 513h89l-106 -513h-90z" />
    <glyph glyph-name="j" unicode="j" horiz-adv-x="245" 
d="M154 598l19 90h98l-19 -90h-98zM230 513l-111 -537q-21 -100 -63.5 -144t-134.5 -44q-67 0 -114 20l20 79q41 -16 100 -16q27 0 46 9.5t29.5 27.5t16 32.5t9.5 34.5l113 538h89z" />
    <glyph glyph-name="k" unicode="k" horiz-adv-x="540" 
d="M33 0l143 691h90l-143 -691h-90zM461 513h128q-138 -105 -281 -241q90 -105 200 -272h-112q-34 57 -89 134t-111 138q169 172 265 241z" />
    <glyph glyph-name="l" unicode="l" horiz-adv-x="244" 
d="M33 0l143 691h90l-143 -691h-90z" />
    <glyph glyph-name="m" unicode="m" horiz-adv-x="989" 
d="M409 0l65 315q7 35 7 53q0 75 -95 75q-53 0 -104 -20t-81 -45l-78 -378h-90l107 513h60l10 -51q33 24 88.5 43t114.5 19q113 0 148 -66q36 25 96.5 45.5t123.5 20.5q78 0 119.5 -30.5t41.5 -102.5q0 -23 -8 -65l-67 -326h-90l65 315q8 34 8 53q0 75 -97 75
q-52 0 -101.5 -19t-77.5 -43q-2 -27 -8 -54l-67 -327h-90z" />
    <glyph glyph-name="n" unicode="n" horiz-adv-x="612" 
d="M410 524q167 0 167 -133q0 -23 -8 -65l-67 -326h-90l65 315q8 34 8 53q0 75 -97 75q-53 0 -106 -20t-86 -45l-79 -378h-90l106 513h61l10 -51q35 24 92.5 43t113.5 19z" />
    <glyph glyph-name="o" unicode="o" horiz-adv-x="633" 
d="M380 524h1q97 0 159.5 -57t62.5 -155q0 -100 -47.5 -174.5t-122 -110.5t-163.5 -39q-97 0 -159.5 57t-62.5 155q0 151 97 237.5t235 86.5zM289 71q91 0 157 64t66 168q0 59 -38 98.5t-113 39.5q-91 0 -156.5 -64t-65.5 -168q0 -59 38 -98.5t112 -39.5z" />
    <glyph glyph-name="p" unicode="p" horiz-adv-x="630" 
d="M385 524q96 0 157.5 -58t61.5 -165q0 -99 -47 -172t-118.5 -107t-154.5 -34q-43 0 -86 14t-69 31l-48 -233h-90l150 713h60l7 -42q27 20 75.5 36.5t101.5 16.5zM292 71q93 0 155.5 66t62.5 162q0 66 -40 104t-103 38q-48 0 -94 -18t-72 -40l-54 -261q16 -20 54.5 -35.5
t90.5 -15.5z" />
    <glyph glyph-name="q" unicode="q" horiz-adv-x="633" 
d="M470 -200h-90l46 228q-65 -40 -151 -40q-94 0 -160.5 53t-66.5 159q0 77 29 140.5t75 102.5t101 60t110 21q52 0 97 -14.5t68 -32.5l27 36h62zM139 200q0 -68 42 -101.5t105 -33.5q95 0 161 58l57 277q-18 16 -55.5 28.5t-84.5 12.5q-91 0 -158 -64t-67 -177z" />
    <glyph glyph-name="r" unicode="r" horiz-adv-x="408" 
d="M446 524l-19 -91q-68 0 -131.5 -16.5t-94.5 -37.5l-78 -379h-90l107 513h60l10 -51q42 27 107 44.5t129 17.5z" />
    <glyph glyph-name="s" unicode="s" horiz-adv-x="522" 
d="M506 499l-16 -79q-73 25 -168 25q-34 0 -64.5 -5.5t-56 -21.5t-25.5 -42q0 -29 31 -44.5t75 -23.5t87.5 -19.5t74.5 -43t31 -83.5q0 -86 -73 -130t-187 -44q-111 0 -205 40l17 80q99 -39 193 -39q62 0 112 20t50 63q0 32 -31 49t-75.5 25t-88.5 19t-75 41t-31 81
q0 45 23 77.5t62 49t79.5 23.5t85.5 7q107 0 175 -25z" />
    <glyph glyph-name="t" unicode="t" horiz-adv-x="378" 
d="M416 513l-16 -76h-166l-62 -295q-8 -38 2.5 -56t54.5 -18q49 0 94 13l-15 -82q-48 -11 -98 -11q-55 0 -93.5 26.5t-38.5 86.5q0 16 4 37l64 299h-104l16 76h106l39 112h71l-23 -112h165z" />
    <glyph glyph-name="u" unicode="u" horiz-adv-x="621" 
d="M220 513l-65 -316q-7 -30 -7 -49q0 -79 106 -79q53 0 103.5 20t79.5 45l78 379h90l-107 -513h-59l-9 51q-28 -24 -81.5 -43.5t-114.5 -19.5q-79 0 -127.5 36t-48.5 105q0 27 6 58l66 326h90z" />
    <glyph glyph-name="v" unicode="v" horiz-adv-x="526" 
d="M470 513h99q-148 -282 -307 -513h-92q-46 131 -78.5 274.5t-42.5 238.5h88q35 -260 90 -418q125 183 243 418z" />
    <glyph glyph-name="w" unicode="w" horiz-adv-x="851" 
d="M792 513h89q-42 -103 -117 -247t-160 -266h-95q-47 207 -65 367q-117 -227 -209 -367h-86q-66 257 -78 513h84q16 -220 54 -401q46 69 101 168.5t85 159.5t35 73h84q0 -9 7 -76.5t21.5 -169t28.5 -169.5q120 190 221 415z" />
    <glyph glyph-name="x" unicode="x" horiz-adv-x="520" 
d="M489 0h-111l-113 187l-185 -187h-121l258 253l-156 260h108l116 -197l194 197h117l-265 -260z" />
    <glyph glyph-name="y" unicode="y" horiz-adv-x="532" 
d="M486 513h99q-148 -276 -311 -513q-75 -109 -142 -160.5t-143 -51.5q-44 0 -73 9l21 88q30 -10 60 -10q53 0 94.5 35.5t86.5 104.5q-43 126 -74.5 265t-43.5 233h90q37 -253 91 -413q124 182 245 413z" />
    <glyph glyph-name="z" unicode="z" horiz-adv-x="506" 
d="M132 81h312l-16 -81h-430l18 84l378 348h-295l17 81h416l-18 -84z" />
    <glyph glyph-name="braceleft" unicode="{" horiz-adv-x="368" 
d="M16 316l-15 -69q66 -2 95 -26q32 -29 13 -121l-7 -34q-22 -107 12.5 -156.5t156.5 -55.5l14 66q-79 4 -97.5 32t-1.5 110l8 38q17 80 5 116q-17 54 -95 65q84 11 123 65q25 35 42 115l7 36q17 82 47.5 110.5t110.5 34.5l14 66q-121 -5 -177 -52.5t-77 -145.5l-11 -50
q-18 -91 -62 -120q-38 -24 -105 -24z" />
    <glyph glyph-name="bar" unicode="|" horiz-adv-x="254" 
d="M192 -250h-94v1000h94v-1000z" />
    <glyph glyph-name="braceright" unicode="}" horiz-adv-x="383" 
d="M374 247l15 69q-68 0 -95 24q-32 29 -14 120l8 36q23 108 -13 157.5t-156 54.5l-14 -66q79 -6 97 -34.5t1 -110.5l-7 -36q-17 -81 -6 -115q15 -54 95 -65q-84 -11 -121 -65q-27 -37 -43 -116l-8 -38q-17 -82 -47 -110t-110 -32l-14 -66q124 6 179.5 54.5t76.5 152.5l8 39
q19 92 63 121q38 24 105 26z" />
    <glyph glyph-name="asciitilde" unicode="~" horiz-adv-x="484" 
d="M383 357h77q0 -51 -35.5 -83.5t-87.5 -32.5q-31 0 -86 18.5t-86 18.5q-24 0 -41 -9.5t-18 -27.5h-77q0 51 35.5 83.5t87.5 32.5q30 0 86 -18.5t86 -18.5q24 0 41 9.5t18 27.5z" />
    <glyph glyph-name="nbspace" unicode="&#xa0;" horiz-adv-x="251" 
 />
    <glyph glyph-name="exclamdown" unicode="&#xa1;" horiz-adv-x="178" 
d="M78 416l20 97h100l-20 -97h-100zM75 336h74l-86 -473h-98z" />
    <glyph glyph-name="cent" unicode="&#xa2;" horiz-adv-x="553" 
d="M390 507q-101 0 -169.5 -63t-68.5 -166q0 -68 44.5 -105t120.5 -37q45 0 92.5 10t72.5 20l25 10l-18 -88q-71 -32 -168 -36l-17 -82h-88l19 89q-79 18 -127 74t-48 142q0 132 81 212.5t202 96.5l20 97h88l-19 -94q37 -3 72.5 -11t51.5 -15l17 -7l-17 -81q-78 34 -166 34z
" />
    <glyph glyph-name="sterling" unicode="&#xa3;" horiz-adv-x="508" 
d="M387 577q-46 0 -68.5 -19t-32.5 -66l-16 -79h165l-16 -77h-165l-24 -116q-23 -109 -85 -134h347l-18 -86h-464l14 66q51 38 76 71t39 97l21 102h-90l16 77h90l16 78q19 93 63.5 132t135.5 39q78 0 147 -24l-18 -84q-74 23 -133 23z" />
    <glyph glyph-name="currency" unicode="&#xa4;" horiz-adv-x="600" 
d="M585 520l-77 -65q20 -41 20 -85q0 -88 -72 -164l51 -64l-57 -47l-51 62q-63 -40 -130 -40q-70 0 -120 41l-78 -63l-37 47l76 65q-19 38 -19 86q0 93 70 164l-50 63l57 47l52 -63q62 40 129 40q69 0 122 -40l77 63zM337 473q-69 0 -121 -50t-52 -118q0 -49 33.5 -82.5
t84.5 -33.5q67 0 120 51t53 119q0 49 -33.5 81.5t-84.5 32.5z" />
    <glyph glyph-name="yen" unicode="&#xa5;" horiz-adv-x="605" 
d="M565 650h120l-269 -291h173l-16 -77h-218l-15 -75h218l-16 -77h-218l-27 -130h-94l27 130h-217l16 77h217l15 75h-217l16 77h170q-54 96 -146 291h97q76 -181 135 -292q93 99 249 292z" />
    <glyph glyph-name="brokenbar" unicode="&#xa6;" horiz-adv-x="254" 
d="M98 734h94v-404h-94v404zM192 -250h-94v420h94v-420z" />
    <glyph glyph-name="section" unicode="&#xa7;" horiz-adv-x="484" 
d="M328 581q-96 0 -96 -57q0 -15 13 -28t49 -33l77 -45q67 -38 67 -91q0 -98 -134 -148l5 -3q76 -43 76 -105q0 -72 -55 -113t-155 -41q-65 0 -141 22l18 85q75 -25 132 -25q105 0 105 53q0 17 -13.5 31.5t-50.5 34.5l-81 45q-64 36 -64 90q0 99 134 148l-4 2
q-76 40 -76 111q0 68 54.5 108.5t148.5 40.5q63 0 128 -18l-18 -87q-71 23 -119 23zM340 304q0 29 -28 44l-38 20q-51 -23 -73.5 -45.5t-22.5 -51.5q0 -23 28 -38l38 -21q53 22 74.5 43t21.5 49z" />
    <glyph glyph-name="dieresis" unicode="&#xa8;" horiz-adv-x="356" 
d="M98 588h-98l20 96h98zM296 588h-98l20 96h98z" />
    <glyph glyph-name="copyright" unicode="&#xa9;" horiz-adv-x="852" 
d="M398 -11q117 0 221.5 61.5t167.5 163.5t63 216q0 140 -86 224t-228 84q-179 0 -316 -134t-137 -309q0 -138 86.5 -222t228.5 -84zM533 693q121 0 196.5 -74t75.5 -193q0 -153 -123 -272.5t-280 -119.5q-121 0 -197.5 74t-76.5 191q0 100 57 191.5t151 147t197 55.5z
M515 569q67 0 133 -24l-15 -67q-73 27 -127 27q-58 0 -100.5 -29.5t-59.5 -68t-17 -77.5q0 -47 30 -77.5t89 -30.5q57 0 145 30l-14 -70q-72 -24 -139 -24q-89 0 -137.5 44.5t-48.5 123.5q0 42 16 83.5t46.5 78t82.5 59t116 22.5z" />
    <glyph glyph-name="ordfeminine" unicode="&#xaa;" horiz-adv-x="547" 
d="M389 662q83 0 121.5 -25.5t38.5 -89.5q0 -34 -8 -70l-52 -252h-62l-5 32q-84 -42 -149 -42q-74 0 -115 28t-41 82q0 18 4 35q14 71 73.5 108t143.5 37q63 0 121 -28l3 14q3 15 3 27q0 38 -27 52t-77 14q-73 0 -174 -28l17 81q104 25 185 25zM206 346q0 -28 24.5 -40
t57.5 -12q71 0 140 38l15 68q-56 28 -117 28q-104 0 -119 -70q-1 -4 -1 -12zM63 85h397l-18 -85h-397z" />
    <glyph glyph-name="guillemetleft" unicode="&#xab;" horiz-adv-x="503" 
d="M153 266l58 -192h-72l-69 197l144 192h77zM350 266l58 -192h-72l-69 197l143 192h78z" />
    <glyph glyph-name="logicalnot" unicode="&#xac;" horiz-adv-x="523" 
d="M407 109v174h-345v85h430v-259h-85z" />
    <glyph glyph-name="softhyphen" unicode="&#xad;" horiz-adv-x="441" 
d="M392 262h-330l18 85h330z" />
    <glyph glyph-name="registered" unicode="&#xae;" horiz-adv-x="542" 
d="M359 661q79 0 129 -48.5t50 -128.5q0 -105 -80.5 -184.5t-186.5 -79.5q-82 0 -133.5 50t-51.5 128q0 104 80.5 183.5t192.5 79.5zM276 262q86 0 153 66t67 150q0 63 -40.5 102.5t-105.5 39.5q-86 0 -154 -66t-68 -149q0 -63 41.5 -103t106.5 -40zM420 495q0 -29 -19 -52
t-51 -31q37 -61 50 -89h-53q-26 55 -45 82h-41l-17 -82h-46l49 237h95q34 0 56 -17t22 -48zM270 448h44q57 0 57 43q0 27 -40 27h-46z" />
    <glyph glyph-name="macron" unicode="&#xaf;" horiz-adv-x="334" 
d="M274 615h-274l16 77h274z" />
    <glyph glyph-name="degree" unicode="&#xb0;" horiz-adv-x="350" 
d="M160 514q60 0 104.5 43.5t44.5 101.5q0 47 -30 76t-78 29q-59 0 -103.5 -43.5t-44.5 -101.5q0 -47 29.5 -76t77.5 -29zM168 572q-25 0 -40.5 15.5t-15.5 38.5q0 31 25 55.5t57 24.5q25 0 40.5 -15.5t15.5 -38.5q0 -31 -25 -55.5t-57 -24.5z" />
    <glyph glyph-name="plusminus" unicode="&#xb1;" horiz-adv-x="519" 
d="M307 142h-85v124h-162v85h162v150h85v-150h162v-85h-162v-124zM469 0h-409v85h409v-85z" />
    <glyph glyph-name="twosuperior" unicode="&#xb2;" 
d="M299 754q111 0 111 -89q0 -57 -51 -114t-141 -103h158l-14 -64h-273l12 54q51 31 84.5 53.5t72.5 53t59 56.5t20 48q0 41 -61 41q-46 0 -118 -24l14 65q71 23 127 23z" />
    <glyph glyph-name="threesuperior" unicode="&#xb3;" 
d="M395 694l-120 -94q49 -4 77 -29t28 -63q0 -60 -46.5 -96.5t-140.5 -36.5q-65 0 -124 18l14 65q61 -19 115 -19q109 0 109 63q0 26 -22.5 36t-73.5 10h-52l10 43l114 89h-153l13 64h263z" />
    <glyph glyph-name="acute" unicode="&#xb4;" horiz-adv-x="240" 
d="M81 591h-83l104 145h110z" />
    <glyph glyph-name="micro" unicode="&#xb5;" horiz-adv-x="632" 
d="M509 0h-59l-9 51q-28 -24 -81.5 -43.5t-114.5 -19.5q-75 0 -118 37l-46 -225h-90l150 713h90l-65 -316q-7 -33 -7 -48q0 -80 106 -80q53 0 103.5 20t79.5 45l78 379h90z" />
    <glyph glyph-name="paragraph" unicode="&#xb6;" horiz-adv-x="582" 
d="M432 -75h-88l134 648h-91l-134 -648h-88l68 330q-79 7 -119.5 45t-40.5 103q0 105 74 176t231 71h204z" />
    <glyph glyph-name="periodcentered" unicode="&#xb7;" horiz-adv-x="200" 
d="M154 257h-100l20 97h100z" />
    <glyph glyph-name="cedilla" unicode="&#xb8;" horiz-adv-x="260" 
d="M177 5l-16 -46q60 -10 60 -66q0 -46 -30.5 -73t-92.5 -27q-41 0 -94 14l13 61q48 -13 85 -13q49 0 49 33q0 24 -43 24q-21 0 -39 -3l45 96h63z" />
    <glyph glyph-name="onesuperior" unicode="&#xb9;" 
d="M204 384l59 286l-110 -25l14 61l180 46l-76 -368h-67z" />
    <glyph glyph-name="ordmasculine" unicode="&#xba;" horiz-adv-x="549" 
d="M382 661q83 0 135.5 -44t52.5 -125q0 -25 -6 -55q-22 -107 -100 -165t-176 -58q-83 0 -136 43.5t-53 125.5q0 25 6 54q22 106 100.5 165t176.5 59zM366 583q-63 0 -111.5 -40t-62.5 -106q-4 -24 -4 -35q0 -48 30 -78t89 -30q69 0 114 41t57 102q4 17 4 37q0 50 -32 79.5
t-84 29.5zM443 0h-397l18 85h397z" />
    <glyph glyph-name="guillemetright" unicode="&#xbb;" horiz-adv-x="503" 
d="M153 271l-58 192h72l69 -197l-143 -192h-78zM350 271l-58 192h72l69 -197l-144 -192h-77z" />
    <glyph glyph-name="onequarter" unicode="&#xbc;" horiz-adv-x="811" 
d="M210 284l59 286l-110 -25l14 61l180 46l-76 -368h-67zM286 0h-99l472 650h97zM802 84h-59l-17 -84h-65l17 84h-200v47q98 119 218 229h88q-84 -74 -125.5 -114t-91.5 -98h125l21 105h65l-21 -105h59z" />
    <glyph glyph-name="onehalf" unicode="&#xbd;" horiz-adv-x="908" 
d="M210 284l59 286l-110 -25l14 61l180 46l-76 -368h-67zM286 0h-99l472 650h97zM737 370q111 0 111 -89q0 -57 -51 -114t-141 -103h158l-14 -64h-273l12 54q51 31 84.5 53.5t72.5 53t59 56.5t20 48q0 41 -61 41q-46 0 -118 -24l14 65q71 23 127 23z" />
    <glyph glyph-name="threequarters" unicode="&#xbe;" horiz-adv-x="823" 
d="M393 600l-120 -94q49 -4 77 -29t28 -63q0 -60 -46.5 -96.5t-140.5 -36.5q-65 0 -124 18l14 65q61 -19 115 -19q109 0 109 63q0 26 -22.5 36t-73.5 10h-52l10 43l114 89h-153l13 64h263zM202 0h99l470 650h-97zM814 84h-59l-17 -84h-65l17 84h-200v47q98 119 218 229h88
q-84 -74 -125.5 -114t-91.5 -98h125l21 105h65l-21 -105h59z" />
    <glyph glyph-name="questiondown" unicode="&#xbf;" horiz-adv-x="519" 
d="M322 513h100l-20 -97h-100zM384 350l-9 -47q-10 -53 -43.5 -91.5t-74 -59.5l-79.5 -39.5t-65 -44t-26 -60.5q0 -72 137 -72q104 0 225 48l-18 -89q-102 -44 -224 -44q-95 0 -156 36t-61 108q0 57 27.5 97t68 62t82 41.5t74.5 47.5t41 66l8 41h93z" />
    <glyph glyph-name="Agrave" unicode="&#xc0;" horiz-adv-x="664" 
d="M245 855h112l104 -145h-85zM618 0h-95q-12 78 -32 181h-322l-96 -181h-105q195 390 401 650h101q100 -332 148 -650zM403 556q-76 -96 -185 -288h256q-33 156 -71 288z" />
    <glyph glyph-name="Aacute" unicode="&#xc1;" horiz-adv-x="664" 
d="M598 855l-131 -145h-85l104 145h112zM618 0h-95q-12 78 -32 181h-322l-96 -181h-105q195 390 401 650h101q100 -332 148 -650zM403 556q-76 -96 -185 -288h256q-33 156 -71 288z" />
    <glyph glyph-name="Acircumflex" unicode="&#xc2;" horiz-adv-x="664" 
d="M513 855l71 -145h-76l-57 86l-93 -86h-86l131 145h110zM618 0h-95q-12 78 -32 181h-322l-96 -181h-105q195 390 401 650h101q100 -332 148 -650zM403 556q-76 -96 -185 -288h256q-33 156 -71 288z" />
    <glyph glyph-name="Atilde" unicode="&#xc3;" horiz-adv-x="664" 
d="M542 834h60q-35 -97 -114 -97q-19 0 -56.5 13.5t-52.5 13.5q-27 0 -40 -30h-60q35 97 114 97q22 0 56.5 -13.5t51.5 -13.5q31 0 41 30zM618 0h-95q-12 78 -32 181h-322l-96 -181h-105q195 390 401 650h101q100 -332 148 -650zM403 556q-76 -96 -185 -288h256
q-33 156 -71 288z" />
    <glyph glyph-name="Adieresis" unicode="&#xc4;" horiz-adv-x="664" 
d="M399 805l-20 -98h-100l20 98h100zM597 805l-20 -98h-100l20 98h100zM618 0h-95q-12 78 -32 181h-322l-96 -181h-105q195 390 401 650h101q100 -332 148 -650zM403 556q-76 -96 -185 -288h256q-33 156 -71 288z" />
    <glyph glyph-name="Aring" unicode="&#xc5;" horiz-adv-x="664" 
d="M435 711q-42 0 -66.5 21t-24.5 54q0 44 31 70.5t85 26.5q42 0 66 -20.5t24 -53.5q0 -39 -28.5 -68.5t-86.5 -29.5zM455 837q-29 0 -45 -13.5t-16 -32.5q0 -34 46 -34q28 0 44 13t16 34q0 33 -45 33zM618 0h-95q-12 78 -32 181h-322l-96 -181h-105q195 390 401 650h101
q100 -332 148 -650zM403 556q-76 -96 -185 -288h256q-33 156 -71 288z" />
    <glyph glyph-name="AE" unicode="&#xc6;" horiz-adv-x="963" 
d="M655 564l-39 -187h295l-18 -85h-295l-42 -206h322l-18 -86h-416l37 179h-270l-142 -179h-114q335 434 572 650h468l-18 -86h-322zM499 265l62 303q-143 -143 -279 -303h217z" />
    <glyph glyph-name="Ccedilla" unicode="&#xc7;" horiz-adv-x="699" 
d="M492 572q-138 0 -236 -80.5t-98 -221.5q0 -68 37 -113t89.5 -62t116.5 -17q107 0 218 44l-20 -94q-102 -40 -223 -40h-6l-10 -29q60 -10 60 -66q0 -46 -30.5 -73t-92.5 -27q-41 0 -94 14l13 61q48 -13 85 -13q49 0 49 33q0 24 -43 24q-21 0 -39 -3l39 84q-107 17 -176 84
t-69 186q0 97 37.5 175t100.5 126t140 73t160 25q117 0 219 -42l-20 -92q-108 44 -207 44z" />
    <glyph glyph-name="Egrave" unicode="&#xc8;" horiz-adv-x="590" 
d="M217 855h112l104 -145h-85zM244 564l-39 -187h332l-18 -85h-332l-42 -206h360l-18 -86h-454l135 650h454l-17 -86h-361z" />
    <glyph glyph-name="Eacute" unicode="&#xc9;" horiz-adv-x="590" 
d="M570 855l-131 -145h-85l104 145h112zM244 564l-39 -187h332l-18 -85h-332l-42 -206h360l-18 -86h-454l135 650h454l-17 -86h-361z" />
    <glyph glyph-name="Ecircumflex" unicode="&#xca;" horiz-adv-x="590" 
d="M485 855l71 -145h-76l-57 86l-93 -86h-86l131 145h110zM244 564l-39 -187h332l-18 -85h-332l-42 -206h360l-18 -86h-454l135 650h454l-17 -86h-361z" />
    <glyph glyph-name="Edieresis" unicode="&#xcb;" horiz-adv-x="590" 
d="M371 805l-20 -98h-100l20 98h100zM569 805l-20 -98h-100l20 98h100zM244 564l-39 -187h332l-18 -85h-332l-42 -206h360l-18 -86h-454l135 650h454l-17 -86h-361z" />
    <glyph glyph-name="Igrave" unicode="&#xcc;" horiz-adv-x="259" 
d="M44 855h112l104 -145h-85zM33 0l135 650h94l-135 -650h-94z" />
    <glyph glyph-name="Iacute" unicode="&#xcd;" horiz-adv-x="259" 
d="M397 855l-131 -145h-85l104 145h112zM33 0l135 650h94l-135 -650h-94z" />
    <glyph glyph-name="Icircumflex" unicode="&#xce;" horiz-adv-x="259" 
d="M312 855l71 -145h-76l-57 86l-93 -86h-86l131 145h110zM33 0l135 650h94l-135 -650h-94z" />
    <glyph glyph-name="Idieresis" unicode="&#xcf;" horiz-adv-x="259" 
d="M198 805l-20 -98h-100l20 98h100zM396 805l-20 -98h-100l20 98h100zM33 0l135 650h94l-135 -650h-94z" />
    <glyph glyph-name="Eth" unicode="&#xd0;" horiz-adv-x="711" 
d="M168 650h211q86 0 152 -24.5t108 -83t42 -144.5q0 -83 -25 -151t-66.5 -113.5t-98 -76t-118 -44t-128.5 -13.5h-212l61 293h-80l17 86h81zM145 88h98q164 0 254 80t90 212q0 88 -56.5 135t-164.5 47h-122l-38 -183h205l-17 -86h-206z" />
    <glyph glyph-name="Ntilde" unicode="&#xd1;" horiz-adv-x="726" 
d="M577 834h60q-35 -97 -114 -97q-19 0 -56.5 13.5t-52.5 13.5q-16 0 -24.5 -7t-15.5 -23h-60q35 97 114 97q22 0 56.5 -13.5t51.5 -13.5q30 0 41 30zM518 0l-282 524l-109 -524h-94l135 650h103l262 -492l102 492h94l-135 -650h-76z" />
    <glyph glyph-name="Ograve" unicode="&#xd2;" horiz-adv-x="790" 
d="M286 855h112l104 -145h-85zM464 662q143 0 221 -77t78 -208q0 -174 -111 -281.5t-282 -107.5q-144 0 -226 78.5t-82 210.5q0 172 111 278.5t291 106.5zM451 574q-128 0 -210.5 -79t-82.5 -216q0 -97 60.5 -149t163.5 -52q121 0 203 80.5t82 212.5q0 100 -58 151.5
t-158 51.5z" />
    <glyph glyph-name="Oacute" unicode="&#xd3;" horiz-adv-x="790" 
d="M639 855l-131 -145h-85l104 145h112zM464 662q143 0 221 -77t78 -208q0 -174 -111 -281.5t-282 -107.5q-144 0 -226 78.5t-82 210.5q0 172 111 278.5t291 106.5zM451 574q-128 0 -210.5 -79t-82.5 -216q0 -97 60.5 -149t163.5 -52q121 0 203 80.5t82 212.5
q0 100 -58 151.5t-158 51.5z" />
    <glyph glyph-name="Ocircumflex" unicode="&#xd4;" horiz-adv-x="790" 
d="M554 855l71 -145h-76l-57 86l-93 -86h-86l131 145h110zM464 662q143 0 221 -77t78 -208q0 -174 -111 -281.5t-282 -107.5q-144 0 -226 78.5t-82 210.5q0 172 111 278.5t291 106.5zM451 574q-128 0 -210.5 -79t-82.5 -216q0 -97 60.5 -149t163.5 -52q121 0 203 80.5
t82 212.5q0 100 -58 151.5t-158 51.5z" />
    <glyph glyph-name="Otilde" unicode="&#xd5;" horiz-adv-x="790" 
d="M583 834h60q-35 -97 -114 -97q-19 0 -56.5 13.5t-52.5 13.5q-16 0 -24.5 -7t-15.5 -23h-60q35 97 114 97q22 0 56.5 -13.5t51.5 -13.5q30 0 41 30zM464 662q143 0 221 -77t78 -208q0 -174 -111 -281.5t-282 -107.5q-144 0 -226 78.5t-82 210.5q0 172 111 278.5t291 106.5
zM451 574q-128 0 -210.5 -79t-82.5 -216q0 -97 60.5 -149t163.5 -52q121 0 203 80.5t82 212.5q0 100 -58 151.5t-158 51.5z" />
    <glyph glyph-name="Odieresis" unicode="&#xd6;" horiz-adv-x="790" 
d="M440 805l-20 -98h-100l20 98h100zM638 805l-20 -98h-100l20 98h100zM464 662q143 0 221 -77t78 -208q0 -174 -111 -281.5t-282 -107.5q-144 0 -226 78.5t-82 210.5q0 172 111 278.5t291 106.5zM451 574q-128 0 -210.5 -79t-82.5 -216q0 -97 60.5 -149t163.5 -52
q121 0 203 80.5t82 212.5q0 100 -58 151.5t-158 51.5z" />
    <glyph glyph-name="multiply" unicode="&#xd7;" horiz-adv-x="509" 
d="M454 177l-60 -60l-121 121l-122 -121l-60 60l121 122l-121 121l60 60l122 -121l121 121l60 -60l-121 -121z" />
    <glyph glyph-name="Oslash" unicode="&#xd8;" horiz-adv-x="790" 
d="M776 614l-64 -61q51 -71 51 -176q0 -174 -111 -281.5t-282 -107.5q-114 0 -193 52l-72 -68l-55 55l69 67q-57 74 -57 183q0 172 111 278.5t291 106.5q117 0 193 -53l63 60zM158 279q0 -71 32 -118l396 379q-53 34 -135 34q-128 0 -210.5 -79t-82.5 -216zM667 371
q0 65 -27 113l-392 -375q53 -31 134 -31q121 0 203 80.5t82 212.5z" />
    <glyph glyph-name="Ugrave" unicode="&#xd9;" horiz-adv-x="706" 
d="M262 855h112l104 -145h-85zM712 650l-75 -366q-61 -296 -333 -296q-122 0 -174 57t-52 148q0 41 11 91l76 366h94l-78 -373q-10 -47 -10 -71q0 -132 144 -132q84 0 144 53t81 151l78 372h94z" />
    <glyph glyph-name="Uacute" unicode="&#xda;" horiz-adv-x="706" 
d="M615 855l-131 -145h-85l104 145h112zM712 650l-75 -366q-61 -296 -333 -296q-122 0 -174 57t-52 148q0 41 11 91l76 366h94l-78 -373q-10 -47 -10 -71q0 -132 144 -132q84 0 144 53t81 151l78 372h94z" />
    <glyph glyph-name="Ucircumflex" unicode="&#xdb;" horiz-adv-x="706" 
d="M530 855l71 -145h-76l-57 86l-93 -86h-86l131 145h110zM712 650l-75 -366q-61 -296 -333 -296q-122 0 -174 57t-52 148q0 41 11 91l76 366h94l-78 -373q-10 -47 -10 -71q0 -132 144 -132q84 0 144 53t81 151l78 372h94z" />
    <glyph glyph-name="Udieresis" unicode="&#xdc;" horiz-adv-x="706" 
d="M416 805l-20 -98h-100l20 98h100zM614 805l-20 -98h-100l20 98h100zM712 650l-75 -366q-61 -296 -333 -296q-122 0 -174 57t-52 148q0 41 11 91l76 366h94l-78 -373q-10 -47 -10 -71q0 -132 144 -132q84 0 144 53t81 151l78 372h94z" />
    <glyph glyph-name="Yacute" unicode="&#xdd;" horiz-adv-x="541" 
d="M522 855l-131 -145h-85l104 145h112zM523 650h113q-187 -276 -320 -439l-41 -211h-95l45 221q-85 191 -167 429h99q60 -189 129 -347q122 162 237 347z" />
    <glyph glyph-name="Thorn" unicode="&#xde;" horiz-adv-x="620" 
d="M240 545h156q25 0 51 -4.5t55.5 -17.5t52 -33t37.5 -54.5t15 -78.5q0 -60 -21 -106t-52 -72.5t-72 -44t-75.5 -23t-68.5 -5.5h-169l-22 -106h-94l135 650h94zM168 194h156q80 0 132 39t52 122q0 54 -36.5 78t-92.5 24h-157z" />
    <glyph glyph-name="germandbls" unicode="&#xdf;" horiz-adv-x="574" 
d="M346 712q75 0 122 -36t47 -92q0 -19 -4 -35q-8 -38 -26.5 -64.5t-40 -39.5t-41.5 -22.5t-35 -21t-17 -28.5q-2 -14 7 -23t42 -24l58 -27q86 -40 86 -125q0 -186 -218 -186q-58 0 -149 25l18 83q74 -27 138 -27t90.5 28t26.5 68t-55 65l-74 33q-83 37 -64 116q11 46 36 72
t49.5 32.5t47 23.5t28.5 47q2 12 2 18q0 56 -84 56q-46 0 -71.5 -22t-36.5 -75l-110 -531h-90l113 539q20 94 68.5 133.5t136.5 39.5z" />
    <glyph glyph-name="agrave" unicode="&#xe0;" horiz-adv-x="633" 
d="M206 736h110l104 -145h-83zM511 0h-61l-7 40q-68 -52 -168 -52q-94 0 -160.5 53t-66.5 159q0 77 29 140.5t75 102.5t101 60t110 21q52 0 97 -14.5t68 -32.5l27 36h62zM139 200q0 -68 42 -101.5t105 -33.5q95 0 161 58l57 277q-18 16 -55.5 28.5t-84.5 12.5
q-91 0 -158 -64t-67 -177z" />
    <glyph glyph-name="aacute" unicode="&#xe1;" horiz-adv-x="633" 
d="M553 736l-131 -145h-83l104 145h110zM511 0h-61l-7 40q-68 -52 -168 -52q-94 0 -160.5 53t-66.5 159q0 77 29 140.5t75 102.5t101 60t110 21q52 0 97 -14.5t68 -32.5l27 36h62zM139 200q0 -68 42 -101.5t105 -33.5q95 0 161 58l57 277q-18 16 -55.5 28.5t-84.5 12.5
q-91 0 -158 -64t-67 -177z" />
    <glyph glyph-name="acircumflex" unicode="&#xe2;" horiz-adv-x="633" 
d="M461 591l-57 86l-93 -86h-86l131 145h110l71 -145h-76zM511 0h-61l-7 40q-68 -52 -168 -52q-94 0 -160.5 53t-66.5 159q0 77 29 140.5t75 102.5t101 60t110 21q52 0 97 -14.5t68 -32.5l27 36h62zM139 200q0 -68 42 -101.5t105 -33.5q95 0 161 58l57 277
q-18 16 -55.5 28.5t-84.5 12.5q-91 0 -158 -64t-67 -177z" />
    <glyph glyph-name="atilde" unicode="&#xe3;" horiz-adv-x="633" 
d="M498 714h60q-35 -97 -114 -97q-19 0 -56.5 13.5t-52.5 13.5q-27 0 -40 -30h-60q35 97 114 97q22 0 56.5 -13.5t51.5 -13.5q31 0 41 30zM511 0h-61l-7 40q-68 -52 -168 -52q-94 0 -160.5 53t-66.5 159q0 77 29 140.5t75 102.5t101 60t110 21q52 0 97 -14.5t68 -32.5l27 36
h62zM139 200q0 -68 42 -101.5t105 -33.5q95 0 161 58l57 277q-18 16 -55.5 28.5t-84.5 12.5q-91 0 -158 -64t-67 -177z" />
    <glyph glyph-name="adieresis" unicode="&#xe4;" horiz-adv-x="633" 
d="M351 684l-20 -96h-98l20 96h98zM549 684l-20 -96h-98l20 96h98zM511 0h-61l-7 40q-68 -52 -168 -52q-94 0 -160.5 53t-66.5 159q0 77 29 140.5t75 102.5t101 60t110 21q52 0 97 -14.5t68 -32.5l27 36h62zM139 200q0 -68 42 -101.5t105 -33.5q95 0 161 58l57 277
q-18 16 -55.5 28.5t-84.5 12.5q-91 0 -158 -64t-67 -177z" />
    <glyph glyph-name="aring" unicode="&#xe5;" horiz-adv-x="633" 
d="M382 580q-42 0 -66.5 21t-24.5 54q0 44 31 70.5t85 26.5q42 0 66 -20.5t24 -53.5q0 -39 -28.5 -68.5t-86.5 -29.5zM402 706q-29 0 -45 -13.5t-16 -32.5q0 -34 46 -34q28 0 44 13t16 34q0 33 -45 33zM511 0h-61l-7 40q-68 -52 -168 -52q-94 0 -160.5 53t-66.5 159
q0 77 29 140.5t75 102.5t101 60t110 21q52 0 97 -14.5t68 -32.5l27 36h62zM139 200q0 -68 42 -101.5t105 -33.5q95 0 161 58l57 277q-18 16 -55.5 28.5t-84.5 12.5q-91 0 -158 -64t-67 -177z" />
    <glyph glyph-name="ae" unicode="&#xe6;" horiz-adv-x="977" 
d="M549 224l-2 -28q0 -38 17 -64.5t46 -38.5t54 -16.5t53 -4.5q47 0 97 9.5t76 18.5l27 10l-19 -87q-82 -35 -203 -35q-143 0 -201 88q-135 -88 -267 -88q-81 0 -127 38.5t-46 105.5q0 86 66 140t188 54q90 0 162 -41l7 32q4 16 4 36q0 50 -37.5 68.5t-103.5 18.5
q-84 0 -199 -35l19 89q106 30 207 30q160 0 192 -86q86 86 218 86q94 0 143 -46.5t49 -132.5q0 -33 -17 -121h-403zM767 442q-67 0 -123 -35t-77 -105h308q3 21 3 32q0 108 -111 108zM259 70q98 0 200 65q-4 28 -4 46q0 11 2 33q-68 37 -153 37q-78 0 -115 -31.5t-37 -80.5
q0 -69 107 -69z" />
    <glyph glyph-name="ccedilla" unicode="&#xe7;" horiz-adv-x="540" 
d="M378 443q-101 0 -169.5 -63t-68.5 -166q0 -68 44.5 -105t120.5 -37q101 0 190 40l-18 -88q-73 -32 -171 -36l-10 -29q60 -10 60 -66q0 -46 -30.5 -73t-92.5 -27q-41 0 -94 14l13 61q48 -13 85 -13q49 0 49 33q0 24 -43 24q-21 0 -39 -3l39 83q-88 13 -141.5 70t-53.5 149
q0 99 49.5 172t125 107t163.5 34q105 0 175 -34l-17 -81q-77 34 -166 34z" />
    <glyph glyph-name="egrave" unicode="&#xe8;" horiz-adv-x="584" 
d="M185 736h110l104 -145h-83zM139 224l-2 -28q0 -38 17 -64.5t46 -38.5t54 -16.5t53 -4.5q103 0 200 38l-19 -87q-82 -35 -203 -35q-101 0 -169 52.5t-68 154.5q0 84 28.5 149t75.5 103t101.5 57.5t113.5 19.5q94 0 143 -46.5t49 -132.5q0 -33 -17 -121h-403zM157 302h308
q3 21 3 32q0 108 -111 108q-67 0 -123 -35t-77 -105z" />
    <glyph glyph-name="eacute" unicode="&#xe9;" horiz-adv-x="584" 
d="M532 736l-131 -145h-83l104 145h110zM139 224l-2 -28q0 -38 17 -64.5t46 -38.5t54 -16.5t53 -4.5q103 0 200 38l-19 -87q-82 -35 -203 -35q-101 0 -169 52.5t-68 154.5q0 84 28.5 149t75.5 103t101.5 57.5t113.5 19.5q94 0 143 -46.5t49 -132.5q0 -33 -17 -121h-403z
M157 302h308q3 21 3 32q0 108 -111 108q-67 0 -123 -35t-77 -105z" />
    <glyph glyph-name="ecircumflex" unicode="&#xea;" horiz-adv-x="584" 
d="M440 591l-57 86l-93 -86h-86l131 145h110l71 -145h-76zM139 224l-2 -28q0 -38 17 -64.5t46 -38.5t54 -16.5t53 -4.5q103 0 200 38l-19 -87q-82 -35 -203 -35q-101 0 -169 52.5t-68 154.5q0 84 28.5 149t75.5 103t101.5 57.5t113.5 19.5q94 0 143 -46.5t49 -132.5
q0 -33 -17 -121h-403zM157 302h308q3 21 3 32q0 108 -111 108q-67 0 -123 -35t-77 -105z" />
    <glyph glyph-name="edieresis" unicode="&#xeb;" horiz-adv-x="584" 
d="M330 684l-20 -96h-98l20 96h98zM528 684l-20 -96h-98l20 96h98zM139 224l-2 -28q0 -38 17 -64.5t46 -38.5t54 -16.5t53 -4.5q103 0 200 38l-19 -87q-82 -35 -203 -35q-101 0 -169 52.5t-68 154.5q0 84 28.5 149t75.5 103t101.5 57.5t113.5 19.5q94 0 143 -46.5t49 -132.5
q0 -33 -17 -121h-403zM157 302h308q3 21 3 32q0 108 -111 108q-67 0 -123 -35t-77 -105z" />
    <glyph glyph-name="igrave" unicode="&#xec;" horiz-adv-x="245" 
d="M135 736l104 -145h-83l-131 145h110zM123 0h-90l106 513h90z" />
    <glyph glyph-name="iacute" unicode="&#xed;" horiz-adv-x="245" 
d="M241 591h-83l104 145h110zM123 0h-90l106 513h90z" />
    <glyph glyph-name="icircumflex" unicode="&#xee;" horiz-adv-x="245" 
d="M223 677l-93 -86h-86l131 145h110l71 -145h-76zM123 0h-90l106 513h90z" />
    <glyph glyph-name="idieresis" unicode="&#xef;" horiz-adv-x="245" 
d="M150 588h-98l20 96h98zM348 588h-98l20 96h98zM123 0h-90l106 513h90z" />
    <glyph glyph-name="eth" unicode="&#xf0;" horiz-adv-x="666" 
d="M636 663l-80 -46q75 -78 75 -206q0 -84 -22 -159t-63.5 -134.5t-108.5 -94.5t-151 -35q-106 0 -172 56t-66 156q0 110 80 197t213 87q111 0 199 -66q-3 100 -60 156l-84 -49l-28 59l51 30q-43 19 -114 33l40 76q94 -22 157 -61l105 61zM295 73q102 0 161 72.5t77 178.5
q-81 76 -195 76q-90 0 -141.5 -57t-51.5 -141q0 -54 37.5 -91.5t112.5 -37.5z" />
    <glyph glyph-name="ntilde" unicode="&#xf1;" horiz-adv-x="612" 
d="M336 644q-16 0 -24.5 -7t-15.5 -23h-60q35 97 114 97q22 0 56.5 -13.5t51.5 -13.5q30 0 41 30h60q-35 -97 -114 -97q-19 0 -56.5 13.5t-52.5 13.5zM410 524q167 0 167 -133q0 -23 -8 -65l-67 -326h-90l65 315q8 34 8 53q0 75 -97 75q-53 0 -106 -20t-86 -45l-79 -378h-90
l106 513h61l10 -51q35 24 92.5 43t113.5 19z" />
    <glyph glyph-name="ograve" unicode="&#xf2;" horiz-adv-x="633" 
d="M205 736h110l104 -145h-83zM380 524h1q97 0 159.5 -57t62.5 -155q0 -100 -47.5 -174.5t-122 -110.5t-163.5 -39q-97 0 -159.5 57t-62.5 155q0 151 97 237.5t235 86.5zM289 71q91 0 157 64t66 168q0 59 -38 98.5t-113 39.5q-91 0 -156.5 -64t-65.5 -168q0 -59 38 -98.5
t112 -39.5z" />
    <glyph glyph-name="oacute" unicode="&#xf3;" horiz-adv-x="633" 
d="M552 736l-131 -145h-83l104 145h110zM380 524h1q97 0 159.5 -57t62.5 -155q0 -100 -47.5 -174.5t-122 -110.5t-163.5 -39q-97 0 -159.5 57t-62.5 155q0 151 97 237.5t235 86.5zM289 71q91 0 157 64t66 168q0 59 -38 98.5t-113 39.5q-91 0 -156.5 -64t-65.5 -168
q0 -59 38 -98.5t112 -39.5z" />
    <glyph glyph-name="ocircumflex" unicode="&#xf4;" horiz-adv-x="633" 
d="M460 591l-57 86l-93 -86h-86l131 145h110l71 -145h-76zM380 524h1q97 0 159.5 -57t62.5 -155q0 -100 -47.5 -174.5t-122 -110.5t-163.5 -39q-97 0 -159.5 57t-62.5 155q0 151 97 237.5t235 86.5zM289 71q91 0 157 64t66 168q0 59 -38 98.5t-113 39.5q-91 0 -156.5 -64
t-65.5 -168q0 -59 38 -98.5t112 -39.5z" />
    <glyph glyph-name="otilde" unicode="&#xf5;" horiz-adv-x="633" 
d="M497 714h60q-35 -97 -114 -97q-19 0 -56.5 13.5t-52.5 13.5q-16 0 -24.5 -7t-15.5 -23h-60q35 97 114 97q22 0 56.5 -13.5t51.5 -13.5q30 0 41 30zM380 524h1q97 0 159.5 -57t62.5 -155q0 -100 -47.5 -174.5t-122 -110.5t-163.5 -39q-97 0 -159.5 57t-62.5 155
q0 151 97 237.5t235 86.5zM289 71q91 0 157 64t66 168q0 59 -38 98.5t-113 39.5q-91 0 -156.5 -64t-65.5 -168q0 -59 38 -98.5t112 -39.5z" />
    <glyph glyph-name="odieresis" unicode="&#xf6;" horiz-adv-x="633" 
d="M350 684l-20 -96h-98l20 96h98zM548 684l-20 -96h-98l20 96h98zM380 524h1q97 0 159.5 -57t62.5 -155q0 -100 -47.5 -174.5t-122 -110.5t-163.5 -39q-97 0 -159.5 57t-62.5 155q0 151 97 237.5t235 86.5zM289 71q91 0 157 64t66 168q0 59 -38 98.5t-113 39.5
q-91 0 -156.5 -64t-65.5 -168q0 -59 38 -98.5t112 -39.5z" />
    <glyph glyph-name="divide" unicode="&#xf7;" horiz-adv-x="533" 
d="M331 416h-100v97h100v-97zM67 341h430v-85h-430v85zM331 84h-100v97h100v-97z" />
    <glyph glyph-name="oslash" unicode="&#xf8;" horiz-adv-x="640" 
d="M613 482l-47 -45q37 -51 37 -125q0 -100 -47.5 -174.5t-122 -110.5t-163.5 -39q-77 0 -134 37l-54 -51l-56 54l55 53q-33 50 -33 119q0 151 97 237.5t235 86.5h1q71 0 128 -33l47 45zM139 209q0 -33 12 -61l289 277q-34 16 -79 16q-91 0 -156.5 -64t-65.5 -168zM512 303
q0 37 -15 68l-293 -281q35 -19 85 -19q91 0 157 64t66 168z" />
    <glyph glyph-name="ugrave" unicode="&#xf9;" horiz-adv-x="621" 
d="M198 736h110l104 -145h-83zM220 513l-65 -316q-7 -30 -7 -49q0 -79 106 -79q53 0 103.5 20t79.5 45l78 379h90l-107 -513h-59l-9 51q-28 -24 -81.5 -43.5t-114.5 -19.5q-79 0 -127.5 36t-48.5 105q0 27 6 58l66 326h90z" />
    <glyph glyph-name="uacute" unicode="&#xfa;" horiz-adv-x="621" 
d="M545 736l-131 -145h-83l104 145h110zM220 513l-65 -316q-7 -30 -7 -49q0 -79 106 -79q53 0 103.5 20t79.5 45l78 379h90l-107 -513h-59l-9 51q-28 -24 -81.5 -43.5t-114.5 -19.5q-79 0 -127.5 36t-48.5 105q0 27 6 58l66 326h90z" />
    <glyph glyph-name="ucircumflex" unicode="&#xfb;" horiz-adv-x="621" 
d="M453 591l-57 86l-93 -86h-86l131 145h110l71 -145h-76zM220 513l-65 -316q-7 -30 -7 -49q0 -79 106 -79q53 0 103.5 20t79.5 45l78 379h90l-107 -513h-59l-9 51q-28 -24 -81.5 -43.5t-114.5 -19.5q-79 0 -127.5 36t-48.5 105q0 27 6 58l66 326h90z" />
    <glyph glyph-name="udieresis" unicode="&#xfc;" horiz-adv-x="621" 
d="M343 684l-20 -96h-98l20 96h98zM541 684l-20 -96h-98l20 96h98zM220 513l-65 -316q-7 -30 -7 -49q0 -79 106 -79q53 0 103.5 20t79.5 45l78 379h90l-107 -513h-59l-9 51q-28 -24 -81.5 -43.5t-114.5 -19.5q-79 0 -127.5 36t-48.5 105q0 27 6 58l66 326h90z" />
    <glyph glyph-name="yacute" unicode="&#xfd;" horiz-adv-x="532" 
d="M503 736l-131 -145h-83l104 145h110zM486 513h99q-148 -276 -311 -513q-75 -109 -142 -160.5t-143 -51.5q-44 0 -73 9l21 88q30 -10 60 -10q53 0 94.5 35.5t86.5 104.5q-43 126 -74.5 265t-43.5 233h90q37 -253 91 -413q124 182 245 413z" />
    <glyph glyph-name="thorn" unicode="&#xfe;" horiz-adv-x="630" 
d="M385 524q96 0 157.5 -58t61.5 -165q0 -99 -47 -172t-118.5 -107t-154.5 -34q-84 0 -155 45l-48 -233h-90l185 891h90l-44 -211q70 44 163 44zM292 71q93 0 155.5 66t62.5 162q0 66 -40 104t-103 38q-47 0 -93 -17.5t-72 -39.5l-54 -263q16 -19 54.5 -34.5t89.5 -15.5z
" />
    <glyph glyph-name="ydieresis" unicode="&#xff;" horiz-adv-x="532" 
d="M301 684l-20 -96h-98l20 96h98zM499 684l-20 -96h-98l20 96h98zM486 513h99q-148 -276 -311 -513q-75 -109 -142 -160.5t-143 -51.5q-44 0 -73 9l21 88q30 -10 60 -10q53 0 94.5 35.5t86.5 104.5q-43 126 -74.5 265t-43.5 233h90q37 -253 91 -413q124 182 245 413z" />
    <glyph glyph-name="Amacron" unicode="&#x100;" horiz-adv-x="664" 
d="M583 793l-16 -77h-274l16 77h274zM618 0h-95q-12 78 -32 181h-322l-96 -181h-105q195 390 401 650h101q100 -332 148 -650zM403 556q-76 -96 -185 -288h256q-33 156 -71 288z" />
    <glyph glyph-name="amacron" unicode="&#x101;" horiz-adv-x="633" 
d="M530 692l-16 -77h-274l16 77h274zM511 0h-61l-7 40q-68 -52 -168 -52q-94 0 -160.5 53t-66.5 159q0 77 29 140.5t75 102.5t101 60t110 21q52 0 97 -14.5t68 -32.5l27 36h62zM139 200q0 -68 42 -101.5t105 -33.5q95 0 161 58l57 277q-18 16 -55.5 28.5t-84.5 12.5
q-91 0 -158 -64t-67 -177z" />
    <glyph glyph-name="Abreve" unicode="&#x102;" horiz-adv-x="664" 
d="M518 827h77q-37 -119 -159 -119q-66 0 -98 31.5t-27 87.5h77q-2 -25 11 -39t43 -14q57 0 76 53zM618 0h-95q-12 78 -32 181h-322l-96 -181h-105q195 390 401 650h101q100 -332 148 -650zM403 556q-76 -96 -185 -288h256q-33 156 -71 288z" />
    <glyph glyph-name="abreve" unicode="&#x103;" horiz-adv-x="633" 
d="M474 712h77q-37 -119 -159 -119q-66 0 -98 31.5t-27 87.5h77q-2 -25 11 -39t43 -14q57 0 76 53zM511 0h-61l-7 40q-68 -52 -168 -52q-94 0 -160.5 53t-66.5 159q0 77 29 140.5t75 102.5t101 60t110 21q52 0 97 -14.5t68 -32.5l27 36h62zM139 200q0 -68 42 -101.5
t105 -33.5q95 0 161 58l57 277q-18 16 -55.5 28.5t-84.5 12.5q-91 0 -158 -64t-67 -177z" />
    <glyph glyph-name="Aogonek" unicode="&#x104;" horiz-adv-x="664" 
d="M476 -99q0 -18 28 -18q32 0 83 20l-13 -69q-48 -16 -89 -16q-43 0 -64.5 17t-21.5 46q0 46 36.5 77t86.5 46q-9 58 -31 177h-322l-96 -181h-105q195 390 401 650h101q100 -332 148 -650h-22q-59 -24 -89.5 -50t-30.5 -49zM218 268h256q-33 156 -71 288q-76 -96 -185 -288
z" />
    <glyph glyph-name="aogonek" unicode="&#x105;" horiz-adv-x="633" 
d="M403 -99q0 -18 28 -18q32 0 83 20l-13 -69q-48 -16 -89 -16q-43 0 -64.5 17t-21.5 46q0 46 36 77t87 46l-6 36q-68 -52 -168 -52q-94 0 -160.5 53t-66.5 159q0 77 29 140.5t75 102.5t101 60t110 21q52 0 97 -14.5t68 -32.5l27 36h62l-106 -513q-108 -52 -108 -99zM286 65
q95 0 161 58l57 277q-18 16 -55.5 28.5t-84.5 12.5q-91 0 -158 -64t-67 -177q0 -68 42 -101.5t105 -33.5z" />
    <glyph glyph-name="Cacute" unicode="&#x106;" horiz-adv-x="699" 
d="M656 855l-131 -145h-85l104 145h112zM500 662q117 0 219 -42l-20 -92q-108 44 -207 44q-138 0 -236 -80.5t-98 -221.5q0 -68 37 -113t89.5 -62t116.5 -17q107 0 218 44l-20 -94q-102 -40 -223 -40q-60 0 -114 15.5t-100 46.5t-73 86t-27 127q0 97 37.5 175t100.5 126
t140 73t160 25z" />
    <glyph glyph-name="cacute" unicode="&#x107;" horiz-adv-x="540" 
d="M558 736l-131 -145h-83l104 145h110zM386 524q105 0 175 -34l-17 -81q-77 34 -166 34q-101 0 -169.5 -63t-68.5 -166q0 -68 44.5 -105t120.5 -37q101 0 190 40l-18 -88q-82 -36 -185 -36q-106 0 -175 59t-69 164q0 99 49.5 172t125 107t163.5 34z" />
    <glyph glyph-name="Ccircumflex" unicode="&#x108;" horiz-adv-x="699" 
d="M571 855l71 -145h-76l-57 86l-93 -86h-86l131 145h110zM500 662q117 0 219 -42l-20 -92q-108 44 -207 44q-138 0 -236 -80.5t-98 -221.5q0 -68 37 -113t89.5 -62t116.5 -17q107 0 218 44l-20 -94q-102 -40 -223 -40q-60 0 -114 15.5t-100 46.5t-73 86t-27 127
q0 97 37.5 175t100.5 126t140 73t160 25z" />
    <glyph glyph-name="ccircumflex" unicode="&#x109;" horiz-adv-x="540" 
d="M466 591l-57 86l-93 -86h-86l131 145h110l71 -145h-76zM386 524q105 0 175 -34l-17 -81q-77 34 -166 34q-101 0 -169.5 -63t-68.5 -166q0 -68 44.5 -105t120.5 -37q101 0 190 40l-18 -88q-82 -36 -185 -36q-106 0 -175 59t-69 164q0 99 49.5 172t125 107t163.5 34z" />
    <glyph glyph-name="Cdotaccent" unicode="&#x10a;" horiz-adv-x="699" 
d="M556 805l-20 -98h-100l20 98h100zM500 662q117 0 219 -42l-20 -92q-108 44 -207 44q-138 0 -236 -80.5t-98 -221.5q0 -68 37 -113t89.5 -62t116.5 -17q107 0 218 44l-20 -94q-102 -40 -223 -40q-60 0 -114 15.5t-100 46.5t-73 86t-27 127q0 97 37.5 175t100.5 126t140 73
t160 25z" />
    <glyph glyph-name="cdotaccent" unicode="&#x10b;" horiz-adv-x="540" 
d="M455 684l-20 -96h-98l20 96h98zM386 524q105 0 175 -34l-17 -81q-77 34 -166 34q-101 0 -169.5 -63t-68.5 -166q0 -68 44.5 -105t120.5 -37q101 0 190 40l-18 -88q-82 -36 -185 -36q-106 0 -175 59t-69 164q0 99 49.5 172t125 107t163.5 34z" />
    <glyph glyph-name="Ccaron" unicode="&#x10c;" horiz-adv-x="699" 
d="M672 855l-131 -145h-110l-71 145h76l57 -86l93 86h86zM500 662q117 0 219 -42l-20 -92q-108 44 -207 44q-138 0 -236 -80.5t-98 -221.5q0 -68 37 -113t89.5 -62t116.5 -17q107 0 218 44l-20 -94q-102 -40 -223 -40q-60 0 -114 15.5t-100 46.5t-73 86t-27 127
q0 97 37.5 175t100.5 126t140 73t160 25z" />
    <glyph glyph-name="ccaron" unicode="&#x10d;" horiz-adv-x="540" 
d="M572 736l-131 -145h-110l-71 145h76l57 -86l93 86h86zM386 524q105 0 175 -34l-17 -81q-77 34 -166 34q-101 0 -169.5 -63t-68.5 -166q0 -68 44.5 -105t120.5 -37q101 0 190 40l-18 -88q-82 -36 -185 -36q-106 0 -175 59t-69 164q0 99 49.5 172t125 107t163.5 34z" />
    <glyph glyph-name="Dcaron" unicode="&#x10e;" horiz-adv-x="711" 
d="M586 855l-131 -145h-110l-71 145h76l57 -86l93 86h86zM168 650h211q86 0 152 -24.5t108 -83t42 -144.5q0 -83 -25 -151t-66.5 -113.5t-98 -76t-118 -44t-128.5 -13.5h-212zM145 88h98q164 0 254 80t90 212q0 88 -56.5 135t-164.5 47h-122z" />
    <glyph glyph-name="dcaron" unicode="&#x10f;" horiz-adv-x="777" 
d="M511 0h-61l-7 40q-68 -52 -168 -52q-94 0 -160.5 53t-66.5 159q0 77 29 140.5t75 102.5t101 60t110 21q96 0 157 -42l45 209h90zM856 691l-98 -166h-76l78 166h96zM139 200q0 -68 42 -101.5t105 -33.5q95 0 161 58l57 277q-18 16 -55.5 28.5t-84.5 12.5q-91 0 -158 -64
t-67 -177z" />
    <glyph glyph-name="Dcroat" unicode="&#x110;" horiz-adv-x="711" 
d="M168 650h211q86 0 152 -24.5t108 -83t42 -144.5q0 -83 -25 -151t-66.5 -113.5t-98 -76t-118 -44t-128.5 -13.5h-212l61 293h-80l17 86h81zM145 88h98q164 0 254 80t90 212q0 88 -56.5 135t-164.5 47h-122l-38 -183h205l-17 -86h-206z" />
    <glyph glyph-name="dcroat" unicode="&#x111;" horiz-adv-x="642" 
d="M754 642l-16 -77h-109l-118 -565h-61l-7 40q-68 -52 -168 -52q-94 0 -160.5 53t-66.5 159q0 77 29 140.5t75 102.5t101 60t110 21q96 0 157 -42l18 83h-142l16 77h142l11 49h90l-10 -49h109zM447 123l57 277q-18 16 -55.5 28.5t-84.5 12.5q-91 0 -158 -64t-67 -177
q0 -68 42 -101.5t105 -33.5q95 0 161 58z" />
    <glyph glyph-name="Emacron" unicode="&#x112;" horiz-adv-x="590" 
d="M555 793l-16 -77h-274l16 77h274zM244 564l-39 -187h332l-18 -85h-332l-42 -206h360l-18 -86h-454l135 650h454l-17 -86h-361z" />
    <glyph glyph-name="emacron" unicode="&#x113;" horiz-adv-x="584" 
d="M509 692l-16 -77h-274l16 77h274zM139 224l-2 -28q0 -38 17 -64.5t46 -38.5t54 -16.5t53 -4.5q103 0 200 38l-19 -87q-82 -35 -203 -35q-101 0 -169 52.5t-68 154.5q0 84 28.5 149t75.5 103t101.5 57.5t113.5 19.5q94 0 143 -46.5t49 -132.5q0 -33 -17 -121h-403z
M157 302h308q3 21 3 32q0 108 -111 108q-67 0 -123 -35t-77 -105z" />
    <glyph glyph-name="Ebreve" unicode="&#x114;" horiz-adv-x="590" 
d="M490 827h77q-37 -119 -159 -119q-66 0 -98 31.5t-27 87.5h77q-2 -25 11 -39t43 -14q57 0 76 53zM244 564l-39 -187h332l-18 -85h-332l-42 -206h360l-18 -86h-454l135 650h454l-17 -86h-361z" />
    <glyph glyph-name="ebreve" unicode="&#x115;" horiz-adv-x="584" 
d="M453 712h77q-37 -119 -159 -119q-66 0 -98 31.5t-27 87.5h77q-2 -25 11 -39t43 -14q57 0 76 53zM139 224l-2 -28q0 -38 17 -64.5t46 -38.5t54 -16.5t53 -4.5q103 0 200 38l-19 -87q-82 -35 -203 -35q-101 0 -169 52.5t-68 154.5q0 84 28.5 149t75.5 103t101.5 57.5
t113.5 19.5q94 0 143 -46.5t49 -132.5q0 -33 -17 -121h-403zM157 302h308q3 21 3 32q0 108 -111 108q-67 0 -123 -35t-77 -105z" />
    <glyph glyph-name="Edotaccent" unicode="&#x116;" horiz-adv-x="590" 
d="M470 805l-20 -98h-100l20 98h100zM244 564l-39 -187h332l-18 -85h-332l-42 -206h360l-18 -86h-454l135 650h454l-17 -86h-361z" />
    <glyph glyph-name="edotaccent" unicode="&#x117;" horiz-adv-x="584" 
d="M429 684l-20 -96h-98l20 96h98zM139 224l-2 -28q0 -38 17 -64.5t46 -38.5t54 -16.5t53 -4.5q103 0 200 38l-19 -87q-82 -35 -203 -35q-101 0 -169 52.5t-68 154.5q0 84 28.5 149t75.5 103t101.5 57.5t113.5 19.5q94 0 143 -46.5t49 -132.5q0 -33 -17 -121h-403zM157 302
h308q3 21 3 32q0 108 -111 108q-67 0 -123 -35t-77 -105z" />
    <glyph glyph-name="Eogonek" unicode="&#x118;" horiz-adv-x="590" 
d="M605 564h-361l-39 -187h332l-18 -85h-332l-42 -206h360l-18 -86h-102q-59 -24 -89.5 -50t-30.5 -49q0 -18 28 -18q32 0 83 20l-13 -69q-48 -16 -89 -16q-43 0 -64.5 17t-21.5 46q0 42 32.5 72t79.5 47h-267l135 650h454z" />
    <glyph glyph-name="eogonek" unicode="&#x119;" horiz-adv-x="584" 
d="M542 224h-403l-2 -28q0 -38 17 -64.5t46 -38.5t54 -16.5t53 -4.5q103 0 200 38l-19 -87q-25 -11 -61 -19q-65 -25 -98 -52t-33 -51q0 -18 28 -18q32 0 83 20l-13 -69q-48 -16 -89 -16q-43 0 -64.5 17t-21.5 46q0 67 84 107h-18q-101 0 -169 52.5t-68 154.5q0 84 28.5 149
t75.5 103t101.5 57.5t113.5 19.5q94 0 143 -46.5t49 -132.5q0 -33 -17 -121zM357 442q-67 0 -123 -35t-77 -105h308q3 21 3 32q0 108 -111 108z" />
    <glyph glyph-name="Ecaron" unicode="&#x11a;" horiz-adv-x="590" 
d="M586 855l-131 -145h-110l-71 145h76l57 -86l93 86h86zM244 564l-39 -187h332l-18 -85h-332l-42 -206h360l-18 -86h-454l135 650h454l-17 -86h-361z" />
    <glyph glyph-name="ecaron" unicode="&#x11b;" horiz-adv-x="584" 
d="M546 736l-131 -145h-110l-71 145h76l57 -86l93 86h86zM139 224l-2 -28q0 -38 17 -64.5t46 -38.5t54 -16.5t53 -4.5q103 0 200 38l-19 -87q-82 -35 -203 -35q-101 0 -169 52.5t-68 154.5q0 84 28.5 149t75.5 103t101.5 57.5t113.5 19.5q94 0 143 -46.5t49 -132.5
q0 -33 -17 -121h-403zM157 302h308q3 21 3 32q0 108 -111 108q-67 0 -123 -35t-77 -105z" />
    <glyph glyph-name="Gcircumflex" unicode="&#x11c;" horiz-adv-x="714" 
d="M559 855l71 -145h-76l-57 86l-93 -86h-86l131 145h110zM503 662q54 0 107.5 -11t80.5 -21l27 -11l-19 -89q-96 42 -207 42q-138 0 -236 -79t-98 -222q0 -98 65 -146t165 -48q32 0 65 4.5t49 8.5l17 4l46 225h94l-61 -296q-94 -35 -228 -35q-62 0 -115.5 16t-97.5 48
t-69.5 86t-25.5 125q0 96 37 173.5t99.5 126t140.5 74t164 25.5z" />
    <glyph glyph-name="gcircumflex" unicode="&#x11d;" horiz-adv-x="630" 
d="M469 591l-57 86l-93 -86h-86l131 145h110l71 -145h-76zM617 513l-108 -521q-22 -104 -102.5 -154t-202.5 -50q-114 0 -201 47l18 88q37 -20 92 -36.5t104 -16.5q32 0 62.5 7t61 22.5t53 44t31.5 66.5l4 20q-65 -42 -154 -42q-94 0 -160.5 53t-66.5 159q0 77 29 140.5
t75 102.5t101 60t110 21q52 0 97 -14.5t68 -32.5l27 36h62zM139 200q0 -68 42 -101.5t105 -33.5q95 0 161 58l57 277q-18 16 -55.5 28.5t-84.5 12.5q-91 0 -158 -64t-67 -177z" />
    <glyph glyph-name="Gbreve" unicode="&#x11e;" horiz-adv-x="714" 
d="M564 827h77q-37 -119 -159 -119q-66 0 -98 31.5t-27 87.5h77q-2 -25 11 -39t43 -14q57 0 76 53zM503 662q54 0 107.5 -11t80.5 -21l27 -11l-19 -89q-96 42 -207 42q-138 0 -236 -79t-98 -222q0 -98 65 -146t165 -48q32 0 65 4.5t49 8.5l17 4l46 225h94l-61 -296
q-94 -35 -228 -35q-62 0 -115.5 16t-97.5 48t-69.5 86t-25.5 125q0 96 37 173.5t99.5 126t140.5 74t164 25.5z" />
    <glyph glyph-name="gbreve" unicode="&#x11f;" horiz-adv-x="630" 
d="M482 712h77q-37 -119 -159 -119q-66 0 -98 31.5t-27 87.5h77q-2 -25 11 -39t43 -14q57 0 76 53zM617 513l-108 -521q-22 -104 -102.5 -154t-202.5 -50q-114 0 -201 47l18 88q37 -20 92 -36.5t104 -16.5q32 0 62.5 7t61 22.5t53 44t31.5 66.5l4 20q-65 -42 -154 -42
q-94 0 -160.5 53t-66.5 159q0 77 29 140.5t75 102.5t101 60t110 21q52 0 97 -14.5t68 -32.5l27 36h62zM139 200q0 -68 42 -101.5t105 -33.5q95 0 161 58l57 277q-18 16 -55.5 28.5t-84.5 12.5q-91 0 -158 -64t-67 -177z" />
    <glyph glyph-name="Gdotaccent" unicode="&#x120;" horiz-adv-x="714" 
d="M544 805l-20 -98h-100l20 98h100zM503 662q54 0 107.5 -11t80.5 -21l27 -11l-19 -89q-96 42 -207 42q-138 0 -236 -79t-98 -222q0 -98 65 -146t165 -48q32 0 65 4.5t49 8.5l17 4l46 225h94l-61 -296q-94 -35 -228 -35q-62 0 -115.5 16t-97.5 48t-69.5 86t-25.5 125
q0 96 37 173.5t99.5 126t140.5 74t164 25.5z" />
    <glyph glyph-name="gdotaccent" unicode="&#x121;" horiz-adv-x="630" 
d="M458 684l-20 -96h-98l20 96h98zM617 513l-108 -521q-22 -104 -102.5 -154t-202.5 -50q-114 0 -201 47l18 88q37 -20 92 -36.5t104 -16.5q32 0 62.5 7t61 22.5t53 44t31.5 66.5l4 20q-65 -42 -154 -42q-94 0 -160.5 53t-66.5 159q0 77 29 140.5t75 102.5t101 60t110 21
q52 0 97 -14.5t68 -32.5l27 36h62zM139 200q0 -68 42 -101.5t105 -33.5q95 0 161 58l57 277q-18 16 -55.5 28.5t-84.5 12.5q-91 0 -158 -64t-67 -177z" />
    <glyph glyph-name="Gcommaaccent" unicode="&#x122;" horiz-adv-x="714" 
d="M503 662q54 0 107.5 -11t80.5 -21l27 -11l-19 -89q-96 42 -207 42q-138 0 -236 -79t-98 -222q0 -98 65 -146t165 -48q32 0 65 4.5t49 8.5l17 4l46 225h94l-61 -296q-94 -35 -228 -35q-62 0 -115.5 16t-97.5 48t-69.5 86t-25.5 125q0 96 37 173.5t99.5 126t140.5 74
t164 25.5zM405 -55l-98 -165h-71l78 165h91z" />
    <glyph glyph-name="gcommaaccent" unicode="&#x123;" horiz-adv-x="630" 
d="M335 594l98 165h71l-78 -165h-91zM617 513l-108 -521q-22 -104 -102.5 -154t-202.5 -50q-114 0 -201 47l18 88q37 -20 92 -36.5t104 -16.5q32 0 62.5 7t61 22.5t53 44t31.5 66.5l4 20q-65 -42 -154 -42q-94 0 -160.5 53t-66.5 159q0 77 29 140.5t75 102.5t101 60t110 21
q52 0 97 -14.5t68 -32.5l27 36h62zM139 200q0 -68 42 -101.5t105 -33.5q95 0 161 58l57 277q-18 16 -55.5 28.5t-84.5 12.5q-91 0 -158 -64t-67 -177z" />
    <glyph glyph-name="Hcircumflex" unicode="&#x124;" horiz-adv-x="719" 
d="M542 855l71 -145h-76l-57 86l-93 -86h-86l131 145h110zM493 0l60 290h-366l-60 -290h-94l135 650h94l-56 -271h366l56 271h94l-135 -650h-94z" />
    <glyph glyph-name="hcircumflex" unicode="&#x125;" horiz-adv-x="630" 
d="M423 731l-57 86l-93 -86h-86l131 145h110l71 -145h-76zM33 0l143 691h90l-46 -223q35 21 89 38.5t107 17.5q167 0 167 -133q0 -23 -8 -65l-67 -326h-90l65 315q8 34 8 53q0 75 -97 75q-52 0 -105.5 -20t-87.5 -45l-78 -378h-90z" />
    <glyph glyph-name="Hbar" unicode="&#x126;" horiz-adv-x="715" 
d="M780 567l-15 -76h-76l-102 -491h-94l60 290h-366l-60 -290h-94l102 491h-80l15 76h81l17 83h94l-17 -83h366l17 83h94l-17 -83h75zM572 379l23 112h-366l-23 -112h366z" />
    <glyph glyph-name="hbar" unicode="&#x127;" horiz-adv-x="645" 
d="M416 524q167 0 167 -133q0 -23 -8 -65l-67 -326h-90l65 315q8 34 8 53q0 75 -97 75q-52 0 -105.5 -20t-87.5 -45l-78 -378h-90l117 565h-110l16 77h110l10 49h90l-10 -49h142l-16 -77h-142l-20 -97q35 21 89 38.5t107 17.5z" />
    <glyph glyph-name="Itilde" unicode="&#x128;" horiz-adv-x="259" 
d="M341 834h60q-35 -97 -114 -97q-19 0 -56.5 13.5t-52.5 13.5q-16 0 -24.5 -7t-15.5 -23h-60q35 97 114 97q22 0 56.5 -13.5t51.5 -13.5q30 0 41 30zM33 0l135 650h94l-135 -650h-94z" />
    <glyph glyph-name="itilde" unicode="&#x129;" horiz-adv-x="245" 
d="M317 714h60q-35 -97 -114 -97q-19 0 -56.5 13.5t-52.5 13.5q-16 0 -24.5 -7t-15.5 -23h-60q35 97 114 97q22 0 56.5 -13.5t51.5 -13.5q30 0 41 30zM123 0h-90l106 513h90z" />
    <glyph glyph-name="Imacron" unicode="&#x12a;" horiz-adv-x="259" 
d="M382 793l-16 -77h-274l16 77h274zM33 0l135 650h94l-135 -650h-94z" />
    <glyph glyph-name="imacron" unicode="&#x12b;" horiz-adv-x="245" 
d="M333 615h-274l16 77h274zM123 0h-90l106 513h90z" />
    <glyph glyph-name="Ibreve" unicode="&#x12c;" horiz-adv-x="259" 
d="M317 827h77q-37 -119 -159 -119q-66 0 -98 31.5t-27 87.5h77q-2 -25 11 -39t43 -14q57 0 76 53zM33 0l135 650h94l-135 -650h-94z" />
    <glyph glyph-name="ibreve" unicode="&#x12d;" horiz-adv-x="245" 
d="M293 712h77q-37 -119 -159 -119q-66 0 -98 31.5t-27 87.5h77q-2 -25 11 -39t43 -14q57 0 76 53zM123 0h-90l106 513h90z" />
    <glyph glyph-name="Iogonek" unicode="&#x12e;" horiz-adv-x="259" 
d="M127 0h-20q-59 -24 -89.5 -50t-30.5 -49q0 -18 28 -18q32 0 83 20l-13 -69q-48 -16 -89 -16q-43 0 -64.5 17t-21.5 46q0 46 37 76.5t87 46.5l134 646h94z" />
    <glyph glyph-name="iogonek" unicode="&#x12f;" horiz-adv-x="245" 
d="M173 691h98l-19 -90h-98zM34 4l106 509h89l-106 -513h-16q-59 -24 -89.5 -50t-30.5 -49q0 -18 28 -18q32 0 83 20l-13 -69q-48 -16 -89 -16q-43 0 -64.5 17t-21.5 46q0 46 37 76.5t87 46.5z" />
    <glyph glyph-name="Idotaccent" unicode="&#x130;" horiz-adv-x="259" 
d="M297 805l-20 -98h-100l20 98h100zM33 0l135 650h94l-135 -650h-94z" />
    <glyph glyph-name="dotlessi" unicode="&#x131;" horiz-adv-x="245" 
d="M123 0h-90l106 513h90z" />
    <glyph glyph-name="IJ" unicode="&#x132;" horiz-adv-x="706" 
d="M33 0l135 650h94l-135 -650h-94zM712 650l-97 -467q-41 -195 -244 -195q-77 0 -156 28l19 88q66 -25 152 -25q51 0 88.5 31.5t50.5 94.5l93 445h94z" />
    <glyph glyph-name="ij" unicode="&#x133;" horiz-adv-x="490" 
d="M154 601l19 90h98l-19 -90h-98zM399 598l19 90h98l-19 -90h-98zM33 0l107 513h89l-106 -513h-90zM475 513l-111 -537q-21 -100 -63.5 -144t-134.5 -44q-67 0 -114 20l20 79q41 -16 100 -16q27 0 46 9.5t29.5 27.5t16 32.5t9.5 34.5l113 538h89z" />
    <glyph glyph-name="Jcircumflex" unicode="&#x134;" horiz-adv-x="447" 
d="M381 855l71 -145h-76l-57 86l-93 -86h-86l131 145h110zM453 650l-97 -467q-41 -195 -244 -195q-77 0 -156 28l19 88q66 -25 152 -25q51 0 88.5 31.5t50.5 94.5l93 445h94z" />
    <glyph glyph-name="jcircumflex" unicode="&#x135;" horiz-adv-x="246" 
d="M225 677l-93 -86h-86l131 145h110l71 -145h-76zM230 513l-111 -537q-21 -100 -63.5 -144t-134.5 -44q-67 0 -114 20l20 79q41 -16 100 -16q27 0 46 9.5t29.5 27.5t16 32.5t9.5 34.5l113 538h89z" />
    <glyph glyph-name="Kcommaaccent" unicode="&#x136;" horiz-adv-x="610" 
d="M33 0l135 650h94l-135 -650h-94zM211 325q174 181 354 325h139q-218 -170 -378 -327q113 -121 259 -323h-123q-148 220 -251 325zM318 -55l-98 -165h-71l78 165h91z" />
    <glyph glyph-name="kcommaaccent" unicode="&#x137;" horiz-adv-x="540" 
d="M33 0l143 691h90l-143 -691h-90zM461 513h128q-138 -105 -281 -241q90 -105 200 -272h-112q-34 57 -89 134t-111 138q169 172 265 241zM300 -55l-98 -165h-71l78 165h91z" />
    <glyph glyph-name="kgreenlandic" unicode="&#x138;" horiz-adv-x="540" 
d="M138 513h90l-105 -513h-90zM461 513h128q-138 -105 -281 -241q90 -105 200 -272h-112q-34 57 -89 134t-111 138q169 172 265 241z" />
    <glyph glyph-name="Lacute" unicode="&#x139;" horiz-adv-x="539" 
d="M402 855l-131 -145h-85l104 145h112zM262 650l-117 -564h360l-18 -86h-454l135 650h94z" />
    <glyph glyph-name="lacute" unicode="&#x13a;" horiz-adv-x="244" 
d="M400 876l-131 -145h-83l104 145h110zM33 0l143 691h90l-143 -691h-90z" />
    <glyph glyph-name="Lcommaaccent" unicode="&#x13b;" horiz-adv-x="539" 
d="M262 650l-117 -564h360l-18 -86h-454l135 650h94zM316 -55l-98 -165h-71l78 165h91z" />
    <glyph glyph-name="lcommaaccent" unicode="&#x13c;" horiz-adv-x="244" 
d="M33 0l143 691h90l-143 -691h-90zM111 -55l-98 -165h-71l78 165h91z" />
    <glyph glyph-name="Lcaron" unicode="&#x13d;" horiz-adv-x="539" 
d="M262 650l-117 -564h360l-18 -86h-454l135 650h94zM504 650l-98 -166h-76l78 166h96z" />
    <glyph glyph-name="lcaron" unicode="&#x13e;" horiz-adv-x="359" 
d="M3 0l143 691h90l-143 -691h-90zM438 691l-98 -166h-76l78 166h96z" />
    <glyph glyph-name="Ldot" unicode="&#x13f;" horiz-adv-x="557" 
d="M232 650l-117 -564h360l-18 -86h-454l135 650h94zM465 442l-21 -97h-100l21 97h100z" />
    <glyph glyph-name="ldot" unicode="&#x140;" horiz-adv-x="335" 
d="M3 0l143 691h90l-143 -691h-90zM387 529l-20 -97h-100l20 97h100z" />
    <glyph glyph-name="Lslash" unicode="&#x141;" horiz-adv-x="539" 
d="M145 86h360l-18 -86h-454l65 315l-84 -21l17 84l85 21l52 251h94l-47 -226l217 54l-17 -84l-217 -54z" />
    <glyph glyph-name="lslash" unicode="&#x142;" horiz-adv-x="258" 
d="M321 457l-18 -84l-109 -28l-71 -345h-90l66 320l-111 -29l18 84l111 29l59 287h90l-54 -262z" />
    <glyph glyph-name="Nacute" unicode="&#x143;" horiz-adv-x="726" 
d="M633 855l-131 -145h-85l104 145h112zM518 0l-282 524l-109 -524h-94l135 650h103l262 -492l102 492h94l-135 -650h-76z" />
    <glyph glyph-name="nacute" unicode="&#x144;" horiz-adv-x="612" 
d="M554 736l-131 -145h-83l104 145h110zM410 524q167 0 167 -133q0 -23 -8 -65l-67 -326h-90l65 315q8 34 8 53q0 75 -97 75q-53 0 -106 -20t-86 -45l-79 -378h-90l106 513h61l10 -51q35 24 92.5 43t113.5 19z" />
    <glyph glyph-name="Ncommaaccent" unicode="&#x145;" horiz-adv-x="726" 
d="M518 0l-282 524l-109 -524h-94l135 650h103l262 -492l102 492h94l-135 -650h-76zM373 -55l-98 -165h-71l78 165h91z" />
    <glyph glyph-name="ncommaaccent" unicode="&#x146;" horiz-adv-x="612" 
d="M410 524q167 0 167 -133q0 -23 -8 -65l-67 -326h-90l65 315q8 34 8 53q0 75 -97 75q-53 0 -106 -20t-86 -45l-79 -378h-90l106 513h61l10 -51q35 24 92.5 43t113.5 19zM146 -220l78 165h91l-98 -165h-71z" />
    <glyph glyph-name="Ncaron" unicode="&#x147;" horiz-adv-x="726" 
d="M649 855l-131 -145h-110l-71 145h76l57 -86l93 86h86zM518 0l-282 524l-109 -524h-94l135 650h103l262 -492l102 492h94l-135 -650h-76z" />
    <glyph glyph-name="ncaron" unicode="&#x148;" horiz-adv-x="612" 
d="M437 591h-110l-71 145h76l57 -86l93 86h86zM410 524q167 0 167 -133q0 -23 -8 -65l-67 -326h-90l65 315q8 34 8 53q0 75 -97 75q-53 0 -106 -20t-86 -45l-79 -378h-90l106 513h61l10 -51q35 24 92.5 43t113.5 19z" />
    <glyph glyph-name="napostrophe" unicode="&#x149;" horiz-adv-x="675" 
d="M169 691l-98 -166h-71l78 166h91zM410 524q167 0 167 -133q0 -23 -8 -65l-67 -326h-90l65 315q8 34 8 53q0 75 -97 75q-53 0 -106 -20t-86 -45l-79 -378h-90l106 513h61l10 -51q35 24 92.5 43t113.5 19z" />
    <glyph glyph-name="Eng" unicode="&#x14a;" horiz-adv-x="726" 
d="M729 650l-144 -695q-40 -195 -244 -195q-35 0 -74 7t-61 14l-21 7l19 88q67 -25 152 -25q51 0 88.5 31.5t50.5 94.5l10 47l-269 500l-109 -524h-94l135 650h103l262 -492l102 492h94z" />
    <glyph glyph-name="eng" unicode="&#x14b;" horiz-adv-x="630" 
d="M583 391q0 -23 -8 -65l-71 -350q-20 -100 -63 -144t-135 -44q-29 0 -57.5 5t-42.5 10l-14 5l20 79q43 -16 100 -16q81 0 101 104l70 340q8 34 8 53q0 75 -97 75q-47 0 -95 -16.5t-73 -32.5l-24 -16l-79 -378h-90l106 513h61l10 -51q11 7 29.5 17.5t72.5 27.5t104 17
q167 0 167 -133z" />
    <glyph glyph-name="Omacron" unicode="&#x14c;" horiz-adv-x="790" 
d="M624 793l-16 -77h-274l16 77h274zM464 662q143 0 221 -77t78 -208q0 -174 -111 -281.5t-282 -107.5q-144 0 -226 78.5t-82 210.5q0 172 111 278.5t291 106.5zM451 574q-128 0 -210.5 -79t-82.5 -216q0 -97 60.5 -149t163.5 -52q121 0 203 80.5t82 212.5q0 100 -58 151.5
t-158 51.5z" />
    <glyph glyph-name="omacron" unicode="&#x14d;" horiz-adv-x="633" 
d="M529 692l-16 -77h-274l16 77h274zM380 524h1q97 0 159.5 -57t62.5 -155q0 -100 -47.5 -174.5t-122 -110.5t-163.5 -39q-97 0 -159.5 57t-62.5 155q0 151 97 237.5t235 86.5zM289 71q91 0 157 64t66 168q0 59 -38 98.5t-113 39.5q-91 0 -156.5 -64t-65.5 -168
q0 -59 38 -98.5t112 -39.5z" />
    <glyph glyph-name="Obreve" unicode="&#x14e;" horiz-adv-x="790" 
d="M559 827h77q-37 -119 -159 -119q-66 0 -98 31.5t-27 87.5h77q-2 -25 11 -39t43 -14q57 0 76 53zM464 662q143 0 221 -77t78 -208q0 -174 -111 -281.5t-282 -107.5q-144 0 -226 78.5t-82 210.5q0 172 111 278.5t291 106.5zM451 574q-128 0 -210.5 -79t-82.5 -216
q0 -97 60.5 -149t163.5 -52q121 0 203 80.5t82 212.5q0 100 -58 151.5t-158 51.5z" />
    <glyph glyph-name="obreve" unicode="&#x14f;" horiz-adv-x="633" 
d="M473 712h77q-37 -119 -159 -119q-66 0 -98 31.5t-27 87.5h77q-2 -25 11 -39t43 -14q57 0 76 53zM380 524h1q97 0 159.5 -57t62.5 -155q0 -100 -47.5 -174.5t-122 -110.5t-163.5 -39q-97 0 -159.5 57t-62.5 155q0 151 97 237.5t235 86.5zM289 71q91 0 157 64t66 168
q0 59 -38 98.5t-113 39.5q-91 0 -156.5 -64t-65.5 -168q0 -59 38 -98.5t112 -39.5z" />
    <glyph glyph-name="Ohungarumlaut" unicode="&#x150;" horiz-adv-x="790" 
d="M563 855l-133 -145h-82l104 145h111zM730 855l-133 -145h-82l104 145h111zM464 662q143 0 221 -77t78 -208q0 -174 -111 -281.5t-282 -107.5q-144 0 -226 78.5t-82 210.5q0 172 111 278.5t291 106.5zM451 574q-128 0 -210.5 -79t-82.5 -216q0 -97 60.5 -149t163.5 -52
q121 0 203 80.5t82 212.5q0 100 -58 151.5t-158 51.5z" />
    <glyph glyph-name="ohungarumlaut" unicode="&#x151;" horiz-adv-x="633" 
d="M483 736l-133 -145h-82l104 145h111zM650 736l-133 -145h-82l104 145h111zM380 524h1q97 0 159.5 -57t62.5 -155q0 -100 -47.5 -174.5t-122 -110.5t-163.5 -39q-97 0 -159.5 57t-62.5 155q0 151 97 237.5t235 86.5zM289 71q91 0 157 64t66 168q0 59 -38 98.5t-113 39.5
q-91 0 -156.5 -64t-65.5 -168q0 -59 38 -98.5t112 -39.5z" />
    <glyph glyph-name="OE" unicode="&#x152;" horiz-adv-x="1001" 
d="M655 564l-39 -187h332l-18 -85h-332l-42 -206h360l-18 -86h-446q-51 -12 -92 -12q-134 0 -216 79.5t-82 209.5q0 171 112.5 278t289.5 107q69 0 118 -12h451l-17 -86h-361zM462 86l98 473q-41 16 -109 16q-124 0 -208.5 -80t-84.5 -216q0 -97 58.5 -150t154.5 -53
q52 0 91 10z" />
    <glyph glyph-name="oe" unicode="&#x153;" horiz-adv-x="1037" 
d="M592 224l-2 -28q0 -38 17 -64.5t46 -38.5t54 -16.5t53 -4.5q47 0 97 9.5t77 18.5l26 10l-19 -87q-82 -35 -203 -35q-166 0 -212 116q-47 -55 -114.5 -85.5t-141.5 -30.5q-97 0 -159.5 57t-62.5 155q0 151 97 237.5t235 86.5h1q66 0 119 -30t80 -82q43 55 107 83.5
t133 28.5q92 0 142 -47.5t50 -131.5q0 -33 -17 -121h-403zM810 442q-68 0 -123.5 -35t-76.5 -105h308q3 21 3 32q0 108 -111 108zM289 71h1q91 0 156.5 64t65.5 168q0 59 -38 98.5t-113 39.5q-91 0 -156.5 -64t-65.5 -168q0 -59 38 -98.5t112 -39.5z" />
    <glyph glyph-name="Racute" unicode="&#x154;" horiz-adv-x="634" 
d="M553 855l-131 -145h-85l104 145h112zM578 0h-112q-68 125 -146 237h-143l-50 -237h-94l135 650h254q37 0 71 -9t66 -29t51 -58t19 -90q0 -89 -60.5 -145t-142.5 -74q79 -114 152 -245zM195 325h154q31 0 60 6t58.5 20t47.5 43t18 69q0 50 -36 74.5t-86 24.5h-167z" />
    <glyph glyph-name="racute" unicode="&#x155;" horiz-adv-x="408" 
d="M482 736l-131 -145h-83l104 145h110zM446 524l-19 -91q-68 0 -131.5 -16.5t-94.5 -37.5l-78 -379h-90l107 513h60l10 -51q42 27 107 44.5t129 17.5z" />
    <glyph glyph-name="Rcommaaccent" unicode="&#x156;" horiz-adv-x="634" 
d="M578 0h-112q-68 125 -146 237h-143l-50 -237h-94l135 650h254q37 0 71 -9t66 -29t51 -58t19 -90q0 -89 -60.5 -145t-142.5 -74q79 -114 152 -245zM195 325h154q31 0 60 6t58.5 20t47.5 43t18 69q0 50 -36 74.5t-86 24.5h-167zM332 -55l-98 -165h-71l78 165h91z" />
    <glyph glyph-name="rcommaaccent" unicode="&#x157;" horiz-adv-x="408" 
d="M446 524l-19 -91q-68 0 -131.5 -16.5t-94.5 -37.5l-78 -379h-90l107 513h60l10 -51q42 27 107 44.5t129 17.5zM111 -55l-98 -165h-71l78 165h91z" />
    <glyph glyph-name="Rcaron" unicode="&#x158;" horiz-adv-x="634" 
d="M569 855l-131 -145h-110l-71 145h76l57 -86l93 86h86zM578 0h-112q-68 125 -146 237h-143l-50 -237h-94l135 650h254q37 0 71 -9t66 -29t51 -58t19 -90q0 -89 -60.5 -145t-142.5 -74q79 -114 152 -245zM195 325h154q31 0 60 6t58.5 20t47.5 43t18 69q0 50 -36 74.5
t-86 24.5h-167z" />
    <glyph glyph-name="rcaron" unicode="&#x159;" horiz-adv-x="408" 
d="M496 736l-131 -145h-110l-71 145h76l57 -86l93 86h86zM446 524l-19 -91q-68 0 -131.5 -16.5t-94.5 -37.5l-78 -379h-90l107 513h60l10 -51q42 27 107 44.5t129 17.5z" />
    <glyph glyph-name="Sacute" unicode="&#x15a;" horiz-adv-x="603" 
d="M564 855l-131 -145h-85l104 145h112zM394 662q118 0 214 -32l-19 -91q-96 36 -205 36q-45 0 -84 -8.5t-68 -31.5t-29 -57q0 -37 35 -59.5t85.5 -36t100.5 -30.5t85 -55t35 -97q0 -96 -81 -154t-217 -58q-128 0 -240 43l20 91q114 -45 226 -45q84 0 138 30.5t54 81.5
q0 39 -35 62.5t-85 36t-99.5 29t-84.5 54t-35 96.5q0 99 82 147t207 48z" />
    <glyph glyph-name="sacute" unicode="&#x15b;" horiz-adv-x="522" 
d="M503 736l-131 -145h-83l104 145h110zM506 499l-16 -79q-73 25 -168 25q-34 0 -64.5 -5.5t-56 -21.5t-25.5 -42q0 -29 31 -44.5t75 -23.5t87.5 -19.5t74.5 -43t31 -83.5q0 -86 -73 -130t-187 -44q-111 0 -205 40l17 80q99 -39 193 -39q62 0 112 20t50 63q0 32 -31 49
t-75.5 25t-88.5 19t-75 41t-31 81q0 45 23 77.5t62 49t79.5 23.5t85.5 7q107 0 175 -25z" />
    <glyph glyph-name="Scircumflex" unicode="&#x15c;" horiz-adv-x="603" 
d="M479 855l71 -145h-76l-57 86l-93 -86h-86l131 145h110zM394 662q118 0 214 -32l-19 -91q-96 36 -205 36q-45 0 -84 -8.5t-68 -31.5t-29 -57q0 -37 35 -59.5t85.5 -36t100.5 -30.5t85 -55t35 -97q0 -96 -81 -154t-217 -58q-128 0 -240 43l20 91q114 -45 226 -45
q84 0 138 30.5t54 81.5q0 39 -35 62.5t-85 36t-99.5 29t-84.5 54t-35 96.5q0 99 82 147t207 48z" />
    <glyph glyph-name="scircumflex" unicode="&#x15d;" horiz-adv-x="522" 
d="M411 591l-57 86l-93 -86h-86l131 145h110l71 -145h-76zM506 499l-16 -79q-73 25 -168 25q-34 0 -64.5 -5.5t-56 -21.5t-25.5 -42q0 -29 31 -44.5t75 -23.5t87.5 -19.5t74.5 -43t31 -83.5q0 -86 -73 -130t-187 -44q-111 0 -205 40l17 80q99 -39 193 -39q62 0 112 20t50 63
q0 32 -31 49t-75.5 25t-88.5 19t-75 41t-31 81q0 45 23 77.5t62 49t79.5 23.5t85.5 7q107 0 175 -25z" />
    <glyph glyph-name="Scedilla" unicode="&#x15e;" horiz-adv-x="603" 
d="M384 575q-45 0 -84 -8.5t-68 -31.5t-29 -57q0 -37 35 -59.5t85.5 -36t100.5 -30.5t85 -55t35 -97q0 -91 -72.5 -148t-196.5 -63l-10 -30q60 -10 60 -66q0 -46 -30.5 -73t-92.5 -27q-41 0 -94 14l13 61q48 -13 85 -13q49 0 49 33q0 24 -43 24q-21 0 -39 -3l38 80
q-115 7 -205 42l20 91q114 -45 226 -45q84 0 138 30.5t54 81.5q0 39 -35 62.5t-85 36t-99.5 29t-84.5 54t-35 96.5q0 99 82 147t207 48q118 0 214 -32l-19 -91q-96 36 -205 36z" />
    <glyph glyph-name="scedilla" unicode="&#x15f;" horiz-adv-x="522" 
d="M322 445q-34 0 -64.5 -5.5t-56 -21.5t-25.5 -42q0 -29 31 -44.5t75 -23.5t87.5 -19.5t74.5 -43t31 -83.5q0 -75 -57.5 -118.5t-150.5 -52.5l-11 -32q60 -10 60 -66q0 -46 -30.5 -73t-92.5 -27q-41 0 -94 14l13 61q48 -13 85 -13q49 0 49 33q0 24 -43 24q-21 0 -39 -3
l37 79q-106 4 -191 40l17 80q99 -39 193 -39q62 0 112 20t50 63q0 32 -31 49t-75.5 25t-88.5 19t-75 41t-31 81q0 45 23 77.5t62 49t79.5 23.5t85.5 7q107 0 175 -25l-16 -79q-73 25 -168 25z" />
    <glyph glyph-name="Scaron" unicode="&#x160;" horiz-adv-x="603" 
d="M580 855l-131 -145h-110l-71 145h76l57 -86l93 86h86zM394 662q118 0 214 -32l-19 -91q-96 36 -205 36q-45 0 -84 -8.5t-68 -31.5t-29 -57q0 -37 35 -59.5t85.5 -36t100.5 -30.5t85 -55t35 -97q0 -96 -81 -154t-217 -58q-128 0 -240 43l20 91q114 -45 226 -45
q84 0 138 30.5t54 81.5q0 39 -35 62.5t-85 36t-99.5 29t-84.5 54t-35 96.5q0 99 82 147t207 48z" />
    <glyph glyph-name="scaron" unicode="&#x161;" horiz-adv-x="522" 
d="M517 736l-131 -145h-110l-71 145h76l57 -86l93 86h86zM506 499l-16 -79q-73 25 -168 25q-34 0 -64.5 -5.5t-56 -21.5t-25.5 -42q0 -29 31 -44.5t75 -23.5t87.5 -19.5t74.5 -43t31 -83.5q0 -86 -73 -130t-187 -44q-111 0 -205 40l17 80q99 -39 193 -39q62 0 112 20t50 63
q0 32 -31 49t-75.5 25t-88.5 19t-75 41t-31 81q0 45 23 77.5t62 49t79.5 23.5t85.5 7q107 0 175 -25z" />
    <glyph glyph-name="Tcedilla" unicode="&#x162;" horiz-adv-x="598" 
d="M411 564l-117 -564h-94l117 564h-244l18 86h582l-18 -86h-244zM281 -55l-98 -165h-71l78 165h91z" />
    <glyph glyph-name="tcedilla" unicode="&#x163;" horiz-adv-x="378" 
d="M416 513l-16 -76h-166l-62 -295q-8 -38 2.5 -56t54.5 -18q49 0 94 13l-15 -82q-48 -11 -98 -11q-55 0 -93.5 26.5t-38.5 86.5q0 16 4 37l64 299h-104l16 76h106l39 112h71l-23 -112h165zM238 -55l-98 -165h-71l78 165h91z" />
    <glyph glyph-name="Tcaron" unicode="&#x164;" horiz-adv-x="598" 
d="M567 855l-131 -145h-110l-71 145h76l57 -86l93 86h86zM411 564l-117 -564h-94l117 564h-244l18 86h582l-18 -86h-244z" />
    <glyph glyph-name="tcaron" unicode="&#x165;" horiz-adv-x="378" 
d="M526 721l-98 -166h-76l78 166h96zM416 513l-16 -76h-166l-62 -295q-8 -38 2.5 -56t54.5 -18q49 0 94 13l-15 -82q-48 -11 -98 -11q-55 0 -93.5 26.5t-38.5 86.5q0 16 4 37l64 299h-104l16 76h106l39 112h71l-23 -112h165z" />
    <glyph glyph-name="Tbar" unicode="&#x166;" horiz-adv-x="598" 
d="M655 564h-244l-38 -185h139l-17 -86h-140l-61 -293h-94l61 293h-143l17 86h144l38 185h-244l18 86h582z" />
    <glyph glyph-name="tbar" unicode="&#x167;" horiz-adv-x="399" 
d="M400 437h-166l-16 -74h174l-16 -77h-174l-30 -144q-8 -38 2.5 -56t54.5 -18q49 0 94 13l-15 -82q-48 -11 -98 -11q-55 0 -93.5 26.5t-38.5 86.5q0 16 4 37l32 148h-97l16 77h97l16 74h-104l16 76h106l39 112h71l-23 -112h165z" />
    <glyph glyph-name="Utilde" unicode="&#x168;" horiz-adv-x="706" 
d="M559 834h60q-35 -97 -114 -97q-19 0 -56.5 13.5t-52.5 13.5q-16 0 -24.5 -7t-15.5 -23h-60q35 97 114 97q22 0 56.5 -13.5t51.5 -13.5q30 0 41 30zM712 650l-75 -366q-61 -296 -333 -296q-122 0 -174 57t-52 148q0 41 11 91l76 366h94l-78 -373q-10 -47 -10 -71
q0 -132 144 -132q84 0 144 53t81 151l78 372h94z" />
    <glyph glyph-name="utilde" unicode="&#x169;" horiz-adv-x="621" 
d="M490 714h60q-35 -97 -114 -97q-19 0 -56.5 13.5t-52.5 13.5q-27 0 -40 -30h-60q35 97 114 97q22 0 56.5 -13.5t51.5 -13.5q31 0 41 30zM220 513l-65 -316q-7 -30 -7 -49q0 -79 106 -79q53 0 103.5 20t79.5 45l78 379h90l-107 -513h-59l-9 51q-28 -24 -81.5 -43.5
t-114.5 -19.5q-79 0 -127.5 36t-48.5 105q0 27 6 58l66 326h90z" />
    <glyph glyph-name="Umacron" unicode="&#x16a;" horiz-adv-x="706" 
d="M600 793l-16 -77h-274l16 77h274zM712 650l-75 -366q-61 -296 -333 -296q-122 0 -174 57t-52 148q0 41 11 91l76 366h94l-78 -373q-10 -47 -10 -71q0 -132 144 -132q84 0 144 53t81 151l78 372h94z" />
    <glyph glyph-name="umacron" unicode="&#x16b;" horiz-adv-x="621" 
d="M522 692l-16 -77h-274l16 77h274zM220 513l-65 -316q-7 -30 -7 -49q0 -79 106 -79q53 0 103.5 20t79.5 45l78 379h90l-107 -513h-59l-9 51q-28 -24 -81.5 -43.5t-114.5 -19.5q-79 0 -127.5 36t-48.5 105q0 27 6 58l66 326h90z" />
    <glyph glyph-name="Ubreve" unicode="&#x16c;" horiz-adv-x="706" 
d="M535 827h77q-37 -119 -159 -119q-66 0 -98 31.5t-27 87.5h77q-2 -25 11 -39t43 -14q57 0 76 53zM712 650l-75 -366q-61 -296 -333 -296q-122 0 -174 57t-52 148q0 41 11 91l76 366h94l-78 -373q-10 -47 -10 -71q0 -132 144 -132q84 0 144 53t81 151l78 372h94z" />
    <glyph glyph-name="ubreve" unicode="&#x16d;" horiz-adv-x="621" 
d="M466 712h77q-37 -119 -159 -119q-66 0 -98 31.5t-27 87.5h77q-2 -25 11 -39t43 -14q57 0 76 53zM220 513l-65 -316q-7 -30 -7 -49q0 -79 106 -79q53 0 103.5 20t79.5 45l78 379h90l-107 -513h-59l-9 51q-28 -24 -81.5 -43.5t-114.5 -19.5q-79 0 -127.5 36t-48.5 105
q0 27 6 58l66 326h90z" />
    <glyph glyph-name="Uring" unicode="&#x16e;" horiz-adv-x="706" 
d="M452 711q-42 0 -66.5 21t-24.5 54q0 44 31 70.5t85 26.5q42 0 66 -20.5t24 -53.5q0 -39 -28.5 -68.5t-86.5 -29.5zM472 837q-29 0 -45 -13.5t-16 -32.5q0 -34 46 -34q28 0 44 13t16 34q0 33 -45 33zM712 650l-75 -366q-61 -296 -333 -296q-122 0 -174 57t-52 148
q0 41 11 91l76 366h94l-78 -373q-10 -47 -10 -71q0 -132 144 -132q84 0 144 53t81 151l78 372h94z" />
    <glyph glyph-name="uring" unicode="&#x16f;" horiz-adv-x="621" 
d="M374 580q-42 0 -66.5 21t-24.5 54q0 44 31 70.5t85 26.5q42 0 66 -20.5t24 -53.5q0 -39 -28.5 -68.5t-86.5 -29.5zM394 706q-29 0 -45 -13.5t-16 -32.5q0 -34 46 -34q28 0 44 13t16 34q0 33 -45 33zM220 513l-65 -316q-7 -30 -7 -49q0 -79 106 -79q53 0 103.5 20t79.5 45
l78 379h90l-107 -513h-59l-9 51q-28 -24 -81.5 -43.5t-114.5 -19.5q-79 0 -127.5 36t-48.5 105q0 27 6 58l66 326h90z" />
    <glyph glyph-name="Uhungarumlaut" unicode="&#x170;" horiz-adv-x="706" 
d="M539 855l-133 -145h-82l104 145h111zM706 855l-133 -145h-82l104 145h111zM712 650l-75 -366q-61 -296 -333 -296q-122 0 -174 57t-52 148q0 41 11 91l76 366h94l-78 -373q-10 -47 -10 -71q0 -132 144 -132q84 0 144 53t81 151l78 372h94z" />
    <glyph glyph-name="uhungarumlaut" unicode="&#x171;" horiz-adv-x="621" 
d="M476 736l-133 -145h-82l104 145h111zM643 736l-133 -145h-82l104 145h111zM220 513l-65 -316q-7 -30 -7 -49q0 -79 106 -79q53 0 103.5 20t79.5 45l78 379h90l-107 -513h-59l-9 51q-28 -24 -81.5 -43.5t-114.5 -19.5q-79 0 -127.5 36t-48.5 105q0 27 6 58l66 326h90z" />
    <glyph glyph-name="Uogonek" unicode="&#x172;" horiz-adv-x="706" 
d="M618 650h94l-75 -366q-47 -229 -217 -280q-64 -25 -97 -52t-33 -51q0 -18 28 -18q32 0 83 20l-13 -69q-48 -16 -89 -16q-43 0 -64.5 17t-21.5 46q0 67 84 107q-61 1 -105 18t-68 46.5t-35 64t-11 76.5q0 41 11 91l76 366h94l-78 -373q-10 -47 -10 -71q0 -132 144 -132
q84 0 144 53t81 151z" />
    <glyph glyph-name="uogonek" unicode="&#x173;" horiz-adv-x="621" 
d="M392 -99q0 -18 28 -18q32 0 83 20l-13 -69q-48 -16 -89 -16q-43 0 -64.5 17t-21.5 46q0 46 36.5 77t86.5 46l-8 47q-28 -24 -81.5 -43.5t-114.5 -19.5q-79 0 -127.5 36t-48.5 105q0 27 6 58l66 326h90l-65 -316q-7 -30 -7 -49q0 -79 106 -79q53 0 103.5 20t79.5 45
l78 379h90l-107 -513q-59 -28 -82.5 -51t-23.5 -48z" />
    <glyph glyph-name="Wcircumflex" unicode="&#x174;" horiz-adv-x="861" 
d="M599 855l71 -145h-76l-57 86l-93 -86h-86l131 145h110zM831 650h97q-143 -352 -306 -650h-99q-38 171 -69 377q-24 -51 -94 -170.5l-125 -206.5h-92q-35 279 -42 650h92q5 -262 24 -523q100 159 231 415h77q21 -212 63 -423q136 267 243 531z" />
    <glyph glyph-name="wcircumflex" unicode="&#x175;" horiz-adv-x="851" 
d="M564 591l-57 86l-93 -86h-86l131 145h110l71 -145h-76zM792 513h89q-42 -103 -117 -247t-160 -266h-95q-47 207 -65 367q-117 -227 -209 -367h-86q-66 257 -78 513h84q16 -220 54 -401q46 69 101 168.5t85 159.5t35 73h84q0 -9 7 -76.5t21.5 -169t28.5 -169.5
q120 190 221 415z" />
    <glyph glyph-name="Ycircumflex" unicode="&#x176;" horiz-adv-x="541" 
d="M437 855l71 -145h-76l-57 86l-93 -86h-86l131 145h110zM523 650h113q-187 -276 -320 -439l-41 -211h-95l45 221q-85 191 -167 429h99q60 -189 129 -347q122 162 237 347z" />
    <glyph glyph-name="ycircumflex" unicode="&#x177;" horiz-adv-x="532" 
d="M411 591l-57 86l-93 -86h-86l131 145h110l71 -145h-76zM486 513h99q-148 -276 -311 -513q-75 -109 -142 -160.5t-143 -51.5q-44 0 -73 9l21 88q30 -10 60 -10q53 0 94.5 35.5t86.5 104.5q-43 126 -74.5 265t-43.5 233h90q37 -253 91 -413q124 182 245 413z" />
    <glyph glyph-name="Ydieresis" unicode="&#x178;" horiz-adv-x="541" 
d="M323 805l-20 -98h-100l20 98h100zM521 805l-20 -98h-100l20 98h100zM523 650h113q-187 -276 -320 -439l-41 -211h-95l45 221q-85 191 -167 429h99q60 -189 129 -347q122 162 237 347z" />
    <glyph glyph-name="Zacute" unicode="&#x179;" horiz-adv-x="598" 
d="M555 855l-131 -145h-85l104 145h112zM148 86h375l-18 -86h-517l18 65l481 499h-377l17 86h521l-18 -65z" />
    <glyph glyph-name="zacute" unicode="&#x17a;" horiz-adv-x="506" 
d="M495 736l-131 -145h-83l104 145h110zM132 81h312l-16 -81h-430l18 84l378 348h-295l17 81h416l-18 -84z" />
    <glyph glyph-name="Zdotaccent" unicode="&#x17b;" horiz-adv-x="598" 
d="M455 805l-20 -98h-100l20 98h100zM148 86h375l-18 -86h-517l18 65l481 499h-377l17 86h521l-18 -65z" />
    <glyph glyph-name="zdotaccent" unicode="&#x17c;" horiz-adv-x="506" 
d="M392 684l-20 -96h-98l20 96h98zM132 81h312l-16 -81h-430l18 84l378 348h-295l17 81h416l-18 -84z" />
    <glyph glyph-name="Zcaron" unicode="&#x17d;" horiz-adv-x="598" 
d="M571 855l-131 -145h-110l-71 145h76l57 -86l93 86h86zM148 86h375l-18 -86h-517l18 65l481 499h-377l17 86h521l-18 -65z" />
    <glyph glyph-name="zcaron" unicode="&#x17e;" horiz-adv-x="506" 
d="M509 736l-131 -145h-110l-71 145h76l57 -86l93 86h86zM132 81h312l-16 -81h-430l18 84l378 348h-295l17 81h416l-18 -84z" />
    <glyph glyph-name="longs" unicode="&#x17f;" horiz-adv-x="333" 
d="M360 711q44 0 86 -14l-17 -77q-36 12 -80 12q-39 0 -59.5 -16t-29.5 -59l-114 -557h-89l89 437h-93l15 76h94l11 50q18 85 64 116.5t123 31.5z" />
    <glyph glyph-name="Schwa" unicode="&#x18f;" horiz-adv-x="777" 
d="M460 662q136 0 213 -71t77 -191q0 -75 -22.5 -145.5t-68 -131.5t-124 -98t-179.5 -37q-135 0 -214.5 68t-79.5 177q0 38 10 102l7 41h573q1 8 1 23q0 79 -55.5 126.5t-153.5 47.5q-106 0 -249 -44l19 97q138 36 246 36zM360 78q108 0 180 54.5t97 157.5h-476
q-3 -21 -3 -41q0 -83 54 -127t148 -44z" />
    <glyph glyph-name="florin" unicode="&#x192;" horiz-adv-x="411" 
d="M360 662q20 0 41.5 -3.5t32.5 -6.5l12 -4l-17 -77q-35 12 -80 12q-39 0 -59.5 -16t-29.5 -59l-9 -44h161l-15 -76h-161l-71 -345q-19 -93 -60.5 -131.5t-116.5 -38.5q-16 0 -35.5 2.5t-30.5 5.5l-12 3l17 75q41 -8 65 -8q40 0 57.5 26t28.5 78l68 333h-93l15 76h94l11 50
q18 85 64 116.5t123 31.5z" />
    <glyph glyph-name="Aringacute" unicode="&#x1fa;" horiz-adv-x="664" 
d="M647 1064l-131 -145h-85l104 145h112zM435 711q-42 0 -66.5 21t-24.5 54q0 44 31 70.5t85 26.5q42 0 66 -20.5t24 -53.5q0 -39 -28.5 -68.5t-86.5 -29.5zM455 837q-29 0 -45 -13.5t-16 -32.5q0 -34 46 -34q28 0 44 13t16 34q0 33 -45 33zM618 0h-95q-12 78 -32 181h-322
l-96 -181h-105q195 390 401 650h101q100 -332 148 -650zM403 556q-76 -96 -185 -288h256q-33 156 -71 288z" />
    <glyph glyph-name="aringacute" unicode="&#x1fb;" horiz-adv-x="633" 
d="M594 934l-131 -145h-83l104 145h110zM382 580q-42 0 -66.5 21t-24.5 54q0 44 31 70.5t85 26.5q42 0 66 -20.5t24 -53.5q0 -39 -28.5 -68.5t-86.5 -29.5zM402 706q-29 0 -45 -13.5t-16 -32.5q0 -34 46 -34q28 0 44 13t16 34q0 33 -45 33zM511 0h-61l-7 40
q-68 -52 -168 -52q-94 0 -160.5 53t-66.5 159q0 77 29 140.5t75 102.5t101 60t110 21q52 0 97 -14.5t68 -32.5l27 36h62zM139 200q0 -68 42 -101.5t105 -33.5q95 0 161 58l57 277q-18 16 -55.5 28.5t-84.5 12.5q-91 0 -158 -64t-67 -177z" />
    <glyph glyph-name="AEacute" unicode="&#x1fc;" horiz-adv-x="963" 
d="M778 710h-85l104 145h112zM655 564l-39 -187h295l-18 -85h-295l-42 -206h322l-18 -86h-416l37 179h-270l-142 -179h-114q335 434 572 650h468l-18 -86h-322zM499 265l62 303q-143 -143 -279 -303h217z" />
    <glyph glyph-name="aeacute" unicode="&#x1fd;" horiz-adv-x="977" 
d="M628 591h-83l104 145h110zM549 224l-2 -28q0 -38 17 -64.5t46 -38.5t54 -16.5t53 -4.5q47 0 97 9.5t76 18.5l27 10l-19 -87q-82 -35 -203 -35q-143 0 -201 88q-135 -88 -267 -88q-81 0 -127 38.5t-46 105.5q0 86 66 140t188 54q90 0 162 -41l7 32q4 16 4 36
q0 50 -37.5 68.5t-103.5 18.5q-84 0 -199 -35l19 89q106 30 207 30q160 0 192 -86q86 86 218 86q94 0 143 -46.5t49 -132.5q0 -33 -17 -121h-403zM767 442q-67 0 -123 -35t-77 -105h308q3 21 3 32q0 108 -111 108zM259 70q98 0 200 65q-4 28 -4 46q0 11 2 33q-68 37 -153 37
q-78 0 -115 -31.5t-37 -80.5q0 -69 107 -69z" />
    <glyph glyph-name="Oslashacute" unicode="&#x1fe;" horiz-adv-x="790" 
d="M639 855l-131 -145h-85l104 145h112zM776 614l-64 -61q51 -71 51 -176q0 -174 -111 -281.5t-282 -107.5q-114 0 -193 52l-72 -68l-55 55l69 67q-57 74 -57 183q0 172 111 278.5t291 106.5q117 0 193 -53l63 60zM158 279q0 -71 32 -118l396 379q-53 34 -135 34
q-128 0 -210.5 -79t-82.5 -216zM667 371q0 65 -27 113l-392 -375q53 -31 134 -31q121 0 203 80.5t82 212.5z" />
    <glyph glyph-name="oslashacute" unicode="&#x1ff;" horiz-adv-x="640" 
d="M550 736l-131 -145h-83l104 145h110zM613 482l-47 -45q37 -51 37 -125q0 -100 -47.5 -174.5t-122 -110.5t-163.5 -39q-77 0 -134 37l-54 -51l-56 54l55 53q-33 50 -33 119q0 151 97 237.5t235 86.5h1q71 0 128 -33l47 45zM139 209q0 -33 12 -61l289 277q-34 16 -79 16
q-91 0 -156.5 -64t-65.5 -168zM512 303q0 37 -15 68l-293 -281q35 -19 85 -19q91 0 157 64t66 168z" />
    <glyph glyph-name="Scommaaccent" unicode="&#x218;" horiz-adv-x="603" 
d="M394 662q118 0 214 -32l-19 -91q-96 36 -205 36q-45 0 -84 -8.5t-68 -31.5t-29 -57q0 -37 35 -59.5t85.5 -36t100.5 -30.5t85 -55t35 -97q0 -96 -81 -154t-217 -58q-128 0 -240 43l20 91q114 -45 226 -45q84 0 138 30.5t54 81.5q0 39 -35 62.5t-85 36t-99.5 29t-84.5 54
t-35 96.5q0 99 82 147t207 48zM305 -55l-98 -165h-71l78 165h91z" />
    <glyph glyph-name="scommaaccent" unicode="&#x219;" horiz-adv-x="522" 
d="M506 499l-16 -79q-73 25 -168 25q-34 0 -64.5 -5.5t-56 -21.5t-25.5 -42q0 -29 31 -44.5t75 -23.5t87.5 -19.5t74.5 -43t31 -83.5q0 -86 -73 -130t-187 -44q-111 0 -205 40l17 80q99 -39 193 -39q62 0 112 20t50 63q0 32 -31 49t-75.5 25t-88.5 19t-75 41t-31 81
q0 45 23 77.5t62 49t79.5 23.5t85.5 7q107 0 175 -25zM296 -55l-98 -165h-71l78 165h91z" />
    <glyph glyph-name="Tcommaaccent" unicode="&#x21a;" horiz-adv-x="598" 
d="M411 564l-117 -564h-94l117 564h-244l18 86h582l-18 -86h-244zM281 -55l-98 -165h-71l78 165h91z" />
    <glyph glyph-name="tcommaaccent" unicode="&#x21b;" horiz-adv-x="378" 
d="M416 513l-16 -76h-166l-62 -295q-8 -38 2.5 -56t54.5 -18q49 0 94 13l-15 -82q-48 -11 -98 -11q-55 0 -93.5 26.5t-38.5 86.5q0 16 4 37l64 299h-104l16 76h106l39 112h71l-23 -112h165zM238 -55l-98 -165h-71l78 165h91z" />
    <glyph glyph-name="dotlessj" unicode="&#x237;" horiz-adv-x="246" 
d="M230 513l-111 -537q-21 -100 -63.5 -144t-134.5 -44q-67 0 -114 20l20 79q41 -16 100 -16q27 0 46 9.5t29.5 27.5t16 32.5t9.5 34.5l113 538h89z" />
    <glyph glyph-name="schwa" unicode="&#x259;" horiz-adv-x="580" 
d="M356 523q102 0 158 -47.5t56 -139.5q0 -38 -8 -74q-29 -140 -114 -207t-200 -67q-92 0 -142 46.5t-50 131.5q0 29 8 69l11 52h398l1 6q3 18 3 34q0 55 -38 83.5t-106 28.5q-91 0 -232 -44l19 90q121 38 236 38zM264 72q66 0 112 30.5t78 107.5h-304q0 -3 -0.5 -9t-0.5 -9
q0 -120 115 -120z" />
    <glyph glyph-name="apostrophemod" unicode="&#x2bc;" horiz-adv-x="193" 
d="M71 525h-71l78 166h91z" />
    <glyph glyph-name="circumflex" unicode="&#x2c6;" horiz-adv-x="372" 
d="M179 677l-93 -86h-86l131 145h110l71 -145h-76z" />
    <glyph glyph-name="caron" unicode="&#x2c7;" horiz-adv-x="372" 
d="M211 591h-110l-71 145h76l57 -86l93 86h86z" />
    <glyph glyph-name="firsttonechinese" unicode="&#x2c9;" horiz-adv-x="334" 
d="M244 615h-274l16 77h274z" />
    <glyph glyph-name="breve" unicode="&#x2d8;" horiz-adv-x="344" 
d="M232 712h77q-37 -119 -159 -119q-66 0 -98 31.5t-27 87.5h77q-2 -25 11 -39t43 -14q57 0 76 53z" />
    <glyph glyph-name="dotaccent" unicode="&#x2d9;" horiz-adv-x="158" 
d="M98 588h-98l20 96h98z" />
    <glyph glyph-name="ring" unicode="&#x2da;" horiz-adv-x="262" 
d="M107 580q-42 0 -66.5 21t-24.5 54q0 44 31 70.5t85 26.5q42 0 66 -20.5t24 -53.5q0 -39 -28.5 -68.5t-86.5 -29.5zM127 706q-29 0 -45 -13.5t-16 -32.5q0 -34 46 -34q28 0 44 13t16 34q0 33 -45 33z" />
    <glyph glyph-name="ogonek" unicode="&#x2db;" horiz-adv-x="244" 
d="M137 4l86 1q-65 -25 -99 -52.5t-34 -51.5q0 -18 28 -18q32 0 83 20l-13 -69q-48 -16 -89 -16q-43 0 -64.5 17t-21.5 46q0 46 37 76.5t87 46.5z" />
    <glyph glyph-name="tilde" unicode="&#x2dc;" horiz-adv-x="362" 
d="M263 714h60q-35 -97 -114 -97q-19 0 -56.5 13.5t-52.5 13.5q-16 0 -24.5 -7t-15.5 -23h-60q35 97 114 97q22 0 56.5 -13.5t51.5 -13.5q30 0 41 30z" />
    <glyph glyph-name="hungarumlaut" unicode="&#x2dd;" horiz-adv-x="408" 
d="M80 591h-82l104 145h111zM247 591h-82l104 145h111z" />
    <glyph glyph-name="commaturnedabovecomb" unicode="&#x312;" horiz-adv-x="0" 
d="M128 759h71l-78 -165h-91z" />
    <glyph glyph-name="commaaccent" unicode="&#x326;" horiz-adv-x="0" 
d="M101 -220h-71l78 165h91z" />
    <glyph glyph-name="uni037E" unicode="&#x37e;" horiz-adv-x="230" 
d="M80 364l20 97h100l-20 -97h-100zM-78 -129l109 226h106l-129 -226h-86z" />
    <glyph glyph-name="tonos" unicode="&#x384;" horiz-adv-x="209" 
d="M-2 591l75 150h108l-119 -150h-64z" />
    <glyph glyph-name="dieresistonos" unicode="&#x385;" horiz-adv-x="464" 
d="M150 591l50 150h108l-94 -150h-64zM0 591l20 96h98l-20 -96h-98zM306 591l20 96h98l-20 -96h-98z" />
    <glyph glyph-name="Alphatonos" unicode="&#x386;" horiz-adv-x="664" 
d="M618 0h-95q-12 78 -32 181h-322l-96 -181h-105q195 390 401 650h101q100 -332 148 -650zM74 500l75 150h108l-119 -150h-64zM403 556q-76 -96 -185 -288h256q-33 156 -71 288z" />
    <glyph glyph-name="anoteleia" unicode="&#x387;" horiz-adv-x="200" 
d="M54 416l20 97h100l-20 -97h-100z" />
    <glyph glyph-name="Epsilontonos" unicode="&#x388;" horiz-adv-x="590" 
d="M-92 500l75 150h108l-119 -150h-64zM205 377h332l-18 -85h-332l-42 -206h360l-18 -86h-454l135 650h454l-17 -86h-361z" />
    <glyph glyph-name="Etatonos" unicode="&#x389;" horiz-adv-x="719" 
d="M-92 500l75 150h108l-119 -150h-64zM553 290h-366l-60 -290h-94l135 650h94l-56 -271h366l56 271h94l-135 -650h-94z" />
    <glyph glyph-name="Iotatonos" unicode="&#x38a;" horiz-adv-x="259" 
d="M-91 500l75 150h108l-119 -150h-64zM168 650h94l-135 -650h-94z" />
    <glyph glyph-name="Omicrontonos" unicode="&#x38c;" horiz-adv-x="790" 
d="M464 662q143 0 221 -77t78 -208q0 -174 -111 -281.5t-282 -107.5q-144 0 -226 78.5t-82 210.5q0 172 111 278.5t291 106.5zM-42 500l75 150h108l-119 -150h-64zM451 574q-128 0 -210.5 -79t-82.5 -216q0 -97 60.5 -149t163.5 -52q121 0 203 80.5t82 212.5
q0 100 -58 151.5t-158 51.5z" />
    <glyph glyph-name="Upsilontonos" unicode="&#x38e;" horiz-adv-x="541" 
d="M-183 500l75 150h108l-119 -150h-64zM523 650h113q-187 -276 -320 -439l-41 -211h-95l45 221q-85 191 -167 429h99q60 -189 129 -347q122 162 237 347z" />
    <glyph glyph-name="Omegatonos" unicode="&#x38f;" horiz-adv-x="798" 
d="M296 0h-263l18 86h134q-99 80 -99 210q0 162 99.5 264t281.5 102q147 0 225.5 -69.5t78.5 -198.5q0 -94 -44 -177t-120 -131h129l-18 -86h-260l18 87q91 37 147 117t56 184q0 93 -58 142t-163 49q-131 0 -205 -74t-74 -204q0 -145 135 -213zM-32 500l75 150h108
l-119 -150h-64z" />
    <glyph glyph-name="iotadieresistonos" unicode="&#x390;" horiz-adv-x="359" 
d="M176 591l50 150h108l-94 -150h-64zM26 591l20 96h98l-20 -96h-98zM332 591l20 96h98l-20 -96h-98zM231 513l-78 -371q-8 -38 2.5 -56t54.5 -18q48 0 94 13l-15 -82q-48 -11 -98 -11q-55 0 -93.5 26.5t-38.5 86.5q0 16 4 37l80 375h88z" />
    <glyph glyph-name="Alpha" unicode="&#x391;" horiz-adv-x="664" 
d="M618 0h-95q-12 78 -32 181h-322l-96 -181h-105q195 390 401 650h101q100 -332 148 -650zM403 556q-76 -96 -185 -288h256q-33 156 -71 288z" />
    <glyph glyph-name="Beta" unicode="&#x392;" horiz-adv-x="654" 
d="M168 650h251q106 0 161.5 -33.5t55.5 -113.5q0 -58 -42.5 -107.5t-90.5 -62.5q37 -9 65 -46.5t28 -88.5q0 -98 -81.5 -148t-216.5 -50h-265zM205 377h180q64 0 107.5 32.5t43.5 80.5q0 17 -5 30t-16.5 20.5t-22.5 12t-30 6.5t-31 2.5t-33 0.5h-154zM145 88h162
q190 0 190 110q0 92 -133 92h-177z" />
    <glyph glyph-name="Gamma" unicode="&#x393;" horiz-adv-x="569" 
d="M127 0h-94l135 650h454l-17 -86h-361z" />
    <glyph glyph-name="Delta" unicode="&#x394;" horiz-adv-x="664" 
d="M369 650h101q84 -281 138 -588l-13 -62h-608l13 62q71 142 156 279.5t132 202t81 106.5zM118 87h390q-35 229 -105 469q-49 -61 -133.5 -201t-151.5 -268z" />
    <glyph glyph-name="Epsilon" unicode="&#x395;" horiz-adv-x="590" 
d="M205 377h332l-18 -85h-332l-42 -206h360l-18 -86h-454l135 650h454l-17 -86h-361z" />
    <glyph glyph-name="Zeta" unicode="&#x396;" horiz-adv-x="598" 
d="M523 86l-18 -86h-517l18 65l481 499h-377l17 86h521l-18 -65l-482 -499h375z" />
    <glyph glyph-name="Eta" unicode="&#x397;" horiz-adv-x="719" 
d="M553 290h-366l-60 -290h-94l135 650h94l-56 -271h366l56 271h94l-135 -650h-94z" />
    <glyph glyph-name="Theta" unicode="&#x398;" horiz-adv-x="790" 
d="M464 662q143 0 221 -77t78 -208q0 -174 -111 -281.5t-282 -107.5q-144 0 -226 78.5t-82 210.5q0 172 111 278.5t291 106.5zM451 574q-128 0 -210.5 -79t-82.5 -216q0 -97 60.5 -149t163.5 -52q121 0 203 80.5t82 212.5q0 100 -58 151.5t-158 51.5zM261 366h316l-17 -80
h-316z" />
    <glyph glyph-name="Iota" unicode="&#x399;" horiz-adv-x="259" 
d="M168 650h94l-135 -650h-94z" />
    <glyph glyph-name="Kappa" unicode="&#x39a;" horiz-adv-x="610" 
d="M168 650h94l-135 -650h-94zM211 325q174 181 354 325h139q-218 -170 -378 -327q113 -121 259 -323h-123q-148 220 -251 325z" />
    <glyph glyph-name="Lambda" unicode="&#x39b;" horiz-adv-x="664" 
d="M403 556q-63 -76 -161 -244.5t-169 -311.5h-105q195 390 401 650h101q100 -332 148 -650h-95q-44 286 -120 556z" />
    <glyph glyph-name="Mu" unicode="&#x39c;" horiz-adv-x="850" 
d="M679 650h111q0 -248 -19 -650h-97q23 318 23 524q-103 -155 -274 -460h-72q-38 307 -75 460q-113 -258 -198 -524h-95q55 173 127 354t127 296h104q47 -230 77 -435q130 235 261 435z" />
    <glyph glyph-name="Nu" unicode="&#x39d;" horiz-adv-x="726" 
d="M236 524l-109 -524h-94l135 650h103l262 -492l102 492h94l-135 -650h-76z" />
    <glyph glyph-name="Xi" unicode="&#x39e;" horiz-adv-x="628" 
d="M133 650h527l-19 -96h-528zM106 381h470l-20 -94h-470zM525 0h-527l19 96h528z" />
    <glyph glyph-name="Omicron" unicode="&#x39f;" horiz-adv-x="790" 
d="M464 662q143 0 221 -77t78 -208q0 -174 -111 -281.5t-282 -107.5q-144 0 -226 78.5t-82 210.5q0 172 111 278.5t291 106.5zM451 574q-128 0 -210.5 -79t-82.5 -216q0 -97 60.5 -149t163.5 -52q121 0 203 80.5t82 212.5q0 100 -58 151.5t-158 51.5z" />
    <glyph glyph-name="Pi" unicode="&#x3a0;" horiz-adv-x="719" 
d="M610 561h-366l-117 -561h-94l135 650h554l-135 -650h-94z" />
    <glyph glyph-name="Rho" unicode="&#x3a1;" horiz-adv-x="642" 
d="M168 650h250q25 0 51 -4.5t55.5 -17.5t52 -33t37.5 -54.5t15 -78.5q0 -60 -21 -106t-52 -72.5t-72 -44t-75.5 -23t-68.5 -5.5h-169l-44 -211h-94zM190 299h156q80 0 132 39t52 122q0 54 -36.5 78t-92.5 24h-157z" />
    <glyph glyph-name="Sigma" unicode="&#x3a3;" horiz-adv-x="598" 
d="M360 327v-17l-212 -224h375l-18 -86h-517l18 65l244 257l-135 269l12 59h521l-24 -86h-382z" />
    <glyph glyph-name="Tau" unicode="&#x3a4;" horiz-adv-x="598" 
d="M294 0h-94l117 564h-244l18 86h582l-18 -86h-244z" />
    <glyph glyph-name="Upsilon" unicode="&#x3a5;" horiz-adv-x="541" 
d="M523 650h113q-187 -276 -320 -439l-41 -211h-95l45 221q-85 191 -167 429h99q60 -189 129 -347q122 162 237 347z" />
    <glyph glyph-name="Phi" unicode="&#x3a6;" horiz-adv-x="857" 
d="M322 -51l11 54q-135 10 -203 77.5t-68 185.5q0 173 105.5 278t299.5 104l11 51h93l-11 -50q132 -10 201.5 -79t69.5 -186q0 -175 -105.5 -278.5t-298.5 -103.5l-11 -53h-94zM350 82l101 488q-146 0 -222 -76t-76 -219q0 -90 52 -139t145 -54zM544 570l-101 -489
q145 0 222 76.5t77 216.5q0 94 -53.5 142t-144.5 54z" />
    <glyph glyph-name="Chi" unicode="&#x3a7;" horiz-adv-x="670" 
d="M487 0l-146 258l-241 -258h-123l308 330l-186 320h115l148 -265l240 265h121l-308 -333l189 -317h-117z" />
    <glyph glyph-name="Psi" unicode="&#x3a8;" horiz-adv-x="841" 
d="M753 650h94l-55 -266q-27 -128 -105.5 -190t-242.5 -63l-27 -131h-94l27 131h-3q-244 0 -247 166q-1 36 18 126q1 2 1 4l46 223h94l-48 -230l-7.5 -35.5t-5 -33t-1.5 -32.5t4 -27.5t11 -25.5t21 -20t31.5 -16t44.5 -9t59 -4l90 433h94l-90 -433q118 1 168 42t71 145z" />
    <glyph glyph-name="Omega" unicode="&#x3a9;" horiz-adv-x="773" 
d="M746 402q0 -85 -39.5 -173t-111.5 -143h88l-18 -86h-268l14 64l2 12q64 0 119 51.5t84.5 124.5t29.5 143q0 83 -52.5 131t-144.5 48q-60 0 -110 -19.5t-82.5 -51t-55 -72.5t-32.5 -83t-10 -83q0 -81 38 -135t92 -54l-12 -54l-4 -22h-268l18 86h101q-63 66 -63 177
q0 67 24 135t70 128t124.5 98t177.5 38q138 0 213.5 -69t75.5 -191z" />
    <glyph glyph-name="Iotadieresis" unicode="&#x3aa;" horiz-adv-x="259" 
d="M198 805l-20 -98h-100l20 98h100zM396 805l-20 -98h-100l20 98h100zM33 0l135 650h94l-135 -650h-94z" />
    <glyph glyph-name="Upsilondieresis" unicode="&#x3ab;" horiz-adv-x="541" 
d="M323 805l-20 -98h-100l20 98h100zM521 805l-20 -98h-100l20 98h100zM523 650h113q-187 -276 -320 -439l-41 -211h-95l45 221q-85 191 -167 429h99q60 -189 129 -347q122 162 237 347z" />
    <glyph glyph-name="alphatonos" unicode="&#x3ac;" horiz-adv-x="633" 
d="M350 591l75 150h108l-119 -150h-64zM450 0l-7 40q-68 -52 -168 -52q-94 0 -160.5 53t-66.5 159q0 77 29 140.5t75 102.5t101 60t110 21q52 0 97 -14.5t68 -32.5l27 36h62l-106 -513h-61zM139 200q0 -68 42 -101.5t105 -33.5q95 0 161 58l57 277q-18 16 -55.5 28.5
t-84.5 12.5q-91 0 -158 -64t-67 -177z" />
    <glyph glyph-name="epsilontonos" unicode="&#x3ad;" horiz-adv-x="522" 
d="M316 591l75 150h108l-119 -150h-64zM471 112l-18 -88q-85 -36 -185 -36q-228 0 -228 133q0 54 29.5 92t87.5 53q-68 22 -68 93q0 67 61.5 116t194.5 49q114 0 192 -34l-17 -81q-86 34 -188 34q-72 0 -113 -21.5t-41 -62.5q0 -30 26 -43.5t83 -13.5h108l-18 -82h-112
q-133 0 -133 -80q0 -68 148 -68q98 0 191 40z" />
    <glyph glyph-name="etatonos" unicode="&#x3ae;" horiz-adv-x="607" 
d="M312 591l75 150h108l-119 -150h-64zM405 524q167 0 167 -133q0 -23 -8 -65l-107 -526h-90l105 515q8 34 8 53q0 75 -97 75q-52 0 -103 -20t-84 -45l-79 -378h-90l106 513h61l10 -51q36 24 90.5 43t110.5 19z" />
    <glyph glyph-name="iotatonos" unicode="&#x3af;" horiz-adv-x="359" 
d="M168 591l75 150h108l-119 -150h-64zM231 513l-78 -371q-8 -38 2.5 -56t54.5 -18q48 0 94 13l-15 -82q-48 -11 -98 -11q-55 0 -93.5 26.5t-38.5 86.5q0 16 4 37l80 375h88z" />
    <glyph glyph-name="upsilondieresistonos" unicode="&#x3b0;" horiz-adv-x="610" 
d="M300 591l50 150h108l-94 -150h-64zM150 591l20 96h98l-20 -96h-98zM456 591l20 96h98l-20 -96h-98zM249 -12q-223 0 -184 200l66 325h90l-63 -304q-8 -43 -7.5 -74.5t28.5 -49t89 -17.5q52 0 89.5 17.5t59.5 49.5t34 64.5t20 75.5q23 136 -22 238h96q40 -103 15 -250
q-22 -128 -101.5 -201.5t-209.5 -73.5z" />
    <glyph glyph-name="alpha" unicode="&#x3b1;" horiz-adv-x="633" 
d="M450 0l-7 40q-68 -52 -168 -52q-94 0 -160.5 53t-66.5 159q0 77 29 140.5t75 102.5t101 60t110 21q52 0 97 -14.5t68 -32.5l27 36h62l-106 -513h-61zM139 200q0 -68 42 -101.5t105 -33.5q95 0 161 58l57 277q-18 16 -55.5 28.5t-84.5 12.5q-91 0 -158 -64t-67 -177z" />
    <glyph glyph-name="beta" unicode="&#x3b2;" horiz-adv-x="630" 
d="M-9 -200l145 687q24 115 80.5 170t174.5 55q200 0 200 -151q0 -74 -34.5 -120t-69.5 -62q113 -26 113 -140q0 -43 -15 -84.5t-46.5 -80t-90.5 -62.5t-138 -24q-107 0 -180 48l-49 -236h-90zM383 632q-68 0 -106 -34t-54 -111l-76 -365q21 -22 65 -36.5t94 -14.5
q59 0 100.5 15t61.5 40.5t28.5 51t8.5 54.5q0 56 -36 75.5t-108 19.5h-88l16 83h56q156 0 156 132q0 44 -26.5 67t-91.5 23z" />
    <glyph glyph-name="gamma" unicode="&#x3b3;" horiz-adv-x="575" 
d="M132 -200l32 151q9 42 -21 222t-65 340h87q39 -163 75 -440h2q85 74 151.5 198.5t75.5 241.5h86q-10 -147 -94 -288.5t-205 -256.5l-34 -168h-90z" />
    <glyph glyph-name="delta" unicode="&#x3b4;" horiz-adv-x="619" 
d="M286 -12q-111 0 -177 55t-66 158q0 97 60 170t169 99q-72 44 -72 99q0 65 52 104t153 39q106 0 174 -29l-17 -81q-64 34 -162 34q-110 0 -110 -61q0 -17 16 -32.5t34.5 -25.5t64.5 -31q87 -41 132 -90.5t45 -126.5q0 -126 -84.5 -203.5t-211.5 -77.5zM296 71q96 0 147 56
t51 132q0 62 -31.5 97.5t-105.5 69.5q-96 -12 -159.5 -67.5t-63.5 -150.5q0 -62 41 -99.5t121 -37.5z" />
    <glyph glyph-name="epsilon" unicode="&#x3b5;" horiz-adv-x="522" 
d="M471 112l-18 -88q-85 -36 -185 -36q-228 0 -228 133q0 54 29.5 92t87.5 53q-68 22 -68 93q0 67 61.5 116t194.5 49q114 0 192 -34l-17 -81q-86 34 -188 34q-72 0 -113 -21.5t-41 -62.5q0 -30 26 -43.5t83 -13.5h108l-18 -82h-112q-133 0 -133 -80q0 -68 148 -68
q98 0 191 40z" />
    <glyph glyph-name="zeta" unicode="&#x3b6;" horiz-adv-x="528" 
d="M401 -200h-84q49 75 49 127q0 28 -16.5 41t-66.5 22q-46 9 -77 17t-65.5 24.5t-54.5 38t-33 56.5t-13 81q0 135 89 241t215 157h-203l18 86h409l-16 -78q-87 -25 -160 -60.5t-133 -83t-94 -110.5t-34 -135q0 -40 9 -65.5t33.5 -41.5t51.5 -24.5t79 -19.5
q34 -7 47.5 -10.5t39 -13t35.5 -20.5t19 -30.5t9 -46.5q0 -76 -53 -152z" />
    <glyph glyph-name="eta" unicode="&#x3b7;" horiz-adv-x="607" 
d="M405 524q167 0 167 -133q0 -23 -8 -65l-107 -526h-90l105 515q8 34 8 53q0 75 -97 75q-52 0 -103 -20t-84 -45l-79 -378h-90l106 513h61l10 -51q36 24 90.5 43t110.5 19z" />
    <glyph glyph-name="theta" unicode="&#x3b8;" horiz-adv-x="635" 
d="M407 712q106 0 162 -60.5t56 -181.5q0 -70 -12.5 -137.5t-39.5 -130.5t-66.5 -110t-98 -75.5t-128.5 -28.5q-113 0 -165.5 64t-52.5 173q0 95 21.5 181t63 155t109 110t151.5 41zM395 629q-84 0 -138 -64t-80 -164h351q4 35 4 66q0 83 -33 122.5t-104 39.5zM287 71
q50 0 90 21.5t66.5 59.5t43.5 78.5t28 88.5h-354q-6 -48 -6 -89q0 -159 132 -159z" />
    <glyph glyph-name="iota" unicode="&#x3b9;" horiz-adv-x="359" 
d="M231 513l-78 -371q-8 -38 2.5 -56t54.5 -18q48 0 94 13l-15 -82q-48 -11 -98 -11q-55 0 -93.5 26.5t-38.5 86.5q0 16 4 37l80 375h88z" />
    <glyph glyph-name="kappa" unicode="&#x3ba;" horiz-adv-x="540" 
d="M139 513h90l-106 -513h-90zM461 513h128q-138 -105 -281 -241q90 -105 200 -272h-112q-34 57 -89 134t-111 138q169 172 265 241z" />
    <glyph glyph-name="lambda" unicode="&#x3bb;" horiz-adv-x="559" 
d="M163 627q-43 0 -72 -10l17 82q39 13 75 13q74 0 123.5 -45.5t89.5 -161.5q39 -115 66.5 -264t36.5 -241h-87q-9 112 -32.5 234.5t-43.5 174.5q-152 -150 -244 -409h-90q25 99 115.5 251.5t192.5 244.5q-28 70 -63.5 100.5t-83.5 30.5z" />
    <glyph glyph-name="mu" unicode="&#x3bc;" horiz-adv-x="585" 
d="M613 513l-107 -513h-59l-9 51q-28 -24 -81.5 -43.5t-114.5 -19.5q-73 0 -116 37l-47 -225h-88l128 617l19 96h90l-21 -104l-2 -10l-20 -97l-22 -105q-7 -30 -7 -49q0 -79 106 -79q53 0 103.5 20t79.5 45l78 379h90z" />
    <glyph glyph-name="nu" unicode="&#x3bd;" horiz-adv-x="526" 
d="M470 513h99q-148 -282 -307 -513h-92q-46 131 -78.5 274.5t-42.5 238.5h88q35 -260 90 -418q125 183 243 418z" />
    <glyph glyph-name="xi" unicode="&#x3be;" horiz-adv-x="552" 
d="M293 -10q-144 28 -198.5 68t-54.5 116q0 81 47 133t118 70q-45 14 -67 43t-22 81q0 102 73.5 156.5t204.5 54.5q116 0 188 -34l-17 -81q-80 34 -180 34q-181 0 -181 -122q0 -29 12.5 -48t38 -29t55 -13.5t71.5 -3.5h88l-17 -86h-111q-209 0 -209 -140q0 -50 36.5 -71.5
t144.5 -44.5q35 -7 51 -11t39.5 -13t34 -20.5t18.5 -31.5t8 -47q0 -75 -53 -150h-84q49 73 49 129q0 21 -11 33t-25.5 16.5t-46.5 11.5z" />
    <glyph glyph-name="omicron" unicode="&#x3bf;" horiz-adv-x="633" 
d="M380 524h1q97 0 159.5 -57t62.5 -155q0 -100 -47.5 -174.5t-122 -110.5t-163.5 -39q-97 0 -159.5 57t-62.5 155q0 151 97 237.5t235 86.5zM289 71q91 0 157 64t66 168q0 59 -38 98.5t-113 39.5q-91 0 -156.5 -64t-65.5 -168q0 -59 38 -98.5t112 -39.5z" />
    <glyph glyph-name="pi" unicode="&#x3c0;" horiz-adv-x="690" 
d="M84 0l91 428h-123l18 85h648l-18 -85h-136l-58 -277q-11 -34 -3 -58.5t48 -24.5q25 0 57 13l-15 -82q-38 -11 -66 -11q-77 0 -103 37.5t-10 112.5l62 290h-213l-89 -428h-90z" />
    <glyph glyph-name="rho" unicode="&#x3c1;" horiz-adv-x="615" 
d="M366 524q101 0 162 -58.5t61 -168.5q0 -75 -29 -136t-75 -97.5t-100 -56t-109 -19.5q-88 0 -157 45l-48 -233h-90l100 474q26 125 94.5 187.5t190.5 62.5zM280 71q87 0 151 64t64 163q0 64 -38.5 103.5t-109.5 39.5q-47 0 -81 -15.5t-53 -43t-28 -51t-16 -54.5l-32 -156
q50 -50 143 -50z" />
    <glyph glyph-name="sigma1" unicode="&#x3c2;" horiz-adv-x="540" 
d="M140 220q0 -72 37.5 -100t135.5 -47q53 -10 81.5 -20.5t48.5 -35t20 -64.5q0 -77 -53 -153h-84q49 79 49 129q0 28 -19 40.5t-65 20.5q-61 11 -100 24t-74.5 37t-52 63t-16.5 96q0 146 95 230t243 84q105 0 175 -34l-17 -81q-77 34 -166 34q-113 0 -175.5 -64.5
t-62.5 -158.5z" />
    <glyph glyph-name="sigma" unicode="&#x3c3;" horiz-adv-x="651" 
d="M299 -12q-126 0 -188.5 60.5t-62.5 165.5q0 132 82 215.5t232 83.5h317l-18 -85h-123q51 -53 51 -144q0 -53 -18 -104t-52.5 -94.5t-91.5 -70.5t-128 -27zM304 71q92 0 145 58.5t53 143.5q0 115 -66 155h-89q-96 0 -152 -56t-56 -140q0 -161 165 -161z" />
    <glyph glyph-name="tau" unicode="&#x3c4;" horiz-adv-x="509" 
d="M547 513l-18 -85h-215l-60 -286q-8 -38 2.5 -56t54.5 -18q49 0 94 13l-15 -82q-48 -11 -98 -11q-55 0 -93.5 26.5t-38.5 86.5q0 16 4 37l62 290h-184l18 85h487z" />
    <glyph glyph-name="upsilon" unicode="&#x3c5;" horiz-adv-x="610" 
d="M249 -12q-223 0 -184 200l66 325h90l-63 -304q-8 -43 -7.5 -74.5t28.5 -49t89 -17.5q52 0 89.5 17.5t59.5 49.5t34 64.5t20 75.5q23 136 -22 238h96q40 -103 15 -250q-22 -128 -101.5 -201.5t-209.5 -73.5z" />
    <glyph glyph-name="phi" unicode="&#x3c6;" horiz-adv-x="787" 
d="M252 -200l38 182q-107 2 -179.5 55t-72.5 169q0 147 90.5 236.5t275.5 89.5l27 130h90l-27 -130q119 -4 186 -59.5t67 -161.5q0 -149 -91.5 -239.5t-275.5 -89.5l-38 -182h-90zM307 64l80 386q-123 0 -190.5 -58t-67.5 -178q0 -77 46 -111t132 -39zM477 450l-80 -386
q127 -2 193 58.5t66 180.5q0 139 -179 147z" />
    <glyph glyph-name="chi" unicode="&#x3c7;" horiz-adv-x="522" 
d="M402 -200h-98l-98 274l-207 -274h-103l279 356l-136 357h96l106 -294l220 294h104l-293 -374z" />
    <glyph glyph-name="psi" unicode="&#x3c8;" horiz-adv-x="767" 
d="M606 513h96q40 -103 15 -250q-22 -128 -103 -201.5t-221 -73.5h-19l-39 -188h-90l39 188h-25q-234 0 -195 200l66 325h90l-63 -304q-7 -36 -7.5 -58t9.5 -43t39.5 -30.5t79.5 -9.5h22l123 594h90l-123 -594h22q56 0 97 17.5t64 49.5t35 64.5t20 75.5q23 136 -22 238z" />
    <glyph glyph-name="omega" unicode="&#x3c9;" horiz-adv-x="787" 
d="M367 86q-34 -50 -74 -74t-97 -24q-76 0 -117 45t-41 131q0 83 36.5 176t105.5 173h97q-60 -61 -104 -154t-44 -184q0 -104 90 -104q46 0 77.5 32t42.5 89l41 200h90l-32 -155q-11 -54 -11 -88q0 -78 98 -78q64 0 98.5 60.5t34.5 160.5q0 127 -64 221h96q57 -97 57 -222
q0 -130 -60 -216.5t-163 -86.5q-61 0 -103 25.5t-54 72.5z" />
    <glyph glyph-name="iotadieresis" unicode="&#x3ca;" horiz-adv-x="359" 
d="M177 684l-20 -96h-98l20 96h98zM375 684l-20 -96h-98l20 96h98zM231 513l-78 -371q-8 -38 2.5 -56t54.5 -18q48 0 94 13l-15 -82q-48 -11 -98 -11q-55 0 -93.5 26.5t-38.5 86.5q0 16 4 37l80 375h88z" />
    <glyph glyph-name="upsilondieresis" unicode="&#x3cb;" horiz-adv-x="610" 
d="M318 684l-20 -96h-98l20 96h98zM516 684l-20 -96h-98l20 96h98zM249 -12q-223 0 -184 200l66 325h90l-63 -304q-8 -43 -7.5 -74.5t28.5 -49t89 -17.5q52 0 89.5 17.5t59.5 49.5t34 64.5t20 75.5q23 136 -22 238h96q40 -103 15 -250q-22 -128 -101.5 -201.5t-209.5 -73.5z
" />
    <glyph glyph-name="omicrontonos" unicode="&#x3cc;" horiz-adv-x="633" 
d="M358 591l75 150h108l-119 -150h-64zM380 524h1q97 0 159.5 -57t62.5 -155q0 -100 -47.5 -174.5t-122 -110.5t-163.5 -39q-97 0 -159.5 57t-62.5 155q0 151 97 237.5t235 86.5zM289 71q91 0 157 64t66 168q0 59 -38 98.5t-113 39.5q-91 0 -156.5 -64t-65.5 -168
q0 -59 38 -98.5t112 -39.5z" />
    <glyph glyph-name="upsilontonos" unicode="&#x3cd;" horiz-adv-x="610" 
d="M314 591l75 150h108l-119 -150h-64zM249 -12q-223 0 -184 200l66 325h90l-63 -304q-8 -43 -7.5 -74.5t28.5 -49t89 -17.5q52 0 89.5 17.5t59.5 49.5t34 64.5t20 75.5q23 136 -22 238h96q40 -103 15 -250q-22 -128 -101.5 -201.5t-209.5 -73.5z" />
    <glyph glyph-name="omegatonos" unicode="&#x3ce;" horiz-adv-x="787" 
d="M428 591l75 150h108l-119 -150h-64zM367 86q-34 -50 -74 -74t-97 -24q-76 0 -117 45t-41 131q0 83 36.5 176t105.5 173h97q-60 -61 -104 -154t-44 -184q0 -104 90 -104q46 0 77.5 32t42.5 89l41 200h90l-32 -155q-11 -54 -11 -88q0 -78 98 -78q64 0 98.5 60.5t34.5 160.5
q0 127 -64 221h96q57 -97 57 -222q0 -130 -60 -216.5t-163 -86.5q-61 0 -103 25.5t-54 72.5z" />
    <glyph glyph-name="Iegravecy" unicode="&#x400;" horiz-adv-x="590" 
d="M217 855h112l104 -145h-85zM244 564l-39 -187h332l-18 -85h-332l-42 -206h360l-18 -86h-454l135 650h454l-17 -86h-361z" />
    <glyph glyph-name="Iocy" unicode="&#x401;" horiz-adv-x="590" 
d="M371 805l-20 -98h-100l20 98h100zM569 805l-20 -98h-100l20 98h100zM244 564l-39 -187h332l-18 -85h-332l-42 -206h360l-18 -86h-454l135 650h454l-17 -86h-361z" />
    <glyph glyph-name="Djecy" unicode="&#x402;" horiz-adv-x="791" 
d="M751 317q0 -23 -8 -65l-16 -76q-21 -99 -65 -143.5t-136 -44.5q-65 0 -114 20l20 79q46 -16 100 -16q26 0 45.5 9.5t30 28t16 32.5t9.5 34l13 62q8 34 8 53q0 75 -98 75q-57 0 -112.5 -21t-87.5 -46l-62 -298h-94l117 564h-244l18 86h582l-18 -86h-244l-36 -171
q94 57 204 57q84 0 128 -30.5t44 -102.5z" />
    <glyph glyph-name="Gjecy" unicode="&#x403;" horiz-adv-x="499" 
d="M392 710h-85l104 145h112zM556 564h-312l-117 -564h-94l135 650h406z" />
    <glyph glyph-name="Ecy" unicode="&#x404;" horiz-adv-x="659" 
d="M454 572q-100 0 -176 -50t-106 -142h353l-18 -86h-350l-1 -24q0 -101 58 -146.5t149 -45.5q107 0 218 44l-20 -94q-102 -40 -223 -40q-56 0 -104 15.5t-88 46.5t-63 86t-23 127q0 97 33.5 175t90.5 126t128 73t150 25q115 0 219 -42l-20 -92q-108 44 -207 44z" />
    <glyph glyph-name="Dzecy" unicode="&#x405;" horiz-adv-x="603" 
d="M394 662q118 0 214 -32l-19 -91q-96 36 -205 36q-45 0 -84 -8.5t-68 -31.5t-29 -57q0 -37 35 -59.5t85.5 -36t100.5 -30.5t85 -55t35 -97q0 -96 -81 -154t-217 -58q-128 0 -240 43l20 91q114 -45 226 -45q84 0 138 30.5t54 81.5q0 39 -35 62.5t-85 36t-99.5 29t-84.5 54
t-35 96.5q0 99 82 147t207 48z" />
    <glyph glyph-name="Icy" unicode="&#x406;" horiz-adv-x="259" 
d="M33 0l135 650h94l-135 -650h-94z" />
    <glyph glyph-name="Yicy" unicode="&#x407;" horiz-adv-x="259" 
d="M198 805l-20 -98h-100l20 98h100zM396 805l-20 -98h-100l20 98h100zM33 0l135 650h94l-135 -650h-94z" />
    <glyph glyph-name="Jecy" unicode="&#x408;" horiz-adv-x="447" 
d="M453 650l-97 -467q-41 -195 -244 -195q-77 0 -156 28l19 88q66 -25 152 -25q51 0 88.5 31.5t50.5 94.5l93 445h94z" />
    <glyph glyph-name="Ljecy" unicode="&#x409;" horiz-adv-x="973" 
d="M597 417h145q102 0 159 -48t57 -137q0 -37 -14 -74.5t-44.5 -74.5t-90.5 -60t-140 -23h-252l117 564h-217q-69 -237 -120 -355q-49 -114 -102.5 -167.5t-131.5 -53.5q-10 0 -32 3l16 80q11 -1 19 -1q44 0 77.5 45t73.5 140q56 135 128 395h401zM527 86h151q90 0 135 43.5
t45 100.5q0 101 -132 101h-148z" />
    <glyph glyph-name="Njecy" unicode="&#x40a;" horiz-adv-x="1019" 
d="M645 389h134q225 0 225 -170q0 -37 -13.5 -72t-43.5 -69.5t-89 -56t-138 -21.5h-247l62 303h-347l-61 -303h-94l135 650h94l-55 -261h346l55 261h94zM583 86h146q88 0 131.5 38.5t43.5 92.5q0 48 -35.5 67t-105.5 19h-137z" />
    <glyph glyph-name="Tshecy" unicode="&#x40b;" horiz-adv-x="791" 
d="M579 450q84 0 128 -30.5t44 -102.5q0 -23 -8 -65l-53 -252h-94l50 237q8 34 8 53q0 75 -98 75q-57 0 -112.5 -21t-87.5 -46l-62 -298h-94l117 564h-244l18 86h582l-18 -86h-244l-36 -171q94 57 204 57z" />
    <glyph glyph-name="Kjecy" unicode="&#x40c;" horiz-adv-x="609" 
d="M461 710h-85l104 145h112zM566 650h137q-197 -155 -374 -335q107 -128 242 -315h-119q-92 139 -201 274h-67l-57 -274h-94l135 650h94l-60 -290h57q147 154 307 290z" />
    <glyph glyph-name="Iigravecy" unicode="&#x40d;" horiz-adv-x="730" 
d="M389 855l104 -145h-85l-131 145h112zM261 650l-104 -498l472 498h104l-135 -650h-93l108 521l-492 -521h-88l135 650h93z" />
    <glyph glyph-name="Ushortcy" unicode="&#x40e;" horiz-adv-x="586" 
d="M409 708q-66 0 -98 31.5t-27 87.5h77q-2 -25 11 -39t43 -14q57 0 76 53h77q-37 -119 -159 -119zM573 650h113q-96 -143 -243.5 -335t-254.5 -315h-118l184 219q-27 54 -79 182.5t-91 248.5h100q23 -76 64.5 -186t67.5 -166q155 198 257 352z" />
    <glyph glyph-name="Dzhecy" unicode="&#x40f;" horiz-adv-x="699" 
d="M567 0h-222l-28 -137h-90l28 137h-222l135 650h94l-117 -564h346l117 564h94z" />
    <glyph glyph-name="Acy" unicode="&#x410;" horiz-adv-x="664" 
d="M618 0h-95q-12 78 -32 181h-322l-96 -181h-105q195 390 401 650h101q100 -332 148 -650zM403 556q-76 -96 -185 -288h256q-33 156 -71 288z" />
    <glyph glyph-name="Becy" unicode="&#x411;" horiz-adv-x="609" 
d="M213 417h145q102 0 159 -48t57 -137q0 -37 -14 -74.5t-44.5 -74.5t-90.5 -60t-140 -23h-252l135 650h416l-18 -86h-322zM143 86h151q90 0 135 43.5t45 100.5q0 101 -132 101h-148z" />
    <glyph glyph-name="Vecy" unicode="&#x412;" horiz-adv-x="654" 
d="M168 650h251q106 0 161.5 -33.5t55.5 -113.5q0 -58 -42.5 -107.5t-90.5 -62.5q37 -9 65 -46.5t28 -88.5q0 -98 -81.5 -148t-216.5 -50h-265zM205 377h180q64 0 107.5 32.5t43.5 80.5q0 17 -5 30t-16.5 20.5t-22.5 12t-30 6.5t-31 2.5t-33 0.5h-154zM145 88h162
q190 0 190 110q0 92 -133 92h-177z" />
    <glyph glyph-name="Gecy" unicode="&#x413;" horiz-adv-x="499" 
d="M556 564h-312l-117 -564h-94l135 650h406z" />
    <glyph glyph-name="Decy" unicode="&#x414;" horiz-adv-x="683" 
d="M561 86h85l-46 -223h-91l28 137h-494l-28 -137h-90l46 223h61q28 17 52 57t55 112q55 128 129 396l410 -1zM467 86l99 478h-229q-58 -211 -121 -351q-36 -80 -79 -127h330z" />
    <glyph glyph-name="Iecy" unicode="&#x415;" horiz-adv-x="590" 
d="M244 564l-39 -187h332l-18 -85h-332l-42 -206h360l-18 -86h-454l135 650h454l-17 -86h-361z" />
    <glyph glyph-name="Zhecy" unicode="&#x416;" horiz-adv-x="894" 
d="M855 650h123q-176 -167 -313 -331q84 -134 181 -319h-111q-74 155 -146 274h-85l-57 -274h-90l57 274h-81q-124 -130 -243 -274h-122q131 155 301 330q-46 100 -169 320h107q69 -128 143 -290h82l60 290h90l-60 -290h74q116 142 259 290z" />
    <glyph glyph-name="Zecy" unicode="&#x417;" horiz-adv-x="611" 
d="M368 662q225 0 225 -145q0 -50 -35.5 -101t-97.5 -75v-1q93 -34 93 -135q0 -38 -15.5 -74t-49 -69.5t-96 -53.5t-146.5 -20q-62 0 -130 14t-103 29l20 91q119 -46 219 -46q111 0 156.5 38.5t45.5 87.5q0 88 -145 88h-154l17 86h154q88 0 126.5 37t38.5 86q0 75 -139 75
q-94 0 -232 -46l19 98q133 36 229 36z" />
    <glyph glyph-name="Iicy" unicode="&#x418;" horiz-adv-x="730" 
d="M261 650l-104 -498l472 498h104l-135 -650h-93l108 521l-492 -521h-88l135 650h93z" />
    <glyph glyph-name="Iishortcy" unicode="&#x419;" horiz-adv-x="730" 
d="M626 817h-67q-30 -55 -93 -55q-51 0 -48 55h-76q-16 -120 111 -120q124 0 173 120zM261 650l-104 -498l472 498h104l-135 -650h-93l108 521l-492 -521h-88l135 650h93z" />
    <glyph glyph-name="Kacy" unicode="&#x41a;" horiz-adv-x="609" 
d="M566 650h137q-197 -155 -374 -335q107 -128 242 -315h-119q-92 139 -201 274h-67l-57 -274h-94l135 650h94l-60 -290h57q147 154 307 290z" />
    <glyph glyph-name="Elcy" unicode="&#x41b;" horiz-adv-x="617" 
d="M644 650h-400q-72 -260 -128 -395q-40 -95 -73.5 -140t-77.5 -45q-8 0 -19 1l-16 -80q22 -3 32 -3q78 0 131.5 53.5t102.5 167.5q51 118 120 355h216l-117 -564h94z" />
    <glyph glyph-name="Emcy" unicode="&#x41c;" horiz-adv-x="850" 
d="M679 650h111q0 -248 -19 -650h-97q23 318 23 524q-103 -155 -274 -460h-72q-38 307 -75 460q-113 -258 -198 -524h-95q55 173 127 354t127 296h104q47 -230 77 -435q130 235 261 435z" />
    <glyph glyph-name="Ency" unicode="&#x41d;" horiz-adv-x="719" 
d="M493 0l60 290h-366l-60 -290h-94l135 650h94l-56 -271h366l56 271h94l-135 -650h-94z" />
    <glyph glyph-name="Ocy" unicode="&#x41e;" horiz-adv-x="790" 
d="M464 662q143 0 221 -77t78 -208q0 -174 -111 -281.5t-282 -107.5q-144 0 -226 78.5t-82 210.5q0 172 111 278.5t291 106.5zM451 574q-128 0 -210.5 -79t-82.5 -216q0 -97 60.5 -149t163.5 -52q121 0 203 80.5t82 212.5q0 100 -58 151.5t-158 51.5z" />
    <glyph glyph-name="Pecy" unicode="&#x41f;" horiz-adv-x="714" 
d="M582 0h-94l117 564h-361l-117 -564h-94l135 650h549z" />
    <glyph glyph-name="Ercy" unicode="&#x420;" horiz-adv-x="642" 
d="M168 650h250q25 0 51 -4.5t55.5 -17.5t52 -33t37.5 -54.5t15 -78.5q0 -60 -21 -106t-52 -72.5t-72 -44t-75.5 -23t-68.5 -5.5h-169l-44 -211h-94zM190 299h156q80 0 132 39t52 122q0 54 -36.5 78t-92.5 24h-157z" />
    <glyph glyph-name="Escy" unicode="&#x421;" horiz-adv-x="699" 
d="M500 662q117 0 219 -42l-20 -92q-108 44 -207 44q-138 0 -236 -80.5t-98 -221.5q0 -68 37 -113t89.5 -62t116.5 -17q107 0 218 44l-20 -94q-102 -40 -223 -40q-60 0 -114 15.5t-100 46.5t-73 86t-27 127q0 97 37.5 175t100.5 126t140 73t160 25z" />
    <glyph glyph-name="Tecy" unicode="&#x422;" horiz-adv-x="598" 
d="M411 564l-117 -564h-94l117 564h-244l18 86h582l-18 -86h-244z" />
    <glyph glyph-name="Ucy" unicode="&#x423;" horiz-adv-x="586" 
d="M573 650h113q-96 -143 -243.5 -335t-254.5 -315h-118l184 219q-27 54 -79 182.5t-91 248.5h100q23 -76 64.5 -186t67.5 -166q155 198 257 352z" />
    <glyph glyph-name="Efcy" unicode="&#x424;" horiz-adv-x="838" 
d="M811 393q0 -54 -12.5 -106.5t-42.5 -106t-74 -94t-113.5 -68t-155.5 -30.5l-5 -40h-95l9 44q-128 15 -194 86t-66 180q0 55 12 107.5t42 105t74.5 92t114 66.5t156.5 32l8 41h90l-8 -42q125 -13 192.5 -85t67.5 -182zM161 266q0 -81 45.5 -129.5t134.5 -59.5l103 497
q-79 -6 -137 -37t-88 -76.5t-44 -94t-14 -100.5zM530 574l-103 -500q79 5 137.5 37t89.5 80t45 97.5t14 98.5q0 81 -46 129t-137 58z" />
    <glyph glyph-name="Hacy" unicode="&#x425;" horiz-adv-x="670" 
d="M604 0h-117l-146 258l-241 -258h-123l308 330l-186 320h115l148 -265l240 265h121l-308 -333z" />
    <glyph glyph-name="Tsecy" unicode="&#x426;" horiz-adv-x="707" 
d="M585 86h85l-46 -223h-90l28 137h-529l135 650h94l-117 -564h346l117 564h94z" />
    <glyph glyph-name="Checy" unicode="&#x427;" horiz-adv-x="627" 
d="M629 650l-134 -649h-94l51 245q-106 -61 -200 -61q-82 0 -122 32t-40 107q0 36 11 91l48 235h94l-49 -239q-8 -42 -8 -65q0 -42 20.5 -58.5t66.5 -16.5q100 0 197 65l65 314h94z" />
    <glyph glyph-name="Shacy" unicode="&#x428;" horiz-adv-x="949" 
d="M952 650l-135 -650h-784l135 650h94l-117 -564h253l117 564h90l-117 -564h253l117 564h94z" />
    <glyph glyph-name="Shchacy" unicode="&#x429;" horiz-adv-x="957" 
d="M835 86h85l-46 -223h-90l28 137h-779l135 650h94l-117 -564h253l117 564h90l-117 -564h253l117 564h94z" />
    <glyph glyph-name="Hardsigncy" unicode="&#x42a;" horiz-adv-x="710" 
d="M338 417h145q102 0 159 -48t57 -137q0 -37 -14 -74.5t-44.5 -74.5t-90.5 -60t-140 -23h-252l118 566h-201l18 84h294zM268 86h151q90 0 135 43.5t45 100.5q0 101 -132 101h-148z" />
    <glyph glyph-name="Yerucy" unicode="&#x42b;" horiz-adv-x="859" 
d="M213 417h145q102 0 159 -48t57 -137q0 -37 -14 -74.5t-44.5 -74.5t-90.5 -60t-140 -23h-252l135 650h94zM727 0h-94l135 650h94zM143 86h151q90 0 135 43.5t45 100.5q0 101 -132 101h-148z" />
    <glyph glyph-name="Softsigncy" unicode="&#x42c;" horiz-adv-x="589" 
d="M213 417h145q102 0 159 -48t57 -137q0 -37 -14 -74.5t-44.5 -74.5t-90.5 -60t-140 -23h-252l135 650h94zM143 86h151q90 0 135 43.5t45 100.5q0 101 -132 101h-148z" />
    <glyph glyph-name="Ereversedcy" unicode="&#x42d;" horiz-adv-x="635" 
d="M338 662q121 0 195.5 -66t74.5 -186q0 -80 -23.5 -153t-70.5 -134.5t-126 -98t-181 -36.5q-53 0 -123.5 14t-103.5 28l20 90q130 -45 217 -45q117 0 186.5 61t94.5 158h-352l18 86h347v21q0 86 -48 130t-141 44q-111 0 -234 -51l19 96q113 42 231 42z" />
    <glyph glyph-name="Iucy" unicode="&#x42e;" horiz-adv-x="997" 
d="M681 662q138 0 213.5 -76t75.5 -205q0 -174 -105.5 -283.5t-273.5 -109.5q-126 0 -209 81.5t-83 212.5v8h-111l-61 -290h-94l135 650h94l-57 -274h105q30 129 132.5 207.5t238.5 78.5zM600 78q118 0 196 82.5t78 214.5q0 98 -55.5 148.5t-150.5 50.5q-110 0 -191.5 -80.5
t-81.5 -214.5q0 -95 60.5 -148t144.5 -53z" />
    <glyph glyph-name="Iacy" unicode="&#x42f;" horiz-adv-x="642" 
d="M645 650l-135 -650h-94l49 237h-132q-130 -116 -235 -237h-123q117 133 249 252q-55 13 -90.5 56.5t-35.5 110.5q0 100 74.5 165.5t201.5 65.5h271zM533 564h-166q-77 0 -123 -37.5t-46 -96.5q0 -107 131 -107h154z" />
    <glyph glyph-name="acy" unicode="&#x430;" horiz-adv-x="633" 
d="M511 0h-61l-7 40q-68 -52 -168 -52q-94 0 -160.5 53t-66.5 159q0 77 29 140.5t75 102.5t101 60t110 21q52 0 97 -14.5t68 -32.5l27 36h62zM139 200q0 -68 42 -101.5t105 -33.5q95 0 161 58l57 277q-18 16 -55.5 28.5t-84.5 12.5q-91 0 -158 -64t-67 -177z" />
    <glyph glyph-name="becy" unicode="&#x431;" horiz-adv-x="620" 
d="M414 484q89 0 140.5 -50t51.5 -134q0 -40 -11 -82t-36 -83.5t-60 -74t-88 -52.5t-115 -20q-105 0 -164.5 53t-59.5 159q0 45 12 105q22 108 51 176t80 113t120 66t177 31q55 5 80 11t46 23l5 -87q-33 -32 -158 -36q-70 -3 -121 -18t-83 -43.5t-50.5 -62t-31.5 -81.5
q93 87 215 87zM309 72q51 0 91.5 21.5t63 55t34 70.5t11.5 73q0 108 -121 108q-130 0 -215 -116q-10 -46 -10 -77q0 -135 146 -135z" />
    <glyph glyph-name="vecy" unicode="&#x432;" horiz-adv-x="574" 
d="M280 -12q-102 0 -167 51.5t-65 157.5q0 19 3 41q17 145 97.5 215.5t206.5 70.5q89 0 139 -35t50 -89q0 -45 -27.5 -81t-80.5 -47l-1 -2q91 -29 91 -104q0 -76 -65 -127t-181 -51zM344 445q-74 0 -127 -35t-66 -111h177q124 0 124 84q0 27 -27 44.5t-81 17.5zM289 69
q75 0 111 27t36 68q0 67 -118 67h-179q-3 -19 -3 -36q0 -126 153 -126z" />
    <glyph glyph-name="gecy" unicode="&#x433;" horiz-adv-x="506" 
d="M307 524q34 0 64 -5.5t58 -18.5t44.5 -38t16.5 -60q0 -124 -150 -161l-140 -34q-48 -12 -66.5 -30.5t-18.5 -46.5q0 -58 123 -58q94 0 193 38l-19 -87q-95 -35 -191 -35q-91 0 -145.5 33t-54.5 99q0 67 36.5 106t115.5 59l139 35q46 12 65.5 28.5t19.5 43.5q0 49 -110 49
q-86 0 -189 -32l18 87q102 28 191 28z" />
    <glyph glyph-name="decy" unicode="&#x434;" horiz-adv-x="638" 
d="M248 641l37 78q171 -48 243.5 -123.5t72.5 -190.5q0 -59 -15 -128q-30 -139 -109.5 -214t-203.5 -75q-106 0 -165 57t-59 152q0 49 16.5 98t48 92t86 70t122.5 27q60 0 112 -27t80 -70q1 9 1 26q0 81 -61 138.5t-206 89.5zM283 72q82 0 138 53.5t75 157.5
q-20 54 -68.5 85.5t-103.5 31.5q-62 0 -104.5 -34t-58.5 -77.5t-16 -90.5q0 -59 36 -92.5t102 -33.5z" />
    <glyph glyph-name="iecy" unicode="&#x435;" horiz-adv-x="584" 
d="M139 224l-2 -28q0 -38 17 -64.5t46 -38.5t54 -16.5t53 -4.5q103 0 200 38l-19 -87q-82 -35 -203 -35q-101 0 -169 52.5t-68 154.5q0 84 28.5 149t75.5 103t101.5 57.5t113.5 19.5q94 0 143 -46.5t49 -132.5q0 -33 -17 -121h-403zM157 302h308q3 21 3 32q0 108 -111 108
q-67 0 -123 -35t-77 -105z" />
    <glyph glyph-name="zhecy" unicode="&#x436;" horiz-adv-x="787" 
d="M713 513h114q-146 -131 -243 -247q82 -133 146 -266h-99q-49 112 -119 222h-67l-46 -222h-86l46 222h-67q-66 -65 -201 -222h-111q36 48 111.5 131t139.5 143q-46 102 -136 239h102q59 -102 114 -214h64l44 214h86l-44 -214h48q88 103 204 214z" />
    <glyph glyph-name="zecy" unicode="&#x437;" horiz-adv-x="519" 
d="M334 524q87 0 130.5 -33t43.5 -86q0 -43 -29 -82t-83 -57l-1 -1q80 -28 80 -100q0 -74 -59 -125.5t-188 -51.5q-103 0 -199 36l18 82q101 -37 186 -37q79 0 114.5 27.5t35.5 66.5q0 66 -107 66h-150l15 70h143q69 0 100.5 26.5t31.5 62.5q0 26 -27.5 41.5t-75.5 15.5
q-73 0 -195 -34l17 82q105 31 199 31z" />
    <glyph glyph-name="iicy" unicode="&#x438;" horiz-adv-x="621" 
d="M220 513l-65 -316q-7 -30 -7 -49q0 -79 106 -79q53 0 103.5 20t79.5 45l78 379h90l-107 -513h-59l-9 51q-28 -24 -81.5 -43.5t-114.5 -19.5q-79 0 -127.5 36t-48.5 105q0 27 6 58l66 326h90z" />
    <glyph glyph-name="iishortcy" unicode="&#x439;" horiz-adv-x="621" 
d="M542 713h-67q-30 -55 -93 -55q-51 0 -48 55h-76q-16 -120 111 -120q124 0 173 120zM220 513l-65 -316q-7 -30 -7 -49q0 -79 106 -79q53 0 103.5 20t79.5 45l78 379h90l-107 -513h-59l-9 51q-28 -24 -81.5 -43.5t-114.5 -19.5q-79 0 -127.5 36t-48.5 105q0 27 6 58l66 326
h90z" />
    <glyph glyph-name="kacy" unicode="&#x43a;" horiz-adv-x="536" 
d="M457 513h128q-138 -105 -281 -241q90 -105 200 -272h-112q-71 118 -157 222h-66l-46 -222h-90l106 513h90l-44 -214h38q161 161 234 214z" />
    <glyph glyph-name="elcy" unicode="&#x43b;" horiz-adv-x="547" 
d="M551 513h-344q-73 -258 -115 -353t-89 -95q-8 0 -18 2l-15 -76q21 -3 34 -3q60 0 102 39t80.5 133t88.5 276h170l-91 -436h90z" />
    <glyph glyph-name="emcy" unicode="&#x43c;" horiz-adv-x="670" 
d="M540 513h93q0 -191 -20 -513h-89q21 247 25 393q-56 -85 -206 -348h-70q-43 227 -69 334q-71 -189 -123 -379h-96q109 340 184 513h90q43 -189 71 -343q91 163 210 343z" />
    <glyph glyph-name="ency" unicode="&#x43d;" horiz-adv-x="597" 
d="M385 0l46 222h-262l-46 -222h-90l106 513h90l-44 -214h262l44 214h90l-106 -513h-90z" />
    <glyph glyph-name="ocy" unicode="&#x43e;" horiz-adv-x="633" 
d="M380 524h1q97 0 159.5 -57t62.5 -155q0 -100 -47.5 -174.5t-122 -110.5t-163.5 -39q-97 0 -159.5 57t-62.5 155q0 151 97 237.5t235 86.5zM289 71q91 0 157 64t66 168q0 59 -38 98.5t-113 39.5q-91 0 -156.5 -64t-65.5 -168q0 -59 38 -98.5t112 -39.5z" />
    <glyph glyph-name="pecy" unicode="&#x43f;" horiz-adv-x="612" 
d="M410 524q167 0 167 -133q0 -23 -8 -65l-67 -326h-90l65 315q8 34 8 53q0 75 -97 75q-53 0 -106 -20t-86 -45l-79 -378h-90l106 513h61l10 -51q35 24 92.5 43t113.5 19z" />
    <glyph glyph-name="ercy" unicode="&#x440;" horiz-adv-x="630" 
d="M385 524q96 0 157.5 -58t61.5 -165q0 -99 -47 -172t-118.5 -107t-154.5 -34q-43 0 -86 14t-69 31l-48 -233h-90l150 713h60l7 -42q27 20 75.5 36.5t101.5 16.5zM292 71q93 0 155.5 66t62.5 162q0 66 -40 104t-103 38q-48 0 -94 -18t-72 -40l-54 -261q16 -20 54.5 -35.5
t90.5 -15.5z" />
    <glyph glyph-name="escy" unicode="&#x441;" horiz-adv-x="540" 
d="M386 524q105 0 175 -34l-17 -81q-77 34 -166 34q-101 0 -169.5 -63t-68.5 -166q0 -68 44.5 -105t120.5 -37q101 0 190 40l-18 -88q-82 -36 -185 -36q-106 0 -175 59t-69 164q0 99 49.5 172t125 107t163.5 34z" />
    <glyph glyph-name="tecy" unicode="&#x442;" horiz-adv-x="989" 
d="M409 0l65 315q7 35 7 53q0 75 -95 75q-53 0 -104 -20t-81 -45l-78 -378h-90l107 513h60l10 -51q33 24 88.5 43t114.5 19q113 0 148 -66q36 25 96.5 45.5t123.5 20.5q78 0 119.5 -30.5t41.5 -102.5q0 -23 -8 -65l-67 -326h-90l65 315q8 34 8 53q0 75 -97 75
q-52 0 -101.5 -19t-77.5 -43q-2 -27 -8 -54l-67 -327h-90z" />
    <glyph glyph-name="ucy" unicode="&#x443;" horiz-adv-x="532" 
d="M486 513h99q-148 -276 -311 -513q-75 -109 -142 -160.5t-143 -51.5q-44 0 -73 9l21 88q30 -10 60 -10q53 0 94.5 35.5t86.5 104.5q-43 126 -74.5 265t-43.5 233h90q37 -253 91 -413q124 182 245 413z" />
    <glyph glyph-name="efcy" unicode="&#x444;" horiz-adv-x="786" 
d="M557 523q87 0 143 -56.5t56 -152.5q0 -58 -20.5 -115t-58.5 -104.5t-100 -77t-139 -29.5q-18 0 -46 4l-40 -192h-90l40 191q-24 -3 -48 -3q-87 0 -146.5 56.5t-59.5 156.5q0 79 33.5 151t106.5 121.5t172 49.5q31 0 51 -4l36 172h90l-38 -173q28 5 58 5zM142 207
q0 -65 35.5 -101.5t93.5 -36.5q26 0 50 3l75 366q-19 3 -44 3q-54 0 -96.5 -24t-66 -60.5t-35.5 -75t-12 -74.5zM455 69q95 0 150 75t55 162q0 62 -34 98.5t-98 36.5q-26 0 -47 -3l-76 -366q22 -3 50 -3z" />
    <glyph glyph-name="hacy" unicode="&#x445;" horiz-adv-x="520" 
d="M489 0h-111l-113 187l-185 -187h-121l258 253l-156 260h108l116 -197l194 197h117l-265 -260z" />
    <glyph glyph-name="tsecy" unicode="&#x446;" horiz-adv-x="628" 
d="M604 68l-42 -205h-83l26 134h-5q-25 0 -43.5 16.5t-19.5 45.5q-25 -29 -82 -50t-121 -21q-79 0 -127.5 36t-48.5 105q0 27 6 58l66 326h90l-65 -316q-7 -30 -7 -49q0 -79 106 -79q53 0 103.5 20t79.5 45l78 379h90l-78 -376q-9 -42 1.5 -55.5t49.5 -13.5h26z" />
    <glyph glyph-name="checy" unicode="&#x447;" horiz-adv-x="580" 
d="M564 513l-106 -513h-90l40 192q-103 -64 -179 -64q-78 0 -116 30t-38 99q0 33 9 76l37 180h90l-38 -185q-6 -31 -6 -52q0 -35 18.5 -49.5t60.5 -14.5q82 0 179 66l49 235h90z" />
    <glyph glyph-name="shacy" unicode="&#x448;" horiz-adv-x="983" 
d="M591 513l-65 -315q-7 -35 -7 -53q0 -75 95 -75q53 0 104 20t81 45l78 378h90l-107 -513h-60l-10 51q-33 -24 -88.5 -43t-114.5 -19q-113 0 -148 66q-36 -25 -96.5 -45.5t-123.5 -20.5q-78 0 -119.5 30.5t-41.5 102.5q0 23 8 65l67 326h90l-65 -315q-8 -34 -8 -53
q0 -75 97 -75q52 0 101.5 19t77.5 43q2 27 8 54l67 327h90z" />
    <glyph glyph-name="shchacy" unicode="&#x449;" horiz-adv-x="990" 
d="M796 55q-32 -25 -90.5 -45.5t-118.5 -20.5q-113 0 -148 66q-36 -25 -96.5 -45.5t-123.5 -20.5q-78 0 -119.5 30.5t-41.5 102.5q0 23 8 65l67 326h90l-65 -315q-8 -34 -8 -53q0 -75 97 -75q52 0 101.5 19t77.5 43q2 27 8 54l67 327h90l-65 -315q-7 -35 -7 -53
q0 -75 95 -75q53 0 104 20t81 45l78 378h90l-81 -387q-9 -42 1.5 -55.5t49.5 -13.5h26l-42 -205h-83l26 134h-5q-25 0 -44 18t-19 51z" />
    <glyph glyph-name="hardsigncy" unicode="&#x44a;" horiz-adv-x="660" 
d="M456 353q81 0 126.5 -38t45.5 -107q0 -41 -12 -76.5t-40 -69.5t-84 -54t-134 -20q-86 0 -217 23l88 425h-174l16 77h264l-42 -200q85 40 163 40zM369 69q88 0 127 37.5t39 89.5q0 74 -106 74q-68 0 -153 -40l-31 -148q66 -13 124 -13z" />
    <glyph glyph-name="yerucy" unicode="&#x44b;" horiz-adv-x="792" 
d="M350 353q81 0 126.5 -38t45.5 -107q0 -41 -12 -76.5t-40 -69.5t-84 -54t-134 -20q-86 0 -217 23l104 502h90l-42 -200q85 40 163 40zM669 0h-90l107 513h90zM263 69q88 0 127 37.5t39 89.5q0 74 -106 74q-68 0 -153 -40l-31 -148q66 -13 124 -13z" />
    <glyph glyph-name="softsigncy" unicode="&#x44c;" horiz-adv-x="552" 
d="M350 353q81 0 126.5 -38t45.5 -107q0 -41 -12 -76.5t-40 -69.5t-84 -54t-134 -20q-86 0 -217 23l104 502h90l-42 -200q85 40 163 40zM263 69q88 0 127 37.5t39 89.5q0 74 -106 74q-68 0 -153 -40l-31 -148q66 -13 124 -13z" />
    <glyph glyph-name="ereversedcy" unicode="&#x44d;" horiz-adv-x="544" 
d="M302 523q102 0 157 -57.5t55 -165.5q0 -148 -91 -230.5t-225 -82.5q-105 0 -175 34l17 81q77 -34 166 -34q78 0 132.5 41t74.5 113h-268l16 77h261q0 71 -31 105.5t-102 34.5q-95 0 -186 -35l18 88q79 31 181 31z" />
    <glyph glyph-name="iucy" unicode="&#x44e;" horiz-adv-x="823" 
d="M575 524q96 0 157 -55.5t61 -154.5q0 -148 -91 -237t-225 -89q-97 0 -158 58t-61 157v19h-95l-46 -222h-90l107 513h90l-45 -214h91q29 105 114 165t191 60zM491 71q89 0 150 64.5t61 169.5q0 61 -35.5 98.5t-109.5 37.5q-68 0 -123 -43.5t-76 -116.5l-6 -30
q-3 -21 -3 -42q0 -60 34.5 -99t107.5 -39z" />
    <glyph glyph-name="iacy" unicode="&#x44f;" horiz-adv-x="587" 
d="M571 513l-106 -513h-90l36 176q-61 -10 -114 -14q-99 -73 -191 -161l-126 -1q1 1 23.5 21l46 40.5l61 51.5l71.5 58q-49 15 -76.5 50.5t-27.5 84.5q0 40 13 74t42.5 65.5t86 49.5t135.5 18h216zM464 435l-125 1q-90 1 -129.5 -33t-39.5 -85q0 -76 110 -76q77 0 146 10z
" />
    <glyph glyph-name="iegravecy" unicode="&#x450;" horiz-adv-x="584" 
d="M185 736h110l104 -145h-83zM139 224l-2 -28q0 -38 17 -64.5t46 -38.5t54 -16.5t53 -4.5q103 0 200 38l-19 -87q-82 -35 -203 -35q-101 0 -169 52.5t-68 154.5q0 84 28.5 149t75.5 103t101.5 57.5t113.5 19.5q94 0 143 -46.5t49 -132.5q0 -33 -17 -121h-403zM157 302h308
q3 21 3 32q0 108 -111 108q-67 0 -123 -35t-77 -105z" />
    <glyph glyph-name="iocy" unicode="&#x451;" horiz-adv-x="584" 
d="M330 684l-20 -96h-98l20 96h98zM528 684l-20 -96h-98l20 96h98zM139 224l-2 -28q0 -38 17 -64.5t46 -38.5t54 -16.5t53 -4.5q103 0 200 38l-19 -87q-82 -35 -203 -35q-101 0 -169 52.5t-68 154.5q0 84 28.5 149t75.5 103t101.5 57.5t113.5 19.5q94 0 143 -46.5t49 -132.5
q0 -33 -17 -121h-403zM157 302h308q3 21 3 32q0 108 -111 108q-67 0 -123 -35t-77 -105z" />
    <glyph glyph-name="djecy" unicode="&#x452;" horiz-adv-x="618" 
d="M416 524q167 0 167 -133q0 -23 -8 -65l-67 -326l-5 -24q-21 -101 -62.5 -144.5t-133.5 -43.5q-29 0 -57.5 5t-42.5 10l-14 5l20 79q43 -16 100 -16q34 0 56.5 19t30 38t13.5 47l5 25l65 315q8 34 8 53q0 75 -97 75q-52 0 -105.5 -20t-87.5 -45l-78 -378h-90l117 565h-110
l16 77h110l10 49h90l-10 -49h142l-16 -77h-142l-20 -97q35 21 89 38.5t107 17.5z" />
    <glyph glyph-name="gjecy" unicode="&#x453;" horiz-adv-x="506" 
d="M345 591h-83l104 145h110zM307 524q34 0 64 -5.5t58 -18.5t44.5 -38t16.5 -60q0 -124 -150 -161l-140 -34q-48 -12 -66.5 -30.5t-18.5 -46.5q0 -58 123 -58q94 0 193 38l-19 -87q-95 -35 -191 -35q-91 0 -145.5 33t-54.5 99q0 67 36.5 106t115.5 59l139 35
q46 12 65.5 28.5t19.5 43.5q0 49 -110 49q-86 0 -189 -32l18 87q102 28 191 28z" />
    <glyph glyph-name="ecy" unicode="&#x454;" horiz-adv-x="521" 
d="M356 443q-75 0 -128.5 -38t-75.5 -106h266l-16 -77h-262v-8q0 -142 143 -142q101 0 190 40l-18 -88q-82 -36 -185 -36t-162.5 58t-59.5 165q0 148 91 230.5t225 82.5q105 0 175 -34l-17 -81q-77 34 -166 34z" />
    <glyph glyph-name="dzecy" unicode="&#x455;" horiz-adv-x="522" 
d="M506 499l-16 -79q-73 25 -168 25q-34 0 -64.5 -5.5t-56 -21.5t-25.5 -42q0 -29 31 -44.5t75 -23.5t87.5 -19.5t74.5 -43t31 -83.5q0 -86 -73 -130t-187 -44q-111 0 -205 40l17 80q99 -39 193 -39q62 0 112 20t50 63q0 32 -31 49t-75.5 25t-88.5 19t-75 41t-31 81
q0 45 23 77.5t62 49t79.5 23.5t85.5 7q107 0 175 -25z" />
    <glyph glyph-name="icy" unicode="&#x456;" horiz-adv-x="245" 
d="M154 601l19 90h98l-19 -90h-98zM33 0l107 513h89l-106 -513h-90z" />
    <glyph glyph-name="yicy" unicode="&#x457;" horiz-adv-x="245" 
d="M150 588h-98l20 96h98zM348 588h-98l20 96h98zM123 0h-90l106 513h90z" />
    <glyph glyph-name="jecy" unicode="&#x458;" horiz-adv-x="245" 
d="M154 598l19 90h98l-19 -90h-98zM230 513l-111 -537q-21 -100 -63.5 -144t-134.5 -44q-67 0 -114 20l20 79q41 -16 100 -16q27 0 46 9.5t29.5 27.5t16 32.5t9.5 34.5l113 538h89z" />
    <glyph glyph-name="ljecy" unicode="&#x459;" horiz-adv-x="874" 
d="M672 353q81 0 126.5 -38t45.5 -107q0 -41 -12 -76.5t-40 -69.5t-84 -54t-134 -20q-88 0 -217 24l88 424h-170q-50 -182 -88.5 -276t-80.5 -133t-102 -39q-13 0 -34 3l15 76q11 -2 18 -2q47 0 89 95t115 353h344l-42 -200q85 40 163 40zM585 69q88 0 127 37.5t39 89.5
q0 74 -106 74q-68 0 -153 -40l-7 -31l-24 -117q66 -13 124 -13z" />
    <glyph glyph-name="njecy" unicode="&#x45a;" horiz-adv-x="898" 
d="M696 353q81 0 126.5 -38t45.5 -107q0 -41 -12 -76.5t-40 -69.5t-84 -54t-134 -20q-88 0 -217 24l18 88l26 122h-262l-46 -222h-90l106 513h90l-44 -214h262l44 214h90l-41 -200q85 40 162 40zM609 69q88 0 127 37.5t39 89.5q0 74 -106 74q-67 0 -152 -40l-31 -148
q65 -13 123 -13z" />
    <glyph glyph-name="tshecy" unicode="&#x45b;" horiz-adv-x="645" 
d="M416 524q167 0 167 -133q0 -23 -8 -65l-67 -326h-90l65 315q8 34 8 53q0 75 -97 75q-52 0 -105.5 -20t-87.5 -45l-78 -378h-90l117 565h-110l16 77h110l10 49h90l-10 -49h142l-16 -77h-142l-20 -97q35 21 89 38.5t107 17.5z" />
    <glyph glyph-name="kjecy" unicode="&#x45c;" horiz-adv-x="536" 
d="M371 591h-83l104 145h110zM457 513h128q-138 -105 -281 -241q90 -105 200 -272h-112q-71 118 -157 222h-66l-46 -222h-90l106 513h90l-44 -214h38q161 161 234 214z" />
    <glyph glyph-name="iigravecy" unicode="&#x45d;" horiz-adv-x="621" 
d="M202 736h110l104 -145h-83zM220 513l-65 -316q-7 -30 -7 -49q0 -79 106 -79q53 0 103.5 20t79.5 45l78 379h90l-107 -513h-59l-9 51q-28 -24 -81.5 -43.5t-114.5 -19.5q-79 0 -127.5 36t-48.5 105q0 27 6 58l66 326h90z" />
    <glyph glyph-name="ushortcy" unicode="&#x45e;" horiz-adv-x="532" 
d="M424 712h77q-37 -119 -159 -119q-66 0 -98 31.5t-27 87.5h77q-2 -25 11 -39t43 -14q57 0 76 53zM486 513h99q-148 -276 -311 -513q-75 -109 -142 -160.5t-143 -51.5q-44 0 -73 9l21 88q30 -10 60 -10q53 0 94.5 35.5t86.5 104.5q-43 126 -74.5 265t-43.5 233h90
q37 -253 91 -413q124 182 245 413z" />
    <glyph glyph-name="dzhecy" unicode="&#x45f;" horiz-adv-x="618" 
d="M495 0h-189l-28 -137h-84l28 137h-189l107 513h90l-91 -436h282l91 436h90z" />
    <glyph glyph-name="Gheupturncy" unicode="&#x490;" horiz-adv-x="506" 
d="M573 787l-46 -223h-313l-117 -564h-94l135 650h317l28 137h90z" />
    <glyph glyph-name="gheupturncy" unicode="&#x491;" horiz-adv-x="426" 
d="M310 241l-140 -34q-48 -12 -66.5 -30.5t-18.5 -46.5q0 -58 123 -58q94 0 193 38l-19 -87q-95 -35 -191 -35q-91 0 -145.5 33t-54.5 99q0 67 36.5 106t115.5 59l139 35q46 12 65.5 28.5t19.5 43.5q0 49 -110 49q-86 0 -189 -32l18 87l44 154h78l-43 -136q58 10 112 10
q34 0 64 -5.5t58 -18.5t44.5 -38t16.5 -60q0 -124 -150 -161z" />
    <glyph glyph-name="Ghestrokecy" unicode="&#x492;" horiz-adv-x="506" 
d="M244 564l-38 -185h175l-17 -86h-176l-61 -293h-94l61 293h-80l17 86h81l56 271h406l-18 -86h-312z" />
    <glyph glyph-name="ghestrokecy" unicode="&#x493;" horiz-adv-x="440" 
d="M490 402q0 -111 -117 -151l71 -26l-26 -54l-147 53l-71 -17q-48 -12 -66.5 -30.5t-18.5 -46.5q0 -58 123 -58q94 0 193 38l-19 -87q-95 -35 -191 -35q-91 0 -145.5 33t-54.5 99q0 59 27.5 96t86.5 58l-80 29l26 54l155 -56l76 19q46 12 65.5 28.5t19.5 43.5q0 49 -110 49
q-86 0 -189 -32l18 87q102 28 191 28q34 0 64 -5.5t58 -18.5t44.5 -38t16.5 -60z" />
    <glyph glyph-name="Zhedescendercy" unicode="&#x496;" horiz-adv-x="904" 
d="M665 319q69 -112 135 -233h95l-46 -223h-90l28 137h-52q-74 155 -146 274h-85l-57 -274h-90l57 274h-81q-124 -130 -243 -274h-122q131 155 301 330q-46 100 -169 320h107q69 -128 143 -290h82l60 290h90l-60 -290h74q116 142 259 290h123q-176 -167 -313 -331z" />
    <glyph glyph-name="zhedescendercy" unicode="&#x497;" horiz-adv-x="802" 
d="M584 266q60 -100 107 -189h97l-44 -214h-84l28 137h-57q-49 112 -119 222h-67l-46 -222h-86l46 222h-67q-66 -65 -201 -222h-111q36 48 111.5 131t139.5 143q-46 102 -136 239h102q59 -102 114 -214h64l44 214h86l-44 -214h48q88 103 204 214h114q-146 -131 -243 -247z
" />
    <glyph glyph-name="Kadescendercy" unicode="&#x49a;" horiz-adv-x="619" 
d="M329 315q91 -107 179 -229h102l-46 -223h-90l28 137h-50q-92 139 -201 274h-67l-57 -274h-94l135 650h94l-60 -290h57q147 154 307 290h137q-197 -155 -374 -335z" />
    <glyph glyph-name="kadescendercy" unicode="&#x49b;" horiz-adv-x="540" 
d="M298 272q70 -82 147 -195h79l-44 -214h-84l28 137h-38q-71 118 -157 222h-66l-46 -222h-90l106 513h90l-44 -214h38q161 161 234 214h128q-138 -105 -281 -241z" />
    <glyph glyph-name="Kaverticalstrokecy" unicode="&#x49c;" horiz-adv-x="633" 
d="M593 650h124q-177 -170 -311 -335l46 -77.5l48 -81l41.5 -73.5l44.5 -83h-107q-42 83 -149 274h-25l-40 -194h-78l40 194h-43l-57 -274h-94l135 650h94l-60 -290h43l31 153h78l-31 -153h15q111 140 255 290z" />
    <glyph glyph-name="kaverticalstrokecy" unicode="&#x49d;" horiz-adv-x="563" 
d="M489 513h114q-146 -131 -243 -247q82 -133 146 -266h-99q-49 112 -119 222h-32l-36 -172h-56l36 172h-37l-46 -222h-90l106 513h90l-44 -214h37l26 124h56l-26 -124h13q88 103 204 214z" />
    <glyph glyph-name="Endescendercy" unicode="&#x4a2;" horiz-adv-x="727" 
d="M722 650l-117 -564h80l-46 -223h-90l28 137h-84l60 290h-366l-60 -290h-94l135 650h94l-56 -271h366l56 271h94z" />
    <glyph glyph-name="endescendercy" unicode="&#x4a3;" horiz-adv-x="598" 
d="M485 77h81l-44 -214h-84l28 137h-87l46 222h-262l-46 -222h-90l106 513h90l-44 -214h262l44 214h90z" />
    <glyph glyph-name="Ustraitcy" unicode="&#x4ae;" horiz-adv-x="541" 
d="M523 650h113q-187 -276 -320 -439l-41 -211h-95l45 221q-85 191 -167 429h99q60 -189 129 -347q122 162 237 347z" />
    <glyph glyph-name="ustraitcy" unicode="&#x4af;" horiz-adv-x="526" 
d="M470 513h99q-137 -259 -309 -511l-42 -202h-90l42 201q-46 131 -78.5 274t-42.5 238h88q35 -260 90 -418q125 183 243 418z" />
    <glyph glyph-name="Hadescendercy" unicode="&#x4b2;" horiz-adv-x="670" 
d="M415 317l138 -231h98l-46 -223h-90l28 137h-56l-146 258l-241 -258h-123l308 330l-186 320h115l148 -265l240 265h121z" />
    <glyph glyph-name="hadescendercy" unicode="&#x4b3;" horiz-adv-x="520" 
d="M331 253l110 -176h82l-44 -214h-84l28 137h-45l-113 187l-185 -187h-121l258 253l-156 260h108l116 -197l194 197h117z" />
    <glyph glyph-name="Cheverticalstrokecy" unicode="&#x4b8;" horiz-adv-x="641" 
d="M629 650l-134 -649h-94l51 245q-56 -32 -107 -47l-25 -119h-88l22 105h-2q-82 0 -122 32t-40 107q0 36 11 91l48 235h94l-49 -239q-8 -42 -8 -65q0 -42 20.5 -58.5t65.5 -16.5l50 242h88l-48 -229q52 14 108 52l65 314h94z" />
    <glyph glyph-name="cheverticalstrokecy" unicode="&#x4b9;" horiz-adv-x="585" 
d="M564 513l-106 -513h-90l40 192q-53 -32 -95 -47l-20 -95h-82l16 78q-77 0 -114.5 30.5t-37.5 98.5q0 33 9 76l37 180h90l-38 -185q-6 -31 -6 -52q0 -35 18.5 -49.5t59.5 -14.5l44 211h82l-41 -195q43 15 95 50l49 235h90z" />
    <glyph glyph-name="Shhacy" unicode="&#x4ba;" horiz-adv-x="640" 
d="M428 450q84 0 128 -30.5t44 -102.5q0 -23 -8 -65l-53 -252h-94l50 237q8 34 8 53q0 75 -98 75q-57 0 -111.5 -20.5t-88.5 -46.5l-61 -297h-94l134 649h94l-53 -257q94 57 203 57z" />
    <glyph glyph-name="shhacy" unicode="&#x4bb;" horiz-adv-x="645" 
d="M426 513q167 0 167 -133q0 -23 -8 -65l-65 -315h-90l63 304q8 34 8 53q0 75 -97 75q-53 0 -106.5 -20.5t-86.5 -45.5l-76 -366h-90l143 691h90l-48 -234q36 22 89.5 39t106.5 17z" />
    <glyph glyph-name="Palochkacy" unicode="&#x4c0;" horiz-adv-x="259" 
d="M33 0l135 650h94l-135 -650h-94z" />
    <glyph glyph-name="palochkacy" unicode="&#x4cf;" horiz-adv-x="244" 
d="M33 0l143 691h90l-143 -691h-90z" />
    <glyph glyph-name="Schwacy" unicode="&#x4d8;" horiz-adv-x="777" 
d="M460 662q136 0 213 -71t77 -191q0 -75 -22.5 -145.5t-68 -131.5t-124 -98t-179.5 -37q-135 0 -214.5 68t-79.5 177q0 38 10 102l7 41h573q1 8 1 23q0 79 -55.5 126.5t-153.5 47.5q-106 0 -249 -44l19 97q138 36 246 36zM360 78q108 0 180 54.5t97 157.5h-476
q-3 -21 -3 -41q0 -83 54 -127t148 -44z" />
    <glyph glyph-name="schwacy" unicode="&#x4d9;" horiz-adv-x="580" 
d="M356 523q102 0 158 -47.5t56 -139.5q0 -38 -8 -74q-29 -140 -114 -207t-200 -67q-92 0 -142 46.5t-50 131.5q0 29 8 69l11 52h398l1 6q3 18 3 34q0 55 -38 83.5t-106 28.5q-91 0 -232 -44l19 90q121 38 236 38zM264 72q66 0 112 30.5t78 107.5h-304q0 -3 -0.5 -9t-0.5 -9
q0 -120 115 -120z" />
    <glyph glyph-name="Obarredcy" unicode="&#x4e8;" horiz-adv-x="790" 
d="M464 662q143 0 221 -77t78 -208q0 -174 -111 -281.5t-282 -107.5q-144 0 -226 78.5t-82 210.5q0 172 111 278.5t291 106.5zM451 574q-101 0 -176.5 -51.5t-102.5 -143.5h495q-2 96 -60 145.5t-156 49.5zM382 78q101 0 177 58t99 157h-500v-14q0 -97 60.5 -149t163.5 -52z
" />
    <glyph glyph-name="obarredcy" unicode="&#x4e9;" horiz-adv-x="640" 
d="M350 524h1q97 0 159.5 -57t62.5 -155q0 -100 -47.5 -174.5t-122 -110.5t-163.5 -39q-97 0 -159.5 57t-62.5 155q0 151 97 237.5t235 86.5zM331 441q-69 0 -125.5 -38t-80.5 -104h357v4q0 59 -38 98.5t-113 39.5zM259 71q71 0 129 40.5t81 110.5h-360v-13q0 -59 38 -98.5
t112 -39.5z" />
    <glyph glyph-name="Wgrave" unicode="&#x1e80;" horiz-adv-x="861" 
d="M331 855h112l104 -145h-85zM831 650h97q-143 -352 -306 -650h-99q-38 171 -69 377q-24 -51 -94 -170.5l-125 -206.5h-92q-35 279 -42 650h92q5 -262 24 -523q100 159 231 415h77q21 -212 63 -423q136 267 243 531z" />
    <glyph glyph-name="wgrave" unicode="&#x1e81;" horiz-adv-x="851" 
d="M309 736h110l104 -145h-83zM792 513h89q-42 -103 -117 -247t-160 -266h-95q-47 207 -65 367q-117 -227 -209 -367h-86q-66 257 -78 513h84q16 -220 54 -401q46 69 101 168.5t85 159.5t35 73h84q0 -9 7 -76.5t21.5 -169t28.5 -169.5q120 190 221 415z" />
    <glyph glyph-name="Wacute" unicode="&#x1e82;" horiz-adv-x="861" 
d="M684 855l-131 -145h-85l104 145h112zM831 650h97q-143 -352 -306 -650h-99q-38 171 -69 377q-24 -51 -94 -170.5l-125 -206.5h-92q-35 279 -42 650h92q5 -262 24 -523q100 159 231 415h77q21 -212 63 -423q136 267 243 531z" />
    <glyph glyph-name="wacute" unicode="&#x1e83;" horiz-adv-x="851" 
d="M656 736l-131 -145h-83l104 145h110zM792 513h89q-42 -103 -117 -247t-160 -266h-95q-47 207 -65 367q-117 -227 -209 -367h-86q-66 257 -78 513h84q16 -220 54 -401q46 69 101 168.5t85 159.5t35 73h84q0 -9 7 -76.5t21.5 -169t28.5 -169.5q120 190 221 415z" />
    <glyph glyph-name="Wdieresis" unicode="&#x1e84;" horiz-adv-x="861" 
d="M485 805l-20 -98h-100l20 98h100zM683 805l-20 -98h-100l20 98h100zM831 650h97q-143 -352 -306 -650h-99q-38 171 -69 377q-24 -51 -94 -170.5l-125 -206.5h-92q-35 279 -42 650h92q5 -262 24 -523q100 159 231 415h77q21 -212 63 -423q136 267 243 531z" />
    <glyph glyph-name="wdieresis" unicode="&#x1e85;" horiz-adv-x="851" 
d="M454 684l-20 -96h-98l20 96h98zM652 684l-20 -96h-98l20 96h98zM792 513h89q-42 -103 -117 -247t-160 -266h-95q-47 207 -65 367q-117 -227 -209 -367h-86q-66 257 -78 513h84q16 -220 54 -401q46 69 101 168.5t85 159.5t35 73h84q0 -9 7 -76.5t21.5 -169t28.5 -169.5
q120 190 221 415z" />
    <glyph glyph-name="Germandbls" unicode="&#x1e9e;" horiz-adv-x="732" 
d="M692 529l-166 -141q84 -20 128 -65t44 -107q0 -43 -15.5 -82t-47.5 -72.5t-88 -53.5t-129 -20q-109 0 -218 43l18 87q113 -44 210 -44q91 0 130.5 41t39.5 93q0 100 -188 114l14 69l150 135q-57 51 -151 51q-88 0 -142.5 -50t-79.5 -171l-74 -356h-94l75 363
q33 161 110.5 230t213.5 69q84 0 154.5 -36.5t105.5 -96.5z" />
    <glyph glyph-name="Ygrave" unicode="&#x1ef2;" horiz-adv-x="541" 
d="M169 855h112l104 -145h-85zM523 650h113q-187 -276 -320 -439l-41 -211h-95l45 221q-85 191 -167 429h99q60 -189 129 -347q122 162 237 347z" />
    <glyph glyph-name="ygrave" unicode="&#x1ef3;" horiz-adv-x="532" 
d="M156 736h110l104 -145h-83zM486 513h99q-148 -276 -311 -513q-75 -109 -142 -160.5t-143 -51.5q-44 0 -73 9l21 88q30 -10 60 -10q53 0 94.5 35.5t86.5 104.5q-43 126 -74.5 265t-43.5 233h90q37 -253 91 -413q124 182 245 413z" />
    <glyph glyph-name="hyphentwo" unicode="&#x2010;" horiz-adv-x="441" 
d="M392 262h-330l18 85h330z" />
    <glyph glyph-name="endash" unicode="&#x2013;" horiz-adv-x="541" 
d="M510 348l-18 -85h-430l18 85h430z" />
    <glyph glyph-name="emdash" unicode="&#x2014;" horiz-adv-x="841" 
d="M792 263h-730l18 85h730z" />
    <glyph glyph-name="horizontalbar" unicode="&#x2015;" horiz-adv-x="841" 
d="M792 263h-730l18 85h730z" />
    <glyph glyph-name="underscoredbl" unicode="&#x2017;" horiz-adv-x="498" 
d="M437 -190h-500l17 85h500zM414 -300h-500l18 85h500z" />
    <glyph glyph-name="quoteleft" unicode="&#x2018;" horiz-adv-x="152" 
d="M159 662h71l-90 -187h-88z" />
    <glyph glyph-name="quoteright" unicode="&#x2019;" horiz-adv-x="152" 
d="M110 475h-71l90 187h88z" />
    <glyph glyph-name="quotesinglbase" unicode="&#x201a;" horiz-adv-x="152" 
d="M-7 -90h-71l90 187h88z" />
    <glyph glyph-name="quotereversed" unicode="&#x201b;" horiz-adv-x="162" 
d="M140 662l90 -187h-71l-107 187h88z" />
    <glyph glyph-name="quotedblleft" unicode="&#x201c;" horiz-adv-x="294" 
d="M161 662h71l-90 -187h-88zM301 662h71l-90 -187h-88z" />
    <glyph glyph-name="quotedblright" unicode="&#x201d;" horiz-adv-x="292" 
d="M110 475h-71l90 187h88zM250 475h-71l90 187h88z" />
    <glyph glyph-name="quotedblbase" unicode="&#x201e;" horiz-adv-x="292" 
d="M-7 -90h-71l90 187h88zM133 -90h-71l90 187h88z" />
    <glyph glyph-name="dagger" unicode="&#x2020;" horiz-adv-x="509" 
d="M241 0h-85l86 413h-172l17 85h172l36 172h85l-36 -172h172l-17 -85h-172z" />
    <glyph glyph-name="daggerdbl" unicode="&#x2021;" horiz-adv-x="531" 
d="M349 413l-24 -115h172l-18 -85h-172l-44 -213h-85l44 213h-172l18 85h172l24 115h-172l17 85h172l36 172h85l-36 -172h172l-17 -85h-172z" />
    <glyph glyph-name="bullet" unicode="&#x2022;" horiz-adv-x="280" 
d="M228 219h-180l36 175h180z" />
    <glyph glyph-name="ellipsis" unicode="&#x2026;" horiz-adv-x="588" 
d="M100 0h-100l20 97h100zM300 0h-100l20 97h100zM500 0h-100l20 97h100z" />
    <glyph glyph-name="perthousand" unicode="&#x2030;" horiz-adv-x="1282" 
d="M284 662q66 0 102.5 -36t36.5 -96q0 -41 -11.5 -82.5t-35 -80t-65.5 -62.5t-97 -24q-68 0 -104 37.5t-36 98.5q0 42 11.5 83t34.5 78.5t65.5 60.5t98.5 23zM276 0h-99l471 650h97zM274 592q-55 0 -83.5 -55t-28.5 -116q0 -69 61 -69q54 0 81 54t27 113q0 73 -57 73z
M710 369q66 0 102.5 -36.5t36.5 -95.5q0 -41 -11.5 -82.5t-35 -80t-65.5 -62.5t-97 -24q-68 0 -104 37.5t-36 98.5q0 42 11.5 83t34.5 78.5t65.5 60.5t98.5 23zM1109 369q67 0 103 -36.5t36 -95.5q0 -41 -11.5 -82.5t-35 -80t-65.5 -62.5t-97 -24q-68 0 -104 37.5t-36 98.5
q0 42 11.5 83t34.5 78.5t65.5 60.5t98.5 23zM700 299q-55 0 -83.5 -55t-28.5 -116q0 -69 61 -69q54 0 81 54t27 113q0 73 -57 73zM1099 299q-55 0 -83.5 -55t-28.5 -116q0 -69 61 -69q54 0 81 54t27 113q0 73 -57 73z" />
    <glyph glyph-name="minute" unicode="&#x2032;" horiz-adv-x="282" 
d="M210 493h-66l35 230h92z" />
    <glyph glyph-name="second" unicode="&#x2033;" horiz-adv-x="282" 
d="M241 723l-61 -230h-66l35 230h92z" />
    <glyph glyph-name="guilsinglleft" unicode="&#x2039;" horiz-adv-x="306" 
d="M153 266l58 -192h-72l-69 197l144 192h77z" />
    <glyph glyph-name="guilsinglright" unicode="&#x203a;" horiz-adv-x="306" 
d="M153 271l-58 192h72l69 -197l-143 -192h-78z" />
    <glyph glyph-name="exclamdouble" unicode="&#x203c;" horiz-adv-x="380" 
d="M215 650l-110 -473h-74l86 473h98zM415 650l-110 -473h-74l86 473h98zM80 0h-100l20 97h100zM280 0h-100l20 97h100z" />
    <glyph glyph-name="interrobang" unicode="&#x203d;" horiz-adv-x="544" 
d="M332 662q95 0 156 -36t61 -108q0 -57 -28 -97.5t-69.5 -63.5t-84 -43.5t-76.5 -49t-42 -67.5l-8 -39h-87l54 313h96l-31 -127q21 14 61 36.5t61 35.5t39 37t18 52q0 72 -137 72q-104 0 -225 -48l18 89q102 44 224 44zM232 97l-20 -97h-100l20 97h100z" />
    <glyph glyph-name="overline" unicode="&#x203e;" horiz-adv-x="498" 
d="M580 665h-500l18 85h500z" />
    <glyph glyph-name="fraction" unicode="&#x2044;" horiz-adv-x="174" 
d="M-61 0h-99l472 650h97z" />
    <glyph glyph-name="zerosuperior" unicode="&#x2070;" 
d="M301 754q66 0 103 -39.5t37 -106.5q0 -85 -54.5 -159t-150.5 -74q-66 0 -104.5 39t-38.5 104q0 37 12.5 76.5t36.5 76t65.5 60t93.5 23.5zM290 690q-59 0 -91.5 -52.5t-32.5 -112.5q0 -43 22 -64.5t57 -21.5q53 0 88 50.5t35 110.5q0 45 -21 67.5t-57 22.5z" />
    <glyph glyph-name="foursuperior" unicode="&#x2074;" 
d="M416 468h-59l-17 -84h-65l17 84h-200v47q98 119 218 229h88q-84 -74 -125.5 -114t-91.5 -98h125l21 105h65l-21 -105h59z" />
    <glyph glyph-name="fivesuperior" unicode="&#x2075;" 
d="M410 680h-166l-22 -70q26 7 66 7q54 0 85.5 -26.5t31.5 -69.5q0 -65 -48 -105.5t-133 -40.5q-62 0 -127 19l14 65q73 -20 122 -20t74 19.5t25 52.5q0 44 -72 44q-53 0 -128 -21l65 210h226z" />
    <glyph glyph-name="sixsuperior" unicode="&#x2076;" 
d="M417 754l-14 -65q-57 -4 -107.5 -26t-79.5 -54q39 25 91 25q46 0 75 -29t29 -75q0 -60 -43.5 -107.5t-127.5 -47.5q-58 0 -93.5 34t-35.5 86q0 89 75.5 165t230.5 94zM276 577q-46 0 -69 -24t-23 -56q0 -26 16.5 -42t46.5 -16q40 0 65.5 23.5t25.5 57.5q0 57 -62 57z" />
    <glyph glyph-name="sevensuperior" unicode="&#x2077;" 
d="M457 744l-10 -44q-156 -174 -238 -316h-78q91 156 213 296h-192l14 64h291z" />
    <glyph glyph-name="eightsuperior" unicode="&#x2078;" 
d="M299 754q-64 0 -105.5 -31.5t-41.5 -78.5q0 -44 35 -69q-84 -38 -84 -103q0 -45 37.5 -70.5t101.5 -25.5q74 0 118 33t44 87q0 53 -52 77q35 12 53.5 37t18.5 55q0 41 -34.5 65t-90.5 24zM295 694q26 0 41.5 -11t15.5 -30q0 -23 -21 -38t-53 -15q-26 0 -41 11.5t-15 30.5
q0 23 19.5 37.5t53.5 14.5zM263 542q33 0 52 -12.5t19 -33.5q0 -26 -22.5 -42t-65.5 -16q-70 0 -70 45q0 27 23.5 43t63.5 16z" />
    <glyph glyph-name="ninesuperior" unicode="&#x2079;" 
d="M125 375l14 65q57 4 107.5 26t79.5 54q-39 -25 -91 -25q-46 0 -75 29t-29 75q0 60 43.5 107.5t127.5 47.5q58 0 93.5 -34t35.5 -86q0 -89 -75.5 -165t-230.5 -94zM266 552q46 0 69 24t23 56q0 26 -16.5 42t-46.5 16q-40 0 -65.5 -23.5t-25.5 -57.5q0 -57 62 -57z" />
    <glyph glyph-name="plussuperior" unicode="&#x207a;" horiz-adv-x="294" 
d="M190 433h-72v96h-96v71h96v96h72v-96h96v-71h-96v-96z" />
    <glyph glyph-name="minussuperior" unicode="&#x207b;" horiz-adv-x="295" 
d="M288 529h-265v71h265v-71z" />
    <glyph glyph-name="equalsuperior" unicode="&#x207c;" horiz-adv-x="295" 
d="M290 585h-265v71h265v-71zM290 475h-265v71h265v-71z" />
    <glyph glyph-name="parenleftsuperior" unicode="&#x207d;" horiz-adv-x="0" 
d="M159 792h80q-78 -99 -110 -168t-32 -155q0 -65 43 -171h-73q-38 97 -38 169q0 86 30 160.5t100 164.5z" />
    <glyph glyph-name="parenrightsuperior" unicode="&#x207e;" horiz-adv-x="165" 
d="M14 298h-80q78 99 110 168t32 155q0 65 -43 171h73q38 -97 38 -169q0 -86 -30 -160.5t-100 -164.5z" />
    <glyph glyph-name="nmod" unicode="&#x207f;" horiz-adv-x="612" 
d="M410 524q167 0 167 -133q0 -23 -8 -65l-67 -326h-90l65 315q8 34 8 53q0 75 -97 75q-53 0 -106 -20t-86 -45l-79 -378h-90l106 513h61l10 -51q35 24 92.5 43t113.5 19z" />
    <glyph glyph-name="zeroinferior" unicode="&#x2080;" 
d="M203 270q66 0 103 -39.5t37 -106.5q0 -85 -54.5 -159t-150.5 -74q-66 0 -104.5 39t-38.5 104q0 37 12.5 76.5t36.5 76t65.5 60t93.5 23.5zM192 206q-59 0 -91.5 -52.5t-32.5 -112.5q0 -43 22 -64.5t57 -21.5q53 0 88 50.5t35 110.5q0 45 -21 67.5t-57 22.5z" />
    <glyph glyph-name="oneinferior" unicode="&#x2081;" 
d="M124 -100l59 286l-110 -25l14 61l180 46l-76 -368h-67z" />
    <glyph glyph-name="twoinferior" unicode="&#x2082;" 
d="M208 270q111 0 111 -89q0 -57 -51 -114t-141 -103h158l-14 -64h-273l12 54q51 31 84.5 53.5t72.5 53t59 56.5t20 48q0 41 -61 41q-46 0 -118 -24l14 65q71 23 127 23z" />
    <glyph glyph-name="threeinferior" unicode="&#x2083;" horiz-adv-x="371" 
d="M298 210l-120 -94q49 -4 77 -29t28 -63q0 -60 -46.5 -96.5t-140.5 -36.5q-66 0 -124 18l14 65q61 -19 115 -19q109 0 109 63q0 26 -22.5 36t-73.5 10h-52l10 43l114 89h-153l13 64h263z" />
    <glyph glyph-name="fourinferior" unicode="&#x2084;" 
d="M316 -16h-59l-17 -84h-65l17 84h-200v47q98 119 218 229h88q-84 -74 -125.5 -114t-91.5 -98h125l21 105h65l-21 -105h59z" />
    <glyph glyph-name="fiveinferior" unicode="&#x2085;" 
d="M315 196h-166l-22 -70q26 7 66 7q54 0 85.5 -26.5t31.5 -69.5q0 -65 -48 -105.5t-133 -40.5q-62 0 -127 19l14 65q73 -20 122 -20t74 19.5t25 52.5q0 44 -72 44q-53 0 -128 -21l65 210h226z" />
    <glyph glyph-name="sixinferior" unicode="&#x2086;" 
d="M322 270l-14 -65q-57 -4 -107.5 -26t-79.5 -54q39 25 91 25q46 0 75 -29t29 -75q0 -60 -43.5 -107.5t-127.5 -47.5q-58 0 -93.5 34t-35.5 86q0 89 75.5 165t230.5 94zM181 93q-46 0 -69 -24t-23 -56q0 -26 16.5 -42t46.5 -16q40 0 65.5 23.5t25.5 57.5q0 57 -62 57z" />
    <glyph glyph-name="seveninferior" unicode="&#x2087;" 
d="M362 260l-10 -44q-156 -174 -238 -316h-78q91 156 213 296h-192l14 64h291z" />
    <glyph glyph-name="eightinferior" unicode="&#x2088;" 
d="M205 270q-64 0 -105.5 -31.5t-41.5 -78.5q0 -44 35 -69q-84 -38 -84 -103q0 -45 37.5 -70.5t101.5 -25.5q74 0 118 33t44 87q0 53 -52 77q35 12 53.5 37t18.5 55q0 41 -34.5 65t-90.5 24zM201 210q26 0 41.5 -11t15.5 -30q0 -23 -21 -38t-53 -15q-26 0 -41 11.5t-15 30.5
q0 23 19.5 37.5t53.5 14.5zM169 58q33 0 52 -12.5t19 -33.5q0 -26 -22.5 -42t-65.5 -16q-70 0 -70 45q0 27 23.5 43t63.5 16z" />
    <glyph glyph-name="nineinferior" unicode="&#x2089;" 
d="M21 -109l14 65q57 4 107.5 26t79.5 54q-39 -25 -91 -25q-46 0 -75 29t-29 75q0 60 43.5 107.5t127.5 47.5q58 0 93.5 -34t35.5 -86q0 -89 -75.5 -165t-230.5 -94zM162 68q46 0 69 24t23 56q0 26 -16.5 42t-46.5 16q-40 0 -65.5 -23.5t-25.5 -57.5q0 -57 62 -57z" />
    <glyph glyph-name="plusinferior" unicode="&#x208a;" horiz-adv-x="294" 
d="M190 -57h-72v96h-96v71h96v96h72v-96h96v-71h-96v-96z" />
    <glyph glyph-name="minusinferior" unicode="&#x208b;" horiz-adv-x="295" 
d="M288 39h-265v71h265v-71z" />
    <glyph glyph-name="parenleftinferior" unicode="&#x208d;" horiz-adv-x="165" 
d="M159 302h80q-78 -99 -110 -168t-32 -155q0 -65 43 -171h-73q-38 97 -38 169q0 86 30 160.5t100 164.5z" />
    <glyph glyph-name="parenrightinferior" unicode="&#x208e;" horiz-adv-x="165" 
d="M14 -192h-80q78 99 110 168t32 155q0 65 -43 171h73q38 -97 38 -169q0 -86 -30 -160.5t-100 -164.5z" />
    <glyph glyph-name="franc" unicode="&#x20a3;" horiz-adv-x="561" 
d="M261 564l-36 -174h317l-18 -86h-317l-19 -94h185l-17 -86h-186l-26 -124h-94l26 124h-80l17 86h81l91 440h436l-18 -86h-342z" />
    <glyph glyph-name="lira" unicode="&#x20a4;" horiz-adv-x="508" 
d="M387 577q-46 0 -68.5 -19t-32.5 -66l-10 -49h164l-16 -77h-164l-10 -49h164l-16 -77h-164l-4 -20q-23 -109 -85 -134h347l-18 -86h-464l14 66q51 38 76 71t39 97l1 6h-91l16 77h91l10 49h-91l16 77h91l10 48q19 93 63.5 132t135.5 39q78 0 147 -24l-18 -84
q-74 23 -133 23z" />
    <glyph glyph-name="peseta" unicode="&#x20a7;" horiz-adv-x="1063" 
d="M150 650h214q38 0 74.5 -10t70 -30.5t54 -57.5t20.5 -86q0 -108 -77 -185.5t-217 -77.5h-137l-43 -203h-94zM227 566l-58 -279h117q95 0 146 50.5t51 124.5q0 104 -144 104h-112zM685 304h95l-14 -71h-95l-29 -133q-5 -22 1.5 -30t29.5 -8t57 8l-16 -74q-41 -8 -65 -8
q-107 0 -82 121l27 124h-61l14 71h61l22 71h70zM937 309q57 0 121 -18l-16 -71q-68 16 -115 16q-52 0 -52 -22q0 -11 21 -17l65 -16q76 -18 76 -80q0 -113 -161 -113q-59 0 -121 20l17 73q63 -21 120 -21q62 0 62 30q0 19 -29 25l-57 11q-78 15 -78 79q0 45 37 74.5
t110 29.5z" />
    <glyph glyph-name="euro" unicode="&#x20ac;" horiz-adv-x="704" 
d="M498 572q-80 0 -142 -38.5t-95 -110.5h278l-26 -77h-276q-5 -28 -5 -53h262l-26 -77h-232q13 -72 60 -105t114 -33q107 0 218 44l-20 -94q-102 -40 -213 -40q-104 0 -174.5 55.5t-83.5 172.5h-128l26 77h101q1 20 5 53h-87l26 77h80q40 116 133.5 177.5t209.5 61.5
q118 0 221 -41l-20 -92q-110 43 -206 43z" />
    <glyph glyph-name="rupeeIndian" unicode="&#x20b9;" horiz-adv-x="558" 
d="M581 573h-125q33 -36 33 -92v-2h90l-34 -77h-75q-27 -57 -88 -100.5t-153 -59.5l132 -242h-96l-136 247l45 67q139 0 196 88h-305l34 77h297v10q0 40 -28.5 62t-84.5 22h-182l34 77h480z" />
    <glyph glyph-name="liraTurkish" unicode="&#x20ba;" horiz-adv-x="578" 
d="M482 345h96q-32 -158 -147.5 -251.5t-274.5 -93.5q-46 0 -76 2l45 217l-110 -54l17 90l112 55l16 75l-111 -54l18 90l112 54l36 175h94l-26 -123l190 92l-18 -91l-190 -92l-16 -75l189 92l-18 -91l-190 -92l-38 -184q111 5 188.5 73.5t101.5 185.5z" />
    <glyph glyph-name="uni20BC" unicode="&#x20bc;" horiz-adv-x="654" 
d="M220 252l-15 -73h186l-18 -86h-186l-19 -93h-94l19 93h-80l18 86h80l15 73h-80l18 86h80l65 312h243q38 0 73 -8.5t67 -26.5t51 -52.5t19 -80.5q0 -43 -17 -83t-49.5 -73.5t-87 -53.5t-123.5 -20h-165zM238 338h147q86 0 130.5 37t44.5 100q0 48 -31.5 68.5t-95.5 20.5
h-148z" />
    <glyph glyph-name="Ruble" unicode="&#x20bd;" horiz-adv-x="659" 
d="M220 252l-15 -73h186l-18 -86h-186l-19 -93h-94l19 93h-80l18 86h80l15 73h-80l18 86h80l65 312h243q38 0 73 -8.5t67 -26.5t51 -52.5t19 -80.5q0 -43 -17 -83t-49.5 -73.5t-87 -53.5t-123.5 -20h-165zM238 338h147q86 0 130.5 37t44.5 100q0 48 -31.5 68.5t-95.5 20.5
h-148z" />
    <glyph glyph-name="careof" unicode="&#x2105;" horiz-adv-x="916" 
d="M288 661q57 0 114 -17l-15 -76q-62 18 -102 18q-55 0 -82 -30.5t-27 -74.5q0 -30 19 -48.5t58 -18.5q38 0 110 20l-16 -77q-57 -18 -110 -18q-67 0 -105.5 35.5t-38.5 95.5q0 75 51.5 133t143.5 58zM281 0h-99l472 650h97zM723 311q60 0 101 -33.5t41 -91.5
q0 -79 -52 -138t-145 -59q-60 0 -101 33t-41 91q0 77 52 137.5t145 60.5zM711 236q-50 0 -76.5 -34.5t-26.5 -72.5q0 -29 18.5 -47t54.5 -18q47 0 74.5 32.5t27.5 75.5q0 30 -20 47t-52 17z" />
    <glyph glyph-name="literSign" unicode="&#x2113;" horiz-adv-x="429" 
d="M301 82q35 0 70 11l1 -84q-41 -13 -80 -13q-162 0 -162 149v84l-54 -33l-34 61q54 31 88 54v214q0 103 42 156.5t114 53.5q68 0 109 -38t41 -107q0 -142 -217 -301v-118q0 -49 19 -69t63 -20zM219 525v-148q126 105 126 213q0 25 -15.5 43t-43.5 18q-67 0 -67 -126z" />
    <glyph glyph-name="numero" unicode="&#x2116;" horiz-adv-x="1275" 
d="M1108 661q83 0 135.5 -44t52.5 -125q0 -25 -6 -55q-22 -107 -100 -165t-176 -58q-83 0 -136 43.5t-53 125.5q0 25 6 54q22 106 100.5 165t176.5 59zM518 0l-282 524l-109 -524h-94l135 650h103l262 -492l102 492h94l-135 -650h-76zM1092 583q-63 0 -111.5 -40t-62.5 -106
q-4 -24 -4 -35q0 -48 30 -78t89 -30q69 0 114 41t57 102q4 17 4 37q0 50 -32 79.5t-84 29.5zM1187 85l-18 -85h-397l18 85h397z" />
    <glyph glyph-name="published" unicode="&#x2117;" horiz-adv-x="852" 
d="M398 -11q117 0 221.5 61.5t167.5 163.5t63 216q0 140 -86 224t-228 84q-179 0 -316 -134t-137 -309q0 -138 86.5 -222t228.5 -84zM533 693q121 0 196.5 -74t75.5 -193q0 -153 -123 -272.5t-280 -119.5q-121 0 -197.5 74t-76.5 191q0 100 57 191.5t151 147t197 55.5z
M386 283l-27 -132h-68l83 405h149q62 0 103.5 -28t41.5 -86q0 -68 -47.5 -113.5t-148.5 -45.5h-86zM430 495l-31 -150h90q52 0 79.5 26t27.5 66q0 58 -84 58h-82z" />
    <glyph glyph-name="trademark" unicode="&#x2122;" horiz-adv-x="780" 
d="M397 585h-126l-62 -297h-70l62 297h-129l13 65h325zM712 650h66q0 -8 1.5 -27t2 -39t0.5 -42q0 -93 -12 -254h-68q15 195 13 252l-127 -218h-52l-37 215q-32 -78 -88 -249h-72q79 234 140 362h62q22 -93 39 -218q49 85 132 218z" />
    <glyph glyph-name="Ohm" unicode="&#x2126;" horiz-adv-x="798" 
d="M296 0h-263l18 86h134q-99 80 -99 210q0 162 99.5 264t281.5 102q147 0 225.5 -69.5t78.5 -198.5q0 -94 -44 -177t-120 -131h129l-18 -86h-260l18 87q91 37 147 117t56 184q0 93 -58 142t-163 49q-131 0 -205 -74t-74 -204q0 -145 135 -213z" />
    <glyph glyph-name="estimated" unicode="&#x212e;" horiz-adv-x="827" 
d="M414 661q169 0 268 -100.5t99 -246.5h-587q-13 0 -13 -12v-160q0 -28 15 -42q90 -88 218 -88q69 0 129.5 29t99.5 76h66q-38 -53 -113 -90.5t-182 -37.5q-166 0 -267.5 93.5t-101.5 240.5q0 146 100 242t269 96zM414 636q-128 0 -218 -90q-15 -14 -15 -39v-160
q0 -12 13 -12h437q13 0 13 12v160q0 25 -15 39q-90 90 -215 90z" />
    <glyph glyph-name="oneeighth" unicode="&#x215b;" horiz-adv-x="920" 
d="M210 284l59 286l-110 -25l14 61l180 46l-76 -368h-67zM288 0h-99l471 650h97zM739 370q-64 0 -105.5 -31.5t-41.5 -78.5q0 -44 35 -69q-84 -38 -84 -103q0 -45 37.5 -70.5t101.5 -25.5q74 0 118 33t44 87q0 53 -52 77q35 12 53.5 37t18.5 55q0 41 -34.5 65t-90.5 24z
M735 310q26 0 41.5 -11t15.5 -30q0 -23 -21 -38t-53 -15q-26 0 -41 11.5t-15 30.5q0 23 19.5 37.5t53.5 14.5zM703 158q33 0 52 -12.5t19 -33.5q0 -26 -22.5 -42t-65.5 -16q-70 0 -70 45q0 27 23.5 43t63.5 16z" />
    <glyph glyph-name="threeeighths" unicode="&#x215c;" horiz-adv-x="932" 
d="M393 600l-120 -94q49 -4 77 -29t28 -63q0 -60 -46.5 -96.5t-140.5 -36.5q-65 0 -124 18l14 65q61 -19 115 -19q109 0 109 63q0 26 -22.5 36t-73.5 10h-52l10 43l114 89h-153l13 64h263zM204 0h99l469 650h-97zM751 370q-64 0 -105.5 -31.5t-41.5 -78.5q0 -44 35 -69
q-84 -38 -84 -103q0 -45 37.5 -70.5t101.5 -25.5q74 0 118 33t44 87q0 53 -52 77q35 12 53.5 37t18.5 55q0 41 -34.5 65t-90.5 24zM747 310q26 0 41.5 -11t15.5 -30q0 -23 -21 -38t-53 -15q-26 0 -41 11.5t-15 30.5q0 23 19.5 37.5t53.5 14.5zM715 158q33 0 52 -12.5
t19 -33.5q0 -26 -22.5 -42t-65.5 -16q-70 0 -70 45q0 27 23.5 43t63.5 16z" />
    <glyph glyph-name="fiveeighths" unicode="&#x215d;" horiz-adv-x="936" 
d="M387 586h-166l-22 -70q26 7 66 7q54 0 85.5 -26.5t31.5 -69.5q0 -65 -48 -105.5t-133 -40.5q-62 0 -127 19l14 65q73 -20 122 -20t74 19.5t25 52.5q0 44 -72 44q-53 0 -128 -21l65 210h226zM209 0h99l469 650h-97zM755 370q-64 0 -105.5 -31.5t-41.5 -78.5q0 -44 35 -69
q-84 -38 -84 -103q0 -45 37.5 -70.5t101.5 -25.5q74 0 118 33t44 87q0 53 -52 77q35 12 53.5 37t18.5 55q0 41 -34.5 65t-90.5 24zM751 310q26 0 41.5 -11t15.5 -30q0 -23 -21 -38t-53 -15q-26 0 -41 11.5t-15 30.5q0 23 19.5 37.5t53.5 14.5zM719 158q33 0 52 -12.5
t19 -33.5q0 -26 -22.5 -42t-65.5 -16q-70 0 -70 45q0 27 23.5 43t63.5 16z" />
    <glyph glyph-name="seveneighths" unicode="&#x215e;" horiz-adv-x="893" 
d="M447 650l-10 -44q-156 -174 -238 -316h-78q91 156 213 296h-192l14 64h291zM164 0h99l469 650h-97zM712 370q-64 0 -105.5 -31.5t-41.5 -78.5q0 -44 35 -69q-84 -38 -84 -103q0 -45 37.5 -70.5t101.5 -25.5q74 0 118 33t44 87q0 53 -52 77q35 12 53.5 37t18.5 55
q0 41 -34.5 65t-90.5 24zM708 310q26 0 41.5 -11t15.5 -30q0 -23 -21 -38t-53 -15q-26 0 -41 11.5t-15 30.5q0 23 19.5 37.5t53.5 14.5zM676 158q33 0 52 -12.5t19 -33.5q0 -26 -22.5 -42t-65.5 -16q-70 0 -70 45q0 27 23.5 43t63.5 16z" />
    <glyph glyph-name="Sevenroman" unicode="&#x2166;" horiz-adv-x="1151" 
d="M614 650h106q-214 -409 -398 -650h-94q-106 324 -148 650h99q38 -274 115 -545q154 223 320 545zM666 0l135 650h94l-135 -650h-94zM925 0l135 650h94l-135 -650h-94z" />
    <glyph glyph-name="partialdiff" unicode="&#x2202;" horiz-adv-x="661" 
d="M305 647l40 76q286 -64 286 -312q0 -84 -22 -159t-63.5 -134.5t-108.5 -94.5t-151 -35q-106 0 -172 56t-66 156q0 110 80 197t213 87q111 0 199 -66q-3 109 -62 158t-173 71zM295 73q102 0 161 72.5t77 178.5q-81 76 -195 76q-90 0 -141.5 -57t-51.5 -141
q0 -54 37.5 -91.5t112.5 -37.5z" />
    <glyph glyph-name="increment" unicode="&#x2206;" horiz-adv-x="633" 
d="M368 650h102q20 -49 59.5 -215.5t68.5 -372.5l-13 -62h-605l13 62q116 212 225 376.5t150 211.5zM107 86h399q-54 350 -103 475q-49 -60 -138 -204.5t-158 -270.5z" />
    <glyph glyph-name="product" unicode="&#x220f;" horiz-adv-x="709" 
d="M644 -200h-94v805h-361v-805h-94v891h549v-891z" />
    <glyph glyph-name="summation" unicode="&#x2211;" horiz-adv-x="601" 
d="M203 -114h398v-86h-521v64l314 382l-314 381v64h521v-86h-398l275 -337v-44z" />
    <glyph glyph-name="minus" unicode="&#x2212;" horiz-adv-x="533" 
d="M497 283h-430v85h430v-85z" />
    <glyph glyph-name="divisionslash" unicode="&#x2215;" horiz-adv-x="530" 
d="M112 0h-102l445 650h104z" />
    <glyph glyph-name="bulletoperator" unicode="&#x2219;" horiz-adv-x="280" 
d="M228 219h-180l36 175h180z" />
    <glyph glyph-name="radical" unicode="&#x221a;" horiz-adv-x="530" 
d="M346 -199h-83l-160 329l-44 -21l-29 61l115 52l146 -311l173 839h81z" />
    <glyph glyph-name="infinity" unicode="&#x221e;" horiz-adv-x="662" 
d="M503 453q66 0 101.5 -42t35.5 -110q0 -65 -36.5 -108t-96.5 -43q-50 0 -81.5 20.5t-81.5 74.5q-49 -53 -81 -74t-82 -21q-59 0 -96 43t-37 108q0 67 37.5 109.5t99.5 42.5q33 0 63 -16t48 -33.5t48 -52.5q30 35 48 52.5t48 33.5t63 16zM187 373q-58 0 -58 -74
q0 -31 14.5 -50.5t42.5 -19.5q25 0 44 14t61 57q-61 73 -104 73zM501 373q-43 0 -104 -73l13 -13.5l12 -12.5l10.5 -10.5l10 -10t9 -7.5t9.5 -6.5l9 -4.5t10.5 -3.5t10 -1.5t11.5 -1q57 0 57 70q0 74 -58 74z" />
    <glyph glyph-name="integral" unicode="&#x222b;" horiz-adv-x="341" 
d="M278 750q33 0 63 -7v-82q-30 5 -62 5q-65 0 -65 -81v-628q0 -169 -151 -169q-33 0 -63 7v82q30 -5 62 -5q65 0 65 81v628q0 169 151 169z" />
    <glyph glyph-name="approxequal" unicode="&#x2248;" horiz-adv-x="517" 
d="M415 439h77q0 -51 -35.5 -83.5t-87.5 -32.5q-31 0 -86 18.5t-86 18.5q-24 0 -41 -9.5t-18 -27.5h-77q0 51 35.5 83.5t87.5 32.5q30 0 86 -18.5t86 -18.5q24 0 41 9.5t18 27.5zM415 279h77q0 -51 -35.5 -83.5t-87.5 -32.5q-31 0 -86 18.5t-86 18.5q-24 0 -41 -9.5
t-18 -27.5h-77q0 51 35.5 83.5t87.5 32.5q30 0 86 -18.5t86 -18.5q24 0 41 9.5t18 27.5z" />
    <glyph glyph-name="notequal" unicode="&#x2260;" horiz-adv-x="537" 
d="M358 333l-51 -107h193v-85h-231l-49 -101h-98l48 101h-100v85h142l50 107h-192v85h231l47 100h100l-47 -100h99v-85h-142z" />
    <glyph glyph-name="lessequal" unicode="&#x2264;" horiz-adv-x="619" 
d="M566 487l-416 -142l416 -139v-86l-509 180v92l509 181v-86zM566 85v-85h-509v85h509z" />
    <glyph glyph-name="greaterequal" unicode="&#x2265;" horiz-adv-x="589" 
d="M563 392v-92l-509 -180v86l416 139l-416 142v86zM563 0h-509v85h509v-85z" />
    <glyph glyph-name="lozenge" unicode="&#x25ca;" horiz-adv-x="561" 
d="M559 326l-294 -338h-83l-154 338l294 336h83zM142 326l102 -239l200 239l-102 238z" />
    <glyph glyph-name="uni5143" unicode="&#x5143;" horiz-adv-x="831" 
d="M803 564h-649l18 86h649zM796 361h-208l-45 -218q-7 -37 2 -51.5t40 -14.5q35 0 60 23.5t58 78.5l71 -46q-17 -29 -33.5 -50t-42 -45t-58 -37t-69.5 -13q-83 0 -111 36t-8 134l42 203h-118l-10 -51q-20 -103 -85.5 -169.5t-223.5 -152.5l-42 79q152 85 197.5 126
t61.5 126l8 42h-204l18 86h718z" />
    <glyph glyph-name="Kanji" unicode="&#x5186;" horiz-adv-x="809" 
d="M812 650l-105 -510q-10 -48 -29 -80t-45.5 -46.5t-51 -20t-56.5 -5.5q-37 0 -80 10l17 84q36 -8 66 -8q42 0 59 13t26 56l26 123h-456l-57 -266h-93l135 650h644zM244 564l-44 -212h184l44 212h-184zM516 564l-44 -212h184l44 212h-184z" />
    <glyph glyph-name="apple" unicode="&#xf8ff;" horiz-adv-x="511" 
d="M511 750v-750h-511v750h511zM424 85v580h-337v-580h337z" />
    <glyph glyph-name="fi" unicode="&#xfb01;" horiz-adv-x="578" 
d="M360 711q44 0 86 -14l-17 -77q-36 12 -80 12q-39 0 -59.5 -16t-29.5 -59l-9 -44h161l-15 -76h-161l-99 -479q-19 -91 -60.5 -130.5t-116.5 -39.5q-38 0 -78 11l17 75q48 -8 65 -8q40 0 57.5 26t28.5 78l96 467h-93l15 76h94l11 50q18 85 64 116.5t123 31.5zM487 601
l19 90h98l-19 -90h-98zM366 0l107 513h89l-106 -513h-90z" />
    <glyph glyph-name="fl" unicode="&#xfb02;" horiz-adv-x="577" 
d="M360 711q44 0 86 -14l-17 -77q-36 12 -80 12q-39 0 -59.5 -16t-29.5 -59l-9 -44h161l-15 -76h-161l-99 -479q-19 -91 -60.5 -130.5t-116.5 -39.5q-38 0 -78 11l17 75q48 -8 65 -8q40 0 57.5 26t28.5 78l96 467h-93l15 76h94l11 50q18 85 64 116.5t123 31.5zM366 0
l143 691h90l-143 -691h-90z" />
    <glyph glyph-name="uniFEFF" unicode="&#xfeff;" horiz-adv-x="600" 
 />
    <glyph glyph-name="NULL" horiz-adv-x="600" 
 />
    <glyph glyph-name="zero.dnom" 
d="M223 370q66 0 103 -39.5t37 -106.5q0 -85 -54.5 -159t-150.5 -74q-66 0 -104.5 39t-38.5 104q0 37 12.5 76.5t36.5 76t65.5 60t93.5 23.5zM212 306q-59 0 -91.5 -52.5t-32.5 -112.5q0 -43 22 -64.5t57 -21.5q53 0 88 50.5t35 110.5q0 45 -21 67.5t-57 22.5z" />
    <glyph glyph-name="one.dnom" 
d="M154 0l59 286l-110 -25l14 61l180 46l-76 -368h-67z" />
    <glyph glyph-name="two.dnom" 
d="M229 370q111 0 111 -89q0 -57 -51 -114t-141 -103h158l-14 -64h-273l12 54q51 31 84.5 53.5t72.5 53t59 56.5t20 48q0 41 -61 41q-46 0 -118 -24l14 65q71 23 127 23z" />
    <glyph glyph-name="three.dnom" 
d="M345 310l-120 -94q49 -4 77 -29t28 -63q0 -60 -46.5 -96.5t-140.5 -36.5q-66 0 -124 18l14 65q61 -19 115 -19q109 0 109 63q0 26 -22.5 36t-73.5 10h-52l10 43l114 89h-153l13 64h263z" />
    <glyph glyph-name="four.dnom" 
d="M336 84h-59l-17 -84h-65l17 84h-200v47q98 119 218 229h88q-84 -74 -125.5 -114t-91.5 -98h125l21 105h65l-21 -105h59z" />
    <glyph glyph-name="five.dnom" 
d="M330 296h-166l-22 -70q26 7 66 7q54 0 85.5 -26.5t31.5 -69.5q0 -65 -48 -105.5t-133 -40.5q-62 0 -127 19l14 65q73 -20 122 -20t74 19.5t25 52.5q0 44 -72 44q-53 0 -128 -21l65 210h226z" />
    <glyph glyph-name="six.dnom" 
d="M335 370l-14 -65q-57 -4 -107.5 -26t-79.5 -54q39 25 91 25q46 0 75 -29t29 -75q0 -60 -43.5 -107.5t-127.5 -47.5q-58 0 -93.5 34t-35.5 86q0 89 75.5 165t230.5 94zM194 193q-46 0 -69 -24t-23 -56q0 -26 16.5 -42t46.5 -16q40 0 65.5 23.5t25.5 57.5q0 57 -62 57z" />
    <glyph glyph-name="seven.dnom" 
d="M377 360l-10 -44q-156 -174 -238 -316h-78q91 156 213 296h-192l14 64h291z" />
    <glyph glyph-name="eight.dnom" 
d="M219 370q-64 0 -105.5 -31.5t-41.5 -78.5q0 -44 35 -69q-84 -38 -84 -103q0 -45 37.5 -70.5t101.5 -25.5q74 0 118 33t44 87q0 53 -52 77q35 12 53.5 37t18.5 55q0 41 -34.5 65t-90.5 24zM215 310q26 0 41.5 -11t15.5 -30q0 -23 -21 -38t-53 -15q-26 0 -41 11.5t-15 30.5
q0 23 19.5 37.5t53.5 14.5zM183 158q33 0 52 -12.5t19 -33.5q0 -26 -22.5 -42t-65.5 -16q-70 0 -70 45q0 27 23.5 43t63.5 16z" />
    <glyph glyph-name="nine.dnom" 
d="M45 -9l14 65q57 4 107.5 26t79.5 54q-39 -25 -91 -25q-46 0 -75 29t-29 75q0 60 43.5 107.5t127.5 47.5q58 0 93.5 -34t35.5 -86q0 -89 -75.5 -165t-230.5 -94zM186 168q46 0 69 24t23 56q0 26 -16.5 42t-46.5 16q-40 0 -65.5 -23.5t-25.5 -57.5q0 -57 62 -57z" />
    <glyph glyph-name="zero.numr" 
d="M283 660q66 0 103 -39.5t37 -106.5q0 -85 -54.5 -159t-150.5 -74q-66 0 -104.5 39t-38.5 104q0 37 12.5 76.5t36.5 76t65.5 60t93.5 23.5zM272 596q-59 0 -91.5 -52.5t-32.5 -112.5q0 -43 22 -64.5t57 -21.5q53 0 88 50.5t35 110.5q0 45 -21 67.5t-57 22.5z" />
    <glyph glyph-name="one.numr" 
d="M190 290l59 286l-110 -25l14 61l180 46l-76 -368h-67z" />
    <glyph glyph-name="two.numr" 
d="M284 660q111 0 111 -89q0 -57 -51 -114t-141 -103h158l-14 -64h-273l12 54q51 31 84.5 53.5t72.5 53t59 56.5t20 48q0 41 -61 41q-46 0 -118 -24l14 65q71 23 127 23z" />
    <glyph glyph-name="three.numr" 
d="M393 600l-120 -94q49 -4 77 -29t28 -63q0 -60 -46.5 -96.5t-140.5 -36.5q-65 0 -124 18l14 65q61 -19 115 -19q109 0 109 63q0 26 -22.5 36t-73.5 10h-52l10 43l114 89h-153l13 64h263z" />
    <glyph glyph-name="four.numr" 
d="M391 374h-59l-17 -84h-65l17 84h-200v47q98 119 218 229h88q-84 -74 -125.5 -114t-91.5 -98h125l21 105h65l-21 -105h59z" />
    <glyph glyph-name="five.numr" 
d="M387 586h-166l-22 -70q26 7 66 7q54 0 85.5 -26.5t31.5 -69.5q0 -65 -48 -105.5t-133 -40.5q-62 0 -127 19l14 65q73 -20 122 -20t74 19.5t25 52.5q0 44 -72 44q-53 0 -128 -21l65 210h226z" />
    <glyph glyph-name="six.numr" 
d="M382 660l-14 -65q-57 -4 -107.5 -26t-79.5 -54q39 25 91 25q46 0 75 -29t29 -75q0 -60 -43.5 -107.5t-127.5 -47.5q-58 0 -93.5 34t-35.5 86q0 89 75.5 165t230.5 94zM241 483q-46 0 -69 -24t-23 -56q0 -26 16.5 -42t46.5 -16q40 0 65.5 23.5t25.5 57.5q0 57 -62 57z" />
    <glyph glyph-name="seven.numr" 
d="M427 650l-10 -44q-156 -174 -238 -316h-78q91 156 213 296h-192l14 64h291z" />
    <glyph glyph-name="eight.numr" 
d="M277 660q-64 0 -105.5 -31.5t-41.5 -78.5q0 -44 35 -69q-84 -38 -84 -103q0 -45 37.5 -70.5t101.5 -25.5q74 0 118 33t44 87q0 53 -52 77q35 12 53.5 37t18.5 55q0 41 -34.5 65t-90.5 24zM273 600q26 0 41.5 -11t15.5 -30q0 -23 -21 -38t-53 -15q-26 0 -41 11.5t-15 30.5
q0 23 19.5 37.5t53.5 14.5zM241 448q33 0 52 -12.5t19 -33.5q0 -26 -22.5 -42t-65.5 -16q-70 0 -70 45q0 27 23.5 43t63.5 16z" />
    <glyph glyph-name="nine.numr" 
d="M95 281l14 65q57 4 107.5 26t79.5 54q-39 -25 -91 -25q-46 0 -75 29t-29 75q0 60 43.5 107.5t127.5 47.5q58 0 93.5 -34t35.5 -86q0 -89 -75.5 -165t-230.5 -94zM236 458q46 0 69 24t23 56q0 26 -16.5 42t-46.5 16q-40 0 -65.5 -23.5t-25.5 -57.5q0 -57 62 -57z" />
    <glyph glyph-name="equalinferior" horiz-adv-x="295" 
d="M290 95h-265v71h265v-71zM290 -15h-265v71h265v-71z" />
    <glyph glyph-name="ampersand.001" horiz-adv-x="699" 
d="M521 143q71 -74 150 -143h-128q-39 33 -92 85q-137 -101 -253 -101q-82 0 -125 36.5t-43 100.5q0 71 45 129t158 112q-42 78 -42 130q0 66 48.5 117t148.5 51q75 0 117 -38t42 -88q0 -62 -47.5 -106.5t-143.5 -91.5q45 -61 114 -139q64 57 112 117l89 -2
q-67 -94 -150 -169zM382 582q-48 0 -73.5 -25t-25.5 -64q0 -37 33 -95q61 25 100 59t39 69q0 27 -21.5 41.5t-51.5 14.5zM212 68q82 0 186 73q-71 77 -124 154q-83 -43 -117 -81.5t-34 -83.5q0 -62 89 -62z" />
    <glyph glyph-name="acute.case" horiz-adv-x="240" 
d="M82 710h-85l104 145h112z" />
    <glyph glyph-name="breve.case" horiz-adv-x="344" 
d="M232 827h77q-37 -119 -159 -119q-66 0 -98 31.5t-27 87.5h77q-2 -25 11 -39t43 -14q57 0 76 53z" />
    <glyph glyph-name="caron.alt" horiz-adv-x="198" 
d="M76 525h-76l78 166h96z" />
    <glyph glyph-name="caron.case" horiz-adv-x="372" 
d="M211 710h-110l-71 145h76l57 -86l93 86h86z" />
    <glyph glyph-name="circumflex.case" horiz-adv-x="372" 
d="M312 710h-76l-57 86l-93 -86h-86l131 145h110z" />
    <glyph glyph-name="dieresis.case" horiz-adv-x="358" 
d="M100 707h-100l20 98h100zM298 707h-100l20 98h100z" />
    <glyph glyph-name="dotaccent.case" horiz-adv-x="160" 
d="M100 707h-100l20 98h100z" />
    <glyph glyph-name="grave.case" horiz-adv-x="240" 
d="M82 855l104 -145h-85l-131 145h112z" />
    <glyph glyph-name="hungarumlaut.case" horiz-adv-x="408" 
d="M80 710h-82l104 145h111zM247 710h-82l104 145h111z" />
    <glyph glyph-name="macron.case" horiz-adv-x="334" 
d="M274 716h-274l16 77h274z" />
    <glyph glyph-name="ring.case" horiz-adv-x="262" 
d="M107 711q-42 0 -66.5 21t-24.5 54q0 44 31 70.5t85 26.5q42 0 66 -20.5t24 -53.5q0 -39 -28.5 -68.5t-86.5 -29.5zM127 837q-29 0 -45 -13.5t-16 -32.5q0 -34 46 -34q28 0 44 13t16 34q0 33 -45 33z" />
    <glyph glyph-name="tilde.case" horiz-adv-x="362" 
d="M263 834h60q-35 -97 -114 -97q-19 0 -56.5 13.5t-52.5 13.5q-16 0 -24.5 -7t-15.5 -23h-60q35 97 114 97q22 0 56.5 -13.5t51.5 -13.5q30 0 41 30z" />
    <glyph glyph-name="brevecy" horiz-adv-x="0" 
d="M316 713h-67q-30 -55 -93 -55q-51 0 -48 55h-76q-16 -120 111 -120q124 0 173 120z" />
    <glyph glyph-name="brevecy.case" horiz-adv-x="0" 
d="M316 817h-67q-30 -55 -93 -55q-51 0 -48 55h-76q-16 -120 111 -120q124 0 173 120z" />
    <glyph glyph-name="gheupturncy.001" horiz-adv-x="467" 
d="M525 650l-45 -214h-244l-90 -436l-9 -42q-19 -91 -60.5 -130.5t-116.5 -39.5q-16 0 -35.5 3t-30.5 5l-12 3l17 75q41 -8 65 -8q40 0 57.5 26t28.5 78l6 30l33 158l57 279l16 76h250l29 137h84z" />
    <glyph glyph-name="tonos.cap" horiz-adv-x="209" 
d="M-2 500l75 150h108l-119 -150h-64z" />
    </font>
</defs>
</svg>
