<svg width="25" height="12" viewBox="0 0 25 12" fill="none" xmlns="http://www.w3.org/2000/svg">
<path fill-rule="evenodd" clip-rule="evenodd" d="M0.00967649 7.0411L0.204824 5.02356C0.278349 4.26341 0.521042 3.51843 1.03044 2.94945C2.21725 1.62379 4.3909 0 7.75905 0H12.2413C12.8566 0 13.9118 0.289865 14.6143 0.790992C15.3169 1.29212 16.6357 2.54875 17.251 3.16397C18.745 3.33974 21.5374 3.95496 22.7879 4.48229C24.0384 5.00961 24.3699 5.53694 24.3699 5.80061V8.70091L22.7879 9.22824C22.8758 8.17358 22.366 6.06427 19.6239 6.06427C16.8818 6.06427 16.3721 8.17358 16.46 9.22824H7.75905C7.67116 8.17358 6.91533 6.06427 4.59508 6.06427C2.27484 6.06427 1.519 8.17358 1.43111 9.22824C0.5054 8.91967 -0.0842686 8.01235 0.00967649 7.0411ZM4.61201 11.1675C5.7981 11.1675 6.75961 10.206 6.75961 9.01991C6.75961 7.83382 5.7981 6.87231 4.61201 6.87231C3.42593 6.87231 2.46442 7.83382 2.46442 9.01991C2.46442 10.206 3.42593 11.1675 4.61201 11.1675ZM21.7928 9.01991C21.7928 10.206 20.8313 11.1675 19.6452 11.1675C18.4591 11.1675 17.4976 10.206 17.4976 9.01991C17.4976 7.83382 18.4591 6.87231 19.6452 6.87231C20.8313 6.87231 21.7928 7.83382 21.7928 9.01991ZM6.9681 1.58218C5.49158 1.58218 3.36469 2.81261 2.48581 3.42782H9.07741H15.669C14.878 2.81261 13.0324 1.58218 11.9777 1.58218H9.07741H6.9681Z" fill="#C3002F"/>
</svg>
