<?xml version="1.0" encoding="UTF-8"?>
<svg width="176px" height="183px" viewBox="0 0 176 183" version="1.1" xmlns="http://www.w3.org/2000/svg" xmlns:xlink="http://www.w3.org/1999/xlink">
    <!-- Generator: sketchtool 52.5 (67469) - http://www.bohemiancoding.com/sketch -->
    <title>646CE4F5-DC93-4FD8-B7F9-276374654327</title>
    <desc>Created with sketchtool.</desc>
    <g id="Our-Services" stroke="none" stroke-width="1" fill="none" fill-rule="evenodd">
        <g id="1.0-CG_Marketing-Web_Why-join" transform="translate(-1061.000000, -3281.000000)">
            <g id="Group-21" transform="translate(1060.000000, 3281.000000)">
                <rect id="Rectangle" fill-rule="nonzero" x="0" y="0" width="180" height="180"></rect>
                <g id="Group-49" transform="translate(4.000000, 0.000000)">
                    <path d="M17.3394858,109.20538 C14.5286377,109.20538 12.2498604,106.931457 12.2498604,104.12692 C12.2498604,101.321898 14.5286377,99.0484603 17.3394858,99.0484603" id="Stroke-1" stroke="#345287" stroke-width="6" stroke-linecap="round" stroke-linejoin="round"></path>
                    <path d="M50.5787594,54.6774516 L50.5787594,9.11307042 C50.5365238,5.79976506 53.1934792,3.07969913 56.5135811,3.03746359 L56.5150375,3.03746359 L163.360276,3.03746359 C166.679892,3.07921366 169.338304,5.79879413 169.296068,9.11161402 L169.296068,9.11307042 L169.296068,91.1286653 C169.338304,94.4419706 166.681349,97.1620366 163.361247,97.2042721 L163.360276,97.2042721 L56.6456278,96.8183266 C53.2915433,96.8066755 50.5787594,94.0904933 50.5787594,90.7432053 L50.5787594,54.6774516 Z" id="Fill-3" fill="#F2F2F2"></path>
                    <path d="M169.29602,20.0218795 L50.5787108,20.0218795 L50.5787108,9.11297333 C50.5787108,5.75743242 53.3046023,3.0373665 56.6669398,3.0373665 L163.208276,3.0373665 C166.570614,3.0373665 169.29602,5.75743242 169.29602,9.11297333 L169.29602,20.0218795 Z" id="Fill-5" fill="#DB5967"></path>
                    <path d="M53.6220004,16.0174648 L53.6228738,9.11268205 C53.5835511,7.47811807 54.8768325,6.11978424 56.5147947,6.07512137 L163.360518,6.07512137 C164.998481,6.11978424 166.291277,7.47811807 166.251954,9.11268205 L166.252828,16.0174648 L53.6220004,16.0174648 Z M163.360518,0 L56.5147947,0 C51.5159515,0.0485465987 47.4996913,4.12451903 47.5346449,9.11268205 L47.5346449,54.6775487 C47.5346449,56.3548337 48.8978334,57.7151094 50.5785166,57.7151094 C52.2596853,57.7151094 53.6228738,56.3548337 53.6228738,54.6775487 L53.6228738,22.0925862 L166.251954,22.0925862 L166.251954,91.1287624 C166.291277,92.7633263 164.998481,94.1216602 163.360518,94.1668085 L72.7720797,94.1668085 C71.090911,94.1668085 69.728208,95.5265987 69.728208,97.2043692 C69.728208,98.8816542 71.090911,100.24193 72.7720797,100.24193 L163.360518,100.24193 C168.358876,100.193383 172.375622,96.1174108 172.340183,91.1287624 L172.340183,9.11268205 C172.375622,4.12451903 168.358876,0.0485465987 163.360518,0 Z" id="Fill-7" fill="#345287"></path>
                    <path d="M151.86148,41.6300677 C150.180311,41.6300677 148.817123,42.989858 148.817123,44.6676284 L148.817123,85.0535439 C148.817123,86.7313144 150.180311,88.0915901 151.86148,88.0915901 C153.542648,88.0915901 154.905837,86.7313144 154.905837,85.0535439 L154.905837,44.6676284 C154.905837,42.989858 153.542648,41.6300677 151.86148,41.6300677" id="Fill-9" fill="#345287"></path>
                    <path d="M139.685459,60.6151375 C138.00429,60.6151375 136.641102,61.9754132 136.641102,63.6526982 L136.641102,85.0534954 C136.641102,86.7312658 138.00429,88.0915415 139.685459,88.0915415 C141.366628,88.0915415 142.729816,86.7312658 142.729816,85.0534954 L142.729816,63.6526982 C142.729816,61.9754132 141.366628,60.6151375 139.685459,60.6151375" id="Fill-11" fill="#345287"></path>
                    <path d="M124.465323,57.577674 L124.465323,85.0535924 C124.465323,86.7313629 125.828512,88.0911531 127.509681,88.0911531 C129.190364,88.0911531 130.553552,86.7313629 130.553552,85.0535924 L130.553552,57.577674 C130.553552,55.8999035 129.190364,54.5401133 127.509681,54.5401133 C125.828512,54.5401133 124.465323,55.8999035 124.465323,57.577674" id="Fill-13" fill="#345287"></path>
                    <path d="M115.33298,72.7658172 C113.651811,72.7658172 112.289108,74.1260929 112.289108,75.8033779 L112.289108,85.0539323 C112.289108,86.7312173 113.651811,88.091493 115.33298,88.091493 C117.014149,88.091493 118.377337,86.7312173 118.377337,85.0539323 L118.377337,75.8033779 C118.377337,74.1260929 117.014149,72.7658172 115.33298,72.7658172" id="Fill-15" fill="#345287"></path>
                    <path d="M100.721619,74.5884022 C101.730417,75.9307156 103.638298,76.2025766 104.983525,75.1957201 L117.159497,66.0830381 C117.543015,65.8009823 117.856141,65.43397 118.072659,65.0106437 L128.614067,43.9656931 L137.858796,50.8947492 C139.204022,51.9016056 141.111904,51.6297447 142.120702,50.2874312 C142.154684,50.2427684 142.186725,50.1966491 142.21828,50.1505298 L154.394253,31.9246803 C155.326833,30.5289655 154.949626,28.6424447 153.550999,27.7113209 C152.151886,26.7801972 150.261966,27.1569188 149.328901,28.553119 L138.93653,44.1055073 L129.33547,36.9215817 C127.996069,35.9084141 126.086731,36.1710512 125.071136,37.5080246 C124.955595,37.6599754 124.854619,37.8226065 124.769662,37.993976 L112.916039,61.6541319 L101.330879,70.3357201 C99.9851669,71.3420911 99.713306,73.2465742 100.721619,74.5884022" id="Fill-17" fill="#345287"></path>
                    <path d="M99.2832316,35.2099742 C100.9644,35.2099742 102.327589,33.8496985 102.327589,32.1724135 C102.327589,30.4946431 100.9644,29.1348529 99.2832316,29.1348529 L62.7548289,29.1348529 C61.0736602,29.1348529 59.7109571,30.4946431 59.7109571,32.1724135 C59.7109571,33.8496985 61.0736602,35.2099742 62.7548289,35.2099742 L99.2832316,35.2099742 Z" id="Fill-19" fill="#345287"></path>
                    <path d="M99.2832316,49.6388487 C100.9644,49.6388487 102.327589,48.278573 102.327589,46.601288 C102.327589,44.9235175 100.9644,43.5632418 99.2832316,43.5632418 L62.7548289,43.5632418 C61.0736602,43.5632418 59.7109571,44.9235175 59.7109571,46.601288 C59.7109571,48.278573 61.0736602,49.6388487 62.7548289,49.6388487 L99.2832316,49.6388487 Z" id="Fill-21" fill="#345287"></path>
                    <path d="M116.57888,35.2099742 C118.260049,35.2099742 119.623237,33.8496985 119.623237,32.1724135 C119.623237,30.4946431 118.260049,29.1348529 116.57888,29.1348529 L110.490651,29.1348529 C108.809482,29.1348529 107.446294,30.4946431 107.446294,32.1724135 C107.446294,33.8496985 108.809482,35.2099742 110.490651,35.2099742 L116.57888,35.2099742 Z" id="Fill-23" fill="#345287"></path>
                    <path d="M55.6235277,108.67627 C58.4343758,108.67627 60.7131531,106.402348 60.7131531,103.597811 C60.7131531,100.792788 58.4343758,98.5193509 55.6235277,98.5193509" id="Stroke-25" stroke="#345287" stroke-width="6" stroke-linecap="round" stroke-linejoin="round"></path>
                    <path d="M36.605252,120.492221 L36.5241792,120.492221 C26.1905502,120.492221 17.8133491,112.115506 17.8133491,101.781877 L17.8133491,88.1339712 C17.8133491,77.8003422 26.1905502,69.4236266 36.5241792,69.4236266 L36.605252,69.4236266 C46.938881,69.4236266 55.3160821,77.8003422 55.3160821,88.1339712 L55.3160821,101.781877 C55.3160821,112.115506 46.938881,120.492221 36.605252,120.492221 Z" id="Stroke-27" stroke="#345287" stroke-width="6" stroke-linecap="round" stroke-linejoin="round"></path>
                    <path d="M17.3892946,97.7786755 C17.3892946,97.7786755 25.0237327,98.2020018 30.1128726,85.0822835 C30.1128726,85.0822835 36.4749044,100.317663 54.2885933,96.5091819" id="Stroke-29" stroke="#345287" stroke-width="6" stroke-linecap="round" stroke-linejoin="round"></path>
                    <path d="M19.626516,125.451159 L24.5612778,125.451159 L35.7473851,136.051309 L49.7302619,125.451159 L88.5573461,125.451159 L88.9816434,148.727797 L63.9578136,148.727797 L63.9578136,179.622367 L0.762764159,179.622367 L0.762764159,144.274132 C0.762764159,133.878363 9.20841594,125.451159 19.626516,125.451159" id="Fill-31" fill="#FCC14A"></path>
                    <path d="M46.9557752,125.847736 C46.9557752,131.574293 42.3035547,136.216319 36.5643758,136.216319 C30.8256823,136.216319 26.1734618,131.574293 26.1734618,125.847736" id="Fill-33" fill="#F0F0F0"></path>
                    <path d="M46.6542523,124.955256 C46.6542523,130.681812 42.0020318,135.323838 36.2628529,135.323838 C30.5241594,135.323838 25.8719389,130.681812 25.8719389,124.955256" id="Stroke-35" stroke="#345287" stroke-width="6" stroke-linecap="round" stroke-linejoin="round"></path>
                    <path d="M18.8637033,124.32046 L87.7945334,124.32046 L88.2188307,147.597098 L63.1950009,147.597098 L63.1950009,178.491668 L-4.85465987e-05,178.491668 L-4.85465987e-05,143.143433 C-4.85465987e-05,132.747664 8.44560324,124.32046 18.8637033,124.32046 Z" id="Stroke-37" stroke="#345287" stroke-width="6" stroke-linecap="round" stroke-linejoin="round"></path>
                    <path d="M17.1005394,155.436743 L17.1005394,176.651121" id="Stroke-39" stroke="#345287" stroke-width="6" stroke-linecap="round" stroke-linejoin="round"></path>
                    <path d="M169.29602,179.220304 L169.29602,166.562749 C169.29602,160.132267 164.07192,154.919333 157.62833,154.919333 L126.171105,154.919333 C119.727515,154.919333 114.503416,160.132267 114.503416,166.562749 L114.503416,179.220304" id="Fill-41" fill="#DB5967"></path>
                    <path d="M169.29602,179.220304 L169.29602,166.562749 C169.29602,160.132267 164.07192,154.919333 157.62833,154.919333 L126.171105,154.919333 C119.727515,154.919333 114.503416,160.132267 114.503416,166.562749 L114.503416,179.220304 L169.29602,179.220304 Z" id="Stroke-43" stroke="#345287" stroke-width="6" stroke-linecap="round" stroke-linejoin="round"></path>
                    <path d="M132.767568,116.037682 C135.04052,113.700649 138.167407,112.385036 141.431194,112.392318 L142.368629,112.392318 C145.632417,112.385036 148.758818,113.700649 151.03177,116.037682 C153.096457,118.149945 154.197979,121.017592 154.076127,123.965827 L153.711057,132.137191 C153.298411,138.236586 148.139364,142.926187 142.015696,142.768896 L141.784128,142.768896 C135.66046,142.926187 130.501413,138.236586 130.088767,132.137191 L129.723697,123.950778 C129.606214,121.007883 130.707251,118.146547 132.767568,116.037682 M141.784128,148.844017 L142.015696,148.844017 C151.407035,149.009561 159.253136,141.74699 159.792489,132.389148 L160.164356,124.211959 C160.368252,119.609256 158.658926,115.126948 155.439801,111.824323 C152.014353,108.291587 147.294653,106.303118 142.368629,106.317197 L141.431194,106.317197 C136.510026,106.307488 131.797122,108.295471 128.375072,111.824323 C125.155947,115.126948 123.446622,119.609256 123.651003,124.211959 L124.006849,132.389148 C124.546202,141.74699 132.393274,149.009561 141.784128,148.844017" id="Fill-45" fill="#345287"></path>
                    <path d="M85.9696668,124.300071 L92.9026065,124.300071 C99.5389266,124.300071 104.919346,129.668839 104.919346,136.290595 L104.919346,136.291081 C104.919346,142.912837 99.5389266,147.310673 92.9026065,147.310673 L87.3561576,147.310673" id="Stroke-47" stroke="#345287" stroke-width="6" stroke-linecap="round" stroke-linejoin="round"></path>
                </g>
            </g>
        </g>
    </g>
</svg>