<?xml version="1.0" encoding="UTF-8"?>
<svg width="176px" height="180px" viewBox="0 0 176 180" version="1.1" xmlns="http://www.w3.org/2000/svg" xmlns:xlink="http://www.w3.org/1999/xlink">
    <!-- Generator: sketchtool 52.5 (67469) - http://www.bohemiancoding.com/sketch -->
    <title>4F2CE9AE-4287-44A4-8CE4-A248A3F70AC7</title>
    <desc>Created with sketchtool.</desc>
    <defs>
        <polygon id="path-1" points="0.178735135 0.273843243 128.432432 0.273843243 128.432432 29.6756757 0.178735135 29.6756757"></polygon>
    </defs>
    <g id="Our-Services" stroke="none" stroke-width="1" fill="none" fill-rule="evenodd">
        <g id="1.0-CG_Marketing-Web_Why-join" transform="translate(-1063.000000, -3729.000000)">
            <g id="Group-27" transform="translate(1060.000000, 3729.000000)">
                <rect id="Rectangle" fill-rule="nonzero" x="0" y="0" width="180" height="180"></rect>
                <g id="Group-29" transform="translate(3.000000, 0.000000)">
                    <path d="M128.435351,85.7605135 C142.314811,85.7605135 153.56627,96.9180811 153.56627,110.68273 C153.56627,124.446405 142.314811,135.603973 128.435351,135.603973 C114.555405,135.603973 103.303946,124.446405 103.303946,110.68273 C103.319027,96.9253784 114.56173,85.7755946 128.435351,85.7605135" id="Fill-1" fill="#FCC14A"></path>
                    <path d="M128.433454,87.8927351 C141.330697,87.8927351 151.784805,98.2602486 151.784805,111.049492 C151.784805,123.838735 141.330697,134.206249 128.433454,134.206249 C115.536697,134.206249 105.082103,123.838735 105.082103,111.049492 C105.096211,98.2670595 115.542535,87.9063568 128.433454,87.8927351 M99.2437784,111.049492 C99.2437784,127.035924 112.312265,139.995924 128.433454,139.995924 C144.55367,139.995924 157.622157,127.035924 157.622157,111.049492 C157.622157,95.0635459 144.55367,82.1040324 128.433454,82.1040324 C112.319562,82.1215459 99.2612919,95.0708432 99.2437784,111.049492" id="Fill-3" fill="#345287"></path>
                    <g id="Group-7" transform="translate(46.702703, 150.324324)">
                        <mask id="mask-2" fill="white">
                            <use xlink:href="#path-1"></use>
                        </mask>
                        <g id="Clip-6"></g>
                        <path d="M0.178735135,0.273843243 L128.432627,1.63405946 L128.432627,29.6761135 L25.9056,29.6761135 C25.9056,29.6761135 9.63651892,1.87924865 0.178735135,0.273843243" id="Fill-5" fill="#DB5967" mask="url(#mask-2)"></path>
                    </g>
                    <path d="M114.673135,169.490822 L142.196108,169.490822 C143.808324,169.490822 145.114541,170.798984 145.114541,172.412659 C145.114541,174.026335 143.808324,175.334497 142.196108,175.334497 L114.673135,175.334497 C113.061405,175.334497 111.754703,174.026335 111.754703,172.412659 C111.754703,170.798984 113.061405,169.490822 114.673135,169.490822" id="Fill-8" fill="#345287"></path>
                    <path d="M114.673135,169.490822 L142.196108,169.490822 C143.808324,169.490822 145.114541,170.798984 145.114541,172.412659 C145.114541,174.026335 143.808324,175.334497 142.196108,175.334497 L114.673135,175.334497 C113.061405,175.334497 111.754703,174.026335 111.754703,172.412659 C111.754703,170.798984 113.061405,169.490822 114.673135,169.490822 Z" id="Stroke-10" stroke="#345287"></path>
                    <path d="M102.16367,157.801865 L154.703238,157.801865 C156.315454,157.801865 157.622643,159.110027 157.622643,160.724189 C157.622643,162.337865 156.315454,163.646514 154.703238,163.646514 L102.16367,163.646514 C100.551454,163.646514 99.2447514,162.337865 99.2447514,160.724189 C99.2447514,159.110027 100.551454,157.801865 102.16367,157.801865" id="Fill-12" fill="#345287"></path>
                    <path d="M102.16367,157.801865 L154.703238,157.801865 C156.315454,157.801865 157.622643,159.110027 157.622643,160.724189 C157.622643,162.337865 156.315454,163.646514 154.703238,163.646514 L102.16367,163.646514 C100.551454,163.646514 99.2447514,162.337865 99.2447514,160.724189 C99.2447514,159.110027 100.551454,157.801865 102.16367,157.801865 Z" id="Stroke-14" stroke="#345287"></path>
                    <path d="M37.948427,157.801865 C39.5606432,157.801865 40.8673459,159.110027 40.8673459,160.724189 C40.8673459,162.337865 39.5606432,163.646514 37.948427,163.646514 C36.3362108,163.646514 35.0295081,162.337865 35.0295081,160.724189 C35.0295081,159.110027 36.3362108,157.801865 37.948427,157.801865" id="Fill-16" fill="#345287"></path>
                    <path d="M37.948427,157.801865 C39.5606432,157.801865 40.8673459,159.110027 40.8673459,160.724189 C40.8673459,162.337865 39.5606432,163.646514 37.948427,163.646514 C36.3362108,163.646514 35.0295081,162.337865 35.0295081,160.724189 C35.0295081,159.110027 36.3362108,157.801865 37.948427,157.801865 Z" id="Stroke-18" stroke="#345287"></path>
                    <path d="M20.4351081,163.646368 C22.0468378,163.646368 23.354027,164.954043 23.354027,166.568205 L23.354027,166.569178 C23.354027,168.182854 22.0468378,169.491016 20.4351081,169.491016 C18.8233784,169.491016 17.5166757,168.182854 17.5166757,166.569178 L17.5166757,166.568205 C17.5166757,164.954043 18.8233784,163.646368 20.4351081,163.646368" id="Fill-20" fill="#345287"></path>
                    <path d="M20.4351081,163.646368 C22.0468378,163.646368 23.354027,164.954043 23.354027,166.568205 L23.354027,166.569178 C23.354027,168.182854 22.0468378,169.491016 20.4351081,169.491016 C18.8233784,169.491016 17.5166757,168.182854 17.5166757,166.569178 L17.5166757,166.568205 C17.5166757,164.954043 18.8233784,163.646368 20.4351081,163.646368 Z" id="Stroke-22" stroke="#345287"></path>
                    <g id="Group-26" fill="#345287">
                        <path d="M19.4018108,74.6022162 C17.1231081,66.6642162 19.3337027,58.1137297 25.173,52.2788108 L27.9600811,49.4873514 C32.1594324,45.2943243 37.8542432,42.9475135 43.7864595,42.9664865 C45.9756486,42.9674595 48.1531622,43.2797838 50.2547838,43.8951892 L19.4018108,74.6022162 Z M27.2128378,28.224973 L31.1538649,28.224973 C38.4876486,28.2176757 45.3714324,31.7670811 49.6238108,37.7498919 C43.5261892,36.4733514 37.1785135,37.2327568 31.5532703,39.9128108 L7.37537838,39.9128108 C11.3747838,32.6928649 18.9746757,28.2167027 27.2220811,28.224973 L27.2128378,28.224973 Z M46.0189459,12.51 L48.8065135,15.3004865 C50.1064054,16.6285946 51.2345676,18.1167568 52.1637568,19.7265405 C50.841,22.8045405 50.0864595,26.0946486 49.9332162,29.4402162 C47.3134865,27.1483784 44.2953243,25.3590811 41.031,24.156973 L23.7247297,6.73248649 C31.6554324,4.45135135 40.1976486,6.66437838 46.0272162,12.51 L46.0189459,12.51 Z M62.0987838,15.3004865 L64.8873243,12.51 C70.7207838,6.66291892 79.2649459,4.45037838 87.1980811,6.73248649 L69.8952162,24.156973 C64.2797027,26.226 59.4586216,30.0142703 56.1154865,34.9832432 C54.7577027,27.8348108 56.9974865,20.4737838 62.108027,15.3004865 L62.0987838,15.3004865 Z M103.546946,39.9128108 L79.3792703,39.9128108 C73.7506216,37.2312973 67.400027,36.4718919 61.299,37.7532973 C65.5465135,31.7743784 72.4210541,28.2235135 79.749973,28.224973 L83.690027,28.224973 C91.9413243,28.2123243 99.5470541,32.6894595 103.546946,39.9128108 Z M91.521,74.6022162 L60.6811622,43.9068649 C68.5690541,41.5493514 77.1137027,43.6889189 82.9637027,49.4873514 L85.7507838,52.2788108 C91.5905676,58.1137297 93.7997027,66.6642162 91.521,74.6022162 Z M35.3211081,141.359351 C50.5622432,114.786486 60.1251081,85.3336216 63.4035405,54.8678919 L90.5494865,81.8815135 C91.0924054,82.4224865 91.826027,82.728 92.5922432,82.7314054 C92.7503514,82.7328649 92.9094324,82.7202162 93.0646216,82.6939459 C93.9904054,82.5426486 94.7862973,81.9559459 95.2041892,81.1167568 C100.706838,70.1216757 98.5521892,56.8342703 89.8572162,48.1470811 L87.470027,45.7564865 L108.00073,45.7564865 C109.612946,45.7574595 110.921108,44.4502703 110.921108,42.8365946 C110.922081,42.5208649 110.870514,42.2070811 110.77127,41.9088649 C106.894946,30.2385405 95.985973,22.3686486 83.7007297,22.3803243 L79.9066216,22.3803243 L94.4837027,7.70254054 C95.6211081,6.5592973 95.6162432,4.70967568 94.473973,3.57081081 C94.2526216,3.35043243 93.9981892,3.16654054 93.7194324,3.02740541 C82.7316486,-2.48691892 69.4510541,-0.330810811 60.7682432,8.37827027 L57.9806757,11.1682703 C57.0719189,12.0843243 56.2273784,13.0602162 55.4504595,14.0905946 C54.6822973,13.0602162 53.8440811,12.0843243 52.9421351,11.1682703 L50.1545676,8.37827027 C41.4785676,-0.325459459 28.2052703,-2.48108108 17.2242973,3.02740541 C15.7823514,3.74886486 15.1966216,5.50410811 15.9175946,6.94702703 C16.0567297,7.22627027 16.2401351,7.4807027 16.4605135,7.70254054 L31.0536486,22.3803243 L27.2220811,22.3803243 C14.9368378,22.3686486 4.02689189,30.2385405 0.151540541,41.9088649 C-0.359756757,43.4388649 0.465810811,45.0938919 1.99532432,45.6056757 C2.29354054,45.7058919 2.60635135,45.7564865 2.92208108,45.7564865 L23.4328378,45.7564865 L21.0456486,48.1470811 C12.3506757,56.8342703 10.196027,70.1216757 15.6972162,81.1167568 C16.1165676,81.9559459 16.9124595,82.5426486 17.8367838,82.6939459 C17.9934324,82.7202162 18.1515405,82.7328649 18.3101351,82.7314054 C19.0817027,82.7314054 19.8211622,82.4263784 20.3674865,81.8815135 L45.6458108,56.7252973 C42.5162432,84.7264865 31.9813784,111.384 15.1285135,133.949189 C11.205,132.917838 7.22748649,132.105405 3.21397297,131.518703 L1.39013514,131.334324 L0.805864865,137.152216 L2.50759459,137.318595 C5.42651351,137.736486 8.32694595,138.327568 11.2122973,138.995514 C10.628027,139.729135 10.0437568,140.473946 9.43954054,141.196865 L13.9171622,144.94573 C36.3480811,118.247351 49.7201351,85.1020541 52.1024595,50.2973514 L55.4621351,46.9551892 L57.9772703,49.4591351 C54.9085135,86.6807027 42.146027,122.447676 20.9634324,153.191189 L25.7441351,156.540649 C28.0393784,153.260757 30.2280811,149.857297 32.3501351,146.389135 C46.0038649,152.927027 58.0594865,162.382378 67.6685676,174.089676 L72.1831622,170.387027 C66.5014865,163.472108 59.9922973,157.281568 52.7995946,151.958432 L175.135378,151.958432 L175.135378,146.113784 L44.1518108,146.113784 C41.2902973,144.383838 38.3368378,142.817838 35.3211081,141.359351 Z" id="Fill-24"></path>
                    </g>
                    <path d="M19.4018108,74.6022162 C17.1231081,66.6642162 19.3337027,58.1137297 25.173,52.2788108 L27.9600811,49.4873514 C32.1594324,45.2943243 37.8542432,42.9475135 43.7864595,42.9664865 C45.9756486,42.9674595 48.1531622,43.2797838 50.2547838,43.8951892 L19.4018108,74.6022162 Z M27.2128378,28.224973 L31.1538649,28.224973 C38.4876486,28.2176757 45.3714324,31.7670811 49.6238108,37.7498919 C43.5261892,36.4733514 37.1785135,37.2327568 31.5532703,39.9128108 L7.37537838,39.9128108 C11.3747838,32.6928649 18.9746757,28.2167027 27.2220811,28.224973 L27.2128378,28.224973 Z M46.0189459,12.51 L48.8065135,15.3004865 C50.1064054,16.6285946 51.2345676,18.1167568 52.1637568,19.7265405 C50.841,22.8045405 50.0864595,26.0946486 49.9332162,29.4402162 C47.3134865,27.1483784 44.2953243,25.3590811 41.031,24.156973 L23.7247297,6.73248649 C31.6554324,4.45135135 40.1976486,6.66437838 46.0272162,12.51 L46.0189459,12.51 Z M62.0987838,15.3004865 L64.8873243,12.51 C70.7207838,6.66291892 79.2649459,4.45037838 87.1980811,6.73248649 L69.8952162,24.156973 C64.2797027,26.226 59.4586216,30.0142703 56.1154865,34.9832432 C54.7577027,27.8348108 56.9974865,20.4737838 62.108027,15.3004865 L62.0987838,15.3004865 Z M103.546946,39.9128108 L79.3792703,39.9128108 C73.7506216,37.2312973 67.400027,36.4718919 61.299,37.7532973 C65.5465135,31.7743784 72.4210541,28.2235135 79.749973,28.224973 L83.690027,28.224973 C91.9413243,28.2123243 99.5470541,32.6894595 103.546946,39.9128108 Z M91.521,74.6022162 L60.6811622,43.9068649 C68.5690541,41.5493514 77.1137027,43.6889189 82.9637027,49.4873514 L85.7507838,52.2788108 C91.5905676,58.1137297 93.7997027,66.6642162 91.521,74.6022162 Z" id="Fill-27" fill="#FCC14A"></path>
                </g>
            </g>
        </g>
    </g>
</svg>