<?xml version="1.0" encoding="UTF-8"?>
<svg width="179px" height="180px" viewBox="0 0 179 180" version="1.1" xmlns="http://www.w3.org/2000/svg" xmlns:xlink="http://www.w3.org/1999/xlink">
    <!-- Generator: sketchtool 52.5 (67469) - http://www.bohemiancoding.com/sketch -->
    <title>3F7673E9-207D-468C-8597-1DABBF9EE92C</title>
    <desc>Created with sketchtool.</desc>
    <g id="Our-Services" stroke="none" stroke-width="1" fill="none" fill-rule="evenodd">
        <g id="1.0-CG_Marketing-Web_Why-join" transform="translate(-632.000000, -2869.000000)">
            <g id="Group-17" transform="translate(630.000000, 2870.000000)">
                <rect id="Rectangle" fill-rule="nonzero" x="0" y="0" width="180" height="180"></rect>
                <g id="Group-31" transform="translate(4.000000, 0.000000)">
                    <path d="M34,73 C34,34.8925019 64.6685462,4 102.5,4 C140.331942,4 171,34.8925019 171,73 C171,111.107498 140.331942,142 102.5,142 C64.6685462,142 34,111.107498 34,73" id="Fill-1" fill="#FCC14A"></path>
                    <path d="M111.863173,140.369267 C120.758953,131.901267 127.787393,121.900267 132.68326,110.922527 C139.30874,113.301353 145.647087,116.48318 151.605347,120.440267 C141.204307,131.092913 127.346473,138.342787 111.863173,140.369267 Z M54.3946533,120.440267 C60.3499933,116.48318 66.69126,113.301353 73.3162533,110.922527 C78.2126067,121.897347 85.24056,131.898833 94.1368267,140.369267 C78.65304,138.342787 64.7956933,131.092913 54.3946533,120.440267 Z M140.687953,75.5175267 L170.902167,75.5175267 C170.328387,91.1497467 164.460647,105.44996 155.026127,116.669573 C148.612347,112.334833 141.767867,108.861007 134.609,106.27048 C138.32178,96.5566133 140.40374,86.18818 140.687953,75.5175267 Z M105.51704,100.785747 L105.51704,75.5175267 L135.653387,75.5175267 C135.369173,85.6343533 133.377733,95.4640467 129.833827,104.6674 C121.99752,102.306093 113.841473,101.00718 105.51704,100.785747 Z M105.51704,139.344833 L105.51704,105.819827 C113.166953,106.03396 120.663567,107.21948 127.880347,109.344267 C122.73482,120.694307 115.168127,130.924527 105.51704,139.344833 Z M100.482473,105.819827 L100.482473,139.344833 C90.8313867,130.924527 83.2646933,120.694307 78.1196533,109.3467 C85.3364333,107.21948 92.83256,106.036393 100.482473,105.819827 Z M70.3461267,75.5175267 L100.482473,75.5175267 L100.482473,100.785747 C92.15804,101.00718 84.0019933,102.306093 76.16374,104.66448 C72.62178,95.4640467 70.6308267,85.6343533 70.3461267,75.5175267 Z M74.2808267,32.90548 C67.86948,30.6930933 61.71704,27.7327 55.9198667,24.0525267 C66.1325667,14.2252667 79.3981267,7.55988 94.13926,5.63122 C85.8269933,13.54296 79.1163467,22.7735667 74.2808267,32.90548 Z M131.719173,32.90548 C126.883653,22.7735667 120.17252,13.54296 111.863173,5.63122 C126.604307,7.55988 139.867433,14.2252667 150.082567,24.0525267 C144.282473,27.7327 138.13052,30.6930933 131.719173,32.90548 Z M105.51704,37.6655667 L105.51704,6.65614 C114.534,14.5221333 121.738127,23.9693067 126.840827,34.4360467 C119.938433,36.37444 112.794653,37.45922 105.51704,37.6655667 Z M105.51704,42.7001333 C113.5193,42.4864867 121.37556,41.27566 128.945173,39.0803067 C133.050693,48.9226533 135.3463,59.5383133 135.656307,70.48296 L105.51704,70.48296 L105.51704,42.7001333 Z M100.482473,42.7001333 L100.482473,70.48296 L70.3461267,70.48296 C70.6556467,59.5383133 72.9512533,48.9226533 77.05726,39.0803067 C84.6239533,41.27274 92.4802133,42.4864867 100.482473,42.7001333 Z M100.482473,37.6655667 C93.2053467,37.45922 86.06108,36.37444 79.1591733,34.4360467 C84.2613867,23.9693067 91.466,14.5221333 100.482473,6.65614 L100.482473,37.6655667 Z M170.902167,70.48296 L140.687953,70.48296 C140.380867,59.00444 138.024913,47.8583133 133.765607,37.5200533 C140.72056,35.0833133 147.388867,31.8207 153.65178,27.7477867 C163.886867,39.1888333 170.300647,54.10322 170.902167,70.48296 Z M52.3477333,27.7477867 C58.6106467,31.8207 65.2789533,35.0833133 72.2339067,37.5200533 C67.9750867,47.8583133 65.6191333,59.00444 65.31156,70.48296 L35.0973467,70.48296 C35.6988667,54.10322 42.1126467,39.1888333 52.3477333,27.7477867 Z M35.0973467,75.5175267 L65.31156,75.5175267 C65.59626,86.18818 67.6801667,96.5566133 71.391,106.27048 C64.2316467,108.861007 57.3871667,112.334833 50.9733867,116.669573 C41.5413,105.44996 35.6711267,91.1497467 35.0973467,75.5175267 Z M157.59378,121.386833 C169.032393,108.496007 176,91.5497867 176,73 C176,53.7007467 168.458127,36.1403533 156.183907,23.0733533 L156.183907,23.07092 C156.174173,23.0558333 156.159087,23.05048 156.1513,23.0383133 C143.36608,9.44717333 125.453827,0.748006667 105.529693,0.0657 L105.52726,0.0632666667 L104.10522,0.0253066667 C103.7373,0.0126533333 103.369867,0 103,0 C102.629647,0 102.262213,0.0126533333 101.89478,0.0253066667 L100.477607,0.0632666667 L100.475173,0.0657 C80.55104,0.748006667 62.6383,9.44717333 49.8535667,23.0383133 C49.8433467,23.05048 49.82826,23.0558333 49.8204733,23.07092 C49.8204733,23.07092 49.8204733,23.0733533 49.81804,23.0757867 C37.5413867,36.1403533 30,53.7007467 30,73 C30,91.5497867 36.9676067,108.496007 48.4057333,121.386833 C48.4213067,121.40922 48.4213067,121.434527 48.4388267,121.4574 C48.4840867,121.52018 48.5493,121.550353 48.5969933,121.608267 C61.4503467,135.976613 79.8916067,145.232527 100.47274,145.93722 L100.475173,145.939653 L101.892347,145.977613 C102.262213,145.987347 102.629647,146 103,146 C103.369867,146 103.7373,145.987347 104.10522,145.97518 L105.522393,145.93722 L105.524827,145.934787 C126.128347,145.227173 144.58956,135.95374 157.442913,121.55522 C157.47552,121.512393 157.528567,121.500227 157.55874,121.45448 C157.578693,121.434527 157.578693,121.40922 157.59378,121.386833 Z" id="Fill-3" fill="#345287"></path>
                    <path d="M111.863173,140.369267 C120.758953,131.901267 127.787393,121.900267 132.68326,110.922527 C139.30874,113.301353 145.647087,116.48318 151.605347,120.440267 C141.204307,131.092913 127.346473,138.342787 111.863173,140.369267 Z M54.3946533,120.440267 C60.3499933,116.48318 66.69126,113.301353 73.3162533,110.922527 C78.2126067,121.897347 85.24056,131.898833 94.1368267,140.369267 C78.65304,138.342787 64.7956933,131.092913 54.3946533,120.440267 Z M140.687953,75.5175267 L170.902167,75.5175267 C170.328387,91.1497467 164.460647,105.44996 155.026127,116.669573 C148.612347,112.334833 141.767867,108.861007 134.609,106.27048 C138.32178,96.5566133 140.40374,86.18818 140.687953,75.5175267 Z M105.51704,100.785747 L105.51704,75.5175267 L135.653387,75.5175267 C135.369173,85.6343533 133.377733,95.4640467 129.833827,104.6674 C121.99752,102.306093 113.841473,101.00718 105.51704,100.785747 Z M105.51704,139.344833 L105.51704,105.819827 C113.166953,106.03396 120.663567,107.21948 127.880347,109.344267 C122.73482,120.694307 115.168127,130.924527 105.51704,139.344833 Z M100.482473,105.819827 L100.482473,139.344833 C90.8313867,130.924527 83.2646933,120.694307 78.1196533,109.3467 C85.3364333,107.21948 92.83256,106.036393 100.482473,105.819827 Z M70.3461267,75.5175267 L100.482473,75.5175267 L100.482473,100.785747 C92.15804,101.00718 84.0019933,102.306093 76.16374,104.66448 C72.62178,95.4640467 70.6308267,85.6343533 70.3461267,75.5175267 Z M74.2808267,32.90548 C67.86948,30.6930933 61.71704,27.7327 55.9198667,24.0525267 C66.1325667,14.2252667 79.3981267,7.55988 94.13926,5.63122 C85.8269933,13.54296 79.1163467,22.7735667 74.2808267,32.90548 Z M131.719173,32.90548 C126.883653,22.7735667 120.17252,13.54296 111.863173,5.63122 C126.604307,7.55988 139.867433,14.2252667 150.082567,24.0525267 C144.282473,27.7327 138.13052,30.6930933 131.719173,32.90548 Z M105.51704,37.6655667 L105.51704,6.65614 C114.534,14.5221333 121.738127,23.9693067 126.840827,34.4360467 C119.938433,36.37444 112.794653,37.45922 105.51704,37.6655667 Z M105.51704,42.7001333 C113.5193,42.4864867 121.37556,41.27566 128.945173,39.0803067 C133.050693,48.9226533 135.3463,59.5383133 135.656307,70.48296 L105.51704,70.48296 L105.51704,42.7001333 Z M100.482473,42.7001333 L100.482473,70.48296 L70.3461267,70.48296 C70.6556467,59.5383133 72.9512533,48.9226533 77.05726,39.0803067 C84.6239533,41.27274 92.4802133,42.4864867 100.482473,42.7001333 Z M100.482473,37.6655667 C93.2053467,37.45922 86.06108,36.37444 79.1591733,34.4360467 C84.2613867,23.9693067 91.466,14.5221333 100.482473,6.65614 L100.482473,37.6655667 Z M170.902167,70.48296 L140.687953,70.48296 C140.380867,59.00444 138.024913,47.8583133 133.765607,37.5200533 C140.72056,35.0833133 147.388867,31.8207 153.65178,27.7477867 C163.886867,39.1888333 170.300647,54.10322 170.902167,70.48296 Z M52.3477333,27.7477867 C58.6106467,31.8207 65.2789533,35.0833133 72.2339067,37.5200533 C67.9750867,47.8583133 65.6191333,59.00444 65.31156,70.48296 L35.0973467,70.48296 C35.6988667,54.10322 42.1126467,39.1888333 52.3477333,27.7477867 Z M35.0973467,75.5175267 L65.31156,75.5175267 C65.59626,86.18818 67.6801667,96.5566133 71.391,106.27048 C64.2316467,108.861007 57.3871667,112.334833 50.9733867,116.669573 C41.5413,105.44996 35.6711267,91.1497467 35.0973467,75.5175267 Z M157.59378,121.386833 C169.032393,108.496007 176,91.5497867 176,73 C176,53.7007467 168.458127,36.1403533 156.183907,23.0733533 L156.183907,23.07092 C156.174173,23.0558333 156.159087,23.05048 156.1513,23.0383133 C143.36608,9.44717333 125.453827,0.748006667 105.529693,0.0657 L105.52726,0.0632666667 L104.10522,0.0253066667 C103.7373,0.0126533333 103.369867,0 103,0 C102.629647,0 102.262213,0.0126533333 101.89478,0.0253066667 L100.477607,0.0632666667 L100.475173,0.0657 C80.55104,0.748006667 62.6383,9.44717333 49.8535667,23.0383133 C49.8433467,23.05048 49.82826,23.0558333 49.8204733,23.07092 C49.8204733,23.07092 49.8204733,23.0733533 49.81804,23.0757867 C37.5413867,36.1403533 30,53.7007467 30,73 C30,91.5497867 36.9676067,108.496007 48.4057333,121.386833 C48.4213067,121.40922 48.4213067,121.434527 48.4388267,121.4574 C48.4840867,121.52018 48.5493,121.550353 48.5969933,121.608267 C61.4503467,135.976613 79.8916067,145.232527 100.47274,145.93722 L100.475173,145.939653 L101.892347,145.977613 C102.262213,145.987347 102.629647,146 103,146 C103.369867,146 103.7373,145.987347 104.10522,145.97518 L105.522393,145.93722 L105.524827,145.934787 C126.128347,145.227173 144.58956,135.95374 157.442913,121.55522 C157.47552,121.512393 157.528567,121.500227 157.55874,121.45448 C157.578693,121.434527 157.578693,121.40922 157.59378,121.386833 Z" id="Stroke-5" stroke="#345287"></path>
                    <path d="M24,95 C20.6860629,95 18,92.3137056 18,89 C18,85.6862944 20.6860629,83 24,83" id="Stroke-7" stroke="#345287" stroke-width="6" stroke-linecap="round" stroke-linejoin="round"></path>
                    <path d="M72,94 C75.3139371,94 78,91.3136007 78,87.9997657 C78,84.6863993 75.3139371,82 72,82" id="Stroke-9" stroke="#345287" stroke-width="6" stroke-linecap="round" stroke-linejoin="round"></path>
                    <path d="M48.011863,108 L47.9886212,108 C35.844813,108 26,98.0943211 26,85.8748323 L26,69.1251677 C26,56.9056789 35.844813,47 47.9886212,47 L48.011863,47 C60.1556712,47 70,56.9056789 70,69.1251677 L70,85.8748323 C70,98.0943211 60.1556712,108 48.011863,108" id="Fill-11" fill="#FFFFFF"></path>
                    <path d="M49.0122068,109 L48.9877932,109 C36.2917737,109 26,98.6866569 26,85.9646327 L26,69.034878 C26,56.3128538 36.2917737,46 48.9877932,46 L49.0122068,46 C61.707738,46 72,56.3128538 72,69.034878 L72,85.9646327 C72,98.6866569 61.707738,109 49.0122068,109 Z" id="Stroke-13" stroke="#345287" stroke-width="6" stroke-linecap="round" stroke-linejoin="round"></path>
                    <path d="M25,80.9980416 C25,80.9980416 34.3102109,81.5312763 40.5173418,65 C40.5173418,65 48.2760127,84.19745 70,79.3983374" id="Stroke-15" stroke="#345287" stroke-width="6" stroke-linecap="round" stroke-linejoin="round"></path>
                    <path d="M61,110 C61,117.179513 55.4036355,123 48.5,123 C41.5963645,123 36,117.179513 36,110" id="Stroke-17" stroke="#345287" stroke-width="10" stroke-linecap="round" stroke-linejoin="round"></path>
                    <path d="M77.0005208,176 L56.8460513,176 L0,176 L0,132.280397 C0,119.423421 10.2904056,109 22.984622,109 L73.976356,109 C73.976356,109 93.5225973,111.051426 95,133.171212 L95,176 L78.9129958,176" id="Fill-19" fill="#DB5967"></path>
                    <g id="Group-24" transform="translate(36.000000, 111.000000)">
                        <path d="M25.4651634,0.480465374 C25.4651634,7.67946814 19.8536768,13.5157562 12.9313869,13.5157562 C6.00909695,13.5157562 0.397610342,7.67946814 0.397610342,0.480465374" id="Fill-21" fill="#F0F0F0"></path>
                        <path d="M25.4651634,0.480465374 C25.4651634,7.67946814 19.8536768,13.5157562 12.9313869,13.5157562 C6.00909695,13.5157562 0.397610342,7.67946814 0.397610342,0.480465374" id="Stroke-23" stroke="#345287" stroke-width="6" stroke-linecap="round" stroke-linejoin="round"></path>
                    </g>
                    <path d="M78.0005208,176 L57.8460513,176 L1,176 L1,132.280397 C1,119.423421 11.2904056,109 23.984622,109 L74.976356,109 C74.976356,109 94.5225973,111.051426 96,133.171212 L96,176 L82.2736389,176 L78.0005208,176 Z" id="Stroke-25" stroke="#345287" stroke-width="6" stroke-linecap="round" stroke-linejoin="round"></path>
                    <path d="M22,149 L22,175" id="Stroke-27" stroke="#345287" stroke-width="6" stroke-linecap="round" stroke-linejoin="round"></path>
                    <path d="M77,149 L77,175" id="Stroke-29" stroke="#345287" stroke-width="6" stroke-linecap="round" stroke-linejoin="round"></path>
                </g>
            </g>
        </g>
    </g>
</svg>