<?xml version="1.0" encoding="UTF-8"?>
<svg width="152px" height="163px" viewBox="0 0 152 163" version="1.1" xmlns="http://www.w3.org/2000/svg" xmlns:xlink="http://www.w3.org/1999/xlink">
    <!-- Generator: sketchtool 52.5 (67469) - http://www.bohemiancoding.com/sketch -->
    <title>A5E5A083-BB68-458E-87B7-FDFE510AC40C</title>
    <desc>Created with sketchtool.</desc>
    <g id="Our-Services" stroke="none" stroke-width="1" fill="none" fill-rule="evenodd">
        <g id="1.0-CG_Marketing-Web_Why-join" transform="translate(-644.000000, -3290.000000)">
            <g id="Group-20" transform="translate(630.000000, 3281.000000)">
                <rect id="Rectangle" fill-rule="nonzero" x="0" y="0" width="180" height="180"></rect>
                <g id="Group-23" transform="translate(15.000000, 10.000000)">
                    <path d="M17.1914326,155.674492 C14.5824438,155.67576 12.0442416,154.808219 9.97205056,153.204557 L44.548736,117.443542 C45.5119382,116.431059 45.4858146,114.825285 44.494382,113.843227 C43.5016854,112.862437 41.9110955,112.873846 40.9335674,113.868159 L6.67794944,149.29492 C5.75098315,147.549697 5.26727528,145.599526 5.26853933,143.61893 L5.26853933,69.926568 L30.0337079,91.1316625 L30.0358146,91.1337753 L64.0470506,120.253224 C70.3752809,125.701025 79.6803371,125.698067 86.0026685,120.243082 L144.73147,69.8796625 L144.731461,143.61893 C144.733989,145.60671 144.247753,147.564909 143.314045,149.315626 L108.855337,113.862665 C107.876124,112.856521 106.274157,112.842998 105.277247,113.832662 C104.282444,114.822749 104.267697,116.441201 105.247753,117.449458 L140.014466,153.213854 C137.944382,154.812867 135.412079,155.67576 132.808567,155.674492 L17.1914326,155.674492 Z M29.1143258,45.1452451 L29.1143258,83.6424157 L6.65182584,64.409043 L29.1143258,45.1452451 Z M43.1026685,5.32542362 L84.8599719,5.32542362 L84.8599719,22.4962215 C84.8679775,30.3036651 91.125,36.6316835 98.8457865,36.6397123 L115.826966,36.6397123 L115.826966,87.9594131 L82.7321629,116.341896 C78.2932584,120.169977 71.7589888,120.173358 67.3162921,116.348657 L34.1734551,87.973358 L34.1734551,14.3545234 C34.1789326,9.37070709 38.173736,5.33091706 43.1026685,5.32542362 Z M89.9178371,8.93165459 L112.307444,31.5244761 L98.8457865,31.5244761 C93.9172753,31.5185601 89.9233146,27.4800378 89.9178371,22.4953764 L89.9178371,8.93165459 Z M143.348174,64.3574892 L120.885674,83.6217097 L120.885674,45.1258068 L143.348174,64.3574892 Z M148.47809,62.0485549 L120.885674,38.4238121 L120.885674,34.017652 C120.886938,33.3373108 120.618961,32.6869722 120.142837,32.2077753 L89.2394663,1.0227937 C89.2314607,1.01603255 89.2234551,1.01138425 89.2167135,1.0046231 C88.7410112,0.498381627 88.0782303,0.211455118 87.3889045,0.211455118 C87.2928371,0.211455118 87.1976124,0.216948556 87.104073,0.228358005 L87.0598315,0.223709711 C86.9751404,0.21568084 86.8900281,0.211455118 86.8053371,0.211455118 L43.1026685,0.211455118 C35.380618,0.21948399 29.1244382,6.54750236 29.1143258,14.3545234 L29.1143258,38.4398698 L1.67148876,61.9741822 C0.780337079,62.3937963 0.211938202,63.2959879 0.210674157,64.2890325 L0.210674157,143.61893 C0.222050562,153.096802 7.81769663,160.777051 17.1914326,160.788883 L132.808567,160.788883 C142.182725,160.777051 149.780478,153.096802 149.789326,143.61893 L149.789326,64.2890325 C149.789326,63.3564157 149.2875,62.4969039 148.47809,62.0485549 Z" id="Fill-1" fill="#345287"></path>
                    <path d="M17.1914326,155.674492 C14.5824438,155.67576 12.0442416,154.808219 9.97205056,153.204557 L44.548736,117.443542 C45.5119382,116.431059 45.4858146,114.825285 44.494382,113.843227 C43.5016854,112.862437 41.9110955,112.873846 40.9335674,113.868159 L6.67794944,149.29492 C5.75098315,147.549697 5.26727528,145.599526 5.26853933,143.61893 L5.26853933,69.926568 L30.0337079,91.1316625 L30.0358146,91.1337753 L64.0470506,120.253224 C70.3752809,125.701025 79.6803371,125.698067 86.0026685,120.243082 L144.73147,69.8796625 L144.731461,143.61893 C144.733989,145.60671 144.247753,147.564909 143.314045,149.315626 L108.855337,113.862665 C107.876124,112.856521 106.274157,112.842998 105.277247,113.832662 C104.282444,114.822749 104.267697,116.441201 105.247753,117.449458 L140.014466,153.213854 C137.944382,154.812867 135.412079,155.67576 132.808567,155.674492 L17.1914326,155.674492 Z M29.1143258,45.1452451 L29.1143258,83.6424157 L6.65182584,64.409043 L29.1143258,45.1452451 Z M43.1026685,5.32542362 L84.8599719,5.32542362 L84.8599719,22.4962215 C84.8679775,30.3036651 91.125,36.6316835 98.8457865,36.6397123 L115.826966,36.6397123 L115.826966,87.9594131 L82.7321629,116.341896 C78.2932584,120.169977 71.7589888,120.173358 67.3162921,116.348657 L34.1734551,87.973358 L34.1734551,14.3545234 C34.1789326,9.37070709 38.173736,5.33091706 43.1026685,5.32542362 Z M89.9178371,8.93165459 L112.307444,31.5244761 L98.8457865,31.5244761 C93.9172753,31.5185601 89.9233146,27.4800378 89.9178371,22.4953764 L89.9178371,8.93165459 Z M143.348174,64.3574892 L120.885674,83.6217097 L120.885674,45.1258068 L143.348174,64.3574892 Z M148.47809,62.0485549 L120.885674,38.4238121 L120.885674,34.017652 C120.886938,33.3373108 120.618961,32.6869722 120.142837,32.2077753 L89.2394663,1.0227937 C89.2314607,1.01603255 89.2234551,1.01138425 89.2167135,1.0046231 C88.7410112,0.498381627 88.0782303,0.211455118 87.3889045,0.211455118 C87.2928371,0.211455118 87.1976124,0.216948556 87.104073,0.228358005 L87.0598315,0.223709711 C86.9751404,0.21568084 86.8900281,0.211455118 86.8053371,0.211455118 L43.1026685,0.211455118 C35.380618,0.21948399 29.1244382,6.54750236 29.1143258,14.3545234 L29.1143258,38.4398698 L1.67148876,61.9741822 C0.780337079,62.3937963 0.211938202,63.2959879 0.210674157,64.2890325 L0.210674157,143.61893 C0.222050562,153.096802 7.81769663,160.777051 17.1914326,160.788883 L132.808567,160.788883 C142.182725,160.777051 149.780478,153.096802 149.789326,143.61893 L149.789326,64.2890325 C149.789326,63.3564157 149.2875,62.4969039 148.47809,62.0485549 Z" id="Stroke-3" stroke="#345287"></path>
                    <path d="M76.6554354,43.8420748 L80.5609129,53.7361798 C80.5748174,53.7771693 80.5861938,53.8177362 80.6034691,53.8591483 C80.6182163,53.8988701 80.6367556,53.9347887 80.6548736,53.9723976 L89.4888624,76.3505525 L67.3495365,76.339143 L60.6142837,59.2739882 L76.6554354,43.8420748 Z" id="Fill-5" fill="#FCC14A"></path>
                    <path d="M66.381573,89.6517302 C66.9634551,90.408557 67.0961798,91.421885 66.7317135,92.3063286 C66.3685112,93.1907722 65.5624719,93.8094178 64.6228652,93.9260478 C63.6819944,94.0418325 62.7516573,93.6382761 62.1874719,92.8683496 L56.2532022,84.9565307 L61.3241292,82.9079008 L66.381573,89.6517302 Z" id="Fill-7" fill="#FCC14A"></path>
                    <path d="M45.6266713,67.1441837 C45.9131882,66.4642651 46.4558848,65.9288661 47.1355197,65.6563071 L56.679059,61.8007585 L62.8707725,77.4938215 L53.3247051,81.3481024 C51.9144522,81.9194199 50.312486,81.2251339 49.7487219,79.7981076 L45.6005478,69.2726798 C45.3270927,68.5868451 45.3372051,67.8219895 45.6266713,67.1441837 M87.6186657,54.2760157 C89.3588343,55.0303071 90.5592556,56.6762257 90.7547612,58.580336 C90.9502669,60.4827559 90.1126264,62.3458766 88.5645927,63.4449869 L84.7998455,53.9100682 C85.7541994,53.7634357 86.7304635,53.8906299 87.6186657,54.2760157" id="Fill-9" fill="#FCC14A"></path>
                    <path d="M45.6260815,67.0022417 C45.9125983,66.3227457 46.4552949,65.7873467 47.1349298,65.5147877 L56.6784691,61.6592391 L62.8701826,77.3518795 L53.3241152,81.2065829 C51.9138624,81.777478 50.3118961,81.0836144 49.748132,79.6565882 L45.5999579,69.1307378 C45.3265028,68.4449031 45.3366152,67.6800475 45.6260815,67.0022417 Z M76.6554354,43.8419058 L80.5609129,53.7360108 C80.5748174,53.7770003 80.5861938,53.8179898 80.6034691,53.8589793 C80.6182163,53.898701 80.6367556,53.9346197 80.6548736,53.9726512 L89.4892837,76.350806 L67.3495365,76.3393966 L60.6142837,59.2738192 L76.6554354,43.8419058 Z M88.0663904,54.7053913 C89.5263624,55.3379819 90.5342275,56.7193703 90.698132,58.3175383 C90.8620365,59.9135934 90.1592275,61.4771105 88.8602107,62.399163 L85.7013624,54.3986039 C86.5023455,54.2756354 87.3214466,54.3821236 88.0663904,54.7053913 Z M66.3816994,89.6516879 C66.9635815,90.4085147 67.0963062,91.4218428 66.7318399,92.3062864 C66.3686376,93.1911525 65.562177,93.8093756 64.6225702,93.9260055 C63.6821208,94.0417903 62.7517837,93.6382339 62.1875983,92.8683073 L56.2533287,84.9564885 L61.3238343,82.9078585 L66.3816994,89.6516879 Z M45.5409691,81.3549058 C46.5109129,83.8049793 48.7010815,85.5442864 51.2852107,85.916995 L58.5791713,95.6370003 C60.9745365,98.8054465 65.4543118,99.4185987 68.5971489,97.0086696 C71.7408287,94.5966276 72.3635815,90.070457 69.9922331,86.8834176 L65.6881601,81.1461551 L66.2489747,80.9196564 L92.8314185,80.9331787 C93.5835253,80.9331787 94.2863343,80.5562444 94.7076826,79.9266118 C95.1298736,79.2969793 95.2145646,78.4987404 94.9352107,77.7921997 L90.5611938,66.7123572 C94.5505197,64.5420265 96.294059,59.6904753 94.6145646,55.4364412 C92.9354916,51.1824071 88.3672331,48.8789661 83.9961657,50.0820291 L79.6191994,38.9996512 C79.3419522,38.2931105 78.7331039,37.7733467 77.9991152,37.6115016 C77.2638624,37.4483887 76.4982725,37.6655908 75.9538904,38.1895803 L56.6978511,56.7185252 L45.45375,61.2599084 C41.7227107,62.7718717 39.9062781,67.0525278 41.3906882,70.8282102 L45.5409691,81.3549058 Z" id="Fill-11" fill="#345287"></path>
                    <path d="M95.4566713,55.027011 C96.0158006,56.1582367 97.3775983,56.6171501 98.4962781,56.0509034 L104.320154,53.1064205 C105.438834,52.5414415 105.89389,51.1642787 105.332654,50.033053 C104.774789,48.9026724 103.412992,48.4429139 102.294312,49.0091606 L96.4691713,51.9544887 C95.3504916,52.5198903 94.8966994,53.8957853 95.4566713,55.027011" id="Fill-13" fill="#345287"></path>
                    <path d="M103.930323,58.9306483 L99.0763904,58.2765066 C98.2682444,58.1556509 97.459677,58.4865249 96.9582725,59.1377087 C96.458132,59.7897375 96.3418399,60.6640394 96.6565871,61.4255144 C96.9713343,62.1874121 97.6669803,62.7185853 98.4780758,62.8183123 L103.332008,63.4724541 C104.562346,63.6207769 105.683132,62.7422493 105.846194,61.4994646 C106.010941,60.2575249 105.156447,59.1131995 103.930323,58.9306483" id="Fill-15" fill="#345287"></path>
                    <path d="M92.3270225,50.3760549 C93.2948596,51.1776743 94.722809,51.0331546 95.5132584,50.0536323 L98.4264607,46.4550076 C99.2190169,45.4750627 99.0766011,44.0324013 98.1075,43.2307819 C97.1396629,42.4312753 95.7121348,42.575795 94.92,43.5544722 L92.0072191,47.153942 C91.2163483,48.1326192 91.3583427,49.5761257 92.3270225,50.3760549" id="Fill-17" fill="#345287"></path>
                    <path d="M17.4389326,155.674492 C14.8299438,155.67576 12.2921629,154.808219 10.2199719,153.204557 L44.796236,117.443542 C45.7594382,116.431059 45.7333146,114.825285 44.741882,113.843227 C43.7491854,112.862437 42.1585955,112.873846 41.1810674,113.868159 L6.92544944,149.29492 C5.99848315,147.549697 5.51477528,145.599526 5.51603933,143.61893 L5.51603933,69.926568 L30.2812079,91.1316625 L30.2833146,91.1337753 L64.2945506,120.253224 C70.6227809,125.701025 79.9278371,125.698067 86.2501685,120.243082 L144.97897,69.8796625 L144.978961,143.61893 C144.981489,145.60671 144.495253,147.564909 143.561545,149.315626 L109.102837,113.862665 C108.123624,112.856521 106.521657,112.842998 105.524747,113.832662 C104.529944,114.822749 104.515197,116.441201 105.495253,117.449458 L140.261966,153.213854 C138.191882,154.812867 135.659579,155.67576 133.056067,155.674492 L17.4389326,155.674492 Z" id="Fill-19" fill="#F0F0F0"></path>
                    <path d="M89.9176264,8.93178136 L112.307654,31.5241803 L98.8459972,31.5241803 C93.9170646,31.5186869 89.9231039,27.4801646 89.9176264,22.4955031 L89.9176264,8.93178136 Z" id="Fill-21" fill="#DB5967"></path>
                </g>
            </g>
        </g>
    </g>
</svg>