<?xml version="1.0" encoding="UTF-8"?>
<svg width="169px" height="182px" viewBox="0 0 169 182" version="1.1" xmlns="http://www.w3.org/2000/svg" xmlns:xlink="http://www.w3.org/1999/xlink">
    <!-- Generator: sketchtool 52.5 (67469) - http://www.bohemiancoding.com/sketch -->
    <title>12CE08FB-6B02-4E69-913E-B3253687B0A5</title>
    <desc>Created with sketchtool.</desc>
    <defs>
        <polygon id="path-1" points="0.0884623907 0.431071137 75.3980117 0.431071137 75.3980117 75.7402898 0.0884623907 75.7402898"></polygon>
    </defs>
    <g id="Our-Services" stroke="none" stroke-width="1" fill="none" fill-rule="evenodd">
        <g id="1.0-CG_Marketing-Web_Why-join" transform="translate(-215.000000, -2870.000000)">
            <g id="Group-13" transform="translate(210.000000, 2870.000000)">
                <rect id="Rectangle" fill-rule="nonzero" x="0" y="0" width="180" height="180"></rect>
                <g id="Group-44" transform="translate(8.000000, 0.000000)">
                    <path d="M22.2288087,95.4474245 C18.7517125,95.4474245 15.933007,92.6206898 15.933007,89.1336752 C15.933007,85.6461883 18.7517125,82.8194536 22.2288087,82.8194536" id="Stroke-1" stroke="#345287" stroke-width="6" stroke-linecap="round" stroke-linejoin="round"></path>
                    <path d="M71.7731318,94.789695 C75.2497557,94.789695 78.0689335,91.9629603 78.0689335,88.4759458 C78.0689335,84.9884589 75.2497557,82.1617242 71.7731318,82.1617242" id="Stroke-3" stroke="#345287" stroke-width="6" stroke-linecap="round" stroke-linejoin="round"></path>
                    <path d="M47.2082641,109.479978 C34.3979843,109.479978 24.0134536,99.0954472 24.0134536,86.2851673 L24.0134536,69.1825959 C24.0134536,56.3727883 34.3979843,45.9877854 47.2082641,45.9877854 C60.018544,45.9877854 70.4030746,56.3727883 70.4030746,69.1825959 L70.4030746,86.2851673 C70.4030746,99.0954472 60.018544,109.479978 47.2082641,109.479978 Z" id="Stroke-5" stroke="#345287" stroke-width="6" stroke-linecap="round" stroke-linejoin="round"></path>
                    <path d="M23.4883942,81.2409691 C23.4883942,81.2409691 32.9320968,81.7671149 39.2278985,65.4556513 C39.2278985,65.4556513 47.0974146,84.398316 69.1327207,79.6620595" id="Stroke-7" stroke="#345287" stroke-width="6" stroke-linecap="round" stroke-linejoin="round"></path>
                    <path d="M57.7105872,112.263072 C57.7105872,119.38257 51.9555726,125.154115 44.8568554,125.154115 C37.7581382,125.154115 32.0031236,119.38257 32.0031236,112.263072" id="Stroke-9" stroke="#345287" stroke-width="10" stroke-linecap="round" stroke-linejoin="round"></path>
                    <path d="M78.1718012,178.822779 L57.7111539,178.822779 L-4.72303207e-05,178.822779 L-4.72303207e-05,134.87591 C-4.72303207e-05,121.951333 10.4468274,111.473759 23.334565,111.473759 L75.101358,111.473759 C75.101358,111.473759 94.9456496,113.535834 96.4447399,135.770925 L96.4447399,178.822779 L80.1129673,178.822779" id="Fill-11" fill="#DB5967"></path>
                    <g id="Group-16" transform="translate(34.950437, 113.645125)">
                        <path d="M26.1257353,0.0713177843 C26.1257353,7.19081633 20.3707207,12.9623615 13.2720035,12.9623615 C6.1732863,12.9623615 0.41827172,7.19081633 0.41827172,0.0713177843" id="Fill-13" fill="#F0F0F0"></path>
                        <path d="M26.1257353,0.0713177843 C26.1257353,7.19081633 20.3707207,12.9623615 13.2720035,12.9623615 C6.1732863,12.9623615 0.41827172,7.19081633 0.41827172,0.0713177843" id="Stroke-15" stroke="#345287" stroke-width="6" stroke-linecap="round" stroke-linejoin="round"></path>
                    </g>
                    <path d="M78.1718012,178.822779 L57.7111539,178.822779 L-4.72303207e-05,178.822779 L-4.72303207e-05,134.87591 C-4.72303207e-05,121.951333 10.4468274,111.473759 23.334565,111.473759 L75.101358,111.473759 C75.101358,111.473759 94.9456496,113.535834 96.4447399,135.770925 L96.4447399,178.822779 L82.5103784,178.822779 L78.1718012,178.822779 Z" id="Stroke-17" stroke="#345287" stroke-width="6" stroke-linecap="round" stroke-linejoin="round"></path>
                    <path d="M21.1531854,150.159878 L21.1531854,176.535178" id="Stroke-19" stroke="#345287" stroke-width="6" stroke-linecap="round" stroke-linejoin="round"></path>
                    <path d="M74.077877,150.159878 L74.077877,176.535178" id="Stroke-21" stroke="#345287" stroke-width="6" stroke-linecap="round" stroke-linejoin="round"></path>
                    <path d="M93.295186,86.8956665 L93.295186,8.43854694 C93.295186,7.06839534 94.4022647,5.9584828 95.7676933,5.9584828 L134.880539,5.9584828 L134.880539,23.83327 L152.702428,23.83327 L152.702428,86.8956665 C152.702428,88.2653458 151.595349,89.3757306 150.229921,89.3757306 L95.7676933,89.3757306 C94.4022647,89.3757306 93.295186,88.2653458 93.295186,86.8956665 Z M140.821169,10.1714274 L148.502236,17.875165 L140.821169,17.875165 L140.821169,10.1714274 Z M139.080259,0.000377842566 L92.2995708,0.000377842566 C89.5682414,0.000377842566 87.354084,2.22067522 87.354084,4.96050612 L87.354084,90.3737073 C87.354084,93.1135382 89.5682414,95.3338356 92.2995708,95.3338356 L153.698043,95.3338356 C156.429373,95.3338356 158.643058,93.1135382 158.643058,90.3737073 L158.643058,19.6222146 L139.080259,0.000377842566 Z" id="Fill-23" fill="#335287"></path>
                    <path d="M120.028303,64.3099854 L115.317551,59.5841195 C114.157574,58.4203644 112.277335,58.4203644 111.117359,59.5836472 C109.957382,60.7474023 109.957382,62.633309 111.117359,63.7965918 L117.230851,69.9285044 C118.776227,71.4781312 121.280851,71.4781312 122.826227,69.9285044 L146.762082,45.9213324 C147.922058,44.7585219 147.922058,42.8716706 146.762082,41.7083878 C145.601633,40.5455773 143.721394,40.5455773 142.561417,41.7083878 L120.028303,64.3099854 Z" id="Fill-25" fill="#335287"></path>
                    <path d="M140.821169,77.4588595 L105.176445,77.4588595 L105.176445,50.6462064 L125.969122,50.6462064 C127.609431,50.6462064 128.939909,49.3124222 128.939909,47.6673901 C128.939909,46.0214134 127.609431,44.6876292 125.969122,44.6876292 L104.181303,44.6876292 C101.449973,44.6876292 99.2358157,46.9083988 99.2358157,49.6477574 L99.2358157,78.4573085 C99.2358157,81.1966671 101.449973,83.4174367 104.181303,83.4174367 L141.816311,83.4174367 C144.548113,83.4174367 146.761798,81.1966671 146.761798,78.4573085 L146.761798,62.5628886 C146.761798,60.9178566 145.432265,59.5836 143.791483,59.5836 C142.150702,59.5836 140.821169,60.9178566 140.821169,62.5628886 L140.821169,77.4588595 Z" id="Fill-27" fill="#335287"></path>
                    <path d="M101.906879,11.9198466 L102.50576,11.9198466 C103.978873,11.9198466 105.173328,13.1180799 105.173328,14.5959166 L105.173328,15.196214 C105.173328,16.6740507 103.978873,17.872284 102.50576,17.872284 L101.906879,17.872284 C100.433293,17.872284 99.2393108,16.6740507 99.2393108,15.196214 L99.2393108,14.5959166 C99.2393108,13.1180799 100.433293,11.9198466 101.906879,11.9198466" id="Fill-29" fill="#335287"></path>
                    <path d="M102.206225,23.836765 C103.845117,23.836765 105.173234,25.1691324 105.173234,26.8127475 C105.173234,28.4563627 103.845117,29.7892023 102.206225,29.7892023 C100.567333,29.7892023 99.2392163,28.4563627 99.2392163,26.8127475 C99.2392163,25.1691324 100.567333,23.836765 102.206225,23.836765" id="Fill-31" fill="#335287"></path>
                    <path d="M114.087626,23.8335061 L125.968886,23.8335061 C127.609667,23.8335061 128.939673,25.1672904 128.939673,26.8127948 C128.939673,28.4582991 127.609667,29.7920834 125.968886,29.7920834 L114.087626,29.7920834 C112.446845,29.7920834 111.117311,28.4582991 111.117311,26.8127948 C111.117311,25.1672904 112.446845,23.8335061 114.087626,23.8335061" id="Fill-33" fill="#335287"></path>
                    <path d="M114.087626,11.916635 L125.968886,11.916635 C127.609667,11.916635 128.939673,13.2504192 128.939673,14.8963959 C128.939673,16.541428 127.609667,17.8752122 125.968886,17.8752122 L114.087626,17.8752122 C112.446845,17.8752122 111.117311,16.541428 111.117311,14.8963959 C111.117311,13.2504192 112.446845,11.916635 114.087626,11.916635" id="Fill-35" fill="#335287"></path>
                    <path d="M165.067751,145.179016 L158.310509,146.870334 L157.863238,148.724596 C157.094801,151.906975 155.83564,154.940106 154.122597,157.738503 L153.128398,159.366532 L156.716486,165.342584 L151.285943,170.774071 L145.310363,167.184567 L143.682334,168.180654 C140.879215,169.893226 137.8475,171.149552 134.666538,171.921296 L132.812276,172.36715 L131.120958,179.124392 L123.444614,179.124392 L121.753296,172.36715 L119.899034,171.921296 C116.716655,171.152386 113.683524,169.893226 110.885127,168.180654 L109.257098,167.184567 L103.281045,170.774071 L97.8495586,165.342584 L101.439063,159.366532 L100.444392,157.738503 C98.7304041,154.937272 97.4740776,151.903669 96.703751,148.724596 L96.2564799,146.870334 L89.4992379,145.179016 L89.4992379,137.502672 L96.2564799,135.811354 L96.703751,133.957092 C97.4712437,130.773296 98.7304041,127.741109 100.444392,124.941296 L101.439063,123.315156 L97.8495586,117.337686 L103.281045,111.907144 L109.257098,115.495231 L110.885127,114.501033 C113.686357,112.78799 116.719961,111.532135 119.899034,110.760392 L121.753296,110.313121 L123.444614,103.555879 L131.120958,103.555879 L132.812276,110.313121 L134.666538,110.760392 C137.850334,111.528829 140.882521,112.78799 143.682334,114.501033 L145.310363,115.495231 L151.285943,111.907144 L156.716486,117.337686 L153.128398,123.315156 L154.122597,124.941296 C155.83564,127.744415 157.091494,130.776129 157.863238,133.957092 L158.310509,135.811354 L165.067751,137.502672 L165.067751,145.179016 Z" id="Fill-37" fill="#FCC14A"></path>
                    <g id="Group-41" transform="translate(89.737609, 103.254455)">
                        <mask id="mask-2" fill="white">
                            <use xlink:href="#path-1"></use>
                        </mask>
                        <g id="Clip-40"></g>
                        <path d="M41.0881592,0.431071137 L34.397512,0.431071137 C32.2305848,0.431071137 30.3418443,1.90512945 29.8156985,4.00735102 L29.0293137,7.14958426 C26.5860892,7.84009155 24.2415761,8.81209155 22.0321417,10.0514152 L19.2545265,8.38371254 C18.5007306,7.93077376 17.6600309,7.70973586 16.8249988,7.70973586 C15.604095,7.70973586 14.3945265,8.18251137 13.4843983,9.09263965 L8.7500309,13.8255901 C7.21693469,15.358214 6.92410671,17.7386222 8.04015918,19.5971353 L9.70880641,22.3747504 C8.46475977,24.5884356 7.49134286,26.9343656 6.8050863,29.3733394 L3.66521458,30.1592519 C1.562993,30.6853977 0.0884623907,32.5746105 0.0884623907,34.7410653 L0.0884623907,41.4317125 C0.0884623907,43.5981673 1.562993,45.4869079 3.66521458,46.0135259 L6.80650321,46.7994385 C7.49606589,49.242663 8.46853819,51.5867038 9.70880641,53.7961382 L8.04063149,56.573281 C6.92410671,58.4322665 7.21646239,60.8122023 8.7495586,62.3452985 L13.4839259,67.0791936 C14.3940542,67.9897942 15.6036227,68.463042 16.8249988,68.463042 C17.6600309,68.463042 18.5007306,68.2415318 19.2554711,67.7881207 L22.0311971,66.1208904 C24.2448822,67.3644647 26.5903399,68.336937 29.0302583,69.0246105 L29.8156985,72.1640099 C30.3418443,74.2657592 32.2305848,75.7402898 34.397512,75.7402898 L41.0881592,75.7402898 C43.2550863,75.7402898 45.1438268,74.2657592 45.6695003,72.1640099 L46.4558851,69.0231936 C48.9000542,68.3331586 51.2445673,67.360214 53.4549464,66.1204181 L56.2316169,67.7881207 C56.9858851,68.2415318 57.8265848,68.463042 58.6616169,68.463042 C59.8834653,68.463042 61.0925615,67.9897942 62.0036344,67.0787213 L66.7365848,62.3448262 C68.2687364,60.81173 68.5610921,58.4327388 67.445512,56.5742257 L65.7778093,53.7970828 C67.0204391,51.5852869 67.993856,49.2393569 68.6810571,46.7994385 L71.8214012,46.0135259 C73.9236227,45.4869079 75.3981534,43.5981673 75.3981534,41.4317125 L75.3981534,34.7410653 C75.3981534,32.5746105 73.9231504,30.6853977 71.8214012,30.1592519 L68.6801125,29.3728671 C67.9900776,26.9301149 67.0176052,24.5865464 65.777337,22.3752227 L67.4459843,19.596663 C68.5610921,17.7381499 68.2687364,15.3586863 66.7361125,13.8260624 L62.0031621,9.09311195 C61.0920892,8.18251137 59.8834653,7.70973586 58.6616169,7.70973586 C57.8265848,7.70973586 56.9863574,7.93077376 56.2316169,8.38371254 L53.4549464,10.0514152 C51.2407889,8.80784082 48.8943866,7.83489621 46.4558851,7.14816735 L45.6695003,4.00735102 C45.1438268,1.90512945 43.2550863,0.431071137 41.0881592,0.431071137 M41.0881592,5.15410321 L42.5622175,11.0432519 L44.1779668,11.4333743 C46.9532204,12.1031003 49.5957569,13.2007329 52.0356752,14.6932111 L53.4549464,15.5603598 L58.6635061,12.4327679 L63.3959843,17.1657184 L60.2683924,22.375695 L61.1355411,23.7935493 C62.6280192,26.2363015 63.7232904,28.8783656 64.3958501,31.6512577 L64.7859726,33.267007 L70.6751213,34.7410653 L70.6751213,41.4317125 L64.7859726,42.9057708 L64.3958501,44.5219924 C63.7261242,47.2953569 62.6280192,49.9388379 61.1355411,52.3778117 L60.2683924,53.7970828 L63.3959843,59.0056426 L58.6635061,63.7395376 L53.4549464,60.6110012 L52.0356752,61.4790945 C49.592923,62.9720449 46.9503866,64.0663714 44.1779668,64.7394035 L42.5622175,65.1276367 L41.0881592,71.0172577 L34.397512,71.0172577 L32.9234536,65.1276367 L31.3072321,64.7394035 C28.5338676,64.0692052 25.8899143,62.9720449 23.4509405,61.4790945 L22.0316694,60.6110012 L16.8235819,63.7395376 L12.0896869,59.0056426 L15.2182233,53.7970828 L14.3515469,52.3778117 C12.8571796,49.9364764 11.7623808,47.2929953 11.0907656,44.5219924 L10.7011155,42.9057708 L4.81149446,41.4317125 L4.81149446,34.7410653 L10.7011155,33.267007 L11.0907656,31.6512577 C11.7595469,28.8760041 12.8571796,26.2334676 14.3515469,23.7935493 L15.2182233,22.375695 L12.0896869,17.1657184 L16.8235819,12.4327679 L22.0316694,15.5603598 L23.4509405,14.6932111 C25.8922758,13.2007329 28.5362292,12.1059341 31.3072321,11.4333743 L32.9234536,11.0432519 L34.397512,5.15410321 L41.0881592,5.15410321" id="Fill-39" fill="#345287" mask="url(#mask-2)"></path>
                    </g>
                    <path d="M129.044949,138.80245 C125.327451,137.312334 124.252961,136.411179 124.252961,134.78315 C124.252961,133.48101 125.239602,131.959721 128.020524,131.959721 C130.480751,131.959721 132.36713,132.92936 132.384133,132.937861 C132.5825,133.044129 132.805427,133.100334 133.025993,133.100334 C133.563946,133.100334 134.0405,132.774444 134.237923,132.270024 L134.913789,130.542812 C135.148996,129.913231 134.791935,129.364887 134.336634,129.168409 C132.82243,128.508602 129.862034,127.998514 129.831806,127.993319 C129.784104,127.984817 129.618325,127.949395 129.618325,127.755278 L129.608879,125.24971 C129.608879,124.494969 128.978827,123.880503 128.205194,123.880503 L126.992792,123.880503 C126.220104,123.880503 125.590524,124.494497 125.590524,125.250182 L125.593357,127.884689 C125.593357,128.086835 125.374681,128.174211 125.294862,128.192631 C121.557999,129.082922 119.222932,131.81992 119.222932,135.271984 C119.222932,139.576083 122.78032,141.521027 126.622034,142.980917 C129.692949,144.186234 130.945025,145.409027 130.945025,147.20189 C130.945025,149.152975 129.171527,150.516042 126.629591,150.516042 C124.459357,150.516042 121.522104,149.140223 121.492821,149.126054 C121.304844,149.037261 121.105532,148.99192 120.901025,148.99192 C120.341818,148.99192 119.855346,149.330089 119.660757,149.853401 L119.015591,151.600922 C118.786051,152.253173 119.138862,152.782625 119.590856,153.018304 C121.395054,153.957715 124.885375,154.508421 125.040763,154.532508 C125.082798,154.538176 125.295334,154.613272 125.295334,154.807389 L125.295334,157.430089 C125.295334,158.185301 125.925859,158.799768 126.699492,158.799768 L127.95204,158.799768 C128.726145,158.799768 129.356197,158.185301 129.356197,157.430089 L129.356197,154.669949 C129.356197,154.412071 129.546535,154.388928 129.586209,154.379482 C133.56678,153.485412 136.018978,150.573191 136.018978,146.916147 C136.017562,143.160392 133.931871,140.733226 129.044949,138.80245" id="Fill-42" fill="#345287"></path>
                </g>
            </g>
        </g>
    </g>
</svg>