<?xml version="1.0" encoding="UTF-8"?>
<svg width="64px" height="66px" viewBox="0 0 64 66" version="1.1" xmlns="http://www.w3.org/2000/svg" xmlns:xlink="http://www.w3.org/1999/xlink">
    <!-- Generator: sketchtool 52.5 (67469) - http://www.bohemiancoding.com/sketch -->
    <title>490455D4-3311-4C04-AD2E-CCE59BA78884</title>
    <desc>Created with sketchtool.</desc>
    <g id="Our-Services" stroke="none" stroke-width="1" fill="none" fill-rule="evenodd">
        <g id="2.0-CG_Marketing-Web_Membership" transform="translate(-1336.000000, -1921.000000)" fill="#3EB29B" fill-rule="nonzero">
            <g id="Group-8" transform="translate(1335.000000, 1896.000000)">
                <g id="Group-3" transform="translate(0.387387, 0.000000)">
                    <g id="check-form" transform="translate(0.000000, 25.000000)">
                        <path d="M49.748315,34.9932192 L49.748315,5.3155046 L5.87721131,5.3155046 L5.87721131,60.6846474 L26.0578468,60.6846474 C27.5056227,60.6846474 28.6900708,61.8805485 28.6900708,63.3423237 C28.6900708,64.8040989 27.5056227,66 26.0578468,66 L3.24483668,66 C1.79706075,66 0.612612613,64.8040989 0.612612613,63.3423237 L0.612612613,2.65767629 C0.612612613,1.19590113 1.79721131,0 3.24483668,0 L52.3803885,0 C53.8281645,0 55.0126126,1.19590113 55.0126126,2.65767629 L55.0126126,34.9932192 C55.0126126,36.4549944 53.8281645,37.6508955 52.3803885,37.6508955 C50.9326126,37.6508955 49.748315,36.4549944 49.748315,34.9932192 Z M63.7190424,40.9103036 C62.6058451,39.9472005 60.9139686,40.0347826 59.9343244,41.1291839 L45.2851982,57.150557 L37.9384018,50.1904055 C36.8698241,49.1835864 35.1777947,49.2273023 34.1536838,50.2779876 C33.1295729,51.3286729 33.1740396,52.9919825 34.2427701,53.9988016 L43.5931689,62.841143 C44.0829146,63.3226194 44.750833,63.5853659 45.4632181,63.5853659 C45.5076849,63.5853659 45.5076849,63.5853659 45.5523045,63.5853659 C46.2646896,63.5416499 46.9770748,63.2351875 47.4223537,62.7098449 L63.8970623,44.6748336 C64.9211732,43.5367164 64.8320869,41.8734067 63.7190424,40.9103036 Z M39.594458,15.2926829 L16.0307672,15.2926829 C14.5907298,15.2926829 13.4126126,16.5603095 13.4126126,18.1097561 C13.4126126,19.6592027 14.5907298,20.9268293 16.0307672,20.9268293 L39.594458,20.9268293 C41.0344955,20.9268293 42.2126126,19.6592027 42.2126126,18.1097561 C42.2126126,16.5603095 41.0344955,15.2926829 39.594458,15.2926829 Z M42.2126126,32.597561 C42.2126126,31.0481143 41.0345016,29.7804878 39.5944716,29.7804878 L16.0307536,29.7804878 C14.5907236,29.7804878 13.4126126,31.0481143 13.4126126,32.597561 C13.4126126,34.1470076 14.5907236,35.4146341 16.0307536,35.4146341 L39.5943219,35.4146341 C41.0343518,35.4146341 42.2126126,34.1470076 42.2126126,32.597561 Z M15.9840202,43.4634146 C14.5696945,43.4634146 13.4126126,44.7310412 13.4126126,46.2804878 C13.4126126,47.8299344 14.5696945,49.097561 15.9840202,49.097561 L22.8412051,49.097561 C24.2555307,49.097561 25.4126126,47.8299344 25.4126126,46.2804878 C25.4126126,44.7310412 24.2555307,43.4634146 22.8412051,43.4634146 L15.9840202,43.4634146 Z" id="Shape"></path>
                    </g>
                </g>
            </g>
        </g>
    </g>
</svg>