<svg xmlns="http://www.w3.org/2000/svg" width="36" height="30" viewBox="0 0 36 30">
    <g fill="none" fill-rule="evenodd">
        <path fill="#FDC149" fill-opacity=".8" d="M2 0h26a2 2 0 0 1 2 2v26a2 2 0 0 1-2 2H2a2 2 0 0 1-2-2V2a2 2 0 0 1 2-2z"/>
        <g fill="#FFF">
            <path d="M32.342 12.906a.801.801 0 0 1-.81-.791c-.003-3.252-2.715-5.903-6.046-5.906a.801.801 0 0 1-.81-.79c0-.437.364-.792.81-.792 4.223.005 7.66 3.364 7.666 7.488 0 .436-.363.79-.81.79M27.771 12.906a.801.801 0 0 1-.81-.791c0-.793-.662-1.44-1.475-1.442a.8.8 0 0 1-.81-.79c0-.436.364-.791.81-.791 1.705.002 3.093 1.358 3.095 3.023 0 .436-.363.79-.81.79"/>
            <path d="M16.64 1.558a1.9 1.9 0 0 0-.969.265l-1.927 1.13a3.17 3.17 0 0 0-1.477 1.868c-1.07 3.81 1.088 8.371 6.412 13.571 4.426 4.324 8.44 6.516 11.928 6.516.677 0 1.334-.083 1.954-.25a3.232 3.232 0 0 0 1.931-1.457l1.154-1.877a1.799 1.799 0 0 0-.566-2.458l-4.627-3.013a1.906 1.906 0 0 0-1.036-.307c-.576 0-1.112.254-1.47.696l-1.354 1.7a.059.059 0 0 1-.048.024l-.006-.002-.025-.008-.247-.133c-.868-.463-1.846-.984-3.923-3.012-2.077-2.03-2.61-2.984-3.081-3.826l-.141-.25c-.013-.023-.008-.057.007-.069l1.741-1.322a1.81 1.81 0 0 0 .41-2.45l-3.085-4.522c-.349-.51-.93-.814-1.555-.814m0 1.675c.05 0 .099.024.129.067l3.081 4.517a.152.152 0 0 1-.033.206l-1.729 1.313a1.702 1.702 0 0 0-.468 2.206l.137.243c.5.896 1.122 2.01 3.375 4.21 2.251 2.198 3.391 2.806 4.308 3.295l.248.133c.269.147.564.218.857.218.535 0 1.061-.236 1.402-.671l1.345-1.69a.16.16 0 0 1 .125-.06c.03 0 .06.008.086.025l4.626 3.014c.069.045.089.134.047.203l-1.164 1.895a1.525 1.525 0 0 1-.905.687 5.76 5.76 0 0 1-1.5.19c-2.344 0-5.844-1.267-10.716-6.026-6.049-5.908-6.588-9.75-5.976-11.928.11-.376.36-.692.71-.892l1.935-1.134a.158.158 0 0 1 .08-.021"/>
        </g>
    </g>
</svg>
