<svg xmlns="http://www.w3.org/2000/svg" width="34" height="30" viewBox="0 0 34 30">
    <g fill="none" fill-rule="evenodd">
        <path fill="#76C48B" fill-opacity=".8" d="M17.389.764l15.496 27.748A1 1 0 0 1 32.012 30H1.02a1 1 0 0 1-.873-1.488L15.643.764a1 1 0 0 1 1.746 0z"/>
        <g fill="#FFF">
            <path d="M25.418 6.043a6.85 6.85 0 0 0-4.875 2.02c-2.385 2.383-2.694 7.038-.65 9.764l5.525 7.977 5.498-7.941c2.103-2.805 1.804-7.374-.623-9.8a6.848 6.848 0 0 0-4.875-2.02m0 21.872a.765.765 0 0 1-.63-.33l-6.137-8.862c-2.489-3.318-2.12-8.817.809-11.744a8.373 8.373 0 0 1 5.958-2.468 8.37 8.37 0 0 1 5.958 2.468c2.928 2.928 3.294 8.432.782 11.78l-6.11 8.826a.765.765 0 0 1-.63.33"/>
            <path d="M25.417 10.882a1.878 1.878 0 0 0-1.876 1.876c0 1.034.842 1.876 1.876 1.876a1.878 1.878 0 0 0 1.876-1.876 1.878 1.878 0 0 0-1.876-1.876m0 5.284a3.411 3.411 0 0 1-3.408-3.408 3.412 3.412 0 0 1 3.408-3.408 3.411 3.411 0 0 1 3.408 3.408 3.411 3.411 0 0 1-3.408 3.408"/>
        </g>
    </g>
</svg>
