<?xml version="1.0" encoding="UTF-8"?>
<svg width="63px" height="65px" viewBox="0 0 63 65" version="1.1" xmlns="http://www.w3.org/2000/svg" xmlns:xlink="http://www.w3.org/1999/xlink">
    <!-- Generator: sketchtool 52.5 (67469) - http://www.bohemiancoding.com/sketch -->
    <title>27B8B95A-BC39-4B70-ABD5-5319A6D67F97</title>
    <desc>Created with sketchtool.</desc>
    <g id="Our-Services" stroke="none" stroke-width="1" fill="none" fill-rule="evenodd">
        <g id="2.1-CG_Marketing-Web_Membership" transform="translate(-1276.000000, -1127.000000)" fill="#DB5967" fill-rule="nonzero">
            <g id="Group-3" transform="translate(1276.000000, 1104.000000)">
                <g id="event" transform="translate(0.000000, 23.000000)">
                    <path d="M57.4117225,7.05084034 C57.2781947,7.04544406 57.1445162,7.04454468 57.0108376,7.0482921 L51.9715936,7.0482921 L51.9715936,2.74101081 C51.9717443,1.0180983 50.3181693,0 48.5859245,0 L43.940482,0 C42.2082372,0 40.9484639,1.0180983 40.9484639,2.74101081 L40.9484639,7.0481422 L22.0514117,7.0481422 L22.0514117,2.74101081 C22.0514117,1.0180983 20.7916384,0 19.0593935,0 L14.4138004,0 C12.6817063,0 11.0281313,1.0180983 11.0281313,2.74101081 L11.0281313,7.0481422 L5.98903796,7.0481422 C2.77231323,6.95895368 0.0919604659,9.48036584 0.0022888384,12.6796108 C-0.00147887704,12.8124193 -0.000574625333,12.9455275 0.0048508849,13.078336 L0.0048508849,58.3433879 C0.0048508849,61.789213 2.52439755,65 5.98888726,65 L57.0109883,65 C60.475478,65 62.9950247,61.789213 62.9950247,58.3433879 L62.9950247,13.078336 C63.126744,9.8804401 60.6269402,7.18185005 57.4117225,7.05084034 Z M43.940482,3.13254096 L48.8222356,3.13254096 L48.8222356,11.7469536 L43.940482,11.7469536 L43.940482,3.13254096 Z M14.4139511,3.13254096 L18.9020537,3.13254096 L18.9020537,11.7469536 L14.4139511,11.7469536 L14.4139511,3.13254096 Z M59.845516,58.3433879 C59.845516,60.0663005 58.7432332,61.867459 57.0109883,61.867459 L5.98903796,61.867459 C4.25679311,61.867459 3.15451028,60.0663005 3.15451028,58.3433879 L3.15451028,25.0603277 L59.845516,25.0603277 L59.845516,58.3433879 Z M59.845516,13.078336 L59.845516,21.9277867 L3.15435958,21.9277867 L3.15435958,13.078336 C3.02098245,11.6138454 4.10653662,10.3190378 5.57895982,10.1863792 C5.71520041,10.1740877 5.85234525,10.1722889 5.98888726,10.1808331 L11.0281313,10.1808331 L11.0281313,11.9037456 C11.0281313,13.6266581 12.6815555,14.8796445 14.4138004,14.8796445 L19.0593935,14.8796445 C20.6677559,14.9235642 22.0072541,13.6621836 22.0514117,12.0624862 C22.0529188,12.0095726 22.0529188,11.9566591 22.0514117,11.9037456 L22.0514117,10.1806832 L40.9484639,10.1806832 L40.9484639,11.9035957 C40.9043062,13.5032931 42.1725193,14.8355749 43.7808816,14.8794946 C43.8340818,14.8809936 43.8872819,14.8809936 43.940482,14.8794946 L48.5860752,14.8794946 C50.31832,14.8794946 51.9717443,13.6265082 51.9717443,11.9035957 L51.9717443,10.1806832 L57.0109883,10.1806832 C58.4865764,10.0881969 59.758105,11.2029786 59.8510922,12.670617 C59.8596826,12.8064234 59.8578741,12.9428294 59.845516,13.078336 Z" id="Shape"></path>
                    <path d="M23.1379805,46.3397782 L21.7368336,54.1756781 C21.6814075,54.5117917 21.7362376,54.8570542 21.8931291,55.1589715 C22.2916901,55.9258383 23.2324432,56.2223561 23.9942535,55.8211496 L30.9999881,52.1382991 L38.0057227,55.8211496 L38.7062961,55.9778826 C39.0440673,55.983882 39.3737928,55.873194 39.6403444,55.6644166 C40.1056551,55.3223037 40.3450897,54.7496659 40.2631426,54.1755281 L38.8619957,46.3396282 L44.5445076,40.8545732 C44.9511144,40.4122712 45.0986192,39.7883389 44.933682,39.2091017 C44.7240463,38.6736598 44.2517329,38.2874517 43.6882346,38.1904122 L35.9040023,37.0149898 L32.401135,29.8843133 C32.2484154,29.5669477 31.9939323,29.3106255 31.6786593,29.1570422 C30.9047804,28.7798331 29.973712,29.1054478 29.5988412,29.8843133 L26.0959739,37.0149898 L18.3117416,38.1904122 C17.7482433,38.2873017 17.2759298,38.6736598 17.0662942,39.2091017 C16.901357,39.7883389 17.0490108,40.4122712 17.4554686,40.8545732 L23.1379805,46.3397782 Z M27.4193455,39.9927667 C27.9081974,39.9191247 28.3224029,39.5915602 28.5090934,39.1308102 L30.9999881,34.1158043 L33.4908828,39.1308102 C33.6777223,39.5915602 34.0917788,39.9191247 34.5806307,39.9927667 L40.1074431,40.7762817 L36.1374771,44.6158652 C35.7676721,44.9843752 35.5942422,45.5081184 35.6703785,46.0263122 L36.6044268,51.5898086 L31.7004126,48.9256477 L30.9998391,48.7689147 L30.2992656,48.9256477 L25.3952514,51.5898086 L26.3292997,46.0263122 C26.405585,45.5081184 26.2320061,44.9843752 25.8622011,44.6158652 L21.8922351,40.7762817 L27.4193455,39.9927667 Z" id="Shape"></path>
                </g>
            </g>
        </g>
    </g>
</svg>