<?xml version="1.0" encoding="UTF-8"?>
<svg width="93px" height="93px" viewBox="0 0 93 93" version="1.1" xmlns="http://www.w3.org/2000/svg" xmlns:xlink="http://www.w3.org/1999/xlink">
    <!-- Generator: sketchtool 52.5 (67469) - http://www.bohemiancoding.com/sketch -->
    <title>25CB6F7F-E610-4DB6-8389-B7EFD1706DB0</title>
    <desc>Created with sketchtool.</desc>
    <g id="Our-Services" stroke="none" stroke-width="1" fill="none" fill-rule="evenodd">
        <g id="2.0-CG_Marketing-Web_Membership" transform="translate(-77.000000, -1089.000000)" fill="#345188">
            <g id="Group-6" transform="translate(42.000000, 1074.000000)">
                <g id="hand" transform="translate(36.000000, 16.000000)">
                    <path d="M41.4145056,62.4151202 C42.1951648,61.6329362 42.1951648,60.3670639 41.4145056,59.5848799 C40.6330648,58.80504 39.3671307,58.80504 38.5849085,59.5848799 C37.8050305,60.3670639 37.8050305,61.6329362 38.5849085,62.4151202 C39.3671307,63.1949599 40.6330648,63.1949599 41.4145056,62.4151202 Z" id="Path"></path>
                    <path d="M33,19.9996448 C33,31.0274399 41.972009,40 53,40 C64.027991,40 73,31.0274399 73,19.9996448 C73,8.97184971 64.027991,0 53,0 C41.972009,0 33,8.97184971 33,19.9996448 Z M69.3640238,19.9996448 C69.3640238,29.0226445 62.0231599,36.363378 53,36.363378 C43.9768401,36.363378 36.635976,29.0226445 36.635976,19.9996448 C36.635976,10.9773555 43.9768401,3.63662202 53,3.63662202 C62.0231599,3.63662202 69.3640238,10.9773555 69.3640238,19.9996448 Z" id="Shape" stroke="#345188" fill-rule="nonzero"></path>
                    <path d="M20.4727468,90.4771726 C21.1616825,91.1680138 22.2832866,91.1756131 22.9812507,90.4916802 L31.598503,82.0468374 C33.0624914,80.5905442 33.5076605,78.4344289 32.8638667,76.5601766 L34.717465,74.7819514 C35.7154495,73.8230638 37.0294277,73.2945704 38.418411,73.2945704 L62.0471003,73.2945704 C66.2390517,73.2945704 70.2011267,71.6932004 73.204803,68.7854498 C73.3284224,68.6659343 72.2665447,69.9101393 89.3246486,49.6298051 C91.8546818,46.6522797 91.4761837,42.1811554 88.4801468,39.6616576 C85.5028611,37.1656482 81.0428358,37.5241948 78.5058577,40.4505981 L68.0176449,51.1738352 C66.6932493,49.5524309 64.6736676,48.5417302 62.491575,48.5417302 L42.6714778,48.5417302 C39.8511473,47.367991 36.8585826,46.7738677 33.7708729,46.7738677 C25.2119578,46.7738677 17.7385333,50.7061356 13.727844,58.0787929 C12.0381458,57.7603151 10.2560802,58.2687742 8.97404851,59.5440672 L0.51861285,67.9799291 C-0.171711935,68.6686977 -0.173100829,69.7830245 0.515834884,70.4738657 L20.4727468,90.4771726 Z M33.7701783,50.3095929 C36.4925855,50.3095929 39.1247089,50.8546665 41.5950157,51.9296154 C41.820031,52.027715 42.0624087,52.0781463 42.3075642,52.0781463 L62.491575,52.0781463 C64.4187891,52.0781463 66.0466776,53.64152 66.0466776,55.6138715 C66.0466776,57.5641162 64.4521247,59.1502876 62.491575,59.1502876 L47.9898948,59.1502876 C47.0085781,59.1502876 46.2126908,59.9419917 46.2126908,60.9181503 C46.2126908,61.8949998 47.0085781,62.6860129 47.9898948,62.6860129 L62.491575,62.6860129 C66.4119803,62.6860129 69.6010859,59.5136702 69.6010859,55.6138715 C69.6010859,55.302993 69.5788622,54.9948778 69.5385816,54.6895261 C79.68441,44.3151639 81.1150629,42.8574888 81.1761782,42.7849506 C82.442931,41.2975695 84.6916948,41.1089699 86.1876299,42.3635375 C87.6849537,43.6229409 87.8745501,45.858503 86.6043249,47.3541743 L70.6622691,66.3122383 C68.3343331,68.5353652 65.2778753,69.758845 62.0471003,69.758845 L38.418411,69.758845 C36.1029757,69.758845 33.9111601,70.6396676 32.2485472,72.2375832 L30.7380278,73.6876589 L16.8134702,59.8369839 C20.0678582,53.7637988 26.1745232,50.3095929 33.7701783,50.3095929 Z M11.4894973,62.0428397 C12.0756483,61.4597698 12.9757095,61.3547619 13.6903413,61.7941369 C13.9980012,61.9806639 13.1146078,61.1806699 29.0851377,77.0451472 C29.7956027,77.7518778 29.7574056,78.8779488 29.0948607,79.5370114 L21.7485279,86.7362675 L4.28414647,69.2310423 L11.4894973,62.0428397 Z" id="Shape" stroke="#345188" fill-rule="nonzero"></path>
                    <path d="M51.403823,9.71476416 L51.403823,11.7235836 C49.4843142,12.4309238 48.1054123,14.3365894 48.1054123,16.5718113 C48.1054123,19.4072007 50.3245422,21.7147642 53.0527062,21.7147642 C53.9618794,21.7147642 54.7015893,22.4837287 54.7015893,23.4288585 C54.7015893,24.3739882 53.9618794,25.1429529 53.0527062,25.1429529 C52.3484353,25.1429529 51.5874618,24.6827798 50.9115421,23.8461625 C50.3251866,23.1214066 49.2852111,23.0283003 48.5880279,23.6371756 C47.8908448,24.2467206 47.8006363,25.3278257 48.3869917,26.0525816 C49.268458,27.1423947 50.3052119,27.9019815 51.403823,28.2851241 L51.403823,30.2859056 C51.403823,31.2330448 52.1422444,32 53.0527062,32 C53.963168,32 54.7015893,31.2330448 54.7015893,30.2859056 L54.7015893,28.2770862 C56.6210981,27.5690762 58,25.6634106 58,23.4288585 C58,20.5927993 55.78087,18.2859056 53.0527062,18.2859056 C52.143533,18.2859056 51.403823,17.5169411 51.403823,16.5718113 C51.403823,15.6266816 52.143533,14.8570471 53.0527062,14.8570471 C53.6371287,14.8570471 54.2537684,15.1671783 54.8362578,15.7532794 C55.4909141,16.4117221 56.5347557,16.3936366 57.1681485,15.7137594 C57.8015412,15.0332124 57.7841438,13.9480882 57.1301321,13.2896457 C56.2931257,12.4476695 55.455475,11.9714207 54.7015893,11.7115266 L54.7015893,9.71476416 C54.7015893,8.76762498 53.963168,8 53.0527062,8 C52.1422444,8 51.403823,8.76762498 51.403823,9.71476416 Z" id="Path" stroke="#345188"></path>
                </g>
            </g>
        </g>
    </g>
</svg>