<?xml version="1.0" encoding="UTF-8"?>
<svg width="48px" height="48px" viewBox="0 0 48 48" version="1.1" xmlns="http://www.w3.org/2000/svg" xmlns:xlink="http://www.w3.org/1999/xlink">
    <!-- Generator: sketchtool 52.5 (67469) - http://www.bohemiancoding.com/sketch -->
    <title>B9317746-0CA7-41D1-87B8-0A8043384D0D</title>
    <desc>Created with sketchtool.</desc>
    <g id="Our-Services" stroke="none" stroke-width="1" fill="none" fill-rule="evenodd">
        <g id="1.4-CG_Marketing-Web_Why-join" transform="translate(-1307.000000, -269.000000)" fill="#FFFFFF" stroke="#FFFFFF">
            <g id="Group-6" transform="translate(1306.000000, 232.000000)">
                <path d="M34.2346,61.7846 C28.6051,61.7846 24.0256,57.2046 24.0256,51.5756 C24.0256,45.9461 28.6051,41.3661 34.2346,41.3661 C39.8641,41.3661 44.4441,45.9461 44.4441,51.5756 C44.4441,57.2046 39.8641,61.7846 34.2346,61.7846 M34.2346,38.2246 C26.8726,38.2246 20.8841,44.2136 20.8841,51.5756 C20.8841,54.0846 21.5926,56.4246 22.8011,58.4321 L2.4961,78.7366 C1.8831,79.3501 1.8831,80.3441 2.4961,80.9576 C2.8036,81.2646 3.2046,81.4176 3.6066,81.4176 C4.0091,81.4176 4.4106,81.2646 4.7176,80.9576 L7.5336,78.1416 L12.7056,83.3136 C13.0131,83.6206 13.4136,83.7741 13.8161,83.7741 C14.2181,83.7741 14.6196,83.6206 14.9266,83.3136 C15.5396,82.7001 15.5396,81.7061 14.9266,81.0926 L9.7546,75.9206 L11.4601,74.2146 L15.0616,77.8161 C15.3691,78.1231 15.7701,78.2766 16.1721,78.2766 C16.5741,78.2766 16.9751,78.1231 17.2826,77.8161 C17.8956,77.2031 17.8956,76.2086 17.2826,75.5956 L13.6811,71.9941 L15.3871,70.2881 L20.5586,75.4606 C20.8661,75.7676 21.2671,75.9206 21.6691,75.9206 C22.0716,75.9206 22.4731,75.7676 22.7801,75.4606 C23.3931,74.8471 23.3931,73.8526 22.7801,73.2396 L17.6076,68.0671 L24.7346,60.9406 C27.1576,63.3976 30.5191,64.9261 34.2346,64.9261 C41.5966,64.9261 47.5851,58.9371 47.5851,51.5756 C47.5851,44.2136 41.5966,38.2246 34.2346,38.2246" id="Fill-4"></path>
            </g>
        </g>
    </g>
</svg>