<?xml version="1.0" encoding="UTF-8"?>
<svg width="95px" height="95px" viewBox="0 0 95 95" version="1.1" xmlns="http://www.w3.org/2000/svg" xmlns:xlink="http://www.w3.org/1999/xlink">
    <!-- Generator: sketchtool 52.5 (67469) - http://www.bohemiancoding.com/sketch -->
    <title>393661EC-3903-489E-8A83-35B1EEA59526</title>
    <desc>Created with sketchtool.</desc>
    <g id="Our-Services" stroke="none" stroke-width="1" fill="none" fill-rule="evenodd">
        <g id="2.1-CG_Marketing-Web_Membership" transform="translate(-100.000000, -1788.000000)" fill="#C96B86">
            <g id="Group-5" transform="translate(75.000000, 1761.000000)">
                <g id="light-bulb" transform="translate(25.000000, 27.000000)">
                    <path d="M47.3902515,16 C32.8769518,16 22.3929509,26.6892586 20.7303761,38.1710301 C19.6937119,45.8255444 22.1973539,53.2867629 27.4002349,58.9310007 C31.9772054,63.7633961 34.4808474,70.2194764 34.4808474,76.8688525 L34.4612877,87.3454857 C34.4612877,91.5786641 38.001594,95 42.3829675,95 L52.5931325,95 C56.974506,95 60.5148123,91.5786641 60.5148123,87.3454857 L60.534372,76.8688525 C60.534372,70.0261806 62.8228572,63.7633961 67.2042307,59.3369219 C71.996358,54.5045265 74.5,48.2610717 74.5,41.8049914 C74.4804403,27.4817715 62.177387,16 47.3902515,16 Z M56.5441925,87.3454857 C56.5441925,89.3557622 54.8816178,90.979447 52.7887295,90.979447 L42.5785645,90.979447 C40.4856763,90.979447 38.8231015,89.3750918 38.8231015,87.3454857 L38.8231015,82.7063861 L56.5246328,82.7063861 L56.5246328,87.3454857 L56.5441925,87.3454857 Z M64.289835,56.514803 C59.0869539,61.7531196 56.3681552,69.0017127 56.3681552,76.8688525 L56.3681552,78.6858331 L38.6666239,78.6858331 L38.6666239,76.8688525 C38.6666239,69.407634 35.5370714,61.965745 30.3341904,56.3215072 C25.7572198,51.4891118 23.8794883,45.245657 24.7009959,38.7895767 C26.1679736,29.1247859 35.2632356,20.0398826 47.4098112,20.0398826 C60.1236182,20.0398826 70.3337832,29.9172988 70.3337832,41.8049914 C70.3337832,47.2366039 68.240895,52.4749205 64.289835,56.514803 Z" id="Shape" fill-rule="nonzero"></path>
                    <rect id="Rectangle" x="45.5" y="0" width="4" height="10"></rect>
                    <polygon id="Path" points="72.5 19.02 75.3988327 22 82.5 14.98 79.5817121 12"></polygon>
                    <rect id="Rectangle" x="84.5" y="43" width="10" height="4"></rect>
                    <rect id="Rectangle" x="0.5" y="43" width="10" height="4"></rect>
                    <polygon id="Path" points="15.4182879 12 12.5 14.98 19.6011673 22 22.5 19.02"></polygon>
                </g>
            </g>
        </g>
    </g>
</svg>