<svg width="52px" height="59px" viewBox="0 0 52 59" version="1.1" xmlns="http://www.w3.org/2000/svg" xmlns:xlink="http://www.w3.org/1999/xlink">
    <g id="Our-Services" stroke="none" stroke-width="1" fill="none" fill-rule="evenodd">
        <g id="2.0-CG_Marketing-Web_Membership" transform="translate(-944.000000, -338.000000)" fill="#FFFFFF">
            <g id="Group-12" transform="translate(916.000000, 315.000000)">
                <g id="Group-11" transform="translate(28.000000, 23.000000)">
                    <path d="M37.5870857,21.3695114 L20.4712857,21.3695114 C19.5323143,21.3695114 18.7708857,20.6084543 18.7708857,19.6694829 C18.7708857,18.73014 19.5323143,17.9690829 20.4712857,17.9690829 L37.5870857,17.9690829 C38.5260571,17.9690829 39.2871143,18.73014 39.2871143,19.6694829 C39.2871143,20.6084543 38.5260571,21.3695114 37.5870857,21.3695114" id="Fill-2"></path>
                    <path d="M37.5870857,29.9116257 L20.4712857,29.9116257 C19.5323143,29.9116257 18.7708857,29.1505686 18.7708857,28.2112257 C18.7708857,27.2722543 19.5323143,26.5111971 20.4712857,26.5111971 L37.5870857,26.5111971 C38.5260571,26.5111971 39.2871143,27.2722543 39.2871143,28.2112257 C39.2871143,29.1505686 38.5260571,29.9116257 37.5870857,29.9116257" id="Fill-4"></path>
                    <path d="M37.5870857,38.8654686 L20.4712857,38.8654686 C19.5323143,38.8654686 18.7708857,38.1044114 18.7708857,37.1650686 C18.7708857,36.2260971 19.5323143,35.46504 20.4712857,35.46504 L37.5870857,35.46504 C38.5260571,35.46504 39.2871143,36.2260971 39.2871143,37.1650686 C39.2871143,38.1044114 38.5260571,38.8654686 37.5870857,38.8654686" id="Fill-6"></path>
                    <g id="Group-10">
                        <path d="M3.59011714,48.11274 L3.59011714,49.81314 C3.59011714,52.6255971 5.87848857,54.9139686 8.69057429,54.9139686 L36.1257743,54.9139686 C35.0564314,53.49214 34.4212886,51.7248829 34.4212886,49.81314 L34.4212886,48.11274 L3.59011714,48.11274 Z M10.3913457,27.8958829 L10.3913457,44.7123114 L36.1216886,44.7123114 C37.06066,44.7123114 37.8217171,45.4733686 37.8217171,46.41234 L37.8217171,49.81314 C37.8217171,52.6255971 40.1100886,54.9139686 42.9229171,54.9139686 C45.7350029,54.9139686 48.0233743,52.6255971 48.0233743,49.81314 L48.0233743,13.88114 L39.5221171,13.88114 C38.5831457,13.88114 37.8217171,13.1200829 37.8217171,12.18074 L37.8217171,3.67948286 L10.3913457,3.67948286 L10.3913457,13.4684829 L10.3913457,27.8958829 Z M41.2221457,6.08411143 L41.2221457,10.4807114 L45.6183743,10.4807114 L41.2221457,6.08411143 Z M6.99054571,10.0680543 L6.99054571,1.97908286 C6.99054571,1.04011143 7.75160286,0.279054286 8.69057429,0.279054286 L39.5221171,0.279054286 C39.9719171,0.279054286 40.4076029,0.460311429 40.7248029,0.77714 L50.9257171,10.9780543 C51.2481171,11.3004543 51.4238029,11.73874 51.4238029,12.18074 L51.4238029,49.81314 C51.4238029,54.5005686 47.6103457,58.3143971 42.9229171,58.3143971 L8.69057429,58.3143971 C4.00314571,58.3143971 0.189688571,54.5005686 0.189688571,49.81314 L0.189688571,46.41234 C0.189688571,45.4733686 0.950745714,44.7123114 1.89008857,44.7123114 L6.99054571,44.7123114 L6.99054571,24.4954543 L6.99054571,10.0680543 Z" id="Fill-8"></path>
                    </g>
                </g>
            </g>
        </g>
    </g>
</svg>