<?xml version="1.0" encoding="UTF-8"?>
<svg width="181px" height="253px" viewBox="0 0 181 253" version="1.1" xmlns="http://www.w3.org/2000/svg" xmlns:xlink="http://www.w3.org/1999/xlink">
    <!-- Generator: sketchtool 52.5 (67469) - http://www.bohemiancoding.com/sketch -->
    <title>CAB868BF-F304-4DE2-873A-836628D095D0</title>
    <desc>Created with sketchtool.</desc>
    <defs>
        <polygon id="path-1" points="0.319812371 0.332747664 122.884452 0.332747664 122.884452 137.159877 0.319812371 137.159877"></polygon>
    </defs>
    <g id="Login/Signup-V2" stroke="none" stroke-width="1" fill="none" fill-rule="evenodd">
        <g id="1.2-CG_Marketing-Web_Signup" transform="translate(-870.000000, -493.000000)">
            <g id="Group-15" transform="translate(870.000000, 493.000000)">
                <g id="Group-3" transform="translate(29.000000, 0.000000)">
                    <mask id="mask-2" fill="white">
                        <use xlink:href="#path-1"></use>
                    </mask>
                    <g id="Clip-2"></g>
                    <path d="M101.520625,115.804699 L21.6797697,115.804699 L21.6797697,61.5977832 C21.6797697,39.5861383 39.5835861,21.6874093 61.6014874,21.6874093 C83.6168085,21.6874093 101.520625,39.5861383 101.520625,61.5977832 L101.520625,115.804699 Z M61.6014874,0.332231776 C27.8038089,0.332231776 0.319812371,27.8329234 0.319812371,61.5977832 L0.319812371,137.159877 L122.884452,137.159877 L122.884452,61.5977832 C122.884452,27.8329234 95.3965856,0.332231776 61.6014874,0.332231776 Z" id="Fill-1" fill="#326C90" mask="url(#mask-2)"></path>
                </g>
                <path d="M130.483196,115.631317 L50.5155119,115.631317 L50.5155119,61.326551 C50.5155119,39.2751725 68.4477689,21.3441341 90.5006461,21.3441341 C112.550939,21.3441341 130.483196,39.2751725 130.483196,61.326551 L130.483196,115.631317 Z M90.5006461,11 C62.1046755,11 39,34.0785565 39,62.4958542 L39,126 L142,126 L142,62.4958542 C142,34.0785565 118.894032,11 90.5006461,11 Z" id="Fill-4" fill="#71CEEA"></path>
                <g id="Group-8" transform="translate(0.000000, 82.000000)" fill="#1A4E6E">
                    <path d="M148.925507,171.000129 L31.4254786,171.000129 C14.0701643,171.000129 0,156.938431 0,139.592268 L0,10.7732629 C0,4.88913416 4.77193571,0.121361881 10.6596071,0.121361881 L169.691379,0.121361881 C175.57905,0.121361881 180.352279,4.89042624 180.352279,10.774555 L180.352279,139.592268 C180.352279,156.938431 166.282114,171.000129 148.925507,171.000129" id="Fill-6"></path>
                </g>
                <path d="M130,167.000649 C130,144.909963 112.092634,127 90.0006494,127 C67.9099631,127 50,144.909963 50,167.000649 C50,189.092634 67.9099631,207 90.0006494,207 C112.092634,207 130,189.092634 130,167.000649" id="Fill-9" fill="#FFFFFF"></path>
                <path d="M101,152 C101,145.924114 96.0739019,141 90.0012782,141 C83.9260981,141 79,145.924114 79,152 C79,158.074608 83.9260981,163 90.0012782,163 C96.0739019,163 101,158.074608 101,152" id="Fill-11" fill="#0D304C"></path>
                <path d="M90.0006535,193 C86.1356549,193 83,189.855237 83,185.971841 L83,153.555982 C83,152.69665 83.6953599,152 84.5514891,152 L95.451125,152 C96.3072542,152 97,152.69665 97,153.555982 L97,185.971841 C97,189.855237 93.8669592,193 90.0006535,193" id="Fill-13" fill="#0D304C"></path>
            </g>
        </g>
    </g>
</svg>