<?xml version="1.0" encoding="UTF-8"?>
<svg width="23px" height="12px" viewBox="0 0 23 12" version="1.1" xmlns="http://www.w3.org/2000/svg" xmlns:xlink="http://www.w3.org/1999/xlink">
    <!-- Generator: sketchtool 52.5 (67469) - http://www.bohemiancoding.com/sketch -->
    <title>35F5CF74-DC0F-481B-A261-FAAD5C489EE5</title>
    <desc>Created with sketchtool.</desc>
    <g id="Homepage" stroke="none" stroke-width="1" fill="none" fill-rule="evenodd">
        <g id="1.0-CG_Mobile_Membership" transform="translate(-268.000000, -30.000000)" fill="#FFFFFF" fill-rule="nonzero" stroke="#FFFFFF">
            <g id="Group">
                <g id="login" transform="translate(269.000000, 22.000000)">
                    <path d="M16.0043514,8.71730091 C15.7959768,8.50164044 15.4491714,8.50164044 15.233511,8.71730091 C15.0251363,8.92567556 15.0251363,9.27248091 15.233511,9.48036983 L19.1421142,13.388973 L0.539636903,13.388973 C0.238975118,13.3894588 3.14560877e-13,13.6284339 3.14560877e-13,13.9290957 C3.14560877e-13,14.2297574 0.238975118,14.4765041 0.539636903,14.4765041 L19.1421142,14.4765041 L15.233511,18.3778215 C15.0251363,18.593482 15.0251363,18.940773 15.233511,19.148662 C15.4491714,19.3643224 15.7964625,19.3643224 16.0043514,19.148662 L20.8382546,14.3147588 C21.0539151,14.1063841 21.0539151,13.7595788 20.8382546,13.5516898 L16.0043514,8.71730091 Z" id="Shape"></path>
                </g>
            </g>
        </g>
    </g>
</svg>