<?xml version="1.0" encoding="UTF-8"?>
<svg width="113px" height="62px" viewBox="0 0 113 62" version="1.1" xmlns="http://www.w3.org/2000/svg" xmlns:xlink="http://www.w3.org/1999/xlink">
    <!-- Generator: sketchtool 52.5 (67469) - http://www.bohemiancoding.com/sketch -->
    <title>EA21DE1E-9368-4715-B7E1-FE356E268FD6</title>
    <desc>Created with sketchtool.</desc>
    <g id="Our-Services" stroke="none" stroke-width="1" fill="none" fill-rule="evenodd">
        <g id="2.0-CG_Marketing-Web_Membership" transform="translate(-1234.000000, -1433.000000)" fill="#C96B86">
            <g id="Group-5" transform="translate(1203.000000, 1396.000000)">
                <g id="megaphone-(1)" transform="translate(81.932504, 67.932504) rotate(45.000000) translate(-81.932504, -67.932504) translate(37.432504, 23.432504)">
                    <path d="M44.0173638,12.9326375 C42.4618653,11.3773057 40.3937823,10.5208153 38.1939701,10.5208153 C35.9941578,10.5208153 33.9260747,11.3773057 32.370576,12.9326375 C29.6479415,15.654298 29.2350075,19.8227786 31.1283614,22.9859922 L11.376463,60.689996 C10.444802,60.3317032 9.4462523,60.1419786 8.41835357,60.1419786 C6.2185414,60.1419786 4.15045838,60.998469 2.59427717,62.553801 C-0.616370388,65.7647869 -0.616370388,70.9890371 2.59427717,74.2000229 L14.5052063,86.1089928 C16.0607049,87.6636424 18.1287879,88.5208153 20.3286002,88.5208153 C22.5284126,88.5208153 24.5964954,87.6636424 26.1519941,86.1089928 C28.5217578,83.7388007 29.1408176,80.2732564 28.0125861,77.3291133 L31.6573263,75.4202658 C31.8880235,75.6809664 32.1241807,75.9375723 32.370576,76.1839414 C35.6180806,79.4317801 39.8825631,81.0546759 44.1484107,81.0546759 C48.4135759,81.0539935 52.6807886,79.4304153 55.9276105,76.1839414 C60.1047285,72.0072711 61.7155125,66.0213927 60.3217747,60.406774 L65.7206316,57.5793321 C66.9867352,58.3402777 68.439171,58.7470253 69.9550826,58.7477079 C72.1542122,58.7477079 74.2222952,57.8912175 75.777794,56.3358855 C78.989124,53.1248996 78.989124,47.9006494 75.777794,44.6896635 L44.0173638,12.9326375 Z M22.4458256,82.4025393 C21.8800036,82.9676182 21.128532,83.2788211 20.3286002,83.2788211 C19.5286685,83.2788211 18.7771968,82.9676182 18.2120571,82.4025393 L6.30112816,70.4935692 C5.13399216,69.3265585 5.13399216,67.4272654 6.30112816,66.2602547 C6.86695015,65.6944932 7.61842182,65.3832903 8.41835357,65.3832903 C9.21760282,65.3832903 9.96907449,65.6944932 10.534214,66.2595721 C10.5348965,66.2595721 10.5348965,66.2602547 10.5348965,66.2602547 L22.4458256,78.1685422 L22.4458256,78.1692246 C23.0109651,78.7343035 23.3222014,79.4856947 23.3222014,80.2855407 C23.3222014,81.0853867 23.0109651,81.836778 22.4458256,82.4025393 Z M52.2214422,72.4781701 C49.9956934,74.7036801 47.0723935,75.816094 44.1490933,75.816094 C41.4087128,75.8154116 38.6676497,74.8381254 36.5026468,72.8821879 L55.475772,62.9455344 C55.9235154,66.4028893 54.7686649,69.9312202 52.2214422,72.4781701 Z M55.9248804,56.7931354 C55.9221502,56.7945002 55.9194201,56.7965477 55.9160074,56.7979125 L24.789653,73.1005758 L20.1968709,68.508286 L15.6034061,63.9159961 L34.8911802,27.0991935 L61.610402,53.8155516 L55.9248804,56.7931354 Z M72.072308,52.6294318 C71.506486,53.1945107 70.7550143,53.5063962 69.955765,53.5063962 L69.9550826,53.5063962 C69.1551508,53.5057136 68.4036791,53.1945107 67.8378571,52.6294318 L36.077427,20.8724059 C34.9102912,19.7047126 34.9096085,17.8054197 36.0767445,16.6390912 C36.641884,16.0733299 37.3940382,15.762127 38.1939701,15.762127 C38.9932192,15.762127 39.7453735,16.0733299 40.310513,16.6384088 L72.0716255,48.3961172 C73.2387615,49.563128 73.2387615,51.462421 72.072308,52.6294318 Z" id="Shape" fill-rule="nonzero"></path>
                    <path d="M72.9319349,18.2157288 C73.5560157,18.2157288 74.1807322,17.9774065 74.6573723,17.5007622 L87.7764177,4.38160107 C88.7296981,3.42894772 88.7296981,1.88334874 87.7764177,0.930695384 C86.8237727,-0.022593458 85.278823,-0.022593458 84.3255426,0.930695384 L71.2058617,14.0498565 C70.2532168,15.0031453 70.2532168,16.5481088 71.2058617,17.5007622 C71.6825019,17.9774065 72.3072184,18.2157288 72.9319349,18.2157288 Z" id="Path"></path>
                    <path d="M56.4552894,13.6761546 C56.8500062,13.9587584 57.2939868,14.0944084 57.7331018,14.0944084 C58.4945586,14.0944084 59.2408107,13.6881238 59.6890487,12.940055 L65.0174226,4.04767651 C65.7241421,2.86805504 65.4224787,1.28480878 64.3435454,0.512136625 C63.2646119,-0.260535531 61.8165057,0.0692797417 61.1097862,1.24890139 L55.7820204,10.1412797 C55.0746926,11.3209013 55.3763561,12.9034827 56.4552894,13.6761546 Z" id="Path"></path>
                    <path d="M87.4878478,23.6561746 C86.7151467,22.5778188 85.1325059,22.2755387 83.9528399,22.9828865 L75.0601278,28.3114109 C73.880462,29.0181505 73.5506344,30.4656894 74.3233354,31.5446532 C74.813422,32.2288891 75.6293465,32.6005051 76.4618953,32.6005051 C76.9420075,32.6005051 77.4274392,32.4770386 77.8590082,32.2185494 L86.7510552,26.8900251 C87.9307212,26.1826772 88.2605488,24.7351384 87.4878478,23.6561746 Z" id="Path"></path>
                </g>
            </g>
        </g>
    </g>
</svg>