<?xml version="1.0" encoding="UTF-8"?>
<svg width="33px" height="57px" viewBox="0 0 33 57" version="1.1" xmlns="http://www.w3.org/2000/svg" xmlns:xlink="http://www.w3.org/1999/xlink">
    <!-- Generator: sketchtool 52.5 (67469) - http://www.bohemiancoding.com/sketch -->
    <title>D3C64104-EFB6-49FC-AF86-0E111577EFAF</title>
    <desc>Created with sketchtool.</desc>
    <g id="Our-Services" stroke="none" stroke-width="1" fill="none" fill-rule="evenodd">
        <g id="1.4-CG_Marketing-Web_Why-join" transform="translate(-906.000000, -732.000000)" fill="#FFFFFF">
            <g id="Group-13" transform="translate(905.000000, 708.000000)">
                <g id="Group-14" transform="translate(2.000000, 25.000000)">
                    <path d="M27.41485,53.45415 L4.41085,53.45415 C3.19985,53.45415 2.21485,52.46865 2.21485,51.25765 L2.21485,44.32165 L29.61135,44.32165 L29.61135,51.25765 C29.61135,52.46865 28.62585,53.45415 27.41485,53.45415 Z M4.41085,2.31315 L27.41435,2.31315 C28.62585,2.31315 29.61135,3.29865 29.61135,4.50965 L29.61135,5.96615 L2.21485,5.96615 L2.21485,4.50965 C2.21485,3.29865 3.19985,2.31315 4.41085,2.31315 Z M2.21485,42.49515 L29.61135,42.49515 L29.61135,7.79265 L2.21485,7.79265 L2.21485,42.49515 Z M27.41485,0.48665 L4.41085,0.48665 C2.19385,0.48665 0.38785,2.29215 0.38785,4.50965 L0.38785,51.25665 C0.38785,53.47515 2.19385,55.28065 4.41085,55.28065 L27.41435,55.28065 C29.63235,55.28065 31.43785,53.47515 31.43785,51.25765 L31.43785,4.50965 C31.43785,2.29215 29.63235,0.48665 27.41485,0.48665 Z" id="Fill-4" stroke="#FFFFFF"></path>
                    <path d="M15.9129,50.7144 C14.9054,50.7144 14.0864,49.8949 14.0864,48.8879 C14.0864,47.8809 14.9054,47.0614 15.9129,47.0614 C16.9204,47.0614 17.7394,47.8809 17.7394,48.8879 C17.7394,49.8949 16.9204,50.7144 15.9129,50.7144 M15.9129,45.2349 C13.8984,45.2349 12.2599,46.8734 12.2599,48.8879 C12.2599,50.9024 13.8984,52.5409 15.9129,52.5409 C17.9274,52.5409 19.5659,50.9024 19.5659,48.8879 C19.5659,46.8734 17.9274,45.2349 15.9129,45.2349" id="Fill-7"></path>
                    <path d="M12.26005,5.0528 L15.91305,5.0528 C16.41755,5.0528 16.82605,4.6448 16.82605,4.1398 C16.82605,3.6348 16.41755,3.2263 15.91305,3.2263 L12.26005,3.2263 C11.75505,3.2263 11.34705,3.6348 11.34705,4.1398 C11.34705,4.6448 11.75505,5.0528 12.26005,5.0528" id="Fill-9"></path>
                    <path d="M18.65265,5.0528 L19.56565,5.0528 C20.07115,5.0528 20.47915,4.6448 20.47915,4.1398 C20.47915,3.6348 20.07115,3.2263 19.56565,3.2263 L18.65265,3.2263 C18.14765,3.2263 17.73965,3.6348 17.73965,4.1398 C17.73965,4.6448 18.14765,5.0528 18.65265,5.0528" id="Fill-11"></path>
                </g>
            </g>
        </g>
    </g>
</svg>