<?xml version="1.0" encoding="UTF-8"?>
<svg width="66px" height="67px" viewBox="0 0 66 67" version="1.1" xmlns="http://www.w3.org/2000/svg" xmlns:xlink="http://www.w3.org/1999/xlink">
    <!-- Generator: sketchtool 52.5 (67469) - http://www.bohemiancoding.com/sketch -->
    <title>618084E3-84A6-498C-87A7-01327DD03FE0</title>
    <desc>Created with sketchtool.</desc>
    <g id="Our-Services" stroke="none" stroke-width="1" fill="none" fill-rule="evenodd">
        <g id="2.1-CG_Marketing-Web_Membership" transform="translate(-124.000000, -1179.000000)" fill="#3EB29B">
            <g id="Group-8" transform="translate(124.000000, 1156.000000)">
                <g id="Group-3" transform="translate(0.387387, 0.000000)">
                    <g id="news" transform="translate(0.000000, 23.000000)">
                        <path d="M63.0264397,16.2224731 L52.1050526,16.2224731 L52.1050526,1.97822577 C52.1050526,0.885856596 51.2212851,0 50.1314922,0 L1.9735604,0 C0.883767424,0 0,0.885856596 0,1.97822577 L0,58.5590592 C0,63.2132568 3.77781265,67 8.42103402,67 L56.578966,67 C61.2221874,67 65,63.2132568 65,58.5590592 L65,18.2006989 C65,17.1083297 64.1162326,16.2224731 63.0264397,16.2224731 Z M61.0523694,58.5590592 C61.0523694,61.0315857 59.0456614,63.0435486 56.578966,63.0435486 C54.1117605,63.0435486 52.1050526,61.0315857 52.1050526,58.5590592 L52.1050526,20.1789246 L61.0523694,20.1789246 L61.0523694,58.5590592 Z M8.42103402,63.0435486 C5.95433862,63.0435486 3.94712067,61.0315857 3.94712067,58.5590592 L3.94712067,3.95645142 L48.1579318,3.95645142 L48.1579318,58.5590592 C48.1579318,60.206047 48.6327083,61.7431335 49.4496705,63.0435486 L8.42103402,63.0435486 Z" id="Shape" fill-rule="nonzero"></path>
                        <path d="M41.0079332,9 L10.9920669,9 C9.89205471,9 9,9.88897118 9,10.985181 L9,25.014819 C9,26.1110287 9.89205471,27 10.9920669,27 L41.0079332,27 C42.1079453,27 43,26.1110287 43,25.014819 L43,10.985181 C43,9.88897118 42.1079453,9 41.0079332,9 Z M39.0158663,23.0296381 L12.9846484,23.0296381 L12.9846484,12.9708748 L39.0158663,12.9708748 L39.0158663,23.0296381 Z" id="Shape" fill-rule="nonzero"></path>
                        <path d="M41.0079332,54 L10.9920669,54 C9.89205471,54 9,54.8954915 9,56.0002583 C9,57.1045085 9.89205471,58 10.9920669,58 L41.0079332,58 C42.1079453,58 43,57.1045085 43,56.0002583 C43,54.8954915 42.1079453,54 41.0079332,54 Z" id="Path"></path>
                        <path d="M41.0079332,46 L10.9920669,46 C9.89205471,46 9,46.8950905 9,48 C9,49.1043927 9.89205471,50 10.9920669,50 L41.0079332,50 C42.1079453,50 43,49.1043927 43,48 C43,46.8950905 42.1079453,46 41.0079332,46 Z" id="Path"></path>
                        <path d="M41.0079332,38 L10.9920669,38 C9.89205471,38 9,38.8950904 9,40.0000001 C9,41.1043928 9.89205471,42 10.9920669,42 L41.0079332,42 C42.1079453,42 43,41.1043928 43,40.0000001 C43,38.8950904 42.1079453,38 41.0079332,38 Z" id="Path"></path>
                        <path d="M41.0079332,31 L10.9920669,31 C9.89205471,31 9,31.8956072 9,33.0000001 C9,34.1043928 9.89205471,35 10.9920669,35 L41.0079332,35 C42.1079453,35 43,34.1043928 43,33.0000001 C43,31.8956072 42.1079453,31 41.0079332,31 Z" id="Path"></path>
                    </g>
                </g>
            </g>
        </g>
    </g>
</svg>