<?xml version="1.0" encoding="UTF-8"?>
<svg width="52px" height="52px" viewBox="0 0 52 52" version="1.1" xmlns="http://www.w3.org/2000/svg" xmlns:xlink="http://www.w3.org/1999/xlink">
    <!-- Generator: sketchtool 52.5 (67469) - http://www.bohemiancoding.com/sketch -->
    <title>469CBB1E-0F18-4F73-8234-A6776AAD38EE</title>
    <desc>Created with sketchtool.</desc>
    <g id="Our-Services" stroke="none" stroke-width="1" fill="none" fill-rule="evenodd">
        <g id="1.4-CG_Marketing-Web_Why-join" transform="translate(-61.000000, -627.000000)" fill="#FFFFFF" stroke="#FFFFFF">
            <g id="Group-9" transform="translate(62.000000, 593.000000)">
                <g id="Group-12" transform="translate(0.000000, 34.000000)">
                    <path d="M48.1481,28.62855 C48.1481,29.02655 47.8241,29.35055 47.4261,29.35055 L42.7481,29.35055 C41.2446,29.35055 39.9526,30.21355 39.3776,31.60255 C38.8021,32.99155 39.1046,34.51555 40.1686,35.57855 L43.4761,38.88505 C43.7586,39.16755 43.7586,39.62555 43.4761,39.90705 L39.2601,44.12305 C38.9786,44.40455 38.5206,44.40605 38.2381,44.12305 L34.9316,40.81555 C33.8676,39.75155 32.3446,39.45055 30.9556,40.02455 C29.5666,40.59955 28.7036,41.89155 28.7036,43.39505 L28.7036,48.07305 C28.7036,48.47105 28.3796,48.79505 27.9816,48.79505 L22.0186,48.79505 C21.6201,48.79505 21.2961,48.47105 21.2961,48.07305 L21.2961,43.39505 C21.2961,41.89155 20.4331,40.59955 19.0441,40.02455 C18.5786,39.83105 18.0991,39.73655 17.6251,39.73655 C16.6861,39.73655 15.7761,40.10705 15.0686,40.81455 L11.7621,44.12205 C11.4786,44.40555 11.0206,44.40355 10.7401,44.12205 L6.5241,39.90605 C6.2416,39.62405 6.2416,39.16555 6.5241,38.88405 L9.8316,35.57755 C10.8946,34.51455 11.1981,32.99055 10.6221,31.60155 C10.0471,30.21355 8.7556,29.35055 7.2521,29.35055 L2.5741,29.35055 C2.1761,29.35055 1.8521,29.02655 1.8521,28.62855 L1.8521,22.66555 C1.8521,22.26755 2.1761,21.94305 2.5741,21.94305 L7.2521,21.94305 C8.7556,21.94305 10.0471,21.08005 10.6221,19.69155 C11.1981,18.30255 10.8956,16.77855 9.8316,15.71555 L6.5241,12.40905 C6.2416,12.12655 6.2416,11.66855 6.5241,11.38705 L10.7401,7.17105 C11.0216,6.88855 11.4796,6.88855 11.7621,7.17105 L15.0686,10.47755 C16.1306,11.53955 17.6536,11.84405 19.0441,11.26805 C20.4331,10.69405 21.2961,9.40255 21.2961,7.89905 L21.2961,3.22105 C21.2961,2.82305 21.6201,2.49905 22.0186,2.49905 L27.9806,2.49905 C28.3796,2.49905 28.7036,2.82305 28.7036,3.22105 L28.7036,7.89905 C28.7036,9.40255 29.5666,10.69405 30.9556,11.26905 C32.3461,11.84505 33.8686,11.54155 34.9316,10.47855 L38.2381,7.17205 C38.5216,6.88955 38.9796,6.88955 39.2601,7.17205 L43.4761,11.38805 C43.7586,11.67005 43.7586,12.12855 43.4761,12.41005 L40.1686,15.71655 C39.1056,16.77955 38.8021,18.30355 39.3776,19.69205 C39.9526,21.08105 41.2446,21.94405 42.7481,21.94405 L47.4261,21.94405 C47.8241,21.94305 48.1481,22.26755 48.1481,22.66555 L48.1481,28.62855 Z M47.4261,20.09155 L42.7481,20.09155 C41.9961,20.09155 41.3771,19.67755 41.0891,18.98305 C40.8011,18.28855 40.9471,17.55705 41.4776,17.02555 L44.7851,13.71905 C45.2716,13.23305 45.5391,12.58605 45.5391,11.89905 C45.5391,11.21105 45.2716,10.56455 44.7851,10.07755 L40.5696,5.86155 C39.5971,4.88955 37.9016,4.88805 36.9281,5.86155 L33.6211,9.16855 C33.0896,9.69905 32.3566,9.84705 31.6641,9.55805 C30.9696,9.27005 30.5556,8.65055 30.5556,7.89905 L30.5556,3.22105 C30.5556,1.80155 29.4011,0.64705 27.9816,0.64705 L22.0186,0.64705 C20.5991,0.64705 19.4446,1.80155 19.4446,3.22105 L19.4446,7.89905 C19.4446,8.65055 19.0306,9.27005 18.3361,9.55805 C17.6436,9.84755 16.9101,9.69905 16.3786,9.16855 L13.0721,5.86155 C12.0981,4.88805 10.4026,4.88955 9.4306,5.86155 L5.2146,10.07755 C4.7286,10.56355 4.4611,11.21105 4.4611,11.89905 C4.4611,12.58605 4.7286,13.23205 5.2146,13.71905 L8.5221,17.02555 C9.0531,17.55705 9.1981,18.28855 8.9111,18.98305 C8.6241,19.67755 8.0036,20.09155 7.2521,20.09155 L2.5741,20.09155 C1.1546,20.09155 0.0001,21.24605 0.0001,22.66555 L0.0001,28.62755 C0.0001,30.04805 1.1546,31.20255 2.5741,31.20255 L7.2521,31.20255 C8.0036,31.20255 8.6231,31.61655 8.9111,32.31105 C9.1991,33.00505 9.0531,33.73655 8.5221,34.26805 L5.2146,37.57505 C4.7286,38.06105 4.4611,38.70805 4.4611,39.39505 C4.4611,40.08305 4.7286,40.72955 5.2146,41.21655 L9.4306,45.43205 C10.4036,46.40555 12.0981,46.40705 13.0721,45.43205 L16.3786,42.12455 C16.9101,41.59405 17.6406,41.44805 18.3361,41.73605 C19.0306,42.02405 19.4446,42.64305 19.4446,43.39505 L19.4446,48.07305 C19.4446,49.49255 20.5991,50.64705 22.0186,50.64705 L27.9806,50.64705 C29.4001,50.64705 30.5546,49.49255 30.5546,48.07305 L30.5546,43.39505 C30.5546,42.64305 30.9686,42.02405 31.6631,41.73605 C32.3581,41.44705 33.0891,41.59405 33.6201,42.12455 L36.9271,45.43205 C37.9011,46.40605 39.5961,46.40455 40.5686,45.43205 L44.7841,41.21655 C45.2706,40.73055 45.5381,40.08305 45.5381,39.39505 C45.5381,38.70805 45.2706,38.06205 44.7841,37.57505 L41.4771,34.26805 C40.9461,33.73655 40.8011,33.00505 41.0881,32.31105 C41.3751,31.61655 41.9961,31.20255 42.7481,31.20255 L47.4261,31.20255 C48.8456,31.20255 50.0001,30.04805 50.0001,28.62855 L50.0001,22.66555 C50.0001,21.24605 48.8456,20.09155 47.4261,20.09155 Z" id="Fill-4"></path>
                    <path d="M24,33 C20.141171,33 17,29.858829 17,26 C17,22.141171 20.141171,19 24,19 C27.858829,19 31,22.141171 31,26 C31,29.858829 27.858829,33 24,33 M24,17 C19.0374993,17 15,21.0369593 15,26 C15,30.9630407 19.0374993,35 24,35 C28.9630407,35 33,30.9630407 33,26 C33,21.0369593 28.9630407,17 24,17" id="Fill-7"></path>
                </g>
            </g>
        </g>
    </g>
</svg>