<svg xmlns="http://www.w3.org/2000/svg" xmlns:xlink="http://www.w3.org/1999/xlink" width="175" height="189" viewBox="0 0 175 189"><defs><style>.a{fill:none;}.b{clip-path:url(#a);}.c{fill:#eee8e6;}.d{fill:#e0d2c9;}.e{fill:#585766;}.f{clip-path:url(#b);}.g{fill:#262626;}.h{fill:#8c8ba4;}.i{clip-path:url(#d);}.j{fill:#4c4c59;}.k{fill:#f48120;}.l{fill:#a74d24;}.m{fill:#f6f0ed;}.n{fill:#b2b1b2;}.o{fill:#aca6a3;}.p{fill:#b87b45;}.q{fill:#875638;}.r{fill:#ececec;}.s{fill:#fff;}.t{fill:#ddded9;}.u{fill:#b2b4b6;}.v{fill:#bbbdbf;}</style><clipPath id="a"><rect class="a" width="175" height="189"/></clipPath><clipPath id="b"><rect class="a" width="106" height="42" transform="translate(0.091 -0.003)"/></clipPath><clipPath id="d"><rect class="a" width="19" height="8" transform="translate(-0.338 -0.07)"/></clipPath></defs><g transform="translate(0 0)"><g class="b"><path class="c" d="M16.711,44.615v102a19.82,19.82,0,0,0,15,19h0a20.972,20.972,0,0,0,4,0h84c10.441,0,18-8.559,18-19v-102c0-9.148-6.362-16.239-15-18v-12c0-2.086-.914-4-3-4a4.171,4.171,0,0,0-4,4h-76a4,4,0,0,0-8,0v12c-8.638,1.761-15,8.852-15,18" transform="translate(37.289 23.385)"/><path class="d" d="M31.719,26.622v-12a4,4,0,0,1,8,0h15v12c-8.632,1.765-15,8.858-15,18v102a19.077,19.077,0,0,0,19,19h-23a19.075,19.075,0,0,1-19-19v-102c0-9.142,6.374-16.235,15-18" transform="translate(37.281 23.378)"/><path class="e" d="M23.522,0h98a4.161,4.161,0,0,1,4,4V38a4.161,4.161,0,0,1-4,4h-98a4.159,4.159,0,0,1-4-4V4a4.159,4.159,0,0,1,4-4" transform="translate(42.477 0)"/></g></g><g transform="translate(61.909 0.003)"><g class="f"><path class="g" d="M23.522,0h15a4.157,4.157,0,0,0-4,4V27h87a4.166,4.166,0,0,0,4-4V38a4.161,4.161,0,0,1-4,4h-98a4.159,4.159,0,0,1-4-4V4a4.159,4.159,0,0,1,4-4" transform="translate(-19.432 -0.003)"/></g></g><g transform="translate(0 0)"><g class="b"><path class="h" d="M20.717,18.624h114c2.09,0,3-1.91,3-4s-.91-4-3-4h-114a4.154,4.154,0,0,0-4,4,4.161,4.161,0,0,0,4,4" transform="translate(37.283 23.376)"/></g></g><g transform="translate(54.338 34.07)"><g class="i"><path class="j" d="M20.717,10.622h15a4.157,4.157,0,0,0-4,4,4.152,4.152,0,0,0,4,4h-15a4.154,4.154,0,0,1-4-4,4.159,4.159,0,0,1,4-4" transform="translate(-17.055 -10.692)"/></g></g><rect class="k" width="121" height="76" transform="translate(54 81)"/><rect class="l" width="23" height="76" transform="translate(54 81)"/><g transform="translate(0 0)"><g class="b"><path class="m" d="M31.954,33.19c2.313-.478,23.094-4.916,32,4,8.779,8.775,8.019,26.248,8,27-.041,1.695-.353,3.576-2,4a61.062,61.062,0,0,1-11,1c-5.791,0-12.423-1.42-17-6-8.438-8.438-12.853-25.267-13-26-.408-2.042.961-3.58,3-4" transform="translate(64.046 68.81)"/><path class="d" d="M31.954,32.873c.612-.127,3.379-.694,6-1,1.265,5.112,4.289,17.285,11,24,4.58,4.58,11.212,6,17,6,2.265,0,4.258-.777,6-1a28.237,28.237,0,0,1,0,3c-.041,1.695-.353,3.576-2,4a61.062,61.062,0,0,1-11,1c-5.791,0-12.423-1.42-17-6-8.438-8.438-12.853-25.267-13-26-.408-2.042.961-3.58,3-4" transform="translate(64.046 69.127)"/><path class="n" d="M32.722,49.209h3a31.62,31.62,0,0,1,0,4,26.839,26.839,0,0,1-9,22c-.385-.446-.656-1.516-1-2,5.227-5.224,7.392-12.037,7-20a32.858,32.858,0,0,0,0-4" transform="translate(55.279 107.791)"/><path class="o" d="M34.412,56.588c.341.478.615,1.554,1,2a28.182,28.182,0,0,1-13,6c-.379-.086-.627.105-1,0,4.9-1.2,9.573-4.573,13-8" transform="translate(46.588 124.412)"/><path class="p" d="M24.136,43.054a28.182,28.182,0,0,1,14,19h-3a26.865,26.865,0,0,0-11-17Z" transform="translate(52.864 94.946)"/><path class="q" d="M20.9,42.357a26.507,26.507,0,0,1,13,3v2a26.288,26.288,0,0,0-14-5c.395-.016.608,0,1,0" transform="translate(43.102 92.642)"/><path class="r" d="M10.5,70.365a27.729,27.729,0,0,0,11,21,28.872,28.872,0,0,0,18,5c14.964-.742,25.739-13.039,25-28s-13.039-26.739-28-26a28.034,28.034,0,0,0-15,5,26.524,26.524,0,0,0-11,23" transform="translate(23.502 92.635)"/><path class="s" d="M11.788,67.658a23.325,23.325,0,0,0,22,22c.261.016.736,0,1,0,.551.019,1.443.029,2,0a7.482,7.482,0,0,0,1,0c.261-.032.742.045,1,0,11.572-1.793,20.589-12.039,20-24a23.317,23.317,0,0,0-22-22c-.261-.016-.736.006-1,0-.551-.013-1.439-.029-2,0a8.725,8.725,0,0,0-1,0c-.264.035-.742-.038-1,0-11.578,1.793-20.592,12.039-20,24" transform="translate(26.212 95.342)"/><path class="t" d="M18.34,43.656l2,46c.255.016.736-.006,1,0,.557.013,1.446.029,2,0a9.522,9.522,0,0,0,1,0c.261-.032.745.041,1,0l-2-46c-.264-.016-.736.006-1,0-.551-.013-1.439-.029-2,0a6.986,6.986,0,0,0-1,0c-.264.032-.745-.041-1,0" transform="translate(39.661 95.344)"/><path class="u" d="M21.5,43.8a40.164,40.164,0,0,1,4,3c-6.549,4.38-11.417,11.565-11,20,.376,7.629,5.1,14.06,11,18a40.411,40.411,0,0,1-4,3,27.735,27.735,0,0,1-11-21c-.022-.446,0-.564,0-1a27.08,27.08,0,0,1,11-22" transform="translate(23.5 96.2)"/><path class="v" d="M22.79,44.984h0a27.1,27.1,0,0,1,8,18,25.682,25.682,0,0,1-8,20h0c-5.893-3.937-10.621-10.374-11-18-.414-8.441,4.448-15.62,11-20" transform="translate(26.21 98.016)"/><path class="r" d="M0,73.369c2.1,14.837,16.163,25.1,31,23s25.1-16.163,23-31-16.163-25.1-31-23-25.1,16.163-23,31" transform="translate(0 92.631)"/><path class="s" d="M1.287,69.659a23.492,23.492,0,0,0,24,20c.261-.01.736.016,1,0a8.726,8.726,0,0,0,1,0c.551-.08,1.462.118,2,0,.261-.054.748.064,1,0,11.368-2.841,18.672-14.141,17-26a23.484,23.484,0,0,0-24-20c-.258.01.264-.019,0,0-.551.038-1.449-.08-2,0s-1.462-.118-2,0c-.258.054-.748.939-1,1C6.916,47.5-.392,57.8,1.287,69.659" transform="translate(2.712 95.341)"/><path class="t" d="M6.261,44.646l7,45c.261-.01.736.019,1,0a6.985,6.985,0,0,0,1,0c.554-.08,1.462.121,2,0,.261-.057.748.064,1,0l-7-46c-.261.01.264-.019,0,0-.548.035-1.446-.076-2,0s-1.462-.121-2,0c-.258.057-.748.933-1,1" transform="translate(14.74 95.354)"/></g></g></svg>