<svg xmlns="http://www.w3.org/2000/svg" xmlns:xlink="http://www.w3.org/1999/xlink" width="74.265" height="81" viewBox="0 0 74.265 81"><defs><clipPath id="a"><rect width="74.265" height="81" fill="rgba(0,0,0,0)"/></clipPath></defs><g transform="translate(0.051)"><g transform="translate(-0.051)"><g clip-path="url(#a)"><g transform="translate(0.132 6.867)" fill="rgba(0,0,0,0)" stroke="#cbcbcb" stroke-miterlimit="10" stroke-width="1"><rect width="74.001" height="74.001" rx="10" stroke="none"/><rect x="0.5" y="0.5" width="73.001" height="73.001" rx="9.5" fill="none"/></g><path d="M67.893,25.983H7.107A6.607,6.607,0,0,0,.5,32.59v18.5h74V32.59a6.607,6.607,0,0,0-6.607-6.607" transform="translate(-0.368 -19.116)" fill="#dc291e"/><path d="M211.984,35.262a3,3,0,1,1-3-3,3,3,0,0,1,3,3" transform="translate(-151.546 -23.736)" fill="#fff"/><path d="M211.187,13.735h0a2.208,2.208,0,0,1-2.208-2.208V2.209a2.208,2.208,0,0,1,4.416,0v9.318a2.208,2.208,0,0,1-2.208,2.208" transform="translate(-153.748 -0.001)" fill="#333"/><path d="M58.317,35.262a3,3,0,1,1-3-3,3,3,0,0,1,3,3" transform="translate(-38.491 -23.736)" fill="#fff"/><path d="M57.521,13.735h0a2.208,2.208,0,0,1-2.208-2.208V2.209a2.208,2.208,0,0,1,4.416,0v9.318a2.208,2.208,0,0,1-2.208,2.208" transform="translate(-40.694 -0.001)" fill="#333"/></g></g><path d="M-3.036-7.92H-5.4L-6.864-4.668A13.479,13.479,0,0,0-7.512-3H-7.56a14.319,14.319,0,0,0-.66-1.656L-9.732-7.92h-2.376V0h2.184V-3.552a5.55,5.55,0,0,0-.06-.876l.06-.024a5.923,5.923,0,0,0,.2.6L-8.136.072h1.128l1.56-3.924a5.923,5.923,0,0,0,.2-.6l.06.024a5.29,5.29,0,0,0-.06.876V0h2.208ZM2.94,0H5.208L2.568-7.92H.072L-2.592,0H-.3L.108-1.452H2.544ZM.552-3.06l.528-1.9a9.486,9.486,0,0,0,.228-.972h.048a8.555,8.555,0,0,0,.216.96L2.1-3.06Zm11.9,1.332A1.451,1.451,0,0,1,12.2-1.7c-.888,0-.9-.864-1.608-1.1a2.229,2.229,0,0,0,1.428-2.244c0-1.98-1.14-2.868-3.4-2.868H5.664V0H7.908V-2.412H8.04C9.576-2.412,8.916.1,11.508.1a3.783,3.783,0,0,0,1.068-.108Zm-4.548-2.2V-6.2h.576c.84,0,1.356.408,1.356,1.176,0,.708-.576,1.1-1.5,1.1Z" transform="translate(36.949 24.839)" fill="#fff"/><path d="M-8.125,0H-3.6V-16.5h-.775l-7.875,1.575v4.075l4.125-1.025ZM.15-16.5-.525-6.6H3.6c.1-.3.55-.875,1.75-.875A1.813,1.813,0,0,1,7.3-5.625c0,1.075-.9,1.8-2.25,1.8a4.981,4.981,0,0,1-3.525-1.85L-1.825-3.1A7.958,7.958,0,0,0,5.075.2c4.175,0,6.95-2.3,6.95-5.775,0-3.2-2.3-5.35-5.775-5.35a4.824,4.824,0,0,0-2.65.7l-.1-.05.175-2.475H10.75V-16.5Z" transform="translate(36.95 56.269)" fill="#333"/><path d="M-11.313-5.94h-1.332L-14.076-2.8a9.845,9.845,0,0,0-.414,1.053h-.036c-.036-.135-.243-.666-.414-1.044l-1.449-3.15h-1.359V0H-16.5l-.009-3.132a5.2,5.2,0,0,0-.045-.711l.045-.009a3.963,3.963,0,0,0,.171.522L-14.868.036h.684l1.431-3.33a4.537,4.537,0,0,0,.189-.558l.036.009c-.009.054-.036.441-.036.711L-12.573,0h1.26ZM-7.452-6a2.8,2.8,0,0,0-2.9,3.024A2.8,2.8,0,0,0-7.452.063,2.8,2.8,0,0,0-4.563-2.979,2.792,2.792,0,0,0-7.452-6Zm0,4.95c-.927,0-1.6-.711-1.6-1.926S-8.379-4.9-7.452-4.9s1.593.711,1.593,1.917S-6.525-1.053-7.452-1.053Zm8.9-4.887H.207l.009,3A9.012,9.012,0,0,0,.27-1.836l-.054.027c-.1-.18-.369-.666-.675-1.125L-2.466-5.94H-3.6V0h1.233l-.009-2.871a7.19,7.19,0,0,0-.045-1.071l.054-.027c.144.234.45.747.684,1.107L.234,0H1.449Zm3.33,0H2.709V0H5.058c1.71,0,2.709-1.026,2.709-2.979A2.733,2.733,0,0,0,4.779-5.94Zm.126,4.923H3.987V-4.923h.639c1.179,0,1.845.63,1.845,1.944C6.471-1.575,5.859-1.017,4.905-1.017ZM12.267,0h1.3l-2.1-5.94H10.089L7.983,0h1.3L9.7-1.269h2.151Zm-2.25-2.232.567-1.755a5.06,5.06,0,0,0,.18-.684h.027a6.1,6.1,0,0,0,.18.675l.576,1.764ZM18.342-5.94H17l-.99,2a3.925,3.925,0,0,0-.279.738H15.7a4.052,4.052,0,0,0-.288-.738l-1-2H13.041l2.016,3.807V0h1.278V-2.151Z" transform="translate(36.949 70.57)" fill="#333"/></g></svg>