<svg xmlns="http://www.w3.org/2000/svg" xmlns:xlink="http://www.w3.org/1999/xlink" width="435.268" height="532.467" viewBox="0 0 435.268 532.467"><defs><style>.a{fill:none;}.b{clip-path:url(#a);}.c{fill:#d9a97f;}.d{fill:#41484f;}.e{fill:#4fb848;}.f{fill:#44a147;}.g{fill:#c79975;}.h{fill:#211e21;}.i{fill:#f9d8bd;}.j{fill:#fff;}.k{fill:#434043;}.l{fill:#ca2e4d;}.m{fill:#f05f82;}.n{fill:#c69872;}.o{fill:#fcd8ba;}.p{fill:#fabd8e;}.q{fill:#878789;}.r{fill:#8a4d36;}.s{fill:#a3a3a5;}.t{fill:#404043;}.u{fill:#231e21;}.v{fill:#715750;}.w{fill:#5c3831;}.x{fill:#ec5a7d;}.y{fill:#c22a48;}.z{fill:#703624;}.aa{fill:#fffdfe;}.ab{fill:#c19668;}.ac{fill:#d42876;}.ad{fill:#0b5fad;}.ae{fill:#ed2b7a;stroke:rgba(0,0,0,0);stroke-miterlimit:10;}.af{fill:#006161;}.ag{fill:#1b8f8c;}.ah{fill:#00a99e;}.ai{fill:#fccaac;}.aj{fill:#f9d8bf;}.ak{fill:#e6e8e8;}.al{fill:#36393e;}.am{fill:#ef61a3;}.an{fill:#1c1e21;}.ao{fill:#c2e3f7;}.ap{fill:#c7c7bc;}.aq{fill:#cc5085;}.ar{fill:#231c19;}.as{fill:#f4c298;}.at{fill:#f9dec4;}.au{fill:#69331c;}.av{fill:#693118;}.aw{fill:#646466;}.ax{fill:#4d4a4a;}.ay{fill:#ca2e4a;}.az{fill:#f2828f;}.ba{fill:#f0b591;}.bb{fill:#eda378;}.bc{fill:#2dabe2;}.bd{fill:#2b9ece;}.be{fill:#ba783f;}.bf{fill:#f15d69;}.bg{fill:#824b1f;}.bh{fill:#29334c;}.bi{fill:#338ac4;}.bj{fill:#9a2e3b;}.bk{fill:#0d548f;}</style><clipPath id="a"><rect class="a" width="435.268" height="532.467"/></clipPath></defs><g class="b"><path class="c" d="M94.827,204.364,93.419,347.886l17.556-8.467c-1.862-50.6,10.243-56.933,5.564-131.881" transform="translate(59.02 129.112)"/><path class="c" d="M151.437,205.185l-13.2,142.88-16.594-10.331c6.994-50.115-4.4-57.731,7.882-131.753" transform="translate(76.852 129.63)"/><path class="c" d="M98.21,202.36a22.286,22.286,0,0,0-1.031-4.243c-.566-1.5-2.033-2.657-2.71-4.122-1.855-4.008-2.041-8.449-1.8-12.73.521-9.2,3.228-20.316,6.093-29.827,3.561-11.858,7.351-21.213,7.351-21.213l-17.3-7.271s-9.41,53.235-9.972,55.717c-1.571,6.981-3.174,14.046-6.555,20.342a41.079,41.079,0,0,0-2.554,5.044,21.411,21.411,0,0,0-1.039,4.85,52.558,52.558,0,0,0-.331,5.936,6.536,6.536,0,0,0,.672,3.44c.271.434.893.847,1.258.512a1.043,1.043,0,0,0,.191-.472c.612-3.1,1.286-6.051,1.9-9.131a58.053,58.053,0,0,0-.883,10.926c-.031,1.686-.024,3.5,1,4.918a.794.794,0,0,0,.379.328c.428.152.751-.335.884-.744,1.509-4.649.829-9.761,2.616-14.324-1.005,6.139-1.965,12.676.7,18.509a1.438,1.438,0,0,0,.54.72c.756.41,1.47-.527,1.713-1.31,1.759-6.011.84-12.509,3.468-18.191-.209,1.978-.4,3.946-.607,5.922-.41,4.071-.77,8.412,1.224,12.134.359.653,1.09,1.382,1.761,1.052a1.323,1.323,0,0,0,.532-.669,21.413,21.413,0,0,0,1.384-6.132,105.18,105.18,0,0,1,3.577-16.316c.148-.472.426-1.025.937-.974a1.047,1.047,0,0,1,.713.457c1.356,1.495,1.438,3.417,2.5,5.1a4.883,4.883,0,0,0,3.923,2.591c.426,0,1.292-.122,1.083-.9-.928-3.391-1.007-6.473-1.624-9.938" transform="translate(43.19 77.678)"/><path class="c" d="M152.046,201.854a22.557,22.557,0,0,1,1.028-4.243c.568-1.5,2.038-2.655,2.712-4.12,1.855-4,2.043-8.449,1.8-12.73-.507-9.2-3.226-20.319-6.091-29.827-3.559-11.857-7.348-21.2-7.348-21.2l17.3-7.273s9.41,53.24,9.97,55.709c1.573,6.981,3.174,14.045,6.555,20.34a41.1,41.1,0,0,1,2.555,5.045,21.4,21.4,0,0,1,1.036,4.858,52.034,52.034,0,0,1,.331,5.928,6.545,6.545,0,0,1-.671,3.441c-.271.437-.891.857-1.245.512a.843.843,0,0,1-.2-.475c-.612-3.094-1.286-6.039-1.9-9.128a58.513,58.513,0,0,1,.881,10.931c.033,1.679.023,3.5-1.005,4.912a.794.794,0,0,1-.379.336c-.428.145-.752-.343-.884-.751-1.509-4.647-.819-9.766-2.614-14.325,1.005,6.149,1.966,12.684-.708,18.509a1.452,1.452,0,0,1-.537.721c-.756.414-1.474-.53-1.713-1.312-1.757-6.013-.844-12.5-3.469-18.189.209,1.976.4,3.951.607,5.932.411,4.061.772,8.409-1.224,12.121-.357.656-1.09,1.384-1.759,1.054a1.29,1.29,0,0,1-.532-.669,21.652,21.652,0,0,1-1.387-6.131,104.609,104.609,0,0,0-3.575-16.316c-.149-.463-.426-1.025-.935-.977a1.093,1.093,0,0,0-.715.457c-1.356,1.5-1.439,3.419-2.5,5.114A4.918,4.918,0,0,1,151.5,212.7c-.424-.008-1.294-.121-1.084-.9.93-3.384,1.007-6.475,1.625-9.939" transform="translate(91.069 77.364)"/><path class="d" d="M169.366,165.438c.346-.9,4.016,6.512,3.858,19.534-.166,14.89.86,43.719-2.838,59.1,0,0-10.651,1.039-16.217-.5a52.264,52.264,0,0,1-10.494-4.36s-9.805-41.659-11.881-37.412c-4.626,9.492-12.671,39.414-12.671,39.414s-8.887,6.88-24.553-1l-1.222-19.55a391.194,391.194,0,0,1,.716-54.831c.614-7.834,8.077-9.2,8.077-9.2Z" transform="translate(58.559 98.956)"/><path class="e" d="M186.669,164.6a104.93,104.93,0,0,1-5.192-19.413c-.331,18.506.028,41.245,2.031,66.084.14,1.7-1.4,3.065-3.006,3.51-5.525,1.6-20.058,4.923-45.156,4.923-33.017,0-32.5-6.795-32.5-6.795s-.447-27.946-1.49-57.16a83.527,83.527,0,0,1-3.076,9.657c-1.044,2.705-21.06-10.492-19.376-14.133,3.313-7.137,10.884-40.582,15.089-48.182a47.262,47.262,0,0,1,5.6-8.1,28.328,28.328,0,0,1,9.087-7.268c.155-.072.307-.144.473-.215.516-.232,1.044-.447,1.6-.649a61.589,61.589,0,0,1,9.814-2.748c2.5-.488,5.205-.92,8.059-1.265,0,0,4.469,10.6,14.533,10.6s11.832-11.341,11.832-11.341c2.852.232,5.747.576,8.575,1.08a52.578,52.578,0,0,1,10.119,2.72.806.806,0,0,0-.193-.116c7.307,2.273,13.265,8.895,17.468,16.479s11.775,41.043,15.074,48.18c1.682,3.642-18.333,16.838-19.363,14.148" transform="translate(49.786 51.872)"/><path class="f" d="M97.7,141.429c-.015.029-.015.072-.028.1-1.5,5.613-3.1,9.814-3.1,9.814s-.318,1.137-4.662-1.02a50.711,50.711,0,0,1-5.316-3.3s8.28-4.189,9.893-6.85c4.194-5.77-1.085-14.937-1.4-22.927a34.641,34.641,0,0,1,2.882-12.893Z" transform="translate(53.442 65.93)"/><path class="c" d="M121.336,105.283h0a9.335,9.335,0,0,0,9.148-9.458V81.645a9.151,9.151,0,1,0-18.292,0v14.18a9.334,9.334,0,0,0,9.144,9.458" transform="translate(70.88 45.61)"/><path class="f" d="M143.071,100.831a36.872,36.872,0,0,1,5.388,17.83c-.321,7.986-5.6,17.153-1.4,22.925,1.617,2.663,9.885,6.85,9.885,6.85a49.646,49.646,0,0,1-5.3,3.3c-4.344,2.159-4.664,1.036-4.664,1.036s-1.617-4.217-3.1-9.828c-.721-2.707-1.418-5.714-2.172-8.65Z" transform="translate(89.528 63.702)"/><path class="g" d="M112.194,72.19h18.291V84.417s-11.915,4.3-18.291,2.5Z" transform="translate(70.882 45.607)"/><path class="c" d="M109.332,82.973q6.166-.747,13.337-1.007a112.567,112.567,0,0,1,13.035.279S136.531,99.5,123.866,99.5s-14.534-16.525-14.534-16.525" transform="translate(69.074 51.735)"/><path class="e" d="M100.629,85.547a28.352,28.352,0,0,0-9.089,7.268c1.645-2.908,4.747-5.324,9.089-7.268" transform="translate(57.833 54.045)"/><path class="c" d="M86.62,79.546a5.338,5.338,0,0,1,4.673-.222A158.308,158.308,0,0,1,90.078,44.9S90.072,9.7,129.283,4.244c31.009-4.879,36.278,31.632,36.278,31.632a193.992,193.992,0,0,1,6.633,31.658c1.873-3.017,4.337-4.768,6.756-4.362,4.128.7,6.512,7.366,5.329,14.893s-5.483,13.075-9.6,12.387a4.425,4.425,0,0,1-1.77-.734c-1.425,20.006-10.628,35.512-34.871,38.089-21.073,2.25-33-8.968-39.815-23.839C94.66,104.28,90,100.9,86.867,95.415c-3.73-6.57-3.854-13.682-.246-15.869" transform="translate(53.063 2.396)"/><path class="h" d="M177.958,45.863c.18,13.082-3.841,25.271-4.316,24.106-4.12-3.957-7.671-13.069-10.3-21.975-1.407-4.735-2.524-9.283-3.37-13.069-1.03-4.647-1.687-7.842-1.784-8.6.194,1.252.375,6-7.013,9.871a42.668,42.668,0,0,1-13.671,4.159c-9.089,1.454-14.337,1.253-18.359.289-4.3-.966-7.113-2.908-11.888-4.735-4.5-1.841-9.368,4.837-11.331,8.03-.654.964-1.03,1.642-1.03,1.642s.555,5.424.752,12.39c.082,7.842-.377,17.816-2.911,23.716a125.984,125.984,0,0,1-8.518-22.06s-.1-.3-.183-.677a74.648,74.648,0,0,1-2.253-12.392c-1.03-15.11,4.872-20.436,4.872-20.436,19.57-35.041,55.9-23.227,55.9-23.227,35.576-12.1,25.1,17.716,25.1,17.716a23.941,23.941,0,0,1,8.322,12.1s.294.964.654,2.418c.292,1.351.669,3.094.948,5.124a29.566,29.566,0,0,1,.375,5.612" transform="translate(51.594 -0.002)"/><path class="i" d="M110.9,53.811c-.308,4.6-3.66,7.593-7.5,6.689s-6.692-5.36-6.4-9.962,3.662-7.594,7.5-6.689,6.7,5.367,6.4,9.962" transform="translate(61.273 27.6)"/><path class="j" d="M110.317,54.243c-.61,4.393-4,7.066-7.539,5.938s-5.922-5.586-5.3-9.98,4-7.066,7.539-5.936c3.544,1.111,5.92,5.586,5.3,9.978" transform="translate(61.521 27.8)"/><path class="k" d="M103.134,56.828c2.245.672,4.3-1.353,4.561-4.507s-1.309-6.274-3.569-6.929c-2.221-.68-4.265,1.343-4.553,4.5-.263,3.154,1.325,6.261,3.561,6.932" transform="translate(62.89 28.593)"/><path class="h" d="M102.868,53.449c1.323.393,2.531-.809,2.7-2.681s-.782-3.7-2.1-4.1-2.541.8-2.7,2.663c-.16,1.883.782,3.722,2.107,4.114" transform="translate(63.648 29.438)"/><path class="j" d="M103.55,50c.574.248,1.106-.255,1.2-1.142a2.085,2.085,0,0,0-.865-2.072c-.566-.258-1.115.253-1.2,1.128A2.117,2.117,0,0,0,103.55,50" transform="translate(64.864 29.513)"/><path class="k" d="M102.22,49.747a9.452,9.452,0,0,0,2.487,3.706,2.9,2.9,0,0,1-2.694.537l-.093-.038c-.643-1.619-1.036-3.371.3-4.205" transform="translate(64.016 31.428)"/><path class="i" d="M136.2,49.927c-.563,4.571-4.084,7.361-7.864,6.225s-6.387-5.762-5.832-10.347c.576-4.561,4.086-7.353,7.867-6.217s6.387,5.768,5.829,10.339" transform="translate(77.352 24.849)"/><path class="j" d="M135.593,50.322c-.865,4.344-4.385,6.809-7.86,5.473S122.144,49.857,123,45.5s4.4-6.8,7.872-5.465c3.472,1.318,5.589,5.94,4.721,10.284" transform="translate(77.589 25.063)"/><path class="k" d="M126.807,52.671c2.19.818,4.349-1.088,4.8-4.217.457-3.144-.951-6.339-3.156-7.141s-4.342,1.092-4.8,4.226.953,6.331,3.161,7.131" transform="translate(78.064 25.981)"/><path class="h" d="M126.348,49.483c1.3.473,2.57-.656,2.839-2.5s-.573-3.743-1.873-4.225-2.577.64-2.849,2.506c-.255,1.855.583,3.742,1.883,4.223" transform="translate(78.606 26.94)"/><path class="j" d="M127.362,46.373c.54.281,1.119-.184,1.261-1.072a2.1,2.1,0,0,0-.759-2.12c-.54-.3-1.113.183-1.261,1.054a2.137,2.137,0,0,0,.759,2.138" transform="translate(79.965 27.224)"/><path class="k" d="M126.108,45.629a9.429,9.429,0,0,0,2.265,3.849,2.851,2.851,0,0,1-2.723.369l-.078-.031c-.555-1.664-.842-3.443.537-4.187" transform="translate(79.043 28.826)"/><path class="g" d="M117.078,55.528s-1.02,3.322-3.042,3.928c-2.012.627,3.978,4.458,5.4,1.754s-2.361-5.682-2.361-5.682" transform="translate(71.788 35.08)"/><path class="h" d="M136.535,38.982a17.126,17.126,0,0,0-5.773-4.075,10.494,10.494,0,0,0-3.428-.8c-1.2-.1-2.347.4-3.523.256a.347.347,0,0,1-.227-.537c1.563-2.071,5.156-1.239,7.183-.462a11.576,11.576,0,0,1,6.025,5.447c.091.17-.14.29-.256.17" transform="translate(78.04 20.547)"/><path class="h" d="M109.006,38.065a8.961,8.961,0,0,0-7.446,2.474c-1.968,1.712-3.019,4.151-4.85,5.961-.215.215-.6-.024-.555-.318.447-2.9,2.8-5.493,4.948-7.252a7.717,7.717,0,0,1,8.025-1.369c.271.095.162.561-.122.5" transform="translate(60.747 23.371)"/><path class="l" d="M108.925,75.56c-3.564-5.434-2.963-12.78-2.963-12.78,15.463,1.847,31.74-3.753,31.74-3.753s1.54,7.185-1.31,13.405c-7.744-6.147-19.069-2.226-27.466,3.128" transform="translate(66.921 37.291)"/><path class="m" d="M135.231,68.454c-1.882,4.122-5.706,7.81-13.182,8.689-7.619.9-11.891-1.895-14.288-5.561,8.4-5.351,19.718-9.283,27.469-3.128" transform="translate(68.082 41.269)"/><path class="n" d="M141.1,51.946c1.446-.728,2.17-1.1,3.226-.736.344.711,1.738,1.784.63,3.233-.676-1.434-2.076-2.5-3.175-1.064-1.493,2.519-.868,5.746-.579,8.257-2.746-3.928-1.927-7.881-2.174-12.186a7.956,7.956,0,0,1,5.873-6.5,9.6,9.6,0,0,1,1.046.392c-.527.232-1.017.473-1.426.687-2.882,1.441-2.978,5.042-3.42,7.916" transform="translate(87.835 27.135)"/><path class="n" d="M91.633,60.438c-1.394-.447-2.09-.664-2.926-.16-.132.721-1.1,1.953.162,3.113.271-1.451,1.239-2.675,2.493-1.5,1.818,2.1,1.973,5.217,2.267,7.609,1.5-4.12-.047-7.673-.767-11.731a7.758,7.758,0,0,0-6.418-5.1,8.189,8.189,0,0,0-.8.537c.506.129.976.279,1.363.4,2.787.888,3.637,4.226,4.629,6.834" transform="translate(54.106 33.272)"/><path class="d" d="M123.681,287.878c-.374,4.257-.654,5.905-1.123,12.779a24.147,24.147,0,0,1-.658,5.132,53.6,53.6,0,0,1-42.134,7.258c-1.687-.871-3.373-5.9-6.462-7.549,3.182-5.23,8.239-8.423,13.483-11.522a4.492,4.492,0,0,0,2.25,1.067c6.834,3.773,16.2-1.163,18.911-9.1a7.32,7.32,0,0,0,4.5,4.163c4.12,1.064,10.019-1.741,10.019-1.741Z" transform="translate(46.313 180.651)"/><path d="M73.544,298.726c.165-.282.341-.529.5-.8,3.06,1.681,4.747,6.672,6.426,7.586a53.763,53.763,0,0,0,42.136-7.286,8.112,8.112,0,0,1-2.431,4.285,10.532,10.532,0,0,1-3.823,1.8,103.338,103.338,0,0,1-36.983,4.375c-2.515-.16-5.424-.68-6.654-3.055-1.11-2.125-.326-4.82.827-6.907" transform="translate(45.603 188.222)"/><path class="d" d="M81.569,295.9s13.25-9.231,15.169-12.1,5.336,2.033,5.336,2.033l1.648,3.711-.3,2.787-14.322,9.4Z" transform="translate(51.534 178.728)"/><path class="d" d="M121.394,286.862c.375,4.256-.674,5.463-.206,12.34a23.843,23.843,0,0,0,.656,5.129,53.594,53.594,0,0,0,42.136,7.26c1.687-.87,3.371-5.9,6.46-7.552-3.185-5.227-8.24-8.418-13.483-11.517a4.516,4.516,0,0,1-2.247,1.065c-6.836,3.774-16.2-1.162-18.914-9.1a7.326,7.326,0,0,1-4.5,4.164c-4.119,1.064-8.688-1.3-8.688-1.3Z" transform="translate(76.487 179.731)"/><path d="M170.609,297.269c-.163-.282-.338-.529-.5-.8-3.06,1.681-4.747,6.676-6.428,7.586a53.745,53.745,0,0,1-42.134-7.284,8.1,8.1,0,0,0,2.431,4.283,10.45,10.45,0,0,0,3.822,1.8,103.349,103.349,0,0,0,36.983,4.375c2.513-.16,5.426-.679,6.656-3.056,1.106-2.12.323-4.817-.829-6.906" transform="translate(76.791 187.301)"/><path class="d" d="M151.638,294.445s-13.25-9.233-15.171-12.1-5.333,2.033-5.333,2.033l-1.65,3.711.3,2.787,14.319,9.4Z" transform="translate(81.806 177.808)"/><path class="o" d="M178.6,203.422s29.6,149.882,27.327,152.572c-4.368,5.189-26.352,20.895-22.466,23.664s26.185,5.711,40.277-3.011c12.309-7.616,6.482-19.614,6.482-19.614L231.6,204.809Z" transform="translate(112.835 128.517)"/><path class="o" d="M269.928,203.422S242.377,353.3,244.646,355.993c4.373,5.189,26.347,20.895,22.462,23.664s-26.179,5.711-40.276-3.011c-12.3-7.616-6.473-19.614-6.473-19.614l-3.239-152.224Z" transform="translate(137.172 128.517)"/><path class="o" d="M228.353,129.546c7.266-1.289,16.479-5.006,21.141-9.57a74.607,74.607,0,0,0-14.777-3.688H213.473A100.168,100.168,0,0,0,198,120.349c5.592,7.888,20.3,10.905,30.356,9.2" transform="translate(125.091 73.467)"/><path class="p" d="M238.429,117.634s-9.866,5.61-18.495,5.61c-8.12,0-17.468-5.4-17.468-5.4s2.462-.015,4.05-.015c.63,0,.569-1.545,1.212-1.568a20.9,20.9,0,0,0,10.166,2.371,28.091,28.091,0,0,0,2.975-.16c4.261-.459,7.185-.494,9.946-2.389Z" transform="translate(127.914 73.338)"/><path class="q" d="M253.123,53.787c1.09,13.386-12.315,25.363-29.938,26.747S190.388,72.2,189.3,58.808s12.268-28.293,29.9-29.676S252.033,40.4,253.123,53.787" transform="translate(119.556 18.338)"/><path class="q" d="M185.555,130.188s-7.4-23.444-9.6-40.767,11.243-46.245,53.2-50.879c42.668-4.711,52.211,33.642,53.239,38.306,2.546,11.551,2.918,43.805.641,43.831-2.306.026-97.486,9.508-97.486,9.508" transform="translate(111.023 24.096)"/><path class="o" d="M196.382,100.11c.777,7.433-.179,12.912-5.752,13.475s-13.666-4-14.44-11.432,3.12-13.911,8.7-14.476,10.719,5,11.494,12.433" transform="translate(111.252 55.367)"/><path class="p" d="M182.482,89.615a5.079,5.079,0,0,0-3.663,1.836,9.074,9.074,0,0,0-.795,5.153c.866-1.557,2.229-3.916,3.835-3.916a2.075,2.075,0,0,1,1.4.625,7.434,7.434,0,0,1,1.5,1.668,2.433,2.433,0,0,0-.535-.057,4.833,4.833,0,0,0-3.107,1.449c-1.32,1.746-.547,3.875.762,5.354.108-1.374-.018-2.764,1-3.608a.936.936,0,0,1,.607-.2,1.153,1.153,0,0,1,1.026.553c.175.7-.839,1.55-.658,2.253.2.478.385,1.18,1.085,1.235a4.015,4.015,0,0,0,1.051.145,3.088,3.088,0,0,0,.37-.021c.028,1.581-.016,3.154.1,4.593a10.818,10.818,0,0,0,1.3-1.893,87.232,87.232,0,0,1-2.843-14.2,9.413,9.413,0,0,0-1.144-.684,3.008,3.008,0,0,0-1.294-.279" transform="translate(112.417 56.615)"/><path class="o" d="M236.437,95.845c.85,7.421,2.97,12.576,8.537,11.953s12.49-6.785,11.631-14.2-6.06-12.932-11.63-12.313-9.389,7.144-8.539,14.565" transform="translate(149.302 51.319)"/><path class="p" d="M244.6,83.354a3.374,3.374,0,0,0-2.076.641,9.29,9.29,0,0,0-1.908,2.071c.242,4.538.292,8.6.157,12.245a11.233,11.233,0,0,0,2.741,2.962c-.2-1.456-.589-3.012-.914-4.592a3.875,3.875,0,0,0,1.4-.432c.7-.2.725-.945.822-1.462.023-.736-1.183-1.359-1.154-2.1a1.215,1.215,0,0,1,1.147-.8.881.881,0,0,1,.411.1c1.209.62,1.385,2.032,1.8,3.373.989-1.754,1.3-4.039-.414-5.488a5.43,5.43,0,0,0-2.746-.844,2.9,2.9,0,0,0-1.221.246,7.5,7.5,0,0,1,1.141-1.988,1.988,1.988,0,0,1,1.645-.961c1.526,0,3.228,1.847,4.35,3.1a9.252,9.252,0,0,0-1.94-4.956,5.569,5.569,0,0,0-3.241-1.118" transform="translate(152.015 52.66)"/><path class="o" d="M277.047,100.3C274.621,72.04,258.616,47.32,224.07,50.995c-33.677,3.583-43.875,31.1-41.668,59.384,3.079,39.4,19.379,50.024,40.081,49.291,3.358,1.888,8.213,2.8,13.475,2.24,5.812-.617,10.752-2.89,13.523-5.845,21.5-4.75,31.262-12.65,27.566-55.761" transform="translate(115.057 31.986)"/><path class="r" d="M243.745,57.836c-24.356,3.4-47.548,15.851-62.1,35.6-.023.565-.044,1.126-.062,1.692l0,0C188.55,86.2,199.739,80.865,209.7,75.575c3.347-1.806,6.787-3.438,10.272-4.938-1.243.255-2.492.529-3.74.813a.324.324,0,0,1-.064.008.241.241,0,0,1-.049-.473c2.221-.517,4.489-1.09,6.78-1.573,6.253-2.546,12.633-4.722,18.96-6.782,1.3,9.1,9.528,15.765,16.763,20.764,3.407,2.51,7.4,4.181,10.863,6.514-10.181-10.158-22.953-18.093-25.741-32.073" transform="translate(114.72 36.538)"/><path class="p" d="M188.659,87.184a18.35,18.35,0,0,0-4.647.648c-.445.126-.418.6-.046.6a.6.6,0,0,0,.145-.023,12.137,12.137,0,0,1,3.175-.366c.607,0,1.214.026,1.824.054s1.221.052,1.837.052c.313,0,.63-.007.946-.024.2-.01.3-.178.153-.263a7.116,7.116,0,0,0-3.389-.676" transform="translate(116.047 55.08)"/><path class="p" d="M192.382,88.839h-.3a23.274,23.274,0,0,0-3.98.555,16.4,16.4,0,0,0-4.319,1.345c-.377.191-.255.552.1.552a.636.636,0,0,0,.209-.038,31.466,31.466,0,0,1,4.587-1.07,18.585,18.585,0,0,0,4.164-.938.241.241,0,0,0,.171-.189v-.023c-.006-.09-.095-.17-.246-.178-.129-.008-.255-.013-.385-.015" transform="translate(115.963 56.125)"/><path class="p" d="M191.767,90.21c-.024,0-.042,0-.067,0a20.2,20.2,0,0,0-6.289,2.169c-.411.21-.173.645.212.687h.119a.679.679,0,0,0,.209-.06,21.68,21.68,0,0,1,3.167-1.234,12.064,12.064,0,0,0,2.856-1.1c.3-.184.106-.462-.207-.462" transform="translate(117.003 56.991)"/><path class="p" d="M236.97,82.124c-2.156,0-5.336.5-6.7,1.829-.1.1-.015.2.121.2a.242.242,0,0,0,.059-.008c2.271-.465,4.282-1.508,6.689-1.508h.023c.465,0,.41-.506-.039-.512-.051,0-.1,0-.152,0" transform="translate(145.453 51.883)"/><path class="p" d="M235.914,84c-.508,0-1.02.023-1.549.057a17,17,0,0,0-4.1.591c-.237.078-.225.312.029.351a7.451,7.451,0,0,0,.9.067h.286c.855-.013,1.725-.132,2.572-.206.977-.083,2-.157,2.994-.157.392,0,.78.01,1.154.038l.054,0c.434,0,.517-.423.1-.511a11.825,11.825,0,0,0-2.44-.232" transform="translate(145.368 53.069)"/><path class="p" d="M232.406,85.5h-.519a10.817,10.817,0,0,0-1.257.093c-.308.039-.437.352-.13.447a10.559,10.559,0,0,0,2.687.3,19.224,19.224,0,0,1,2.98.338.5.5,0,0,0,.111.011.454.454,0,0,0,.467-.387v-.028c0-.113-.082-.214-.258-.251a21.414,21.414,0,0,0-4.081-.524" transform="translate(145.515 54.018)"/><path class="p" d="M207.563,92.431c-1.785,3.007-5.395,4.262-8.952,4.262a15.16,15.16,0,0,1-4.017-.54,8.887,8.887,0,0,0,6.072,2.714,6.52,6.52,0,0,0,3-.726c2.18-1.165,3.259-3.361,3.893-5.708Z" transform="translate(122.941 58.395)"/><path class="p" d="M221.27,88.759c.114,2.43,2.454,4.954,5.659,6.1a11.723,11.723,0,0,0,3.742.6,11.513,11.513,0,0,0,7.374-2.544,38.506,38.506,0,0,1-4.088.22c-4.943,0-10.613-.979-12.687-4.376" transform="translate(139.794 56.075)"/><path class="p" d="M224.621,108.722a24.138,24.138,0,0,1-10.463,2.958,12.257,12.257,0,0,1-4.784-.925v0a8.759,8.759,0,0,0,5.878,2.818c.157.008.313.013.465.013,3.716,0,6.545-2.461,8.9-4.866" transform="translate(132.279 68.687)"/><path class="q" d="M192.116,87.1c2.368-7.054,8.513-8.131,14.511-6.832,1.3.286,2.469-1.035,2.529-2.485a3.044,3.044,0,0,0-2.3-3.148,18.523,18.523,0,0,0-11.455.76c-3.8,1.669-6.428,5.263-7.893,9.614a3.227,3.227,0,0,0,1.578,3.685,2.221,2.221,0,0,0,3.032-1.594" transform="translate(118.382 46.803)"/><path class="q" d="M236.9,81.522c-3.472-5.788-9.4-5.718-14.776-3.6a2.273,2.273,0,0,1-2.807-1.761,2.646,2.646,0,0,1,1.586-3.138,18.709,18.709,0,0,1,10.838-1.212c3.838.839,6.945,3.551,9.094,7.121a2.747,2.747,0,0,1-.813,3.481,2.188,2.188,0,0,1-3.123-.894" transform="translate(138.505 45.151)"/><path class="s" d="M193.439,75.016a.856.856,0,0,0-.18.1l.18-.1" transform="translate(122.098 47.392)"/><path class="s" d="M206.854,74.632A18.556,18.556,0,0,0,195.4,75.4c-3.8,1.666-6.426,5.259-7.893,9.614a2.92,2.92,0,0,0,.015,1.753A12.314,12.314,0,0,1,194.48,78.8a7.516,7.516,0,0,0-2.343.641c1.6-1.873,4.254-2.3,6.209-3.688-.467.073-.79-.286-1.19-.148-.057.031-.121.059-.181.093a.87.87,0,0,1,.181-.093c3.2-1.749,6.743-1.239,9.9.124a3.334,3.334,0,0,1,2.089,2.123l.008-.07a3.043,3.043,0,0,0-2.3-3.151" transform="translate(118.383 46.803)"/><path class="s" d="M240.829,78.935c-2.146-3.57-5.248-6.284-9.094-7.118A18.642,18.642,0,0,0,220.9,73.032a2.628,2.628,0,0,0-1.648,2.748,7.437,7.437,0,0,1,4.292-2.844c-.49.346-.664.92-1.154,1.266,3.6-3.007,7.966-1.263,11.943-.269-.044-.261-.615-.441-.659-.708,2.116,1.292,3.561,3.5,5.189,5.13a3.7,3.7,0,0,1-.783-1.495c.95,1.32,2.247,2.459,3.022,3.809a2.515,2.515,0,0,0-.269-1.733" transform="translate(138.506 45.152)"/><path class="j" d="M234.687,89.986c-.571,3.755-3.647,6.113-6.891,5.269s-5.406-4.561-4.85-8.3,3.642-6.119,6.889-5.28,5.413,4.561,4.851,8.316" transform="translate(140.799 51.489)"/><path class="t" d="M229.105,92.288C226.9,92.833,224.6,91.175,224,88.6s.71-5.119,2.927-5.656,4.491,1.114,5.1,3.7c.594,2.573-.708,5.094-2.921,5.648" transform="translate(141.423 52.334)"/><path class="u" d="M228.183,89.615a2.643,2.643,0,0,1-3.025-2.187,2.708,2.708,0,0,1,1.731-3.35,2.632,2.632,0,0,1,3.02,2.195,2.691,2.691,0,0,1-1.726,3.342" transform="translate(142.196 53.08)"/><path class="j" d="M225.864,87.522c-.555.207-1.15-.207-1.345-.935A1.4,1.4,0,0,1,225.2,84.9c.548-.211,1.157.209,1.34.93a1.423,1.423,0,0,1-.674,1.7" transform="translate(141.812 53.6)"/><path class="j" d="M227.456,88.579c-.093.031-.184.059-.277.082s-.188.041-.279.057c.091-.016.183-.034.277-.057s.186-.051.279-.082" transform="translate(143.351 55.961)"/><path class="v" d="M226.122,87.286a3.944,3.944,0,0,0-.41,1.72v.1c0,.069,0,.137.008.206a3.727,3.727,0,0,0,1.167.258h.413a2.919,2.919,0,0,0,.351-.039c.091-.015.189-.033.277-.054s.188-.051.279-.082a3.708,3.708,0,0,0,.788-.382,4.3,4.3,0,0,1-.85-1.593,1.952,1.952,0,0,1-.367.127,2.118,2.118,0,0,1-.5.06,2.283,2.283,0,0,1-1.154-.325" transform="translate(142.601 55.144)"/><path class="w" d="M227.538,86.141a5.866,5.866,0,0,0-1.576,1.868,2.28,2.28,0,0,0,1.155.325,2.036,2.036,0,0,0,.5-.06,2.1,2.1,0,0,0,.369-.127,15.65,15.65,0,0,1-.45-2.005" transform="translate(142.759 54.421)"/><path class="x" d="M204.865,107.372c3.179,3.135,8.52,5.866,17.274,4.678,8.3-1.124,12.638-4.59,14.9-7.992-.349-.086-.687-.168-1.015-.235-10.572-2.141-21.242.036-31.164,3.549" transform="translate(129.43 65.055)"/><path class="y" d="M203.264,106.26a17.139,17.139,0,0,0,2.846,3.706c9.918-3.513,20.591-5.688,31.162-3.549.33.065.671.147,1.018.235a14.882,14.882,0,0,0,1.784-3.732,3.144,3.144,0,0,0-3.133-4.05,196.9,196.9,0,0,0-31.725,3.267,2.8,2.8,0,0,0-1.952,4.124" transform="translate(128.187 62.462)"/><path class="r" d="M217.9,92.478a4.01,4.01,0,0,1-.062.519,3.969,3.969,0,0,1-.928,1.837,3.738,3.738,0,0,0,.991-2.356" transform="translate(137.039 58.424)"/><path class="p" d="M224.549,91.5h0c.179,2.249-1.353,3.949-3.738,4.779-5.414,1.883-12.666,2.709-13.629-1.813l0,0a5.2,5.2,0,0,0,2.089,4.254c-.046,0-.095.01-.137.018.07.021.158.038.233.059,1.385.888,3.267.822,5.289.659,5.315-.428,11.3-1.761,9.9-7.958" transform="translate(130.889 57.806)"/><path class="r" d="M226.27,67.925c-3.419,0-6.862.3-10.186.63a135.065,135.065,0,0,0-17.883,3.21.187.187,0,0,0,.036.367.154.154,0,0,0,.046-.007,136.325,136.325,0,0,1,17.62-2.772c5.8-.552,11.564-.305,17.375-.5.215-.006.312-.354.072-.393a43,43,0,0,0-7.08-.534" transform="translate(125.131 42.912)"/><path class="r" d="M217.7,64.251H216.48a45.934,45.934,0,0,0-8.446,1.108q-1.464.6-2.926,1.224a84.789,84.789,0,0,1,14.068-1.844.206.206,0,0,0,.013-.411c-.494-.041-.994-.065-1.493-.077" transform="translate(129.583 40.591)"/><path class="z" d="M209.6,64.93c-2.289.483-4.561,1.057-6.777,1.575a.239.239,0,0,0,.046.47.278.278,0,0,0,.062-.007c1.253-.284,2.5-.558,3.743-.813q1.456-.629,2.926-1.225" transform="translate(128.023 41.02)"/><path class="r" d="M207.526,73.049a.282.282,0,0,0-.305.251v.023a.274.274,0,0,0,.011.07,21.424,21.424,0,0,0,1.529,4.28.164.164,0,0,0,.155.1.19.19,0,0,0,.189-.207,25.786,25.786,0,0,0-1.261-4.283.317.317,0,0,0-.318-.237" transform="translate(130.918 46.149)"/><path class="r" d="M209.05,72.218a.317.317,0,0,0-.3.4c.514,1.509.256,3.161.808,4.633a.121.121,0,0,0,.116.078.143.143,0,0,0,.152-.126c.016-.237.024-.475.028-.716v-.4a12.237,12.237,0,0,0-.592-3.709.217.217,0,0,0-.212-.166" transform="translate(131.875 45.624)"/><path class="r" d="M211.152,72.9a.222.222,0,0,0-.237.235,17.666,17.666,0,0,0,.1,4.559.188.188,0,0,0,.181.142.185.185,0,0,0,.183-.157,28.477,28.477,0,0,0,.073-4.494.293.293,0,0,0-.305-.286" transform="translate(133.189 46.055)"/><path class="p" d="M207.715,98.281a.432.432,0,0,0-.255.09c-1.855,1.343-3.162,3.358-5.039,4.737-1.9,1.387-4.28,2.787-6.674,2.926-.31.018-.286.535.023.542.134,0,.264.007.4.007a11.959,11.959,0,0,0,3.986-.649,15.988,15.988,0,0,0,.813,3.246,30.417,30.417,0,0,0,1.908,4.781,24.635,24.635,0,0,0,6.41,7.93.189.189,0,0,0,.116.042.22.22,0,0,0,.166-.349,36.8,36.8,0,0,1-5.359-8.015,30.476,30.476,0,0,1-1.707-4.249c-.419-1.325-.612-2.653-.925-3.986a11.975,11.975,0,0,0,1.274-.741c1.968-1.3,4.654-3.358,5.241-5.781a.412.412,0,0,0-.375-.529" transform="translate(123.53 62.09)"/><path class="p" d="M225.76,95.615a.424.424,0,0,1,.253.09c1.855,1.343,3.166,3.358,5.037,4.737,1.9,1.387,4.285,2.787,6.676,2.924.312.02.287.537-.021.543-.134,0-.264.007-.395.007a11.945,11.945,0,0,1-3.986-.649,16.209,16.209,0,0,1-.813,3.246,30.9,30.9,0,0,1-1.909,4.781,24.618,24.618,0,0,1-6.411,7.93.176.176,0,0,1-.114.041.217.217,0,0,1-.166-.348,36.794,36.794,0,0,0,5.359-8.015,30.264,30.264,0,0,0,1.7-4.249c.421-1.325.615-2.653.93-3.986a11.834,11.834,0,0,1-1.276-.741c-1.968-1.3-4.654-3.358-5.241-5.783a.411.411,0,0,1,.375-.527" transform="translate(141.431 60.406)"/><path class="q" d="M281.279,77c-1.186-4.624-10.541-43.024-52.783-38.389-41.535,4.561-54.782,33.453-52.579,50.771,1.031,8.139,45.957-14.653,74.037-18.535,2.927,14.549,16.623,22.651,27.174,33.342a11.744,11.744,0,0,1,2.647,4.874,6.461,6.461,0,0,1,3.745-.826c.2-10.4-.46-24.3-2.24-31.237" transform="translate(110.995 24.147)"/><path class="s" d="M182.311,89.579c14.13-15.7,34.491-29.258,56.161-30.128q2.22-.468,4.453-.842c-23.48-2.616-49.27,10.623-60.614,30.97" transform="translate(115.181 36.819)"/><path class="s" d="M282.272,76.367c-.7-4.724-11.532-42.616-53.774-37.983-41.539,4.561-54.781,33.453-52.584,50.771l0,.028c.117-.524.243-1.043.379-1.563,7.175-29.191,39.623-48.023,68.918-42-2.11-.746-3.544-2.449-4.974-4.155,28.832,7.62,41.522,40.795,39.481,68.342a9.314,9.314,0,0,1,4.974-1.25c.434-12.074-1.25-24.217-2.425-32.187" transform="translate(110.994 24.001)"/><path class="j" d="M194.321,94.776c1.607,3.437,5.233,4.824,8.1,3.094s3.893-5.914,2.289-9.342-5.232-4.83-8.105-3.105-3.889,5.914-2.283,9.353" transform="translate(122.289 53.499)"/><path class="t" d="M199.194,95.564c2.276-.106,4-2.348,3.848-4.988s-2.131-4.709-4.414-4.592-3.985,2.343-3.838,4.995,2.126,4.688,4.4,4.585" transform="translate(123.059 54.318)"/><path class="u" d="M198.25,92.894a2.646,2.646,0,0,0,2.278-2.955,2.71,2.71,0,0,0-2.612-2.722,2.635,2.635,0,0,0-2.271,2.967,2.691,2.691,0,0,0,2.606,2.71" transform="translate(123.6 55.099)"/><path class="j" d="M198.991,90.348c.586.044,1.046-.527,1.02-1.278a1.4,1.4,0,0,0-1.126-1.429c-.592-.042-1.054.529-1.021,1.274a1.414,1.414,0,0,0,1.128,1.433" transform="translate(125.006 55.367)"/><path class="j" d="M197.308,91.864c.1,0,.193,0,.292,0s.188-.013.282-.024c-.095.011-.189.02-.281.024s-.2,0-.294,0" transform="translate(124.656 58.02)"/><path class="v" d="M199.044,90.252a3.9,3.9,0,0,1,.878,1.529l.033.1c.015.065.034.132.051.2a3.769,3.769,0,0,1-1.046.581l-.395.117a3.389,3.389,0,0,1-.349.064c-.09.011-.184.018-.284.023s-.194,0-.284,0a3.628,3.628,0,0,1-.87-.14,4.236,4.236,0,0,0,.362-1.77,2.057,2.057,0,0,0,.39.02,2.25,2.25,0,0,0,.5-.085,2.325,2.325,0,0,0,1.013-.638" transform="translate(124.32 57.018)"/><path class="w" d="M196.915,89.427a5.853,5.853,0,0,1,2.041,1.348,2.338,2.338,0,0,1-1.015.636,2.2,2.2,0,0,1-.886.069,15.406,15.406,0,0,0-.14-2.053" transform="translate(124.407 56.497)"/><path class="aa" d="M196.1,287.893c8.666,2.983,19.991,1.891,26.9-2.355l-.542,19.614a13.463,13.463,0,0,1,.69,1.912,62.233,62.233,0,0,1-13,10.781c.33-2.769-1.62-5.308-4.858-6.23a33.911,33.911,0,0,0-14.42-.814,78.005,78.005,0,0,0,7.3-6.687Z" transform="translate(120.59 180.396)"/><path class="aa" d="M250.948,310.8l-7.289-6.687,1.7-15.995c-8.67,2.981-19.625,1.663-26.539-2.583l.545,19.612a13.075,13.075,0,0,0-.689,1.917,62.21,62.21,0,0,0,12.992,10.778c-.32-2.769,1.62-5.308,4.861-6.228a33.851,33.851,0,0,1,14.417-.813c-3.213-2.743,0,0,0,0" transform="translate(138.158 180.395)"/><path d="M221.905,311.59c-1.15-1.364-2.332-2.686-3.505-4a54.916,54.916,0,0,1,.542-12.15s8.655,3.2,12.756,10.775c-1.4-2.577,1.829-4.479,5.065-5.4,4.168-1.219,9.2-.881,14.454,3.737,5.874,5.163,13.407,11.274,15.218,14.728-4.757.235-9.345,1.457-14.092,1.777-11.982,1.155-24.284-2.077-30.438-9.463" transform="translate(137.891 186.65)"/><path class="ab" d="M221.85,306.886c6.153,7.385,18.455,10.618,30.438,9.463,4.747-.32,9.335-1.542,14.092-1.777.532,1.018.583,1.8-.044,2.249-3.892,2.767-26.187,5.711-40.277-3.009-5.282-3.27-7.221-7.341-7.713-10.928,1.173,1.317,2.355,2.639,3.505,4" transform="translate(137.946 191.354)"/><path d="M226.083,311.59c1.15-1.364,2.333-2.686,3.5-4a54.815,54.815,0,0,0-.542-12.15s-8.653,3.2-12.756,10.775c1.4-2.577-1.828-4.479-5.065-5.4-4.166-1.219-9.193-.881-14.449,3.737-5.879,5.163-13.412,11.274-15.221,14.728,4.757.235,9.345,1.457,14.092,1.777,11.981,1.155,24.284-2.077,30.438-9.463" transform="translate(114.702 186.65)"/><path class="ab" d="M226.242,306.886c-6.153,7.385-18.457,10.618-30.438,9.463-4.747-.32-9.335-1.542-14.092-1.777-.532,1.018-.583,1.8.042,2.249,3.893,2.767,26.187,5.711,40.279-3.009,5.28-3.27,7.219-7.341,7.712-10.928-1.17,1.317-2.353,2.639-3.5,4" transform="translate(114.542 191.354)"/><path class="p" d="M266.261,209.053a3.11,3.11,0,0,0-2.9-1.666,10.755,10.755,0,0,0-.718-1.263c-.086-.132-.186-.258-.281-.382a12.179,12.179,0,0,0-1.694-4.026c-.886-1.312-3.263-3.231-4.122-1.229-.6,1.408-1.317,4.037-.493,5.866a18.5,18.5,0,0,1,1.806,9.606c-.01.09-.026.18-.038.268-.052.4-.122.806-.206,1.206-.028.132-.059.266-.09.4a13.537,13.537,0,0,1-.429,1.429c-.08.225-.165.444-.256.666-.067.162-.134.321-.2.485-.026.055-.049.117-.078.181-.09.212-.178.431-.271.648-.028.069-.055.144-.083.215-.064.15-.124.3-.18.449-.029.088-.06.17-.09.253-.049.135-.095.272-.139.408-.028.1-.054.191-.078.282-.036.129-.07.258-.1.388-.023.1-.034.2-.052.294-.024.124-.044.251-.057.38-.011.1-.016.2-.023.3,0,.08-.016.158-.016.24s0,.188.008.282a2.58,2.58,0,0,0,.348.024c.033,0,.06-.008.095-.008.07,0,.142-.015.212-.02a2.228,2.228,0,0,0,.261-.049c.069-.016.139-.038.206-.06a2.067,2.067,0,0,0,.243-.093c.064-.028.129-.06.193-.09.08-.042.16-.086.232-.134s.117-.075.173-.116c.077-.054.15-.113.222-.168l.153-.129c.073-.065.142-.132.211-.2l.131-.134c.073-.078.14-.158.206-.237.034-.039.07-.077.1-.114.088-.108.17-.22.248-.326a.069.069,0,0,1,.02-.031l0-.008q.5-.727.943-1.482c-.025.15-.042.3-.073.447s-.06.279-.093.416a13.828,13.828,0,0,1-.429,1.447c-.3.795-.659,1.586-.974,2.381-.031.078-.062.153-.09.233-.049.124-.09.25-.135.377-.033.1-.068.2-.1.3s-.067.232-.1.348-.057.217-.082.325-.044.225-.064.338-.041.227-.052.339-.015.219-.02.33c0,.073-.016.148-.016.222s0,.17.007.258v.018a2.84,2.84,0,0,0,.349.024c.034,0,.068-.008.1-.01.062,0,.126-.011.184-.016a2.575,2.575,0,0,0,.3-.054c.057-.013.116-.034.175-.052a2.226,2.226,0,0,0,.279-.106c.054-.026.111-.047.163-.075.088-.049.176-.1.259-.153.052-.031.1-.064.15-.1.085-.059.166-.122.245-.188.044-.038.088-.072.131-.111.081-.07.155-.147.23-.219a1.522,1.522,0,0,0,.114-.117c.07-.073.136-.15.2-.227.038-.046.075-.088.111-.129.042-.06.086-.117.126-.176s.1-.119.135-.178a.439.439,0,0,0,.038-.059c.365-.532.7-1.077,1.018-1.627.088-.157.176-.315.263-.473.251-.462.483-.927.7-1.4.062-.131.126-.259.183-.393.23-.525.447-1.059.632-1.6v.008c0,.034,0,.069,0,.1,0,.46-.029.914-.075,1.369-.015.153-.038.31-.06.459-.044.354-.1.7-.178,1.054-.033.152-.062.305-.1.462a13.876,13.876,0,0,1-.4,1.351c-.011.028-.016.059-.028.086-.241.664-.535,1.325-.808,1.983-.031.07-.057.139-.085.207-.06.153-.122.3-.176.455-.033.083-.06.165-.09.25-.051.14-.1.279-.142.419-.028.088-.051.173-.077.26-.036.137-.072.271-.1.41-.021.091-.037.186-.054.274-.021.132-.043.264-.057.4-.01.095-.015.194-.021.287s-.013.158-.013.243,0,.181.01.274v.007a2.046,2.046,0,0,0,.343.026c.036,0,.069-.008.1-.008.062,0,.124-.011.188-.02a2.815,2.815,0,0,0,.289-.051c.059-.013.121-.034.183-.052a2.507,2.507,0,0,0,.268-.1c.055-.026.118-.054.173-.085a2.66,2.66,0,0,0,.248-.142c.056-.036.108-.067.162-.1.082-.059.158-.119.233-.184.051-.039.1-.075.142-.113.08-.072.157-.145.23-.222.034-.036.075-.073.109-.113a3.326,3.326,0,0,0,.248-.281c.02-.023.039-.041.06-.069.093-.119.188-.242.273-.361.106-.155.212-.313.315-.473l.015-.06a22.806,22.806,0,0,0,3.169-7.328c.959-4.168,1.01-9.458-1.565-13.268" transform="translate(161.402 126.115)"/><path class="o" d="M276.327,218.607c-.685,3.689-.483,10.468-.32,14.131.145,3.228,1.154,6.354,1.552,9.557.581,4.709-.168,9.517-1.186,14.244-.76,3.541-1.792,7.253-4.768,10.011-.478.439-1.284.875-1.813.521a.842.842,0,0,1-.344-.555,5.436,5.436,0,0,1,.347-2.789A40.877,40.877,0,0,0,271.3,248.4c-.2-2.056-.7-4.455-3.032-4.757-2.65-.344-3.743,2.182-4.8,4.215s-2.138,4.275-4.474,5.434a2.155,2.155,0,0,1-2.172.085,1.113,1.113,0,0,1-.341-.837c-.144-2.5,3.587-14.738,5.324-18.421s1.495-12.457,1.209-16.414c-1.2-16.54-22.922-50.442-13.532-64.951,3.112-4.81,19.991-9.184,22.553-4.06,9.923,19.846,7.483,52.7,4.285,69.914" transform="translate(156.139 92.488)"/><path class="p" d="M168.881,221.679l0-.008,0,.008m8.053,2.526c0-.1-.008-.2-.02-.3-.015-.129-.038-.258-.057-.38-.02-.1-.033-.2-.055-.3-.031-.127-.065-.258-.1-.388-.024-.091-.047-.183-.077-.277-.044-.139-.093-.274-.139-.41-.031-.086-.062-.166-.093-.253-.055-.153-.113-.3-.175-.452-.029-.07-.059-.142-.086-.212-.09-.219-.183-.436-.273-.651-.024-.062-.049-.121-.075-.179-.069-.165-.137-.321-.2-.486-.09-.222-.176-.441-.258-.663a13.747,13.747,0,0,1-.428-1.429c-.031-.137-.06-.268-.091-.4-.083-.4-.153-.8-.207-1.2-.008-.091-.026-.181-.036-.269a18.521,18.521,0,0,1,1.806-9.606c.827-1.831.109-4.46-.491-5.865-.86-2.005-3.236-.086-4.122,1.225a12.167,12.167,0,0,0-1.694,4.027c-.1.126-.194.25-.281.379a11.266,11.266,0,0,0-.72,1.263,3.112,3.112,0,0,0-2.9,1.671c-2.575,3.809-2.523,9.094-1.563,13.268a22.719,22.719,0,0,0,3.171,7.327.285.285,0,0,0,.013.06c.1.158.209.312.317.472.083.117.175.24.271.359a.854.854,0,0,0,.064.075c.078.093.155.188.241.277l.111.113c.075.075.15.149.228.219.047.041.1.077.14.117.078.064.158.124.237.18a1.907,1.907,0,0,0,.162.1,2.352,2.352,0,0,0,.25.145c.057.031.116.057.171.082.088.039.178.073.268.1.062.02.121.036.184.052.091.02.189.038.287.049a1.747,1.747,0,0,0,.189.021c.034,0,.067.008.1.008a1.9,1.9,0,0,0,.341-.028v0c.008-.095.01-.183.01-.277s-.011-.16-.013-.238c0-.1-.013-.194-.021-.29-.016-.134-.036-.266-.06-.4-.015-.09-.031-.18-.051-.276-.029-.137-.069-.272-.1-.41-.025-.087-.047-.17-.073-.256-.044-.142-.093-.284-.144-.424-.026-.082-.055-.162-.087-.245-.059-.155-.119-.31-.181-.46-.025-.067-.054-.134-.082-.2-.273-.661-.57-1.318-.808-1.979-.01-.034-.015-.06-.028-.095a12.953,12.953,0,0,1-.4-1.351c-.039-.15-.069-.305-.1-.455-.073-.354-.134-.7-.181-1.061-.021-.147-.042-.3-.057-.455-.046-.454-.073-.911-.08-1.369,0-.031,0-.069,0-.1l0-.01c.188.537.4,1.067.636,1.594.054.131.119.263.18.393.22.47.452.935.7,1.394.086.16.173.317.268.476.313.548.648,1.093,1.013,1.624a.627.627,0,0,0,.038.059c.041.059.088.121.134.181s.083.116.127.173c.038.041.075.09.113.129.065.078.131.158.2.233l.116.113c.075.073.147.148.228.222.044.034.088.073.132.106.077.065.16.129.245.189.047.036.1.067.147.1.086.051.175.1.263.152l.163.077a2.746,2.746,0,0,0,.279.106,1.735,1.735,0,0,0,.173.049,1.9,1.9,0,0,0,.3.054c.06.006.121.013.186.016.034,0,.067.01.1.01a2.875,2.875,0,0,0,.348-.025v-.013c.007-.09.008-.178.008-.261s-.01-.145-.015-.219c-.006-.114-.011-.224-.026-.331s-.028-.228-.047-.339-.038-.227-.064-.339-.052-.212-.083-.325-.062-.232-.1-.349c-.031-.1-.065-.2-.1-.3-.044-.124-.088-.251-.135-.379-.031-.077-.062-.155-.09-.233-.315-.791-.68-1.586-.973-2.382a12.922,12.922,0,0,1-.432-1.444c-.031-.14-.062-.279-.093-.418s-.051-.3-.075-.447c.3.5.609,1,.945,1.482l.007.008a.19.19,0,0,0,.02.029c.075.108.158.219.245.33.029.036.065.075.1.113.065.078.132.16.206.238.042.044.087.085.131.134.069.067.135.134.209.2l.155.127c.072.057.144.114.219.166.059.044.118.078.175.119.075.044.153.09.23.132s.13.064.194.088a1.675,1.675,0,0,0,.242.093,1.817,1.817,0,0,0,.209.062,1.393,1.393,0,0,0,.259.046c.069.01.142.02.215.023.031,0,.059.006.09.006a2.487,2.487,0,0,0,.348-.023c.007-.093.01-.189.01-.284,0-.078-.013-.157-.016-.238" transform="translate(103.607 126.116)"/><path class="o" d="M163.465,218.607c.685,3.689.483,10.468.317,14.131-.144,3.228-1.15,6.354-1.549,9.557-.583,4.709.166,9.517,1.185,14.244.76,3.541,1.792,7.253,4.768,10.011.478.439,1.284.875,1.815.521a.849.849,0,0,0,.344-.555,5.439,5.439,0,0,0-.348-2.789,40.846,40.846,0,0,1-1.508-15.327c.2-2.056.7-4.455,3.032-4.757,2.648-.344,3.74,2.182,4.794,4.215s2.138,4.275,4.476,5.434a2.155,2.155,0,0,0,2.172.085,1.127,1.127,0,0,0,.343-.837c.142-2.5-3.588-14.738-5.328-18.421s-1.495-12.457-1.208-16.414c1.2-16.54,22.922-50.442,13.532-64.951-3.112-4.81-19.991-9.184-22.555-4.06-9.921,19.846-7.482,52.7-4.283,69.914" transform="translate(101.503 92.488)"/><path class="ac" d="M198.822,124.833a33.146,33.146,0,0,0-14.865,5.651c-9.136,6.457-23.488,31.5-25.812,58.308,0,0,26.312,7.054,41.867,5.548,0,0-11.493-49.456,10.975-58.713,16.662-6.865-12.165-10.794-12.165-10.794" transform="translate(99.913 78.866)"/><path class="ac" d="M249.328,123.911a44.477,44.477,0,0,1,14.866,5.651c10.151,6.289,22.158,27.732,24.488,54.534,0,0-23.237,13.237-38.784,11.729,0,0,9.732-51.863-12.734-61.12-16.659-6.865,12.165-10.794,12.165-10.794" transform="translate(146.56 78.283)"/><path class="ad" d="M215.407,337.755c-12.289.375-19.547-2.706-19.547-2.706L176.615,209.276s35.888-29.865,61.309-30.606S297.5,200.915,297.5,204.995c0,1.382-18.645,130.055-18.645,130.055s-11.716,2.671-17.292,2.521a82.486,82.486,0,0,1-17.889-2.521l-7.066-83.6-.452,84.8s-8.567,1.132-20.748,1.506" transform="translate(111.582 112.868)"/><path class="ae" d="M-10159.23,994.8c-2.116.018-4.286.023-6.528.008h0c-47.038-1.04-55.809-8.506-55.809-8.506-11.547-35.4,5.781-84.167,7.509-93.885.17-.948,1.639-6.924.419-9.795q-.454-1.063-.894-2.073c-.709-1.628-1.387-3.169-2.016-4.625-.3-.706-.6-1.392-.876-2.06-3.585-8.562-10.6-14.544-5.655-19.336,4.576-4.443,24.5-10.666,36.1-14.086L-10098.8,986.3s-6.87,7.466-53.911,8.506h0q-1.362.009-2.692.009Q-10157.352,994.819-10159.23,994.8Zm-27.746-154.357c1.058-.311,2.088-.614,3.081-.894,5.3,5.573,14.089,8.555,23.5,8.614v-.005c.214.005.427,0,.635-.005a45.557,45.557,0,0,0,5.427-.354,42.414,42.414,0,0,0,20.06-8.082c1.3.385,2.653.794,4.04,1.222v-.005c11.03,3.4,28.072,8.95,32.428,13.188,4.566,4.425-2.567,12.183-5.755,19.757-.287.681-.583,1.374-.9,2.07-.7,1.572-1.469,3.187-2.25,4.831-.336.688-.667,1.379-1,2.075-1.317,2.735.416,6.176.416,9.266,0,8.986,18.739,60.555,8.5,94.183Z" transform="translate(10508.564 -646.277)"/><path class="ac" d="M230.237,168.03c-20.405,0-43.3-3.827-43.3-3.319,0,3.463,19.389,6.268,43.3,6.268s43.3-2.8,43.3-6.268c0-.507-22.9,3.319-43.3,3.319" transform="translate(118.101 104.03)"/><path class="af" d="M226.845,71.26l-.206.026-.209.026a358.315,358.315,0,0,0-45.887,8.843s2.485,13.279,5.2,16.456,3.641,3.882,12.927.623,18.286-7.181,28.866-8.492c.382-.047.8-.119,1.24-.209.45-.02.871-.052,1.25-.1,10.585-1.309,20.263.3,30.066,1.2s10.532-.015,12.387-3.758S273.5,68.649,273.5,68.649a358.539,358.539,0,0,0-46.659,2.611" transform="translate(114.064 43.351)"/><path class="ag" d="M227.161,70.406c-.07.008-.142.018-.21.028s-.145.016-.215.026a374.16,374.16,0,0,0-46.888,8.963s2.5,13.276,5.262,16.448,3.709,3.875,13.2.592,18.692-7.234,29.5-8.572c.392-.047.813-.119,1.266-.212.463-.021.891-.054,1.281-.1,10.811-1.341,20.694.248,30.7,1.118s10.758-.042,12.663-3.792,1.093-17.235,1.093-17.235a374.344,374.344,0,0,0-47.661,2.736" transform="translate(113.625 42.738)"/><path class="ah" d="M228,56.172c-34.584,4.39-53.379,20.273-53.379,20.273l4.27,17.075s13.767-7.436,52.212-12.274c38.464-4.68,53.63-.827,53.63-.827l-.021-17.6S262.609,52,228,56.172" transform="translate(110.322 34.882)"/><path class="j" d="M185.536,102.576a1.8,1.8,0,1,1-1.8-1.8,1.8,1.8,0,0,1,1.8,1.8" transform="translate(114.94 63.665)"/><path class="j" d="M244.966,96.562a1.8,1.8,0,1,1-1.8-1.8,1.8,1.8,0,0,1,1.8,1.8" transform="translate(152.484 59.864)"/><path class="h" d="M53.586,79.065c22.941,2.71,48.785-6.194,48.785-6.194l.093-.2s.47,1.456,1.03,3.487L34.672,101.04a51.991,51.991,0,0,0,2.9-14.714c5.055-2.42,10.486-4.84,16.011-7.261m53.185,49.275c-2.154-25.169-3.371-46.176-3.371-46.176l1.593-1.258,7.585-6.1s-2.342-38.722-45.132-44.918c-42.229-6.1-57.212,29.525-57.212,29.525C.68,64.738-1.472,87.777.87,97.266c3.089,12.778,12.173,21.975,16.949,36.108,5.057,14.715,4.961,105.908-2.063,111.23A33.213,33.213,0,0,0,21,247.8a31.612,31.612,0,0,0,14.887,2.71,24.7,24.7,0,0,0,4.683-.483c9.081-1.55,17.511-6.583,22.564-14.037l21.349-.969a15.381,15.381,0,0,0,7.212-.29,31.664,31.664,0,0,0,8.427-3.291,59.414,59.414,0,0,0,14.794-10.747c3.091-3.2,5.055-6.1,5.055-7.937-5.429-3.293-10.3-48.115-13.2-84.417" transform="translate(0 18.437)"/><path class="ai" d="M79.8,201.842a85.344,85.344,0,0,0-2.224,14.68c-.023.348-.132.787-.506.822a.741.741,0,0,1-.457-.15c-1.633-1.018-2.081-3.024-2.108-4.822-.057-4.148,1.327-8.187,2.7-12.142Z" transform="translate(47.07 126.5)"/><path class="ai" d="M79.878,204.286a86.592,86.592,0,0,0,1.111,14.923c.057.338.041.8-.317.911a.794.794,0,0,1-.473-.059c-1.81-.687-2.683-2.588-3.12-4.357-.986-4.079-.534-8.34-.088-12.509Z" transform="translate(48.325 128.373)"/><path class="aj" d="M97.5,263.87a19.716,19.716,0,0,0-.994-4.938,22.316,22.316,0,0,0-1.594-3.144,71.8,71.8,0,0,1-5.59-12.152l-.547-2.891-7.009-58.188L71.42,117.464a7.9,7.9,0,0,0-8.583-7.214,7.981,7.981,0,0,0-7.111,8.715l10.788,71.9a29.886,29.886,0,0,0,.942,4.275l12.681,48.19a11.268,11.268,0,0,0-1.722,10.789c.935,2.441,2.657,4.652,3.151,7.2a34.481,34.481,0,0,1,.2,5.1,6.311,6.311,0,0,0,1.97,4.685c.674.542,1.832.821,2.314.157a1.732,1.732,0,0,0,.227-.769c.341-3.13.246-6.725,2.7-8.8,3.086,2.851,3.742,7.152,4.375,11.093.651,3.946,1.723,8.285,5.2,10.693,1.673.609-.349-13.072-1.049-19.606" transform="translate(35.185 69.629)"/><path class="ai" d="M7.843,201.842a84.874,84.874,0,0,1,2.224,14.68c.021.348.132.787.511.822a.708.708,0,0,0,.452-.15c1.642-1.018,2.087-3.024,2.116-4.822.057-4.148-1.327-8.187-2.705-12.142Z" transform="translate(4.955 126.5)"/><path class="ai" d="M7.471,204.286a87.083,87.083,0,0,1-1.11,14.923c-.059.338-.041.8.315.911a.792.792,0,0,0,.473-.059c1.81-.687,2.684-2.588,3.115-4.357.986-4.079.54-8.34.1-12.509Z" transform="translate(4.003 128.373)"/><path class="aj" d="M46.706,118.962l-10.788,71.9a27.078,27.078,0,0,1-.935,4.275L22.3,243.331a11.31,11.31,0,0,1,1.726,10.793c-.948,2.433-2.66,4.651-3.159,7.2a35.956,35.956,0,0,0-.2,5.094,6.264,6.264,0,0,1-1.963,4.691c-.667.532-1.836.821-2.311.158a1.688,1.688,0,0,1-.224-.777c-.349-3.123-.263-6.72-2.714-8.792-3.078,2.851-3.743,7.139-4.386,11.08s-1.71,8.291-5.191,10.693c-1.671.618.361-13.066,1.056-19.6a20.093,20.093,0,0,1,.99-4.938,20.933,20.933,0,0,1,1.6-3.149,70.474,70.474,0,0,0,5.584-12.149l.333-1.754v-.028l7.226-59.294,10.342-65.092a7.88,7.88,0,1,1,15.688,1.5" transform="translate(2.05 69.632)"/><path class="aj" d="M58.331,275.281c.248-3.862.5-8.107.871-12.87L42.646,269.23c.37,11.455.494,22.78.25,33.982H56.96c.124-5.666.25-10.943.625-16.6.245-3.6.5-7.211.746-11.328" transform="translate(26.943 165.785)"/><path class="aj" d="M41.634,310.832a20.273,20.273,0,0,0,0,4.76,5.237,5.237,0,0,0,.62,1.8,10.234,10.234,0,0,0,3.982,3.73c11.457,7.467,23.282,10.169,36.478,8.239,2.118-7.08-5.976-14.546-13.818-20.077a5.2,5.2,0,0,0-1-.773h-.124v-.127c-1.245-.773-2.49-1.545-3.609-2.319a12.42,12.42,0,0,1-3.985-3.215,11.651,11.651,0,0,1-2.242-7.079l-.5.124c-4.6,2.448-5.23,5.537-5.23,5.537s-2.24,4.633-5.85,2.7c-2.737-1.671-3.484-2.7-3.737-3.089l-.866,8.882Z" transform="translate(26.213 186.863)"/><path class="ak" d="M42.265,306.2v.129c.245.384.994,1.413,3.734,3.089,3.609,1.927,5.852-2.705,5.852-2.705s.622-3.086,5.227-5.532l.5-.127a17.689,17.689,0,0,1-.126-2.575v-1.159c-.126-3.606-.126-6.824-.126-9.911H42.763c-.126,5.662.122,11.07-.253,16.475-.119.775-.119,1.544-.245,2.317" transform="translate(26.702 181.581)"/><path class="aj" d="M42.714,334.055H57.155c0,3.086,0,6.3.126,9.91v-9.91c.122-5.666.248-10.941.5-16.6.25-3.606.5-7.208.746-11.328.253-3.859.625-8.107,1-12.87L67.238,227.1l1.619-13.514L42.34,222.983c0,1.03,0,2.319.127,3.99.246,13.26.372,44.916.372,73.105,0,12.738,0,24.71-.126,33.977" transform="translate(26.75 134.94)"/><path class="d" d="M67.891,303.582c8.59,5.662,18.922,13.771,16.68,21.107-8.466,4.117-26.888.129-38.34-7.209a11.6,11.6,0,0,1-3.985-3.858c-.871-1.932-.871-5.406-.622-7.725l.124-.9Z" transform="translate(26.207 191.796)"/><path class="d" d="M41.654,309.961l26.014-1.415v-.126c-.5-1.545-5.6-13.779-9.831-12.617l-.5.127c-4.607,2.446-5.23,5.535-5.23,5.535s-2.24,4.631-5.852,2.7c-2.735-1.671-3.482-2.7-3.732-3.089Z" transform="translate(26.316 186.833)"/><path class="aj" d="M22.474,303.951a58.73,58.73,0,0,0-.623,7.209v.127a57.065,57.065,0,0,0,.121,7.983c1,9,4.61,13.638,12.575,17.116,2.988,1.411,6.725,1.668,9.459-.131,2.865-1.934,3.986-5.92,3.737-9.394-.124-3.6-.747-3.091-1.865-6.436L43.635,312.7l-.375-1.544-.122-.646c-.25-1.159-.5-2.317-.746-3.6-.374-1.8-.749-3.733-1-5.661-.747.638-1.992,1.288-2.616-2.064-.248-1.54-5.853-9.394-9.711,0-3.732,9.528-5.476-2.828-5.476-2.828-.248,1.8-.5,3.216-.747,4.505-.127,1.157-.248,2.056-.372,3.087" transform="translate(13.753 186.151)"/><path class="aj" d="M41.232,291.827l4.109-68.858-23.9-1.413,2.738,69.37c.124,2.572.248,5.277.248,7.852.251,9.521,1,20.2.5,30.245H39.859a228.815,228.815,0,0,1,1.372-37.2" transform="translate(13.544 139.973)"/><path class="d" d="M47.795,320.427c-.189-3.58-.775-3.069-1.9-6.455q-1.491-4.477-2.6-9.172a44.488,44.488,0,0,0,.845,7.913A11.475,11.475,0,0,0,27.6,313.858a16.711,16.711,0,0,1-5.718-9.086A53.087,53.087,0,0,0,22,312.924c.907,8.952,4.611,13.648,12.542,17.124,3.012,1.32,6.664,1.651,9.4-.2,2.87-1.952,4.04-5.855,3.849-9.425" transform="translate(13.761 192.548)"/><path class="d" d="M83.984,253.715c2.443-12.282,7.573-34.946,7.975-44.84.6-14.83-6.79-37.436-6.79-37.436L25.62,172.851s-12.8,15.3-8.19,46.212,7.2,34.108,7.2,34.108l23.831,1.516c1.118-6.155,7.04-36.469,8.942-35.4s1.239,34.334,1.239,34.334Z" transform="translate(10.38 108.31)"/><path class="al" d="M25.361,172.851s-6.4,7.66-8.518,23.091c11.685,5.1,24.345,7.43,37.363,5.4,11.917-1.9,25.24-4.357,35.641-10.654a182.753,182.753,0,0,0-4.939-19.252Z" transform="translate(10.641 108.31)"/><path class="aj" d="M79.193,114.458c-4.3-2.188-10.368-3.074-16.656-3.182l.473-8.67a7.06,7.06,0,0,0-6.55-7.457l-1.726-.09a6.98,6.98,0,0,0-7.328,6.641l-.592,10.775c-2.18.354-4.2.77-5.956,1.208-3.921.984-7.616,2.668-11.439,4.078-4.58,1.691-6.8,4.487-7.824,7.743,18.152,15.5,44.107,13.815,66.089,5.949-.328-7.1-1.961-13.684-8.49-17" transform="translate(13.643 60.047)"/><path class="am" d="M81.733,198.606c-2.539-10.1-.914-21.055,2.7-30.785,4.168-11.23,10.4-25.335,10.59-37.428.16-9.561,3.7-15.972-10.071-22.63a34.6,34.6,0,0,0-6.359-1.854c-2,6.056-5.964,10.119-11.333,13.39-11.055,4.494-25.467.5-32.109-9.778-1.547.594-3.055,1.3-4.647,1.779-10.8,3.239-9.51,12.026-9.153,19.5s3.361,14.573,6.468,21.42,8.175,16.174,9.167,23.605c1.307,9.668-3.18,17.057-7.5,25.774-3.179,6.4-7.211,12.39-9.9,19.005a55.962,55.962,0,0,0-2.048,6.047c20.929,12.583,49.73,12.3,72.711,2.559a206.554,206.554,0,0,0-8.5-30.6" transform="translate(11.073 66.91)"/><path class="an" d="M59.891,141.155c-.3.782-.6,1.553-.884,2.312.289-.759.586-1.527.884-2.307Z" transform="translate(37.28 89.177)"/><path class="ao" d="M56.167,155.161l-.007,0a46.055,46.055,0,0,0,.256,7.214l0,0h0a45.89,45.89,0,0,1-.256-7.217" transform="translate(35.456 98.026)"/><path class="an" d="M58.876,145.924A58.74,58.74,0,0,0,56.146,161l.007,0a58.8,58.8,0,0,1,2.723-15.073" transform="translate(35.472 92.19)"/><path class="ap" d="M62.721,136.015c-1.048,2.874-2.138,5.688-3.172,8.386v0c1.036-2.7,2.128-5.515,3.172-8.391" transform="translate(37.622 85.93)"/><path class="aq" d="M72.279,135.954h0a20.991,20.991,0,0,1-13.022,5.5c-6.064.21-7.428.636-12.571.636-.666,0-1.4-.008-2.2-.024,5.8,1.064,4.913,3.221,10.479,4.773.925.318,2.151.318,3.069.633.919.633,2.453.951,2.756,1.9,1.837,8.227-1.837,17.1,2.146,24.7l-.044.018a9.593,9.593,0,0,1,.889.418,46.073,46.073,0,0,1-.258-7.216,58.9,58.9,0,0,1,2.733-15.074q.534-1.713,1.157-3.388c.253-.682.514-1.377.782-2.081.29-.759.587-1.532.884-2.312,1.035-2.7,2.125-5.512,3.174-8.387.011-.033.021-.065.034-.1" transform="translate(28.1 85.892)"/><path class="d" d="M21.819,311.158v.129l2.116,12.1,4.979,1.028H37.38l8.466-3.99L43.6,312.7l-.375-1.542-.124-.643-.5-3.6-.87-6.047a.962.962,0,0,1-.374.382c-.747.648-1.991,1.289-2.614-2.056-.248-1.544-5.852-9.4-9.709,0-3.735,9.521-5.481-2.833-5.481-2.833-.246,1.8-.494,3.215-.746,4.507-.122,1.157-.248,2.058-.37,3.086a58.469,58.469,0,0,0-.623,7.209" transform="translate(13.785 186.151)"/><path class="ak" d="M22.429,305.433c.246-1.289.5-2.7.747-4.505,0,0,1.743,12.357,5.475,2.833,3.864-9.394,9.464-1.544,9.712,0,.622,3.347,1.867,2.7,2.616,2.058a151.092,151.092,0,0,1-1.744-18.4H24.3c0,2.577-.251,5.279-.5,7.723-.375,3.219-.871,6.694-1.372,10.3" transform="translate(14.17 181.581)"/><path class="ar" d="M53.487,101.734l-.155.028-.29,5.29c.052,0,.1,0,.155,0Zm-16.8,1.415-.07,1.239c.3.1.6.189.9.281l.078-1.442-.029,0c-.3-.021-.591-.046-.88-.073" transform="translate(23.135 64.272)"/><path class="as" d="M52.984,101.752l-.034.007A52.843,52.843,0,0,1,40.4,103.312c-1.08,0-2.128-.034-3.151-.1l-.077,1.444a52.431,52.431,0,0,0,15.084,2.523h.4l.186,0,.007-.134-.152,0Z" transform="translate(23.483 64.283)"/><path class="aj" d="M23.027,68.7a80.786,80.786,0,0,0,.188-11.617A49.945,49.945,0,0,0,39.04,61.439c-5.525,2.422-10.956,4.842-16.013,7.261" transform="translate(14.548 36.063)"/><path class="aj" d="M99.292,110.152c-4.12,6-10.673,11.715-20.88,16.458a59.771,59.771,0,0,1-9.458,2.808,51.846,51.846,0,0,1-15.729,1.451c-15.73-1.162-22.848-10.163-22.848-10.163l-1.219-1.162s-.654,2.226-6.927,1.064c-7.492-1.841-11.891-9.972-9.926-16.749,2.059-6.777,10.675-2.129,10.675-2.129l-.937-9.97a22.54,22.54,0,0,0,5.15-8.908L96.015,57.974c.374,1.353.935,3,1.5,4.744,1.124,3.871,2.342,7.743,3,8.712C102.2,74.14,111,93.018,99.292,110.152" transform="translate(7.479 36.625)"/><path class="at" d="M89.011,55.873l-.065.137S69.48,62.717,49.337,62.717a78.168,78.168,0,0,1-9.175-.512q-1.623.712-3.236,1.425A78.943,78.943,0,0,0,56.291,66a90.2,90.2,0,0,0,27.243-4.341l6.494-2.347c-.5-1.656-.871-2.942-1.017-3.443M28.8,67.284q-2.369,1.089-4.651,2.182a52,52,0,0,1-2.9,14.715l1.689-.612c1.423-2.673,2.947-5.4,4.337-8.275a19.7,19.7,0,0,0,1.527-8.01" transform="translate(13.424 35.298)"/><path class="ar" d="M91.641,55.732l-.157.121s-19.433,6.721-39.563,6.721c-8.719,0-17.573-1.263-25.028-4.877,0,0,1.9,25.125-8.2,35.31l.92,9.9a15.489,15.489,0,0,0-2.63-1.051v.008c.065.082.129.165.194.25a15.461,15.461,0,0,1,2.554,1.028l-.937-9.97a22.554,22.554,0,0,0,5.15-8.906,51.923,51.923,0,0,0,2.9-14.715q2.279-1.092,4.652-2.18-2.369,1.089-4.652,2.18a80.764,80.764,0,0,0,.188-11.615,49.936,49.936,0,0,0,15.823,4.355q-1.625.71-3.237,1.425,1.611-.712,3.237-1.425a78.2,78.2,0,0,0,9.177.512c20.141,0,39.607-6.708,39.607-6.708l.067-.137c-.041-.147-.067-.228-.067-.228" transform="translate(10.729 35.209)"/><path class="as" d="M65.912,57.983,59.419,60.33q3.287-1.04,6.5-2.316l-.008-.031" transform="translate(37.54 36.631)"/><path class="as" d="M15.962,86.229a5.358,5.358,0,0,0-2.05.41c-.535.07-.757.465-.773,1.021v.134a5.61,5.61,0,0,0,.4,1.72,2.569,2.569,0,0,1,1.338-.369,3.136,3.136,0,0,1,3.011,3.7c.723-1.433.5-3.082,2.023-3.275,2.335,1.044,2.229,4.75-.437,5.755,1.932.434,4.261,1.482,4.882,3.742h0a7.3,7.3,0,0,0,.357-2.128v-.4c-.114-4.864-4.321-10.3-8.758-10.3" transform="translate(8.301 54.476)"/><path class="as" d="M49.473,82.7A7.973,7.973,0,0,1,46.6,85.461c.434.033.849.069,1.25.069a2.867,2.867,0,0,0,2.616-1.3.788.788,0,0,0,.033-.145v-.1c-.042-.455-.685-.759-1.023-1.281" transform="translate(29.44 52.248)"/><path class="au" d="M59.585,67.173a4.487,4.487,0,0,1,.783,2.754c-.011,1.126-.222,2.906-1.082,3.574-.837.661-1.95-.073-1.594-1.343a11.633,11.633,0,0,1,1.232-2.022,4.245,4.245,0,0,0,.421-2.767c-.039-.171.131-.357.24-.2" transform="translate(36.406 42.398)"/><path class="as" d="M59.12,68.373h-.067c-2.6.023-4.68,2.71-4.856,6.605,0,.088-.007.175-.008.263v.5c.088,4.208,2.382,8.154,5.334,9.019a4.262,4.262,0,0,0,.969.166h.37c2.536-.126,4.538-2.792,4.7-6.614A11.237,11.237,0,0,0,62.5,69.889c-.007.086-.015.175-.026.263,2,1.829,3.206,5.334,2.831,8.764-.39,3.595-2.389,5.989-4.742,5.989a3.717,3.717,0,0,1-1.364-.266c-2.9-1.134-4.882-5.506-4.424-9.779.387-3.6,2.387-5.987,4.744-5.987a3.8,3.8,0,0,1,1.363.261c.086.036.171.072.259.113.044-.086.086-.176.124-.271a4.958,4.958,0,0,0-1.021-.429,4.065,4.065,0,0,0-1.128-.173" transform="translate(34.236 43.195)"/><path class="av" d="M58.574,68.741c-.038.095-.08.186-.122.269a5.362,5.362,0,0,1,1.332.906l.029-.259a6.2,6.2,0,0,0-1.239-.915" transform="translate(36.929 43.428)"/><path class="j" d="M65.105,78.723C64.644,83,61.905,85.575,59,84.447s-4.882-5.507-4.424-9.781,3.2-6.844,6.106-5.726,4.892,5.515,4.424,9.783" transform="translate(34.438 43.388)"/><path class="k" d="M58.486,80.684c1.926.2,3.4-1.819,3.311-4.476-.108-2.683-1.735-5-3.667-5.17-1.909-.191-3.383,1.8-3.3,4.494.1,2.657,1.735,4.98,3.657,5.152" transform="translate(34.638 44.871)"/><path class="h" d="M57.715,77.991c1.136.095,2-1.095,1.935-2.673-.052-1.562-1.012-2.94-2.154-3.045-1.121-.119-2.009,1.08-1.947,2.65s1.026,2.945,2.165,3.068" transform="translate(35.093 45.654)"/><path class="j" d="M59.094,76.411a2.583,2.583,0,0,1-1.8.883,2.57,2.57,0,0,0,1.8-.881Z" transform="translate(36.199 48.273)"/><path class="aw" d="M58.065,75.6a1.469,1.469,0,0,1-.866.284c-.042,0-.083,0-.127,0a1.728,1.728,0,0,1-.507-.14,5.385,5.385,0,0,0,.754,2.041l.072.007a2.285,2.285,0,0,0,.279.016.842.842,0,0,0,.091,0,2.584,2.584,0,0,0,1.8-.881v0A4.838,4.838,0,0,1,58.065,75.6" transform="translate(35.736 47.763)"/><path class="ax" d="M57.137,74.771h0a1.7,1.7,0,0,0-.573,1.495,1.74,1.74,0,0,0,.512.142q.064,0,.127,0a1.482,1.482,0,0,0,.865-.284,12.624,12.624,0,0,1-.932-1.358" transform="translate(35.731 47.237)"/><path class="au" d="M31.913,74.637a4.048,4.048,0,0,1,1.27,2.511c.181,1.095.264,2.883-.5,3.719a1.076,1.076,0,0,1-1.885-.956,11.9,11.9,0,0,1,.943-2.249,4.021,4.021,0,0,0-.041-2.784Z" transform="translate(19.447 47.153)"/><path class="as" d="M32.47,76.129c-2.862,0-4.9,2.627-4.951,6.206v.274A9.8,9.8,0,0,0,27.6,83.73c.555,4.414,3.769,8.157,7.164,8.365.1.008.2.01.3.01,2.875,0,4.9-2.616,4.959-6.183V85.59a10.694,10.694,0,0,0-4.677-8.637c.008.088.013.176.02.264,2.379,1.34,4.225,4.492,4.412,7.914.232,3.986-1.854,6.96-4.735,6.96a4.046,4.046,0,0,1-.622-.046c-3.193-.457-5.989-4.288-6.23-8.554-.238-3.993,1.841-6.953,4.726-6.953a4.3,4.3,0,0,1,.623.044c.1.015.2.033.3.052a3.087,3.087,0,0,0,.085-.3,5.374,5.374,0,0,0-1.137-.2c-.1-.007-.2-.01-.305-.01" transform="translate(17.386 48.095)"/><path class="av" d="M31.468,76.256c-.024.106-.052.2-.083.3a5.31,5.31,0,0,1,1.527.584c0-.09-.011-.179-.018-.266a6.216,6.216,0,0,0-1.426-.617" transform="translate(19.828 48.176)"/><path class="j" d="M39.519,84.974c.25,4.267-2.159,7.376-5.357,6.916s-5.989-4.292-6.229-8.557c-.256-4.275,2.149-7.366,5.349-6.907s6,4.292,6.237,8.549" transform="translate(17.636 48.254)"/><path class="k" d="M33.715,87.557c2.041.008,3.456-2.143,3.192-4.748-.286-2.634-2.149-4.766-4.19-4.742-2.032.007-3.44,2.133-3.19,4.773.279,2.609,2.147,4.742,4.189,4.718" transform="translate(18.636 49.319)"/><path class="h" d="M32.961,84.925c1.2-.016,2.046-1.273,1.875-2.841-.153-1.529-1.252-2.8-2.469-2.777-1.19-.008-2.046,1.265-1.886,2.8.176,1.56,1.287,2.816,2.48,2.816" transform="translate(19.245 50.103)"/><path class="j" d="M34.335,83.221A2.848,2.848,0,0,1,32.124,84.3h-.088l0,0h.168a2.861,2.861,0,0,0,2.129-1.07Z" transform="translate(20.24 52.576)"/><path class="aw" d="M33.186,82.6a1.635,1.635,0,0,1-.85.245,1.9,1.9,0,0,1-.883-.227,4.635,4.635,0,0,0,.951,2.076h.086a2.839,2.839,0,0,0,2.213-1.08A4.652,4.652,0,0,1,33.186,82.6" transform="translate(19.871 52.183)"/><path class="ax" d="M31.98,81.752h0a1.655,1.655,0,0,0-.53,1.142v.16c0,.033,0,.065.008.1a1.9,1.9,0,0,0,.878.227,1.647,1.647,0,0,0,.85-.246,11.416,11.416,0,0,1-1.206-1.382" transform="translate(19.87 51.648)"/><path class="h" d="M66.609,68.637c-5.1-3.446-8.5-4.292-12.472-.6-.214.209-.682-.348-.534-.636,1.23-2.343,2.568-3.737,5.355-3.782,2.834-.049,5.248,1.664,7.895,4.249.476.467.22,1.038-.245.773" transform="translate(33.848 40.188)"/><path class="h" d="M38.5,72.9a11.968,11.968,0,0,0-6.969,1.981c-2.227,1.5-3.466,3.936-5.094,6.16-.286.393-.839.209-.818-.362.237-5.628,9.027-12.413,13.031-8.252.162.184.069.473-.15.473" transform="translate(16.188 44.946)"/><path class="ay" d="M44.539,98.007a12.944,12.944,0,0,1-1.16-1.439A23.21,23.21,0,0,1,40.047,88.9a42.581,42.581,0,0,0,23.282-4.146,21.963,21.963,0,0,1-1.265,9.056,12.938,12.938,0,0,1-2.146,3.67,12.918,12.918,0,0,0-15.38.524" transform="translate(25.301 53.546)"/><path class="az" d="M58.179,93.438a10.7,10.7,0,0,1-6.036,3.551A9.256,9.256,0,0,1,42.8,93.962a12.936,12.936,0,0,1,15.381-.524" transform="translate(27.039 57.589)"/><path class="aq" d="M90.07,59.322,21.248,84.2a52,52,0,0,0,2.9-14.714c5.054-2.42,10.486-4.84,16.009-7.261,22.941,2.709,48.785-6.2,48.785-6.2l.093-.194s.468,1.454,1.03,3.485" transform="translate(13.424 35.275)"/><path class="ba" d="M101.263,207.165a5.65,5.65,0,0,1-5.537-5.724v-8.577a5.538,5.538,0,1,1,11.07,0v8.577a5.65,5.65,0,0,1-5.533,5.724" transform="translate(60.478 118.233)"/><path class="bb" d="M95.766,190.247a6.294,6.294,0,0,0-.036.659v3.53a14.22,14.22,0,0,0,2.508.22,17.671,17.671,0,0,0,8.549-2.4V190.71l0-.047a35.226,35.226,0,0,1-3.82.2,41.821,41.821,0,0,1-4.429-.242c-.951-.1-1.873-.225-2.771-.374" transform="translate(60.48 120.193)"/><path class="ba" d="M110.414,193.666c-2.484-.3-5.179-.5-8.071-.613a70.491,70.491,0,0,0-7.877.173s-.5,10.437,7.155,10.437,8.792-10,8.792-10" transform="translate(59.678 121.94)"/><path class="ba" d="M85.608,266.222l-.847,85.993,10.52-5.072c-1.116-30.32,6.136-34.112,3.335-79.021Z" transform="translate(53.55 168.192)"/><path class="ba" d="M119.526,266.714l-7.913,85.61-9.939-6.191c4.192-30.028-2.637-34.592,4.719-78.941Z" transform="translate(64.236 168.503)"/><path class="ba" d="M87.632,265.021a13.947,13.947,0,0,0-.615-2.542c-.341-.9-1.221-1.591-1.624-2.467a15.84,15.84,0,0,1-1.082-7.629c.31-5.511,1.932-12.175,3.65-17.87,2.133-7.108,4.4-12.712,4.4-12.712L82,217.443s-5.638,31.9-5.971,33.388c-.943,4.177-1.9,8.41-3.931,12.185a24.614,24.614,0,0,0-1.529,3.02,12.933,12.933,0,0,0-.622,2.908,31.5,31.5,0,0,0-.2,3.556,3.9,3.9,0,0,0,.4,2.064c.16.256.53.507.749.307l.116-.284c.369-1.854.773-3.627,1.137-5.47a34.824,34.824,0,0,0-.53,6.545,4.731,4.731,0,0,0,.605,2.945l.227.2c.253.091.45-.2.529-.444.9-2.787.494-5.855,1.565-8.583-.6,3.673-1.177,7.593.424,11.088a.864.864,0,0,0,.323.434c.452.243.881-.32,1.025-.79,1.056-3.6.506-7.492,2.079-10.9-.126,1.185-.242,2.363-.362,3.549-.243,2.44-.462,5.037.731,7.265.217.4.658.831,1.056.636a.81.81,0,0,0,.32-.4,13.14,13.14,0,0,0,.831-3.676,62.726,62.726,0,0,1,2.139-9.773c.091-.284.259-.614.563-.587a.654.654,0,0,1,.428.274c.813.9.863,2.05,1.5,3.061a2.923,2.923,0,0,0,2.348,1.555c.255,0,.777-.075.653-.539-.558-2.033-.6-3.88-.976-5.956" transform="translate(44.066 137.375)"/><path class="ba" d="M119.89,264.716a13.7,13.7,0,0,1,.615-2.541c.341-.9,1.221-1.589,1.624-2.466a15.873,15.873,0,0,0,1.082-7.632c-.308-5.509-1.934-12.176-3.647-17.87-2.139-7.108-4.406-12.7-4.406-12.7l10.362-4.36s5.638,31.9,5.971,33.385c.945,4.174,1.9,8.407,3.931,12.183a24.965,24.965,0,0,1,1.532,3.019,13.227,13.227,0,0,1,.62,2.913,31.039,31.039,0,0,1,.2,3.552,3.942,3.942,0,0,1-.4,2.063c-.163.263-.532.512-.747.307l-.119-.284c-.367-1.852-.77-3.618-1.141-5.466a34.685,34.685,0,0,1,.53,6.545,4.7,4.7,0,0,1-.6,2.942l-.227.2c-.255.088-.454-.206-.53-.446-.9-2.785-.49-5.856-1.565-8.585.6,3.68,1.175,7.6-.423,11.09a.863.863,0,0,1-.325.432c-.452.248-.88-.32-1.025-.786-1.056-3.606-.506-7.49-2.081-10.9.127,1.185.245,2.369.364,3.552.243,2.436.463,5.037-.731,7.26-.215.4-.656.832-1.057.636a.812.812,0,0,1-.318-.4,13.1,13.1,0,0,1-.831-3.676,62.891,62.891,0,0,0-2.139-9.771c-.088-.279-.258-.614-.56-.591a.678.678,0,0,0-.431.274c-.814.9-.862,2.05-1.5,3.068a2.937,2.937,0,0,1-2.347,1.553c-.258-.007-.778-.073-.653-.542.555-2.03.6-3.882.976-5.958" transform="translate(72.755 137.187)"/><path class="d" d="M131.878,242.9c.207-.537,3.26,3.9,3.166,11.7-.1,8.921,2.224,26.4.01,35.617,0,0-8.947.418-12.281-.5s-10.138-2.332-10.138-2.332-2.027-25.245-3.27-22.7c-2.772,5.685-3.675,23.721-3.675,23.721s-13.684,4.161-23.07-.563l-.731-11.716c-.95-15.128,4.505-28.3,4.873-32.993a6.1,6.1,0,0,1,4.84-5.512Z" transform="translate(51.665 150.124)"/><path class="bc" d="M140.638,242.389a62.205,62.205,0,0,1-3.118-11.672c-.2,11.108.024,24.739,1.225,39.647a2.257,2.257,0,0,1-1.795,2.1c-3.312.95-12.029,2.945-27.06,2.945-19.784,0-19.488-4.07-19.488-4.07s-.268-16.752-.878-34.266a51.319,51.319,0,0,1-1.852,5.8c-.627,1.627-12.612-6.29-11.607-8.464,1.976-4.275,6.527-24.32,9.047-28.871a28.14,28.14,0,0,1,3.34-4.864,17.026,17.026,0,0,1,5.5-4.373c.32-.14.656-.287,1-.418a35.979,35.979,0,0,1,6.069-1.728c1.5-.286,3.115-.548,4.83-.76,0,0,2.673,6.362,8.71,6.362s7.087-6.793,7.087-6.793a51.669,51.669,0,0,1,5.137.643,30.959,30.959,0,0,1,6.054,1.627.307.307,0,0,0-.1-.057c4.372,1.354,7.932,5.315,10.456,9.874s7.054,24.581,9.029,28.868c1.018,2.175-10.969,10.091-11.592,8.464" transform="translate(48.019 121.913)"/><path class="bd" d="M87.32,228.511c0,.031-.015.041-.015.072-.891,3.353-1.85,5.871-1.85,5.871s-.2.677-2.8-.618a29.517,29.517,0,0,1-3.19-1.971s4.956-2.5,5.93-4.1c2.519-3.453-.656-8.95-.834-13.744a20.414,20.414,0,0,1,1.725-7.713Z" transform="translate(50.208 130.337)"/><path class="ba" d="M94.3,193.488q3.7-.448,7.991-.6a68.44,68.44,0,0,1,7.811.165s.494,10.341-7.09,10.341-8.712-9.9-8.712-9.9" transform="translate(59.574 121.831)"/><path class="bd" d="M114.511,204.187a22.152,22.152,0,0,1,3.228,10.678c-.2,4.794-3.355,10.279-.834,13.746.961,1.6,5.915,4.1,5.915,4.1a28.5,28.5,0,0,1-3.177,1.973c-2.6,1.294-2.792.618-2.792.618s-.963-2.518-1.852-5.887c-.434-1.609-.865-3.427-1.3-5.178Z" transform="translate(71.835 129)"/><path class="be" d="M86.43,315.16v.059c-1.121-.346-2.02-1.333-3.2-1.219,1.627-2.2,2.637-.29,3.086.873Z" transform="translate(52.584 197.739)"/><path class="bc" d="M102.895,316.261c-.224,2.552-.393,3.539-.674,7.658a14.385,14.385,0,0,1-.392,3.074,32.117,32.117,0,0,1-25.247,4.349c-1.012-.521-2.02-3.536-3.872-4.525,1.909-3.131,4.935-5.046,8.079-6.9a2.688,2.688,0,0,0,1.346.64c4.1,2.265,9.707-.7,11.334-5.453a4.381,4.381,0,0,0,2.692,2.5c2.469.633,6-1.048,6-1.048Z" transform="translate(45.937 199.073)"/><path class="bf" d="M89.131,195.016a16.992,16.992,0,0,0-5.5,4.373,11.384,11.384,0,0,1,5.5-4.373" transform="translate(52.838 123.206)"/><path class="bg" d="M72.853,322.762c.1-.17.2-.315.3-.48,1.832,1.005,2.843,4,3.851,4.545a32.227,32.227,0,0,0,25.247-4.362,4.9,4.9,0,0,1-1.457,2.565,6.441,6.441,0,0,1-2.291,1.082,61.982,61.982,0,0,1-22.158,2.617c-1.509-.093-3.254-.406-3.991-1.829-.659-1.268-.191-2.887.5-4.138" transform="translate(45.511 203.61)"/><path class="bc" d="M77.661,321.066s7.94-5.528,9.087-7.248,3.2,1.217,3.2,1.217l.987,2.222-.176,1.669-8.582,5.635Z" transform="translate(49.065 197.922)"/><path class="bc" d="M101.524,315.653c.225,2.549-.4,3.275-.124,7.4a14.454,14.454,0,0,0,.39,3.071,32.138,32.138,0,0,0,25.25,4.35c1.012-.521,2.019-3.538,3.871-4.525-1.906-3.133-4.938-5.044-8.077-6.9a2.693,2.693,0,0,1-1.348.638c-4.094,2.26-9.707-.7-11.334-5.452a4.4,4.4,0,0,1-2.691,2.492,8.458,8.458,0,0,1-5.209-.78Z" transform="translate(64.017 198.523)"/><path class="bg" d="M131.014,321.889c-.1-.17-.2-.313-.3-.48-1.831,1.007-2.843,4-3.848,4.548a32.247,32.247,0,0,1-25.25-4.363,4.889,4.889,0,0,0,1.459,2.565,6.376,6.376,0,0,0,2.289,1.08,61.953,61.953,0,0,0,22.158,2.619c1.508-.093,3.255-.406,3.991-1.831.663-1.268.193-2.883-.5-4.138" transform="translate(64.198 203.059)"/><path class="bc" d="M119.646,320.194s-7.939-5.528-9.086-7.252-3.2,1.22-3.2,1.22l-.989,2.224.178,1.669,8.58,5.633Z" transform="translate(67.203 197.369)"/><path class="h" d="M157.223,162.761v.946c.034.581.067,1.475.1,2.591v.052c.049,1.957.069,4.6-.1,7.5a61.653,61.653,0,0,1-2.524,14.923c-.633,1.767-1.18,3.246-1.808,4.652-3.523,7.916-6.946,9.978-6.946,9.978l-65.077-7.557-.9-.085s-.364-1.682-.911-4.4c-.268-1.39-.635-2.968-.9-4.926v-.1a12.177,12.177,0,0,1-.364-1.666c-.166-1.493-.449-2.986-.715-4.567-.183-1.269-.367-2.593-.53-3.933-.281-2.232-.548-4.585-.747-6.938V169.2c-.1-1.2-.186-2.423-.251-3.642-.033-.53-.049-1.062-.069-1.58-.1-2.043-.162-4.052-.148-6.01.253-2.182.682-4.38,1.1-6.525l.152-.685a59.817,59.817,0,0,1,2.108-8.192,25.29,25.29,0,0,1,6.3-7.42c.3-.256.6-.481.912-.721l.018-.016c6.211-4.6,14.746-7.057,24.333-7.057h3.784l-.181-.088a22.054,22.054,0,0,0-3.786-.84c-1.163-.191-2.611-.463-3.871-.653a24.881,24.881,0,0,0-3.6-.274,22.888,22.888,0,0,0-5.5.359c-.9.189-1.63.465-1.894.465a7.483,7.483,0,0,1,1.629-1.2,26.991,26.991,0,0,1,5.215-2.7c1.178-.377,2.443-.842,3.789-1.219,1.444-.276,2.79-.653,4.514-.842a18.264,18.264,0,0,1,4.954.189,26.669,26.669,0,0,1,5.231,1.3,29.805,29.805,0,0,1,9.016,5.22c.532.379.984.842,1.429,1.2-.266-1.015-.631-2.046-.979-3.074-.55-1.2-1-2.319-1.545-3.35-.166-.308-.315-.6-.481-.873q2.144.463,4.187,1.08h.016l.366.121.413.137.134.034.4.139.2.206a37.846,37.846,0,0,1,2.973,3.534,29.381,29.381,0,0,1,2.262,4.571c.264.738.447,1.493.713,2.231a.606.606,0,0,1,.364.1v-.1c.718-1.03,1.629-2.231,2.342-3.262.235-.41.467-.824.684-1.235l.165-.277c.166-.273.317-.53.447-.788a27.652,27.652,0,0,1,3.091,2.557c-.065.449-.149.93-.232,1.426l-.049.259-.1.462a27.145,27.145,0,0,1-.927,3.384,35.088,35.088,0,0,1,4.683,3.262,4.559,4.559,0,0,1,.431.379,6.634,6.634,0,0,1,.733.669l.015.016a26.187,26.187,0,0,1,4.518,5.546l.018.02c.132.5.264,1.012.38,1.526a56.458,56.458,0,0,1,1.247,11.214v.036c.031,1.787.085,3.6.031,5.427-.1-.276-.163-.62-.248-.894" transform="translate(47.595 75.98)"/><path class="ba" d="M156.221,190.26a4.55,4.55,0,0,0-3.955-.179,133.976,133.976,0,0,0,1.02-29.132s.007-29.8-33.174-34.424c-26.244-4.12-30.7,26.782-30.7,26.782A164.329,164.329,0,0,0,83.783,180.1c-1.578-2.549-3.668-4.03-5.713-3.683-3.49.586-5.509,6.23-4.505,12.6s4.638,11.072,8.123,10.481a3.742,3.742,0,0,0,1.495-.617c1.211,16.925,8.994,30.057,29.521,32.242,17.837,1.894,27.92-7.594,33.7-20.179,3,.263,6.955-2.593,9.6-7.243,3.166-5.559,3.26-11.581.215-13.438" transform="translate(46.314 79.695)"/><path class="bb" d="M113.837,159.915a4.849,4.849,0,0,0-1.147.137c-3.241.765-5.667,4.543-5.419,8.431.225,3.425,2.448,5.8,5.192,5.8a5.368,5.368,0,0,0,1.152-.135c3.079-.721,5.418-4.156,5.434-7.829v-.08c0-.175-.007-.352-.018-.525-.222-3.42-2.446-5.8-5.194-5.8m-1.274,14.35c-2.457,0-4.567-2.1-5-5.249-.525-3.722,1.488-7.5,4.481-8.444a4.641,4.641,0,0,1,1.38-.215c2.453,0,4.562,2.094,5.006,5.236.524,3.725-1.485,7.511-4.487,8.453a4.477,4.477,0,0,1-1.377.22" transform="translate(67.761 101.03)"/><path class="j" d="M107.472,168.849c.519,3.719,3.383,5.981,6.38,5.024,3-.938,5.013-4.726,4.491-8.449s-3.391-5.974-6.387-5.019-5,4.719-4.484,8.444" transform="translate(67.847 101.201)"/><path class="k" d="M111.952,171.037c-1.891.574-3.631-1.144-3.853-3.81-.228-2.684,1.108-5.31,3.012-5.876s3.618,1.141,3.854,3.826c.23,2.663-1.121,5.289-3.014,5.86" transform="translate(68.279 101.869)"/><path class="h" d="M111.086,168.177c-1.116.333-2.138-.684-2.281-2.268s.664-3.13,1.78-3.468,2.152.671,2.289,2.253-.661,3.153-1.788,3.482" transform="translate(68.731 102.586)"/><path class="aw" d="M111.824,165.569a2,2,0,0,1-.907.594,1.512,1.512,0,0,1-.418.06.859.859,0,0,1-.1,0,5.562,5.562,0,0,1-1.348,1.628v0a2.536,2.536,0,0,0,1.446.56h.217a2.794,2.794,0,0,0,.612-.1l.08-.038a6.075,6.075,0,0,0,.5-2.045v-.055a2.1,2.1,0,0,0-.088-.6" transform="translate(68.899 104.602)"/><path class="ax" d="M110.636,165.045a15.112,15.112,0,0,1-.756,1.508c.031,0,.065,0,.1,0a1.454,1.454,0,0,0,.419-.064,1.98,1.98,0,0,0,.9-.594,1.474,1.474,0,0,0-.666-.853" transform="translate(69.42 104.271)"/><path class="bb" d="M92.252,156.231h-.129a4.919,4.919,0,0,0-1.363.217c-2.862.862-4.93,4.081-5,7.518v.359a8.745,8.745,0,0,0,.059.873c.4,3.229,2.539,5.409,5.1,5.481h.261a4.988,4.988,0,0,0,1.3-.214c2.885-.863,4.962-4.138,4.995-7.617v-.166a9.353,9.353,0,0,0-.062-.974c-.4-3.254-2.578-5.439-5.16-5.476m-1.074,14.422c-2.35,0-4.445-1.942-5.044-4.943-.728-3.681,1.064-7.585,4-8.707a4.486,4.486,0,0,1,1.624-.31c2.348,0,4.438,1.937,5.037,4.936.736,3.69-1.054,7.591-3.995,8.717a4.541,4.541,0,0,1-1.62.307" transform="translate(54.183 98.702)"/><path class="j" d="M86.053,165.531c.733,3.68,3.714,5.765,6.663,4.634s4.729-5.024,3.993-8.719c-.731-3.678-3.709-5.754-6.661-4.623-2.934,1.123-4.721,5.024-3.995,8.707" transform="translate(54.264 98.882)"/><path class="k" d="M91.909,167.519c-1.862.69-3.685-.924-4.063-3.57-.387-2.67.806-5.365,2.673-6.043,1.849-.687,3.675.924,4.063,3.577s-.813,5.36-2.673,6.036" transform="translate(55.454 99.661)"/><path class="h" d="M91.213,164.819c-1.1.4-2.177-.555-2.405-2.118-.228-1.58.48-3.169,1.586-3.575s2.175.535,2.4,2.12-.483,3.169-1.583,3.574" transform="translate(56.08 100.473)"/><path class="j" d="M90.981,163.673c-.082.036-.162.072-.243.1a2.5,2.5,0,0,1-.868.16,2.028,2.028,0,0,1-.242-.013,2.351,2.351,0,0,0,.286.029h.2a2.5,2.5,0,0,0,.77-.158l.065-.026.031-.093" transform="translate(56.625 103.404)"/><path class="aw" d="M91.724,162.324a1.942,1.942,0,0,1-.651.419,1.547,1.547,0,0,1-.5.091,1.41,1.41,0,0,1-.406-.062,5.355,5.355,0,0,1-1.175,1.56,2.507,2.507,0,0,0,1.046.441,1.52,1.52,0,0,0,.243.016,2.447,2.447,0,0,0,.865-.162c.083-.031.165-.065.246-.1a6.781,6.781,0,0,0,.354-1.715v-.268c0-.072-.008-.147-.018-.22" transform="translate(56.22 102.552)"/><path class="ax" d="M90.449,161.559a14.476,14.476,0,0,1-.742,1.7,1.353,1.353,0,0,0,.406.06,1.472,1.472,0,0,0,.5-.09,1.945,1.945,0,0,0,.651-.415,1.558,1.558,0,0,0-.819-1.252" transform="translate(56.675 102.068)"/><path class="bb" d="M99.489,169.937h0s-2.222,1.749-2.275,3.655v.131a2.345,2.345,0,0,0,.269,1.021,1.522,1.522,0,0,0,1.361.8h.292c1.438-.072,3.179-1.2,3.268-1.867v-.106c-.021-.137-.127-.245-.341-.31-1.71-.519-2.575-3.329-2.575-3.329" transform="translate(61.418 107.361)"/><path class="h" d="M87.174,156.226a14.337,14.337,0,0,1,5.6-2,8.715,8.715,0,0,1,2.988.131c1,.194,1.828.865,2.82,1.013a.289.289,0,0,0,.3-.393c-.834-2.045-3.952-2.178-5.778-2.012a9.591,9.591,0,0,0-6.1,3.076Z" transform="translate(54.962 96.608)"/><path class="h" d="M108.086,157.63a7.5,7.5,0,0,1,6.619-.033c2.015.853,3.477,2.526,5.413,3.486.228.111.481-.188.374-.411-1.1-2.2-3.652-3.657-5.83-4.491a6.535,6.535,0,0,0-6.8,1.064c-.193.163.013.508.227.385" transform="translate(68.095 98.349)"/><path class="l" d="M114.927,186.891c3.012-4.6,2.516-10.817,2.516-10.817-13.09,1.567-26.874-3.175-26.874-3.175s-1.3,6.082,1.106,11.338c6.566-5.2,16.15-1.875,23.251,2.655" transform="translate(56.998 109.232)"/><path class="m" d="M91.112,180.87c1.6,3.489,4.825,6.619,11.16,7.358,6.449.767,10.058-1.606,12.088-4.7-7.1-4.531-16.685-7.859-23.248-2.658" transform="translate(57.563 112.599)"/><path class="bb" d="M79.4,166.906c-1.224-.615-1.826-.925-2.732-.622-.281.6-1.469,1.511-.524,2.737.57-1.217,1.754-2.121,2.684-.9,1.265,2.136.739,4.863.486,6.989,2.324-3.327,1.632-6.674,1.841-10.323a6.718,6.718,0,0,0-4.972-5.5,8.36,8.36,0,0,0-.876.338c.445.2.858.4,1.2.576,2.446,1.225,2.521,4.272,2.888,6.7" transform="translate(47.581 100.634)"/><path class="bb" d="M121.84,174.1c1.181-.379,1.771-.565,2.472-.144.118.618.933,1.66-.137,2.64-.224-1.227-1.043-2.26-2.1-1.271-1.54,1.782-1.676,4.417-1.919,6.442-1.271-3.49.033-6.5.641-9.933a6.608,6.608,0,0,1,5.437-4.321c.23.152.468.294.676.462-.419.108-.818.238-1.149.338-2.364.752-3.076,3.578-3.916,5.786" transform="translate(75.57 105.829)"/><path class="h" d="M77.8,172.051l-.248-9.28c12.049,6.056,35.263,7.1,45.006.537,9.393-6.32,15.624-15.538,16.507-26.233l.326-3.929c.219-2.621-10.417-6.563-13.745-6.862l-11.109-.406c-17.072-1.522-33.647,8.919-34.76,22.326Z" transform="translate(48.993 79.433)"/><path class="h" d="M133.012,175.549h0c-8.221-2.053-14.524-13.12-17.871-19.392a100.571,100.571,0,0,1-7.63-19.363c.361-1.518,2.552-9.362,4.494-8.874L121,131.889c9.933,2.472,17.067,21.985,15.242,29.782Z" transform="translate(67.923 80.802)"/><path class="bh" d="M114.068,122.968l-.088-.044-.377-.238c.152.1.3.184.465.282" transform="translate(71.772 77.509)"/><path class="ad" d="M133.473,162.226c-.034.894-.067,1.769-.15,2.645v.051c-.065.963.194,2.756.028,3.7-.2,1.219-.94,1.606-2.154,2.345a2.965,2.965,0,0,1-.447.242l-.22.067-.013.018-.067.015-.1.02-.018.016-.085.018-.067.016h-.033c.018-.516.033-1.012.069-1.527,0-.274.016-.566.031-.842.018-.824.052-1.632.064-2.456.106-3.3.106-6.663-.028-10.029q-.127-2.624-.4-5.256c-.036-.478-.1-.96-.152-1.441-.049-.379-.1-.738-.145-1.116v-.033c-.088-.723-.184-1.446-.3-2.149-.132-.806-.3-1.632-.445-2.439-.069-.411-.166-.806-.253-1.2-.082-.411-.179-.808-.263-1.2-.119-.444-.233-.891-.385-1.32-.065-.225-.132-.447-.215-.672-.132-.393-.266-.772-.414-1.149l-.033-.087-.018-.016c-.165-.463-.366-.91-.563-1.356-.268-.6-.565-1.2-.881-1.77-.38-.7-.78-1.39-1.214-2.061-.281-.444-.579-.891-.881-1.3l-.078-.1c-.352-.5-.736-.977-1.1-1.441l-.1-.121c-.287-.343-.568-.687-.865-1.013-.251-.292-.516-.566-.782-.84-.2-.224-.414-.445-.633-.654-.315-.325-.646-.635-.977-.943a34.011,34.011,0,0,0-4.019-3.177c-.315-.189-.617-.4-.914-.584h-.016l-.083-.052-.383-.24-.449-.258c.3.137.615.276.915.413s.615.276.911.429l.135.052.116.067a29.733,29.733,0,0,1,4.236,2.56,28.44,28.44,0,0,1,3.091,2.557,32.032,32.032,0,0,1,3.42,3.8,33.612,33.612,0,0,1,5.648,11.608l.015.018c.134.5.268,1.012.383,1.527a56.422,56.422,0,0,1,1.245,11.214v.036c.034,1.784.083,3.6.034,5.424" transform="translate(71.596 77.406)"/><path class="bi" d="M152.932,168.928c-.018.7-.051,1.441-.067,2.164v.292c-.033.808-.067,1.614-.1,2.4v.018l-.3-.018h-.016l-.1-.016H152.3l-.15-.034-.2-.036c-.163-.052-.349-.1-.511-.171a13.026,13.026,0,0,1-1.6-.773l-.465-.238c-1.643-.86-3.355-1.668-5.081-2.423-1.245-.55-2.526-1.046-3.818-1.527h-.02c-.88-.325-1.761-.636-2.655-.911-1.7-.566-3.425-1.064-5.215-1.511-1.862-.48-3.789-.909-5.768-1.271a116.278,116.278,0,0,0-17.953-1.924c-3.371-.119-6.659-.1-9.831.088-2.577.119-5.067.359-7.461.7-.762.1-1.544.222-2.291.343-1.346.242-2.673.5-3.969.773-.733.171-1.464.343-2.175.532-.517.139-1.1.344-1.713.548a22.586,22.586,0,0,1-2.34.741,5.993,5.993,0,0,1-1.88.188H77.19l-.266-.018h-.016l-.118-.016.018-.018V166.8l.018-.188c.031-.48.082-.979.132-1.459.033-.344.067-.689.117-1.031.065-.653.131-1.305.217-1.94a101.34,101.34,0,0,1,2.244-11.935,85.468,85.468,0,0,1,3.817-11.538,26.14,26.14,0,0,1,1.63-3.316l.013-.016c.385-.653.782-1.273,1.214-1.89a29.5,29.5,0,0,1,3.836-4.466c.682-.685,1.446-1.286,2.175-1.922.383-.292.782-.566,1.147-.857l.282-.227.3-.2c.2-.122.4-.259.6-.4s.4-.256.6-.393c.181-.121.4-.241.6-.361.414-.241.813-.481,1.214-.721.413-.207.829-.413,1.243-.636l.315-.153.3-.139c.215-.085.432-.189.646-.272.2-.1.414-.191.614-.3.217-.083.431-.152.633-.238.429-.173.845-.326,1.261-.481.447-.121.863-.258,1.281-.377l.349-.1.163-.069.383-.051.181-.034.166-.016a51.294,51.294,0,0,1,9.252-.653c.264,0,.53,0,.8.015l-.051-.034-.1-.117-.064-.173-.018-.171.018-.155a.989.989,0,0,1,.331-.481,2.007,2.007,0,0,1,.483-.256,3.467,3.467,0,0,1,.977-.242,9.662,9.662,0,0,1,1.978-.018,9.412,9.412,0,0,1,1.943.377,3.984,3.984,0,0,1,.945.413l.416.346a.875.875,0,0,1,.25.53v.155l-.034.171-.1.155-.067.052a52.474,52.474,0,0,1,5.6.963q2.142.46,4.184,1.08h.018l.365.121.416.137.132.034.4.139.049.015.333.121.132.033.432.157h.033l.349.139.114.034.152.067.1.034.183.07.1.051.282.139a29.621,29.621,0,0,1,3.257,1.956A34.2,34.2,0,0,1,142.1,129.5c.78.738,1.544,1.527,2.275,2.369.364.413.715.842,1.048,1.271a31.407,31.407,0,0,1,3.952,6.473c.083.189.166.361.232.55a23.305,23.305,0,0,1,1.346,4c.1.395.183.79.266,1.185.083.413.184.806.25,1.2.15.806.317,1.612.434,2.438.029.2.065.413.08.618a85.8,85.8,0,0,1,.9,9.324c.134,3.35.134,6.7.051,9.995" transform="translate(48.515 75.017)"/><path class="ad" d="M101.953,120.588l-.366.139c-.215.083-.431.153-.646.24-.215.1-.416.189-.632.272-.215.1-.434.191-.649.3l-.315.135-.317.155c-.414.222-.832.429-1.247.633-.429.225-.827.483-1.243.725-.2.118-.414.24-.615.361s-.4.273-.6.395l-.6.411-.315.206-.282.207c-.38.292-.78.583-1.163.875-.747.636-1.513,1.253-2.208,1.942a30.206,30.206,0,0,0-3.921,4.5,27.108,27.108,0,0,0-1.762,2.869,25.305,25.305,0,0,0-1.162,2.438,84.014,84.014,0,0,0-3.835,11.592,96.35,96.35,0,0,0-2.229,11.967c-.131,1-.228,1.994-.346,2.991l-.016.256c-.036.411-.083.808-.118,1.219v.121l-.3-.121L77,165.374l-.2-.121-.15-.119c-.532-.4-.837-.055-1.051-.555a9.2,9.2,0,0,1-.411-3.1,31.1,31.1,0,0,1,.232-3.709c.25-2.183.682-4.38,1.1-6.525l.148-.687a60.081,60.081,0,0,1,2.11-8.19c.3-.894.63-1.77.979-2.611,3.889-9.392,11.378-16.21,20.547-18.752.281-.069.548-.139.831-.207.264-.067.548-.135.813-.206" transform="translate(47.506 76.184)"/><path class="bj" d="M76.856,148.213a5.717,5.717,0,0,1-.152.884Z" transform="translate(48.46 93.637)"/><path class="bj" d="M77.151,148.289l-.181-.024a.942.942,0,0,1-.447-.132l.449.109.117.034Z" transform="translate(48.346 93.585)"/><path class="bk" d="M152.817,157.657l-.028-.256-.013-.1-.248-.007a8.087,8.087,0,0,1-2.932-1.115c-.153-.09-.3-.173-.462-.246-1.629-.853-3.326-1.661-5.045-2.4-9.92-4.27-21.429-6.592-35.185-7.1a98.868,98.868,0,0,0-17.176.793,77.451,77.451,0,0,0-8.363,1.635c-.485.127-1.048.323-1.653.538-.279.091-.573.2-.868.3l-.036.013c-.2.064-.4.127-.6.189H80.2l-.583.171-.4.1-.181.036-.344.064-.821.1-.369.011-.385-.021-.315-.042-.026.078-.069.235a5.5,5.5,0,0,0,.15-.884l.184.025-.064-.015a10.345,10.345,0,0,0,4.51-.9c.612-.212,1.194-.414,1.7-.547a76.6,76.6,0,0,1,8.438-1.656,98.956,98.956,0,0,1,17.3-.791c13.833.5,25.422,2.838,35.419,7.149,1.733.751,3.45,1.56,5.093,2.422.147.072.307.155.459.245a10.46,10.46,0,0,0,2.115.933l.2.047.152.023.142.02.025,0,.3.018a4.329,4.329,0,0,0-.01.937" transform="translate(48.46 92.102)"/><path class="bj" d="M123.859,152.46l-.5.981a4.092,4.092,0,0,1,.01-.937,3.068,3.068,0,0,0,.493-.044" transform="translate(77.92 96.32)"/><path class="bk" d="M130.409,171.7l0-.015c.028-.8.055-1.6.085-2.409.031-.822.055-1.643.078-2.464.078-3.293.078-6.638-.059-9.99a87.515,87.515,0,0,0-.976-9.947c-.122-.818-.287-1.627-.437-2.426-.069-.4-.158-.8-.245-1.206s-.168-.793-.259-1.183a26.577,26.577,0,0,0-1.58-4.544,31.527,31.527,0,0,0-4.995-7.751,33.561,33.561,0,0,0-6.305-5.608,31.418,31.418,0,0,0-3.262-1.953l-.274-.139,1.593.635.106.046.06.02.1.039c.153.088.3.178.455.268l.383.237.085.044.006.01c.308.184.61.385.912.584a33.146,33.146,0,0,1,6.418,5.613,31.553,31.553,0,0,1,5.117,7.811,26.3,26.3,0,0,1,1.62,4.6c.1.4.183.8.268,1.2s.181.8.258,1.214c.149.806.32,1.624.442,2.443a87.717,87.717,0,0,1,.994,9.993c.135,3.36.129,6.718.039,10.018-.023.822-.046,1.643-.075,2.464-.036.788-.062,1.579-.1,2.363l.042,0a3.1,3.1,0,0,1-.494.044" transform="translate(70.876 77.119)"/><path class="bj" d="M113.982,122.786l-1.591-.633-.538-.215.165.062.281.109c.583.224,1.312.516,1.684.677" transform="translate(70.667 77.036)"/><path class="bk" d="M103.762,120.271l-.336.1c-.421.126-.842.251-1.279.383-.416.155-.839.312-1.261.475-.207.085-.424.155-.632.25s-.416.178-.627.279-.419.186-.633.277l-.31.144-.312.153c-.411.215-.822.424-1.242.64s-.8.472-1.211.711c-.2.124-.414.24-.61.364s-.392.263-.586.395-.4.269-.6.4l-.3.2-.284.222c-.379.287-.765.573-1.146.866-.734.622-1.495,1.234-2.18,1.927a29.265,29.265,0,0,0-3.846,4.458,26.9,26.9,0,0,0-2.856,5.222A84.729,84.729,0,0,0,79.7,149.276,100.668,100.668,0,0,0,77.466,161.2c-.126.991-.233,1.976-.336,2.97-.051.49-.1.979-.142,1.477l-.016.178v.015l-.449-.108.01-.126c.044-.5.095-.989.135-1.486.108-.992.212-1.986.339-2.985a98.8,98.8,0,0,1,2.224-11.971,83.538,83.538,0,0,1,3.848-11.586,27.9,27.9,0,0,1,2.913-5.3,29.624,29.624,0,0,1,3.923-4.505c.692-.692,1.462-1.31,2.206-1.939.392-.292.78-.586,1.173-.871l.284-.22.308-.206c.2-.131.4-.261.6-.4s.4-.261.605-.392.408-.248.617-.37c.413-.232.814-.488,1.234-.711s.84-.424,1.252-.64l.32-.158.317-.135c.215-.1.424-.186.643-.286s.418-.184.633-.276.432-.165.638-.243l.377-.137.016-.007.055-.01.082-.015.091-.021Z" transform="translate(48.346 75.983)"/><path class="bj" d="M94.882,120.18l-.728.15h-.008l-2.4.467c.493-.111,1.655-.357,2.575-.525l.383-.062Z" transform="translate(57.962 75.926)"/><path class="ad" d="M155.014,164.142l-.049.3-.075.3-.082.3-.09.3a2.953,2.953,0,0,1-.579,1.131,1.651,1.651,0,0,1-.6.431,2.872,2.872,0,0,1-.946.191,9,9,0,0,1-2.342-.24c-.78-.165-1.575-.395-2.364-.605l-1.176-.335c-.392-.113-.773-.232-1.168-.348-3.125-.938-6.2-1.991-9.391-2.965-1.594-.494-3.234-.963-4.905-1.384s-3.419-.791-5.166-1.114c-3.494-.651-7.074-1.139-10.669-1.469s-7.208-.507-10.765-.532c-1.782-.01-3.538.036-5.279.117s-3.44.212-5.116.382-3.322.362-4.936.591-3.2.472-4.788.684c-.79.1-1.593.2-2.392.279s-1.62.152-2.426.188a10.483,10.483,0,0,1-2.366-.134,3.807,3.807,0,0,1-.966-.323,1.643,1.643,0,0,1-.592-.507,2.747,2.747,0,0,1-.434-1.211c-.031-.2-.054-.41-.077-.617a5.132,5.132,0,0,1-.026-.614,13.962,13.962,0,0,1,.286-2.394c.147-.79.336-1.565.545-2.329.072-.268.152-.535.238-.8.059-.189.113-.382.168-.568l.01-.033c.1-.284.188-.566.284-.847.256-.738.527-1.459.845-2.16.07-.178.148-.352.237-.525l.059-.137.06-.121.018-.042.318.036.385.029.367.01.813-.018.341-.021L80.4,147l.4-.034.573-.067h.01c.193-.026.395-.049.591-.077l.031,0,.855-.124c.6-.088,1.147-.17,1.627-.217,2.64-.25,5.417-.426,8.268-.517,5.276-.17,11.024-.067,17.081.31,13.722.857,25.281,2.59,35.338,5.3,1.744.47,3.466.974,5.122,1.5.158.047.313.1.47.15a13.834,13.834,0,0,0,2.963.723l.251.013.02.052.034.14c.047.189.114.372.152.565.194.747.338,1.506.473,2.276.042.266.083.534.116.8l.023.114,0,.054c.026.219.057.439.085.662l.023.152v0c.116.968.184,1.955.21,2.945a14.994,14.994,0,0,1-.1,2.417" transform="translate(47.539 92.165)"/><path class="bk" d="M154.491,158.775a5.6,5.6,0,0,0-.392-.76,7.393,7.393,0,0,0-.961-1.177c-4.243-4.249-14.6-6.152-22.662-7.487a202.847,202.847,0,0,0-31.665-2.634,94.53,94.53,0,0,0-14.689.822,16.447,16.447,0,0,0-5.329,1.522,9.533,9.533,0,0,0-2.89,2.35c.057-.189.114-.383.171-.568l.008-.033c.1-.284.186-.568.284-.847.256-.738.525-1.459.844-2.162.07-.176.148-.352.237-.524l.06-.139.057-.121.02-.041.32.034.385.029.369.01.813-.016.338-.023.178-.011.395-.033.578-.067h.008c.193-.026.4-.051.591-.077l.031,0c.3-.042.581-.086.855-.124.6-.09,1.147-.17,1.627-.217,2.64-.251,5.418-.424,8.267-.517,5.276-.171,11.028-.069,17.082.308,13.723.857,25.283,2.591,35.339,5.3,1.744.47,3.466.974,5.124,1.5.158.047.313.1.468.15a13.777,13.777,0,0,0,2.965.723l.248.015.02.054.036.139c.049.188.114.372.153.563.191.747.338,1.5.473,2.276.041.268.082.534.113.8l.023.114,0,.057c.028.217.059.439.086.659Z" transform="translate(47.954 92.165)"/></g></svg>