<svg xmlns="http://www.w3.org/2000/svg" width="106.234" height="106.234" viewBox="0 0 106.234 106.234"><g transform="translate(-260.5 -2294)"><g transform="translate(260.5 2294)"><circle cx="53.117" cy="53.117" r="53.117" fill="#fff"/></g><g transform="translate(281.883 2311.411)"><path d="M112.7,32.484H82.675L80.185,49.37l34.343-2.49V34.315a1.831,1.831,0,0,0-1.831-1.831" transform="translate(-50.823 -20.589)" fill="#50b848"/><path d="M0,34.315V46.879l31.853,2.49V32.484H1.831A1.831,1.831,0,0,0,0,34.315" transform="translate(0 -20.589)" fill="#50b848"/><path d="M82.675,0l-2.49,11.9,2.49,11.9a11.9,11.9,0,1,0,0-23.8" transform="translate(-50.823 0)" fill="#dce4ec"/><path d="M82.675,0l-2.49,11.9,2.49,11.9a11.9,11.9,0,1,0,0-23.8" transform="translate(-50.823 0)" fill="#e9eff4"/><path d="M54.489,11.9a11.914,11.914,0,0,0,11.9,11.9V0a11.914,11.914,0,0,0-11.9,11.9" transform="translate(-34.536 0)" fill="#dce4ec"/><path d="M86.7,24.061h4.086V20.328H86.7V16.242H84.831L83.586,22.19l1.245,5.957H86.7Z" transform="translate(-52.978 -10.295)" fill="#585766"/><path d="M74.817,16.242v4.086H70.731v3.733h4.086v4.086h1.866v-11.9Z" transform="translate(-44.831 -10.295)" fill="#262626"/><path d="M114.528,71.8H82.675l-2.49,16.66,2.49,20.755h7.93l8-2.49,8,2.49h6.1a1.831,1.831,0,0,0,1.831-1.831Z" transform="translate(-50.823 -45.506)" fill="#e9eff4"/><rect width="15.992" height="31.917" transform="translate(39.783 31.789)" fill="#cbd2d8"/><path d="M0,71.8H31.853v37.415H1.831A1.831,1.831,0,0,1,0,107.381Z" transform="translate(0 -45.506)" fill="#e9eff4"/><rect width="10.667" height="13.658" transform="translate(16.94 31.789)" fill="#fff"/><path d="M145.284,123.451a1.511,1.511,0,1,1-1.511-1.511,1.511,1.511,0,0,1,1.511,1.511" transform="translate(-90.168 -77.288)" fill="#fff"/><rect width="10.667" height="13.658" transform="translate(4.245 31.789)" fill="#fff"/><rect width="63.706" height="63.706" fill="none"/></g></g></svg>