<svg xmlns="http://www.w3.org/2000/svg" xmlns:xlink="http://www.w3.org/1999/xlink" width="106.234" height="106.234" viewBox="0 0 106.234 106.234"><defs><clipPath id="a"><rect width="19.044" height="24.84" fill="none"/></clipPath></defs><g transform="translate(-237 -2277.88)"><g transform="translate(-23.5 -16.12)"><g transform="translate(260.5 2294)"><circle cx="53.117" cy="53.117" r="53.117" fill="#fff"/></g></g><g transform="translate(0 100)"><path d="M21.425,4.141V20.7a4.144,4.144,0,0,0,4.14,4.139H55.373A4.144,4.144,0,0,0,59.512,20.7V3.663A3.663,3.663,0,0,0,55.849,0H25.565a4.145,4.145,0,0,0-4.14,4.141" transform="translate(249.309 2201.77)" fill="#ffdd73"/><rect width="20.7" height="1.656" transform="translate(272.389 2206.739)" fill="#fff"/><rect width="9.936" height="1.656" transform="translate(298.057 2210.879)" fill="#fff"/><rect width="18.216" height="1.656" transform="translate(271.562 2210.879)" fill="#fff"/><rect width="10.764" height="1.656" transform="translate(274.874 2220.816)" fill="#fff"/><rect width="6.624" height="1.656" transform="translate(274.874 2216.675)" fill="#fff"/><path d="M57.251,15.872v4.969a.827.827,0,0,1-.827.827H51.454a.829.829,0,0,1-.828-.826v-4.97a.828.828,0,0,1,.826-.827h4.971a.828.828,0,0,1,.827.826Zm-1.656.828H52.283v3.311h3.311Z" transform="translate(247.431 2200.802)" fill="#fff"/><path d="M42.849,32.612V49.172a4.144,4.144,0,0,0,4.14,4.139H76.8a4.144,4.144,0,0,0,4.139-4.139V32.134a3.663,3.663,0,0,0-3.663-3.662H46.989a4.145,4.145,0,0,0-4.14,4.14" transform="translate(247.931 2199.939)" fill="#0079b5"/><rect width="20.7" height="1.656" transform="translate(292.435 2233.38)" fill="#fff"/><rect width="9.936" height="1.656" transform="translate(318.104 2237.519)" fill="#fff"/><rect width="18.216" height="1.656" transform="translate(291.608 2237.519)" fill="#fff"/><rect width="10.764" height="1.656" transform="translate(294.92 2247.456)" fill="#fff"/><rect width="6.624" height="1.656" transform="translate(294.92 2243.316)" fill="#fff"/><path d="M78.676,44.344v4.968a.828.828,0,0,1-.828.828H72.878a.828.828,0,0,1-.827-.828V44.344a.827.827,0,0,1,.826-.827h4.97a.827.827,0,0,1,.828.826Zm-1.656.828H73.708v3.311h3.311Z" transform="translate(246.052 2198.971)" fill="#fff"/><path d="M0,32.612V49.172a4.144,4.144,0,0,0,4.14,4.139H33.948a4.144,4.144,0,0,0,4.139-4.139V32.134a3.663,3.663,0,0,0-3.663-3.662H4.14A4.145,4.145,0,0,0,0,32.612" transform="translate(250.688 2199.939)" fill="#f58220"/><rect width="20.701" height="1.656" transform="translate(252.343 2233.38)" fill="#fff"/><rect width="9.936" height="1.656" transform="translate(278.011 2237.519)" fill="#fff"/><rect width="18.216" height="1.656" transform="translate(251.516 2237.519)" fill="#fff"/><rect width="10.764" height="1.656" transform="translate(254.828 2247.456)" fill="#fff"/><rect width="6.625" height="1.656" transform="translate(254.828 2243.316)" fill="#fff"/><path d="M35.827,44.344v4.968a.828.828,0,0,1-.828.828H30.029a.828.828,0,0,1-.827-.828V44.344a.826.826,0,0,1,.825-.827H35a.827.827,0,0,1,.828.826Zm-1.656.828H30.858v3.311H34.17Z" transform="translate(248.809 2198.971)" fill="#fff"/><g transform="translate(250.688 2228.411)" opacity="0.2" style="mix-blend-mode:multiply;isolation:isolate"><g clip-path="url(#a)"><path d="M4.14,28.472A4.145,4.145,0,0,0,0,32.613V49.173a4.145,4.145,0,0,0,4.14,4.139h14.9V28.472Z" transform="translate(0 -28.472)" fill="#a74d24"/></g></g><g transform="translate(270.734 2201.77)" opacity="0.3" style="mix-blend-mode:multiply;isolation:isolate"><g clip-path="url(#a)"><path d="M25.565,0a4.145,4.145,0,0,0-4.14,4.141V20.7a4.145,4.145,0,0,0,4.14,4.139h14.9V0Z" transform="translate(-21.425)" fill="#ffdd73"/></g></g><g transform="translate(290.781 2228.411)" opacity="0.2" style="mix-blend-mode:multiply;isolation:isolate"><g clip-path="url(#a)"><path d="M46.989,28.472a4.145,4.145,0,0,0-4.14,4.141V49.173a4.145,4.145,0,0,0,4.14,4.139h14.9V28.472Z" transform="translate(-42.849 -28.472)" fill="#0079b5"/></g></g><rect width="78.18" height="51.481" transform="translate(250.688 2201.77)" fill="none"/></g></g></svg>