<svg xmlns="http://www.w3.org/2000/svg" width="106.234" height="106.234" viewBox="0 0 106.234 106.234"><g transform="translate(-252 -2447)"><circle cx="53.117" cy="53.117" r="53.117" transform="translate(252 2447)" fill="#fff"/><g transform="translate(240.99 2465.676)"><path d="M17.552,22.413V57.1a5.928,5.928,0,0,0,4.886,5.863h0a8.924,8.924,0,0,0,1.466.489H51.751A6.335,6.335,0,0,0,58.1,57.1V22.413a6.308,6.308,0,0,0-4.886-6.351V12.154c0-.7-.762-.977-1.466-.977s-1.466.274-1.466.977H24.88c0-.7-.274-.977-.977-.977s-1.466.274-1.466.977v3.908a6.308,6.308,0,0,0-4.886,6.351" transform="translate(28.919 0.549)" fill="#eee8e6"/><path d="M22.442,16.066V12.158c0-.706.76-.977,1.466-.977s.977.271.977.977h5.374v3.908a6.744,6.744,0,0,0-5.374,6.351V57.1a6.338,6.338,0,0,0,6.351,6.351H23.908A6.337,6.337,0,0,1,17.557,57.1V22.417a6.315,6.315,0,0,1,4.886-6.351" transform="translate(28.914 0.545)" fill="#e0d2c9"/><path d="M20.684,0H53.906a1.623,1.623,0,0,1,1.466,1.466V12.7a1.623,1.623,0,0,1-1.466,1.466H20.684c-.706,0-.977-.76-.977-1.466V1.465c0-.706.271-1.466.977-1.466" transform="translate(29.206 0)" fill="#585766"/><rect width="59.115" height="64.001" transform="translate(27.905)" fill="none"/><path d="M20.684,0h5.374a1.621,1.621,0,0,0-1.466,1.466V8.794H53.906c.7,0,1.466-.274,1.466-.977V12.7a1.623,1.623,0,0,1-1.466,1.466H20.684c-.706,0-.977-.76-.977-1.466V1.465c0-.706.271-1.466.977-1.466" transform="translate(29.206 0)" fill="#262626"/><rect width="35.665" height="14.168" transform="translate(48.913)" fill="none"/><path d="M18.532,13.624h38.6c.7,0,.977-.761.977-1.466s-.273-.977-.977-.977h-38.6c-.706,0-.977.269-.977.977s.271,1.466.977,1.466" transform="translate(28.916 0.544)" fill="#8c8ba4"/><rect width="59.115" height="64.001" transform="translate(27.905)" fill="none"/><path d="M18.532,11.18h5.374c-.707,0-1.466.271-1.466.977a1.619,1.619,0,0,0,1.466,1.466H18.532c-.706,0-.977-.758-.977-1.466s.271-.977.977-.977" transform="translate(28.916 0.545)" fill="#4c4c59"/><rect width="6.351" height="2.443" transform="translate(46.47 11.725)" fill="none"/><rect width="40.55" height="25.405" transform="translate(46.47 27.359)" fill="#f48120"/><rect width="7.328" height="25.405" transform="translate(46.47 27.359)" fill="#a74d24"/><path d="M30.33,31.79c.78-.161,7.257-1.541,10.26,1.466,2.96,2.959,2.938,9.029,2.931,9.283-.014.571-.422.834-.977.977a11.814,11.814,0,0,1-3.42.489c-1.953,0-4.319-.41-5.863-1.954-2.845-2.845-4.348-8.547-4.4-8.794-.137-.688.778-1.324,1.466-1.466" transform="translate(30.308 2.409)" fill="#f6f0ed"/><path d="M30.33,32.084a10.488,10.488,0,0,0,1.466,0c.426,1.724,1.646,5.553,3.908,7.817,1.544,1.544,3.911,1.954,5.863,1.954a16.871,16.871,0,0,0,1.954,0,8.762,8.762,0,0,1,0,.977c-.014.571-.422.834-.977.977a11.814,11.814,0,0,1-3.42.489c-1.953,0-4.319-.41-5.863-1.954-2.845-2.845-4.348-8.547-4.4-8.794-.137-.688.778-1.324,1.466-1.466" transform="translate(30.308 2.115)" fill="#e0d2c9"/><path d="M28.088,48.89h.977a12.59,12.59,0,0,1,0,1.466,9.181,9.181,0,0,1-3.42,7.328c-.13-.15.116-.325,0-.489a8.782,8.782,0,0,0,2.443-6.84,13.083,13.083,0,0,0,0-1.466" transform="translate(29.619 3.874)" fill="#b2b1b2"/><path d="M25.849,56.776c.115.161-.13.338,0,.489a7.793,7.793,0,0,1-3.908,1.954c-.128-.029-.363.035-.489,0a9.582,9.582,0,0,0,4.4-2.443" transform="translate(29.415 4.293)" fill="#aca6a3"/><path d="M24.011,43.934c2.339,1.289,4.37,3.124,4.886,5.863h-.977a8.588,8.588,0,0,0-3.908-5.374Z" transform="translate(29.788 2.967)" fill="#b87b45"/><path d="M19.853,42.195a9.4,9.4,0,0,1,4.4,1.466v.489a9.728,9.728,0,0,0-4.886-1.954c.133-.005.356,0,.489,0" transform="translate(29.549 3.241)" fill="#875638"/><path d="M11.1,51.961a8.608,8.608,0,0,0,3.42,6.84,9.337,9.337,0,0,0,5.863,1.954A9.3,9.3,0,1,0,19.4,42.19a9.158,9.158,0,0,0-4.886,1.954,8.838,8.838,0,0,0-3.42,7.817" transform="translate(28.533 3.246)" fill="#ececec"/><path d="M11.617,52.014a7.7,7.7,0,0,0,7.328,7.328c.088.005.4,0,.489,0,.186.006.3.01.489,0s.3.024.489,0c.088-.011.4.015.489,0a7.824,7.824,0,0,0,6.351-8.305,7.7,7.7,0,0,0-7.328-7.328c-.088-.005.089,0,0,0-.186,0-.3-.01-.489,0s-.793-.023-.977,0c-.089.012.087-.013,0,0a8.219,8.219,0,0,0-6.84,8.305" transform="translate(28.991 3.193)" fill="#fff"/><path d="M18.224,43.707l.489,15.634c.086.005.4,0,.489,0,.188,0,.3.01.489,0s.3.021.489,0c.088-.011.4.014.489,0l-.977-15.634c-.089-.005.089,0,0,0-.186,0-.3-.01-.489,0s-.792-.025-.977,0c-.089.011.086-.014,0,0" transform="translate(29.224 3.195)" fill="#ddded9"/><path d="M14.53,44.247a9.122,9.122,0,0,1,.977.977,7.694,7.694,0,0,0-3.42,6.84,7.29,7.29,0,0,0,3.42,5.863,9.123,9.123,0,0,1-.977.977,8.61,8.61,0,0,1-3.42-6.84c-.008-.15,0-.341,0-.489a8.721,8.721,0,0,1,3.42-7.328" transform="translate(28.521 3.144)" fill="#b2b4b6"/><path d="M15.037,45.251h0a8.88,8.88,0,0,1,2.931,5.863,9.059,9.059,0,0,1-2.931,6.84h0a7.3,7.3,0,0,1-3.42-5.863,7.691,7.691,0,0,1,3.42-6.84" transform="translate(28.991 3.117)" fill="#bbbdbf"/><path d="M-.095,52.857c.709,5,5.257,8.036,10.26,7.328A9.12,9.12,0,1,0,7.722,42.109,9.58,9.58,0,0,0-.095,52.857" transform="translate(28 3.327)" fill="#ececec"/><path d="M1.432,52.5a7.732,7.732,0,0,0,7.817,6.84c.088,0,.4.005.489,0,.185-.013.3.026.489,0s.307.04.489,0c.088-.018.4-.467.489-.489a7.447,7.447,0,0,0,5.863-8.305A8.218,8.218,0,0,0,8.76,43.7c-.087,0,.089-.006,0,0-.186.013-.791-.027-.977,0s-.307-.04-.489,0c-.087.018.085-.02,0,0A7.965,7.965,0,0,0,1.432,52.5" transform="translate(27.939 3.198)" fill="#fff"/><path d="M6.89,43.7,8.845,59.33c.088,0,.4.006.489,0,.187-.011.3.027.489,0s.307.041.489,0c.088-.019.4-.467.489-.489L8.356,43.7c-.088,0,.089-.006,0,0-.185.012-.79-.026-.977,0s-.307-.041-.489,0c-.087.019.085-.023,0,0" transform="translate(28.343 3.206)" fill="#ddded9"/></g></g></svg>