<svg xmlns="http://www.w3.org/2000/svg" width="30.954" height="26.116" viewBox="0 0 30.954 26.116"><defs><style>.a{fill:#00a99f;opacity:0.2;}</style></defs><path class="a" d="M-1.522-39.145c0-3.116-2.375-5.348-5.683-5.348.613-5.123,7.571-9.114,7.571-9.114L-2.91-58.485s-12.137,5.847-12.137,19.149c0,4.536,2.846,6.966,6.352,6.966,4.288,0,7.174-2.862,7.174-6.776Zm15.54,0c0-3.116-2.375-5.348-5.683-5.348.613-5.123,7.571-9.114,7.571-9.114L12.63-58.486S.493-52.639.493-39.337c0,4.536,2.846,6.966,6.353,6.966,4.288,0,7.174-2.862,7.174-6.776Z" transform="translate(15.048 58.486)"/></svg>