<svg id="Layer_1" data-name="Layer 1" xmlns="http://www.w3.org/2000/svg" xmlns:xlink="http://www.w3.org/1999/xlink" viewBox="0 0 2305.54 503.41"><g style="clip-path:url(#clip-path)"><g style="clip-path:url(#clip-path-2)"><path d="M569.09,292.88q-5,32.5-21.8,50-19.39,20.3-54.55,20.29-38.57,0-63.64-27.22T404,265.29q0-41.09,23.31-70.19,24.45-30.48,61.87-30.49,38.93,0,59.09,21.8,17.64,18.9,20.79,53.8l-46.62,2.39q0-17.13-7.06-28.22-8.31-13.09-24.44-13.1-20.28,0-28.48,16.76-7.19,14.73-7.18,48,0,26.83,7.94,42.46,9.19,18.27,28.1,18.27a31,31,0,0,0,24.13-10.64A36.83,36.83,0,0,0,525,290.74Z" transform="translate(-4.5 -11.63)" style="fill:#a23437"/><path d="M751.53,263.9q0,26.46-8.31,48-9.19,23.93-26.46,37.17-19.15,14.73-46.5,14.74-40.32,0-63.37-31.37-20.67-28.11-20.67-69.81,0-39.81,22.93-67.79Q633.6,165,672.41,165q26.7,0,45.36,14.62,16.88,13.23,25.7,36.79,8.07,21.42,8.06,47.5m-47.37-1.64a142.44,142.44,0,0,0-2.27-27.46q-3-15-9.83-22.94-8.19-9.57-22-9.57A28.3,28.3,0,0,0,647.08,213q-7.19,8.82-10.58,24.57A132.05,132.05,0,0,0,633.85,265a121,121,0,0,0,2.9,27.47q3.64,15.63,11,24.32a28.39,28.39,0,0,0,22.68,10.58q13.86,0,21.92-10.46,6.68-8.55,9.58-25.07a170.66,170.66,0,0,0,2.27-29.61" transform="translate(-4.5 -11.63)" style="fill:#a23437"/><polygon points="923.34 349.17 885.03 349.17 811.58 219.89 811.58 349.17 775.67 349.17 775.67 155.38 824.43 155.38 888.31 268.65 888.31 155.38 923.34 155.38 923.34 349.17" style="fill:#a23437"/><polygon points="1109.42 349.17 1071.12 349.17 997.66 219.89 997.66 349.17 961.75 349.17 961.75 155.38 1010.51 155.38 1074.39 268.65 1074.39 155.38 1109.42 155.38 1109.42 349.17" style="fill:#a23437"/><path d="M1306.45,263.9q0,26.46-8.31,48-9.2,23.93-26.46,37.17-19.15,14.73-46.5,14.74-40.32,0-63.37-31.37-20.67-28.11-20.66-69.81,0-39.81,22.92-67.79Q1188.52,165,1227.33,165q26.7,0,45.36,14.62,16.88,13.23,25.7,36.79,8.07,21.42,8.06,47.5m-47.37-1.64a142.44,142.44,0,0,0-2.27-27.46q-3-15-9.83-22.94-8.19-9.57-22-9.57A28.3,28.3,0,0,0,1202,213q-7.18,8.82-10.58,24.57a132.05,132.05,0,0,0-2.65,27.46,121.56,121.56,0,0,0,2.9,27.47q3.64,15.63,11,24.32a28.39,28.39,0,0,0,22.68,10.58q13.86,0,21.93-10.46,6.66-8.55,9.57-25.07a170.66,170.66,0,0,0,2.27-29.61" transform="translate(-4.5 -11.63)" style="fill:#a23437"/><path d="M1494.34,360.79h-51.41l-29.23-79.13h-32.76v79.13h-45.48V167l92.1.12q31.13,0,48.26,16.38,16,15.26,16,40.32,0,17.78-8.51,30.87t-24.75,20.67Zm-49.9-136q0-11.72-8.12-18.33t-22.87-6.62h-32.51v50.53h34.9q12.72,0,20.66-6.93t7.94-18.65" transform="translate(-4.5 -11.63)" style="fill:#a23437"/><path d="M1599,306.74q0,31.38-18.4,45.87-14.73,11.58-39.43,11.59-5.93,0-19.15-1.39t-15.5-2.27V323.25l7.43.88c2.94.42,5.76.76,8.44,1s5,.37,7.06.37H1532a9.6,9.6,0,0,1,1.51-.25q12.11-1.26,15.75-8.31t3.65-28V167h45.87Z" transform="translate(-4.5 -11.63)" style="fill:#b9baba"/><path d="M1790.82,263.9q0,26.46-8.32,48-9.2,23.93-26.46,37.17-19.15,14.73-46.49,14.74-40.32,0-63.38-31.37-20.67-28.11-20.66-69.81,0-39.81,22.93-67.79Q1672.88,165,1711.69,165q26.71,0,45.36,14.62,16.88,13.23,25.7,36.79,8.07,21.42,8.07,47.5m-47.38-1.64a141.64,141.64,0,0,0-2.27-27.46q-3-15-9.82-22.94-8.2-9.57-22.06-9.57A28.32,28.32,0,0,0,1686.36,213q-7.17,8.82-10.58,24.57a132.74,132.74,0,0,0-2.65,27.46,121.56,121.56,0,0,0,2.9,27.47q3.66,15.63,11,24.32a28.4,28.4,0,0,0,22.68,10.58q13.86,0,21.93-10.46,6.68-8.55,9.57-25.07a169.68,169.68,0,0,0,2.27-29.61" transform="translate(-4.5 -11.63)" style="fill:#b9baba"/><polygon points="1961.3 349.17 1922.99 349.17 1849.53 219.89 1849.53 349.17 1813.63 349.17 1813.63 155.38 1862.39 155.38 1926.27 268.65 1926.27 155.38 1961.3 155.38 1961.3 349.17" style="fill:#b9baba"/><polygon points="2139.73 349.17 2001.77 349.17 2001.77 155.38 2139.73 155.38 2139.73 194.19 2047.13 194.19 2047.13 232.75 2119.45 232.75 2119.45 270.04 2046.37 270.04 2046.37 310.36 2139.73 310.36 2139.73 349.17" style="fill:#b9baba"/><path d="M2310,298.3q0,29-23.94,47.63-23.18,18-57.7,18-32,0-51.67-14.23-17.64-12.73-25.44-36.8l-1.14-3.15,42.21-10.45,1.51,4.91q2.14,7.06,9.32,13.48a32.59,32.59,0,0,0,17.39,8.45,93.53,93.53,0,0,0,11.47.75q14.49,0,22.81-5.29t8.31-13.74q0-6-4.66-12.6-3.66-5-15-8.31-5.3-1.51-21-4.35t-22-5.35q-16.51-6.81-24.44-13.49a41.55,41.55,0,0,1-13.87-22.67,76.5,76.5,0,0,1-2.26-17.77q0-27.6,20.91-44.6,19.9-16.26,49.52-16.26,29.23,0,46.24,9.7t26.46,32.38l1.39,3.28-39.19,13.23-1.26-3.65q-3.15-9.19-13.1-14.62a41.44,41.44,0,0,0-20-4.91,36.3,36.3,0,0,0-16.63,3.65,17.51,17.51,0,0,0-9.32,10.58,18.58,18.58,0,0,0-.76,5q0,8.19,10.21,13.49,7.44,3.9,20,6.17l13.86,2q18.27,3.64,29.74,9.19,15.12,7.18,22.93,18.28,9.08,12.84,9.07,32" transform="translate(-4.5 -11.63)" style="fill:#b9baba"/><polygon points="264.87 21.1 264.87 192.08 112.44 280.09 112.44 322.29 301.41 213.18 301.41 0 264.87 21.1" style="fill:#848686"/><polygon points="223.82 44.8 223.82 168.39 112.44 232.69 112.44 271.88 257.75 187.98 257.75 25.21 223.82 44.8" style="fill:#b9baba"/><polygon points="304.39 349.01 192.48 413.62 77.77 347.39 77.77 214.94 192.48 148.71 192.48 112.54 46.44 196.85 46.44 365.48 192.48 449.79 335.71 367.09 304.39 349.01" style="fill:#b9baba"/><polygon points="342.24 370.86 192.47 457.32 39.92 369.25 39.92 193.09 192.47 105 192.47 58.91 0 170.04 0 392.29 192.47 503.41 382.15 393.9 342.24 370.86" style="fill:#a23437"/></g></g></svg>