<svg xmlns="http://www.w3.org/2000/svg" width="56" height="49" viewBox="0 0 56 49">
    <g fill="none" fill-rule="evenodd">
        <path fill="#E33E25" d="M31.779 21.58c-.154.562.28.727.729.773.534.055.685-.235.603-.717-.106-.629-.196-1.26-.292-1.888l-.356-.044c-.23.626-.507 1.237-.684 1.876m-22.92 7.293c-.14.536.28.716.745.755.515.043.7-.193.607-.698-.124-.643-.216-1.295-.321-1.943-.105-.013-.211-.022-.315-.033-.246.638-.545 1.262-.717 1.919m12.288-10.798c-.187.597.197.807.71.864.562.064.68-.288.623-.73-.085-.633-.209-1.264-.317-1.892-.115-.018-.232-.03-.345-.045-.225.598-.477 1.193-.67 1.803m3.264 17.759c-.063.225.033.613.203.749.19.155.598.225.812.124.166-.081.264-.483.247-.733-.048-.625-.177-1.242-.274-1.864-.118.004-.233.01-.349.016-.22.567-.48 1.123-.639 1.708m3.436-28.586c-.168.608.329.822.78.796.197-.01.523-.45.52-.692-.006-.629-.163-1.261-.256-1.893a24.54 24.54 0 0 0-.36-.073c-.235.62-.514 1.228-.684 1.862m-9.062 28.961c-.172.56.226.743.689.799.527.064.703-.206.625-.698-.106-.648-.196-1.302-.294-1.952-.114-.006-.226-.016-.337-.025-.23.625-.493 1.239-.683 1.876m11.75-21.285c-.19.59.206.828.705.886.623.074.676-.343.608-.81-.09-.603-.189-1.206-.285-1.81l-.36-.055c-.223.597-.476 1.183-.667 1.789m5.624 11.654c-.182.566.168.811.684.884.626.095.7-.307.644-.76-.08-.627-.206-1.248-.31-1.872l-.345-.031c-.224.592-.481 1.171-.673 1.779m-2.492 5.011c-.177.566.27.7.704.784.499.096.758-.118.686-.62-.09-.662-.216-1.318-.329-1.977l-.334-.032c-.247.614-.531 1.213-.727 1.845m-8.872-20.685c-.06.201.053.592.207.676.257.138.637.171.915.09.138-.037.26-.442.236-.662-.073-.626-.23-1.237-.353-1.858-.11-.008-.221-.015-.333-.026-.233.592-.498 1.177-.672 1.78m-4.347 18.56c-.156.579.343.758.76.715.236-.02.626-.388.616-.59-.026-.663-.2-1.315-.32-1.973-.12-.011-.24-.024-.362-.03-.235.623-.522 1.236-.694 1.879m2.92-7.075c-.169.558.255.72.707.791.51.075.752-.155.68-.657-.1-.666-.227-1.327-.339-1.988-.11-.01-.217-.016-.324-.025-.248.623-.532 1.239-.724 1.879m3.97-3.91c-.173.564.269.707.71.78.507.086.75-.135.68-.638-.091-.663-.214-1.322-.326-1.98-.11-.008-.223-.012-.334-.02-.248.617-.538 1.223-.73 1.858m3.387 18.528c-.067.231-.018.638.14.754.225.162.627.232.89.149.148-.05.255-.495.233-.752-.046-.602-.179-1.195-.278-1.796l-.339-.036c-.22.56-.483 1.108-.646 1.68m-11.66-12.856c-.046.221.365.668.664.786.452.177.752-.107.686-.616-.094-.669-.215-1.336-.325-1.998-.11-.013-.216-.023-.325-.035-.249.616-.58 1.22-.7 1.863m10.972 2.55c-.057.212.1.596.285.727.202.14.614.184.813.067.169-.103.245-.498.222-.748-.058-.599-.199-1.186-.306-1.778l-.334-.044c-.235.59-.514 1.168-.68 1.777m-4.7.824c-.028.15.493.491.806.577.126.037.553-.39.542-.588-.034-.679-.203-1.348-.32-2.023-.121-.018-.244-.031-.366-.05-.236.693-.529 1.371-.661 2.084m14.188 4.941c-.038.173.422.532.724.656.112.046.59-.313.584-.483-.016-.709-.152-1.42-.245-2.126-.118-.016-.235-.03-.35-.05-.254.666-.569 1.318-.713 2.003m-25.915-6.622c-.037.193.472.533.786.693.075.035.568-.403.558-.615-.028-.669-.2-1.332-.315-2.001l-.335-.04c-.248.652-.568 1.288-.694 1.963m14.696 6.01c-.065.222.033.607.202.744.196.155.6.232.818.132.178-.082.314-.48.288-.72-.065-.633-.225-1.25-.351-1.873-.1.001-.2.005-.3.007-.226.57-.495 1.124-.657 1.71m-13.61.828c-.062.232.019.639.185.76.227.16.637.223.894.126.16-.062.278-.497.25-.743-.07-.61-.237-1.207-.365-1.81l-.329.045c-.219.54-.481 1.068-.635 1.622m1.465-12.847c-.063.226.027.61.194.755.193.161.6.251.818.159.178-.08.323-.483.304-.72-.057-.629-.21-1.246-.322-1.87-.111-.01-.222-.016-.329-.028-.23.565-.495 1.12-.665 1.704M30.092.706c3.581 6.706 7.157 13.415 10.736 20.12 1.737 3.262 3.48 6.525 5.208 9.79.183.35.417.636-.04 1.079-3.789 3.632-8.041 6.538-13.066 8.216-6.54 2.18-12.974 2.076-19.2-1.141-4.92-2.543-8.35-6.528-11.144-11.162-.376-.624.03-.854.356-1.177C11.63 17.828 20.322 9.225 29.008.621c.189-.184.39-.358.669-.621.178.297.306.498.415.707"/>
        <path fill="#BF3B25" d="M30.435 0c1.105 2.162 2.102 4.128 3.105 6.09 4.337 8.472 8.671 16.949 13.032 25.409.176.348.58.685.944.8 1.945.62 3.912 1.166 6.05 1.788-.152-.38-.232-.65-.356-.891C48.046 23.1 42.871 13.011 37.73 2.904c-.352-.684-.783-1.037-1.5-1.227-1.877-.5-3.734-1.076-5.795-1.677"/>
        <path fill="#92C845" d="M48.696 34.83c-.408-.775-.788-1.49-1.19-2.255-1.316 1.136-2.514 2.242-3.785 3.26-4.23 3.392-8.916 5.864-14.295 6.79-8.145 1.405-15.3-.67-21.365-6.365-2.323-2.18-4.181-4.728-5.726-7.512-.116-.204-.243-.403-.453-.748-.65.652-1.263 1.225-1.81 1.85-.118.137-.078.532.027.729 3.924 7.16 9.373 12.575 17.417 14.75 6.435 1.738 12.734.978 18.806-1.723 4.573-2.032 8.542-4.94 12.105-8.444.083-.082.15-.186.269-.332"/>
        <path fill="#2A963E" d="M19.478 46.41c15.094 5.937 27.14-.6 35.305-9.209-2.18-.649-4.305-1.299-6.448-1.888-.221-.058-.596.189-.804.397-4.143 4.144-8.797 7.459-14.288 9.397-4.266 1.508-8.63 2.06-13.108 1.304-.147-.022-.294-.001-.657-.001"/>
        <path fill="#306F30" d="M47.478 32.87c.508 1.042.837 1.775 1.225 2.473.11.201.363.37.584.44 2.146.663 4.299 1.306 6.456 1.95.085.022.186-.025.257-.035-.427-1.806-1.426-2.884-3.203-3.265-1.704-.366-3.364-.978-5.319-1.563"/>
        <path fill="#FFF" d="M16.45 18.26c-.21.519-.452 1.028-.605 1.564-.058.207.024.559.175.693.176.147.546.23.745.144.162-.072.294-.442.277-.66-.051-.576-.191-1.142-.293-1.714-.102-.01-.202-.015-.3-.026M15.197 31.695c-.197.505-.433 1-.568 1.52-.06.214.014.598.164.71.203.15.573.21.804.119.144-.058.25-.465.226-.696-.064-.57-.213-1.13-.33-1.696-.097.013-.198.028-.296.043M28.62 30.442c-.208.525-.453 1.037-.602 1.578-.059.204.03.56.185.686.179.143.549.214.748.122.162-.076.287-.442.264-.665-.057-.584-.206-1.153-.322-1.728-.091.001-.183.005-.274.007M14.021 24.348c-.224.597-.514 1.18-.628 1.797-.033.178.426.49.713.636.066.033.512-.369.503-.564-.025-.612-.181-1.22-.285-1.832l-.303-.037M40.838 30.435c-.236.609-.528 1.204-.662 1.83-.035.159.392.487.673.6.104.043.546-.285.542-.441-.015-.648-.14-1.299-.228-1.944-.11-.015-.218-.027-.325-.045M26.163 25.565c-.212.633-.476 1.254-.597 1.904-.026.139.445.45.728.529.114.034.499-.356.488-.538-.03-.62-.183-1.233-.289-1.85-.109-.016-.22-.029-.33-.045M31.066 25.565c-.215.544-.47 1.079-.62 1.64-.052.195.092.55.259.671.183.128.56.17.742.062.153-.095.223-.46.201-.691-.052-.553-.18-1.095-.278-1.641l-.304-.04M20.107 23.13c-.221.555-.518 1.1-.626 1.68-.04.199.331.602.594.708.403.159.672-.097.612-.554-.083-.604-.191-1.2-.29-1.801a11.484 11.484 0 0 0-.29-.033M31.07 35.304c-.208.522-.452 1.03-.608 1.563-.062.215-.017.593.13.7.213.152.591.217.839.139.139-.045.24-.46.218-.698-.043-.56-.168-1.111-.261-1.67-.103-.01-.213-.02-.318-.034M27.432 17.043c-.21.566-.455 1.12-.617 1.703-.147.516.227.648.6.715.43.08.635-.124.575-.585-.077-.608-.18-1.21-.274-1.815-.095-.007-.19-.01-.284-.018M23.775 20.696c-.21.565-.446 1.124-.612 1.705-.144.506.215.654.599.716.43.07.637-.138.575-.594-.084-.602-.192-1.205-.288-1.804-.092-.009-.182-.015-.274-.023M21.323 28c-.205.584-.456 1.158-.602 1.76-.134.541.296.71.66.67.203-.02.541-.365.532-.554-.022-.62-.174-1.23-.276-1.847-.105-.01-.208-.022-.314-.029M24.957 9.74c-.206.556-.44 1.105-.595 1.673-.053.189.047.557.184.635.226.13.562.161.808.085.123-.036.23-.416.209-.623-.064-.588-.203-1.162-.313-1.747-.097-.007-.195-.014-.293-.024M34.735 30.435c-.209.564-.45 1.114-.614 1.694-.15.52.228.643.594.72.422.087.64-.108.58-.57-.076-.607-.183-1.21-.278-1.815l-.282-.03M37.152 25.565c-.196.539-.42 1.066-.588 1.616-.159.517.147.74.598.806.546.087.615-.28.562-.691-.07-.57-.18-1.135-.27-1.702l-.302-.029M31.065 13.391c-.197.541-.42 1.073-.587 1.623-.168.536.18.751.619.804.548.067.595-.313.535-.735-.079-.546-.166-1.094-.251-1.643-.105-.015-.21-.032-.316-.049M18.903 35.304c-.204.567-.437 1.125-.606 1.702-.152.507.2.674.61.725.47.058.625-.186.556-.633-.094-.588-.174-1.18-.263-1.77-.1-.006-.199-.016-.297-.024M28.656 4.87c-.214.566-.47 1.123-.626 1.703-.152.557.302.752.714.73.179-.01.476-.413.473-.634-.005-.58-.146-1.155-.232-1.733a22.34 22.34 0 0 0-.33-.066M24.972 34.102c-.21.522-.455 1.034-.606 1.573-.06.208.032.564.192.69.18.143.567.207.77.111.158-.072.25-.442.236-.672-.047-.576-.168-1.144-.261-1.717l-.331.015M21.324 17.043c-.197.545-.417 1.087-.586 1.642-.164.543.171.732.62.786.49.059.594-.262.544-.662-.074-.576-.183-1.153-.277-1.727-.1-.013-.201-.025-.301-.039M9.167 26.783c-.213.58-.472 1.147-.622 1.746-.12.485.244.649.649.684.445.04.606-.175.525-.635-.108-.584-.188-1.177-.279-1.766-.09-.011-.182-.02-.273-.03M32.281 19.478c-.202.574-.446 1.135-.601 1.72-.135.515.245.667.641.709.469.05.602-.215.53-.657-.094-.577-.172-1.155-.257-1.73l-.313-.042"/>
    </g>
</svg>
