<svg width="40" height="40" viewBox="0 0 40 40" fill="none" xmlns="http://www.w3.org/2000/svg">
<g clip-path="url(#clip0)">
<path d="M36.101 37.8366H3.89893C2.49167 37.8366 1.23139 37.109 0.527754 35.8902C-0.175879 34.6715 -0.175957 33.2163 0.527754 31.9976L16.6288 4.10967C17.3325 2.89089 18.5927 2.16333 20 2.16333C21.4072 2.16333 22.6675 2.89096 23.3711 4.10967L39.4722 31.9975C40.1759 33.2163 40.1758 34.6715 39.4722 35.8902C38.7686 37.109 37.5084 37.8366 36.101 37.8366ZM2.56547 33.174C2.16436 33.8688 2.4319 34.4822 2.56547 34.7137C2.69912 34.9451 3.09655 35.4835 3.89893 35.4835H36.1011C36.9034 35.4835 37.3009 34.9451 37.4345 34.7137C37.5681 34.4822 37.8357 33.8688 37.4345 33.174L21.3334 5.28619C20.9322 4.59134 20.2672 4.51635 20 4.51635C19.7327 4.51635 19.0677 4.59142 18.6665 5.28619L2.56547 33.174Z" fill="white"/>
<path d="M20.0001 24.1142C18.3028 24.1142 16.8773 22.7881 16.7546 21.0953L16.7533 21.0747L16.4004 14.6381C16.3317 13.6458 16.6803 12.6598 17.358 11.9312C18.0382 11.1999 19.0013 10.7804 20.0001 10.7804C20.999 10.7804 21.962 11.1999 22.6422 11.9312C23.3199 12.6598 23.6686 13.6458 23.5998 14.6381L23.2456 21.0953C23.123 22.7881 21.6974 24.1142 20.0001 24.1142ZM19.1021 20.9335C19.1401 21.3983 19.533 21.7611 20.0001 21.7611C20.4673 21.7611 20.8601 21.3983 20.8981 20.9335L21.2522 14.4794C21.2776 14.1278 21.1594 13.7919 20.9194 13.5337C20.6791 13.2755 20.3527 13.1334 20.0001 13.1334C19.6476 13.1334 19.3211 13.2756 19.0809 13.5337C18.8407 13.792 18.7226 14.1278 18.7481 14.4794L18.7494 14.5001L19.1021 20.9335Z" fill="white"/>
<path d="M20.0001 33.2649C18.025 33.2649 16.4182 31.6581 16.4182 29.683C16.4182 27.708 18.025 26.1012 20.0001 26.1012C21.9751 26.1012 23.5819 27.708 23.5819 29.683C23.5819 31.6581 21.9751 33.2649 20.0001 33.2649ZM20.0001 28.4543C19.3225 28.4543 18.7712 29.0055 18.7712 29.6831C18.7712 30.3607 19.3225 30.912 20.0001 30.912C20.6777 30.912 21.2289 30.3607 21.2289 29.6831C21.2289 29.0055 20.6777 28.4543 20.0001 28.4543Z" fill="white"/>
</g>
<defs>
<clipPath id="clip0">
<rect width="40" height="40" fill="white"/>
</clipPath>
</defs>
</svg>
