<svg width="112px" height="120px" viewBox="0 0 112 120" version="1.1" xmlns="http://www.w3.org/2000/svg" xmlns:xlink="http://www.w3.org/1999/xlink">
    <defs>
        <path d="M60.7703281,0 C70.3566813,0 78.7446146,1.25533695 85.9343795,3.7660485 C93.1241444,6.27676006 98.6590391,9.81452782 102.53923,14.3794579 C106.41942,18.944388 108.359486,24.2510397 108.359486,30.299572 C108.359486,36.2339812 106.533542,41.5406328 102.881598,46.2196862 C99.2296536,50.8987395 94.3224274,54.1512034 88.1597718,55.9771755 C95.3495367,57.574901 101.112674,61.1411991 105.449358,66.6761769 C109.786042,72.2111546 111.954351,78.7446128 111.954351,86.2767475 C111.954351,93.0100194 109.957224,98.9443395 105.96291,104.079886 C101.968596,109.215432 96.3481104,113.152625 89.1012839,115.891583 C81.8544573,118.630542 73.380933,120 63.6804565,120 L0,120 L0,0 L60.7703281,0 Z M58.5449358,46.2196862 C61.2838939,46.2196862 63.4807335,45.4208354 65.1355207,43.8231098 C66.7903078,42.2253843 67.617689,40.1141358 67.617689,37.489301 C67.617689,34.9785894 66.7903078,32.9529321 65.1355207,31.4122682 C63.4807335,29.8716043 61.2838939,29.1012839 58.5449358,29.1012839 L39.5435093,29.1012839 L39.5435093,46.2196862 L58.5449358,46.2196862 Z M58.5449358,90.8987161 C62.1968799,90.8987161 65.1355096,90.0142742 67.360913,88.2453638 C69.5863164,86.4764534 70.6990014,84.1654922 70.6990014,81.3124108 C70.6990014,78.687576 69.5863164,76.5763275 67.360913,74.978602 C65.1355096,73.3808765 62.1968799,72.5820257 58.5449358,72.5820257 L39.5435093,72.5820257 L39.5435093,90.8987161 L58.5449358,90.8987161 Z" id="bpath-1"></path>
        <path d="M60.7703281,0 C70.3566813,0 78.7446146,1.25533695 85.9343795,3.7660485 C93.1241444,6.27676006 98.6590391,9.81452782 102.53923,14.3794579 C106.41942,18.944388 108.359486,24.2510397 108.359486,30.299572 C108.359486,36.2339812 106.533542,41.5406328 102.881598,46.2196862 C99.2296536,50.8987395 94.3224274,54.1512034 88.1597718,55.9771755 C95.3495367,57.574901 101.112674,61.1411991 105.449358,66.6761769 C109.786042,72.2111546 111.954351,78.7446128 111.954351,86.2767475 C111.954351,93.0100194 109.957224,98.9443395 105.96291,104.079886 C101.968596,109.215432 96.3481104,113.152625 89.1012839,115.891583 C81.8544573,118.630542 73.380933,120 63.6804565,120 L0,120 L0,0 L60.7703281,0 Z M58.5449358,46.2196862 C61.2838939,46.2196862 63.4807335,45.4208354 65.1355207,43.8231098 C66.7903078,42.2253843 67.617689,40.1141358 67.617689,37.489301 C67.617689,34.9785894 66.7903078,32.9529321 65.1355207,31.4122682 C63.4807335,29.8716043 61.2838939,29.1012839 58.5449358,29.1012839 L39.5435093,29.1012839 L39.5435093,46.2196862 L58.5449358,46.2196862 Z M58.5449358,90.8987161 C62.1968799,90.8987161 65.1355096,90.0142742 67.360913,88.2453638 C69.5863164,86.4764534 70.6990014,84.1654922 70.6990014,81.3124108 C70.6990014,78.687576 69.5863164,76.5763275 67.360913,74.978602 C65.1355096,73.3808765 62.1968799,72.5820257 58.5449358,72.5820257 L39.5435093,72.5820257 L39.5435093,90.8987161 L58.5449358,90.8987161 Z" id="bpath-3"></path>
    </defs>
    <g id="bPage-1" stroke="none" stroke-width="1" fill="none" fill-rule="evenodd">
        <g id="b1.2-CG_Connecting-Dots_Home-Second-Fold" transform="translate(-836.000000, -250.000000)">
            <g id="bBitmap" transform="translate(836.000000, 250.000000)">
                <mask id="bmask-2" fill="white">
                    <use xlink:href="#bpath-1"></use>
                </mask>
                <use id="bMask" fill="#FFDDD5" xlink:href="#bpath-1"></use>
                <image style="mix-blend-mode: luminosity;" mask="url(#bmask-2)" x="-466" y="-319" width="782" height="522" xlink:href="../../dist/images/mask_image.png"></image>
                <mask id="bmask-4" fill="white">
                    <use xlink:href="#bpath-3"></use>
                </mask>
                <use id="bMask" fill="#FFDDD5" style="mix-blend-mode: multiply;" xlink:href="#bpath-3"></use>
            </g>
        </g>
    </g>
</svg>