<svg xmlns="http://www.w3.org/2000/svg" width="75" height="70" viewBox="0 0 75 70">
    <g fill="none" fill-rule="evenodd" stroke="#FFF" stroke-linecap="round" stroke-linejoin="round" stroke-width="3">
        <path d="M21.049 15.747v-7.11a6.288 6.288 0 0 1 6.287-6.288h39.852a6.288 6.288 0 0 1 6.288 6.288v25.871a6.288 6.288 0 0 1-6.288 6.288h-4.897l.175 14.371-6.91-8.482"/>
        <path d="M48.489 55.167H25.593L15.63 68.1l-.175-12.932H8.637A6.288 6.288 0 0 1 2.35 48.88V23.009a6.288 6.288 0 0 1 6.287-6.288H48.49a6.288 6.288 0 0 1 6.288 6.288v25.87a6.288 6.288 0 0 1-6.288 6.288zM30.486 35.392H14.058M43.767 27.515H13.883M37.214 43.27H14.058"/>
    </g>
</svg>
