<svg xmlns="http://www.w3.org/2000/svg" width="74" height="70" viewBox="0 0 74 70">
    <g fill="none" fill-rule="evenodd">
        <path stroke="#FFF" stroke-linecap="round" stroke-linejoin="round" stroke-width="3" d="M18.22 29L2 68l39-16.219"/>
        <path stroke="#FFF" stroke-linecap="round" stroke-linejoin="round" stroke-width="3" d="M32.754 36.39c6.158 6.424 9.398 13.703 7.871 15.297-1.528 1.594-7.244-3.102-13.403-9.526-6.159-6.424-10.438-12.159-8.911-13.752 1.528-1.594 8.285 1.557 14.443 7.98zM8 54s4.17 5.39 2.677 10M21 35s6.155 7.405 4.807 23M13 41s2.513 2.065 4 5"/>
        <path fill="#FFF" d="M21 49.5a1.5 1.5 0 1 1-3 0 1.5 1.5 0 0 1 3 0M16 8.5a1.5 1.5 0 1 1-3 0 1.5 1.5 0 0 1 3 0M74 25.5a1.5 1.5 0 1 1-3 0 1.5 1.5 0 0 1 3 0M60 48.5a1.5 1.5 0 1 1-3 0 1.5 1.5 0 0 1 3 0M44 17.5a1.5 1.5 0 1 1-3 0 1.5 1.5 0 0 1 3 0"/>
        <path stroke="#FFF" stroke-linecap="round" stroke-linejoin="round" stroke-width="3" d="M27 35s7.41-4.596 8-21M45.5 28v6M42 30.5h6M50.5 58v6M47 60.5h6M7.5 18v6M5 21.5h6M54 29s4.33-6.721 13-4.578M36 46s4.006-3.336 12-4M68 36.5a3.5 3.5 0 1 1-7 0 3.5 3.5 0 0 1 7 0zM54 5.5a3.5 3.5 0 1 1-6.999.001A3.5 3.5 0 0 1 54 5.5z"/>
    </g>
</svg>
