<svg xmlns="http://www.w3.org/2000/svg" width="64" height="68" viewBox="0 0 64 68">
    <g fill="none" fill-rule="evenodd">
        <path stroke="#FFF" stroke-width="3" d="M50.395 9.658h7.435a3.8 3.8 0 0 1 3.8 3.8v48.696a3.8 3.8 0 0 1-3.8 3.8H6.17a3.8 3.8 0 0 1-3.8-3.8V13.458a3.8 3.8 0 0 1 3.8-3.8h7.003M24.5 9.658h15.525"/>
        <path stroke="#FFF" stroke-width="3" d="M22.37 15.704h-7.407a.74.74 0 0 1-.74-.74V3.11c0-.41.33-.74.74-.74h7.407c.41 0 .741.33.741.74v11.852a.74.74 0 0 1-.74.74zM48.913 15.704h-7.407a.741.741 0 0 1-.74-.74V3.11c0-.41.331-.74.74-.74h7.407c.41 0 .741.33.741.74v11.852a.74.74 0 0 1-.74.74zM3.543 25.982h56.296"/>
        <path fill="#FFF" d="M32 30.803a3.703 3.703 0 0 0-3.522 2.56l-1.792 5.513h-5.797a3.703 3.703 0 0 0-2.177 6.7l4.69 3.407-1.79 5.514a3.702 3.702 0 0 0 5.698 4.141L32 55.231l4.69 3.407a3.7 3.7 0 0 0 4.354 0 3.702 3.702 0 0 0 1.345-4.14l-1.791-5.515 4.69-3.407a3.703 3.703 0 0 0-2.177-6.7h-5.797l-1.792-5.513A3.703 3.703 0 0 0 32 30.803m0 3.704l2.623 8.073h8.488l-6.867 4.99 2.623 8.072L32 50.652l-6.867 4.99 2.623-8.073-6.867-4.99h8.488L32 34.508"/>
    </g>
</svg>
