<svg xmlns="http://www.w3.org/2000/svg" width="32" height="32" viewBox="0 0 32 32">
    <g fill="#562359" fill-rule="evenodd">
        <path d="M27.123 15.928a1.07 1.07 0 0 1-1.08-1.058c-.004-4.351-3.62-7.897-8.062-7.901a1.07 1.07 0 0 1-1.079-1.058 1.07 1.07 0 0 1 1.08-1.058c5.63.007 10.214 4.5 10.22 10.017a1.07 1.07 0 0 1-1.079 1.058M21.028 15.928a1.07 1.07 0 0 1-1.08-1.058c0-1.061-.883-1.927-1.967-1.929a1.07 1.07 0 0 1-1.079-1.057 1.07 1.07 0 0 1 1.08-1.058c2.272.003 4.123 1.816 4.126 4.044a1.07 1.07 0 0 1-1.08 1.058"/>
        <path d="M6.186.747c-.455 0-.902.122-1.291.354l-2.57 1.511a4.238 4.238 0 0 0-1.97 2.5c-1.427 5.098 1.452 11.199 8.55 18.156 5.902 5.785 11.254 8.718 15.905 8.718.902 0 1.779-.112 2.604-.335a4.31 4.31 0 0 0 2.576-1.95l1.538-2.511a2.411 2.411 0 0 0-.754-3.288l-6.17-4.032a2.536 2.536 0 0 0-1.382-.41c-.768 0-1.481.34-1.958.93l-1.807 2.275a.078.078 0 0 1-.064.033l-.008-.004-.033-.01-.33-.178c-1.157-.619-2.46-1.316-5.23-4.03-2.77-2.714-3.48-3.992-4.109-5.118l-.187-.334c-.018-.031-.01-.076.01-.092l2.32-1.769a2.426 2.426 0 0 0 .548-3.279L8.26 1.835A2.502 2.502 0 0 0 6.186.747m0 2.24a.21.21 0 0 1 .172.09l4.109 6.043c.06.09.04.21-.044.275l-2.305 1.758a2.282 2.282 0 0 0-.625 2.95l.184.326c.666 1.198 1.495 2.688 4.499 5.632 3.002 2.941 4.522 3.754 5.744 4.408l.33.178c.36.197.752.291 1.143.291.713 0 1.415-.315 1.87-.897l1.793-2.261a.212.212 0 0 1 .28-.047l6.17 4.033c.091.06.118.179.062.271l-1.552 2.535c-.269.45-.699.778-1.207.919a7.655 7.655 0 0 1-2 .255c-3.126 0-7.792-1.696-14.288-8.062C2.456 13.78 1.738 8.64 2.554 5.726c.146-.504.48-.926.947-1.194l2.58-1.516a.21.21 0 0 1 .105-.03"/>
    </g>
</svg>
