<svg xmlns="http://www.w3.org/2000/svg" width="36" height="36" viewBox="0 0 36 36">
    <g fill="#028283" fill-rule="evenodd">
        <path fill-rule="nonzero" d="M18 35.877C8.154 35.877.123 27.877.123 18 .123 8.123 8.123.154 18 .154c9.877 0 17.846 8 17.846 17.846s-8 17.877-17.846 17.877zm0-33.23C9.538 2.646 2.646 9.537 2.646 18S9.538 33.354 18 33.354 33.354 26.462 33.354 18 26.462 2.646 18 2.646z"/>
        <path d="M16.308 26.923c-.246.246-.554.37-.893.37a1.263 1.263 0 0 1-.892-2.154l7.23-7.231-7.23-7.231a1.263 1.263 0 0 1 1.785-1.785l8.123 8.123c.246.247.369.554.369.893 0 .338-.123.646-.37.892l-8.122 8.123z"/>
    </g>
</svg>
