<svg xmlns="http://www.w3.org/2000/svg" width="86" height="39" viewBox="0 0 86 39">
    <g fill="none" fill-rule="evenodd" transform="translate(1)">
        <circle cx="65.5" cy="19.5" r="19.5" fill="#60576E" opacity=".473"/>
        <path stroke="#562359" stroke-width="2" d="M0 36l5.611-4.011a5 5 0 0 1 5.815 0l4.487 3.207a5 5 0 0 0 5.816 0l4.898-3.501a5 5 0 0 1 5.815 0l4.218 3.015a5 5 0 0 0 5.816 0l4.492-3.212a5 5 0 0 1 5.559-.171L60 36M0 28l5.611-4.011a5 5 0 0 1 5.815 0l4.487 3.207a5 5 0 0 0 5.816 0l4.898-3.501a5 5 0 0 1 5.815 0l4.218 3.015a5 5 0 0 0 5.816 0l4.492-3.212a5 5 0 0 1 5.559-.171L60 28M0 20l5.611-4.011a5 5 0 0 1 5.815 0l4.487 3.207a5 5 0 0 0 5.816 0l4.898-3.501a5 5 0 0 1 5.815 0l4.218 3.015a5 5 0 0 0 5.816 0l4.492-3.212a5 5 0 0 1 5.559-.171L60 20"/>
    </g>
</svg>
