<?xml version="1.0" encoding="UTF-8"?>
<svg width="326px" height="330px" viewBox="0 0 326 330" version="1.1" xmlns="http://www.w3.org/2000/svg" xmlns:xlink="http://www.w3.org/1999/xlink">
    <!-- Generator: sketchtool 52.5 (67469) - http://www.bohemiancoding.com/sketch -->
    <title>BBDEE7C7-34FC-48BE-9435-D1E83410A9A1</title>
    <desc>Created with sketchtool.</desc>
    <defs>
        <polygon id="path-1" points="0.193639053 0.345857988 220.755769 0.345857988 220.755769 267.50557 0.193639053 267.50557"></polygon>
    </defs>
    <g id="Our-Services" stroke="none" stroke-width="1" fill="none" fill-rule="evenodd">
        <g id="1.0-CG_Marketing-Web_Why-join" transform="translate(-203.000000, -1234.000000)">
            <g id="Group-49" transform="translate(203.000000, 1234.000000)">
                <path d="M292.86864,297.440777 L98.690236,297.440777 C91.589297,297.440777 85.7794379,291.554149 85.7794379,284.359381 L85.7794379,40.522172 C85.7794379,33.3274045 91.589297,27.4407766 98.690236,27.4407766 L292.86864,27.4407766 C299.969579,27.4407766 305.779438,33.3274045 305.779438,40.522172 L305.779438,284.359381 C305.779438,291.554149 299.969579,297.440777 292.86864,297.440777" id="Fill-1" fill="#E9E9E9"></path>
                <g id="Group-5" transform="translate(50.378698, 0.171893)">
                    <mask id="mask-2" fill="white">
                        <use xlink:href="#path-1"></use>
                    </mask>
                    <g id="Clip-4"></g>
                    <path d="M207.282841,270.345806 L13.1044372,270.345806 C6.00349821,270.345806 0.193639053,264.459178 0.193639053,257.264411 L0.193639053,13.4272016 C0.193639053,6.23243412 6.00349821,0.345806213 13.1044372,0.345806213 L207.282841,0.345806213 C214.38378,0.345806213 220.193639,6.23243412 220.193639,13.4272016 L220.193639,257.264411 C220.193639,264.459178 214.38378,270.345806 207.282841,270.345806" id="Fill-3" fill="#FDC149" mask="url(#mask-2)"></path>
                </g>
                <g id="bar-chart" transform="translate(100.378698, 34.171893)" fill="#FFFFFF" stroke="#FFFFFF" stroke-width="3">
                    <path d="M107.600597,111.358025 L102.636337,111.358025 L102.636337,39.2776955 C102.636337,35.9226955 99.9067078,33.1932922 96.5519342,33.1932922 L85.4559671,33.1932922 C82.1009671,33.1932922 79.3715638,35.9229218 79.3715638,39.2776955 L79.3715638,111.358025 L66.7663786,111.358025 L66.7663786,71.9356996 C66.7663786,68.5806996 64.0369753,65.8512963 60.6819753,65.8512963 L49.5860082,65.8512963 C46.2310082,65.8512963 43.5016049,68.5809259 43.5016049,71.9356996 L43.5016049,111.358025 L30.8964198,111.358025 L30.8964198,90.9414815 C30.8964198,87.5864815 28.1667901,84.8570782 24.8120165,84.8570782 L13.715823,84.8570782 C10.360823,84.8570782 7.63141975,87.5867078 7.63141975,90.9414815 L7.63141975,111.358025 L2.39940329,111.358025 C1.14934156,111.358025 0.136028807,112.371337 0.136028807,113.621399 C0.136028807,114.871461 1.14934156,115.884774 2.39940329,115.884774 L107.600597,115.884774 C108.850658,115.884774 109.863971,114.871461 109.863971,113.621399 C109.863971,112.371337 108.850658,111.358025 107.600597,111.358025 Z M26.3692181,111.358025 L12.1579424,111.358025 L12.1579424,90.9414815 C12.1579424,90.0825309 12.8566461,89.3838272 13.7155967,89.3838272 L24.8115638,89.3838272 C25.6705144,89.3838272 26.3692181,90.0825309 26.3692181,90.9414815 L26.3692181,111.358025 Z M62.2394033,111.358025 L48.0281276,111.358025 L48.0281276,71.9356996 C48.0281276,71.076749 48.7268313,70.3780453 49.5857819,70.3780453 L60.681749,70.3780453 C61.5404733,70.3780453 62.2394033,71.076749 62.2394033,71.9356996 L62.2394033,111.358025 Z M98.1095885,111.358025 L83.8983128,111.358025 L83.8983128,39.2776955 C83.8983128,38.4187449 84.5970165,37.7200412 85.4559671,37.7200412 L96.5519342,37.7200412 C97.4108848,37.7200412 98.1095885,38.4187449 98.1095885,39.2776955 L98.1095885,111.358025 Z" id="Shape" fill-rule="nonzero"></path>
                    <path d="M102.630905,2.38016461 C102.662593,1.76248971 102.445309,1.13440329 101.973621,0.662716049 C101.501934,0.191028807 100.873848,-0.0264814815 100.256173,0.00543209877 C100.219733,0.00384773663 100.183745,0 100.146626,0 L86.4532099,0 C85.2031481,0 84.1898354,1.01331276 84.1898354,2.26337449 C84.1898354,3.51343621 85.2031481,4.52674897 86.4532099,4.52674897 L94.9084979,4.52674897 L72.5334568,26.9020165 L64.0955967,18.4641564 C63.671214,18.0397737 63.0954115,17.801214 62.4951646,17.801214 C61.8949177,17.801214 61.3191152,18.0397737 60.8947325,18.4641564 L20.2062757,59.1528395 C19.322428,60.0366872 19.322428,61.469856 20.2062757,62.35393 C20.6483128,62.7955144 21.2275103,63.0164198 21.8067078,63.0164198 C22.3859053,63.0164198 22.9653292,62.7955144 23.4071399,62.3534774 L62.4951646,23.2652263 L70.9330247,31.7030864 C71.8168724,32.5869342 73.2500412,32.5869342 74.1341152,31.7030864 L98.1095885,7.72783951 L98.1095885,15.3803086 C98.1095885,16.6303704 99.1229012,17.6436831 100.372963,17.6436831 C101.623025,17.6436831 102.636337,16.6303704 102.636337,15.3803086 L102.636337,2.48971193 C102.636337,2.45281893 102.63249,2.41683128 102.630905,2.38016461 Z" id="Path"></path>
                    <circle id="Oval" cx="14.1777778" cy="68.6504115" r="2.26337449"></circle>
                </g>
                <path d="M244.769749,168 C200.160799,168 164,204.16287 164,248.769749 C164,293.377145 200.160799,329.54105 244.769749,329.54105 C289.377145,329.54105 325.538462,293.377145 325.538462,248.769749 C325.538462,204.16287 289.377145,168 244.769749,168" id="Fill-6" fill="#DB5967"></path>
                <path d="M244.805536,182 C207.908964,182 178,211.911021 178,248.805991 C178,285.701997 207.908964,315.613536 244.805536,315.613536 C281.701036,315.613536 311.61,285.701997 311.61,248.805991 C311.61,211.911021 281.701036,182 244.805536,182 Z" id="Stroke-8" stroke="#FFA17F" stroke-width="10"></path>
                <path d="M247.799785,242.634024 C238.672344,238.975074 236.035436,236.762204 236.035436,232.766716 C236.035436,229.569601 238.457477,225.834024 245.285584,225.834024 C251.324637,225.834024 255.956442,228.215163 255.997862,228.235873 C256.484548,228.495784 257.031294,228.634541 257.572862,228.634541 C258.894681,228.634541 260.063764,227.834615 260.548379,226.596672 L262.207255,222.355769 C262.785066,220.810799 261.908513,219.464127 260.791205,218.980547 C257.072714,217.362056 249.806072,216.110133 249.731515,216.096672 C249.615021,216.076479 249.207551,215.989497 249.207551,215.513166 L249.184252,209.360725 C249.184252,207.50821 247.637211,206 245.738098,206 L242.762063,206 C240.863986,206 239.31798,207.507175 239.31798,209.36176 L239.325746,215.83003 C239.325746,216.325518 238.788838,216.54142 238.59261,216.586464 C229.419089,218.771893 223.686545,225.491272 223.686545,233.967382 C223.686545,244.533136 232.420495,249.30784 241.851338,252.891716 C249.3898,255.851183 252.465243,258.852589 252.465243,263.254512 C252.465243,268.044749 248.109918,271.390459 241.869977,271.390459 C236.541797,271.390459 229.330554,268.013166 229.259104,267.978476 C228.797788,267.759467 228.308513,267.649186 227.806294,267.649186 C226.433217,267.649186 225.238764,268.47966 224.760879,269.764719 L223.17656,274.05429 C222.613764,275.655178 223.48048,276.955251 224.590539,277.53358 C229.019385,279.840163 237.588172,281.192012 237.970273,281.251036 C238.07227,281.265533 238.594163,281.449334 238.594163,281.926183 L238.594163,288.365976 C238.594163,290.218491 240.141205,291.726701 242.041353,291.726701 L245.116279,291.726701 C247.017462,291.726701 248.564504,290.219527 248.564504,288.365976 L248.564504,281.588609 C248.564504,280.955399 249.032033,280.898964 249.128335,280.875666 C258.900376,278.680399 264.919755,271.530769 264.919755,262.552959 C264.917684,253.331805 259.797122,247.373003 247.799785,242.634024" id="Fill-10" fill="#FFA17F"></path>
                <polygon id="Fill-41" fill="#DB5967" points="0 194.606201 50 111 100 194.606201"></polygon>
            </g>
        </g>
    </g>
</svg>