<svg width="464px" height="464px" viewBox="0 0 464 464" version="1.1" xmlns="http://www.w3.org/2000/svg" xmlns:xlink="http://www.w3.org/1999/xlink">
    <g id="Page-1" stroke="none" stroke-width="1" fill="none" fill-rule="evenodd">
        <g id="1.5-CG_Connecting-Dots_Menu-Copy" transform="translate(-488.000000, -280.000000)" fill="#EAE6EF">
            <g id="Group" style="mix-blend-mode: multiply;" transform="translate(488.000000, 280.000000)">
                <circle id="Oval-2" cx="4" cy="4" r="4"></circle>
                <circle id="Oval-2-Copy-200" cx="4" cy="244" r="4"></circle>
                <circle id="Oval-2-Copy-100" cx="244" cy="4" r="4"></circle>
                <circle id="Oval-2-Copy-201" cx="244" cy="244" r="4"></circle>
                <circle id="Oval-2-Copy-10" cx="4" cy="28" r="4"></circle>
                <circle id="Oval-2-Copy-202" cx="4" cy="268" r="4"></circle>
                <circle id="Oval-2-Copy-101" cx="244" cy="28" r="4"></circle>
                <circle id="Oval-2-Copy-203" cx="244" cy="268" r="4"></circle>
                <circle id="Oval-2-Copy" cx="28" cy="4" r="4"></circle>
                <circle id="Oval-2-Copy-204" cx="28" cy="244" r="4"></circle>
                <circle id="Oval-2-Copy-102" cx="268" cy="4" r="4"></circle>
                <circle id="Oval-2-Copy-205" cx="268" cy="244" r="4"></circle>
                <circle id="Oval-2-Copy-11" cx="28" cy="28" r="4"></circle>
                <circle id="Oval-2-Copy-206" cx="28" cy="268" r="4"></circle>
                <circle id="Oval-2-Copy-103" cx="268" cy="28" r="4"></circle>
                <circle id="Oval-2-Copy-207" cx="268" cy="268" r="4"></circle>
                <circle id="Oval-2-Copy-2" cx="52" cy="4" r="4"></circle>
                <circle id="Oval-2-Copy-208" cx="52" cy="244" r="4"></circle>
                <circle id="Oval-2-Copy-104" cx="292" cy="4" r="4"></circle>
                <circle id="Oval-2-Copy-209" cx="292" cy="244" r="4"></circle>
                <circle id="Oval-2-Copy-12" cx="52" cy="28" r="4"></circle>
                <circle id="Oval-2-Copy-210" cx="52" cy="268" r="4"></circle>
                <circle id="Oval-2-Copy-105" cx="292" cy="28" r="4"></circle>
                <circle id="Oval-2-Copy-211" cx="292" cy="268" r="4"></circle>
                <circle id="Oval-2-Copy-3" cx="76" cy="4" r="4"></circle>
                <circle id="Oval-2-Copy-212" cx="76" cy="244" r="4"></circle>
                <circle id="Oval-2-Copy-106" cx="316" cy="4" r="4"></circle>
                <circle id="Oval-2-Copy-213" cx="316" cy="244" r="4"></circle>
                <circle id="Oval-2-Copy-13" cx="76" cy="28" r="4"></circle>
                <circle id="Oval-2-Copy-214" cx="76" cy="268" r="4"></circle>
                <circle id="Oval-2-Copy-107" cx="316" cy="28" r="4"></circle>
                <circle id="Oval-2-Copy-215" cx="316" cy="268" r="4"></circle>
                <circle id="Oval-2-Copy-4" cx="100" cy="4" r="4"></circle>
                <circle id="Oval-2-Copy-216" cx="100" cy="244" r="4"></circle>
                <circle id="Oval-2-Copy-108" cx="340" cy="4" r="4"></circle>
                <circle id="Oval-2-Copy-217" cx="340" cy="244" r="4"></circle>
                <circle id="Oval-2-Copy-14" cx="100" cy="28" r="4"></circle>
                <circle id="Oval-2-Copy-218" cx="100" cy="268" r="4"></circle>
                <circle id="Oval-2-Copy-109" cx="340" cy="28" r="4"></circle>
                <circle id="Oval-2-Copy-219" cx="340" cy="268" r="4"></circle>
                <circle id="Oval-2-Copy-5" cx="124" cy="4" r="4"></circle>
                <circle id="Oval-2-Copy-220" cx="124" cy="244" r="4"></circle>
                <circle id="Oval-2-Copy-110" cx="364" cy="4" r="4"></circle>
                <circle id="Oval-2-Copy-221" cx="364" cy="244" r="4"></circle>
                <circle id="Oval-2-Copy-15" cx="124" cy="28" r="4"></circle>
                <circle id="Oval-2-Copy-222" cx="124" cy="268" r="4"></circle>
                <circle id="Oval-2-Copy-111" cx="364" cy="28" r="4"></circle>
                <circle id="Oval-2-Copy-223" cx="364" cy="268" r="4"></circle>
                <circle id="Oval-2-Copy-6" cx="148" cy="4" r="4"></circle>
                <circle id="Oval-2-Copy-224" cx="148" cy="244" r="4"></circle>
                <circle id="Oval-2-Copy-112" cx="388" cy="4" r="4"></circle>
                <circle id="Oval-2-Copy-225" cx="388" cy="244" r="4"></circle>
                <circle id="Oval-2-Copy-16" cx="148" cy="28" r="4"></circle>
                <circle id="Oval-2-Copy-226" cx="148" cy="268" r="4"></circle>
                <circle id="Oval-2-Copy-113" cx="388" cy="28" r="4"></circle>
                <circle id="Oval-2-Copy-227" cx="388" cy="268" r="4"></circle>
                <circle id="Oval-2-Copy-7" cx="172" cy="4" r="4"></circle>
                <circle id="Oval-2-Copy-228" cx="172" cy="244" r="4"></circle>
                <circle id="Oval-2-Copy-114" cx="412" cy="4" r="4"></circle>
                <circle id="Oval-2-Copy-229" cx="412" cy="244" r="4"></circle>
                <circle id="Oval-2-Copy-17" cx="172" cy="28" r="4"></circle>
                <circle id="Oval-2-Copy-230" cx="172" cy="268" r="4"></circle>
                <circle id="Oval-2-Copy-115" cx="412" cy="28" r="4"></circle>
                <circle id="Oval-2-Copy-231" cx="412" cy="268" r="4"></circle>
                <circle id="Oval-2-Copy-8" cx="196" cy="4" r="4"></circle>
                <circle id="Oval-2-Copy-232" cx="196" cy="244" r="4"></circle>
                <circle id="Oval-2-Copy-116" cx="436" cy="4" r="4"></circle>
                <circle id="Oval-2-Copy-233" cx="436" cy="244" r="4"></circle>
                <circle id="Oval-2-Copy-18" cx="196" cy="28" r="4"></circle>
                <circle id="Oval-2-Copy-234" cx="196" cy="268" r="4"></circle>
                <circle id="Oval-2-Copy-117" cx="436" cy="28" r="4"></circle>
                <circle id="Oval-2-Copy-235" cx="436" cy="268" r="4"></circle>
                <circle id="Oval-2-Copy-9" cx="220" cy="4" r="4"></circle>
                <circle id="Oval-2-Copy-236" cx="220" cy="244" r="4"></circle>
                <circle id="Oval-2-Copy-118" cx="460" cy="4" r="4"></circle>
                <circle id="Oval-2-Copy-237" cx="460" cy="244" r="4"></circle>
                <circle id="Oval-2-Copy-19" cx="220" cy="28" r="4"></circle>
                <circle id="Oval-2-Copy-238" cx="220" cy="268" r="4"></circle>
                <circle id="Oval-2-Copy-119" cx="460" cy="28" r="4"></circle>
                <circle id="Oval-2-Copy-239" cx="460" cy="268" r="4"></circle>
                <circle id="Oval-2-Copy-29" cx="4" cy="52" r="4"></circle>
                <circle id="Oval-2-Copy-240" cx="4" cy="292" r="4"></circle>
                <circle id="Oval-2-Copy-120" cx="244" cy="52" r="4"></circle>
                <circle id="Oval-2-Copy-241" cx="244" cy="292" r="4"></circle>
                <circle id="Oval-2-Copy-28" cx="28" cy="52" r="4"></circle>
                <circle id="Oval-2-Copy-242" cx="28" cy="292" r="4"></circle>
                <circle id="Oval-2-Copy-121" cx="268" cy="52" r="4"></circle>
                <circle id="Oval-2-Copy-243" cx="268" cy="292" r="4"></circle>
                <circle id="Oval-2-Copy-27" cx="52" cy="52" r="4"></circle>
                <circle id="Oval-2-Copy-244" cx="52" cy="292" r="4"></circle>
                <circle id="Oval-2-Copy-122" cx="292" cy="52" r="4"></circle>
                <circle id="Oval-2-Copy-245" cx="292" cy="292" r="4"></circle>
                <circle id="Oval-2-Copy-26" cx="76" cy="52" r="4"></circle>
                <circle id="Oval-2-Copy-246" cx="76" cy="292" r="4"></circle>
                <circle id="Oval-2-Copy-123" cx="316" cy="52" r="4"></circle>
                <circle id="Oval-2-Copy-247" cx="316" cy="292" r="4"></circle>
                <circle id="Oval-2-Copy-25" cx="100" cy="52" r="4"></circle>
                <circle id="Oval-2-Copy-248" cx="100" cy="292" r="4"></circle>
                <circle id="Oval-2-Copy-124" cx="340" cy="52" r="4"></circle>
                <circle id="Oval-2-Copy-249" cx="340" cy="292" r="4"></circle>
                <circle id="Oval-2-Copy-24" cx="124" cy="52" r="4"></circle>
                <circle id="Oval-2-Copy-250" cx="124" cy="292" r="4"></circle>
                <circle id="Oval-2-Copy-125" cx="364" cy="52" r="4"></circle>
                <circle id="Oval-2-Copy-251" cx="364" cy="292" r="4"></circle>
                <circle id="Oval-2-Copy-23" cx="148" cy="52" r="4"></circle>
                <circle id="Oval-2-Copy-252" cx="148" cy="292" r="4"></circle>
                <circle id="Oval-2-Copy-126" cx="388" cy="52" r="4"></circle>
                <circle id="Oval-2-Copy-253" cx="388" cy="292" r="4"></circle>
                <circle id="Oval-2-Copy-22" cx="172" cy="52" r="4"></circle>
                <circle id="Oval-2-Copy-254" cx="172" cy="292" r="4"></circle>
                <circle id="Oval-2-Copy-127" cx="412" cy="52" r="4"></circle>
                <circle id="Oval-2-Copy-255" cx="412" cy="292" r="4"></circle>
                <circle id="Oval-2-Copy-21" cx="196" cy="52" r="4"></circle>
                <circle id="Oval-2-Copy-256" cx="196" cy="292" r="4"></circle>
                <circle id="Oval-2-Copy-128" cx="436" cy="52" r="4"></circle>
                <circle id="Oval-2-Copy-257" cx="436" cy="292" r="4"></circle>
                <circle id="Oval-2-Copy-20" cx="220" cy="52" r="4"></circle>
                <circle id="Oval-2-Copy-258" cx="220" cy="292" r="4"></circle>
                <circle id="Oval-2-Copy-129" cx="460" cy="52" r="4"></circle>
                <circle id="Oval-2-Copy-259" cx="460" cy="292" r="4"></circle>
                <circle id="Oval-2-Copy-39" cx="4" cy="76" r="4"></circle>
                <circle id="Oval-2-Copy-260" cx="4" cy="316" r="4"></circle>
                <circle id="Oval-2-Copy-130" cx="244" cy="76" r="4"></circle>
                <circle id="Oval-2-Copy-261" cx="244" cy="316" r="4"></circle>
                <circle id="Oval-2-Copy-38" cx="28" cy="76" r="4"></circle>
                <circle id="Oval-2-Copy-262" cx="28" cy="316" r="4"></circle>
                <circle id="Oval-2-Copy-131" cx="268" cy="76" r="4"></circle>
                <circle id="Oval-2-Copy-263" cx="268" cy="316" r="4"></circle>
                <circle id="Oval-2-Copy-37" cx="52" cy="76" r="4"></circle>
                <circle id="Oval-2-Copy-264" cx="52" cy="316" r="4"></circle>
                <circle id="Oval-2-Copy-132" cx="292" cy="76" r="4"></circle>
                <circle id="Oval-2-Copy-265" cx="292" cy="316" r="4"></circle>
                <circle id="Oval-2-Copy-36" cx="76" cy="76" r="4"></circle>
                <circle id="Oval-2-Copy-266" cx="76" cy="316" r="4"></circle>
                <circle id="Oval-2-Copy-133" cx="316" cy="76" r="4"></circle>
                <circle id="Oval-2-Copy-267" cx="316" cy="316" r="4"></circle>
                <circle id="Oval-2-Copy-35" cx="100" cy="76" r="4"></circle>
                <circle id="Oval-2-Copy-268" cx="100" cy="316" r="4"></circle>
                <circle id="Oval-2-Copy-134" cx="340" cy="76" r="4"></circle>
                <circle id="Oval-2-Copy-269" cx="340" cy="316" r="4"></circle>
                <circle id="Oval-2-Copy-34" cx="124" cy="76" r="4"></circle>
                <circle id="Oval-2-Copy-270" cx="124" cy="316" r="4"></circle>
                <circle id="Oval-2-Copy-135" cx="364" cy="76" r="4"></circle>
                <circle id="Oval-2-Copy-271" cx="364" cy="316" r="4"></circle>
                <circle id="Oval-2-Copy-33" cx="148" cy="76" r="4"></circle>
                <circle id="Oval-2-Copy-272" cx="148" cy="316" r="4"></circle>
                <circle id="Oval-2-Copy-136" cx="388" cy="76" r="4"></circle>
                <circle id="Oval-2-Copy-273" cx="388" cy="316" r="4"></circle>
                <circle id="Oval-2-Copy-32" cx="172" cy="76" r="4"></circle>
                <circle id="Oval-2-Copy-274" cx="172" cy="316" r="4"></circle>
                <circle id="Oval-2-Copy-137" cx="412" cy="76" r="4"></circle>
                <circle id="Oval-2-Copy-275" cx="412" cy="316" r="4"></circle>
                <circle id="Oval-2-Copy-31" cx="196" cy="76" r="4"></circle>
                <circle id="Oval-2-Copy-276" cx="196" cy="316" r="4"></circle>
                <circle id="Oval-2-Copy-138" cx="436" cy="76" r="4"></circle>
                <circle id="Oval-2-Copy-277" cx="436" cy="316" r="4"></circle>
                <circle id="Oval-2-Copy-30" cx="220" cy="76" r="4"></circle>
                <circle id="Oval-2-Copy-278" cx="220" cy="316" r="4"></circle>
                <circle id="Oval-2-Copy-139" cx="460" cy="76" r="4"></circle>
                <circle id="Oval-2-Copy-279" cx="460" cy="316" r="4"></circle>
                <circle id="Oval-2-Copy-49" cx="4" cy="100" r="4"></circle>
                <circle id="Oval-2-Copy-280" cx="4" cy="340" r="4"></circle>
                <circle id="Oval-2-Copy-140" cx="244" cy="100" r="4"></circle>
                <circle id="Oval-2-Copy-281" cx="244" cy="340" r="4"></circle>
                <circle id="Oval-2-Copy-48" cx="28" cy="100" r="4"></circle>
                <circle id="Oval-2-Copy-282" cx="28" cy="340" r="4"></circle>
                <circle id="Oval-2-Copy-141" cx="268" cy="100" r="4"></circle>
                <circle id="Oval-2-Copy-283" cx="268" cy="340" r="4"></circle>
                <circle id="Oval-2-Copy-47" cx="52" cy="100" r="4"></circle>
                <circle id="Oval-2-Copy-284" cx="52" cy="340" r="4"></circle>
                <circle id="Oval-2-Copy-142" cx="292" cy="100" r="4"></circle>
                <circle id="Oval-2-Copy-285" cx="292" cy="340" r="4"></circle>
                <circle id="Oval-2-Copy-46" cx="76" cy="100" r="4"></circle>
                <circle id="Oval-2-Copy-286" cx="76" cy="340" r="4"></circle>
                <circle id="Oval-2-Copy-143" cx="316" cy="100" r="4"></circle>
                <circle id="Oval-2-Copy-287" cx="316" cy="340" r="4"></circle>
                <circle id="Oval-2-Copy-45" cx="100" cy="100" r="4"></circle>
                <circle id="Oval-2-Copy-288" cx="100" cy="340" r="4"></circle>
                <circle id="Oval-2-Copy-144" cx="340" cy="100" r="4"></circle>
                <circle id="Oval-2-Copy-289" cx="340" cy="340" r="4"></circle>
                <circle id="Oval-2-Copy-44" cx="124" cy="100" r="4"></circle>
                <circle id="Oval-2-Copy-290" cx="124" cy="340" r="4"></circle>
                <circle id="Oval-2-Copy-145" cx="364" cy="100" r="4"></circle>
                <circle id="Oval-2-Copy-291" cx="364" cy="340" r="4"></circle>
                <circle id="Oval-2-Copy-43" cx="148" cy="100" r="4"></circle>
                <circle id="Oval-2-Copy-292" cx="148" cy="340" r="4"></circle>
                <circle id="Oval-2-Copy-146" cx="388" cy="100" r="4"></circle>
                <circle id="Oval-2-Copy-293" cx="388" cy="340" r="4"></circle>
                <circle id="Oval-2-Copy-42" cx="172" cy="100" r="4"></circle>
                <circle id="Oval-2-Copy-294" cx="172" cy="340" r="4"></circle>
                <circle id="Oval-2-Copy-147" cx="412" cy="100" r="4"></circle>
                <circle id="Oval-2-Copy-295" cx="412" cy="340" r="4"></circle>
                <circle id="Oval-2-Copy-41" cx="196" cy="100" r="4"></circle>
                <circle id="Oval-2-Copy-296" cx="196" cy="340" r="4"></circle>
                <circle id="Oval-2-Copy-148" cx="436" cy="100" r="4"></circle>
                <circle id="Oval-2-Copy-297" cx="436" cy="340" r="4"></circle>
                <circle id="Oval-2-Copy-40" cx="220" cy="100" r="4"></circle>
                <circle id="Oval-2-Copy-298" cx="220" cy="340" r="4"></circle>
                <circle id="Oval-2-Copy-149" cx="460" cy="100" r="4"></circle>
                <circle id="Oval-2-Copy-299" cx="460" cy="340" r="4"></circle>
                <circle id="Oval-2-Copy-59" cx="4" cy="124" r="4"></circle>
                <circle id="Oval-2-Copy-300" cx="4" cy="364" r="4"></circle>
                <circle id="Oval-2-Copy-150" cx="244" cy="124" r="4"></circle>
                <circle id="Oval-2-Copy-301" cx="244" cy="364" r="4"></circle>
                <circle id="Oval-2-Copy-58" cx="28" cy="124" r="4"></circle>
                <circle id="Oval-2-Copy-302" cx="28" cy="364" r="4"></circle>
                <circle id="Oval-2-Copy-151" cx="268" cy="124" r="4"></circle>
                <circle id="Oval-2-Copy-303" cx="268" cy="364" r="4"></circle>
                <circle id="Oval-2-Copy-57" cx="52" cy="124" r="4"></circle>
                <circle id="Oval-2-Copy-304" cx="52" cy="364" r="4"></circle>
                <circle id="Oval-2-Copy-152" cx="292" cy="124" r="4"></circle>
                <circle id="Oval-2-Copy-305" cx="292" cy="364" r="4"></circle>
                <circle id="Oval-2-Copy-56" cx="76" cy="124" r="4"></circle>
                <circle id="Oval-2-Copy-306" cx="76" cy="364" r="4"></circle>
                <circle id="Oval-2-Copy-153" cx="316" cy="124" r="4"></circle>
                <circle id="Oval-2-Copy-307" cx="316" cy="364" r="4"></circle>
                <circle id="Oval-2-Copy-55" cx="100" cy="124" r="4"></circle>
                <circle id="Oval-2-Copy-308" cx="100" cy="364" r="4"></circle>
                <circle id="Oval-2-Copy-154" cx="340" cy="124" r="4"></circle>
                <circle id="Oval-2-Copy-309" cx="340" cy="364" r="4"></circle>
                <circle id="Oval-2-Copy-54" cx="124" cy="124" r="4"></circle>
                <circle id="Oval-2-Copy-310" cx="124" cy="364" r="4"></circle>
                <circle id="Oval-2-Copy-155" cx="364" cy="124" r="4"></circle>
                <circle id="Oval-2-Copy-311" cx="364" cy="364" r="4"></circle>
                <circle id="Oval-2-Copy-53" cx="148" cy="124" r="4"></circle>
                <circle id="Oval-2-Copy-312" cx="148" cy="364" r="4"></circle>
                <circle id="Oval-2-Copy-156" cx="388" cy="124" r="4"></circle>
                <circle id="Oval-2-Copy-313" cx="388" cy="364" r="4"></circle>
                <circle id="Oval-2-Copy-52" cx="172" cy="124" r="4"></circle>
                <circle id="Oval-2-Copy-314" cx="172" cy="364" r="4"></circle>
                <circle id="Oval-2-Copy-157" cx="412" cy="124" r="4"></circle>
                <circle id="Oval-2-Copy-315" cx="412" cy="364" r="4"></circle>
                <circle id="Oval-2-Copy-51" cx="196" cy="124" r="4"></circle>
                <circle id="Oval-2-Copy-316" cx="196" cy="364" r="4"></circle>
                <circle id="Oval-2-Copy-158" cx="436" cy="124" r="4"></circle>
                <circle id="Oval-2-Copy-317" cx="436" cy="364" r="4"></circle>
                <circle id="Oval-2-Copy-50" cx="220" cy="124" r="4"></circle>
                <circle id="Oval-2-Copy-318" cx="220" cy="364" r="4"></circle>
                <circle id="Oval-2-Copy-159" cx="460" cy="124" r="4"></circle>
                <circle id="Oval-2-Copy-319" cx="460" cy="364" r="4"></circle>
                <circle id="Oval-2-Copy-69" cx="4" cy="148" r="4"></circle>
                <circle id="Oval-2-Copy-320" cx="4" cy="388" r="4"></circle>
                <circle id="Oval-2-Copy-160" cx="244" cy="148" r="4"></circle>
                <circle id="Oval-2-Copy-321" cx="244" cy="388" r="4"></circle>
                <circle id="Oval-2-Copy-68" cx="28" cy="148" r="4"></circle>
                <circle id="Oval-2-Copy-322" cx="28" cy="388" r="4"></circle>
                <circle id="Oval-2-Copy-161" cx="268" cy="148" r="4"></circle>
                <circle id="Oval-2-Copy-323" cx="268" cy="388" r="4"></circle>
                <circle id="Oval-2-Copy-67" cx="52" cy="148" r="4"></circle>
                <circle id="Oval-2-Copy-324" cx="52" cy="388" r="4"></circle>
                <circle id="Oval-2-Copy-162" cx="292" cy="148" r="4"></circle>
                <circle id="Oval-2-Copy-325" cx="292" cy="388" r="4"></circle>
                <circle id="Oval-2-Copy-66" cx="76" cy="148" r="4"></circle>
                <circle id="Oval-2-Copy-326" cx="76" cy="388" r="4"></circle>
                <circle id="Oval-2-Copy-163" cx="316" cy="148" r="4"></circle>
                <circle id="Oval-2-Copy-327" cx="316" cy="388" r="4"></circle>
                <circle id="Oval-2-Copy-65" cx="100" cy="148" r="4"></circle>
                <circle id="Oval-2-Copy-328" cx="100" cy="388" r="4"></circle>
                <circle id="Oval-2-Copy-164" cx="340" cy="148" r="4"></circle>
                <circle id="Oval-2-Copy-329" cx="340" cy="388" r="4"></circle>
                <circle id="Oval-2-Copy-64" cx="124" cy="148" r="4"></circle>
                <circle id="Oval-2-Copy-330" cx="124" cy="388" r="4"></circle>
                <circle id="Oval-2-Copy-165" cx="364" cy="148" r="4"></circle>
                <circle id="Oval-2-Copy-331" cx="364" cy="388" r="4"></circle>
                <circle id="Oval-2-Copy-63" cx="148" cy="148" r="4"></circle>
                <circle id="Oval-2-Copy-332" cx="148" cy="388" r="4"></circle>
                <circle id="Oval-2-Copy-166" cx="388" cy="148" r="4"></circle>
                <circle id="Oval-2-Copy-333" cx="388" cy="388" r="4"></circle>
                <circle id="Oval-2-Copy-62" cx="172" cy="148" r="4"></circle>
                <circle id="Oval-2-Copy-334" cx="172" cy="388" r="4"></circle>
                <circle id="Oval-2-Copy-167" cx="412" cy="148" r="4"></circle>
                <circle id="Oval-2-Copy-335" cx="412" cy="388" r="4"></circle>
                <circle id="Oval-2-Copy-61" cx="196" cy="148" r="4"></circle>
                <circle id="Oval-2-Copy-336" cx="196" cy="388" r="4"></circle>
                <circle id="Oval-2-Copy-168" cx="436" cy="148" r="4"></circle>
                <circle id="Oval-2-Copy-337" cx="436" cy="388" r="4"></circle>
                <circle id="Oval-2-Copy-60" cx="220" cy="148" r="4"></circle>
                <circle id="Oval-2-Copy-338" cx="220" cy="388" r="4"></circle>
                <circle id="Oval-2-Copy-169" cx="460" cy="148" r="4"></circle>
                <circle id="Oval-2-Copy-339" cx="460" cy="388" r="4"></circle>
                <circle id="Oval-2-Copy-79" cx="4" cy="172" r="4"></circle>
                <circle id="Oval-2-Copy-340" cx="4" cy="412" r="4"></circle>
                <circle id="Oval-2-Copy-170" cx="244" cy="172" r="4"></circle>
                <circle id="Oval-2-Copy-341" cx="244" cy="412" r="4"></circle>
                <circle id="Oval-2-Copy-78" cx="28" cy="172" r="4"></circle>
                <circle id="Oval-2-Copy-342" cx="28" cy="412" r="4"></circle>
                <circle id="Oval-2-Copy-171" cx="268" cy="172" r="4"></circle>
                <circle id="Oval-2-Copy-343" cx="268" cy="412" r="4"></circle>
                <circle id="Oval-2-Copy-77" cx="52" cy="172" r="4"></circle>
                <circle id="Oval-2-Copy-344" cx="52" cy="412" r="4"></circle>
                <circle id="Oval-2-Copy-172" cx="292" cy="172" r="4"></circle>
                <circle id="Oval-2-Copy-345" cx="292" cy="412" r="4"></circle>
                <circle id="Oval-2-Copy-76" cx="76" cy="172" r="4"></circle>
                <circle id="Oval-2-Copy-346" cx="76" cy="412" r="4"></circle>
                <circle id="Oval-2-Copy-173" cx="316" cy="172" r="4"></circle>
                <circle id="Oval-2-Copy-347" cx="316" cy="412" r="4"></circle>
                <circle id="Oval-2-Copy-75" cx="100" cy="172" r="4"></circle>
                <circle id="Oval-2-Copy-348" cx="100" cy="412" r="4"></circle>
                <circle id="Oval-2-Copy-174" cx="340" cy="172" r="4"></circle>
                <circle id="Oval-2-Copy-349" cx="340" cy="412" r="4"></circle>
                <circle id="Oval-2-Copy-74" cx="124" cy="172" r="4"></circle>
                <circle id="Oval-2-Copy-350" cx="124" cy="412" r="4"></circle>
                <circle id="Oval-2-Copy-175" cx="364" cy="172" r="4"></circle>
                <circle id="Oval-2-Copy-351" cx="364" cy="412" r="4"></circle>
                <circle id="Oval-2-Copy-73" cx="148" cy="172" r="4"></circle>
                <circle id="Oval-2-Copy-352" cx="148" cy="412" r="4"></circle>
                <circle id="Oval-2-Copy-176" cx="388" cy="172" r="4"></circle>
                <circle id="Oval-2-Copy-353" cx="388" cy="412" r="4"></circle>
                <circle id="Oval-2-Copy-72" cx="172" cy="172" r="4"></circle>
                <circle id="Oval-2-Copy-354" cx="172" cy="412" r="4"></circle>
                <circle id="Oval-2-Copy-177" cx="412" cy="172" r="4"></circle>
                <circle id="Oval-2-Copy-355" cx="412" cy="412" r="4"></circle>
                <circle id="Oval-2-Copy-71" cx="196" cy="172" r="4"></circle>
                <circle id="Oval-2-Copy-356" cx="196" cy="412" r="4"></circle>
                <circle id="Oval-2-Copy-178" cx="436" cy="172" r="4"></circle>
                <circle id="Oval-2-Copy-357" cx="436" cy="412" r="4"></circle>
                <circle id="Oval-2-Copy-70" cx="220" cy="172" r="4"></circle>
                <circle id="Oval-2-Copy-358" cx="220" cy="412" r="4"></circle>
                <circle id="Oval-2-Copy-179" cx="460" cy="172" r="4"></circle>
                <circle id="Oval-2-Copy-359" cx="460" cy="412" r="4"></circle>
                <circle id="Oval-2-Copy-89" cx="4" cy="196" r="4"></circle>
                <circle id="Oval-2-Copy-360" cx="4" cy="436" r="4"></circle>
                <circle id="Oval-2-Copy-180" cx="244" cy="196" r="4"></circle>
                <circle id="Oval-2-Copy-361" cx="244" cy="436" r="4"></circle>
                <circle id="Oval-2-Copy-88" cx="28" cy="196" r="4"></circle>
                <circle id="Oval-2-Copy-362" cx="28" cy="436" r="4"></circle>
                <circle id="Oval-2-Copy-181" cx="268" cy="196" r="4"></circle>
                <circle id="Oval-2-Copy-363" cx="268" cy="436" r="4"></circle>
                <circle id="Oval-2-Copy-87" cx="52" cy="196" r="4"></circle>
                <circle id="Oval-2-Copy-364" cx="52" cy="436" r="4"></circle>
                <circle id="Oval-2-Copy-182" cx="292" cy="196" r="4"></circle>
                <circle id="Oval-2-Copy-365" cx="292" cy="436" r="4"></circle>
                <circle id="Oval-2-Copy-86" cx="76" cy="196" r="4"></circle>
                <circle id="Oval-2-Copy-366" cx="76" cy="436" r="4"></circle>
                <circle id="Oval-2-Copy-183" cx="316" cy="196" r="4"></circle>
                <circle id="Oval-2-Copy-367" cx="316" cy="436" r="4"></circle>
                <circle id="Oval-2-Copy-85" cx="100" cy="196" r="4"></circle>
                <circle id="Oval-2-Copy-368" cx="100" cy="436" r="4"></circle>
                <circle id="Oval-2-Copy-184" cx="340" cy="196" r="4"></circle>
                <circle id="Oval-2-Copy-369" cx="340" cy="436" r="4"></circle>
                <circle id="Oval-2-Copy-84" cx="124" cy="196" r="4"></circle>
                <circle id="Oval-2-Copy-370" cx="124" cy="436" r="4"></circle>
                <circle id="Oval-2-Copy-185" cx="364" cy="196" r="4"></circle>
                <circle id="Oval-2-Copy-371" cx="364" cy="436" r="4"></circle>
                <circle id="Oval-2-Copy-83" cx="148" cy="196" r="4"></circle>
                <circle id="Oval-2-Copy-372" cx="148" cy="436" r="4"></circle>
                <circle id="Oval-2-Copy-186" cx="388" cy="196" r="4"></circle>
                <circle id="Oval-2-Copy-373" cx="388" cy="436" r="4"></circle>
                <circle id="Oval-2-Copy-82" cx="172" cy="196" r="4"></circle>
                <circle id="Oval-2-Copy-374" cx="172" cy="436" r="4"></circle>
                <circle id="Oval-2-Copy-187" cx="412" cy="196" r="4"></circle>
                <circle id="Oval-2-Copy-375" cx="412" cy="436" r="4"></circle>
                <circle id="Oval-2-Copy-81" cx="196" cy="196" r="4"></circle>
                <circle id="Oval-2-Copy-376" cx="196" cy="436" r="4"></circle>
                <circle id="Oval-2-Copy-188" cx="436" cy="196" r="4"></circle>
                <circle id="Oval-2-Copy-377" cx="436" cy="436" r="4"></circle>
                <circle id="Oval-2-Copy-80" cx="220" cy="196" r="4"></circle>
                <circle id="Oval-2-Copy-378" cx="220" cy="436" r="4"></circle>
                <circle id="Oval-2-Copy-189" cx="460" cy="196" r="4"></circle>
                <circle id="Oval-2-Copy-379" cx="460" cy="436" r="4"></circle>
                <circle id="Oval-2-Copy-99" cx="4" cy="220" r="4"></circle>
                <circle id="Oval-2-Copy-380" cx="4" cy="460" r="4"></circle>
                <circle id="Oval-2-Copy-190" cx="244" cy="220" r="4"></circle>
                <circle id="Oval-2-Copy-381" cx="244" cy="460" r="4"></circle>
                <circle id="Oval-2-Copy-98" cx="28" cy="220" r="4"></circle>
                <circle id="Oval-2-Copy-382" cx="28" cy="460" r="4"></circle>
                <circle id="Oval-2-Copy-191" cx="268" cy="220" r="4"></circle>
                <circle id="Oval-2-Copy-383" cx="268" cy="460" r="4"></circle>
                <circle id="Oval-2-Copy-97" cx="52" cy="220" r="4"></circle>
                <circle id="Oval-2-Copy-384" cx="52" cy="460" r="4"></circle>
                <circle id="Oval-2-Copy-192" cx="292" cy="220" r="4"></circle>
                <circle id="Oval-2-Copy-385" cx="292" cy="460" r="4"></circle>
                <circle id="Oval-2-Copy-96" cx="76" cy="220" r="4"></circle>
                <circle id="Oval-2-Copy-386" cx="76" cy="460" r="4"></circle>
                <circle id="Oval-2-Copy-193" cx="316" cy="220" r="4"></circle>
                <circle id="Oval-2-Copy-387" cx="316" cy="460" r="4"></circle>
                <circle id="Oval-2-Copy-95" cx="100" cy="220" r="4"></circle>
                <circle id="Oval-2-Copy-388" cx="100" cy="460" r="4"></circle>
                <circle id="Oval-2-Copy-194" cx="340" cy="220" r="4"></circle>
                <circle id="Oval-2-Copy-389" cx="340" cy="460" r="4"></circle>
                <circle id="Oval-2-Copy-94" cx="124" cy="220" r="4"></circle>
                <circle id="Oval-2-Copy-390" cx="124" cy="460" r="4"></circle>
                <circle id="Oval-2-Copy-195" cx="364" cy="220" r="4"></circle>
                <circle id="Oval-2-Copy-391" cx="364" cy="460" r="4"></circle>
                <circle id="Oval-2-Copy-93" cx="148" cy="220" r="4"></circle>
                <circle id="Oval-2-Copy-392" cx="148" cy="460" r="4"></circle>
                <circle id="Oval-2-Copy-196" cx="388" cy="220" r="4"></circle>
                <circle id="Oval-2-Copy-393" cx="388" cy="460" r="4"></circle>
                <circle id="Oval-2-Copy-92" cx="172" cy="220" r="4"></circle>
                <circle id="Oval-2-Copy-394" cx="172" cy="460" r="4"></circle>
                <circle id="Oval-2-Copy-197" cx="412" cy="220" r="4"></circle>
                <circle id="Oval-2-Copy-395" cx="412" cy="460" r="4"></circle>
                <circle id="Oval-2-Copy-91" cx="196" cy="220" r="4"></circle>
                <circle id="Oval-2-Copy-396" cx="196" cy="460" r="4"></circle>
                <circle id="Oval-2-Copy-198" cx="436" cy="220" r="4"></circle>
                <circle id="Oval-2-Copy-397" cx="436" cy="460" r="4"></circle>
                <circle id="Oval-2-Copy-90" cx="220" cy="220" r="4"></circle>
                <circle id="Oval-2-Copy-398" cx="220" cy="460" r="4"></circle>
                <circle id="Oval-2-Copy-199" cx="460" cy="220" r="4"></circle>
                <circle id="Oval-2-Copy-399" cx="460" cy="460" r="4"></circle>
            </g>
        </g>
    </g>
</svg>