<svg xmlns="http://www.w3.org/2000/svg" xmlns:xlink="http://www.w3.org/1999/xlink" width="370" height="338" viewBox="0 0 370 338">
    <defs>
        <path id="a" d="M.304.326h220.562v267.16H.304z"/>
    </defs>
    <g fill="none" fill-rule="evenodd">
        <path fill="#E9E9E9" d="M311.787 297.44H117.609c-7.101 0-12.911-5.886-12.911-13.08V40.521c0-7.195 5.81-13.081 12.91-13.081h194.179c7.101 0 12.91 5.886 12.91 13.081V284.36c0 7.195-5.809 13.082-12.91 13.082"/>
        <g transform="translate(69.186 .192)">
            <mask id="b" fill="#fff">
                <use xlink:href="#a"/>
            </mask>
            <path fill="#028283" d="M207.09 270H12.91C5.81 270 0 264.113 0 256.919V13.08C0 5.887 5.81 0 12.91 0h194.18C214.19 0 220 5.887 220 13.081V256.92c0 7.194-5.81 13.081-12.91 13.081" mask="url(#b)"/>
            <g stroke="#FFF" stroke-linecap="round" stroke-linejoin="round" mask="url(#b)">
                <path stroke-width="10" d="M46 75h131V57H46zM61.814 152.808h99v-77h-99zM47 153.5h128"/>
                <path stroke-width="8" d="M74.814 135.808l24.715-25.074 18.444 17.934 27.84-27.86"/>
                <path stroke-width="8" d="M130.814 99.808h16v16"/>
                <path stroke-width="5" d="M74.814 87.308h12M74.814 98.308h22"/>
                <path stroke-width="10" d="M112.314 166.808v-14M104.814 174.308a7.5 7.5 0 1 1 15 0 7.5 7.5 0 0 1-15 0z"/>
            </g>
        </g>
        <path fill="#FDC149" d="M288.77 176c-44.61 0-80.77 36.163-80.77 80.77s36.16 80.771 80.77 80.771c44.607 0 80.768-36.164 80.768-80.771S333.378 176 288.77 176"/>
        <path stroke="#DB9D23" stroke-width="10" d="M288.806 190C251.909 190 222 219.911 222 256.806c0 36.896 29.909 66.808 66.806 66.808 36.895 0 66.804-29.912 66.804-66.808 0-36.895-29.909-66.806-66.804-66.806z"/>
        <path fill="#DB9D23" d="M292.316 250.766c-9.127-3.659-11.764-5.872-11.764-9.867 0-3.197 2.422-6.933 9.25-6.933 6.039 0 10.67 2.381 10.712 2.402.487.26 1.034.399 1.575.399 1.322 0 2.491-.8 2.976-2.038l1.658-4.241c.578-1.545-.298-2.892-1.416-3.375-3.718-1.619-10.985-2.87-11.06-2.884-.116-.02-.523-.107-.523-.584l-.024-6.152c0-1.853-1.547-3.361-3.446-3.361h-2.976c-1.898 0-3.444 1.507-3.444 3.362l.008 6.468c0 .496-.537.711-.733.756-9.174 2.186-14.906 8.905-14.906 17.381 0 10.566 8.734 15.34 18.165 18.925 7.538 2.96 10.613 5.96 10.613 10.363 0 4.79-4.355 8.135-10.595 8.135-5.328 0-12.54-3.377-12.61-3.412a3.364 3.364 0 0 0-1.453-.329 3.22 3.22 0 0 0-3.046 2.116l-1.584 4.29c-.563 1.6.304 2.9 1.414 3.479 4.429 2.306 12.997 3.658 13.38 3.717.101.015.623.198.623.675v6.44c0 1.853 1.547 3.36 3.448 3.36h3.074c1.902 0 3.449-1.506 3.449-3.36v-6.777c0-.634.467-.69.564-.713 9.772-2.196 15.791-9.345 15.791-18.323-.002-9.221-5.123-15.18-17.12-19.919"/>
        <path fill="#FDC149" d="M67.846 302.557L.865 235.576a2.637 2.637 0 0 1 0-3.73l66.98-66.981a2.637 2.637 0 0 1 3.73 0l66.982 66.981a2.637 2.637 0 0 1 0 3.73l-66.982 66.98a2.637 2.637 0 0 1-3.729 0"/>
    </g>
</svg>
