<svg xmlns="http://www.w3.org/2000/svg" xmlns:xlink="http://www.w3.org/1999/xlink" width="180" height="118" viewBox="0 0 180 118">
    <defs>
        <path id="a" d="M0 117.767h179.452V0H0z"/>
    </defs>
    <g fill="none" fill-rule="evenodd">
        <path fill-rule="nonzero" d="M0-46h180v180H0z"/>
        <g>
            <path fill="#FCC14A" d="M149.43 63.67l-7.59-7.59H100.94c-4.637 0-8.411 3.774-8.411 8.412V95.335c0 4.637 3.774 8.412 8.411 8.412h19.628c4.637 0 8.411-3.775 8.411-8.412V84.12h-11.215v-5.607l8.408 4.947c1.548 0 4.64 1.471 4.64 3.022l3.776 8.854c0 7.355-5.692 13.404-12.904 13.975l2.849 2.85h20.109l4.787-4.788a2.797 2.797 0 0 1 1.982-.82h2.804v-42.06h-2.804a2.808 2.808 0 0 1-1.982-.821"/>
            <path fill="#70CEEA" d="M78.51 44.865H37.612l-7.59 7.59a2.8 2.8 0 0 1-1.983.821h-2.804v42.06h2.804c.743 0 1.455.296 1.982.82l4.787 4.787h20.11l2.849-2.849c-7.212-.572-12.904-6.62-12.904-13.975l3.828-8.414c0-1.551 1.797-4.656 3.345-4.656l9.65-3.753v5.608H50.472v11.215c0 4.638 3.774 8.412 8.412 8.412H78.51c4.638 0 8.412-3.774 8.412-8.412V53.276c0-4.64-3.774-8.411-8.412-8.411"/>
            <path fill="#FCC14A" d="M159.824 59.168v55.581h17.157V56.08h-17.157z"/>
            <mask id="b" fill="#fff">
                <use xlink:href="#a"/>
            </mask>
            <path fill="#70CEEA" d="M2.616 100.943h17.011V44.865H2.616z" mask="url(#b)"/>
            <path fill="#028283" d="M117.765 78.511v5.608c6.194 0 11.216 5.022 11.216 11.216a8.412 8.412 0 0 1-8.412 8.412h-19.628a8.412 8.412 0 0 1-8.412-8.412V64.492a8.412 8.412 0 0 1 8.412-8.412h40.899l7.59 7.59c.524.528 1.24.822 1.982.822h2.804v42.06h-2.804c-.743 0-1.456.295-1.981.82l-4.788 4.787h-20.11l-2.848-2.85c7.211-.571 12.903-6.62 12.903-13.974l-.012-1.963c-.052-8.222-6.732-14.86-14.955-14.86h-1.856zM59.637 67.332c-8.202.147-14.774 6.837-14.774 15.04v1.747c0 7.356 5.692 13.403 12.904 13.975l-2.85 2.85h-20.11l-4.786-4.788a2.8 2.8 0 0 0-1.982-.821h-2.804v-42.06h2.804c.743 0 1.455-.296 1.982-.82l7.59-7.59H78.51a8.412 8.412 0 0 1 8.412 8.41V84.12a8.412 8.412 0 0 1-8.412 8.412H58.883a8.411 8.411 0 0 1-8.412-8.412v-2.123a9.092 9.092 0 0 1 9.092-9.092h2.124v-5.608l-2.05.036zm-40.01-8.448v5.608-5.608zm0 11.216v5.608V70.1zm0 11.216v5.608-5.608zm0 11.215v5.608H2.804a2.805 2.805 0 0 0 0 5.608h19.628a2.803 2.803 0 0 0 2.803-2.804h1.644l4.786 4.786c.524.528 1.239.822 1.982.822H56.08c.742 0 1.455-.297 1.982-.822l7.59-7.59H78.51c3.169 0 6.062-1.097 8.412-2.877v.073c0 7.743 6.277 14.02 14.02 14.02H113.8l7.59 7.59c.525.527 1.24.821 1.983.821h22.431c.743 0 1.456-.297 1.983-.821l4.786-4.786h1.643v2.804a2.804 2.804 0 0 0 2.804 2.803h19.628a2.804 2.804 0 1 0 0-5.607h-16.824V58.884h16.824a2.804 2.804 0 0 0 0-5.608H157.02a2.803 2.803 0 0 0-2.804 2.804v2.804h-1.643l-7.591-7.59a2.8 2.8 0 0 0-1.981-.822h-42.06c-3.168 0-6.062 1.097-8.412 2.878v-.074c0-7.743-6.276-14.02-14.019-14.02H36.452c-.744 0-1.457.296-1.982.822l-7.591 7.59h-1.644v-2.804a2.804 2.804 0 0 0-2.803-2.804H2.804a2.804 2.804 0 0 0 0 5.608h16.823v44.863z" mask="url(#b)"/>
            <path fill="#028283" d="M69.297 33.209a2.804 2.804 0 0 0 .838-3.877l-4.966-7.701 11.525 3.06c.373.1.764.148 1.146.089a2.827 2.827 0 0 0 2.422-2.633l.654-11.945 7.55 9.281a2.808 2.808 0 0 0 2.177 1.035c.844 0 1.643-.38 2.173-1.035l7.553-9.28.654 11.947a2.816 2.816 0 0 0 1.152 2.114 2.778 2.778 0 0 0 2.367.443l11.572-3.07-6.486 10.055a2.805 2.805 0 0 0 1.343 4.133l12.363 4.786-.777.435a2.804 2.804 0 0 0 2.745 4.891l5.966-3.346a2.805 2.805 0 0 0 1.425-2.645 2.794 2.794 0 0 0-1.786-2.413l-14.704-5.692 8.55-13.252a2.808 2.808 0 0 0-.088-3.169 2.812 2.812 0 0 0-2.989-1.062L106.434 18.4l-.86-15.75A2.798 2.798 0 0 0 103.638.14a2.794 2.794 0 0 0-3.04.898l-9.96 12.236L80.68 1.037a2.805 2.805 0 0 0-4.974 1.615l-.861 15.746L59.6 14.355a2.802 2.802 0 1 0-3.073 4.23l8.894 13.787a2.805 2.805 0 0 0 3.876.837" mask="url(#b)"/>
        </g>
    </g>
</svg>
