<svg xmlns="http://www.w3.org/2000/svg" width="159" height="176" viewBox="0 0 159 176">
    <g fill="none" fill-rule="evenodd">
        <path d="M-11-2h180v180H-11z"/>
        <path fill="#70CEEA" d="M26 105.5C26 76.505 49.505 53 78.5 53S131 76.505 131 105.5 107.495 158 78.5 158 26 134.495 26 105.5"/>
        <path stroke="#028283" stroke-linecap="round" stroke-width="6" d="M26 105.5C26 76.505 49.505 53 78.5 53S131 76.505 131 105.5 107.495 158 78.5 158 26 134.495 26 105.5z"/>
        <path fill="#FFF" d="M23.382 107.08A13.281 13.281 0 0 1 32.98 103h1.039a13.28 13.28 0 0 1 9.598 4.08 12.053 12.053 0 0 1 3.373 8.872l-.405 9.145c-.456 6.826-6.172 12.075-12.957 11.899h-.257c-6.784.176-12.5-5.073-12.957-11.899l-.405-9.162a12.054 12.054 0 0 1 3.373-8.856"/>
        <path fill="#FFF" d="M23.382 107.08A13.28 13.28 0 0 1 32.98 103h1.039a13.279 13.279 0 0 1 9.598 4.08 12.055 12.055 0 0 1 3.373 8.873l-.405 9.145c-.457 6.825-6.172 12.074-12.957 11.898h-.256c-6.785.176-12.5-5.073-12.958-11.898l-.405-9.162a12.052 12.052 0 0 1 3.373-8.856"/>
        <path fill="#FCC14A" d="M62.992 172.829v-14.38c0-7.305-5.72-13.227-12.775-13.227H15.775C8.719 145.222 3 151.144 3 158.449v14.38"/>
        <path stroke="#028283" stroke-linecap="round" stroke-width="6" d="M62.992 172.829v-14.38c0-7.305-5.72-13.227-12.775-13.227H15.775C8.719 145.222 3 151.144 3 158.449v14.38"/>
        <path fill="#028283" d="M22.997 106.742a13.122 13.122 0 0 1 9.482-4.028h1.026a13.12 13.12 0 0 1 9.482 4.028 11.898 11.898 0 0 1 3.331 8.762l-.4 9.03c-.45 6.74-6.097 11.923-12.8 11.75h-.253c-6.702.173-12.349-5.01-12.8-11.75l-.4-9.047a11.899 11.899 0 0 1 3.332-8.745m9.868 36.255h.253c10.28.184 18.867-7.843 19.458-18.184l.406-9.037a18.546 18.546 0 0 0-5.17-13.69A19.756 19.756 0 0 0 33.505 96h-1.026a19.757 19.757 0 0 0-14.29 6.086 18.544 18.544 0 0 0-5.171 13.69l.39 9.037c.59 10.34 9.179 18.368 19.457 18.184"/>
        <path fill="#FCC14A" d="M155.715 172.829v-14.38c0-7.305-5.734-13.227-12.807-13.227h-34.53c-7.073 0-12.807 5.922-12.807 13.227v14.38"/>
        <path stroke="#028283" stroke-linecap="round" stroke-width="6" d="M155.715 172.829v-14.38c0-7.305-5.734-13.227-12.807-13.227h-34.53c-7.073 0-12.807 5.922-12.807 13.227v14.38"/>
        <path fill="#028283" d="M114.996 106.742a13.122 13.122 0 0 1 9.482-4.028h1.027a13.122 13.122 0 0 1 9.482 4.028 11.9 11.9 0 0 1 3.332 8.762l-.4 9.03c-.451 6.74-6.098 11.923-12.8 11.75h-.254c-6.703.173-12.35-5.01-12.8-11.75l-.4-9.047a11.9 11.9 0 0 1 3.331-8.745m9.87 36.255h.252c10.28.184 18.867-7.843 19.458-18.184l.406-9.037a18.543 18.543 0 0 0-5.17-13.69A19.757 19.757 0 0 0 125.504 96h-1.027a19.758 19.758 0 0 0-14.29 6.086 18.541 18.541 0 0 0-5.17 13.69l.39 9.037c.59 10.34 9.178 18.368 19.457 18.184"/>
        <path fill="#FCC14A" d="M109.27 76.858v-14.38c0-7.304-5.734-13.227-12.807-13.227h-34.53c-7.073 0-12.807 5.923-12.807 13.227v14.38"/>
        <path stroke="#028283" stroke-linecap="round" stroke-width="6" d="M109.27 76.858v-14.38c0-7.304-5.734-13.227-12.807-13.227h-34.53c-7.073 0-12.807 5.923-12.807 13.227v14.38"/>
        <path fill="#028283" d="M69.997 10.742a13.121 13.121 0 0 1 9.482-4.028h1.026a13.12 13.12 0 0 1 9.482 4.028 11.897 11.897 0 0 1 3.331 8.761l-.4 9.031c-.45 6.74-6.097 11.923-12.8 11.75h-.253c-6.702.173-12.349-5.01-12.8-11.75l-.4-9.047a11.899 11.899 0 0 1 3.332-8.745m9.868 36.255h.253c10.28.183 18.867-7.843 19.458-18.184l.406-9.037a18.545 18.545 0 0 0-5.17-13.69A19.755 19.755 0 0 0 80.505 0h-1.026a19.755 19.755 0 0 0-14.29 6.086 18.543 18.543 0 0 0-5.171 13.69l.39 9.037c.59 10.34 9.179 18.367 19.457 18.184"/>
        <path fill="#FFF" d="M114.382 107.08a13.278 13.278 0 0 1 9.599-4.08h1.038a13.28 13.28 0 0 1 9.598 4.08 12.055 12.055 0 0 1 3.373 8.873l-.405 9.145c-.457 6.825-6.172 12.074-12.957 11.898h-.256c-6.785.176-12.5-5.073-12.957-11.898l-.406-9.162a12.053 12.053 0 0 1 3.373-8.856"/>
    </g>
</svg>
