<svg xmlns="http://www.w3.org/2000/svg" width="176" height="177" viewBox="0 0 176 177">
    <g fill="none" fill-rule="evenodd">
        <path d="M-2-3h180v180H-2z"/>
        <path fill="#FCC14A" d="M88.468 118.375h6.779c6.49 0 11.752 5.152 11.752 11.509 0 6.355-5.262 10.576-11.752 10.576h-5.423"/>
        <path stroke="#028283" stroke-linecap="round" stroke-width="6" d="M88.468 118.375h6.779c6.49 0 11.752 5.152 11.752 11.509 0 6.355-5.262 10.576-11.752 10.576h-5.423"/>
        <path fill="#FCC14A" d="M21.817 118h68.76L91 141.203H66.038V172H3v-35.237C3 126.4 11.425 118 21.817 118"/>
        <path stroke="#028283" stroke-linecap="round" stroke-width="6" d="M21.817 118h68.76L91 141.203H66.038V172H3v-35.237C3 126.4 11.425 118 21.817 118z"/>
        <path stroke="#028283" stroke-linecap="round" stroke-linejoin="round" stroke-width="6" d="M19.5 150v20M20 103c-2.762 0-5-2.462-5-5.5s2.238-5.5 5-5.5M58 103c2.762 0 5-2.462 5-5.5S60.762 92 58 92M38.5 115C28.282 115 20 106.47 20 95.947V82.052C20 71.53 28.283 63 38.5 63S57 71.53 57 82.052v13.895C57 106.47 48.717 115 38.5 115z"/>
        <path stroke="#028283" stroke-linecap="round" stroke-linejoin="round" stroke-width="6" d="M19 91.998s7.448.434 12.413-12.998c0 0 6.208 15.598 23.587 11.698"/>
        <path fill="#F0F0F0" d="M48 119c0 6.076-4.477 11-10 11s-10-4.924-10-11"/>
        <path stroke="#028283" stroke-linecap="round" stroke-linejoin="round" stroke-width="6" d="M48 118c0 6.076-4.477 11-10 11s-10-4.924-10-11"/>
        <path fill="#70CEEA" d="M173 174v-12.5c0-6.352-5.244-11.5-11.712-11.5h-31.576c-6.468 0-11.712 5.148-11.712 11.5V174h55z"/>
        <path stroke="#028283" stroke-linecap="round" stroke-linejoin="round" stroke-width="6" d="M173 174v-12.5c0-6.352-5.244-11.5-11.712-11.5h-31.576c-6.468 0-11.712 5.148-11.712 11.5V174h55z"/>
        <path fill="#028283" d="M135.997 109.6a11.847 11.847 0 0 1 8.534-3.6h.923a11.849 11.849 0 0 1 8.534 3.6 10.592 10.592 0 0 1 2.999 7.829l-.36 8.07c-.407 6.023-5.488 10.654-11.52 10.499h-.229c-6.032.155-11.114-4.476-11.52-10.5l-.36-8.084a10.59 10.59 0 0 1 2.999-7.814m8.881 32.397h.229c9.25.164 16.979-7.009 17.51-16.25l.367-8.075a16.508 16.508 0 0 0-4.654-12.233A17.841 17.841 0 0 0 145.454 100h-.923a17.843 17.843 0 0 0-12.861 5.439 16.502 16.502 0 0 0-4.654 12.233l.351 8.075c.532 9.241 8.26 16.414 17.511 16.25"/>
        <path fill="#FCC14A" d="M168 55.08l-8.941 2.238-.593 2.454a41.5 41.5 0 0 1-4.95 11.929l-1.316 2.154 4.749 7.908-7.187 7.188-7.907-4.75-2.155 1.318a41.692 41.692 0 0 1-11.93 4.95l-2.454.59L123.08 100H112.92l-2.238-8.941-2.453-.59a41.468 41.468 0 0 1-11.93-4.95L94.147 84.2l-7.908 4.751-7.188-7.188 4.75-7.908-1.316-2.154a41.573 41.573 0 0 1-4.95-11.93l-.592-2.453L68 55.08V44.922l8.942-2.238.592-2.454a41.362 41.362 0 0 1 4.95-11.93l1.316-2.153-4.75-7.91 7.188-7.185 7.908 4.748 2.154-1.317a41.694 41.694 0 0 1 11.929-4.95l2.453-.591L112.92 0h10.159l2.237 8.942 2.454.592a41.5 41.5 0 0 1 11.93 4.95l2.155 1.316 7.907-4.748 7.187 7.186-4.75 7.91 1.318 2.152a41.683 41.683 0 0 1 4.95 11.93l.592 2.454L168 44.922V55.08z"/>
        <path fill="#028283" d="M122.419 0h-8.84a6.492 6.492 0 0 0-6.298 4.916l-1.003 4.01a42.726 42.726 0 0 0-9.03 3.745l-3.544-2.128a6.486 6.486 0 0 0-7.932.975l-6.255 6.252a6.493 6.493 0 0 0-.976 7.934l2.128 3.544a42.456 42.456 0 0 0-3.746 9.032l-4.007 1.003A6.493 6.493 0 0 0 68 45.581v8.84a6.493 6.493 0 0 0 4.916 6.298l4.009 1.003a42.578 42.578 0 0 0 3.745 9.03l-2.129 3.543a6.492 6.492 0 0 0 .975 7.934l6.255 6.255a6.486 6.486 0 0 0 7.933.975l3.542-2.127a42.565 42.565 0 0 0 9.033 3.746l1.002 4.006a6.493 6.493 0 0 0 6.298 4.916h8.84a6.493 6.493 0 0 0 6.298-4.916l1.003-4.007a42.728 42.728 0 0 0 9.032-3.746l3.542 2.128a6.481 6.481 0 0 0 3.342.927c1.68 0 3.342-.65 4.594-1.903l6.253-6.255a6.492 6.492 0 0 0 .974-7.932l-2.127-3.543a42.518 42.518 0 0 0 3.747-9.032l4.007-1.002A6.493 6.493 0 0 0 168 54.421v-8.84a6.493 6.493 0 0 0-4.916-6.298l-4.01-1.003a42.754 42.754 0 0 0-3.745-9.031l2.129-3.545a6.493 6.493 0 0 0-.976-7.933l-6.253-6.253a6.49 6.49 0 0 0-7.933-.975l-3.544 2.127a42.545 42.545 0 0 0-9.032-3.747l-1.003-4.007A6.492 6.492 0 0 0 122.419 0m0 6.493l1.947 7.78 2.135.515a36.098 36.098 0 0 1 10.381 4.307l1.875 1.146 6.881-4.132 6.253 6.252-4.132 6.884 1.146 1.873a36.266 36.266 0 0 1 4.307 10.38l.515 2.136 7.78 1.947v8.84l-7.78 1.947-.515 2.134a36.113 36.113 0 0 1-4.307 10.38l-1.146 1.875 4.132 6.881-6.253 6.255-6.88-4.134-1.876 1.147a36.284 36.284 0 0 1-10.38 4.308l-2.136.513-1.947 7.78h-8.84l-1.947-7.78-2.135-.513a36.098 36.098 0 0 1-10.38-4.308l-1.874-1.147-6.882 4.134-6.254-6.255 4.133-6.881-1.145-1.874a36.185 36.185 0 0 1-4.307-10.38l-.515-2.135-7.78-1.947v-8.84l7.78-1.947.515-2.135a36.004 36.004 0 0 1 4.307-10.381l1.145-1.873-4.133-6.884 6.254-6.252 6.882 4.132 1.874-1.146a36.266 36.266 0 0 1 10.38-4.307l2.135-.515 1.947-7.78h8.84"/>
        <path fill="#028283" d="M119.015 46.084c-4.79-2.005-6.174-3.219-6.174-5.41 0-1.752 1.27-3.8 4.855-3.8 3.169 0 5.6 1.306 5.622 1.316a1.7 1.7 0 0 0 .827.22c.693 0 1.306-.44 1.56-1.118l.871-2.325a1.46 1.46 0 0 0-.743-1.85c-1.951-.888-5.765-1.575-5.803-1.582-.062-.011-.276-.059-.276-.32l-.012-3.373c0-1.015-.812-1.842-1.809-1.842h-1.562c-.996 0-1.807.826-1.807 1.843l.004 3.546c0 .272-.282.39-.385.415-4.814 1.198-7.822 4.882-7.822 9.528 0 5.793 4.583 8.411 9.532 10.377 3.957 1.622 5.57 3.267 5.57 5.681 0 2.626-2.285 4.46-5.56 4.46-2.796 0-6.581-1.851-6.618-1.87a1.702 1.702 0 0 0-.763-.18c-.72 0-1.347.455-1.598 1.16l-.831 2.35c-.296.879.16 1.592.742 1.91 2.324 1.263 6.821 2.004 7.022 2.037.053.008.327.109.327.37v3.53c0 1.016.812 1.843 1.81 1.843h1.612c.999 0 1.81-.827 1.81-1.843v-3.715c0-.348.246-.378.296-.391 5.13-1.203 8.288-5.124 8.288-10.045-.001-5.057-2.69-8.323-8.985-10.922"/>
    </g>
</svg>
