<svg xmlns="http://www.w3.org/2000/svg" width="171" height="177" viewBox="0 0 171 177">
    <g fill="none" fill-rule="evenodd">
        <path fill-rule="nonzero" d="M-5-2h180v180H-5z"/>
        <path fill-rule="nonzero" d="M-5-2h180v180H-5z"/>
        <path fill="#FCC14A" d="M112.592 60.78L92.559 53l-7.569 9.375L77.405 53l-19.996 7.78S50 63.837 50 72.31v24.677c0 .009.006.014.014.014H120V72.307c0-8.47-7.408-11.527-7.408-11.527"/>
        <path fill="#DB5966" d="M79 97h12l-3.133-27h-5.733z"/>
        <path fill="#70CEEA" d="M137.547 96H33.452C31.545 96 30 97.59 30 99.55v3.9c0 1.96 1.545 3.55 3.452 3.55h104.095c1.907 0 3.453-1.59 3.453-3.55v-3.9c0-1.96-1.546-3.55-3.453-3.55M37 131h95v-23H37z"/>
        <path fill="#028283" d="M112.673 63.566c2.845 1.255 5.805 4.612 5.805 9.124V93.758h-7.429V75.605a2.605 2.605 0 0 0-2.602-2.609 2.605 2.605 0 0 0-2.603 2.609v18.153H94.262l-2.716-22.699.53-.8a3.794 3.794 0 0 0 5.413-1.525v-.002l4.615-9.269 10.57 4.103zm-12.815-10.57l-3.669-1.423v-3.207l.044-.036c2.12-1.742 3.602-4.143 4.352-6.786l.874-3.08 2.012-.427 1.592-.61c4.864-2.897 5.702-9.352 1.648-13.201 0-3.584.085-5.092-.41-7.53l-1.794-5.217a21.307 21.307 0 0 0-2.351-3.676l-5.713-4.938A20.596 20.596 0 0 0 85.626.002c-11.4.176-20.435 9.75-20.435 21.174v3.172c-4.829 4.757-2.338 12.828 4.831 14.214a15.69 15.69 0 0 0 5.789 9.866v3.145c-.027.011-18.412 7.152-18.437 7.164-.369.151-9.037 3.84-9.037 13.951v21.068H34.05c-3.341 0-6.05 2.715-6.05 6.064v3.793a6.061 6.061 0 0 0 5.596 6.04v14.386c0 3.84 3.116 6.961 6.947 6.961h90.935c3.831 0 6.946-3.121 6.946-6.96v-14.388a6.06 6.06 0 0 0 5.576-6.039V99.82c0-3.349-2.708-6.064-6.05-6.064h-14.266v-7.749l-.018-14.11c-.282-6.163-4.586-11.438-9.067-13.18l-9.536-3.7-5.205-2.02zm38.093 45.979c.464 0 .842.378.842.845v3.793a.846.846 0 0 1-.842.847H34.049a.846.846 0 0 1-.844-.847V99.82c0-.467.378-.845.844-.845H137.95zm-4.732 25.064c0 .962-.78 1.745-1.742 1.745H40.543a1.745 1.745 0 0 1-1.742-1.745v-14.362h94.418v14.362zM53.543 72.69c0-6.469 5.431-8.962 5.797-9.122l10.565-4.105 4.616 9.27a3.792 3.792 0 0 0 5.413 1.526l.531.801-2.716 22.697H66.177V75.604a2.605 2.605 0 0 0-2.603-2.609 2.606 2.606 0 0 0-2.603 2.609v18.152h-7.428V72.69zm24.045-16.207l4.648 5.75-3.79 2.698-3.664-7.359 2.806-1.09zm-2.564-20.377l-.003-9.155c6.896-.187 13.998-2.717 18.734-5.554 1.615 1.734 2.624 2.797 3.125 3.36-.001 13.214.001 10.917-.008 11.302-.083 3.357-1.729 6.58-4.326 8.54-6.854 4.738-17.522.366-17.522-8.493zm19.392 20.374l2.812 1.092-3.664 7.359-3.796-2.702 4.648-5.75zm-8.41 2.116l-4.99-6.173v-1.203c3.215.97 6.822.982 9.969-.026v1.243l-4.98 6.16zm-1.82 8.648l1.82-1.294 1.819 1.294-.375.565H84.56l-.374-.565zm1.287 5.782h1.064l2.482 20.733h-6.028l2.482-20.733zm0 0h1.064l2.482 20.733h-6.028l2.482-20.733zm-12.915-51.34c-.733-.04-1.457 0-2.162.109v-.989c0-8.595 6.977-15.588 15.554-15.588 7.953 0 15.554 6.049 15.554 16.55a15.45 15.45 0 0 0-.378-.045c-.667-.82-1.629-1.799-4.328-4.706a3.826 3.826 0 0 0-4.91-.6c-4.996 3.27-12.497 5.628-19.33 5.269zm51.126 59.105v-3.676 3.676z"/>
        <path fill="#FCC14A" d="M55.287 173.18v-12.298c0-6.247-4.985-11.312-11.134-11.312H14.134C7.985 149.57 3 154.635 3 160.882v12.298"/>
        <path stroke="#028283" stroke-linecap="round" stroke-width="6" d="M55.287 173.18v-12.298c0-6.247-4.985-11.312-11.134-11.312H14.134C7.985 149.57 3 154.635 3 160.882v12.298"/>
        <path fill="#028283" d="M19.747 111.371a11.5 11.5 0 0 1 8.297-3.514h.898a11.498 11.498 0 0 1 8.297 3.514 10.363 10.363 0 0 1 2.915 7.642l-.35 7.878c-.395 5.88-5.336 10.401-11.2 10.249h-.222c-5.865.152-10.805-4.369-11.2-10.249l-.35-7.891a10.363 10.363 0 0 1 2.915-7.629m8.635 31.626h.221c8.994.16 16.509-6.842 17.026-15.863l.355-7.883a16.147 16.147 0 0 0-4.524-11.942A17.315 17.315 0 0 0 28.942 102h-.898a17.316 17.316 0 0 0-12.503 5.309 16.147 16.147 0 0 0-4.525 11.942l.341 7.883c.517 9.021 8.032 16.023 17.025 15.863"/>
        <path fill="#FFF" d="M19.881 111.48a11.306 11.306 0 0 1 8.176-3.48h.885a11.305 11.305 0 0 1 8.177 3.48 10.289 10.289 0 0 1 2.872 7.567l-.344 7.8c-.39 5.823-5.258 10.3-11.038 10.15h-.218c-5.78.15-10.649-4.327-11.038-10.15l-.345-7.814a10.29 10.29 0 0 1 2.873-7.554"/>
        <path fill="#FCC14A" d="M111.335 173.18v-12.298c0-6.247-4.984-11.312-11.134-11.312H70.183c-6.15 0-11.134 5.065-11.134 11.312v12.298"/>
        <path stroke="#028283" stroke-linecap="round" stroke-width="6" d="M111.335 173.18v-12.298c0-6.247-4.984-11.312-11.134-11.312H70.183c-6.15 0-11.134 5.065-11.134 11.312v12.298"/>
        <path fill="#028283" d="M75.747 111.371a11.498 11.498 0 0 1 8.297-3.514h.898a11.498 11.498 0 0 1 8.297 3.514 10.363 10.363 0 0 1 2.915 7.642l-.35 7.878c-.395 5.88-5.336 10.401-11.2 10.249h-.222c-5.865.152-10.805-4.369-11.2-10.249l-.35-7.891a10.363 10.363 0 0 1 2.915-7.629m8.635 31.626h.221c8.994.16 16.509-6.842 17.026-15.863l.355-7.883a16.147 16.147 0 0 0-4.525-11.942A17.314 17.314 0 0 0 84.942 102h-.898a17.318 17.318 0 0 0-12.504 5.309 16.15 16.15 0 0 0-4.524 11.942l.341 7.883c.517 9.021 8.032 16.023 17.025 15.863"/>
        <path fill="#FFF" d="M75.881 111.48a11.305 11.305 0 0 1 8.176-3.48h.885a11.305 11.305 0 0 1 8.177 3.48 10.289 10.289 0 0 1 2.872 7.567l-.345 7.8c-.389 5.823-5.258 10.3-11.037 10.15h-.218c-5.78.15-10.649-4.327-11.039-10.15l-.344-7.814a10.29 10.29 0 0 1 2.873-7.554"/>
        <path fill="#FCC14A" d="M167.335 173.18v-12.298c0-6.247-4.984-11.312-11.134-11.312h-30.018c-6.149 0-11.134 5.065-11.134 11.312v12.298"/>
        <path stroke="#028283" stroke-linecap="round" stroke-width="6" d="M167.335 173.18v-12.298c0-6.247-4.984-11.312-11.134-11.312h-30.018c-6.149 0-11.134 5.065-11.134 11.312v12.298"/>
        <path fill="#028283" d="M132.747 111.371a11.5 11.5 0 0 1 8.296-3.514h.899a11.498 11.498 0 0 1 8.297 3.514 10.363 10.363 0 0 1 2.915 7.642l-.35 7.878c-.395 5.88-5.336 10.401-11.2 10.249h-.222c-5.865.152-10.805-4.369-11.2-10.249l-.35-7.891a10.363 10.363 0 0 1 2.915-7.629m8.635 31.626h.221c8.994.16 16.509-6.842 17.026-15.863l.355-7.883a16.15 16.15 0 0 0-4.524-11.942A17.315 17.315 0 0 0 141.942 102h-.899a17.315 17.315 0 0 0-12.502 5.309 16.145 16.145 0 0 0-4.525 11.942l.34 7.883c.518 9.021 8.033 16.023 17.026 15.863"/>
        <path fill="#FFF" d="M132.88 111.48a11.306 11.306 0 0 1 8.177-3.48h.886a11.305 11.305 0 0 1 8.175 3.48 10.29 10.29 0 0 1 2.873 7.567l-.345 7.8c-.389 5.823-5.257 10.3-11.037 10.15h-.218c-5.78.15-10.649-4.327-11.038-10.15l-.345-7.814c-.11-2.81.928-5.54 2.873-7.554"/>
        <path fill="#70CEEA" d="M85.47 74h1.06L89 95h-6z"/>
        <path stroke="#028283" stroke-linecap="round" stroke-width="6" d="M38 95V61.207L46 46"/>
        <path fill="#FCC14A" d="M40 46.5a5.5 5.5 0 1 1 11 0 5.5 5.5 0 0 1-11 0"/>
        <path stroke="#028283" stroke-linecap="round" stroke-width="6" d="M40 46.5a5.5 5.5 0 1 1 11 0 5.5 5.5 0 0 1-11 0z"/>
    </g>
</svg>
