<svg xmlns="http://www.w3.org/2000/svg" xmlns:xlink="http://www.w3.org/1999/xlink" width="172" height="173" viewBox="0 0 172 173">
    <defs>
        <path id="a" d="M0 .326h73.873v91.23H0z"/>
    </defs>
    <g fill="none" fill-rule="evenodd">
        <path fill-rule="nonzero" d="M-4-3h180v180H-4z"/>
        <path fill="#F0F0F0" d="M84 61c3.078-2.634 5-6.33 5-10.423V20.828c0-.278-.012-.554-.028-.828"/>
        <path fill="#70CEEA" d="M72.542 63.094H57.618L54.862 78l-7.813-3.92-8.604-10.986H26.46C19.026 63.094 13 57.088 13 49.68V23.415C13 16.006 19.026 10 26.459 10h46.083C79.975 10 86 16.006 86 23.415v26.264c0 7.409-6.025 13.415-13.458 13.415"/>
        <path fill="#028283" d="M30.1 6h-3.616C16.844 6 9 12.467 9 20.415v29.643c0 7.949 7.843 14.415 17.484 14.415H38.71c.79 5.482 3.158 9.49 7.06 11.931C49.003 78.427 52.71 79 55.873 79c1.969 0 3.73-.223 5.035-.456 1.367-.245 2.34-1.258 2.315-2.412-.023-1.154-1.042-2.14-2.42-2.344-1.553-.229-2.613-.782-3.333-1.741-1.522-2.026-1.206-5.402-.719-7.574h15.763c2.78 0 5.408-.54 7.742-1.495l4.365-2.533C87.932 57.82 90 54.135 90 50.058V20.415c0-.278-.434-2.711-.453-2.985l-.694-2.143C86.339 9.864 79.965 6 72.515 6H30.101zm10.891 4.212h31.524c6.826 0 12.38 4.577 12.38 10.203v29.643c0 5.627-5.554 10.204-12.38 10.204H54.728c-1.132 0-2.128.614-2.449 1.509-.281.786-2.649 7.818.843 12.483.095.127.193.25.295.37-1.566-.222-3.154-.695-4.562-1.576-3.116-1.95-4.886-5.585-5.26-10.806-.081-1.112-1.198-1.98-2.549-1.98H26.484c-6.826 0-12.379-4.577-12.379-10.204V20.415c0-5.626 5.553-10.203 12.38-10.203H40.99z"/>
        <path fill="#028283" d="M36 36a6 6 0 1 1-12 0 6 6 0 0 1 12 0M53 36a6 6 0 1 1-12 0 6 6 0 0 1 12 0M71 36a6 6 0 1 1-12 0 6 6 0 0 1 12 0"/>
        <path fill="#F0F0F0" d="M93 152c-2.463-2.505-4-6.022-4-9.915v-28.297c0-.264.009-.527.023-.788"/>
        <path fill="#70CEEA" d="M104.72 152.97h14.106l2.606 14.03 7.385-3.69 8.132-10.34h11.33c7.026 0 12.721-5.652 12.721-12.625v-24.719c0-6.973-5.695-12.626-12.72-12.626h-43.56C97.696 103 92 108.653 92 115.626v24.72c0 6.972 5.695 12.625 12.72 12.625"/>
        <path fill="#028283" d="M134.379 103.04H105.19c-6.321 0-11.463 4.388-11.463 9.784v28.423c0 5.396 5.142 9.785 11.463 9.785h16.47c1.048 0 1.97.588 2.267 1.446.26.755 2.453 7.497-.781 11.971-.088.121-.179.24-.273.356 1.45-.214 2.92-.668 4.225-1.512 2.885-1.87 4.523-5.355 4.87-10.362.075-1.067 1.11-1.9 2.36-1.9h13.483c6.32 0 11.462-4.388 11.462-9.784v-28.423c0-5.396-5.141-9.785-11.462-9.785H134.38zM144.462 99h3.35c8.925 0 16.188 6.201 16.188 13.824v28.423c0 7.622-7.263 13.823-16.189 13.823h-11.32c-.73 5.257-2.924 9.1-6.537 11.44-2.993 1.94-6.426 2.49-9.355 2.49-1.823 0-3.454-.213-4.662-.437-1.266-.235-2.168-1.207-2.144-2.313.022-1.107.965-2.052 2.242-2.248 1.437-.22 2.419-.75 3.086-1.67 1.408-1.943 1.116-5.178.665-7.262H105.19c-2.573 0-5.008-.518-7.17-1.433l-4.04-2.43c-3.067-2.516-4.981-6.049-4.981-9.96v-28.423c0-.267.402-2.6.42-2.863l.643-2.056C92.391 102.706 98.292 99 105.19 99h39.272z"/>
        <path fill="#028283" d="M139 129a6 6 0 1 0 12 0 6 6 0 0 0-12 0M123 129a6 6 0 1 0 12 0 6 6 0 0 0-12 0M106 129a6 6 0 1 0 12 0 6 6 0 0 0-12 0"/>
        <path fill="#FCC14A" d="M63.698 140.545L43.95 133l-7.46 9.09-7.477-9.09-19.71 7.545S2 143.508 2 151.723v20.263c0 .01.007.014.015.014H71v-20.28c0-8.212-7.302-11.175-7.302-11.175"/>
        <path fill="#70CEEA" d="M36.058 150h.883L39 171h-5z"/>
        <path fill="#028283" d="M59 152c-1.104 0-2 1.18-2 2.638V173h4v-18.362c0-1.458-.895-2.638-2-2.638M15 152c-1.104 0-2 1.182-2 2.639V173h4v-18.361c0-1.457-.895-2.639-2-2.639"/>
        <g transform="translate(0 81)">
            <mask id="b" fill="#fff">
                <use xlink:href="#a"/>
            </mask>
            <path fill="#028283" d="M28.678 55.285l4.557 5.595-3.716 2.625-3.592-7.16 2.75-1.06zm-2.513-19.828l-.003-8.908c6.761-.18 13.724-2.644 18.367-5.404 1.583 1.687 2.573 2.722 3.064 3.27-.002 12.857.001 10.623-.009 10.998-.08 3.266-1.694 6.401-4.24 8.308-6.72 4.61-17.179.357-17.179-8.264zm-2.418-14.031a10.318 10.318 0 0 0-2.12.107v-.963c0-8.363 6.84-15.168 15.25-15.168 7.797 0 15.248 5.886 15.248 16.106a10.87 10.87 0 0 0-.37-.046c-.654-.796-1.596-1.75-4.242-4.578a3.772 3.772 0 0 0-4.815-.585c-4.898 3.182-12.252 5.477-18.951 5.127zm24.188 34.92l-3.593 7.16-3.722-2.63 4.556-5.594 2.759 1.063zm-15.896-5.01v-1.172c3.153.945 6.69.955 9.774-.025v1.21l-4.882 5.993-4.892-6.007zm4.892 13.16l1.783 1.26-.366.55h-2.835l-.367-.55 1.785-1.26zm-31.828 6.56c0-6.295 5.326-8.72 5.685-8.877l10.358-3.994 4.526 9.02a3.73 3.73 0 0 0 5.306 1.484l.521.78-2.663 22.086h16.19L42.362 69.47l.52-.78a3.736 3.736 0 0 0 5.31-1.484l4.523-9.02 10.362 3.992c2.79 1.221 5.691 4.488 5.691 8.878v20.5h5.105v-7.542l-.019-13.73c-.276-5.996-4.496-11.129-8.89-12.823l-9.348-3.601-5.104-1.965-3.596-1.386v-3.121a2.65 2.65 0 0 0 .043-.035c2.079-1.695 3.53-4.03 4.266-6.602l.858-2.998 1.972-.415 1.561-.594c4.768-2.819 5.59-9.099 1.615-12.845 0-3.487.084-4.954-.402-7.327l-1.758-5.076a20.713 20.713 0 0 0-2.305-3.577l-5.601-4.805A20.317 20.317 0 0 0 36.559.329C25.382.499 16.524 9.815 16.524 20.93v3.087c-4.734 4.629-2.293 12.482 4.737 13.83a15.25 15.25 0 0 0 5.675 9.601v3.06L8.859 57.48c-.362.148-8.86 3.737-8.86 13.576v20.5h5.104v-20.5z" mask="url(#b)"/>
        </g>
        <path fill="#70CEEA" d="M33 171h7l-1.807-21h-3.381z"/>
        <path fill="#028283" d="M0 173h73v-4H0z"/>
        <path fill="#FCC14A" d="M160.698 59.545L140.95 52l-7.46 9.09-7.478-9.09-19.71 7.545S99 62.508 99 70.722v20.264c0 .01.007.014.015.014H168V70.72c0-8.212-7.302-11.175-7.302-11.175"/>
        <path fill="#70CEEA" d="M135.058 69h.883L138 90h-5z"/>
        <path fill="#028283" d="M157 71c-1.104 0-2 1.18-2 2.639V92h4V73.639c0-1.458-.895-2.639-2-2.639M113 71c-1.104 0-2 1.182-2 2.638V92h4V73.638c0-1.456-.895-2.638-2-2.638"/>
        <path fill="#028283" d="M127.34 55.423l4.503 5.643c-2.155 1.553-3.591 2.59-3.673 2.647l-3.55-7.22 2.72-1.07zm-2.484-19.995l-.003-8.983c6.681-.182 13.562-2.666 18.15-5.45 1.564 1.701 2.543 2.745 3.028 3.297-.002 12.966 0 10.714-.009 11.09-.08 3.295-1.674 6.456-4.19 8.38-6.64 4.65-16.976.36-16.976-8.334zm-2.39-14.15a9.994 9.994 0 0 0-2.094.108v-.97c0-8.434 6.76-15.297 15.069-15.297 7.705 0 15.069 5.936 15.069 16.242a10.536 10.536 0 0 0-.366-.046c-.647-.803-1.578-1.764-4.193-4.617a3.673 3.673 0 0 0-4.758-.59c-4.84 3.21-12.106 5.523-18.726 5.17zm23.902 35.215l-3.55 7.22-3.678-2.651 4.503-5.641 2.725 1.072zM130.66 51.44v-1.182c3.116.953 6.61.964 9.659-.025v1.22l-4.824 6.044-4.835-6.057zm4.835 13.273l1.762 1.27-.362.554h-2.801l-.363-.555 1.764-1.27zm-31.452 6.614c0-6.349 5.263-8.794 5.617-8.952l10.236-4.028 4.472 9.097c.965 1.96 3.391 2.675 5.244 1.496l.515.787L127.495 92h16l-2.633-22.272.514-.785c1.854 1.177 4.28.462 5.246-1.498l4.47-9.096 10.24 4.026c2.757 1.231 5.624 4.526 5.624 8.953V92H172v-7.605l-.018-13.845c-.273-6.047-4.443-11.223-8.785-12.932l-9.238-3.631-5.044-1.983-3.553-1.397V47.46l.042-.035c2.054-1.71 3.489-4.065 4.216-6.658l.848-3.024 1.948-.419 1.543-.598c4.712-2.842 5.524-9.175 1.596-12.954 0-3.516.083-4.996-.397-7.389l-1.737-5.119a20.944 20.944 0 0 0-2.279-3.607l-5.534-4.845a19.767 19.767 0 0 0-10.48-2.81c-11.045.174-19.8 9.566-19.8 20.778v3.112c-4.677 4.668-2.265 12.588 4.682 13.948a15.437 15.437 0 0 0 5.608 9.681v3.086c-.027.01-17.839 7.019-17.864 7.03-.357.149-8.754 3.767-8.754 13.69V92h5.043V71.328z"/>
        <path fill="#70CEEA" d="M132 91h7l-1.807-21h-3.381z"/>
        <path fill="#028283" d="M99 93h73v-4H99z"/>
    </g>
</svg>
