<svg xmlns="http://www.w3.org/2000/svg" width="26" height="26" viewBox="0 0 26 26">
    <g fill="none" fill-rule="evenodd" transform="translate(1 1)">
        <circle cx="12" cy="12" r="12" stroke="#61586F"/>
        <path fill="#61586F" d="M12.034 13.82c-.99 0-1.794-.805-1.794-1.793a1.796 1.796 0 0 1 3.589 0c0 .988-.805 1.792-1.795 1.792zm0-4.898a3.11 3.11 0 0 0-3.108 3.105 3.109 3.109 0 0 0 6.216 0 3.11 3.11 0 0 0-3.108-3.105zm3.208.642a.735.735 0 1 1 .001-1.47.735.735 0 0 1 0 1.47zm1.513 5.449c0 .953-.776 1.729-1.732 1.729H9.044c-.954 0-1.73-.776-1.73-1.73V9.04a1.73 1.73 0 0 1 1.73-1.728h5.98c.955 0 1.73.775 1.73 1.728v5.973zM15.023 6H9.044A3.046 3.046 0 0 0 6 9.04v5.973a3.046 3.046 0 0 0 3.044 3.04h5.98a3.046 3.046 0 0 0 3.045-3.04V9.04A3.046 3.046 0 0 0 15.023 6z"/>
    </g>
</svg>
