<svg xmlns="http://www.w3.org/2000/svg" width="72" height="55" viewBox="0 0 72 55">
    <path fill="#4D5D7D" fill-rule="evenodd" d="M26.043 25.468c4.34 3.064 6.51 7.404 6.51 13.021 0 4.724-1.532 8.617-4.596 11.681-3.063 3.064-6.957 4.596-11.68 4.596-4.596 0-8.458-1.436-11.586-4.309C1.564 47.585 0 43.596 0 38.49c0-3.83 1.468-8.17 4.404-13.02L19.724 0H36l-9.957 25.468zm36 0c4.34 3.064 6.51 7.404 6.51 13.021 0 4.724-1.532 8.617-4.596 11.681-3.063 3.064-6.957 4.596-11.68 4.596-4.596 0-8.458-1.436-11.586-4.309C37.564 47.585 36 43.596 36 38.49c0-3.83 1.468-8.17 4.404-13.02L55.724 0H72l-9.957 25.468z" opacity=".1"/>
</svg>
