<svg xmlns="http://www.w3.org/2000/svg" width="26" height="26" viewBox="0 0 26 26">
    <g fill="none" fill-rule="evenodd" transform="translate(1 1)">
        <circle cx="12" cy="12" r="12" stroke="#61586F"/>
        <path fill="#61586F" d="M6.998 16.534h2.364V9.426H6.998v7.108zM8.196 6c-.81 0-1.339.53-1.339 1.228 0 .682.515 1.228 1.307 1.228h.016c.826 0 1.338-.546 1.338-1.228C9.503 6.53 9.006 6 8.196 6zm9.698 6.458v4.076h-2.366V12.73c0-.955-.342-1.607-1.198-1.607-.655 0-1.042.439-1.214.864-.062.152-.078.363-.078.576v3.97h-2.366s.031-6.44 0-7.108h2.366v1.008l-.016.022h.016v-.022c.314-.484.875-1.175 2.132-1.175 1.557 0 2.724 1.016 2.724 3.199z"/>
    </g>
</svg>
