<svg xmlns="http://www.w3.org/2000/svg" xmlns:xlink="http://www.w3.org/1999/xlink" width="30" height="19" viewBox="0 0 30 19">
    <defs>
        <path id="a" d="M0 0h30v18.633H0z"/>
    </defs>
    <g fill="none" fill-rule="evenodd">
        <mask id="b" fill="#fff">
            <use xlink:href="#a"/>
        </mask>
        <path fill="#562359" d="M2 16.733h26V1.9H2v14.832zm27 1.9H1c-.552 0-1-.426-1-.95V.95C0 .425.448 0 1 0h28c.553 0 1 .424 1 .95v16.732c0 .524-.447.95-1 .95z" mask="url(#b)"/>
        <path fill="#562359" d="M15 10.266c-.184 0-.37-.048-.532-.145l-14-8.367A.922.922 0 0 1 .154.444c.294-.443.912-.577 1.379-.298L15 8.194 28.468.146c.467-.28 1.085-.146 1.379.299a.922.922 0 0 1-.314 1.31l-14 8.366a1.043 1.043 0 0 1-.533.145" mask="url(#b)"/>
    </g>
</svg>
