<?xml version="1.0" encoding="UTF-8"?>
<svg width="1194px" height="389px" viewBox="0 0 1194 389" version="1.1" xmlns="http://www.w3.org/2000/svg" xmlns:xlink="http://www.w3.org/1999/xlink">
    <!-- Generator: sketchtool 52.5 (67469) - http://www.bohemiancoding.com/sketch -->
    <title>3195EBD3-30DC-4D84-ADF8-9FFCEDA4B9E8</title>
    <desc>Created with sketchtool.</desc>
    <defs>
        <polygon id="path-1" points="0.27355 0.19625 35.53055 0.19625 35.53055 92.5 0.27355 92.5"></polygon>
        <polygon id="path-3" points="0.1742 0.19625 35.4312 0.19625 35.4312 92.5 0.1742 92.5"></polygon>
        <polygon id="path-5" points="0 328.5 483.684 328.5 483.684 0.3905 0 0.3905"></polygon>
        <polygon id="path-7" points="0 381.683 373.244 381.683 373.244 0 0 0"></polygon>
        <polygon id="path-9" points="0 0.1846 60.4250641 0.1846 60.4250641 105.389603 0 105.389603"></polygon>
        <polygon id="path-11" points="0.0302793811 0.4455 45.2894 0.4455 45.2894 48.9364 0.0302793811 48.9364"></polygon>
    </defs>
    <g id="Our-Services" stroke="none" stroke-width="1" fill="none" fill-rule="evenodd">
        <g id="2.0-CG_Marketing-Web_Membership" transform="translate(-180.000000, -652.000000)">
            <g id="Group-16" transform="translate(180.000000, 652.000000)">
                <g id="Group-112" transform="translate(159.000000, 59.000000)">
                    <polygon id="Fill-1" fill="#1A4E6E" points="68.2173 236.30645 36.5093 328.60995 40.0613 328.60995 71.7663 236.30645"></polygon>
                    <polygon id="Fill-2" fill="#1A4E6E" points="121.8168 236.30645 90.1093 328.60995 93.6608 328.60995 125.3693 236.30645"></polygon>
                    <g id="Group-111" transform="translate(0.000000, 0.110000)">
                        <path d="M185.4469,220.3303 L156.4954,220.3303 C143.2004,220.3303 128.8839,210.8578 126.4349,197.7933 L112.5174,139.9923 C108.3494,117.7563 92.0749,120.3153 69.8419,120.3153 C47.6054,120.3153 27.8319,117.7563 31.9984,139.9923 L54.7094,226.8798 C55.7549,232.3228 60.5214,236.2573 66.0659,236.2503 L185.4569,236.1288 C189.8139,236.1218 193.3459,232.5868 193.3459,228.2293 C193.3459,223.8653 189.8074,220.3303 185.4469,220.3303" id="Fill-3" fill="#1A4E6E"></path>
                        <path d="M66.1947,226.8796 L43.4812,139.9921 C39.6822,119.7116 50.8567,120.8351 69.8417,118.0411 C67.9102,117.7701 66.7942,114.8571 64.8392,114.8571 C42.6027,114.8571 27.8317,117.7561 31.9982,139.9921 L54.7092,226.8796 C55.7547,232.3226 60.5212,236.2571 66.0657,236.2506 L77.4157,236.2366 C71.9322,236.1826 67.2297,232.2786 66.1947,226.8796" id="Fill-5" fill="#326C90"></path>
                        <g id="Group-9" transform="translate(159.500000, 236.000000)">
                            <mask id="mask-2" fill="white">
                                <use xlink:href="#path-1"></use>
                            </mask>
                            <g id="Clip-8"></g>
                            <polygon id="Fill-7" fill="#1A4E6E" mask="url(#mask-2)" points="0.27355 0.19625 31.98205 92.50025 35.53055 92.50025 3.82555 0.19625"></polygon>
                        </g>
                        <g id="Group-12" transform="translate(106.000000, 236.000000)">
                            <mask id="mask-4" fill="white">
                                <use xlink:href="#path-3"></use>
                            </mask>
                            <g id="Clip-11"></g>
                            <polygon id="Fill-10" fill="#1A4E6E" mask="url(#mask-4)" points="0.1742 0.19625 31.8792 92.50025 35.4312 92.50025 3.7232 0.19625"></polygon>
                        </g>
                        <path d="M228.3368,206.95775 C197.2848,191.36525 133.0373,162.08575 119.0558,162.45775 C119.0558,162.45775 85.7838,209.25225 109.3603,218.60625 C138.3563,230.10975 182.9613,228.33425 223.3498,227.73225 C237.3153,227.52225 241.5468,213.59175 228.3368,206.95775" id="Fill-13" fill="#A6425F"></path>
                        <path d="M241.11045,313.70675 L246.00795,311.33525 C246.00795,311.33525 247.00295,313.04825 247.83295,314.16125 C249.43295,316.31425 261.11945,317.76875 261.15445,320.67375 C261.18445,323.16375 254.18345,323.79325 251.66395,323.73875 C249.14695,323.68625 247.28395,323.27575 245.65595,322.53275 C243.88345,321.72425 240.90445,320.36975 240.42245,319.43425 C239.58445,317.80875 240.24545,316.86425 240.43345,316.03625 C240.65495,315.06175 241.11045,313.70675 241.11045,313.70675" id="Fill-15" fill="#B1516D"></path>
                        <path d="M245.7916,305.9607 C245.7916,305.9607 246.0416,311.1587 247.6691,312.7532 C249.4346,314.4822 252.5151,316.8877 252.4156,318.0867 C250.7326,319.5272 246.2366,318.6182 243.5801,317.9062 C242.2521,317.5497 241.2016,316.5432 240.7766,315.2357 C239.5491,311.4592 237.5331,304.1592 237.5331,304.1592 L245.7916,305.9607 Z" id="Fill-17" fill="#FAB9AF"></path>
                        <path d="M242.84045,325.551 C241.54645,318.5615 241.80295,321.0435 240.82445,318.535 C240.52845,317.775 242.77445,319.4805 242.77445,319.4805 L243.71845,325.653 L242.89945,325.871 L242.84045,325.551 Z" id="Fill-19" fill="#B1516D"></path>
                        <path d="M214.2081,230.33665 C227.1551,272.33665 237.9921,311.31215 237.9921,311.31215 C242.4376,311.53065 246.0181,310.15165 249.1956,308.19515 C249.1956,308.19515 244.9491,269.61315 238.9201,220.02015 C236.4561,199.78915 205.6671,202.64415 214.2081,230.33665" id="Fill-21" fill="#A6425F"></path>
                        <path d="M213.8939,206.95775 C182.8419,191.36525 102.6579,176.52875 88.6759,176.90075 C88.6759,176.90075 71.3409,209.25225 94.9174,218.60625 C123.9139,230.10975 168.5184,228.33425 208.9074,227.73225 C222.8724,227.52225 227.1039,213.59175 213.8939,206.95775" id="Fill-23" fill="#AF526D"></path>
                        <path d="M173.5848,308.32785 L178.9988,308.87685 C178.9988,308.87685 178.9478,310.85685 179.0703,312.23985 C179.3038,314.91185 188.4918,322.27885 186.9983,324.77085 C185.7183,326.90685 179.4273,323.77135 177.3103,322.40385 C175.1948,321.03935 173.8238,319.71285 172.8268,318.22635 C171.7413,316.60885 169.9153,313.89285 169.9953,312.84335 C170.1343,311.02035 171.1923,310.56285 171.7868,309.95585 C172.4863,309.24235 173.5848,308.32785 173.5848,308.32785" id="Fill-25" fill="#B1516D"></path>
                        <path d="M181.6329,304.18675 C181.6329,304.18675 179.1199,308.74425 179.6694,310.95525 C180.2664,313.35325 181.6274,317.01675 180.9139,317.98525 C178.7259,318.32975 175.3739,315.19725 173.4859,313.19775 C172.5419,312.19825 172.1754,310.79075 172.4989,309.45425 C173.4344,305.59525 175.5459,298.32275 175.5459,298.32275 L181.6329,304.18675 Z" id="Fill-27" fill="#FAB9AF"></path>
                        <path d="M168.8468,319.32005 C171.4108,312.68955 170.3268,314.93805 170.8098,312.28855 C170.9558,311.48655 171.9738,314.11705 171.9738,314.11705 L169.5413,319.86705 L168.7298,319.62255 L168.8468,319.32005 Z" id="Fill-29" fill="#B1516D"></path>
                        <path d="M194.3978,223.2329 C183.3968,265.7834 172.1853,304.6534 172.1853,304.6534 C175.8563,307.1704 179.6278,307.8744 183.3593,307.8744 C183.3593,307.8744 199.9763,272.7964 220.8493,227.4074 C229.3608,208.8894 201.6478,195.1749 194.3978,223.2329" id="Fill-31" fill="#AF526D"></path>
                        <path d="M149.85045,166.40355 L91.25895,163.58055 C91.25895,163.58055 83.86945,173.20655 85.80095,182.07705 C86.51795,185.36505 131.63695,190.38905 156.18395,176.07005 C158.18395,174.90355 149.85045,166.40355 149.85045,166.40355" id="Fill-33" fill="#B95572"></path>
                        <mask id="mask-6" fill="white">
                            <use xlink:href="#path-5"></use>
                        </mask>
                        <g id="Clip-36"></g>
                        <polygon id="Fill-35" fill="#1A4E6E" mask="url(#mask-6)" points="193.478 328.5 199.117 328.5 199.117 161.9035 193.478 161.9035"></polygon>
                        <polygon id="Fill-37" fill="#1A4E6E" mask="url(#mask-6)" points="266.1635 328.5 271.803 328.5 271.803 161.9035 266.1635 161.9035"></polygon>
                        <polygon id="Fill-38" fill="#1A4E6E" mask="url(#mask-6)" points="462.212 328.5 467.851 328.5 467.851 161.9035 462.212 161.9035"></polygon>
                        <polygon id="Fill-39" fill="#1A4E6E" mask="url(#mask-6)" points="19.989 328.5 25.628 328.5 25.628 161.9035 19.989 161.9035"></polygon>
                        <path d="M77.01185,83.6079 C83.92185,79.9584 89.05985,75.9694 93.61935,71.5949 C100.17485,65.3054 105.34135,53.8699 102.17785,43.3464 C100.66985,38.3244 100.52385,33.0439 101.98085,28.3834 C107.04735,12.1479 126.42435,11.1054 133.12885,17.2214 C158.22135,40.1169 170.16385,103.1944 140.76785,140.1604 C134.37685,148.1959 104.18385,171.7764 76.24685,157.1884 C63.83835,150.7099 59.99635,146.6349 56.06285,132.9159 C50.32035,112.8974 60.60335,92.2789 77.01185,83.6079" id="Fill-40" fill="#203A60" mask="url(#mask-6)"></path>
                        <path d="M114.036,40.8108 C115.218,41.7323 127.9485,53.4698 131.382,52.8273 C131.374,53.8848 128.449,65.2883 130.7895,71.2463 C129.9385,76.8463 117.1405,77.6478 113.106,68.2703 C121.1835,61.5493 114.812,45.9403 114.036,40.8108" id="Fill-41" fill="#FAB9AF" mask="url(#mask-6)"></path>
                        <path d="M193.8136,144.6101 C194.1671,145.2671 191.6636,147.3776 190.9321,147.4996 C189.0901,147.2641 189.2326,146.1886 187.4731,146.2186 C188.9991,145.9691 190.5546,145.3786 191.9421,144.6726 C192.6781,144.2351 193.3586,143.5456 193.8136,144.6101" id="Fill-42" fill="#FCD2C5" mask="url(#mask-6)"></path>
                        <path d="M109.4945,85.6245 C108.1695,82.754 123.307,78.81 124.064,80.184 C128.2425,87.7625 135.6185,113.466 141.305,125.8335 C148.2775,141.007 133.491,138.896 131.61,136.5435 C120.712,118.228 117.693,103.3845 109.4945,85.6245" id="Fill-43" fill="#FAB9AF" mask="url(#mask-6)"></path>
                        <path d="M126.20055,79.9758 C130.78355,84.0143 134.32355,104.1443 139.76105,116.2843 C135.44805,120.7238 133.03905,122.9503 125.01605,124.4063 C116.31655,111.2318 111.88355,92.4393 111.79255,87.5758 C111.55305,75.0613 119.71555,74.2623 126.20055,79.9758" id="Fill-44" fill="#C96B86" mask="url(#mask-6)"></path>
                        <path d="M112.71105,37.041 C111.62855,28.5255 116.38505,20.707 124.98305,19.611 C132.99005,18.595 140.87405,20.0015 143.09855,27.49 C143.89505,30.1695 142.71555,55.214 131.28555,59.255 C125.84955,61.177 114.65455,52.3065 113.83655,45.883 C113.83655,45.883 112.72205,37.1285 112.71105,37.041" id="Fill-45" fill="#FAB9AF" mask="url(#mask-6)"></path>
                        <path d="M106.81505,19.07005 C116.15905,6.51705 133.54455,11.20305 133.69605,18.27005 C145.91805,16.23005 147.59155,39.18455 141.61405,42.39205 C143.67705,27.81005 125.48755,25.22105 125.48755,25.22105 C123.76355,30.14855 118.71505,29.49155 116.49505,34.25405 C113.16205,41.40455 113.13855,38.42655 112.64755,40.36755 C112.64755,40.36755 96.23755,33.27955 106.81505,19.07005" id="Fill-46" fill="#203A60" mask="url(#mask-6)"></path>
                        <path d="M114.31235,30.791 C115.13335,30.865 115.90735,33.062 117.00185,33.9295 C116.07035,36.717 114.12035,39.2865 113.07635,41.467 C111.10785,40.7355 110.72635,37.742 110.90535,35.7065 C111.09635,33.553 112.15835,30.5985 114.31235,30.791" id="Fill-47" fill="#FAB9AF" mask="url(#mask-6)"></path>
                        <path d="M136.36365,49.12645 C136.37765,49.26245 136.32415,49.39795 136.21615,49.50595 C135.96615,49.75345 135.43265,50.16145 134.58715,50.21395 C133.54115,50.27845 133.17415,49.89845 133.05115,49.68445 C133.00765,49.60895 132.99515,49.52445 133.00465,49.43945 L133.69765,43.43795 C133.71365,43.29945 133.79615,43.17095 133.92865,43.08095 C134.18265,42.90845 134.60615,42.64395 134.82315,42.63745 C134.99515,42.63245 135.31765,42.81095 135.53065,42.94245 C135.66465,43.02495 135.74815,43.14945 135.76215,43.28895 L136.36365,49.12645 Z" id="Fill-48" fill="#FA978D" mask="url(#mask-6)"></path>
                        <path d="M103.81845,92.92185 C102.49345,90.05185 114.38745,86.10735 115.14445,87.48135 C119.33195,95.07535 126.71245,120.79085 132.38545,133.13085 C139.35845,148.30435 123.79545,144.65285 121.91445,142.29985 C111.01645,123.98435 112.01695,110.68235 103.81845,92.92185" id="Fill-49" fill="#FAB9AF" mask="url(#mask-6)"></path>
                        <path d="M117.2357,87.40845 C121.7467,91.52645 124.9342,111.71495 130.1587,123.94845 C125.7687,128.31195 123.3212,130.49595 115.2742,131.81095 C106.8062,118.48645 102.7027,99.61945 102.6967,94.75495 C102.6762,82.23845 110.8517,81.58195 117.2357,87.40845" id="Fill-50" fill="#C96B86" mask="url(#mask-6)"></path>
                        <path d="M77.01185,83.6079 C83.92185,79.9584 89.05985,75.9694 93.61935,71.5949 C100.17485,65.3054 105.34135,53.8699 102.17785,43.3464 C100.66985,38.3244 100.52385,33.0439 101.98085,28.3834 C107.04735,12.1479 126.42435,11.1054 133.12885,17.2214 C158.22135,40.1169 170.16385,103.1944 140.76785,140.1604 C134.37685,148.1959 104.18385,171.7764 76.24685,157.1884 C63.83835,150.7099 59.99635,146.6349 56.06285,132.9159 C50.32035,112.8974 60.60335,92.2789 77.01185,83.6079" id="Fill-51" fill="#203A60" mask="url(#mask-6)"></path>
                        <path d="M114.036,40.8108 C115.218,41.7323 127.9485,53.4698 131.382,52.8273 C131.374,53.8848 127.692,64.1218 131.0365,69.5273 C130.185,75.1273 116.895,77.4178 112.86,68.0408 C120.9375,61.3193 114.812,45.9403 114.036,40.8108" id="Fill-52" fill="#FAB9AF" mask="url(#mask-6)"></path>
                        <path d="M112.71105,37.041 C111.62855,28.5255 116.38505,20.707 124.98305,19.611 C132.99005,18.595 140.87405,20.0015 143.09855,27.49 C143.89505,30.1695 142.71555,55.214 131.28555,59.255 C125.84955,61.177 114.65455,52.3065 113.83655,45.883 C113.83655,45.883 112.72205,37.1285 112.71105,37.041" id="Fill-53" fill="#FAB9AF" mask="url(#mask-6)"></path>
                        <path d="M106.81505,19.07005 C116.15905,6.51705 133.54455,11.20305 133.69605,18.27005 C145.91805,16.23005 147.59155,39.18455 141.61405,42.39205 C143.67705,27.81005 125.48755,25.22105 125.48755,25.22105 C123.76355,30.14855 118.71505,29.49155 116.49505,34.25405 C113.16205,41.40455 113.13855,38.42655 112.64755,40.36755 C112.64755,40.36755 96.23755,33.27955 106.81505,19.07005" id="Fill-54" fill="#203A60" mask="url(#mask-6)"></path>
                        <path d="M114.31235,30.791 C115.13335,30.865 115.90735,33.062 117.00185,33.9295 C116.07035,36.717 114.12035,39.2865 113.07635,41.467 C111.10785,40.7355 110.72635,37.742 110.90535,35.7065 C111.09635,33.553 112.15835,30.5985 114.31235,30.791" id="Fill-55" fill="#FAB9AF" mask="url(#mask-6)"></path>
                        <path d="M136.36365,49.12645 C136.37765,49.26245 136.32415,49.39795 136.21615,49.50595 C135.96615,49.75345 135.43265,50.16145 134.58715,50.21395 C133.54115,50.27845 133.17415,49.89845 133.05115,49.68445 C133.00765,49.60895 132.99515,49.52445 133.00465,49.43945 L133.69765,43.43795 C133.71365,43.29945 133.79615,43.17095 133.92865,43.08095 C134.18265,42.90845 134.60615,42.64395 134.82315,42.63745 C134.99515,42.63245 135.31765,42.81095 135.53065,42.94245 C135.66465,43.02495 135.74815,43.14945 135.76215,43.28895 L136.36365,49.12645 Z" id="Fill-56" fill="#FA978D" mask="url(#mask-6)"></path>
                        <path d="M192.37315,90.3176 C193.51365,88.9781 194.84065,87.6521 196.23765,86.4246 C197.86865,84.9546 201.88815,82.0836 202.16965,81.8851 C203.01965,81.3471 204.97415,79.7261 205.73765,79.5141 C206.22515,79.3761 207.70215,79.5571 208.19565,79.9386 C208.84915,80.4411 208.54215,81.3021 208.54215,81.3021 C209.50365,81.7756 207.87365,83.9256 208.13465,83.9896 C209.20215,84.2501 209.17115,85.7886 205.97165,87.9606 C205.78165,88.0901 198.97665,94.9781 196.62165,97.0016 C195.26365,95.6521 192.31465,90.4006 192.37315,90.3176" id="Fill-57" fill="#FAB9AF" mask="url(#mask-6)"></path>
                        <path d="M104.74425,98.5798 C101.94375,97.1133 108.96325,86.7333 110.40125,87.3603 C118.35125,90.8243 139.88475,106.7013 151.90725,113.0198 C166.68725,120.7908 152.12725,127.3898 149.20175,126.6723 C129.39425,118.8053 122.07375,107.6533 104.74425,98.5798" id="Fill-58" fill="#FAB9AF" mask="url(#mask-6)"></path>
                        <path d="M112.014,86.02685 C118.1005,86.53835 132.9405,100.59335 144.5415,107.10085 C143.724,113.23635 143.117,116.46035 137.542,122.41085 C122.7045,117.01635 107.945,104.56785 104.973,100.71635 C97.323,90.80985 103.401,85.30335 112.014,86.02685" id="Fill-59" fill="#C96B86" mask="url(#mask-6)"></path>
                        <path d="M144.80945,118.1416 C145.20695,117.6106 145.64645,117.1766 146.06445,116.8851 C153.75145,111.5446 185.62595,96.7206 192.74895,89.8836 C194.44095,92.6181 196.03395,94.7776 197.53645,96.1646 C185.59795,107.1746 156.26645,129.3091 150.70345,125.9721 C145.60395,122.9136 143.05495,120.5011 144.80945,118.1416" id="Fill-60" fill="#FAB9AF" mask="url(#mask-6)"></path>
                        <path d="M99.49595,120.7844 C93.90945,98.1669 84.20645,92.0644 101.64345,74.1894 C104.12645,71.6409 113.53595,67.4324 113.53595,67.4324 C113.53595,67.4324 119.27695,72.5559 124.09895,72.3709 C127.41145,72.2429 130.56345,68.7839 130.56345,68.7839 C130.56345,68.7839 136.37895,70.1209 138.26645,71.7569 C139.30745,72.6594 143.74795,83.9089 149.07745,91.2174 C159.91895,106.0804 147.05645,117.4409 146.78345,125.0779 C146.25895,139.6814 146.11995,156.1859 152.68345,169.5704 C132.62595,184.5404 109.73645,189.0989 85.53345,179.4414 C85.60595,159.5034 105.37895,144.6014 99.49595,120.7844" id="Fill-61" fill="#B95572" mask="url(#mask-6)"></path>
                        <path d="M178.29965,139.822 C180.02065,139.4565 181.88065,139.215 183.73665,139.094 C185.92565,138.924 190.86215,139.1005 191.20615,139.1145 C192.20815,139.207 194.74565,139.1145 195.48015,139.412 C195.95065,139.6 197.01015,140.6445 197.16865,141.2475 C197.38015,142.0445 196.61165,142.5395 196.61165,142.5395 C197.08515,143.501 194.48215,144.211 194.64965,144.4205 C195.33665,145.2785 194.37365,146.4785 190.51365,146.248 C190.28415,146.235 180.69015,147.543 177.59015,147.71 C177.33665,145.8125 178.20315,139.852 178.29965,139.822" id="Fill-62" fill="#FAB9AF" mask="url(#mask-6)"></path>
                        <path d="M103.81845,92.92185 C102.49345,90.05185 114.38745,86.10735 115.14445,87.48135 C119.33195,95.07535 126.71245,120.79085 132.38545,133.13085 C139.35845,148.30435 123.79545,144.65285 121.91445,142.29985 C111.01645,123.98435 112.01695,110.68235 103.81845,92.92185" id="Fill-63" fill="#FAB9AF" mask="url(#mask-6)"></path>
                        <path d="M117.2357,87.40845 C121.7467,91.52645 124.9342,111.71495 130.1587,123.94845 C125.7687,128.31195 123.3212,130.49595 115.2742,131.81095 C106.8062,118.48645 102.7027,99.61945 102.6967,94.75495 C102.6762,82.23845 110.8517,81.58195 117.2357,87.40845" id="Fill-64" fill="#C96B86" mask="url(#mask-6)"></path>
                        <path d="M123.63705,132.8608 C124.27605,132.6823 124.88855,132.6068 125.39805,132.6308 C134.74705,133.0873 169.04755,140.7808 178.86255,139.7073 C178.53555,142.9063 178.48055,145.5893 178.82505,147.6048 C162.64905,149.0483 125.90505,148.6983 123.53155,142.6613 C121.35605,137.1268 120.80755,133.6603 123.63705,132.8608" id="Fill-65" fill="#FAB9AF" mask="url(#mask-6)"></path>
                        <path d="M9.3148,162.093 L474.3688,162.093 C479.5133,162.093 483.6838,157.9225 483.6838,152.778 C483.6838,147.6335 479.5133,143.463 474.3688,143.463 L9.3148,143.463 C4.1703,143.463 0.0003,147.6335 0.0003,152.778 C0.0003,157.9225 4.1703,162.093 9.3148,162.093" id="Fill-66" fill="#326C90" mask="url(#mask-6)"></path>
                        <path d="M305.0001,122.75485 C306.5391,123.51335 308.2646,124.13985 309.9511,124.39485 C308.0086,124.38485 308.1836,125.57335 306.1536,125.85835 C305.3441,125.73435 302.5531,123.44285 302.9321,122.70935 C303.4191,121.53185 304.1806,122.28185 305.0001,122.75485" id="Fill-67" fill="#FCD2C5" mask="url(#mask-6)"></path>
                        <path d="M296.2447,140.83055 L221.6667,140.83055 C221.0037,140.83055 220.5672,140.13955 220.8522,139.54055 L233.7252,93.01755 C233.8632,92.72805 234.1437,92.53355 234.4632,92.50655 L306.9087,89.70305 C307.5552,89.64755 308.0467,90.27255 307.8412,90.88755 L297.1002,140.21455 C296.9772,140.58255 296.6327,140.83055 296.2447,140.83055" id="Fill-68" fill="#1A4E6E" mask="url(#mask-6)"></path>
                        <polygon id="Fill-69" fill="#326C90" mask="url(#mask-6)" points="223.73985 138.61915 235.39935 94.64565 305.11285 92.07565 295.30185 138.61915"></polygon>
                        <polygon id="Fill-70" fill="#1A4E6E" mask="url(#mask-6)" points="196.6345 143.965 297.242 143.965 297.242 140.7655 196.6345 140.7655"></polygon>
                        <polygon id="Fill-71" fill="#1A4E6E" mask="url(#mask-6)" points="239.45545 102.15355 260.63145 101.66255 252.01195 134.01105 230.43245 134.09855"></polygon>
                        <polygon id="Fill-72" fill="#1A4E6E" mask="url(#mask-6)" points="262.15465 121.4719 291.61215 120.6324 292.11215 118.5089 262.69615 119.3464"></polygon>
                        <polygon id="Fill-73" fill="#1A4E6E" mask="url(#mask-6)" points="259.7833 130.77465 289.4228 129.92465 289.9113 127.85065 260.3123 128.69865"></polygon>
                        <polygon id="Fill-74" fill="#FDC149" mask="url(#mask-6)" points="260.93345 126.26195 290.48495 125.41695 291.03845 123.06595 261.53345 123.90845"></polygon>
                        <polygon id="Fill-75" fill="#FDC149" mask="url(#mask-6)" points="263.31745 116.90965 292.68545 116.07515 293.23945 113.72415 263.91745 114.55615"></polygon>
                        <polygon id="Fill-76" fill="#FDC149" mask="url(#mask-6)" points="265.85435 106.958 295.02735 106.135 295.58135 103.784 266.45435 104.6045"></polygon>
                        <polygon id="Fill-77" fill="#1A4E6E" mask="url(#mask-6)" points="264.5384 112.11935 293.8124 111.29035 294.4539 108.56835 265.2334 109.39435"></polygon>
                        <path d="M297.32725,126.53025 C297.69875,126.43625 302.98525,125.12675 305.38975,124.81125 C307.42075,124.52425 309.48425,124.36025 311.42625,124.36475 C311.53625,124.37375 313.82825,130.61175 313.98175,132.72125 C310.59825,133.24425 299.94125,134.00975 299.69425,134.07625 C295.58025,135.20175 294.26725,134.12425 294.81625,133.04075 C294.94925,132.77825 291.97625,132.60425 292.27025,131.45725 C292.27025,131.45725 291.32825,131.09825 291.37625,130.18675 C291.41075,129.50125 292.31825,128.13475 292.78125,127.82025 C293.50725,127.33425 296.26875,126.85675 297.32725,126.53025" id="Fill-78" fill="#FCD2C5" mask="url(#mask-6)"></path>
                        <path d="M366.9127,104.5886 C367.4572,104.4471 368.1342,104.3901 368.8677,104.4376 C372.1022,104.6596 376.4222,106.9841 375.3282,113.4511 C374.1337,120.5131 330.4202,130.7726 312.6247,132.8881 C312.5387,130.6326 311.8697,127.7496 310.7927,124.3671 C321.6337,123.3036 356.9212,107.2046 366.9127,104.5886" id="Fill-79" fill="#FCD2C5" mask="url(#mask-6)"></path>
                        <path d="M345.66955,110.1677 C351.54605,107.8372 357.11655,105.6257 361.30955,104.1312 C361.88905,103.1427 362.56205,102.1362 363.31455,101.1242 C367.72305,95.2027 367.36705,76.5947 376.37905,72.3562 C384.33605,68.6132 392.91005,69.4152 393.15755,85.8612 C393.32205,96.7967 384.67605,110.5252 374.42955,117.8597 C364.71855,125.0267 328.54655,133.1682 312.87855,135.0287 L310.58005,122.2217 C316.86555,121.5987 332.83705,115.2617 345.66955,110.1677" id="Fill-80" fill="#B95572" mask="url(#mask-6)"></path>
                        <path d="M262.3253,201.1611 C299.3613,181.7491 358.6808,189.0371 372.6308,189.9281 C380.0758,190.3976 388.1698,206.4151 368.0503,216.2756 C341.8773,229.0996 303.5648,226.3921 258.5578,223.9336 C258.5578,223.9336 249.4293,207.9206 262.3253,201.1611" id="Fill-81" fill="#C96B86" mask="url(#mask-6)"></path>
                        <polygon id="Fill-82" fill="#FAB9AF" mask="url(#mask-6)" points="304.1893 308.57835 311.1188 302.72835 307.1428 295.40135 300.7813 301.76285"></polygon>
                        <path d="M283.1173,222.52975 C288.4838,229.56975 285.5843,238.44125 308.7898,297.73025 C306.4663,300.12475 301.9133,302.41925 300.3838,305.22725 C300.3838,305.22725 274.5373,268.67875 256.0818,222.30275 C247.2213,200.03825 273.7793,195.12175 283.1173,222.52975" id="Fill-83" fill="#C96B86" mask="url(#mask-6)"></path>
                        <polygon id="Fill-84" fill="#FAB9AF" mask="url(#mask-6)" points="362.23665 305.2844 357.80665 297.7869 365.13315 295.0609 367.17815 303.9209"></polygon>
                        <path d="M347.0716,231.16305 C361.2341,272.72905 368.4721,298.26555 368.4721,298.26555 C364.6551,297.17005 360.0741,299.23855 358.5446,302.04655 C358.5446,302.04655 346.3146,277.41255 322.1041,233.76105 C316.0836,222.90655 324.7446,218.78105 333.6541,218.76655 C339.3591,218.75705 343.4266,220.46355 347.0716,231.16305" id="Fill-85" fill="#B95572" mask="url(#mask-6)"></path>
                        <path d="M333.58455,156.802 C341.44155,159.289 349.84755,160.3595 358.69455,160.138 C372.99355,159.785 387.07355,157.522 401.23255,155.483 C404.50205,155.0085 407.70355,154.541 410.81005,153.8865 C412.18905,167.363 413.13955,180.8565 413.20155,192.846 C411.84255,192.963 381.87855,217.2465 344.84505,202.1615 C337.64705,199.229 329.19655,194.844 325.01005,178.27 C330.93055,174.196 333.62655,171.8915 333.58455,156.802" id="Fill-86" fill="#A6425F" mask="url(#mask-6)"></path>
                        <path d="M370.8131,37.00755 C370.0511,42.32305 372.6021,59.74355 374.4421,62.52155 C370.0661,72.29905 353.1066,69.66255 351.9926,63.90005 C354.5201,57.69655 351.8381,46.17805 351.8031,45.08955 C355.7376,45.67105 369.4871,37.99005 370.8131,37.00755" id="Fill-87" fill="#FAB9AF" mask="url(#mask-6)"></path>
                        <path d="M351.0616,9.5908 C360.6376,10.2178 366.4226,18.5318 365.8041,28.0148 C365.7981,28.1118 365.1596,37.8608 365.1596,37.8608 C364.6916,45.0123 357.2251,56.4508 346.7871,53.8158 C332.1551,50.1273 330.8846,22.5388 331.5836,19.5228 C333.5326,11.0968 342.1491,9.0068 351.0616,9.5908" id="Fill-88" fill="#FAB9AF" mask="url(#mask-6)"></path>
                        <path d="M341.2728,68.8401 C343.1433,67.5336 352.6093,62.4736 352.6093,62.4736 C352.6093,62.4736 360.3798,64.7696 365.3138,63.5676 C370.8078,62.2291 373.3123,59.4066 373.3123,59.4066 C373.3123,59.4066 381.6008,62.2071 384.6398,63.0321 C393.7588,65.4996 394.1003,80.0241 395.5768,89.8501 C395.9023,92.0151 398.1448,140.8856 398.3823,187.6741 C397.0253,187.7931 395.4733,187.9806 393.7593,188.2241 L391.8873,158.0466 L390.1848,188.6791 C372.4388,191.7766 365.1253,199.6756 343.0378,194.2636 L340.9418,169.8461 L338.6313,193.1856 C329.2053,190.3436 325.0873,179.0766 324.7068,178.3171 C336.1228,159.3436 334.9553,102.4711 335.1788,97.1006 C335.6563,85.5781 330.0638,76.6661 341.2728,68.8401" id="Fill-89" fill="#C96B86" mask="url(#mask-6)"></path>
                        <path d="M259.9276,164.57175 C261.4691,165.31675 264.3726,166.63775 266.0616,166.87875 C266.1951,168.41925 264.8666,169.15425 262.8136,169.15175 C261.9976,169.15175 257.4846,165.27275 257.8596,164.53775 C258.3401,163.35275 259.1051,164.09975 259.9276,164.57175" id="Fill-90" fill="#FAB9AF" mask="url(#mask-6)"></path>
                        <path d="M249.88855,170.3342 C250.61255,169.8427 260.07855,167.5797 262.48155,167.2537 C264.51005,166.9542 266.57205,166.7792 268.51405,166.7717 C268.62255,166.7817 270.95055,173.0062 271.11805,175.1137 C265.76205,176.2937 260.52655,176.6807 257.13405,177.1942 C252.91705,177.8342 251.13555,177.1722 251.97205,175.9677 C252.13905,175.7242 248.56605,175.9702 249.39805,173.9697 C249.39805,173.9697 247.83205,173.3057 247.78855,172.3932 C247.72405,171.0282 249.42755,170.6482 249.88855,170.3342" id="Fill-91" fill="#FAB9AF" mask="url(#mask-6)"></path>
                        <path d="M320.5926,144.23535 C323.7746,143.61235 329.2436,146.23335 329.8556,152.76235 C330.5276,159.89235 286.2006,171.78235 271.0231,175.12835 C270.3601,172.96985 268.6751,170.31485 266.7621,167.33135 C276.9621,163.49885 309.7661,149.99085 318.7421,144.88485 C319.2321,144.60785 319.8726,144.37635 320.5926,144.23535" id="Fill-92" fill="#FAB9AF" mask="url(#mask-6)"></path>
                        <path d="M326.62435,111.8877 C328.68585,101.3217 330.09735,92.3577 332.24735,82.8357 C332.84385,80.1947 339.83485,62.8117 351.27685,76.6627 C358.48835,85.3917 341.80385,141.8262 334.38685,152.0152 C327.42085,161.8682 291.73035,170.6582 277.05685,175.2642 L272.77035,163.2822 C278.54135,160.7172 316.57735,145.5702 320.08735,142.8297 C320.32685,141.7127 324.54885,122.5197 326.62435,111.8877" id="Fill-93" fill="#A6425F" mask="url(#mask-6)"></path>
                        <path d="M371.9088,43.93065 C374.4428,41.50115 382.7388,31.48165 372.5708,11.83465 C372.5708,11.83465 360.7388,-4.40885 346.0998,1.80765 C346.0998,1.80765 332.0623,10.23065 329.2543,8.62615 C326.4468,7.02215 317.6233,16.24665 328.0513,20.05665 C334.5278,22.42315 338.6838,22.00465 340.9033,21.34815 C342.1463,20.98065 343.4713,21.58115 344.0653,22.73315 L345.6818,25.86515 C346.3438,27.14715 348.0978,27.37765 349.0433,26.28765 C350.8263,24.23165 353.3993,22.07515 354.5223,25.07015 C356.3273,29.88315 355.3248,35.89965 352.9183,34.49565 C350.5118,33.09165 355.6768,45.77515 360.7388,47.12915 C360.7388,47.12915 365.0483,47.16965 366.4208,46.79515 C367.5243,46.49415 369.9043,45.43415 369.9043,45.43415 C370.4378,45.30215 371.5123,44.31065 371.9088,43.93065" id="Fill-94" fill="#203A60" mask="url(#mask-6)"></path>
                        <path d="M332.6258,40.8579 C332.6258,40.8579 333.3733,41.7269 334.7803,41.6699 C336.4378,41.6019 336.5208,40.7224 336.5208,40.7224 L334.9463,33.6199 C334.9463,33.6199 333.9893,33.0514 333.6203,33.0784 C333.3108,33.1014 332.6258,33.6874 332.6258,33.6874 L332.6258,40.8579 Z" id="Fill-95" fill="#FA978D" mask="url(#mask-6)"></path>
                        <polygon id="Fill-96" fill="#1A4E6E" mask="url(#mask-6)" points="458.2445 323.6262 454.695 323.6262 423.0155 231.4052 426.5645 231.4052"></polygon>
                        <polygon id="Fill-97" fill="#1A4E6E" mask="url(#mask-6)" points="404.6876 323.6262 401.1396 323.6262 369.4606 231.4052 373.0076 231.4052"></polygon>
                        <path d="M309.4322,215.55125 L338.3577,215.55125 C351.6407,215.55125 365.9482,206.08475 368.3937,193.03175 L386.0377,115.28325 C390.1977,93.06575 407.8452,95.05575 430.0612,95.05575 C452.2767,95.05575 470.6477,93.06575 466.4882,115.28325 L440.0602,222.09475 C439.0142,227.53325 434.2502,231.46375 428.7117,231.45625 L309.4227,231.33225 C305.0692,231.32975 301.5407,227.79625 301.5407,223.44275 C301.5407,219.08225 305.0737,215.55125 309.4322,215.55125" id="Fill-98" fill="#1A4E6E" mask="url(#mask-6)"></path>
                        <path d="M309.4322,215.66305 L338.3577,215.66305 C351.6407,215.66305 365.9482,206.14305 368.3937,193.08555 L381.7457,135.16305 C388.5612,89.15655 398.1797,94.73505 427.9787,94.49555 C460.0882,94.23705 464.4432,98.01705 466.8287,106.42305 C461.7857,103.46905 446.5522,99.94805 426.7862,101.14105 C404.6102,102.47905 394.7877,97.14155 388.1992,143.60205 L375.3887,201.74405 C372.9442,214.80205 358.6377,224.22155 345.3537,224.22155 L316.4282,224.22155 C313.1697,224.22155 314.3722,228.49255 313.1677,231.31005 L309.4227,231.36105 C305.0692,231.35655 301.5407,227.85205 301.5407,223.49905 C301.5407,219.13805 305.0737,215.66305 309.4322,215.66305" id="Fill-99" fill="#326C90" mask="url(#mask-6)"></path>
                        <path d="M304.22545,306.15355 L294.13995,308.89055 C293.17895,309.17955 292.40545,309.89955 292.05245,310.83955 C291.76995,311.59105 291.62145,312.82005 292.10045,312.90355 C299.61595,314.21055 308.35045,310.52855 308.35045,310.52855 L304.22545,306.15355 Z" id="Fill-100" fill="#B95572" mask="url(#mask-6)"></path>
                        <path d="M314.23375,307.5974 L311.55775,303.3564 C311.16575,302.7339 310.43075,302.4129 309.71025,302.5599 C307.50775,303.0089 303.12975,304.3394 303.56325,307.7719 C303.56325,307.7719 304.23175,309.8729 305.04175,311.5574 C305.41025,312.3229 306.32075,312.6569 307.10225,312.3214 L313.63675,309.5184 C314.38425,309.1979 314.66775,308.2854 314.23375,307.5974" id="Fill-101" fill="#B95572" mask="url(#mask-6)"></path>
                        <path d="M307.8922,311.94505 C307.8922,311.94505 302.2672,313.44505 300.8297,313.42455 C299.3922,313.40355 291.9962,314.40355 291.8087,312.46605 C291.8087,312.46605 296.1632,313.36205 301.8297,311.94505 L308.5172,310.42455 L307.8922,311.94505 Z" id="Fill-102" fill="#C96B86" mask="url(#mask-6)"></path>
                        <path d="M361.9581,305.56515 L351.6671,307.49315 C350.6846,307.69715 349.8511,308.34615 349.4166,309.25165 C349.0696,309.97515 348.8131,311.18665 349.2831,311.31165 C356.6546,313.27415 365.6831,310.28515 365.6831,310.28515 L361.9581,305.56515 Z" id="Fill-103" fill="#B95572" mask="url(#mask-6)"></path>
                        <path d="M364.16365,311.65355 C364.16365,311.65355 359.36715,312.65655 357.93665,312.50955 C356.50665,312.36255 349.04765,312.79705 349.03115,310.85055 C349.03115,310.85055 353.29365,312.03755 359.06265,311.12355 L365.85815,310.19655 L364.16365,311.65355 Z" id="Fill-104" fill="#C96B86" mask="url(#mask-6)"></path>
                        <path d="M307.10215,312.3215 L313.63665,309.5185 C314.38415,309.198 314.66765,308.2855 314.23415,307.5975 C313.43665,308.874 305.04165,311.5575 305.04165,311.5575 C305.41015,312.323 306.32115,312.657 307.10215,312.3215" id="Fill-105" fill="#C96B86" mask="url(#mask-6)"></path>
                        <polygon id="Fill-106" fill="#1A4E6E" mask="url(#mask-6)" points="335.08455 231.405 303.40305 323.626 299.85655 323.626 331.53555 231.405"></polygon>
                        <path d="M371.58335,308.2058 L369.66385,303.5728 C369.38285,302.8933 368.71285,302.4518 367.97785,302.4748 C365.73085,302.5453 361.19085,303.1148 361.03735,306.5708 C361.03735,306.5708 361.34035,308.7553 361.85385,310.5523 C362.08685,311.3698 362.90635,311.7268 363.73335,311.5288 L370.66985,309.9978 C371.46035,309.8083 371.89485,308.9568 371.58335,308.2058" id="Fill-107" fill="#B95572" mask="url(#mask-6)"></path>
                        <polyline id="Fill-108" fill="#1A4E6E" mask="url(#mask-6)" points="385.09115 231.405 388.63915 231.405 356.95865 323.626 353.41115 323.626"></polyline>
                        <path d="M195.89805,88.27415 C195.50105,86.02465 195.65655,83.80665 195.65655,83.80665 C195.64405,83.57465 195.88055,83.41115 196.09305,83.50615 C196.56455,83.71715 197.24855,84.27365 197.39305,85.73415 C197.61805,88.00965 196.02605,88.99965 195.89805,88.27415" id="Fill-109" fill="#FAB9AF" mask="url(#mask-6)"></path>
                        <path d="M363.71225,311.7507 L370.64625,310.2322 C371.43725,310.0427 371.87125,309.1912 371.55975,308.4402 C370.55825,309.5637 361.83025,310.7867 361.83025,310.7867 C362.06375,311.6042 362.88575,311.9487 363.71225,311.7507" id="Fill-110" fill="#C96B86" mask="url(#mask-6)"></path>
                    </g>
                </g>
                <g id="Group-17" transform="translate(686.000000, 253.500000)">
                    <path d="M52.5303,103.6151 C48.5613,97.3941 46.2568,89.6946 43.5988,82.8881 C42.6313,80.4076 41.9063,76.0281 43.5378,73.6506 C44.7563,71.8716 47.6658,71.3056 49.6603,70.8831 C51.4773,70.4981 54.0203,70.5811 54.9843,68.7876 C56.6293,65.7281 53.8793,60.1091 53.2148,57.0751 C52.1863,52.3871 52.1838,45.3731 56.9518,42.5721 C59.1188,41.2991 61.8733,41.4196 64.2238,40.5626 C66.7938,39.6246 68.0893,37.4766 69.2498,35.0206 C71.8178,29.5886 77.0388,22.4416 84.4313,24.1141 C87.2128,24.7421 89.4628,28.5756 89.0278,31.2971 C88.4073,35.1741 84.2993,37.7811 80.9333,39.0836 C78.0808,40.1881 73.7493,41.3786 72.7343,44.6136 C71.7873,47.6306 74.3883,48.3061 76.8073,49.1216 C79.5763,50.0551 81.6078,51.0486 81.9813,54.2381 C82.4303,58.0571 80.1218,63.1356 77.1173,65.5161 C74.1823,67.8391 70.6448,69.5951 67.5498,71.7126 C65.8453,72.8776 63.0788,74.0931 62.9658,76.3641 C62.8788,78.1356 64.4988,80.1926 65.0063,81.9096 C65.5893,83.8806 65.6803,86.0236 65.2213,88.0441 C64.0653,93.1406 60.1523,98.5191 56.7523,102.3861 C56.1038,103.1266 54.9353,104.7076 53.8348,104.8966 C52.7378,105.0826 51.4783,104.4761 52.7398,103.4116" id="Fill-1" fill="#A6425F"></path>
                    <path d="M56.521,93.276 C56.521,93.276 58.1625,46.4425 78.496,32.4425" id="Stroke-3" stroke="#933156" stroke-width="2" stroke-linecap="round"></path>
                    <path d="M48.58155,105.6969 C48.92505,102.4759 44.14255,98.4749 42.18905,96.3619 C38.07205,91.9134 32.32855,86.3954 30.17505,80.6714 C28.66755,76.6639 28.75955,71.4279 30.19005,67.4594 C31.48855,63.8604 34.60455,61.1404 35.89555,57.6084 C37.33155,53.6739 35.77555,51.5784 32.81105,48.9994 C29.20455,45.8624 25.06155,43.9139 22.57005,39.6054 C19.14555,33.6864 27.85955,32.3944 27.07805,26.4069 C26.46305,21.6769 21.50755,20.7524 19.08155,17.3359 C17.49805,15.1049 15.79455,11.8549 16.05355,9.0499 C16.78055,1.1924 28.21555,-2.9151 34.11855,2.3869 C36.15405,4.2149 37.29705,7.5799 36.42855,10.2734 C35.74655,12.3874 34.10205,13.5799 34.37755,15.9649 C35.26355,23.6414 48.08955,21.1029 53.16955,22.6699 C56.25155,23.6204 58.43455,25.7924 59.38555,28.8619 C60.54255,32.5939 58.91705,35.5254 57.36155,38.8489 C55.27355,43.3029 49.31805,46.4469 49.83355,51.8154 C50.56705,59.4704 57.91205,56.2474 61.47455,60.6259 C65.71255,65.8364 60.51155,76.3569 59.38655,81.7274 C58.10705,87.8319 56.51905,93.8799 56.30755,100.1384 C56.22155,102.7179 56.13655,105.5854 54.47955,107.7554 C51.61755,111.5014 46.95955,107.8679 48.37205,104.0579" id="Fill-5" fill="#C96B86"></path>
                    <path d="M27.7002,52.43125 C24.4132,52.44175 20.6857,53.84775 17.5167,52.58425 C13.6482,51.04225 13.6847,46.44875 10.2082,44.44225 C7.3797,42.80825 1.4062,43.15875 0.1857,46.89925 C-1.2648,51.33425 6.1752,53.02125 9.1162,53.70475 C13.3597,54.69125 14.9947,56.57525 12.0977,60.47875 C11.2202,61.65925 9.8482,62.58725 9.7427,64.11425 C9.5937,66.33375 11.9747,67.74175 13.6937,68.61025 C15.7702,69.66025 17.6327,70.02725 19.9652,70.04925 C22.1102,70.06825 23.6132,69.78975 24.5747,71.89275 C25.2797,73.44025 24.8552,75.54025 25.0312,77.22525 C25.3767,80.51325 27.0527,83.54975 28.9522,86.22175 C33.1477,92.12225 36.2922,97.61825 42.9082,101.19975 C45.9192,102.82925 49.8577,104.71875 53.3477,104.43725 C54.7542,100.40125 51.2897,96.07825 49.6302,92.53975 C47.1707,87.29375 45.4642,82.19475 43.8362,76.65425 C43.1812,74.42725 42.5427,72.13725 42.3117,69.83975 C42.1367,68.09525 42.5837,66.25075 42.3162,64.51825 C42.0082,62.51225 40.9292,60.72675 38.7662,60.42075 C36.5367,60.10425 35.6477,61.66025 33.9532,62.62925 C32.5362,63.43775 30.9217,63.65925 30.1602,62.05925 C29.0112,59.65025 32.0042,57.41675 32.6702,55.29875 C33.9367,51.28425 27.7772,50.24225 26.2387,53.04575" id="Fill-7" fill="#A6425F"></path>
                    <path d="M26.8379,11.276 C26.8379,11.276 46.8289,56.276 52.4959,90.776" id="Stroke-9" stroke="#AF5F79" stroke-width="2"></path>
                    <path d="M10.1626,51.026 C10.1626,51.026 35.3291,69.276 43.3291,94.4425" id="Stroke-11" stroke="#933156" stroke-width="2" stroke-linecap="round"></path>
                    <path d="M30.45165,96.276 L66.37865,96.276 C66.37865,96.276 69.66265,96.171 69.66265,99.021 L69.66265,112.9255 L69.66265,118.798 C69.66265,118.798 68.36615,127.253 61.28415,132.8665 C61.28415,132.8665 59.46965,134.276 57.48315,135.276 L39.43365,135.276 C39.43365,135.276 27.66265,128.298 27.66265,117.589 L27.66265,99.1075 C27.66265,99.1075 28.20615,96.276 30.45165,96.276" id="Fill-13" fill="#326C90"></path>
                    <polygon id="Fill-15" fill="#1E5376" points="27.6626 105.276 27.6626 115.276 69.6626 115.276 69.6626 112.9255 69.6626 105.276"></polygon>
                </g>
                <g id="Group-81" transform="translate(820.000000, 6.000000)">
                    <path d="M295.0645,138.71635 C289.575,132.39135 282.981,127.16935 277.7325,120.63285 C271.6265,113.02535 268.5325,104.89535 270.7515,97.44435 C271.6235,94.51535 271.889,84.55985 270.9135,81.10385 C266.43,65.21885 252.0765,57.56185 245.1305,59.81135 C230.5065,64.54885 222.8845,74.26885 226.631,107.12485 C229.7635,119.93035 217.4575,140.57085 226.1005,160.48885 C230.395,170.38535 248.6075,205.47835 275.723,205.56935 C287.767,205.61035 299.516,201.22135 305.2905,191.10385 C313.72,176.34185 308.0985,153.74035 295.0645,138.71635" id="Fill-1" fill="#0F385C"></path>
                    <path d="M218.2432,137.7652 C213.5132,145.0222 206.2832,156.2472 203.8422,160.7587 C193.9957,152.3752 168.0337,130.4842 168.0337,130.4842 C168.0337,130.4842 169.7377,122.7467 168.7172,120.4662 C167.7007,118.1827 162.7542,115.0532 161.2882,114.1287 C159.8217,113.2042 160.4797,116.9082 162.2067,118.1947 C162.7977,118.6322 164.4927,120.6692 164.2317,121.7327 C163.9682,122.7992 149.7937,112.7507 149.7937,112.7507 C149.7937,112.7507 146.1392,112.6982 146.5997,114.7297 C146.5997,114.7297 143.6672,116.2747 144.5307,117.8362 C144.5307,117.8362 142.7367,119.8762 144.3827,122.1452 C146.0257,124.4087 153.8802,134.5672 160.7832,135.6422 C160.7832,135.6422 193.5032,174.1607 203.3967,175.4907 C210.6282,176.4607 226.1512,153.6887 233.6367,141.9472 C235.7677,138.6052 234.0232,134.1607 230.1887,133.1557 C225.6287,131.9612 220.8167,133.8162 218.2432,137.7652" id="Fill-3" fill="#FAB9AF"></path>
                    <path d="M171.36185,132.3348 C171.36185,132.3348 192.48335,148.0883 202.33035,156.4718 C209.81585,144.4523 219.45435,132.1848 221.38085,129.8768 C222.05985,129.0633 222.81885,128.3333 223.72685,127.7863 C227.67685,125.4088 238.20585,120.4273 237.84335,135.1613 C237.84335,135.1613 213.12185,176.7948 203.39635,175.4908 C193.50285,174.1603 161.34285,139.6213 161.34285,139.6213" id="Fill-5" fill="#C96B86"></path>
                    <path d="M259.7139,91.5167 C260.2009,96.0837 254.7084,110.1727 258.9219,121.9992 C258.9964,124.3912 267.6959,131.5127 245.9389,140.6602 C232.6624,138.1247 235.7209,126.3677 235.6574,122.9817 C246.7409,113.4827 239.6224,105.5272 238.4234,102.0537 C242.5389,103.4162 258.1059,92.3192 259.7139,91.5167" id="Fill-7" fill="#FAB9AF"></path>
                    <path d="M247.31985,72.1551 C255.57985,74.1586 261.69735,83.3331 259.71385,91.5166 C259.69335,91.5996 256.34835,100.5276 256.34835,100.5276 C254.85435,106.6951 242.98635,114.1001 237.89035,111.6591 C225.82585,105.8916 228.76085,81.9396 229.83085,79.4156 C232.81235,72.3596 239.62785,70.2886 247.31985,72.1551" id="Fill-9" fill="#FAB9AF"></path>
                    <path d="M250.773,91.45125 C252.797,92.27175 253.546,96.43525 251.72,98.91525 C250.496,100.57525 247.6735,102.04025 245.571,101.79025 C245.6415,99.35225 246.7165,94.84225 247.1675,91.91375 C248.561,91.02625 250.006,91.13425 250.773,91.45125" id="Fill-11" fill="#FAB9AF"></path>
                    <path d="M236.8682,98.5738 C236.8612,98.7573 236.7657,98.9273 236.6012,99.0503 C236.2232,99.3328 235.4377,99.7748 234.3042,99.6868 C232.9027,99.5768 232.4857,99.0038 232.3622,98.6963 C232.3187,98.5878 232.3182,98.4728 232.3467,98.3623 L234.3887,90.5168 C234.4362,90.3358 234.5692,90.1803 234.7622,90.0858 C235.1317,89.9043 235.7447,89.6313 236.0342,89.6638 C236.2632,89.6893 236.6582,89.9863 236.9172,90.2008 C237.0797,90.3353 237.1672,90.5168 237.1602,90.7048 L236.8682,98.5738 Z" id="Fill-13" fill="#FA978D"></path>
                    <path d="M247.3262,63.3045 C236.7747,58.5775 226.5867,64.051 226.3912,69.5235 C220.7392,74.438 223.2722,82.682 228.0642,86.98 C229.7087,74.8705 234.0562,72.9055 234.0562,72.9055 C241.4762,78.188 249.6642,74.589 253.6647,78.54 C258.0927,82.913 256.5997,87.1675 257.4432,88.27 C257.4432,88.27 257.8367,86.0915 258.5492,84.902 C258.8217,84.447 259.4747,84.387 259.6572,84.8045 C261.0057,84.387 262.8207,71.1825 247.3262,63.3045" id="Fill-15" fill="#0F385C"></path>
                    <path d="M256.9224,117.47275 L243.9249,114.12925 C243.9249,114.12925 244.6674,119.28625 239.4464,120.72175 C237.8994,123.08525 235.2099,123.93125 235.6889,129.26075 C236.1684,134.59025 237.8099,136.03125 239.7674,137.01325 C243.5949,138.93275 250.8889,140.02025 256.3484,132.72175 C256.3484,132.72175 261.3544,124.77725 258.7449,120.20975 C257.3784,117.81875 256.9224,117.47275 256.9224,117.47275" id="Fill-17" fill="#FAB9AF"></path>
                    <polygon id="Fill-19" fill="#1A4E6E" points="318.48735 366.68465 314.86685 366.68465 282.55085 272.60265 286.16785 272.60265"></polygon>
                    <polygon id="Fill-21" fill="#1A4E6E" points="263.855 366.68465 260.2345 366.68465 227.9155 272.60265 231.536 272.60265"></polygon>
                    <path d="M166.6802,256.4312 L196.1897,256.4312 C209.7407,256.4312 224.3332,246.7762 226.8292,233.4602 L241.0147,174.5457 C245.2627,151.8812 261.8512,154.4892 284.5122,154.4892 C307.1767,154.4892 327.3317,151.8812 323.0852,174.5457 L299.9362,263.1067 C298.8707,268.6547 294.0122,272.6652 288.3607,272.6582 L166.6697,272.5342 C162.2292,272.5267 158.6287,268.9237 158.6287,264.4827 C158.6287,260.0347 162.2357,256.4312 166.6802,256.4312" id="Fill-23" fill="#1B5470"></path>
                    <path d="M288.2295,263.10675 L311.3805,174.54525 C315.253,153.87425 303.863,155.01975 284.512,152.17125 C286.481,151.89525 287.6185,148.92625 289.6115,148.92625 C312.276,148.92625 327.3315,151.88125 323.085,174.54525 L299.936,263.10675 C298.8705,268.65475 294.012,272.66525 288.361,272.65825 L276.7925,272.64425 C282.382,272.58925 287.175,268.60975 288.2295,263.10675" id="Fill-25" fill="#1A4E6E"></path>
                    <polygon id="Fill-27" fill="#1A4E6E" points="192.8482 272.60285 160.5292 366.68485 156.9117 366.68485 189.2277 272.60285"></polygon>
                    <polygon id="Fill-29" fill="#1A4E6E" points="247.48 272.60285 215.1645 366.68485 211.544 366.68485 243.863 272.60285"></polygon>
                    <polygon id="Fill-31" fill="#FAB9AF" points="216.188 355.00105 228.0595 283.42055 234.8495 253.58705 208.7015 261.96905 208.561 357.30105"></polygon>
                    <path d="M278.6211,192.97835 C277.9801,191.78885 277.8286,190.42935 278.1761,189.14135 C281.1256,178.22585 295.9771,134.39885 276.8706,126.51235 C276.8706,126.51235 267.9511,125.44085 258.7446,120.20935 C258.7446,120.20935 258.1556,127.94035 254.9341,131.20535 C254.9341,131.20535 253.1046,135.60985 244.3366,134.87485 C244.1511,134.85935 243.2606,134.76085 243.0966,134.67985 C241.7621,134.01785 235.2931,130.73285 235.6571,122.56935 L226.2441,125.46435 C224.2736,147.03935 216.8641,148.34685 216.7811,161.57135 C216.7241,170.74235 220.1866,174.52935 223.1156,179.69185 C223.6941,180.71035 224.1166,181.70535 224.7621,182.68885 C226.2441,184.94685 229.7366,190.84535 229.7366,190.84535 C229.8056,191.44135 232.7691,201.45035 232.5421,202.01235" id="Fill-33" fill="#B1516D"></path>
                    <polygon id="Fill-35" fill="#FAB9AF" points="191.12895 356.4366 203.00095 284.8566 209.79095 255.0231 183.64245 263.4051 183.50245 358.7371"></polygon>
                    <path d="M193.7427,340.6783 C193.7427,340.6783 192.0542,353.7028 190.7292,357.8133 C189.4037,361.9238 186.0962,372.1438 183.4167,371.6718 C180.7367,371.2003 177.9177,365.9333 179.3072,362.8738 C180.2247,360.8548 183.0327,348.5273 185.7742,343.8933 C188.5167,339.2598 189.2882,332.0448 193.7427,340.6783" id="Fill-37" fill="#FAB9AF"></path>
                    <path d="M189.40385,361.9239 C189.40385,361.9239 188.83185,379.2914 180.10635,375.4534 C176.78935,373.9944 176.10335,369.8224 179.30735,362.8734 C179.30735,362.8734 181.90335,377.1624 189.40385,361.9239" id="Fill-39" fill="#B1516D"></path>
                    <path d="M218.8018,339.24225 C218.8018,339.24225 217.1133,352.26675 215.7883,356.37775 C214.4623,360.48775 211.1553,370.70775 208.4758,370.23575 C205.7958,369.76475 202.9763,364.49725 204.3663,361.43775 C205.2833,359.41925 208.0913,347.09125 210.8333,342.45775 C213.5753,337.82375 214.3468,330.60925 218.8018,339.24225" id="Fill-41" fill="#FAB9AF"></path>
                    <path d="M214.46245,360.48785 C214.46245,360.48785 213.89095,377.85535 205.16545,374.01735 C201.84845,372.55835 201.16245,368.38635 204.36645,361.43735 C204.36645,361.43735 206.96195,375.72635 214.46245,360.48785" id="Fill-43" fill="#B1516D"></path>
                    <mask id="mask-8" fill="white">
                        <use xlink:href="#path-7"></use>
                    </mask>
                    <g id="Clip-46"></g>
                    <polygon id="Fill-45" fill="#1A4E6E" mask="url(#mask-8)" points="78.8245 369.0395 84.244 369.0395 84.244 208.938 78.8245 208.938"></polygon>
                    <polygon id="Fill-47" fill="#1A4E6E" mask="url(#mask-8)" points="347.803 369.0395 353.2225 369.0395 353.2225 208.938 347.803 208.938"></polygon>
                    <path d="M277.97365,191.86015 C277.97365,191.86015 297.00915,230.83715 282.79365,248.13115 C282.79365,248.13115 279.97065,255.77015 249.16265,256.58115 C246.77915,256.64415 244.95765,258.90715 245.22065,261.46915 L245.97015,273.93165 C246.16715,275.84615 244.73415,277.49765 242.95565,277.40165 C238.41115,277.15765 234.18665,275.86215 227.31315,277.53515 C212.33815,281.17865 185.39115,278.12865 178.59265,277.48615 C177.70915,277.40265 177.02565,276.61865 177.00615,275.65915 C176.90865,270.83965 176.95265,250.58365 181.52315,241.81415 C184.62965,235.85465 190.80015,230.75865 199.80165,226.72215 L224.35015,214.06565 C226.04665,213.19065 227.45215,211.76965 228.37315,209.99665 L233.04915,196.42865 L277.97365,191.86015 Z" id="Fill-48" fill="#B1516D" mask="url(#mask-8)"></path>
                    <path d="M200.8379,190.70565 C202.6064,190.51915 212.2224,190.03265 213.8764,190.18215 C213.9684,190.19465 213.9564,194.94615 213.7469,195.86965 C205.7859,195.82215 193.3774,194.95665 195.7149,193.68565 C195.8914,193.59015 193.3064,194.04015 194.0489,193.15415 C194.4414,192.68765 193.9009,192.54965 193.7569,192.15765 C193.5879,191.69865 199.3309,190.86465 200.8379,190.70565" id="Fill-49" fill="#FCD2C5" mask="url(#mask-8)"></path>
                    <path d="M273.4605,183.8409 C276.4635,184.4829 280.199,187.2489 278.3005,193.1659 C276.23,199.6239 228.9705,198.4339 212.003,198.0129 C212.226,195.8869 212.163,191.4489 211.6105,188.1379 C221.917,188.5994 261.889,184.8229 271.6085,183.7194 C272.138,183.6604 272.7795,183.6959 273.4605,183.8409" id="Fill-50" fill="#C96B86" mask="url(#mask-8)"></path>
                    <path d="M264.9932,189.6944 C264.8777,188.7274 260.3442,146.3974 262.0402,142.5379 C265.2617,135.2009 271.3972,134.7799 275.6302,142.3954 C280.1242,150.4759 281.1472,184.1094 278.0172,194.2604" id="Fill-51" fill="#C96B86" mask="url(#mask-8)"></path>
                    <path d="M50.4063,363.9029 L59.5718,271.8544 C65.1163,241.4339 62.7623,195.2569 60.6313,181.7429 C59.6788,175.6979 54.7803,171.0569 48.6958,170.3994 C39.9548,169.5829 32.4418,176.6889 32.9303,185.4544 C33.1443,189.2919 36.4228,194.9704 37.4568,200.2329 C41.4873,220.7784 43.7563,363.7989 43.8103,363.8254 L50.4063,363.9029 Z" id="Fill-52" fill="#FFCBB9" mask="url(#mask-8)"></path>
                    <path d="M19.8472,368.64995 C16.8337,356.52745 19.6582,290.86445 18.0142,276.17945 C16.0377,258.52895 15.2352,183.26245 20.4507,168.86895 L33.9747,170.67745 C40.7487,171.84945 45.8852,177.44995 46.4127,184.30395 C47.1992,194.53395 48.7667,204.41545 40.9967,227.39545 C40.9967,227.39545 36.0827,267.55045 35.5352,276.21145 C34.9967,284.72895 26.6767,364.11345 26.7172,373.02445" id="Fill-53" fill="#FFCBB9" mask="url(#mask-8)"></path>
                    <path d="M78.5689,135.87775 C78.4354,126.40175 77.8704,118.31525 78.1594,107.37275 C71.0599,108.69175 67.1719,108.49675 64.6239,109.00475 C63.6624,121.67025 65.4669,138.46125 66.5279,140.50475 C71.3639,144.90925 76.7479,144.77675 78.5689,135.87775" id="Fill-54" fill="#FFD8C5" mask="url(#mask-8)"></path>
                    <path d="M59.12505,112.3895 L78.75655,111.5895 C78.75655,111.5895 76.47605,87.1815 74.80705,78.5165 C74.60555,74.947 69.31105,67.0915 62.91905,73.608 C57.99955,78.6235 59.12505,112.3895 59.12505,112.3895" id="Fill-55" fill="#AF526D" mask="url(#mask-8)"></path>
                    <path d="M65.1636,241.2288 C46.4261,244.3483 30.8091,243.2163 10.3706,240.2088 C8.6986,239.9628 7.8001,239.0023 8.2276,237.2353 C9.5526,231.7533 10.1841,224.5588 10.5391,222.9458 C11.7726,217.3348 11.1231,185.4793 10.9641,183.0688 C10.9576,182.9703 10.5446,178.6258 10.5281,178.5288 C7.0716,157.2908 15.5866,151.9078 19.4966,143.2288 C22.1236,137.4023 21.3551,140.6193 30.4376,140.8928 L48.4206,141.8978 C48.4246,141.9223 48.4271,141.9498 48.4316,141.9743 L54.3901,139.7953 C54.7281,139.6713 55.0906,139.6233 55.4466,139.6418 C63.0426,140.0313 65.0541,136.8228 68.4216,147.5953 C72.1861,159.6388 78.8301,178.8953 67.7186,227.2478 C67.7011,227.3243 67.6791,227.4008 67.6636,227.4783 L67.4886,238.8478 C67.0111,240.9803 66.3196,241.0363 65.1636,241.2288" id="Fill-56" fill="#AF526D" mask="url(#mask-8)"></path>
                    <path d="M24.9312,127.3614 C24.2642,132.2979 18.7807,142.2029 14.9967,150.0619 C14.3282,151.4509 15.0692,153.1044 16.5522,153.5249 C26.5367,156.3574 56.2592,165.8799 69.1022,156.9459 C70.9027,155.6929 71.6107,153.3594 70.8987,151.2844 C68.7197,144.9409 68.5437,134.3084 69.0187,126.3119 C69.2397,122.5864 70.9987,118.8989 72.5467,116.8354 C74.4357,114.3189 76.9302,110.0294 76.8517,104.3119 C76.7782,98.9549 70.2957,87.9664 69.6277,86.5059 C68.9767,85.0829 69.1017,82.7614 69.1017,82.6454 C69.1017,77.2289 70.2282,75.6509 69.0187,72.0619 C68.7077,71.1399 67.8867,70.4854 66.9187,70.3849 L34.7987,67.4694 C34.4672,67.4354 31.1297,68.0349 30.8112,68.1309 C30.0352,68.3654 29.3522,68.6104 27.9407,69.6049 C27.9407,69.6049 24.9257,80.3669 25.4357,86.1519 C25.9452,91.9369 25.5402,103.5404 24.9397,104.7379 C24.3387,105.9354 25.0987,125.3784 25.0987,125.3784 L24.9312,127.3614 Z" id="Fill-57" fill="#C96B86" mask="url(#mask-8)"></path>
                    <path d="M39.7647,96.6456 L69.8582,98.0656 C70.1257,98.0781 70.3362,98.3001 70.3342,98.5681 L70.0077,150.1431 C70.0062,150.4201 69.7792,150.6431 69.5027,150.6396 L38.6017,150.2881" id="Fill-58" fill="#FAFAFA" mask="url(#mask-8)"></path>
                    <path d="M26.56155,138.9976 C27.10105,138.7696 27.46105,138.2971 27.60105,137.7286 C27.64755,137.5411 27.78305,137.3646 28.07205,137.2356 C29.09555,136.7766 33.12555,137.3761 38.54255,135.7266 C40.18955,135.2241 36.58805,133.0626 36.97455,131.6166 C37.36205,130.1711 38.96205,132.8236 39.57105,133.0721 C40.18155,133.3186 43.92805,135.5311 44.41155,136.6746 C44.89305,137.8191 72.83455,133.3666 72.83455,133.3666 C72.84005,133.3646 72.85255,133.3581 72.85955,133.3546 C74.51805,133.1771 77.72755,133.0366 78.24805,134.5896 C78.85355,136.3966 79.01805,139.8536 76.40155,142.9846 C75.84205,143.5271 75.43555,143.7146 74.47705,143.8611 C68.56655,143.8871 43.95955,143.0516 43.35655,143.2641 C40.17455,144.3831 31.76855,144.8626 30.70005,144.2941 C30.44755,144.1596 30.10005,143.8776 29.82805,143.5676 C29.43705,143.1211 28.91155,142.7911 28.32555,142.6951 C27.99505,142.6411 27.66705,142.4891 27.46405,142.1426 C27.42755,142.0811 27.40555,142.0126 27.39555,141.9411 C27.29655,141.2661 26.88605,140.6956 26.33905,140.2876 C26.16355,140.1571 26.02905,140.0011 25.98105,139.8166 C25.87905,139.4241 26.16905,139.1631 26.56155,138.9976" id="Fill-59" fill="#FFD8C5" mask="url(#mask-8)"></path>
                    <path d="M61.6641,66.83015 C71.0356,68.68665 78.7451,43.00665 78.5196,35.08115 C78.4306,31.95915 76.7821,29.13015 73.7131,28.55165 L62.2221,26.38665 C62.0981,26.36315 61.9751,26.33615 61.8531,26.30515 L58.7866,25.52265 C56.0591,24.82715 53.2171,26.13915 51.9781,28.66615 L51.5081,29.62365 C50.2216,32.24765 47.2576,33.40915 44.4246,32.69015 C43.3026,32.40515 42.1971,32.74165 41.4711,34.47865 C40.3971,37.05015 41.1666,40.89615 41.6151,42.64915 C41.7731,43.26415 41.8371,43.89415 41.7961,44.52765 C41.6426,46.91315 41.5396,53.39215 44.2541,59.24715 C45.1266,61.13065 44.8771,63.34715 43.6866,65.04715 C43.6531,65.09465 43.6191,65.14265 43.5856,65.19015 C42.3671,66.91615 42.3226,68.62115 43.0491,71.08415 C43.9086,74.00065 45.5191,77.45615 48.6681,79.99815 C51.8601,82.57565 55.2281,81.24015 56.6551,79.53265 C57.6506,78.34215 58.0676,76.78265 57.9236,75.23715 C57.8106,74.02915 57.7876,72.36915 58.1976,70.76665 C58.6546,68.98165 59.8576,66.47215 61.6641,66.83015" id="Fill-60" fill="#FAB9AF" mask="url(#mask-8)"></path>
                    <path d="M73.81155,57.2867 C73.79055,57.4327 73.69905,57.5602 73.55755,57.6442 C73.23105,57.8382 72.56555,58.1247 71.66755,57.9567 C70.55655,57.7497 70.27205,57.2557 70.19955,56.9997 C70.17455,56.9097 70.18355,56.8177 70.21605,56.7317 L72.51805,50.6352 C72.57155,50.4952 72.69105,50.3822 72.85355,50.3227 C73.16405,50.2092 73.67705,50.0437 73.90605,50.0942 C74.08705,50.1337 74.37755,50.4052 74.56605,50.5987 C74.68405,50.7202 74.73855,50.8727 74.71705,51.0222 L73.81155,57.2867 Z" id="Fill-61" fill="#FA978D" mask="url(#mask-8)"></path>
                    <path d="M69.9639,26.87925 C69.9639,26.87925 78.7894,32.19075 77.6069,41.22525 C77.4804,42.19475 79.6994,43.23025 80.5244,42.70675 C84.6094,40.11475 84.0679,35.28475 80.3009,29.96875 C74.1874,21.34225 69.9639,26.87925 69.9639,26.87925" id="Fill-62" fill="#203A60" mask="url(#mask-8)"></path>
                    <path d="M49.4151,45.85065 C49.7911,45.08015 49.5076,44.17915 48.8066,43.68415 C48.2701,43.30515 47.6961,42.67915 47.3501,41.65265 C46.3476,38.68965 50.9716,34.28465 54.1016,39.62615 C54.3976,40.13115 54.9256,40.45415 55.5096,40.47865 C58.5596,40.60665 67.9411,40.22265 74.3451,31.49015 C74.4366,31.36515 74.5101,31.23115 74.5676,31.08715 C75.2191,29.43715 78.4806,19.35565 63.5336,13.57515 C44.6561,6.27615 33.4656,31.34715 37.1061,43.23165 C38.3416,47.26215 39.7796,50.02365 41.3901,52.29265 C41.8696,52.96765 42.7761,53.20815 43.5181,52.84015 C46.3511,51.43465 48.4036,47.92265 49.4151,45.85065" id="Fill-63" fill="#203A60" mask="url(#mask-8)"></path>
                    <path d="M54.9273,13.00495 C54.9273,13.00495 49.6263,-1.81655 34.1903,0.18595 C18.7563,2.18695 19.5248,19.09695 18.0418,32.90095 C16.6388,45.94895 4.8228,42.74845 0.5653,49.62695 C-3.7947,56.67195 17.9968,71.04695 33.5003,53.33245 C41.5958,44.07995 39.0938,18.23995 46.9088,18.51945 C54.7243,18.79845 54.9273,13.00495 54.9273,13.00495" id="Fill-64" fill="#203A60" mask="url(#mask-8)"></path>
                    <path d="M43.8091,19.9105 C47.1496,19.819 53.8776,17.4175 55.5701,12.587 C57.2631,7.757 53.0676,12.722 51.4101,13.9585 C49.7521,15.1975 38.9551,20.0445 43.8091,19.9105" id="Fill-65" fill="#326C90" mask="url(#mask-8)"></path>
                    <path d="M33.64115,105.2103 C33.31415,116.2398 33.73265,132.8618 33.96315,133.7493 C33.96315,133.7493 49.04315,163.8993 50.48515,163.5718 C51.92815,163.2463 56.67115,165.3398 57.33365,165.7598 C57.99665,166.1773 61.67615,165.8858 60.54515,167.2638 C59.41265,168.6418 54.82015,166.6538 55.47665,168.5973 C57.63815,174.9888 61.01565,178.4753 61.28165,179.7853 C61.54865,181.0953 59.90015,180.9578 59.90015,180.9578 C60.23915,181.3623 61.24815,183.2103 60.23315,183.6018 C59.38615,183.9283 58.00965,182.5943 58.00965,182.5943 C58.00965,182.5943 57.60115,183.7208 56.95115,183.7798 C55.68065,183.8973 55.13465,182.1913 55.13465,182.1913 C54.81865,182.7283 53.26165,182.4553 52.62165,182.1383 C51.32915,181.4988 45.96065,173.0248 44.83615,169.1668 C44.60465,168.3728 23.54965,141.0438 21.93715,138.3773 C20.88665,136.6413 19.08665,119.6013 20.10065,106.7983 C22.65015,106.2988 26.53765,106.5068 33.64115,105.2103" id="Fill-66" fill="#FFD8C5" mask="url(#mask-8)"></path>
                    <path d="M16.6924,109.9874 L36.3349,110.4059 C36.3349,110.4059 35.5734,85.9039 34.4449,77.1519 C34.4649,73.5764 29.6674,65.4084 22.8839,71.5159 C17.6624,76.2164 16.6924,109.9874 16.6924,109.9874" id="Fill-67" fill="#AF526D" mask="url(#mask-8)"></path>
                    <path d="M18.33305,370.0025 C18.78955,368.4855 25.69005,366.2895 26.86705,367.7435 C27.47555,368.4945 29.10405,369.5575 28.50255,371.5535 C27.84105,373.7565 25.86955,372.9845 23.47155,376.63 C22.49255,378.1185 21.58555,379.9125 18.24055,381.3475 C15.60505,382.4785 5.84005,380.519 5.49105,378.886 C4.40355,373.7925 16.50805,376.0635 18.33305,370.0025" id="Fill-68" fill="#C96B86" mask="url(#mask-8)"></path>
                    <path d="M51.7017,364.60845 C51.0582,363.16195 44.0042,362.05395 43.0592,363.66945 C42.5702,364.50445 40.9027,365.59095 40.9027,367.67445 C40.9027,370.91845 44.1862,369.61045 46.4872,372.02845 C47.7142,373.32045 51.1637,376.35195 54.2072,376.35195 C57.0757,376.35195 64.9552,376.33945 65.3802,374.72345 C66.8172,369.26395 54.8682,371.73695 51.7017,364.60845" id="Fill-69" fill="#C96B86" mask="url(#mask-8)"></path>
                    <path d="M43.92925,376.2442 C43.88375,376.3877 43.33975,376.3952 43.31225,376.2442 C42.69925,372.7752 41.44425,369.3767 41.44425,369.3767 L42.67775,367.5717 C42.67775,367.5717 44.15775,375.4972 43.92925,376.2442" id="Fill-70" fill="#C96B86" mask="url(#mask-8)"></path>
                    <path d="M27.30275,378.9244 C27.37425,379.0574 27.91025,378.9614 27.90875,378.8079 C27.85425,375.2859 28.44275,371.7109 28.44275,371.7109 L26.89025,370.1724 C26.89025,370.1724 26.93725,378.2344 27.30275,378.9244" id="Fill-71" fill="#C96B86" mask="url(#mask-8)"></path>
                    <path d="M26.77445,367.38875 C26.77445,367.38875 25.81995,369.69575 23.38545,370.20075 C19.23345,371.06275 19.26345,369.38725 19.26345,369.38725 C19.52495,367.91125 19.17595,362.13075 19.17595,362.13075 L25.60695,364.84625 C25.60695,364.84625 25.69695,365.98125 26.77445,367.38875" id="Fill-72" fill="#FFCBB9" mask="url(#mask-8)"></path>
                    <path d="M43.25055,363.7476 C43.25055,363.7476 44.41055,365.9586 46.88055,366.2406 C51.09355,366.7231 50.91205,365.0571 50.91205,365.0571 C50.51805,363.6111 50.34255,357.8231 50.34255,357.8231 L44.18305,361.1096 C44.18305,361.1096 44.19655,362.2476 43.25055,363.7476" id="Fill-73" fill="#FFCBB9" mask="url(#mask-8)"></path>
                    <path d="M366.25395,210.54765 L59.13945,210.54765 C55.27845,210.54765 52.14895,207.41815 52.14895,203.55765 C52.14895,199.69665 55.27845,196.56715 59.13945,196.56715 L366.25395,196.56715 C370.11495,196.56715 373.24395,199.69665 373.24395,203.55765 C373.24395,207.41815 370.11495,210.54765 366.25395,210.54765" id="Fill-74" fill="#326C90" mask="url(#mask-8)"></path>
                    <path d="M358.51225,183.7486 L261.30675,183.7486 C258.87425,183.7486 256.90175,181.7766 256.90175,179.3441 L256.90175,123.3051 C256.90175,120.8726 258.87425,118.9006 261.30675,118.9006 L358.51225,118.9006 C360.94475,118.9006 362.91725,120.8726 362.91725,123.3051 L362.91725,179.3441 C362.91725,181.7766 360.94475,183.7486 358.51225,183.7486" id="Fill-75" fill="#326C90" mask="url(#mask-8)"></path>
                    <path d="M318.34425,197.0262 L297.30375,197.0262 C296.70325,197.0262 296.23775,196.5007 296.31125,195.9042 L301.77025,151.4232 C301.83175,150.9217 302.25725,150.5452 302.76275,150.5452 L314.56025,150.5452 C315.07925,150.5452 315.51225,150.9427 315.55625,151.4602 L319.34025,195.9417 C319.39025,196.5252 318.92975,197.0262 318.34425,197.0262" id="Fill-76" fill="#1A4E6E" mask="url(#mask-8)"></path>
                    <path d="M333.3306,177.9019 L329.3306,177.9019 C329.0541,177.9019 328.8306,177.6779 328.8306,177.4019 L328.8306,173.9019 C328.8306,173.6259 329.0541,173.4019 329.3306,173.4019 L333.3306,173.4019 C333.6071,173.4019 333.8306,173.6259 333.8306,173.9019 L333.8306,177.4019 C333.8306,177.6779 333.6071,177.9019 333.3306,177.9019" id="Fill-77" fill="#1A4E6E" mask="url(#mask-8)"></path>
                    <path d="M341.0806,177.9019 L337.0806,177.9019 C336.8041,177.9019 336.5806,177.6779 336.5806,177.4019 L336.5806,173.9019 C336.5806,173.6259 336.8041,173.4019 337.0806,173.4019 L341.0806,173.4019 C341.3571,173.4019 341.5806,173.6259 341.5806,173.9019 L341.5806,177.4019 C341.5806,177.6779 341.3571,177.9019 341.0806,177.9019" id="Fill-78" fill="#1A4E6E" mask="url(#mask-8)"></path>
                    <path d="M349.0806,177.9019 L345.0806,177.9019 C344.8041,177.9019 344.5806,177.6779 344.5806,177.4019 L344.5806,173.9019 C344.5806,173.6259 344.8041,173.4019 345.0806,173.4019 L349.0806,173.4019 C349.3571,173.4019 349.5806,173.6259 349.5806,173.9019 L349.5806,177.4019 C349.5806,177.6779 349.3571,177.9019 349.0806,177.9019" id="Fill-79" fill="#1A4E6E" mask="url(#mask-8)"></path>
                    <path d="M302.3306,133.9019 C302.3306,130.3119 305.2406,127.4019 308.8306,127.4019 C312.4206,127.4019 315.3306,130.3119 315.3306,133.9019 C315.3306,137.4919 312.4206,140.4019 308.8306,140.4019 C305.2406,140.4019 302.3306,137.4919 302.3306,133.9019" id="Fill-80" fill="#1A4E6E" mask="url(#mask-8)"></path>
                </g>
                <g id="Group-49">
                    <path d="M87.56675,134.67955 C87.56675,134.67955 102.77625,140.04505 103.93525,140.09055 C105.09675,140.13205 112.07625,138.27555 115.25175,139.59255 C117.60625,140.56605 121.67125,142.01105 122.31125,142.76755 C122.95125,143.52455 119.40325,143.37805 118.65125,143.13805 C117.89925,142.89805 115.73875,143.65255 115.61975,143.86055 C115.50325,144.06855 120.86175,144.99655 123.17325,145.80355 C125.48425,146.61055 126.69825,147.41305 126.68925,147.79955 C126.67775,148.18355 122.34575,147.94605 121.01725,147.65805 C119.69175,147.37205 125.77475,149.05705 126.99325,150.17255 C128.21425,151.28805 121.56125,150.56105 119.91775,150.05355 C118.27425,149.54155 126.01275,151.60155 126.48125,152.47705 C126.95025,153.35255 119.79175,152.65955 117.99275,152.19355 C116.19325,151.72705 123.47025,153.22005 123.84775,153.84405 C124.22475,154.46805 115.72075,154.28305 112.81025,153.86005 C110.11475,153.46905 106.90725,153.24955 101.51675,148.43505 C100.52475,147.55005 85.85875,146.08505 85.85875,146.08505 L87.56675,134.67955 Z" id="Fill-1" fill="#FAB9AF"></path>
                    <path d="M30.7474,82.7296 C30.7474,82.7296 35.9714,73.5641 40.7999,76.4606 C44.5509,78.7106 64.7124,119.6961 70.9144,126.5656 C72.6864,128.5321 89.7019,133.3991 89.7019,133.3991 C89.7019,133.3991 91.2954,140.7536 88.0079,147.3106 C86.8624,149.5941 63.2884,140.7811 61.4434,139.6041 C52.0814,133.6256 42.2189,107.2916 42.2189,107.2916 L30.7474,82.7296 Z" id="Fill-3" fill="#A6425F"></path>
                    <path d="M15.09335,376.29305 C15.09335,376.29305 11.36785,377.64555 5.38735,377.55105 L5.51385,385.58355 C5.51385,385.58355 9.72485,386.10005 12.52185,385.68255 L13.61035,383.61055 L15.88585,385.79555 C15.88585,385.79555 29.26885,387.26755 36.17485,386.78655 C36.17485,386.78655 36.97885,384.43855 33.69185,383.36855 C30.40435,382.29855 22.91135,380.82655 20.78935,379.64555 C18.66685,378.46505 15.09335,376.29305 15.09335,376.29305" id="Fill-5" fill="#A6425F"></path>
                    <path d="M4.91805,364.36585 L5.28605,374.47835 L5.40355,377.56385 C10.97555,379.25285 15.08855,376.30235 15.08855,376.30235 L15.18605,373.04235 L15.41805,364.56035 L4.91805,364.36585 Z" id="Fill-7" fill="#FFCBB9"></path>
                    <path d="M49.6576,376.9659 C49.6576,376.9659 45.9301,378.3159 39.9496,378.2239 L40.0761,386.2559 C40.0761,386.2559 44.2891,386.7709 47.0841,386.3529 L48.1721,384.2809 L50.4476,386.4684 C50.4476,386.4684 63.8311,387.9404 70.7371,387.4569 C70.7371,387.4569 71.5411,385.1094 68.2536,384.0414 C64.9691,382.9714 57.4736,381.4989 55.3511,380.3184 C53.2296,379.1379 49.6576,376.9659 49.6576,376.9659" id="Fill-9" fill="#A6425F"></path>
                    <path d="M39.46885,365.0255 L39.83685,375.119 L39.95435,378.244 C45.54435,379.912 49.65735,376.982 49.65735,376.982 L49.75435,373.3535 L49.98735,365.2195 L39.46885,365.0255 Z" id="Fill-11" fill="#FFCBB9"></path>
                    <path d="M9.3453,152.6129 C11.2413,144.3094 39.4303,155.2384 39.4303,155.2384 C39.4303,155.2384 39.3538,156.9794 39.2183,159.8669 C44.3093,157.8214 47.1528,151.9399 56.2803,153.9539 C56.2803,153.9539 62.5778,188.2699 62.5778,222.8749 C62.5778,233.7479 62.1488,250.8874 60.8283,265.5759 C58.3993,292.5499 51.9878,368.8024 51.9878,368.8024 L36.3218,368.6989 C36.3218,368.6989 39.1303,292.6969 37.9473,265.4154 C37.3218,251.0094 34.4683,228.0924 33.3528,216.7274 C31.4498,229.0134 31.2668,251.3594 28.5783,266.2734 C23.7783,292.9134 16.5113,368.8499 16.5113,368.8499 L1.4728,368.7619 C3.1708,350.9739 4.2388,281.2979 3.7778,265.9389 C2.8348,234.5459 0.5403,200.4459 2.6403,176.7509 C3.6223,165.6739 7.1878,162.0689 9.3453,152.6129" id="Fill-13" fill="#A6425F"></path>
                    <g id="Group-17" transform="translate(0.000000, 55.054500)">
                        <mask id="mask-10" fill="white">
                            <use xlink:href="#path-9"></use>
                        </mask>
                        <g id="Clip-16"></g>
                        <path d="M32.50645,0.1846 C32.50645,0.1846 16.72095,1.0066 7.33395,13.0756 C-9.15455,24.8821 7.08545,84.9471 8.67495,99.5701 C8.67495,99.5701 34.02695,111.7181 56.28045,100.9111 C56.28045,100.9111 61.25795,55.3261 60.30345,43.2476 C59.76495,36.4246 57.79545,21.7451 51.71845,12.0666 C47.03695,4.6101 41.75095,3.5231 32.50645,0.1846" id="Fill-15" fill="#C96B86" mask="url(#mask-10)"></path>
                    </g>
                    <path d="M33.3529,216.7274 C33.3529,216.7274 36.0214,203.2514 37.0579,193.4059 C37.0579,193.4059 38.7354,216.7904 34.5654,228.1194 L33.3529,216.7274 Z" id="Fill-18" fill="#90324D"></path>
                    <path d="M37.703,43.96565 C37.703,43.96565 35.777,56.52215 37.624,63.53015 C37.9805,64.88915 37.154,66.29565 35.822,66.74015 C30.5985,68.48565 23.606,61.66515 20.177,59.34415 C19.4615,55.41165 21.4885,40.03265 21.4885,40.03265 L37.703,43.96565 Z" id="Fill-20" fill="#FAB9AF"></path>
                    <path d="M51.1742,11.44005 C51.1742,11.44005 46.8252,10.93505 50.6902,17.33105 C52.5707,20.43955 49.8987,32.28455 49.8987,32.28455 C49.8987,32.28455 45.3607,48.73355 39.1232,47.45605 C32.8827,46.18005 21.9652,46.88905 19.9807,43.20255 C17.9937,39.51555 14.7337,14.56005 25.5092,10.44855 C36.2852,6.33555 51.1742,11.44005 51.1742,11.44005" id="Fill-22" fill="#FAB9AF"></path>
                    <g id="Group-26" transform="translate(13.000000, 0.054500)">
                        <mask id="mask-12" fill="white">
                            <use xlink:href="#path-11"></use>
                        </mask>
                        <g id="Clip-25"></g>
                        <path d="M45.2894,9.4534 C45.2894,15.0319 40.4139,18.3909 35.7719,18.9374 C32.7584,19.2894 29.7444,18.7969 26.7549,18.2779 C21.7139,17.4019 17.6229,23.1544 16.6204,27.4079 C15.4874,32.2304 20.4494,40.0279 24.8449,37.4769 C29.2409,34.9234 35.9049,34.7814 35.9049,34.7814 C35.9049,34.7814 38.4584,38.0434 37.1829,43.7144 C35.9049,49.3879 21.5854,49.8124 17.1894,46.1259 C12.7939,42.4394 14.4939,32.6544 11.5184,28.9679 C8.5384,25.2809 5.8109,30.8804 5.9869,32.5144 C6.2309,34.7924 10.1389,36.4339 10.1389,36.4339 L7.4929,48.9364 C1.8199,44.8229 -5.9691,12.6569 7.4414,10.4219 C10.1234,1.0344 22.2084,0.4544 28.6359,0.4454 C28.6359,0.4454 45.2894,0.5129 45.2894,9.4534" id="Fill-24" fill="#1A4B69" mask="url(#mask-12)"></path>
                    </g>
                    <polygon id="Fill-27" fill="#FFFFFF" points="37.1234 65.59065 19.9989 59.37065 36.2089 72.20515"></polygon>
                    <polygon id="Fill-29" fill="#FFFFFF" points="37.1234 65.59065 44.5984 70.08315 36.6539 56.60065"></polygon>
                    <polygon id="Fill-31" fill="#A6425F" points="44.59825 70.0831 37.12325 65.5906 36.20925 72.2056 41.42375 74.5511"></polygon>
                    <path d="M42.2887,72.2911 C42.2887,72.2911 49.8902,82.1816 49.8902,106.9866 C49.8902,109.8986 45.9482,114.2646 45.9482,114.2646 L40.6702,107.2301 C40.6702,107.2301 40.9137,77.2601 39.5797,72.2911 C38.2432,67.3221 42.2887,72.2911 42.2887,72.2911" id="Fill-33" fill="#A6425F"></path>
                    <path d="M39.837,375.11925 L39.9545,378.24375 C45.5445,379.91225 49.6575,376.98225 49.6575,376.98225 L49.7545,373.35375 C47.289,373.73975 43.0385,374.41975 39.837,375.11925" id="Fill-35" fill="#E6F7FF"></path>
                    <path d="M5.28625,374.47815 L5.40375,377.56415 C10.97525,379.25315 15.08875,376.30215 15.08875,376.30215 L15.18575,373.04215 C12.48775,373.50765 7.90725,374.26565 5.28625,374.47815" id="Fill-37" fill="#E6F7FF"></path>
                    <path d="M45.46445,58.37045 L36.58745,63.47495 C35.46295,64.12145 34.02695,63.73395 33.38095,62.60995 L21.49695,41.94145 C20.85045,40.81695 21.23795,39.38095 22.36195,38.73495 L31.23945,33.63045 C32.36395,32.98395 33.79945,33.37145 34.44595,34.49545 L46.32995,55.16395 C46.97645,56.28845 46.58895,57.72395 45.46445,58.37045" id="Fill-39" fill="#326C90"></path>
                    <path d="M40.89465,51.4615 C40.89465,51.4615 42.74515,50.4375 44.19365,52.0655 C44.55615,52.473 45.12465,52.983 45.76865,53.6035 C46.46565,54.275 47.25015,55.076 47.95715,56.0175 C49.20865,57.6845 50.21565,59.7905 50.05415,62.394 C50.05415,62.394 59.55765,73.559 60.58865,78.999 C61.62065,84.437 52.78515,86.1915 50.60465,80.952 C48.42765,75.7125 43.86565,67.25 43.86565,67.25 C43.86565,67.25 37.69815,67.252 36.13415,66.0965 C34.56865,64.9395 30.76315,61.832 30.30465,60.563 C29.84715,59.294 32.55165,60.413 33.24165,61.9405 C33.47565,62.462 36.99315,62.9175 37.84665,62.8945 C38.70065,62.8745 34.96365,57.959 33.15365,55.001 C31.34565,52.0445 30.08265,48.8385 30.57965,48.4975 C31.67165,47.7435 33.43665,50.8705 33.88115,51.7015 C34.37465,52.6255 36.14815,54.614 36.14815,54.614" id="Fill-41" fill="#FAB9AF"></path>
                    <path d="M57.1141,67.71835 L48.4666,76.92135 C48.4666,76.92135 60.3666,98.65935 57.5176,102.49985 C57.3751,102.69135 57.0941,102.80385 56.8416,102.98335 C58.7316,108.59135 66.9961,107.50435 71.1521,105.82035 C72.0376,105.35135 73.5626,105.59835 74.3301,105.00635 C74.8756,103.96285 75.2816,103.34035 74.8606,101.37085 C74.0056,94.39985 57.1141,67.71835 57.1141,67.71835" id="Fill-43" fill="#A6425F"></path>
                    <path d="M53.41855,93.10895 C48.09055,91.14045 32.36055,84.20195 24.37305,79.64045 C22.09205,78.33645 12.32355,74.52995 7.92105,78.48945 C1.31305,84.43345 2.00155,91.53345 12.01455,97.24695 C25.15405,104.74395 58.34455,111.42695 69.63805,110.40645 C71.80755,109.80645 78.13705,105.81795 73.92455,100.66295 C70.97705,97.05645 53.64305,93.38245 53.41855,93.10895" id="Fill-45" fill="#A6425F"></path>
                    <path d="M48.2179,35.29035 C48.2179,35.29035 48.8634,36.04035 50.0774,35.99085 C51.5074,35.93235 51.5789,35.17385 51.5789,35.17385 L50.2204,29.04385 C50.2204,29.04385 49.3949,28.55335 49.0759,28.57685 C48.8089,28.59685 48.2179,29.10235 48.2179,29.10235 L48.2179,35.29035 Z" id="Fill-47" fill="#FA978D"></path>
                </g>
            </g>
        </g>
    </g>
</svg>