<svg xmlns="http://www.w3.org/2000/svg" width="96" height="48" viewBox="0 0 96 48">
    <g fill="none" fill-rule="evenodd">
        <path fill="#FCC14A" fill-rule="nonzero" d="M48 0h48v48H48z" opacity=".8"/>
        <path stroke="#FFF" stroke-width="2" d="M1 41l5.611-4.011a5 5 0 0 1 5.815 0l4.487 3.207a5 5 0 0 0 5.816 0l4.898-3.501a5 5 0 0 1 5.815 0l4.218 3.015a5 5 0 0 0 5.816 0l4.492-3.212a5 5 0 0 1 5.559-.171L61 41M1 33l5.611-4.011a5 5 0 0 1 5.815 0l4.487 3.207a5 5 0 0 0 5.816 0l4.898-3.501a5 5 0 0 1 5.815 0l4.218 3.015a5 5 0 0 0 5.816 0l4.492-3.212a5 5 0 0 1 5.559-.171L61 33M1 26l5.611-4.011a5 5 0 0 1 5.815 0l4.487 3.207a5 5 0 0 0 5.816 0l4.898-3.501a5 5 0 0 1 5.815 0l4.218 3.015a5 5 0 0 0 5.816 0l4.492-3.212a5 5 0 0 1 5.559-.171L61 26"/>
    </g>
</svg>
