<svg xmlns="http://www.w3.org/2000/svg" xmlns:xlink="http://www.w3.org/1999/xlink" width="72" height="100" viewBox="0 0 72 100">
    <defs>
        <path id="a" d="M0 .49h58.336v64.127H0z"/>
        <path id="c" d="M.125.313h63.816V17.91H.125z"/>
    </defs>
    <g fill="none" fill-rule="evenodd">
        <g transform="translate(0 .007)">
            <mask id="b" fill="#fff">
                <use xlink:href="#a"/>
            </mask>
            <path fill="#71CEEA" d="M1.856 29.46C5.105 16.405 16.012 5.557 29.53 1.843A34.889 34.889 0 0 1 36.317.626c7.252-.638 14.388.986 20.595 4.7 1.625.986 1.915 3.19.58 4.524l-8.411 8.413-28.428 45.02a2.926 2.926 0 0 1-2.436 1.334H6.033c-1.275 0-2.378-.813-2.726-2.031C1.625 57.249 0 51.157 0 43.673c0-4.235.522-8.934 1.856-14.214" mask="url(#b)"/>
        </g>
        <path fill="#FDC149" d="M11.061 83.187l1.973-2.958c4.989-7.483 4.526-12.241 3.365-15.896l-.987-3.191c-2.61-8.238-5.105-16.07-1.855-28.95 2.204-8.933 10.035-16.707 19.492-19.318a27.36 27.36 0 0 1 3.655-.755c7.194-.87 14.156 1.509 19.435 6.847L69.424 32.25c3.423 3.365 3.423 8.934 0 12.3l-3.364 3.365c-3.308 3.306-8.877 3.77-12.938-.581-2.32-2.495-5.221-4.815-9.282-3.365a26.906 26.906 0 0 0 6.207 6.613C58.053 56.56 62.81 66.074 62.81 76.11v8.702a2.872 2.872 0 0 1-2.9 2.901H13.497c-2.32 0-3.712-2.61-2.436-4.526"/>
        <g transform="translate(4.478 81.599)">
            <mask id="d" fill="#fff">
                <use xlink:href="#c"/>
            </mask>
            <path fill="#71CEEA" d="M8.827.313H55.24a8.69 8.69 0 0 1 8.702 8.702v5.995a2.872 2.872 0 0 1-2.9 2.9H3.026a2.872 2.872 0 0 1-2.9-2.9V9.015A8.69 8.69 0 0 1 8.826.313" mask="url(#d)"/>
        </g>
    </g>
</svg>
