<svg xmlns="http://www.w3.org/2000/svg" width="82" height="82" viewBox="0 0 82 82">
    <g fill="none" fill-rule="evenodd">
        <path fill="#FDC149" d="M40.878.497C18.301.497 0 18.688 0 41.127c0 22.44 18.301 40.63 40.878 40.63 22.576 0 40.878-18.19 40.878-40.63 0-22.439-18.302-40.63-40.878-40.63"/>
        <path stroke="#71CEEA" stroke-width="5" d="M40.878 8.55c-18.102 0-32.776 14.585-32.776 32.577 0 17.992 14.674 32.578 32.776 32.578 18.102 0 32.776-14.586 32.776-32.578 0-17.992-14.674-32.577-32.776-32.577z"/>
        <path fill="#71CEEA" d="M42.82 37.997c-4.615-1.84-5.949-2.95-5.949-4.96 0-1.606 1.224-3.483 4.677-3.483 3.053 0 5.395 1.196 5.416 1.207.247.13.523.2.797.2a1.61 1.61 0 0 0 1.505-1.024l.837-2.131c.293-.776-.15-1.453-.715-1.696-1.88-.813-5.554-1.443-5.592-1.45-.059-.01-.265-.054-.265-.293l-.012-3.091c0-.932-.782-1.69-1.742-1.69h-1.505c-.96 0-1.741.758-1.741 1.69l.004 3.25c0 .25-.271.358-.371.381-4.638 1.098-7.537 4.475-7.537 8.734 0 5.31 4.416 7.71 9.185 9.51 3.811 1.488 5.367 2.997 5.367 5.209 0 2.407-2.203 4.088-5.358 4.088-2.694 0-6.34-1.697-6.376-1.714a1.714 1.714 0 0 0-.735-.166c-.694 0-1.297.417-1.54 1.063l-.8 2.155c-.285.806.153 1.459.714 1.75 2.24 1.159 6.573 1.838 6.765 1.867.052.008.316.1.316.34v3.236c0 .93.782 1.69 1.743 1.69h1.554c.961 0 1.743-.759 1.743-1.69v-3.406c0-.318.237-.347.286-.358 4.941-1.103 7.984-4.696 7.984-9.208 0-4.634-2.59-7.629-8.656-10.01"/>
    </g>
</svg>
