<svg xmlns="http://www.w3.org/2000/svg" viewBox="0 0 332 327">
    <g fill="none" fill-rule="evenodd">
        <path fill="#E9E9E9" d="M302.54 296.946H108.36c-7.1 0-12.91-5.887-12.91-13.082V40.027c0-7.195 5.81-13.081 12.91-13.081h194.18c7.1 0 12.91 5.886 12.91 13.081v243.837c0 7.195-5.81 13.082-12.91 13.082"/>
        <path fill="#FDC149" d="M267.303 270H73.124c-7.1 0-12.91-5.887-12.91-13.081V13.08c0-7.194 5.81-13.08 12.91-13.08h194.179c7.1 0 12.91 5.886 12.91 13.08V256.92c0 7.194-5.81 13.081-12.91 13.081"/>
        <path fill="#345287" d="M215.493 206.577c0-1.196.71-2.262 1.813-2.73l6.918-2.954a3.076 3.076 0 0 0 1.608-1.645c.037-.093.074-.169.093-.262a2.965 2.965 0 0 0 0-2.262l-2.842-6.899c-.448-1.103-.205-2.393.655-3.234l3.16-3.16a2.974 2.974 0 0 1 3.215-.655l7.011 2.824c.71.28 1.515.28 2.244 0 .056-.02.13-.057.187-.075a3.018 3.018 0 0 0 1.663-1.627l2.898-6.936a3 3 0 0 1 2.749-1.832h4.468c1.197 0 2.263.71 2.73 1.813l2.991 7.012c.318.728.898 1.29 1.627 1.588a.265.265 0 0 0 .112.038c.73.3 1.552.318 2.281 0l6.992-2.88c1.103-.447 2.394-.205 3.235.655l3.16 3.16a2.974 2.974 0 0 1 .654 3.215l-2.842 7.105a3 3 0 0 0 .019 2.243c0 .02.019.038.019.057.3.748.879 1.346 1.626 1.664l7.03 2.935a2.999 2.999 0 0 1 1.833 2.748v4.469c0 1.197-.71 2.262-1.814 2.73l-7.067 3.01a3.017 3.017 0 0 0-1.608 1.645l-.038.093c-.28.71-.28 1.515.019 2.225l2.917 7.03a2.936 2.936 0 0 1-.655 3.235l-3.159 3.159a2.975 2.975 0 0 1-3.216.655l-7.105-2.842a3 3 0 0 0-2.243.019c-.038.019-.094.037-.13.056a3.04 3.04 0 0 0-1.627 1.608l-2.88 7.01a2.999 2.999 0 0 1-2.748 1.833h-4.468a2.955 2.955 0 0 1-2.73-1.814l-2.973-6.955a2.961 2.961 0 0 0-1.682-1.607c-.057-.02-.131-.056-.187-.075a3.098 3.098 0 0 0-2.244 0l-6.936 2.86c-1.103.449-2.394.206-3.235-.654l-3.16-3.16a2.974 2.974 0 0 1-.654-3.215l2.805-6.974c.299-.73.28-1.533-.019-2.262-.037-.094-.075-.168-.112-.262a2.931 2.931 0 0 0-1.627-1.645l-6.88-2.86a2.999 2.999 0 0 1-1.833-2.75v-4.467h-.018v-.001zm-7.124 98.53v16.902a4.676 4.676 0 0 0 4.674 4.673h65.755a4.676 4.676 0 0 0 4.674-4.673v-16.472h18.36c7.348 0 13.35-6.002 13.35-13.35v-23.37l10.75-.205c4.262-.075 6.955-4.637 4.954-8.395l-11.741-22.137a34.16 34.16 0 0 1-3.982-16.004c0-35.205-28.68-63.699-63.961-63.418-35.167.28-63.25 28.905-62.894 64.073.112 10.133 2.598 19.706 6.917 28.157 8.62 16.808 13.144 35.373 13.144 54.22z"/>
        <path fill="#70CCEC" d="M215.493 206.572c0-1.197.71-2.262 1.813-2.73l6.918-2.953a3.077 3.077 0 0 0 1.608-1.646c.037-.093.074-.168.093-.261a2.965 2.965 0 0 0 0-2.263l-2.842-6.899c-.448-1.103-.205-2.393.655-3.234l3.16-3.16a2.976 2.976 0 0 1 3.215-.655l7.011 2.824c.71.28 1.515.28 2.244 0 .056-.02.13-.056.187-.075a3.019 3.019 0 0 0 1.663-1.627l2.898-6.936a2.999 2.999 0 0 1 2.749-1.832h4.468c1.197 0 2.263.71 2.73 1.814l2.991 7.01a3.01 3.01 0 0 0 1.627 1.59.264.264 0 0 0 .112.037c.73.3 1.552.318 2.281 0l6.992-2.879c1.103-.449 2.394-.206 3.235.654l3.16 3.16a2.973 2.973 0 0 1 .654 3.215l-2.842 7.105c-.28.73-.28 1.533.019 2.244 0 .019.019.038.019.056.3.748.879 1.346 1.626 1.664l7.03 2.936a2.998 2.998 0 0 1 1.833 2.748v4.468c0 1.196-.71 2.262-1.814 2.73l-7.067 3.01a3.017 3.017 0 0 0-1.608 1.645l-.038.094c-.28.71-.28 1.515.019 2.224l2.917 7.03a2.937 2.937 0 0 1-.655 3.235l-3.159 3.16a2.975 2.975 0 0 1-3.216.654l-7.105-2.842a3.005 3.005 0 0 0-2.243.019c-.038.019-.094.037-.13.056-.73.3-1.31.879-1.627 1.608l-2.88 7.011a2.999 2.999 0 0 1-2.748 1.833h-4.468a2.955 2.955 0 0 1-2.73-1.814l-2.973-6.955a2.962 2.962 0 0 0-1.682-1.608c-.057-.02-.131-.057-.187-.075a3.098 3.098 0 0 0-2.244 0l-6.936 2.861c-1.103.448-2.394.205-3.235-.655l-3.16-3.16a2.973 2.973 0 0 1-.654-3.215l2.805-6.974c.299-.729.28-1.533-.019-2.262-.037-.094-.075-.168-.112-.262a2.934 2.934 0 0 0-1.627-1.645l-6.88-2.86a3 3 0 0 1-1.833-2.75v-4.467h-.018z"/>
        <path fill="#345287" d="M249.146 221.39c6.973 0 12.62-5.647 12.62-12.62 0-6.975-5.646-12.62-12.62-12.62-6.974 0-12.62 5.645-12.62 12.62 0 6.954 5.646 12.62 12.62 12.62M99.475 161.019l-48.206 48.206c-.7.7-1.837.7-2.537 0L.526 161.019c-.7-.701-.7-1.837 0-2.537l48.206-48.206c.7-.701 1.836-.701 2.537 0l48.206 48.206c.7.7.7 1.836 0 2.537"/>
        <path stroke="#FFF" stroke-linecap="round" stroke-linejoin="round" stroke-width="14" d="M201.515 102.006c-10.504 1.938-20.765-1.263-28.198-7.82A33.285 33.285 0 0 1 162.578 75.2c-3.349-18.155 8.652-35.587 26.806-38.936 18.155-3.35 35.587 8.651 38.936 26.805 3.35 18.155-8.65 35.587-26.805 38.937zM141.451 132.06l31.866-37.874"/>
    </g>
</svg>
