<svg xmlns="http://www.w3.org/2000/svg" xmlns:xlink="http://www.w3.org/1999/xlink" width="80" height="95" viewBox="0 0 80 95">
    <defs>
        <path id="a" d="M0 .259h79.921V94H0z"/>
    </defs>
    <g fill="none" fill-rule="evenodd">
        <g transform="translate(0 .241)">
            <mask id="b" fill="#fff">
                <use xlink:href="#a"/>
            </mask>
            <path fill="#FDC149" d="M15.168 26.994a1.65 1.65 0 0 1 1.012-1.523l3.859-1.648c.407-.178.73-.511.898-.918.02-.052.041-.094.052-.146a1.652 1.652 0 0 0 0-1.262l-1.586-3.85a1.657 1.657 0 0 1 .365-1.804l1.763-1.762a1.658 1.658 0 0 1 1.794-.365l3.912 1.575c.396.156.845.156 1.251 0 .032-.01.073-.032.105-.042.417-.167.75-.49.928-.908l1.617-3.87A1.672 1.672 0 0 1 32.67 9.45h2.493c.667 0 1.262.397 1.523 1.012l1.669 3.912c.177.406.5.72.907.886a.15.15 0 0 0 .063.021c.406.167.865.177 1.272 0l3.901-1.606a1.658 1.658 0 0 1 1.805.365l1.762 1.763c.47.469.616 1.178.365 1.794l-1.585 3.963c-.157.407-.157.856.01 1.252 0 .01.01.02.01.031.168.417.491.751.908.929l3.922 1.637a1.673 1.673 0 0 1 1.023 1.534v2.492a1.65 1.65 0 0 1-1.012 1.523l-3.943 1.68c-.407.177-.73.5-.897.918l-.02.052c-.157.396-.157.845.01 1.24l1.627 3.923a1.638 1.638 0 0 1-.365 1.804l-1.763 1.763a1.66 1.66 0 0 1-1.794.365l-3.964-1.585a1.675 1.675 0 0 0-1.251.01c-.021.01-.053.021-.073.032-.407.167-.73.49-.908.897l-1.606 3.911a1.674 1.674 0 0 1-1.533 1.022h-2.493a1.65 1.65 0 0 1-1.523-1.011l-1.658-3.88a1.653 1.653 0 0 0-.94-.898c-.031-.01-.072-.03-.104-.041a1.727 1.727 0 0 0-1.251 0l-3.87 1.596a1.658 1.658 0 0 1-1.805-.365l-1.762-1.763a1.658 1.658 0 0 1-.365-1.794l1.564-3.891a1.652 1.652 0 0 0-.01-1.262c-.021-.052-.042-.094-.063-.146a1.636 1.636 0 0 0-.907-.918L16.2 31.02a1.673 1.673 0 0 1-1.022-1.533v-2.493h-.011zm-3.974 54.97v9.428A2.609 2.609 0 0 0 13.802 94h36.684a2.61 2.61 0 0 0 2.608-2.608v-9.189h10.243c4.099 0 7.447-3.348 7.447-7.447V61.717l5.998-.114c2.378-.042 3.88-2.587 2.764-4.684l-6.55-12.35a19.058 19.058 0 0 1-2.222-8.928C70.774 16 54.773.103 35.09.26 15.47.416-.196 16.386 0 36.006a35.309 35.309 0 0 0 3.86 15.708c4.809 9.377 7.333 19.735 7.333 30.25z" mask="url(#b)"/>
        </g>
        <path fill="#71CEEA" d="M14.168 27.167c0-.703.418-1.329 1.065-1.604l4.065-1.736c.43-.187.77-.538.946-.967.021-.054.043-.099.055-.153a1.74 1.74 0 0 0 0-1.33l-1.67-4.054a1.745 1.745 0 0 1 .384-1.9l1.857-1.857a1.748 1.748 0 0 1 1.889-.385l4.12 1.66c.417.164.89.164 1.318 0 .034-.011.077-.033.11-.044.44-.176.792-.517.978-.956l1.703-4.076a1.761 1.761 0 0 1 1.615-1.077h2.626c.703 0 1.33.418 1.604 1.066l1.758 4.12c.186.428.527.758.955.934.022.01.044.022.066.022.428.175.912.186 1.34 0l4.11-1.692a1.745 1.745 0 0 1 1.9.384l1.856 1.856c.495.495.649 1.242.385 1.89l-1.67 4.175c-.165.429-.165.901.01 1.318 0 .012.012.023.012.034.176.439.516.79.956.977l4.13 1.725a1.762 1.762 0 0 1 1.078 1.615v2.626c0 .703-.418 1.33-1.066 1.604L48.5 33.11a1.772 1.772 0 0 0-.945.966l-.022.056c-.165.417-.165.89.011 1.307l1.714 4.13a1.725 1.725 0 0 1-.384 1.901l-1.857 1.857a1.749 1.749 0 0 1-1.89.385l-4.175-1.67a1.764 1.764 0 0 0-1.318.01c-.022.012-.055.022-.077.034a1.785 1.785 0 0 0-.955.945l-1.692 4.12a1.763 1.763 0 0 1-1.615 1.076h-2.626c-.703 0-1.33-.418-1.604-1.065l-1.746-4.088c-.187-.439-.55-.78-.99-.944-.032-.011-.076-.034-.11-.044a1.819 1.819 0 0 0-1.318 0l-4.076 1.68a1.745 1.745 0 0 1-1.9-.384l-1.857-1.856a1.747 1.747 0 0 1-.384-1.89l1.648-4.098a1.74 1.74 0 0 0-.011-1.33c-.022-.054-.044-.099-.066-.153a1.725 1.725 0 0 0-.956-.967l-4.043-1.681a1.761 1.761 0 0 1-1.077-1.615v-2.626h-.011z"/>
        <path fill="#FDC149" d="M39.462 27.797a5.504 5.504 0 1 1-11.008 0 5.504 5.504 0 0 1 11.008 0"/>
    </g>
</svg>
