<svg xmlns="http://www.w3.org/2000/svg" xmlns:xlink="http://www.w3.org/1999/xlink" width="80" height="80" viewBox="0 0 80 80">
    <defs>
        <path id="a" d="M.223.296h19.86v25.262H.223z"/>
    </defs>
    <g fill="none" fill-rule="evenodd">
        <path fill="#71CEEA" d="M68.196 12.124C60.669 4.628 50.633.5 39.978.5c-10.654 0-20.69 4.128-28.217 11.624C4.235 19.62.064 29.577.064 40.164c0 10.59 4.154 20.562 11.697 28.042 7.543 7.48 17.563 11.624 28.217 11.624 10.655 0 20.691-4.128 28.218-11.624 7.526-7.496 11.697-17.453 11.697-28.041 0-10.588-4.154-20.561-11.697-28.04"/>
        <path fill="#FDC149" d="M79.92 38.204H62.879c-.161-6.739-1.112-13.228-2.78-18.986a43.605 43.605 0 0 0 9.06-6.204c6.278 6.667 10.279 15.474 10.763 25.19M41.925 42.126h17.024c-.143 6.204-1.004 12.14-2.493 17.453a44.604 44.604 0 0 0-14.531-3.137V42.126zM66.323 10.286a39.968 39.968 0 0 1-7.463 5.152 45.34 45.34 0 0 0-2.314-5.348c-1.705-3.351-3.642-6.097-5.777-8.2a39.925 39.925 0 0 1 15.554 8.396M41.925 1.016c4.108.91 7.983 4.67 11.104 10.803a44.369 44.369 0 0 1 2.26 5.295 40.488 40.488 0 0 1-13.364 2.977V1.016zM56.474 20.876c1.471 5.277 2.314 11.178 2.458 17.346H41.925v-14.19a44.64 44.64 0 0 0 14.549-3.156M37.978 38.204H20.954c.143-6.168.986-12.07 2.457-17.346a43.812 43.812 0 0 0 14.549 3.137v14.209h.018zM37.996 1.016V20.09a40.386 40.386 0 0 1-13.365-2.977 44.37 44.37 0 0 1 2.26-5.295c3.122-6.132 6.997-9.894 11.105-10.803M29.152 1.89c-2.135 2.103-4.073 4.866-5.777 8.2a52.293 52.293 0 0 0-2.314 5.348 40.608 40.608 0 0 1-7.463-5.152A39.918 39.918 0 0 1 29.152 1.89M10.764 13.014a44.3 44.3 0 0 0 9.06 6.204c-1.669 5.776-2.638 12.247-2.781 18.986H0c.485-9.716 4.485-18.523 10.764-25.19M0 42.126h17.043c.161 6.792 1.13 13.3 2.816 19.094a43.177 43.177 0 0 0-9.023 6.168C4.503 60.702.485 51.878 0 42.126M13.67 70.115A40.147 40.147 0 0 1 21.097 65c.682 1.836 1.435 3.6 2.279 5.241 1.704 3.352 3.64 6.097 5.776 8.219a40.12 40.12 0 0 1-15.482-8.344M37.996 79.314c-4.108-.909-7.983-4.67-11.104-10.803a45.78 45.78 0 0 1-2.225-5.188 39.807 39.807 0 0 1 13.329-2.96v18.951zM23.465 59.58c-1.489-5.313-2.35-11.25-2.494-17.454h17.025v14.316a43.705 43.705 0 0 0-14.531 3.137M41.943 79.314v-18.95c4.628.231 9.13 1.23 13.33 2.96a45.78 45.78 0 0 1-2.226 5.187c-3.121 6.132-6.996 9.894-11.104 10.803M50.787 78.44c2.135-2.103 4.072-4.866 5.777-8.218.843-1.64 1.596-3.405 2.278-5.24a40.124 40.124 0 0 1 7.427 5.115 39.65 39.65 0 0 1-15.482 8.344"/>
        <g transform="translate(59.874 41.83)">
            <mask id="b" fill="#fff">
                <use xlink:href="#a"/>
            </mask>
            <path fill="#FDC149" d="M9.247 25.558A43.873 43.873 0 0 0 .223 19.39C1.91 13.596 2.88 7.07 3.04.296h17.043c-.502 9.752-4.521 18.576-10.836 25.262" mask="url(#b)"/>
        </g>
    </g>
</svg>
