<svg xmlns="http://www.w3.org/2000/svg" xmlns:xlink="http://www.w3.org/1999/xlink" viewBox="0 0 350 338">
    <defs>
        <path id="serv-a4" d="M.304.326h220.562v267.16H.304z"/>
        <path id="serv-c4" d="M0 .501h124.26v124.26H0z"/>
    </defs>
    <g fill="none" fill-rule="evenodd">
        <path fill="#E9E9E9" d="M291.787 297.44H97.609c-7.101 0-12.911-5.886-12.911-13.08V40.521c0-7.195 5.81-13.081 12.91-13.081h194.179c7.101 0 12.91 5.886 12.91 13.081V284.36c0 7.195-5.809 13.082-12.91 13.082"/>
        <g transform="translate(49.186 .192)">
            <mask id="serv-b4" fill="#fff">
                <use xlink:href="#serv-a4"/>
            </mask>
            <path fill="#FDC149" d="M207.394 270.326H13.215c-7.1 0-12.91-5.887-12.91-13.082V13.407C.304 6.212 6.114.326 13.214.326h194.179c7.1 0 12.91 5.886 12.91 13.081v243.837c0 7.195-5.81 13.082-12.91 13.082" mask="url(#serv-b4)"/>
        </g>
        <path fill="#345287" d="M268.77 176c-44.61 0-80.77 36.163-80.77 80.77s36.16 80.771 80.77 80.771c44.607 0 80.768-36.164 80.768-80.771S313.378 176 268.77 176"/>
        <path stroke="#70CCEC" stroke-width="10" d="M268.806 190C231.909 190 202 219.911 202 256.806c0 36.896 29.909 66.808 66.806 66.808 36.895 0 66.804-29.912 66.804-66.808 0-36.895-29.909-66.806-66.804-66.806z"/>
        <path fill="#70CCEC" d="M272.316 250.766c-9.127-3.659-11.764-5.872-11.764-9.867 0-3.197 2.422-6.933 9.25-6.933 6.039 0 10.67 2.381 10.712 2.402.487.26 1.034.399 1.575.399 1.322 0 2.491-.8 2.976-2.038l1.658-4.241c.578-1.545-.298-2.892-1.416-3.375-3.718-1.619-10.985-2.87-11.06-2.884-.116-.02-.523-.107-.523-.584l-.024-6.152c0-1.853-1.547-3.361-3.446-3.361h-2.976c-1.898 0-3.444 1.507-3.444 3.362l.008 6.468c0 .496-.537.711-.733.756-9.174 2.186-14.906 8.905-14.906 17.381 0 10.566 8.734 15.34 18.165 18.925 7.538 2.96 10.613 5.96 10.613 10.363 0 4.79-4.355 8.135-10.595 8.135-5.328 0-12.54-3.377-12.61-3.412a3.364 3.364 0 0 0-1.453-.329 3.22 3.22 0 0 0-3.046 2.116l-1.584 4.29c-.563 1.6.304 2.9 1.414 3.479 4.429 2.306 12.997 3.658 13.38 3.717.101.015.623.198.623.675v6.44c0 1.853 1.547 3.36 3.448 3.36h3.074c1.902 0 3.449-1.506 3.449-3.36v-6.777c0-.634.467-.69.564-.713 9.772-2.196 15.791-9.345 15.791-18.323-.002-9.221-5.123-15.18-17.12-19.919"/>
        <g transform="translate(0 206.257)">
            <mask id="serv-d4" fill="#fff">
                <use xlink:href="#serv-c4"/>
            </mask>
            <path fill="#345287" d="M97.363 100.501H2.637A2.637 2.637 0 0 1 0 97.864V3.139A2.637 2.637 0 0 1 2.637.5h94.726A2.637 2.637 0 0 1 100 3.139v94.725a2.637 2.637 0 0 1-2.637 2.637" mask="url(#serv-d4)"/>
        </g>
        <path fill="#FFF" d="M190.634 76.699a6.2 6.2 0 0 0 4.367-1.813 6.2 6.2 0 0 0 1.812-4.366 6.22 6.22 0 0 0-1.812-4.371 6.217 6.217 0 0 0-4.367-1.808c-1.627 0-3.218.66-4.37 1.808a6.24 6.24 0 0 0-1.809 4.371c0 1.627.66 3.218 1.808 4.366a6.217 6.217 0 0 0 4.371 1.813"/>
        <path stroke="#FFF" stroke-linecap="round" stroke-linejoin="round" stroke-width="14" d="M108.793 136.406h101.958V51.847H108.793z"/>
        <path stroke="#FFF" stroke-linecap="round" stroke-linejoin="round" stroke-width="14" d="M133.251 110.064l17.082-15.112 7.418 7.056 20.148-19.272"/>
    </g>
</svg>
