<svg xmlns="http://www.w3.org/2000/svg" xmlns:xlink="http://www.w3.org/1999/xlink" viewBox="0 0 1168 393">
    <defs>
        <path id="a" d="M.425.472h74.538V126.67H.425z"/>
        <path id="c" d="M.135.455h28.301V18.5H.135z"/>
        <path id="e" d="M20.749 5.4L.051 71.653c-.218.698.47 1.351 1.148 1.075a5.029 5.029 0 0 1 3.54-.096l8.238 2.834c.442.153.904.253 1.371.294 5.469.483 6.628 3.886 6.752 6.283a5.869 5.869 0 0 1-1.034 3.618l-2.491 3.631c-.235.343-.437.71-.595 1.094-3.042 7.412 4.535 10.175 6.595 10.776.329.096.647.223.947.389 2.99 1.653 5.287 1.769 6.925 1.376 1.771-.424 3.137-1.833 3.604-3.594.506-1.903 1.346-5.34 2.271-10.27 1.274-6.784 5.575-4.832 6.825-4.102.267.157.547.293.839.4a11.485 11.485 0 0 1 6.192 5.392.748.748 0 0 0 .852.366 5.799 5.799 0 0 1 3.215.07l1.347.421a.877.877 0 0 0 1.116-.654c2.666-12.063 10.056-23.6 8.468-35.404-.376-1.279-6.746-1.75-6.977-6.33l-.006-3.342a14.037 14.037 0 0 1 .589-4.059c1.794-5.974 4.773-12.457 9.447-12.343 8.301.481 10.933-5.462 12.776-11.643a.877.877 0 0 0-.576-1.089L29.851.632a7.214 7.214 0 0 0-2.152-.329c-3.096 0-5.982 1.998-6.95 5.098"/>
        <path id="g" d="M20.749 5.4L.051 71.653c-.218.698.47 1.351 1.148 1.075a5.029 5.029 0 0 1 3.54-.096l8.238 2.834c.442.153.904.253 1.371.294 5.469.483 6.628 3.886 6.752 6.283a5.869 5.869 0 0 1-1.034 3.618l-2.491 3.631c-.235.343-.437.71-.595 1.094-3.042 7.412 4.535 10.175 6.595 10.776.329.096.647.223.947.389 2.99 1.653 5.287 1.769 6.925 1.376 1.771-.424 3.137-1.833 3.604-3.594.506-1.903 1.346-5.34 2.271-10.27 1.274-6.784 5.575-4.832 6.825-4.102.267.157.547.293.839.4a11.485 11.485 0 0 1 6.192 5.392.748.748 0 0 0 .852.366 5.799 5.799 0 0 1 3.215.07l1.347.421a.877.877 0 0 0 1.116-.654c2.666-12.063 10.056-23.6 8.468-35.404-.376-1.279-6.746-1.75-6.977-6.33l-.006-3.342a14.037 14.037 0 0 1 .589-4.059c1.794-5.974 4.773-12.457 9.447-12.343 8.301.481 10.933-5.462 12.776-11.643a.877.877 0 0 0-.576-1.089L29.851.632a7.214 7.214 0 0 0-2.152-.329c-3.096 0-5.982 1.998-6.95 5.098z"/>
        <path id="i" d="M20.749 5.4L.051 71.653c-.218.698.47 1.351 1.148 1.075a5.029 5.029 0 0 1 3.54-.096l8.238 2.834c.442.153.904.253 1.371.294 5.469.483 6.628 3.886 6.752 6.283a5.869 5.869 0 0 1-1.034 3.618l-2.491 3.631c-.235.343-.437.71-.595 1.094-3.042 7.412 4.535 10.175 6.595 10.776.329.096.647.223.947.389 2.99 1.653 5.287 1.769 6.925 1.376 1.771-.424 3.137-1.833 3.604-3.594.506-1.903 1.346-5.34 2.271-10.27 1.274-6.784 5.575-4.832 6.825-4.102.267.157.547.293.839.4a11.485 11.485 0 0 1 6.192 5.392.748.748 0 0 0 .852.366 5.799 5.799 0 0 1 3.215.07l1.347.421a.877.877 0 0 0 1.116-.654c2.666-12.063 10.056-23.6 8.468-35.404-.376-1.279-6.746-1.75-6.977-6.33l-.006-3.342a14.037 14.037 0 0 1 .589-4.059c1.794-5.974 4.773-12.457 9.447-12.343 8.301.481 10.933-5.462 12.776-11.643a.877.877 0 0 0-.576-1.089L29.851.632a7.214 7.214 0 0 0-2.152-.329c-3.096 0-5.982 1.998-6.95 5.098z"/>
        <path id="k" d="M77.478 5.247a6.16 6.16 0 0 0 .376 3.22c.539 1.36 1.341 3.682 1.622 6.051.436 3.664-2.466 6.873-6.155 6.873H63.029c-1.119 0-2.23.282-3.178.878a5.817 5.817 0 0 0-.632.459 12.267 12.267 0 0 0-8.49-4.008 5.62 5.62 0 0 1-.983-.14c-1.504-.345-6.505-.965-5.644 6.348.626 5.316.864 9.083.955 11.183.084 1.94-.858 3.81-2.527 4.806-1.543.92-3.92 1.534-7.49.801a4.966 4.966 0 0 0-1.088-.095c-2.314.043-11.07-.37-10.117-9.155.034-.312.105-.618.197-.917l1.503-4.884a5.342 5.342 0 0 0 .035-3.057c-.708-2.442-2.838-6.317-9.169-4.903a5.285 5.285 0 0 1-1.306.124l-9.4-.268a5.392 5.392 0 0 0-5.546 5.39v48.63a5.391 5.391 0 0 0 5.391 5.392h50.477a5.338 5.338 0 0 0 3.251-1.097 6.178 6.178 0 0 0 3.515 1.097h48.27a6.192 6.192 0 0 0 6.192-6.192V29.029a6.192 6.192 0 0 0-5.591-6.163l-13.46-1.313c-1.7-.166-3.29-1.001-4.3-2.38-.809-1.103-1.279-2.581-.395-4.35 0 0 7.038-14.888-5.64-14.227a6.367 6.367 0 0 1-1.88-.175 11.107 11.107 0 0 0-2.644-.343c-2.374 0-5.194.939-5.857 5.168"/>
        <path id="m" d="M77.478 5.247a6.16 6.16 0 0 0 .376 3.22c.539 1.36 1.341 3.682 1.622 6.051.436 3.664-2.466 6.873-6.155 6.873H63.029c-1.119 0-2.23.282-3.178.878a5.817 5.817 0 0 0-.632.459 12.267 12.267 0 0 0-8.49-4.008 5.62 5.62 0 0 1-.983-.14c-1.504-.345-6.505-.965-5.644 6.348.626 5.316.864 9.083.955 11.183.084 1.94-.858 3.81-2.527 4.806-1.543.92-3.92 1.534-7.49.801a4.966 4.966 0 0 0-1.088-.095c-2.314.043-11.07-.37-10.117-9.155.034-.312.105-.618.197-.917l1.503-4.884a5.342 5.342 0 0 0 .035-3.057c-.708-2.442-2.838-6.317-9.169-4.903a5.285 5.285 0 0 1-1.306.124l-9.4-.268a5.392 5.392 0 0 0-5.546 5.39v48.63a5.391 5.391 0 0 0 5.391 5.392h50.477a5.338 5.338 0 0 0 3.251-1.097 6.178 6.178 0 0 0 3.515 1.097h48.27a6.192 6.192 0 0 0 6.192-6.192V29.029a6.192 6.192 0 0 0-5.591-6.163l-13.46-1.313c-1.7-.166-3.29-1.001-4.3-2.38-.809-1.103-1.279-2.581-.395-4.35 0 0 7.038-14.888-5.64-14.227a6.367 6.367 0 0 1-1.88-.175 11.107 11.107 0 0 0-2.644-.343c-2.374 0-5.194.939-5.857 5.168z"/>
        <path id="o" d="M77.478 5.247a6.16 6.16 0 0 0 .376 3.22c.539 1.36 1.341 3.682 1.622 6.051.436 3.664-2.466 6.873-6.155 6.873H63.029c-1.119 0-2.23.282-3.178.878a5.817 5.817 0 0 0-.632.459 12.267 12.267 0 0 0-8.49-4.008 5.62 5.62 0 0 1-.983-.14c-1.504-.345-6.505-.965-5.644 6.348.626 5.316.864 9.083.955 11.183.084 1.94-.858 3.81-2.527 4.806-1.543.92-3.92 1.534-7.49.801a4.966 4.966 0 0 0-1.088-.095c-2.314.043-11.07-.37-10.117-9.155.034-.312.105-.618.197-.917l1.503-4.884a5.342 5.342 0 0 0 .035-3.057c-.708-2.442-2.838-6.317-9.169-4.903a5.285 5.285 0 0 1-1.306.124l-9.4-.268a5.392 5.392 0 0 0-5.546 5.39v48.63a5.391 5.391 0 0 0 5.391 5.392h50.477a5.338 5.338 0 0 0 3.251-1.097 6.178 6.178 0 0 0 3.515 1.097h48.27a6.192 6.192 0 0 0 6.192-6.192V29.029a6.192 6.192 0 0 0-5.591-6.163l-13.46-1.313c-1.7-.166-3.29-1.001-4.3-2.38-.809-1.103-1.279-2.581-.395-4.35 0 0 7.038-14.888-5.64-14.227a6.367 6.367 0 0 1-1.88-.175 11.107 11.107 0 0 0-2.644-.343c-2.374 0-5.194.939-5.857 5.168z"/>
        <path id="q" d="M47.282.326L14.727 2.861a2.943 2.943 0 0 0-2.709 3.086c.272 5.431-.647 10.588-7.348 12.83C.564 20.305.156 26.883.641 32.733c.127 1.536.501 3.042 1.076 4.472L2.78 39.85c1.83 3.98 7.648 2.138 8.434 3.14 5.303 9.382 3.375 21.41 4.784 32.55a2.938 2.938 0 0 0 3.148 2.549l.457-.035c5.914-.462 9.524-6.733 6.935-12.07l-.038-.076a5.526 5.526 0 0 1-.56-2.849c.415-5.328 5.018-5.239 7.07-4.929a7.696 7.696 0 0 0 2.047.034c11.046-1.31 5.853 12.33 5.853 12.33-.666 1.64-.144 2.927.654 3.856.998 1.16 2.475 1.796 4.005 1.825l12.107.237c.316.006.626.038.926.096 1.892.357 3.598-1.206 3.448-3.125L57.005 8.643C56.636 3.92 52.65.299 47.986.299c-.233 0-.468.01-.704.028"/>
        <path id="s" d="M47.282.326L14.727 2.861a2.943 2.943 0 0 0-2.709 3.086c.272 5.431-.647 10.588-7.348 12.83C.564 20.305.156 26.883.641 32.733c.127 1.536.501 3.042 1.076 4.472L2.78 39.85c1.83 3.98 7.648 2.138 8.434 3.14 5.303 9.382 3.375 21.41 4.784 32.55a2.938 2.938 0 0 0 3.148 2.549l.457-.035c5.914-.462 9.524-6.733 6.935-12.07l-.038-.076a5.526 5.526 0 0 1-.56-2.849c.415-5.328 5.018-5.239 7.07-4.929a7.696 7.696 0 0 0 2.047.034c11.046-1.31 5.853 12.33 5.853 12.33-.666 1.64-.144 2.927.654 3.856.998 1.16 2.475 1.796 4.005 1.825l12.107.237c.316.006.626.038.926.096 1.892.357 3.598-1.206 3.448-3.125L57.005 8.643C56.636 3.92 52.65.299 47.986.299c-.233 0-.468.01-.704.028z"/>
        <path id="u" d="M47.282.326L14.727 2.861a2.943 2.943 0 0 0-2.709 3.086c.272 5.431-.647 10.588-7.348 12.83C.564 20.305.156 26.883.641 32.733c.127 1.536.501 3.042 1.076 4.472L2.78 39.85c1.83 3.98 7.648 2.138 8.434 3.14 5.303 9.382 3.375 21.41 4.784 32.55a2.938 2.938 0 0 0 3.148 2.549l.457-.035c5.914-.462 9.524-6.733 6.935-12.07l-.038-.076a5.526 5.526 0 0 1-.56-2.849c.415-5.328 5.018-5.239 7.07-4.929a7.696 7.696 0 0 0 2.047.034c11.046-1.31 5.853 12.33 5.853 12.33-.666 1.64-.144 2.927.654 3.856.998 1.16 2.475 1.796 4.005 1.825l12.107.237c.316.006.626.038.926.096 1.892.357 3.598-1.206 3.448-3.125L57.005 8.643C56.636 3.92 52.65.299 47.986.299c-.233 0-.468.01-.704.028z"/>
    </defs>
    <g fill="none" fill-rule="evenodd">
        <path fill="#0F385C" d="M547.894 87.77c-7.634 1.304-14.08 1.27-20.305.586-8.95-.984-19.915-6.852-23.783-17.033-1.847-4.857-4.921-9.096-8.88-11.878-13.785-9.701-29.644 1.18-31.22 10.034-5.896 33.145 22.806 89.93 68.229 101.232 9.874 2.457 47.841 2.758 60.99-25.575 5.839-12.584 6.398-18.107 1.206-31.263-7.575-19.2-28.106-29.196-46.237-26.103"/>
        <path fill="#FAB9AF" d="M492.955 76.49c-.372 1.438-3.29 18.35-6.377 19.918.646.826 9.83 8.022 11.587 14.118 4.05 3.887 14.593-3.21 12.102-13.016-10.407-.405-14.824-16.52-17.312-21.02M448.048 215.907c-.277.685 2.42 2.491 3.153 2.532 1.79-.433 1.531-1.477 3.268-1.639-1.53-.08-3.127-.492-4.57-1.036-.773-.351-1.519-.956-1.851.143"/>
        <path fill="#FAB9AF" d="M458.297 211.688a38.23 38.23 0 0 0-3.918 3.769c-1.483 1.593-4.39 5.531-4.592 5.806-.546.835-2.183 2.746-2.406 3.5-.144.48.012 1.946.382 2.441.488.656 1.346.365 1.346.365.454.96 2.61-.62 2.67-.361.241 1.062 1.767 1.055 3.969-2.082.131-.186 7.064-6.82 9.106-9.123-1.316-1.367-6.474-4.371-6.557-4.315M512.404 120.34c.993-2.972-14.348-5.209-14.945-3.772-3.29 7.92-7.755 34.044-12.008 46.847-5.215 15.706 9.12 12.016 10.717 9.494 8.74-19.23 10.096-34.181 16.236-52.57"/>
        <path fill="#C96B86" d="M495.332 116.596c-4.074 4.477-5.368 24.692-9.401 37.244 4.732 3.903 7.348 5.834 15.41 6.393 7.134-13.925 9.452-32.92 9.012-37.721-1.128-12.354-9.256-12.251-15.021-5.916"/>
        <path fill="#FAB9AF" d="M486.617 164.992c-.533.385-.97.814-1.265 1.224-5.413 7.534-20.604 38.887-27.49 45.838 2.682 1.72 4.797 3.332 6.148 4.843 11.098-11.658 35.461-43.805 32.242-49.37-2.95-5.102-7.27-4.237-9.635-2.535"/>
        <path fill="#B1516D" d="M619.882 368.135l-6.848-1.758s-.826 2.438-1.596 4.07c-1.483 3.154-16.262 8.081-15.288 11.728.493 1.842 9.682 2.176 12.877 1.458 3.193-.716 5.46-1.72 7.342-3.085 2.049-1.487 5.494-3.98 5.866-5.296.649-2.286-.89-4.325-.89-4.325-.258-1.273-1.463-2.792-1.463-2.792"/>
        <path fill="#FAB9AF" d="M608.563 361.755s4.364 6.134 2.876 8.694c0 0-4.884 4.79-2.087 5.125 4.165.498 11.993-4.647 11.993-4.647-.21-2.126-5.16-17.08-5.16-17.08l-7.622 7.908z"/>
        <path fill="#B1516D" d="M534.371 365.61l-6.19-3.838s-.419 3.712-2.842 4.82c-1.9 2.92-17.089 8.277-16.622 12.023.236 1.892 8.854 1.244 12.117.969 3.26-.273 7.23-1.676 8.958-2.829 2.107-1.404 4.867-2.694 5.416-3.946.955-2.176-.504-4.397-.504-4.397.082-2.135-.333-2.803-.333-2.803"/>
        <path fill="#FAB9AF" d="M525.24 356.83s2.665 7.04.577 9.139c0 0-6.69 5.737-3.883 6.385 4.086.943 12.848-3.431 12.848-3.431.336-2.11-.165-17.812-.165-17.812l-9.378 5.719zM491.72 72.728c-4.29-7.346-12.75-10.619-20.17-6.289-6.905 4.037-12.252 9.902-9.479 17.13.992 2.588 17.041 21.558 28.464 17.833 5.433-1.772 8.875-15.504 5.64-21.045l-4.455-7.63"/>
        <path fill="#0F385C" d="M485.503 55.044c-14.923-4.223-25.757 9.957-21.61 15.602-10.836 5.777 1.708 24.827 8.343 23.739-10.426-10.215 2.306-23.232 2.306-23.232 4.33 2.831 7.901-.733 12.522 1.67 6.937 3.606 5.157 1.252 6.715 2.48 0 0 8.617-15.478-8.276-20.259"/>
        <path fill="#FAB9AF" d="M486.688 68.783c-.6.554.117 2.748-.219 4.09 2.416 1.629 5.5 2.47 7.636 3.554 1.106-1.764-.402-4.347-1.772-5.838-1.45-1.577-4.069-3.258-5.645-1.806"/>
        <path fill="#FA978D" d="M483.661 96.173a.462.462 0 0 0 .35.202 2.486 2.486 0 0 0 1.698-.462c.85-.598.898-1.12.86-1.361a.384.384 0 0 0-.116-.218l-4.254-4.213a.502.502 0 0 0-.4-.134c-.303.024-.795.082-.967.212-.135.102-.274.44-.358.674a.464.464 0 0 0 .036.412l3.151 4.888z"/>
        <path fill="#A6425F" d="M545.985 195.859l-28.593 69.984c-1.882 3.884-.186 10.026 3.823 11.625 6.434 2.567 16.104 1.772 22.614-11.686 7.595-15.701 24.357-39.088 33.333-51.192 4.082-5.505 5.861-12.382 4.913-19.169-.99-7.083-4.778-18.572-8.298-20.373-7.112-3.637-30.912 12.34-27.792 20.81"/>
        <path fill="#A6425F" d="M536.079 361.3l4.296-97.182s-21.27-11.107-24.308 7.544c-1.93 11.845 9.639 92.153 9.639 92.153l10.373-2.515z"/>
        <path fill="#963E60" d="M591.884 260.448l15.403-60.981s6.6-17.29-5.135-35.73c-11.735-18.441-28.25-2.077-28.25-2.077s-6.538 86.482-6.536 97.216c0 .802 1.444 4.649 1.967 5.382 2.034 2.74 4.194 4.614 7.966 4.509 0 0 11.86.482 14.585-8.32"/>
        <path fill="#B95572" d="M559.886 125.615c-11.161-20.212-16.107-27.713-34.394-29.944-3.5-.427-16.39 1.736-16.39 1.736s-1.39 8.815-5.021 11.926c-2.496 2.137-6.134.446-6.134.446s-7.157 10.577-7.428 13.037c-.15 1.357 5.21 8.207 6.253 17.11 2.12 18.11 31.09 17.136 36.43 22.507 10.212 10.27 8.031 22.016 12.267 36.17 24.667-2.612 43.649-19.16 54.753-42.476-13.474-14.454-28.582-9.228-40.336-30.512"/>
        <path fill="#B1516D" d="M622.45 383.956s-.576-4.61-.262-9.482c.068-1.058-2.043 1.938-2.043 1.938l1.257 8.016 1.1-.053-.052-.419zM535.45 379.165s-.576-4.61-.262-9.483c.068-1.057-2.043 1.939-2.043 1.939l1.257 8.015 1.1-.052-.052-.42z"/>
        <path fill="#963E60" d="M589.298 254.642c1.552 1.511 3.918 7.038 4.397 7.96l26.868 99.665-11.734 2.515-39.202-99.41c-2.186-7.62.374-9.638 1.421-11.105 5.63-9.805 15.238-2.56 18.25.375"/>
        <g transform="translate(161.5 .028)">
            <mask id="b" fill="#fff">
                <use xlink:href="#a"/>
            </mask>
            <path fill="#0F385C" d="M12.704 68.94c4.74-5.461 10.434-9.97 14.966-15.615 5.273-6.57 7.945-13.59 6.029-20.023-.753-2.53-.983-11.126-.14-14.11C37.43 5.475 49.825-1.138 55.823.805 68.45 4.896 75.032 13.29 71.796 41.661c-2.706 11.058 7.922 28.88.458 46.08-3.709 8.546-19.435 38.849-42.85 38.927-10.4.035-20.544-3.754-25.531-12.49-7.279-12.748-2.425-32.264 8.83-45.238" mask="url(#b)"/>
        </g>
        <path fill="#FAB9AF" d="M236.801 62.443s12.011 18.367 15.242 24.338c8.503-7.24 31.853-24.922 31.853-24.922s-1.471-6.68-.59-8.65c.878-1.972 6.288-5.738 7.554-6.537 1.266-.798.698 2.4-.793 3.511-.51.378-3.113 3.2-2.888 4.12.228.92 8.568-3.812 8.568-3.812s3.156-.045 2.758 1.71c0 0 2.532 1.333 1.786 2.682 0 0 1.55 1.761.128 3.72-1.419 1.955-4.302 6.782-10.262 7.71 0 0-28.254 33.261-36.797 34.41-8.398 1.126-29.745-34.825-29.745-34.825l13.186-3.455z"/>
        <path fill="#C96B86" d="M281.022 63.458S262.784 77.06 254.282 84.3c-3.232-5.97-17.209-23.944-17.209-23.944s-13.843-10.107-13.458 5.542c0 0 21.347 35.951 29.745 34.825 8.543-1.149 36.314-30.973 36.314-30.973"/>
        <path fill="#FAB9AF" d="M222.478 363.069l-5.819-94.018-4.523-29.283 24.687 9.882-6.37 115.786zM154.482 362.142l31.698-92.606 1.877-28.657 22.259 16.264-47.95 105.62zM204.73 28.21c-.42 3.944 4.322 16.11.684 26.323-.065 2.065-7.577 8.215 11.21 16.114 11.465-2.19 8.824-12.342 8.879-15.266-9.57-8.203-3.424-15.072-2.389-18.072-3.554 1.177-16.996-8.405-18.384-9.098"/>
        <path fill="#FAB9AF" d="M215.432 11.492c-7.133 1.73-12.415 9.652-10.702 16.719.017.071 2.906 7.78 2.906 7.78 1.29 5.326 11.538 11.72 15.938 9.613 10.418-4.98 7.884-25.663 6.96-27.843-2.575-6.092-8.46-7.88-15.102-6.27"/>
        <path fill="#FAB9AF" d="M203.748 22.266c-1.756.712-2.406 4.325-.822 6.477 1.062 1.44 3.512 2.712 5.336 2.495-.061-2.115-.994-6.03-1.386-8.57-1.209-.77-2.462-.677-3.128-.402M241.304 375.404s5.448 1.77 5.746 2.72c0 0 .893 1.396-3.273 3.092 0 0-3.836-.563-8.672-1.006 0 0-5.873.298-6.705.559 0 0-5.698.716-5.694-3.853 0 0 .162-3.472.459-4.608 0 0-.431-6.596-.687-9.24-.109-1.122 7.508.003 8.067 1.785 0 0-.646 4.198.827 7.652 0 0 1.902 1.347 3.973 1.78.052.01 1.004.321 1.054.339.95.338 3.59.83 4.905.78"/>
        <path fill="#B95572" d="M241.304 375.404s7.439.949 7.197 3.784c-.241 2.836-8.103 2.532-8.103 2.532s-7.172-1.004-12.675-.687c-5.504.317-5.026-.062-5.026-.062s-1.694-4.101-.007-6.682c0 0 10.188 3.436 18.614 1.115"/>
        <path fill="#FAB9AF" d="M167.809 373.194s4.671 3.303 4.29 4.223c0 0-.21 1.643-4.494.271 0 0-4.007-2.238-7.433-5.68 0 0-4.697-3.54-5.502-3.875 0 0-4.83-3.107-1.894-6.608 0 0 2.314-2.186 3.308-3.24 0 0 6.63-13.863 7.175-14.85.544-.988 6.734-.798 6.019.928 0 0-5.939 15.745-7.025 19.339 0 0-.66 1.586.652 3.247.032.041 1.146 1.86 1.173 1.905.511.869 2.691 3.534 3.731 4.34"/>
        <path fill="#B95572" d="M167.809 373.194s6.726 3.95 4.72 5.97c-2.004 2.02-9.053-3.106-9.053-3.106s-5.57-3.491-9.643-7.338a1016.17 1016.17 0 0 0-3.732-3.512s1.397-4.811 4.348-5.708c0 0 5.408 10.068 13.36 13.694"/>
        <path fill="#FA978D" d="M224.457 34.305a.541.541 0 0 0 .23.411 2.907 2.907 0 0 0 1.984.55c1.21-.095 1.57-.59 1.677-.856a.458.458 0 0 0 .013-.288l-1.763-6.775a.588.588 0 0 0-.323-.372c-.319-.157-.848-.392-1.098-.364-.198.022-.539.278-.762.464a.54.54 0 0 0-.21.435l.252 6.795z"/>
        <path fill="#0F385C" d="M215.426 3.85c9.111-4.082 17.91.644 18.078 5.37 4.88 4.243 2.693 11.362-1.445 15.073-1.42-10.456-5.174-12.153-5.174-12.153-6.407 4.561-13.478 1.454-16.932 4.865-3.824 3.776-2.534 7.45-3.263 8.402 0 0-10.673-11.69 8.736-21.558"/>
        <path fill="#FAB9AF" d="M207.14 50.624l11.224-2.887s-.642 4.453 3.867 5.692c1.335 2.041 3.658 2.772 3.244 7.374-.414 4.602-1.832 5.846-3.522 6.694-3.304 1.658-9.603 2.596-14.317-3.706 0 0-4.323-6.86-2.07-10.804 1.18-2.065 1.574-2.363 1.574-2.363"/>
        <path fill="#B1516D" d="M205.567 52.987s.508 7.842 3.29 11.154c0 0 1.58 4.468 9.151 3.722.16-.015.93-.115 1.07-.198 1.153-.67 6.74-4.003 6.425-12.284l8.128 2.936c1.702 21.886 8.1 23.212 8.171 36.627.05 9.303-2.94 13.144-5.47 18.38-.498 1.034-.864 2.043-1.421 3.04-1.28 2.29-4.296 8.274-4.296 8.274-.06.605 1.243 8.797 1.439 9.367 1.81 5.26 11.72 47.774 14.515 123.044 0 0-17.473 4.409-38.985 5.38-10.323.467-32.932-3.109-32.932-3.109s-8.973-82.987 13.751-132.518a6.092 6.092 0 0 0 .384-3.892c-2.546-11.073-15.37-55.53 1.128-63.53 0 0 7.702-1.086 15.652-6.393"/>
        <path fill="#FCD2C5" d="M217.427 160.232c-1.436-.02-5.056-.05-6.212-.964.585 1.248.92 1.782 2.144 3.06.486.51 4.94-.224 5.32-.823.615-.969-.434-1.264-1.252-1.273"/>
        <path fill="#FCD2C5" d="M221.512 168.954c-.659-1.667-10-9.41-11.152-10.626-.071-.064-5.345 2.191-6.758 3.344 4.435 6.564 12.082 13.682 12.906 10.393.062-.248 1.442 2.217 2.502.66.557-.82 1.082-.517 1.81-.813.852-.346 1.253-1.538.692-2.958"/>
        <path fill="#FCD2C5" d="M183.408 109.465c-1.976-1.98-5.939-3.47-9.526.908-3.917 4.778 21.53 39.394 30.242 52.166 1.515-1.222 3.772-2.42 6.578-3.635-5.449-7.656-22.324-40.101-26.285-48.082-.217-.435-.561-.907-1.009-1.357"/>
        <path fill="#C96B86" d="M197.584 65.796c-1.857-7.752-7.789-9.248-13.278-2.541-5.826 7.116-12.77 39.859-11.5 50.349 1.08 10.124 21.268 36.678 29.01 47.44 0 0 .067-1.93 3.16-3.782 3.238-1.937 5.203-1.198 5.203-1.198-6.107-13.014-22.365-41.179-23.817-44.629.284-.926 12.2-41.562 11.222-45.64"/>
        <path fill="#A6425F" d="M802.322 379.517s-3.46 1.705-9.244 2.193l.925 7.96s4.117.103 6.776-.583l.843-2.163 2.416 1.947s13.067.16 19.686-.99c0 0 .542-2.408-2.74-3.15-3.28-.743-10.66-1.475-12.828-2.44-2.166-.966-5.834-2.774-5.834-2.774"/>
        <path fill="#FFCBB9" d="M791.306 368.67l1.367 10 .422 3.051c5.548 1.134 9.224-2.195 9.224-2.195l-.232-3.244-.624-8.442-10.157.83z"/>
        <path fill="#963E60" d="M782.192 259.51c-.82 1.004-1.591 4.428-1.447 5.532 1.98 15.199 8.237 90.339 8.377 108.159l14.527-1.376s1.406-80.132 3.375-107.04c.068-.921-4.448-4.146-5.428-5.555-1.783-1.117-5.538-3.847-7.135-4.306-6.176-.812-7.755.052-12.269 4.586"/>
        <path fill="#963E60" d="M787.679 169.806l-3.194-2.372s-47.765-4.617-45.615 3.591c2.45 9.346 1.018 14.127 5.222 24.39 8.144 19.878 23.286 45.725 37.31 70.801 1.059 1.894 6.105 11.571 8.249 11.912 3.754.596 5.837.835 10.587-.346 2.634-1.362 8.907-4.146 6.18-17.159l-18.74-90.817z"/>
        <path fill="#E6F7FF" d="M792.673 378.67l.422 3.051c5.547 1.134 9.224-2.195 9.224-2.195l-.233-3.244c-2.558.723-6.904 1.922-9.413 2.388"/>
        <path fill="#A6425F" d="M776.453 163.4a1.531 1.531 0 0 1-.478.044c-6.43-.5-33.556-.685-37.196 4.879l.75 38.667c-.373 9.333 2.138 44.178 1.042 54.01-.698 6.26 1.212 12.483 6.675 15.617l.13.074c.111.063.23.118.355.148 1.944.463 6.423 2.165 10.803-.27.294-.163 1.808-2.937 1.938-3.246 5.586-13.249 7.446-24.93 10.712-34.91 0 0 11.222-54.34 10.034-65.09l-3.348-9.33-1.417-.594z"/>
        <g transform="translate(702.5 374.527)">
            <mask id="d" fill="#fff">
                <use xlink:href="#c"/>
            </mask>
            <path fill="#A6425F" d="M11.853 2.192S7.997 2.348 2.51.455L.135 8.109s3.725 1.76 6.432 2.207l1.647-1.637 1.42 2.76s11.884 5.435 18.403 7.061c0 0 1.47-1.983-1.23-3.987-2.698-2.006-9.153-5.664-10.744-7.424-1.59-1.76-4.21-4.897-4.21-4.897" mask="url(#d)"/>
        </g>
        <path fill="#FFCBB9" d="M708.662 362.325l-2.793 9.68-.86 2.998c4.637 3.269 9.339 1.731 9.339 1.731l1.215-3.41 2.738-7.641-9.64-3.358z"/>
        <path fill="#E6F7FF" d="M705.87 372.005l-.862 2.998c4.638 3.269 9.34 1.732 9.34 1.732l1.215-3.41c-2.393-.379-6.524-1.017-9.694-1.32"/>
        <path fill="#A6425F" d="M742.454 261.178c-1.036.587-3.254 5.22-3.576 6.366l-.005.018c-7.374 26.22-33.544 97.428-33.544 97.428l14.415 4.825s28.423-67.625 39.534-93.684c.239-.56.763-2.34.81-2.948.128-1.623-.304-1.942-.025-4.116a3.251 3.251 0 0 0-.43-2.062c-1.186-2.008-2.519-4.316-3.667-4.692-3.87-2.183-9.043-3.671-13.512-1.135"/>
        <path fill="#FAB9AF" d="M823.579 131.441s13.97 2.32 14.98 2.182c1.01-.141 6.762-2.812 9.71-2.158 2.184.483 5.92 1.112 6.589 1.67.669.556-2.422.971-3.109.878-.687-.093-2.44.89-2.511 1.087-.069.198 4.706.183 6.829.528 2.121.345 3.293.854 3.344 1.19.05.333-3.733.789-4.926.742-1.19-.045 4.328.484 5.551 1.263 1.226.778-4.637 1.165-6.136.977-1.5-.192 5.506.408 6.045 1.094.54.685-5.756 1.179-7.383 1.05-1.627-.129 4.893.052 5.315.534.42.482-6.961 1.62-9.543 1.698-2.39.073-5.197.373-10.594-2.968-.992-.614-13.898.357-13.898.357l-.263-10.124z"/>
        <path fill="#A6425F" d="M768.475 89.988s3.36-9.76 8.413-7.755c3.925 1.558 29.965 37.962 36.994 43.593 2.008 1.613 18.898 3.501 18.898 3.501s2.762 6.87.783 13.778c-.69 2.406-24.445-2.218-26.387-3.053-9.857-4.24-23.671-28.146-23.671-28.146l-15.03-21.918z"/>
        <path fill="#AF526D" d="M870.693 157.408a14.038 14.038 0 0 1 .589-4.06c1.793-5.972 4.772-12.457 9.447-12.343 8.301.482 10.933-5.461 12.776-11.642a.877.877 0 0 0-.576-1.09l-51.578-16.113c-3.814-1.192-7.91.954-9.102 4.768l-20.698 66.252c-.219.698.47 1.351 1.148 1.076a5.028 5.028 0 0 1 3.54-.096l8.237 2.834c.443.152.905.252 1.372.294 5.469.482 6.628 3.886 6.753 6.282a5.87 5.87 0 0 1-1.035 3.619l-2.491 3.63c-.236.343-.437.71-.595 1.095-3.042 7.41 4.535 10.174 6.595 10.776.328.096.647.222.947.388 2.99 1.654 5.287 1.769 6.925 1.377 1.771-.424 3.136-1.834 3.604-3.594.506-1.903 1.345-5.34 2.272-10.271 1.274-6.783 5.574-4.831 6.823-4.101.269.156.548.292.84.399a11.488 11.488 0 0 1 6.192 5.393.748.748 0 0 0 .852.365 5.794 5.794 0 0 1 3.215.07l1.347.421a.876.876 0 0 0 1.115-.654c2.667-12.062 10.058-23.599 8.469-35.403-.375-1.279-6.746-1.751-6.977-6.331l-.006-3.341z"/>
        <g>
            <g transform="translate(811.5 111.528)">
                <mask id="f" fill="#fff">
                    <use xlink:href="#e"/>
                </mask>
                <path fill="#FDC149" d="M99.63 62.503c.854-14.486-6.887-29.166-19.611-37.338a37.587 37.587 0 0 0-6.599-3.439c-7.261-2.99-15.132-3.612-22.718-1.785-1.99.492-2.999 2.67-2.054 4.472l3.995 7.625c5.57-1.496 11.352-1.01 16.684 1.392 1.198.572 2.379 1.202 3.522 1.953 8.897 5.73 14.46 16.255 13.856 26.163-.797 14.308-5.886 21.57-11.224 29.213l-2.042 2.968-.186.27 10.766 3.364c1.313.41 2.71-.071 3.46-1.213 3.45-4.956 7.082-10.705 9.49-18.412 1.363-4.36 2.337-9.367 2.661-15.233" mask="url(#f)"/>
            </g>
            <g transform="translate(811.5 111.528)">
                <mask id="h" fill="#fff">
                    <use xlink:href="#g"/>
                </mask>
                <path fill="#FDC149" d="M75.481 89.759c5.338-7.643 10.427-14.905 11.224-29.213.605-9.909-4.96-20.433-13.857-26.163-1.142-.751-2.322-1.382-3.521-1.954-5.331-2.4-11.114-2.887-16.684-1.39a26.354 26.354 0 0 0-5.53 2.188l-17.955 9.406c-4.607 2.364-6.398 8.099-3.957 12.665l2.383 4.548c2.342 4.469 7.927 6.738 13.509 3.564 3.191-1.822 6.925-3.278 10.64-.479-2.554 2.088-5.413 3.686-8.52 4.814-10.166 3.577-18.125 11.844-21.354 22.179l-2.048 6.556a9.393 9.393 0 0 1 3.368.413l47.79 14.93a9.502 9.502 0 0 1 1.481.607l-.66-2.251c-2.658-9.067-.824-13.808 1.463-17.181.062-.091.124-.182.186-.27l2.042-2.969z" mask="url(#h)"/>
            </g>
            <g transform="translate(811.5 111.528)">
                <mask id="j" fill="#fff">
                    <use xlink:href="#i"/>
                </mask>
                <path fill="#963E60" d="M23.178 96.893a9.374 9.374 0 0 0-11.76 6.162l-1.929 6.173a3.099 3.099 0 0 0 2.054 3.92l59.74 18.663a3.099 3.099 0 0 0 3.92-2.053l1.928-6.174a9.373 9.373 0 0 0-4.681-11.154 9.55 9.55 0 0 0-1.48-.606l-47.792-14.93z" mask="url(#j)"/>
            </g>
        </g>
        <g>
            <path fill="#B95572" d="M766.138 71.219s-15.317.82-24.426 12.86c-13.595 28.402-4.384 72.36-2.842 86.947 0 0 28.743 11.452 50.335.671 0 0 4.83-45.472 3.904-57.52-.925-12.051-12.251-40.74-26.971-42.958"/>
            <path fill="#FAB9AF" d="M771.18 59.973s-1.869 12.526-.077 19.517c.346 1.356-.455 2.759-1.748 3.202-5.069 1.74-11.853-5.062-15.18-7.378-.695-3.923 1.272-19.264 1.272-19.264l15.733 3.923z"/>
            <path fill="#FAB9AF" d="M784.251 27.528s-4.22-.504-.47 5.876c1.825 3.101-.768 14.917-.768 14.917s-4.403 16.408-10.455 15.134c-6.055-1.273-16.649-.565-18.574-4.243-1.928-3.678-5.09-28.572 5.365-32.673 10.455-4.103 24.902.989 24.902.989"/>
            <path fill="#FA978D" d="M782.214 49.717s.587.7 1.69.655c1.301-.055 1.366-.764 1.366-.764l-1.235-5.731s-.751-.46-1.041-.437c-.243.018-.78.491-.78.491v5.786z"/>
            <path fill="#0F385C" d="M791.155 25.6c0 5.565-4.731 8.916-9.235 9.461-2.924.351-5.849-.14-8.75-.658-4.89-.873-8.86 4.865-9.833 9.108-1.1 4.81 3.716 12.589 7.98 10.044 4.265-2.547 10.732-2.689 10.732-2.689s2.478 3.254 1.24 8.911c-1.24 5.66-15.134 6.083-19.4 2.406-4.265-3.678-2.615-13.438-5.502-17.116-2.892-3.678-5.538 1.908-5.367 3.538.236 2.272 4.028 3.91 4.028 3.91l-2.567 12.471c-5.505-4.103-13.062-36.19-.05-38.42 2.603-9.363 14.328-9.942 20.565-9.95 0 0 16.159.066 16.159 8.985"/>
            <path fill="#FFF" d="M770.617 81.545l-16.615-6.204 15.728 12.803zM770.617 81.545l7.253 4.481-7.708-13.449z"/>
            <path fill="#A6425F" d="M777.87 86.026l-7.253-4.481-.887 6.598 5.06 2.34z"/>
            <path fill="#A6425F" d="M775.63 88.229s7.375 9.866 7.375 34.61c0 2.905-3.824 7.26-3.824 7.26l-5.122-7.017s.236-29.896-1.058-34.853c-1.297-4.957 2.628 0 2.628 0"/>
            <path fill="#FAB9AF" d="M766.327 142.736c4.139 1.993 11.455 4.65 11.455 4.65s3.726-3.325 5.294-3.47c1.57-.143 5.9 1.952 6.86 2.472.961.52-1.277 1.301-2.516.75-.423-.19-3.15-.837-3.654-.363-.506.472 4.401 1.429 7.089 2.241 2.685.813 6.777 2.863 6.66 3.337-.253 1.044-4.606-.689-5.323-.951-.795-.293-2.938-.539-2.938-.539s1.158 1.993-.1 2.367c0 0 .057 2.088-1.07 2.095 0 0-.567 1.616-2.32 1.413-1.754-.204-6.383.38-9.105-3.084 0 0-11.759-1.627-15.312-4.359-3.553-2.73.84-8.55 4.98-6.559"/>
            <path fill="#A6425F" d="M758.275 103.411c-2.997 8.511-6.04 24.718-6.718 28.94-.876 5.475 15.525 6.513 15.525 6.513l-.123 15.037s-21.16-4.449-26.444-8.733c-3.993-7.884-4.912-33.892.254-48.577 3.546-10.083 12.044-15.039 17.186-8.637 3.538 4.406 1.13 13.16.32 15.457"/>
            <path fill="#FDC149" d="M468.802 216.672c-17.26 0-31.25 13.99-31.25 31.25 0 17.258 13.99 31.25 31.25 31.25 17.259 0 31.25-13.992 31.25-31.25 0-17.26-13.991-31.25-31.25-31.25"/>
            <path stroke="#FFF" stroke-width="3" d="M468.802 222.922c-13.808 0-25 11.193-25 25 0 13.806 11.192 25 25 25 13.807 0 25-11.194 25-25 0-13.807-11.193-25-25-25z"/>
            <path fill="#FFF" d="M470.175 245.56c-3.266-1.387-4.21-2.226-4.21-3.74 0-1.213.867-2.63 3.31-2.63 2.161 0 3.819.903 3.834.911.174.099.37.151.563.151.473 0 .892-.303 1.065-.772l.594-1.608a1.016 1.016 0 0 0-.507-1.28c-1.33-.613-3.93-1.088-3.957-1.093-.042-.008-.188-.04-.188-.22l-.008-2.333c0-.703-.554-1.274-1.234-1.274h-1.064c-.68 0-1.233.571-1.233 1.274l.003 2.452c0 .188-.192.27-.262.287-3.283.828-5.334 3.376-5.334 6.59 0 4.005 3.125 5.815 6.5 7.174 2.697 1.122 3.798 2.26 3.798 3.928 0 1.816-1.559 3.085-3.792 3.085-1.906 0-4.486-1.28-4.512-1.294a1.148 1.148 0 0 0-.52-.125c-.491 0-.919.315-1.09.802l-.567 1.626c-.2.608.11 1.1.506 1.32 1.585.874 4.651 1.386 4.788 1.41.037.005.223.074.223.255v2.441c0 .703.554 1.275 1.234 1.275h1.1c.68 0 1.234-.572 1.234-1.275v-2.569c0-.24.167-.261.202-.27 3.496-.832 5.65-3.543 5.65-6.947 0-3.496-1.833-5.754-6.126-7.551"/>
            <path fill="#FAB9AF" d="M493.451 235.804c.373.64 3.468-.216 3.977-.746.837-1.64 1.51-2.618 1.211-3.747-1.056 1.113-2.739 2.253-4.09 2.995-.77.359-1.672.506-1.098 1.498"/>
            <path fill="#FAB9AF" d="M496.12 235.01c-.964 1.934-2.554 6.551-2.666 6.875-.262.963-.6 2.757-.892 4.504-.186 1.114.729 1.978 1.64 1.071 1.315-1.306.838.722 1.266.942 1.41.733 1.988-1.948 2.36-.969.725 1.917 2.238.886 3.442-2.75 1.057-3.188 4.264-9.03 5.555-11.8-2.94-2.813-6.506-3.186-6.57-3.113-1.007 1.405-3.332 3.598-4.134 5.24M517.745 122.76c-1.076 8.51-.34 32.252-1.05 45.725-.867 16.528 10.972 11.233 12.852 6.312 4.945-12.955 5.284-50.416-1.166-53.676-2.796-1.412-10.442.097-10.636 1.64"/>
            <path fill="#C96B86" d="M518.025 113.356c-3.906 4.625-1.086 25.613-1.648 38.783 4.734 2.462 11.514 4.887 18.787 1.696 3.189-15.316 3.31-35.794-2.406-41.465-6.854-6.8-10.284-4.284-14.733.986"/>
            <path fill="#FAB9AF" d="M517.985 171.835c-.416.515-.72 1.043-.9 1.518-3.226 8.694-12.026 47.893-16.83 56.417 3.038.95 4.867 2.013 6.57 3.113 7.621-14.18 26.647-55.42 21.119-61.152-4.09-4.24-8.129-2.161-9.959.104"/>
            <path fill="#274388" d="M900.619 202.556h98.156c5.23 0 9.47 4.24 9.47 9.47v119.601H891.149V212.025a9.47 9.47 0 0 1 9.47-9.469"/>
            <path fill="#AF526D" d="M1002.654 302.394l-13.46-1.313c-1.7-.166-3.29-1.001-4.3-2.38-.809-1.103-1.278-2.582-.395-4.35 0 0 7.039-14.888-5.64-14.228a6.369 6.369 0 0 1-1.88-.174c-2.136-.535-7.549-1.256-8.502 4.825a6.166 6.166 0 0 0 .377 3.22c.54 1.361 1.34 3.683 1.622 6.052.436 3.663-2.466 6.873-6.155 6.873h-10.292c-1.12 0-2.23.282-3.177.877a5.884 5.884 0 0 0-.633.46 12.263 12.263 0 0 0-8.491-4.008 5.704 5.704 0 0 1-.982-.14c-1.504-.346-6.504-.965-5.644 6.347.625 5.316.864 9.084.955 11.183.084 1.941-.858 3.81-2.527 4.806-1.543.92-3.92 1.534-7.49.802a4.966 4.966 0 0 0-1.088-.095c-2.314.043-11.07-.37-10.117-9.155.034-.312.105-.618.197-.917l1.503-4.884a5.346 5.346 0 0 0 .035-3.057c-.708-2.443-2.839-6.318-9.169-4.903a5.283 5.283 0 0 1-1.306.124l-9.4-.268a5.392 5.392 0 0 0-5.546 5.389v48.63a5.391 5.391 0 0 0 5.391 5.392h50.478a5.343 5.343 0 0 0 3.25-1.096 6.175 6.175 0 0 0 3.515 1.096h48.27a6.192 6.192 0 0 0 6.192-6.191v-42.754a6.192 6.192 0 0 0-5.591-6.163"/>
            <path fill="#345287" d="M988.725 257.08c-3.714-14.686-16.183-26.891-31.636-31.07a40.431 40.431 0 0 0-7.76-1.37c-8.29-.717-16.448 1.11-23.544 5.288-1.857 1.109-2.189 3.59-.664 5.09l9.617 9.465 32.498 50.65a3.358 3.358 0 0 0 2.786 1.502h13.928c1.459 0 2.72-.914 3.117-2.285 1.923-6.005 3.78-12.858 3.78-21.278 0-4.765-.596-10.052-2.122-15.992"/>
            <path fill="#345287" d="M978.202 317.521l-2.255-3.328c-5.704-8.42-5.173-13.772-3.847-17.885l1.128-3.59c2.984-9.268 5.836-18.08 2.122-32.57-2.52-10.052-11.474-18.798-22.284-21.735-1.393-.392-2.786-.653-4.18-.85-8.223-.979-16.181 1.698-22.217 7.703l-15.188 14.947a9.623 9.623 0 0 0 0 13.838l3.847 3.786c3.78 3.72 10.147 4.242 14.79-.653 2.653-2.807 5.97-5.417 10.612-3.786-1.924 2.872-4.311 5.353-7.097 7.441-9.152 6.724-14.59 17.428-14.59 28.72v9.79c0 1.828 1.458 3.264 3.315 3.264h53.059c2.653 0 4.244-2.937 2.785-5.092"/>
            <path fill="#345287" d="M975.637 316.085h-53.058c-5.505 0-9.949 4.373-9.949 9.791v6.745c0 1.829 1.46 3.264 3.317 3.264h66.323c1.856 0 3.315-1.435 3.315-3.264v-6.745c0-5.418-4.443-9.79-9.948-9.79"/>
            <path fill="#AF526D" d="M1002.654 302.394l-13.46-1.313c-1.7-.166-3.29-1.001-4.3-2.38-.809-1.103-1.278-2.582-.395-4.35 0 0 7.039-14.888-5.64-14.228a6.369 6.369 0 0 1-1.88-.174c-2.136-.535-7.549-1.256-8.502 4.825a6.166 6.166 0 0 0 .377 3.22c.54 1.361 1.34 3.683 1.622 6.052.436 3.663-2.466 6.873-6.155 6.873h-10.292c-1.12 0-2.23.282-3.177.877a5.884 5.884 0 0 0-.633.46 12.263 12.263 0 0 0-8.491-4.008 5.704 5.704 0 0 1-.982-.14c-1.504-.346-6.504-.965-5.644 6.347.625 5.316.864 9.084.955 11.183.084 1.941-.858 3.81-2.527 4.806-1.543.92-3.92 1.534-7.49.802a4.966 4.966 0 0 0-1.088-.095c-2.314.043-11.07-.37-10.117-9.155.034-.312.105-.618.197-.917l1.503-4.884a5.346 5.346 0 0 0 .035-3.057c-.708-2.443-2.839-6.318-9.169-4.903a5.283 5.283 0 0 1-1.306.124l-9.4-.268a5.392 5.392 0 0 0-5.546 5.389v48.63a5.391 5.391 0 0 0 5.391 5.392h50.478a5.343 5.343 0 0 0 3.25-1.096 6.175 6.175 0 0 0 3.515 1.096h48.27a6.192 6.192 0 0 0 6.192-6.191v-42.754a6.192 6.192 0 0 0-5.591-6.163"/>
        </g>
        <g>
            <g transform="translate(891 279.527)">
                <mask id="l" fill="#fff">
                    <use xlink:href="#k"/>
                </mask>
                <path fill="#FDC149" d="M96.99-22.56c-3.74-15.023-16.293-27.51-31.85-31.783a40.12 40.12 0 0 0-7.813-1.403c-8.347-.733-16.56 1.136-23.704 5.41-1.87 1.134-2.204 3.673-.668 5.208l6.494 6.494c5.196-3.296 11.239-4.64 17.432-3.891 1.403.2 2.806.468 4.207.869 10.884 3.004 19.898 11.952 22.435 22.235 3.74 14.823.87 23.838-2.136 33.32l-1.135 3.672c-.035.11-.07.222-.103.334h12.033c1.469 0 2.738-.934 3.138-2.337C97.256 9.425 99.126 2.414 99.126-6.2c0-4.874-.6-10.283-2.136-16.36" mask="url(#l)"/>
            </g>
            <g transform="translate(891 279.527)">
                <mask id="n" fill="#fff">
                    <use xlink:href="#m"/>
                </mask>
                <path fill="#FDC149" d="M82.387 12.898c3.005-9.48 5.876-18.495 2.136-33.32-2.537-10.282-11.55-19.23-22.435-22.234-1.401-.401-2.804-.668-4.207-.869-6.193-.749-12.236.595-17.432 3.891a28.135 28.135 0 0 0-4.936 3.99l-15.291 15.29c-3.94 3.873-3.94 10.283 0 14.156l3.873 3.873c3.806 3.806 10.216 4.34 14.89-.668 2.67-2.871 6.01-5.542 10.683-3.873-1.936 2.938-4.34 5.476-7.144 7.612-9.215 6.878-14.69 17.829-14.69 29.38v7.328a10.018 10.018 0 0 1 3.561-.65h53.418c.58 0 1.147.051 1.7.145l-1.388-2.082c-5.592-8.387-5.232-13.799-3.976-17.962.034-.112.068-.224.103-.334l1.135-3.673z" mask="url(#n)"/>
            </g>
            <g transform="translate(891 279.527)">
                <mask id="p" fill="#fff">
                    <use xlink:href="#o"/>
                </mask>
                <path fill="#FDC149" d="M31.395 36.803A10.002 10.002 0 0 0 21.38 46.82v6.9a3.306 3.306 0 0 0 3.34 3.339H91.49a3.306 3.306 0 0 0 3.34-3.339v-6.9a10 10 0 0 0-8.317-9.87 10.125 10.125 0 0 0-1.7-.146H31.395z" mask="url(#p)"/>
            </g>
        </g>
        <g>
            <path fill="#FFCBB9" d="M1111.682 372.568l-9.136-91.75c-5.526-30.32-3.18-76.348-1.056-89.818.95-6.025 5.832-10.651 11.896-11.307 8.714-.813 16.202 6.27 15.715 15.006-.213 3.826-3.481 9.485-4.512 14.731-4.017 20.48-6.28 163.035-6.333 163.06l-6.574.078z"/>
            <path fill="#FFCBB9" d="M1158.238 375.187c-5.527-11.157-23.78-74.703-28.521-88.648-5.7-16.76-15.622-90.846-13.624-105.974l13.553-1.132c6.846-.308 13.044 4.046 15.023 10.605 2.955 9.792 3.149 20.649.5 44.683 0 0-.43 39.696 1.612 48.101 1.855 7.63 17.135 86.488 19.081 95.154"/>
            <path fill="#AF526D" d="M1098.803 249.07c18.676 3.11 32.412 3.204 52.784.206 1.666-.245 2.562-1.203 2.136-2.964-1.321-5.464-1.95-12.635-2.304-14.243-1.23-5.592-.582-37.344-.423-39.747.006-.098.418-4.429.434-4.525 3.445-21.17-4.047-25.98-7.945-34.631-2.618-5.808-2.847-3.156-11.9-2.883l-17.924 1.002-.011.076-5.94-2.172a2.683 2.683 0 0 0-1.053-.153c-7.57.389-9.576-2.81-12.932 7.928-3.752 12.004-12.81 30.867.7 79.393a3 3 0 0 1 .055.23l2.005 10.11c.476 2.126 1.165 2.182 2.318 2.374"/>
            <path fill="#FFD8C5" d="M1095.01 95.254c-1.088 10.944-5.147 30.079-5.488 30.927 0 0-17.243 25.118-18.627 24.61-1.385-.506-6.34.957-7.05 1.287-.708.328-4.308-.43-3.366 1.076.943 1.507 5.737.13 4.84 1.967-2.955 6.041-6.74 9.056-7.17 10.317-.431 1.261 1.216 1.336 1.216 1.336-.387.356-1.62 2.054-.667 2.571.795.431 2.326-.713 2.326-.713s.26 1.167.895 1.308c1.241.279 1.999-1.338 1.999-1.338.244.571 1.818.5 2.491.27 1.36-.468 7.75-8.158 9.355-11.828.33-.755 24.638-25.077 26.573-27.507 1.26-1.582 5.22-18.196 5.854-30.981-2.456-.82-6.326-1.112-13.182-3.302"/>
            <path fill="#AF526D" d="M1022.28 163.876c1.83 3.98 7.648 2.139 8.434 3.14 5.303 9.382 3.375 21.41 4.784 32.55a2.938 2.938 0 0 0 3.148 2.55l.457-.036c5.915-.461 9.524-6.733 6.935-12.07l-.038-.076a5.525 5.525 0 0 1-.56-2.849c.414-5.328 5.018-5.239 7.07-4.928a7.675 7.675 0 0 0 2.047.033c11.046-1.31 5.853 12.33 5.853 12.33-.666 1.64-.144 2.928.654 3.856.997 1.16 2.476 1.796 4.005 1.826l12.107.236c.316.006.626.039.927.096 1.89.358 3.596-1.206 3.447-3.125l-5.045-64.738c-.387-4.961-4.762-8.705-9.724-8.318l-32.554 2.537a2.943 2.943 0 0 0-2.708 3.086c.271 5.43-.647 10.588-7.35 12.829-4.106 1.527-4.513 8.106-4.028 13.957a15.425 15.425 0 0 0 1.076 4.472l1.063 2.642z"/>
        </g>
        <g>
            <g transform="translate(1019.5 124.028)">
                <mask id="r" fill="#fff">
                    <use xlink:href="#q"/>
                </mask>
                <path fill="#FDC149" d="M42.02 37.042c-4.384-13.152-16.46-23.426-30.645-26.16a35.917 35.917 0 0 0-7.073-.708C-3.2 10.1-10.402 12.34-16.483 16.653c-1.59 1.142-1.712 3.431-.234 4.695l6.25 5.346c4.409-3.304 9.71-4.924 15.291-4.686 1.267.081 2.537.222 3.817.482 9.925 1.926 18.595 9.286 21.575 18.29 4.37 12.973 2.434 21.22.411 29.894l-.758 3.357-.069.306 10.743-.837c1.31-.102 2.379-1.024 2.638-2.304 1.302-5.62 2.484-12.009 1.884-19.698-.339-4.352-1.251-9.138-3.045-14.456" mask="url(#r)"/>
            </g>
            <g transform="translate(1019.5 124.028)">
                <mask id="t" fill="#fff">
                    <use xlink:href="#s"/>
                </mask>
                <path fill="#FDC149" d="M31.627 69.674c2.023-8.673 3.959-16.92-.41-29.894-2.98-9.004-11.65-16.364-21.576-18.29-1.28-.26-2.55-.4-3.816-.482C.243 20.77-5.058 22.39-9.467 25.694a25.177 25.177 0 0 0-4.13 3.904l-12.587 14.715c-3.247 3.732-2.801 9.454.985 12.637l3.727 3.189c3.663 3.132 9.422 3.163 13.247-1.633 2.185-2.749 4.98-5.365 9.268-4.2-1.524 2.757-3.494 5.19-5.848 7.292-7.748 6.782-11.874 16.938-11.071 27.251l.51 6.542a8.965 8.965 0 0 1 3.133-.829l47.688-3.716a9.005 9.005 0 0 1 1.529.012l-1.385-1.762c-5.575-7.099-5.63-11.955-4.799-15.759l.069-.306.758-3.357z" mask="url(#t)"/>
            </g>
            <g transform="translate(1019.5 124.028)">
                <mask id="v" fill="#fff">
                    <use xlink:href="#u"/>
                </mask>
                <path fill="#963E60" d="M-12.233 94.562a8.956 8.956 0 0 0-8.245 9.639l.48 6.16a2.96 2.96 0 0 0 3.213 2.748l59.61-4.645a2.96 2.96 0 0 0 2.749-3.213l-.48-6.16a8.954 8.954 0 0 0-8.11-8.233 9.005 9.005 0 0 0-1.529-.012l-47.688 3.716z" mask="url(#v)"/>
            </g>
        </g>
        <g>
            <path fill="#C96B86" d="M1138.37 132.16c1.28 4.798 7.04 13.992 11.77 21.287a2.47 2.47 0 0 1-1.107 3.623c-9.987 4.256-44.478 17.835-57.026 8.16-.67-.516-1.002-1.356-.913-2.197.654-6.095 6.247-18.626 4.613-27.325-.687-3.657-4.01-8.08-6.056-9.64-2.044-1.56-6.25-5.224-6.892-10.887-.6-5.306 6.01-16.33 6.843-17.697.06-.097.1-.196.156-.297 1.817-3.32 2.666-11.082 3.411-14.783a2.475 2.475 0 0 1 1.866-1.922l26.052-6.303c.323-.076 3.699.098 4.026.153.797.135.924.293 3.024 1.097 0 0-1.027 18.317-.803 24.101.222 5.784 7.44 9.153 8.185 10.261.744 1.109 2.436 20.43 2.436 20.43l.415 1.939z"/>
            <path fill="#FAB9AF" d="M1097.336 72.894c-9.485.847-14.406-25.42-13.343-33.252.419-3.085 2.353-5.714 5.456-5.962l11.618-.93c.125-.01.25-.023.374-.04l3.122-.451a5.928 5.928 0 0 1 6.415 3.836l.364.999c.998 2.737 3.813 4.202 6.696 3.79 1.142-.164 2.202.287 2.738 2.085.792 2.662-.378 6.393-1.009 8.082a5.996 5.996 0 0 0-.378 1.843c-.1 2.38-.684 8.813-3.994 14.329-1.065 1.773-1.052 3.996-.052 5.807.028.051.056.103.085.153 1.024 1.84.888 3.534-.093 5.899-1.16 2.8-3.123 6.054-6.513 8.24-3.436 2.216-6.633.535-7.867-1.308-.86-1.285-1.109-2.875-.802-4.391.24-1.186.438-2.83.201-4.46-.263-1.818-1.19-4.433-3.018-4.27"/>
            <path fill="#203A60" d="M1093.341 32.42s-9.31 4.329-9.094 13.408c.022.974-2.287 1.766-3.049 1.16-3.774-3.002-2.726-7.732 1.57-12.601 6.974-7.903 10.573-1.968 10.573-1.968"/>
            <path fill="#203A60" d="M1111.698 53.398c-.291-.803.086-1.666.832-2.083.572-.319 1.208-.878 1.659-1.859 1.308-2.83-2.81-7.686-6.477-2.724a1.711 1.711 0 0 1-1.486.697c-3.036-.197-12.293-1.571-17.715-10.904a1.768 1.768 0 0 1-.178-.423c-.471-1.704-2.636-12.042 12.79-16.188 19.482-5.235 27.92 20.799 23.052 32.192-1.652 3.864-3.37 6.448-5.206 8.527a1.692 1.692 0 0 1-2.167.317c-2.659-1.693-4.321-5.391-5.104-7.552"/>
            <path fill="#203A60" d="M1109.714 20.26s6.823-14.127 21.91-10.508c15.084 3.618 12.532 20.296 12.54 34.135.008 13.08 12.059 11.16 15.549 18.427 3.575 7.445-19.544 19.384-33.034.185-7.043-10.028-1.828-35.373-9.602-35.923-7.775-.551-7.363-6.315-7.363-6.315"/>
            <path fill="#B4ABBD" d="M1120.002 28.283c-3.301-.444-9.715-3.537-10.882-8.504-1.166-4.967 2.467.398 3.978 1.8 1.513 1.403 11.7 7.35 6.904 6.704"/>
            <path fill="#FFD8C5" d="M1119.263 110.817c-1.087 10.944-5.146 30.079-5.487 30.927 0 0-17.243 25.118-18.627 24.61-1.385-.506-6.34.956-7.05 1.287-.708.328-4.308-.43-3.366 1.076.943 1.507 5.737.13 4.84 1.967-2.954 6.041-6.74 9.056-7.17 10.317-.431 1.261 1.216 1.336 1.216 1.336-.387.356-1.62 2.054-.667 2.571.795.43 2.326-.713 2.326-.713s.26 1.167.895 1.308c1.242.279 1.999-1.338 1.999-1.338.244.571 1.818.501 2.491.27 1.36-.468 7.75-8.158 9.355-11.828.33-.755 24.638-25.077 26.573-27.507 1.26-1.582 5.22-18.196 5.854-30.981-2.456-.82-6.326-1.112-13.182-3.302"/>
            <path fill="#AF526D" d="M1135.406 117.707l-19.47-2.098s3.886-24.124 6.121-32.63c.437-3.537 6.224-10.999 12.15-4.094 4.56 5.315 1.2 38.822 1.2 38.822"/>
            <path fill="#FA978D" d="M1086.307 62.149a.5.5 0 0 0 .214.381c.303.227.932.581 1.84.51 1.123-.088 1.457-.547 1.556-.793a.426.426 0 0 0 .013-.268l-1.636-6.285a.546.546 0 0 0-.3-.346c-.296-.145-.787-.364-1.019-.338-.183.02-.5.259-.707.43a.502.502 0 0 0-.195.404l.234 6.305z"/>
            <path fill="#C96B86" d="M1157.054 376.827c.12-1.574 6.367-5.188 7.824-4.024.754.6 2.566 1.288 2.408 3.359-.174 2.287-2.257 1.957-3.812 6.019-.635 1.658-1.135 3.599-4.083 5.711-2.325 1.664-12.25 1.846-12.94.33-2.148-4.726 10.122-5.103 10.603-11.395"/>
            <path fill="#C96B86" d="M1165.542 384.367c.016.147.536.179.611.045.3-.524 1.158-8.58 1.158-8.58l-1.224-.093s-.658 7.598-.545 8.628M1110.39 373.271c.642-1.441 7.673-2.546 8.615-.936.487.832 2.15 1.916 2.15 3.992 0 3.234-3.274 1.93-5.567 4.34-1.223 1.288-4.661 4.31-7.695 4.31-2.86 0-10.713-.013-11.137-1.623-1.432-5.443 10.479-2.977 13.635-10.083"/>
            <path fill="#C96B86" d="M1118.138 384.869c.045.143.587.15.615 0 .61-3.458 1.861-6.845 1.861-6.845l-1.23-1.8s-1.474 7.9-1.246 8.645"/>
            <path fill="#FFCBB9" d="M1164.713 372.478s-.437 2.45-2.698 3.462c-3.858 1.727-4.188.09-4.188.09-.06-1.493-1.637-7.046-1.637-7.046l6.842 1.268s.33 1.086 1.681 2.226M1118.814 372.413s-1.156 2.204-3.618 2.485c-4.2.481-4.018-1.18-4.018-1.18.393-1.44.568-7.21.568-7.21l6.139 3.276s-.014 1.134.93 2.63"/>
            <path stroke="#B1516D" stroke-linecap="round" stroke-linejoin="round" stroke-width="8" d="M51.374 324.498S36.26 234.394 83.728 187.715M14.156 206.225s24.071 37.393 28.46 111.805M347.32 339.586s10.46-117.528-34.18-180.39M376.785 185.938s-20.455 48.137-21.768 145.485"/>
            <path fill="#FDC149" d="M15.67 194.083c-7.929-.694-14.92 5.17-15.614 13.1-.695 7.929 5.17 14.92 13.1 15.615 7.928.694 14.92-5.17 15.614-13.1.695-7.929-5.17-14.92-13.1-15.615M378.966 162.592c-13.754-1.205-25.88 8.968-27.085 22.72-1.205 13.754 8.968 25.88 22.722 27.086 13.753 1.205 25.88-8.968 27.084-22.722 1.205-13.753-8.967-25.88-22.72-27.084"/>
            <path stroke="#FFF" stroke-width="3" d="M378.53 167.572c-11.003-.964-20.704 7.175-21.668 18.177-.964 11.003 7.174 20.704 18.177 21.668 11.003.964 20.704-7.174 21.668-18.177.964-11.002-7.174-20.704-18.177-21.668z"/>
            <path fill="#FFF" d="M378.31 185.508c-3.01-1.507-3.845-2.333-3.727-3.68.094-1.08 1.032-2.267 3.365-2.063 2.063.181 3.575 1.123 3.588 1.131.16.102.342.166.527.182.451.04.874-.195 1.077-.599l.692-1.38c.243-.505-.017-.985-.385-1.181-1.222-.658-3.668-1.298-3.692-1.304-.04-.01-.176-.052-.162-.213l.174-2.076c.054-.625-.43-1.18-1.078-1.237l-1.017-.09c-.648-.056-1.221.406-1.276 1.032l-.188 2.182c-.015.168-.205.224-.273.234-3.198.462-5.356 2.557-5.606 5.417-.312 3.564 2.53 5.436 5.646 6.927 2.488 1.225 3.45 2.33 3.32 3.814-.142 1.616-1.729 2.614-3.86 2.428-1.82-.16-4.184-1.515-4.208-1.529a1.167 1.167 0 0 0-.486-.154 1.104 1.104 0 0 0-1.103.622l-.668 1.4c-.24.523.018.988.38 1.216 1.445.91 4.332 1.623 4.46 1.655.035.007.208.085.194.246l-.19 2.172c-.055.625.43 1.18 1.078 1.237l1.05.092c.65.057 1.223-.405 1.278-1.03l.2-2.286c.019-.214.18-.22.214-.224 3.403-.448 5.67-2.68 5.936-5.709.272-3.11-1.301-5.274-5.26-7.232"/>
            <path fill="#FDC149" d="M315.321 130.062c-13.754-1.205-25.88 8.968-27.085 22.721-1.205 13.754 8.967 25.88 22.721 27.086 13.754 1.204 25.88-8.969 27.085-22.722 1.205-13.753-8.967-25.88-22.72-27.085"/>
            <path stroke="#FFF" stroke-width="3" d="M314.885 135.043c-11.003-.964-20.704 7.175-21.668 18.177-.964 11.003 7.174 20.704 18.177 21.668 11.003.964 20.704-7.174 21.668-18.177.964-11.002-7.174-20.704-18.177-21.668z"/>
            <path fill="#FFF" d="M314.659 152.985c-3-1.502-3.833-2.325-3.715-3.668.094-1.075 1.028-2.26 3.353-2.056 2.057.18 3.564 1.12 3.577 1.128.159.102.34.164.525.18.45.04.872-.194 1.073-.596l.69-1.376c.242-.503-.017-.982-.383-1.177-1.218-.655-3.656-1.293-3.68-1.3-.04-.01-.176-.052-.162-.212l.173-2.07c.055-.622-.427-1.176-1.074-1.232l-1.013-.089c-.646-.056-1.218.404-1.272 1.028l-.188 2.175c-.015.167-.204.223-.272.233-3.188.46-5.338 2.549-5.587 5.399-.312 3.552 2.522 5.418 5.627 6.905 2.48 1.22 3.439 2.32 3.309 3.801-.141 1.61-1.723 2.606-3.847 2.42-1.815-.16-4.17-1.51-4.194-1.524a1.16 1.16 0 0 0-.485-.154 1.1 1.1 0 0 0-1.1.62l-.665 1.396c-.239.521.018.984.379 1.212 1.44.907 4.318 1.617 4.446 1.649.035.008.207.085.193.245l-.19 2.166c-.054.623.428 1.176 1.075 1.233l1.047.091c.647.057 1.218-.404 1.273-1.027l.2-2.279c.018-.213.179-.218.213-.223 3.392-.446 5.652-2.67 5.916-5.69.271-3.1-1.297-5.256-5.242-7.208"/>
            <path stroke="#FFF" stroke-width="3" d="M14.988 200.06a8.266 8.266 0 1 0-1.443 16.469 8.266 8.266 0 0 0 1.443-16.47z"/>
            <path fill="#FDC149" d="M86.42 171.4c-7.929-.694-14.92 5.171-15.614 13.1-.695 7.93 5.17 14.92 13.1 15.615 7.928.695 14.92-5.17 15.614-13.1.695-7.928-5.17-14.919-13.1-15.614"/>
            <path stroke="#FFF" stroke-width="3" d="M85.877 177.605a8.184 8.184 0 1 0-1.428 16.305 8.184 8.184 0 0 0 1.428-16.305z"/>
            <path fill="#A6425F" d="M347.042 338.532s-53.496-9.147-44.857-108.461c0 0 76.093 41.04 44.857 108.461"/>
            <path fill="#C96B86" d="M352.518 333.521s46.293 5.1 62.642-78.868c0 0-72.471 15.868-62.642 78.868"/>
            <path stroke="#A6425F" d="M357.382 326.975s31.333-52.55 48.666-62.775"/>
            <path stroke="#C96B86" d="M307.715 242.975s28.667 44.804 35.334 80.333"/>
            <path fill="#B95572" d="M322.661 331.444h51.798s4.734-.151 4.734 3.958V363.916s-1.868 12.19-12.079 20.283c0 0-2.616 2.032-5.48 3.474H335.61s-16.97-10.06-16.97-25.5v-26.647s.784-4.082 4.021-4.082"/>
            <path fill="#963E60" d="M318.64 344.42v14.418h60.553V344.42z"/>
            <path fill="#A6425F" d="M42.314 342.449s-32.47-5.552-27.225-65.83c0 0 46.183 24.91 27.225 65.83"/>
            <path fill="#C96B86" d="M45.638 339.408s28.096 3.095 38.02-47.868c0 0-43.986 9.63-38.02 47.868"/>
            <path stroke="#A6425F" d="M48.59 335.434s19.017-31.894 29.537-38.1"/>
            <path stroke="#C96B86" d="M18.445 284.452s17.399 27.193 21.445 48.757"/>
            <path fill="#B95572" d="M19.357 332.198h51.798s4.735-.151 4.735 3.958V364.67s-1.87 12.189-12.08 20.283c0 0-2.616 2.032-5.48 3.474H32.307s-16.971-10.061-16.971-25.501V336.28s.784-4.082 4.021-4.082"/>
            <path fill="#963E60" d="M15.336 345.174v14.417h60.553v-14.417z"/>
        </g>
    </g>
</svg>
