<svg xmlns="http://www.w3.org/2000/svg" xmlns:xlink="http://www.w3.org/1999/xlink" viewBox="0 0 331 335">
    <defs>
        <path id="serv-a2" d="M.194.346h220.562v267.16H.194z"/>
        <path id="serv-c2" d="M.218.238h42.694v54.65H.218z"/>
    </defs>
    <g fill="none" fill-rule="evenodd">
        <path fill="#E9E9E9" d="M292.869 297.44H98.69c-7.1 0-12.91-5.886-12.91-13.08V40.521c0-7.195 5.81-13.081 12.91-13.081H292.87c7.1 0 12.91 5.886 12.91 13.081V284.36c0 7.195-5.81 13.082-12.91 13.082"/>
        <g transform="translate(50.379 .172)">
            <mask id="serv-b2" fill="#fff">
                <use xlink:href="#serv-a2"/>
            </mask>
            <path fill="#FDC149" d="M207.283 270.346H13.104c-7.1 0-12.91-5.887-12.91-13.082V13.427C.194 6.232 6.004.346 13.104.346h194.179c7.1 0 12.91 5.886 12.91 13.081v243.837c0 7.195-5.81 13.082-12.91 13.082" mask="url(#serv-b2)"/>
        </g>
        <path fill="#70CCEC" d="M305.653 187.65c-16.18-16.215-37.756-25.147-60.661-25.147-22.906 0-44.481 8.932-60.662 25.147-16.182 16.216-25.147 37.756-25.147 60.662s8.93 44.48 25.147 60.662c16.216 16.181 37.756 25.147 60.662 25.147 22.905 0 44.48-8.93 60.661-25.147 16.182-16.216 25.148-37.756 25.148-60.662s-8.932-44.48-25.148-60.662"/>
        <path fill="#345287" d="M330.861 244.07h-36.638c-.348-14.578-2.391-28.617-5.978-41.074 6.98-3.587 13.498-8.099 19.476-13.421 13.498 14.424 22.099 33.476 23.14 54.495M249.176 252.555h36.6c-.308 13.42-2.16 26.264-5.36 37.757a95.398 95.398 0 0 0-31.24-6.788v-30.97zM301.627 183.674c-4.936 4.358-10.336 8.06-16.043 11.146a98.538 98.538 0 0 0-4.976-11.57c-3.664-7.251-7.829-13.19-12.418-17.741 12.534 3.51 23.911 9.796 33.437 18.165M249.176 163.619c8.832 1.967 17.162 10.104 23.873 23.372 1.813 3.586 3.433 7.405 4.86 11.454a86.553 86.553 0 0 1-28.733 6.44V163.62zM280.454 206.583c3.162 11.416 4.975 24.181 5.284 37.526h-36.562v-30.7a95.453 95.453 0 0 0 31.278-6.826M240.691 244.07h-36.6c.309-13.344 2.121-26.11 5.284-37.526a93.665 93.665 0 0 0 31.278 6.788v30.738h.038zM240.73 163.619v41.267c-9.989-.502-19.708-2.7-28.733-6.44 1.427-4.05 3.047-7.869 4.86-11.455 6.71-13.268 15.041-21.405 23.873-23.372M221.716 165.509c-4.59 4.55-8.754 10.529-12.418 17.74a113.6 113.6 0 0 0-4.976 11.57 87.233 87.233 0 0 1-16.044-11.145c9.526-8.37 20.904-14.655 33.438-18.165M182.185 189.575a95.194 95.194 0 0 0 19.476 13.42c-3.587 12.497-5.669 26.497-5.978 41.075h-36.638c1.04-21.02 9.642-40.071 23.14-54.495M159.045 252.555h36.638c.348 14.694 2.43 28.77 6.056 41.305-6.942 3.587-13.46 8.022-19.4 13.344-13.614-14.462-22.253-33.553-23.294-54.65M188.433 313.105a86.244 86.244 0 0 1 15.966-11.068c1.466 3.972 3.086 7.79 4.899 11.338 3.664 7.25 7.829 13.19 12.418 17.78a86.08 86.08 0 0 1-33.283-18.05M240.73 333.006c-8.832-1.967-17.162-10.105-23.873-23.372-1.774-3.51-3.356-7.25-4.782-11.223a85.137 85.137 0 0 1 28.655-6.402v40.997zM209.49 290.312c-3.2-11.493-5.052-24.336-5.36-37.757h36.6v30.97a93.458 93.458 0 0 0-31.24 6.787M249.215 333.006v-40.997c9.95.501 19.63 2.661 28.655 6.402-1.427 3.972-3.008 7.714-4.782 11.223-6.71 13.267-15.041 21.405-23.873 23.372M268.228 331.116c4.59-4.551 8.755-10.529 12.419-17.78 1.813-3.548 3.432-7.366 4.898-11.338a86.258 86.258 0 0 1 15.967 11.069c-9.488 8.33-20.827 14.578-33.284 18.049"/>
        <g transform="translate(288.027 252.317)">
            <mask id="serv-d2" fill="#fff">
                <use xlink:href="#serv-c2"/>
            </mask>
            <path fill="#345287" d="M19.617 54.887A94.33 94.33 0 0 0 .218 41.543C3.843 29.01 5.926 14.893 6.273.238h36.639c-1.08 21.096-9.72 40.187-23.295 54.65" mask="url(#serv-d2)"/>
        </g>
        <path fill="#345287" d="M0 194.606L50 111l50 83.606z"/>
        <path stroke="#FFF" stroke-linecap="round" stroke-linejoin="round" stroke-width="14" d="M141.085 96.51l71.02-49.914M145.762 43.18l36.458 24.26 8.869 43.315M119.95 82.105l21.332 14.194 4.443 22.664"/>
    </g>
</svg>
