<svg xmlns="http://www.w3.org/2000/svg" xmlns:xlink="http://www.w3.org/1999/xlink" viewBox="0 0 373 403">
    <defs>
        <path id="serv-a5" d="M.037.27H43.6v55.638H.037z"/>
    </defs>
    <g fill="none" fill-rule="evenodd">
        <path fill="#E9E9E9" d="M282.465 354.568H88.287c-7.1 0-12.91-5.887-12.91-13.082V97.65c0-7.195 5.81-13.081 12.91-13.081h194.178c7.101 0 12.911 5.886 12.911 13.081v243.837c0 7.195-5.81 13.082-12.91 13.082"/>
        <path fill="#FDC149" d="M247.264 327.649H53.086c-7.101 0-12.911-5.887-12.911-13.081V70.73c0-7.194 5.81-13.081 12.91-13.081h194.179c7.101 0 12.91 5.887 12.91 13.081v243.838c0 7.194-5.809 13.081-12.91 13.081"/>
        <path fill="#70CCEC" d="M154.653 340.803c-1.921.581-3.913-.383-4.45-2.155l-4.982-16.455c-.536-1.772.586-3.68 2.506-4.261l41.034-12.425c1.92-.582 3.912.384 4.448 2.155l4.983 16.455c.536 1.772-.585 3.68-2.506 4.261l-41.033 12.425z"/>
        <g transform="translate(185.843 346.826)">
            <mask id="serv-b5" fill="#fff">
                <use xlink:href="#serv-a5"/>
            </mask>
            <path fill="#70CCEC" d="M43.43 43.943c.581 1.92-.384 3.912-2.156 4.449l-24.382 7.382c-1.772.537-3.68-.585-4.26-2.506L.206 12.235c-.582-1.921.383-3.913 2.155-4.45L26.744.405c1.772-.538 3.679.584 4.26 2.505L43.43 43.943z" mask="url(#serv-b5)"/>
        </g>
        <path fill="#70CCEC" d="M329.423 339.746l-94.572-15.013a2.587 2.587 0 0 1-2.071-1.806l-10.015-33.074a2.588 2.588 0 0 1 .886-2.79l73.144-57.027a2.588 2.588 0 0 1 4.071 1.3l31.442 105.112c.547 1.827-1.002 3.597-2.885 3.298"/>
        <path fill="#345287" d="M296.897 334.706l-62.05-9.97a2.587 2.587 0 0 1-2.066-1.806l-10.015-33.075a2.588 2.588 0 0 1 .888-2.792l47.776-37.17a2.588 2.588 0 0 1 4.067 1.292l24.288 80.215c.554 1.83-1 3.61-2.888 3.306"/>
        <path fill="#345287" d="M245.592 330.432a9.168 9.168 0 0 1-6.117 11.43L176.602 360.9a9.167 9.167 0 0 1-11.43-6.117l-16.447-54.317a9.168 9.168 0 0 1 6.117-11.43l62.873-19.038a9.168 9.168 0 0 1 11.43 6.117l16.447 54.318z"/>
        <path stroke="#FFF" stroke-linecap="round" stroke-linejoin="round" stroke-width="14" d="M102.29 218.556h96.296v-60.573H102.29z"/>
        <path stroke="#FFF" stroke-linecap="round" stroke-linejoin="round" stroke-width="14" d="M102.29 157.983l48.149 30.287 48.147-30.287"/>
        <path fill="#345287" d="M48.549 114.158L1.342 86.788A2.693 2.693 0 0 1 0 84.452l.1-54.568a2.694 2.694 0 0 1 1.35-2.33L48.759.359a2.693 2.693 0 0 1 2.693.004l47.207 27.371A2.693 2.693 0 0 1 100 30.068l-.1 54.568a2.692 2.692 0 0 1-1.35 2.33l-47.308 27.197a2.694 2.694 0 0 1-2.693-.005"/>
        <path stroke="#345287" stroke-linecap="round" stroke-width="14" d="M344.735 242.35l-14.044 12.18M360.264 268.75l-20.504 7.006M365.7 300.585l-21.55-1.535"/>
    </g>
</svg>
