<svg xmlns="http://www.w3.org/2000/svg" width="26" height="26" viewBox="0 0 26 26">
    <g fill="none" fill-rule="evenodd" transform="translate(1 1)">
        <circle cx="12" cy="12" r="12" stroke="#61586F"/>
        <path fill="#61586F" d="M18.385 8.822c-.423.188-.88.315-1.359.372a2.367 2.367 0 0 0 1.04-1.307 4.737 4.737 0 0 1-1.5.573 2.363 2.363 0 0 0-1.727-.746 2.364 2.364 0 0 0-2.304 2.9 6.718 6.718 0 0 1-4.876-2.467 2.363 2.363 0 0 0 .733 3.155 2.367 2.367 0 0 1-1.072-.297v.03c0 1.144.815 2.1 1.897 2.316a2.334 2.334 0 0 1-1.068.04 2.368 2.368 0 0 0 2.21 1.642 4.755 4.755 0 0 1-3.502.978 6.695 6.695 0 0 0 3.626 1.061c4.35 0 6.73-3.6 6.73-6.722 0-.102-.003-.204-.008-.305.463-.334.863-.75 1.18-1.223"/>
    </g>
</svg>
