<svg xmlns="http://www.w3.org/2000/svg" width="640" height="440" viewBox="0 0 640 440">
    <g fill="none" fill-rule="evenodd">
        <path fill="#CAC3D0" d="M359.152 212.348L444.67 435.31a5.796 5.796 0 0 0 7.486 3.337 5.802 5.802 0 0 0 3.335-7.49l-85.52-222.965a5.795 5.795 0 1 0-10.818 4.156"/>
        <path fill="#CAC3D0" d="M405.375 212.348L319.857 435.31a5.795 5.795 0 0 1-7.487 3.337 5.801 5.801 0 0 1-3.333-7.49l85.52-222.965a5.793 5.793 0 0 1 7.485-3.337 5.801 5.801 0 0 1 3.333 7.493"/>
        <path fill="#B4ABBD" d="M376.387 193.107v238.82a5.798 5.798 0 0 0 5.797 5.799c3.2 0 5.795-2.596 5.795-5.799v-238.82c0-3.204-2.596-5.8-5.795-5.8a5.798 5.798 0 0 0-5.797 5.8"/>
        <path fill="#B4ABBD" d="M371.871 270.786h20.624c7.378 0 13.359-5.985 13.359-13.368v-34.003h-47.342v34.003c0 7.383 5.982 13.368 13.36 13.368"/>
        <path fill="#FFF" d="M193.954 246.218h376.459V9.278H193.954z"/>
        <path fill="#DAF1FF" d="M264.42 175.153h-22.06a3.675 3.675 0 0 1-3.675-3.674v-.44a3.673 3.673 0 0 1 3.675-3.675h22.06a3.674 3.674 0 0 1 3.674 3.674v.44a3.675 3.675 0 0 1-3.674 3.675M282.35 175.153h-4.366a3.674 3.674 0 0 1-3.673-3.674v-.44a3.673 3.673 0 0 1 3.673-3.675h4.366a3.672 3.672 0 0 1 3.674 3.674v.44a3.674 3.674 0 0 1-3.674 3.675M246.727 189.657h-4.367a3.673 3.673 0 0 1-3.675-3.675v-.437a3.674 3.674 0 0 1 3.675-3.676h4.367a3.675 3.675 0 0 1 3.674 3.676v.437a3.674 3.674 0 0 1-3.674 3.675M280.676 189.747h-22.058a3.672 3.672 0 0 1-3.674-3.673v-.442a3.674 3.674 0 0 1 3.674-3.674h22.058a3.676 3.676 0 0 1 3.677 3.674v.442a3.674 3.674 0 0 1-3.677 3.673M317.282 175.11h-4.367a3.675 3.675 0 0 1-3.675-3.675v-.443a3.675 3.675 0 0 1 3.675-3.674h4.367a3.675 3.675 0 0 1 3.674 3.674v.443a3.675 3.675 0 0 1-3.674 3.674M298.609 175.153h-4.366a3.674 3.674 0 0 1-3.674-3.674v-.44a3.672 3.672 0 0 1 3.674-3.675h4.366a3.672 3.672 0 0 1 3.674 3.674v.44a3.674 3.674 0 0 1-3.674 3.675M316.304 189.747h-22.06a3.672 3.672 0 0 1-3.675-3.673v-.442a3.674 3.674 0 0 1 3.674-3.674h22.06a3.675 3.675 0 0 1 3.675 3.674v.442a3.673 3.673 0 0 1-3.674 3.673M278.805 207.33h-35.183a3.873 3.873 0 0 1-3.874-3.875 3.874 3.874 0 0 1 3.874-3.877h35.183a3.877 3.877 0 0 1 0 7.752M302.758 207.33h-11.186a3.876 3.876 0 1 1 0-7.752h11.186a3.875 3.875 0 0 1 3.875 3.877 3.874 3.874 0 0 1-3.875 3.875M238.625 54.27a54.55 54.55 0 0 0-14.129 24.378c-3.496 12.821-2.276 26.684 3.668 38.806l15.24-10.096c-4.15-9.9-3.748-21.25 1.13-30.905a36.996 36.996 0 0 1 6.84-9.443c2.026-2.034 4.258-3.765 6.588-5.236l-10.47-14.695a55.625 55.625 0 0 0-8.867 7.19"/>
        <path fill="#CAC3D0" d="M328.805 73.305a54.218 54.218 0 0 0-10.382-16.946l-12.766 12.768c3.71 4.312 6.23 9.27 7.62 14.507 3.282 12.337.081 26.064-9.575 35.72-8.651 8.643-20.529 12.113-31.78 10.355l-8.13 16.705c18.215 4.715 38.395-.054 52.65-14.319 15.868-15.86 20.02-39.1 12.363-58.79"/>
        <path fill="#DAF1FF" d="M228.164 117.454a54.294 54.294 0 0 0 10.461 14.64 55.083 55.083 0 0 0 9.028 7.291 54.075 54.075 0 0 0 16.138 7.028l8.131-16.703c-4.196-.627-8.293-1.955-12.12-4.044a37.402 37.402 0 0 1-8.428-6.313c-3.56-3.558-6.212-7.62-7.97-11.995l-15.24 10.096z"/>
        <path fill="#B4ABBD" d="M247.492 47.079l10.471 14.696c8.697-5.452 19.168-6.914 28.85-4.394a36.744 36.744 0 0 1 18.844 11.745l12.766-12.766a61.981 61.981 0 0 0-1.973-2.09c-5.557-5.558-11.985-9.656-18.88-12.32-16.316-6.391-35.078-4.661-50.078 5.129"/>
        <path fill="#CAC3D0" d="M191.795 18.528h380.779c5.106 0 9.243-4.14 9.243-9.25 0-5.109-4.137-9.25-9.243-9.25H191.795c-5.106 0-9.243 4.141-9.243 9.25 0 5.11 4.137 9.25 9.243 9.25M191.795 256.35h380.779c5.106 0 9.243-4.14 9.243-9.25s-4.137-9.25-9.243-9.25H191.795c-5.106 0-9.243 4.14-9.243 9.25s4.137 9.25 9.243 9.25"/>
        <g>
            <path fill="#B4ABBD" d="M364.22 177.84c.304 0 .606-.123.83-.36l45.176-46.024 25.716 10.787 42.303-34.039a1.132 1.132 0 0 0-1.6-1.598L435.58 139.4l-25.77-10.816-46.414 47.354c-.427.458-.4 1.171.055 1.595.218.205.494.306.769.306M466.713 218.392h11.532v-82.474h-11.532zM442.811 218.392h11.533v-39.071H442.81zM418.908 218.392h11.532v-61.471h-11.532zM395.008 218.392h11.532v-30.736h-11.532zM371.106 218.392h11.532v-25.131h-11.532z"/>
            <path fill="#DAF1FF" d="M391.265 57.496h-22.059a3.675 3.675 0 0 1-3.675-3.674v-.44a3.673 3.673 0 0 1 3.675-3.675h22.06a3.674 3.674 0 0 1 3.673 3.674v.44a3.675 3.675 0 0 1-3.674 3.675M409.195 57.496h-4.365a3.674 3.674 0 0 1-3.674-3.674v-.44a3.673 3.673 0 0 1 3.674-3.675h4.365a3.672 3.672 0 0 1 3.674 3.674v.44a3.674 3.674 0 0 1-3.674 3.675M373.573 72h-4.367a3.673 3.673 0 0 1-3.675-3.675v-.437a3.674 3.674 0 0 1 3.675-3.676h4.367a3.675 3.675 0 0 1 3.674 3.676v.437A3.674 3.674 0 0 1 373.573 72M407.522 72.09h-22.058a3.672 3.672 0 0 1-3.674-3.673v-.442a3.674 3.674 0 0 1 3.674-3.674h22.058a3.676 3.676 0 0 1 3.676 3.674v.442a3.674 3.674 0 0 1-3.676 3.673M444.128 57.452h-4.367a3.675 3.675 0 0 1-3.675-3.674v-.443a3.675 3.675 0 0 1 3.675-3.674h4.367a3.675 3.675 0 0 1 3.673 3.674v.443a3.675 3.675 0 0 1-3.673 3.674M478.079 57.54h-22.06a3.672 3.672 0 0 1-3.675-3.675v-.437a3.672 3.672 0 0 1 3.674-3.675h22.061a3.674 3.674 0 0 1 3.674 3.675v.437a3.674 3.674 0 0 1-3.674 3.675M425.454 57.496h-4.365a3.674 3.674 0 0 1-3.674-3.674v-.44a3.672 3.672 0 0 1 3.674-3.675h4.365a3.672 3.672 0 0 1 3.674 3.674v.44a3.674 3.674 0 0 1-3.674 3.675M443.15 72.09h-22.061a3.672 3.672 0 0 1-3.674-3.673v-.442a3.674 3.674 0 0 1 3.674-3.674h22.06a3.675 3.675 0 0 1 3.674 3.674v.442a3.673 3.673 0 0 1-3.674 3.673M461.08 72.09h-4.366a3.673 3.673 0 0 1-3.675-3.673v-.442a3.675 3.675 0 0 1 3.675-3.674h4.366a3.674 3.674 0 0 1 3.673 3.674v.442a3.672 3.672 0 0 1-3.673 3.673M477.338 72.09h-4.366a3.672 3.672 0 0 1-3.674-3.673v-.442a3.674 3.674 0 0 1 3.674-3.674h4.366a3.674 3.674 0 0 1 3.674 3.674v.442a3.672 3.672 0 0 1-3.674 3.673M405.65 89.673h-35.182a3.873 3.873 0 0 1-3.874-3.875 3.874 3.874 0 0 1 3.874-3.877h35.183a3.877 3.877 0 0 1 0 7.752M429.604 89.673h-11.186a3.876 3.876 0 1 1 0-7.752h11.186a3.875 3.875 0 0 1 3.875 3.877 3.874 3.874 0 0 1-3.875 3.875"/>
        </g>
        <g>
            <path fill="#1A4B69" d="M626.964 100.064c-5.017-5.807-11.042-10.602-15.84-16.603-5.578-6.983-8.406-14.447-6.378-21.289.797-2.688 1.039-11.829.148-15-4.097-14.586-17.213-21.615-23.56-19.55-13.365 4.35-20.33 13.273-16.905 43.439 2.862 11.755-8.384 30.706-.486 48.992 3.925 9.087 20.567 41.305 45.347 41.388 11.004.037 21.74-3.993 27.017-13.281 7.704-13.552 2.567-34.303-9.343-48.096"/>
            <path fill="#FAB9AF" d="M560.72 93.127s-12.711 19.528-16.13 25.876c-8.998-7.696-33.709-26.497-33.709-26.497s1.558-7.103.625-9.198c-.929-2.096-6.654-6.1-7.993-6.948-1.341-.848-.74 2.551.838 3.733.54.401 3.295 3.403 3.057 4.378-.242.98-9.068-4.052-9.068-4.052s-3.34-.047-2.918 1.818c0 0-2.68 1.417-1.89 2.851 0 0-1.64 1.874-.137 3.957 1.502 2.077 4.553 7.21 10.861 8.197 0 0 29.9 35.363 38.94 36.585 8.887 1.196 31.478-37.026 31.478-37.026l-13.954-3.674z"/>
            <path fill="#3C5A96" d="M513.923 94.205s19.301 14.463 28.298 22.16c3.419-6.348 18.212-25.458 18.212-25.458s14.649-10.744 14.241 5.894c0 0-22.59 38.223-31.478 37.025-9.04-1.22-38.428-32.931-38.428-32.931"/>
            <path fill="#FAB9AF" d="M575.877 412.754l6.158-99.96 4.787-31.134-26.126 10.506 6.742 123.104zM625.711 417.68L610.26 314.777l3.477-30.334-26.256 12.774 29.905 119.612zM594.66 56.73c.444 4.194-4.574 17.129-.724 27.986.07 2.196 8.018 8.735-11.863 17.132-12.134-2.327-9.338-13.12-9.396-16.23 10.128-8.721 3.624-16.025 2.527-19.214 3.761 1.251 17.986-8.937 19.456-9.673"/>
            <path fill="#FAB9AF" d="M583.334 38.955c7.548 1.84 13.138 10.262 11.326 17.775-.018.077-3.076 8.273-3.076 8.273-1.365 5.663-12.21 12.46-16.867 10.22-11.024-5.295-8.343-27.285-7.364-29.602 2.724-6.478 8.952-8.38 15.98-6.666"/>
            <path fill="#FAB9AF" d="M595.699 50.41c1.858.758 2.547 4.598.87 6.886-1.125 1.533-3.717 2.884-5.648 2.654.065-2.25 1.052-6.411 1.466-9.113 1.28-.818 2.607-.72 3.312-.427M555.955 425.868s-5.765 1.883-6.08 2.893c0 0-.945 1.483 3.463 3.287 0 0 4.059-.6 9.177-1.07 0 0 6.215.318 7.096.595 0 0 6.03.76 6.026-4.096 0 0-.173-3.692-.486-4.9 0 0 .456-7.013.726-9.823.115-1.194-7.945.003-8.536 1.897 0 0 .684 4.464-.875 8.135 0 0-2.013 1.433-4.206 1.892-.054.012-1.06.342-1.114.36-1.005.362-3.8.883-5.19.83"/>
            <path fill="#3C5A96" d="M555.955 425.868s-7.872 1.01-7.617 4.025c.256 3.014 8.575 2.691 8.575 2.691s7.591-1.067 13.414-.731c5.825.337 5.319-.066 5.319-.066s1.793-4.36.006-7.104c0 0-10.78 3.654-19.697 1.185"/>
            <path fill="#FAB9AF" d="M609.741 426.701s-5.49 2.567-5.266 3.602c0 0-.093 1.759 4.627 1.14 0 0 4.596-1.58 8.816-4.528 0 0 5.56-2.81 6.462-3.005 0 0 5.617-2.33 3.225-6.553 0 0-1.995-2.725-2.83-4.018 0 0-4.277-15.763-4.656-16.899-.38-1.137-6.861-2.118-6.443-.176 0 0 3.2 17.601 3.649 21.567 0 0 .387 1.785-1.294 3.272-.042.037-1.546 1.727-1.582 1.769-.697.812-3.473 3.185-4.708 3.83"/>
            <path fill="#3C5A96" d="M609.741 426.701s-7.75 2.853-6.046 5.348c1.705 2.494 10.014-1.526 10.014-1.526s6.462-2.592 11.432-5.841c3.214-2.1 4.55-2.962 4.55-2.962s-.542-5.299-3.445-6.8c0 0-7.539 9.503-16.505 11.781"/>
            <path fill="#FA978D" d="M573.783 63.21a.577.577 0 0 1-.244.437 3.06 3.06 0 0 1-2.099.584c-1.28-.1-1.66-.626-1.775-.91a.49.49 0 0 1-.014-.305l1.866-7.203a.63.63 0 0 1 .341-.397c.339-.165.898-.416 1.163-.387.21.024.57.297.807.494.149.123.228.29.222.462l-.267 7.225z"/>
            <path fill="#1A4B69" d="M583.34 30.83c-9.642-4.34-18.953.685-19.132 5.71-5.164 4.51-2.848 12.08 1.53 16.026 1.502-11.118 5.476-12.922 5.476-12.922 6.78 4.85 14.262 1.546 17.919 5.173 4.045 4.015 2.68 7.921 3.452 8.933 0 0 11.295-12.428-9.245-22.92"/>
            <path fill="#FAB9AF" d="M592.109 80.56l-11.878-3.068s.68 4.734-4.092 6.051c-1.413 2.17-3.871 2.948-3.433 7.84.437 4.893 1.938 6.216 3.727 7.118 3.496 1.762 10.162 2.76 15.152-3.94 0 0 4.575-7.294 2.189-11.488-1.248-2.195-1.665-2.513-1.665-2.513"/>
            <path fill="#28468C" d="M593.774 83.073s-.538 8.338-3.482 11.86c0 0-1.672 4.75-9.684 3.957-.17-.017-.984-.124-1.133-.212-1.219-.713-7.13-4.256-6.799-13.06l-8.601 3.122c-1.801 23.268-8.571 24.678-8.647 38.942-.053 9.89 3.111 13.974 5.788 19.542.527 1.098.914 2.172 1.505 3.233 1.354 2.435 4.545 8.796 4.545 8.796.064.643-1.315 9.352-1.522 9.958-1.916 5.593-12.403 50.794-15.362 130.822 0 0 18.491 4.687 41.257 5.72 10.926.497 34.85-3.306 34.85-3.306s9.496-88.232-14.552-140.894a6.51 6.51 0 0 1-.406-4.138c2.694-11.773 16.267-59.039-1.193-67.545 0 0-8.152-1.155-16.564-6.797"/>
            <path fill="#FCD2C5" d="M532.521 170.788c1.294.8 4.548 2.834 6.099 2.67-1.231.789-1.832 1.077-3.65 1.528-.724.18-4.29-3.013-4.29-3.767 0-1.22 1.105-.888 1.841-.43"/>
            <path fill="#FCD2C5" d="M523.928 176.295c1.533-1.121 14.27-2.757 15.989-3.194.099-.016 3.534 5.011 4.145 6.85-7.683 3.37-18.551 5.408-17.425 1.986.086-.258-2.544 1.17-2.61-.83-.034-1.054-.673-1.082-1.156-1.76-.566-.796-.25-2.095 1.057-3.052"/>
            <path fill="#FCD2C5" d="M592.855 146.487c2.912-.538 7.258.553 7.75 6.55.537 6.547-42.438 21.457-57.706 27.367-.584-1.985-1.828-4.397-3.54-7.156 9.347-3.405 43.553-21.594 51.803-26.183.45-.25 1.033-.455 1.693-.578"/>
            <path fill="#3C5A96" d="M603.762 97.28c6.052-5.904 12.201-3.87 13.308 5.278 1.175 9.707-9.381 44.2-16.46 52.897-6.704 8.476-41.578 19.691-54.596 24.95 0 0 1.033-1.772-.682-5.197-1.796-3.582-3.972-4.036-3.972-4.036 12.833-8.21 43.32-24.248 46.574-26.52.272-.993 12.643-44.267 15.828-47.372"/>
        </g>
        <g>
            <path fill="#FFF" d="M200.285 288.783c-1.46 2.298-6.011 3.594-2.177 7.79.478.521.798 6.014-3.928 6.253-3.038.163-4.736 2.754-5.173 5.441-.757 4.623-3.943 6.64-7.631 8.06-6.41 2.445-6.662 2.804-3.543 9.033.119.254.33.481.41.747.505 1.804 2.682 3.863.864 5.36-1.725 1.43-4.379.72-6.385-.495-2.97-1.82-4.574-4.423-4.458-8.085.133-4.37.133-8.566-2.083-12.776-1.498-2.86-.624-6.668-.052-10.022.411-2.448.159-4.398-2.348-5.734-1.592-.84-2.787-2.404-4.327-3.394-5.15-3.273-5.746-7.871-3.914-13.164.568-1.642.556-3.34.849-4.996.345-2.06-.412-3.129-2.337-3.062-4.02.12-5.465-2.512-6.17-5.746-.557-2.592-2.68-3.354-4.364-2.912-5.986 1.561-9.728-1.537-11.705-6.228-1.538-3.703-3.53-6.628-6.223-9.462-2.11-2.232-3.743-4.93-5.523-7.497 6.941-17.814 20.651-32.206 37.925-39.985 0 2.005-.794 4.25 2.417 5.064-2.428 2.193-4.975.71-7.204 1.337-.904.255-2.377.202-2.297 1.283.052.87.61 2.114 2.07 2.312 2.628.349 5.097.133 7.364-1.336 2.588-1.67 5.442-2.096 8.467-2.151 3.304-.041 3.395 1.562 1.778 3.58-.93 1.164-.823 3.114-2.68 3.597-.612.147-1.594 1.108-1.765.306-.662-3.113-2.324-1.362-3.371-.693-2.096 1.309-1.259 3.566-1.194 5.463.066 1.564 1.221 2.512 2.708 2.915.902.24 1.564-.028 1.99-1.017 1.327-3.059 4.803-3.98 6.569-6.894 1.512-2.5 5.24-.802 6.685.292 3.545 2.714 8.07 4.102 10.832 7.9 1.258 1.736 3.062 3.687.742 5.465-2.031 1.564-3.675.308-5.084-1.842-1.007-1.54-3.184-3.919-4.046.453.014.186.014.372.014.547 0 1.644-.518 2.553-2.707 3.274-2.709.909-6.198 1.27-7.912 4.05-1.592 2.606-3.992 4.182-6.514 4.932-2.268.68-2.376 1.737-2.494 3.552-.332 4.973-3.33 7.9-7.762 7.804-.213-.185-.4-.426-.637-.558-1.713-.937.343-4.343-2.72-4.33-3.916.025-8.148-.495-11.163 2.604-2.147 2.232-.714 5.427-.317 7.966.33 2.11 2.788 2.018 4.857 1.363 2.573-.804 5.24-.856 7.87-.242.039.375.106.643.094.91-.042 1.844-4.169 1.723-2.378 4.063 2.19 2.872 5.068 5.384 9.17 4.61 3.317-.63 6.554-1.496 9.98-1.257 3.528.256 6.302 1.176 8.065 4.852 1.914 4.009 5.019 7.123 9.716 8.072 3.806.788 7.55 1.87 11.357 2.579 1.5.28 2.217 1.027 2.629 2.323.823 2.687.715 5.28-.836 7.726"/>
            <path fill="#CAC3D0" d="M223.932 201.45a19.083 19.083 0 0 1-1.766 1.843 9.231 9.231 0 0 1-.437.375c-.45.39-.929.723-1.42 1.004-.159.094-.333.188-.506.266-.131.069-.263.136-.41.189-.225.106-.451.186-.676.267-.173.039-.347.092-.531.132-1.195.295-2.55.31-4.128-.052-3.45-.775-7.777-1.097-7.777 4.757-.012.909-.887.976-1.47 1.297-1.607.88-3.215.961-4.806-.08-2.148-1.392-1.354-3.634-1.086-5.373.836-5.412.518-5.72-4.551-6.83-2.603-.574-6.319.817-7.472-3.554-.346-1.282-1.86-.147-2.283.587-1.18 2.046-1.925 4.195.491 6.042 1.342 1.015 2.72 1.99 3.888 3.179 1.832 1.832 1.302 3.982-.742 4.704-1.95.71-4.552.897-5.72-2.003-.744-1.857-1.66-3.863-3.782-4.29-4.417-.87-3.08-3.943-1.553-5.546 1.711-1.803 2.218-3.554 2.085-5.507a2.36 2.36 0 0 0-.04-.44c-.015-.12-.028-.227-.04-.347a71.196 71.196 0 0 1 8.33-.482 71.768 71.768 0 0 1 36.402 9.863M254.934 238.35c-1.033.064-2.033.098-2.968-.065a2.87 2.87 0 0 1-.49-.101 5.216 5.216 0 0 1-1.28-.48c-.179-.098-.377-.23-.559-.345a5.566 5.566 0 0 1-.934-.894 3.296 3.296 0 0 1-.391-.525c-.262-.365-.491-.796-.721-1.29-1.262-2.758-4.968-3.483-6.525-.89-3.738 6.274-8.459 6.043-14.065 3.615-.609-.265-1.345-.213-2.54-.396 2.374-3.781 6.722-4.244 9.442-6.768-.558-1.818-2.065-1.108-3.116-1.488-1.706-.626-3.28-1.437-.673-2.955 1.362-.793 2.361-1.7 1.822-3.286-.542-1.583-2.083-.808-3.198-.941-2.509-.28-5.95.265-6.083-3.221-.114-2.823 2.395-4.09 5.427-4.406.344-.033.69-.099 1.032-.182.163-.034.328-.064.478-.117.145-.046.295-.08.423-.13.1-.033.196-.083.313-.117.196-.064.377-.163.576-.246 1.637-.744 3.113-1.882 4.556-3.021a90.45 90.45 0 0 1 19.474 28.248"/>
            <path fill="#CAC3D0" d="M115.078 264.544c0 40.283 32.447 72.958 72.458 72.958 22.306 0 42.242-10.155 55.522-26.113a60.162 60.162 0 0 0 2.76-3.55 68.104 68.104 0 0 0 4.57-7.026c-.14-.126-.273-.263-.423-.39l.76-1.767c-.327 0-.636-.024-.94-.092-3.013-.558-3.862-2.806-1.734-4.928 1.713-1.7 2.323-3.651 2.903-5.908.847-3.274-.183-5.148-3.05-6.447-3.138-1.404-4.768-3.228-1.551-6.275 1.346-1.254.985-2.407-.236-3.628-2.654-2.646-6.312-2.383-8.44-.752-2.743 2.1-4.964 2.18-7.953 1.562-9.517-1.984-9.677-2.224-9.8-12.114-.07-4.577.213-8.786 4.405-11.673 1.247-.856 1.485-2.224 1.644-3.72.5-4.734 3.093-6.524 7.725-5.361 1.236.308 1.677-.501 2.495-.937 4.044-2.13 8.018-2.77 12.04.47.238.204.486.387.737.593.24.193.498.399.748.581.259.194.51.377.781.57.114.08.249.17.384.251a9.414 9.414 0 0 0 1.656.856c.147.07.294.116.44.16.15.036.296.09.442.114.25.07.499.116.77.137.195.022.408.046.626.046.283 0 .589-.033.893-.08.205-.033.418-.068.623-.137.034 0 .056 0 .08-.01a66.034 66.034 0 0 0-2.55-6.754c-.848.067-1.642.078-2.402-.06a1.726 1.726 0 0 1-.395-.077 3.83 3.83 0 0 1-1.03-.39c-.148-.08-.307-.181-.456-.273a3.051 3.051 0 0 1-.418-.364c-.112-.104-.225-.23-.34-.353a2.77 2.77 0 0 1-.315-.437c-.219-.294-.398-.636-.579-1.037-1.03-2.236-4.022-2.817-5.29-.717-3.026 5.075-6.842 4.88-11.385 2.921-.49-.217-1.089-.174-2.051-.32 1.926-3.057 5.438-3.435 7.646-5.477-.45-1.47-1.675-.901-2.526-1.21-1.381-.502-2.65-1.162-.546-2.384 1.099-.65 1.916-1.38 1.476-2.67-.443-1.278-1.688-.648-2.582-.752-2.04-.229-4.827.204-4.931-2.613-.088-2.28 1.938-3.307 4.396-3.56a6.49 6.49 0 0 0 .827-.148c.138-.033.271-.056.385-.102.125-.035.25-.057.351-.103.078-.024.16-.068.25-.09.159-.057.305-.137.463-.207 1.326-.593 2.529-1.518 3.695-2.441a73.235 73.235 0 0 0-14.171-10.861c-.58.663-1.156 1.29-1.769 1.836a7.266 7.266 0 0 1-.44.377c-.444.387-.93.72-1.417 1.004-.172.102-.33.183-.509.263-.127.08-.263.137-.41.193a8.457 8.457 0 0 1-.678.263l-.521.137c-1.2.297-2.55.308-4.135-.057-3.446-.776-7.77-1.096-7.77 4.758-.013.912-.897.98-1.476 1.3-1.608.879-3.215.96-4.8-.08-2.153-1.393-1.362-3.64-1.09-5.374.839-5.407.51-5.715-4.552-6.834-2.607-.57-6.323.824-7.477-3.548-.341-1.29-1.859-.146-2.278.581-1.178 2.053-1.923 4.2.487 6.047 1.35 1.017 2.72 1.986 3.899 3.183 1.822 1.826 1.291 3.981-.749 4.702-1.948.706-4.554.89-5.72-2.01-.738-1.858-1.654-3.854-3.784-4.288-4.419-.867-3.081-3.934-1.552-5.544 1.71-1.803 2.219-3.56 2.086-5.51a3.16 3.16 0 0 0-.034-.435 2.742 2.742 0 0 1-.046-.352 71.39 71.39 0 0 0-21.208 5.84c0 2.008-.794 4.254 2.412 5.067-2.423 2.188-4.973.707-7.205 1.333-.893.26-2.369.204-2.289 1.288.046.867.614 2.114 2.065 2.307 2.627.354 5.097.137 7.375-1.336 2.583-1.665 5.436-2.098 8.462-2.144 3.304-.047 3.397 1.562 1.775 3.581-.927 1.165-.825 3.116-2.682 3.593-.613.149-1.588 1.106-1.767.31-.657-3.116-2.324-1.37-3.365-.696-2.097 1.312-1.257 3.56-1.204 5.464.07 1.563 1.225 2.51 2.709 2.91.906.24 1.575-.024 1.995-1.017 1.325-3.057 4.803-3.981 6.57-6.89 1.518-2.498 5.246-.81 6.682.286 3.548 2.714 8.078 4.106 10.832 7.907 1.258 1.734 3.072 3.684.747 5.463-2.026 1.565-3.68.309-5.086-1.848-1.008-1.527-3.184-3.914-4.044.456.01.184.01.377.01.547 0 1.643-.52 2.557-2.704 3.276-2.709.912-6.197 1.266-7.91 4.049-1.598 2.6-3.998 4.187-6.513 4.929-2.268.684-2.38 1.745-2.494 3.559-.338 4.974-3.33 7.894-7.771 7.803-.203-.183-.395-.433-.634-.559-1.71-.934.351-4.345-2.718-4.335-3.92.034-8.144-.489-11.159 2.612-2.151 2.227-.712 5.42-.315 7.964.325 2.11 2.785 2.02 4.847 1.357 2.583-.797 5.244-.853 7.872-.24.047.377.106.64.093.914-.034 1.837-4.17 1.723-2.37 4.061 2.188 2.876 5.064 5.386 9.166 4.61 3.32-.628 6.559-1.494 9.98-1.257 3.536.253 6.298 1.177 8.065 4.85 1.914 4.017 5.018 7.12 9.72 8.078 3.807.787 7.547 1.87 11.351 2.578 1.506.273 2.22 1.026 2.628 2.327.828 2.683.713 5.27-.837 7.724-1.451 2.294-6.005 3.594-2.174 7.78.472.525.803 6.023-3.921 6.262-3.048.16-4.747 2.75-5.177 5.43-.759 4.633-3.943 6.652-7.636 8.068-6.41 2.442-6.662 2.806-3.544 9.036.124.25.338.479.418.74.499 1.804 2.674 3.87.86 5.364-1.721 1.427-4.383.717-6.389-.492-2.967-1.824-4.576-4.426-4.452-8.089.136-4.367.136-8.568-2.083-12.777-1.496-2.863-.623-6.663-.058-10.017.42-2.451.158-4.403-2.345-5.738-1.596-.843-2.787-2.407-4.326-3.388-5.145-3.273-5.744-7.873-3.91-13.167.569-1.64.556-3.341.84-4.995.35-2.066-.41-3.14-2.336-3.07-4.02.126-5.459-2.51-6.161-5.738-.567-2.601-2.685-3.354-4.373-2.92-5.982 1.563-9.719-1.53-11.701-6.231-1.541-3.694-3.524-6.627-6.222-9.458-2.118-2.234-3.748-4.928-5.528-7.494a73.253 73.253 0 0 0-4.985 26.65"/>
            <path fill="#FAC984" d="M271.585 247.885c-1.047.081-2.033.098-2.968-.065.935.163 1.935.129 2.968.065"/>
            <path fill="#B4ABBD" d="M187.428 412.256c-2.631 0-4.764-2.708-4.764-6.05V356.73c0-3.34 2.133-1.766 4.764-1.766 2.632 0 4.766-1.573 4.766 1.766v49.476c0 3.342-2.134 6.05-4.766 6.05"/>
            <path fill="#B4ABBD" d="M186.725 357.075c-.338 0-.672-.002-1.01-.004-23.518-.26-45.631-9.626-62.266-26.38-16.897-17.013-26.2-39.636-26.2-63.697 0-24.063 9.303-46.686 26.2-63.7a3.078 3.078 0 0 1 4.376 0 3.131 3.131 0 0 1 0 4.41c-15.727 15.835-24.384 36.892-24.384 59.29 0 22.396 8.657 43.45 24.384 59.289 15.485 15.592 36.068 24.311 57.957 24.55 22.536.277 43.818-8.468 59.786-24.55a3.08 3.08 0 0 1 4.38 0 3.137 3.137 0 0 1 0 4.408c-16.92 17.038-39.338 26.384-63.223 26.384M229.641 433.203h-84.425c0-22.88 11.744-29.047 26.229-29.047h31.966c14.486 0 26.23 6.168 26.23 29.047"/>
            <path fill="#FFF" d="M224.329 248.402c1.247-.857 1.486-2.224 1.644-3.721.5-4.734 3.093-6.525 7.725-5.361 1.237.308 1.677-.501 2.494-.936 4.045-2.131 8.019-2.772 12.041.47.238.203.486.386.737.592.239.194.497.399.748.582.26.193.51.376.782.57.113.08.247.17.383.25a9.638 9.638 0 0 0 1.656.856c.146.069.295.116.44.16.15.036.295.09.442.114.25.068.498.116.77.137.195.022.408.046.626.046.283 0 .589-.034.893-.08a2.94 2.94 0 0 0 .623-.137c.034 0 .056 0 .08-.01a73.057 73.057 0 0 1 3.556 22.61c0 11.409-2.594 22.201-7.238 31.808a53.735 53.735 0 0 1-1.144 2.28c-.295 0-.577.024-.862.024a4.25 4.25 0 0 1-.94-.092c-3.012-.558-3.86-2.805-1.733-4.928 1.712-1.7 2.322-3.651 2.902-5.908.847-3.274-.182-5.148-3.05-6.447-3.138-1.404-4.768-3.228-1.551-6.275 1.347-1.254.986-2.407-.237-3.628-2.653-2.646-6.311-2.383-8.44-.753-2.741 2.1-4.963 2.18-7.952 1.564-9.517-1.985-9.676-2.224-9.8-12.115-.068-4.577.214-8.786 4.405-11.672"/>
        </g>
        <g>
            <path fill="#325087" d="M10.096 327.84c3.716-24.665.383-93.549 1.896-101.967 1.316-7.307 12.663-6.948 20.025-6.724 7.405.3 14.337 10.152 14.037 17.573-.12 2.982-6.788 62.755-10.72 88.87-2.835 18.815-17.304 78.686-21.865 100.717L0 423.98c3.403-22.077 7.266-77.343 10.096-96.14M49.355 325.591c2.013-25.269-.99-90.207-.962-90.922.3-7.42 10.288-12.15 17.653-11.928 7.406.3 13.163 6.56 12.864 13.98-.12 2.983-2.067 63.318-5.998 89.432-2.836 18.815-10.617 79.797-15.984 101.94l-15.277-1.934c3.404-22.075 6.195-81.62 7.704-100.568"/>
            <path fill="#3C5A96" d="M1.458 423.05c-.197 3.948-.764 7.717-.808 10.083-.077.302.363.878.672.878l5.686.025 1.576-1.76 1.502 1.773 24.005.106c.415 0 .849-.52.962-.92.14-.498-.19-1.145-2.09-2.116-4.327-2.21-19.5-2.683-24.196-6.67 0 0-5.144-1.399-7.31-1.399M43.046 426.205c-.197 3.947-.59 6.316-.634 8.682-.078.302.36.88.672.88l5.686.024 1.576-1.761 1.501 1.774 24.005.105c.415 0 .848-.52.96-.919.143-.499-.188-1.145-2.088-2.117-4.327-2.21-19.5-2.682-24.196-6.668h-7.482z"/>
            <path fill="#325087" d="M15.21 238.274s-8.176-15.025-2.918-43.798h67.125s.952 21.898-.588 43.798H15.211z"/>
            <path fill="#A6425F" d="M71.886 82.685s13.216 4.39 11.867 10.417c-1.047 4.683-36.691 39.807-41.695 48.636-1.434 2.523-.543 46.51-.543 46.51s-7.093 4.195-15.035 3.03c-2.766-.405-1.812-52.583-1.224-54.91 2.992-11.81 23.714-31.433 23.714-31.433l22.916-22.25z"/>
            <path fill="#225A7D" d="M77.803 40.707s10.184-5.954 7.35-16.317c-2.834-10.364-10.426-.953-10.426-.953l3.076 17.27z"/>
            <path fill="#FAB9AF" d="M61.34 78.497l-.213-5.877s-1.604-7.449 4.968-9.378c6.57-1.93 10.61-6.337 11.582-9.623 0 0 6.451-15.367 2.628-22.653-2.792-5.32-15.96-15.124-20.39-12.66-4.432 2.463-20.897 7.708-21.127 12.072C38.56 34.745 46.33 56.5 46.33 56.5l-2.423 10.113-3.08 3.972 1.468 11.909 3.14 4.336 8.39 2.116 6.404-.09 1.11-10.359z"/>
            <path fill="#FA978D" d="M71.518 49.403s.897 1.262 2.793 1.357c2.234.113 2.453-1.06 2.453-1.06l-1.245-9.755s-1.215-.883-1.714-.892c-.419-.008-1.41.699-1.41.699l-.877 9.651z"/>
            <path stroke="#326C90" d="M56.774 44.81l12.913 1.18.509-5.602-12.913-1.18zM77.17 46.296l7.318.669.51-5.6-7.32-.669zM70.004 42.504s2.686-2.013 7.663-.304M57.283 39.208l-9.535-.87"/>
            <path fill="#1A4B69" d="M33.78 24.956C36.597 7.38 59.285 2.003 67.185 4.01c1.052.266.09 1.83-1.078 2.944 10.174-.037 21.039 2.83 21.66 13.961.45 8.103-20.643 9.899-34.688 6.59-1.127-.264-2.353-.334-3.324.302-1.21.794-2.6 3.506-1.594 9.742-1.154-1.27-3.741-2.965-5.018-1.061-.992 1.477-.684 4.943 3.472 6.493 1.454 4.345-.421 8.615-1.122 11.13 0 0-13.699-16.783-11.713-29.154"/>
            <path fill="#FAB9AF" d="M149.153 162.715s2.206 1.784 1.478 5.42c-.724 3.634-3.588-3.53-3.588-3.53s2.185 6.691.98 7.528c-1.205.838-3.21-.766-3.132-1.218.079-.45-1.274 1.911-2.208 1.753-.935-.158-2.084-2.458-2.084-2.458s-1.428.678-2.343-.227c-.912-.902-2.963-7.403-3.292-7.806-.33-.403-1.576 1.31-1.354 1.74.221.43 2.409 2.312 1.686 3.679-.724 1.367-2.963-1.313-3.585-2.022-3.396-3.878-3.445-8.165-3.135-8.787 1.047-2.095 15.154-1.837 20.577 5.928"/>
            <path fill="#28468C" d="M65.878 88.62c.867-3.857 8.066-4.67 12.907-.848 3.761 2.969 9.863 43.599 15.645 51.935 1.65 2.385 35.873 13.326 35.873 13.326s.713 8.223-3.763 14.901c-1.56 2.327-38.968-14.972-40.808-16.509-9.334-7.805-15.579-38.094-15.579-38.094s-6.03-16.911-4.275-24.71"/>
            <path fill="#D2F0FF" d="M40.627 95.055L53.75 80.857l5.288.27L74.674 96.14l-4.021 106.146-20.937 1.029-17.586-2.667z"/>
            <path fill="#3C5A96" d="M66.802 78.978l10.914 4.667c4.029 1.894 6.58 6.254 6.467 11.057-.285 12.122-.756 35.814-.61 54.264.191 23.787.703 40.08-2.534 61.967-.28 1.887-1.935 3.263-3.836 3.168l-13.965-.696a3.814 3.814 0 0 1-3.202-4.558c3.773-18.125 18.239-93.336 6.766-129.87M52.457 94.784c-2.009-13.78-12.794-22.951-12.794-22.951S20.539 80.059 15.852 87.31c-5.013 6.375 3.362 44.44.91 70.157-2.254 23.668-17.055 35.758-12.571 43.29 8.968 15.058 33.085 10.656 33.085 10.656s16.387-108.36 15.181-116.63"/>
            <path fill="#FFF" d="M42.98 67.563L56.527 80.96l-10.37 8.704L34.76 72.64zM66.906 76.168l-2.46-1.13-2.986-1.105-2.97 6.979 12.726 12.49z"/>
            <path fill="#28468C" d="M57.391 82.879c.013-.006.028-.01.04-.015a.723.723 0 0 1 .95.499c1.729 6.895 3.728 21.751 3.892 24.253.217 3.316 1.62 19.343 1.62 19.343l.828 16.671-3.195 9.365-5.277-8.567s1.607-33.711 1.099-35.286c-.412-1.27-.264-11.629-.264-11.629l-.165-13.945a.726.726 0 0 1 .472-.69"/>
            <path fill="#28468C" d="M57.27 84.109s-1.835-1.996-1.539-2.796c.297-.798 1.42-1.877 1.94-1.616.442.22 1.2.964 1.367 1.43.079.214.02.473-.083.911-.136.584-1.202 1.975-1.686 2.07M18.795 95.75c2.241-7.578 9.933-8.394 14.343-4.08 3.426 3.35 14.55 52.199 19.42 61.1 1.391 2.548 30.777 17.843 30.777 17.843s-.159 8.253-5.315 14.42c-1.796 2.147-36.102-20.498-37.77-22.221-8.458-8.75-15.576-37.126-15.576-37.126s-8.147-22.27-5.879-29.936"/>
            <path fill="#FAB9AF" d="M79.535 182.96s1.735-3.37 2.173-4.553c.449-1.216 1.352-5.003 1.352-5.003s.63 1.576 3.923 2.243c.576.117 4.736-1.238 6.57-2.935 4.23-3.907 7.43-6.918 12.402-6.84 5.137.081 7.745 3.854 9.162 5.722 1.025 1.352 2.538 4.72 1.97 5.184-.569.462-2.146-.054-2.54-.272-1.338-.742-1.68-2.356-2.925-3.27-.938-.691-3.995-1.533-3.995-1.533.767.675 2.801 2.27 3.671 3.485.853 1.109 2.01 2.933 2.374 5.068.364 2.116-.107 3.152-.502 3.673-.285.374-1.218-.6-1.407-1.75-.137-.826-.513-2.23-1.38-3.783.099.316.52 1.759.172 3.267-.337 1.453-2.212 4.245-2.08 1.746.08-1.483-.065-3.492-.799-4.404-.855-1.063-2.503-2.094-2.503-2.094.881 1.338 2.843 6.01.544 6.643-.476.13-.639-1.054-1.04-1.952-.435-.972-2.466-3.7-6.69-.18-6.887 5.735-11.115 2.898-11.115 2.898l-7.337-1.36z"/>
        </g>
    </g>
</svg>
