<svg width="36" height="40" viewBox="0 0 36 40" fill="none" xmlns="http://www.w3.org/2000/svg">
<path d="M35.9149 12.4632C35.9149 11.6847 35.6118 10.9528 35.0613 10.4025L31.1951 6.53626C30.6446 5.98579 29.9128 5.68267 29.1344 5.68267C28.3559 5.68267 27.6241 5.98579 27.0736 6.53626L25.0881 8.52174L24.5544 7.98642V6.64064C24.5544 5.43821 23.6735 4.43806 22.5232 4.25071V1.83946C22.5232 0.825236 21.698 0 20.6837 0H15.3003C14.286 0 13.4607 0.825236 13.4607 1.83946V4.25571C12.3243 4.4547 11.4575 5.44806 11.4575 6.64064V7.9858L10.9157 8.5276L8.92433 6.53619C8.37386 5.98579 7.64199 5.68259 6.86355 5.68259C6.08511 5.68259 5.35331 5.98572 4.80284 6.53619L0.936662 10.4024C-0.19959 11.5386 -0.19959 13.3874 0.936662 14.5238L2.92799 16.5151L2.43948 17.0036C2.19846 17.2446 2.14159 17.614 2.2987 17.9164L3.17588 19.6037L1.05526 23.3532C0.931115 23.5726 0.92049 23.8385 1.02682 24.0672L5.24558 33.1419C5.37378 33.4175 5.65011 33.5937 5.95402 33.5937H8.90347V35C8.90347 35.4315 9.25332 35.7812 9.68472 35.7812H10.8825V37.1094C10.8825 38.7033 12.1793 40 13.7732 40H22.2107C23.8046 40 25.1013 38.7033 25.1013 37.1094V35.7812H26.2992C26.7306 35.7812 27.0805 35.4315 27.0805 35V33.5937H30.0299C30.3339 33.5937 30.6102 33.4175 30.7384 33.1419L34.9571 24.0672C35.0634 23.8385 35.0528 23.5726 34.9287 23.3532L32.808 19.6039L33.6852 17.9166C33.8421 17.6146 33.7856 17.2457 33.5452 17.0046L33.0636 16.5216L35.0613 14.5239C35.6118 13.9735 35.9149 13.2416 35.9149 12.4632ZM15.0232 1.83946C15.0232 1.68672 15.1475 1.5625 15.3002 1.5625H20.6837C20.8364 1.5625 20.9607 1.68672 20.9607 1.83946V4.21876H15.0232V1.83946ZM13.02 6.64064C13.02 6.16681 13.4055 5.78126 13.8794 5.78126H22.1326C22.6065 5.78126 22.992 6.16681 22.992 6.64064V7.52814H13.02V6.64064ZM2.04159 13.4191C1.51455 12.892 1.51455 12.0344 2.04159 11.5074L5.90777 7.64111C6.16308 7.3858 6.50253 7.24517 6.86355 7.24517C7.22464 7.24517 7.56417 7.3858 7.81941 7.64111L9.81082 9.63244L4.03292 15.4103L2.04159 13.4191ZM8.9034 32.0313H6.4523L2.61307 23.7728L4.03573 21.2576L8.90347 30.6207V32.0313H8.9034ZM23.5388 37.1094C23.5388 37.8418 22.943 38.4376 22.2107 38.4376H13.7732C13.0408 38.4376 12.445 37.8418 12.445 37.1094V35.7813H23.5388V37.1094ZM25.6061 30.0694C25.5483 30.1807 25.518 30.3043 25.518 30.4297V34.2188H24.3201H22.0897C23.3749 33.0581 24.0812 31.4176 24.0955 29.739C24.0962 29.7251 24.0976 29.7113 24.0976 29.6972V23.8477C24.0976 23.4162 23.7477 23.0665 23.3163 23.0665C22.8849 23.0665 22.5351 23.4162 22.5351 23.8477V25.6248C21.3905 24.3558 19.7396 23.6025 17.9987 23.6025C17.9963 23.6025 17.9934 23.6025 17.9909 23.6025C17.5594 23.6031 17.2101 23.9533 17.2107 24.3848C17.2112 24.8159 17.5608 25.1651 17.9919 25.1651C17.9941 25.1651 17.9965 25.1651 17.9988 25.1651C19.5968 25.1651 21.0932 26.018 21.9051 27.3922C23.1761 29.5433 22.4599 32.3274 20.3087 33.5984C19.6659 33.9781 18.9667 34.1791 18.2683 34.2187H17.7329C16.2811 34.1296 14.8966 33.3458 14.1026 32.002C13.3538 30.7345 13.2684 29.1752 13.8743 27.8309C14.0515 27.4376 13.8763 26.9749 13.4829 26.7976C13.0899 26.6204 12.6269 26.7955 12.4497 27.1889C12.4039 27.2905 12.3614 27.3932 12.3214 27.4965L10.1211 21.739C10.3167 21.7755 10.518 21.7955 10.7241 21.7955C12.5334 21.7955 14.0054 20.3236 14.0054 18.5143C14.0054 17.4732 13.5175 16.5446 12.7591 15.9431L18.7823 13.7477C18.7789 13.8032 18.7765 13.8589 18.7765 13.9153C18.7765 15.3823 19.9701 16.5758 21.4371 16.5758C21.8285 16.5758 22.2001 16.4902 22.5351 16.3377V17.7864C22.5351 18.2178 22.885 18.5676 23.3164 18.5676C23.7478 18.5676 24.0976 18.2178 24.0976 17.7864V13.9153C24.0976 12.4483 22.9041 11.2548 21.4371 11.2548C20.9738 11.2548 20.538 11.3741 20.1583 11.5831L9.64598 15.4149C9.64129 15.4166 9.63707 15.4188 9.63246 15.4206C8.35832 15.8715 7.44292 17.0878 7.44292 18.5144C7.44292 18.9805 7.54121 19.4239 7.71722 19.8257L12.2017 31.5597C12.2032 31.5636 12.205 31.5672 12.2065 31.571C12.3432 31.9948 12.5265 32.4062 12.7575 32.7969C13.0788 33.3408 13.4721 33.8163 13.9181 34.2188H11.6639H10.466V30.4297C10.466 30.3043 10.4357 30.1807 10.3779 30.0694L3.94917 17.7038L12.5625 9.09064H23.449L32.0352 17.703L25.6061 30.0694ZM9.0055 18.5144C9.0055 17.5667 9.77652 16.7957 10.7243 16.7957C11.672 16.7957 12.443 17.5667 12.443 18.5144C12.443 19.4621 11.672 20.2332 10.7243 20.2332C9.77644 20.2332 9.0055 19.4621 9.0055 18.5144ZM20.3391 13.9155C20.3391 13.31 20.8317 12.8174 21.4372 12.8174C22.0426 12.8174 22.5352 13.31 22.5352 13.9155C22.5352 14.521 22.0426 15.0135 21.4372 15.0135C20.8317 15.0135 20.3391 14.521 20.3391 13.9155ZM33.3709 23.7728L29.5316 32.0313H27.0805V30.6207L31.9483 21.2576L33.3709 23.7728ZM33.9565 13.419L31.9605 15.415L26.1915 9.6283L28.1787 7.64111C28.434 7.3858 28.7734 7.24517 29.1345 7.24517C29.4955 7.24517 29.8351 7.3858 30.0903 7.64111L33.9566 11.5074C34.2119 11.7627 34.3524 12.1021 34.3524 12.4632C34.3524 12.8242 34.2118 13.1637 33.9565 13.419Z" fill="black"/>
</svg>
