<svg width="80" height="68" viewBox="0 0 80 68" fill="none" xmlns="http://www.w3.org/2000/svg">
<path d="M46.6148 36.6726C46.5476 36.6894 46.2954 36.6894 46.1946 36.6894H37.9912V38.589H46.3122C46.3795 38.589 46.867 38.589 46.9678 38.5722C48.6657 38.4209 49.4389 37.0088 49.4389 35.7648C49.4389 34.5041 48.6321 33.1424 47.0855 32.9912C46.7829 32.9575 46.5308 32.9575 46.4131 32.9575H40.9666C40.7144 32.9575 40.4623 32.9407 40.3614 32.9071C39.9243 32.7894 39.7731 32.4196 39.7731 32.1002C39.7731 31.8144 39.9243 31.4278 40.3782 31.2933C40.5127 31.2597 40.6472 31.2597 40.9498 31.2597H48.8001V29.377H40.8489C40.5127 29.377 40.2606 29.3938 40.0588 29.4106C38.6972 29.5955 37.739 30.705 37.739 32.1002C37.739 33.2433 38.4619 34.5713 40.0252 34.8067C40.311 34.8403 40.7144 34.8403 40.8825 34.8403H46.1946C46.2954 34.8403 46.5308 34.8403 46.5812 34.8571C47.1696 34.9411 47.3881 35.395 47.3881 35.7817C47.3713 36.1683 47.1359 36.5886 46.6148 36.6726Z" fill="black"/>
<path d="M31.099 36.6726C31.0317 36.6894 30.7796 36.6894 30.6787 36.6894H22.4753V38.589H30.7964C30.8636 38.589 31.3511 38.589 31.452 38.5722C33.1498 38.4209 33.9231 37.0088 33.9231 35.7648C33.9231 34.5041 33.1162 33.1424 31.5697 32.9912C31.2671 32.9575 31.0149 32.9575 30.8973 32.9575H25.4507C25.1986 32.9575 24.9464 32.9407 24.8456 32.9071C24.4085 32.7894 24.2572 32.4196 24.2572 32.1002C24.2572 31.8144 24.4085 31.4278 24.8624 31.2933C24.9969 31.2597 25.1313 31.2597 25.4339 31.2597H33.2843V29.377H25.2994C24.9632 29.377 24.7111 29.3938 24.5094 29.4106C23.1477 29.5955 22.1895 30.705 22.1895 32.1002C22.1895 33.2433 22.9124 34.5713 24.4757 34.8067C24.7615 34.8403 25.165 34.8403 25.3331 34.8403H30.6451C30.746 34.8403 30.9813 34.8403 31.0317 34.8571C31.6201 34.9411 31.8386 35.395 31.8386 35.7817C31.8554 36.1683 31.6201 36.5886 31.099 36.6726Z" fill="black"/>
<path d="M18.2055 29.3438H16.1378V38.6566H18.2055V29.3438Z" fill="black"/>
<path d="M11.5823 38.6566V29.3438H9.5146V36.2696L2.65602 29.3438H0V38.6566H2.06766V31.6636L8.97668 38.6566H11.5823Z" fill="black"/>
<path d="M77.9492 29.3438V36.2696L71.0738 29.3438H68.4346V38.6566H70.4854V31.6636L77.4112 38.6566H80V29.3438H77.9492Z" fill="black"/>
<path d="M57.6928 29.3438L51.8764 38.6566H54.3812L55.4234 36.9924H62.1979L63.2402 38.6566H65.7281L59.9117 29.3438H57.6928ZM61.1221 35.2273H56.4656L58.8023 31.4787L61.1221 35.2273Z" fill="black"/>
<path d="M11.4646 24.0483C15.6167 11.9113 27.0981 3.74152 40.0084 3.74152C52.9187 3.74152 64.4001 11.8945 68.5522 24.0315L68.5859 24.1324H77.6802V23.0565L73.8979 22.6194C71.5613 22.3505 71.0738 21.325 70.435 20.0138L70.2837 19.6944C64.8204 8.06175 52.9355 0.530762 40.0084 0.530762C27.0813 0.530762 15.1965 8.06175 9.73315 19.6944L9.58186 20.0138C8.94307 21.3082 8.45557 22.3505 6.11895 22.6194L2.33664 23.0565V24.1492H11.431L11.4646 24.0483Z" fill="black"/>
<path d="M68.6027 43.8508L68.569 43.9517C64.4001 56.0887 52.9355 64.2416 40.0084 64.2416C27.0813 64.2416 15.6167 56.0887 11.4646 43.9348L11.431 43.834H2.33664V44.9267L6.11895 45.3637C8.45557 45.6327 8.94307 46.6581 9.58186 47.9693L9.73315 48.2887C15.1965 59.9382 27.0813 67.4524 40.0084 67.4692C52.9355 67.4692 64.8204 59.9382 70.2837 48.3055L70.435 47.9861C71.0738 46.6917 71.5613 45.6495 73.8979 45.3805L77.6802 44.9435V43.8508H68.6027Z" fill="black"/>
</svg>
