<svg width="41" height="40" viewBox="0 0 41 40" fill="none" xmlns="http://www.w3.org/2000/svg">
<path d="M20.0957 40C9.05404 40 0.0957031 31.0417 0.0957031 20C0.0957031 8.95833 9.05404 0 20.0957 0C31.1374 0 40.0957 8.95833 40.0957 20C40.0957 31.0417 31.1374 40 20.0957 40ZM20.0957 2.5C10.429 2.5 2.5957 10.3333 2.5957 20C2.5957 29.6667 10.429 37.5 20.0957 37.5C29.7624 37.5 37.5957 29.6667 37.5957 20C37.5957 10.3333 29.7624 2.5 20.0957 2.5Z" fill="white"/>
<path d="M29.8457 10.25L22.5957 22.5L17.5957 17.5L29.8457 10.25Z" fill="white"/>
<path d="M10.3467 29.75L22.5967 22.5L17.5967 17.5L10.3467 29.75Z" fill="white"/>
</svg>
