<svg width="80" height="80" viewBox="0 0 80 80" fill="none" xmlns="http://www.w3.org/2000/svg">
<path d="M55.7324 36.8672C58.4628 38.1997 61.0159 39.8682 63.3324 41.8339" stroke="white" stroke-width="6" stroke-linecap="round" stroke-linejoin="round"/>
<path d="M16.666 41.8339C21.6063 37.7033 27.5523 34.9546 33.8993 33.8672" stroke="white" stroke-width="6" stroke-linecap="round" stroke-linejoin="round"/>
<path d="M35.6992 16.8325C42.8406 16.257 50.0247 17.1263 56.8227 19.3885C63.6207 21.6507 69.8932 25.2594 75.2659 29.9991" stroke="white" stroke-width="6" stroke-linecap="round" stroke-linejoin="round"/>
<path d="M4.73242 29.9984C9.35631 25.9113 14.6581 22.6625 20.3991 20.3984" stroke="white" stroke-width="6" stroke-linecap="round" stroke-linejoin="round"/>
<path d="M28.4336 53.7017C31.8176 51.2975 35.8658 50.0059 40.0169 50.0059C44.168 50.0059 48.2163 51.2975 51.6003 53.7017" stroke="white" stroke-width="6" stroke-linecap="round" stroke-linejoin="round"/>
<path d="M40 66.666H40.0333" stroke="white" stroke-width="6" stroke-linecap="round" stroke-linejoin="round"/>
<path d="M3.33398 3.33398L76.6673 76.6673" stroke="white" stroke-width="6" stroke-linecap="round" stroke-linejoin="round"/>
</svg>
