<svg width="16" height="16" viewBox="0 0 16 16" fill="none" xmlns="http://www.w3.org/2000/svg">
<path d="M0.78103 0.000143051C0.626492 0.000114441 0.475417 0.0459175 0.346914 0.131761C0.218412 0.217604 0.118254 0.339629 0.0591114 0.482402C-3.15495e-05 0.625175 -0.0155032 0.782281 0.0146536 0.933847C0.0448104 1.08541 0.119241 1.22463 0.22853 1.33389L14.666 15.7714C14.8126 15.9179 15.0113 16.0002 15.2185 16.0002C15.4258 16.0002 15.6245 15.9179 15.771 15.7714C15.9176 15.6249 15.9999 15.4261 15.9999 15.2189C15.9999 15.0117 15.9176 14.8129 15.771 14.6664L1.33353 0.228893C1.26104 0.156255 1.17492 0.0986538 1.0801 0.0593977C0.985286 0.0201416 0.88365 3.8147e-06 0.78103 0.000143051Z" fill="white"/>
<path d="M15.2186 0.000143051C15.116 3.8147e-06 15.0144 0.0201416 14.9195 0.0593977C14.8247 0.0986538 14.7386 0.156255 14.6661 0.228893L0.228609 14.6664C0.0820768 14.8129 -0.000244141 15.0117 -0.000244141 15.2189C-0.000244141 15.4261 0.0820768 15.6249 0.228609 15.7714C0.375141 15.9179 0.573881 16.0002 0.781109 16.0002C0.988337 16.0002 1.18708 15.9179 1.33361 15.7714L15.7711 1.33389C15.8804 1.22463 15.9548 1.08541 15.985 0.933847C16.0151 0.782281 15.9997 0.625175 15.9405 0.482402C15.8814 0.339629 15.7812 0.217604 15.6527 0.131761C15.5242 0.0459175 15.3731 0.000114441 15.2186 0.000143051Z" fill="white"/>
</svg>
