<svg xmlns="http://www.w3.org/2000/svg" width="120" height="164" viewBox="0 0 120 164"><defs><style>.a{fill:#e4936b;}.b{fill:#333;}.c{fill:#fff;}.d{fill:none;}.e{fill:#8c8c8c;}.f,.g{fill:#fcd8ba;}.g{stroke:#333;stroke-linecap:round;stroke-linejoin:round;stroke-width:3px;}.h{fill:#002f85;}.i{fill:#eaf0f9;}.j{fill:#cce1ff;}</style></defs><g transform="translate(-58 -2343.312)"><g transform="translate(58 2385.313)"><g transform="translate(0 63.682)"><rect class="a" width="117.225" height="13.219" transform="translate(1.387 1.368)"/><path class="b" d="M881.712,487.7H764.487a1.378,1.378,0,0,1-1.388-1.368V473.117a1.378,1.378,0,0,1,1.388-1.368H881.712a1.378,1.378,0,0,1,1.388,1.368v13.219A1.378,1.378,0,0,1,881.712,487.7Zm-115.837-2.736h114.45V474.485H765.875Z" transform="translate(-763.1 -471.749)"/></g><g transform="translate(27.281 40.192)"><g transform="translate(0 13.532)"><path class="c" d="M867.362,465.41l5.213-2.456H803.845l1.4,2.456-5.213,2.456,1.4,2.456-5.213,2.456,1.4,2.456-5.213,2.456h68.729l-1.4-2.456,5.213-2.456-1.4-2.456,5.213-2.456Z" transform="translate(-790.93 -461.502)"/><path class="b" d="M861.1,479.093H792.374a1.467,1.467,0,0,1-1.435-1.131,1.443,1.443,0,0,1,.8-1.63l3.8-1.788-.629-1.105a1.425,1.425,0,0,1-.12-1.148,1.459,1.459,0,0,1,.768-.871l3.795-1.787-.63-1.106a1.434,1.434,0,0,1-.119-1.148,1.454,1.454,0,0,1,.768-.871l3.8-1.787-.63-1.105a1.434,1.434,0,0,1,.013-1.444,1.478,1.478,0,0,1,1.271-.718h68.73a1.467,1.467,0,0,1,1.435,1.131,1.442,1.442,0,0,1-.8,1.629l-3.8,1.789.629,1.105a1.43,1.43,0,0,1,.12,1.148,1.457,1.457,0,0,1-.769.87l-3.795,1.788.63,1.105a1.429,1.429,0,0,1,.12,1.148,1.455,1.455,0,0,1-.768.871l-3.8,1.788.63,1.107a1.43,1.43,0,0,1-.015,1.442A1.474,1.474,0,0,1,861.1,479.093Zm-62.455-2.9H858.59l-.169-.3a1.433,1.433,0,0,1-.119-1.148,1.455,1.455,0,0,1,.768-.87l3.795-1.788-.629-1.1a1.43,1.43,0,0,1-.12-1.148,1.454,1.454,0,0,1,.768-.871l3.795-1.788-.63-1.106a1.434,1.434,0,0,1-.119-1.148,1.461,1.461,0,0,1,.342-.568H806.331l.168.3a1.43,1.43,0,0,1,.12,1.148,1.457,1.457,0,0,1-.768.871l-3.794,1.787.629,1.105a1.434,1.434,0,0,1,.119,1.148,1.455,1.455,0,0,1-.768.871l-3.795,1.788.63,1.1a1.43,1.43,0,0,1,.12,1.148A1.458,1.458,0,0,1,798.648,476.192Z" transform="translate(-790.902 -461.453)"/></g><g transform="translate(25.441 14.983)"><line class="d" x1="0.518" y2="0.658" transform="translate(9.49)"/><g transform="translate(0 2.265)"><path class="e" d="M817.674,475.5a.85.85,0,0,1-.518-.175.825.825,0,0,1-.149-1.169l.96-1.221a.853.853,0,0,1,1.186-.147.825.825,0,0,1,.15,1.169l-.961,1.22A.849.849,0,0,1,817.674,475.5Zm2.881-3.661a.848.848,0,0,1-.517-.175.825.825,0,0,1-.15-1.169l.961-1.22a.853.853,0,0,1,1.186-.148.825.825,0,0,1,.149,1.169l-.96,1.221A.851.851,0,0,1,820.555,471.843Zm2.882-3.66a.852.852,0,0,1-.518-.175.825.825,0,0,1-.149-1.169l.96-1.221a.853.853,0,0,1,1.186-.148.826.826,0,0,1,.15,1.17l-.961,1.22A.848.848,0,0,1,823.437,468.183Z" transform="translate(-816.829 -465.295)"/></g></g><g transform="translate(50.67 14.983)"><line class="d" x1="0.518" y2="0.658" transform="translate(9.491)"/><g transform="translate(0 2.265)"><path class="e" d="M843.385,475.5a.85.85,0,0,1-.518-.175.825.825,0,0,1-.149-1.169l.961-1.22a.852.852,0,0,1,1.186-.147.824.824,0,0,1,.15,1.168l-.962,1.221A.85.85,0,0,1,843.385,475.5Zm2.882-3.66a.847.847,0,0,1-.517-.175.825.825,0,0,1-.15-1.169l.961-1.221a.854.854,0,0,1,1.186-.148.826.826,0,0,1,.149,1.17l-.96,1.221A.851.851,0,0,1,846.267,471.843Zm2.882-3.661a.849.849,0,0,1-.518-.175.825.825,0,0,1-.149-1.169l.96-1.22a.852.852,0,0,1,1.186-.147.825.825,0,0,1,.15,1.169l-.961,1.22A.847.847,0,0,1,849.149,468.182Z" transform="translate(-842.54 -465.295)"/></g></g><g transform="translate(11.865)"><path class="f" d="M869.188,449.619a2.5,2.5,0,0,0-2.766-.419c-2.06.987-5.844,2.622-8.747,2.869-10.76.913-25.557.612-29.767,3.344-11.7,7.591-23,8.612-23.384,9.777s2.883,5.308,13.644,2.139c2.9-.853,8.547-3.212,10.71-2.524,15.148,4.815,29.635,1.649,39.774-2.144,1.941-.726,4.594-1.653,6.768-2.4a2.428,2.428,0,0,0,.875-4.092Z" transform="translate(-803.022 -447.511)"/><path class="b" d="M811.043,469.906c-4.114,0-6.134-1.441-6.956-2.274a2.979,2.979,0,0,1-.99-2.943c.372-1.12,1.52-1.44,4.586-2.3a67.195,67.195,0,0,0,19.389-8.241c3.348-2.172,11.765-2.574,20.676-3,3.314-.158,6.74-.321,9.774-.579,2.68-.227,6.306-1.806,8.229-2.727a4.012,4.012,0,0,1,4.415.663l7.108,6.55a3.83,3.83,0,0,1,1.167,3.65,3.883,3.883,0,0,1-2.563,2.873c-1.969.676-4.736,1.638-6.73,2.385-14.5,5.424-28.21,6.155-40.747,2.169-1.189-.376-5.208.989-7.366,1.724-.923.315-1.776.6-2.473.81A26.844,26.844,0,0,1,811.043,469.906Zm-4.662-4.113c1.1.9,4.312,2.167,11.336.1.664-.2,1.475-.472,2.356-.772,4.159-1.417,7.26-2.369,9.229-1.744,11.889,3.779,24.941,3.065,38.8-2.12,2.025-.757,4.819-1.73,6.8-2.412a.978.978,0,0,0,.654-.732.967.967,0,0,0-.3-.931l-7.107-6.55h0a1,1,0,0,0-1.119-.172c-2.572,1.232-6.268,2.755-9.263,3.009-3.089.262-6.543.426-9.885.586-7.744.368-16.523.787-19.2,2.523a70.8,70.8,0,0,1-20.2,8.608C807.756,465.387,806.969,465.607,806.381,465.793Z" transform="translate(-802.994 -447.462)"/><path class="g" d="M848.793,458.915a89.743,89.743,0,0,1-22.172,3.69s-.758,3.078,2.875,3.893c0,0,17.9,4,34.793-1.894" transform="translate(-803.435 -447.838)"/></g></g><g transform="translate(7.035)"><path class="h" d="M830.3,421.9a4,4,0,0,1,2.432,5.15,4.093,4.093,0,0,1-5.226,2.4c-1.723-.62-4.034-4.29-4.831-5.628a.465.465,0,0,1,.252-.68C824.4,422.622,828.572,421.281,830.3,421.9Z" transform="translate(-771.25 -406.426)"/><g transform="translate(18.58 1.457)"><path class="i" d="M795.05,407.412l-5.846,15.62,5.21,1.621,2.338-6.248,10.156,4.918,3.508-9.372-10.632-2.907.476-2.011Z" transform="translate(-789.204 -407.412)"/></g><path class="b" d="M806.3,424.615l-8.728-4.32-1.8,4.813a1.468,1.468,0,0,1-1.077.922,1.512,1.512,0,0,1-.755-.036l-5.21-1.621a1.473,1.473,0,0,1-.881-.748,1.442,1.442,0,0,1-.06-1.145l5.845-15.621a1.469,1.469,0,0,1,1.078-.921,1.5,1.5,0,0,1,.754.036l5.21,1.621a1.462,1.462,0,0,1,.995,1.72l-.15.633,9.245,2.547a1.483,1.483,0,0,1,.933.738,1.438,1.438,0,0,1,.076,1.174l-3.508,9.372a1.5,1.5,0,0,1-.8.836,1.513,1.513,0,0,1-.271.085A1.493,1.493,0,0,1,806.3,424.615ZM795.921,409.17,791.1,422.053l2.388.744,1.851-4.944a1.465,1.465,0,0,1,.8-.836,1.449,1.449,0,0,1,.272-.085,1.483,1.483,0,0,1,.889.083l8.728,4.32,2.407-6.434-9.061-2.5a1.45,1.45,0,0,1-1.061-1.738l.166-.7Z" transform="translate(-770.596 -405.906)"/><g transform="translate(31.457 4.228)"><path class="j" d="M851.764,420.775l-8.809,22.878-40.628-18.7,6.121-14.672Z" transform="translate(-802.327 -410.278)"/><g transform="translate(11.845 3.65)"><path class="c" d="M814.4,430.784l6.539-16.733L839.9,419.73l-7.015,18.744Z" transform="translate(-814.399 -414.052)"/></g></g><path class="b" d="M842.293,444.918l-40.627-18.7a1.448,1.448,0,0,1-.733-1.871l6.12-14.672a1.472,1.472,0,0,1,1.057-.871,1.507,1.507,0,0,1,.7.02l43.313,10.5a1.48,1.48,0,0,1,.93.745,1.439,1.439,0,0,1,.065,1.178l-8.81,22.879a1.462,1.462,0,0,1-.737.794l-.093.04a1.446,1.446,0,0,1-.241.074A1.5,1.5,0,0,1,842.293,444.918Zm-33-32.944-5.092,12.2,37.916,17.431,7.665-19.9Z" transform="translate(-770.842 -406)"/><path class="b" d="M783.259,433.6a1.487,1.487,0,0,0,.87-.547l2.121-2.78a1.442,1.442,0,0,0-.291-2.041,1.5,1.5,0,0,0-1.2-.259,1.48,1.48,0,0,0-.87.546l-2.122,2.78a1.444,1.444,0,0,0,.292,2.041A1.493,1.493,0,0,0,783.259,433.6Z" transform="translate(-770.479 -406.629)"/><path class="b" d="M776.68,442.3a1.5,1.5,0,0,0,.334-.114,1.425,1.425,0,0,0,.536-.435l3.228-4.228a1.441,1.441,0,0,0-.291-2.04,1.492,1.492,0,0,0-2.07.288L775.188,440a1.428,1.428,0,0,0-.284,1.079,1.445,1.445,0,0,0,.576.96A1.491,1.491,0,0,0,776.68,442.3Z" transform="translate(-770.356 -406.867)"/><path class="b" d="M772.06,448.521a1.487,1.487,0,0,0,.334-.113,1.462,1.462,0,0,0,.536-.435l1.305-1.709a1.444,1.444,0,0,0-.292-2.04,1.492,1.492,0,0,0-2.069.288l-1.305,1.708a1.432,1.432,0,0,0-.285,1.079,1.448,1.448,0,0,0,.576.961A1.494,1.494,0,0,0,772.06,448.521Z" transform="translate(-770.27 -407.154)"/><path class="b" d="M794.96,437.941a1.465,1.465,0,0,0,1.14-1.691l-.782-4.147a1.481,1.481,0,0,0-1.724-1.166h0a1.462,1.462,0,0,0-1.182,1.7l.783,4.147a1.477,1.477,0,0,0,1.723,1.165Z" transform="translate(-770.684 -406.727)"/><path class="b" d="M796.859,448.134a1.528,1.528,0,0,0,.333-.111,1.456,1.456,0,0,0,.807-1.578l-.933-4.942a1.479,1.479,0,0,0-1.723-1.165h0a1.461,1.461,0,0,0-1.182,1.7l.933,4.942a1.479,1.479,0,0,0,1.724,1.164Z" transform="translate(-770.717 -407.035)"/><path class="b" d="M798.224,455.515a1.466,1.466,0,0,0,1.139-1.69l-.4-2.1a1.477,1.477,0,0,0-1.723-1.165h0a1.459,1.459,0,0,0-1.182,1.7l.4,2.1a1.477,1.477,0,0,0,1.723,1.165Z" transform="translate(-770.752 -407.371)"/><path class="b" d="M783.543,454.226a1.488,1.488,0,0,0,.335-.112,1.468,1.468,0,0,0,.775-.905l.6-2.054a1.43,1.43,0,0,0-.125-1.108,1.463,1.463,0,0,0-.882-.7,1.5,1.5,0,0,0-.721-.025,1.464,1.464,0,0,0-1.11,1.017l-.606,2.055a1.434,1.434,0,0,0,.125,1.108,1.467,1.467,0,0,0,.883.7A1.486,1.486,0,0,0,783.543,454.226Z" transform="translate(-770.485 -407.33)"/><path class="b" d="M785.684,446.751a1.535,1.535,0,0,0,.334-.112,1.465,1.465,0,0,0,.775-.905l1.5-5.077a1.428,1.428,0,0,0-.125-1.107,1.465,1.465,0,0,0-.882-.7,1.513,1.513,0,0,0-.723-.025,1.468,1.468,0,0,0-1.11,1.017l-1.5,5.077a1.456,1.456,0,0,0,1.008,1.8A1.5,1.5,0,0,0,785.684,446.751Z" transform="translate(-770.525 -406.985)"/><path class="b" d="M788.731,436.311a1.518,1.518,0,0,0,.336-.113,1.468,1.468,0,0,0,.775-.905l1.021-3.466a1.431,1.431,0,0,0-.125-1.109,1.463,1.463,0,0,0-.883-.7,1.5,1.5,0,0,0-.721-.025,1.466,1.466,0,0,0-1.11,1.017L787,434.48a1.457,1.457,0,0,0,1.008,1.806A1.5,1.5,0,0,0,788.731,436.311Z" transform="translate(-770.582 -406.696)"/><path class="b" d="M832.293,439.769,814.182,431.7c-1.012-.422-1.412-.924-1.191-1.493l6.54-16.732a1.486,1.486,0,0,1,1.809-.87l18.967,5.679a1.473,1.473,0,0,1,.893.746,1.445,1.445,0,0,1,.064,1.152l-7.014,18.744a1.5,1.5,0,0,1-.8.833,1.607,1.607,0,0,1-.279.088A1.482,1.482,0,0,1,832.293,439.769ZM822.1,415.18,816.243,430l15.432,7.357,6.91-18.226Z" transform="translate(-771.069 -406.124)"/><path class="h" d="M830.673,421.922a4.547,4.547,0,0,1,2.681,5.892,4.653,4.653,0,0,1-5.978,2.642c-1.811-.68-4.454-4.477-5.627-6.277a.834.834,0,0,1,.487-1.26C824.326,422.345,828.862,421.242,830.673,421.922Z" transform="translate(-771.232 -406.425)"/></g><g transform="translate(64.196 16.239)"><path class="c" d="M831.916,424.937a.3.3,0,0,1-.242-.122,3.656,3.656,0,0,0-2.869-1.529.3.3,0,0,1-.282-.311.286.286,0,0,1,.316-.278,4.285,4.285,0,0,1,3.32,1.772.293.293,0,0,1-.068.412A.3.3,0,0,1,831.916,424.937Z" transform="translate(-828.523 -422.696)"/></g><g transform="translate(68.045 19.383)"><path class="c" d="M832.873,427.031a.3.3,0,0,1-.294-.245,3.831,3.831,0,0,0-.12-.456.293.293,0,0,1,.2-.369.3.3,0,0,1,.376.193,4.215,4.215,0,0,1,.139.533.3.3,0,0,1-.245.34A.293.293,0,0,1,832.873,427.031Z" transform="translate(-832.445 -425.947)"/></g></g><rect class="d" width="120" height="164" transform="translate(58 2343.313)"/></g></svg>