<svg xmlns="http://www.w3.org/2000/svg" xmlns:xlink="http://www.w3.org/1999/xlink" width="120" height="120" viewBox="0 0 120 120"><defs><style>.a,.g,.i{fill:none;}.a,.c,.d,.e,.f,.g{stroke:#002f85;}.a,.e,.g{stroke-linecap:round;}.a,.e,.f,.g{stroke-linejoin:round;}.a,.e{stroke-width:2px;}.b{clip-path:url(#a);}.c{fill:#eaf0f9;}.d{fill:#d0def4;}.d,.f,.g{stroke-width:3px;}.e{fill:#fff;}.f{fill:#fcd8ba;}.h{fill:#8a1454;}</style><clipPath id="a"><circle class="a" cx="60" cy="60" r="60" transform="translate(0 -0.474)"/></clipPath></defs><g transform="translate(0 0.474)"><g class="b"><ellipse class="c" cx="70.476" cy="63.175" rx="70.476" ry="63.175" transform="translate(-11.585 -17.073)"/><path class="d" d="M45.933,345.508l-.782-70.781H179.528l-.276,70.781Z" transform="translate(-53.666 -200.158)"/><path class="e" d="M97.767,266.515" transform="translate(-29.376 -203.949)"/><path class="f" d="M127.677,298.268l-.009-.016-18.081-32.237,6.917,4.091c.028.016.057.031.086.045a7.553,7.553,0,0,0,6.713-13.533l-19.215-10.563-.051-.025a27.309,27.309,0,0,0-16.426-2.361L68.264,216.143a1.223,1.223,0,0,0-1.7-.3,1.2,1.2,0,0,0-.5.992,5,5,0,0,0-.507.343c-.456.351-.908.707-1.351,1.077a11.4,11.4,0,0,0-2.074,2.029l-8.97,6.95a8.526,8.526,0,0,0-3.941,2.539,1.21,1.21,0,0,0-1.033.158,1.227,1.227,0,0,0-.3,1.706l19.345,27.52a26.755,26.755,0,0,0,.734,24.034h0l7.944,14.64a6.477,6.477,0,0,0,5.7,3.388,6.632,6.632,0,0,0,3.154-.805,6.555,6.555,0,0,0,3.109-3.717,6.546,6.546,0,0,0,10.46-3.653,6.666,6.666,0,0,0,1.491.65,6.506,6.506,0,0,0,4.986-.523,1.286,1.286,0,0,0,.194-.13,6.522,6.522,0,0,0,2.751-3.2l8.418,14.685a6.444,6.444,0,0,0,.555.846l.158.2a6.236,6.236,0,0,0,5.037,2.364h0a6.577,6.577,0,0,0,6.561-6.706A6.238,6.238,0,0,0,127.677,298.268Z" transform="translate(-52.505 -227.443)"/><line class="g" x2="5.149" y2="9.541" transform="translate(30.217 59.716)"/><line class="g" x2="5.149" y2="9.541" transform="translate(40.572 55.777)"/><line class="g" x2="5.149" y2="9.541" transform="translate(49.749 52.262)"/><g transform="translate(16.948 73.208)"><path class="h" d="M133.717,287.335a.912.912,0,0,0-.788.456H132.1a4.768,4.768,0,0,0-1.073-2.586l.586-.586a.909.909,0,1,0-.645-.643l-.586.586a4.742,4.742,0,0,0-2.584-1.073v-.827a.91.91,0,1,0-.911,0v.827a4.742,4.742,0,0,0-2.584,1.073l-.586-.586a.911.911,0,1,0-.645.643l.586.586a4.769,4.769,0,0,0-1.073,2.586h-.826a.911.911,0,1,0,0,.909h.826a4.764,4.764,0,0,0,1.073,2.586l-.586.586a.909.909,0,1,0,.645.643l.586-.586A4.742,4.742,0,0,0,126.891,293v.827a.91.91,0,1,0,.911,0V293a4.742,4.742,0,0,0,2.584-1.073l.586.586a.911.911,0,1,0,.645-.643l-.586-.586A4.764,4.764,0,0,0,132.1,288.7h.826a.91.91,0,1,0,.788-1.365Zm-7.878.683a.8.8,0,1,1,.8-.8A.8.8,0,0,1,125.838,288.017Zm1.963,2.73a.91.91,0,1,1,.909-.909A.91.91,0,0,1,127.8,290.748Zm1.592-3.185a.683.683,0,1,1,.683-.683A.683.683,0,0,1,129.393,287.563Z" transform="translate(-36.031 -270.486)"/><path class="h" d="M129.748,302.36A2.026,2.026,0,0,0,128,303.373h-1.839a10.6,10.6,0,0,0-2.388-5.753l1.3-1.3a2.027,2.027,0,1,0-1.431-1.432l-1.305,1.3a10.579,10.579,0,0,0-5.752-2.387v-1.84a2.026,2.026,0,1,0-2.026,0v1.84a10.584,10.584,0,0,0-5.753,2.387l-1.3-1.3a2.026,2.026,0,1,0-1.432,1.432l1.305,1.3a10.575,10.575,0,0,0-2.388,5.753h-1.839a2.025,2.025,0,1,0,0,2.024h1.839a10.575,10.575,0,0,0,2.388,5.753l-1.305,1.3a2.026,2.026,0,1,0,1.432,1.432l1.3-1.3a10.584,10.584,0,0,0,5.753,2.387v1.84a2.024,2.024,0,1,0,2.026,0v-1.84a10.579,10.579,0,0,0,5.752-2.387l1.305,1.3a2.024,2.024,0,1,0,1.431-1.432l-1.3-1.3a10.6,10.6,0,0,0,2.388-5.753H128a2.025,2.025,0,1,0,1.753-3.037Zm-17.531,1.519a1.772,1.772,0,1,1,1.772-1.771A1.774,1.774,0,0,1,112.217,303.878Zm4.367,6.076a2.025,2.025,0,1,1,2.024-2.026A2.027,2.027,0,0,1,116.584,309.955Zm3.544-7.089a1.519,1.519,0,1,1,1.519-1.519A1.521,1.521,0,0,1,120.129,302.866Z" transform="translate(-45.585 -267.155)"/><path class="h" d="M78.83,296.287a1.087,1.087,0,0,0-.938.542h-.984a5.654,5.654,0,0,0-1.277-3.078l.7-.7a1.083,1.083,0,1,0-.766-.766l-.7.7a5.662,5.662,0,0,0-3.078-1.279v-.984a1.084,1.084,0,1,0-1.083,0v.984a5.662,5.662,0,0,0-3.078,1.279l-.7-.7a1.084,1.084,0,1,0-.766.766l.7.7a5.665,5.665,0,0,0-1.277,3.078h-.984a1.083,1.083,0,1,0,0,1.085h.984a5.67,5.67,0,0,0,1.277,3.078l-.7.7a1.086,1.086,0,1,0,.766.767l.7-.7a5.651,5.651,0,0,0,3.078,1.277v.985a1.084,1.084,0,1,0,1.083,0v-.985a5.651,5.651,0,0,0,3.078-1.277l.7.7a1.083,1.083,0,1,0,.766-.767l-.7-.7a5.659,5.659,0,0,0,1.277-3.078h.984a1.084,1.084,0,1,0,.938-1.627Zm-9.382.813a.948.948,0,1,1,.949-.947A.95.95,0,0,1,69.448,297.1Zm2.337,3.252a1.084,1.084,0,1,1,1.085-1.083A1.084,1.084,0,0,1,71.785,300.352Zm1.9-3.793a.813.813,0,1,1,.813-.813A.814.814,0,0,1,73.682,296.559Z" transform="translate(-62.572 -266.916)"/><g transform="translate(17.154)"><path class="h" d="M97.3,284.526a1.531,1.531,0,0,0-1.326.766H94.581a8.005,8.005,0,0,0-1.807-4.353l.987-.988a1.533,1.533,0,1,0-1.083-1.083l-.988.987a7.994,7.994,0,0,0-4.353-1.807v-1.393a1.533,1.533,0,1,0-1.533,0v1.393a7.994,7.994,0,0,0-4.353,1.807l-.988-.987a1.533,1.533,0,1,0-1.083,1.083l.987.988a8,8,0,0,0-1.807,4.353H77.167a1.533,1.533,0,1,0,0,1.533H78.56a8,8,0,0,0,1.807,4.353l-.987.988a1.533,1.533,0,1,0,1.083,1.083l.988-.987a8.005,8.005,0,0,0,4.353,1.807v1.393a1.533,1.533,0,1,0,1.533,0v-1.393a8.005,8.005,0,0,0,4.353-1.807l.988.987a1.533,1.533,0,1,0,1.083-1.083l-.987-.988a8,8,0,0,0,1.807-4.353h1.393a1.532,1.532,0,1,0,1.326-2.3Zm-13.267,1.149a1.341,1.341,0,1,1,1.34-1.34A1.342,1.342,0,0,1,84.032,285.675Zm3.3,4.6a1.533,1.533,0,1,1,1.533-1.532A1.534,1.534,0,0,1,87.337,290.273Zm2.682-5.364a1.15,1.15,0,1,1,1.15-1.15A1.151,1.151,0,0,1,90.019,284.909Z" transform="translate(-74.308 -273.796)"/></g></g></g><circle class="i" cx="60" cy="60" r="60" transform="translate(0 -0.474)"/></g></svg>