<svg xmlns="http://www.w3.org/2000/svg" width="120" height="164" viewBox="0 0 120 164"><defs><style>.a{fill:none;}.b{fill:#cce1ff;}.c{fill:#eaf0f9;}.d,.e{fill:#333;}.e{stroke:#333;stroke-miterlimit:10;}.f{fill:#ff8d73;}.g{fill:#ef705b;}</style></defs><g transform="translate(-58 -2343.124)"><rect class="a" width="120" height="164" transform="translate(58 2343.124)"/><g transform="translate(83 2343.124)"><g transform="translate(0 91.44)"><g transform="translate(35.254 1.644)"><path class="b" d="M742.264,937.143v44.209l29.6-16.623.776-39.932Z" transform="translate(-742.264 -924.796)"/></g><g transform="translate(5.238 1.598)"><path class="b" d="M734.878,937.132v44.209l-30.016-16.623,0-39.978Z" transform="translate(-704.862 -924.74)"/></g><g transform="translate(1.605 14.28)"><path class="c" d="M700.335,952.645v44.209L734,984.72V940.542Z" transform="translate(-700.335 -940.542)"/></g><g transform="translate(35.272 13.763)"><path class="c" d="M776.731,951.17l-.776,45.557-33.668-12.134L743.1,939.9Z" transform="translate(-742.288 -939.899)"/></g><path class="d" d="M767.275,994.944a1.608,1.608,0,0,1-.543-.095L733.616,982.92,700.483,994.85a1.6,1.6,0,0,1-2.148-1.51V949.131a1.608,1.608,0,0,1,1.063-1.511l2.569-.92V924.352a1.607,1.607,0,0,1,2.229-1.479l29.4,12.434,29.754-12.4a1.606,1.606,0,0,1,2.213,1.485V946l2.251.808a1.609,1.609,0,0,1,1.063,1.51v45.022a1.6,1.6,0,0,1-1.605,1.6Zm-65.73-3.889L731.984,980.1v-40.75L701.545,950.26Zm64.125,0V950.26l-30.42-10.911V980.1Zm-60.492-45.506,24.026-8.613-24.026-10.161Zm57.179-.7V926.785l-24.291,10.161Z" transform="translate(-698.335 -922.748)"/><path class="d" d="M767.78,947.283l-2.517-.9V924.493a1.2,1.2,0,0,0-1.66-1.114L733.7,935.841l-29.556-12.5a1.2,1.2,0,0,0-1.672,1.109V947.08l-2.835,1.016a1.2,1.2,0,0,0-.8,1.133v44.209a1.2,1.2,0,0,0,1.2,1.2,1.191,1.191,0,0,0,.408-.071l33.268-11.977,33.251,11.977a1.2,1.2,0,0,0,1.612-1.132V948.416A1.2,1.2,0,0,0,767.78,947.283Zm-4.924-1.767-25.811-8.445,25.811-10.785Zm-57.981-19.249,25.529,10.8-25.529,9.153Zm-3.632,23.81,31.241-11.2v41.6l-31.241,11.248Zm64.927,41.648-31.222-11.246v-41.6l31.222,11.2Z" transform="translate(-698.434 -922.847)"/><g transform="translate(44.741 46.144)"><g transform="translate(0 0)"><ellipse class="c" cx="4.196" cy="5.235" rx="4.196" ry="5.235" transform="translate(0 3.225) rotate(-22.605)"/></g><g transform="translate(2.179 1.636)"><g transform="translate(0 2.436)"><g transform="translate(0 0)"><ellipse class="d" cx="0.534" cy="0.667" rx="0.534" ry="0.667" transform="translate(0 0.411) rotate(-22.605)"/></g><g transform="translate(1.929 0.352)"><ellipse class="d" cx="0.534" cy="0.667" rx="0.534" ry="0.667" transform="translate(0 0.411) rotate(-22.605)"/></g><g transform="translate(3.858 0.704)"><ellipse class="d" cx="0.534" cy="0.667" rx="0.534" ry="0.667" transform="translate(0 0.411) rotate(-22.605)"/></g><g transform="translate(5.786 1.057)"><ellipse class="d" cx="0.534" cy="0.667" rx="0.534" ry="0.667" transform="translate(0 0.411) rotate(-22.605)"/></g></g><g transform="translate(0 0)"><g transform="translate(0)"><ellipse class="d" cx="0.534" cy="0.667" rx="0.534" ry="0.667" transform="translate(0 0.411) rotate(-22.605)"/></g><g transform="translate(1.929 0.352)"><ellipse class="d" cx="0.534" cy="0.667" rx="0.534" ry="0.667" transform="translate(0 0.411) rotate(-22.605)"/></g><g transform="translate(3.858 0.704)"><ellipse class="d" cx="0.534" cy="0.667" rx="0.534" ry="0.667" transform="translate(0 0.411) rotate(-22.605)"/></g><g transform="translate(5.786 1.057)"><ellipse class="d" cx="0.534" cy="0.667" rx="0.534" ry="0.667" transform="translate(0 0.411) rotate(-22.605)"/></g></g><g transform="translate(0 4.872)"><g transform="translate(0 0)"><ellipse class="d" cx="0.534" cy="0.667" rx="0.534" ry="0.667" transform="translate(0 0.411) rotate(-22.605)"/></g><g transform="translate(1.929 0.352)"><ellipse class="d" cx="0.534" cy="0.667" rx="0.534" ry="0.667" transform="translate(0 0.411) rotate(-22.605)"/></g><g transform="translate(3.858 0.704)"><ellipse class="d" cx="0.534" cy="0.667" rx="0.534" ry="0.667" transform="translate(0 0.411) rotate(-22.605)"/></g><g transform="translate(5.786 1.057)"><ellipse class="d" cx="0.534" cy="0.667" rx="0.534" ry="0.667" transform="translate(0 0.411) rotate(-22.605)"/></g></g><g transform="translate(0 7.308)"><g transform="translate(0 0)"><ellipse class="d" cx="0.534" cy="0.667" rx="0.534" ry="0.667" transform="translate(0 0.411) rotate(-22.605)"/></g><g transform="translate(1.929 0.352)"><ellipse class="d" cx="0.534" cy="0.667" rx="0.534" ry="0.667" transform="translate(0 0.411) rotate(-22.605)"/></g><g transform="translate(3.858 0.704)"><ellipse class="d" cx="0.534" cy="0.667" rx="0.534" ry="0.667" transform="translate(0 0.411) rotate(-22.605)"/></g><g transform="translate(5.786 1.057)"><ellipse class="d" cx="0.534" cy="0.667" rx="0.534" ry="0.667" transform="translate(0 0.411) rotate(-22.605)"/></g></g></g><path class="e" d="M760.093,992.909c-2.8-.51-5.069-3.547-5.069-6.771s2.273-5.43,5.069-4.919,5.07,3.548,5.07,6.771S762.889,993.42,760.093,992.909Zm0-10.064c-2.018-.368-3.659,1.225-3.659,3.551a4.972,4.972,0,0,0,3.659,4.888c2.018.368,3.66-1.225,3.66-3.552A4.972,4.972,0,0,0,760.093,982.845Z" transform="translate(-754.271 -980.425)"/></g><g transform="translate(13.358 46.278)"><g transform="translate(0)"><ellipse class="c" cx="5.165" cy="4.253" rx="5.165" ry="4.253" transform="translate(0 9.732) rotate(-70.418)"/></g><g transform="translate(2.05 1.639)"><g transform="translate(0 2.436)"><g transform="translate(0 0.823)"><ellipse class="d" cx="0.658" cy="0.542" rx="0.658" ry="0.542" transform="translate(0 1.239) rotate(-70.418)"/></g><g transform="translate(1.929 0.549)"><ellipse class="d" cx="0.658" cy="0.542" rx="0.658" ry="0.542" transform="translate(0 1.239) rotate(-70.418)"/></g><g transform="translate(3.858 0.274)"><ellipse class="d" cx="0.658" cy="0.542" rx="0.658" ry="0.542" transform="translate(0 1.239) rotate(-70.418)"/></g><g transform="translate(5.786 0)"><ellipse class="d" cx="0.658" cy="0.542" rx="0.658" ry="0.542" transform="translate(0 1.239) rotate(-70.418)"/></g></g><g transform="translate(0 0)"><g transform="translate(0 0.823)"><ellipse class="d" cx="0.658" cy="0.542" rx="0.658" ry="0.542" transform="translate(0 1.239) rotate(-70.418)"/></g><g transform="translate(1.929 0.549)"><ellipse class="d" cx="0.658" cy="0.542" rx="0.658" ry="0.542" transform="translate(0 1.239) rotate(-70.418)"/></g><g transform="translate(3.858 0.274)"><ellipse class="d" cx="0.658" cy="0.542" rx="0.658" ry="0.542" transform="translate(0 1.239) rotate(-70.418)"/></g><g transform="translate(5.786)"><ellipse class="d" cx="0.658" cy="0.542" rx="0.658" ry="0.542" transform="translate(0 1.239) rotate(-70.418)"/></g></g><g transform="translate(0 4.872)"><g transform="translate(0 0.824)"><ellipse class="d" cx="0.658" cy="0.542" rx="0.658" ry="0.542" transform="translate(0 1.239) rotate(-70.418)"/></g><g transform="translate(1.929 0.549)"><ellipse class="d" cx="0.658" cy="0.542" rx="0.658" ry="0.542" transform="translate(0 1.239) rotate(-70.418)"/></g><g transform="translate(3.858 0.275)"><ellipse class="d" cx="0.658" cy="0.542" rx="0.658" ry="0.542" transform="translate(0 1.239) rotate(-70.418)"/></g><g transform="translate(5.786 0)"><ellipse class="d" cx="0.658" cy="0.542" rx="0.658" ry="0.542" transform="translate(0 1.239) rotate(-70.418)"/></g></g><g transform="translate(0 7.308)"><g transform="translate(0 0.824)"><ellipse class="d" cx="0.658" cy="0.542" rx="0.658" ry="0.542" transform="translate(0 1.239) rotate(-70.418)"/></g><g transform="translate(1.929 0.549)"><ellipse class="d" cx="0.658" cy="0.542" rx="0.658" ry="0.542" transform="translate(0 1.239) rotate(-70.418)"/></g><g transform="translate(3.858 0.274)"><ellipse class="d" cx="0.658" cy="0.542" rx="0.658" ry="0.542" transform="translate(0 1.239) rotate(-70.418)"/></g><g transform="translate(5.786 0)"><ellipse class="d" cx="0.658" cy="0.542" rx="0.658" ry="0.542" transform="translate(0 1.239) rotate(-70.418)"/></g></g></g><path class="e" d="M720.8,992.916c-2.8.4-5.069-1.9-5.069-5.123s2.274-6.169,5.069-6.567,5.07,1.9,5.07,5.123S723.6,992.519,720.8,992.916Zm0-10.064a4.729,4.729,0,0,0-3.659,4.74c0,2.327,1.642,3.986,3.659,3.7a4.73,4.73,0,0,0,3.66-4.74C724.463,984.224,722.821,982.565,720.8,982.852Z" transform="translate(-715.129 -980.566)"/></g></g><g transform="translate(0 0)"><g transform="translate(1.592 1.591)"><path class="f" d="M752.4,862.706h-48.38L726.7,840.028h44.683v48.38H752.4Z" transform="translate(-704.022 -840.028)"/></g><g transform="translate(1.592 1.591)"><path class="g" d="M704.022,862.706H726.7V840.028Z" transform="translate(-704.022 -840.028)"/></g><g transform="translate(1.592 24.269)"><path class="f" d="M752.4,889.762V912.44h-48.38V864.06H752.4Z" transform="translate(-704.022 -864.06)"/></g><g transform="translate(17.608 50.844)"><circle class="c" cx="7.377" cy="7.377" r="7.377"/></g><g transform="translate(19.047 52.226)"><g transform="translate(0 3.571)"><circle class="d" cx="0.939" cy="0.939" r="0.939"/><g transform="translate(3.26)"><circle class="d" cx="0.939" cy="0.939" r="0.939"/></g><g transform="translate(6.519)"><circle class="d" cx="0.939" cy="0.939" r="0.939"/></g><g transform="translate(9.779)"><circle class="d" cx="0.939" cy="0.939" r="0.939"/></g></g><circle class="d" cx="0.939" cy="0.939" r="0.939"/><g transform="translate(3.26)"><circle class="d" cx="0.939" cy="0.939" r="0.939"/></g><g transform="translate(6.519)"><circle class="d" cx="0.939" cy="0.939" r="0.939"/></g><g transform="translate(9.779)"><circle class="d" cx="0.939" cy="0.939" r="0.939"/></g><g transform="translate(0 7.142)"><circle class="d" cx="0.939" cy="0.939" r="0.939"/><g transform="translate(3.26)"><circle class="d" cx="0.939" cy="0.939" r="0.939"/></g><g transform="translate(6.519)"><circle class="d" cx="0.939" cy="0.939" r="0.939"/></g><g transform="translate(9.779)"><circle class="d" cx="0.939" cy="0.939" r="0.939"/></g></g><g transform="translate(0 10.713)"><circle class="d" cx="0.939" cy="0.939" r="0.939"/><g transform="translate(3.26)"><circle class="d" cx="0.939" cy="0.939" r="0.939"/></g><g transform="translate(6.519)"><circle class="d" cx="0.939" cy="0.939" r="0.939"/></g><g transform="translate(9.779)"><circle class="d" cx="0.939" cy="0.939" r="0.939"/></g></g></g><path class="d" d="M728.184,908.414a8.568,8.568,0,1,1,8.568-8.568A8.578,8.578,0,0,1,728.184,908.414Zm0-14.753a6.185,6.185,0,1,0,6.186,6.185A6.192,6.192,0,0,0,728.184,893.661Z" transform="translate(-703.309 -841.324)"/><path class="d" d="M703.858,912.583a1.524,1.524,0,0,1-1.523-1.522V862.583a1.524,1.524,0,0,1,.447-1.077l23.163-23.164h45.412a1.524,1.524,0,0,1,1.522,1.522v48.518a1.524,1.524,0,0,1-1.522,1.522H753.9v21.157a1.524,1.524,0,0,1-1.522,1.522Zm3.023-48.38a1.364,1.364,0,0,0-1.363,1.363v42.471a1.364,1.364,0,0,0,1.363,1.363h42.472a1.364,1.364,0,0,0,1.363-1.363V865.566a1.364,1.364,0,0,0-1.363-1.363Zm61.453,22.519a1.364,1.364,0,0,0,1.363-1.363V842.889a1.365,1.365,0,0,0-1.363-1.363H727.828a1.366,1.366,0,0,0-.963.4l-19.1,19.1h44.606a1.525,1.525,0,0,1,1.522,1.523v24.179Z" transform="translate(-702.335 -838.342)"/></g></g></g></svg>