<svg xmlns="http://www.w3.org/2000/svg" width="120" height="164" viewBox="0 0 120 164"><defs><style>.a,.h{fill:none;}.b{fill:#cce1ff;}.c{fill:#fcd8ba;}.d{fill:#eaaa89;}.e{fill:#ddfffb;}.f{fill:#333;}.g{fill:#ef705b;}.h{stroke:rgba(51,51,51,0.7);stroke-linecap:round;stroke-linejoin:round;}</style></defs><g transform="translate(-58 -2343.313)"><rect class="a" width="120" height="164" transform="translate(58 2343.313)"/><g transform="translate(69 2363.313)"><g transform="translate(40.254 0)"><g transform="translate(14.777)"><path class="b" d="M995.9-283.661v22.771H957.076v-22.771a9.733,9.733,0,0,1,9.707-9.758H986.2A9.732,9.732,0,0,1,995.9-283.661Z" transform="translate(-955.459 330.829)"/><path class="c" d="M990.413-311.783a3.254,3.254,0,0,1,3.235,3.253,3.268,3.268,0,0,1-3.235,3.253h-1.618v-6.506Z" transform="translate(-956.441 331.301)"/><path class="d" d="M991.2-315.508v1.627h-3.236l-11.324-6.506-11.324,6.506h-3.236v-1.627a14.6,14.6,0,0,1,14.56-14.638A14.6,14.6,0,0,1,991.2-315.508Z" transform="translate(-955.614 331.773)"/><path class="c" d="M988.071-312v6.506l-11.324-3.253-11.324,3.253v-8.132l11.324-6.506,11.324,6.506Z" transform="translate(-955.717 331.516)"/><path class="e" d="M976.747-308.444l11.324,3.253a11.355,11.355,0,0,1-11.324,11.385,11.355,11.355,0,0,1-11.324-11.385Z" transform="translate(-955.717 331.215)"/><path class="c" d="M965.268-311.783v6.506h-1.617a3.27,3.27,0,0,1-3.236-3.253,3.254,3.254,0,0,1,3.236-3.253Z" transform="translate(-955.562 331.301)"/><path class="f" d="M986.144-296.033h-1.181a13.042,13.042,0,0,0,4.3-8.132h.113a4.88,4.88,0,0,0,4.853-4.879,4.844,4.844,0,0,0-1.974-3.9,1.6,1.6,0,0,0,.356-.975v-1.627a16.221,16.221,0,0,0-16.177-16.265,16.221,16.221,0,0,0-16.177,16.265v1.627a1.6,1.6,0,0,0,.356.975,4.843,4.843,0,0,0-1.973,3.9,4.88,4.88,0,0,0,4.853,4.879h.113a13.045,13.045,0,0,0,4.3,8.132h-1.18a11.368,11.368,0,0,0-11.324,11.385v22.771a1.622,1.622,0,0,0,1.617,1.627h38.825a1.623,1.623,0,0,0,1.618-1.627v-22.771A11.369,11.369,0,0,0,986.144-296.033ZM991-309.045a1.621,1.621,0,0,1-1.617,1.626v-3.252A1.621,1.621,0,0,1,991-309.045Zm-27.5,1.626a1.622,1.622,0,0,1-1.618-1.626,1.622,1.622,0,0,1,1.618-1.626Zm0-8.132a12.976,12.976,0,0,1,12.941-13.012,12.977,12.977,0,0,1,12.942,13.012H988.2l-10.952-6.294a1.679,1.679,0,0,0-1.617,0l-10.952,6.294Zm3.236,2.57,9.706-5.579,9.707,5.579v5.026l-9.27-2.652a1.6,1.6,0,0,0-.873,0l-9.27,2.652Zm.08,8.392,9.625-2.765,9.625,2.765a9.715,9.715,0,0,1-10.875,8.421A9.733,9.733,0,0,1,966.812-304.589ZM994.232-263.5h-35.59v-21.145a8.11,8.11,0,0,1,8.089-8.132h19.412a8.11,8.11,0,0,1,8.089,8.132Z" transform="translate(-955.407 331.816)"/></g><path class="a" d="M976.771-281.663" transform="translate(-941.292 330.526)"/><path class="a" d="M940.158-245.056" transform="translate(-940.158 329.585)"/><path class="f" d="M940.542-246.361v-14.179H944.5v7.39l24.027-24.162h-7.35v-3.967H975.28V-267.1h-3.956v-7.392L947.3-250.33h7.35v3.977Z" transform="translate(-940.17 330.517)"/></g><g transform="translate(0 51.707)"><path class="g" d="M939.112-230.589v22.771H900.287v-22.771a9.733,9.733,0,0,1,9.707-9.758h19.412A9.732,9.732,0,0,1,939.112-230.589Z" transform="translate(-898.67 277.757)"/><path class="c" d="M933.624-258.711a3.254,3.254,0,0,1,3.235,3.253,3.27,3.27,0,0,1-3.235,3.253h-1.618v-6.506Z" transform="translate(-899.652 278.229)"/><path class="d" d="M934.414-262.436v1.627h-3.236l-11.324-6.506-11.324,6.506H905.3v-1.627a14.6,14.6,0,0,1,14.559-14.639A14.6,14.6,0,0,1,934.414-262.436Z" transform="translate(-898.825 278.701)"/><path class="c" d="M931.282-258.926v6.506l-11.324-3.253-11.324,3.253v-8.132l11.324-6.506,11.324,6.506Z" transform="translate(-898.928 278.444)"/><path class="e" d="M919.958-255.372l11.324,3.253a11.355,11.355,0,0,1-11.324,11.386,11.355,11.355,0,0,1-11.324-11.386Z" transform="translate(-898.928 278.143)"/><path class="c" d="M908.479-258.711v6.506h-1.617a3.27,3.27,0,0,1-3.236-3.253,3.254,3.254,0,0,1,3.236-3.253Z" transform="translate(-898.773 278.229)"/><path class="f" d="M929.355-242.961h-1.181a13.041,13.041,0,0,0,4.3-8.132h.114a4.881,4.881,0,0,0,4.853-4.879,4.844,4.844,0,0,0-1.974-3.9,1.6,1.6,0,0,0,.357-.975v-1.627a16.222,16.222,0,0,0-16.178-16.265,16.221,16.221,0,0,0-16.177,16.265v1.627a1.6,1.6,0,0,0,.356.975,4.843,4.843,0,0,0-1.973,3.9,4.88,4.88,0,0,0,4.853,4.879h.113a13.041,13.041,0,0,0,4.3,8.132h-1.181a11.368,11.368,0,0,0-11.324,11.386V-208.8a1.621,1.621,0,0,0,1.617,1.626h38.825a1.622,1.622,0,0,0,1.618-1.626v-22.771A11.368,11.368,0,0,0,929.355-242.961Zm4.853-13.012a1.621,1.621,0,0,1-1.617,1.626V-257.6A1.622,1.622,0,0,1,934.208-255.973Zm-27.5,1.626a1.621,1.621,0,0,1-1.617-1.626,1.622,1.622,0,0,1,1.617-1.627Zm0-8.132a12.976,12.976,0,0,1,12.941-13.012,12.977,12.977,0,0,1,12.943,13.012h-1.181l-10.952-6.295a1.685,1.685,0,0,0-1.617,0l-10.952,6.295Zm3.236,2.57,9.706-5.579,9.707,5.579v5.025l-9.27-2.651a1.6,1.6,0,0,0-.873,0l-9.27,2.651Zm.08,8.392,9.625-2.765,9.625,2.765A9.716,9.716,0,0,1,918.4-243.1,9.734,9.734,0,0,1,910.023-251.517Zm27.42,41.086H901.854v-21.145a8.111,8.111,0,0,1,8.089-8.132h19.412a8.11,8.11,0,0,1,8.088,8.132Z" transform="translate(-898.618 278.744)"/></g><path class="h" d="M915.37-249.367l4.863-1.057,5.071,1.057" transform="translate(-899.137 329.723)"/><path class="h" d="M925.3-246.362l-5.3,1.051-4.63-1.057" transform="translate(-899.137 329.619)"/><path class="h" d="M971.984-302.445l4.863-1.057,5.071,1.057" transform="translate(-900.89 331.088)"/><path class="h" d="M981.917-299.44l-5.3,1.051-4.63-1.057" transform="translate(-900.89 330.984)"/></g></g></svg>