<svg xmlns="http://www.w3.org/2000/svg" width="120" height="164" viewBox="0 0 120 164"><defs><style>.a,.b{fill:none;}.b{stroke:#126448;stroke-miterlimit:10;stroke-width:3px;}.c{fill:#333;}.d{fill:#bcd861;}.e{fill:#d7e8a0;}.f{fill:#fff;}.g{fill:#e4936b;}.h{fill:#eaaa89;}.i{fill:#002f85;}</style></defs><g transform="translate(-58 -2342.801)"><rect class="a" width="120" height="164" transform="translate(58 2342.801)"/><g transform="translate(65 2344.801)"><g transform="translate(0 0)"><path class="b" d="M495.726,440.791" transform="translate(-409.95 -364.718)"/><path class="b" d="M485.974,440.791" transform="translate(-410.206 -364.718)"/><path class="c" d="M490.939,453.105A12.007,12.007,0,1,1,502.946,441.1,12.008,12.008,0,0,1,490.939,453.105Zm0-20.655a8.648,8.648,0,1,0,8.646,8.65v0a8.657,8.657,0,0,0-8.646-8.647Z" transform="translate(-410.391 -365.025)"/><path class="c" d="M487.217,442.514a1.68,1.68,0,0,1-.009-3.36h7.1a1.68,1.68,0,0,1,0,3.36Z" transform="translate(-410.218 -364.761)"/><g transform="translate(3.917 50.063)"><g transform="translate(1.668 1.862)"><g transform="translate(0 19.687)"><path class="d" d="M420.142,436.915a1.437,1.437,0,0,0-2.5,1.018c-.362,8.7.484,31.4,17.817,42.376,10.27,6.5,10.006-.444,10.006-.444l-.6-15.571Z" transform="translate(-417.586 -436.445)"/><g transform="translate(26.369)"><path class="d" d="M468.6,436.915a1.437,1.437,0,0,1,2.5,1.018c.362,8.7-.484,31.4-17.817,42.376-10.271,6.5-10.006-.444-10.006-.444l.594-15.571Z" transform="translate(-443.28 -436.445)"/></g></g><g transform="translate(17.391)"><path class="e" d="M445.492,418.149a1.292,1.292,0,0,0-2.454,0c-2.616,6.831-8.5,23.736-8.5,37.512a45.579,45.579,0,0,0,9.731,28.594A45.566,45.566,0,0,0,454,455.66c0-13.775-5.888-30.685-8.5-37.512Z" transform="translate(-434.532 -417.261)"/></g></g><g transform="translate(27.14 27.447)"><path class="c" d="M444.058,442.191a1.762,1.762,0,0,0-1.649,1.853v29.9h3.3v-29.9A1.76,1.76,0,0,0,444.058,442.191Z" transform="translate(-442.406 -442.191)"/></g><path class="c" d="M425.992,474.644h4.642l-.057-.061c-10.685-11-11.446-28.113-11.279-34.963l.013-.52,14.07,15.483v.1c-.005.343-.01.686-.01,1.026a49.666,49.666,0,0,0,.768,8.647l-.359.185a58.462,58.462,0,0,1-5.065-8.723,1.7,1.7,0,0,0-.969-.916,1.46,1.46,0,0,0-1.256.122,1.8,1.8,0,0,0-.814,1.084,2.057,2.057,0,0,0,.1,1.415A74.675,74.675,0,0,0,437,474.331l.121.317H440.8l-.055-.125a45.809,45.809,0,0,1-4.08-18.813c0-12.469,4.947-27.606,7.895-35.517l.187-.5.187.5c2.948,7.908,7.895,23.037,7.895,35.517a45.775,45.775,0,0,1-4.08,18.813l-.056.125h3.719l.1-.369.037-.041a73.365,73.365,0,0,0,11.171-16.713,2.046,2.046,0,0,0,.1-1.415,1.8,1.8,0,0,0-.814-1.084,1.464,1.464,0,0,0-1.258-.122,1.708,1.708,0,0,0-.966.914,58.283,58.283,0,0,1-5.065,8.723l-.359-.185a49.461,49.461,0,0,0,.768-8.647c0-.308-.011-1.033-.011-1.033l14.072-15.571.013.522c.506,20.558-7.718,31.3-11.28,34.959l-.057.061H463.5l.29-.377c9.554-12.354,9.941-29.2,9.662-35.87a3.372,3.372,0,0,0-1.95-3.016,2.88,2.88,0,0,0-1.161-.247,2.926,2.926,0,0,0-2.2,1.012L455.808,449.8l-.048-.463c-1.355-12.8-6.243-26.555-8.281-31.872a2.874,2.874,0,0,0-5.485,0c-2.034,5.312-6.91,19.043-8.273,31.8l-.048.46-12.348-13.58a2.927,2.927,0,0,0-2.2-1.012,2.849,2.849,0,0,0-1.161.248,3.372,3.372,0,0,0-1.95,3.016c-.28,6.671.1,23.51,9.662,35.868Z" transform="translate(-415.961 -415.447)"/><g transform="translate(2.645 60.266)"><path class="f" d="M467.684,514.83H418.538V479.96a5.789,5.789,0,0,1,5.79-5.789h36.421a5.788,5.788,0,0,1,5.786,5.6Z" transform="translate(-418.538 -474.171)"/></g><g transform="translate(2.645 93.049)"><path class="g" d="M461,522.477H425.221a6.682,6.682,0,0,1-6.683-6.677v-9.685H467.68v9.677a6.68,6.68,0,0,1-6.675,6.685Z" transform="translate(-418.538 -506.115)"/></g><g transform="translate(0.968 58.587)"><path class="c" d="M461.045,525.036H425.264a8.368,8.368,0,0,1-8.36-8.359V480.895a8.368,8.368,0,0,1,8.36-8.36h35.781a8.367,8.367,0,0,1,8.36,8.36v35.783A8.367,8.367,0,0,1,461.045,525.036Zm-35.781-49.142a5.006,5.006,0,0,0-5,5v35.783a5.008,5.008,0,0,0,5,5h35.781a5.007,5.007,0,0,0,5-5V480.895a5,5,0,0,0-5-5Z" transform="translate(-416.904 -472.535)"/></g><g transform="translate(20.587 84.608)"><rect class="c" width="13.264" height="13.264" rx="2.731"/></g><g transform="translate(40.764 57.502)"><g transform="translate(1.591 1.593)"><circle class="h" cx="25.264" cy="25.264" r="25.264"/></g><path class="c" d="M482.537,471.478a26.856,26.856,0,1,0,26.857,26.855v-.1A26.833,26.833,0,0,0,482.537,471.478Zm0,6.287c-1.979,0-6.13-.323-7.765-1.539a5.281,5.281,0,0,1,1.468-.7,23.959,23.959,0,0,1,12.592,0,5.338,5.338,0,0,1,1.47.7c-1.42,1.059-5.012,1.542-7.765,1.542Zm0,9.43c-4.575,0-12.74-.811-16.054-6.247a23.629,23.629,0,0,1,5.153-3.615c1.184,2.68,6.606,3.632,10.9,3.632s9.715-.951,10.9-3.633a23.744,23.744,0,0,1,5.154,3.619c-3.315,5.437-11.48,6.248-16.055,6.248Zm18.31-3.862a23.514,23.514,0,0,1,3.429,5.611c-4.685,4.956-12.4,7.684-21.739,7.684s-17.054-2.728-21.739-7.684a23.643,23.643,0,0,1,3.429-5.612c4.172,5.838,12.258,7.065,18.31,7.065s14.138-1.225,18.31-7.061Zm5.3,16.346c-6.157,4.174-14.32,6.381-23.61,6.381s-17.453-2.205-23.61-6.381c-.03-.479-.047-.963-.047-1.451a23.5,23.5,0,0,1,.761-5.931c6.789,6.223,16.194,7.531,22.9,7.531s16.112-1.307,22.895-7.533a23.425,23.425,0,0,1,.761,5.933c0,.488-.017.974-.046,1.454Zm-.616,4.138a23.58,23.58,0,0,1-4.158,8.771,60.453,60.453,0,0,1-37.663,0,23.593,23.593,0,0,1-4.16-8.771c6.312,3.562,14.265,5.439,22.994,5.439s16.677-1.874,22.987-5.437Zm-36.7,13.547a66.376,66.376,0,0,0,27.4,0l.077.164a23.53,23.53,0,0,1-27.56,0Z" transform="translate(-455.682 -471.478)"/></g></g><g transform="translate(0 13.27)"><path class="c" d="M428.636,412.577a16.491,16.491,0,1,1,16.49-16.492A16.492,16.492,0,0,1,428.636,412.577Zm0-29.507a13.017,13.017,0,1,0,13.019,13.015,13.017,13.017,0,0,0-13.019-13.015Z" transform="translate(-412.144 -379.595)"/><path class="c" d="M423.319,397.441a1.736,1.736,0,0,1,0-3.473h10.137a1.736,1.736,0,1,1,0,3.473Z" transform="translate(-411.896 -379.218)"/></g><g transform="translate(32.825 19.682)"><circle class="i" cx="10.075" cy="10.075" r="10.075"/></g><g transform="translate(92.098 68.641)"><circle class="i" cx="7.431" cy="7.431" r="7.431"/></g><g transform="translate(50.336)"><circle class="i" cx="3.964" cy="3.964" r="3.964"/></g><g transform="translate(88.899 64.065)"><circle class="i" cx="2.631" cy="2.631" r="2.631"/></g><g transform="translate(54.299 52.541)"><circle class="i" cx="2.182" cy="2.182" r="2.182"/></g><g transform="translate(31.284 11.244)"><circle class="i" cx="3.063" cy="3.063" r="3.063"/></g><g transform="translate(59.483 42.144)"><circle class="i" cx="4.148" cy="4.148" r="4.148"/></g><g transform="translate(89.127 86.966)"><circle class="i" cx="4.148" cy="4.148" r="4.148"/></g></g></g></g></svg>