<?xml version="1.0" encoding="utf-8"?>
<!-- Generator: Adobe Illustrator 25.1.0, SVG Export Plug-In . SVG Version: 6.00 Build 0)  -->
<svg version="1.1" id="Layer_1" xmlns="http://www.w3.org/2000/svg" xmlns:xlink="http://www.w3.org/1999/xlink" x="0px" y="0px"
	 viewBox="0 0 120 164" style="enable-background:new 0 0 120 164;" xml:space="preserve">
<style type="text/css">
	.st0{fill:#5C5C5C;}
	.st1{fill:#333333;}
	.st2{fill:#DCE0E0;}
	.st3{fill:#CCE1FF;}
	.st4{fill:none;stroke:#DCE0E0;stroke-linecap:round;stroke-miterlimit:10;}
	.st5{fill:#6697DD;}
</style>
<g>
	<g>
		<g>
			<polygon class="st0" points="26.9,94.2 5,45.7 107.9,45.7 115,94.2 			"/>
			<path class="st1" d="M115,95.7H26.9c-0.6,0-1.1-0.3-1.4-0.9L3.6,46.3c-0.2-0.5-0.2-1,0.1-1.4C4,44.4,4.5,44.2,5,44.2h102.9
				c0.7,0,1.4,0.5,1.5,1.3l7.2,48.5c0.1,0.4-0.1,0.9-0.3,1.2C115.9,95.5,115.5,95.7,115,95.7z M27.9,92.7h85.4l-6.7-45.5H7.3
				L27.9,92.7z"/>
		</g>
		<g>
			<path class="st2" d="M110.1,92.5c1.2,0,2.1-1,1.9-2.2l-6.5-39.2c-0.2-1.2-1.4-2.2-2.6-2.2H12.3c-1.2,0-1.8,0.9-1.4,2.1l17.2,39.5
				c0.5,1.1,1.9,2.1,3.1,2.1H110.1z"/>
		</g>
		<g>
			<g>
				<polygon class="st1" points="92.6,85.6 87.5,60.4 33.9,60.4 43.7,85.6 				"/>
			</g>
		</g>
		<g>
			<path class="st1" d="M100,84.7c0.1,0.6,0.7,1.1,1.3,1.1h1.1c0.6,0,1-0.5,0.9-1.1l-4.4-25.4c-0.1-0.6-0.7-1.1-1.3-1.1h-1.4
				c-0.6,0-1,0.5-0.9,1.1L100,84.7z"/>
		</g>
		<g>
			<path class="st1" d="M35.8,85.8c0.6,0,0.9-0.5,0.7-1L26,59.2c-0.2-0.6-0.9-1-1.5-1h-1.4c-0.6,0-0.9,0.5-0.7,1l10.8,25.5
				c0.2,0.6,0.9,1,1.5,1H35.8z"/>
		</g>
		<g>
			<g>
				<g>
					<path class="st1" d="M31.2,53.2c-0.6,0-0.9,0.5-0.7,1l0,0c0.2,0.6,0.9,1,1.5,1h55.4c0.6,0,1-0.5,0.9-1c-0.1-0.6-0.7-1-1.3-1
						H31.2z"/>
				</g>
			</g>
		</g>
		<g>
			<g>
				<g>
					<path class="st1" d="M44.5,88.5c-0.6,0-1,0.4-0.8,0.8c0.2,0.5,0.8,0.8,1.4,0.8h49.3c0.6,0,1-0.4,0.9-0.8
						c-0.1-0.5-0.7-0.8-1.3-0.8H44.5z"/>
				</g>
			</g>
		</g>
		<g>
			<polygon class="st3" points="33.2,5.7 24.7,11.9 24.7,45.7 33.2,45.7 			"/>
			<path class="st1" d="M33.2,47.2h-8.5c-0.8,0-1.5-0.7-1.5-1.5V11.9c0-0.5,0.2-0.9,0.6-1.2l8.5-6.2c0.5-0.3,1.1-0.4,1.6-0.1
				c0.5,0.3,0.8,0.8,0.8,1.3v40C34.7,46.5,34,47.2,33.2,47.2z M26.2,44.2h5.5V8.7l-5.5,4V44.2z"/>
		</g>
		<g>
			<polygon class="st3" points="95.5,11.9 87,5.7 87,45.7 95.5,45.7 			"/>
			<path class="st1" d="M95.5,47.2H87c-0.8,0-1.5-0.7-1.5-1.5v-40c0-0.6,0.3-1.1,0.8-1.3c0.5-0.3,1.1-0.2,1.6,0.1l8.5,6.2
				c0.4,0.3,0.6,0.7,0.6,1.2v33.8C97,46.5,96.3,47.2,95.5,47.2z M88.5,44.2H94V12.7l-5.5-4V44.2z"/>
		</g>
		<g>
			<polygon class="st3" points="95.5,11.9 95.5,45.7 99.8,45.7 			"/>
			<path class="st1" d="M99.8,47.2h-4.3c-0.8,0-1.5-0.7-1.5-1.5V11.9c0-0.8,0.6-1.4,1.4-1.5c0.8-0.1,1.5,0.5,1.6,1.3l4.3,33.8
				c0.1,0.4-0.1,0.9-0.4,1.2C100.7,47,100.2,47.2,99.8,47.2z M97,44.2h1.1L97,35.4V44.2z"/>
		</g>
		<g>
			<rect x="33.2" y="5.7" class="st3" width="53.8" height="40"/>
			<path class="st1" d="M87,47.2H33.2c-0.8,0-1.5-0.7-1.5-1.5v-40c0-0.8,0.7-1.5,1.5-1.5H87c0.8,0,1.5,0.7,1.5,1.5v40
				C88.5,46.5,87.8,47.2,87,47.2z M34.7,44.2h50.8v-37H34.7V44.2z"/>
		</g>
		<g>
			<polygon class="st1" points="4.5,41.9 107.9,41.9 107.9,46 4.5,45.6 			"/>
			<path class="st1" d="M107.9,47C107.9,47,107.9,47,107.9,47L4.5,46.6c-0.6,0-1-0.4-1-1v-3.6c0-0.6,0.4-1,1-1l103.4,0
				c0.3,0,0.5,0.1,0.7,0.3s0.3,0.4,0.3,0.7v4c0,0.3-0.1,0.5-0.3,0.7C108.4,46.8,108.1,47,107.9,47z M5.5,44.6l101.4,0.4v-2l-101.4,0
				V44.6z"/>
		</g>
		<g>
			<polygon class="st1" points="115,94.2 107.9,45.7 107.9,41.9 115,90.5 			"/>
			<path class="st1" d="M115,95.2c-0.5,0-0.9-0.4-1-0.9l-7.2-48.5c0,0,0-0.1,0-0.1v-3.8c0-0.5,0.4-1,0.9-1c0.5,0,1,0.3,1.1,0.9
				l7.2,48.5c0,0,0,0.1,0,0.1v3.8C116,94.7,115.6,95.2,115,95.2C115.1,95.2,115.1,95.2,115,95.2z"/>
		</g>
	</g>
	<line class="st4" x1="37.7" y1="63.4" x2="85.4" y2="63.4"/>
	<line class="st4" x1="38.9" y1="66.5" x2="86.1" y2="66.5"/>
	<line class="st4" x1="40" y1="69.7" x2="87.2" y2="69.7"/>
	<line class="st4" x1="41.1" y1="72.9" x2="88.3" y2="72.9"/>
	<line class="st4" x1="42.3" y1="76.1" x2="88.3" y2="76.1"/>
	<line class="st4" x1="43.6" y1="79.3" x2="89.7" y2="79.3"/>
	<line class="st4" x1="44.7" y1="82.5" x2="90.8" y2="82.5"/>
	<polygon class="st1" points="87.5,60.4 92.6,85.6 88.8,85.6 83.6,60.4 	"/>
	<polygon class="st1" points="37.7,60.4 46.9,85.6 43.7,85.6 33.9,60.4 	"/>
	<polygon class="st1" points="95.2,39.3 24.7,39.3 24.7,41.3 95.5,41.3 	"/>
	<g>
		<path class="st5" d="M45.7,109.5c0.2-0.3,0.3-0.7,0.2-1.1c-0.1-0.4-0.3-0.7-0.6-0.9c-0.2-0.2-0.5-0.2-0.8-0.2
			c-0.5,0-0.9,0.2-1.2,0.6c-3,4.4-4.5,8.9-4.5,13.2c0,4.4,1.5,8.8,4.5,13.2c4.8,7.1,4.8,16,0,23.3c-0.2,0.3-0.3,0.7-0.2,1.1
			c0.1,0.4,0.3,0.7,0.6,0.9c0.2,0.1,0.5,0.2,0.8,0.2c0.5,0,0.9-0.2,1.2-0.6c5.5-8.3,5.4-18.4,0-26.4
			C40.4,124.9,40.4,117.3,45.7,109.5z"/>
		<path class="st5" d="M63.1,109.5c0.2-0.3,0.3-0.7,0.2-1.1c-0.1-0.4-0.3-0.7-0.6-0.9c-0.2-0.2-0.5-0.2-0.8-0.2
			c-0.5,0-0.9,0.2-1.2,0.6c-3,4.4-4.5,8.9-4.5,13.2c0,4.4,1.5,8.8,4.5,13.2c4.8,7.1,4.8,16,0,23.3c-0.2,0.3-0.3,0.7-0.2,1.1
			c0.1,0.4,0.3,0.7,0.6,0.9c0.2,0.1,0.5,0.2,0.8,0.2c0.5,0,0.9-0.2,1.2-0.6c5.5-8.3,5.4-18.4,0-26.4
			C57.7,124.9,57.7,117.3,63.1,109.5z"/>
		<path class="st5" d="M80.4,109.5c0.2-0.3,0.3-0.7,0.2-1.1c-0.1-0.4-0.3-0.7-0.6-0.9c-0.2-0.2-0.5-0.2-0.8-0.2
			c-0.5,0-0.9,0.2-1.2,0.6c-3,4.4-4.5,8.9-4.5,13.2c0,4.4,1.5,8.8,4.5,13.2c4.8,7.1,4.8,16,0,23.3c-0.2,0.3-0.3,0.7-0.2,1.1
			c0.1,0.4,0.3,0.7,0.6,0.9c0.2,0.1,0.5,0.2,0.8,0.2c0.5,0,0.9-0.2,1.2-0.6c5.5-8.3,5.4-18.4,0-26.4C75,124.9,75,117.3,80.4,109.5z"
			/>
		<path class="st5" d="M97.7,132.8c-5.3-7.8-5.3-15.4,0-23.3c0.2-0.3,0.3-0.7,0.2-1.1c-0.1-0.4-0.3-0.7-0.6-0.9
			c-0.2-0.2-0.5-0.2-0.8-0.2c-0.5,0-0.9,0.2-1.2,0.6c-3,4.4-4.5,8.9-4.5,13.2c0,4.4,1.5,8.8,4.5,13.2c4.8,7.1,4.8,16,0,23.3
			c-0.2,0.3-0.3,0.7-0.2,1.1c0.1,0.4,0.3,0.7,0.6,0.9c0.2,0.1,0.5,0.2,0.8,0.2c0.5,0,0.9-0.2,1.2-0.6
			C103.1,150.9,103.1,140.8,97.7,132.8z"/>
	</g>
</g>
</svg>
