<svg xmlns="http://www.w3.org/2000/svg" xmlns:xlink="http://www.w3.org/1999/xlink" width="120" height="120" viewBox="0 0 120 120"><defs><style>.a,.j{fill:none;}.a,.c,.d,.e,.f,.g,.h{stroke:#002f85;}.a,.f,.g,.h{stroke-linecap:round;}.a,.e,.f,.g,.h{stroke-linejoin:round;}.a{stroke-width:2.086px;}.b{clip-path:url(#a);}.c{fill:#eaf0f9;}.d{fill:#002f85;}.e{fill:#fcd8ba;}.e,.h{stroke-width:3px;}.f{fill:#f5f9fc;}.f,.g{stroke-width:2.327px;}.g,.h{fill:#fff;}.i{fill:#8a1454;}</style><clipPath id="a"><ellipse class="a" cx="60" cy="60" rx="60" ry="60"/></clipPath></defs><g class="b"><ellipse class="c" cx="70.476" cy="63.175" rx="70.476" ry="63.175" transform="translate(-8.166 -3.175)"/><g transform="translate(110.765 68.776)"><ellipse class="d" cx="6.986" cy="6.986" rx="6.986" ry="6.986"/></g><g transform="translate(67.286 70.43)"><circle class="d" cx="11.004" cy="11.004" r="11.004" transform="translate(0 15.563) rotate(-45)"/></g><g transform="translate(-115.834 -75.724)"><path class="e" d="M83.337,249.8c0-40.691,31.178-71.236,71.872-71.236,39.586,0,62.048,24.753,69.476,68.862.541,3.217-2.5,14.049-2.223,15.537,1.181,6.284,13.441,25.722,13.441,25.722,1.425,2.365.629,5.114-2.342,6.756l-9.661,4.571-.914,5.455c-.276,2.051-3.333,3.72-5.895,4.752l-4.5,1.811a1.942,1.942,0,0,0-.381,3.406c3.236,2.2,6.883,4.359,6.734,5.429-.368,2.66-1.97,1.6-2.586,4.063-2.214,8.861-3.9,15.264-13.229,15.264l-20.524-.74-3.333,40.593L95.808,362.02s13.187-37.383,8.929-50.086C101.32,301.737,83.337,270.72,83.337,249.8Z" transform="translate(-74.774 -168.826)"/><path class="f" d="M224.617,184.924c6.832,13.922.246,25.845-8.122,31.259s-52.428-4.676-52.428-4.676,10.093,16.737,7.139,27.075-14.463,10.379-13.292,26.583c1.991,27.542-13.345-3.8-20.236-2.815-9.311,1.33-6.9,33.4-5.182,40.416s-20.058,18.984-23.787,23.416-10.541-27.435-15.795-35.166A146.43,146.43,0,0,1,81.98,272.558c-4.2-8.9-7.178-35-.861-50.222,5.285-12.729,11.814-15.507,11.814-15.507s1.4-13.345,13.292-20.921c12.656-8.067,32.244-16.984,61.018-13.044,27.382,3.749,40.227,13.406,42.852,13.782C216.987,187.63,224.617,184.924,224.617,184.924Z" transform="translate(-77.479 -171.903)"/><path class="f" d="M83.069,313.949l107.151,42.26-3.061-32.389L95.74,289.837Z" transform="translate(-74.898 -117.459)"/><g transform="translate(42.312 89.06)"><path class="g" d="M132,240.166c-6.4-8.792-15.752-9.037-20.429-4.115s-7.384,16-2.707,22.891,13.373,22.891,19.2,23.876c5.582.943,10.091-1.723,11.322-3.2" transform="translate(-106.427 -232.834)"/><path class="g" d="M116.511,237.85c4.923,4.43,8.872,7.121,7.964,12.377-1.318,7.63,7.3,14.029,3.851,15.014s-14.276-3.2-9.6-7.877" transform="translate(-101.772 -230.518)"/><path class="g" d="M125.466,243.656c-5.749-2.461-10.435-1.6-12.322,1.354" transform="translate(-103.326 -228.501)"/></g><line class="h" y1="6.367" x2="30.184" transform="translate(153.852 135.33)"/><line class="h" x2="25.111" y2="13.738" transform="translate(153.387 153.333)"/><line class="h" x2="13.527" transform="translate(159.179 147.515)"/></g><path class="i" d="M242.865,261.562a2.053,2.053,0,0,0-1.777,1.028h-1.865a10.728,10.728,0,0,0-2.422-5.833l1.323-1.323a2.053,2.053,0,1,0-1.451-1.451l-1.323,1.323a10.726,10.726,0,0,0-5.833-2.421v-1.865a2.054,2.054,0,1,0-2.052,0v1.865a10.726,10.726,0,0,0-5.833,2.421l-1.323-1.323a2.055,2.055,0,1,0-1.451,1.451l1.323,1.323a10.728,10.728,0,0,0-2.422,5.833h-1.865a2.053,2.053,0,1,0,0,2.054h1.865a10.728,10.728,0,0,0,2.422,5.832l-1.323,1.323a2.054,2.054,0,1,0,1.451,1.453l1.323-1.323a10.726,10.726,0,0,0,5.833,2.42v1.865a2.054,2.054,0,1,0,2.052,0v-1.865a10.726,10.726,0,0,0,5.833-2.42l1.323,1.323a2.053,2.053,0,1,0,1.451-1.453l-1.323-1.323a10.728,10.728,0,0,0,2.422-5.832h1.865a2.053,2.053,0,1,0,1.777-3.081ZM225.089,263.1a1.8,1.8,0,1,1,1.8-1.8A1.8,1.8,0,0,1,225.089,263.1Zm4.427,6.161a2.054,2.054,0,1,1,2.054-2.054A2.055,2.055,0,0,1,229.516,269.264Zm3.594-7.187a1.541,1.541,0,1,1,1.541-1.541A1.543,1.543,0,0,1,233.11,262.077Z" transform="translate(-131.184 -212.872)"/><path class="i" d="M230.692,300.871a1.251,1.251,0,0,0-1.083.626h-1.137A6.529,6.529,0,0,0,227,297.941l.805-.805a1.252,1.252,0,1,0-.884-.886l-.805.807a6.543,6.543,0,0,0-3.555-1.476v-1.136a1.251,1.251,0,1,0-1.251,0v1.136a6.543,6.543,0,0,0-3.555,1.476l-.805-.807a1.252,1.252,0,1,0-.886.886l.807.805a6.542,6.542,0,0,0-1.476,3.555h-1.136a1.251,1.251,0,1,0,0,1.251h1.136a6.542,6.542,0,0,0,1.476,3.555l-.807.805a1.251,1.251,0,1,0,.886.884l.805-.805a6.54,6.54,0,0,0,3.555,1.475V309.8a1.251,1.251,0,1,0,1.251,0v-1.137a6.54,6.54,0,0,0,3.555-1.475l.805.805a1.252,1.252,0,1,0,.884-.884L227,306.3a6.529,6.529,0,0,0,1.475-3.555h1.137a1.251,1.251,0,1,0,1.083-1.877Zm-10.832.938a1.095,1.095,0,1,1,1.095-1.095A1.1,1.1,0,0,1,219.86,301.809Zm2.7,3.754a1.251,1.251,0,1,1,1.251-1.251A1.253,1.253,0,0,1,222.558,305.562Zm2.19-4.379a.939.939,0,1,1,.938-.938A.939.939,0,0,1,224.748,301.183Z" transform="translate(-131.248 -192.133)"/></g><ellipse class="j" cx="60" cy="60" rx="60" ry="60"/></svg>