<svg xmlns="http://www.w3.org/2000/svg" xmlns:xlink="http://www.w3.org/1999/xlink" width="120" height="120" viewBox="0 0 120 120"><defs><style>.a{fill:none;}.b{clip-path:url(#a);}.c{fill:#eaf0f9;}.d{fill:#002f85;}.e{fill:#8a1454;}</style><clipPath id="a"><ellipse class="a" cx="60" cy="60" rx="60" ry="60"/></clipPath></defs><g class="b"><ellipse class="c" cx="70.476" cy="63.175" rx="70.476" ry="63.175" transform="translate(-10.476 -3.175)"/><g transform="translate(72.299 82.239)"><ellipse class="d" cx="3.027" cy="3.027" rx="3.027" ry="3.027" transform="matrix(0.925, -0.381, 0.381, 0.925, 0, 2.305)"/></g><g transform="translate(46.08 68.231)"><ellipse class="d" cx="3.027" cy="3.027" rx="3.027" ry="3.027"/></g><g transform="translate(52.135 108.221)"><ellipse class="d" cx="3.027" cy="3.027" rx="3.027" ry="3.027"/></g><g transform="translate(74.748 21.79)"><ellipse class="d" cx="3.027" cy="3.027" rx="3.027" ry="3.027" transform="translate(0 5.977) rotate(-80.807)"/></g><g transform="translate(84.646 53.946)"><ellipse class="d" cx="3.027" cy="3.027" rx="3.027" ry="3.027"/></g><g transform="translate(115.254 47.412)"><ellipse class="d" cx="3.027" cy="3.027" rx="3.027" ry="3.027"/></g><g transform="translate(31.389 28.851)"><ellipse class="d" cx="3.027" cy="3.027" rx="3.027" ry="3.027"/></g><g transform="translate(5.105 31.532)"><ellipse class="d" cx="3.027" cy="3.027" rx="3.027" ry="3.027"/></g><g transform="translate(60 36.46)"><ellipse class="d" cx="3.027" cy="3.027" rx="3.027" ry="3.027"/></g><path class="e" d="M317.858,264.935a1.316,1.316,0,0,0-1.137.656H315.53a6.86,6.86,0,0,0-1.546-3.727l.845-.845a1.313,1.313,0,1,0-.928-.928l-.845.846a6.862,6.862,0,0,0-3.727-1.548V258.2a1.313,1.313,0,1,0-1.312,0v1.191a6.862,6.862,0,0,0-3.727,1.548l-.845-.846a1.313,1.313,0,1,0-.928.928l.845.845a6.861,6.861,0,0,0-1.546,3.727h-1.191a1.313,1.313,0,1,0,0,1.313h1.191a6.856,6.856,0,0,0,1.546,3.727l-.845.845a1.313,1.313,0,1,0,.928.928l.845-.845a6.86,6.86,0,0,0,3.727,1.546V274.3a1.313,1.313,0,1,0,1.312,0v-1.193a6.86,6.86,0,0,0,3.727-1.546l.845.845a1.313,1.313,0,1,0,.928-.928l-.845-.845a6.86,6.86,0,0,0,1.546-3.727h1.191a1.312,1.312,0,1,0,1.137-1.969Zm-11.36.985a1.148,1.148,0,1,1,1.149-1.149A1.151,1.151,0,0,1,306.5,265.92Zm2.83,3.936a1.312,1.312,0,1,1,1.313-1.313A1.313,1.313,0,0,1,309.328,269.856Zm2.3-4.592a.984.984,0,1,1,.984-.985A.985.985,0,0,1,311.624,265.264Z" transform="translate(-246.001 -208.918)"/><path class="e" d="M302.449,290.647a1.43,1.43,0,0,0-1.24.716h-1.3a7.481,7.481,0,0,0-1.688-4.068l.922-.922a1.433,1.433,0,1,0-1.013-1.013l-.922.922a7.49,7.49,0,0,0-4.068-1.688v-1.3a1.432,1.432,0,1,0-1.432,0v1.3a7.485,7.485,0,0,0-4.068,1.688l-.922-.922a1.432,1.432,0,1,0-1.013,1.013l.922.922a7.481,7.481,0,0,0-1.688,4.068h-1.3a1.432,1.432,0,1,0,0,1.431h1.3a7.481,7.481,0,0,0,1.688,4.068l-.922.922a1.432,1.432,0,1,0,1.013,1.013l.922-.922a7.485,7.485,0,0,0,4.068,1.688v1.3a1.432,1.432,0,1,0,1.432,0v-1.3a7.49,7.49,0,0,0,4.068-1.688l.922.922a1.432,1.432,0,1,0,1.013-1.013l-.922-.922a7.481,7.481,0,0,0,1.688-4.068h1.3a1.431,1.431,0,1,0,1.24-2.147Zm-12.4,1.074a1.253,1.253,0,1,1,1.253-1.254A1.254,1.254,0,0,1,290.052,291.722Zm3.088,4.3a1.432,1.432,0,1,1,1.432-1.432A1.433,1.433,0,0,1,293.14,296.018Zm2.507-5.012a1.074,1.074,0,1,1,1.073-1.074A1.075,1.075,0,0,1,295.647,291.006Z" transform="translate(-253.945 -197.437)"/><path class="e" d="M281.316,271.608a.981.981,0,0,0-.848.49h-.889a5.11,5.11,0,0,0-1.153-2.779l.63-.63a.979.979,0,1,0-.691-.693l-.63.63a5.109,5.109,0,0,0-2.779-1.153v-.889a.978.978,0,1,0-.979,0v.889a5.109,5.109,0,0,0-2.779,1.153l-.63-.63a.978.978,0,1,0-.691.693l.63.63a5.109,5.109,0,0,0-1.153,2.779h-.889a.979.979,0,1,0,0,.978h.889a5.109,5.109,0,0,0,1.153,2.78l-.63.63a.978.978,0,1,0,.691.691l.63-.63a5.108,5.108,0,0,0,2.779,1.153v.889a.978.978,0,1,0,.979,0V277.7a5.108,5.108,0,0,0,2.779-1.153l.63.63a.979.979,0,1,0,.691-.691l-.63-.63a5.11,5.11,0,0,0,1.153-2.78h.889a.978.978,0,1,0,.848-1.467Zm-8.47.734a.856.856,0,1,1,.857-.855A.855.855,0,0,1,272.846,272.342Zm2.111,2.935a.978.978,0,1,1,.978-.978A.979.979,0,0,1,274.957,275.277Zm1.712-3.423a.734.734,0,1,1,.734-.734A.735.735,0,0,1,276.668,271.854Z" transform="translate(-260.558 -204.76)"/><path class="e" d="M341.882,255.43a.978.978,0,0,0-.848.488h-.889a5.109,5.109,0,0,0-1.153-2.779l.63-.63a.979.979,0,1,0-.691-.691l-.63.63a5.121,5.121,0,0,0-2.779-1.155v-.887a.978.978,0,1,0-.979,0v.887a5.121,5.121,0,0,0-2.779,1.155l-.63-.63a.979.979,0,1,0-.693.691l.631.63a5.121,5.121,0,0,0-1.155,2.779h-.887a.978.978,0,1,0,0,.979h.887a5.121,5.121,0,0,0,1.155,2.779l-.631.63a.978.978,0,1,0,.693.691l.63-.63a5.108,5.108,0,0,0,2.779,1.153v.889a.978.978,0,1,0,.979,0v-.889a5.109,5.109,0,0,0,2.779-1.153l.63.63a.979.979,0,1,0,.691-.691l-.63-.63a5.109,5.109,0,0,0,1.153-2.779h.889a.978.978,0,1,0,.848-1.467Zm-8.47.734a.857.857,0,1,1,.857-.857A.858.858,0,0,1,333.412,256.164Zm2.111,2.935a.979.979,0,1,1,.978-.979A.979.979,0,0,1,335.523,259.1Zm1.712-3.425a.734.734,0,1,1,.734-.734A.734.734,0,0,1,337.234,255.674Z" transform="translate(-232.598 -212.228)"/><path class="e" d="M343,289.027a.979.979,0,0,0-.848.49h-.889a5.108,5.108,0,0,0-1.153-2.779l.63-.63a.979.979,0,1,0-.691-.693l-.63.63a5.109,5.109,0,0,0-2.779-1.153V284a.979.979,0,1,0-.979,0v.889a5.109,5.109,0,0,0-2.779,1.153l-.63-.63a.979.979,0,1,0-.693.693l.631.63a5.121,5.121,0,0,0-1.155,2.779h-.887a.979.979,0,1,0,0,.978h.887a5.121,5.121,0,0,0,1.155,2.78l-.631.63a.977.977,0,1,0,.693.691l.63-.63a5.11,5.11,0,0,0,2.779,1.153v.889a.978.978,0,1,0,.979,0v-.889a5.109,5.109,0,0,0,2.779-1.153l.63.63a.979.979,0,1,0,.691-.691l-.63-.63a5.108,5.108,0,0,0,1.153-2.78h.889a.978.978,0,1,0,.848-1.467Zm-8.47.734a.856.856,0,1,1,.857-.855A.857.857,0,0,1,334.53,289.761Zm2.111,2.935a.978.978,0,1,1,.978-.978A.979.979,0,0,1,336.641,292.7Zm1.712-3.423a.734.734,0,1,1,.734-.734A.735.735,0,0,1,338.352,289.273Z" transform="translate(-232.082 -196.718)"/><path class="e" d="M291.126,234.921a1.212,1.212,0,0,0-1.051.608h-1.1a6.331,6.331,0,0,0-1.431-3.448l.782-.782a1.214,1.214,0,1,0-.858-.858l-.782.782a6.336,6.336,0,0,0-3.448-1.431v-1.1a1.215,1.215,0,1,0-1.213,0v1.1a6.331,6.331,0,0,0-3.448,1.431l-.782-.782a1.214,1.214,0,1,0-.858.858l.782.782a6.332,6.332,0,0,0-1.431,3.448h-1.1a1.213,1.213,0,1,0,0,1.213h1.1a6.336,6.336,0,0,0,1.431,3.448l-.782.782a1.214,1.214,0,1,0,.858.858l.782-.782a6.342,6.342,0,0,0,3.448,1.431v1.1a1.213,1.213,0,1,0,1.213,0v-1.1a6.346,6.346,0,0,0,3.448-1.431l.782.782a1.214,1.214,0,1,0,.858-.858l-.782-.782a6.336,6.336,0,0,0,1.431-3.448h1.1a1.214,1.214,0,1,0,1.051-1.821Zm-10.508.911a1.062,1.062,0,1,1,1.063-1.061A1.063,1.063,0,0,1,280.618,235.831Zm2.618,3.642a1.214,1.214,0,1,1,1.215-1.215A1.215,1.215,0,0,1,283.236,239.474Zm2.124-4.249a.911.911,0,1,1,.911-.911A.911.911,0,0,1,285.359,235.225Z" transform="translate(-257.66 -222.457)"/><path class="e" d="M336.72,233.685a1.212,1.212,0,0,0-1.049.607h-1.1a6.336,6.336,0,0,0-1.431-3.448l.782-.782a1.214,1.214,0,1,0-.858-.858l-.782.782a6.331,6.331,0,0,0-3.448-1.431v-1.1a1.213,1.213,0,1,0-1.213,0v1.1a6.336,6.336,0,0,0-3.448,1.431l-.782-.782a1.214,1.214,0,1,0-.858.858l.782.782a6.335,6.335,0,0,0-1.431,3.448h-1.1a1.215,1.215,0,1,0,0,1.213h1.1a6.335,6.335,0,0,0,1.431,3.448l-.782.782a1.214,1.214,0,1,0,.858.858l.782-.782a6.336,6.336,0,0,0,3.448,1.431v1.1a1.215,1.215,0,1,0,1.213,0v-1.1a6.331,6.331,0,0,0,3.448-1.431l.782.782a1.214,1.214,0,1,0,.858-.858l-.782-.782a6.336,6.336,0,0,0,1.431-3.448h1.1a1.213,1.213,0,1,0,1.049-1.82Zm-10.506.909a1.062,1.062,0,1,1,1.061-1.061A1.062,1.062,0,0,1,326.213,234.594Zm2.616,3.642a1.214,1.214,0,1,1,1.215-1.215A1.215,1.215,0,0,1,328.83,238.237Zm2.125-4.249a.91.91,0,1,1,.911-.911A.911.911,0,0,1,330.955,233.988Z" transform="translate(-236.612 -223.028)"/><g transform="translate(39.89 11.429)"><ellipse class="d" cx="3.027" cy="3.027" rx="3.027" ry="3.027"/></g><g transform="translate(66.693 98.602)"><ellipse class="d" cx="3.027" cy="3.027" rx="3.027" ry="3.027" transform="translate(0 2.305) rotate(-22.378)"/></g><g transform="translate(101.383 64.892)"><ellipse class="d" cx="3.027" cy="3.027" rx="3.027" ry="3.027"/></g><g transform="translate(33.632 50.989)"><ellipse class="d" cx="3.027" cy="3.027" rx="3.027" ry="3.027"/></g></g><ellipse class="a" cx="60" cy="60" rx="60" ry="60"/></svg>