<svg xmlns="http://www.w3.org/2000/svg" width="194.102" height="77.915" viewBox="0 0 194.102 77.915"><defs><style>.a{fill:#8a1454;}.b{fill:#99acce;}.c{fill:#ccd5e7;}.d{fill:#ffdc64;}.e{fill:#ffeaa2;}.f{fill:#002f85;}.f,.g{fill-rule:evenodd;}.g{fill:#002364;}.h{fill:#542478;}.i{fill:#7030a0;}</style></defs><g transform="translate(-70.383 -75.763)"><g transform="translate(153.108 98.903)"><g transform="translate(0)"><path class="a" d="M360.952,157.82a5.683,5.683,0,0,1,3.828,1.11,3.973,3.973,0,0,1,1.27,3.161,5.828,5.828,0,0,1-.263,1.759,4.1,4.1,0,0,1-.856,1.505,4.034,4.034,0,0,1-1.571,1.054,6.594,6.594,0,0,1-2.408.386h-1.016v4.459H356.3V157.82Zm-.076,2.935h-.941v3.085h.715a2.119,2.119,0,0,0,1.242-.367,1.462,1.462,0,0,0,.527-1.289,1.44,1.44,0,0,0-.376-1.035A1.544,1.544,0,0,0,360.877,160.755Z" transform="translate(-355.684 -157.613)"/><path class="a" d="M401.5,157.82q5.475,0,5.475,3.97a3.7,3.7,0,0,1-.611,2.126A4.738,4.738,0,0,1,404.7,165.4l3.913,5.851H404.49l-2.841-4.891h-.922v4.891H397.1V157.82Zm-.056,2.747h-.715v3.067h.677a2.366,2.366,0,0,0,1.364-.367,1.472,1.472,0,0,0,.536-1.308,1.267,1.267,0,0,0-.442-1.016A2.177,2.177,0,0,0,401.442,160.567Z" transform="translate(-384.585 -157.613)"/><path class="a" d="M452.168,164.015a9.159,9.159,0,0,1-.668,3.641,5.1,5.1,0,0,1-2.117,2.418,7.225,7.225,0,0,1-3.744.865,7.144,7.144,0,0,1-3.707-.865,5.19,5.19,0,0,1-2.135-2.427,9,9,0,0,1-.687-3.65,8.764,8.764,0,0,1,.7-3.631,5.226,5.226,0,0,1,2.135-2.4,8.536,8.536,0,0,1,7.451,0,5.06,5.06,0,0,1,2.107,2.408A9.159,9.159,0,0,1,452.168,164.015Zm-9.238,0a5.491,5.491,0,0,0,.63,2.86,2.634,2.634,0,0,0,4.186,0,5.7,5.7,0,0,0,.6-2.86,5.817,5.817,0,0,0-.6-2.879,2.2,2.2,0,0,0-2.088-1.053,2.247,2.247,0,0,0-2.107,1.053A5.674,5.674,0,0,0,442.93,164.015Z" transform="translate(-414.353 -157.111)"/><path class="a" d="M484.042,175.468a9.034,9.034,0,0,1-1.081-.057q-.461-.056-.8-.132v-2.822q.3.056.63.122a3.631,3.631,0,0,0,.705.066,1.408,1.408,0,0,0,1.327-.593,3.642,3.642,0,0,0,.348-1.8V157.82h3.65v12.116a7.27,7.27,0,0,1-.611,3.246,3.773,3.773,0,0,1-1.684,1.75A5.484,5.484,0,0,1,484.042,175.468Z" transform="translate(-444.854 -157.613)"/><path class="a" d="M522.924,171.253h-7.977V157.82h7.977v2.916h-4.346v2.107H522.6v2.916h-4.026v2.54h4.346Z" transform="translate(-468.083 -157.613)"/><path class="a" d="M555.175,160.147a2.325,2.325,0,0,0-2.013,1.054,5.08,5.08,0,0,0-.733,2.935,4.847,4.847,0,0,0,.724,2.888,2.581,2.581,0,0,0,2.229.988,6.11,6.11,0,0,0,1.721-.245,15.467,15.467,0,0,0,1.684-.6v3.067a8.2,8.2,0,0,1-1.825.574,10.567,10.567,0,0,1-1.976.179,6.666,6.666,0,0,1-3.584-.865,5.148,5.148,0,0,1-2.041-2.418,9.112,9.112,0,0,1-.659-3.584,8.179,8.179,0,0,1,.753-3.593,5.74,5.74,0,0,1,2.211-2.455,6.661,6.661,0,0,1,3.546-.894,9.968,9.968,0,0,1,2.051.226,9.51,9.51,0,0,1,2.107.715l-1.11,2.86a10.713,10.713,0,0,0-1.486-.593A5.342,5.342,0,0,0,555.175,160.147Z" transform="translate(-491.999 -157.156)"/><path class="a" d="M595.816,171.253h-3.631v-10.46h-3.273V157.82H599.09v2.973h-3.274Z" transform="translate(-520.487 -157.613)"/><path class="a" d="M363.583,238.937a4.022,4.022,0,0,1-2.267,3.659,6.4,6.4,0,0,1-3,.612,13.3,13.3,0,0,1-1.608-.085,7.328,7.328,0,0,1-1.289-.273,9.75,9.75,0,0,1-1.241-.489v-3.236a11.355,11.355,0,0,0,2.2.837,7.98,7.98,0,0,0,2.013.292,1.986,1.986,0,0,0,1.185-.282.859.859,0,0,0,.376-.715.957.957,0,0,0-.555-.847q-.555-.32-1.872-.922a10.093,10.093,0,0,1-1.731-.978,3.652,3.652,0,0,1-1.129-1.28,4.06,4.06,0,0,1-.4-1.9,3.58,3.58,0,0,1,.64-2.173,3.874,3.874,0,0,1,1.778-1.317,7.28,7.28,0,0,1,2.643-.442,8.627,8.627,0,0,1,2.371.3,15.521,15.521,0,0,1,1.881.658l-1.11,2.8a11.825,11.825,0,0,0-1.7-.63,5.772,5.772,0,0,0-1.552-.235,1.719,1.719,0,0,0-1.035.245.749.749,0,0,0-.32.621.775.775,0,0,0,.245.564,3.31,3.31,0,0,0,.819.536q.574.292,1.571.743a9.481,9.481,0,0,1,1.665.959,3.5,3.5,0,0,1,1.054,1.223A3.8,3.8,0,0,1,363.583,238.937Z" transform="translate(-354.176 -208.327)"/><path class="a" d="M398.265,243.34l-.658-2.521h-4.365l-.677,2.521h-3.989l4.384-13.49h4.835l4.44,13.49Zm-1.411-5.494-.583-2.2q-.094-.357-.263-1.025t-.339-1.374q-.169-.706-.264-1.176-.094.47-.245,1.138t-.31,1.336q-.16.668-.273,1.1l-.583,2.2Z" transform="translate(-378.548 -208.647)"/><path class="a" d="M443.979,243.477H440.4V230.044h7.939v2.916h-4.365v2.558H448v2.916h-4.026Z" transform="translate(-415.269 -208.784)"/><path class="a" d="M483.168,243.477h-7.977V230.044h7.977v2.916h-4.346v2.107h4.026v2.916h-4.026v2.54h4.346Z" transform="translate(-439.916 -208.784)"/><path class="a" d="M514.834,235.156h5.795V242.4a15.555,15.555,0,0,1-2.389.583,16.816,16.816,0,0,1-2.8.226,7.306,7.306,0,0,1-3.4-.753,5.294,5.294,0,0,1-2.276-2.3,8.256,8.256,0,0,1-.819-3.894,7.76,7.76,0,0,1,.809-3.65,5.589,5.589,0,0,1,2.38-2.38A8.14,8.14,0,0,1,516,229.4a11.294,11.294,0,0,1,2.39.244,10.678,10.678,0,0,1,1.957.6l-1.148,2.841a6.622,6.622,0,0,0-1.505-.536,7.566,7.566,0,0,0-1.674-.179,3.168,3.168,0,0,0-1.938.546,3.067,3.067,0,0,0-1.063,1.449,5.777,5.777,0,0,0-.329,1.994,4.507,4.507,0,0,0,.79,2.869,2.723,2.723,0,0,0,2.258.987q.32,0,.78-.047a6.075,6.075,0,0,0,.706-.1v-2.108h-2.39Z" transform="translate(-463.83 -208.327)"/><path class="a" d="M569.621,230.044v8.09a5.555,5.555,0,0,1-1.448,4.035,7.054,7.054,0,0,1-8.589.076,5.376,5.376,0,0,1-1.458-4.036v-8.165h3.65v7.883a3.209,3.209,0,0,0,.536,2.07,1.933,1.933,0,0,0,1.571.64,1.9,1.9,0,0,0,1.609-.649,3.438,3.438,0,0,0,.5-2.079v-7.864Z" transform="translate(-498.675 -208.784)"/><path class="a" d="M611.316,243.34l-.659-2.521h-4.365l-.677,2.521h-3.989l4.384-13.49h4.835l4.44,13.49Zm-1.411-5.494-.583-2.2q-.094-.357-.263-1.025t-.339-1.374q-.169-.706-.263-1.176-.094.47-.245,1.138t-.31,1.336q-.16.668-.273,1.1l-.583,2.2Z" transform="translate(-529.496 -208.647)"/><path class="a" d="M657.857,230.044q5.474,0,5.474,3.97a3.7,3.7,0,0,1-.611,2.126,4.737,4.737,0,0,1-1.665,1.486l3.913,5.851h-4.12l-2.841-4.891h-.922v4.891h-3.631V230.044Zm-.056,2.747h-.715v3.067h.677a2.366,2.366,0,0,0,1.364-.367,1.472,1.472,0,0,0,.536-1.308,1.268,1.268,0,0,0-.442-1.016A2.178,2.178,0,0,0,657.8,232.791Z" transform="translate(-566.215 -208.784)"/><path class="a" d="M708.55,236.478a7.879,7.879,0,0,1-.875,3.895,5.546,5.546,0,0,1-2.455,2.333,8.4,8.4,0,0,1-3.725.771h-4.346V230.044H701.8a7.01,7.01,0,0,1,4.995,1.656A6.248,6.248,0,0,1,708.55,236.478Zm-3.763.132q0-3.631-2.953-3.631H700.78V240.5h.809a2.93,2.93,0,0,0,2.427-.959A4.637,4.637,0,0,0,704.787,236.61Z" transform="translate(-597.173 -208.784)"/></g></g><g transform="translate(70.383 75.763)"><g transform="translate(62.65 65.712)"><path class="a" d="M296.756,305.532a.761.761,0,0,0-.661.382H295.4a3.992,3.992,0,0,0-.9-2.167l.492-.492a.761.761,0,1,0-.54-.54l-.492.492a3.989,3.989,0,0,0-2.167-.9v-.694a.761.761,0,1,0-.761,0v.69a3.99,3.99,0,0,0-2.167.9l-.492-.492a.762.762,0,1,0-.54.54l.492.492a3.987,3.987,0,0,0-.9,2.167h-.694a.761.761,0,1,0,0,.761h.694a3.991,3.991,0,0,0,.9,2.167l-.492.492a.762.762,0,1,0,.54.54l.492-.492a3.988,3.988,0,0,0,2.167.9v.693a.761.761,0,1,0,.761,0v-.693a3.989,3.989,0,0,0,2.167-.9l.492.492a.762.762,0,1,0,.54-.54l-.492-.492a3.994,3.994,0,0,0,.9-2.167h.694a.761.761,0,1,0,.661-1.146Zm-6.612.573a.668.668,0,1,1,.668-.668h0A.669.669,0,0,1,290.144,306.1Zm1.647,2.291a.761.761,0,1,1,.761-.761h0a.764.764,0,0,1-.761.759Zm1.337-2.673a.573.573,0,1,1,.573-.573.573.573,0,0,1-.573.573Z" transform="translate(-285.309 -300.191)"/></g><g transform="translate(21.824 0)"><path class="a" d="M145.746,79.33a.558.558,0,0,0,.512-.225l.5.056a2.927,2.927,0,0,0,.481,1.65l-.4.319a.557.557,0,1,0,.35.437l.4-.319a2.921,2.921,0,0,0,1.505.83l-.056.5a.558.558,0,1,0,.554.062l.056-.5a2.922,2.922,0,0,0,1.65-.481l.319.4a.558.558,0,1,0,.437-.35l-.319-.4a2.92,2.92,0,0,0,.83-1.5l.5.056a.558.558,0,1,0,.062-.554l-.5-.056a2.923,2.923,0,0,0-.481-1.65l.4-.318a.558.558,0,1,0-.35-.437l-.4.318a2.924,2.924,0,0,0-1.5-.83l.056-.5a.558.558,0,1,0-.554-.062l-.056.5a2.923,2.923,0,0,0-1.65.48l-.318-.4a.558.558,0,1,0-.437.349l.318.4a2.927,2.927,0,0,0-.83,1.5l-.5-.056a.558.558,0,1,0-.574.78Zm4.859.116a.489.489,0,1,1-.54.433h0A.49.49,0,0,1,150.6,79.447Zm-1.014-1.8a.558.558,0,1,1-.616.493h0a.56.56,0,0,1,.615-.491ZM148.4,79.484a.42.42,0,1,1-.464.371.42.42,0,0,1,.464-.371Z" transform="translate(-145.252 -74.763)"/></g><path class="b" d="M94.452,107.188c-.8,2.5-1.655,4.969-2.273,7.471a30.844,30.844,0,0,0-.967,7.575,30.385,30.385,0,0,0,1.059,7.565,76.885,76.885,0,0,0,2.484,7.388,32.688,32.688,0,0,1-3.508-7.079,24.033,24.033,0,0,1-1.4-7.865,24.37,24.37,0,0,1,1.313-7.881A38.44,38.44,0,0,1,94.452,107.188Z" transform="translate(-84.171 -97.736)"/><path class="c" d="M110.648,127.552c-.152,1.313-.35,2.578-.508,3.842s-.3,2.515-.38,3.767a34.324,34.324,0,0,0-.058,3.754,23.513,23.513,0,0,0,.466,3.795,9.226,9.226,0,0,1-1.534-3.66,15.018,15.018,0,0,1-.239-3.979,18.321,18.321,0,0,1,.7-3.9A15.231,15.231,0,0,1,110.648,127.552Z" transform="translate(-97.287 -112.164)"/><path class="b" d="M249.037,236.443a31.669,31.669,0,0,0,2.925-2.751c.92-.963,1.782-1.975,2.6-3.013a44.71,44.71,0,0,0,4.3-6.647c.611-1.169,1.19-2.358,1.695-3.58.274-.6.488-1.229.742-1.841l.334-.936c.117-.31.23-.622.328-.939a73.327,73.327,0,0,0,2.048-7.755,33.077,33.077,0,0,1-1.022,8.054c-.15.665-.358,1.314-.547,1.97-.22.645-.423,1.3-.678,1.931a33.393,33.393,0,0,1-1.689,3.734,32.006,32.006,0,0,1-4.7,6.7,28.787,28.787,0,0,1-2.96,2.815A19.249,19.249,0,0,1,249.037,236.443Z" transform="translate(-196.96 -169.857)"/><path class="c" d="M298.511,242.985c.266-1.218.595-2.381.91-3.542l.949-3.464.935-3.47c.32-1.162.636-2.33,1.046-3.508a16.681,16.681,0,0,1,.013,3.7,22.326,22.326,0,0,1-.673,3.634,21.9,21.9,0,0,1-1.264,3.476A15.826,15.826,0,0,1,298.511,242.985Z" transform="translate(-232.012 -184.04)"/><path class="d" d="M286.489,106.288a.852.852,0,0,1-.655-.7c-.2-1.415-.732-5.156-1.027-7.233a.207.207,0,0,0-.41,0l-1.027,7.232a.85.85,0,0,1-.652.7l-3.843.923a.205.205,0,0,0,0,.4l3.843.922a.85.85,0,0,1,.652.7l1.024,7.211a.21.21,0,0,0,.416,0l1.024-7.211a.85.85,0,0,1,.652-.7l3.84-.922a.207.207,0,0,0,0-.4Z" transform="translate(-217.988 -91.352)"/><path class="d" d="M112.318,251.222a.836.836,0,0,1-.642-.687c-.2-1.388-.718-4.18-1.007-6.217a.2.2,0,0,0-.4,0l-1.007,6.216a.833.833,0,0,1-.64.687l-3.768.9a.2.2,0,0,0,0,.392l3.768.9a.833.833,0,0,1,.64.687l1,6.2a.206.206,0,0,0,.408,0l1-6.2a.833.833,0,0,1,.64-.687l3.766-.9a.2.2,0,0,0,0-.394Z" transform="translate(-94.695 -194.77)"/><path class="e" d="M317.418,154.021a.405.405,0,0,1-.308-.335l-.46-3.29a.121.121,0,0,0-.24,0l-.46,3.288a.4.4,0,0,1-.307.335l-1.719.419a.121.121,0,0,0,0,.235l1.719.419a.4.4,0,0,1,.307.335l.46,3.287a.122.122,0,0,0,.241,0l.46-3.288a.4.4,0,0,1,.307-.335l1.719-.419a.121.121,0,0,0,0-.236Z" transform="translate(-242.867 -128.276)"/><path class="e" d="M73.97,228.567a.405.405,0,0,1-.308-.336l-.46-3.29a.121.121,0,0,0-.24,0l-.46,3.287a.4.4,0,0,1-.307.335l-1.719.419a.121.121,0,0,0,0,.235l1.719.419a.4.4,0,0,1,.307.335l.46,3.287a.121.121,0,0,0,.24,0l.46-3.287a.4.4,0,0,1,.307-.335l1.719-.419a.121.121,0,0,0,0-.236Z" transform="translate(-70.383 -181.092)"/><g transform="translate(18.402 13.309)"><path class="f" d="M170.728,149.181a32.294,32.294,0,0,1-7.2,12.938,31.818,31.818,0,0,1-8.065,6.445,31.823,31.823,0,0,1-8.069-6.449,32.284,32.284,0,0,1-7.289-13.271,31.5,31.5,0,0,1-.851-4.122,57.359,57.359,0,0,1-.324-7.5s0-4-.005-4.771a42.959,42.959,0,0,0,15.866-5.331l.041-.024q.309-.177.631-.364c.216.126.429.247.636.366l.028.016a43.1,43.1,0,0,0,11.151,4.453l4.079-4.079a5.761,5.761,0,0,1,.593-.517,37.4,37.4,0,0,1-13.13-4.557,20.207,20.207,0,0,1-3.037-1.989h-.64a20.23,20.23,0,0,1-3.036,1.989,37.451,37.451,0,0,1-14.509,4.74c-1.11.127-2.226.168-3.339.24-.7.05-.752.083-.752.811q0,4.5.007,9.02a62.074,62.074,0,0,0,.372,8.218,37.2,37.2,0,0,0,1,4.837,38.055,38.055,0,0,0,20.262,24.242.891.891,0,0,0,.638,0,38.057,38.057,0,0,0,20.263-24.242,37.343,37.343,0,0,0,1-4.837c.127-.945.209-1.892.264-2.839Z" transform="translate(-133.511 -120.422)"/><g transform="translate(21.956)"><path class="g" d="M209.469,127.095l.028.016a43.1,43.1,0,0,0,11.151,4.453l4.079-4.079a5.763,5.763,0,0,1,.593-.517,37.4,37.4,0,0,1-13.13-4.557,20.208,20.208,0,0,1-3.037-1.989h-.32v6.307h0C209.049,126.854,209.262,126.976,209.469,127.095Z" transform="translate(-208.833 -120.422)"/><path class="g" d="M224.094,203.088a32.294,32.294,0,0,1-7.2,12.938,31.818,31.818,0,0,1-8.065,6.445h0v6.014a.54.54,0,0,0,.319-.059,38.057,38.057,0,0,0,20.263-24.242,37.347,37.347,0,0,0,1-4.837c.127-.945.209-1.891.264-2.839Z" transform="translate(-208.833 -174.328)"/></g><path class="h" d="M178.34,170.967a1.625,1.625,0,0,1-2.3,0l-6.606-6.607a1.625,1.625,0,0,0-2.3,0l-2.489,2.489a1.625,1.625,0,0,0,0,2.3L172.4,176.9l3.638,3.638a1.624,1.624,0,0,0,2.3,0l3.638-3.638,18.766-18.766a1.624,1.624,0,0,0,0-2.3l-2.489-2.489a1.625,1.625,0,0,0-2.3,0Z" transform="translate(-155.235 -143.414)"/><path class="i" d="M177.134,198.2a1.621,1.621,0,0,1-1.092-.473l-6.606-6.607a1.625,1.625,0,0,0-2.3,0l-2.489,2.489a1.625,1.625,0,0,0,0,2.3l7.755,7.755,3.638,3.638a1.62,1.62,0,0,0,1.092.473Z" transform="translate(-155.235 -170.176)"/></g></g></g></svg>