<svg xmlns="http://www.w3.org/2000/svg" width="216.974" height="125.253" viewBox="0 0 216.974 125.253"><defs><style>.a{fill:#321c5a;}.b,.d{fill:#d1141b;}.b{stroke:#d1141b;stroke-miterlimit:10;stroke-width:0.813px;}.c{fill:#060707;}.d{fill-rule:evenodd;}</style></defs><g transform="translate(-139.813 -105.871)"><g transform="translate(139.813 170.441)"><g transform="translate(0 0)"><path class="a" d="M149.186,280.77h2.782v-8.926h9.43V269.22h-9.43v-6.473h10.126v-2.626H149.186Z" transform="translate(-142.861 -220.61)"/><path class="a" d="M192.055,273.385a7.829,7.829,0,0,1-1.565,2.609,7.588,7.588,0,0,1-2.441,1.764,7.665,7.665,0,0,1-8.815-1.764,7.718,7.718,0,0,1-1.565-2.609,9.463,9.463,0,0,1,0-6.385,7.686,7.686,0,0,1,1.565-2.609,7.672,7.672,0,0,1,11.256,0A7.8,7.8,0,0,1,192.055,267a9.529,9.529,0,0,1,0,6.385m.507-10.92a10.051,10.051,0,0,0-3.376-2.288,11.646,11.646,0,0,0-8.646,0,10.066,10.066,0,0,0-3.38,2.288,10.585,10.585,0,0,0-2.2,3.441,11.866,11.866,0,0,0,0,8.575,10.544,10.544,0,0,0,2.2,3.438,9.94,9.94,0,0,0,3.38,2.288,11.612,11.612,0,0,0,8.646,0,9.926,9.926,0,0,0,3.376-2.288,10.673,10.673,0,0,0,2.207-3.438,11.97,11.97,0,0,0,0-8.575,10.714,10.714,0,0,0-2.207-3.441" transform="translate(-150.984 -220.358)"/><path class="a" d="M226.559,272.778a8.218,8.218,0,0,1-.26,2,5.851,5.851,0,0,1-.868,1.91,4.8,4.8,0,0,1-1.6,1.43,5.63,5.63,0,0,1-4.87,0,4.757,4.757,0,0,1-1.6-1.43,5.859,5.859,0,0,1-.872-1.91,8.218,8.218,0,0,1-.26-2V260.124h-2.782v13.091a8.585,8.585,0,0,0,.605,3.281,7.818,7.818,0,0,0,1.684,2.549,7.317,7.317,0,0,0,2.521,1.663,8.692,8.692,0,0,0,6.266,0,7.334,7.334,0,0,0,2.525-1.663,7.765,7.765,0,0,0,1.684-2.549,8.459,8.459,0,0,0,.608-3.281V260.124h-2.785Z" transform="translate(-163.763 -220.611)"/><path class="a" d="M261.486,277.094h-.061l-11.309-16.971h-3.654v20.648h2.782V263.8h.061l11.424,16.971h3.542V260.124h-2.785Z" transform="translate(-174.5 -220.611)"/><path class="a" d="M296.482,273.816a6.938,6.938,0,0,1-1.886,2.4,8.114,8.114,0,0,1-2.771,1.447,11.414,11.414,0,0,1-3.349.48h-3.509v-15.4h4.177a8.589,8.589,0,0,1,4.059.831,7.156,7.156,0,0,1,2.454,2.025,6.98,6.98,0,0,1,1.2,2.524,10.037,10.037,0,0,1,.318,2.316,7.639,7.639,0,0,1-.7,3.37m2.785-7.743A10.024,10.024,0,0,0,298,263.858a8.311,8.311,0,0,0-2-1.913,10.006,10.006,0,0,0-2.839-1.322,12.954,12.954,0,0,0-3.812-.5h-7.165v20.641h6.7a12.588,12.588,0,0,0,4.857-.872,10.588,10.588,0,0,0,3.525-2.322,9.779,9.779,0,0,0,2.146-3.292,10.507,10.507,0,0,0,.723-3.836,11.764,11.764,0,0,0-.2-2.1,11.217,11.217,0,0,0-.666-2.275" transform="translate(-186.119 -220.612)"/><path class="a" d="M319.31,273.215l3.884-9.478h.061l3.829,9.478Zm2.782-13.09-9.048,20.645h3.248l2.032-5.1H328.1l2.059,5.1h3.248l-8.788-20.645Z" transform="translate(-196.156 -220.611)"/><path class="a" d="M341.977,262.749h6.611v18.019h2.785V262.749h6.615v-2.623H341.977Z" transform="translate(-205.566 -220.612)"/><rect class="a" width="2.782" height="20.648" transform="translate(156.86 39.511)"/><path class="a" d="M402.425,273.385a7.783,7.783,0,0,1-1.569,2.609,7.664,7.664,0,0,1-11.252,0,7.719,7.719,0,0,1-1.565-2.609,9.464,9.464,0,0,1,0-6.385,7.686,7.686,0,0,1,1.565-2.609,7.664,7.664,0,0,1,11.252,0A7.75,7.75,0,0,1,402.425,267a9.529,9.529,0,0,1,0,6.385m.507-10.92a10.072,10.072,0,0,0-3.38-2.288,11.631,11.631,0,0,0-8.64,0,10.012,10.012,0,0,0-3.38,2.288,10.56,10.56,0,0,0-2.2,3.441,11.876,11.876,0,0,0,0,8.575,10.52,10.52,0,0,0,2.2,3.438,9.888,9.888,0,0,0,3.38,2.288,11.6,11.6,0,0,0,8.64,0,9.946,9.946,0,0,0,3.38-2.288,10.615,10.615,0,0,0,2.207-3.438,11.97,11.97,0,0,0,0-8.575,10.656,10.656,0,0,0-2.207-3.441" transform="translate(-219.405 -220.358)"/><path class="a" d="M439.4,277.095h-.061l-11.309-16.971h-3.654v20.648h2.782V263.8h.061l11.424,16.974h3.542V260.124H439.4Z" transform="translate(-232.366 -220.611)"/><path class="a" d="M295.67,218.652c1.072-3.484,2.586-8.321,3.488-11.16h.126c.862,2.711,2.406,8.406,3.312,11.16Zm9.254,10.559-2.271.007v1.518h12.06v-1.518c-2.136-.091-2.762-.25-3.316-2.011-1.829-5.669-5.932-17.863-8.2-24.805h-4.336c-2.535,7.679-6.335,18.735-8.7,24.531-.841,2.072-1.028,2.16-3.39,2.285v1.518h9.345v-1.518l-2.44-.054c-.943-.135-1.021-.791-.757-1.625.584-1.883,1.341-4.536,2.152-7.03H303.2c.514,1.514,1.808,5,2.488,7.246.345.9.176,1.372-.764,1.457" transform="translate(-187.61 -201.837)"/><path class="a" d="M163.915,202.651h-24.1V210.2h1.5c1.2-4.229,1.758-5.777,5.7-5.777h2.007v22.5c0,1.548-.26,2.113-1.764,2.248l-2.47.172v1.467h14.152v-1.467l-2.606-.172c-1.588-.135-1.8-.7-1.8-2.248v-22.5h2.177c3.955,0,4.509,1.548,5.708,5.777h1.5Z" transform="translate(-139.813 -201.918)"/><path class="a" d="M188.155,206.575v20.317c0,2.1-.257,2.281-3.3,2.407v1.518H207.2l.209-7.872h-1.26c-1.332,4.449-2.694,6.1-7.551,6.1-4.593,0-4.9-.476-4.9-3.1v-8.8h4.624c2.748,0,3.214.71,3.772,3.6H203.6v-9.244H202.1c-.558,2.846-1.024,3.708-3.772,3.708H193.7v-9.308c0-1.217.264-1.464,1.426-1.464h3.623c4.3,0,4.931,1.464,6,5.509h1.406v-7.287H184.809v1.47c3.045.129,3.346.308,3.346,2.454" transform="translate(-154.448 -201.918)"/><path class="a" d="M245.888,222.228h-.128c-1.8-4.536-5.482-14.1-7.639-19.583H228.005v1.477c3.049.173,3.3.335,3.3,2.451v14.361a52.753,52.753,0,0,1-.21,6.077c-.256,2.245-.919,2.072-3.062,2.282v1.521h9.673v-1.521c-2.275-.21-3.623.219-3.88-2.167a50.368,50.368,0,0,1-.217-6.074V206.691l-.024-.118c2.18,5.519,6.973,16.707,9.552,23.771H245.2c1.582-4.393,6.831-17.39,9.207-23.771h.125v20.27c0,2.16-.311,2.329-3.309,2.451v1.521h11.938v-1.521c-3-.166-3.376-.494-3.376-2.653V206.374c0-2.119.531-2.126,3.529-2.252v-1.477h-9.6c-2.19,5.874-5.5,13.584-7.818,19.583" transform="translate(-168.497 -201.916)"/><path class="a" d="M344.911,229.382c-3.3,0-6.047-2.843-7.5-7.845h-1.467l.518,7.236c2.017,1.812,5.7,2.376,8.45,2.376,7.892,0,10.461-4.448,10.461-8.714,0-5.385-3.684-7.067-7.76-8.795-3.042-1.386-6-2.633-6-5.773a4.21,4.21,0,0,1,4.421-4.489c2.825,0,5.141,1.944,6.171,6.551h1.457V203.38a15.558,15.558,0,0,0-7.547-1.815c-6.524,0-9.913,3.408-9.856,8.447.044,4.546,3.782,6.737,8.369,8.67,3.515,1.47,5.432,3.245,5.432,5.965,0,3.147-2.279,4.735-5.144,4.735" transform="translate(-203.604 -201.565)"/><path class="a" d="M399.346,222.615h-1.5c-1.325,4.442-2.407,6.426-7.25,6.426-4.583,0-4.884-.476-4.884-3.1v-8.8h4.076c2.735,0,3.221.99,3.775,3.883h1.494v-9.535h-1.494c-.554,2.85-1.04,3.712-3.775,3.712h-4.076v-9.309c0-1.217.257-1.467,1.413-1.467h3.089c4.289,0,5.063,1.5,6.138,5.553h1.494v-7.331H376.312v1.474c3.052.129,3.309.3,3.309,2.454v20.317c0,2.1-.257,2.281-3.309,2.407v1.518h22.351Z" transform="translate(-216.733 -201.917)"/><path class="a" d="M441.608,206.1a8.619,8.619,0,0,1,5.506-2.022v-1.433H436.477v1.433l1.815.217c.578.1.656.513.054,1.244-2.041,2.63-6.073,6.973-9.234,10.2v-9.17c0-2.15.26-2.325,3.309-2.454v-1.474h-12.33v1.474c3.045.129,3.3.338,3.3,2.454v20.266c0,2.116-.257,2.288-3.3,2.457v1.518h12.34V229.3c-3.049-.169-3.319-.3-3.319-2.457v-9.9c1.152,1.832,4.219,6.655,6.034,9.035,2.616,3.619,4.472,4.88,8.984,5.005l2.737.091.084-1.47a8.267,8.267,0,0,1-3.688-2.589,104.593,104.593,0,0,1-9.65-13.195,72.3,72.3,0,0,1,7.994-7.717" transform="translate(-230.972 -201.916)"/></g></g><g transform="translate(140.289 105.871)"><g transform="translate(25.813 16.023)"><path class="b" d="M182.687,144.237a2.922,2.922,0,0,0,.818,1.067,3.368,3.368,0,0,0,1.2.605,5.1,5.1,0,0,0,1.422.2,6.691,6.691,0,0,0,1.067-.092,3.43,3.43,0,0,0,1.067-.356,2.378,2.378,0,0,0,.83-.724,1.956,1.956,0,0,0,.332-1.172,1.751,1.751,0,0,0-.439-1.238,3.45,3.45,0,0,0-1.15-.79,10.741,10.741,0,0,0-1.612-.553q-.9-.237-1.826-.526a14.949,14.949,0,0,1-1.849-.646,6.161,6.161,0,0,1-1.613-.987,4.573,4.573,0,0,1-1.15-1.515,5.028,5.028,0,0,1-.438-2.2,5.36,5.36,0,0,1,.557-2.515,5.441,5.441,0,0,1,1.458-1.778,6.089,6.089,0,0,1,2.039-1.054,7.866,7.866,0,0,1,2.276-.342,9.789,9.789,0,0,1,2.549.329,6.063,6.063,0,0,1,2.169,1.067A5.262,5.262,0,0,1,191.9,132.9a6.317,6.317,0,0,1,.557,2.779h-3.6a3.615,3.615,0,0,0-.32-1.4,2.244,2.244,0,0,0-.723-.869,2.889,2.889,0,0,0-1.032-.448,5.736,5.736,0,0,0-1.268-.132,3.943,3.943,0,0,0-.9.106,2.271,2.271,0,0,0-.818.368,2.175,2.175,0,0,0-.605.659,1.921,1.921,0,0,0-.237,1,1.845,1.845,0,0,0,.19.9,1.73,1.73,0,0,0,.747.632,8.826,8.826,0,0,0,1.541.58q.983.29,2.572.738.474.105,1.316.382a6.059,6.059,0,0,1,1.671.882,5.4,5.4,0,0,1,1.435,1.621,5.01,5.01,0,0,1,.6,2.594,6.3,6.3,0,0,1-.451,2.4,5.169,5.169,0,0,1-1.339,1.91,6.246,6.246,0,0,1-2.205,1.252,9.46,9.46,0,0,1-3.047.447,9.7,9.7,0,0,1-2.715-.382,6.538,6.538,0,0,1-2.323-1.2,5.788,5.788,0,0,1-1.6-2.082,6.794,6.794,0,0,1-.57-3h3.6A3.764,3.764,0,0,0,182.687,144.237Z" transform="translate(-178.774 -129.618)"/><path class="b" d="M201.015,133.759v-3.478h13.87v3.478h-5.073V149.09h-3.722V133.759Z" transform="translate(-186.008 -129.834)"/><path class="b" d="M228.625,130.281l6.33,18.809h-3.864l-1.28-4.189h-6.33l-1.328,4.189h-3.746l6.4-18.809Zm.213,11.538-2.134-6.9h-.047l-2.205,6.9Z" transform="translate(-191.664 -129.834)"/><path class="b" d="M239.63,130.281H243.8l3.959,7.428,3.936-7.428h4.148l-6.282,11.59v7.219h-3.723v-7.323Z" transform="translate(-198.567 -129.834)"/><path class="b" d="M282.82,130.281a6.42,6.42,0,0,1,2.7.514,5.069,5.069,0,0,1,1.814,1.356,5.364,5.364,0,0,1,1.02,1.923,7.937,7.937,0,0,1,0,4.466,5.34,5.34,0,0,1-1.02,1.935,5.055,5.055,0,0,1-1.814,1.357,6.42,6.42,0,0,1-2.7.514h-3.912v6.744h-3.722V130.281Zm-1.02,8.851a6.976,6.976,0,0,0,1.233-.106,2.678,2.678,0,0,0,1.043-.408,2.145,2.145,0,0,0,.723-.856,3.987,3.987,0,0,0,0-2.9,2.157,2.157,0,0,0-.723-.856,2.687,2.687,0,0,0-1.043-.408,7.039,7.039,0,0,0-1.233-.106h-2.892v5.638Z" transform="translate(-210.132 -129.834)"/><path class="b" d="M307.574,130.281a4.977,4.977,0,0,1,2.051.408,4.722,4.722,0,0,1,1.565,1.119,4.937,4.937,0,0,1,1,1.646,5.811,5.811,0,0,1,.343,2.016,6.157,6.157,0,0,1-.628,2.871,4.073,4.073,0,0,1-2.051,1.845v.052a2.8,2.8,0,0,1,1.138.646,3.566,3.566,0,0,1,.734,1.027,5.152,5.152,0,0,1,.415,1.3,12.638,12.638,0,0,1,.177,1.422q.024.448.047,1.053t.084,1.239a9.085,9.085,0,0,0,.19,1.2,2.908,2.908,0,0,0,.391.962H309.3a7.984,7.984,0,0,1-.379-2.134q-.071-1.239-.213-2.371a3.956,3.956,0,0,0-.806-2.16,2.592,2.592,0,0,0-2.015-.685h-3.722v7.349h-3.722V130.281Zm-1.328,8.509a2.628,2.628,0,0,0,1.92-.632,2.794,2.794,0,0,0,.641-2.055,2.252,2.252,0,0,0-2.561-2.608h-4.078v5.295Z" transform="translate(-217.697 -129.834)"/><path class="b" d="M336.3,130.281v3.478H327.36v4.03h8.2V141h-8.2v4.61h9.127v3.478h-12.85V130.281Z" transform="translate(-225.89 -129.834)"/><path class="b" d="M353.863,130.281a6.425,6.425,0,0,1,2.7.514,5.08,5.08,0,0,1,1.814,1.356,5.372,5.372,0,0,1,1.019,1.923,7.954,7.954,0,0,1,0,4.466,5.348,5.348,0,0,1-1.019,1.935,5.066,5.066,0,0,1-1.814,1.357,6.425,6.425,0,0,1-2.7.514h-3.912v6.744h-3.723V130.281Zm-1.02,8.851a6.976,6.976,0,0,0,1.233-.106,2.678,2.678,0,0,0,1.043-.408,2.145,2.145,0,0,0,.723-.856,3.987,3.987,0,0,0,0-2.9,2.157,2.157,0,0,0-.723-.856,2.687,2.687,0,0,0-1.043-.408,7.038,7.038,0,0,0-1.233-.106h-2.892v5.638Z" transform="translate(-233.238 -129.834)"/><path class="b" d="M374.472,130.281l6.33,18.809h-3.864l-1.281-4.189h-6.33L368,149.09h-3.746l6.4-18.809Zm.214,11.538-2.134-6.9H372.5l-2.205,6.9Z" transform="translate(-239.1 -129.834)"/><path class="b" d="M399.909,130.281a4.973,4.973,0,0,1,2.05.408,4.717,4.717,0,0,1,1.565,1.119,4.946,4.946,0,0,1,1,1.646,5.8,5.8,0,0,1,.343,2.016,6.166,6.166,0,0,1-.628,2.871,4.072,4.072,0,0,1-2.051,1.845v.052a2.79,2.79,0,0,1,1.138.646,3.555,3.555,0,0,1,.735,1.027,5.149,5.149,0,0,1,.415,1.3,12.617,12.617,0,0,1,.177,1.422q.023.448.047,1.053t.083,1.239a9.074,9.074,0,0,0,.19,1.2,2.906,2.906,0,0,0,.391.962h-3.722a7.983,7.983,0,0,1-.379-2.134q-.071-1.239-.213-2.371a3.961,3.961,0,0,0-.806-2.16,2.594,2.594,0,0,0-2.015-.685H394.5v7.349h-3.723V130.281Zm-1.329,8.509a2.628,2.628,0,0,0,1.92-.632,2.8,2.8,0,0,0,.64-2.055,2.251,2.251,0,0,0-2.561-2.608H394.5v5.295Z" transform="translate(-247.728 -129.834)"/><path class="b" d="M428.632,130.281v3.478h-8.938v4.03h8.2V141h-8.2v4.61h9.127v3.478h-12.85V130.281Z" transform="translate(-255.921 -129.834)"/><path class="b" d="M445.866,130.281a7.947,7.947,0,0,1,3.047.58,6.587,6.587,0,0,1,2.442,1.739,8.209,8.209,0,0,1,1.612,2.9,12.921,12.921,0,0,1,.581,4.082,14.369,14.369,0,0,1-.474,3.793,8.693,8.693,0,0,1-1.434,3,6.834,6.834,0,0,1-2.395,1.989,7.408,7.408,0,0,1-3.378.725h-7.3V130.281Zm-.26,15.331a4.349,4.349,0,0,0,1.564-.289,3.421,3.421,0,0,0,1.352-.962,4.95,4.95,0,0,0,.949-1.752,8.5,8.5,0,0,0,.356-2.634,12.137,12.137,0,0,0-.249-2.569,5.407,5.407,0,0,0-.818-1.962,3.694,3.694,0,0,0-1.506-1.251,5.469,5.469,0,0,0-2.311-.435h-2.655v11.853Z" transform="translate(-263.269 -129.834)"/></g><path class="c" d="M160.824,139.621a10.153,10.153,0,1,1-10.152-10.153A10.153,10.153,0,0,1,160.824,139.621Z" transform="translate(-140.519 -113.546)"/><path class="d" d="M145.216,130.682c-.048-.038-.113-.013-.176-.048l3.473-5.21c.053,0,.076.032.1.055a16.948,16.948,0,0,1,1.652,1.467,11.041,11.041,0,0,1,1.677,2.271c.275.481.546.964.839,1.433.028.045.057.088.09.14a.356.356,0,0,0,.083-.132q1.477-2.887,3.181-5.646a56.7,56.7,0,0,1,10.608-12.6c1.871-1.661,3.818-3.226,5.81-4.739q1.162-.883,2.338-1.746c.027-.02.056-.036.084-.055s.05.008.044.044c-.045.05-.089.1-.136.149-1.553,1.6-3.094,3.215-4.59,4.87a80.273,80.273,0,0,0-6.6,8.276c-1.535,2.231-2.945,4.539-4.258,6.906-1.5,2.695-2.866,5.452-4.167,8.245q-1.334,2.867-2.574,5.775c-.02.048-.039.1-.058.146h-.029a2.527,2.527,0,0,1-.325-.493c-.958-1.588-1.833-3.225-2.789-4.814a19.235,19.235,0,0,0-1.812-2.607,5.272,5.272,0,0,0-1.794-1.451,3.468,3.468,0,0,0-.532-.182C145.312,130.723,145.255,130.727,145.216,130.682Z" transform="translate(-141.989 -105.871)"/></g></g></svg>