<?xml version="1.0" standalone="no"?>
<!DOCTYPE svg PUBLIC "-//W3C//DTD SVG 1.1//EN" "http://www.w3.org/Graphics/SVG/1.1/DTD/svg11.dtd" >
<svg>
<metadata>
Created by FontForge 20090622 at Thu Jun 11 10:40:17 2020
 By deploy user
Copyright 2015 Dalton Maag Ltd. Modification of this file requires prior written permission from Dalton Maag Ltd.
</metadata>
<defs>
<font id="AktivGroteskEx-Black" horiz-adv-x="492" >
  <font-face 
    font-family="Aktiv Grotesk Ex Black"
    font-weight="900"
    font-stretch="expanded"
    units-per-em="1000"
    panose-1="2 11 9 4 2 2 3 2 2 4"
    ascent="714"
    descent="-286"
    x-height="528"
    cap-height="714"
    bbox="-291 -251 1674 1015"
    underline-thickness="68"
    underline-position="-65"
    unicode-range="U+0008-U+FEFF"
  />
<missing-glyph horiz-adv-x="610" 
d="M65 0v750h480v-750h-480zM495 700h-380v-650h380v650z" />
    <glyph glyph-name="f_f" unicode="ff" horiz-adv-x="1086" 
d="M121 0v327h-100v171h100v9q0 101 67.5 158t188.5 57q89 0 174 -23l-32 -151q-42 9 -85 9q-70 0 -70 -53v-6h150v-171h-150v-327h-243zM664 0v327h-100v171h100v9q0 101 67.5 158t188.5 57q89 0 174 -23l-32 -151q-42 9 -85 9q-70 0 -70 -53v-6h150v-171h-150v-327h-243z
" />
    <glyph glyph-name="f_i" unicode="fi" horiz-adv-x="912" 
d="M121 0v327h-100v171h100v9q0 101 67.5 158t188.5 57q89 0 174 -23l-32 -151q-42 9 -85 9q-70 0 -70 -53v-6h150v-171h-150v-327h-243zM606 0v528h243v-528h-243zM606 589v140h243v-140h-243z" />
    <glyph glyph-name="f_l" unicode="fl" horiz-adv-x="912" 
d="M121 0v327h-100v171h100v9q0 101 67.5 158t188.5 57q89 0 174 -23l-32 -151q-42 9 -85 9q-70 0 -70 -53v-6h150v-171h-150v-327h-243zM606 0v714h243v-714h-243z" />
    <glyph glyph-name="f_f_i" unicode="ffi" horiz-adv-x="1455" 
d="M121 0v327h-100v171h100v9q0 101 67.5 158t188.5 57q89 0 174 -23l-32 -151q-42 9 -85 9q-70 0 -70 -53v-6h150v-171h-150v-327h-243zM664 0v327h-100v171h100v9q0 101 67.5 158t188.5 57q89 0 174 -23l-32 -151q-42 9 -85 9q-70 0 -70 -53v-6h150v-171h-150v-327h-243z
M1149 0v528h243v-528h-243zM1149 589v140h243v-140h-243z" />
    <glyph glyph-name="f_f_l" unicode="ffl" horiz-adv-x="1455" 
d="M121 0v327h-100v171h100v9q0 101 67.5 158t188.5 57q89 0 174 -23l-32 -151q-42 9 -85 9q-70 0 -70 -53v-6h150v-171h-150v-327h-243zM664 0v327h-100v171h100v9q0 101 67.5 158t188.5 57q89 0 174 -23l-32 -151q-42 9 -85 9q-70 0 -70 -53v-6h150v-171h-150v-327h-243z
M1149 0v714h243v-714h-243z" />
    <glyph glyph-name=".notdef" horiz-adv-x="610" 
d="M65 0v750h480v-750h-480zM495 700h-380v-650h380v650z" />
    <glyph glyph-name=".null" horiz-adv-x="0" 
 />
    <glyph glyph-name=".null" horiz-adv-x="0" 
 />
    <glyph glyph-name=".null" horiz-adv-x="0" 
 />
    <glyph glyph-name="nonmarkingreturn" unicode="&#x9;" horiz-adv-x="268" 
 />
    <glyph glyph-name="nonmarkingreturn" unicode="&#xd;" horiz-adv-x="268" 
 />
    <glyph glyph-name="space" unicode=" " horiz-adv-x="268" 
 />
    <glyph glyph-name="period" unicode="." horiz-adv-x="342" 
d="M57 0v226h228v-226h-228z" />
    <glyph glyph-name="colon" unicode=":" horiz-adv-x="342" 
d="M57 0v226h228v-226h-228zM57 302v226h228v-226h-228z" />
    <glyph glyph-name="comma" unicode="," horiz-adv-x="342" 
d="M27 -105l50 331h231l-94 -331h-187z" />
    <glyph glyph-name="semicolon" unicode=";" horiz-adv-x="342" 
d="M27 -105l50 331h231l-94 -331h-187zM76 302v226h228v-226h-228z" />
    <glyph glyph-name="question" unicode="?" horiz-adv-x="668" 
d="M219 232v19q0 54 21.5 90.5t77.5 76.5q50 36 63.5 50t13.5 28q0 21 -17 30.5t-54 9.5q-41 0 -64 -16.5t-29 -50.5l-225 19q14 118 97.5 178t234.5 60q143 0 222.5 -51t79.5 -143q0 -54 -29 -96.5t-94 -85.5q-48 -31 -65 -54t-17 -54v-10h-216zM214 0v188h225v-188h-225z
" />
    <glyph glyph-name="exclam" unicode="!" horiz-adv-x="381" 
d="M82 232l-25 482h267l-25 -482h-217zM78 0v188h225v-188h-225z" />
    <glyph glyph-name="questiondown" unicode="&#xbf;" horiz-adv-x="668" 
d="M662 40q-14 -118 -97.5 -178t-234.5 -60q-143 0 -222.5 51t-79.5 143q0 54 29 96.5t94 85.5q48 31 65 54t17 54v10h216v-19q0 -54 -21.5 -90.5t-77.5 -76.5q-50 -36 -63.5 -50t-13.5 -28q0 -21 17 -30.5t54 -9.5q41 0 64 16.5t29 50.5zM229 340v188h225v-188h-225z" />
    <glyph glyph-name="exclamdown" unicode="&#xa1;" horiz-adv-x="381" 
d="M57 -186l25 482h217l25 -482h-267zM78 340v188h225v-188h-225z" />
    <glyph glyph-name="quotesingle" unicode="'" horiz-adv-x="274" 
d="M43 417l-8 297h204l-8 -297h-188z" />
    <glyph glyph-name="quotedbl" unicode="&#x22;" horiz-adv-x="539" 
d="M43 417l-8 297h204l-8 -297h-188zM308 417l-8 297h204l-8 -297h-188z" />
    <glyph glyph-name="ellipsis" unicode="&#x2026;" horiz-adv-x="1220" 
d="M89 0v226h228v-226h-228zM496 0v226h228v-226h-228zM903 0v226h228v-226h-228z" />
    <glyph glyph-name="uni00A0" unicode="&#xa0;" horiz-adv-x="268" 
 />
    <glyph glyph-name="uni2000" unicode="&#x2000;" horiz-adv-x="610" 
 />
    <glyph glyph-name="uni2001" unicode="&#x2001;" horiz-adv-x="1220" 
 />
    <glyph glyph-name="uni2002" unicode="&#x2002;" horiz-adv-x="610" 
 />
    <glyph glyph-name="uni2003" unicode="&#x2003;" horiz-adv-x="1220" 
 />
    <glyph glyph-name="uni2004" unicode="&#x2004;" horiz-adv-x="407" 
 />
    <glyph glyph-name="uni2005" unicode="&#x2005;" horiz-adv-x="305" 
 />
    <glyph glyph-name="uni2006" unicode="&#x2006;" horiz-adv-x="203" 
 />
    <glyph glyph-name="uni2007" unicode="&#x2007;" horiz-adv-x="700" 
 />
    <glyph glyph-name="uni2008" unicode="&#x2008;" horiz-adv-x="342" 
 />
    <glyph glyph-name="uni2009" unicode="&#x2009;" horiz-adv-x="244" 
 />
    <glyph glyph-name="uni200A" unicode="&#x200a;" horiz-adv-x="50" 
 />
    <glyph glyph-name="uni200B" unicode="&#x200b;" horiz-adv-x="0" 
 />
    <glyph glyph-name="zero" unicode="0" horiz-adv-x="700" 
d="M346 -18q-163 0 -240.5 89t-77.5 274q0 183 80.5 274t245.5 91q163 0 240.5 -89t77.5 -274q0 -183 -80.5 -274t-245.5 -91zM350 171q32 0 47 17t21 55t6 103q0 72 -7 109t-22 51.5t-45 14.5q-32 0 -47 -17t-21 -55t-6 -103q0 -72 7 -109t22 -51.5t45 -14.5z" />
    <glyph glyph-name="one" unicode="1" horiz-adv-x="700" 
d="M304 0v426l-126 -81l-109 163l276 183h205v-691h-246z" />
    <glyph glyph-name="two" unicode="2" horiz-adv-x="700" 
d="M49 0v171q98 60 182 117q84 56 121 86t50.5 51.5t13.5 45.5q0 57 -69 57q-38 0 -57.5 -18.5t-26.5 -60.5l-235 20q16 117 101 179t229 62q141 0 221.5 -58.5t80.5 -161.5q0 -60 -32.5 -108.5t-112.5 -109.5q-52 -40 -121 -86h282l-21 -186h-606z" />
    <glyph glyph-name="three" unicode="3" horiz-adv-x="700" 
d="M273 269v167h67q40 0 58.5 11t18.5 34q0 25 -19 38.5t-54 13.5q-39 0 -58.5 -17t-27.5 -56l-223 18q10 111 93.5 171.5t225.5 60.5q138 0 218 -53t80 -143q0 -50 -29 -90t-81 -57q66 -22 99.5 -65t33.5 -104q0 -102 -86.5 -159t-242.5 -57q-159 0 -241 68t-83 195h226
q3 -41 27.5 -62.5t68.5 -21.5q86 0 86 55q0 53 -93 53h-64z" />
    <glyph glyph-name="four" unicode="4" horiz-adv-x="700" 
d="M378 0v114h-364v180l347 397h240v-409h92l-19 -168h-73v-114h-223zM378 460l-155 -178h155v178z" />
    <glyph glyph-name="five" unicode="5" horiz-adv-x="700" 
d="M283 510l-6 -72q57 21 131 21q124 0 193.5 -61.5t69.5 -171.5q0 -119 -81 -181.5t-233 -62.5q-145 0 -227 59t-93 169h233q12 -49 85 -49q41 0 58 16t17 52q0 63 -80 63q-31 0 -49 -5.5t-34 -19.5h-212l36 424h528v-181h-336z" />
    <glyph glyph-name="six" unicode="6" horiz-adv-x="700" 
d="M436 481q-9 24 -25.5 34.5t-44.5 10.5q-89 0 -101 -99l-2 -16q27 16 65.5 24.5t81.5 8.5q118 0 189 -59.5t71 -163.5q0 -110 -85 -174.5t-228 -64.5q-157 0 -238.5 87t-81.5 256q0 119 40 205.5t117 133t183 46.5q117 0 190 -55t91 -156zM442 225q0 28 -21.5 43.5
t-61.5 15.5t-63 -15t-23 -43q0 -30 23 -48t61 -18t61.5 17.5t23.5 47.5z" />
    <glyph glyph-name="seven" unicode="7" horiz-adv-x="700" 
d="M141 0q43 132 107.5 261.5t136.5 232.5h-346v197h614v-170q-81 -116 -141 -237t-116 -284h-255z" />
    <glyph glyph-name="eight" unicode="8" horiz-adv-x="700" 
d="M556 357q122 -51 122 -166q0 -101 -85.5 -155t-245.5 -54q-157 0 -241 53t-84 153q0 116 122 169q-98 49 -98 150q0 95 81.5 149t226.5 54q93 0 160.5 -23.5t103.5 -68.5t36 -108q0 -100 -98 -153zM447 215q0 55 -97 55t-97 -55t97 -55t97 55zM436 485q0 26 -20.5 37.5
t-65.5 11.5t-65.5 -11.5t-20.5 -37.5t20.5 -38t65.5 -12t65.5 12t20.5 38z" />
    <glyph glyph-name="nine" unicode="9" horiz-adv-x="700" 
d="M437 284q-27 -17 -65 -26.5t-82 -9.5q-118 0 -189 59.5t-71 163.5q0 110 85 174.5t228 64.5q158 0 239 -90.5t81 -266.5q0 -114 -37.5 -197t-110.5 -128.5t-173 -45.5q-134 0 -213.5 59t-90.5 165h228q8 -21 26.5 -30.5t51.5 -9.5q79 0 91 99zM426 465q0 30 -22.5 48.5
t-60.5 18.5t-61.5 -17.5t-23.5 -47.5q0 -28 21.5 -43.5t61.5 -15.5t62.5 15t22.5 42z" />
    <glyph glyph-name="zero.pnum" horiz-adv-x="724" 
d="M358 -18q-163 0 -240.5 89t-77.5 274q0 183 80.5 274t245.5 91q163 0 240.5 -89t77.5 -274q0 -183 -80.5 -274t-245.5 -91zM362 171q32 0 47 17t21 55t6 103q0 72 -7 109t-22 51.5t-45 14.5q-32 0 -47 -17t-21 -55t-6 -103q0 -72 7 -109t22 -51.5t45 -14.5z" />
    <glyph glyph-name="one.pnum" horiz-adv-x="589" 
d="M248 0v426l-126 -81l-109 163l276 183h205v-691h-246z" />
    <glyph glyph-name="two.pnum" horiz-adv-x="676" 
d="M36 0v171q98 60 182 117q84 56 121 86t50.5 51.5t13.5 45.5q0 57 -69 57q-38 0 -57.5 -18.5t-26.5 -60.5l-235 20q16 117 101 179t229 62q141 0 221.5 -58.5t80.5 -161.5q0 -60 -32.5 -108.5t-112.5 -109.5q-52 -40 -121 -86h282l-21 -186h-606z" />
    <glyph glyph-name="three.pnum" horiz-adv-x="693" 
d="M268 269v167h67q40 0 58.5 11t18.5 34q0 25 -19 38.5t-54 13.5q-39 0 -58.5 -17t-27.5 -56l-223 18q10 111 93.5 171.5t225.5 60.5q138 0 218 -53t80 -143q0 -50 -29 -90t-81 -57q66 -22 99.5 -65t33.5 -104q0 -102 -86.5 -159t-242.5 -57q-159 0 -241 68t-83 195h226
q3 -41 27.5 -62.5t68.5 -21.5q86 0 86 55q0 53 -93 53h-64z" />
    <glyph glyph-name="four.pnum" horiz-adv-x="709" 
d="M386 0v114h-364v180l347 397h240v-409h92l-19 -168h-73v-114h-223zM386 460l-155 -178h155v178z" />
    <glyph glyph-name="five.pnum" horiz-adv-x="692" 
d="M281 510l-6 -72q57 21 131 21q124 0 193.5 -61.5t69.5 -171.5q0 -119 -81 -181.5t-233 -62.5q-145 0 -227 59t-93 169h233q12 -49 85 -49q41 0 58 16t17 52q0 63 -80 63q-31 0 -49 -5.5t-34 -19.5h-212l36 424h528v-181h-336z" />
    <glyph glyph-name="six.pnum" horiz-adv-x="701" 
d="M439 481q-9 24 -25.5 34.5t-44.5 10.5q-89 0 -101 -99l-2 -16q27 16 65.5 24.5t81.5 8.5q118 0 189 -59.5t71 -163.5q0 -110 -85 -174.5t-228 -64.5q-157 0 -238.5 87t-81.5 256q0 119 40 205.5t117 133t183 46.5q117 0 190 -55t91 -156zM445 225q0 28 -21.5 43.5
t-61.5 15.5t-63 -15t-23 -43q0 -30 23 -48t61 -18t61.5 17.5t23.5 47.5z" />
    <glyph glyph-name="seven.pnum" horiz-adv-x="659" 
d="M123 0q43 132 107.5 261.5t136.5 232.5h-346v197h614v-170q-81 -116 -141 -237t-116 -284h-255z" />
    <glyph glyph-name="eight.pnum" horiz-adv-x="720" 
d="M566 357q122 -51 122 -166q0 -101 -85.5 -155t-245.5 -54q-157 0 -241 53t-84 153q0 116 122 169q-98 49 -98 150q0 95 81.5 149t226.5 54q93 0 160.5 -23.5t103.5 -68.5t36 -108q0 -100 -98 -153zM457 215q0 55 -97 55t-97 -55t97 -55t97 55zM446 485q0 26 -20.5 37.5
t-65.5 11.5t-65.5 -11.5t-20.5 -37.5t20.5 -38t65.5 -12t65.5 12t20.5 38z" />
    <glyph glyph-name="nine.pnum" horiz-adv-x="704" 
d="M438 284q-27 -17 -65 -26.5t-82 -9.5q-118 0 -189 59.5t-71 163.5q0 110 85 174.5t228 64.5q158 0 239 -90.5t81 -266.5q0 -114 -37.5 -197t-110.5 -128.5t-173 -45.5q-134 0 -213.5 59t-90.5 165h228q8 -21 26.5 -30.5t51.5 -9.5q79 0 91 99zM427 465q0 30 -22.5 48.5
t-60.5 18.5t-61.5 -17.5t-23.5 -47.5q0 -28 21.5 -43.5t61.5 -15.5t62.5 15t22.5 42z" />
    <glyph glyph-name="uni2080" unicode="&#x2080;" 
d="M244 -135q-104 0 -160.5 56t-56.5 160q0 103 58.5 161t162.5 58t160.5 -56t56.5 -160q0 -103 -58.5 -161t-162.5 -58zM246 -5q27 0 38 19.5t11 67.5t-11 68t-38 20t-38 -19.5t-11 -67.5t11 -68t38 -20z" />
    <glyph glyph-name="uni2081" unicode="&#x2081;" 
d="M217 -122v242l-97 -61l-70 111l185 117h156v-409h-174z" />
    <glyph glyph-name="uni2082" unicode="&#x2082;" 
d="M49 -122v111q42 23 126 73q53 31 73 44.5t26.5 22.5t6.5 20q0 29 -36 29q-19 0 -29.5 -8.5t-15.5 -27.5l-161 11q29 147 218 147q91 0 142 -36t51 -99q0 -36 -29 -69.5t-92 -70.5l-41 -24h170l-13 -123h-396z" />
    <glyph glyph-name="uni2083" unicode="&#x2083;" 
d="M210 35v102h37q19 0 30 7t11 19t-12 19t-33 7q-23 0 -34.5 -7t-15.5 -25l-157 10q20 70 71.5 101.5t145.5 31.5q92 0 145.5 -33t53.5 -91q0 -55 -63 -81q36 -14 55.5 -39.5t19.5 -59.5q0 -62 -57 -96.5t-157 -34.5q-107 0 -163.5 40.5t-57.5 117.5h159q3 -47 56 -47
q26 0 38.5 7t12.5 23q0 13 -13 21t-33 8h-39z" />
    <glyph glyph-name="uni2084" unicode="&#x2084;" 
d="M255 -122v63h-232v115l206 231h178v-235h63l-12 -111h-51v-63h-152zM255 162l-97 -110h97v110z" />
    <glyph glyph-name="uni2085" unicode="&#x2085;" 
d="M201 170l-4 -42q36 13 84 13q80 0 124.5 -35t44.5 -99q0 -69 -52.5 -105.5t-151.5 -36.5q-94 0 -148 33t-62 95h163q7 -19 43 -19q21 0 32.5 9t11.5 25q0 34 -44 34q-28 0 -43 -12h-151l26 257h346v-117h-219z" />
    <glyph glyph-name="uni2086" unicode="&#x2086;" 
d="M299 166q-4 10 -14 15t-29 5q-64 0 -69 -66q28 20 102 20q82 0 124.5 -34t42.5 -99t-56.5 -103.5t-153.5 -38.5q-105 0 -158.5 52t-53.5 155q0 107 60.5 167.5t166.5 60.5q79 0 127 -32t59 -92zM301 15q0 17 -14 27t-39 10t-40 -10t-15 -26q0 -19 15 -30.5t39 -11.5
t39 11.5t15 29.5z" />
    <glyph glyph-name="uni2087" unicode="&#x2087;" 
d="M116 -122q28 78 66.5 150.5t80.5 126.5h-215v132h403v-109q-53 -73 -90.5 -145t-66.5 -155h-178z" />
    <glyph glyph-name="uni2088" unicode="&#x2088;" 
d="M389 89q75 -28 75 -97q0 -62 -56.5 -94.5t-163.5 -32.5t-161.5 32t-54.5 94q0 71 75 98q-61 29 -61 90q0 57 54.5 89t151.5 32q95 0 148.5 -31.5t53.5 -87.5q0 -63 -61 -92zM296 166q0 15 -12 21.5t-38 6.5q-27 0 -38.5 -6.5t-11.5 -21.5q0 -16 11 -22.5t39 -6.5
q27 0 38.5 6.5t11.5 22.5zM303 2q0 18 -13.5 26t-43.5 8t-43.5 -8t-13.5 -26q0 -16 13.5 -23.5t42.5 -7.5q31 0 44.5 7.5t13.5 23.5z" />
    <glyph glyph-name="uni2089" unicode="&#x2089;" 
d="M202 -5q4 -8 13 -11.5t27 -3.5q31 0 45 15t17 50q-28 -20 -103 -20q-81 0 -122.5 33.5t-41.5 98.5q0 64 56.5 103.5t148.5 39.5q214 0 214 -216q0 -106 -55.5 -162.5t-159.5 -56.5q-86 0 -139 34t-64 96h164zM297 149q0 19 -15 30.5t-39 11.5t-39 -11.5t-15 -29.5
q0 -17 14 -27t39 -10t40 9.5t15 26.5z" />
    <glyph glyph-name="uni2070" unicode="&#x2070;" 
d="M244 393q-104 0 -160.5 56t-56.5 160q0 103 58.5 161t162.5 58t160.5 -56t56.5 -160q0 -103 -58.5 -161t-162.5 -58zM246 523q27 0 38 19.5t11 67.5t-11 68t-38 20t-38 -19.5t-11 -67.5t11 -68t38 -20z" />
    <glyph glyph-name="uni00B9" unicode="&#xb9;" 
d="M217 406v242l-97 -61l-70 111l185 117h156v-409h-174z" />
    <glyph glyph-name="uni00B2" unicode="&#xb2;" 
d="M49 406v111q42 23 126 73q53 31 73 44.5t26.5 22.5t6.5 20q0 29 -36 29q-19 0 -29.5 -8.5t-15.5 -27.5l-161 11q29 147 218 147q91 0 142 -36t51 -99q0 -36 -29 -69.5t-92 -70.5l-41 -24h170l-13 -123h-396z" />
    <glyph glyph-name="uni00B3" unicode="&#xb3;" 
d="M210 563v102h37q19 0 30 7t11 19t-12 19t-33 7q-23 0 -34.5 -7t-15.5 -25l-157 10q20 70 71.5 101.5t145.5 31.5q92 0 145.5 -33t53.5 -91q0 -55 -63 -81q36 -14 55.5 -39.5t19.5 -59.5q0 -62 -57 -96.5t-157 -34.5q-107 0 -163.5 40.5t-57.5 117.5h159q3 -47 56 -47
q26 0 38.5 7t12.5 23q0 13 -13 21t-33 8h-39z" />
    <glyph glyph-name="uni2074" unicode="&#x2074;" 
d="M255 406v63h-232v115l206 231h178v-235h63l-12 -111h-51v-63h-152zM255 690l-97 -110h97v110z" />
    <glyph glyph-name="uni2075" unicode="&#x2075;" 
d="M201 698l-4 -42q36 13 84 13q80 0 124.5 -35t44.5 -99q0 -69 -52.5 -105.5t-151.5 -36.5q-94 0 -148 33t-62 95h163q7 -19 43 -19q21 0 32.5 9t11.5 25q0 34 -44 34q-28 0 -43 -12h-151l26 257h346v-117h-219z" />
    <glyph glyph-name="uni2076" unicode="&#x2076;" 
d="M299 694q-4 10 -14 15t-29 5q-64 0 -69 -66q28 20 102 20q82 0 124.5 -34t42.5 -99t-56.5 -103.5t-153.5 -38.5q-105 0 -158.5 52t-53.5 155q0 107 60.5 167.5t166.5 60.5q79 0 127 -32t59 -92zM301 543q0 17 -14 27t-39 10t-40 -10t-15 -26q0 -19 15 -30.5t39 -11.5
t39 11.5t15 29.5z" />
    <glyph glyph-name="uni2077" unicode="&#x2077;" 
d="M116 406q28 78 66.5 150.5t80.5 126.5h-215v132h403v-109q-53 -73 -90.5 -145t-66.5 -155h-178z" />
    <glyph glyph-name="uni2078" unicode="&#x2078;" 
d="M389 617q75 -28 75 -97q0 -62 -56.5 -94.5t-163.5 -32.5t-161.5 32t-54.5 94q0 71 75 98q-61 29 -61 90q0 57 54.5 89t151.5 32q95 0 148.5 -31.5t53.5 -87.5q0 -63 -61 -92zM296 694q0 15 -12 21.5t-38 6.5q-27 0 -38.5 -6.5t-11.5 -21.5q0 -16 11 -22.5t39 -6.5
q27 0 38.5 6.5t11.5 22.5zM303 530q0 18 -13.5 26t-43.5 8t-43.5 -8t-13.5 -26q0 -16 13.5 -23.5t42.5 -7.5q31 0 44.5 7.5t13.5 23.5z" />
    <glyph glyph-name="uni2079" unicode="&#x2079;" 
d="M202 523q4 -8 13 -11.5t27 -3.5q31 0 45 15t17 50q-28 -20 -103 -20q-81 0 -122.5 33.5t-41.5 98.5q0 64 56.5 103.5t148.5 39.5q214 0 214 -216q0 -106 -55.5 -162.5t-159.5 -56.5q-86 0 -139 34t-64 96h164zM297 677q0 19 -15 30.5t-39 11.5t-39 -11.5t-15 -29.5
q0 -17 14 -27t39 -10t40 9.5t15 26.5z" />
    <glyph glyph-name="zero.dnom" unicode="&#xf814;" 
d="M244 -13q-104 0 -160.5 56t-56.5 160q0 103 58.5 161t162.5 58t160.5 -56t56.5 -160q0 -103 -58.5 -161t-162.5 -58zM246 117q27 0 38 19.5t11 67.5t-11 68t-38 20t-38 -19.5t-11 -67.5t11 -68t38 -20z" />
    <glyph glyph-name="one.dnom" unicode="&#xf815;" 
d="M217 0v242l-97 -61l-70 111l185 117h156v-409h-174z" />
    <glyph glyph-name="two.dnom" unicode="&#xf816;" 
d="M49 0v111q42 23 126 73q53 31 73 44.5t26.5 22.5t6.5 20q0 29 -36 29q-19 0 -29.5 -8.5t-15.5 -27.5l-161 11q29 147 218 147q91 0 142 -36t51 -99q0 -36 -29 -69.5t-92 -70.5l-41 -24h170l-13 -123h-396z" />
    <glyph glyph-name="three.dnom" unicode="&#xf817;" 
d="M210 157v102h37q19 0 30 7t11 19t-12 19t-33 7q-23 0 -34.5 -7t-15.5 -25l-157 10q20 70 71.5 101.5t145.5 31.5q92 0 145.5 -33t53.5 -91q0 -55 -63 -81q36 -14 55.5 -39.5t19.5 -59.5q0 -62 -57 -96.5t-157 -34.5q-107 0 -163.5 40.5t-57.5 117.5h159q3 -47 56 -47
q26 0 38.5 7t12.5 23q0 13 -13 21t-33 8h-39z" />
    <glyph glyph-name="four.dnom" unicode="&#xf818;" 
d="M255 0v63h-232v115l206 231h178v-235h63l-12 -111h-51v-63h-152zM255 284l-97 -110h97v110z" />
    <glyph glyph-name="five.dnom" unicode="&#xf819;" 
d="M201 292l-4 -42q36 13 84 13q80 0 124.5 -35t44.5 -99q0 -69 -52.5 -105.5t-151.5 -36.5q-94 0 -148 33t-62 95h163q7 -19 43 -19q21 0 32.5 9t11.5 25q0 34 -44 34q-28 0 -43 -12h-151l26 257h346v-117h-219z" />
    <glyph glyph-name="six.dnom" unicode="&#xf81a;" 
d="M299 288q-4 10 -14 15t-29 5q-64 0 -69 -66q28 20 102 20q82 0 124.5 -34t42.5 -99t-56.5 -103.5t-153.5 -38.5q-105 0 -158.5 52t-53.5 155q0 107 60.5 167.5t166.5 60.5q79 0 127 -32t59 -92zM301 137q0 17 -14 27t-39 10t-40 -10t-15 -26q0 -19 15 -30.5t39 -11.5
t39 11.5t15 29.5z" />
    <glyph glyph-name="seven.dnom" unicode="&#xf81b;" 
d="M116 0q28 78 66.5 150.5t80.5 126.5h-215v132h403v-109q-53 -73 -90.5 -145t-66.5 -155h-178z" />
    <glyph glyph-name="eight.dnom" unicode="&#xf81c;" 
d="M389 211q75 -28 75 -97q0 -62 -56.5 -94.5t-163.5 -32.5t-161.5 32t-54.5 94q0 71 75 98q-61 29 -61 90q0 57 54.5 89t151.5 32q95 0 148.5 -31.5t53.5 -87.5q0 -63 -61 -92zM296 288q0 15 -12 21.5t-38 6.5q-27 0 -38.5 -6.5t-11.5 -21.5q0 -16 11 -22.5t39 -6.5
q27 0 38.5 6.5t11.5 22.5zM303 124q0 18 -13.5 26t-43.5 8t-43.5 -8t-13.5 -26q0 -16 13.5 -23.5t42.5 -7.5q31 0 44.5 7.5t13.5 23.5z" />
    <glyph glyph-name="nine.dnom" unicode="&#xf81d;" 
d="M202 117q4 -8 13 -11.5t27 -3.5q31 0 45 15t17 50q-28 -20 -103 -20q-81 0 -122.5 33.5t-41.5 98.5q0 64 56.5 103.5t148.5 39.5q214 0 214 -216q0 -106 -55.5 -162.5t-159.5 -56.5q-86 0 -139 34t-64 96h164zM297 271q0 19 -15 30.5t-39 11.5t-39 -11.5t-15 -29.5
q0 -17 14 -27t39 -10t40 9.5t15 26.5z" />
    <glyph glyph-name="zero.numr" unicode="&#xf80a;" 
d="M244 269q-104 0 -160.5 56t-56.5 160q0 103 58.5 161t162.5 58t160.5 -56t56.5 -160q0 -103 -58.5 -161t-162.5 -58zM246 399q27 0 38 19.5t11 67.5t-11 68t-38 20t-38 -19.5t-11 -67.5t11 -68t38 -20z" />
    <glyph glyph-name="one.numr" unicode="&#xf80b;" 
d="M217 282v242l-97 -61l-70 111l185 117h156v-409h-174z" />
    <glyph glyph-name="two.numr" unicode="&#xf80c;" 
d="M49 282v111q42 23 126 73q53 31 73 44.5t26.5 22.5t6.5 20q0 29 -36 29q-19 0 -29.5 -8.5t-15.5 -27.5l-161 11q29 147 218 147q91 0 142 -36t51 -99q0 -36 -29 -69.5t-92 -70.5l-41 -24h170l-13 -123h-396z" />
    <glyph glyph-name="three.numr" unicode="&#xf80d;" 
d="M210 439v102h37q19 0 30 7t11 19t-12 19t-33 7q-23 0 -34.5 -7t-15.5 -25l-157 10q20 70 71.5 101.5t145.5 31.5q92 0 145.5 -33t53.5 -91q0 -55 -63 -81q36 -14 55.5 -39.5t19.5 -59.5q0 -62 -57 -96.5t-157 -34.5q-107 0 -163.5 40.5t-57.5 117.5h159q3 -47 56 -47
q26 0 38.5 7t12.5 23q0 13 -13 21t-33 8h-39z" />
    <glyph glyph-name="four.numr" unicode="&#xf80e;" 
d="M255 282v63h-232v115l206 231h178v-235h63l-12 -111h-51v-63h-152zM255 566l-97 -110h97v110z" />
    <glyph glyph-name="five.numr" unicode="&#xf80f;" 
d="M201 574l-4 -42q36 13 84 13q80 0 124.5 -35t44.5 -99q0 -69 -52.5 -105.5t-151.5 -36.5q-94 0 -148 33t-62 95h163q7 -19 43 -19q21 0 32.5 9t11.5 25q0 34 -44 34q-28 0 -43 -12h-151l26 257h346v-117h-219z" />
    <glyph glyph-name="six.numr" unicode="&#xf810;" 
d="M299 570q-4 10 -14 15t-29 5q-64 0 -69 -66q28 20 102 20q82 0 124.5 -34t42.5 -99t-56.5 -103.5t-153.5 -38.5q-105 0 -158.5 52t-53.5 155q0 107 60.5 167.5t166.5 60.5q79 0 127 -32t59 -92zM301 419q0 17 -14 27t-39 10t-40 -10t-15 -26q0 -19 15 -30.5t39 -11.5
t39 11.5t15 29.5z" />
    <glyph glyph-name="seven.numr" unicode="&#xf811;" 
d="M116 282q28 78 66.5 150.5t80.5 126.5h-215v132h403v-109q-53 -73 -90.5 -145t-66.5 -155h-178z" />
    <glyph glyph-name="eight.numr" unicode="&#xf812;" 
d="M389 493q75 -28 75 -97q0 -62 -56.5 -94.5t-163.5 -32.5t-161.5 32t-54.5 94q0 71 75 98q-61 29 -61 90q0 57 54.5 89t151.5 32q95 0 148.5 -31.5t53.5 -87.5q0 -63 -61 -92zM296 570q0 15 -12 21.5t-38 6.5q-27 0 -38.5 -6.5t-11.5 -21.5q0 -16 11 -22.5t39 -6.5
q27 0 38.5 6.5t11.5 22.5zM303 406q0 18 -13.5 26t-43.5 8t-43.5 -8t-13.5 -26q0 -16 13.5 -23.5t42.5 -7.5q31 0 44.5 7.5t13.5 23.5z" />
    <glyph glyph-name="nine.numr" unicode="&#xf813;" 
d="M202 399q4 -8 13 -11.5t27 -3.5q31 0 45 15t17 50q-28 -20 -103 -20q-81 0 -122.5 33.5t-41.5 98.5q0 64 56.5 103.5t148.5 39.5q214 0 214 -216q0 -106 -55.5 -162.5t-159.5 -56.5q-86 0 -139 34t-64 96h164zM297 553q0 19 -15 30.5t-39 11.5t-39 -11.5t-15 -29.5
q0 -17 14 -27t39 -10t40 9.5t15 26.5z" />
    <glyph glyph-name="fraction" unicode="&#x2044;" horiz-adv-x="170" 
d="M-215 0l385 691h215l-385 -691h-215z" />
    <glyph glyph-name="percent" unicode="%" horiz-adv-x="1222" 
d="M311 0l385 691h215l-385 -691h-215zM974 -13q-104 0 -160.5 56t-56.5 160q0 103 58.5 161t162.5 58t160.5 -56t56.5 -160q0 -103 -58.5 -161t-162.5 -58zM976 117q27 0 38 19.5t11 67.5t-11 68t-38 20t-38 -19.5t-11 -67.5t11 -68t38 -20zM244 269q-104 0 -160.5 56
t-56.5 160q0 103 58.5 161t162.5 58t160.5 -56t56.5 -160q0 -103 -58.5 -161t-162.5 -58zM246 399q27 0 38 19.5t11 67.5t-11 68t-38 20t-38 -19.5t-11 -67.5t11 -68t38 -20z" />
    <glyph glyph-name="perthousand" unicode="&#x2030;" horiz-adv-x="1701" 
d="M311 0l385 691h215l-385 -691h-215zM974 -13q-104 0 -160.5 56t-56.5 160q0 103 58.5 161t162.5 58t160.5 -56t56.5 -160q0 -103 -58.5 -161t-162.5 -58zM976 117q27 0 38 19.5t11 67.5t-11 68t-38 20t-38 -19.5t-11 -67.5t11 -68t38 -20zM1453 -13q-104 0 -160.5 56
t-56.5 160q0 103 58.5 161t162.5 58t160.5 -56t56.5 -160q0 -103 -58.5 -161t-162.5 -58zM1455 117q27 0 38 19.5t11 67.5t-11 68t-38 20t-38 -19.5t-11 -67.5t11 -68t38 -20zM244 269q-104 0 -160.5 56t-56.5 160q0 103 58.5 161t162.5 58t160.5 -56t56.5 -160
q0 -103 -58.5 -161t-162.5 -58zM246 399q27 0 38 19.5t11 67.5t-11 68t-38 20t-38 -19.5t-11 -67.5t11 -68t38 -20z" />
    <glyph glyph-name="onehalf" unicode="&#xbd;" horiz-adv-x="1222" 
d="M301 0l385 691h215l-385 -691h-215zM779 0v111q42 23 126 73q53 31 73 44.5t26.5 22.5t6.5 20q0 29 -36 29q-19 0 -29.5 -8.5t-15.5 -27.5l-161 11q29 147 218 147q91 0 142 -36t51 -99q0 -36 -29 -69.5t-92 -70.5l-41 -24h170l-13 -123h-396zM217 282v242l-97 -61
l-70 111l185 117h156v-409h-174z" />
    <glyph glyph-name="onethird" unicode="&#x2153;" horiz-adv-x="1222" 
d="M301 0l385 691h215l-385 -691h-215zM940 157v102h37q19 0 30 7t11 19t-12 19t-33 7q-23 0 -34.5 -7t-15.5 -25l-157 10q20 70 71.5 101.5t145.5 31.5q92 0 145.5 -33t53.5 -91q0 -55 -63 -81q36 -14 55.5 -39.5t19.5 -59.5q0 -62 -57 -96.5t-157 -34.5
q-107 0 -163.5 40.5t-57.5 117.5h159q3 -47 56 -47q26 0 38.5 7t12.5 23q0 13 -13 21t-33 8h-39zM217 282v242l-97 -61l-70 111l185 117h156v-409h-174z" />
    <glyph glyph-name="twothirds" unicode="&#x2154;" horiz-adv-x="1222" 
d="M327 0l385 691h215l-385 -691h-215zM940 157v102h37q19 0 30 7t11 19t-12 19t-33 7q-23 0 -34.5 -7t-15.5 -25l-157 10q20 70 71.5 101.5t145.5 31.5q92 0 145.5 -33t53.5 -91q0 -55 -63 -81q36 -14 55.5 -39.5t19.5 -59.5q0 -62 -57 -96.5t-157 -34.5
q-107 0 -163.5 40.5t-57.5 117.5h159q3 -47 56 -47q26 0 38.5 7t12.5 23q0 13 -13 21t-33 8h-39zM49 282v111q42 23 126 73q53 31 73 44.5t26.5 22.5t6.5 20q0 29 -36 29q-19 0 -29.5 -8.5t-15.5 -27.5l-161 11q29 147 218 147q91 0 142 -36t51 -99q0 -36 -29 -69.5
t-92 -70.5l-41 -24h170l-13 -123h-396z" />
    <glyph glyph-name="onequarter" unicode="&#xbc;" horiz-adv-x="1222" 
d="M311 0l385 691h215l-385 -691h-215zM985 0v63h-232v115l206 231h178v-235h63l-12 -111h-51v-63h-152zM985 284l-97 -110h97v110zM217 282v242l-97 -61l-70 111l185 117h156v-409h-174z" />
    <glyph glyph-name="threequarters" unicode="&#xbe;" horiz-adv-x="1222" 
d="M330 0l385 691h215l-385 -691h-215zM985 0v63h-232v115l206 231h178v-235h63l-12 -111h-51v-63h-152zM985 284l-97 -110h97v110zM210 439v102h37q19 0 30 7t11 19t-12 19t-33 7q-23 0 -34.5 -7t-15.5 -25l-157 10q20 70 71.5 101.5t145.5 31.5q92 0 145.5 -33t53.5 -91
q0 -55 -63 -81q36 -14 55.5 -39.5t19.5 -59.5q0 -62 -57 -96.5t-157 -34.5q-107 0 -163.5 40.5t-57.5 117.5h159q3 -47 56 -47q26 0 38.5 7t12.5 23q0 13 -13 21t-33 8h-39z" />
    <glyph glyph-name="onefifth" unicode="&#x2155;" horiz-adv-x="1222" 
d="M296 0l385 691h215l-385 -691h-215zM931 292l-4 -42q36 13 84 13q80 0 124.5 -35t44.5 -99q0 -69 -52.5 -105.5t-151.5 -36.5q-94 0 -148 33t-62 95h163q7 -19 43 -19q21 0 32.5 9t11.5 25q0 34 -44 34q-28 0 -43 -12h-151l26 257h346v-117h-219zM217 282v242l-97 -61
l-70 111l185 117h156v-409h-174z" />
    <glyph glyph-name="twofifths" unicode="&#x2156;" horiz-adv-x="1222" 
d="M326 0l385 691h215l-385 -691h-215zM931 292l-4 -42q36 13 84 13q80 0 124.5 -35t44.5 -99q0 -69 -52.5 -105.5t-151.5 -36.5q-94 0 -148 33t-62 95h163q7 -19 43 -19q21 0 32.5 9t11.5 25q0 34 -44 34q-28 0 -43 -12h-151l26 257h346v-117h-219zM49 282v111
q42 23 126 73q53 31 73 44.5t26.5 22.5t6.5 20q0 29 -36 29q-19 0 -29.5 -8.5t-15.5 -27.5l-161 11q29 147 218 147q91 0 142 -36t51 -99q0 -36 -29 -69.5t-92 -70.5l-41 -24h170l-13 -123h-396z" />
    <glyph glyph-name="threefifths" unicode="&#x2157;" horiz-adv-x="1222" 
d="M313 0l385 691h215l-385 -691h-215zM931 292l-4 -42q36 13 84 13q80 0 124.5 -35t44.5 -99q0 -69 -52.5 -105.5t-151.5 -36.5q-94 0 -148 33t-62 95h163q7 -19 43 -19q21 0 32.5 9t11.5 25q0 34 -44 34q-28 0 -43 -12h-151l26 257h346v-117h-219zM210 439v102h37
q19 0 30 7t11 19t-12 19t-33 7q-23 0 -34.5 -7t-15.5 -25l-157 10q20 70 71.5 101.5t145.5 31.5q92 0 145.5 -33t53.5 -91q0 -55 -63 -81q36 -14 55.5 -39.5t19.5 -59.5q0 -62 -57 -96.5t-157 -34.5q-107 0 -163.5 40.5t-57.5 117.5h159q3 -47 56 -47q26 0 38.5 7t12.5 23
q0 13 -13 21t-33 8h-39z" />
    <glyph glyph-name="fourfifths" unicode="&#x2158;" horiz-adv-x="1222" 
d="M320 0l385 691h215l-385 -691h-215zM931 292l-4 -42q36 13 84 13q80 0 124.5 -35t44.5 -99q0 -69 -52.5 -105.5t-151.5 -36.5q-94 0 -148 33t-62 95h163q7 -19 43 -19q21 0 32.5 9t11.5 25q0 34 -44 34q-28 0 -43 -12h-151l26 257h346v-117h-219zM255 282v63h-232v115
l206 231h178v-235h63l-12 -111h-51v-63h-152zM255 566l-97 -110h97v110z" />
    <glyph glyph-name="onesixth" unicode="&#x2159;" horiz-adv-x="1222" 
d="M299 0l385 691h215l-385 -691h-215zM1029 288q-4 10 -14 15t-29 5q-64 0 -69 -66q28 20 102 20q82 0 124.5 -34t42.5 -99t-56.5 -103.5t-153.5 -38.5q-105 0 -158.5 52t-53.5 155q0 107 60.5 167.5t166.5 60.5q79 0 127 -32t59 -92zM1031 137q0 17 -14 27t-39 10t-40 -10
t-15 -26q0 -19 15 -30.5t39 -11.5t39 11.5t15 29.5zM217 282v242l-97 -61l-70 111l185 117h156v-409h-174z" />
    <glyph glyph-name="fivesixths" unicode="&#x215a;" horiz-adv-x="1222" 
d="M315 0l385 691h215l-385 -691h-215zM1029 288q-4 10 -14 15t-29 5q-64 0 -69 -66q28 20 102 20q82 0 124.5 -34t42.5 -99t-56.5 -103.5t-153.5 -38.5q-105 0 -158.5 52t-53.5 155q0 107 60.5 167.5t166.5 60.5q79 0 127 -32t59 -92zM1031 137q0 17 -14 27t-39 10t-40 -10
t-15 -26q0 -19 15 -30.5t39 -11.5t39 11.5t15 29.5zM201 574l-4 -42q36 13 84 13q80 0 124.5 -35t44.5 -99q0 -69 -52.5 -105.5t-151.5 -36.5q-94 0 -148 33t-62 95h163q7 -19 43 -19q21 0 32.5 9t11.5 25q0 34 -44 34q-28 0 -43 -12h-151l26 257h346v-117h-219z" />
    <glyph glyph-name="oneseventh" unicode="&#x2150;" horiz-adv-x="1222" 
d="M284 0l385 691h215l-385 -691h-215zM846 0q28 78 66.5 150.5t80.5 126.5h-215v132h403v-109q-53 -73 -90.5 -145t-66.5 -155h-178zM217 282v242l-97 -61l-70 111l185 117h156v-409h-174z" />
    <glyph glyph-name="twosevenths" unicode="&#xf507;" horiz-adv-x="1222" 
d="M309 0l385 691h215l-385 -691h-215zM846 0q28 78 66.5 150.5t80.5 126.5h-215v132h403v-109q-53 -73 -90.5 -145t-66.5 -155h-178zM49 282v111q42 23 126 73q53 31 73 44.5t26.5 22.5t6.5 20q0 29 -36 29q-19 0 -29.5 -8.5t-15.5 -27.5l-161 11q29 147 218 147
q91 0 142 -36t51 -99q0 -36 -29 -69.5t-92 -70.5l-41 -24h170l-13 -123h-396z" />
    <glyph glyph-name="threesevenths" unicode="&#xf508;" horiz-adv-x="1222" 
d="M301 0l385 691h215l-385 -691h-215zM846 0q28 78 66.5 150.5t80.5 126.5h-215v132h403v-109q-53 -73 -90.5 -145t-66.5 -155h-178zM210 439v102h37q19 0 30 7t11 19t-12 19t-33 7q-23 0 -34.5 -7t-15.5 -25l-157 10q20 70 71.5 101.5t145.5 31.5q92 0 145.5 -33t53.5 -91
q0 -55 -63 -81q36 -14 55.5 -39.5t19.5 -59.5q0 -62 -57 -96.5t-157 -34.5q-107 0 -163.5 40.5t-57.5 117.5h159q3 -47 56 -47q26 0 38.5 7t12.5 23q0 13 -13 21t-33 8h-39z" />
    <glyph glyph-name="foursevenths" unicode="&#xf509;" horiz-adv-x="1222" 
d="M301 0l385 691h215l-385 -691h-215zM846 0q28 78 66.5 150.5t80.5 126.5h-215v132h403v-109q-53 -73 -90.5 -145t-66.5 -155h-178zM255 282v63h-232v115l206 231h178v-235h63l-12 -111h-51v-63h-152zM255 566l-97 -110h97v110z" />
    <glyph glyph-name="fivesevenths" unicode="&#xf50a;" horiz-adv-x="1222" 
d="M292 0l385 691h215l-385 -691h-215zM846 0q28 78 66.5 150.5t80.5 126.5h-215v132h403v-109q-53 -73 -90.5 -145t-66.5 -155h-178zM201 574l-4 -42q36 13 84 13q80 0 124.5 -35t44.5 -99q0 -69 -52.5 -105.5t-151.5 -36.5q-94 0 -148 33t-62 95h163q7 -19 43 -19
q21 0 32.5 9t11.5 25q0 34 -44 34q-28 0 -43 -12h-151l26 257h346v-117h-219z" />
    <glyph glyph-name="sixsevenths" unicode="&#xf50b;" horiz-adv-x="1222" 
d="M290 0l385 691h215l-385 -691h-215zM846 0q28 78 66.5 150.5t80.5 126.5h-215v132h403v-109q-53 -73 -90.5 -145t-66.5 -155h-178zM299 570q-4 10 -14 15t-29 5q-64 0 -69 -66q28 20 102 20q82 0 124.5 -34t42.5 -99t-56.5 -103.5t-153.5 -38.5q-105 0 -158.5 52
t-53.5 155q0 107 60.5 167.5t166.5 60.5q79 0 127 -32t59 -92zM301 419q0 17 -14 27t-39 10t-40 -10t-15 -26q0 -19 15 -30.5t39 -11.5t39 11.5t15 29.5z" />
    <glyph glyph-name="oneeighth" unicode="&#x215b;" horiz-adv-x="1222" 
d="M297 0l385 691h215l-385 -691h-215zM1119 211q75 -28 75 -97q0 -62 -56.5 -94.5t-163.5 -32.5t-161.5 32t-54.5 94q0 71 75 98q-61 29 -61 90q0 57 54.5 89t151.5 32q95 0 148.5 -31.5t53.5 -87.5q0 -63 -61 -92zM1026 288q0 15 -12 21.5t-38 6.5q-27 0 -38.5 -6.5
t-11.5 -21.5q0 -16 11 -22.5t39 -6.5q27 0 38.5 6.5t11.5 22.5zM1033 124q0 18 -13.5 26t-43.5 8t-43.5 -8t-13.5 -26q0 -16 13.5 -23.5t42.5 -7.5q31 0 44.5 7.5t13.5 23.5zM217 282v242l-97 -61l-70 111l185 117h156v-409h-174z" />
    <glyph glyph-name="threeeighths" unicode="&#x215c;" horiz-adv-x="1222" 
d="M313 0l385 691h215l-385 -691h-215zM1119 211q75 -28 75 -97q0 -62 -56.5 -94.5t-163.5 -32.5t-161.5 32t-54.5 94q0 71 75 98q-61 29 -61 90q0 57 54.5 89t151.5 32q95 0 148.5 -31.5t53.5 -87.5q0 -63 -61 -92zM1026 288q0 15 -12 21.5t-38 6.5q-27 0 -38.5 -6.5
t-11.5 -21.5q0 -16 11 -22.5t39 -6.5q27 0 38.5 6.5t11.5 22.5zM1033 124q0 18 -13.5 26t-43.5 8t-43.5 -8t-13.5 -26q0 -16 13.5 -23.5t42.5 -7.5q31 0 44.5 7.5t13.5 23.5zM210 439v102h37q19 0 30 7t11 19t-12 19t-33 7q-23 0 -34.5 -7t-15.5 -25l-157 10
q20 70 71.5 101.5t145.5 31.5q92 0 145.5 -33t53.5 -91q0 -55 -63 -81q36 -14 55.5 -39.5t19.5 -59.5q0 -62 -57 -96.5t-157 -34.5q-107 0 -163.5 40.5t-57.5 117.5h159q3 -47 56 -47q26 0 38.5 7t12.5 23q0 13 -13 21t-33 8h-39z" />
    <glyph glyph-name="fiveeighths" unicode="&#x215d;" horiz-adv-x="1222" 
d="M309 0l385 691h215l-385 -691h-215zM1119 211q75 -28 75 -97q0 -62 -56.5 -94.5t-163.5 -32.5t-161.5 32t-54.5 94q0 71 75 98q-61 29 -61 90q0 57 54.5 89t151.5 32q95 0 148.5 -31.5t53.5 -87.5q0 -63 -61 -92zM1026 288q0 15 -12 21.5t-38 6.5q-27 0 -38.5 -6.5
t-11.5 -21.5q0 -16 11 -22.5t39 -6.5q27 0 38.5 6.5t11.5 22.5zM1033 124q0 18 -13.5 26t-43.5 8t-43.5 -8t-13.5 -26q0 -16 13.5 -23.5t42.5 -7.5q31 0 44.5 7.5t13.5 23.5zM201 574l-4 -42q36 13 84 13q80 0 124.5 -35t44.5 -99q0 -69 -52.5 -105.5t-151.5 -36.5
q-94 0 -148 33t-62 95h163q7 -19 43 -19q21 0 32.5 9t11.5 25q0 34 -44 34q-28 0 -43 -12h-151l26 257h346v-117h-219z" />
    <glyph glyph-name="seveneighths" unicode="&#x215e;" horiz-adv-x="1222" 
d="M279 0l385 691h215l-385 -691h-215zM1119 211q75 -28 75 -97q0 -62 -56.5 -94.5t-163.5 -32.5t-161.5 32t-54.5 94q0 71 75 98q-61 29 -61 90q0 57 54.5 89t151.5 32q95 0 148.5 -31.5t53.5 -87.5q0 -63 -61 -92zM1026 288q0 15 -12 21.5t-38 6.5q-27 0 -38.5 -6.5
t-11.5 -21.5q0 -16 11 -22.5t39 -6.5q27 0 38.5 6.5t11.5 22.5zM1033 124q0 18 -13.5 26t-43.5 8t-43.5 -8t-13.5 -26q0 -16 13.5 -23.5t42.5 -7.5q31 0 44.5 7.5t13.5 23.5zM116 282q28 78 66.5 150.5t80.5 126.5h-215v132h403v-109q-53 -73 -90.5 -145t-66.5 -155h-178z
" />
    <glyph glyph-name="oneninth" unicode="&#x2151;" horiz-adv-x="1222" 
d="M295 0l385 691h215l-385 -691h-215zM932 117q4 -8 13 -11.5t27 -3.5q31 0 45 15t17 50q-28 -20 -103 -20q-81 0 -122.5 33.5t-41.5 98.5q0 64 56.5 103.5t148.5 39.5q214 0 214 -216q0 -106 -55.5 -162.5t-159.5 -56.5q-86 0 -139 34t-64 96h164zM1027 271q0 19 -15 30.5
t-39 11.5t-39 -11.5t-15 -29.5q0 -17 14 -27t39 -10t40 9.5t15 26.5zM217 282v242l-97 -61l-70 111l185 117h156v-409h-174z" />
    <glyph glyph-name="twoninths" unicode="&#xf50d;" horiz-adv-x="1222" 
d="M324 0l385 691h215l-385 -691h-215zM932 117q4 -8 13 -11.5t27 -3.5q31 0 45 15t17 50q-28 -20 -103 -20q-81 0 -122.5 33.5t-41.5 98.5q0 64 56.5 103.5t148.5 39.5q214 0 214 -216q0 -106 -55.5 -162.5t-159.5 -56.5q-86 0 -139 34t-64 96h164zM1027 271q0 19 -15 30.5
t-39 11.5t-39 -11.5t-15 -29.5q0 -17 14 -27t39 -10t40 9.5t15 26.5zM49 282v111q42 23 126 73q53 31 73 44.5t26.5 22.5t6.5 20q0 29 -36 29q-19 0 -29.5 -8.5t-15.5 -27.5l-161 11q29 147 218 147q91 0 142 -36t51 -99q0 -36 -29 -69.5t-92 -70.5l-41 -24h170l-13 -123
h-396z" />
    <glyph glyph-name="fourninths" unicode="&#xf50e;" horiz-adv-x="1222" 
d="M319 0l385 691h215l-385 -691h-215zM932 117q4 -8 13 -11.5t27 -3.5q31 0 45 15t17 50q-28 -20 -103 -20q-81 0 -122.5 33.5t-41.5 98.5q0 64 56.5 103.5t148.5 39.5q214 0 214 -216q0 -106 -55.5 -162.5t-159.5 -56.5q-86 0 -139 34t-64 96h164zM1027 271q0 19 -15 30.5
t-39 11.5t-39 -11.5t-15 -29.5q0 -17 14 -27t39 -10t40 9.5t15 26.5zM255 282v63h-232v115l206 231h178v-235h63l-12 -111h-51v-63h-152zM255 566l-97 -110h97v110z" />
    <glyph glyph-name="fiveninths" unicode="&#xf50f;" horiz-adv-x="1222" 
d="M306 0l385 691h215l-385 -691h-215zM932 117q4 -8 13 -11.5t27 -3.5q31 0 45 15t17 50q-28 -20 -103 -20q-81 0 -122.5 33.5t-41.5 98.5q0 64 56.5 103.5t148.5 39.5q214 0 214 -216q0 -106 -55.5 -162.5t-159.5 -56.5q-86 0 -139 34t-64 96h164zM1027 271q0 19 -15 30.5
t-39 11.5t-39 -11.5t-15 -29.5q0 -17 14 -27t39 -10t40 9.5t15 26.5zM201 574l-4 -42q36 13 84 13q80 0 124.5 -35t44.5 -99q0 -69 -52.5 -105.5t-151.5 -36.5q-94 0 -148 33t-62 95h163q7 -19 43 -19q21 0 32.5 9t11.5 25q0 34 -44 34q-28 0 -43 -12h-151l26 257h346v-117
h-219z" />
    <glyph glyph-name="sevenninths" unicode="&#xf510;" horiz-adv-x="1222" 
d="M276 0l385 691h215l-385 -691h-215zM932 117q4 -8 13 -11.5t27 -3.5q31 0 45 15t17 50q-28 -20 -103 -20q-81 0 -122.5 33.5t-41.5 98.5q0 64 56.5 103.5t148.5 39.5q214 0 214 -216q0 -106 -55.5 -162.5t-159.5 -56.5q-86 0 -139 34t-64 96h164zM1027 271q0 19 -15 30.5
t-39 11.5t-39 -11.5t-15 -29.5q0 -17 14 -27t39 -10t40 9.5t15 26.5zM116 282q28 78 66.5 150.5t80.5 126.5h-215v132h403v-109q-53 -73 -90.5 -145t-66.5 -155h-178z" />
    <glyph glyph-name="eightninths" unicode="&#xf511;" horiz-adv-x="1222" 
d="M317 0l385 691h215l-385 -691h-215zM932 117q4 -8 13 -11.5t27 -3.5q31 0 45 15t17 50q-28 -20 -103 -20q-81 0 -122.5 33.5t-41.5 98.5q0 64 56.5 103.5t148.5 39.5q214 0 214 -216q0 -106 -55.5 -162.5t-159.5 -56.5q-86 0 -139 34t-64 96h164zM1027 271q0 19 -15 30.5
t-39 11.5t-39 -11.5t-15 -29.5q0 -17 14 -27t39 -10t40 9.5t15 26.5zM389 493q75 -28 75 -97q0 -62 -56.5 -94.5t-163.5 -32.5t-161.5 32t-54.5 94q0 71 75 98q-61 29 -61 90q0 57 54.5 89t151.5 32q95 0 148.5 -31.5t53.5 -87.5q0 -63 -61 -92zM296 570q0 15 -12 21.5
t-38 6.5q-27 0 -38.5 -6.5t-11.5 -21.5q0 -16 11 -22.5t39 -6.5q27 0 38.5 6.5t11.5 22.5zM303 406q0 18 -13.5 26t-43.5 8t-43.5 -8t-13.5 -26q0 -16 13.5 -23.5t42.5 -7.5q31 0 44.5 7.5t13.5 23.5z" />
    <glyph glyph-name="dollar" unicode="$" horiz-adv-x="700" 
d="M316 -128v112q-290 17 -308 260h225q9 -74 83 -94v111l-37 7q-130 24 -192.5 76.5t-62.5 137.5q0 104 76 163t216 65v99h68v-99q266 -15 291 -229l-221 -18q-6 35 -22 54t-48 27v-99l47 -9q133 -26 196 -80t63 -143q0 -107 -80 -167t-226 -63v-111h-68zM384 254v-109
q39 2 60.5 16t21.5 37q0 24 -17 36t-59 19zM316 549q-36 -1 -55.5 -13.5t-19.5 -35.5q0 -20 16 -30.5t53 -16.5l6 -1v97z" />
    <glyph glyph-name="cent" unicode="&#xa2;" horiz-adv-x="700" 
d="M330 -16v103q-146 8 -224.5 79.5t-78.5 195.5q0 127 78.5 200t224.5 83v99h68v-99q118 -8 188 -61t85 -147l-214 -20q-9 55 -59 61v-224q58 7 65 64h217q-29 -214 -282 -231v-103h-68zM330 475q-37 -8 -53.5 -34t-16.5 -76q0 -48 16.5 -73.5t53.5 -34.5v218z" />
    <glyph glyph-name="sterling" unicode="&#xa3;" horiz-adv-x="700" 
d="M52 0v147q43 32 59.5 55.5t16.5 53.5h-102v162h75q-10 29 -10 65q0 106 79.5 166.5t218.5 60.5q86 0 150.5 -26t101 -76t40.5 -121l-220 -20q-6 36 -23 51t-52 15q-69 0 -69 -68q0 -17 10 -47h232v-162h-213q-3 -43 -43 -70h395l-21 -186h-625z" />
    <glyph glyph-name="yen" unicode="&#xa5;" horiz-adv-x="700" 
d="M468 115v-115h-236v115h-187v97h187v51h-187v97h145l-187 331h248l102 -224l103 224h241l-187 -331h145v-97h-187v-51h187v-97h-187z" />
    <glyph glyph-name="Euro" unicode="&#x20ac;" horiz-adv-x="700" 
d="M705 200q-20 -106 -100 -162t-211 -56t-208 64.5t-97 192.5h-86l19 88h62v41h-81l19 88h72q45 254 310 254q127 0 199.5 -48.5t94.5 -146.5l-230 -23q-9 23 -24.5 33t-43.5 10q-31 0 -49.5 -19t-26.5 -60h223l-19 -88h-212v-41h205l-19 -88h-181q7 -42 26 -62t52 -20
q27 0 44 10.5t27 32.5h235z" />
    <glyph glyph-name="uni20B9" unicode="&#x20b9;" horiz-adv-x="700" 
d="M334 0l-257 214v113h137q58 0 92.5 14.5t41.5 42.5h-271v121h268q-11 30 -40 41.5t-91 11.5h-137v133h599l-15 -121h-119q22 -29 31 -65h81l-15 -121h-61q-9 -66 -55.5 -110.5t-125.5 -63.5l243 -210h-306z" />
    <glyph glyph-name="uni20BA" unicode="&#x20ba;" horiz-adv-x="700" 
d="M685 313q-14 -152 -116 -232.5t-280 -80.5h-193v274l-56 -17l-29 89l85 26v46l-56 -17l-29 89l85 26v175h243v-103l136 42l29 -89l-165 -51v-46l136 42l29 -89l-165 -51v-151h6q40 0 69.5 33t34.5 85h236z" />
    <glyph glyph-name="currency" unicode="&#xa4;" horiz-adv-x="700" 
d="M516 6l-66 78q-40 -18 -100 -18t-100 18l-66 -78l-142 123l68 77q-30 54 -30 121t30 121l-68 77l142 123l66 -78q40 18 100 18t100 -18l66 78l142 -123l-68 -77q30 -54 30 -121t-30 -121l68 -77zM350 212q93 0 93 115t-93 115t-93 -115t93 -115z" />
    <glyph glyph-name="asciicircum" unicode="^" horiz-adv-x="700" 
d="M448 278l-100 209l-100 -209h-234l231 436h210l231 -436h-238z" />
    <glyph glyph-name="plus" unicode="+" horiz-adv-x="700" 
d="M241 54v188h-183v197h183v188h218v-188h183v-197h-183v-188h-218z" />
    <glyph glyph-name="minus" unicode="&#x2212;" horiz-adv-x="700" 
d="M80 239v203h540v-203h-540z" />
    <glyph glyph-name="plusminus" unicode="&#xb1;" horiz-adv-x="700" 
d="M80 0v183h161v98h-177v183h177v182h218v-182h177v-183h-177v-98h161v-183h-540z" />
    <glyph glyph-name="equal" unicode="=" horiz-adv-x="700" 
d="M80 119v189h540v-189h-540zM80 375v189h540v-189h-540z" />
    <glyph glyph-name="notequal" unicode="&#x2260;" horiz-adv-x="700" 
d="M321 119l-50 -93h-176l50 93h-65v189h165l35 67h-200v189h299l50 93h176l-50 -93h65v-189h-165l-35 -67h200v-189h-299z" />
    <glyph glyph-name="divide" unicode="&#xf7;" horiz-adv-x="700" 
d="M58 242v197h584v-197h-584zM251 36v148h198v-148h-198zM251 497v148h198v-148h-198z" />
    <glyph glyph-name="less" unicode="&#x3c;" horiz-adv-x="700" 
d="M72 245v191l540 200v-200l-272 -93l272 -93v-205z" />
    <glyph glyph-name="greater" unicode="&#x3e;" horiz-adv-x="700" 
d="M88 44v200l272 93l-272 93v205l540 -200v-191z" />
    <glyph glyph-name="lessequal" unicode="&#x2264;" horiz-adv-x="700" 
d="M72 363v191l540 156v-178l-321 -71l321 -72v-182zM72 0v173h540v-173h-540z" />
    <glyph glyph-name="greaterequal" unicode="&#x2265;" horiz-adv-x="700" 
d="M88 207v178l321 71l-321 72v182l540 -156v-191zM88 0v173h540v-173h-540z" />
    <glyph glyph-name="asciitilde" unicode="~" horiz-adv-x="700" 
d="M696 475q0 -279 -220 -279q-44 0 -80.5 11t-75.5 35q-44 27 -68 27q-23 0 -35.5 -17t-12.5 -48h-200q0 279 220 279q44 0 80.5 -11t75.5 -35q44 -27 68 -27q23 0 35.5 17t12.5 48h200z" />
    <glyph glyph-name="approxequal" unicode="&#x2248;" horiz-adv-x="700" 
d="M696 308q0 -265 -220 -265q-43 0 -79.5 10.5t-76.5 33.5q-25 14 -40 20t-28 6q-23 0 -35.5 -16t-12.5 -46h-200q0 265 220 265q43 0 79.5 -10.5t76.5 -33.5q25 -14 40 -20t28 -6q23 0 35.5 16t12.5 46h200zM696 609q0 -265 -220 -265q-43 0 -79.5 10.5t-76.5 33.5
q-25 14 -40 20t-28 6q-23 0 -35.5 -16t-12.5 -46h-200q0 265 220 265q43 0 79.5 -10.5t76.5 -33.5q25 -14 40 -20t28 -6q23 0 35.5 16t12.5 46h200z" />
    <glyph glyph-name="multiply" unicode="&#xd7;" horiz-adv-x="700" 
d="M350 201l-133 -133l-141 141l133 133l-133 133l141 141l133 -133l133 133l141 -141l-133 -133l133 -133l-141 -141z" />
    <glyph glyph-name="underscore" unicode="_" horiz-adv-x="610" 
d="M0 -175v52h610v-52h-610z" />
    <glyph glyph-name="section" unicode="&#xa7;" horiz-adv-x="705" 
d="M267 130q-83 15 -132 37t-71.5 53.5t-22.5 75.5q0 92 83 126q-79 40 -79 123q0 91 79 139t230 48q143 0 222 -44.5t97 -135.5l-227 -17q-8 29 -30.5 42.5t-61.5 13.5q-44 0 -64 -10t-20 -31q0 -16 16.5 -26.5t51.5 -15.5l86 -15q98 -18 150.5 -40t74 -54t21.5 -79
q0 -41 -21.5 -73.5t-64.5 -53.5q93 -42 93 -129q0 -91 -78.5 -138t-229.5 -47q-326 0 -345 202h232q7 -33 31.5 -47t75.5 -14q43 0 63 11t20 36q0 17 -15.5 26.5t-54.5 16.5zM367 261q21 -4 40 -4q30 0 46.5 11.5t16.5 32.5q0 17 -16 27.5t-53 17.5l-57 11q-21 4 -40 4
q-30 0 -46.5 -11.5t-16.5 -32.5q0 -17 15 -27.5t54 -17.5z" />
    <glyph glyph-name="degree" unicode="&#xb0;" horiz-adv-x="444" 
d="M416 524q0 -53 -24 -96t-68.5 -68.5t-101.5 -25.5q-54 0 -98 23.5t-70 67t-26 99.5q0 53 24 96t68.5 68.5t101.5 25.5q54 0 98 -23.5t70 -67t26 -99.5zM222 467q25 0 39.5 15.5t14.5 41.5t-14.5 41.5t-39.5 15.5t-39.5 -15.5t-14.5 -41.5t14.5 -41.5t39.5 -15.5z" />
    <glyph glyph-name="mu" unicode="&#xb5;" horiz-adv-x="762" 
d="M462 0v74q-48 -75 -117 -75q-19 0 -39 5v-198h-243v722h243v-301q0 -64 62 -64q33 0 60 24q28 25 28 55v286h243v-528h-237z" />
    <glyph glyph-name="paragraph" unicode="&#xb6;" horiz-adv-x="885" 
d="M597 -139v682h-85v-682h-212v343q-281 27 -281 248q0 136 89 199t282 63h419v-853h-212z" />
    <glyph glyph-name="numbersign" unicode="#" horiz-adv-x="700" 
d="M344 0l22 134h-104l-22 -134h-188l22 134h-64v163h92l16 97h-67v163h95l22 134h188l-22 -134h104l22 134h188l-22 -134h64v-163h-92l-16 -97h67v-163h-95l-22 -134h-188zM410 394h-104l-16 -97h104z" />
    <glyph glyph-name="bar" unicode="|" horiz-adv-x="365" 
d="M76 -124v858h213v-858h-213z" />
    <glyph glyph-name="brokenbar" unicode="&#xa6;" horiz-adv-x="365" 
d="M76 -124v353h213v-353h-213zM76 398v336h213v-336h-213z" />
    <glyph glyph-name="dagger" unicode="&#x2020;" horiz-adv-x="619" 
d="M188 -87v429h-176v206h176v166h243v-166h176v-206h-176v-429h-243z" />
    <glyph glyph-name="daggerdbl" unicode="&#x2021;" horiz-adv-x="639" 
d="M441 63v-150h-243v150h-176v201h176v99h-176v201h176v150h243v-150h176v-201h-176v-99h176v-201h-176z" />
    <glyph glyph-name="logicalnot" unicode="&#xac;" horiz-adv-x="700" 
d="M401 135v126h-335v197h553v-323h-218z" />
    <glyph glyph-name="ampersand" unicode="&#x26;" horiz-adv-x="877" 
d="M618 0l-28 26q-48 -22 -100.5 -32t-123.5 -10q-169 0 -257 55.5t-88 162.5q0 127 166 199q-36 40 -52 72t-16 67q0 57 32 100.5t92 67.5t141 24q118 0 187 -48t69 -130q0 -57 -39 -107.5t-111 -85.5l117 -107q14 22 20.5 50t6.5 69h199q0 -146 -84 -245l143 -128h-274z
M309 284q-55 -29 -55 -66q0 -35 35 -54t97 -19q30 0 63 9zM380 460q31 14 46 31.5t15 40.5q0 21 -15 33.5t-41 12.5q-28 0 -43.5 -11.5t-15.5 -32.5q0 -19 12.5 -36t41.5 -38z" />
    <glyph glyph-name="asterisk" unicode="*" horiz-adv-x="534" 
d="M335 235l-68 130l-68 -130l-145 111l111 99l-150 29l65 170l119 -72l-24 142h184l-24 -142l119 72l65 -170l-150 -29l111 -99z" />
    <glyph glyph-name="hyphen" unicode="-" horiz-adv-x="508" 
d="M38 200v204h432v-204h-432z" />
    <glyph glyph-name="endash" unicode="&#x2013;" horiz-adv-x="610" 
d="M0 205v194h610v-194h-610z" />
    <glyph glyph-name="emdash" unicode="&#x2014;" horiz-adv-x="1220" 
d="M0 205v194h1220v-194h-1220z" />
    <glyph glyph-name="parenleft" unicode="(" horiz-adv-x="456" 
d="M206 -124q-79 93 -119.5 201.5t-40.5 227.5t40.5 227.5t119.5 201.5h236q-72 -106 -106 -210.5t-34 -218.5t34 -218.5t106 -210.5h-236z" />
    <glyph glyph-name="parenright" unicode=")" horiz-adv-x="456" 
d="M14 -124q72 106 106 210.5t34 218.5t-34 218.5t-106 210.5h236q79 -93 119.5 -201.5t40.5 -227.5t-40.5 -227.5t-119.5 -201.5h-236z" />
    <glyph glyph-name="slash" unicode="/" horiz-adv-x="529" 
d="M6 0l287 734h230l-287 -734h-230z" />
    <glyph glyph-name="backslash" unicode="\" horiz-adv-x="529" 
d="M523 0h-230l-287 734h230z" />
    <glyph glyph-name="bracketleft" unicode="[" horiz-adv-x="482" 
d="M76 -124v858h386v-186h-141v-486h141v-186h-386z" />
    <glyph glyph-name="bracketright" unicode="]" horiz-adv-x="482" 
d="M406 -124h-386v186h141v486h-141v186h386v-858z" />
    <glyph glyph-name="braceleft" unicode="{" horiz-adv-x="494" 
d="M348 -124q-120 0 -179 50.5t-59 152.5v64q0 34 -19.5 52.5t-56.5 18.5h-14v182h14q38 2 57 20t19 51v64q0 102 59 152.5t179 50.5h132v-186h-77q-60 0 -60 -73v-49q0 -50 -24 -79.5t-74 -41.5q50 -12 74 -41.5t24 -79.5v-49q0 -73 60 -73h77v-186h-132z" />
    <glyph glyph-name="braceright" unicode="}" horiz-adv-x="494" 
d="M384 79q0 -102 -59 -152.5t-179 -50.5h-132v186h77q60 0 60 73v49q0 50 24 79.5t74 41.5q-50 12 -74 41.5t-24 79.5v49q0 73 -60 73h-77v186h132q120 0 179 -50.5t59 -152.5v-64q0 -33 19 -51t57 -20h14v-182h-14q-37 0 -56.5 -18.5t-19.5 -52.5v-64z" />
    <glyph glyph-name="bullet" unicode="&#x2022;" horiz-adv-x="451" 
d="M411 300q0 -51 -25 -90.5t-67 -60.5t-94 -21q-81 0 -133 48.5t-52 123.5t52 123.5t133 48.5q55 0 97.5 -23t65.5 -62t23 -87z" />
    <glyph glyph-name="guilsinglleft" unicode="&#x2039;" horiz-adv-x="469" 
d="M183 27l-149 229l149 231h246l-132 -228l134 -232h-248z" />
    <glyph glyph-name="guilsinglright" unicode="&#x203a;" horiz-adv-x="469" 
d="M40 27l132 228l-134 232h248l149 -229l-149 -231h-246z" />
    <glyph glyph-name="guillemotleft" unicode="&#xab;" horiz-adv-x="810" 
d="M183 27l-149 229l149 231h246l-132 -228l134 -232h-248zM524 27l-149 229l149 231h246l-132 -228l134 -232h-248z" />
    <glyph glyph-name="guillemotright" unicode="&#xbb;" horiz-adv-x="810" 
d="M40 27l132 228l-134 232h248l149 -229l-149 -231h-246zM381 27l132 228l-134 232h248l149 -229l-149 -231h-246z" />
    <glyph glyph-name="at" unicode="@" horiz-adv-x="1208" 
d="M979 -51q-57 -84 -172 -132t-261 -48q-154 0 -268 49.5t-176 145t-62 227.5q0 109 41.5 204t120.5 167.5t193 114t251 41.5q156 0 273.5 -48t183 -139t65.5 -216q0 -94 -38 -167.5t-108.5 -115.5t-163.5 -42q-57 0 -92 8.5t-57 27.5q-21 20 -33 52q-36 -51 -70.5 -69.5
t-89.5 -18.5q-90 0 -139.5 55t-49.5 153q0 74 32.5 137.5t90.5 103t130 39.5q40 0 70 -14t47 -39l9 44h198l-56 -279q-1 -13 -2 -19.5t-1 -9.5q0 -43 38 -43q55 0 90 53.5t35 138.5q0 134 -91 205t-264 71q-132 0 -233 -47.5t-158 -137t-57 -210.5q0 -141 92.5 -215.5
t267.5 -74.5q119 0 194 48h220zM650 241q2 12 2 26q0 29 -13 44.5t-36 15.5q-30 0 -49.5 -36t-19.5 -83q0 -32 11 -49.5t30 -17.5q29 0 48 20.5t24 58.5z" />
    <glyph glyph-name="periodcentered" unicode="&#xb7;" horiz-adv-x="342" 
d="M57 262v226h228v-226h-228z" />
    <glyph glyph-name="hyphen.case" horiz-adv-x="508" 
d="M38 259v204h432v-204h-432z" />
    <glyph glyph-name="endash.case" horiz-adv-x="610" 
d="M0 264v194h610v-194h-610z" />
    <glyph glyph-name="emdash.case" horiz-adv-x="1220" 
d="M0 264v194h1220v-194h-1220z" />
    <glyph glyph-name="parenleft.case" horiz-adv-x="456" 
d="M206 -72q-79 93 -119.5 201.5t-40.5 227.5t40.5 227.5t119.5 201.5h236q-72 -106 -106 -210.5t-34 -218.5t34 -218.5t106 -210.5h-236z" />
    <glyph glyph-name="parenright.case" horiz-adv-x="456" 
d="M14 -72q72 106 106 210.5t34 218.5t-34 218.5t-106 210.5h236q79 -93 119.5 -201.5t40.5 -227.5t-40.5 -227.5t-119.5 -201.5h-236z" />
    <glyph glyph-name="slash.case" horiz-adv-x="529" 
d="M6 -9l287 734h230l-287 -734h-230z" />
    <glyph glyph-name="backslash.case" horiz-adv-x="529" 
d="M523 -9h-230l-287 734h230z" />
    <glyph glyph-name="bracketleft.case" horiz-adv-x="482" 
d="M76 -72v858h386v-186h-141v-486h141v-186h-386z" />
    <glyph glyph-name="bracketright.case" horiz-adv-x="482" 
d="M406 -72h-386v186h141v486h-141v186h386v-858z" />
    <glyph glyph-name="braceleft.case" horiz-adv-x="494" 
d="M348 -72q-120 0 -179 50.5t-59 152.5v64q0 34 -19.5 52.5t-56.5 18.5h-14v182h14q38 2 57 20t19 51v64q0 102 59 152.5t179 50.5h132v-186h-77q-60 0 -60 -73v-49q0 -50 -24 -79.5t-74 -41.5q50 -12 74 -41.5t24 -79.5v-49q0 -73 60 -73h77v-186h-132z" />
    <glyph glyph-name="braceright.case" horiz-adv-x="494" 
d="M384 131q0 -102 -59 -152.5t-179 -50.5h-132v186h77q60 0 60 73v49q0 50 24 79.5t74 41.5q-50 12 -74 41.5t-24 79.5v49q0 73 -60 73h-77v186h132q120 0 179 -50.5t59 -152.5v-64q0 -33 19 -51t57 -20h14v-182h-14q-37 0 -56.5 -18.5t-19.5 -52.5v-64z" />
    <glyph glyph-name="bullet.case" horiz-adv-x="451" 
d="M411 357q0 -51 -25 -90.5t-67 -60.5t-94 -21q-81 0 -133 48.5t-52 123.5t52 123.5t133 48.5q55 0 97.5 -23t65.5 -62t23 -87z" />
    <glyph glyph-name="guilsinglleft.case" horiz-adv-x="469" 
d="M183 127l-149 229l149 231h246l-132 -228l134 -232h-248z" />
    <glyph glyph-name="guilsinglright.case" horiz-adv-x="469" 
d="M40 127l132 228l-134 232h248l149 -229l-149 -231h-246z" />
    <glyph glyph-name="guillemotleft.case" horiz-adv-x="810" 
d="M183 127l-149 229l149 231h246l-132 -228l134 -232h-248zM524 127l-149 229l149 231h246l-132 -228l134 -232h-248z" />
    <glyph glyph-name="guillemotright.case" horiz-adv-x="810" 
d="M40 127l132 228l-134 232h248l149 -229l-149 -231h-246zM381 127l132 228l-134 232h248l149 -229l-149 -231h-246z" />
    <glyph glyph-name="at.case" horiz-adv-x="1220" 
d="M985 59q-57 -84 -172 -132t-261 -48q-154 0 -268 49.5t-176 145t-62 227.5q0 109 41.5 204t120.5 167.5t193 114t251 41.5q156 0 273.5 -48t183 -139t65.5 -216q0 -94 -38 -167.5t-108.5 -115.5t-163.5 -42q-57 0 -92 8.5t-57 27.5q-21 20 -33 52q-36 -51 -70.5 -69.5
t-89.5 -18.5q-90 0 -139.5 55t-49.5 153q0 74 32.5 137.5t90.5 103t130 39.5q40 0 70 -14t47 -39l9 44h198l-56 -279q-1 -13 -2 -19.5t-1 -9.5q0 -43 38 -43q55 0 90 53.5t35 138.5q0 134 -91 205t-264 71q-132 0 -233 -47.5t-158 -137t-57 -210.5q0 -141 92.5 -215.5
t267.5 -74.5q119 0 194 48h220zM656 351q2 12 2 26q0 29 -13 44.5t-36 15.5q-30 0 -49.5 -36t-19.5 -83q0 -32 11 -49.5t30 -17.5q29 0 48 20.5t24 58.5z" />
    <glyph glyph-name="periodcentered.case" horiz-adv-x="342" 
d="M57 243v226h228v-226h-228z" />
    <glyph glyph-name="questiondown.case" horiz-adv-x="668" 
d="M662 226q-14 -118 -97.5 -178t-234.5 -60q-143 0 -222.5 51t-79.5 143q0 54 29 96.5t94 85.5q48 31 65 54t17 54v10h216v-19q0 -54 -21.5 -90.5t-77.5 -76.5q-50 -36 -63.5 -50t-13.5 -28q0 -21 17 -30.5t54 -9.5q41 0 64 16.5t29 50.5zM229 526v188h225v-188h-225z" />
    <glyph glyph-name="exclamdown.case" horiz-adv-x="381" 
d="M57 0l25 482h217l25 -482h-267zM78 526v188h225v-188h-225z" />
    <glyph glyph-name="uni2010" unicode="&#x2010;" horiz-adv-x="508" 
d="M38 200v204h432v-204h-432z" />
    <glyph glyph-name="uni2012" unicode="&#x2012;" horiz-adv-x="700" 
d="M45 251v194h610v-194h-610z" />
    <glyph glyph-name="uni2015" unicode="&#x2015;" horiz-adv-x="1220" 
d="M0 205v194h1220v-194h-1220z" />
    <glyph glyph-name="uni00AD" unicode="&#xad;" horiz-adv-x="508" 
d="M38 200v204h432v-204h-432z" />
    <glyph glyph-name="A" unicode="A" horiz-adv-x="916" 
d="M642 0l-38 105h-299l-37 -105h-260l296 714h308l296 -714h-266zM455 522l-83 -228h165z" />
    <glyph glyph-name="B" unicode="B" horiz-adv-x="852" 
d="M76 0v714h394q311 0 311 -185q0 -101 -112 -150q70 -23 104.5 -64.5t34.5 -104.5q0 -103 -81.5 -156.5t-237.5 -53.5h-413zM460 443q79 0 79 53q0 28 -19 39.5t-63 11.5h-147v-104h150zM466 167q53 0 75.5 15t22.5 48t-23.5 47.5t-76.5 14.5h-154v-125h156z" />
    <glyph glyph-name="C" unicode="C" horiz-adv-x="889" 
d="M867 277q-10 -139 -116 -217t-283 -78q-131 0 -225.5 43.5t-145.5 128.5t-51 203q0 113 50 198t145 131t230 46q161 0 256 -65t126 -196l-256 -26q-15 43 -44.5 62t-82.5 19q-77 0 -116.5 -43t-39.5 -126q0 -169 160 -169q117 0 136 89h257z" />
    <glyph glyph-name="D" unicode="D" horiz-adv-x="922" 
d="M76 0v714h350q224 0 337 -89.5t113 -267.5q0 -112 -52 -192t-153.5 -122.5t-246.5 -42.5h-348zM429 201q94 0 139.5 39t45.5 119q0 78 -45 116t-137 38h-102v-312h99z" />
    <glyph glyph-name="E" unicode="E" horiz-adv-x="785" 
d="M76 0v714h646v-183h-394v-80h374v-182h-374v-86h419l-21 -183h-650z" />
    <glyph glyph-name="F" unicode="F" horiz-adv-x="719" 
d="M334 229v-229h-258v714h616v-190h-358v-105h338v-190h-338z" />
    <glyph glyph-name="G" unicode="G" horiz-adv-x="926" 
d="M638 247h-136v177h372v-346q-157 -96 -364 -96q-224 0 -344 96t-120 275q0 115 50.5 200.5t148.5 132t234 46.5q159 0 259 -64t126 -180l-259 -22q-13 37 -43 53t-88 16q-84 0 -125 -43.5t-41 -132.5q0 -96 46 -138t153 -42q79 0 131 15v53z" />
    <glyph glyph-name="H" unicode="H" horiz-adv-x="933" 
d="M599 0v261h-265v-261h-258v714h258v-240h265v240h258v-714h-258z" />
    <glyph glyph-name="I" unicode="I" horiz-adv-x="410" 
d="M76 0v714h258v-714h-258z" />
    <glyph glyph-name="J" unicode="J" horiz-adv-x="818" 
d="M492 714h258v-407q0 -160 -92 -242.5t-270 -82.5q-171 0 -264.5 79t-100.5 229h259q8 -102 106 -102q104 0 104 98v428z" />
    <glyph glyph-name="K" unicode="K" horiz-adv-x="907" 
d="M605 0l-187 275l-84 -75v-200h-258v714h258v-244l250 244h287l-282 -275l308 -439h-292z" />
    <glyph glyph-name="L" unicode="L" horiz-adv-x="741" 
d="M76 0v714h258v-507h384l-24 -207h-618z" />
    <glyph glyph-name="M" unicode="M" horiz-adv-x="1092" 
d="M780 0v348l-144 -348h-185l-144 348v-348h-231v714h287l185 -433l185 433h283v-714h-236z" />
    <glyph glyph-name="N" unicode="N" horiz-adv-x="935" 
d="M633 0l-314 376v-376h-243v714h226l314 -376v376h243v-714h-226z" />
    <glyph glyph-name="O" unicode="O" horiz-adv-x="966" 
d="M920 357q0 -115 -51.5 -199.5t-150.5 -130t-238 -45.5q-133 0 -230.5 43.5t-150.5 128t-53 203.5q0 115 51.5 199.5t150.5 130t238 45.5q133 0 230.5 -43.5t150.5 -128t53 -203.5zM652 357q0 81 -44.5 125t-124.5 44t-124.5 -44t-44.5 -125t44.5 -125t124.5 -44t124.5 44
t44.5 125z" />
    <glyph glyph-name="P" unicode="P" horiz-adv-x="810" 
d="M76 0v714h361q170 0 253.5 -63.5t83.5 -192.5q0 -131 -86 -194t-263 -63h-101v-201h-248zM418 388q58 0 82 16t24 54q0 37 -24.5 53t-79.5 16h-96v-139h94z" />
    <glyph glyph-name="Q" unicode="Q" horiz-adv-x="966" 
d="M793 -113l-120 123q-87 -28 -193 -28q-133 0 -230.5 43.5t-150.5 128t-53 203.5q0 115 51.5 199.5t150.5 130t238 45.5q133 0 230.5 -43.5t150.5 -128t53 -203.5q0 -163 -100 -261l94 -95zM439 260l116 105l88 -91q13 37 13 83q0 81 -45.5 125t-127.5 44t-127.5 -44
t-45.5 -125q0 -83 45 -128.5t128 -45.5h15.5t14.5 1z" />
    <glyph glyph-name="R" unicode="R" horiz-adv-x="851" 
d="M572 0l-133 218h-123v-218h-240v714h379q337 0 337 -245q0 -73 -28.5 -122t-91.5 -80l174 -267h-274zM440 397q60 0 84 16t24 54q0 37 -24 52.5t-82 15.5h-126v-138h124z" />
    <glyph glyph-name="S" unicode="S" horiz-adv-x="806" 
d="M514 486q-13 38 -40.5 54t-78.5 16t-78.5 -11.5t-27.5 -33.5q0 -16 12.5 -24t46.5 -14l162 -27q145 -24 207.5 -76.5t62.5 -149.5q0 -238 -379 -238q-360 0 -383 259h253q16 -83 131 -83q123 0 123 53q0 17 -16.5 26.5t-52.5 15.5l-129 20q-148 23 -219 79.5t-71 151.5
q0 107 97.5 167.5t270.5 60.5q161 0 250.5 -56.5t103.5 -168.5z" />
    <glyph glyph-name="T" unicode="T" horiz-adv-x="786" 
d="M264 0v507h-253v207h764v-207h-253v-507h-258z" />
    <glyph glyph-name="U" unicode="U" horiz-adv-x="900" 
d="M574 714h258v-392q0 -174 -93.5 -257t-288.5 -83t-288.5 83t-93.5 257v392h258v-413q0 -59 29 -86t95 -27t95 27t29 86v413z" />
    <glyph glyph-name="V" unicode="V" horiz-adv-x="879" 
d="M282 0l-274 714h281l153 -471l154 471h275l-275 -714h-314z" />
    <glyph glyph-name="W" unicode="W" horiz-adv-x="1236" 
d="M725 0l-109 379l-109 -379h-269l-226 714h274l102 -425l118 420h230l118 -420l102 425h268l-226 -714h-273z" />
    <glyph glyph-name="X" unicode="X" horiz-adv-x="910" 
d="M601 0l-154 209l-154 -209h-285l283 371l-262 343h301l122 -178l130 178h285l-257 -336l292 -378h-301z" />
    <glyph glyph-name="Y" unicode="Y" horiz-adv-x="860" 
d="M301 0v262l-293 452h275l150 -252l151 252h268l-293 -452v-262h-258z" />
    <glyph glyph-name="Z" unicode="Z" horiz-adv-x="783" 
d="M38 0v176l361 343h-352v195h681v-176l-361 -343h388l-22 -195h-695z" />
    <glyph glyph-name="a" unicode="a" horiz-adv-x="723" 
d="M445 0v55q-41 -37 -87 -54t-107 -17q-104 0 -161.5 42.5t-57.5 120.5q0 173 304 180l100 2v22q0 23 -19.5 36t-53.5 13q-67 0 -81 -40l-216 14q31 170 304 170q294 0 294 -219v-325h-219zM436 213l-79 -2q-52 -2 -76.5 -13.5t-24.5 -34.5q0 -37 66 -37q56 0 88 25
q26 20 26 53v9z" />
    <glyph glyph-name="b" unicode="b" horiz-adv-x="780" 
d="M63 0v714h243v-240q67 70 186 70q71 0 127 -33t88.5 -94.5t32.5 -143.5q0 -84 -32.5 -149.5t-93.5 -102.5t-144 -37q-110 0 -170 70v-54h-237zM305 258q0 -47 26 -73q25 -25 71 -25t70 27t24 78q0 103 -93 103q-46 0 -72 -25q-26 -23 -26 -68v-17z" />
    <glyph glyph-name="c" unicode="c" horiz-adv-x="705" 
d="M677 216q-9 -74 -47.5 -126t-104 -79t-157.5 -27q-159 0 -243.5 72t-84.5 204q0 133 87.5 208.5t242.5 75.5q127 0 204 -55t94 -154l-223 -21q-6 28 -23 41.5t-48 13.5q-44 0 -67 -26.5t-23 -78.5t23 -78.5t67 -26.5q71 0 77 57h226z" />
    <glyph glyph-name="d" unicode="d" horiz-adv-x="780" 
d="M480 0v60q-70 -76 -192 -76q-71 0 -127 33t-88.5 94.5t-32.5 143.5q0 84 32.5 149.5t93.5 102.5t144 37q106 0 164 -63v233h243v-714h-237zM475 270q0 47 -26 73q-25 25 -71 25t-70 -27t-24 -78q0 -103 93 -103q46 0 72 25q26 23 26 68v17z" />
    <glyph glyph-name="e" unicode="e" horiz-adv-x="729" 
d="M268 215q4 -42 29 -61.5t75 -19.5q73 0 89 40h223q-42 -190 -318 -190q-156 0 -241 70.5t-85 202.5q0 63 22 115.5t65 91t105 59.5t140 21q152 0 234.5 -73t82.5 -207v-49h-421zM466 325q-2 36 -25 53.5t-71 17.5q-42 0 -68.5 -19t-31.5 -52h196z" />
    <glyph glyph-name="f" unicode="f" horiz-adv-x="543" 
d="M121 0v327h-100v171h100v9q0 101 67.5 158t188.5 57q89 0 174 -23l-32 -151q-42 9 -85 9q-70 0 -70 -53v-6h150v-171h-150v-327h-243z" />
    <glyph glyph-name="g" unicode="g" horiz-adv-x="780" 
d="M474 93q-33 -33 -78 -49t-108 -16q-71 0 -127 30.5t-88.5 87t-32.5 132.5t32.5 136.5t93.5 95t144 34.5q109 0 170 -66v50h237v-454q0 -143 -82.5 -211t-252.5 -68q-149 0 -227.5 48.5t-89.5 147.5h233q5 -23 24.5 -33.5t58.5 -10.5q48 0 70.5 24.5t22.5 76.5v45z
M475 286q0 40 -27 64q-24 21 -70 21t-70 -22.5t-24 -65.5q0 -86 93 -86q42 0 71 21q27 20 27 60v8z" />
    <glyph glyph-name="h" unicode="h" horiz-adv-x="764" 
d="M462 0v299q0 66 -65 66q-37 0 -64 -25t-27 -56v-284h-243v714h243v-246q83 76 191 76q97 0 152.5 -53t55.5 -146v-345h-243z" />
    <glyph glyph-name="i" unicode="i" horiz-adv-x="369" 
d="M63 0v528h243v-528h-243zM63 589v140h243v-140h-243z" />
    <glyph glyph-name="j" unicode="j" horiz-adv-x="369" 
d="M-45 -32q40 -4 60 -4q29 0 38.5 10.5t9.5 40.5v513h243v-527q0 -110 -51 -158t-166 -48q-83 0 -165 21zM63 589v140h243v-140h-243z" />
    <glyph glyph-name="k" unicode="k" horiz-adv-x="775" 
d="M510 0l-144 227l-60 -46v-181h-243v714h243v-317l160 131h288l-222 -175l240 -353h-262z" />
    <glyph glyph-name="l" unicode="l" horiz-adv-x="369" 
d="M63 0v714h243v-714h-243z" />
    <glyph glyph-name="m" unicode="m" horiz-adv-x="1113" 
d="M811 0v305q0 32 -12.5 46t-40.5 14q-32 0 -56 -24q-22 -22 -22 -52v-289h-243v305q0 32 -12.5 46t-40.5 14q-32 0 -56 -24q-22 -22 -22 -52v-289h-243v528h237v-66q80 82 185 82q58 0 102 -23t67 -66q80 89 205 89q91 0 143 -53t52 -146v-345h-243z" />
    <glyph glyph-name="n" unicode="n" horiz-adv-x="764" 
d="M462 0v299q0 66 -65 66q-37 0 -64 -25t-27 -56v-284h-243v528h237v-66q85 82 197 82q97 0 152.5 -53t55.5 -146v-345h-243z" />
    <glyph glyph-name="o" unicode="o" horiz-adv-x="752" 
d="M712 266q0 -133 -90 -207.5t-250 -74.5t-246 72t-86 206q0 133 90 207.5t250 74.5t246 -72t86 -206zM468 264q0 105 -92 105t-92 -105t92 -105t92 105z" />
    <glyph glyph-name="p" unicode="p" horiz-adv-x="780" 
d="M63 -194v722h237v-60q70 76 192 76q71 0 127 -33t88.5 -94.5t32.5 -143.5q0 -84 -32.5 -149.5t-93.5 -102.5t-144 -37q-105 0 -164 63v-241h-243zM305 258q0 -47 26 -73q25 -25 71 -25t70 27t24 78q0 103 -93 103q-46 0 -72 -25q-26 -23 -26 -68v-17z" />
    <glyph glyph-name="q" unicode="q" horiz-adv-x="780" 
d="M474 -194v248q-67 -70 -186 -70q-71 0 -127 33t-88.5 94.5t-32.5 143.5q0 84 32.5 149.5t93.5 102.5t144 37q110 0 170 -70v54h237v-722h-243zM475 270q0 47 -26 73q-25 25 -71 25t-70 -27t-24 -78q0 -103 93 -103q46 0 72 25q26 23 26 68v17z" />
    <glyph glyph-name="r" unicode="r" horiz-adv-x="560" 
d="M63 0v528h237v-67q73 76 180 76q33 0 66 -6l-27 -185q-37 6 -71 6q-33 0 -61.5 -7t-46.5 -20q-15 -11 -24.5 -27t-9.5 -33v-265h-243z" />
    <glyph glyph-name="s" unicode="s" horiz-adv-x="674" 
d="M419 361q-6 24 -25.5 35t-54.5 11q-71 0 -71 -33q0 -11 14 -17.5t51 -11.5l72 -10q93 -13 146.5 -34t77 -54t23.5 -83q0 -89 -75.5 -134.5t-224.5 -45.5q-156 0 -236 46.5t-88 139.5h228q7 -24 28.5 -34.5t64.5 -10.5q69 0 69 32q0 13 -13 19.5t-48 11.5l-67 10
q-131 20 -189.5 61t-58.5 114q0 82 78 126.5t220 44.5q135 0 209.5 -40t93.5 -124z" />
    <glyph glyph-name="t" unicode="t" horiz-adv-x="554" 
d="M533 17q-44 -14 -85.5 -20t-92.5 -6q-125 0 -179.5 49.5t-54.5 162.5v154h-100v171h100v137h243v-137h150v-171h-150v-131q0 -32 15.5 -46t52.5 -14q31 0 72 12z" />
    <glyph glyph-name="u" unicode="u" horiz-adv-x="758" 
d="M458 0v66q-85 -82 -194 -82q-95 0 -150 53t-55 146v345h243v-301q0 -64 62 -64q33 0 60 24q28 25 28 55v286h243v-528h-237z" />
    <glyph glyph-name="v" unicode="v" horiz-adv-x="711" 
d="M226 0l-220 528h250l102 -325l104 325h243l-220 -528h-259z" />
    <glyph glyph-name="w" unicode="w" horiz-adv-x="1009" 
d="M595 0l-87 259l-89 -259h-230l-181 528h237l81 -287l89 282h187l91 -277l79 282h229l-181 -528h-225z" />
    <glyph glyph-name="x" unicode="x" horiz-adv-x="731" 
d="M453 0l-90 120l-91 -120h-266l224 267l-204 261h269l74 -106l73 106h262l-202 -247l223 -281h-272z" />
    <glyph glyph-name="y" unicode="y" horiz-adv-x="720" 
d="M260 57l-254 471h257l104 -267l100 267h247l-259 -525q-44 -90 -79 -133t-75 -59t-99 -16q-85 0 -161 25l33 157q38 -11 80 -11q32 0 51.5 13t39.5 49z" />
    <glyph glyph-name="z" unicode="z" horiz-adv-x="640" 
d="M24 0v135l264 226h-258v167h569v-135l-264 -226h281l-18 -167h-574z" />
    <glyph glyph-name="trademark" unicode="&#x2122;" horiz-adv-x="1159" 
d="M155 314v271h-144v129h447v-129h-144v-271h-159zM948 314v203l-84 -203h-122l-84 203v-203h-140v400h187l102 -247l101 247h183v-400h-143z" />
    <glyph glyph-name="ordfeminine" unicode="&#xaa;" horiz-adv-x="553" 
d="M340 334v43q-52 -55 -147 -55q-78 0 -121 31t-43 88q0 123 227 129l74 2v17q0 17 -14 26.5t-40 9.5q-52 0 -60 -28l-161 11q24 124 226 124q219 0 219 -160v-238h-160zM330 490l-64 -2q-37 -2 -53 -10t-16 -25q0 -25 49 -25q19 0 36.5 4.5t28.5 11.5q19 13 19 39v7z" />
    <glyph glyph-name="ordmasculine" unicode="&#xba;" horiz-adv-x="582" 
d="M546 527q0 -100 -68 -155.5t-190 -55.5q-123 0 -187.5 53t-64.5 152q0 100 68 155.5t190 55.5q123 0 187.5 -53t64.5 -152zM364 524q0 75 -73 75t-73 -75t73 -75t73 75z" />
    <glyph glyph-name="afii61289" unicode="&#x2113;" horiz-adv-x="672" 
d="M662 85q-55 -56 -116.5 -79.5t-155.5 -23.5q-98 0 -163.5 31t-86.5 87l-71 -34l-57 119l103 50v234q0 122 74 193.5t199 71.5q112 0 176 -56t64 -154q0 -93 -67 -172.5t-205 -150.5q6 -25 25.5 -37t54.5 -12q66 0 127 48zM353 350q114 71 114 166q0 65 -52 65
q-30 0 -46 -25.5t-16 -73.5v-132z" />
    <glyph glyph-name="estimated" unicode="&#x212e;" horiz-adv-x="911" 
d="M775 129q-54 -66 -139 -103t-182 -37q-107 0 -198.5 46.5t-148.5 130t-57 186.5q0 95 51.5 178t145 135t207.5 52q107 0 199.5 -47t150 -131.5t57.5 -186.5v-10h-657q-5 0 -5 -4v-199q0 -13 9 -22q50 -53 113 -80.5t135 -27.5q75 0 141.5 31t119.5 89h58zM711 568
q0 14 -9 24q-50 50 -113.5 76.5t-132.5 26.5q-68 0 -132 -28t-115 -79q-10 -7 -10 -24v-195q0 -7 5 -7h503q4 0 4 7v199z" />
    <glyph glyph-name="copyright" unicode="&#xa9;" horiz-adv-x="900" 
d="M860 357q0 -105 -49.5 -185.5t-142.5 -126t-218 -45.5q-121 0 -213.5 43t-144.5 124t-52 190q0 105 49.5 185.5t142.5 126t218 45.5q121 0 213.5 -43t144.5 -124t52 -190zM750 357q0 121 -81 192.5t-219 71.5t-219 -71.5t-81 -192.5t81 -192.5t219 -71.5t219 71.5
t81 192.5zM682 324q-11 -80 -68 -123t-154 -43q-112 0 -174.5 52t-62.5 144q0 96 62.5 149.5t172.5 53.5q90 0 147 -39t71 -110l-161 -15q-9 40 -54 40q-34 0 -51.5 -19.5t-17.5 -56.5q0 -36 17.5 -55.5t51.5 -19.5q51 0 58 42h163z" />
    <glyph glyph-name="registered" unicode="&#xae;" horiz-adv-x="592" 
d="M560 507q0 -68 -31.5 -118.5t-91 -78.5t-141.5 -28q-79 0 -138.5 26.5t-92.5 77.5t-33 121q0 68 31.5 118.5t91 78.5t141.5 28q79 0 138.5 -26.5t92.5 -77.5t33 -121zM489 507q0 77 -50.5 119.5t-142.5 42.5t-142.5 -42.5t-50.5 -119.5t50.5 -119.5t142.5 -42.5
t142.5 42.5t50.5 119.5zM344 400l-36 62h-46v-62h-75v217h115q108 0 108 -77q0 -41 -36 -60l51 -80h-81zM301 521q34 0 34 19q0 10 -8.5 14t-26.5 4h-38v-37h39z" />
    <glyph glyph-name="partialdiff" unicode="&#x2202;" horiz-adv-x="709" 
d="M92 522q28 93 101.5 140.5t188.5 47.5q143 0 217 -79.5t74 -232.5q0 -87 -23 -164.5t-64 -131.5q-93 -120 -283 -120q-133 0 -208.5 61t-75.5 169q0 69 33.5 124t96.5 86.5t147 31.5q101 0 163 -43v15q0 55 -21 81t-66 26q-23 0 -36.5 -8t-24.5 -28zM430 235
q0 28 -25.5 43.5t-70.5 15.5q-47 0 -75.5 -19.5t-28.5 -52.5q0 -29 24 -46t67 -17q47 0 78 21.5t31 54.5z" />
    <glyph glyph-name="product" unicode="&#x220f;" horiz-adv-x="926" 
d="M592 0v501h-258v-501h-258v714h774v-714h-258z" />
    <glyph glyph-name="summation" unicode="&#x2211;" horiz-adv-x="779" 
d="M28 -102v140l240 270l-240 266v140h719v-195h-391l183 -204l-198 -222h419l-22 -195h-710z" />
    <glyph glyph-name="uni2215" unicode="&#x2215;" horiz-adv-x="170" 
d="M-215 0l385 691h215l-385 -691h-215z" />
    <glyph glyph-name="uni2219" unicode="&#x2219;" horiz-adv-x="342" 
d="M57 227v226h228v-226h-228z" />
    <glyph glyph-name="radical" unicode="&#x221a;" horiz-adv-x="828" 
d="M276 0l-122 255h-116v199h274l92 -222l193 499h243l-312 -731h-252z" />
    <glyph glyph-name="infinity" unicode="&#x221e;" horiz-adv-x="746" 
d="M373 218q-51 -74 -159 -74q-86 0 -136 54t-50 148t50 148t136 54q108 0 159 -74q51 74 159 74q86 0 136 -54t50 -148t-50 -148t-136 -54q-108 0 -159 74zM307 346q-16 52 -69 52q-27 0 -39 -12.5t-12 -39.5t12 -39.5t39 -12.5q53 0 69 52zM439 346q16 -52 69 -52
q27 0 39 12.5t12 39.5t-12 39.5t-39 12.5q-53 0 -69 -52z" />
    <glyph glyph-name="integral" unicode="&#x222b;" horiz-adv-x="459" 
d="M31 68q30 -9 65 -9q25 0 38.5 13.5t13.5 37.5q0 9 -2.5 22.5l-5.5 29.5l-48 250q-15 75 -15 108q0 96 61 149t168 53q82 0 153 -23l-31 -165q-30 9 -65 9q-25 0 -38.5 -13.5t-13.5 -37.5q0 -8 2.5 -22l5.5 -30l48 -250q15 -75 15 -108q0 -96 -61 -149t-168 -53
q-82 0 -153 23z" />
    <glyph glyph-name="lozenge" unicode="&#x25ca;" horiz-adv-x="794" 
d="M278 0l-246 357l246 357h238l246 -357l-246 -357h-238zM498 357l-101 147l-101 -147l101 -147z" />
    <glyph glyph-name="uni2206" unicode="&#x2206;" horiz-adv-x="904" 
d="M8 0l290 714h308l290 -714h-888zM449 522l-124 -333h246z" />
    <glyph glyph-name="uni2126" unicode="&#x2126;" horiz-adv-x="970" 
d="M537 0v179q56 31 81.5 75.5t25.5 111.5q0 82 -38.5 121t-120.5 39t-120.5 -39t-38.5 -121q0 -67 25.5 -111.5t81.5 -75.5v-179h-408v186h147q-60 45 -87 96.5t-27 119.5q0 99 50.5 173.5t147 115.5t229.5 41q128 0 224.5 -39t149.5 -114t53 -177q0 -68 -27 -119.5
t-87 -96.5h147l-21 -186h-387z" />
    <glyph glyph-name="quoteleft" unicode="&#x2018;" horiz-adv-x="321" 
d="M18 383l90 331h187l-44 -331h-233z" />
    <glyph glyph-name="quoteright" unicode="&#x2019;" horiz-adv-x="321" 
d="M28 383l44 331h233l-90 -331h-187z" />
    <glyph glyph-name="quotesinglbase" unicode="&#x201a;" horiz-adv-x="321" 
d="M28 -104l44 331h233l-90 -331h-187z" />
    <glyph glyph-name="quotedblleft" unicode="&#x201c;" horiz-adv-x="620" 
d="M18 383l90 331h187l-44 -331h-233zM317 383l90 331h187l-44 -331h-233z" />
    <glyph glyph-name="quotedblright" unicode="&#x201d;" horiz-adv-x="620" 
d="M27 383l44 331h233l-90 -331h-187zM325 383l44 331h233l-90 -331h-187z" />
    <glyph glyph-name="quotedblbase" unicode="&#x201e;" horiz-adv-x="620" 
d="M28 -104l44 331h233l-90 -331h-187zM327 -104l44 331h233l-90 -331h-187z" />
    <glyph glyph-name="minute" unicode="&#x2032;" horiz-adv-x="342" 
d="M35 443l51 271h221l-91 -271h-181z" />
    <glyph glyph-name="second" unicode="&#x2033;" horiz-adv-x="622" 
d="M35 443l51 271h221l-91 -271h-181zM315 443l51 271h221l-91 -271h-181z" />
    <glyph glyph-name="periodcentered.loclCAT" horiz-adv-x="342" 
d="M57 256v226h228v-226h-228z" />
    <glyph glyph-name="periodcentered.loclCAT.cap" horiz-adv-x="342" 
d="M57 330v226h228v-226h-228z" />
    <glyph glyph-name="uni02BC" unicode="&#x2bc;" horiz-adv-x="764" 
d="M242 383l50 331h231l-94 -331h-187z" />
    <glyph glyph-name="dotlessi" unicode="&#x131;" horiz-adv-x="369" 
d="M63 0v528h243v-528h-243z" />
    <glyph glyph-name="uni0237" unicode="&#x237;" horiz-adv-x="369" 
d="M63 528h243v-527q0 -110 -51 -158t-166 -48q-83 0 -165 21l31 152q40 -4 60 -4q29 0 38.5 10.5t9.5 40.5v513z" />
    <glyph glyph-name="i.locl" horiz-adv-x="369" 
d="M63 0v528h243v-528h-243zM63 589v140h243v-140h-243z" />
    <glyph glyph-name="IJ" unicode="&#x132;" horiz-adv-x="1228" 
d="M76 0v714h258v-714h-258zM902 714h258v-407q0 -160 -92 -242.5t-270 -82.5q-171 0 -264.5 79t-100.5 229h259q8 -102 106 -102q104 0 104 98v428z" />
    <glyph glyph-name="Ldot" unicode="&#x13f;" horiz-adv-x="741" 
d="M76 0v714h258v-507h384l-24 -207h-618zM459 330v226h228v-226h-228z" />
    <glyph glyph-name="ij" unicode="&#x133;" horiz-adv-x="738" 
d="M63 0v528h243v-528h-243zM63 589v140h243v-140h-243zM324 -32q40 -4 60 -4q29 0 38.5 10.5t9.5 40.5v513h243v-527q0 -110 -51 -158t-166 -48q-83 0 -165 21zM432 589v140h243v-140h-243z" />
    <glyph glyph-name="ldot" unicode="&#x140;" horiz-adv-x="637" 
d="M63 0v714h243v-714h-243zM390 256v226h228v-226h-228z" />
    <glyph glyph-name="napostrophe" unicode="&#x149;" horiz-adv-x="1004" 
d="M702 0v299q0 66 -65 66q-37 0 -64 -25t-27 -56v-284h-243v528h237v-66q85 82 197 82q97 0 152.5 -53t55.5 -146v-345h-243zM16 383l50 331h231l-94 -331h-187z" />
    <glyph glyph-name="fi" unicode="&#xfb01;" horiz-adv-x="912" 
d="M121 0v327h-100v171h100v9q0 101 67.5 158t188.5 57q89 0 174 -23l-32 -151q-42 9 -85 9q-70 0 -70 -53v-6h150v-171h-150v-327h-243zM606 0v528h243v-528h-243zM606 589v140h243v-140h-243z" />
    <glyph glyph-name="fl" unicode="&#xfb02;" horiz-adv-x="912" 
d="M121 0v327h-100v171h100v9q0 101 67.5 158t188.5 57q89 0 174 -23l-32 -151q-42 9 -85 9q-70 0 -70 -53v-6h150v-171h-150v-327h-243zM606 0v714h243v-714h-243z" />
    <glyph glyph-name="Thorn" unicode="&#xde;" horiz-adv-x="810" 
d="M324 104v-104h-248v714h248v-97h113q170 0 253.5 -63.5t83.5 -192.5q0 -131 -86 -194t-263 -63h-101zM418 291q58 0 82 16t24 54q0 37 -24.5 53t-79.5 16h-96v-139h94z" />
    <glyph glyph-name="AE" unicode="&#xc6;" horiz-adv-x="1345" 
d="M676 0v169h-284l-108 -169h-276l483 714h791v-183h-363v-80h343v-182h-343v-86h388l-21 -183h-610zM676 531h-51l-113 -176h164v176z" />
    <glyph glyph-name="OE" unicode="&#x152;" horiz-adv-x="1299" 
d="M631 0v35q-86 -53 -204 -53q-114 0 -200 44.5t-133.5 129t-47.5 201.5q0 113 45 197.5t131.5 131t204.5 46.5t204 -52v34h605v-183h-363v-80h343v-182h-343v-86h388l-21 -183h-609zM474 188q76 0 116.5 41t40.5 120v16q0 79 -40.5 120t-116.5 41q-75 0 -117.5 -44
t-42.5 -125t41.5 -125t118.5 -44z" />
    <glyph glyph-name="uni1E9E" unicode="&#x1e9e;" horiz-adv-x="1021" 
d="M591 257q-103 22 -145.5 55t-42.5 92q0 46 27.5 77.5t89.5 57.5h-109q-42 0 -61.5 -12.5t-27 -40.5t-7.5 -81v-405h-243v463q0 123 76.5 187t222.5 64h464v-137l-20 -8q-74 -30 -106.5 -46t-44 -28.5t-11.5 -29.5q0 -14 8 -22.5t27 -14.5t57 -14l51 -10
q110 -22 158 -71.5t48 -139.5q0 -61 -37.5 -108.5t-107.5 -75t-164 -27.5q-139 0 -222.5 60.5t-97.5 169.5h243q10 -58 76 -58q30 0 47.5 10.5t17.5 29.5q0 14 -8.5 21t-30 13.5t-59.5 14.5z" />
    <glyph glyph-name="thorn" unicode="&#xfe;" horiz-adv-x="780" 
d="M63 -194v908h243v-240q67 70 186 70q71 0 127 -33t88.5 -94.5t32.5 -143.5q0 -84 -32.5 -149.5t-93.5 -102.5t-144 -37q-105 0 -164 63v-241h-243zM305 258q0 -47 26 -73q25 -25 71 -25t70 27t24 78q0 103 -93 103q-46 0 -72 -25q-26 -23 -26 -68v-17z" />
    <glyph glyph-name="ae" unicode="&#xe6;" horiz-adv-x="1104" 
d="M653 215q4 -43 26.5 -62t70.5 -19q70 0 86 40h223q-42 -190 -315 -190q-157 0 -230 85q-27 -26 -62 -44q-78 -41 -201 -41q-104 0 -161.5 42.5t-57.5 120.5q0 173 304 180l94 2v24q0 22 -18 34.5t-49 12.5q-67 0 -81 -40l-216 14q31 170 304 170q126 0 190 -52
q79 52 190 52q150 0 232 -73t82 -207v-49h-411zM430 213l-73 -2q-52 -2 -76.5 -13.5t-24.5 -34.5q0 -37 66 -37q26 0 45.5 6t36.5 19q26 20 26 53v9zM841 325q-2 36 -25 53.5t-69 17.5q-40 0 -64 -18.5t-28 -52.5h186z" />
    <glyph glyph-name="oe" unicode="&#x153;" horiz-adv-x="1141" 
d="M690 215q4 -43 26.5 -62t70.5 -19q70 0 86 40h223q-42 -190 -315 -190q-125 0 -199 56q-79 -56 -210 -56q-160 0 -246 72t-86 206q0 133 90 207.5t250 74.5q130 0 210 -57q79 57 197 57q150 0 232 -73t82 -207v-49h-411zM376 159q42 0 64 27t22 78t-22 78t-64 27
q-92 0 -92 -105t92 -105zM878 325q-2 36 -25 53.5t-69 17.5q-40 0 -64 -18.5t-28 -52.5h186z" />
    <glyph glyph-name="germandbls" unicode="&#xdf;" horiz-adv-x="799" 
d="M369 164q25 -4 55 -4q52 0 74 14t22 46t-28 46t-95 14h-39v167h27q86 0 86 51q0 55 -84 55q-88 0 -88 -73v-480h-238v453q0 131 85 200t245 69q148 0 231 -50.5t83 -139.5q0 -90 -98 -135q72 -21 112 -70t40 -117q0 -108 -74 -167t-210 -59q-68 0 -130 14z" />
    <glyph glyph-name="longs" unicode="&#x17f;" horiz-adv-x="369" 
d="M63 0v507q0 101 67.5 158t188.5 57q89 0 174 -23l-35 -165q-42 9 -82 9q-70 0 -70 -53v-490h-243z" />
    <glyph glyph-name="kgreenlandic" unicode="&#x138;" horiz-adv-x="775" 
d="M507 0l-137 212l-64 -53v-159h-243v528h243v-147l168 147h280l-224 -186l242 -342h-265z" />
    <glyph glyph-name="Eng" unicode="&#x14a;" horiz-adv-x="935" 
d="M319 376v-376h-243v714h226l314 -372v372h243v-676q0 -127 -67.5 -185t-216.5 -58q-53 0 -106 7t-93 20l44 173q50 -13 105 -13q46 0 67 12t24 39z" />
    <glyph glyph-name="Eng.locl" horiz-adv-x="935" 
d="M601 430q0 51 -25 73.5t-82 22.5q-31 0 -61.5 -10.5t-53.5 -29.5q-43 -37 -43 -90v-396h-260v714h251v-85q100 103 259 103q128 0 200.5 -67.5t72.5 -184.5v-442q0 -127 -67.5 -185t-216.5 -58q-53 0 -106 7t-93 20l44 173q50 -13 105 -13q39 0 57.5 13t18.5 41v394z" />
    <glyph glyph-name="florin" unicode="&#x192;" horiz-adv-x="543" 
d="M121 327h-100v171h100v9q0 101 67.5 158t188.5 57q89 0 174 -23l-32 -151q-42 9 -85 9q-70 0 -70 -53v-6h150v-171h-150v-326q0 -109 -50.5 -157.5t-166.5 -48.5q-83 0 -165 21l31 152q42 -4 60 -4q19 0 29.5 4.5t14.5 14t4 32.5v312z" />
    <glyph glyph-name="eng" unicode="&#x14b;" horiz-adv-x="764" 
d="M462 299q0 66 -65 66q-37 0 -64 -25t-27 -56v-284h-243v528h237v-66q85 82 197 82q97 0 152.5 -53t55.5 -146v-344q0 -109 -50.5 -157.5t-166.5 -48.5q-83 0 -165 21l31 152q42 -4 60 -4q19 0 29.5 4.5t14.5 14t4 32.5v284z" />
    <glyph glyph-name="Eth" unicode="&#xd0;" horiz-adv-x="964" 
d="M118 0v267h-100v182h100v265h350q224 0 337 -89.5t113 -267.5q0 -112 -52 -192t-153.5 -122.5t-246.5 -42.5h-348zM364 267v-70h107q94 0 139.5 40t45.5 122q0 80 -44.5 119t-137.5 39h-110v-68h135v-182h-135z" />
    <glyph glyph-name="Dcroat" unicode="&#x110;" horiz-adv-x="964" 
d="M118 0v267h-100v182h100v265h350q224 0 337 -89.5t113 -267.5q0 -112 -52 -192t-153.5 -122.5t-246.5 -42.5h-348zM364 267v-70h107q94 0 139.5 40t45.5 122q0 80 -44.5 119t-137.5 39h-110v-68h135v-182h-135z" />
    <glyph glyph-name="Hbar" unicode="&#x126;" horiz-adv-x="1017" 
d="M647 0v223h-277v-223h-252v509h-100v143h100v62h252v-62h277v62h252v-62h100v-143h-100v-509h-252zM647 509h-277v-83h277v83z" />
    <glyph glyph-name="Tbar" unicode="&#x166;" horiz-adv-x="786" 
d="M264 0v192h-154v182h154v133h-253v207h764v-207h-253v-133h154v-182h-154v-192h-258z" />
    <glyph glyph-name="Lslash" unicode="&#x141;" horiz-adv-x="783" 
d="M118 0v196l-100 -49v204l100 49v314h258v-196l184 90v-204l-184 -90v-107h384l-24 -207h-618z" />
    <glyph glyph-name="Oslash" unicode="&#xd8;" horiz-adv-x="966" 
d="M114 0l59 71q-63 50 -95 122.5t-32 163.5q0 115 51.5 199.5t150.5 130t238 45.5q114 0 202 -32l68 83l96 -69l-59 -71q63 -50 95 -122.5t32 -163.5q0 -115 -51.5 -199.5t-150.5 -130t-238 -45.5q-114 0 -202 32l-68 -83zM545 525q-27 7 -62 7q-87 0 -133 -44.5
t-46 -130.5q0 -61 22 -99zM421 189q27 -7 62 -7q87 0 133 44.5t46 130.5q0 61 -22 99z" />
    <glyph glyph-name="eth" unicode="&#xf0;" horiz-adv-x="748" 
d="M505 681q100 -52 151.5 -143.5t51.5 -217.5q0 -166 -88.5 -251t-259.5 -85q-153 0 -236.5 62.5t-83.5 177.5q0 73 33.5 129.5t96.5 88t147 31.5q105 0 163 -48q-20 93 -109 134l-83 -71l-57 60l46 39q-37 9 -118 14l20 157q153 -9 243 -40l88 76l57 -60zM468 233
q0 33 -24 51.5t-68 18.5q-92 0 -92 -75q0 -74 92 -74q44 0 68 18t24 51v10z" />
    <glyph glyph-name="dcroat" unicode="&#x111;" horiz-adv-x="802" 
d="M480 0v60q-69 -76 -192 -76q-71 0 -127 30.5t-88.5 87.5t-32.5 133q0 77 32.5 138t93.5 95.5t144 34.5q102 0 164 -60v100h-180v118h180v53h243v-53h77v-118h-77v-543h-237zM475 247q0 42 -27 66q-24 21 -67 21q-97 0 -97 -91q0 -88 93 -88q40 0 71 21q27 21 27 60v11z
" />
    <glyph glyph-name="hbar" unicode="&#x127;" horiz-adv-x="786" 
d="M484 0v259q0 66 -65 66q-37 0 -64 -25t-27 -56v-244h-243v543h-77v118h77v53h243v-53h180v-118h-180v-115q83 76 191 76q97 0 152.5 -53t55.5 -146v-305h-243z" />
    <glyph glyph-name="tbar" unicode="&#x167;" horiz-adv-x="578" 
d="M545 17q-44 -14 -85.5 -20t-92.5 -6q-125 0 -179.5 49.5t-54.5 162.5v18h-100v118h100v48h-100v141h100v137h243v-137h150v-141h-150v-48h150v-118h-150q0 -29 16 -42t52 -13q31 0 72 12z" />
    <glyph glyph-name="lslash" unicode="&#x142;" horiz-adv-x="491" 
d="M124 0v245l-118 -51v182l118 51v287h243v-187l118 51v-182l-118 -51v-345h-243z" />
    <glyph glyph-name="oslash" unicode="&#xf8;" horiz-adv-x="752" 
d="M86 -7l48 57q-94 72 -94 212q0 133 90 207.5t250 74.5q82 0 147 -20l62 75l77 -64l-48 -57q46 -36 70 -89.5t24 -122.5q0 -133 -90 -207.5t-250 -74.5q-82 0 -147 20l-62 -75zM410 383q-15 3 -34 3q-57 0 -86 -31t-29 -91q0 -31 7 -52zM342 145q15 -3 34 -3q57 0 86 31
t29 91q0 31 -7 52z" />
    <glyph glyph-name="uni0327" unicode="&#x327;" horiz-adv-x="0" 
d="M-136 -126q40 -8 78 -8q56 0 56 18q0 10 -15 14.5t-53 4.5h-40l57 121l103 -24l-19 -42q64 -7 94.5 -29.5t30.5 -61.5q0 -46 -44.5 -70.5t-128.5 -24.5q-80 0 -119 13v89z" />
    <glyph glyph-name="uni0327.cap" horiz-adv-x="0" 
d="M-143 -129q43 -8 80 -8q32 0 46 4t14 14q0 11 -17 16t-56 5h-39l57 123l107 -25l-19 -42q64 -8 96 -31t32 -63q0 -46 -47 -71.5t-132 -25.5q-77 0 -122 14v90z" />
    <glyph glyph-name="cedilla" unicode="&#xb8;" horiz-adv-x="764" 
d="M236 -126q40 -8 78 -8q56 0 56 18q0 10 -15 14.5t-53 4.5h-40l57 121l103 -24l-19 -42q64 -7 94.5 -29.5t30.5 -61.5q0 -46 -44.5 -70.5t-128.5 -24.5q-80 0 -119 13v89z" />
    <glyph glyph-name="uni0326" unicode="&#x326;" horiz-adv-x="0" 
d="M-232 -246l107 180h264l-153 -180h-218z" />
    <glyph glyph-name="uni0326.cap" horiz-adv-x="0" 
d="M-238 -251l111 185h270l-157 -185h-224z" />
    <glyph glyph-name="uni0312" unicode="&#x312;" horiz-adv-x="0" 
d="M-143 583l150 177h219l-105 -177h-264z" />
    <glyph glyph-name="uni0328" unicode="&#x328;" horiz-adv-x="0" 
d="M118 -210q-40 -9 -92 -9q-89 0 -132.5 23.5t-43.5 73.5q0 43 35 78t114 70l122 -26q-50 -20 -68 -34.5t-18 -32.5q0 -13 10.5 -19.5t36.5 -6.5q14 0 36 3v-120z" />
    <glyph glyph-name="uni0328.cap" horiz-adv-x="0" 
d="M127 -216q-43 -8 -96 -8q-94 0 -138.5 24t-44.5 76q0 31 16 56.5t49 48t89 46.5l127 -27q-48 -18 -69 -34t-21 -35q0 -14 12 -20.5t38 -6.5q22 0 38 3v-123z" />
    <glyph glyph-name="uni0328.round" horiz-adv-x="0" 
d="M118 -210q-40 -9 -92 -9q-89 0 -132.5 23.5t-43.5 73.5q0 44 38 78t130 71l93 -20q-43 -19 -59.5 -34.5t-16.5 -35.5q0 -15 11 -22.5t36 -7.5q14 0 36 3v-120z" />
    <glyph glyph-name="uni0328.round.cap" horiz-adv-x="0" 
d="M127 -216q-43 -8 -96 -8q-94 0 -138.5 24t-44.5 76q0 45 38 79.5t127 69.5l97 -21q-71 -31 -71 -68q0 -32 50 -32q22 0 38 3v-123z" />
    <glyph glyph-name="ogonek" unicode="&#x2db;" horiz-adv-x="764" 
d="M515 -210q-40 -9 -92 -9q-89 0 -132.5 23.5t-43.5 73.5q0 43 35 78t114 70l122 -26q-50 -20 -68 -34.5t-18 -32.5q0 -13 10.5 -19.5t36.5 -6.5q14 0 36 3v-120z" />
    <glyph glyph-name="Ccedilla" unicode="&#xc7;" horiz-adv-x="889" 
d="M867 277q-10 -139 -116 -217t-283 -78q-131 0 -225.5 43.5t-145.5 128.5t-51 203q0 113 50 198t145 131t230 46q161 0 256 -65t126 -196l-256 -26q-15 43 -44.5 62t-82.5 19q-77 0 -116.5 -43t-39.5 -126q0 -169 160 -169q117 0 136 89h257zM325 -129q43 -8 80 -8
q32 0 46 4t14 14q0 11 -17 16t-56 5h-39l57 123l107 -25l-19 -42q64 -8 96 -31t32 -63q0 -46 -47 -71.5t-132 -25.5q-77 0 -122 14v90z" />
    <glyph glyph-name="Scedilla" unicode="&#x15e;" horiz-adv-x="806" 
d="M514 486q-13 38 -40.5 54t-78.5 16t-78.5 -11.5t-27.5 -33.5q0 -16 12.5 -24t46.5 -14l162 -27q145 -24 207.5 -76.5t62.5 -149.5q0 -238 -379 -238q-360 0 -383 259h253q16 -83 131 -83q123 0 123 53q0 17 -16.5 26.5t-52.5 15.5l-129 20q-148 23 -219 79.5t-71 151.5
q0 107 97.5 167.5t270.5 60.5q161 0 250.5 -56.5t103.5 -168.5zM262 -129q43 -8 80 -8q32 0 46 4t14 14q0 11 -17 16t-56 5h-39l57 123l107 -25l-19 -42q64 -8 96 -31t32 -63q0 -46 -47 -71.5t-132 -25.5q-77 0 -122 14v90z" />
    <glyph glyph-name="uni0162" unicode="&#x162;" horiz-adv-x="786" 
d="M264 0v507h-253v207h764v-207h-253v-507h-258zM250 -129q43 -8 80 -8q32 0 46 4t14 14q0 11 -17 16t-56 5h-39l57 123l107 -25l-19 -42q64 -8 96 -31t32 -63q0 -46 -47 -71.5t-132 -25.5q-77 0 -122 14v90z" />
    <glyph glyph-name="uni0122" unicode="&#x122;" horiz-adv-x="926" 
d="M638 247h-136v177h372v-346q-157 -96 -364 -96q-224 0 -344 96t-120 275q0 115 50.5 200.5t148.5 132t234 46.5q159 0 259 -64t126 -180l-259 -22q-13 37 -43 53t-88 16q-84 0 -125 -43.5t-41 -132.5q0 -96 46 -138t153 -42q79 0 131 15v53zM260 -251l111 185h270
l-157 -185h-224z" />
    <glyph glyph-name="uni0136" unicode="&#x136;" horiz-adv-x="907" 
d="M605 0l-187 275l-84 -75v-200h-258v714h258v-244l250 244h287l-282 -275l308 -439h-292zM235 -251l111 185h270l-157 -185h-224z" />
    <glyph glyph-name="uni013B" unicode="&#x13b;" horiz-adv-x="741" 
d="M76 0v714h258v-507h384l-24 -207h-618zM147 -251l111 185h270l-157 -185h-224z" />
    <glyph glyph-name="uni0145" unicode="&#x145;" horiz-adv-x="935" 
d="M633 0l-314 376v-376h-243v714h226l314 -376v376h243v-714h-226zM238 -251l111 185h270l-157 -185h-224z" />
    <glyph glyph-name="Rcommaaccent" unicode="&#x156;" horiz-adv-x="851" 
d="M572 0l-133 218h-123v-218h-240v714h379q337 0 337 -245q0 -73 -28.5 -122t-91.5 -80l174 -267h-274zM440 397q60 0 84 16t24 54q0 37 -24 52.5t-82 15.5h-126v-138h124zM207 -251l111 185h270l-157 -185h-224z" />
    <glyph glyph-name="uni0218" unicode="&#x218;" horiz-adv-x="806" 
d="M514 486q-13 38 -40.5 54t-78.5 16t-78.5 -11.5t-27.5 -33.5q0 -16 12.5 -24t46.5 -14l162 -27q145 -24 207.5 -76.5t62.5 -149.5q0 -238 -379 -238q-360 0 -383 259h253q16 -83 131 -83q123 0 123 53q0 17 -16.5 26.5t-52.5 15.5l-129 20q-148 23 -219 79.5t-71 151.5
q0 107 97.5 167.5t270.5 60.5q161 0 250.5 -56.5t103.5 -168.5zM167 -251l111 185h270l-157 -185h-224z" />
    <glyph glyph-name="uni021A" unicode="&#x21a;" horiz-adv-x="786" 
d="M264 0v507h-253v207h764v-207h-253v-507h-258zM155 -251l111 185h270l-157 -185h-224z" />
    <glyph glyph-name="Aogonek" unicode="&#x104;" horiz-adv-x="916" 
d="M642 0l-38 105h-299l-37 -105h-260l296 714h308l296 -714h-266zM455 522l-83 -228h165zM906 -216q-43 -8 -96 -8q-94 0 -138.5 24t-44.5 76q0 31 16 56.5t49 48t89 46.5l127 -27q-48 -18 -69 -34t-21 -35q0 -14 12 -20.5t38 -6.5q22 0 38 3v-123z" />
    <glyph glyph-name="Eogonek" unicode="&#x118;" horiz-adv-x="785" 
d="M76 0v714h646v-183h-394v-80h374v-182h-374v-86h419l-21 -183h-650zM724 -216q-43 -8 -96 -8q-94 0 -138.5 24t-44.5 76q0 31 16 56.5t49 48t89 46.5l127 -27q-48 -18 -69 -34t-21 -35q0 -14 12 -20.5t38 -6.5q22 0 38 3v-123z" />
    <glyph glyph-name="Iogonek" unicode="&#x12e;" horiz-adv-x="410" 
d="M76 0v714h258v-714h-258zM332 -216q-43 -8 -96 -8q-94 0 -138.5 24t-44.5 76q0 31 16 56.5t49 48t89 46.5l127 -27q-48 -18 -69 -34t-21 -35q0 -14 12 -20.5t38 -6.5q22 0 38 3v-123z" />
    <glyph glyph-name="Uogonek" unicode="&#x172;" horiz-adv-x="900" 
d="M574 714h258v-392q0 -174 -93.5 -257t-288.5 -83t-288.5 83t-93.5 257v392h258v-413q0 -59 29 -86t95 -27t95 27t29 86v413zM626 -216q-43 -8 -96 -8q-94 0 -138.5 24t-44.5 76q0 45 38 79.5t127 69.5l97 -21q-71 -31 -71 -68q0 -32 50 -32q22 0 38 3v-123z" />
    <glyph glyph-name="ccedilla" unicode="&#xe7;" horiz-adv-x="705" 
d="M677 216q-9 -74 -47.5 -126t-104 -79t-157.5 -27q-159 0 -243.5 72t-84.5 204q0 133 87.5 208.5t242.5 75.5q127 0 204 -55t94 -154l-223 -21q-6 28 -23 41.5t-48 13.5q-44 0 -67 -26.5t-23 -78.5t23 -78.5t67 -26.5q71 0 77 57h226zM227 -126q40 -8 78 -8q56 0 56 18
q0 10 -15 14.5t-53 4.5h-40l57 121l103 -24l-19 -42q64 -7 94.5 -29.5t30.5 -61.5q0 -46 -44.5 -70.5t-128.5 -24.5q-80 0 -119 13v89z" />
    <glyph glyph-name="scedilla" unicode="&#x15f;" horiz-adv-x="674" 
d="M419 361q-6 24 -25.5 35t-54.5 11q-71 0 -71 -33q0 -11 14 -17.5t51 -11.5l72 -10q93 -13 146.5 -34t77 -54t23.5 -83q0 -89 -75.5 -134.5t-224.5 -45.5q-156 0 -236 46.5t-88 139.5h228q7 -24 28.5 -34.5t64.5 -10.5q69 0 69 32q0 13 -13 19.5t-48 11.5l-67 10
q-131 20 -189.5 61t-58.5 114q0 82 78 126.5t220 44.5q135 0 209.5 -40t93.5 -124zM211 -126q40 -8 78 -8q56 0 56 18q0 10 -15 14.5t-53 4.5h-40l57 121l103 -24l-19 -42q64 -7 94.5 -29.5t30.5 -61.5q0 -46 -44.5 -70.5t-128.5 -24.5q-80 0 -119 13v89z" />
    <glyph glyph-name="uni0163" unicode="&#x163;" horiz-adv-x="554" 
d="M533 17q-44 -14 -85.5 -20t-92.5 -6q-125 0 -179.5 49.5t-54.5 162.5v154h-100v171h100v137h243v-137h150v-171h-150v-131q0 -32 15.5 -46t52.5 -14q31 0 72 12zM181 -126q40 -8 78 -8q56 0 56 18q0 10 -15 14.5t-53 4.5h-40l57 121l103 -24l-19 -42q64 -7 94.5 -29.5
t30.5 -61.5q0 -46 -44.5 -70.5t-128.5 -24.5q-80 0 -119 13v89z" />
    <glyph glyph-name="uni0123" unicode="&#x123;" horiz-adv-x="780" 
d="M474 93q-33 -33 -78 -49t-108 -16q-71 0 -127 30.5t-88.5 87t-32.5 132.5t32.5 136.5t93.5 95t144 34.5q109 0 170 -66v50h237v-454q0 -143 -82.5 -211t-252.5 -68q-149 0 -227.5 48.5t-89.5 147.5h233q5 -23 24.5 -33.5t58.5 -10.5q48 0 70.5 24.5t22.5 76.5v45z
M475 286q0 40 -27 64q-24 21 -70 21t-70 -22.5t-24 -65.5q0 -86 93 -86q42 0 71 21q27 20 27 60v8zM272 583l150 177h219l-105 -177h-264z" />
    <glyph glyph-name="uni0137" unicode="&#x137;" horiz-adv-x="775" 
d="M510 0l-144 227l-60 -46v-181h-243v714h243v-317l160 131h288l-222 -175l240 -353h-262zM178 -246l107 180h264l-153 -180h-218z" />
    <glyph glyph-name="uni013C" unicode="&#x13c;" horiz-adv-x="369" 
d="M63 0v714h243v-714h-243zM-47 -246l107 180h264l-153 -180h-218z" />
    <glyph glyph-name="uni0146" unicode="&#x146;" horiz-adv-x="764" 
d="M462 0v299q0 66 -65 66q-37 0 -64 -25t-27 -56v-284h-243v528h237v-66q85 82 197 82q97 0 152.5 -53t55.5 -146v-345h-243zM152 -246l107 180h264l-153 -180h-218z" />
    <glyph glyph-name="rcommaaccent" unicode="&#x157;" horiz-adv-x="560" 
d="M63 0v528h237v-67q73 76 180 76q33 0 66 -6l-27 -185q-37 6 -71 6q-33 0 -61.5 -7t-46.5 -20q-15 -11 -24.5 -27t-9.5 -33v-265h-243zM-47 -246l107 180h264l-153 -180h-218z" />
    <glyph glyph-name="uni0219" unicode="&#x219;" horiz-adv-x="674" 
d="M419 361q-6 24 -25.5 35t-54.5 11q-71 0 -71 -33q0 -11 14 -17.5t51 -11.5l72 -10q93 -13 146.5 -34t77 -54t23.5 -83q0 -89 -75.5 -134.5t-224.5 -45.5q-156 0 -236 46.5t-88 139.5h228q7 -24 28.5 -34.5t64.5 -10.5q69 0 69 32q0 13 -13 19.5t-48 11.5l-67 10
q-131 20 -189.5 61t-58.5 114q0 82 78 126.5t220 44.5q135 0 209.5 -40t93.5 -124zM115 -246l107 180h264l-153 -180h-218z" />
    <glyph glyph-name="uni021B" unicode="&#x21b;" horiz-adv-x="554" 
d="M533 17q-44 -14 -85.5 -20t-92.5 -6q-125 0 -179.5 49.5t-54.5 162.5v154h-100v171h100v137h243v-137h150v-171h-150v-131q0 -32 15.5 -46t52.5 -14q31 0 72 12zM85 -246l107 180h264l-153 -180h-218z" />
    <glyph glyph-name="aogonek" unicode="&#x105;" horiz-adv-x="723" 
d="M445 0v55q-41 -37 -87 -54t-107 -17q-104 0 -161.5 42.5t-57.5 120.5q0 173 304 180l100 2v22q0 23 -19.5 36t-53.5 13q-67 0 -81 -40l-216 14q31 170 304 170q294 0 294 -219v-325h-219zM436 213l-79 -2q-52 -2 -76.5 -13.5t-24.5 -34.5q0 -37 66 -37q56 0 88 25
q26 20 26 53v9zM661 -210q-40 -9 -92 -9q-89 0 -132.5 23.5t-43.5 73.5q0 43 35 78t114 70l122 -26q-50 -20 -68 -34.5t-18 -32.5q0 -13 10.5 -19.5t36.5 -6.5q14 0 36 3v-120z" />
    <glyph glyph-name="eogonek" unicode="&#x119;" horiz-adv-x="729" 
d="M268 215q4 -42 29 -61.5t75 -19.5q73 0 89 40h223q-42 -190 -318 -190q-156 0 -241 70.5t-85 202.5q0 63 22 115.5t65 91t105 59.5t140 21q152 0 234.5 -73t82.5 -207v-49h-421zM466 325q-2 36 -25 53.5t-71 17.5q-42 0 -68.5 -19t-31.5 -52h196zM529 -210q-40 -9 -92 -9
q-89 0 -132.5 23.5t-43.5 73.5q0 44 38 78t130 71l93 -20q-43 -19 -59.5 -34.5t-16.5 -35.5q0 -15 11 -22.5t36 -7.5q14 0 36 3v-120z" />
    <glyph glyph-name="iogonek" unicode="&#x12f;" horiz-adv-x="369" 
d="M63 0v528h243v-528h-243zM63 589v140h243v-140h-243zM303 -210q-40 -9 -92 -9q-89 0 -132.5 23.5t-43.5 73.5q0 43 35 78t114 70l122 -26q-50 -20 -68 -34.5t-18 -32.5q0 -13 10.5 -19.5t36.5 -6.5q14 0 36 3v-120z" />
    <glyph glyph-name="iogonek.dotless" horiz-adv-x="369" 
d="M63 0v528h243v-528h-243zM303 -210q-40 -9 -92 -9q-89 0 -132.5 23.5t-43.5 73.5q0 43 35 78t114 70l122 -26q-50 -20 -68 -34.5t-18 -32.5q0 -13 10.5 -19.5t36.5 -6.5q14 0 36 3v-120z" />
    <glyph glyph-name="uogonek" unicode="&#x173;" horiz-adv-x="758" 
d="M458 0v66q-85 -82 -194 -82q-95 0 -150 53t-55 146v345h243v-301q0 -64 62 -64q33 0 60 24q28 25 28 55v286h243v-528h-237zM692 -210q-40 -9 -92 -9q-89 0 -132.5 23.5t-43.5 73.5q0 43 35 78t114 70l122 -26q-50 -20 -68 -34.5t-18 -32.5q0 -13 10.5 -19.5t36.5 -6.5
q14 0 36 3v-120z" />
    <glyph glyph-name="acutecomb" unicode="&#x301;" horiz-adv-x="0" 
d="M68 583h-212l156 177h261z" />
    <glyph glyph-name="acutecomb.cap" horiz-adv-x="0" 
d="M86 772h-232l157 166h280z" />
    <glyph glyph-name="acute" unicode="&#xb4;" horiz-adv-x="764" 
d="M386 583h-212l156 177h261z" />
    <glyph glyph-name="uni030B" unicode="&#x30b;" horiz-adv-x="0" 
d="M-66 583h-182l140 177h225zM219 583h-182l140 177h225z" />
    <glyph glyph-name="uni030B.cap" horiz-adv-x="0" 
d="M-65 772h-191l139 166h230zM226 772h-191l139 166h230z" />
    <glyph glyph-name="hungarumlaut" unicode="&#x2dd;" horiz-adv-x="764" 
d="M239 583h-182l140 177h225zM524 583h-182l140 177h225z" />
    <glyph glyph-name="Aacute" unicode="&#xc1;" horiz-adv-x="916" 
d="M642 0l-38 105h-299l-37 -105h-260l296 714h308l296 -714h-266zM455 522l-83 -228h165zM544 772h-232l157 166h280z" />
    <glyph glyph-name="Cacute" unicode="&#x106;" horiz-adv-x="889" 
d="M867 277q-10 -139 -116 -217t-283 -78q-131 0 -225.5 43.5t-145.5 128.5t-51 203q0 113 50 198t145 131t230 46q161 0 256 -65t126 -196l-256 -26q-15 43 -44.5 62t-82.5 19q-77 0 -116.5 -43t-39.5 -126q0 -169 160 -169q117 0 136 89h257zM551 772h-232l157 166h280z
" />
    <glyph glyph-name="Eacute" unicode="&#xc9;" horiz-adv-x="785" 
d="M76 0v714h646v-183h-394v-80h374v-182h-374v-86h419l-21 -183h-650zM485 772h-232l157 166h280z" />
    <glyph glyph-name="Iacute" unicode="&#xcd;" horiz-adv-x="410" 
d="M76 0v714h258v-714h-258zM291 772h-232l157 166h280z" />
    <glyph glyph-name="Lacute" unicode="&#x139;" horiz-adv-x="741" 
d="M76 0v714h258v-507h384l-24 -207h-618zM291 772h-232l157 166h280z" />
    <glyph glyph-name="Nacute" unicode="&#x143;" horiz-adv-x="935" 
d="M633 0l-314 376v-376h-243v714h226l314 -376v376h243v-714h-226zM545 772h-232l157 166h280z" />
    <glyph glyph-name="Oacute" unicode="&#xd3;" horiz-adv-x="966" 
d="M920 357q0 -115 -51.5 -199.5t-150.5 -130t-238 -45.5q-133 0 -230.5 43.5t-150.5 128t-53 203.5q0 115 51.5 199.5t150.5 130t238 45.5q133 0 230.5 -43.5t150.5 -128t53 -203.5zM652 357q0 81 -44.5 125t-124.5 44t-124.5 -44t-44.5 -125t44.5 -125t124.5 -44t124.5 44
t44.5 125zM569 772h-232l157 166h280z" />
    <glyph glyph-name="Racute" unicode="&#x154;" horiz-adv-x="851" 
d="M572 0l-133 218h-123v-218h-240v714h379q337 0 337 -245q0 -73 -28.5 -122t-91.5 -80l174 -267h-274zM440 397q60 0 84 16t24 54q0 37 -24 52.5t-82 15.5h-126v-138h124zM527 772h-232l157 166h280z" />
    <glyph glyph-name="Sacute" unicode="&#x15a;" horiz-adv-x="806" 
d="M514 486q-13 38 -40.5 54t-78.5 16t-78.5 -11.5t-27.5 -33.5q0 -16 12.5 -24t46.5 -14l162 -27q145 -24 207.5 -76.5t62.5 -149.5q0 -238 -379 -238q-360 0 -383 259h253q16 -83 131 -83q123 0 123 53q0 17 -16.5 26.5t-52.5 15.5l-129 20q-148 23 -219 79.5t-71 151.5
q0 107 97.5 167.5t270.5 60.5q161 0 250.5 -56.5t103.5 -168.5zM491 772h-232l157 166h280z" />
    <glyph glyph-name="Uacute" unicode="&#xda;" horiz-adv-x="900" 
d="M574 714h258v-392q0 -174 -93.5 -257t-288.5 -83t-288.5 83t-93.5 257v392h258v-413q0 -59 29 -86t95 -27t95 27t29 86v413zM536 772h-232l157 166h280z" />
    <glyph glyph-name="Wacute" unicode="&#x1e82;" horiz-adv-x="1236" 
d="M725 0l-109 379l-109 -379h-269l-226 714h274l102 -425l118 420h230l118 -420l102 425h268l-226 -714h-273zM707 772h-232l157 166h280z" />
    <glyph glyph-name="Yacute" unicode="&#xdd;" horiz-adv-x="860" 
d="M301 0v262l-293 452h275l150 -252l151 252h268l-293 -452v-262h-258zM519 772h-232l157 166h280z" />
    <glyph glyph-name="Zacute" unicode="&#x179;" horiz-adv-x="783" 
d="M38 0v176l361 343h-352v195h681v-176l-361 -343h388l-22 -195h-695zM474 772h-232l157 166h280z" />
    <glyph glyph-name="Ohungarumlaut" unicode="&#x150;" horiz-adv-x="966" 
d="M920 357q0 -115 -51.5 -199.5t-150.5 -130t-238 -45.5q-133 0 -230.5 43.5t-150.5 128t-53 203.5q0 115 51.5 199.5t150.5 130t238 45.5q133 0 230.5 -43.5t150.5 -128t53 -203.5zM652 357q0 81 -44.5 125t-124.5 44t-124.5 -44t-44.5 -125t44.5 -125t124.5 -44t124.5 44
t44.5 125zM418 772h-191l139 166h230zM709 772h-191l139 166h230z" />
    <glyph glyph-name="Uhungarumlaut" unicode="&#x170;" horiz-adv-x="900" 
d="M574 714h258v-392q0 -174 -93.5 -257t-288.5 -83t-288.5 83t-93.5 257v392h258v-413q0 -59 29 -86t95 -27t95 27t29 86v413zM385 772h-191l139 166h230zM676 772h-191l139 166h230z" />
    <glyph glyph-name="aacute" unicode="&#xe1;" horiz-adv-x="723" 
d="M445 0v55q-41 -37 -87 -54t-107 -17q-104 0 -161.5 42.5t-57.5 120.5q0 173 304 180l100 2v22q0 23 -19.5 36t-53.5 13q-67 0 -81 -40l-216 14q31 170 304 170q294 0 294 -219v-325h-219zM436 213l-79 -2q-52 -2 -76.5 -13.5t-24.5 -34.5q0 -37 66 -37q56 0 88 25
q26 20 26 53v9zM448 583h-212l156 177h261z" />
    <glyph glyph-name="cacute" unicode="&#x107;" horiz-adv-x="705" 
d="M677 216q-9 -74 -47.5 -126t-104 -79t-157.5 -27q-159 0 -243.5 72t-84.5 204q0 133 87.5 208.5t242.5 75.5q127 0 204 -55t94 -154l-223 -21q-6 28 -23 41.5t-48 13.5q-44 0 -67 -26.5t-23 -78.5t23 -78.5t67 -26.5q71 0 77 57h226zM432 583h-212l156 177h261z" />
    <glyph glyph-name="eacute" unicode="&#xe9;" horiz-adv-x="729" 
d="M268 215q4 -42 29 -61.5t75 -19.5q73 0 89 40h223q-42 -190 -318 -190q-156 0 -241 70.5t-85 202.5q0 63 22 115.5t65 91t105 59.5t140 21q152 0 234.5 -73t82.5 -207v-49h-421zM466 325q-2 36 -25 53.5t-71 17.5q-42 0 -68.5 -19t-31.5 -52h196zM438 583h-212l156 177
h261z" />
    <glyph glyph-name="iacute" unicode="&#xed;" horiz-adv-x="369" 
d="M63 0v528h243v-528h-243zM253 583h-212l156 177h261z" />
    <glyph glyph-name="lacute" unicode="&#x13a;" horiz-adv-x="369" 
d="M63 0v714h243v-714h-243zM271 772h-232l157 166h280z" />
    <glyph glyph-name="nacute" unicode="&#x144;" horiz-adv-x="764" 
d="M462 0v299q0 66 -65 66q-37 0 -64 -25t-27 -56v-284h-243v528h237v-66q85 82 197 82q97 0 152.5 -53t55.5 -146v-345h-243zM452 583h-212l156 177h261z" />
    <glyph glyph-name="oacute" unicode="&#xf3;" horiz-adv-x="752" 
d="M712 266q0 -133 -90 -207.5t-250 -74.5t-246 72t-86 206q0 133 90 207.5t250 74.5t246 -72t86 -206zM468 264q0 105 -92 105t-92 -105t92 -105t92 105zM444 583h-212l156 177h261z" />
    <glyph glyph-name="racute" unicode="&#x155;" horiz-adv-x="560" 
d="M63 0v528h237v-67q73 76 180 76q33 0 66 -6l-27 -185q-37 6 -71 6q-33 0 -61.5 -7t-46.5 -20q-15 -11 -24.5 -27t-9.5 -33v-265h-243zM383 583h-212l156 177h261z" />
    <glyph glyph-name="sacute" unicode="&#x15b;" horiz-adv-x="674" 
d="M419 361q-6 24 -25.5 35t-54.5 11q-71 0 -71 -33q0 -11 14 -17.5t51 -11.5l72 -10q93 -13 146.5 -34t77 -54t23.5 -83q0 -89 -75.5 -134.5t-224.5 -45.5q-156 0 -236 46.5t-88 139.5h228q7 -24 28.5 -34.5t64.5 -10.5q69 0 69 32q0 13 -13 19.5t-48 11.5l-67 10
q-131 20 -189.5 61t-58.5 114q0 82 78 126.5t220 44.5q135 0 209.5 -40t93.5 -124zM401 583h-212l156 177h261z" />
    <glyph glyph-name="uacute" unicode="&#xfa;" horiz-adv-x="758" 
d="M458 0v66q-85 -82 -194 -82q-95 0 -150 53t-55 146v345h243v-301q0 -64 62 -64q33 0 60 24q28 25 28 55v286h243v-528h-237zM446 583h-212l156 177h261z" />
    <glyph glyph-name="wacute" unicode="&#x1e83;" horiz-adv-x="1009" 
d="M595 0l-87 259l-89 -259h-230l-181 528h237l81 -287l89 282h187l91 -277l79 282h229l-181 -528h-225zM576 583h-212l156 177h261z" />
    <glyph glyph-name="yacute" unicode="&#xfd;" horiz-adv-x="720" 
d="M260 57l-254 471h257l104 -267l100 267h247l-259 -525q-44 -90 -79 -133t-75 -59t-99 -16q-85 0 -161 25l33 157q38 -11 80 -11q32 0 51.5 13t39.5 49zM431 583h-212l156 177h261z" />
    <glyph glyph-name="zacute" unicode="&#x17a;" horiz-adv-x="640" 
d="M24 0v135l264 226h-258v167h569v-135l-264 -226h281l-18 -167h-574zM383 583h-212l156 177h261z" />
    <glyph glyph-name="ohungarumlaut" unicode="&#x151;" horiz-adv-x="752" 
d="M712 266q0 -133 -90 -207.5t-250 -74.5t-246 72t-86 206q0 133 90 207.5t250 74.5t246 -72t86 -206zM468 264q0 105 -92 105t-92 -105t92 -105t92 105zM310 583h-182l140 177h225zM595 583h-182l140 177h225z" />
    <glyph glyph-name="uhungarumlaut" unicode="&#x171;" horiz-adv-x="758" 
d="M458 0v66q-85 -82 -194 -82q-95 0 -150 53t-55 146v345h243v-301q0 -64 62 -64q33 0 60 24q28 25 28 55v286h243v-528h-237zM312 583h-182l140 177h225zM597 583h-182l140 177h225z" />
    <glyph glyph-name="gravecomb" unicode="&#x300;" horiz-adv-x="0" 
d="M-68 583l-205 177h261l156 -177h-212z" />
    <glyph glyph-name="gravecomb.cap" horiz-adv-x="0" 
d="M-86 772l-205 166h280l157 -166h-232z" />
    <glyph glyph-name="grave" unicode="`" horiz-adv-x="764" 
d="M379 583l-205 177h261l156 -177h-212z" />
    <glyph glyph-name="uni02CB" unicode="&#x2cb;" horiz-adv-x="764" 
d="M379 583l-205 177h261l156 -177h-212z" />
    <glyph glyph-name="Agrave" unicode="&#xc0;" horiz-adv-x="916" 
d="M642 0l-38 105h-299l-37 -105h-260l296 714h308l296 -714h-266zM455 522l-83 -228h165zM372 772l-205 166h280l157 -166h-232z" />
    <glyph glyph-name="Egrave" unicode="&#xc8;" horiz-adv-x="785" 
d="M76 0v714h646v-183h-394v-80h374v-182h-374v-86h419l-21 -183h-650zM313 772l-205 166h280l157 -166h-232z" />
    <glyph glyph-name="Igrave" unicode="&#xcc;" horiz-adv-x="410" 
d="M76 0v714h258v-714h-258zM119 772l-205 166h280l157 -166h-232z" />
    <glyph glyph-name="Ograve" unicode="&#xd2;" horiz-adv-x="966" 
d="M920 357q0 -115 -51.5 -199.5t-150.5 -130t-238 -45.5q-133 0 -230.5 43.5t-150.5 128t-53 203.5q0 115 51.5 199.5t150.5 130t238 45.5q133 0 230.5 -43.5t150.5 -128t53 -203.5zM652 357q0 81 -44.5 125t-124.5 44t-124.5 -44t-44.5 -125t44.5 -125t124.5 -44t124.5 44
t44.5 125zM397 772l-205 166h280l157 -166h-232z" />
    <glyph glyph-name="Ugrave" unicode="&#xd9;" horiz-adv-x="900" 
d="M574 714h258v-392q0 -174 -93.5 -257t-288.5 -83t-288.5 83t-93.5 257v392h258v-413q0 -59 29 -86t95 -27t95 27t29 86v413zM364 772l-205 166h280l157 -166h-232z" />
    <glyph glyph-name="Wgrave" unicode="&#x1e80;" horiz-adv-x="1236" 
d="M725 0l-109 379l-109 -379h-269l-226 714h274l102 -425l118 420h230l118 -420l102 425h268l-226 -714h-273zM535 772l-205 166h280l157 -166h-232z" />
    <glyph glyph-name="Ygrave" unicode="&#x1ef2;" horiz-adv-x="860" 
d="M301 0v262l-293 452h275l150 -252l151 252h268l-293 -452v-262h-258zM347 772l-205 166h280l157 -166h-232z" />
    <glyph glyph-name="agrave" unicode="&#xe0;" horiz-adv-x="723" 
d="M445 0v55q-41 -37 -87 -54t-107 -17q-104 0 -161.5 42.5t-57.5 120.5q0 173 304 180l100 2v22q0 23 -19.5 36t-53.5 13q-67 0 -81 -40l-216 14q31 170 304 170q294 0 294 -219v-325h-219zM436 213l-79 -2q-52 -2 -76.5 -13.5t-24.5 -34.5q0 -37 66 -37q56 0 88 25
q26 20 26 53v9zM312 583l-205 177h261l156 -177h-212z" />
    <glyph glyph-name="egrave" unicode="&#xe8;" horiz-adv-x="729" 
d="M268 215q4 -42 29 -61.5t75 -19.5q73 0 89 40h223q-42 -190 -318 -190q-156 0 -241 70.5t-85 202.5q0 63 22 115.5t65 91t105 59.5t140 21q152 0 234.5 -73t82.5 -207v-49h-421zM466 325q-2 36 -25 53.5t-71 17.5q-42 0 -68.5 -19t-31.5 -52h196zM302 583l-205 177h261
l156 -177h-212z" />
    <glyph glyph-name="igrave" unicode="&#xec;" horiz-adv-x="369" 
d="M63 0v528h243v-528h-243zM117 583l-205 177h261l156 -177h-212z" />
    <glyph glyph-name="ograve" unicode="&#xf2;" horiz-adv-x="752" 
d="M712 266q0 -133 -90 -207.5t-250 -74.5t-246 72t-86 206q0 133 90 207.5t250 74.5t246 -72t86 -206zM468 264q0 105 -92 105t-92 -105t92 -105t92 105zM308 583l-205 177h261l156 -177h-212z" />
    <glyph glyph-name="ugrave" unicode="&#xf9;" horiz-adv-x="758" 
d="M458 0v66q-85 -82 -194 -82q-95 0 -150 53t-55 146v345h243v-301q0 -64 62 -64q33 0 60 24q28 25 28 55v286h243v-528h-237zM310 583l-205 177h261l156 -177h-212z" />
    <glyph glyph-name="wgrave" unicode="&#x1e81;" horiz-adv-x="1009" 
d="M595 0l-87 259l-89 -259h-230l-181 528h237l81 -287l89 282h187l91 -277l79 282h229l-181 -528h-225zM440 583l-205 177h261l156 -177h-212z" />
    <glyph glyph-name="ygrave" unicode="&#x1ef3;" horiz-adv-x="720" 
d="M260 57l-254 471h257l104 -267l100 267h247l-259 -525q-44 -90 -79 -133t-75 -59t-99 -16q-85 0 -161 25l33 157q38 -11 80 -11q32 0 51.5 13t39.5 49zM295 583l-205 177h261l156 -177h-212z" />
    <glyph glyph-name="uni0302" unicode="&#x302;" horiz-adv-x="0" 
d="M68 583l-68 71l-68 -71h-200l161 177h214l161 -177h-200z" />
    <glyph glyph-name="uni0302.cap" horiz-adv-x="0" 
d="M68 772l-68 64l-68 -64h-207l160 166h230l160 -166h-207z" />
    <glyph glyph-name="circumflex" unicode="&#x2c6;" horiz-adv-x="764" 
d="M450 583l-68 71l-68 -71h-200l161 177h214l161 -177h-200z" />
    <glyph glyph-name="tildecomb" unicode="&#x303;" horiz-adv-x="0" 
d="M255 762q0 -188 -157 -188q-18 0 -34.5 3t-32.5 9t-41 20q-20 11 -33 15t-25 4q-22 0 -31.5 -11t-9.5 -34h-146q0 188 157 188q18 0 34.5 -3t32.5 -9t41 -20q20 -11 33 -15t25 -4q22 0 31.5 11t9.5 34h146z" />
    <glyph glyph-name="tildecomb.cap" horiz-adv-x="0" 
d="M257 952q0 -195 -161 -195q-46 0 -94 29q-27 16 -42.5 22.5t-29.5 6.5q-23 0 -32.5 -11t-9.5 -41h-150q0 195 161 195q46 0 94 -29q27 -16 42.5 -22.5t29.5 -6.5q23 0 32.5 11t9.5 41h150z" />
    <glyph glyph-name="tilde" unicode="&#x2dc;" horiz-adv-x="764" 
d="M637 762q0 -188 -157 -188q-18 0 -34.5 3t-32.5 9t-41 20q-20 11 -33 15t-25 4q-22 0 -31.5 -11t-9.5 -34h-146q0 188 157 188q18 0 34.5 -3t32.5 -9t41 -20q20 -11 33 -15t25 -4q22 0 31.5 11t9.5 34h146z" />
    <glyph glyph-name="Acircumflex" unicode="&#xc2;" horiz-adv-x="916" 
d="M642 0l-38 105h-299l-37 -105h-260l296 714h308l296 -714h-266zM455 522l-83 -228h165zM526 772l-68 64l-68 -64h-207l160 166h230l160 -166h-207z" />
    <glyph glyph-name="Ccircumflex" unicode="&#x108;" horiz-adv-x="889" 
d="M867 277q-10 -139 -116 -217t-283 -78q-131 0 -225.5 43.5t-145.5 128.5t-51 203q0 113 50 198t145 131t230 46q161 0 256 -65t126 -196l-256 -26q-15 43 -44.5 62t-82.5 19q-77 0 -116.5 -43t-39.5 -126q0 -169 160 -169q117 0 136 89h257zM533 772l-68 64l-68 -64h-207
l160 166h230l160 -166h-207z" />
    <glyph glyph-name="Ecircumflex" unicode="&#xca;" horiz-adv-x="785" 
d="M76 0v714h646v-183h-394v-80h374v-182h-374v-86h419l-21 -183h-650zM467 772l-68 64l-68 -64h-207l160 166h230l160 -166h-207z" />
    <glyph glyph-name="Gcircumflex" unicode="&#x11c;" horiz-adv-x="926" 
d="M638 247h-136v177h372v-346q-157 -96 -364 -96q-224 0 -344 96t-120 275q0 115 50.5 200.5t148.5 132t234 46.5q159 0 259 -64t126 -180l-259 -22q-13 37 -43 53t-88 16q-84 0 -125 -43.5t-41 -132.5q0 -96 46 -138t153 -42q79 0 131 15v53zM557 772l-68 64l-68 -64h-207
l160 166h230l160 -166h-207z" />
    <glyph glyph-name="Hcircumflex" unicode="&#x124;" horiz-adv-x="933" 
d="M599 0v261h-265v-261h-258v714h258v-240h265v240h258v-714h-258zM535 772l-68 64l-68 -64h-207l160 166h230l160 -166h-207z" />
    <glyph glyph-name="Icircumflex" unicode="&#xce;" horiz-adv-x="410" 
d="M76 0v714h258v-714h-258zM273 772l-68 64l-68 -64h-207l160 166h230l160 -166h-207z" />
    <glyph glyph-name="Jcircumflex" unicode="&#x134;" horiz-adv-x="818" 
d="M492 714h258v-407q0 -160 -92 -242.5t-270 -82.5q-171 0 -264.5 79t-100.5 229h259q8 -102 106 -102q104 0 104 98v428zM689 772l-68 64l-68 -64h-207l160 166h230l160 -166h-207z" />
    <glyph glyph-name="Ocircumflex" unicode="&#xd4;" horiz-adv-x="966" 
d="M920 357q0 -115 -51.5 -199.5t-150.5 -130t-238 -45.5q-133 0 -230.5 43.5t-150.5 128t-53 203.5q0 115 51.5 199.5t150.5 130t238 45.5q133 0 230.5 -43.5t150.5 -128t53 -203.5zM652 357q0 81 -44.5 125t-124.5 44t-124.5 -44t-44.5 -125t44.5 -125t124.5 -44t124.5 44
t44.5 125zM551 772l-68 64l-68 -64h-207l160 166h230l160 -166h-207z" />
    <glyph glyph-name="Scircumflex" unicode="&#x15c;" horiz-adv-x="806" 
d="M514 486q-13 38 -40.5 54t-78.5 16t-78.5 -11.5t-27.5 -33.5q0 -16 12.5 -24t46.5 -14l162 -27q145 -24 207.5 -76.5t62.5 -149.5q0 -238 -379 -238q-360 0 -383 259h253q16 -83 131 -83q123 0 123 53q0 17 -16.5 26.5t-52.5 15.5l-129 20q-148 23 -219 79.5t-71 151.5
q0 107 97.5 167.5t270.5 60.5q161 0 250.5 -56.5t103.5 -168.5zM473 772l-68 64l-68 -64h-207l160 166h230l160 -166h-207z" />
    <glyph glyph-name="Ucircumflex" unicode="&#xdb;" horiz-adv-x="900" 
d="M574 714h258v-392q0 -174 -93.5 -257t-288.5 -83t-288.5 83t-93.5 257v392h258v-413q0 -59 29 -86t95 -27t95 27t29 86v413zM518 772l-68 64l-68 -64h-207l160 166h230l160 -166h-207z" />
    <glyph glyph-name="Wcircumflex" unicode="&#x174;" horiz-adv-x="1236" 
d="M725 0l-109 379l-109 -379h-269l-226 714h274l102 -425l118 420h230l118 -420l102 425h268l-226 -714h-273zM689 772l-68 64l-68 -64h-207l160 166h230l160 -166h-207z" />
    <glyph glyph-name="Ycircumflex" unicode="&#x176;" horiz-adv-x="860" 
d="M301 0v262l-293 452h275l150 -252l151 252h268l-293 -452v-262h-258zM501 772l-68 64l-68 -64h-207l160 166h230l160 -166h-207z" />
    <glyph glyph-name="Atilde" unicode="&#xc3;" horiz-adv-x="916" 
d="M642 0l-38 105h-299l-37 -105h-260l296 714h308l296 -714h-266zM455 522l-83 -228h165zM715 952q0 -195 -161 -195q-46 0 -94 29q-27 16 -42.5 22.5t-29.5 6.5q-23 0 -32.5 -11t-9.5 -41h-150q0 195 161 195q46 0 94 -29q27 -16 42.5 -22.5t29.5 -6.5q23 0 32.5 11
t9.5 41h150z" />
    <glyph glyph-name="Itilde" unicode="&#x128;" horiz-adv-x="410" 
d="M76 0v714h258v-714h-258zM462 952q0 -195 -161 -195q-46 0 -94 29q-27 16 -42.5 22.5t-29.5 6.5q-23 0 -32.5 -11t-9.5 -41h-150q0 195 161 195q46 0 94 -29q27 -16 42.5 -22.5t29.5 -6.5q23 0 32.5 11t9.5 41h150z" />
    <glyph glyph-name="Ntilde" unicode="&#xd1;" horiz-adv-x="935" 
d="M633 0l-314 376v-376h-243v714h226l314 -376v376h243v-714h-226zM716 952q0 -195 -161 -195q-46 0 -94 29q-27 16 -42.5 22.5t-29.5 6.5q-23 0 -32.5 -11t-9.5 -41h-150q0 195 161 195q46 0 94 -29q27 -16 42.5 -22.5t29.5 -6.5q23 0 32.5 11t9.5 41h150z" />
    <glyph glyph-name="Otilde" unicode="&#xd5;" horiz-adv-x="966" 
d="M920 357q0 -115 -51.5 -199.5t-150.5 -130t-238 -45.5q-133 0 -230.5 43.5t-150.5 128t-53 203.5q0 115 51.5 199.5t150.5 130t238 45.5q133 0 230.5 -43.5t150.5 -128t53 -203.5zM652 357q0 81 -44.5 125t-124.5 44t-124.5 -44t-44.5 -125t44.5 -125t124.5 -44t124.5 44
t44.5 125zM740 952q0 -195 -161 -195q-46 0 -94 29q-27 16 -42.5 22.5t-29.5 6.5q-23 0 -32.5 -11t-9.5 -41h-150q0 195 161 195q46 0 94 -29q27 -16 42.5 -22.5t29.5 -6.5q23 0 32.5 11t9.5 41h150z" />
    <glyph glyph-name="Utilde" unicode="&#x168;" horiz-adv-x="900" 
d="M574 714h258v-392q0 -174 -93.5 -257t-288.5 -83t-288.5 83t-93.5 257v392h258v-413q0 -59 29 -86t95 -27t95 27t29 86v413zM707 952q0 -195 -161 -195q-46 0 -94 29q-27 16 -42.5 22.5t-29.5 6.5q-23 0 -32.5 -11t-9.5 -41h-150q0 195 161 195q46 0 94 -29
q27 -16 42.5 -22.5t29.5 -6.5q23 0 32.5 11t9.5 41h150z" />
    <glyph glyph-name="acircumflex" unicode="&#xe2;" horiz-adv-x="723" 
d="M445 0v55q-41 -37 -87 -54t-107 -17q-104 0 -161.5 42.5t-57.5 120.5q0 173 304 180l100 2v22q0 23 -19.5 36t-53.5 13q-67 0 -81 -40l-216 14q31 170 304 170q294 0 294 -219v-325h-219zM436 213l-79 -2q-52 -2 -76.5 -13.5t-24.5 -34.5q0 -37 66 -37q56 0 88 25
q26 20 26 53v9zM448 583l-68 71l-68 -71h-200l161 177h214l161 -177h-200z" />
    <glyph glyph-name="ccircumflex" unicode="&#x109;" horiz-adv-x="705" 
d="M677 216q-9 -74 -47.5 -126t-104 -79t-157.5 -27q-159 0 -243.5 72t-84.5 204q0 133 87.5 208.5t242.5 75.5q127 0 204 -55t94 -154l-223 -21q-6 28 -23 41.5t-48 13.5q-44 0 -67 -26.5t-23 -78.5t23 -78.5t67 -26.5q71 0 77 57h226zM432 583l-68 71l-68 -71h-200
l161 177h214l161 -177h-200z" />
    <glyph glyph-name="ecircumflex" unicode="&#xea;" horiz-adv-x="729" 
d="M268 215q4 -42 29 -61.5t75 -19.5q73 0 89 40h223q-42 -190 -318 -190q-156 0 -241 70.5t-85 202.5q0 63 22 115.5t65 91t105 59.5t140 21q152 0 234.5 -73t82.5 -207v-49h-421zM466 325q-2 36 -25 53.5t-71 17.5q-42 0 -68.5 -19t-31.5 -52h196zM438 583l-68 71l-68 -71
h-200l161 177h214l161 -177h-200z" />
    <glyph glyph-name="gcircumflex" unicode="&#x11d;" horiz-adv-x="780" 
d="M474 93q-33 -33 -78 -49t-108 -16q-71 0 -127 30.5t-88.5 87t-32.5 132.5t32.5 136.5t93.5 95t144 34.5q109 0 170 -66v50h237v-454q0 -143 -82.5 -211t-252.5 -68q-149 0 -227.5 48.5t-89.5 147.5h233q5 -23 24.5 -33.5t58.5 -10.5q48 0 70.5 24.5t22.5 76.5v45z
M475 286q0 40 -27 64q-24 21 -70 21t-70 -22.5t-24 -65.5q0 -86 93 -86q42 0 71 21q27 20 27 60v8zM483 583l-68 71l-68 -71h-200l161 177h214l161 -177h-200z" />
    <glyph glyph-name="hcircumflex" unicode="&#x125;" horiz-adv-x="764" 
d="M462 0v299q0 66 -65 66q-37 0 -64 -25t-27 -56v-284h-243v714h243v-246q83 76 191 76q97 0 152.5 -53t55.5 -146v-345h-243zM418 772l-68 64l-68 -64h-207l160 166h230l160 -166h-207z" />
    <glyph glyph-name="icircumflex" unicode="&#xee;" horiz-adv-x="369" 
d="M63 0v528h243v-528h-243zM253 583l-68 71l-68 -71h-200l161 177h214l161 -177h-200z" />
    <glyph glyph-name="jcircumflex" unicode="&#x135;" horiz-adv-x="369" 
d="M63 528h243v-527q0 -110 -51 -158t-166 -48q-83 0 -165 21l31 152q40 -4 60 -4q29 0 38.5 10.5t9.5 40.5v513zM253 583l-68 71l-68 -71h-200l161 177h214l161 -177h-200z" />
    <glyph glyph-name="ocircumflex" unicode="&#xf4;" horiz-adv-x="752" 
d="M712 266q0 -133 -90 -207.5t-250 -74.5t-246 72t-86 206q0 133 90 207.5t250 74.5t246 -72t86 -206zM468 264q0 105 -92 105t-92 -105t92 -105t92 105zM444 583l-68 71l-68 -71h-200l161 177h214l161 -177h-200z" />
    <glyph glyph-name="scircumflex" unicode="&#x15d;" horiz-adv-x="674" 
d="M419 361q-6 24 -25.5 35t-54.5 11q-71 0 -71 -33q0 -11 14 -17.5t51 -11.5l72 -10q93 -13 146.5 -34t77 -54t23.5 -83q0 -89 -75.5 -134.5t-224.5 -45.5q-156 0 -236 46.5t-88 139.5h228q7 -24 28.5 -34.5t64.5 -10.5q69 0 69 32q0 13 -13 19.5t-48 11.5l-67 10
q-131 20 -189.5 61t-58.5 114q0 82 78 126.5t220 44.5q135 0 209.5 -40t93.5 -124zM401 583l-68 71l-68 -71h-200l161 177h214l161 -177h-200z" />
    <glyph glyph-name="ucircumflex" unicode="&#xfb;" horiz-adv-x="758" 
d="M458 0v66q-85 -82 -194 -82q-95 0 -150 53t-55 146v345h243v-301q0 -64 62 -64q33 0 60 24q28 25 28 55v286h243v-528h-237zM446 583l-68 71l-68 -71h-200l161 177h214l161 -177h-200z" />
    <glyph glyph-name="wcircumflex" unicode="&#x175;" horiz-adv-x="1009" 
d="M595 0l-87 259l-89 -259h-230l-181 528h237l81 -287l89 282h187l91 -277l79 282h229l-181 -528h-225zM576 583l-68 71l-68 -71h-200l161 177h214l161 -177h-200z" />
    <glyph glyph-name="ycircumflex" unicode="&#x177;" horiz-adv-x="720" 
d="M260 57l-254 471h257l104 -267l100 267h247l-259 -525q-44 -90 -79 -133t-75 -59t-99 -16q-85 0 -161 25l33 157q38 -11 80 -11q32 0 51.5 13t39.5 49zM431 583l-68 71l-68 -71h-200l161 177h214l161 -177h-200z" />
    <glyph glyph-name="atilde" unicode="&#xe3;" horiz-adv-x="723" 
d="M445 0v55q-41 -37 -87 -54t-107 -17q-104 0 -161.5 42.5t-57.5 120.5q0 173 304 180l100 2v22q0 23 -19.5 36t-53.5 13q-67 0 -81 -40l-216 14q31 170 304 170q294 0 294 -219v-325h-219zM436 213l-79 -2q-52 -2 -76.5 -13.5t-24.5 -34.5q0 -37 66 -37q56 0 88 25
q26 20 26 53v9zM635 762q0 -188 -157 -188q-18 0 -34.5 3t-32.5 9t-41 20q-20 11 -33 15t-25 4q-22 0 -31.5 -11t-9.5 -34h-146q0 188 157 188q18 0 34.5 -3t32.5 -9t41 -20q20 -11 33 -15t25 -4q22 0 31.5 11t9.5 34h146z" />
    <glyph glyph-name="itilde" unicode="&#x129;" horiz-adv-x="369" 
d="M63 0v528h243v-528h-243zM440 762q0 -188 -157 -188q-18 0 -34.5 3t-32.5 9t-41 20q-20 11 -33 15t-25 4q-22 0 -31.5 -11t-9.5 -34h-146q0 188 157 188q18 0 34.5 -3t32.5 -9t41 -20q20 -11 33 -15t25 -4q22 0 31.5 11t9.5 34h146z" />
    <glyph glyph-name="ntilde" unicode="&#xf1;" horiz-adv-x="764" 
d="M462 0v299q0 66 -65 66q-37 0 -64 -25t-27 -56v-284h-243v528h237v-66q85 82 197 82q97 0 152.5 -53t55.5 -146v-345h-243zM639 762q0 -188 -157 -188q-18 0 -34.5 3t-32.5 9t-41 20q-20 11 -33 15t-25 4q-22 0 -31.5 -11t-9.5 -34h-146q0 188 157 188q18 0 34.5 -3
t32.5 -9t41 -20q20 -11 33 -15t25 -4q22 0 31.5 11t9.5 34h146z" />
    <glyph glyph-name="otilde" unicode="&#xf5;" horiz-adv-x="752" 
d="M712 266q0 -133 -90 -207.5t-250 -74.5t-246 72t-86 206q0 133 90 207.5t250 74.5t246 -72t86 -206zM468 264q0 105 -92 105t-92 -105t92 -105t92 105zM631 762q0 -188 -157 -188q-18 0 -34.5 3t-32.5 9t-41 20q-20 11 -33 15t-25 4q-22 0 -31.5 -11t-9.5 -34h-146
q0 188 157 188q18 0 34.5 -3t32.5 -9t41 -20q20 -11 33 -15t25 -4q22 0 31.5 11t9.5 34h146z" />
    <glyph glyph-name="utilde" unicode="&#x169;" horiz-adv-x="758" 
d="M458 0v66q-85 -82 -194 -82q-95 0 -150 53t-55 146v345h243v-301q0 -64 62 -64q33 0 60 24q28 25 28 55v286h243v-528h-237zM633 762q0 -188 -157 -188q-18 0 -34.5 3t-32.5 9t-41 20q-20 11 -33 15t-25 4q-22 0 -31.5 -11t-9.5 -34h-146q0 188 157 188q18 0 34.5 -3
t32.5 -9t41 -20q20 -11 33 -15t25 -4q22 0 31.5 11t9.5 34h146z" />
    <glyph glyph-name="uni030C" unicode="&#x30c;" horiz-adv-x="0" 
d="M-107 583l-161 177h200l68 -71l68 71h200l-161 -177h-214z" />
    <glyph glyph-name="uni030C.cap" horiz-adv-x="0" 
d="M-115 772l-160 166h207l68 -64l68 64h207l-160 -166h-230z" />
    <glyph glyph-name="caron" unicode="&#x2c7;" horiz-adv-x="764" 
d="M275 583l-161 177h200l68 -71l68 71h200l-161 -177h-214z" />
    <glyph glyph-name="uni0315" unicode="&#x315;" horiz-adv-x="0" 
d="M-97 408l41 306h225l-85 -306h-181z" />
    <glyph glyph-name="uni0315.short" horiz-adv-x="0" 
d="M-81 579l21 194h192l-62 -194h-151z" />
    <glyph glyph-name="uni0304" unicode="&#x304;" horiz-adv-x="0" 
d="M-201 600v146h402v-146h-402z" />
    <glyph glyph-name="uni0304.cap" horiz-adv-x="0" 
d="M-209 777v158h418v-158h-418z" />
    <glyph glyph-name="uni02C9" unicode="&#x2c9;" horiz-adv-x="764" 
d="M181 600v146h402v-146h-402z" />
    <glyph glyph-name="macron" unicode="&#xaf;" horiz-adv-x="764" 
d="M181 600v146h402v-146h-402z" />
    <glyph glyph-name="Ccaron" unicode="&#x10c;" horiz-adv-x="889" 
d="M867 277q-10 -139 -116 -217t-283 -78q-131 0 -225.5 43.5t-145.5 128.5t-51 203q0 113 50 198t145 131t230 46q161 0 256 -65t126 -196l-256 -26q-15 43 -44.5 62t-82.5 19q-77 0 -116.5 -43t-39.5 -126q0 -169 160 -169q117 0 136 89h257zM350 772l-160 166h207l68 -64
l68 64h207l-160 -166h-230z" />
    <glyph glyph-name="Dcaron" unicode="&#x10e;" horiz-adv-x="922" 
d="M76 0v714h350q224 0 337 -89.5t113 -267.5q0 -112 -52 -192t-153.5 -122.5t-246.5 -42.5h-348zM429 201q94 0 139.5 39t45.5 119q0 78 -45 116t-137 38h-102v-312h99zM347 772l-160 166h207l68 -64l68 64h207l-160 -166h-230z" />
    <glyph glyph-name="Ecaron" unicode="&#x11a;" horiz-adv-x="785" 
d="M76 0v714h646v-183h-394v-80h374v-182h-374v-86h419l-21 -183h-650zM284 772l-160 166h207l68 -64l68 64h207l-160 -166h-230z" />
    <glyph glyph-name="Lcaron" unicode="&#x13d;" horiz-adv-x="751" 
d="M76 0v714h258v-507h384l-24 -207h-618zM436 408l41 306h225l-85 -306h-181z" />
    <glyph glyph-name="Ncaron" unicode="&#x147;" horiz-adv-x="935" 
d="M633 0l-314 376v-376h-243v714h226l314 -376v376h243v-714h-226zM344 772l-160 166h207l68 -64l68 64h207l-160 -166h-230z" />
    <glyph glyph-name="Rcaron" unicode="&#x158;" horiz-adv-x="851" 
d="M572 0l-133 218h-123v-218h-240v714h379q337 0 337 -245q0 -73 -28.5 -122t-91.5 -80l174 -267h-274zM440 397q60 0 84 16t24 54q0 37 -24 52.5t-82 15.5h-126v-138h124zM326 772l-160 166h207l68 -64l68 64h207l-160 -166h-230z" />
    <glyph glyph-name="Scaron" unicode="&#x160;" horiz-adv-x="806" 
d="M514 486q-13 38 -40.5 54t-78.5 16t-78.5 -11.5t-27.5 -33.5q0 -16 12.5 -24t46.5 -14l162 -27q145 -24 207.5 -76.5t62.5 -149.5q0 -238 -379 -238q-360 0 -383 259h253q16 -83 131 -83q123 0 123 53q0 17 -16.5 26.5t-52.5 15.5l-129 20q-148 23 -219 79.5t-71 151.5
q0 107 97.5 167.5t270.5 60.5q161 0 250.5 -56.5t103.5 -168.5zM290 772l-160 166h207l68 -64l68 64h207l-160 -166h-230z" />
    <glyph glyph-name="Tcaron" unicode="&#x164;" horiz-adv-x="786" 
d="M264 0v507h-253v207h764v-207h-253v-507h-258zM278 772l-160 166h207l68 -64l68 64h207l-160 -166h-230z" />
    <glyph glyph-name="Zcaron" unicode="&#x17d;" horiz-adv-x="783" 
d="M38 0v176l361 343h-352v195h681v-176l-361 -343h388l-22 -195h-695zM273 772l-160 166h207l68 -64l68 64h207l-160 -166h-230z" />
    <glyph glyph-name="Amacron" unicode="&#x100;" horiz-adv-x="916" 
d="M642 0l-38 105h-299l-37 -105h-260l296 714h308l296 -714h-266zM455 522l-83 -228h165zM249 777v158h418v-158h-418z" />
    <glyph glyph-name="Emacron" unicode="&#x112;" horiz-adv-x="785" 
d="M76 0v714h646v-183h-394v-80h374v-182h-374v-86h419l-21 -183h-650zM190 777v158h418v-158h-418z" />
    <glyph glyph-name="Imacron" unicode="&#x12a;" horiz-adv-x="410" 
d="M76 0v714h258v-714h-258zM-4 777v158h418v-158h-418z" />
    <glyph glyph-name="Omacron" unicode="&#x14c;" horiz-adv-x="966" 
d="M920 357q0 -115 -51.5 -199.5t-150.5 -130t-238 -45.5q-133 0 -230.5 43.5t-150.5 128t-53 203.5q0 115 51.5 199.5t150.5 130t238 45.5q133 0 230.5 -43.5t150.5 -128t53 -203.5zM652 357q0 81 -44.5 125t-124.5 44t-124.5 -44t-44.5 -125t44.5 -125t124.5 -44t124.5 44
t44.5 125zM274 777v158h418v-158h-418z" />
    <glyph glyph-name="Umacron" unicode="&#x16a;" horiz-adv-x="900" 
d="M574 714h258v-392q0 -174 -93.5 -257t-288.5 -83t-288.5 83t-93.5 257v392h258v-413q0 -59 29 -86t95 -27t95 27t29 86v413zM241 777v158h418v-158h-418z" />
    <glyph glyph-name="ccaron" unicode="&#x10d;" horiz-adv-x="705" 
d="M677 216q-9 -74 -47.5 -126t-104 -79t-157.5 -27q-159 0 -243.5 72t-84.5 204q0 133 87.5 208.5t242.5 75.5q127 0 204 -55t94 -154l-223 -21q-6 28 -23 41.5t-48 13.5q-44 0 -67 -26.5t-23 -78.5t23 -78.5t67 -26.5q71 0 77 57h226zM257 583l-161 177h200l68 -71l68 71
h200l-161 -177h-214z" />
    <glyph glyph-name="dcaron" unicode="&#x10f;" horiz-adv-x="1050" 
d="M480 0v60q-70 -76 -192 -76q-71 0 -127 33t-88.5 94.5t-32.5 143.5q0 84 32.5 149.5t93.5 102.5t144 37q106 0 164 -63v233h243v-714h-237zM475 270q0 47 -26 73q-25 25 -71 25t-70 -27t-24 -78q0 -103 93 -103q46 0 72 25q26 23 26 68v17zM794 408l41 306h225l-85 -306
h-181z" />
    <glyph glyph-name="ecaron" unicode="&#x11b;" horiz-adv-x="729" 
d="M268 215q4 -42 29 -61.5t75 -19.5q73 0 89 40h223q-42 -190 -318 -190q-156 0 -241 70.5t-85 202.5q0 63 22 115.5t65 91t105 59.5t140 21q152 0 234.5 -73t82.5 -207v-49h-421zM466 325q-2 36 -25 53.5t-71 17.5q-42 0 -68.5 -19t-31.5 -52h196zM263 583l-161 177h200
l68 -71l68 71h200l-161 -177h-214z" />
    <glyph glyph-name="lcaron" unicode="&#x13e;" horiz-adv-x="639" 
d="M63 0v714h243v-714h-243zM383 408l41 306h225l-85 -306h-181z" />
    <glyph glyph-name="ncaron" unicode="&#x148;" horiz-adv-x="764" 
d="M462 0v299q0 66 -65 66q-37 0 -64 -25t-27 -56v-284h-243v528h237v-66q85 82 197 82q97 0 152.5 -53t55.5 -146v-345h-243zM277 583l-161 177h200l68 -71l68 71h200l-161 -177h-214z" />
    <glyph glyph-name="rcaron" unicode="&#x159;" horiz-adv-x="560" 
d="M63 0v528h237v-67q73 76 180 76q33 0 66 -6l-27 -185q-37 6 -71 6q-33 0 -61.5 -7t-46.5 -20q-15 -11 -24.5 -27t-9.5 -33v-265h-243zM208 583l-161 177h200l68 -71l68 71h200l-161 -177h-214z" />
    <glyph glyph-name="scaron" unicode="&#x161;" horiz-adv-x="674" 
d="M419 361q-6 24 -25.5 35t-54.5 11q-71 0 -71 -33q0 -11 14 -17.5t51 -11.5l72 -10q93 -13 146.5 -34t77 -54t23.5 -83q0 -89 -75.5 -134.5t-224.5 -45.5q-156 0 -236 46.5t-88 139.5h228q7 -24 28.5 -34.5t64.5 -10.5q69 0 69 32q0 13 -13 19.5t-48 11.5l-67 10
q-131 20 -189.5 61t-58.5 114q0 82 78 126.5t220 44.5q135 0 209.5 -40t93.5 -124zM226 583l-161 177h200l68 -71l68 71h200l-161 -177h-214z" />
    <glyph glyph-name="tcaron" unicode="&#x165;" horiz-adv-x="606" 
d="M533 17q-44 -14 -85.5 -20t-92.5 -6q-125 0 -179.5 49.5t-54.5 162.5v154h-100v171h100v137h243v-137h150v-171h-150v-131q0 -32 15.5 -46t52.5 -14q31 0 72 12zM423 579l21 194h192l-62 -194h-151z" />
    <glyph glyph-name="zcaron" unicode="&#x17e;" horiz-adv-x="640" 
d="M24 0v135l264 226h-258v167h569v-135l-264 -226h281l-18 -167h-574zM208 583l-161 177h200l68 -71l68 71h200l-161 -177h-214z" />
    <glyph glyph-name="amacron" unicode="&#x101;" horiz-adv-x="723" 
d="M445 0v55q-41 -37 -87 -54t-107 -17q-104 0 -161.5 42.5t-57.5 120.5q0 173 304 180l100 2v22q0 23 -19.5 36t-53.5 13q-67 0 -81 -40l-216 14q31 170 304 170q294 0 294 -219v-325h-219zM436 213l-79 -2q-52 -2 -76.5 -13.5t-24.5 -34.5q0 -37 66 -37q56 0 88 25
q26 20 26 53v9zM179 600v146h402v-146h-402z" />
    <glyph glyph-name="emacron" unicode="&#x113;" horiz-adv-x="729" 
d="M268 215q4 -42 29 -61.5t75 -19.5q73 0 89 40h223q-42 -190 -318 -190q-156 0 -241 70.5t-85 202.5q0 63 22 115.5t65 91t105 59.5t140 21q152 0 234.5 -73t82.5 -207v-49h-421zM466 325q-2 36 -25 53.5t-71 17.5q-42 0 -68.5 -19t-31.5 -52h196zM169 600v146h402v-146
h-402z" />
    <glyph glyph-name="imacron" unicode="&#x12b;" horiz-adv-x="369" 
d="M63 0v528h243v-528h-243zM-16 600v146h402v-146h-402z" />
    <glyph glyph-name="omacron" unicode="&#x14d;" horiz-adv-x="752" 
d="M712 266q0 -133 -90 -207.5t-250 -74.5t-246 72t-86 206q0 133 90 207.5t250 74.5t246 -72t86 -206zM468 264q0 105 -92 105t-92 -105t92 -105t92 105zM175 600v146h402v-146h-402z" />
    <glyph glyph-name="umacron" unicode="&#x16b;" horiz-adv-x="758" 
d="M458 0v66q-85 -82 -194 -82q-95 0 -150 53t-55 146v345h243v-301q0 -64 62 -64q33 0 60 24q28 25 28 55v286h243v-528h-237zM177 600v146h402v-146h-402z" />
    <glyph glyph-name="uni0308" unicode="&#x308;" horiz-adv-x="0" 
d="M-251 589v140h212v-140h-212zM39 589v140h212v-140h-212z" />
    <glyph glyph-name="uni0308.cap" horiz-adv-x="0" 
d="M-264 775v162h223v-162h-223zM41 775v162h223v-162h-223z" />
    <glyph glyph-name="dieresis" unicode="&#xa8;" horiz-adv-x="764" 
d="M131 589v140h212v-140h-212zM421 589v140h212v-140h-212z" />
    <glyph glyph-name="uni0306" unicode="&#x306;" horiz-adv-x="0" 
d="M232 761q0 -87 -59.5 -133.5t-172.5 -46.5t-172.5 46.5t-59.5 133.5h167q0 -25 17 -39t48 -14t48 14t17 39h167z" />
    <glyph glyph-name="uni0306.cap" horiz-adv-x="0" 
d="M233 945q0 -177 -233 -177t-233 177h172q0 -51 61 -51t61 51h172z" />
    <glyph glyph-name="breve" unicode="&#x2d8;" horiz-adv-x="764" 
d="M614 761q0 -87 -59.5 -133.5t-172.5 -46.5t-172.5 46.5t-59.5 133.5h167q0 -25 17 -39t48 -14t48 14t17 39h167z" />
    <glyph glyph-name="Adieresis" unicode="&#xc4;" horiz-adv-x="916" 
d="M642 0l-38 105h-299l-37 -105h-260l296 714h308l296 -714h-266zM455 522l-83 -228h165zM194 775v162h223v-162h-223zM499 775v162h223v-162h-223z" />
    <glyph glyph-name="Edieresis" unicode="&#xcb;" horiz-adv-x="785" 
d="M76 0v714h646v-183h-394v-80h374v-182h-374v-86h419l-21 -183h-650zM135 775v162h223v-162h-223zM440 775v162h223v-162h-223z" />
    <glyph glyph-name="Idieresis" unicode="&#xcf;" horiz-adv-x="410" 
d="M76 0v714h258v-714h-258zM-59 775v162h223v-162h-223zM246 775v162h223v-162h-223z" />
    <glyph glyph-name="Odieresis" unicode="&#xd6;" horiz-adv-x="966" 
d="M920 357q0 -115 -51.5 -199.5t-150.5 -130t-238 -45.5q-133 0 -230.5 43.5t-150.5 128t-53 203.5q0 115 51.5 199.5t150.5 130t238 45.5q133 0 230.5 -43.5t150.5 -128t53 -203.5zM652 357q0 81 -44.5 125t-124.5 44t-124.5 -44t-44.5 -125t44.5 -125t124.5 -44t124.5 44
t44.5 125zM219 775v162h223v-162h-223zM524 775v162h223v-162h-223z" />
    <glyph glyph-name="Udieresis" unicode="&#xdc;" horiz-adv-x="900" 
d="M574 714h258v-392q0 -174 -93.5 -257t-288.5 -83t-288.5 83t-93.5 257v392h258v-413q0 -59 29 -86t95 -27t95 27t29 86v413zM186 775v162h223v-162h-223zM491 775v162h223v-162h-223z" />
    <glyph glyph-name="Wdieresis" unicode="&#x1e84;" horiz-adv-x="1236" 
d="M725 0l-109 379l-109 -379h-269l-226 714h274l102 -425l118 420h230l118 -420l102 425h268l-226 -714h-273zM357 775v162h223v-162h-223zM662 775v162h223v-162h-223z" />
    <glyph glyph-name="Ydieresis" unicode="&#x178;" horiz-adv-x="860" 
d="M301 0v262l-293 452h275l150 -252l151 252h268l-293 -452v-262h-258zM169 775v162h223v-162h-223zM474 775v162h223v-162h-223z" />
    <glyph glyph-name="Abreve" unicode="&#x102;" horiz-adv-x="916" 
d="M642 0l-38 105h-299l-37 -105h-260l296 714h308l296 -714h-266zM455 522l-83 -228h165zM691 945q0 -177 -233 -177t-233 177h172q0 -51 61 -51t61 51h172z" />
    <glyph glyph-name="Ebreve" unicode="&#x114;" horiz-adv-x="785" 
d="M76 0v714h646v-183h-394v-80h374v-182h-374v-86h419l-21 -183h-650zM632 945q0 -177 -233 -177t-233 177h172q0 -51 61 -51t61 51h172z" />
    <glyph glyph-name="Gbreve" unicode="&#x11e;" horiz-adv-x="926" 
d="M638 247h-136v177h372v-346q-157 -96 -364 -96q-224 0 -344 96t-120 275q0 115 50.5 200.5t148.5 132t234 46.5q159 0 259 -64t126 -180l-259 -22q-13 37 -43 53t-88 16q-84 0 -125 -43.5t-41 -132.5q0 -96 46 -138t153 -42q79 0 131 15v53zM722 945q0 -177 -233 -177
t-233 177h172q0 -51 61 -51t61 51h172z" />
    <glyph glyph-name="Ibreve" unicode="&#x12c;" horiz-adv-x="410" 
d="M76 0v714h258v-714h-258zM438 945q0 -177 -233 -177t-233 177h172q0 -51 61 -51t61 51h172z" />
    <glyph glyph-name="Obreve" unicode="&#x14e;" horiz-adv-x="966" 
d="M920 357q0 -115 -51.5 -199.5t-150.5 -130t-238 -45.5q-133 0 -230.5 43.5t-150.5 128t-53 203.5q0 115 51.5 199.5t150.5 130t238 45.5q133 0 230.5 -43.5t150.5 -128t53 -203.5zM652 357q0 81 -44.5 125t-124.5 44t-124.5 -44t-44.5 -125t44.5 -125t124.5 -44t124.5 44
t44.5 125zM716 945q0 -177 -233 -177t-233 177h172q0 -51 61 -51t61 51h172z" />
    <glyph glyph-name="Ubreve" unicode="&#x16c;" horiz-adv-x="900" 
d="M574 714h258v-392q0 -174 -93.5 -257t-288.5 -83t-288.5 83t-93.5 257v392h258v-413q0 -59 29 -86t95 -27t95 27t29 86v413zM683 945q0 -177 -233 -177t-233 177h172q0 -51 61 -51t61 51h172z" />
    <glyph glyph-name="adieresis" unicode="&#xe4;" horiz-adv-x="723" 
d="M445 0v55q-41 -37 -87 -54t-107 -17q-104 0 -161.5 42.5t-57.5 120.5q0 173 304 180l100 2v22q0 23 -19.5 36t-53.5 13q-67 0 -81 -40l-216 14q31 170 304 170q294 0 294 -219v-325h-219zM436 213l-79 -2q-52 -2 -76.5 -13.5t-24.5 -34.5q0 -37 66 -37q56 0 88 25
q26 20 26 53v9zM129 589v140h212v-140h-212zM419 589v140h212v-140h-212z" />
    <glyph glyph-name="edieresis" unicode="&#xeb;" horiz-adv-x="729" 
d="M268 215q4 -42 29 -61.5t75 -19.5q73 0 89 40h223q-42 -190 -318 -190q-156 0 -241 70.5t-85 202.5q0 63 22 115.5t65 91t105 59.5t140 21q152 0 234.5 -73t82.5 -207v-49h-421zM466 325q-2 36 -25 53.5t-71 17.5q-42 0 -68.5 -19t-31.5 -52h196zM119 589v140h212v-140
h-212zM409 589v140h212v-140h-212z" />
    <glyph glyph-name="idieresis" unicode="&#xef;" horiz-adv-x="369" 
d="M63 0v528h243v-528h-243zM-66 589v140h212v-140h-212zM224 589v140h212v-140h-212z" />
    <glyph glyph-name="odieresis" unicode="&#xf6;" horiz-adv-x="752" 
d="M712 266q0 -133 -90 -207.5t-250 -74.5t-246 72t-86 206q0 133 90 207.5t250 74.5t246 -72t86 -206zM468 264q0 105 -92 105t-92 -105t92 -105t92 105zM125 589v140h212v-140h-212zM415 589v140h212v-140h-212z" />
    <glyph glyph-name="udieresis" unicode="&#xfc;" horiz-adv-x="758" 
d="M458 0v66q-85 -82 -194 -82q-95 0 -150 53t-55 146v345h243v-301q0 -64 62 -64q33 0 60 24q28 25 28 55v286h243v-528h-237zM127 589v140h212v-140h-212zM417 589v140h212v-140h-212z" />
    <glyph glyph-name="wdieresis" unicode="&#x1e85;" horiz-adv-x="1009" 
d="M595 0l-87 259l-89 -259h-230l-181 528h237l81 -287l89 282h187l91 -277l79 282h229l-181 -528h-225zM257 589v140h212v-140h-212zM547 589v140h212v-140h-212z" />
    <glyph glyph-name="ydieresis" unicode="&#xff;" horiz-adv-x="720" 
d="M260 57l-254 471h257l104 -267l100 267h247l-259 -525q-44 -90 -79 -133t-75 -59t-99 -16q-85 0 -161 25l33 157q38 -11 80 -11q32 0 51.5 13t39.5 49zM112 589v140h212v-140h-212zM402 589v140h212v-140h-212z" />
    <glyph glyph-name="abreve" unicode="&#x103;" horiz-adv-x="723" 
d="M445 0v55q-41 -37 -87 -54t-107 -17q-104 0 -161.5 42.5t-57.5 120.5q0 173 304 180l100 2v22q0 23 -19.5 36t-53.5 13q-67 0 -81 -40l-216 14q31 170 304 170q294 0 294 -219v-325h-219zM436 213l-79 -2q-52 -2 -76.5 -13.5t-24.5 -34.5q0 -37 66 -37q56 0 88 25
q26 20 26 53v9zM612 761q0 -87 -59.5 -133.5t-172.5 -46.5t-172.5 46.5t-59.5 133.5h167q0 -25 17 -39t48 -14t48 14t17 39h167z" />
    <glyph glyph-name="ebreve" unicode="&#x115;" horiz-adv-x="729" 
d="M268 215q4 -42 29 -61.5t75 -19.5q73 0 89 40h223q-42 -190 -318 -190q-156 0 -241 70.5t-85 202.5q0 63 22 115.5t65 91t105 59.5t140 21q152 0 234.5 -73t82.5 -207v-49h-421zM466 325q-2 36 -25 53.5t-71 17.5q-42 0 -68.5 -19t-31.5 -52h196zM602 761
q0 -87 -59.5 -133.5t-172.5 -46.5t-172.5 46.5t-59.5 133.5h167q0 -25 17 -39t48 -14t48 14t17 39h167z" />
    <glyph glyph-name="gbreve" unicode="&#x11f;" horiz-adv-x="780" 
d="M474 93q-33 -33 -78 -49t-108 -16q-71 0 -127 30.5t-88.5 87t-32.5 132.5t32.5 136.5t93.5 95t144 34.5q109 0 170 -66v50h237v-454q0 -143 -82.5 -211t-252.5 -68q-149 0 -227.5 48.5t-89.5 147.5h233q5 -23 24.5 -33.5t58.5 -10.5q48 0 70.5 24.5t22.5 76.5v45z
M475 286q0 40 -27 64q-24 21 -70 21t-70 -22.5t-24 -65.5q0 -86 93 -86q42 0 71 21q27 20 27 60v8zM647 761q0 -87 -59.5 -133.5t-172.5 -46.5t-172.5 46.5t-59.5 133.5h167q0 -25 17 -39t48 -14t48 14t17 39h167z" />
    <glyph glyph-name="ibreve" unicode="&#x12d;" horiz-adv-x="369" 
d="M63 0v528h243v-528h-243zM417 761q0 -87 -59.5 -133.5t-172.5 -46.5t-172.5 46.5t-59.5 133.5h167q0 -25 17 -39t48 -14t48 14t17 39h167z" />
    <glyph glyph-name="obreve" unicode="&#x14f;" horiz-adv-x="752" 
d="M712 266q0 -133 -90 -207.5t-250 -74.5t-246 72t-86 206q0 133 90 207.5t250 74.5t246 -72t86 -206zM468 264q0 105 -92 105t-92 -105t92 -105t92 105zM608 761q0 -87 -59.5 -133.5t-172.5 -46.5t-172.5 46.5t-59.5 133.5h167q0 -25 17 -39t48 -14t48 14t17 39h167z" />
    <glyph glyph-name="ubreve" unicode="&#x16d;" horiz-adv-x="758" 
d="M458 0v66q-85 -82 -194 -82q-95 0 -150 53t-55 146v345h243v-301q0 -64 62 -64q33 0 60 24q28 25 28 55v286h243v-528h-237zM610 761q0 -87 -59.5 -133.5t-172.5 -46.5t-172.5 46.5t-59.5 133.5h167q0 -25 17 -39t48 -14t48 14t17 39h167z" />
    <glyph glyph-name="uni0307" unicode="&#x307;" horiz-adv-x="0" 
d="M-121 589v140h243v-140h-243z" />
    <glyph glyph-name="uni0307.cap" horiz-adv-x="0" 
d="M-129 775v162h258v-162h-258z" />
    <glyph glyph-name="dotaccent" unicode="&#x2d9;" horiz-adv-x="764" 
d="M261 589v140h243v-140h-243z" />
    <glyph glyph-name="Edotaccent" unicode="&#x116;" horiz-adv-x="785" 
d="M76 0v714h646v-183h-394v-80h374v-182h-374v-86h419l-21 -183h-650zM270 775v162h258v-162h-258z" />
    <glyph glyph-name="Idotaccent" unicode="&#x130;" horiz-adv-x="410" 
d="M76 0v714h258v-714h-258zM76 775v162h258v-162h-258z" />
    <glyph glyph-name="Cdotaccent" unicode="&#x10a;" horiz-adv-x="889" 
d="M867 277q-10 -139 -116 -217t-283 -78q-131 0 -225.5 43.5t-145.5 128.5t-51 203q0 113 50 198t145 131t230 46q161 0 256 -65t126 -196l-256 -26q-15 43 -44.5 62t-82.5 19q-77 0 -116.5 -43t-39.5 -126q0 -169 160 -169q117 0 136 89h257zM336 775v162h258v-162h-258z
" />
    <glyph glyph-name="Gdotaccent" unicode="&#x120;" horiz-adv-x="926" 
d="M638 247h-136v177h372v-346q-157 -96 -364 -96q-224 0 -344 96t-120 275q0 115 50.5 200.5t148.5 132t234 46.5q159 0 259 -64t126 -180l-259 -22q-13 37 -43 53t-88 16q-84 0 -125 -43.5t-41 -132.5q0 -96 46 -138t153 -42q79 0 131 15v53zM360 775v162h258v-162h-258z
" />
    <glyph glyph-name="Zdotaccent" unicode="&#x17b;" horiz-adv-x="783" 
d="M38 0v176l361 343h-352v195h681v-176l-361 -343h388l-22 -195h-695zM259 775v162h258v-162h-258z" />
    <glyph glyph-name="edotaccent" unicode="&#x117;" horiz-adv-x="729" 
d="M268 215q4 -42 29 -61.5t75 -19.5q73 0 89 40h223q-42 -190 -318 -190q-156 0 -241 70.5t-85 202.5q0 63 22 115.5t65 91t105 59.5t140 21q152 0 234.5 -73t82.5 -207v-49h-421zM466 325q-2 36 -25 53.5t-71 17.5q-42 0 -68.5 -19t-31.5 -52h196zM249 589v140h243v-140
h-243z" />
    <glyph glyph-name="cdotaccent" unicode="&#x10b;" horiz-adv-x="705" 
d="M677 216q-9 -74 -47.5 -126t-104 -79t-157.5 -27q-159 0 -243.5 72t-84.5 204q0 133 87.5 208.5t242.5 75.5q127 0 204 -55t94 -154l-223 -21q-6 28 -23 41.5t-48 13.5q-44 0 -67 -26.5t-23 -78.5t23 -78.5t67 -26.5q71 0 77 57h226zM243 589v140h243v-140h-243z" />
    <glyph glyph-name="gdotaccent" unicode="&#x121;" horiz-adv-x="780" 
d="M474 93q-33 -33 -78 -49t-108 -16q-71 0 -127 30.5t-88.5 87t-32.5 132.5t32.5 136.5t93.5 95t144 34.5q109 0 170 -66v50h237v-454q0 -143 -82.5 -211t-252.5 -68q-149 0 -227.5 48.5t-89.5 147.5h233q5 -23 24.5 -33.5t58.5 -10.5q48 0 70.5 24.5t22.5 76.5v45z
M475 286q0 40 -27 64q-24 21 -70 21t-70 -22.5t-24 -65.5q0 -86 93 -86q42 0 71 21q27 20 27 60v8zM294 589v140h243v-140h-243z" />
    <glyph glyph-name="zdotaccent" unicode="&#x17c;" horiz-adv-x="640" 
d="M24 0v135l264 226h-258v167h569v-135l-264 -226h281l-18 -167h-574zM194 589v140h243v-140h-243z" />
    <glyph glyph-name="uni030A" unicode="&#x30a;" horiz-adv-x="0" 
d="M161 699q0 -60 -45 -96t-116 -36t-116 36t-45 96t45 96t116 36t116 -36t45 -96zM48 699q0 18 -12.5 27.5t-35.5 9.5t-35.5 -9.5t-12.5 -27.5t12.5 -27.5t35.5 -9.5t35.5 9.5t12.5 27.5z" />
    <glyph glyph-name="uni030A.cap" horiz-adv-x="0" 
d="M169 876q0 -63 -46 -101t-123 -38t-123 38t-46 101t46 101t123 38t123 -38t46 -101zM51 876q0 19 -13 29t-38 10t-38 -10t-13 -29t13 -29t38 -10t38 10t13 29z" />
    <glyph glyph-name="ring" unicode="&#x2da;" horiz-adv-x="764" 
d="M543 699q0 -60 -45 -96t-116 -36t-116 36t-45 96t45 96t116 36t116 -36t45 -96zM430 699q0 18 -12.5 27.5t-35.5 9.5t-35.5 -9.5t-12.5 -27.5t12.5 -27.5t35.5 -9.5t35.5 9.5t12.5 27.5z" />
    <glyph glyph-name="Aring" unicode="&#xc5;" horiz-adv-x="916" 
d="M642 0l-38 105h-299l-37 -105h-260l299 698q-18 29 -18 69q0 63 46 101t123 38t123 -38t46 -101q0 -40 -18 -69l299 -698h-266zM455 522l-83 -228h165zM509 767q0 19 -13 29t-38 10q-24 0 -37.5 -10t-13.5 -29t13.5 -29t37.5 -10q25 0 38 10t13 29z" />
    <glyph glyph-name="Uring" unicode="&#x16e;" horiz-adv-x="900" 
d="M574 714h258v-392q0 -174 -93.5 -257t-288.5 -83t-288.5 83t-93.5 257v392h258v-413q0 -59 29 -86t95 -27t95 27t29 86v413zM619 876q0 -63 -46 -101t-123 -38t-123 38t-46 101t46 101t123 38t123 -38t46 -101zM501 876q0 19 -13 29t-38 10t-38 -10t-13 -29t13 -29
t38 -10t38 10t13 29z" />
    <glyph glyph-name="aring" unicode="&#xe5;" horiz-adv-x="723" 
d="M445 0v55q-41 -37 -87 -54t-107 -17q-104 0 -161.5 42.5t-57.5 120.5q0 173 304 180l100 2v22q0 23 -19.5 36t-53.5 13q-67 0 -81 -40l-216 14q31 170 304 170q294 0 294 -219v-325h-219zM436 213l-79 -2q-52 -2 -76.5 -13.5t-24.5 -34.5q0 -37 66 -37q56 0 88 25
q26 20 26 53v9zM541 699q0 -60 -45 -96t-116 -36t-116 36t-45 96t45 96t116 36t116 -36t45 -96zM428 699q0 18 -12.5 27.5t-35.5 9.5t-35.5 -9.5t-12.5 -27.5t12.5 -27.5t35.5 -9.5t35.5 9.5t12.5 27.5z" />
    <glyph glyph-name="uring" unicode="&#x16f;" horiz-adv-x="758" 
d="M458 0v66q-85 -82 -194 -82q-95 0 -150 53t-55 146v345h243v-301q0 -64 62 -64q33 0 60 24q28 25 28 55v286h243v-528h-237zM539 699q0 -60 -45 -96t-116 -36t-116 36t-45 96t45 96t116 36t116 -36t45 -96zM426 699q0 18 -12.5 27.5t-35.5 9.5t-35.5 -9.5t-12.5 -27.5
t12.5 -27.5t35.5 -9.5t35.5 9.5t12.5 27.5z" />
    <glyph glyph-name="uni0394" unicode="&#x394;" horiz-adv-x="904" 
d="M8 0l290 714h308l290 -714h-888zM449 522l-124 -333h246z" />
    <glyph glyph-name="uni03A9" unicode="&#x3a9;" horiz-adv-x="970" 
d="M537 0v179q56 31 81.5 75.5t25.5 111.5q0 82 -38.5 121t-120.5 39t-120.5 -39t-38.5 -121q0 -67 25.5 -111.5t81.5 -75.5v-179h-408v186h147q-60 45 -87 96.5t-27 119.5q0 99 50.5 173.5t147 115.5t229.5 41q128 0 224.5 -39t149.5 -114t53 -177q0 -68 -27 -119.5
t-87 -96.5h147l-21 -186h-387z" />
    <glyph glyph-name="uni03BC" unicode="&#x3bc;" horiz-adv-x="762" 
d="M462 0v74q-48 -75 -117 -75q-19 0 -39 5v-198h-243v722h243v-301q0 -64 62 -64q33 0 60 24q28 25 28 55v286h243v-528h-237z" />
    <glyph glyph-name="pi" unicode="&#x3c0;" horiz-adv-x="852" 
d="M832 12q-67 -21 -153 -21q-104 0 -154.5 47.5t-50.5 144.5v166h-118v-349h-243v349h-98v179h803v-179h-101v-136q0 -46 48 -46q17 0 39 5z" />
    <glyph glyph-name="uniFEFF" unicode="&#xfeff;" horiz-adv-x="0" 
 />
    </font>
</defs>
</svg>
