<svg xmlns="http://www.w3.org/2000/svg" xmlns:xlink="http://www.w3.org/1999/xlink" width="1992.212" height="1591.56" viewBox="0 0 1992.212 1591.56">
  <defs>
    <clipPath id="clip-path">
      <rect id="Rectangle_159" data-name="Rectangle 159" width="1992.213" height="1591.56" transform="translate(-4555 2768)" fill="#000" stroke="#f5f5f5" stroke-width="1"/>
    </clipPath>
  </defs>
  <g id="Group_169" data-name="Group 169" transform="translate(4555 -2768)" clip-path="url(#clip-path)">
    <g id="dark-bg" transform="translate(-7727.067 1105.981)">
      <g id="Group_162" data-name="Group 162" transform="translate(0 0)" opacity="0.43">
        <rect id="Rectangle_158" data-name="Rectangle 158" width="1989.449" height="1587.415" transform="translate(3175.329 1662.218)" fill="none"/>
        <g id="Group_161" data-name="Group 161" transform="translate(0)">
          <g id="Group_160" data-name="Group 160" transform="translate(0)">
            <g id="Group_159" data-name="Group 159" transform="translate(0)">
              <g id="Group_158" data-name="Group 158" transform="translate(0)">
                <g id="Group_154" data-name="Group 154">
                  <g id="Group_151" data-name="Group 151" transform="translate(0 1525.245)">
                    <path id="Path_167" data-name="Path 167" d="M4782.255,3264.2.638,493.721m5082.8,2535.614L301.818,258.856" transform="translate(-0.638 97.587)" fill="none" stroke="#182e4e" stroke-width="8" fill-rule="evenodd"/>
                    <path id="Path_168" data-name="Path 168" d="M4727.886,2723.267,1309.03,742.372" transform="translate(498.594 282.079)" fill="none" stroke="#182e4e" stroke-width="2" fill-rule="evenodd"/>
                    <path id="Path_169" data-name="Path 169" d="M5322.254,2771.335,540.638.856" transform="translate(205.405 -0.856)" fill="none" stroke="#182e4e" stroke-width="2" fill-rule="evenodd"/>
                  </g>
                  <g id="Group_152" data-name="Group 152" transform="translate(1055.513 1052.75)">
                    <path id="Path_170" data-name="Path 170" d="M4782.255,2947.335.638,176.856" transform="translate(-0.638 66.299)" fill="none" stroke="#182e4e" stroke-width="2" fill-rule="evenodd"/>
                    <path id="Path_171" data-name="Path 171" d="M5206.626,3337.516,924.677,856.556" transform="translate(351.94 325.647)" fill="none" stroke="#182e4e" stroke-width="2" fill-rule="evenodd"/>
                    <path id="Path_172" data-name="Path 172" d="M4794.355,2877.488,2012.4,1265.62" transform="translate(766.973 481.73)" fill="none" stroke="#182e4e" stroke-width="2" fill-rule="evenodd"/>
                    <path id="Path_173" data-name="Path 173" d="M4476.605,2621.985,1178.25,710.906" transform="translate(448.694 270.072)" fill="none" stroke="#182e4e" stroke-width="2" fill-rule="evenodd"/>
                    <path id="Path_174" data-name="Path 174" d="M4990.255,2771.335,208.638.856" transform="translate(78.726 -0.856)" fill="none" stroke="#182e4e" stroke-width="2" fill-rule="evenodd"/>
                    <path id="Path_175" data-name="Path 175" d="M3093.528,1742.092l-38.255-22.174m79.7.069-38.255-22.174m-1141.6-643.745-71.73-41.557m651.987-378.438-71.731-41.557m273.439,947.867-71.731-41.557m287.254,124.451L2773.3,1519.384m30.1-216.629-358.626-207.791" transform="translate(717.748 224.899)" fill="none" stroke="#182e4e" stroke-width="2" fill-rule="evenodd"/>
                    <path id="Path_176" data-name="Path 176" d="M1869.121,1243.4l-71.731-41.557L1928.9,1124.65" transform="translate(684.934 427.941)" fill="none" stroke="#182e4e" stroke-width="2" fill-rule="evenodd"/>
                    <path id="Path_177" data-name="Path 177" d="M2249.121,577.391l-71.731-41.557L2308.9,458.646" transform="translate(829.928 173.819)" fill="none" stroke="#182e4e" stroke-width="2" fill-rule="evenodd"/>
                    <path id="Path_178" data-name="Path 178" d="M2007.487,1431.728l-71.73-41.557m-30.5-68.968-148.228-85.892m355.462-358.977-181.7-105.278m-105.661-54.983-71.731-41.557" transform="translate(668.145 256.187)" fill="none" stroke="#182e4e" stroke-width="2" fill-rule="evenodd"/>
                    <path id="Path_179" data-name="Path 179" d="M4679.682,2443.339,1435.36,563.566" transform="translate(546.797 213.853)" fill="none" stroke="#182e4e" stroke-width="2" fill-rule="evenodd"/>
                    <path id="Path_180" data-name="Path 180" d="M4774.834,2350.213,1562.55,489" transform="translate(595.328 185.402)" fill="none" stroke="#182e4e" stroke-width="2" fill-rule="evenodd"/>
                    <path id="Path_181" data-name="Path 181" d="M5082.507,2304.443,1257.21,88.064" transform="translate(478.822 32.419)" fill="none" stroke="#182e4e" stroke-width="2" fill-rule="evenodd"/>
                    <path id="Path_182" data-name="Path 182" d="M2729.184,1048.267,1660.49,429.066" transform="translate(632.698 162.533)" fill="none" stroke="#182e4e" stroke-width="2" fill-rule="evenodd"/>
                  </g>
                  <g id="Group_153" data-name="Group 153" transform="translate(2102.738)">
                    <path id="Path_183" data-name="Path 183" d="M4782.255,3111.335.638,340.856" transform="translate(-0.638 128.875)" fill="none" stroke="#182e4e" stroke-width="12" fill-rule="evenodd"/>
                    <path id="Path_184" data-name="Path 184" d="M2045.714,1829.607,1954.6,1473.44" transform="translate(744.919 561.026)" fill="none" stroke="#182e4e" stroke-width="8" fill-rule="evenodd"/>
                    <path id="Path_185" data-name="Path 185" d="M5060.757,2884.623,2843.281,1599.813M5218.256,2771.335,436.638.856" transform="translate(165.723 -0.856)" fill="none" stroke="#182e4e" stroke-width="2" fill-rule="evenodd"/>
                  </g>
                </g>
                <g id="Group_157" data-name="Group 157" transform="translate(7486.303 5597.35) rotate(180)">
                  <g id="Group_155" data-name="Group 155" transform="translate(0 0)">
                    <path id="Path_186" data-name="Path 186" d="M4781.617,710.317,0,3480.791M5651.088,0,869.468,2770.475M4939.114,823.6,157.5,3594.085" fill="none" stroke="#182e4e" stroke-width="2" fill-rule="evenodd"/>
                    <path id="Path_187" data-name="Path 187" d="M4781.618,0,0,2770.479" transform="translate(444.862 1066.76)" fill="none" stroke="#182e4e" stroke-width="2" fill-rule="evenodd"/>
                    <path id="Path_188" data-name="Path 188" d="M95.632,0,0,55.414M626.152,715.651,487.484,795.994" transform="translate(3386.405 3003.516)" fill="none" stroke="#182e4e" stroke-width="2" fill-rule="evenodd"/>
                    <path id="Path_189" data-name="Path 189" d="M3825.3,0,0,2216.379" transform="translate(1955.659 2387.34)" fill="none" stroke="#182e4e" stroke-width="2" fill-rule="evenodd"/>
                    <path id="Path_190" data-name="Path 190" d="M1144.016,1376.037l-71.731,41.557M1099.806,24.868,1074.994,39.25A140.94,140.94,0,0,1,933.439,39.1L921.06,31.886M362.052,0,266.421,55.414m-89.5,41.295L0,199.221M964.413,52.5,884.559,98.768" transform="translate(2545.254 2464.707)" fill="none" stroke="#182e4e" stroke-width="2" fill-rule="evenodd"/>
                    <path id="Path_191" data-name="Path 191" d="M4781.618,0,0,2770.48" transform="translate(602.361 1180.048)" fill="none" stroke="#182e4e" stroke-width="8" fill-rule="evenodd"/>
                    <path id="Path_192" data-name="Path 192" d="M4781.617,0,0,2770.48" transform="translate(746.043 1301.625)" fill="none" stroke="#182e4e" stroke-width="2" fill-rule="evenodd"/>
                    <path id="Path_193" data-name="Path 193" d="M4781.621,0,0,2770.474" transform="translate(869.468 2099.975)" fill="none" stroke="#182e4e" stroke-width="2" fill-rule="evenodd"/>
                    <path id="Path_194" data-name="Path 194" d="M4781.618,0,0,2770.479" transform="translate(903.541 1414.913)" fill="none" stroke="#182e4e" stroke-width="10" fill-rule="evenodd"/>
                  </g>
                  <g id="Group_156" data-name="Group 156" transform="translate(1500.376 1481.229)">
                    <path id="Path_195" data-name="Path 195" d="M2271.26,0,0,1315.979" transform="translate(2065.493 49.736)" fill="none" stroke="#182e4e" stroke-width="2" fill-rule="evenodd"/>
                    <path id="Path_196" data-name="Path 196" d="M2096.742,0,0,1214.863" transform="translate(2159.881)" fill="none" stroke="#182e4e" stroke-width="2" fill-rule="evenodd"/>
                    <path id="Path_197" data-name="Path 197" d="M4375.179,0,0,2534.99" transform="translate(105.257 171.314)" fill="none" stroke="#182e4e" stroke-width="12" fill-rule="evenodd"/>
                    <path id="Path_198" data-name="Path 198" d="M2029.791,0,0,1176.068" transform="translate(2511.433 243.155)" fill="none" stroke="#182e4e" stroke-width="2" fill-rule="evenodd"/>
                    <path id="Path_199" data-name="Path 199" d="M4781.617,0,0,2770.48" transform="translate(0 406.179)" fill="none" stroke="#182e4e" stroke-width="2" fill-rule="evenodd"/>
                    <path id="Path_200" data-name="Path 200" d="M4781.617,0,0,2770.48" transform="translate(301.18 641.045)" fill="none" stroke="#182e4e" stroke-width="2" fill-rule="evenodd"/>
                  </g>
                  <path id="Path_201" data-name="Path 201" d="M4781.615,0,0,2770.48" transform="translate(1959.057 2235.562)" fill="none" stroke="#182e4e" stroke-width="2" fill-rule="evenodd"/>
                  <path id="Path_202" data-name="Path 202" d="M4781.615,0,0,2770.48" transform="translate(2376.289 2370.954)" fill="none" stroke="#182e4e" stroke-width="2" fill-rule="evenodd"/>
                </g>
              </g>
            </g>
          </g>
        </g>
      </g>
    </g>
  </g>
</svg>
