<?xml version="1.0" encoding="UTF-8"?>
<!DOCTYPE svg  PUBLIC '-//W3C//DTD SVG 1.1//EN'  'http://www.w3.org/Graphics/SVG/1.1/DTD/svg11.dtd'>
<svg version="1.1" xmlns="http://www.w3.org/2000/svg">
<defs>
<font id="ArialAzeriCyrBold" horiz-adv-x="1139">
<font-face font-family="d" font-weight="700" ascent="1638" bbox="-99 -431 1986 1584" cap-height="1466" descent="-410" panose-1="2 11 7 4 2 2 2 2 2 4" underline-position="-323" underline-thickness="215" unicode-range="U+0020-00FE" units-per-em="2048" x-height="1062"/>
<missing-glyph/>
<glyph glyph-name="space" horiz-adv-x="569" unicode=" "/>
<glyph d="M256 378l-73 744v344h304v-344l-72 -744h-159zM195 0v281h281v-281h-281z" glyph-name="exclam" horiz-adv-x="682" unicode="!"/>
<glyph d="M160 945l-53 273v248h306v-248l-46 -273h-207zM611 945l-53 273v248h306v-248l-46 -273h-207z" glyph-name="quotedbl" horiz-adv-x="971" unicode='"'/>
<glyph d="M158 365h-136v220h180l60 295h-240v221h285l79 390h224l-79 -390h221l77 390h232l-80 -390h138v-221h-183l-60 -295h243v-220h-288l-79 -390h-223l77 390h-222l-79 -390h-226zM487 880l-59 -295h222l58 295h-221z" glyph-name="numbersign" unicode="#"/>
<glyph d="M493 217v419q-379 107 -379 443q0 170 105 281q104 108 274 125v99h145v-99q319 -37 373 -348l-253 -33q-22 116 -120 160v-391q202 -52 297 -137q117 -106 117 -294q0 -190 -112 -312t-302 -148v-187h-145v182q-359 45 -419 434l261 28q32 -160 158 -222zM493 1267 q-129 -45 -129 -173q0 -116 129 -173v346zM638 203q74 14 121.5 69t47.5 130q0 143 -169 191v-390z" glyph-name="dollar" unicode="$"/>
<glyph d="M93 1104q0 387 319 387q328 0 328 -387t-319 -387q-328 0 -328 387zM312 1106q0 -228 102 -228t102 228t-102 228q-51 0 -76.5 -56.5t-25.5 -171.5zM628 -56h-208l781 1547h202zM1082 329q0 387 323 387q324 0 324 -387q0 -388 -319 -388q-328 0 -328 388zM1301 330 q0 -228 102 -228t102 228t-102 228q-51 0 -76.5 -56.5t-25.5 -171.5z" glyph-name="percent" horiz-adv-x="1821" unicode="%"/>
<glyph d="M1449 179l-170 -217q-124 60 -240 168q-167 -156 -425 -156q-214 0 -358 103q-163 117 -163 323q0 283 335 451q-151 178 -151 322q0 156 131 243q114 75 277 75q167 0 280 -82q126 -91 126 -252q0 -115 -84 -209q-58 -65 -183 -141l204 -269q33 58 62 167l254 -58 q-61 -224 -126 -302q116 -107 231 -166zM684 976l76 58q84 64 84 129q0 60 -44.5 95t-105.5 35q-54 0 -96 -28q-47 -31 -47 -83t64 -126zM574 671q-193 -98 -193 -259q0 -94 63 -151q60 -55 155 -55q133 0 261 112z" glyph-name="ampersand" horiz-adv-x="1479" unicode="&amp;"/>
<glyph d="M146 945l-53 273v248h306v-248l-46 -273h-207z" glyph-name="quotesingle" horiz-adv-x="492" unicode="'"/>
<glyph d="M613 -431h-193q-313 474 -313 964q0 496 317 958h192q-139 -304 -188 -511q-52 -217 -52 -448q0 -478 237 -963z" glyph-name="parenleft" horiz-adv-x="682" unicode="("/>
<glyph d="M69 -431q237 483 237 950q0 262 -62 500q-53 202 -177 472h191q318 -462 318 -946q0 -503 -313 -976h-194z" glyph-name="parenright" horiz-adv-x="682" unicode=")"/>
<glyph d="M249 792l-151 117q58 65 150 155l39 38q-157 27 -255 64l59 176q138 -57 234 -117q-24 153 -24 266h178q0 -77 -27 -268l86 39q76 34 166 70l53 -181q-85 -20 -257 -49l177 -202l-153 -101l-135 223q-89 -154 -140 -230z" glyph-name="asterisk" horiz-adv-x="797" unicode="*"/>
<glyph d="M469 211v381h-384v263h384v381h256v-381h385v-263h-385v-381h-256z" glyph-name="plus" horiz-adv-x="1196" unicode="+"/>
<glyph d="M135 281h281v-201q0 -164 -49 -252q-56 -102 -200 -155l-55 116q159 48 159 211h-136v281z" glyph-name="comma" horiz-adv-x="565" unicode=","/>
<glyph d="M142 0v281h281v-281h-281z" glyph-name="period" horiz-adv-x="565" unicode="."/>
<glyph d="M-3 -25l363 1516h211l-367 -1516h-207z" glyph-name="slash" horiz-adv-x="569" unicode="/"/>
<glyph d="M566 1472q356 0 446 -420q30 -140 30 -329q0 -748 -476 -748q-222 0 -349 170t-127 581q0 746 476 746zM566 1239q-96 0 -139 -106.5t-43 -409.5q0 -221 15 -304q37 -211 167 -211q96 0 139 105t43 410q0 222 -15 305q-37 211 -167 211z" glyph-name="zero" unicode="0"/>
<glyph d="M810 0h-281v1059q-153 -144 -363 -213v255q131 43 248 143q127 108 168 228h228v-1472z" glyph-name="one" unicode="1"/>
<glyph d="M1040 261v-261h-985q18 179 146 351q79 107 266 281q155 144 187 182q104 122 104 231q0 89 -50 141.5t-138 52.5q-202 0 -202 -229l-280 28q21 212 146.5 323t338.5 111q199 0 327 -103q140 -111 140 -305q0 -161 -103 -313q-69 -103 -226 -247q-202 -186 -229 -243h558 z" glyph-name="two" unicode="2"/>
<glyph d="M81 389l272 33q30 -214 208 -214q98 0 155 76q51 68 51 169q0 94 -50 158q-55 71 -146 71q-54 0 -129 -21l31 229q234 0 234 189q0 73 -44 117.5t-117 44.5q-160 0 -185 -196l-259 44q69 383 452 383q172 0 299 -101q136 -110 136 -278q0 -188 -211 -305 q128 -26 202.5 -122t74.5 -228q0 -201 -147 -334q-142 -129 -345 -129q-195 0 -326 110q-134 113 -156 304z" glyph-name="three" unicode="3"/>
<glyph d="M642 0v295h-600v246l636 931h236v-930h182v-247h-182v-295h-272zM642 542v501l-337 -501h337z" glyph-name="four" unicode="4"/>
<glyph d="M95 377l280 29q10 -86 65 -144q58 -62 142 -62q108 0 164 94q46 78 46 193q0 117 -50 188q-57 82 -169 82q-123 0 -216 -107l-228 33l144 763h743v-263h-530l-44 -249q90 47 192 47q199 0 326 -145q121 -139 121 -341q0 -220 -139 -368q-142 -152 -360 -152 q-197 0 -326 103q-134 107 -161 299z" glyph-name="five" unicode="5"/>
<glyph d="M1043 1107l-272 -30q-20 164 -161 164q-103 0 -161 -103q-67 -120 -67 -310q106 124 261 124q192 0 313 -146q114 -138 114 -334q0 -215 -126 -354q-130 -143 -343 -143q-282 0 -411 242q-99 187 -99 497q0 510 253 676q126 82 281 82q354 0 418 -365zM406 494 q0 -110 48 -190q57 -96 159 -96q182 0 182 262q0 113 -41 185q-50 90 -155 90q-97 0 -149 -80q-44 -68 -44 -171z" glyph-name="six" unicode="6"/>
<glyph d="M91 1185v261h961v-204q-215 -216 -356 -577q-137 -351 -137 -665h-271q0 617 442 1185h-639z" glyph-name="seven" unicode="7"/>
<glyph d="M332 791q-208 88 -208 299q0 187 130 289q118 93 310 93q188 0 308 -93q132 -102 132 -285q0 -213 -202 -303q249 -98 249 -363q0 -207 -133.5 -330.5t-342.5 -123.5q-208 0 -344 116q-144 122 -144 326q0 267 245 375zM390 1074q0 -91 50.5 -134.5t123.5 -43.5 q82 0 129 49t47 131q0 77 -48.5 125t-125.5 48q-80 0 -128 -47.5t-48 -127.5zM364 446q0 -104 51 -171q56 -75 156 -75t154 74q48 66 48 169q0 97 -53 161q-57 67 -152 67q-92 0 -148 -65.5t-56 -159.5z" glyph-name="eight" unicode="8"/>
<glyph d="M97 339l272 30q18 -163 163 -163q153 0 207 225q19 81 19 187q-106 -123 -261 -123q-192 0 -314 147q-114 138 -114 334q0 216 126 354q130 142 344 142q282 0 410 -243q99 -187 99 -497q0 -519 -258 -681q-123 -77 -279 -77q-353 0 -414 365zM733 953q0 109 -48 190 q-57 96 -158 96q-182 0 -182 -262q0 -113 41 -185q51 -91 155 -91q99 0 153 85q39 63 39 167z" glyph-name="nine" unicode="9"/>
<glyph d="M200 781v281h281v-281h-281zM200 0v281h281v-281h-281z" glyph-name="colon" horiz-adv-x="682" unicode=":"/>
<glyph d="M193 781v281h281v-281h-281zM193 281h281v-201q0 -164 -49 -252q-56 -102 -200 -155l-55 116q159 49 159 211h-136v281z" glyph-name="semicolon" horiz-adv-x="682" unicode=";"/>
<glyph d="M1101 167l-1005 437v242l1005 435v-285l-701 -268l701 -278v-283z" glyph-name="less" horiz-adv-x="1196" unicode="&lt;"/>
<glyph d="M85 816v258h1025v-258h-1025zM85 372v259h1025v-259h-1025z" glyph-name="equal" horiz-adv-x="1196" unicode="="/>
<glyph d="M96 166v283l702 276l-702 273v281l1006 -435v-240z" glyph-name="greater" horiz-adv-x="1196" unicode="&gt;"/>
<glyph d="M747 378h-255l-1 67q-2 131 44 211q41 72 150 161q125 103 162 150q33 41 33 101q0 94 -76 149q-68 50 -165 50q-225 0 -279 -247l-258 32q0 166 153 303q141 126 371 126q207 0 358 -104q170 -119 170 -317q0 -118 -91 -229q-49 -60 -186 -173q-87 -72 -109 -116 q-24 -48 -22 -127zM492 0v281h281v-281h-281z" glyph-name="question" horiz-adv-x="1251" unicode="?"/>
<glyph d="M1773 19h213q-111 -232 -370 -349q-223 -101 -509 -101q-683 0 -925 429q-125 220 -125 483q0 453 287 733q284 278 738 278q362 0 599 -198q252 -212 252 -567q0 -290 -184 -503q-192 -224 -477 -224q-150 0 -182 114q-117 -114 -270 -114q-178 0 -285 122 q-102 117 -102 297q0 249 143 447q158 218 398 218q181 0 264 -136l25 111h264l-151 -717q-14 -66 -14 -88q0 -50 39 -50q138 0 252 201q100 176 100 326q0 276 -205 434q-187 143 -471 143q-535 0 -738 -414q-100 -204 -100 -423q0 -355 252 -546q227 -172 594 -172 q478 0 688 266zM692 430q0 -247 179 -247q148 0 238 177q74 145 74 309q0 98 -42 161q-50 74 -143 74q-147 0 -235 -171q-71 -140 -71 -303z" glyph-name="at" horiz-adv-x="1997" unicode="@"/>
<glyph d="M1475 0h-322l-128 333h-586l-121 -333h-314l571 1466h313zM930 580l-202 544l-198 -544h400z" glyph-name="A" horiz-adv-x="1479" unicode="A"/>
<glyph d="M153 1466h586q191 0 266 -16q140 -29 225 -130q79 -96 79 -225q0 -102 -56.5 -189t-149.5 -127q127 -35 202 -128q76 -96 76 -226q0 -137 -80 -254q-86 -125 -217 -149q-114 -22 -432 -22h-499v1466zM449 1222v-339h319q253 0 253 172q0 145 -139 160q-64 7 -263 7h-170z M449 639v-392h274q149 0 167 2q98 12 145 68q40 48 40 122q0 158 -155 187q-74 13 -232 13h-239z" glyph-name="B" horiz-adv-x="1479" unicode="B"/>
<glyph d="M1091 539l287 -91q-123 -473 -609 -473q-315 0 -497 219q-171 205 -171 526q0 345 179.5 558t513.5 213q218 0 370 -109q156 -112 210 -320l-293 -70q-25 114 -108.5 180t-200.5 66q-366 0 -366 -512q0 -212 73 -339q91 -159 287 -159q252 0 325 311z" glyph-name="C" horiz-adv-x="1479" unicode="C"/>
<glyph d="M152 1466h541q173 0 270 -26q134 -36 230 -137q142 -150 176 -395q12 -86 12 -186q0 -318 -152 -520t-520 -202h-557v1466zM448 1218v-971h221q148 0 214 24q99 36 147 147q45 105 45 313q0 393 -202 459q-88 28 -292 28h-133z" glyph-name="D" horiz-adv-x="1479" unicode="D"/>
<glyph d="M151 0v1466h1087v-248h-791v-325h736v-247h-736v-399h819v-247h-1115z" glyph-name="E" horiz-adv-x="1370" unicode="E"/>
<glyph d="M148 0v1466h1005v-248h-709v-347h612v-248h-612v-623h-296z" glyph-name="F" horiz-adv-x="1251" unicode="F"/>
<glyph d="M825 539v247h638v-584q-103 -103 -293 -168q-175 -59 -334 -59q-345 0 -546 210q-198 206 -198 553q0 209 80 377q88 183 257 282q163 94 391 94q530 0 624 -431l-294 -55q-30 111 -122 174q-87 59 -205 59q-215 0 -326 -140q-100 -127 -100 -348q0 -225 95 -363 q110 -159 325 -159q188 0 347 125v186h-339z" glyph-name="G" horiz-adv-x="1587" unicode="G"/>
<glyph d="M154 0v1466h296v-577h580v577h296v-1466h-296v641h-580v-641h-296z" glyph-name="H" horiz-adv-x="1479" unicode="H"/>
<glyph d="M135 0v1466h296v-1466h-296z" glyph-name="I" horiz-adv-x="565" unicode="I"/>
<glyph d="M682 1466h295v-928q0 -176 -32 -276q-45 -139 -165 -215q-114 -72 -289 -72q-225 0 -341 128q-111 123 -111 350l279 32q0 -257 184 -257q119 0 157 92q23 55 23 199v947z" glyph-name="J" unicode="J"/>
<glyph d="M157 0v1466h296v-651l598 651h398l-552 -571l582 -895h-383l-403 688l-240 -245v-443h-296z" glyph-name="K" horiz-adv-x="1479" unicode="K"/>
<glyph d="M154 0v1454h296v-1207h736v-247h-1032z" glyph-name="L" horiz-adv-x="1251" unicode="L"/>
<glyph d="M145 0v1466h443l266 -1000l263 1000h444v-1466h-275v1154l-291 -1154h-285l-290 1154v-1154h-275z" glyph-name="M" horiz-adv-x="1706" unicode="M"/>
<glyph d="M156 0v1466h288l600 -979v979h275v-1466h-297l-591 956v-956h-275z" glyph-name="N" horiz-adv-x="1479" unicode="N"/>
<glyph d="M83 724q0 349 178 552q188 215 531 215q338 0 530 -213q183 -205 183 -547q0 -330 -177 -537q-187 -219 -511 -219q-462 0 -643 343q-91 171 -91 406zM388 734q0 -215 93 -350q108 -156 314 -156t313 157q91 136 91 352q0 219 -91 349q-104 152 -313 152 q-210 0 -316 -153q-91 -131 -91 -351z" glyph-name="O" horiz-adv-x="1587" unicode="O"/>
<glyph d="M151 0v1466h475q266 0 376 -29q129 -34 204 -163q68 -116 68 -258q0 -182 -98 -302q-77 -95 -181 -127q-112 -34 -355 -34h-193v-553h-296zM447 1218v-416h162q127 0 168 6q96 15 146 72q46 53 46 131q0 72 -44 127.5t-115 68.5q-60 11 -220 11h-143z" glyph-name="P" horiz-adv-x="1370" unicode="P"/>
<glyph d="M1322 186q107 -77 237 -124l-109 -209q-102 26 -328 185q-146 -63 -319 -63q-348 0 -538 207q-183 199 -183 551q0 346 182 548q189 210 531 210q341 0 529 -211q179 -202 179 -548q0 -334 -181 -546zM1084 353q114 129 114 380q0 220 -90 352q-106 153 -315 153 t-315 -153q-91 -133 -91 -352q0 -216 88 -352q104 -160 309 -160q65 0 121 21q-89 58 -183 92l83 169q146 -50 279 -150z" glyph-name="Q" horiz-adv-x="1587" unicode="Q"/>
<glyph d="M154 0v1466h623q193 0 282 -22q151 -36 227 -152q67 -104 67 -238q0 -345 -387 -407q108 -62 187 -157q49 -59 140 -204l179 -286h-354l-214 319q-125 186 -156 215q-84 78 -238 78h-60v-612h-296zM450 846h219q168 0 180 1q114 11 161 66q38 45 38 123q0 67 -36 115.5 t-100 58.5q-58 8 -231 8h-231v-372z" glyph-name="R" horiz-adv-x="1479" unicode="R"/>
<glyph d="M77 477l288 28q45 -281 320 -281q111 0 190 44q98 54 98 157q0 101 -145 158q-15 6 -229 59q-469 117 -469 439q0 210 170 318q144 92 366 92q256 0 405 -114q156 -119 156 -330l-296 -13q-26 212 -266 212q-92 0 -159 -28q-93 -38 -93 -116q0 -84 131 -136 q41 -17 198 -54q180 -43 264 -81q142 -64 206 -174q57 -98 57 -231q0 -232 -185 -351q-157 -101 -402 -101q-545 0 -605 503z" glyph-name="S" horiz-adv-x="1370" unicode="S"/>
<glyph d="M475 0v1218h-435v248h1165v-248h-434v-1218h-296z" glyph-name="T" horiz-adv-x="1251" unicode="T"/>
<glyph d="M151 1466h296v-794q0 -172 6 -211q18 -118 96 -178q72 -55 195 -55q236 0 267 175q13 77 13 252v811h296v-770q0 -263 -19 -352q-39 -188 -185 -282q-136 -87 -363 -87q-447 0 -554 281q-48 123 -48 428v782z" glyph-name="U" horiz-adv-x="1479" unicode="U"/>
<glyph d="M525 0l-524 1466h321l371 -1085l359 1085h314l-525 -1466h-316z" glyph-name="V" horiz-adv-x="1370" unicode="V"/>
<glyph d="M354 0l-350 1466h303l221 -1007l268 1007h352l257 -1024l225 1024h298l-356 -1466h-314l-292 1096l-291 -1096h-321z" glyph-name="W" horiz-adv-x="1935" unicode="W"/>
<glyph d="M3 0l501 765l-454 701h346l294 -471l288 471h343l-456 -712l501 -754h-357l-325 507l-326 -507h-355z" glyph-name="X" horiz-adv-x="1370" unicode="X"/>
<glyph d="M536 0v617l-537 849h347l345 -580l338 580h341l-539 -851v-615h-295z" glyph-name="Y" horiz-adv-x="1370" unicode="Y"/>
<glyph d="M18 0v267l770 951h-683v248h1073v-230l-803 -989h834v-247h-1191z" glyph-name="Z" horiz-adv-x="1251" unicode="Z"/>
<glyph d="M146 -413v1879h498v-221h-231v-1437h231v-221h-498z" glyph-name="bracketleft" horiz-adv-x="682" unicode="["/>
<glyph d="M-3 1491h207l367 -1516h-211z" glyph-name="backslash" horiz-adv-x="569" unicode="\"/>
<glyph d="M536 1466v-1879h-498v221h231v1439h-231v219h498z" glyph-name="bracketright" horiz-adv-x="682" unicode="]"/>
<glyph d="M115 692l376 799h223l366 -799h-284l-198 489l-197 -489h-286z" glyph-name="asciicircum" horiz-adv-x="1196" unicode="^"/>
<glyph d="M-12 -405v182h1163v-182h-1163z" glyph-name="underscore" unicode="_"/>
<glyph d="M495 1192h-177l-276 299h315z" glyph-name="grave" horiz-adv-x="682" unicode="`"/>
<glyph d="M361 738l-255 46q75 302 457 302q335 0 416 -165q35 -74 34 -234l-3 -325q-2 -242 64 -362h-278q-9 25 -20 60l-17 56q-140 -140 -329 -140q-150 0 -248 81q-105 86 -105 233q0 159 120 240q84 57 268 93q206 40 272 70v28q0 91 -53 124q-41 26 -139 26q-144 0 -184 -133 zM737 510q-29 -11 -173 -43q-116 -26 -159 -56q-47 -32 -47 -92q0 -64 45.5 -104.5t110.5 -40.5q64 0 125 36q66 39 84 97q14 47 14 147v56z" glyph-name="a" unicode="a"/>
<glyph d="M131 0v1466h281v-528q126 148 309 148q220 0 340 -167q107 -148 107 -377q0 -226 -105 -384q-122 -182 -337 -182q-202 0 -334 180v-156h-261zM410 554q0 -356 246 -356q119 0 178 112q46 87 46 218q0 343 -235 343q-122 0 -184 -102q-51 -85 -51 -215z" glyph-name="b" horiz-adv-x="1251" unicode="b"/>
<glyph d="M1077 748l-277 -50q-29 167 -192 167q-230 0 -230 -315q0 -345 233 -345q165 0 204 202l276 -47q-84 -384 -491 -384q-246 0 -382 157q-129 149 -129 399q0 249 130 398q137 156 382 156q380 0 476 -338z" glyph-name="c" unicode="c"/>
<glyph d="M1117 0h-261v156q-126 -180 -330 -180q-215 0 -338 178q-108 156 -108 381q0 233 105 382q119 169 343 169q181 0 308 -148v528h281v-1466zM367 554q0 -356 237 -356q121 0 183 110q50 89 50 219q0 344 -234 344q-121 0 -184 -103q-52 -85 -52 -214z" glyph-name="d" horiz-adv-x="1251" unicode="d"/>
<glyph d="M766 338l280 -47q-110 -315 -460 -315q-250 0 -386 150q-131 144 -131 396q0 239 121 395q133 169 366 169q505 0 505 -636h-704q0 -109 59 -184q65 -80 171 -80q134 0 179 152zM782 622q0 104 -52 173q-58 76 -159 76q-100 0 -157 -76q-52 -69 -52 -173h420z" glyph-name="e" unicode="e"/>
<glyph d="M24 1062h156v80q0 120 20 179q30 85 117 129q81 41 187 41q122 0 238 -36l-38 -196q-72 16 -130 16q-68 0 -93 -36q-20 -30 -20 -102v-75h210v-221h-210v-841h-281v841h-156v221z" glyph-name="f" horiz-adv-x="682" unicode="f"/>
<glyph d="M118 -70l321 -39q0 -107 160 -107q186 0 221 98q16 45 16 135v155q-126 -172 -315 -172q-210 0 -331 166q-109 149 -109 367q0 233 105 383q120 170 344 170q198 0 324 -173v149h263v-953q0 -178 -29 -273q-43 -142 -165 -207q-112 -60 -307 -60q-264 0 -381 89 q-122 93 -118 237zM369 553q0 -135 46 -219q59 -107 182 -107q124 0 189 103q55 87 55 218q0 135 -53 220q-63 103 -189 103q-119 0 -180 -104q-50 -85 -50 -214z" glyph-name="g" horiz-adv-x="1251" unicode="g"/>
<glyph d="M423 1466v-539q135 159 325 159q261 0 330 -198q15 -43 23 -109t8 -156v-623h-281v561q0 126 -3 149q-11 91 -62 129q-44 32 -110 32q-137 0 -191 -107q-39 -78 -39 -232v-532h-281v1466h281z" glyph-name="h" horiz-adv-x="1251" unicode="h"/>
<glyph d="M142 1206v260h281v-260h-281zM142 0v1062h281v-1062h-281z" glyph-name="i" horiz-adv-x="565" unicode="i"/>
<glyph d="M136 1206v260h281v-260h-281zM417 1062v-1029q0 -165 -11 -224q-23 -129 -107 -188q-75 -52 -205 -52q-80 0 -193 30l49 240q38 -9 70 -9q86 0 108 71q8 29 8 148v1013h281z" glyph-name="j" horiz-adv-x="565" unicode="j"/>
<glyph d="M141 0v1466h281v-778l329 374h346l-363 -388l389 -674h-303l-267 477l-131 -137v-340h-281z" glyph-name="k" unicode="k"/>
<glyph d="M142 0v1466h281v-1466h-281z" glyph-name="l" horiz-adv-x="565" unicode="l"/>
<glyph d="M130 1062h259v-145q139 169 333 169q207 0 298 -169q138 169 325 169q234 0 311 -172q36 -81 36 -235v-679h-281v607q0 127 -17 176q-32 88 -132 88q-130 0 -178 -125q-31 -80 -31 -236v-510h-281v582q0 147 -12 190q-29 99 -135 99q-135 0 -183 -119q-31 -75 -31 -236 v-516h-281v1062z" glyph-name="m" horiz-adv-x="1821" unicode="m"/>
<glyph d="M1110 0h-281v542q0 125 -4 155q-12 95 -61 137q-43 37 -109 37q-77 0 -135 -43q-61 -44 -79 -116.5t-18 -230.5v-481h-281v1062h261v-156q138 180 351 180q250 0 324 -187q32 -83 32 -239v-660z" glyph-name="n" horiz-adv-x="1251" unicode="n"/>
<glyph d="M78 546q0 237 155 388.5t393 151.5q241 0 394.5 -156t153.5 -397q0 -239 -155 -398t-393 -159q-257 0 -404 158q-144 153 -144 412zM366 531q0 -135 61 -224q70 -102 199 -102q130 0 199 105q60 89 60 226q0 133 -62 221q-70 100 -197 100q-128 0 -198 -103 q-62 -89 -62 -223z" glyph-name="o" horiz-adv-x="1251" unicode="o"/>
<glyph d="M135 1062h262v-156q115 180 330 180q214 0 336 -173q108 -152 108 -375q0 -228 -106 -383q-122 -179 -339 -179q-169 0 -310 155v-535h-281v1466zM413 549q0 -140 51 -233q64 -117 193 -117q228 0 228 337q0 133 -49 220q-61 108 -184 108t-186 -100q-53 -84 -53 -215z " glyph-name="p" horiz-adv-x="1251" unicode="p"/>
<glyph d="M837 -404v534q-121 -154 -314 -154q-216 0 -334 183q-102 157 -102 384q0 226 109 375q123 168 340 168q205 0 323 -181v157h259v-1466h-281zM846 544q0 133 -49 218q-61 104 -184 104q-116 0 -177.5 -89.5t-61.5 -247.5q0 -135 46 -221q59 -110 183 -110q123 0 189 117 q54 96 54 229z" glyph-name="q" horiz-adv-x="1251" unicode="q"/>
<glyph d="M420 0h-281v1062h261v-151q102 175 242 175q97 0 185 -53l-87 -245q-74 46 -134 46q-136 0 -173 -203q-13 -72 -13 -303v-328z" glyph-name="r" horiz-adv-x="797" unicode="r"/>
<glyph d="M53 303l282 43q36 -167 227 -167q201 0 201 114q0 65 -114 91q-225 51 -275 67q-173 57 -233 148q-49 72 -49 161q0 170 143 256q118 70 300 70q190 0 294 -53q131 -65 180 -228l-265 -49q-35 128 -202 128q-189 0 -189 -88q0 -53 126 -92q1 0 165 -38q187 -43 271 -96 q130 -83 130 -237q0 -180 -157 -276q-131 -81 -323 -81q-426 0 -512 327z" glyph-name="s" unicode="s"/>
<glyph d="M634 1062v-224h-192v-428q0 -123 1 -127q12 -74 77 -74q39 0 113 27l24 -218q-98 -42 -222 -42q-211 0 -255 155q-20 70 -20 244v463h-129v224h129v211l282 164v-375h192z" glyph-name="t" horiz-adv-x="682" unicode="t"/>
<glyph d="M842 0v159q-127 -183 -353 -183q-352 0 -352 414v672h281v-488q0 -182 0 -181q9 -118 59 -164q42 -39 118 -39q81 0 139 47q69 57 84 175q4 30 4 202v448h281v-1062h-261z" glyph-name="u" horiz-adv-x="1251" unicode="u"/>
<glyph d="M443 0l-428 1062h295l200 -542l58 -181l29 91l30 90l202 542h289l-422 -1062h-253z" glyph-name="v" unicode="v"/>
<glyph d="M339 0l-336 1062h273l199 -696l183 696h271l177 -696l203 696h277l-341 -1062h-270l-183 683l-180 -683h-273z" glyph-name="w" horiz-adv-x="1587" unicode="w"/>
<glyph d="M17 0l383 547l-367 515h343l188 -292l198 292h330l-360 -503l393 -559h-345l-216 329l-218 -329h-329z" glyph-name="x" unicode="x"/>
<glyph d="M18 1062h299l254 -754l248 754h291l-375 -1022q-43 -117 -86 -235q-61 -133 -155 -188q-84 -48 -220 -48q-91 0 -163 17l-25 220q68 -13 117 -13q160 0 219 204z" glyph-name="y" unicode="y"/>
<glyph d="M33 0v219l398 457q113 130 145 159l-129 -4l-375 -2v233h878v-199l-549 -623l145 7h435v-247h-948z" glyph-name="z" horiz-adv-x="1022" unicode="z"/>
<glyph d="M64 410v240q84 0 137 40q57 43 74 157q8 52 8 179q0 179 13 235q27 120 131 183q78 47 268 47h53v-239q-117 0 -151 -17q-53 -27 -53 -128q0 -244 -16 -322q-36 -169 -172 -255q133 -71 170 -255q17 -86 17 -321q0 -97 57 -126q37 -19 148 -19v-240h-53q-143 0 -219 25 q-109 36 -160 139q-33 66 -33 302q0 158 -17 227.5t-64 106.5q-52 41 -138 41z" glyph-name="braceleft" horiz-adv-x="797" unicode="{"/>
<glyph d="M176 -431v1922h223v-1922h-223z" glyph-name="bar" horiz-adv-x="575" unicode="|"/>
<glyph d="M733 410q-85 0 -137 -40q-82 -63 -82 -335q0 -177 -13 -235q-28 -121 -130 -184q-78 -47 -269 -47h-53v240q113 0 149 19q56 28 56 126q0 240 17 321q36 177 170 255q-135 81 -171 255q-17 80 -17 322q0 100 -54 128q-34 17 -150 17v239h53q143 0 217 -25 q108 -36 160 -138q35 -68 35 -302q0 -161 17 -230q26 -103 123 -134q35 -12 79 -12v-240z" glyph-name="braceright" horiz-adv-x="797" unicode="}"/>
<glyph d="M67 519v259q126 138 297 138q106 0 290 -74q154 -62 202 -62q138 0 273 144v-270q-135 -132 -299 -132q-86 0 -245 68t-245 68q-140 0 -273 -139z" glyph-name="asciitilde" horiz-adv-x="1196" unicode="~"/>
<glyph glyph-name="nonbreakingspace" horiz-adv-x="569" unicode=" "/>
<glyph d="M181 941l-132 131l166 178l136 -136q102 57 219 57q118 0 218 -57l134 134l167 -169l-132 -133q56 -108 56 -217q0 -117 -56 -219l134 -133l-167 -171l-136 136q-103 -57 -218 -57q-55 0 -109.5 14t-106.5 42l-130 -131l-170 168l130 132q-29 54 -43 105.5t-14 113.5 q0 120 54 212zM368 728q0 -83 59.5 -142.5t142.5 -59.5q84 0 143 59t59 143q0 85 -58.5 143.5t-143.5 58.5q-83 0 -142.5 -59.5t-59.5 -142.5z" glyph-name="currency" unicode="¤"/>
<glyph d="M176 701v790h223v-790h-223zM176 -431v791h223v-791h-223z" glyph-name="brokenbar" horiz-adv-x="575" unicode="¦"/>
<glyph d="M991 1154l-275 -29q0 152 -153 152q-50 0 -88 -21q-45 -25 -45 -72q0 -64 104 -142l156 -100q200 -129 257 -185q126 -122 126 -275q0 -186 -182 -311q121 -111 121 -252q0 -171 -133 -266q-118 -84 -296 -84q-186 0 -308 89q-132 96 -155 274l274 33q36 -181 196 -181 q58 0 98 30q46 33 46 88q0 46 -34 82q-29 31 -262 179q-219 139 -296.5 236t-77.5 227q0 213 185 319q-101 103 -101 225q0 156 128 244q112 77 275 77q175 0 290 -81q126 -89 150 -256zM740 293q87 78 87 147q0 51 -54 103q-21 21 -95 75l-273 198q-86 -53 -86 -136 q0 -100 135 -192z" glyph-name="section" unicode="§"/>
<glyph d="M754 1496q318 0 542 -224t224 -542q0 -317 -224.5 -541.5t-541.5 -224.5q-320 0 -543 223t-223 543q0 210 109 393.5t295 281.5q173 91 362 91zM754 1345q-256 0 -435.5 -179.5t-179.5 -435.5q0 -257 179 -436t436 -179t436 179t179 436q0 254 -180.5 434.5t-434.5 180.5 zM940 616l161 -54q-78 -260 -336 -260q-183 0 -287 121q-100 115 -100 300q0 192 97 307q104 124 292 124q248 0 334 -243l-162 -38q-50 139 -178 139q-207 0 -207 -283q0 -112 40 -188q52 -96 154 -96q145 0 192 171z" glyph-name="copyright" horiz-adv-x="1509" unicode="©"/>
<glyph d="M637 983l-260 -451l260 -462h-221l-316 462l316 451h221zM1029 983l-259 -451l259 -462h-221l-316 462l316 451h221z" glyph-name="guillemotleft" unicode="«"/>
<glyph d="M853 376v441h-768v257h1025v-698h-257z" glyph-name="logicalnot" horiz-adv-x="1196" unicode="¬"/>
<glyph d="M754 1496q202 0 371 -94.5t278 -265.5q117 -183 117 -406q0 -317 -224.5 -541.5t-541.5 -224.5q-320 0 -543 223t-223 543q0 210 109.5 393.5t294.5 281.5q174 91 362 91zM755 1346q-256 0 -435.5 -180t-179.5 -436t179.5 -436.5t435.5 -180.5q255 0 435.5 181t180.5 436 q0 257 -179.5 436.5t-436.5 179.5zM408 320v813h165q-120 0 151 5q97 1 158 -13q82 -19 129 -69q56 -61 56 -154t-64 -155q-59 -56 -155 -71q58 -21 102 -79q15 -20 70 -113l96 -164h-204l-68 132q-54 106 -85 140q-57 62 -143 62h-43v-334h-165zM573 782h163q43 0 61 5 q95 14 95 107q0 92 -102 105q-44 5 -150 5h-67v-222z" glyph-name="registered" horiz-adv-x="1509" unicode="®"/>
<glyph d="M90 1172q0 134 92.5 226.5t226.5 92.5q132 0 225.5 -93.5t93.5 -225.5q0 -133 -93 -226t-226 -93t-226 93t-93 226zM256 1172q0 -63 45 -108t108 -45t108 45t45 108t-45 108t-108 45t-108 -45t-45 -108z" glyph-name="degree" horiz-adv-x="819" unicode="°"/>
<glyph d="M469 356v381h-384v263h384v381h256v-381h385v-263h-385v-381h-256zM85 0v263h1025v-263h-1025z" glyph-name="plusminus" horiz-adv-x="1196" unicode="±"/>
<glyph d="M639 -403h-243v1047q-183 0 -294 124q-100 112 -100 281q0 228 154 335q71 49 144 66q70 16 236 16h597v-261h-113v-1608h-237v1608h-144v-1608z" glyph-name="paragraph" unicode="¶"/>
<glyph d="M502 70l260 452l-260 461h221l316 -461l-316 -452h-221zM110 70l260 452l-260 461h221l316 -461l-316 -452h-221z" glyph-name="guillemotright" unicode="»"/>
<glyph d="M1475 0h-322l-128 333h-586l-121 -333h-314l571 1466h313zM930 580l-202 544l-198 -544h400z" glyph-name="Agrave" horiz-adv-x="1479" unicode="À"/>
<glyph d="M155 1466h1096v-246h-800v-340h396q159 0 256 -34q122 -43 201 -154q76 -109 76 -253q0 -130 -66 -239q-69 -114 -186 -160q-99 -40 -281 -40h-692v1466zM451 246h288q119 0 157 6q87 14 135 69q41 48 41 118q0 121 -107 166q-70 29 -213 29h-301v-388z" glyph-name="Aacute" horiz-adv-x="1472" unicode="Á"/>
<glyph d="M153 1466h586q191 0 266 -16q140 -29 225 -130q79 -96 79 -225q0 -102 -56.5 -189t-149.5 -127q127 -35 202 -128q76 -96 76 -226q0 -137 -80 -254q-86 -125 -217 -149q-114 -22 -432 -22h-499v1466zM449 1222v-339h319q253 0 253 172q0 145 -139 160q-64 7 -263 7h-170z M449 639v-392h274q149 0 167 2q98 12 145 68q40 48 40 122q0 158 -155 187q-74 13 -232 13h-239z" glyph-name="Acircumflex" horiz-adv-x="1479" unicode="Â"/>
<glyph d="M164 1466h993v-246h-697v-1220h-296v1466z" glyph-name="Atilde" horiz-adv-x="1161" unicode="Ã"/>
<glyph d="M267 1466h1013v-1220h129v-566h-246v320h-923v-320h-246v566h124q98 204 130 522q19 189 19 543v155zM549 1220q0 -668 -121 -974h557v974h-436z" glyph-name="Adieresis" horiz-adv-x="1459" unicode="Ä"/>
<glyph d="M151 0v1466h1087v-248h-791v-325h736v-247h-736v-399h819v-247h-1115z" glyph-name="Aring" horiz-adv-x="1370" unicode="Å"/>
<glyph d="M804 532l-1 -196h-185l-1 173q-196 0 -344 104t-148 358v495h296v-350q0 -155 3 -177q14 -99 84 -145q41 -27 110 -37v267h185l2 -262l54 12q66 15 128 60v632h296v-1466h-296v590q-73 -32 -183 -58z" glyph-name="AE" horiz-adv-x="1440" unicode="Æ"/>
<glyph d="M358 1066l-288 67q93 358 529 358q205 0 348 -85q173 -103 173 -295q0 -209 -240 -338q292 -100 292 -367q0 -225 -178 -337q-148 -94 -387 -94q-232 0 -355 73q-140 82 -208 290l271 89q37 -116 100 -163t183 -47q108 0 181 44q87 53 87 155q0 108 -97 160 q-75 40 -194 40h-67v221h34q120 0 194 50q86 59 86 173q0 92 -69 144q-62 46 -157 46q-186 0 -238 -184z" glyph-name="Ccedilla" horiz-adv-x="1283" unicode="Ç"/>
<glyph d="M153 1466h277v-976l594 976h295v-1466h-277v957l-593 -957h-296v1466z" glyph-name="Egrave" horiz-adv-x="1472" unicode="È"/>
<glyph d="M682 1466h295v-928q0 -176 -32 -276q-45 -139 -165 -215q-114 -72 -289 -72q-225 0 -341 128q-111 123 -111 350l279 32q0 -257 184 -257q119 0 157 92q23 55 23 199v947z" glyph-name="Eacute" unicode="É"/>
<glyph d="M154 1466h296v-624q111 10 164 91q14 23 78 188q92 238 185 296q85 53 297 58l43 1v-219l-42 1q-86 2 -133 -23q-42 -22 -68 -68q-23 -41 -77 -189q-33 -91 -61 -130q-36 -52 -109 -93q104 -28 187 -142q42 -58 118 -211l200 -402h-348l-229 479q-59 109 -94 135 q-38 28 -111 28v-642h-296v1466z" glyph-name="Ecircumflex" horiz-adv-x="1250" unicode="Ê"/>
<glyph d="M254 1466h1027v-1466h-296v1218h-441v-626q0 -236 -5 -285q-19 -186 -101 -256q-70 -60 -217 -60q-14 0 -50 3q-84 7 -139 7v229l66 -1q95 -1 126 27t31 121l-1 252v837z" glyph-name="Edieresis" horiz-adv-x="1437" unicode="Ë"/>
<glyph d="M145 0v1466h443l266 -1000l263 1000h444v-1466h-275v1154l-291 -1154h-285l-290 1154v-1154h-275z" glyph-name="Igrave" horiz-adv-x="1706" unicode="Ì"/>
<glyph d="M154 0v1466h296v-577h580v577h296v-1466h-296v641h-580v-641h-296z" glyph-name="Iacute" horiz-adv-x="1479" unicode="Í"/>
<glyph d="M83 724q0 349 178 552q188 215 531 215q338 0 530 -213q183 -205 183 -547q0 -330 -177 -537q-187 -219 -511 -219q-462 0 -643 343q-91 171 -91 406zM388 734q0 -215 93 -350q108 -156 314 -156t313 157q91 136 91 352q0 219 -91 349q-104 152 -313 152 q-210 0 -316 -153q-91 -131 -91 -351z" glyph-name="Icircumflex" horiz-adv-x="1587" unicode="Î"/>
<glyph d="M153 1466h1166v-1466h-296v1220h-574v-1220h-296v1466z" glyph-name="Idieresis" horiz-adv-x="1472" unicode="Ï"/>
<glyph d="M151 0v1466h475q266 0 376 -29q129 -34 204 -163q68 -116 68 -258q0 -182 -98 -302q-77 -95 -181 -127q-112 -34 -355 -34h-193v-553h-296zM447 1218v-416h162q127 0 168 6q96 15 146 72q46 53 46 131q0 72 -44 127.5t-115 68.5q-60 11 -220 11h-143z" glyph-name="Eth" horiz-adv-x="1370" unicode="Ð"/>
<glyph d="M1091 539l287 -91q-123 -473 -609 -473q-315 0 -497 219q-171 205 -171 526q0 345 179.5 558t513.5 213q218 0 370 -109q156 -112 210 -320l-293 -70q-25 114 -108.5 180t-200.5 66q-366 0 -366 -512q0 -212 73 -339q91 -159 287 -159q252 0 325 311z" glyph-name="Ntilde" horiz-adv-x="1479" unicode="Ñ"/>
<glyph d="M475 0v1218h-435v248h1165v-248h-434v-1218h-296z" glyph-name="Ograve" horiz-adv-x="1251" unicode="Ò"/>
<glyph d="M0 1466h331l342 -761l292 761h309l-495 -1114q-75 -169 -140 -247q-104 -123 -242 -123q-135 0 -205 17v220l114 -4q99 -3 147 37q44 36 86 162z" glyph-name="Oacute" horiz-adv-x="1274" unicode="Ó"/>
<glyph d="M1019 171v-171h-290v171q-341 0 -496 173q-144 160 -144 402q0 253 151 407q163 167 489 167v145h290v-145q337 0 494 -172q146 -160 146 -403q0 -242 -145 -402q-156 -172 -495 -172zM1019 418q241 0 318 144q35 67 35 193q0 318 -353 318v-655zM729 418v655 q-353 0 -353 -336q0 -319 353 -319z" glyph-name="Ocircumflex" horiz-adv-x="1748" unicode="Ô"/>
<glyph d="M3 0l501 765l-454 701h346l294 -471l288 471h343l-456 -712l501 -754h-357l-325 507l-326 -507h-355z" glyph-name="Otilde" horiz-adv-x="1370" unicode="Õ"/>
<glyph d="M536 0v617l-537 849h347l345 -580l338 580h341l-539 -851v-615h-295z" glyph-name="Odieresis" horiz-adv-x="1370" unicode="Ö"/>
<glyph d="M125 1466h296v-350q0 -155 3 -177q14 -99 84 -144q62 -42 182 -42q186 0 297 81v632h296v-1466h-296v590q-185 -81 -348 -81q-514 0 -514 462v495z" glyph-name="multiply" horiz-adv-x="1439" unicode="×"/>
<glyph d="M154 1466h296v-1220h424v1220h295v-1220h438v1220h295l2 -1467l-1750 1v1466z" glyph-name="Oslash" horiz-adv-x="2058" unicode="Ø"/>
<glyph d="M1307 3h-296v350q0 166 -14 225q-33 138 -256 138q-185 0 -297 -82l1 -632l-296 -1l-2 1466l296 1l1 -590q192 82 347 82q219 0 367.5 -104.5t148.5 -357.5v-495z" glyph-name="Ugrave" horiz-adv-x="1439" unicode="Ù"/>
<glyph d="M1070 1466v-624q69 0 112 55q38 49 105 224q87 227 179 291q85 58 304 63l43 1v-219l-43 1q-86 2 -132 -23q-42 -23 -68 -68q-23 -41 -77 -189q-33 -91 -61 -130q-36 -52 -109 -93q103 -29 186 -143q44 -60 119 -210l200 -402h-348l-229 479q-43 82 -68 111 q-47 52 -113 52v-642h-289v642q-66 0 -112 -52q-24 -28 -68 -111q-16 -32 -37 -69l-17 -31l-176 -379h-348l200 402q74 149 120 210q82 112 186 143q-71 40 -109 93q-30 41 -62 130q-51 140 -52 142q-40 88 -90 114t-140 24l-38 -1v219l43 -1q221 -5 305 -63 q90 -62 178 -291q67 -174 105 -225q41 -54 112 -54v624h289z" glyph-name="Uacute" horiz-adv-x="1851" unicode="Ú"/>
<glyph d="M157 1466h296v-586h396q321 0 456 -194q75 -109 75 -252q0 -127 -66 -238q-71 -118 -185 -160q-97 -36 -280 -36h-692v1466zM453 246h289q120 0 156 6q84 14 133 70q43 48 43 116q0 121 -107 166q-70 30 -213 30h-301v-388zM1551 1466h296v-1466h-296v1466z" glyph-name="Ucircumflex" horiz-adv-x="2005" unicode="Û"/>
<glyph d="M147 872l1 594h1005v-248h-709v-347l360 1v-249h-360v-623h-296v623h-92v248z" glyph-name="Udieresis" horiz-adv-x="1251" unicode="Ü"/>
<glyph d="M471 845l-1 261h185v-74l37 89q101 242 186 295.5t296 58.5l43 1v-219l-42 1q-86 2 -133 -23q-42 -22 -68 -68q-23 -41 -77 -189q-33 -91 -61 -130q-36 -52 -109 -93q104 -28 187 -142q42 -58 118 -211l200 -402h-348l-229 479v-61h-185l1 227q-9 -3 -21 -3v-642h-296 v1466h296v-624z" glyph-name="Yacute" horiz-adv-x="1249" unicode="Ý"/>
<glyph d="M83 724q0 349 178 552q188 215 531 215q338 0 530 -213q183 -205 183 -547q0 -330 -177 -537q-187 -219 -511 -219q-462 0 -643 343q-91 171 -91 406zM1196 594h-798q24 -151 108 -241q117 -125 289 -125q170 0 287 124q50 53 86 145q18 46 28 97zM1193 848 q-20 178 -117 280q-105 110 -281 110q-190 0 -298 -129q-92 -111 -108 -261h804z" glyph-name="Thorn" horiz-adv-x="1587" unicode="Þ"/>
<glyph d="M453 1044l-152 18q-76 9 -156 23q46 114 126 202q187 204 521 204q338 0 530 -213q183 -205 183 -547q0 -330 -177 -537q-187 -219 -511 -219q-461 0 -643 344q-84 159 -84 467h1106q0 203 -105 325q-109 127 -296 127q-188 0 -298 -129q-21 -24 -44 -65zM1171 553h-757 q33 -137 92 -200q118 -125 289 -125q169 0 287 124q45 47 89 201z" glyph-name="germandbls" horiz-adv-x="1587" unicode="ß"/>
<glyph d="M361 738l-255 46q75 302 457 302q335 0 416 -165q35 -74 34 -234l-3 -325q-2 -242 64 -362h-278q-9 25 -20 60l-17 56q-140 -140 -329 -140q-150 0 -248 81q-105 86 -105 233q0 159 120 240q84 57 268 93q206 40 272 70v28q0 91 -53 124q-41 26 -139 26q-144 0 -184 -133 zM737 510q-29 -11 -173 -43q-116 -26 -159 -56q-47 -32 -47 -92q0 -64 45.5 -104.5t110.5 -40.5q64 0 125 36q66 39 84 97q14 47 14 147v56z" glyph-name="agrave" unicode="à"/>
<glyph d="M944 1500h191q0 -116 -67 -193q-60 -69 -283 -65l-54 1h-36q-128 0 -200 -23q-101 -33 -156 -121t-55 -274q121 233 395 233q211 0 358 -166q141 -159 141 -373q0 -234 -158 -388.5t-393 -154.5q-163 0 -289 76q-134 81 -191 228q-55 142 -55 464q0 370 129 533 q144 183 502 183h142q58 0 79 40zM378 523q0 -126 61 -214q69 -100 189 -100q122 0 194 99q64 88 64 214t-63 215q-70 99 -192 99q-120 0 -190 -100q-63 -88 -63 -213z" glyph-name="aacute" horiz-adv-x="1265" unicode="á"/>
<glyph d="M150 1062h615q377 0 377 -277q0 -85 -50 -152t-131 -91q98 -24 158 -94t60 -169q0 -144 -113 -217q-95 -62 -247 -62h-669v1062zM433 621h181q248 0 248 137q0 81 -91 109q-50 15 -157 15h-181v-261zM433 180h222q104 0 152 18q78 30 78 115q0 97 -115 125 q-51 12 -193 12h-144v-270z" glyph-name="acircumflex" horiz-adv-x="1259" unicode="â"/>
<glyph d="M136 1062h717v-227h-436v-835h-281v1062z" glyph-name="atilde" horiz-adv-x="853" unicode="ã"/>
<glyph d="M1025 0h-804v-280h-228v510h115q71 78 119 250q56 201 56 582h857v-832h114v-510h-229v280zM862 230l1 601h-340q0 -420 -140 -601h479z" glyph-name="adieresis" horiz-adv-x="1300" unicode="ä"/>
<glyph d="M766 338l280 -47q-110 -315 -460 -315q-250 0 -386 150q-131 144 -131 396q0 239 121 395q133 169 366 169q505 0 505 -636h-704q0 -109 59 -184q65 -80 171 -80q134 0 179 152zM782 622q0 104 -52 173q-58 76 -159 76q-100 0 -157 -76q-52 -69 -52 -173h420z" glyph-name="aring" unicode="å"/>
<glyph d="M509 380q-112 0 -217 56.5t-146 155.5q-32 79 -32 216v254h284v-254q0 -86 15 -129q17 -48 67 -73l32 -16v209h156v-219q52 8 107 29v453h281v-1062h-281v424l-104 -25v-212h-162v193z" glyph-name="ae" horiz-adv-x="1189" unicode="æ"/>
<glyph d="M433 436v183q67 0 92 6q45 11 75.5 48t30.5 85q0 60 -43 99q-42 36 -103 36q-72 0 -114 -35q-36 -30 -66 -103l-238 51q36 139 160 213q110 67 263 67q164 0 274 -70q129 -83 129 -239q0 -147 -189 -239q235 -63 235 -259q0 -156 -156 -238q-124 -65 -294 -65 q-379 0 -465 297l257 47q62 -156 205 -156q68 0 118 35q56 39 56 104q0 68 -58 104q-48 29 -121 29h-48z" glyph-name="ccedilla" horiz-adv-x="1018" unicode="ç"/>
<glyph d="M140 1062h270v-667l432 667h276v-1062h-270v679l-438 -679h-270v1062z" glyph-name="egrave" horiz-adv-x="1259" unicode="è"/>
<glyph d="M136 1206v260h281v-260h-281zM417 1062v-1029q0 -165 -11 -224q-23 -129 -107 -188q-75 -52 -205 -52q-80 0 -193 30l49 240q38 -9 70 -9q86 0 108 71q8 29 8 148v1013h281z" glyph-name="eacute" horiz-adv-x="565" unicode="é"/>
<glyph d="M136 1062h280v-434q77 9 115 66q18 26 54 130q46 131 97 182q65 63 189 63q18 0 55 -2.5t56 -2.5l1 -186q-110 0 -142 -23.5t-67 -128.5q-49 -146 -141 -181q121 -33 225 -231l11 -21l157 -293h-302l-140 307q-36 79 -60 105q-39 41 -108 41v-453h-280v1062z" glyph-name="ecircumflex" horiz-adv-x="1025" unicode="ê"/>
<glyph d="M223 1062h941v-1062h-280v834h-383v-477q0 -290 -135 -351q-52 -24 -164 -24q-66 0 -177 18v207l115 -5q56 -2 69.5 38t13.5 208v614z" glyph-name="edieresis" horiz-adv-x="1301" unicode="ë"/>
<glyph d="M155 1062h348l264 -740l266 740h347v-1062h-239v699l-259 -699h-240l-247 699v-699h-240v1062z" glyph-name="igrave" horiz-adv-x="1515" unicode="ì"/>
<glyph d="M136 1062h281v-389h402v389h282v-1062h-282v446h-402v-446h-281v1062z" glyph-name="iacute" horiz-adv-x="1237" unicode="í"/>
<glyph d="M78 546q0 237 155 388.5t393 151.5q241 0 394.5 -156t153.5 -397q0 -239 -155 -398t-393 -159q-257 0 -404 158q-144 153 -144 412zM366 531q0 -135 61 -224q70 -102 199 -102q130 0 199 105q60 89 60 226q0 133 -62 221q-70 100 -197 100q-128 0 -198 -103 q-62 -89 -62 -223z" glyph-name="icircumflex" horiz-adv-x="1251" unicode="î"/>
<glyph d="M136 1062h943v-1062h-281v835h-381v-835h-281v1062z" glyph-name="idieresis" horiz-adv-x="1237" unicode="ï"/>
<glyph d="M135 1062h262v-156q115 180 330 180q214 0 336 -173q108 -152 108 -375q0 -228 -106 -383q-122 -179 -339 -179q-169 0 -310 155v-535h-281v1466zM413 549q0 -140 51 -233q64 -117 193 -117q228 0 228 337q0 133 -49 220q-61 108 -184 108t-186 -100q-53 -84 -53 -215z " glyph-name="eth" horiz-adv-x="1251" unicode="ð"/>
<glyph d="M1077 748l-277 -50q-29 167 -192 167q-230 0 -230 -315q0 -345 233 -345q165 0 204 202l276 -47q-84 -384 -491 -384q-246 0 -382 157q-129 149 -129 399q0 249 130 398q137 156 382 156q380 0 476 -338z" glyph-name="ntilde" unicode="ñ"/>
<glyph d="M21 1062h961v-227h-340v-835h-281v835h-340v227z" glyph-name="ograve" horiz-adv-x="1003" unicode="ò"/>
<glyph d="M18 1062h299l254 -754l248 754h291l-375 -1022q-43 -117 -86 -235q-61 -133 -155 -188q-84 -48 -220 -48q-91 0 -163 17l-25 220q68 -13 117 -13q160 0 219 204z" glyph-name="oacute" unicode="ó"/>
<glyph d="M758 1466h279v-539q103 158 284 158q189 0 298 -195q90 -162 90 -366q0 -202 -101 -362q-117 -186 -308 -186q-150 0 -263 149v-529h-279v529q-121 -149 -278 -149q-171 0 -283.5 158t-112.5 401q0 194 103 360q118 191 302 191q158 0 269 -152v532zM570 871 q-99 0 -153 -128q-42 -99 -42 -212q0 -118 38 -212q51 -128 152 -128q103 0 156 130q40 97 40 217q0 116 -38 208q-51 125 -153 125zM1227 869q-102 0 -155 -133q-39 -99 -39 -219q0 -114 40 -207q54 -121 154 -121q95 0 150 128q43 100 43 208q0 120 -38 215 q-52 129 -155 129z" glyph-name="ocircumflex" horiz-adv-x="1792" unicode="ô"/>
<glyph d="M17 0l383 547l-367 515h343l188 -292l198 292h330l-360 -503l393 -559h-345l-216 329l-218 -329h-329z" glyph-name="otilde" unicode="õ"/>
<glyph d="M733 -422h-307q-5 70 -5 193l1 226l-404 1065h299l254 -754l248 754h291l-375 -1022z" glyph-name="odieresis" unicode="ö"/>
<glyph d="M114 1062h284v-254q0 -80 11 -115q16 -54 70 -87q51 -31 128 -31q76 0 168 34v453h281v-1062h-281v424q-165 -44 -250 -44q-116 0 -216 47q-114 54 -156 151q-39 87 -39 230v254z" glyph-name="divide" horiz-adv-x="1189" unicode="÷"/>
<glyph d="M140 1062h258v-835h326v835h259v-835h325v835h259v-1062h-1427v1062z" glyph-name="oslash" horiz-adv-x="1707" unicode="ø"/>
<glyph d="M423 1466v-539q135 159 325 159q261 0 330 -198q15 -43 23 -109t8 -156v-623h-281v561q0 126 -3 149q-11 91 -62 129q-44 32 -110 32q-137 0 -191 -107q-39 -78 -39 -232v-532h-281v1466h281z" glyph-name="ugrave" horiz-adv-x="1251" unicode="ù"/>
<glyph d="M587 0v453q-50 0 -77 -25q-37 -34 -75 -121l-134 -307h-302l150 293q112 218 237 252q-92 35 -141 181q-36 108 -68 130q-13 9 -50 15.5t-92 6.5v186l116 5q89 4 160 -40q64 -41 123 -205q46 -128 73 -162t80 -34v434h279v-434q65 0 104 69q12 21 49 127q46 132 98 182 q65 63 189 63q19 0 56 -2.5t56 -2.5v-186q-110 0 -142 -23.5t-68 -128.5q-50 -146 -141 -181q124 -31 237 -252l150 -293h-302l-133 307q-34 79 -67.5 112.5t-85.5 33.5v-453h-279z" glyph-name="uacute" horiz-adv-x="1452" unicode="ú"/>
<glyph d="M149 1062h281v-441h282q152 0 219 -15q116 -26 182 -110q61 -80 61 -187q0 -309 -424 -309h-601v1062zM430 178h261q194 0 194 136q0 91 -99 120q-50 14 -174 14h-182v-270zM1334 1062h281v-1062h-281v1062z" glyph-name="ucircumflex" horiz-adv-x="1749" unicode="û"/>
<glyph d="M136 617v445h717v-227h-436v-218l201 1v-217l-201 1v-402h-281v402l-105 -1l2 217z" glyph-name="udieresis" horiz-adv-x="853" unicode="ü"/>
<glyph d="M554 366l-1 -120h-119l1 212l-10 -3l-9 -2v-453h-280v1062h280v-434l19 3l-1 225h119v-111l18 42l14 37q35 144 118 201q64 44 168 44q18 0 55 -2.5t56 -2.5l1 -186q-110 0 -142 -23.5t-67 -128.5q-49 -146 -141 -181q121 -33 225 -231l11 -21l157 -293h-302z" glyph-name="yacute" horiz-adv-x="1025" unicode="ý"/>
<glyph d="M78 546q0 237 155 388.5t393 151.5q241 0 394.5 -156t153.5 -397q0 -239 -155 -398t-393 -159q-257 0 -404 158q-144 153 -144 412zM881 599q-13 112 -77 182q-69 76 -178 76q-114 0 -187 -87q-59 -70 -70 -172zM373 418q14 -63 66 -126q72 -87 187 -87q194 0 247 213 h-500z" glyph-name="thorn" horiz-adv-x="1251" unicode="þ"/>
</font>
</defs>
</svg>
