<?xml version="1.0" encoding="utf-8"?>
<!-- Generator: Adobe Illustrator 16.0.0, SVG Export Plug-In . SVG Version: 6.00 Build 0)  -->
<!DOCTYPE svg PUBLIC "-//W3C//DTD SVG 1.1//EN" "http://www.w3.org/Graphics/SVG/1.1/DTD/svg11.dtd">
<svg version="1.1" id="_x31_084a417-9858-42b6-ae26-d97e116abc6c"
	 xmlns="http://www.w3.org/2000/svg" xmlns:xlink="http://www.w3.org/1999/xlink" x="0px" y="0px" width="562px" height="497px"
	 viewBox="0 0 562 497" enable-background="new 0 0 562 497" xml:space="preserve">
<title>product teardown</title>
<ellipse opacity="0.1" fill="#6C63FF" enable-background="new    " cx="436.722" cy="436.528" rx="64.104" ry="11.027"/>
<ellipse opacity="0.1" fill="#6C63FF" enable-background="new    " cx="242.63" cy="425.745" rx="94.905" ry="6.713"/>
<path display="none" opacity="0.1" fill="#6C63FF" enable-background="new    " d="M185.445,47.035
	c16.997-15.147,43.678-18.231,67.942-17.023c76.27,3.775,145.113,40.61,204.666,82.255c21.569,15.099,42.783,31.323,56.776,52.09
	c28.487,42.265,20.038,100.837-19.574,135.634c-13.479,11.863-29.813,20.926-46.59,28.977
	c-29.819,14.318-62.012,25.809-95.843,29.076c-24.138,2.334-48.574,0.438-72.57-2.814c-67.038-9.092-132.84-29.199-187.982-63.598
	c-24.19-15.098-46.994-33.843-56.964-58.236C25.336,209,31.721,178.06,56.418,163.614c10.246-5.976,22.432-8.671,34.392-11.206
	c17.601-3.73,35.487-7.409,51.373-14.99c16.414-7.84,35.827-22.988,32.592-40.318C171.268,78.489,168.47,62.161,185.445,47.035z"/>
<line fill="none" x1="118.779" y1="125.169" x2="114.719" y2="125.169"/>
<g opacity="0.1">
	<path d="M249.624,378.302c2.07,3.521,5.316,5.791,8.973,5.791c6.244,0,11.324-6.615,11.324-14.785s-5.096-14.73-11.324-14.73
		c-2.938,0-5.618,1.467-7.63,3.877c-0.763,0.922-1.409,1.934-1.925,3.014l-0.108,0.643c0,0-2.409,2.061-5.694,0.168v-47.896h-46.763
		c-0.769-1.006-0.98-2.33-0.565-3.525c0.349-1.096,1.104-2.016,2.108-2.572c3.521-2.07,5.797-5.316,5.797-8.973
		c0-6.244-6.622-11.324-14.786-11.324s-14.786,5.063-14.786,11.324c0,2.938,1.472,5.625,3.883,7.635
		c0.921,0.762,1.932,1.406,3.009,1.92l0.064,0.107c1.452,1.404,1.816,3.594,0.9,5.393h-21.09v88.693
		c0,11.615,9.416,21.029,21.03,21.029l0,0h61.214v-47.064c1.019-0.967,2.491-1.279,3.813-0.811
		C248.155,376.56,249.07,377.306,249.624,378.302z"/>
	<path d="M170.923,312.515h7.322c-3.607-2.77-5.737-7.049-5.775-11.598c0-8.406,7.333-15.217,16.376-15.217
		s16.383,6.811,16.383,15.217c-0.038,4.549-2.168,8.826-5.775,11.598h43.894v-47.252c1.022-0.955,2.49-1.267,3.813-0.809
		c1.097,0.346,2.02,1.102,2.578,2.107c2.064,3.521,5.311,5.793,8.973,5.793c6.244,0,11.324-6.617,11.324-14.78
		c0-8.166-5.059-14.788-11.324-14.788c-2.944,0-5.624,1.472-7.636,3.877c-0.76,0.924-1.407,1.936-1.925,3.014l-0.104,0.064
		c-1.489,1.555-3.855,1.869-5.7,0.76v-47.883h-45.021c-0.769-1.006-0.98-2.331-0.566-3.527c0.348-1.096,1.103-2.017,2.108-2.572
		c3.521-2.064,5.792-5.315,5.792-8.973c0-6.244-6.617-11.324-14.78-11.324c-8.164,0-14.786,5.063-14.786,11.324
		c0,2.944,1.473,5.624,3.877,7.637c0.925,0.76,1.937,1.406,3.015,1.924l0.063,0.104c1.452,1.405,1.817,3.592,0.901,5.393h-13.028
		v-2.426h9.62c-3.6-2.769-5.728-7.037-5.77-11.578c0-8.406,7.334-15.223,16.382-15.223s16.376,6.816,16.376,15.223
		c-0.043,4.551-2.183,8.828-5.797,11.594h41.574v-47.829c1.021-0.964,2.494-1.276,3.817-0.81c1.095,0.35,2.016,1.104,2.572,2.109
		c2.064,3.521,5.316,5.792,8.973,5.792c6.245,0,11.324-6.617,11.324-14.786s-5.059-14.779-11.324-14.779
		c-2.944,0-5.624,1.467-7.635,3.877c-0.763,0.922-1.41,1.935-1.925,3.014l-0.104,0.642c0,0-2.41,2.06-5.699,0.167V92.978h-61.187
		c-11.615,0-21.03,9.416-21.03,21.031v22.766h-0.317c-0.683,0-1.235,0.553-1.235,1.236l0,0v10.784
		c0.003,0.681,0.554,1.231,1.235,1.234h0.317v11.011h-0.416c-0.683,0-1.236,0.553-1.239,1.234v20.594
		c0.003,0.684,0.557,1.234,1.239,1.234h0.416v8.09h-0.34c-0.682,0-1.235,0.553-1.235,1.234l0,0v6.633h-0.27v13.977
		c-0.003,0.679,0.545,1.232,1.224,1.234c0.004,0,0.007,0,0.012,0h0.366v97.246h10.075V312.515z"/>
	<path d="M330.93,169.349c0-0.683-0.552-1.236-1.234-1.24h-0.743v-1.353h-0.405v-53.788c0.004-11.166-9.045-20.22-20.21-20.223
		c-0.004,0-0.007,0-0.011,0h-60.664v40.982c2.809-3.729,7.196-5.932,11.863-5.959c8.471,0,15.341,7.34,15.341,16.388
		s-6.87,16.387-15.341,16.387c-4.668-0.024-9.056-2.229-11.863-5.958v45.475h49.07c-3.604-2.779-5.729-7.061-5.765-11.61
		c0-8.417,7.316-15.239,16.35-15.239c4.015-0.021,7.906,1.38,10.983,3.958c6.218,4.968,7.23,14.034,2.264,20.25
		c-0.668,0.836-1.428,1.595-2.264,2.263v0.361h10.65v-0.038h1.979V169.349L330.93,169.349z"/>
	<path d="M314.64,310.095v-5.393l0,0c0.223-0.324,0.427-0.66,0.609-1.008c0.722-1.314,1.104-2.789,1.11-4.287
		c-0.001-1-0.173-1.992-0.507-2.936c-0.295-0.838-0.702-1.633-1.214-2.359l0,0c-2.484-3.576-7.397-6.014-13.061-6.014
		c-8.169,0-14.785,5.063-14.785,11.322c0,2.945,1.472,5.625,3.877,7.637c0.924,0.762,1.937,1.406,3.016,1.926l0.063,0.104
		c1.449,1.404,1.815,3.59,0.9,5.393h-47.571v44.217c2.769-3.705,7.114-5.9,11.739-5.932c8.405,0,15.217,7.332,15.217,16.375
		s-6.812,16.385-15.217,16.385c-4.625-0.033-8.971-2.229-11.739-5.934v35.691h54.587c7.152,0,12.955-5.789,12.974-12.941v-87.846
		l0,0v87.787c0,7.164-5.809,12.973-12.974,12.973h-54.587v8.629h56.619c11.614,0,21.029-9.416,21.029-21.031l0,0v-88.357l0,0v-2.318
		h-10.089v-2.082H314.64z"/>
</g>
<path fill="#3A3768" d="M184.614,413.276c-7.165,0-12.975-5.809-12.975-12.975v-88.078h-10.089v88.678
	c0,11.613,9.416,21.029,21.03,21.029l0,0h61.214v-8.627L184.614,413.276z"/>
<path fill="#6C63FF" d="M247.57,374.058c1.097,0.348,2.018,1.102,2.571,2.109c2.071,3.521,5.316,5.791,8.974,5.791
	c6.244,0,11.324-6.617,11.324-14.785c0-8.17-5.074-14.754-11.303-14.754c-2.938,0-5.619,1.467-7.63,3.877
	c-0.762,0.922-1.409,1.936-1.925,3.014l-0.108,0.645c0,0-2.409,2.059-5.693,0.166v-47.896h-46.763
	c-0.769-1.006-0.979-2.328-0.565-3.525c0.349-1.094,1.103-2.016,2.108-2.572c3.521-2.07,5.796-5.316,5.796-8.973
	c0-6.244-6.622-11.324-14.786-11.324s-14.786,5.063-14.786,11.324c0,2.938,1.472,5.625,3.882,7.637
	c0.921,0.76,1.932,1.404,3.009,1.92l0.064,0.107c1.452,1.402,1.816,3.592,0.899,5.393h-11v88.094c0,7.166,5.81,12.975,12.975,12.975
	h59.181v-38.41C244.805,373.915,246.259,373.604,247.57,374.058z"/>
<rect x="159.772" y="197.859" fill="#3A3768" width="1.602" height="2.609"/>
<rect x="162.711" y="197.859" fill="#3A3768" width="8.751" height="2.609"/>
<rect x="161.373" y="197.859" fill="#3A3768" width="1.337" height="2.609"/>
<path fill="#6C63FF" d="M247.079,313.233"/>
<path fill="#3A3768" d="M161.007,213.071h0.367v-12.607h-1.618v11.373c-0.003,0.679,0.544,1.231,1.225,1.235
	C160.988,213.071,160.997,213.071,161.007,213.071z"/>
<path fill="#3A3768" d="M171.462,200.462h-8.751v11.373c0,0.682-0.553,1.235-1.234,1.235c-0.003,0-0.005,0-0.007,0h-0.097v97.29
	h10.089V200.462z"/>
<path fill="#3A3768" d="M161.373,213.071h0.097c0.683,0.003,1.237-0.548,1.24-1.229c0-0.002,0-0.003,0-0.005v-11.373h-1.337V213.071
	z"/>
<path fill="#6C63FF" d="M173.01,298.737c0-8.406,7.334-15.217,16.376-15.217c9.043,0,16.382,6.811,16.382,15.217
	c-0.03,4.557-2.161,8.846-5.774,11.621h43.894v-47.253c1.022-0.955,2.49-1.268,3.813-0.811c1.098,0.348,2.02,1.104,2.578,2.11
	c2.064,3.52,5.311,5.791,8.973,5.791c6.245,0,11.324-6.616,11.324-14.78c0-8.166-5.059-14.787-11.324-14.787
	c-2.944,0-5.624,1.472-7.636,3.877c-0.76,0.924-1.406,1.938-1.924,3.015l-0.104,0.064c-1.489,1.555-3.854,1.87-5.7,0.76v-47.884
	h-45.021c-0.769-1.006-0.981-2.331-0.566-3.526c0.348-1.096,1.103-2.017,2.108-2.571c3.521-2.065,5.792-5.317,5.792-8.974
	c0-6.244-6.617-11.324-14.78-11.324c-8.164,0-14.786,5.063-14.786,11.324c0,2.944,1.473,5.625,3.877,7.637
	c0.925,0.761,1.937,1.406,3.015,1.925l0.064,0.103c1.452,1.405,1.817,3.592,0.9,5.393h-13.028v109.912h7.323
	C175.172,307.583,173.041,303.294,173.01,298.737z"/>
<path fill="#3A3768" d="M162.98,191.047c0-0.682-0.554-1.235-1.235-1.235c-0.002,0-0.004,0-0.006,0h-0.097v8.045h1.337
	L162.98,191.047L162.98,191.047z"/>
<path fill="#3A3768" d="M161.594,134.607h-0.27c-0.683,0-1.235,0.553-1.235,1.234l0,0v10.785c0.003,0.682,0.554,1.232,1.235,1.234
	h0.317v-13.248L161.594,134.607z"/>
<path fill="#3A3768" d="M161.229,158.862c-0.684,0-1.238,0.552-1.241,1.235v20.592c0.003,0.684,0.558,1.235,1.241,1.235h0.414
	v-23.063L161.229,158.862L161.229,158.862z"/>
<path fill="#3A3768" d="M161.643,189.992h-0.351c-0.682,0-1.235,0.553-1.235,1.234l0,0v6.812h1.618L161.643,189.992z"/>
<path fill="#3A3768" d="M161.643,111.845v22.768c0.662,0.023,1.188,0.566,1.187,1.229v10.785c-0.002,0.662-0.525,1.203-1.187,1.229
	v11.012h0.188c0.682,0,1.235,0.553,1.235,1.234l0,0v20.594c0,0.682-0.554,1.234-1.235,1.234l0,0h-0.199v8.088h0.098
	c0.683,0,1.236,0.553,1.24,1.235v6.784h8.751v-85.577c0-7.163,5.806-12.971,12.97-12.974h17.584v2.254
	c0,5.898,4.782,10.682,10.683,10.682h30.936v-7.053h-14.24c-1.146-0.006-2.076-0.93-2.087-2.076v-0.453
	c0.002-1.15,0.935-2.084,2.087-2.087h14.214V90.82h-61.203C171.054,90.827,161.646,100.238,161.643,111.845z"/>
<path fill="#3A3768" d="M162.829,146.621v-10.785c0-0.663-0.524-1.207-1.187-1.229v13.238
	C162.302,147.818,162.824,147.28,162.829,146.621z"/>
<path fill="#3A3768" d="M163.077,180.689v-20.592c0-0.683-0.553-1.235-1.235-1.235l0,0h-0.199v23.063h0.188
	c0.682,0.006,1.24-0.543,1.246-1.225C163.077,180.697,163.077,180.693,163.077,180.689z"/>
<path fill="#6C63FF" d="M175.313,186.443c0-8.406,7.333-15.223,16.382-15.223s16.376,6.815,16.376,15.223
	c-0.043,4.551-2.183,8.828-5.797,11.594h41.574v-47.83c1.021-0.964,2.494-1.277,3.817-0.809c1.095,0.348,2.016,1.103,2.572,2.107
	c2.064,3.521,5.316,5.792,8.973,5.792c6.245,0,11.324-6.616,11.324-14.786c0-8.169-5.059-14.779-11.324-14.779
	c-2.944,0-5.624,1.466-7.635,3.877c-0.763,0.922-1.41,1.935-1.925,3.014l-0.104,0.643c0,0-2.411,2.06-5.7,0.166v-23.024h-30.92
	c-5.889-0.015-10.654-4.793-10.654-10.683V99.47h-17.573c-7.166,0.004-12.973,5.814-12.969,12.979c0,0.003,0,0.007,0,0.011v85.577
	h9.351C177.477,195.265,175.35,190.99,175.313,186.443z"/>
<path fill="#E6E8EC" d="M229.651,100.738c-1.152,0.003-2.084,0.936-2.087,2.087v0.469c0.002,1.152,0.935,2.086,2.087,2.093h14.214
	v-4.633L229.651,100.738z"/>
<path fill="#3A3768" d="M325.852,165.888v32.008h3.64v-33.297h-1.968C326.6,164.599,325.852,165.175,325.852,165.888z"/>
<rect x="248.201" y="90.588" fill="#3A3768" width="4.313" height="9.707"/>
<rect x="248.201" y="105.148" fill="#3A3768" width="4.313" height="7.011"/>
<rect x="248.201" y="100.295" fill="#E6E8EC" width="4.313" height="4.853"/>
<path fill="#3A3768" d="M330.234,165.953h-1.015v31.906h2.248v-30.666C331.469,166.509,330.917,165.956,330.234,165.953z"/>
<path fill="#3A3768" d="M252.509,100.295c1.148,0.259,2.157,2.351,2.157,2.351v0.453c0,0-1.014,2.088-2.157,2.049l0,0v7.011h24.368
	c5.9-0.003,10.682-4.787,10.682-10.688v-2.254h18.334c7.151,0.016,12.941,5.816,12.941,12.969v62.826
	c6.217,4.967,7.229,14.033,2.262,20.25c-0.667,0.836-1.426,1.594-2.262,2.262v0.361h7.549v-31.647c0-0.087,0.07-0.156,0.156-0.156
	c0.002,0,0.004,0,0.006,0h2.534V110.81c0.003-11.166-9.046-20.219-20.211-20.222c-0.003,0-0.007,0-0.01,0h-56.885v9.707H252.509z
	 M260.673,100.247c1.451,0,2.626,1.176,2.626,2.626s-1.175,2.626-2.626,2.626c-1.45,0-2.626-1.176-2.626-2.626l0,0
	C258.047,101.422,259.223,100.247,260.673,100.247z"/>
<path fill="#6C63FF" d="M260.037,125.607c8.472,0,15.341,7.339,15.341,16.387c0,9.049-6.87,16.388-15.341,16.388
	c-4.667-0.026-9.055-2.229-11.863-5.958v45.475h49.07c-3.604-2.779-5.729-7.061-5.765-11.61c0-8.417,7.316-15.239,16.35-15.239
	c4.024-0.027,7.927,1.377,11.011,3.963v-62.826c0-7.151-5.789-12.953-12.94-12.967h-18.335v2.254
	c0,5.899-4.781,10.685-10.683,10.688H248.2v19.413C251.002,127.849,255.378,125.644,260.037,125.607z"/>
<path fill="#E6E8EC" d="M252.509,105.148c1.15,0.002,2.101-0.899,2.157-2.049v-0.453c-0.128-1.17-1.001-2.123-2.157-2.351h-0.54
	v4.853H252.509z"/>
<circle fill="#E6E8EC" cx="260.674" cy="102.862" r="2.626"/>
<path fill="#3A3768" d="M315.179,307.937v-5.393c2.294-3.158,2.294-7.434,0-10.59V307.937z"/>
<rect x="315.179" y="310.019" fill="#3A3768" width="10.089" height="2.318"/>
<path fill="#6C63FF" d="M311.107,306.233c-1.007,0.557-1.761,1.477-2.108,2.572c-0.416,1.197-0.204,2.523,0.566,3.531h5.612v-2.318
	h-2.156c0.781-0.627,1.504-1.322,2.156-2.082v-5.393C314.105,304.056,312.717,305.313,311.107,306.233z"/>
<path fill="#6C63FF" d="M313.012,310.019h2.156v-2.082C314.516,308.696,313.793,309.392,313.012,310.019z"/>
<path fill="#3A3768" d="M316.899,297.261c-0.015-1.9-0.614-3.75-1.722-5.295v10.584
	C316.283,301.007,316.883,299.159,316.899,297.261z"/>
<path fill="#3A3768" d="M325.268,312.337v88.387c0,11.615-9.414,21.029-21.029,21.029l0,0h-56.619v-8.627h54.587
	c7.165,0,12.974-5.809,12.974-12.975v-87.814H325.268L325.268,312.337z"/>
<path fill="#6C63FF" d="M308.999,308.806c0.349-1.096,1.103-2.016,2.108-2.57c1.607-0.918,2.997-2.176,4.07-3.686v-10.584
	c-2.484-3.576-7.397-6.014-13.061-6.014c-8.169,0-14.785,5.063-14.785,11.324c0,2.943,1.472,5.625,3.877,7.637
	c0.924,0.76,1.937,1.406,3.015,1.924l0.064,0.104c1.45,1.404,1.815,3.592,0.9,5.393h-47.571v44.217
	c2.77-3.705,7.114-5.898,11.739-5.932c8.406,0,15.217,7.334,15.217,16.377s-6.812,16.383-15.217,16.383
	c-4.625-0.031-8.971-2.227-11.739-5.932v35.691h54.587c7.152,0,12.956-5.791,12.974-12.941v-87.857h-5.598
	C308.806,311.333,308.587,310.007,308.999,308.806z"/>
<linearGradient id="SVGID_1_" gradientUnits="userSpaceOnUse" x1="550.166" y1="187.8843" x2="550.166" y2="170.6548" gradientTransform="matrix(1 0 0 1 -135.1602 -12.9805)">
	<stop  offset="0" style="stop-color:#808080;stop-opacity:0.25"/>
	<stop  offset="0.54" style="stop-color:#808080;stop-opacity:0.12"/>
	<stop  offset="1" style="stop-color:#808080;stop-opacity:0.1"/>
</linearGradient>
<path fill="url(#SVGID_1_)" d="M411.594,174.904c3.01-1.354,5.236-3.635,5.996-6.557c0.092-0.354,0.16-0.716,0.205-1.08
	c0.135-0.336,0.249-0.68,0.346-1.029c0.761-2.934-0.075-5.969-2.061-8.563l-3.941,15.099l0,0L411.594,174.904z"/>
<linearGradient id="SVGID_2_" gradientUnits="userSpaceOnUse" x1="545.0684" y1="456.2275" x2="545.0684" y2="113.5649" gradientTransform="matrix(1 0 0 1 -135.1602 -12.9805)">
	<stop  offset="0" style="stop-color:#808080;stop-opacity:0.25"/>
	<stop  offset="0.54" style="stop-color:#808080;stop-opacity:0.12"/>
	<stop  offset="1" style="stop-color:#808080;stop-opacity:0.1"/>
</linearGradient>
<path fill="url(#SVGID_2_)" d="M502.584,169.236c-0.614-3.607-12.003-11.422-12.003-11.422s-5.031-2.695-7.695-5.813
	c-1.704-1.984-2.236-1.962-2.398-1.693c-0.11-0.07-0.236-0.112-0.367-0.125c-0.107-0.074-0.21-0.145-0.307-0.226l0,0
	c0.031-0.313-0.141-0.61-0.427-0.739c-0.13-0.076-0.26-0.173-0.389-0.264c-0.863-1.451-1.171-3.505-1.271-5.295
	c-0.131-2.26-2.696-1.693-3.575-1.439c-0.604-1.133-1.191-2.308-1.747-3.484c0.245-0.381,0.449-0.787,0.608-1.213
	c1.585-3.444,1.24-7.397,1.932-11.043c0.495-2.637,1.53-5.392,1.326-7.959c0-0.059,0-0.123,0-0.188c0,0,0,0.027,0,0.038
	c-0.057-0.644-0.203-1.274-0.438-1.876c-0.459-1.154-1.257-2.157-1.618-3.35c-0.577-1.741-0.21-3.662-0.689-5.424
	c-0.6-2.232-2.485-3.959-4.621-4.945c-2.136-0.987-4.514-1.327-6.854-1.618c-5.851-0.733-12.067-1.17-17.405,1.289
	c-0.489,0.29-1.05,0.44-1.618,0.437c-0.526-0.146-1.025-0.377-1.479-0.685c-1.434-0.712-3.234-0.259-4.519,0.69
	c-1.283,0.948-2.157,2.318-3.004,3.645c-0.848,1.326-1.773,2.695-3.101,3.564c-1.559,1.041-3.619,1.392-4.854,2.793
	c-0.551,0.664-0.898,1.473-1.003,2.33c0,0,0-0.027,0-0.039c-0.006,0.104-0.006,0.205,0,0.309c0,0.081,0,0.167,0,0.248
	c0,0.08,0,0.135,0,0.199c0,0.231,0,0.457,0,0.685c0.173,1.317,0.521,2.604,1.04,3.829c0.249,0.913,0.736,1.742,1.413,2.404
	c1.877,1.526,4.854,0.086,7.117,0.938c0.199,0.07,0.39,0.162,0.577,0.249c0,0.086-0.06,0.172-0.087,0.264
	c-0.483,1.647-0.729,3.356-0.728,5.074c0,10.126,8.407,18.334,18.775,18.334c0.389,0,0.771,0,1.154-0.043
	c0.053,0.199,0.112,0.404,0.161,0.598c0.577,2.238,0.76,4.56,0.539,6.859l-0.113-1.003c-0.251-0.121-0.513-0.22-0.781-0.296
	c-0.751-0.25-1.539-0.37-2.33-0.355c-2.551-0.033-6.39,0.991-10.486,5.963c0,0-5.231,2.908-6.77,3.607
	c-0.126,0.077-0.225,0.189-0.284,0.324l0,0c0,0-6.994,10.563-7.718,14.581c-0.723,4.017-1.616,8.627-1.616,8.627
	s-1.747,5.209-2.874,7.517c-1.127,2.309-2.157,4.508-2.255,5.512c-0.098,1.002,0.409,3.203-1.747,4.604
	c-2.156,1.402-2.695,5.208-2.695,5.208s-1.079,1.014-2.605,2.297h-0.053l5.635-21.607l1.008,0.254
	c0.493,0.121,1.013-0.055,1.327-0.453c0.104-0.133,0.181-0.285,0.222-0.447l1.138-4.379l0.459-1.742l0.092-0.355l0.662-2.541
	l-2.243-0.539l-2.626-0.652l-7.42-1.871l0.647-2.48l0,0l0.539-2.103l0,0l3.392-13.017l0,0l0.54-2.098
	c-2.157-2.793-5.593-5.063-9.814-6.115c-8.143-2.022-16.025,1.267-17.61,7.344c-0.095,0.354-0.164,0.715-0.21,1.079
	c-0.138,0.333-0.25,0.676-0.34,1.024c-0.275,1.055-0.35,2.152-0.217,3.234c0.021,0.176,0.048,0.355,0.081,0.54
	c0.323,1.679,1.029,3.26,2.065,4.621c0.728,0.972,1.573,1.851,2.518,2.614l0.038,0.119c0.399,0.654,0.643,1.394,0.706,2.158
	c0,0.107,0,0.221,0,0.334c-0.181,0.324-0.396,0.629-0.646,0.905l-49.749-12.364l-0.539,2.098l0,0l-11.206,43.058l0,0
	c1.461-1.123,3.103-1.989,4.854-2.562c0.688-0.229,1.392-0.408,2.104-0.539l0.253-0.043c2.006-0.326,4.057-0.241,6.027,0.248
	c6.288,1.563,10.636,6.918,11.443,13.217c0.104,0.795,0.149,1.598,0.135,2.398c-0.016,1.023-0.124,2.043-0.323,3.047
	c-2.696,8.187-10.979,13.131-19.023,11.131c-4.57-1.153-8.341-4.375-10.191-8.709l-0.54,2.103l0,0l-11.562,44.19l44.062,10.959l0,0
	l0.476-2.119h0.07c-2.642-3.271-3.748-7.518-3.042-11.658c0-0.07,0.043-0.135,0.069-0.205c0.055-0.156,0.113-0.309,0.173-0.459
	c0.303-0.738,0.662-1.449,1.078-2.131c0.216-0.352,0.442-0.689,0.687-1.02c0.149-0.203,0.307-0.402,0.469-0.6
	c0.775-0.939,1.661-1.782,2.637-2.511l0.313-0.229c0.355-0.254,0.723-0.496,1.079-0.723c0.221-0.129,0.446-0.258,0.674-0.377
	c2.608-1.379,5.524-2.074,8.477-2.021c1.418,0.02,2.829,0.199,4.206,0.539c4.251,1.021,7.964,3.602,10.401,7.229
	c0.323,0.486,0.618,0.992,0.885,1.512c0.794,1.539,1.312,3.207,1.526,4.928c0.168,1.373,0.132,2.764-0.108,4.125
	c-1.048,3.016-3.051,5.607-5.705,7.383l-0.539,2.027h0.06l-0.08,0.061l-0.539,2.02l10.063,2.502l14.251-54.488
	c3.846-0.447,5.813-2.158,5.813-2.405c0-0.248,4.621-2.81,7.182-3.511c1.273-0.345,2.745-0.592,3.916-0.84
	c-1.381,6.854-2.695,13.479-2.578,13.868c0.038,0.151,0.286-0.086,0.663-0.604c-0.037,0.198-0.053,0.4-0.049,0.604
	c0,0.103,0.146,0.027,0.335-0.183l-0.027,0.129c0,0-8.002,15.481-8.627,17.256c-0.626,1.773,0.15,6.313,2.614,7.817
	c0.479,0.303,0.904,0.68,1.263,1.115l-0.291,0.578c-0.916,1.859-1.73,3.932-1.586,5.221c0.193,1.631-0.188,3.277-1.077,4.658
	c0,0-6.93,21.412-6.773,27.576s-2.464,19.688-2.464,19.688s-2.848,8.715-1.154,11.193c1.693,2.482,3.618,13.305,3.618,13.305
	s1.311,2.48,1.229,4.584c-0.08,2.102,1.234,5.932,1.234,5.932l4.313,15.551c0,0-0.464,4.137,1.153,7.064
	c1.618,2.928,1.462,2.025,0.69,7.139c-0.771,5.111,0.928,9.842,3.692,11.324c1.079,0.582,1.134,1.473,0.799,2.34l0,0
	c-0.706-0.273-1.294,1.188-1.646,2.367l-0.354,0.34l0.236,0.061c-0.15,0.539-0.236,0.992-0.236,0.992s-7.231,6.014-7.695,8.189
	c-0.464,2.18-5.543,3.307-5.543,3.307s-7.695,2.104-9.706,3.154c-1.172,0.531-1.979,1.639-2.125,2.916
	c-0.09,0.992,0.005,1.99,0.28,2.945c0.766,3.078,11.54,3.381,16.717,2.557c5.176-0.826,15.848-3.834,15.848-3.834
	s11.237-1.08,14.561-2.406c3.32-1.326,0.689-4.809,0.689-4.809s0-0.113,0-0.324c0.081-1.256,0.313-5.813-0.484-7.01
	c-0.6-0.93-0.583-3.236-0.496-4.703c2.248-4.043-2.578-16.176-2.578-16.176s0.923-11.863,0.308-13.602
	c-0.614-1.734-3.234-16.457-3.234-16.457s-1.618-6.686-0.998-7.813c0.62-1.125-0.389-4.361-0.389-4.361s-2.637-3.598-2.398-4.729
	c0.235-1.135-0.771-3.154-0.771-3.154s7.853-11.725,7.156-13.902s0.313-5.711,0.313-5.711s0.985-1.66,2.155-3.648
	c1.456-2.439,3.236-5.355,3.818-6.268c0.755-1.16,2.572-6.094,3.586-8.936c0.432-1.207,0.723-2.037,0.723-2.037
	s1.229,22.107,2.309,24.346c1.078,2.238,2.695,20.064,2.695,20.064c0.599,1.582,0.86,3.271,0.771,4.961
	c-0.151,2.777,2.464,14.879,2.464,14.879s1.154,8.563,0.383,10.814c-0.771,2.254-0.149,18.873-0.149,18.873
	s-4.233,3.236-5.313,5.711c-1.078,2.477,0.151,9.242,0.151,9.242l0.496,0.232c-0.396,0.939-0.691,1.92-0.88,2.922
	c-0.15,1.43-2.465,7.895-2.231,8.795c0.231,0.902-0.998,3.684-1.154,5.107c-0.155,1.424-2.075,3.531-2.231,4.285
	c-0.243,0.678-0.525,1.336-0.848,1.98c-0.418,0.986-0.752,2.008-0.997,3.051c-0.771,3.16,8.386,3.684,8.386,3.684
	c13.546,2.48,16.01-7.662,16.01-7.662s1.693-9.018,2.309-9.707c0.151-0.258,0.189-0.568,0.104-0.855l0,0
	c-0.354-1.535-1.018-2.979-1.952-4.244c-0.432-0.502-0.458-1.791-0.389-2.943c0.393-0.039,0.779-0.111,1.159-0.217
	c5.463-1.574,3.234-10.672,3.234-10.672s3.694-6.008,3.694-8.336c0-2.33,1.311-9.469,1.311-9.469
	c4.696-8.418,2.847-28.854,3.618-30.51s-1.618-7.814-3.543-10.598c-1.925-2.781-1.154-10.295,0-12.473s-1.154-9.707-1.154-9.707
	s2.232-14.559,2.157-16.834c-0.075-2.273,1.925-8.939,1.925-8.939s2.001-3.455,1.537-4.508s1.536-3.775,1.003-4.961
	c-0.534-1.188,0.458-4.887,1.461-7.064c0.513-1.115,1.149-4.189,1.618-6.924c0.054-0.303,0.107-0.604,0.156-0.9
	c2.243,1.418,4.313,2.475,5.047,2.189c1.375-0.539-0.814-7.549-2.313-11.916c0.261-0.195,0.367-0.342,0.261-0.406
	c-0.924-0.604,0.102-3.312,0.102-3.312c5.441-3.201,3.592-5.605,1.852-7.01c-1.742-1.4-0.615-5.391-1.134-7.009
	c-0.518-1.618,0.62-8.914,1.542-14.226c0.191-1.153,0.184-2.332-0.025-3.483c0.985-1.504,2.005-3.079,2.899-4.535
	c3.074-5.009,9.643-28.854,9.643-28.854l-0.043-0.123c0.642-1.268,1.121-2.297,1.381-2.982
	C506.893,188.492,503.199,172.853,502.584,169.236z M454.765,155.506l0.142-0.063c0,0.037,0,0.076,0,0.113L454.765,155.506z
	 M356.711,281.147L356.711,281.147L356.711,281.147z M424.907,411.292c-0.335,0.002-0.667-0.063-0.977-0.193L424.907,411.292z"/>
<path fill="#FEC2BE" d="M367.899,237.502c4.438,1.684,14.754,1.866,19.337,1.866c1.392,0,2.254,0,2.254,0l2.938-5.984l-2.938-4.988
	c0,0-2.695-0.744-6.276-1.392c-5.284-0.948-12.516-1.692-15.961,0.442C361.473,231.021,362.119,235.308,367.899,237.502z"/>
<path opacity="0.1" enable-background="new    " d="M387.231,239.369c1.391,0,2.254,0,2.254,0l2.938-5.984l-2.934-4.988
	c0,0-2.695-0.744-6.276-1.392C386.12,229.14,393.109,233.788,387.231,239.369z"/>
<path fill="#4C4981" d="M435.908,165.909l-1.295-1.499c0,0-6.682,10.568-7.382,14.559c-0.701,3.99-1.618,8.574-1.618,8.574
	s-1.692,5.188-2.793,7.479c-1.101,2.293-2.092,4.486-2.188,5.484c-0.098,0.998,0.398,3.192-1.698,4.588
	c-2.099,1.397-2.589,5.188-2.589,5.188s-7.582,7.377-11.571,7.549c-3.99,0.173-15.454,2.194-15.057,4.19
	c0.399,1.994-4.783,3.187-6.881,3.688s13.481,6.471,4.391,14.16c0,0,5.779,1.197,6.38,2.588c0.598,1.391,6.681-0.792,6.681-0.792
	s1.3-3.095,5.786-3.295c4.486-0.199,6.776-2.194,6.776-2.491s4.487-2.793,7.012-3.488c2.522-0.697,5.779-0.998,5.883-1.699
	c0.103-0.701,14.958-64.812,14.958-64.812L435.908,165.909z"/>
<path opacity="0.05" enable-background="new    " d="M435.908,165.909l-1.295-1.499c0,0-6.682,10.568-7.382,14.559
	c-0.701,3.99-1.618,8.574-1.618,8.574s-1.692,5.188-2.793,7.479c-1.101,2.293-2.092,4.486-2.188,5.484
	c-0.098,0.998,0.398,3.192-1.698,4.588c-2.099,1.397-2.589,5.188-2.589,5.188s-7.582,7.377-11.571,7.549
	c-3.99,0.173-15.454,2.194-15.057,4.19c0.399,1.994-4.783,3.187-6.881,3.688s13.481,6.471,4.391,14.16c0,0,5.779,1.197,6.38,2.588
	c0.598,1.391,6.681-0.792,6.681-0.792s1.3-3.095,5.786-3.295c4.486-0.199,6.776-2.194,6.776-2.491s4.487-2.793,7.012-3.488
	c2.522-0.697,5.779-0.998,5.883-1.699c0.103-0.701,14.958-64.812,14.958-64.812L435.908,165.909z"/>
<path fill="#CA8496" d="M451.438,442.616c13.162,2.471,15.557-7.631,15.557-7.631s1.645-8.973,2.243-9.646
	c0.15-0.258,0.188-0.564,0.104-0.852l0,0c-0.347-1.521-0.991-2.959-1.897-4.229c-0.819-0.971-0.151-5.01-0.151-5.01l-15.255-3.887
	c0,0-1.349,3.063-1.493,4.484c-0.146,1.426-2.395,7.854-2.157,8.752c0.238,0.9-0.971,3.662-1.122,5.086
	c-0.149,1.424-2.017,3.516-2.155,4.26c-0.235,0.674-0.512,1.334-0.825,1.973c-0.405,0.984-0.729,2-0.971,3.037
	C442.54,442.093,451.438,442.616,451.438,442.616z"/>
<path opacity="0.1" enable-background="new    " d="M451.438,442.616c13.162,2.471,15.557-7.631,15.557-7.631
	s1.645-8.973,2.243-9.646c0.15-0.258,0.188-0.564,0.104-0.852l-3.171,9.08c0,0-2.615,5.457-12.338,4.639
	c-5.533-0.471-8.256-1.494-9.577-2.293c-0.405,0.984-0.729,2-0.971,3.037C442.54,442.093,451.438,442.616,451.438,442.616z"/>
<path opacity="0.1" enable-background="new    " d="M461.684,428.407c0,0-3.288,0.076-3.517-2.615L461.684,428.407z"/>
<polygon fill="#6C63FF" points="359.358,281.634 361.444,282.167 360.986,284.286 359.051,283.796 "/>
<polygon opacity="0.1" enable-background="new    " points="359.358,281.634 361.444,282.167 360.986,284.286 359.051,283.796 "/>
<rect x="420.752" y="183.364" transform="matrix(0.2465 -0.9691 0.9691 0.2465 139.2268 548.0472)" fill="#3A3768" width="2.611" height="2.249"/>
<rect x="413.53" y="178.921" transform="matrix(0.2466 -0.9691 0.9691 0.2466 135.5336 539.637)" fill="#3A3768" width="2.61" height="7.458"/>
<rect x="418.38" y="182.57" transform="matrix(0.2466 -0.9691 0.9691 0.2466 137.9877 545.2703)" fill="#3A3768" width="2.61" height="2.636"/>
<path fill="#6C63FF" d="M411.621,180.144c-0.173,0.082-0.341,0.168-0.508,0.237l0.421,0.108l-0.646,2.529l-3.197-0.814
	c-0.492-1.165-0.369-2.499,0.329-3.555c0.608-0.981,1.575-1.689,2.695-1.973c0.686-0.197,1.354-0.445,2-0.744L411.621,180.144z"/>
<path fill="#3A3768" d="M419.251,191.064l0.976,0.254c0.661,0.169,1.334-0.229,1.504-0.891c0.001-0.002,0.001-0.004,0.002-0.006
	l1.089-4.357l-2.156-0.539L419.251,191.064z"/>
<path fill="#3A3768" d="M418.507,169.409c-0.744,2.912-2.905,5.182-5.829,6.524l3.828-15.045
	C418.447,163.472,419.262,166.497,418.507,169.409z"/>
<path fill="#3A3768" d="M417.893,190.72c-0.658-0.17-1.058-0.841-0.891-1.5l1.111-4.363l-7.227-1.838l-22.039,86.568
	c3.316,6.455,1.303,14.369-4.695,18.453l-0.514,2.018l9.776,2.508l25.835-101.48L417.893,190.72z"/>
<path fill="#3A3768" d="M417.002,189.22c-0.167,0.659,0.231,1.329,0.891,1.5l1.358,0.344l1.413-5.553l-2.551-0.654L417.002,189.22z"
	/>
<path fill="#6C63FF" d="M408.014,178.65c0.612-0.979,1.577-1.686,2.695-1.973c0.683-0.199,1.35-0.447,1.996-0.744l3.833-15.045
	c-2.399-3.048-5.763-5.192-9.539-6.082c-7.91-2.018-15.578,1.256-17.115,7.307c-0.728,2.853,0.038,5.813,1.877,8.357
	c0.704,0.965,1.524,1.84,2.442,2.604l0.038,0.118c1.065,1.727,0.878,3.947-0.464,5.469l-48.349-12.311l-10.907,42.857
	c3.586-2.904,8.321-3.97,12.807-2.88c8.146,2.076,12.941,10.866,10.709,19.628s-10.623,14.192-18.771,12.144
	c-4.476-1.18-8.142-4.386-9.905-8.665l-11.199,43.978l42.825,10.898c-2.814-3.572-3.825-8.244-2.739-12.662
	c2.076-8.142,10.86-12.94,19.629-10.708c4.734,1.16,8.737,4.312,10.973,8.644l22.039-86.568l-3.166-0.814
	C407.219,181.045,407.327,179.711,408.014,178.65z"/>
<path fill="#6C63FF" d="M411.529,180.49l0.092-0.346c-0.168,0.082-0.335,0.168-0.508,0.244L411.529,180.49z"/>
<g opacity="0.1">
	<path d="M421.306,182.98l-2.551-0.651l-7.221-1.839l0,0l0.092-0.346l0,0l1.079-4.211c-0.647,0.299-1.316,0.547-2.001,0.744
		c-1.12,0.284-2.088,0.991-2.696,1.975c-0.158,0.271-0.292,0.557-0.398,0.852c0.104-0.295,0.236-0.581,0.395-0.852
		c0.611-0.979,1.577-1.687,2.696-1.975c0.682-0.197,1.349-0.447,1.994-0.744l3.834-15.043c-2.399-3.049-5.763-5.193-9.538-6.084
		c-7.911-2.017-15.579,1.256-17.116,7.308c-0.728,2.853,0.038,5.813,1.877,8.358c0.704,0.965,1.524,1.84,2.442,2.604l0.038,0.119
		c1.066,1.726,0.879,3.945-0.464,5.468l-48.349-12.312l-10.908,42.858c3.589-2.907,8.329-3.974,12.817-2.88
		c8.146,2.076,12.941,10.865,10.709,19.628s-10.623,14.192-18.771,12.144c-4.476-1.18-8.142-4.386-9.905-8.666l-11.199,43.98
		l42.825,10.898c-2.814-3.574-3.825-8.244-2.739-12.662c2.076-8.144,10.86-12.942,19.629-10.708
		c4.734,1.158,8.737,4.312,10.973,8.644c3.316,6.455,1.303,14.369-4.695,18.451l-0.514,2.018l9.776,2.508l25.835-101.479
		l0.977,0.254c0.66,0.169,1.334-0.229,1.503-0.89c0.001-0.002,0.001-0.003,0.002-0.006l1.089-4.379l0.643-2.528L421.306,182.98z
		 M411.361,180.285c-0.081,0.038-0.161,0.081-0.242,0.113l0,0L411.361,180.285z M407.695,182.22L407.695,182.22l3.197,0.814l0,0
		L407.695,182.22z"/>
	<path d="M418.507,169.409c0.738-2.912-0.075-5.933-2.001-8.521l-3.828,15.045C415.616,174.59,417.779,172.314,418.507,169.409z"/>
</g>
<rect x="421.281" y="181.278" transform="matrix(0.2466 -0.9691 0.9691 0.2466 141.6131 546.963)" fill="#3A3768" width="2.61" height="2.249"/>
<rect x="414.059" y="176.837" transform="matrix(0.2466 -0.9691 0.9691 0.2466 137.9525 538.5795)" fill="#3A3768" width="2.61" height="7.458"/>
<rect x="418.912" y="180.475" transform="matrix(0.2466 -0.9691 0.9691 0.2466 140.4183 544.2074)" fill="#3A3768" width="2.61" height="2.637"/>
<path fill="#6C63FF" d="M412.154,178.052l-0.507,0.243l0.415,0.103l-0.643,2.545l-3.197-0.814c-0.5-1.162-0.379-2.5,0.323-3.553
	c0.611-0.98,1.577-1.688,2.696-1.975c0.683-0.196,1.351-0.445,1.995-0.744L412.154,178.052z"/>
<path fill="#3A3768" d="M419.779,188.978l0.98,0.248c0.658,0.178,1.336-0.213,1.516-0.871c0.002-0.008,0.004-0.017,0.006-0.024
	l1.111-4.356l-2.157-0.539L419.779,188.978z"/>
<path fill="#3A3768" d="M419.046,167.322c-0.739,2.906-2.9,5.177-5.829,6.519l3.834-15.044
	C418.981,161.379,419.796,164.405,419.046,167.322z"/>
<path fill="#3A3768" d="M418.426,188.632c-0.66-0.169-1.06-0.842-0.891-1.502c0-0.001,0-0.001,0.001-0.002l1.078-4.357l-7.193-1.828
	l-22.033,86.558c3.323,6.453,1.309,14.371-4.695,18.447l-0.514,2.018l9.782,2.49l25.829-101.478L418.426,188.632z"/>
<path fill="#3A3768" d="M417.536,187.127c-0.17,0.66,0.227,1.333,0.888,1.504c0.001,0,0.001,0,0.002,0l1.354,0.345l1.424-5.56
	l-2.557-0.647L417.536,187.127z"/>
<path fill="#6C63FF" d="M408.547,176.558c0.611-0.979,1.577-1.688,2.696-1.974c0.683-0.196,1.351-0.444,1.995-0.744l3.828-15.044
	c-2.397-3.048-5.76-5.191-9.533-6.083c-7.916-2.011-15.578,1.257-17.12,7.312c-0.723,2.848,0.038,5.809,1.882,8.354
	c0.704,0.967,1.524,1.844,2.442,2.61l0.038,0.112c1.063,1.728,0.875,3.945-0.464,5.469l-48.354-12.305l-10.925,42.853
	c3.593-2.913,8.342-3.976,12.834-2.875c8.143,2.071,12.94,10.86,10.709,19.628c-2.232,8.768-10.628,14.188-18.798,12.117
	c-4.471-1.188-8.128-4.395-9.891-8.672l-11.193,43.98l42.82,10.902c-2.813-3.572-3.821-8.244-2.733-12.66
	c2.069-8.147,10.859-12.942,19.628-10.71c4.745,1.16,8.751,4.324,10.979,8.671l22.033-86.558l-3.197-0.813
	C407.724,178.959,407.845,177.619,408.547,176.558z"/>
<path fill="#6C63FF" d="M412.063,178.403l0.087-0.351c-0.167,0.08-0.335,0.166-0.502,0.242L412.063,178.403z"/>
<path fill="#CEDDF9" d="M404.486,340.017c1.618,2.465,3.517,13.238,3.517,13.238s1.272,2.465,1.196,4.563
	c-0.075,2.098,1.197,5.932,1.197,5.932l4.189,15.482c0,0-0.453,4.113,1.121,7.01c1.575,2.895,1.418,2.016,0.675,7.102
	c-0.745,5.084,0.896,9.797,3.585,11.324c2.691,1.525-1.195,5.008-1.195,5.008s17.2,4.639,20.792,1.797s-1.871-16.904-1.871-16.904
	s0.899-11.814,0.303-13.535c-0.599-1.721-3.144-16.377-3.144-16.377s-1.569-6.658-0.973-7.781c0.6-1.121-0.372-4.313-0.372-4.313
	s-2.545-3.592-2.317-4.713c0.227-1.121-0.75-3.139-0.75-3.139s7.613-11.701,6.939-13.896s0.296-5.684,0.296-5.684l2.125-3.635
	c1.418-2.426,3.134-5.334,3.71-6.238c0.733-1.154,2.502-6.063,3.489-8.893l0.701-2.027c0,0,1.197,21.99,2.242,24.232
	c1.047,2.242,2.616,19.951,2.616,19.951c0.581,1.576,0.836,3.256,0.749,4.936c-0.151,2.766,2.395,14.807,2.395,14.807
	s1.122,8.525,0.372,10.785s-0.151,18.775-0.151,18.775s-4.113,3.234-5.159,5.684c-1.047,2.447,0.149,9.168,0.149,9.168
	s11.966,5.984,17.256,4.416s3.14-10.623,3.14-10.623s3.591-5.979,3.591-8.299c0-2.318,1.306-9.398,1.306-9.398
	c4.563-8.375,2.767-28.715,3.517-30.359c0.749-1.645-1.574-7.781-3.44-10.547c-1.866-2.768-1.121-10.246,0-12.402
	c1.122-2.156-1.154-9.658-1.154-9.658s2.157-14.51,2.094-16.754c-0.065-2.242,1.869-8.896,1.869-8.896s1.942-3.439,1.494-4.49
	c-0.446-1.053,1.494-3.738,0.972-4.936s0.453-4.854,1.424-7.01c0.496-1.111,1.116-4.174,1.618-6.887
	c0.458-2.582,0.798-4.854,0.798-4.854l-12.343-9.948l-30.813-8.088l-11.588-3.738l-11.297,17.794
	c-0.799,1.299-1.531,2.635-2.195,4.008c-0.89,1.848-1.682,3.908-1.542,5.191c0.188,1.621-0.181,3.256-1.046,4.639
	c0,0-6.735,21.311-6.584,27.445c0.15,6.137-2.396,19.592-2.396,19.592S402.826,337.542,404.486,340.017z"/>
<path fill="#FEC2BE" d="M450.03,166.653c0.475-0.194,33.007-13.632,28.524-16.302c-2.657-1.584-5.932-8.304-8.175-13.562
	c-1.563-3.672-2.626-6.633-2.626-6.633s-26.108-4.638-16.765,11.366c1.473,2.455,2.583,5.111,3.295,7.884
	C456.948,160.312,450.246,166.454,450.03,166.653z"/>
<path opacity="0.1" enable-background="new    " d="M450.99,141.525c1.473,2.455,2.582,5.109,3.294,7.883
	c6.752-0.471,12.688-4.641,15.417-10.833c0.26-0.582,0.486-1.179,0.68-1.785c-1.563-3.672-2.626-6.633-2.626-6.633
	S441.646,125.521,450.99,141.525z"/>
<path fill="#FEC2BE" d="M434.76,130.605c0.003,10.076,8.174,18.24,18.248,18.235c10.075-0.003,18.239-8.174,18.235-18.249
	c-0.003-10.074-8.174-18.238-18.248-18.236c-8.129,0.004-15.275,5.385-17.524,13.197
	C434.998,127.196,434.759,128.896,434.76,130.605z"/>
<path opacity="0.1" enable-background="new    " d="M417.158,271.997c1.909,1.736,2.643,5.043,2.643,5.043s8.979,6.131,8.38,2.242
	c-0.599-3.887,4.639-19.595,4.639-19.595l-0.601,21.392c0,0,28.716-1.35,30.813-3.441c2.098-2.09,14.358-6.104,14.358-6.104
	s3.775,3.016,7.205,5.301c0.458-2.582,0.799-4.852,0.799-4.852l-12.344-9.95l-30.813-8.088l-11.588-3.736l-11.297,17.794
	C418.555,269.296,417.822,270.63,417.158,271.997z"/>
<path fill="#FFFFFF" d="M416.215,270.31c2.396,1.492,3.289,5.531,3.289,5.531s8.975,6.131,8.375,2.244
	c-0.599-3.889,4.639-19.597,4.639-19.597l-0.601,21.392c0,0,28.72-1.338,30.808-3.439c2.087-2.102,14.359-6.131,14.359-6.131
	s10.622,8.525,12.563,7.775c1.94-0.75-3.44-15.255-3.44-15.255l-5.527-84.957c0,0,1.494-25.278-0.749-26.181
	c-0.346-0.139-0.665-0.338-0.942-0.588c-1.479-1.326-1.92-4.022-2.049-6.287c-0.146-2.696-3.737-1.348-3.737-1.348l2.093,2.695
	l-18.534,11.27l-0.161,0.098c-0.723-0.381-1.466-0.717-2.228-1.008c-1.618-0.631-3.823-1.225-5.252-0.637
	c-0.799,0.406-1.476,1.017-1.963,1.77c-1.058,1.588-1.905,3.307-2.523,5.111l-6.714,11.362c0,0-3.439,15.099-3.439,15.708
	c0,0.61-1.047,14.36-2.243,15.854c-1.197,1.493-2.395,8.973-1.946,11.216s-0.75,10.623-0.75,10.623
	c-4.934,4.039-7.474,17.794-7.474,17.794s-7.797,15.421-8.412,17.203C413.039,264.308,413.821,268.837,416.215,270.31z"/>
<path opacity="0.1" enable-background="new    " d="M456.76,158.031c1.817,2.695,7.069,6.471,7.069,6.471l15.158-12.807
	c-1.479-1.327-1.92-4.022-2.049-6.293c-0.146-2.696-3.737-1.344-3.737-1.344l0.437,0.539c0.817,1.056,0.625,2.572-0.43,3.391
	c-0.071,0.055-0.146,0.105-0.223,0.152L456.76,158.031z"/>
<path fill="#FFFFFF" d="M456.76,157.433c1.817,2.695,7.069,6.471,7.069,6.471l15.158-12.807c-1.479-1.326-1.92-4.022-2.049-6.289
	c-0.146-2.695-3.737-1.348-3.737-1.348l0.437,0.54c0.816,1.052,0.625,2.565-0.427,3.382c-0.072,0.057-0.146,0.108-0.226,0.155
	L456.76,157.433z"/>
<path opacity="0.1" enable-background="new    " d="M449.75,159.449c1.957,2.341,4.734,4.999,4.605,3.667
	c-0.131-1.332,1.653-4.271,2.793-5.586c-1.777-0.563-3.692-0.511-5.437,0.151C450.913,158.084,450.235,158.695,449.75,159.449z"/>
<path fill="#FFFFFF" d="M449.453,158.548c1.958,2.346,4.729,4.999,4.6,3.672c-0.13-1.326,1.474-3.488,2.61-4.805
	c-1.618-0.631-3.818-1.225-5.252-0.631C450.612,157.187,449.936,157.796,449.453,158.548z"/>
<circle fill="#FF718D" cx="454.355" cy="169.796" r="1.197"/>
<circle fill="#FF718D" cx="445.279" cy="202.103" r="1.197"/>
<circle fill="#FF718D" cx="435.013" cy="234.813" r="1.197"/>
<circle fill="#FF718D" cx="434.711" cy="270.407" r="1.197"/>
<circle fill="#FF718D" cx="449.07" cy="185.052" r="1.197"/>
<circle fill="#FF718D" cx="440.993" cy="218.257" r="1.197"/>
<circle fill="#FF718D" cx="433.114" cy="250.865" r="1.197"/>
<circle fill="#FF718D" cx="434.91" cy="274.396" r="1.196"/>
<path opacity="0.1" enable-background="new    " d="M478.987,151.825c0,0-0.2-1.796,2.389,1.299
	c2.589,3.097,7.479,5.781,7.479,5.781s11.069,7.78,11.668,11.366s4.186,19.148,2.292,24.332
	c-1.894,5.182-16.365,30.019-16.365,30.019s3.773,4.492,2.896,9.776c-0.879,5.283-1.994,12.563-1.499,14.161
	c0.496,1.595-0.599,5.58,1.078,6.976c1.679,1.396,3.489,3.775-1.796,6.979c0,0-0.997,2.696-0.102,3.296
	c0.895,0.598-13.261,6.777-18.873,3.488c-5.614-3.291-15.639-29.615-15.854-35.498c-0.217-5.884,3.09-25.345,4.886-29.918
	c1.796-4.572,7.183-22.438,9.475-26.422S478.987,151.825,478.987,151.825z"/>
<path fill="#4C4981" d="M479.58,151.825c0,0-0.199-1.796,2.395,1.299c2.595,3.097,7.479,5.781,7.479,5.781s11.07,7.78,11.668,11.366
	c0.6,3.586,4.187,19.148,2.292,24.332c-1.893,5.182-16.354,30.019-16.354,30.019s3.773,4.492,2.896,9.776
	c-0.879,5.283-1.995,12.563-1.499,14.161c0.496,1.595-0.599,5.58,1.078,6.976c1.678,1.396,3.489,3.775-1.795,6.979
	c0,0-0.998,2.696-0.104,3.296c0.896,0.598-13.26,6.777-18.873,3.488c-5.613-3.291-15.639-29.615-15.854-35.498
	c-0.215-5.884,3.091-25.345,4.886-29.918c1.796-4.572,7.184-22.438,9.476-26.422C469.561,173.474,479.58,151.825,479.58,151.825z"/>
<path opacity="0.1" enable-background="new    " d="M483.57,168.799c0,0-8.574,9.474-8.276,15.757
	C475.294,184.556,475.196,174.38,483.57,168.799z"/>
<path opacity="0.1" enable-background="new    " d="M471.707,184.355c0,0.297-5.786,21.834-5.482,24.531
	c0.302,2.695-1.699,10.666-1.699,10.666l-2.696-0.697c0,0,2.093-11.069,2.492-15.157
	C464.719,199.611,471.707,184.355,471.707,184.355z"/>
<path opacity="0.1" enable-background="new    " d="M469.41,245.781c0.2,0.296,13.664,15.551,9.873,16.651
	S469.41,245.781,469.41,245.781z"/>
<path opacity="0.1" enable-background="new    " d="M480.48,241.875c0.297,0.2,5.393,10.968,5.979,8.087
	c0.588-2.878-4.384,7.879-5.182-0.096L480.48,241.875z"/>
<path opacity="0.1" enable-background="new    " d="M454.635,155.238c0,0-5.559-3.393-12.542,5.285c0,0-5.085,2.89-6.579,3.591
	c-1.492,0.7-3.19,19.245-3.19,19.245s-3.289,7.975-2.396,12.563c0.896,4.589-2.589,20.339-2.589,20.339s-5.791,28.311-5.597,29.119
	c0.194,0.81,5.883-8.875,5.786-13.664c-0.099-4.787,4.782-19.74,5.482-20.642c0.701-0.901,5.484-26.521,5.484-26.521
	s3.888-10.871,6.379-14.461c2.491-3.592,5.586-10.369,6.881-11.566c0.933-0.807,1.973-1.479,3.09-1.995L454.635,155.238z"/>
<path fill="#4C4981" d="M454.705,155.238c0,0-6.233-3.393-13.211,5.285c0,0-5.09,2.89-6.584,3.591
	c-1.493,0.7-3.192,19.245-3.192,19.245s-3.289,7.975-2.394,12.563c0.895,4.589-2.589,20.339-2.589,20.339
	s-5.786,28.321-5.586,29.119c0.198,0.798,5.883-8.875,5.784-13.664c-0.097-4.787,4.783-19.74,5.484-20.642
	c0.7-0.901,5.5-26.521,5.5-26.521s3.888-10.871,6.379-14.461c2.491-3.592,5.587-10.369,6.881-11.566s3.688-1.995,3.688-1.995
	L454.705,155.238z"/>
<path fill="#FEC2BE" d="M427.334,217.556c0,0-11.863-7.775-17.601-3.937c-5.738,3.839-15.1,9.274-5.884,13.211
	s21.984,3.181,21.984,3.181L427.334,217.556z"/>
<path opacity="0.1" enable-background="new    " d="M435.584,292.597c1.77,3.775,3.235,22.854,4.217,28.896
	c1.418-2.426,3.133-5.332,3.71-6.238c0.733-1.152,2.502-6.061,3.489-8.893c-1.127-2.738-4.238-10.59-4.238-13.48
	c0-3.516-5.684-7.926-5.684-7.926S433.492,288.11,435.584,292.597z"/>
<path opacity="0.1" enable-background="new    " d="M473.725,351.151c0,0-13.162-5.607-17.051-1.617
	C452.786,353.524,473.725,351.151,473.725,351.151z"/>
<path opacity="0.1" enable-background="new    " d="M466.32,353.396c0,0,13.313,7.479,8.752,8.729
	C470.511,363.376,466.32,353.396,466.32,353.396z"/>
<path opacity="0.1" enable-background="new    " d="M426.536,346.892c0,0,5.683,0.373,3.516,1.494
	C427.884,349.507,426.536,346.892,426.536,346.892z"/>
<path opacity="0.1" enable-background="new    " d="M419.429,348.612c0.076,0.371,16.527,5.684,13.313,8.088
	C429.529,359.106,419.429,348.612,419.429,348.612z"/>
<path opacity="0.1" enable-background="new    " d="M471.777,394.382c-2.464-0.377-16.227-6.734-10.845-2.156
	C466.315,396.804,471.777,394.382,471.777,394.382z"/>
<path opacity="0.1" enable-background="new    " d="M464.973,399.392c0,0-1.196,4.639-5.759,4.039S464.973,399.392,464.973,399.392z
	"/>
<path opacity="0.1" enable-background="new    " d="M468.79,408.812c-0.825-0.223-10.623-4.707-10.844-2.615
	c-0.222,2.092,9.345,5.76,10.095,4.639C468.471,410.241,468.729,409.542,468.79,408.812z"/>
<path opacity="0.1" enable-background="new    " d="M437.078,403.431c-1.197-0.074-12.402-3.668-14.657-0.453L437.078,403.431z"/>
<path opacity="0.1" enable-background="new    " d="M426.908,405.522c0,0-1.946-1.721-3.888-0.824
	C421.078,405.593,426.908,405.522,426.908,405.522z"/>
<path opacity="0.1" enable-background="new    " d="M451.739,424.071c-0.257,1.299-1.254,2.324-2.545,2.617L451.739,424.071z"/>
<path fill="#CA8496" d="M394.673,431.099c0.749,3.068,11.222,3.365,16.23,2.545c5.01-0.818,15.405-3.816,15.405-3.816
	s10.92-1.047,14.134-2.389c3.215-1.344,0.674-4.789,0.674-4.789s0-0.119,0-0.322c0.076-1.252,0.303-5.787-0.469-7.012
	c-0.896-1.424-0.372-6.061-0.372-6.061s-15.481,2.992-15.783,1.574s-2.696-3.441-3.813-3.889c-1.116-0.447-1.945,3.736-1.945,3.736
	s-7.012,5.984-7.479,8.152c-0.47,2.168-5.393,3.289-5.393,3.289s-7.479,2.094-9.427,3.139c-1.147,0.541-1.931,1.645-2.06,2.906
	C394.294,429.153,394.395,430.147,394.673,431.099z"/>
<path opacity="0.1" enable-background="new    " d="M394.673,431.099c0.749,3.068,11.222,3.365,16.23,2.545
	c5.01-0.818,15.405-3.816,15.405-3.816s10.92-1.047,14.134-2.389c3.215-1.344,0.674-4.789,0.674-4.789s0-0.119,0-0.322
	l-15.638,3.467c0,0-7.705,3.289-12.64,3.289c-4.313,0-13.967,1.764-18.441-0.912C394.311,429.155,394.402,430.147,394.673,431.099z"
	/>
<path opacity="0.1" enable-background="new    " d="M415.837,419.284c0,0,0.75,4.934,3.743,6.578L415.837,419.284z"/>
<path opacity="0.1" enable-background="new    " d="M435.471,125.552c0.285,0.151,0.583,0.275,0.892,0.373
	c1.4,0.377,2.771-0.572,4.017-1.328c1.246-0.754,2.966-1.314,4.045-0.334c1.406,1.278,0.389,4.006,1.839,5.241
	c0.916,0.782,2.372,0.513,3.392,1.154s1.327,2.049,1.586,3.262c0.259,1.214,0.775,2.599,1.963,2.955
	c1.186,0.356,2.291-0.426,3.462-0.383c0.242,0,0.539,0.038,0.69-0.136c0.105-0.157,0.146-0.352,0.111-0.539
	c-0.146-1.448-0.016-2.912,0.383-4.313c0.48-1.38,1.618-2.626,3.042-2.847c2.099-0.323,3.86,1.515,5.097,3.234
	c1.298,1.821,2.479,3.725,3.537,5.694c0.066,0.127,0.127,0.259,0.178,0.394c4.08-9.215-0.083-19.992-9.299-24.071
	c-9.215-4.08-19.992,0.083-24.072,9.299c-0.341,0.771-0.628,1.562-0.859,2.371v-0.026H435.471z"/>
<path fill="#9A5E7F" d="M465.986,131.593c-1.235-1.736-2.998-3.57-5.103-3.236c-1.438,0.221-2.55,1.467-3.036,2.842
	c-0.398,1.4-0.526,2.865-0.377,4.314c0.03,0.188-0.013,0.381-0.117,0.539c-0.167,0.178-0.448,0.15-0.69,0.141
	c-1.171-0.043-2.335,0.717-3.462,0.383s-1.704-1.742-1.963-2.955s-0.539-2.6-1.586-3.262c-1.046-0.664-2.476-0.373-3.393-1.16
	c-1.449-1.229-0.426-3.963-1.838-5.241c-1.079-0.976-2.799-0.415-4.045,0.34s-2.615,1.698-4.021,1.321
	c-0.476-0.13-0.901-0.398-1.364-0.577c-2.217-0.847-5.091,0.587-6.913-0.933c-0.661-0.662-1.138-1.485-1.38-2.389
	c-0.501-1.223-0.84-2.504-1.009-3.813c-0.161-1.323,0.203-2.657,1.014-3.716c1.187-1.396,3.192-1.746,4.707-2.776
	c1.289-0.884,2.157-2.228,3.009-3.548c0.854-1.321,1.678-2.696,2.923-3.629c1.246-0.934,2.993-1.396,4.385-0.69
	c0.438,0.308,0.926,0.538,1.439,0.685c0.561,0.008,1.112-0.144,1.59-0.437c5.188-2.442,11.229-2.011,16.916-1.282
	c2.275,0.291,4.584,0.631,6.66,1.617c2.076,0.987,3.909,2.696,4.492,4.917c0.463,1.759,0.106,3.673,0.668,5.394
	c0.377,1.176,1.154,2.156,1.617,3.338c1.214,3.154-0.236,6.617-0.853,9.938c-0.668,3.629-0.334,7.549-1.876,10.99
	c-0.303,0.674-0.643,1.855-1.401,1.413c-0.539-0.329-1.111-2.243-1.436-2.843C468.481,135.308,467.293,133.409,465.986,131.593z"/>
<path opacity="0.1" enable-background="new    " d="M498.852,190.04l2.696,7.679c0,0-6.385,23.728-9.377,28.715
	c-2.993,4.987-7.378,11.366-7.378,11.366s-7.376,3.694-15.955,1.995c-8.579-1.698-33.616-6.179-33.616-6.179
	s-2.098,0.399-3.191-1.197c-1.095-1.596-6.794-2.405-6.794-2.405s-6.578-9.57,1.499-13.562c0,0,0.998,2.194,5.284,0.7
	c4.286-1.493,5.58,1.193,5.58,1.193s7.012,1.396,10.871,0.899c3.861-0.496,13.563-0.701,14.561-1.5
	c0.525-0.461,1.324-0.416,1.796,0.103c0,0,2.389-0.896,3.187-1.795c0.799-0.9,1.898,0.997,1.898,0.997s1.396-0.798,0.997-1.795
	c-0.398-0.998,1.294-4.782,1.294-4.782s0.799-2.498,0.303-4.492c-0.497-1.996,2.49-9.168,2.49-9.168
	c0.039-1.209-0.095-2.418-0.398-3.59c-0.502-1.791,3.775-5.394,3.775-5.394s4.184-20.345,13.06-13.664
	S498.852,190.04,498.852,190.04z"/>
<path fill="#4C4981" d="M499.424,190.04l2.696,7.679c0,0-6.385,23.728-9.377,28.715c-2.993,4.987-7.372,11.366-7.372,11.366
	s-7.376,3.693-15.955,1.995c-8.58-1.698-33.605-6.179-33.605-6.179s-2.092,0.399-3.187-1.197c-1.095-1.596-6.789-2.405-6.789-2.405
	s-6.578-9.57,1.499-13.562c0,0,0.998,2.194,5.284,0.7c4.287-1.493,5.581,1.193,5.581,1.193s7.011,1.396,10.871,0.899
	s13.562-0.701,14.56-1.5c0.526-0.461,1.325-0.416,1.795,0.103c0,0,2.391-0.896,3.188-1.795c0.798-0.9,1.897,0.997,1.897,0.997
	s1.396-0.798,0.997-1.795c-0.398-0.998,1.295-4.782,1.295-4.782s0.797-2.498,0.296-4.492c-0.501-1.996,2.497-9.168,2.497-9.168
	c0.039-1.209-0.096-2.418-0.398-3.59c-0.501-1.791,3.773-5.394,3.773-5.394s4.186-20.345,13.062-13.664
	S499.424,190.04,499.424,190.04z"/>
<path opacity="0.1" enable-background="new    " d="M434.613,222.146c0.098,0.701,2.292,3.488,1.494,3.99
	c-0.799,0.5-2.094,0.199-0.896,1.795s1.079,3.985,0.297,3.688c-0.781-0.296-2.092-3.888-2.092-5.284
	S434.613,222.146,434.613,222.146z"/>
<path opacity="0.1" enable-background="new    " d="M464.229,220.549c0,0,0.599,6.983,5.505,8.979
	C474.641,231.523,464.229,220.549,464.229,220.549z"/>
<path opacity="0.1" enable-background="new    " d="M474.398,218.15c0.297,0.103,6.978,3.693,3.989,5.785
	C475.401,226.029,474.398,218.15,474.398,218.15z"/>
<path opacity="0.1" enable-background="new    " d="M474.798,213.172c0,0,9.771,1.996,6.472,3.689
	C477.968,218.554,474.798,213.172,474.798,213.172z"/>
<g opacity="0.1">
	<path d="M457.871,129.489c0.485-1.375,1.617-2.62,3.035-2.841c2.104-0.324,3.866,1.515,5.102,3.234
		c1.299,1.822,2.479,3.723,3.537,5.694c0.323,0.598,0.874,2.507,1.436,2.836c0.76,0.446,1.078-0.733,1.401-1.408
		c1.542-3.429,1.208-7.36,1.876-10.989c0.395-2.119,1.121-4.313,1.284-6.416c0.231,2.609-0.794,5.354-1.284,8.008
		c-0.668,3.629-0.334,7.549-1.876,10.994c-0.303,0.674-0.643,1.855-1.401,1.408c-0.539-0.328-1.111-2.238-1.436-2.836
		c-1.058-1.971-2.238-3.873-3.537-5.693c-1.234-1.731-2.998-3.57-5.102-3.235c-1.439,0.221-2.55,1.467-3.035,2.841
		c-0.241,0.725-0.375,1.48-0.399,2.244C457.365,132.036,457.5,130.732,457.871,129.489z"/>
	<path d="M426.698,120.009c0.241,0.906,0.718,1.731,1.38,2.396c1.822,1.521,4.696,0.086,6.913,0.933
		c0.463,0.174,0.89,0.447,1.364,0.577c1.406,0.372,2.781-0.571,4.021-1.327c1.24-0.755,2.972-1.311,4.045-0.334
		c1.412,1.278,0.389,4.008,1.839,5.242c0.916,0.782,2.372,0.539,3.392,1.159s1.327,2.043,1.586,3.235
		c0.259,1.191,0.771,2.599,1.963,2.955c1.19,0.354,2.291-0.422,3.462-0.378c0.242,0,0.539,0.038,0.69-0.14
		c0.034-0.045,0.063-0.098,0.079-0.151c0,0.405,0,0.804,0.038,1.203c0.029,0.188-0.013,0.382-0.117,0.539
		c-0.167,0.173-0.448,0.146-0.69,0.136c-1.171-0.039-2.335,0.717-3.462,0.383s-1.704-1.736-1.963-2.955s-0.539-2.6-1.586-3.235
		c-1.046-0.636-2.476-0.377-3.392-1.16c-1.45-1.235-0.427-3.969-1.839-5.241c-1.079-0.98-2.799-0.42-4.045,0.334
		s-2.615,1.699-4.021,1.327c-0.476-0.13-0.9-0.403-1.364-0.577c-2.217-0.847-5.091,0.588-6.913-0.933
		c-0.661-0.664-1.138-1.489-1.38-2.394c-0.5-1.221-0.839-2.5-1.009-3.808c-0.038-0.444-0.027-0.894,0.031-1.337
		C425.909,117.673,426.237,118.867,426.698,120.009z"/>
</g>
<path fill="#6C63FF" d="M84.149,421.569c0,0-22.798-1.375-20.113,14.598c0,0-0.539,2.826,2.028,4.109c0,0,0.038-1.188,2.34-0.787
	c0.817,0.137,1.648,0.178,2.475,0.123c1.118-0.076,2.18-0.518,3.025-1.25l0,0c0,0,6.412-2.648,8.903-13.125
	c0,0,1.844-2.281,1.769-2.869l-3.845,1.617c0,0,1.316,2.777,0.28,5.086c0,0-0.124-4.982-0.863-4.854c-0.151,0-2,0.959-2,0.959
	s2.265,4.854,0.539,8.354c0,0,0.647-5.959-1.262-8.002l-2.696,1.58c0,0,2.642,4.994,0.852,9.068c0,0,0.458-6.25-1.424-8.682
	l-2.454,1.914c0,0,2.486,4.918,0.971,8.299c0,0-0.2-7.273-1.499-7.824c0,0-2.157,1.895-2.475,2.697c0,0,1.698,3.574,0.642,5.461
	c0,0-0.647-4.852-1.175-4.852c0,0-2.157,3.207-2.362,5.391c0,0,0.092-3.271,1.845-5.721c-1.234,0.234-2.372,0.824-3.273,1.697
	c0,0,0.329-2.27,3.802-2.469c0,0,1.769-2.438,2.238-2.584c0,0-3.451-0.291-5.543,0.639c0,0,1.844-2.156,6.18-1.166l2.421-1.979
	c0,0-4.545-0.621-6.471,0.064c0,0,2.216-1.895,7.124-0.514l2.637-1.58c0,0-3.872-0.836-6.18-0.539c0,0,2.432-1.311,6.956,0.113
	l1.882-0.846c0,0-2.836-0.541-3.667-0.648s-0.879-0.316-0.879-0.316c1.798-0.301,3.645-0.096,5.333,0.592
	C80.208,423.327,84.214,421.817,84.149,421.569z"/>
<ellipse opacity="0.1" fill="#6C63FF" enable-background="new    " cx="68.447" cy="441.668" rx="16.134" ry="2.729"/>
<path fill="#6C63FF" d="M127.86,379.472c0,0-12.855-0.775-11.324,8.234c-0.159,0.938,0.302,1.871,1.144,2.314c0,0,0-0.67,1.32-0.443
	c0.461,0.074,0.93,0.1,1.396,0.07c0.629-0.049,1.226-0.295,1.703-0.707l0,0c0,0,3.603-1.473,5.025-7.402
	c0,0,1.041-1.289,0.998-1.619l-2.157,0.922c0,0,0.739,1.57,0.156,2.869c0,0-0.07-2.809-0.485-2.744
	c-0.086,0-1.127,0.539-1.127,0.539s1.273,2.697,0.313,4.707c0,0,0.36-3.357-0.712-4.514l-1.537,0.918c0,0,1.488,2.813,0.479,5.111
	c0,0,0.26-3.525-0.804-4.896l-1.38,1.08c0,0,1.396,2.775,0.539,4.68c0,0-0.113-4.104-0.847-4.41
	c-0.523,0.443-0.992,0.947-1.396,1.504c0,0,0.96,2.018,0.367,3.078c0,0-0.367-2.732-0.663-2.742c0,0-1.208,1.805-1.332,3.051
	c0.056-1.15,0.413-2.268,1.035-3.234c-0.694,0.135-1.335,0.467-1.845,0.959c0,0,0.188-1.283,2.158-1.391
	c0,0,0.991-1.375,1.262-1.457c0,0-1.947-0.166-3.127,0.355c0,0,1.041-1.209,3.482-0.656l1.364-1.117c0,0-2.562-0.352-3.646,0.039
	c0,0,1.252-1.08,4.018-0.293l1.482-0.883c-1.143-0.254-2.313-0.355-3.482-0.305c0,0,1.375-0.742,3.92,0.061l1.079-0.475
	c0,0-1.618-0.316-2.065-0.365c-0.446-0.051-0.496-0.18-0.496-0.18c1.016-0.168,2.057-0.053,3.01,0.334
	C125.688,380.464,127.919,379.612,127.86,379.472z"/>
<ellipse opacity="0.1" fill="#6C63FF" enable-background="new    " cx="119.027" cy="390.802" rx="9.097" ry="1.537"/>
<path fill="#6C63FF" d="M52.017,387.29c0,0-15.519-0.938-13.669,9.939c-0.192,1.131,0.364,2.258,1.38,2.793c0,0,0-0.811,1.591-0.539
	c0.558,0.094,1.124,0.121,1.688,0.08c0.761-0.051,1.485-0.35,2.06-0.852l0,0c0,0,4.363-1.803,6.061-8.93
	c0,0,1.251-1.555,1.203-1.953l-2.659,1.121c0,0,0.89,1.889,0.189,3.457c0,0-0.086-3.387-0.588-3.307
	c-0.102,0-1.359,0.652-1.359,0.652s1.537,3.289,0.377,5.684c0,0,0.437-4.055-0.862-5.445l-1.839,1.078c0,0,1.795,3.396,0.577,6.17
	c0,0,0.313-4.254-0.965-5.934l-1.671,1.307c0,0,1.688,3.35,0.658,5.65c0,0-0.135-4.955-1.019-5.328c0,0-1.461,1.289-1.688,1.816
	c0,0,1.16,2.434,0.442,3.717c0,0-0.442-3.301-0.803-3.316c0,0-1.456,2.189-1.618,3.688c0.072-1.385,0.505-2.727,1.257-3.893
	c-0.841,0.156-1.618,0.559-2.232,1.152c0,0,0.226-1.547,2.594-1.682c0,0,1.202-1.656,1.521-1.758c0,0-2.346-0.199-3.775,0.432
	c0,0,1.256-1.457,4.206-0.793l1.65-1.348c0,0-3.095-0.422-4.406,0.047c0,0,1.51-1.293,4.853-0.35l1.795-1.078
	c0,0-2.636-0.572-4.206-0.367c0,0,1.655-0.896,4.734,0.076l1.283-0.578c0,0-1.93-0.377-2.497-0.438
	c-0.566-0.059-0.599-0.215-0.599-0.215c1.224-0.207,2.48-0.07,3.629,0.398C49.31,388.45,52.065,387.47,52.017,387.29z"/>
<ellipse opacity="0.1" fill="#6C63FF" enable-background="new    " cx="41.329" cy="400.972" rx="10.984" ry="1.855"/>
<ellipse opacity="0.1" fill="#6C63FF" enable-background="new    " cx="358.048" cy="468.505" rx="16.134" ry="2.729"/>
<path fill="#A8A8A8" d="M347.215,455.833c0,0,9.205-0.285,11.978-2.26c2.771-1.975,14.153-4.314,14.845-1.164
	c0.689,3.148,13.831,15.752,3.439,15.836c-10.391,0.088-24.142-1.617-26.912-3.305C347.792,463.253,347.215,455.833,347.215,455.833
	z"/>
<path opacity="0.2" enable-background="new    " d="M377.66,467.142c-10.393,0.086-24.143-1.617-26.908-3.301
	c-2.107-1.289-2.949-5.895-3.235-8.02h-0.308c0,0,0.583,7.422,3.349,9.107c2.768,1.689,16.522,3.389,26.913,3.307
	c2.998,0,4.033-1.078,3.98-2.695C381.041,466.526,379.893,467.124,377.66,467.142z"/>
</svg>
