<?xml version="1.0" encoding="utf-8"?>
<!-- Generator: Adobe Illustrator 16.0.0, SVG Export Plug-In . SVG Version: 6.00 Build 0)  -->
<!DOCTYPE svg PUBLIC "-//W3C//DTD SVG 1.1//EN" "http://www.w3.org/Graphics/SVG/1.1/DTD/svg11.dtd">
<svg version="1.1" id="_x31_084a417-9858-42b6-ae26-d97e116abc6c"
	 xmlns="http://www.w3.org/2000/svg" xmlns:xlink="http://www.w3.org/1999/xlink" x="0px" y="0px" width="562px" height="497px"
	 viewBox="181.34 164.84 562 497" enable-background="new 181.34 164.84 562 497" xml:space="preserve">
<title>product teardown</title>
<ellipse opacity="0.1" fill="#6C63FF" enable-background="new    " cx="620.558" cy="595.365" rx="64.104" ry="11.027"/>
<ellipse opacity="0.1" fill="#6C63FF" enable-background="new    " cx="426.466" cy="584.581" rx="94.905" ry="6.713"/>
<path opacity="0.1" fill="#6C63FF" enable-background="new    " d="M369.281,205.871c16.997-15.147,43.678-18.231,67.943-17.023
	c76.269,3.775,145.113,40.61,204.666,82.255c21.569,15.099,42.783,31.324,56.776,52.09c28.487,42.265,20.038,100.837-19.574,135.634
	c-13.48,11.863-29.814,20.927-46.59,28.978c-29.819,14.317-62.012,25.808-95.843,29.075c-24.137,2.335-48.574,0.438-72.57-2.814
	c-67.038-9.091-132.84-29.199-187.982-63.597c-24.19-15.099-46.994-33.843-56.964-58.237c-9.971-24.395-3.586-55.336,21.111-69.782
	c10.246-5.975,22.432-8.671,34.392-11.206c17.601-3.731,35.487-7.409,51.373-14.99c16.414-7.84,35.827-22.988,32.591-40.319
	C355.104,237.325,352.306,220.997,369.281,205.871z"/>
<line fill="none" x1="302.615" y1="284.006" x2="298.555" y2="284.006"/>
<g opacity="0.1">
	<path d="M433.46,537.139c2.07,3.521,5.316,5.791,8.973,5.791c6.244,0,11.324-6.616,11.324-14.785
		c0-8.17-5.096-14.732-11.324-14.732c-2.939,0-5.619,1.467-7.63,3.877c-0.763,0.923-1.409,1.935-1.925,3.015l-0.108,0.642
		c0,0-2.41,2.06-5.695,0.167v-47.895h-46.762c-0.769-1.007-0.981-2.33-0.566-3.526c0.349-1.095,1.104-2.015,2.108-2.572
		c3.521-2.07,5.797-5.317,5.797-8.973c0-6.245-6.622-11.324-14.786-11.324c-8.164,0-14.786,5.063-14.786,11.324
		c0,2.938,1.472,5.624,3.883,7.635c0.921,0.761,1.932,1.405,3.009,1.92l0.064,0.107c1.452,1.405,1.817,3.593,0.901,5.393h-21.09
		v88.693c0,11.615,9.416,21.03,21.03,21.03l0,0h61.214V535.86c1.018-0.965,2.491-1.278,3.813-0.809
		C431.991,535.396,432.906,536.143,433.46,537.139z"/>
	<path d="M354.759,471.352h7.322c-3.607-2.771-5.737-7.049-5.775-11.599c0-8.406,7.333-15.217,16.376-15.217
		s16.382,6.811,16.382,15.217c-0.038,4.55-2.168,8.827-5.775,11.599h43.894v-47.253c1.022-0.955,2.49-1.267,3.813-0.809
		c1.097,0.347,2.02,1.102,2.578,2.108c2.065,3.521,5.311,5.792,8.973,5.792c6.244,0,11.324-6.617,11.324-14.78
		c0-8.165-5.058-14.787-11.324-14.787c-2.944,0-5.624,1.472-7.636,3.877c-0.76,0.924-1.407,1.936-1.925,3.014l-0.103,0.064
		c-1.489,1.555-3.856,1.87-5.7,0.761v-47.884h-45.021c-0.768-1.006-0.98-2.331-0.566-3.527c0.347-1.096,1.102-2.017,2.108-2.572
		c3.521-2.065,5.792-5.316,5.792-8.973c0-6.244-6.617-11.324-14.78-11.324c-8.164,0-14.786,5.063-14.786,11.324
		c0,2.944,1.472,5.624,3.877,7.636c0.924,0.76,1.936,1.407,3.014,1.925l0.064,0.103c1.452,1.405,1.817,3.592,0.901,5.393h-13.028
		v-2.427h9.62c-3.6-2.768-5.728-7.037-5.77-11.577c0-8.407,7.334-15.223,16.382-15.223s16.376,6.816,16.376,15.223
		c-0.043,4.551-2.182,8.828-5.797,11.593h41.575V311.2c1.02-0.964,2.494-1.276,3.817-0.809c1.095,0.349,2.016,1.103,2.572,2.109
		c2.065,3.521,5.317,5.792,8.973,5.792c6.245,0,11.324-6.617,11.324-14.786s-5.058-14.78-11.324-14.78
		c-2.944,0-5.624,1.467-7.635,3.877c-0.763,0.922-1.41,1.935-1.925,3.014l-0.103,0.642c0,0-2.41,2.06-5.699,0.167v-44.611h-61.187
		c-11.615,0-21.03,9.416-21.03,21.03v22.767h-0.318c-0.682,0-1.235,0.552-1.235,1.235l0,0v10.785
		c0.003,0.68,0.554,1.231,1.235,1.234h0.318v11.011h-0.416c-0.683,0-1.237,0.552-1.24,1.235v20.593
		c0.003,0.683,0.557,1.235,1.24,1.235h0.416v8.089h-0.34c-0.682,0-1.235,0.553-1.235,1.235l0,0v6.632h-0.27v13.977
		c-0.003,0.679,0.545,1.232,1.224,1.235c0.004,0,0.007,0,0.011,0h0.367v97.245H354.759z"/>
	<path d="M514.766,328.186c0-0.683-0.552-1.237-1.235-1.24h-0.743v-1.353h-0.405v-53.789c0.004-11.165-9.045-20.219-20.21-20.222
		c-0.004,0-0.007,0-0.011,0h-60.664v40.982c2.809-3.728,7.196-5.931,11.863-5.958c8.471,0,15.341,7.339,15.341,16.387
		s-6.87,16.387-15.341,16.387c-4.668-0.025-9.055-2.229-11.863-5.958v45.474h49.07c-3.603-2.779-5.728-7.06-5.764-11.61
		c0-8.417,7.316-15.239,16.349-15.239c4.015-0.022,7.907,1.38,10.984,3.958c6.217,4.967,7.23,14.034,2.263,20.25
		c-0.668,0.836-1.427,1.595-2.263,2.263v0.361h10.65v-0.038h1.979V328.186z"/>
	<path d="M498.476,468.931v-5.393l0,0c0.222-0.323,0.426-0.66,0.609-1.008c0.722-1.314,1.104-2.788,1.11-4.287
		c-0.001-0.999-0.173-1.991-0.507-2.934c-0.294-0.839-0.702-1.633-1.213-2.361l0,0c-2.485-3.575-7.398-6.013-13.061-6.013
		c-8.169,0-14.785,5.063-14.785,11.323c0,2.944,1.472,5.625,3.877,7.636c0.924,0.761,1.936,1.407,3.015,1.926l0.064,0.103
		c1.449,1.405,1.815,3.591,0.9,5.393h-47.571v44.217c2.769-3.706,7.114-5.9,11.739-5.932c8.406,0,15.217,7.333,15.217,16.376
		s-6.811,16.383-15.217,16.383c-4.625-0.032-8.97-2.227-11.739-5.932v35.691h54.587c7.152,0,12.955-5.789,12.974-12.941v-87.847l0,0
		v87.787c0,7.165-5.809,12.974-12.974,12.974h-54.587v8.628h56.619c11.614,0,21.03-9.415,21.03-21.03l0,0v-88.358l0,0v-2.318
		h-10.089V468.931z"/>
</g>
<path fill="#3A3768" d="M368.45,572.113c-7.165,0-12.974-5.809-12.974-12.975v-88.078h-10.089v88.678
	c0,11.614,9.416,21.029,21.03,21.029l0,0h61.214v-8.627L368.45,572.113z"/>
<path fill="#6C63FF" d="M431.406,532.895c1.097,0.346,2.018,1.101,2.572,2.108c2.071,3.521,5.316,5.792,8.973,5.792
	c6.244,0,11.324-6.617,11.324-14.786c0-8.17-5.074-14.754-11.302-14.754c-2.939,0-5.619,1.467-7.63,3.878
	c-0.762,0.922-1.409,1.934-1.925,3.014l-0.108,0.643c0,0-2.41,2.06-5.694,0.167v-47.896h-46.762c-0.769-1.006-0.98-2.33-0.566-3.526
	c0.349-1.095,1.103-2.015,2.108-2.572c3.521-2.07,5.796-5.316,5.796-8.973c0-6.244-6.622-11.324-14.786-11.324
	s-14.786,5.063-14.786,11.324c0,2.938,1.472,5.624,3.882,7.636c0.921,0.76,1.932,1.404,3.009,1.92l0.064,0.107
	c1.452,1.404,1.817,3.592,0.9,5.393h-11v88.094c0,7.166,5.809,12.975,12.974,12.975h59.181v-38.41
	C428.641,532.752,430.095,532.44,431.406,532.895z"/>
<rect x="343.608" y="356.695" fill="#3A3768" width="1.602" height="2.61"/>
<rect x="346.547" y="356.695" fill="#3A3768" width="8.751" height="2.61"/>
<rect x="345.209" y="356.695" fill="#3A3768" width="1.337" height="2.61"/>
<path fill="#6C63FF" d="M430.915,472.069"/>
<path fill="#3A3768" d="M344.843,371.907h0.367v-12.607h-1.618v11.373c-0.003,0.679,0.544,1.232,1.224,1.235
	C344.824,371.907,344.833,371.907,344.843,371.907z"/>
<path fill="#3A3768" d="M355.298,359.299h-8.751v11.373c0,0.682-0.553,1.235-1.235,1.235c-0.002,0-0.004,0-0.006,0h-0.097v97.289
	h10.089V359.299z"/>
<path fill="#3A3768" d="M345.209,371.907h0.097c0.682,0.003,1.237-0.547,1.24-1.229c0-0.002,0-0.003,0-0.005v-11.373h-1.337
	L345.209,371.907z"/>
<path fill="#6C63FF" d="M356.846,457.574c0-8.406,7.334-15.217,16.376-15.217c9.043,0,16.382,6.811,16.382,15.217
	c-0.031,4.557-2.162,8.845-5.775,11.621h43.894v-47.253c1.022-0.956,2.49-1.268,3.813-0.81c1.098,0.347,2.02,1.102,2.578,2.109
	c2.065,3.521,5.311,5.791,8.973,5.791c6.245,0,11.324-6.616,11.324-14.78c0-8.165-5.058-14.786-11.324-14.786
	c-2.944,0-5.624,1.472-7.636,3.877c-0.76,0.924-1.406,1.937-1.924,3.014l-0.103,0.065c-1.489,1.555-3.855,1.87-5.7,0.76v-47.884
	h-45.021c-0.768-1.006-0.981-2.331-0.566-3.526c0.347-1.096,1.102-2.017,2.108-2.572c3.521-2.065,5.792-5.317,5.792-8.973
	c0-6.244-6.617-11.324-14.78-11.324c-8.164,0-14.786,5.063-14.786,11.324c0,2.944,1.472,5.625,3.877,7.636
	c0.924,0.761,1.936,1.407,3.014,1.925l0.065,0.103c1.452,1.405,1.817,3.592,0.9,5.392h-13.028v109.912h7.323
	C359.008,466.419,356.877,462.131,356.846,457.574z"/>
<path fill="#3A3768" d="M346.816,349.884c0-0.682-0.553-1.235-1.235-1.235c-0.002,0-0.004,0-0.006,0h-0.097v8.045h1.337V349.884z"/>
<path fill="#3A3768" d="M345.43,293.443h-0.27c-0.682,0-1.235,0.553-1.235,1.235l0,0v10.785c0.003,0.681,0.554,1.232,1.235,1.235
	h0.318v-13.249L345.43,293.443z"/>
<path fill="#3A3768" d="M345.064,317.698c-0.683,0-1.238,0.552-1.241,1.235v20.593c0.003,0.683,0.558,1.235,1.241,1.235h0.415
	v-23.063H345.064z"/>
<path fill="#3A3768" d="M345.479,348.828h-0.351c-0.682,0-1.235,0.553-1.235,1.235l0,0v6.811h1.618L345.479,348.828z"/>
<path fill="#3A3768" d="M345.479,270.682v22.767c0.662,0.023,1.187,0.567,1.186,1.229v10.785c-0.002,0.662-0.525,1.203-1.186,1.229
	v11.011h0.188c0.682,0,1.235,0.553,1.235,1.234l0,0v20.594c0,0.682-0.553,1.235-1.235,1.235l0,0h-0.199v8.088h0.097
	c0.683,0,1.237,0.552,1.241,1.235v6.784h8.751v-85.577c0-7.163,5.805-12.971,12.969-12.974h17.584v2.254
	c0,5.899,4.783,10.682,10.683,10.682h30.936v-7.053h-14.241c-1.146-0.006-2.076-0.93-2.087-2.076v-0.453
	c0.002-1.151,0.935-2.084,2.087-2.087h14.214v-9.933h-61.203C354.89,249.663,345.482,259.074,345.479,270.682z"/>
<path fill="#3A3768" d="M346.665,305.457v-10.785c0-0.663-0.524-1.207-1.186-1.229v13.238
	C346.138,306.655,346.66,306.116,346.665,305.457z"/>
<path fill="#3A3768" d="M346.913,339.526v-20.593c0-0.682-0.553-1.235-1.235-1.235l0,0h-0.199v23.063h0.188
	c0.682,0.006,1.24-0.542,1.246-1.224C346.913,339.533,346.913,339.529,346.913,339.526z"/>
<path fill="#6C63FF" d="M359.148,345.279c0-8.406,7.333-15.223,16.382-15.223s16.376,6.816,16.376,15.223
	c-0.043,4.551-2.182,8.828-5.797,11.594h41.575v-47.83c1.02-0.964,2.494-1.277,3.817-0.809c1.095,0.348,2.016,1.103,2.572,2.108
	c2.065,3.521,5.317,5.792,8.973,5.792c6.245,0,11.324-6.616,11.324-14.786c0-8.169-5.058-14.78-11.324-14.78
	c-2.944,0-5.624,1.466-7.635,3.877c-0.763,0.922-1.41,1.935-1.925,3.014l-0.103,0.642c0,0-2.411,2.06-5.7,0.167v-23.025h-30.92
	c-5.889-0.015-10.655-4.793-10.655-10.682v-2.254h-17.573c-7.166,0.003-12.972,5.814-12.969,12.979c0,0.003,0,0.007,0,0.011v85.577
	h9.351C361.313,354.102,359.186,349.826,359.148,345.279z"/>
<path fill="#E6E8EC" d="M413.487,259.574c-1.152,0.003-2.084,0.936-2.087,2.087v0.469c0.002,1.152,0.935,2.086,2.087,2.092h14.214
	v-4.632L413.487,259.574z"/>
<path fill="#3A3768" d="M509.687,324.724v32.009h3.64v-33.298h-1.968C510.436,323.435,509.687,324.012,509.687,324.724z"/>
<rect x="432.037" y="249.425" fill="#3A3768" width="4.314" height="9.707"/>
<rect x="432.037" y="263.985" fill="#3A3768" width="4.314" height="7.01"/>
<rect x="432.037" y="259.132" fill="#E6E8EC" width="4.314" height="4.853"/>
<path fill="#3A3768" d="M514.07,324.789h-1.014v31.906h2.248v-30.666C515.305,325.346,514.753,324.792,514.07,324.789z"/>
<path fill="#3A3768" d="M436.345,259.132c1.148,0.258,2.157,2.351,2.157,2.351v0.453c0,0-1.014,2.087-2.157,2.049l0,0v7.01h24.368
	c5.9-0.003,10.682-4.787,10.682-10.688v-2.254h18.334c7.151,0.015,12.941,5.816,12.941,12.968v62.826
	c6.217,4.967,7.229,14.034,2.262,20.25c-0.667,0.836-1.426,1.595-2.262,2.262v0.362h7.549v-31.648c0-0.086,0.07-0.156,0.156-0.156
	c0.002,0,0.004,0,0.006,0h2.534v-55.271c0.003-11.165-9.046-20.218-20.211-20.221c-0.003,0-0.007,0-0.01,0h-56.884v9.707H436.345z
	 M444.509,259.083c1.451,0,2.626,1.176,2.626,2.626s-1.175,2.626-2.626,2.626c-1.45,0-2.626-1.176-2.626-2.626l0,0
	C441.883,260.259,443.059,259.083,444.509,259.083z"/>
<path fill="#6C63FF" d="M443.873,284.443c8.472,0,15.341,7.339,15.341,16.387c0,9.049-6.87,16.388-15.341,16.388
	c-4.667-0.026-9.055-2.229-11.863-5.958v45.474h49.07c-3.603-2.779-5.729-7.06-5.765-11.61c0-8.417,7.317-15.239,16.35-15.239
	c4.024-0.027,7.927,1.377,11.011,3.963v-62.826c0-7.152-5.789-12.954-12.941-12.968H471.4v2.254c0,5.9-4.781,10.685-10.682,10.688
	h-28.682v19.413C434.838,286.685,439.214,284.48,443.873,284.443z"/>
<path fill="#E6E8EC" d="M436.345,263.985c1.15,0.001,2.1-0.9,2.157-2.049v-0.453c-0.128-1.17-1.001-2.123-2.157-2.351h-0.54v4.853
	H436.345z"/>
<circle fill="#E6E8EC" cx="444.51" cy="261.698" r="2.626"/>
<path fill="#3A3768" d="M499.015,466.773v-5.392c2.294-3.158,2.294-7.434,0-10.591V466.773z"/>
<rect x="499.015" y="468.855" fill="#3A3768" width="10.089" height="2.318"/>
<path fill="#6C63FF" d="M494.943,465.07c-1.006,0.556-1.76,1.477-2.108,2.572c-0.416,1.197-0.204,2.524,0.566,3.531h5.613v-2.318
	h-2.157c0.782-0.626,1.504-1.322,2.157-2.082v-5.392C497.941,462.892,496.553,464.15,494.943,465.07z"/>
<path fill="#6C63FF" d="M496.848,468.855h2.156v-2.082C498.352,467.533,497.629,468.229,496.848,468.855z"/>
<path fill="#3A3768" d="M500.735,456.097c-0.014-1.9-0.614-3.749-1.721-5.295v10.585
	C500.119,459.843,500.719,457.995,500.735,456.097z"/>
<path fill="#3A3768" d="M509.104,471.174v88.386c0,11.615-9.415,21.03-21.03,21.03l0,0h-56.619v-8.628h54.587
	c7.165,0,12.974-5.808,12.974-12.974v-87.814H509.104z"/>
<path fill="#6C63FF" d="M492.835,467.643c0.349-1.096,1.103-2.017,2.108-2.572c1.608-0.918,2.997-2.175,4.071-3.684v-10.585
	c-2.485-3.575-7.398-6.013-13.061-6.013c-8.169,0-14.785,5.063-14.785,11.324c0,2.944,1.472,5.624,3.877,7.636
	c0.924,0.761,1.936,1.406,3.015,1.925l0.064,0.103c1.45,1.405,1.815,3.592,0.9,5.393h-47.571v44.217
	c2.77-3.705,7.114-5.9,11.739-5.932c8.407,0,15.217,7.334,15.217,16.377s-6.811,16.382-15.217,16.382
	c-4.625-0.031-8.97-2.227-11.739-5.932v35.692h54.587c7.152,0,12.956-5.79,12.974-12.942v-87.857h-5.598
	C492.642,470.17,492.423,468.843,492.835,467.643z"/>
<linearGradient id="SVGID_1_" gradientUnits="userSpaceOnUse" x1="734.0029" y1="445.2793" x2="734.0029" y2="462.5078" gradientTransform="matrix(1 0 0 -1 -135.1602 779.0195)">
	<stop  offset="0" style="stop-color:#808080;stop-opacity:0.25"/>
	<stop  offset="0.54" style="stop-color:#808080;stop-opacity:0.12"/>
	<stop  offset="1" style="stop-color:#808080;stop-opacity:0.1"/>
</linearGradient>
<path fill="url(#SVGID_1_)" d="M595.43,333.74c3.009-1.354,5.236-3.634,5.996-6.557c0.092-0.354,0.16-0.715,0.205-1.079
	c0.135-0.336,0.249-0.68,0.346-1.03c0.76-2.934-0.076-5.969-2.061-8.563l-3.941,15.099l0,0L595.43,333.74z"/>
<linearGradient id="SVGID_2_" gradientUnits="userSpaceOnUse" x1="728.9023" y1="176.9341" x2="728.9023" y2="519.6001" gradientTransform="matrix(1 0 0 -1 -135.1602 779.0195)">
	<stop  offset="0" style="stop-color:#808080;stop-opacity:0.25"/>
	<stop  offset="0.54" style="stop-color:#808080;stop-opacity:0.12"/>
	<stop  offset="1" style="stop-color:#808080;stop-opacity:0.1"/>
</linearGradient>
<path fill="url(#SVGID_2_)" d="M686.42,328.072c-0.614-3.607-12.003-11.421-12.003-11.421s-5.031-2.696-7.695-5.813
	c-1.704-1.984-2.237-1.962-2.399-1.693c-0.11-0.071-0.236-0.113-0.367-0.125c-0.107-0.075-0.21-0.145-0.307-0.226l0,0
	c0.032-0.313-0.14-0.61-0.426-0.739c-0.13-0.076-0.26-0.173-0.389-0.264c-0.863-1.451-1.171-3.505-1.272-5.295
	c-0.13-2.259-2.696-1.693-3.575-1.439c-0.604-1.133-1.191-2.308-1.747-3.484c0.245-0.381,0.449-0.788,0.609-1.213
	c1.585-3.445,1.24-7.398,1.931-11.043c0.495-2.637,1.531-5.392,1.326-7.959c0-0.059,0-0.124,0-0.188c0,0,0,0.027,0,0.038
	c-0.056-0.643-0.203-1.275-0.437-1.876c-0.459-1.154-1.257-2.157-1.618-3.349c-0.577-1.742-0.21-3.662-0.69-5.425
	c-0.599-2.232-2.485-3.958-4.621-4.945s-4.514-1.327-6.854-1.618c-5.851-0.733-12.068-1.17-17.406,1.289
	c-0.489,0.29-1.049,0.441-1.618,0.437c-0.526-0.146-1.025-0.377-1.478-0.685c-1.434-0.712-3.235-0.259-4.519,0.69
	c-1.283,0.949-2.157,2.319-3.004,3.645c-0.847,1.327-1.773,2.696-3.1,3.564c-1.559,1.041-3.619,1.392-4.854,2.793
	c-0.551,0.665-0.898,1.473-1.003,2.33c0,0,0-0.027,0-0.038c-0.006,0.103-0.006,0.205,0,0.308c0,0.081,0,0.167,0,0.248
	c0,0.081,0,0.135,0,0.199c0,0.232,0,0.458,0,0.685c0.173,1.317,0.522,2.605,1.04,3.829c0.249,0.913,0.737,1.743,1.413,2.405
	c1.877,1.526,4.854,0.086,7.118,0.938c0.199,0.07,0.389,0.162,0.577,0.249c0,0.086-0.06,0.172-0.087,0.264
	c-0.484,1.647-0.729,3.356-0.728,5.074c0,10.126,8.407,18.334,18.776,18.334c0.388,0,0.771,0,1.154-0.043
	c0.053,0.199,0.112,0.404,0.161,0.598c0.577,2.238,0.76,4.559,0.539,6.859l-0.113-1.003c-0.251-0.121-0.513-0.22-0.781-0.296
	c-0.751-0.25-1.539-0.37-2.33-0.356c-2.551-0.032-6.39,0.992-10.487,5.964c0,0-5.231,2.907-6.769,3.607
	c-0.126,0.077-0.225,0.189-0.285,0.324l0,0c0,0-6.994,10.563-7.717,14.581c-0.723,4.017-1.617,8.627-1.617,8.627
	s-1.747,5.209-2.874,7.517s-2.157,4.508-2.254,5.511c-0.098,1.003,0.409,3.203-1.748,4.605c-2.156,1.402-2.695,5.208-2.695,5.208
	s-1.079,1.014-2.605,2.297h-0.053l5.635-21.607l1.008,0.253c0.493,0.122,1.012-0.055,1.327-0.453
	c0.104-0.132,0.18-0.285,0.221-0.447l1.138-4.379l0.459-1.742l0.092-0.356l0.662-2.54l-2.243-0.54l-2.626-0.652l-7.42-1.871
	l0.647-2.48l0,0l0.539-2.103l0,0l3.392-13.017l0,0l0.54-2.098c-2.157-2.793-5.593-5.063-9.814-6.115
	c-8.143-2.022-16.026,1.267-17.611,7.344c-0.094,0.354-0.164,0.715-0.21,1.079c-0.137,0.333-0.25,0.676-0.34,1.024
	c-0.275,1.055-0.349,2.153-0.216,3.235c0.021,0.176,0.048,0.356,0.081,0.54c0.323,1.679,1.029,3.26,2.065,4.621
	c0.728,0.972,1.573,1.851,2.518,2.615l0.038,0.119c0.399,0.654,0.642,1.393,0.706,2.157c0,0.108,0,0.221,0,0.334
	c-0.181,0.325-0.397,0.629-0.647,0.906l-49.749-12.365l-0.539,2.098l0,0l-11.206,43.058l0,0c1.461-1.123,3.103-1.989,4.854-2.562
	c0.688-0.228,1.391-0.408,2.104-0.539l0.253-0.043c2.006-0.326,4.057-0.241,6.028,0.248c6.288,1.564,10.635,6.918,11.443,13.217
	c0.104,0.795,0.149,1.598,0.135,2.399c-0.016,1.023-0.124,2.043-0.324,3.047c-2.696,8.186-10.979,13.13-19.023,11.13
	c-4.57-1.153-8.341-4.375-10.191-8.709l-0.54,2.103l0,0l-11.562,44.19l44.062,10.958l0,0l0.475-2.119h0.07
	c-2.641-3.27-3.748-7.517-3.042-11.658c0-0.07,0.043-0.135,0.07-0.205c0.054-0.156,0.113-0.308,0.173-0.459
	c0.302-0.737,0.662-1.449,1.078-2.13c0.216-0.351,0.442-0.689,0.686-1.019c0.15-0.205,0.307-0.404,0.469-0.6
	c0.775-0.939,1.661-1.782,2.637-2.512l0.313-0.227c0.356-0.254,0.723-0.497,1.079-0.723c0.221-0.13,0.447-0.259,0.674-0.377
	c2.609-1.379,5.525-2.075,8.477-2.022c1.418,0.019,2.829,0.199,4.206,0.539c4.251,1.021,7.964,3.602,10.401,7.23
	c0.323,0.486,0.618,0.991,0.885,1.511c0.794,1.54,1.311,3.208,1.526,4.928c0.168,1.373,0.132,2.764-0.108,4.126
	c-1.048,3.015-3.051,5.607-5.705,7.382l-0.539,2.027h0.059l-0.08,0.06l-0.539,2.021l10.063,2.502l14.251-54.489
	c3.845-0.447,5.813-2.157,5.813-2.405s4.621-2.81,7.182-3.51c1.273-0.345,2.745-0.593,3.916-0.841
	c-1.381,6.854-2.696,13.48-2.578,13.869c0.038,0.151,0.286-0.086,0.663-0.604c-0.037,0.199-0.053,0.401-0.049,0.604
	c0,0.102,0.146,0.027,0.335-0.183l-0.027,0.129c0,0-8.002,15.481-8.627,17.256c-0.626,1.773,0.15,6.314,2.614,7.818
	c0.478,0.303,0.904,0.68,1.262,1.116l-0.291,0.577c-0.916,1.86-1.73,3.932-1.585,5.22c0.193,1.632-0.188,3.278-1.078,4.659
	c0,0-6.929,21.413-6.773,27.576c0.156,6.164-2.464,19.688-2.464,19.688s-2.848,8.714-1.154,11.194
	c1.693,2.481,3.618,13.303,3.618,13.303s1.311,2.481,1.229,4.584c-0.08,2.103,1.235,5.932,1.235,5.932l4.313,15.552
	c0,0-0.463,4.136,1.154,7.063c1.618,2.928,1.462,2.027,0.69,7.14c-0.771,5.111,0.928,9.841,3.693,11.324
	c1.079,0.582,1.133,1.472,0.798,2.34l0,0c-0.706-0.274-1.294,1.187-1.645,2.367l-0.355,0.34l0.237,0.06
	c-0.151,0.539-0.237,0.992-0.237,0.992s-7.231,6.013-7.695,8.19c-0.464,2.179-5.543,3.306-5.543,3.306s-7.695,2.103-9.706,3.154
	c-1.172,0.532-1.978,1.64-2.125,2.917c-0.09,0.991,0.005,1.989,0.28,2.944c0.766,3.079,11.54,3.382,16.717,2.557
	c5.176-0.825,15.848-3.834,15.848-3.834s11.237-1.079,14.56-2.405c3.321-1.326,0.69-4.81,0.69-4.81s0-0.113,0-0.323
	c0.081-1.257,0.313-5.813-0.485-7.011c-0.599-0.928-0.583-3.235-0.496-4.702c2.248-4.044-2.578-16.177-2.578-16.177
	s0.923-11.863,0.308-13.6c-0.614-1.736-3.235-16.457-3.235-16.457s-1.618-6.687-0.998-7.813s-0.388-4.362-0.388-4.362
	s-2.637-3.597-2.399-4.729c0.236-1.133-0.771-3.154-0.771-3.154s7.852-11.724,7.156-13.901c-0.696-2.179,0.313-5.711,0.313-5.711
	s0.986-1.661,2.156-3.65c1.456-2.438,3.236-5.354,3.818-6.266c0.755-1.16,2.572-6.094,3.586-8.936
	c0.432-1.208,0.723-2.038,0.723-2.038s1.229,22.108,2.308,24.347c1.078,2.237,2.696,20.064,2.696,20.064
	c0.598,1.582,0.86,3.271,0.771,4.961c-0.151,2.777,2.464,14.878,2.464,14.878s1.154,8.563,0.383,10.816s-0.15,18.873-0.15,18.873
	s-4.233,3.235-5.313,5.711c-1.078,2.475,0.151,9.242,0.151,9.242l0.496,0.231c-0.396,0.94-0.691,1.92-0.879,2.923
	c-0.151,1.43-2.465,7.895-2.232,8.795c0.232,0.901-0.998,3.684-1.154,5.106c-0.156,1.424-2.075,3.532-2.232,4.287
	c-0.243,0.676-0.525,1.336-0.847,1.979c-0.418,0.986-0.752,2.008-0.997,3.052c-0.771,3.16,8.385,3.683,8.385,3.683
	c13.546,2.48,16.01-7.662,16.01-7.662s1.693-9.017,2.309-9.707c0.151-0.259,0.189-0.569,0.103-0.856l0,0
	c-0.353-1.534-1.017-2.979-1.952-4.244c-0.432-0.501-0.458-1.79-0.389-2.944c0.393-0.038,0.78-0.11,1.159-0.215
	c5.463-1.575,3.235-10.672,3.235-10.672s3.694-6.008,3.694-8.337s1.311-9.469,1.311-9.469c4.696-8.417,2.847-28.854,3.618-30.51
	c0.771-1.655-1.618-7.813-3.543-10.596s-1.154-10.295,0-12.473c1.154-2.179-1.154-9.707-1.154-9.707s2.232-14.559,2.157-16.834
	s1.925-8.94,1.925-8.94s2.001-3.456,1.537-4.508s1.536-3.775,1.003-4.961c-0.534-1.187,0.458-4.886,1.461-7.064
	c0.513-1.116,1.149-4.189,1.618-6.924c0.054-0.302,0.107-0.604,0.156-0.9c2.243,1.418,4.314,2.475,5.047,2.189
	c1.375-0.539-0.814-7.549-2.313-11.917c0.26-0.194,0.367-0.34,0.26-0.405c-0.923-0.604,0.102-3.311,0.102-3.311
	c5.441-3.203,3.592-5.607,1.851-7.01c-1.742-1.402-0.615-5.392-1.133-7.01c-0.518-1.618,0.62-8.914,1.542-14.225
	c0.191-1.154,0.183-2.333-0.026-3.484c0.986-1.504,2.005-3.079,2.9-4.535c3.074-5.009,9.642-28.854,9.642-28.854l-0.043-0.124
	c0.642-1.267,1.121-2.297,1.381-2.982C690.729,347.328,687.035,331.69,686.42,328.072z M638.601,314.343l0.141-0.064
	c0,0.038,0,0.076,0,0.113L638.601,314.343z M540.547,439.984L540.547,439.984L540.547,439.984z M608.743,570.129
	c-0.335,0.002-0.667-0.063-0.976-0.194L608.743,570.129z"/>
<path fill="#FEC2BE" d="M551.735,396.339c4.438,1.683,14.754,1.866,19.337,1.866c1.392,0,2.254,0,2.254,0l2.939-5.985l-2.939-4.988
	c0,0-2.695-0.744-6.276-1.391c-5.284-0.949-12.516-1.693-15.961,0.442C545.309,389.858,545.955,394.145,551.735,396.339z"/>
<path opacity="0.1" enable-background="new    " d="M571.067,398.205c1.391,0,2.254,0,2.254,0l2.938-5.985l-2.934-4.988
	c0,0-2.695-0.744-6.276-1.391C569.956,387.976,576.945,392.624,571.067,398.205z"/>
<path fill="#4C4981" d="M619.744,324.745l-1.295-1.499c0,0-6.681,10.569-7.382,14.559s-1.618,8.574-1.618,8.574
	s-1.692,5.188-2.793,7.479c-1.1,2.292-2.092,4.486-2.188,5.484c-0.098,0.998,0.398,3.192-1.699,4.588
	c-2.098,1.397-2.588,5.188-2.588,5.188s-7.582,7.377-11.572,7.549c-3.99,0.173-15.454,2.195-15.056,4.19
	c0.399,1.995-4.783,3.187-6.881,3.688s13.481,6.471,4.39,14.16c0,0,5.78,1.197,6.38,2.588c0.598,1.391,6.681-0.792,6.681-0.792
	s1.3-3.095,5.786-3.295c4.486-0.199,6.777-2.195,6.777-2.491c0-0.297,4.487-2.793,7.011-3.489c2.523-0.696,5.78-0.998,5.883-1.699
	s14.958-64.811,14.958-64.811L619.744,324.745z"/>
<path opacity="0.05" enable-background="new    " d="M619.744,324.745l-1.295-1.499c0,0-6.681,10.569-7.382,14.559
	s-1.618,8.574-1.618,8.574s-1.692,5.188-2.793,7.479c-1.1,2.292-2.092,4.486-2.188,5.484c-0.098,0.998,0.398,3.192-1.699,4.588
	c-2.098,1.397-2.588,5.188-2.588,5.188s-7.582,7.377-11.572,7.549c-3.99,0.173-15.454,2.195-15.056,4.19
	c0.399,1.995-4.783,3.187-6.881,3.688s13.481,6.471,4.39,14.16c0,0,5.78,1.197,6.38,2.588c0.598,1.391,6.681-0.792,6.681-0.792
	s1.3-3.095,5.786-3.295c4.486-0.199,6.777-2.195,6.777-2.491c0-0.297,4.487-2.793,7.011-3.489c2.523-0.696,5.78-0.998,5.883-1.699
	s14.958-64.811,14.958-64.811L619.744,324.745z"/>
<path fill="#CA8496" d="M635.273,601.453c13.163,2.47,15.557-7.631,15.557-7.631s1.645-8.973,2.243-9.646
	c0.151-0.258,0.188-0.565,0.104-0.852l0,0c-0.347-1.521-0.991-2.959-1.898-4.228c-0.819-0.972-0.151-5.01-0.151-5.01l-15.255-3.888
	c0,0-1.349,3.063-1.493,4.486c-0.146,1.424-2.395,7.852-2.157,8.752s-0.971,3.661-1.122,5.085c-0.15,1.423-2.017,3.516-2.156,4.26
	c-0.235,0.674-0.511,1.333-0.825,1.973c-0.405,0.984-0.729,2-0.971,3.037C626.376,600.93,635.273,601.453,635.273,601.453z"/>
<path opacity="0.1" enable-background="new    " d="M635.273,601.453c13.163,2.47,15.557-7.631,15.557-7.631
	s1.645-8.973,2.243-9.646c0.151-0.258,0.188-0.565,0.104-0.852l-3.171,9.08c0,0-2.615,5.457-12.338,4.638
	c-5.533-0.47-8.256-1.493-9.577-2.292c-0.405,0.984-0.729,2-0.971,3.036C626.376,600.93,635.273,601.453,635.273,601.453z"/>
<path opacity="0.1" enable-background="new    " d="M645.52,587.244c0,0-3.289,0.075-3.517-2.615L645.52,587.244z"/>
<polygon fill="#6C63FF" points="543.194,440.471 545.28,441.004 544.822,443.123 542.887,442.633 "/>
<polygon opacity="0.1" enable-background="new    " points="543.194,440.471 545.28,441.004 544.822,443.123 542.887,442.633 "/>
<rect x="604.591" y="342.219" transform="matrix(-0.2466 0.9691 -0.9691 -0.2466 1088.0413 -159.1808)" fill="#3A3768" width="2.61" height="2.249"/>
<rect x="597.332" y="337.764" transform="matrix(-0.2465 0.9691 -0.9691 -0.2465 1077.1759 -154.4744)" fill="#3A3768" width="2.61" height="7.458"/>
<rect x="602.219" y="341.426" transform="matrix(-0.2466 0.9691 -0.9691 -0.2466 1084.5032 -157.6295)" fill="#3A3768" width="2.61" height="2.636"/>
<path fill="#6C63FF" d="M595.457,338.981c-0.173,0.081-0.341,0.167-0.508,0.237l0.421,0.108l-0.646,2.529l-3.198-0.814
	c-0.492-1.165-0.369-2.499,0.329-3.554c0.609-0.982,1.576-1.69,2.696-1.974c0.685-0.197,1.354-0.445,2-0.744L595.457,338.981z"/>
<path fill="#3A3768" d="M603.087,349.9l0.976,0.254c0.661,0.169,1.334-0.229,1.503-0.89c0.001-0.002,0.001-0.004,0.002-0.006
	l1.089-4.357l-2.156-0.54L603.087,349.9z"/>
<path fill="#3A3768" d="M602.343,328.245c-0.744,2.912-2.906,5.182-5.829,6.524l3.828-15.044
	C602.283,322.308,603.098,325.333,602.343,328.245z"/>
<path fill="#3A3768" d="M601.729,349.556c-0.659-0.169-1.058-0.84-0.891-1.5l1.111-4.362l-7.226-1.839l-22.039,86.569
	c3.316,6.455,1.302,14.369-4.696,18.452l-0.513,2.018l9.776,2.507l25.835-101.479L601.729,349.556z"/>
<path fill="#3A3768" d="M600.838,348.056c-0.167,0.66,0.231,1.33,0.891,1.5l1.358,0.345l1.413-5.554l-2.551-0.653L600.838,348.056z"
	/>
<path fill="#6C63FF" d="M591.85,337.487c0.612-0.979,1.577-1.686,2.695-1.974c0.683-0.198,1.35-0.447,1.996-0.744l3.833-15.044
	c-2.399-3.048-5.763-5.193-9.539-6.083c-7.91-2.017-15.578,1.256-17.115,7.307c-0.728,2.853,0.038,5.813,1.877,8.358
	c0.704,0.965,1.524,1.84,2.442,2.604l0.038,0.119c1.066,1.726,0.878,3.946-0.464,5.468l-48.348-12.311l-10.908,42.858
	c3.586-2.905,8.322-3.97,12.807-2.88c8.147,2.076,12.941,10.866,10.709,19.628c-2.232,8.762-10.623,14.192-18.771,12.144
	c-4.476-1.18-8.142-4.386-9.906-8.666l-11.199,43.979l42.825,10.898c-2.814-3.573-3.825-8.244-2.739-12.662
	c2.076-8.142,10.86-12.941,19.629-10.708c4.734,1.159,8.737,4.312,10.973,8.644l22.039-86.569l-3.166-0.814
	C591.055,339.882,591.163,338.548,591.85,337.487z"/>
<path fill="#6C63FF" d="M595.365,339.326l0.092-0.345c-0.168,0.081-0.335,0.167-0.508,0.243L595.365,339.326z"/>
<g opacity="0.1">
	<path d="M605.142,341.817l-2.551-0.652l-7.221-1.839l0,0l0.092-0.345l0,0l1.079-4.211c-0.647,0.299-1.316,0.547-2.001,0.744
		c-1.12,0.284-2.088,0.991-2.696,1.974c-0.158,0.271-0.292,0.557-0.399,0.852c0.105-0.295,0.237-0.581,0.395-0.852
		c0.611-0.979,1.577-1.686,2.696-1.974c0.682-0.198,1.349-0.447,1.994-0.744l3.834-15.044c-2.399-3.048-5.762-5.193-9.538-6.083
		c-7.911-2.017-15.579,1.256-17.116,7.307c-0.728,2.853,0.038,5.813,1.877,8.358c0.704,0.965,1.524,1.84,2.442,2.604l0.038,0.119
		c1.067,1.726,0.879,3.946-0.464,5.468l-48.348-12.311l-10.908,42.858c3.589-2.908,8.329-3.973,12.817-2.88
		c8.147,2.076,12.941,10.866,10.709,19.628c-2.232,8.762-10.623,14.192-18.771,12.144c-4.476-1.18-8.142-4.386-9.906-8.666
		l-11.199,43.979l42.825,10.898c-2.814-3.573-3.825-8.244-2.739-12.662c2.076-8.142,10.86-12.941,19.629-10.708
		c4.734,1.159,8.737,4.312,10.973,8.644c3.316,6.455,1.302,14.369-4.696,18.452l-0.513,2.018l9.776,2.507l25.835-101.479
		l0.976,0.254c0.661,0.169,1.334-0.229,1.503-0.89c0.001-0.002,0.001-0.003,0.002-0.006l1.089-4.378l0.643-2.529L605.142,341.817z
		 M595.197,339.121c-0.081,0.038-0.161,0.081-0.242,0.113l0,0L595.197,339.121z M591.531,341.057L591.531,341.057l3.197,0.814l0,0
		L591.531,341.057z"/>
	<path d="M602.343,328.245c0.738-2.912-0.075-5.932-2.001-8.52l-3.828,15.044C599.452,333.427,601.615,331.151,602.343,328.245z"/>
</g>
<rect x="605.12" y="340.134" transform="matrix(-0.2466 0.9691 -0.9691 -0.2466 1086.6805 -162.2928)" fill="#3A3768" width="2.61" height="2.249"/>
<rect x="597.861" y="335.679" transform="matrix(-0.2465 0.9691 -0.9691 -0.2465 1075.8152 -157.5863)" fill="#3A3768" width="2.61" height="7.458"/>
<rect x="602.75" y="339.329" transform="matrix(-0.2466 0.9691 -0.9691 -0.2466 1083.1339 -160.7563)" fill="#3A3768" width="2.61" height="2.637"/>
<path fill="#6C63FF" d="M595.99,336.889l-0.507,0.243l0.415,0.102l-0.642,2.545l-3.197-0.814c-0.5-1.163-0.379-2.5,0.323-3.553
	c0.611-0.98,1.577-1.688,2.696-1.974c0.683-0.197,1.351-0.446,1.995-0.744L595.99,336.889z"/>
<path fill="#3A3768" d="M603.615,347.814l0.981,0.248c0.658,0.178,1.336-0.212,1.515-0.87c0.002-0.008,0.004-0.017,0.006-0.025
	l1.111-4.357l-2.157-0.539L603.615,347.814z"/>
<path fill="#3A3768" d="M602.882,326.158c-0.739,2.906-2.901,5.177-5.829,6.519l3.834-15.044
	C602.817,320.216,603.632,323.241,602.882,326.158z"/>
<path fill="#3A3768" d="M602.262,347.469c-0.66-0.169-1.06-0.842-0.891-1.502c0-0.001,0-0.001,0.001-0.002l1.078-4.357l-7.193-1.828
	l-22.033,86.558c3.323,6.452,1.308,14.37-4.696,18.447l-0.513,2.017l9.782,2.491l25.829-101.478L602.262,347.469z"/>
<path fill="#3A3768" d="M601.372,345.964c-0.17,0.66,0.227,1.333,0.888,1.504c0.001,0,0.001,0,0.002,0l1.354,0.345l1.424-5.56
	l-2.557-0.647L601.372,345.964z"/>
<path fill="#6C63FF" d="M592.383,335.395c0.611-0.98,1.577-1.688,2.696-1.974c0.683-0.197,1.351-0.445,1.995-0.744l3.828-15.044
	c-2.397-3.048-5.759-5.192-9.533-6.083c-7.916-2.011-15.578,1.256-17.12,7.312c-0.723,2.847,0.038,5.808,1.882,8.353
	c0.704,0.967,1.524,1.844,2.442,2.61l0.038,0.113c1.063,1.727,0.875,3.945-0.464,5.468l-48.354-12.305l-10.925,42.853
	c3.593-2.913,8.342-3.976,12.834-2.875c8.143,2.071,12.941,10.86,10.709,19.628s-10.628,14.188-18.798,12.117
	c-4.47-1.188-8.128-4.395-9.89-8.671l-11.194,43.979l42.821,10.903c-2.813-3.573-3.822-8.244-2.734-12.661
	c2.07-8.147,10.86-12.941,19.628-10.709c4.745,1.16,8.751,4.324,10.979,8.671l22.033-86.558l-3.197-0.814
	C591.56,337.796,591.681,336.455,592.383,335.395z"/>
<path fill="#6C63FF" d="M595.898,337.239l0.087-0.351c-0.167,0.081-0.335,0.167-0.502,0.243L595.898,337.239z"/>
<path fill="#CEDDF9" d="M588.322,498.853c1.618,2.465,3.517,13.238,3.517,13.238s1.272,2.465,1.196,4.562
	c-0.075,2.099,1.197,5.932,1.197,5.932l4.19,15.482c0,0-0.453,4.114,1.121,7.01c1.575,2.896,1.418,2.017,0.675,7.102
	c-0.745,5.085,0.895,9.798,3.585,11.324c2.691,1.526-1.196,5.009-1.196,5.009s17.201,4.638,20.792,1.796
	c3.592-2.842-1.871-16.905-1.871-16.905s0.9-11.814,0.303-13.534c-0.599-1.721-3.144-16.377-3.144-16.377s-1.569-6.659-0.972-7.781
	c0.599-1.121-0.372-4.313-0.372-4.313s-2.545-3.591-2.318-4.713c0.227-1.121-0.75-3.139-0.75-3.139s7.614-11.701,6.94-13.896
	s0.296-5.684,0.296-5.684l2.125-3.635c1.418-2.426,3.133-5.333,3.71-6.238c0.733-1.154,2.502-6.062,3.489-8.893l0.701-2.027
	c0,0,1.197,21.99,2.242,24.233c1.047,2.243,2.616,19.951,2.616,19.951c0.581,1.577,0.836,3.256,0.749,4.935
	c-0.151,2.766,2.395,14.807,2.395,14.807s1.122,8.525,0.372,10.785s-0.151,18.776-0.151,18.776s-4.114,3.235-5.16,5.684
	c-1.046,2.447,0.15,9.167,0.15,9.167s11.966,5.984,17.256,4.416c5.29-1.569,3.139-10.623,3.139-10.623s3.591-5.979,3.591-8.299
	c0-2.318,1.306-9.398,1.306-9.398c4.562-8.375,2.766-28.715,3.516-30.359c0.749-1.645-1.574-7.781-3.44-10.548
	c-1.866-2.766-1.121-10.245,0-12.402c1.122-2.156-1.154-9.657-1.154-9.657s2.157-14.511,2.093-16.754
	c-0.065-2.243,1.87-8.897,1.87-8.897s1.942-3.44,1.494-4.491c-0.447-1.052,1.494-3.737,0.971-4.935
	c-0.522-1.197,0.453-4.854,1.424-7.01c0.496-1.111,1.116-4.174,1.618-6.886c0.458-2.583,0.798-4.854,0.798-4.854l-12.343-9.949
	l-30.813-8.088l-11.588-3.737l-11.297,17.794c-0.799,1.298-1.531,2.635-2.195,4.007c-0.89,1.849-1.682,3.909-1.542,5.192
	c0.188,1.62-0.181,3.255-1.046,4.638c0,0-6.735,21.311-6.584,27.446c0.15,6.137-2.395,19.591-2.395,19.591
	S586.662,496.378,588.322,498.853z"/>
<path fill="#FEC2BE" d="M633.866,325.489c0.475-0.194,33.007-13.631,28.525-16.301c-2.658-1.585-5.932-8.304-8.175-13.562
	c-1.563-3.672-2.626-6.633-2.626-6.633s-26.109-4.637-16.765,11.367c1.473,2.455,2.583,5.11,3.295,7.883
	C640.784,319.148,634.082,325.29,633.866,325.489z"/>
<path opacity="0.1" enable-background="new    " d="M634.826,300.361c1.473,2.455,2.582,5.11,3.294,7.883
	c6.752-0.47,12.688-4.641,15.417-10.833c0.26-0.582,0.486-1.178,0.68-1.785c-1.563-3.672-2.626-6.633-2.626-6.633
	S625.481,284.357,634.826,300.361z"/>
<path fill="#FEC2BE" d="M618.596,289.442c0.003,10.075,8.174,18.239,18.248,18.235c10.075-0.003,18.239-8.174,18.235-18.249
	c-0.003-10.075-8.174-18.239-18.248-18.236c-8.129,0.003-15.275,5.384-17.524,13.196
	C618.834,286.032,618.595,287.732,618.596,289.442z"/>
<path opacity="0.1" enable-background="new    " d="M600.994,430.834c1.909,1.736,2.643,5.042,2.643,5.042s8.979,6.131,8.38,2.243
	s4.638-19.596,4.638-19.596l-0.6,21.392c0,0,28.715-1.349,30.813-3.44s14.359-6.104,14.359-6.104s3.775,3.015,7.205,5.301
	c0.458-2.583,0.798-4.853,0.798-4.853l-12.343-9.949l-30.813-8.089l-11.588-3.736l-11.297,17.794
	C602.391,428.133,601.658,429.466,600.994,430.834z"/>
<path fill="#FFFFFF" d="M600.051,429.146c2.395,1.493,3.289,5.532,3.289,5.532s8.974,6.131,8.375,2.243s4.638-19.596,4.638-19.596
	l-0.6,21.392c0,0,28.72-1.338,30.807-3.44s14.36-6.131,14.36-6.131s10.622,8.525,12.563,7.775s-3.44-15.255-3.44-15.255
	l-5.527-84.956c0,0,1.494-25.279-0.749-26.18c-0.346-0.14-0.665-0.339-0.943-0.588c-1.478-1.327-1.92-4.023-2.049-6.288
	c-0.146-2.696-3.737-1.348-3.737-1.348l2.093,2.696l-18.534,11.27l-0.161,0.097c-0.723-0.38-1.466-0.717-2.228-1.008
	c-1.618-0.631-3.823-1.224-5.252-0.636c-0.799,0.406-1.476,1.016-1.963,1.769c-1.057,1.588-1.905,3.307-2.523,5.112l-6.714,11.362
	c0,0-3.44,15.099-3.44,15.708c0,0.61-1.046,14.36-2.243,15.854c-1.197,1.493-2.394,8.973-1.946,11.216s-0.75,10.623-0.75,10.623
	c-4.934,4.039-7.474,17.794-7.474,17.794s-7.797,15.422-8.412,17.202C596.875,423.145,597.657,427.674,600.051,429.146z"/>
<path opacity="0.1" enable-background="new    " d="M640.596,316.867c1.817,2.696,7.069,6.471,7.069,6.471l15.158-12.807
	c-1.478-1.327-1.92-4.022-2.049-6.293c-0.146-2.696-3.737-1.343-3.737-1.343l0.437,0.539c0.817,1.055,0.625,2.572-0.43,3.39
	c-0.071,0.055-0.146,0.106-0.223,0.153L640.596,316.867z"/>
<path fill="#FFFFFF" d="M640.596,316.269c1.817,2.696,7.069,6.471,7.069,6.471l15.158-12.807c-1.478-1.326-1.92-4.022-2.049-6.288
	c-0.146-2.696-3.737-1.348-3.737-1.348l0.437,0.54c0.816,1.051,0.625,2.566-0.427,3.382c-0.072,0.056-0.147,0.108-0.226,0.155
	L640.596,316.269z"/>
<path opacity="0.1" enable-background="new    " d="M633.586,318.285c1.957,2.341,4.734,4.999,4.605,3.667
	c-0.13-1.332,1.654-4.271,2.793-5.586c-1.777-0.563-3.692-0.51-5.436,0.151C634.749,316.921,634.071,317.531,633.586,318.285z"/>
<path fill="#FFFFFF" d="M633.289,317.385c1.958,2.346,4.729,4.999,4.6,3.672c-0.13-1.327,1.473-3.489,2.61-4.805
	c-1.618-0.631-3.818-1.224-5.252-0.631C634.448,316.024,633.772,316.633,633.289,317.385z"/>
<circle fill="#FF718D" cx="638.191" cy="328.633" r="1.197"/>
<circle fill="#FF718D" cx="629.115" cy="360.939" r="1.197"/>
<circle fill="#FF718D" cx="618.849" cy="393.649" r="1.197"/>
<circle fill="#FF718D" cx="618.547" cy="429.244" r="1.197"/>
<circle fill="#FF718D" cx="632.906" cy="343.888" r="1.197"/>
<circle fill="#FF718D" cx="624.829" cy="377.094" r="1.197"/>
<circle fill="#FF718D" cx="616.95" cy="409.701" r="1.197"/>
<circle fill="#FF718D" cx="618.746" cy="433.233" r="1.197"/>
<path opacity="0.1" enable-background="new    " d="M662.823,310.661c0,0-0.2-1.796,2.389,1.299
	c2.589,3.096,7.479,5.781,7.479,5.781s11.07,7.781,11.668,11.367c0.599,3.586,4.186,19.148,2.292,24.331
	c-1.893,5.182-16.365,30.019-16.365,30.019s3.774,4.492,2.896,9.776c-0.879,5.284-1.995,12.564-1.499,14.161
	c0.496,1.596-0.599,5.581,1.078,6.977c1.678,1.396,3.489,3.774-1.796,6.979c0,0-0.997,2.695-0.102,3.294
	c0.895,0.599-13.26,6.778-18.873,3.489c-5.614-3.29-15.638-29.615-15.854-35.498c-0.217-5.883,3.09-25.344,4.886-29.917
	c1.795-4.573,7.182-22.438,9.474-26.422S662.823,310.661,662.823,310.661z"/>
<path fill="#4C4981" d="M663.416,310.661c0,0-0.199-1.796,2.395,1.299c2.594,3.096,7.479,5.781,7.479,5.781
	s11.07,7.781,11.668,11.367c0.6,3.586,4.186,19.148,2.292,24.331c-1.893,5.182-16.354,30.019-16.354,30.019s3.774,4.492,2.896,9.776
	c-0.879,5.284-1.995,12.564-1.499,14.161c0.496,1.596-0.599,5.581,1.078,6.977c1.678,1.396,3.489,3.774-1.795,6.979
	c0,0-0.998,2.695-0.103,3.294c0.895,0.599-13.26,6.778-18.873,3.489c-5.614-3.29-15.639-29.615-15.854-35.498
	c-0.215-5.883,3.091-25.344,4.886-29.917c1.796-4.573,7.183-22.438,9.475-26.422C653.396,332.311,663.416,310.661,663.416,310.661z"
	/>
<path opacity="0.1" enable-background="new    " d="M667.406,327.636c0,0-8.574,9.474-8.276,15.756
	C659.13,343.392,659.032,333.217,667.406,327.636z"/>
<path opacity="0.1" enable-background="new    " d="M655.543,343.192c0,0.297-5.786,21.834-5.483,24.53
	c0.302,2.696-1.699,10.666-1.699,10.666l-2.696-0.696c0,0,2.093-11.07,2.492-15.158
	C648.555,358.447,655.543,343.192,655.543,343.192z"/>
<path opacity="0.1" enable-background="new    " d="M653.246,404.617c0.2,0.296,13.664,15.551,9.873,16.651
	C659.328,422.368,653.246,404.617,653.246,404.617z"/>
<path opacity="0.1" enable-background="new    " d="M664.316,400.712c0.297,0.2,5.393,10.968,5.98,8.088
	c0.588-2.879-4.384,7.879-5.182-0.097L664.316,400.712z"/>
<path opacity="0.1" enable-background="new    " d="M638.471,314.074c0,0-5.559-3.392-12.542,5.285c0,0-5.085,2.89-6.579,3.591
	c-1.493,0.701-3.191,19.245-3.191,19.245s-3.289,7.975-2.395,12.564c0.895,4.588-2.589,20.339-2.589,20.339
	s-5.791,28.31-5.597,29.119c0.194,0.809,5.883-8.875,5.786-13.664c-0.098-4.788,4.782-19.741,5.483-20.642
	c0.701-0.901,5.484-26.52,5.484-26.52s3.888-10.871,6.379-14.462s5.586-10.369,6.881-11.566c0.932-0.806,1.972-1.478,3.09-1.995
	L638.471,314.074z"/>
<path fill="#4C4981" d="M638.541,314.074c0,0-6.233-3.392-13.211,5.285c0,0-5.09,2.89-6.584,3.591
	c-1.493,0.701-3.192,19.245-3.192,19.245s-3.289,7.975-2.394,12.564c0.895,4.588-2.589,20.339-2.589,20.339
	s-5.786,28.321-5.586,29.119c0.199,0.798,5.883-8.875,5.785-13.664c-0.097-4.788,4.783-19.741,5.484-20.642
	c0.7-0.901,5.5-26.52,5.5-26.52s3.888-10.871,6.379-14.462s5.587-10.369,6.881-11.566s3.688-1.995,3.688-1.995L638.541,314.074z"/>
<path fill="#FEC2BE" d="M611.17,376.393c0,0-11.863-7.776-17.601-3.937s-15.099,9.275-5.883,13.211
	c9.215,3.937,21.984,3.181,21.984,3.181L611.17,376.393z"/>
<path opacity="0.1" enable-background="new    " d="M619.42,451.433c1.769,3.775,3.235,22.853,4.217,28.897
	c1.418-2.426,3.133-5.333,3.71-6.238c0.733-1.154,2.502-6.062,3.489-8.893c-1.127-2.739-4.238-10.59-4.238-13.48
	c0-3.516-5.684-7.927-5.684-7.927S617.328,446.946,619.42,451.433z"/>
<path opacity="0.1" enable-background="new    " d="M657.561,509.988c0,0-13.163-5.608-17.051-1.618
	S657.561,509.988,657.561,509.988z"/>
<path opacity="0.1" enable-background="new    " d="M650.156,512.231c0,0,13.314,7.479,8.752,8.729
	C654.347,522.213,650.156,512.231,650.156,512.231z"/>
<path opacity="0.1" enable-background="new    " d="M610.372,505.729c0,0,5.683,0.372,3.516,1.493
	C611.72,508.344,610.372,505.729,610.372,505.729z"/>
<path opacity="0.1" enable-background="new    " d="M603.265,507.448c0.076,0.372,16.527,5.684,13.313,8.089
	C613.365,517.942,603.265,507.448,603.265,507.448z"/>
<path opacity="0.1" enable-background="new    " d="M655.613,553.219c-2.464-0.378-16.226-6.735-10.844-2.157
	S655.613,553.219,655.613,553.219z"/>
<path opacity="0.1" enable-background="new    " d="M648.809,558.229c0,0-1.197,4.637-5.759,4.038
	C638.487,561.668,648.809,558.229,648.809,558.229z"/>
<path opacity="0.1" enable-background="new    " d="M652.626,567.648c-0.825-0.222-10.623-4.707-10.844-2.615
	s9.345,5.759,10.095,4.638C652.307,569.077,652.565,568.378,652.626,567.648z"/>
<path opacity="0.1" enable-background="new    " d="M620.914,562.267c-1.197-0.075-12.402-3.667-14.657-0.453L620.914,562.267z"/>
<path opacity="0.1" enable-background="new    " d="M610.744,564.359c0,0-1.946-1.721-3.888-0.825S610.744,564.359,610.744,564.359z
	"/>
<path opacity="0.1" enable-background="new    " d="M635.575,582.908c-0.257,1.299-1.254,2.323-2.545,2.616L635.575,582.908z"/>
<path fill="#CA8496" d="M578.509,589.935c0.749,3.068,11.222,3.365,16.23,2.545c5.01-0.819,15.406-3.817,15.406-3.817
	s10.919-1.046,14.133-2.389c3.215-1.343,0.674-4.788,0.674-4.788s0-0.119,0-0.323c0.076-1.252,0.303-5.786-0.469-7.011
	c-0.895-1.424-0.372-6.061-0.372-6.061s-15.481,2.992-15.783,1.574s-2.696-3.44-3.813-3.888s-1.946,3.736-1.946,3.736
	s-7.011,5.985-7.479,8.153c-0.47,2.168-5.393,3.289-5.393,3.289s-7.479,2.093-9.426,3.139c-1.148,0.54-1.931,1.644-2.06,2.906
	C578.13,587.989,578.23,588.983,578.509,589.935z"/>
<path opacity="0.1" enable-background="new    " d="M578.509,589.935c0.749,3.068,11.222,3.365,16.23,2.545
	c5.01-0.819,15.406-3.817,15.406-3.817s10.919-1.046,14.133-2.389c3.215-1.343,0.674-4.788,0.674-4.788s0-0.119,0-0.323
	l-15.638,3.467c0,0-7.705,3.289-12.639,3.289c-4.314,0-13.967,1.764-18.442-0.911C578.146,587.991,578.238,588.983,578.509,589.935z
	"/>
<path opacity="0.1" enable-background="new    " d="M599.673,578.12c0,0,0.75,4.935,3.743,6.579L599.673,578.12z"/>
<path opacity="0.1" enable-background="new    " d="M619.307,284.389c0.285,0.151,0.583,0.275,0.891,0.372
	c1.401,0.377,2.771-0.572,4.017-1.327s2.966-1.315,4.045-0.334c1.406,1.278,0.388,4.006,1.839,5.241
	c0.916,0.782,2.372,0.512,3.391,1.154c1.02,0.642,1.327,2.049,1.586,3.262c0.259,1.213,0.776,2.599,1.963,2.955
	c1.186,0.356,2.291-0.426,3.462-0.383c0.242,0,0.539,0.038,0.69-0.135c0.106-0.158,0.147-0.352,0.112-0.539
	c-0.146-1.449-0.016-2.913,0.383-4.314c0.48-1.38,1.618-2.626,3.042-2.847c2.098-0.323,3.86,1.515,5.096,3.235
	c1.298,1.821,2.479,3.724,3.537,5.694c0.067,0.127,0.127,0.259,0.178,0.394c4.08-9.215-0.083-19.993-9.299-24.072
	c-9.215-4.08-19.992,0.083-24.072,9.299c-0.341,0.77-0.628,1.562-0.859,2.371V284.389z"/>
<path fill="#9A5E7F" d="M649.822,290.429c-1.235-1.736-2.998-3.57-5.102-3.236c-1.439,0.221-2.55,1.467-3.036,2.842
	c-0.399,1.401-0.527,2.865-0.377,4.314c0.03,0.188-0.013,0.381-0.118,0.539c-0.167,0.178-0.448,0.151-0.69,0.141
	c-1.171-0.043-2.335,0.717-3.462,0.383s-1.704-1.742-1.963-2.955s-0.539-2.599-1.586-3.262c-1.046-0.664-2.475-0.373-3.392-1.16
	c-1.45-1.229-0.426-3.963-1.838-5.241c-1.079-0.976-2.799-0.415-4.045,0.34s-2.615,1.698-4.022,1.321
	c-0.475-0.13-0.901-0.399-1.364-0.577c-2.217-0.847-5.091,0.587-6.913-0.933c-0.661-0.662-1.138-1.485-1.38-2.389
	c-0.501-1.222-0.84-2.503-1.009-3.813c-0.161-1.323,0.203-2.657,1.014-3.715c1.187-1.396,3.192-1.747,4.707-2.777
	c1.289-0.884,2.157-2.227,3.009-3.548c0.853-1.321,1.678-2.696,2.923-3.629c1.246-0.933,2.993-1.396,4.385-0.69
	c0.438,0.307,0.925,0.538,1.439,0.685c0.561,0.007,1.112-0.144,1.59-0.437c5.188-2.442,11.228-2.011,16.916-1.283
	c2.275,0.291,4.584,0.631,6.66,1.618s3.909,2.696,4.492,4.917c0.463,1.758,0.107,3.673,0.668,5.393
	c0.377,1.176,1.154,2.157,1.617,3.338c1.214,3.154-0.236,6.617-0.852,9.938c-0.668,3.629-0.334,7.549-1.876,10.99
	c-0.303,0.674-0.643,1.855-1.402,1.413c-0.539-0.329-1.111-2.243-1.435-2.842C652.317,294.144,651.129,292.245,649.822,290.429z"/>
<path opacity="0.1" enable-background="new    " d="M682.688,348.876l2.696,7.679c0,0-6.385,23.727-9.377,28.714
	c-2.993,4.988-7.378,11.367-7.378,11.367s-7.376,3.694-15.955,1.995c-8.579-1.698-33.616-6.179-33.616-6.179
	s-2.098,0.399-3.192-1.197s-6.794-2.405-6.794-2.405s-6.578-9.571,1.499-13.562c0,0,0.998,2.195,5.285,0.701
	c4.286-1.494,5.58,1.192,5.58,1.192s7.011,1.396,10.871,0.9c3.861-0.496,13.562-0.701,14.56-1.5
	c0.526-0.461,1.325-0.416,1.796,0.103c0,0,2.389-0.896,3.187-1.796s1.898,0.998,1.898,0.998s1.396-0.798,0.997-1.795
	c-0.398-0.998,1.294-4.783,1.294-4.783s0.799-2.497,0.303-4.492c-0.497-1.995,2.49-9.167,2.49-9.167
	c0.039-1.21-0.095-2.419-0.398-3.591c-0.502-1.791,3.775-5.393,3.775-5.393s4.184-20.345,13.06-13.664
	S682.688,348.876,682.688,348.876z"/>
<path fill="#4C4981" d="M683.26,348.876l2.696,7.679c0,0-6.385,23.727-9.377,28.714c-2.993,4.988-7.372,11.367-7.372,11.367
	s-7.376,3.693-15.955,1.995c-8.58-1.698-33.605-6.179-33.605-6.179s-2.092,0.399-3.187-1.197s-6.789-2.405-6.789-2.405
	s-6.578-9.571,1.499-13.562c0,0,0.998,2.195,5.284,0.701c4.287-1.494,5.581,1.192,5.581,1.192s7.011,1.396,10.871,0.9
	c3.861-0.496,13.562-0.701,14.56-1.5c0.526-0.461,1.325-0.416,1.795,0.103c0,0,2.39-0.896,3.188-1.796s1.898,0.998,1.898,0.998
	s1.396-0.798,0.997-1.795c-0.399-0.998,1.295-4.783,1.295-4.783s0.797-2.497,0.296-4.492s2.497-9.167,2.497-9.167
	c0.039-1.21-0.096-2.419-0.399-3.591c-0.501-1.791,3.774-5.393,3.774-5.393s4.185-20.345,13.061-13.664
	S683.26,348.876,683.26,348.876z"/>
<path opacity="0.1" enable-background="new    " d="M618.449,380.982c0.098,0.701,2.292,3.489,1.494,3.99s-2.093,0.2-0.896,1.796
	s1.079,3.985,0.297,3.688c-0.782-0.296-2.092-3.888-2.092-5.284S618.449,380.982,618.449,380.982z"/>
<path opacity="0.1" enable-background="new    " d="M648.064,379.386c0,0,0.599,6.983,5.505,8.979
	C658.477,390.359,648.064,379.386,648.064,379.386z"/>
<path opacity="0.1" enable-background="new    " d="M658.234,376.986c0.297,0.103,6.978,3.694,3.99,5.786
	C659.237,384.865,658.234,376.986,658.234,376.986z"/>
<path opacity="0.1" enable-background="new    " d="M658.634,372.009c0,0,9.771,1.996,6.471,3.689
	C661.804,377.391,658.634,372.009,658.634,372.009z"/>
<g opacity="0.1">
	<path d="M641.707,288.325c0.485-1.375,1.617-2.62,3.035-2.841c2.104-0.324,3.866,1.515,5.102,3.235
		c1.299,1.822,2.479,3.723,3.537,5.694c0.323,0.598,0.874,2.507,1.435,2.836c0.76,0.447,1.079-0.733,1.402-1.408
		c1.542-3.429,1.208-7.36,1.876-10.989c0.394-2.12,1.121-4.314,1.284-6.417c0.231,2.61-0.794,5.354-1.284,8.008
		c-0.668,3.629-0.334,7.549-1.876,10.995c-0.303,0.674-0.643,1.855-1.402,1.408c-0.539-0.329-1.111-2.238-1.435-2.836
		c-1.058-1.971-2.238-3.873-3.537-5.694c-1.235-1.731-2.998-3.57-5.102-3.235c-1.439,0.221-2.55,1.467-3.035,2.841
		c-0.241,0.725-0.375,1.48-0.399,2.244C641.201,290.872,641.336,289.569,641.707,288.325z"/>
	<path d="M610.534,278.846c0.241,0.906,0.718,1.731,1.38,2.395c1.822,1.521,4.696,0.086,6.913,0.933
		c0.463,0.173,0.89,0.447,1.364,0.577c1.407,0.372,2.782-0.572,4.022-1.327s2.972-1.311,4.045-0.334
		c1.412,1.278,0.388,4.007,1.839,5.242c0.916,0.782,2.372,0.539,3.391,1.159c1.02,0.62,1.327,2.043,1.586,3.235
		s0.771,2.599,1.963,2.955c1.191,0.355,2.291-0.421,3.462-0.377c0.242,0,0.539,0.038,0.69-0.14c0.035-0.045,0.063-0.097,0.08-0.151
		c0,0.405,0,0.804,0.038,1.203c0.029,0.188-0.013,0.381-0.118,0.539c-0.167,0.173-0.448,0.146-0.69,0.135
		c-1.171-0.038-2.335,0.717-3.462,0.383c-1.127-0.334-1.704-1.736-1.963-2.955s-0.539-2.599-1.586-3.235
		c-1.046-0.636-2.475-0.377-3.391-1.16c-1.451-1.235-0.427-3.969-1.839-5.241c-1.079-0.981-2.799-0.42-4.045,0.334
		s-2.615,1.699-4.022,1.327c-0.475-0.13-0.9-0.404-1.364-0.577c-2.217-0.847-5.091,0.587-6.913-0.933
		c-0.661-0.664-1.138-1.489-1.38-2.394c-0.5-1.22-0.839-2.5-1.009-3.807c-0.038-0.445-0.027-0.894,0.032-1.337
		C609.745,276.51,610.073,277.703,610.534,278.846z"/>
</g>
<path fill="#6C63FF" d="M267.985,580.406c0,0-22.798-1.375-20.113,14.598c0,0-0.539,2.825,2.028,4.108c0,0,0.038-1.186,2.34-0.787
	c0.817,0.137,1.648,0.179,2.475,0.124c1.118-0.077,2.18-0.517,3.025-1.251l0,0c0,0,6.412-2.647,8.903-13.125
	c0,0,1.844-2.28,1.769-2.869l-3.845,1.618c0,0,1.316,2.777,0.28,5.085c0,0-0.124-4.982-0.863-4.853c-0.151,0-2,0.959-2,0.959
	s2.265,4.854,0.539,8.353c0,0,0.647-5.958-1.262-8.002l-2.696,1.58c0,0,2.642,4.994,0.852,9.07c0,0,0.458-6.25-1.424-8.682
	l-2.454,1.914c0,0,2.486,4.918,0.971,8.299c0,0-0.2-7.274-1.499-7.824c0,0-2.157,1.893-2.475,2.696c0,0,1.698,3.575,0.642,5.462
	c0,0-0.647-4.853-1.175-4.853c0,0-2.157,3.208-2.362,5.392c0,0,0.092-3.272,1.845-5.721c-1.234,0.234-2.372,0.824-3.273,1.698
	c0,0,0.329-2.27,3.802-2.47c0,0,1.769-2.437,2.238-2.583c0,0-3.451-0.291-5.543,0.637c0,0,1.844-2.156,6.18-1.165l2.421-1.979
	c0,0-4.545-0.62-6.471,0.064c0,0,2.216-1.893,7.124-0.512l2.637-1.581c0,0-3.872-0.835-6.18-0.539c0,0,2.432-1.31,6.956,0.113
	l1.882-0.846c0,0-2.836-0.54-3.667-0.647c-0.831-0.108-0.879-0.318-0.879-0.318c1.798-0.3,3.645-0.095,5.333,0.593
	C264.044,582.164,268.05,580.654,267.985,580.406z"/>
<ellipse opacity="0.1" fill="#6C63FF" enable-background="new    " cx="252.283" cy="600.504" rx="16.134" ry="2.729"/>
<path fill="#6C63FF" d="M311.696,538.309c0,0-12.855-0.776-11.324,8.234c-0.159,0.937,0.302,1.87,1.143,2.313
	c0,0,0-0.669,1.321-0.442c0.461,0.074,0.93,0.099,1.396,0.07c0.629-0.048,1.226-0.295,1.704-0.707l0,0c0,0,3.602-1.472,5.025-7.403
	c0,0,1.041-1.289,0.998-1.618l-2.157,0.922c0,0,0.739,1.569,0.156,2.869c0,0-0.07-2.81-0.485-2.744
	c-0.086,0-1.127,0.539-1.127,0.539s1.273,2.696,0.313,4.707c0,0,0.361-3.359-0.712-4.514l-1.537,0.917c0,0,1.488,2.814,0.48,5.112
	c0,0,0.259-3.526-0.804-4.896l-1.38,1.079c0,0,1.396,2.776,0.539,4.68c0,0-0.113-4.104-0.847-4.41
	c-0.523,0.443-0.992,0.948-1.396,1.504c0,0,0.96,2.017,0.367,3.079c0,0-0.367-2.734-0.663-2.744c0,0-1.208,1.806-1.332,3.052
	c0.056-1.15,0.413-2.267,1.035-3.235c-0.694,0.135-1.335,0.468-1.844,0.959c0,0,0.188-1.283,2.157-1.391
	c0,0,0.992-1.375,1.262-1.456c0,0-1.947-0.167-3.127,0.355c0,0,1.041-1.208,3.483-0.657l1.364-1.116c0,0-2.562-0.351-3.645,0.038
	c0,0,1.251-1.079,4.017-0.292l1.483-0.884c-1.143-0.253-2.314-0.354-3.483-0.303c0,0,1.375-0.743,3.92,0.06l1.079-0.474
	c0,0-1.618-0.318-2.065-0.367c-0.447-0.049-0.496-0.179-0.496-0.179c1.015-0.168,2.056-0.052,3.009,0.335
	C309.523,539.301,311.755,538.448,311.696,538.309z"/>
<ellipse opacity="0.1" fill="#6C63FF" enable-background="new    " cx="302.863" cy="549.638" rx="9.097" ry="1.537"/>
<path fill="#6C63FF" d="M235.853,546.127c0,0-15.519-0.938-13.669,9.938c-0.192,1.132,0.364,2.259,1.38,2.794c0,0,0-0.81,1.591-0.54
	c0.558,0.095,1.124,0.121,1.688,0.081c0.761-0.051,1.485-0.35,2.06-0.852l0,0c0,0,4.363-1.802,6.061-8.93
	c0,0,1.251-1.554,1.203-1.952l-2.659,1.121c0,0,0.89,1.888,0.189,3.457c0,0-0.086-3.387-0.588-3.306
	c-0.102,0-1.359,0.652-1.359,0.652s1.537,3.289,0.377,5.684c0,0,0.437-4.056-0.862-5.446l-1.839,1.078c0,0,1.795,3.397,0.577,6.169
	c0,0,0.313-4.254-0.965-5.932l-1.671,1.305c0,0,1.688,3.35,0.658,5.652c0,0-0.135-4.956-1.019-5.328c0,0-1.461,1.289-1.688,1.816
	c0,0,1.16,2.433,0.442,3.716c0,0-0.442-3.3-0.803-3.316c0,0-1.456,2.189-1.618,3.688c0.072-1.385,0.505-2.728,1.257-3.894
	c-0.841,0.158-1.618,0.56-2.232,1.154c0,0,0.226-1.547,2.594-1.682c0,0,1.202-1.656,1.521-1.759c0,0-2.346-0.199-3.775,0.432
	c0,0,1.256-1.456,4.206-0.793l1.65-1.348c0,0-3.095-0.421-4.406,0.048c0,0,1.51-1.294,4.853-0.35l1.795-1.079
	c0,0-2.636-0.571-4.206-0.366c0,0,1.655-0.896,4.734,0.075l1.283-0.577c0,0-1.93-0.377-2.497-0.437
	c-0.566-0.06-0.599-0.216-0.599-0.216c1.224-0.207,2.48-0.069,3.629,0.399C233.146,547.287,235.901,546.306,235.853,546.127z"/>
<ellipse opacity="0.1" fill="#6C63FF" enable-background="new    " cx="225.165" cy="559.808" rx="10.984" ry="1.855"/>
<ellipse opacity="0.1" fill="#6C63FF" enable-background="new    " cx="541.884" cy="627.341" rx="16.134" ry="2.729"/>
<path fill="#A8A8A8" d="M531.051,614.67c0,0,9.205-0.286,11.977-2.26s14.154-4.314,14.845-1.164
	c0.69,3.148,13.831,15.751,3.44,15.836c-10.391,0.087-24.142-1.617-26.913-3.305C531.628,622.089,531.051,614.67,531.051,614.67z"/>
<path opacity="0.2" enable-background="new    " d="M561.496,625.978c-10.392,0.086-24.142-1.618-26.908-3.301
	c-2.108-1.288-2.949-5.894-3.235-8.019h-0.308c0,0,0.583,7.421,3.349,9.108c2.767,1.688,16.522,3.387,26.913,3.306
	c2.998,0,4.033-1.079,3.98-2.696C564.877,625.362,563.729,625.961,561.496,625.978z"/>
</svg>
