<?xml version="1.0" encoding="utf-8"?>
<!-- Generator: Adobe Illustrator 16.0.0, SVG Export Plug-In . SVG Version: 6.00 Build 0)  -->
<!DOCTYPE svg PUBLIC "-//W3C//DTD SVG 1.1//EN" "http://www.w3.org/Graphics/SVG/1.1/DTD/svg11.dtd">
<svg version="1.1" id="bca70d0a-57dd-451b-a82c-bb6927f27458"
	 xmlns="http://www.w3.org/2000/svg" xmlns:xlink="http://www.w3.org/1999/xlink" x="0px" y="0px" width="536px" height="443px"
	 viewBox="131.841 102.004 536 443" enable-background="new 131.841 102.004 536 443" xml:space="preserve">
<title>We help businesses unique online experiences</title>
<polygon fill="#F2F2F2" points="228.4,120.575 195.272,185.191 201.96,185.191 201.96,237.883 168.257,237.883 148.841,275.753 
	389.423,399.099 468.983,243.921 "/>
<rect x="221.406" y="162.609" fill="#3F3D56" width="368.843" height="185.048"/>
<rect x="273.157" y="229.101" opacity="0.3" fill="#6C63FF" enable-background="new    " width="272.242" height="0.627"/>
<rect x="273.47" y="244.783" opacity="0.3" fill="#6C63FF" enable-background="new    " width="272.242" height="0.627"/>
<rect x="273.47" y="276.147" opacity="0.3" fill="#6C63FF" enable-background="new    " width="272.242" height="0.627"/>
<rect x="273.47" y="289.947" opacity="0.3" fill="#6C63FF" enable-background="new    " width="272.242" height="0.627"/>
<rect x="273.47" y="260.465" opacity="0.3" fill="#6C63FF" enable-background="new    " width="272.242" height="0.627"/>
<ellipse fill="#3F3D56" cx="504.311" cy="515.769" rx="116.675" ry="10.664"/>
<polygon fill="#6C63FF" points="281.023,290.402 280.158,289.494 320.681,250.87 356.402,276.564 385.29,244.538 397.956,255.305 
	432.412,234.63 470.686,260.355 530.754,226.188 531.374,227.277 470.63,261.83 432.374,236.117 397.829,256.843 385.405,246.282 
	356.582,278.238 320.792,252.496 "/>
<path fill="#3F3D56" d="M397.72,494.34c2.948,10.898,13.046,17.648,13.046,17.648s5.319-10.92,2.37-21.819
	c-2.947-10.897-13.046-17.647-13.046-17.647S394.771,483.442,397.72,494.34z"/>
<path fill="#6C63FF" d="M402.052,491.998c8.09,7.875,9.078,19.982,9.078,19.982s-12.128-0.663-20.218-8.538
	c-8.09-7.876-9.078-19.981-9.078-19.981S393.962,484.124,402.052,491.998z"/>
<circle opacity="0.4" fill="#6C63FF" enable-background="new    " cx="628.827" cy="154.14" r="21.014"/>
<circle opacity="0.4" fill="#6C63FF" enable-background="new    " cx="589.936" cy="164.177" r="14.741"/>
<circle opacity="0.4" fill="#6C63FF" enable-background="new    " cx="571.744" cy="434.536" r="7.841"/>
<circle opacity="0.4" fill="#6C63FF" enable-background="new    " cx="438.133" cy="475.31" r="5.959"/>
<circle opacity="0.4" fill="#6C63FF" enable-background="new    " cx="418.06" cy="396.271" r="7.841"/>
<circle fill="#6C63FF" cx="530.343" cy="229.415" r="8.155"/>
<path fill="#2F2E41" d="M477.358,377.119l-6.913,0.769c0,0-3.073,13.825,0,32.26c3.072,18.435,6.913,36.87,6.913,36.87
	s3.071,59.911,4.608,60.68c1.536,0.768,15.362,5.377,16.13,0.768c0.769-4.608,0.769-109.839,0.769-109.839l10.753,50.694
	c0,0,1.536,63.754,4.609,63.754c3.072,0,13.058-0.768,13.058-6.146c0-5.376,2.304-76.042,2.304-76.042s-0.768-52.232-3.84-53.768
	C522.676,375.583,477.358,377.119,477.358,377.119z"/>
<path fill="#2F2E41" d="M483.503,505.392c0,0-6.913-0.769-8.449,0s-3.841,6.146,0,9.218s13.826,7.681,16.898,7.681
	c2.131-0.094,4.22-0.616,6.145-1.536l-1.536-13.058L483.503,505.392z"/>
<path fill="#2F2E41" d="M514.228,509.233l0.769,10.753c0,0,9.984,1.537,10.753,0c0.768-1.536,8.449-5.376,9.218-6.144
	c0.768-0.769,1.535-9.219-3.073-9.986s-6.145,1.536-6.145,1.536L514.228,509.233z"/>
<path fill="#FFB8B8" d="M449.706,312.597c0,0-18.435,17.666-16.131,26.883c2.305,9.219,20.739,36.103,20.739,36.103
	s17.667,9.217,19.971,0c2.305-9.219-12.289-6.914-12.289-6.914l-11.521-27.651l13.058-18.435L449.706,312.597z"/>
<path fill="#FFB8B8" d="M532.077,285.72c0,0,16.793-10.799,16.404-18.218c-0.389-7.419-10.512-30.813-10.512-30.813
	s-7.921-16.465-11.068-9.736c-3.148,6.729,4.138,13.893,4.138,13.893l4.703,22.947l-12.782,12.193L532.077,285.72z"/>
<circle fill="#FFB8B8" cx="490.416" cy="256.525" r="13.826"/>
<path fill="#FFB8B8" d="M483.503,264.974l2.305,14.594l16.897-3.073c0,0-0.768-14.594-0.768-16.13S483.503,264.974,483.503,264.974z
	"/>
<path fill="#D0CDE1" d="M482.734,279.568c0,0,19.203-4.609,21.508-3.073c2.304,1.537,13.825,3.073,13.825,3.073l13.059,19.971
	l-3.841,25.347c0,0-0.769,40.71,0.769,47.623c1.535,6.913,9.984,7.681-7.682,9.217c-17.667,1.537-20.738-0.768-33.028,2.305
	c-12.29,3.073-22.275-1.536-19.203-4.608s8.449-52.231,2.305-56.84c-6.146-4.609-8.449-28.42-8.449-28.42
	S482.734,283.409,482.734,279.568z"/>
<path fill="#D0CDE1" d="M515.764,281.873l2.304-2.304l4.608-4.609c0,0,14.979,6.529,14.211,8.833
	c-0.769,2.304-5.761,15.746-5.761,15.746l-6.913,2.304L515.764,281.873z"/>
<path fill="#D0CDE1" d="M471.213,295.699l-9.217-1.537c0,0-6.913,7.681-9.218,10.754c-2.304,3.072-6.912,10.753-6.912,10.753
	l16.13,11.521l12.289-13.058L471.213,295.699z"/>
<path fill="#2F2E41" d="M495.241,239.775l-0.143-1.107c-0.939-0.006-1.873,0.141-2.767,0.435c-0.092-0.668-0.033-1.348,0.171-1.99
	c-0.907,0.233-1.771,0.609-2.562,1.113l-0.559-2.021l-7.678,3.784c-2.757,1.358-5.663,2.852-7.238,5.49
	c-1.757,2.941-1.451,6.721-0.25,9.929c1.2,3.209,3.195,6.048,4.795,9.078c0.607,1.303,1.338,2.545,2.18,3.709
	c2.898,3.613,8.54,4.343,12.627,2.163c1.555-0.75,2.794-2.025,3.499-3.601c0.298-0.978,0.531-1.974,0.699-2.981
	c0.505-2.065,1.092-6.327,2.769-7.633c0.738-0.574,2.201,1.331,2.813,0.623c1.571-1.819,1.242-4.624,0.267-6.821
	c-0.938-2.206-2.032-4.342-3.277-6.391C500.06,242.729,495.224,239.642,495.241,239.775z"/>
<rect x="156.795" y="192.718" fill="#3F3D56" width="40.146" height="40.146"/>
</svg>
