<svg width="28" height="28" viewBox="0 0 28 28" fill="none" xmlns="http://www.w3.org/2000/svg">
<path d="M27.3156 14.177C27.2174 21.5314 21.1762 27.414 13.8222 27.3163C6.46819 27.2185 0.586139 21.1774 0.684321 13.8229C0.782504 6.4685 6.82374 0.585858 14.1777 0.683624C21.5317 0.781391 27.4138 6.82255 27.3156 14.177Z" stroke="white"/>
<ellipse cx="14.307" cy="14.2712" rx="9.90153" ry="9.87916" fill="white"/>
<path d="M12.9385 16.3252L16.5172 14.2692L12.9385 12.2133V16.3252Z" fill="#004950"/>
<path d="M14.3088 3.29266C8.23369 3.29266 3.30713 8.20809 3.30713 14.2695C3.30713 20.3309 8.23369 25.2463 14.3088 25.2463C20.384 25.2463 25.3105 20.3309 25.3105 14.2695C25.3105 8.20809 20.384 3.29266 14.3088 3.29266ZM21.1832 14.2807C21.1832 14.2807 21.1832 16.5069 20.9002 17.5803C20.7415 18.1679 20.2772 18.6312 19.6883 18.7893C18.6124 19.0719 14.3088 19.0719 14.3088 19.0719C14.3088 19.0719 10.0165 19.0719 8.92935 18.7781C8.34045 18.62 7.87612 18.1565 7.71748 17.569C7.43428 16.5069 7.43428 14.2695 7.43428 14.2695C7.43428 14.2695 7.43428 12.0435 7.71748 10.9701C7.87595 10.3825 8.3517 9.90781 8.92935 9.7497C10.0052 9.46714 14.3088 9.46714 14.3088 9.46714C14.3088 9.46714 18.6124 9.46714 19.6883 9.76092C20.2772 9.91903 20.7415 10.3825 20.9002 10.9701C21.1946 12.0435 21.1832 14.2807 21.1832 14.2807Z" fill="#004950"/>
</svg>
