<svg width="28" height="28" viewBox="0 0 28 28" fill="none" xmlns="http://www.w3.org/2000/svg">
<path d="M27.3157 14.177C27.2175 21.5314 21.1763 27.414 13.8223 27.3163C6.46827 27.2185 0.586223 21.1774 0.684405 13.8229C0.782588 6.4685 6.82382 0.585858 14.1778 0.683624C21.5318 0.781391 27.4139 6.82255 27.3157 14.177Z" stroke="white"/>
<path d="M16.6639 13.7186C16.6639 15.3208 15.3622 16.6196 13.7563 16.6196C12.1505 16.6196 10.8487 15.3208 10.8487 13.7186C10.8487 12.1164 12.1505 10.8176 13.7563 10.8176C15.3622 10.8176 16.6639 12.1164 16.6639 13.7186Z" fill="white"/>
<path d="M20.5566 8.58967C20.4168 8.21178 20.1938 7.86973 19.9041 7.58897C19.6227 7.29989 19.2801 7.07741 18.9011 6.93796C18.5938 6.81885 18.1321 6.67709 17.2816 6.63846C16.3616 6.5966 16.0858 6.58759 13.7568 6.58759C11.4275 6.58759 11.1517 6.59637 10.2319 6.63823C9.38148 6.67709 8.91952 6.81885 8.6124 6.93796C8.23342 7.07741 7.8906 7.29989 7.60944 7.58897C7.3197 7.86973 7.09672 8.21155 6.95672 8.58967C6.83734 8.89633 6.69525 9.35724 6.65655 10.2058C6.61459 11.1234 6.60555 11.3986 6.60555 13.7226C6.60555 16.0464 6.61459 16.3216 6.65655 17.2395C6.69525 18.0881 6.83734 18.5487 6.95672 18.8554C7.09672 19.2335 7.31947 19.5753 7.60921 19.8561C7.8906 20.1452 8.23319 20.3677 8.61217 20.5071C8.91952 20.6264 9.38148 20.7682 10.2319 20.8068C11.1517 20.8487 11.4273 20.8575 13.7565 20.8575C16.086 20.8575 16.3619 20.8487 17.2814 20.8068C18.1318 20.7682 18.5938 20.6264 18.9011 20.5071C19.6619 20.2143 20.2632 19.6144 20.5566 18.8554C20.676 18.5487 20.8181 18.0881 20.857 17.2395C20.899 16.3216 20.9078 16.0464 20.9078 13.7226C20.9078 11.3986 20.899 11.1234 20.857 10.2058C20.8183 9.35724 20.6762 8.89633 20.5566 8.58967ZM13.7568 18.1914C11.2829 18.1914 9.27741 16.1907 9.27741 13.7224C9.27741 11.2541 11.2829 9.25341 13.7568 9.25341C16.2304 9.25341 18.2359 11.2541 18.2359 13.7224C18.2359 16.1907 16.2304 18.1914 13.7568 18.1914ZM18.413 10.1211C17.8349 10.1211 17.3662 9.6535 17.3662 9.07672C17.3662 8.49994 17.8349 8.03231 18.413 8.03231C18.9911 8.03231 19.4598 8.49994 19.4598 9.07672C19.4595 9.6535 18.9911 10.1211 18.413 10.1211Z" fill="white"/>
</svg>
