<svg width="28" height="28" viewBox="0 0 28 28" fill="none" xmlns="http://www.w3.org/2000/svg">
<path d="M27.3157 14.177C27.2175 21.5314 21.1763 27.414 13.8223 27.3163C6.46827 27.2185 0.586221 21.1774 0.684403 13.8229C0.782586 6.4685 6.82382 0.585858 14.1778 0.683624C21.5318 0.781391 27.4139 6.82255 27.3157 14.177Z" stroke="white"/>
<path d="M8.16033 11.474H10.5144V19.25H8.16033V11.474ZM9.33735 10.3899C8.90477 10.3899 8.55267 10.2695 8.28105 10.0286C8.00943 9.7877 7.87362 9.48899 7.87362 9.13247C7.87362 8.77594 8.00943 8.47723 8.28105 8.23634C8.55267 7.99545 8.90477 7.875 9.33735 7.875C9.76993 7.875 10.122 7.99063 10.3936 8.22189C10.6653 8.45315 10.8011 8.74222 10.8011 9.08911C10.8011 9.4649 10.6653 9.77806 10.3936 10.0286C10.122 10.2695 9.76993 10.3899 9.33735 10.3899Z" fill="white"/>
<path d="M17.6335 11.3583C18.6395 11.3583 19.4494 11.6474 20.063 12.2255C20.6868 12.8037 20.9986 13.6613 20.9986 14.7983V19.25H18.6446V15.1452C18.6446 14.5285 18.5037 14.0708 18.2221 13.7721C17.9404 13.4637 17.5329 13.3096 16.9998 13.3096C16.4062 13.3096 15.9334 13.4878 15.5813 13.8443C15.2292 14.1912 15.0532 14.7116 15.0532 15.4053V19.25H12.6991V11.474H14.9475V12.3845C15.2594 12.0569 15.6467 11.8064 16.1095 11.6329C16.5722 11.4499 17.0802 11.3583 17.6335 11.3583Z" fill="white"/>
</svg>
