<?xml version="1.0" standalone="no"?>
<!DOCTYPE svg PUBLIC "-//W3C//DTD SVG 1.1//EN" "http://www.w3.org/Graphics/SVG/1.1/DTD/svg11.dtd" >
<svg>
<metadata>
Created by FontForge 20090622 at Thu Jun 11 10:42:46 2020
 By deploy user
Copyright 2015 Dalton Maag Ltd. Modification of this file requires prior written permission from Dalton Maag Ltd.
</metadata>
<defs>
<font id="AktivGroteskEx-Medium" horiz-adv-x="492" >
  <font-face 
    font-family="Aktiv Grotesk Ex Medium"
    font-weight="500"
    font-stretch="expanded"
    units-per-em="1000"
    panose-1="2 11 6 4 2 2 3 2 2 4"
    ascent="714"
    descent="-286"
    x-height="520"
    cap-height="714"
    bbox="-223 -225 1541 958"
    underline-thickness="68"
    underline-position="-65"
    unicode-range="U+0008-U+FEFF"
  />
<missing-glyph horiz-adv-x="610" 
d="M65 0v750h480v-750h-480zM495 700h-380v-650h380v650z" />
    <glyph glyph-name="f_f" unicode="ff" horiz-adv-x="870" 
d="M124 0v429h-101v91h101v32q0 80 53.5 125t148.5 45q58 0 115 -15l-19 -86q-37 9 -73 9q-53 0 -79 -18.5t-26 -58.5v-33h171v-91h-171v-429h-120zM559 0v429h-101v91h101v32q0 80 53.5 125t148.5 45q58 0 115 -15l-19 -86q-37 9 -73 9q-53 0 -79 -18.5t-26 -58.5v-33h171
v-91h-171v-429h-120z" />
    <glyph glyph-name="f_i" unicode="fi" horiz-adv-x="713" 
d="M124 0v429h-101v91h101v32q0 80 53.5 125t148.5 45q58 0 115 -15l-19 -86q-37 9 -73 9q-53 0 -79 -18.5t-26 -58.5v-33h171v-91h-171v-429h-120zM514 0v520h120v-520h-120zM512 597v117h124v-117h-124z" />
    <glyph glyph-name="f_l" unicode="fl" horiz-adv-x="713" 
d="M124 0v429h-101v91h101v32q0 80 53.5 125t148.5 45q58 0 115 -15l-19 -86q-37 9 -73 9q-53 0 -79 -18.5t-26 -58.5v-33h171v-91h-171v-429h-120zM514 0v714h120v-714h-120z" />
    <glyph glyph-name="f_f_i" unicode="ffi" horiz-adv-x="1148" 
d="M124 0v429h-101v91h101v32q0 80 53.5 125t148.5 45q58 0 115 -15l-19 -86q-37 9 -73 9q-53 0 -79 -18.5t-26 -58.5v-33h171v-91h-171v-429h-120zM559 0v429h-101v91h101v32q0 80 53.5 125t148.5 45q58 0 115 -15l-19 -86q-37 9 -73 9q-53 0 -79 -18.5t-26 -58.5v-33h171
v-91h-171v-429h-120zM949 0v520h120v-520h-120zM947 597v117h124v-117h-124z" />
    <glyph glyph-name="f_f_l" unicode="ffl" horiz-adv-x="1148" 
d="M124 0v429h-101v91h101v32q0 80 53.5 125t148.5 45q58 0 115 -15l-19 -86q-37 9 -73 9q-53 0 -79 -18.5t-26 -58.5v-33h171v-91h-171v-429h-120zM559 0v429h-101v91h101v32q0 80 53.5 125t148.5 45q58 0 115 -15l-19 -86q-37 9 -73 9q-53 0 -79 -18.5t-26 -58.5v-33h171
v-91h-171v-429h-120zM949 0v714h120v-714h-120z" />
    <glyph glyph-name=".notdef" horiz-adv-x="610" 
d="M65 0v750h480v-750h-480zM495 700h-380v-650h380v650z" />
    <glyph glyph-name=".null" horiz-adv-x="0" 
 />
    <glyph glyph-name=".null" horiz-adv-x="0" 
 />
    <glyph glyph-name=".null" horiz-adv-x="0" 
 />
    <glyph glyph-name="nonmarkingreturn" unicode="&#x9;" horiz-adv-x="278" 
 />
    <glyph glyph-name="nonmarkingreturn" unicode="&#xd;" horiz-adv-x="278" 
 />
    <glyph glyph-name="space" unicode=" " horiz-adv-x="278" 
 />
    <glyph glyph-name="period" unicode="." horiz-adv-x="279" 
d="M77 0v142h125v-142h-125z" />
    <glyph glyph-name="colon" unicode=":" horiz-adv-x="279" 
d="M77 0v142h125v-142h-125zM77 378v142h125v-142h-125z" />
    <glyph glyph-name="comma" unicode="," horiz-adv-x="279" 
d="M47 -98l39 240h124l-68 -240h-95z" />
    <glyph glyph-name="semicolon" unicode=";" horiz-adv-x="279" 
d="M47 -98l39 240h124l-68 -240h-95zM83 378v142h125v-142h-125z" />
    <glyph glyph-name="question" unicode="?" horiz-adv-x="636" 
d="M251 215v12q0 53 25.5 92t89.5 84q57 41 74.5 64t17.5 56q0 50 -36 77t-104 27q-75 0 -116 -26t-59 -85l-112 14q20 97 93.5 146.5t196.5 49.5t192 -49t69 -136q0 -58 -27 -101.5t-91 -89.5q-44 -31 -64 -50.5t-27.5 -36t-7.5 -37.5v-11h-114zM245 0v142h125v-142h-125z
" />
    <glyph glyph-name="exclam" unicode="!" horiz-adv-x="281" 
d="M84 215l-7 499h127l-6 -499h-114zM79 0v142h125v-142h-125z" />
    <glyph glyph-name="questiondown" unicode="&#xbf;" horiz-adv-x="636" 
d="M605 -10q-20 -97 -93.5 -146.5t-196.5 -49.5t-192 49t-69 136q0 58 27 101.5t91 89.5q44 31 64 50.5t27.5 36t7.5 37.5v11h114v-12q0 -53 -25.5 -92t-89.5 -84q-57 -41 -74.5 -64t-17.5 -56q0 -50 36 -77t104 -27q75 0 116 26t59 85zM266 378v142h125v-142h-125z" />
    <glyph glyph-name="exclamdown" unicode="&#xa1;" horiz-adv-x="281" 
d="M77 -194l6 499h114l7 -499h-127zM77 378v142h125v-142h-125z" />
    <glyph glyph-name="quotesingle" unicode="'" horiz-adv-x="208" 
d="M53 453l-6 261h114l-6 -261h-102z" />
    <glyph glyph-name="quotedbl" unicode="&#x22;" horiz-adv-x="402" 
d="M53 453l-6 261h114l-6 -261h-102zM247 453l-6 261h114l-6 -261h-102z" />
    <glyph glyph-name="ellipsis" unicode="&#x2026;" horiz-adv-x="1220" 
d="M141 0v142h125v-142h-125zM548 0v142h125v-142h-125zM955 0v142h125v-142h-125z" />
    <glyph glyph-name="uni00A0" unicode="&#xa0;" horiz-adv-x="278" 
 />
    <glyph glyph-name="uni2000" unicode="&#x2000;" horiz-adv-x="610" 
 />
    <glyph glyph-name="uni2001" unicode="&#x2001;" horiz-adv-x="1220" 
 />
    <glyph glyph-name="uni2002" unicode="&#x2002;" horiz-adv-x="610" 
 />
    <glyph glyph-name="uni2003" unicode="&#x2003;" horiz-adv-x="1220" 
 />
    <glyph glyph-name="uni2004" unicode="&#x2004;" horiz-adv-x="407" 
 />
    <glyph glyph-name="uni2005" unicode="&#x2005;" horiz-adv-x="305" 
 />
    <glyph glyph-name="uni2006" unicode="&#x2006;" horiz-adv-x="203" 
 />
    <glyph glyph-name="uni2007" unicode="&#x2007;" horiz-adv-x="700" 
 />
    <glyph glyph-name="uni2008" unicode="&#x2008;" horiz-adv-x="279" 
 />
    <glyph glyph-name="uni2009" unicode="&#x2009;" horiz-adv-x="244" 
 />
    <glyph glyph-name="uni200A" unicode="&#x200a;" horiz-adv-x="50" 
 />
    <glyph glyph-name="uni200B" unicode="&#x200b;" horiz-adv-x="0" 
 />
    <glyph glyph-name="zero" unicode="0" horiz-adv-x="700" 
d="M350 -18q-304 0 -304 363q0 180 77.5 272.5t226.5 92.5q304 0 304 -363q0 -180 -77.5 -272.5t-226.5 -92.5zM350 85q92 0 135.5 64t43.5 198q0 133 -43.5 196.5t-135.5 63.5t-135.5 -64t-43.5 -198q0 -133 43.5 -196.5t135.5 -63.5z" />
    <glyph glyph-name="one" unicode="1" horiz-adv-x="700" 
d="M346 0v558l-177 -107l-54 87l246 153h108v-691h-123z" />
    <glyph glyph-name="two" unicode="2" horiz-adv-x="700" 
d="M68 0v93q153 108 242 176q87 66 124 101t50 61t13 60q0 57 -38.5 87t-111.5 30q-68 0 -106 -26.5t-57 -86.5l-116 15q23 99 94.5 149.5t190.5 50.5q127 0 198 -54.5t71 -153.5q0 -54 -19 -94.5t-62.5 -83t-121.5 -99.5q-107 -79 -171 -122h387l-17 -103h-550z" />
    <glyph glyph-name="three" unicode="3" horiz-adv-x="700" 
d="M261 308v101h97q68 0 105 27t37 77q0 47 -39 72t-114 25q-70 0 -108.5 -24.5t-57.5 -81.5l-115 14q17 93 90 142.5t196 49.5q81 0 140.5 -21.5t93 -63t33.5 -97.5q0 -112 -123 -160q143 -47 143 -170q0 -102 -75.5 -159t-212.5 -57q-139 0 -214.5 58.5t-80.5 164.5h121
q7 -46 27 -72.5t55.5 -38.5t89.5 -12q82 0 125 29.5t43 87.5q0 109 -161 109h-95z" />
    <glyph glyph-name="four" unicode="4" horiz-adv-x="700" 
d="M444 0v160h-413v89l407 442h117v-438h117l-15 -93h-102v-160h-111zM444 562l-286 -309h286v309z" />
    <glyph glyph-name="five" unicode="5" horiz-adv-x="700" 
d="M228 588l-17 -183q41 24 78.5 33t96.5 9q120 0 187.5 -59t67.5 -165q0 -115 -72.5 -178t-205.5 -63q-132 0 -202 51.5t-83 155.5h118q10 -40 29.5 -63.5t52 -33.5t83.5 -10q162 0 162 140q0 131 -164 131q-56 0 -93.5 -12.5t-66.5 -39.5h-103l33 390h461v-103h-362z" />
    <glyph glyph-name="six" unicode="6" horiz-adv-x="700" 
d="M512 528q-19 42 -53 62t-87 20q-88 0 -135 -57t-55 -173l-1 -14q64 79 201 79q125 0 193 -59t68 -167q0 -69 -34.5 -122.5t-99.5 -84t-152 -30.5q-142 0 -217.5 83.5t-75.5 239.5q0 196 80.5 300.5t230.5 104.5q101 0 163.5 -42.5t82.5 -123.5zM525 217q0 135 -165 135
q-76 0 -121.5 -34.5t-45.5 -92.5q0 -64 45.5 -104t118.5 -40q77 0 122.5 37t45.5 99z" />
    <glyph glyph-name="seven" unicode="7" horiz-adv-x="700" 
d="M194 0q111 321 294 588h-439v103h572v-92q-191 -276 -299 -599h-128z" />
    <glyph glyph-name="eight" unicode="8" horiz-adv-x="700" 
d="M513 358q68 -19 106.5 -64.5t38.5 -105.5q0 -100 -79.5 -153t-228.5 -53t-228 51.5t-79 149.5q0 63 38.5 109t107.5 66q-58 21 -89 61.5t-31 95.5q0 91 76 143t207 52q132 0 205.5 -51t73.5 -143q0 -56 -30.5 -97t-87.5 -61zM539 193q0 112 -188 112q-189 0 -189 -113
q0 -55 48.5 -84t140.5 -29t140 29.5t48 84.5zM517 508q0 49 -44.5 77t-122.5 28q-79 0 -123 -28t-44 -78q0 -107 167 -107q84 0 125.5 26.5t41.5 81.5z" />
    <glyph glyph-name="nine" unicode="9" horiz-adv-x="700" 
d="M517 328q-65 -80 -199 -80q-125 0 -193 58.5t-68 165.5q0 70 34.5 123.5t99.5 84t152 30.5q144 0 218.5 -87.5t74.5 -255.5q0 -187 -75.5 -286t-218.5 -99q-122 0 -190.5 45.5t-79.5 135.5h118q12 -43 48.5 -62t103.5 -19q82 0 124 55.5t50 175.5zM506 469
q0 63 -45 102.5t-118 39.5q-76 0 -122 -38t-46 -100q0 -132 165 -132q75 0 120.5 35t45.5 93z" />
    <glyph glyph-name="zero.pnum" horiz-adv-x="720" 
d="M360 -18q-304 0 -304 363q0 180 77.5 272.5t226.5 92.5q304 0 304 -363q0 -180 -77.5 -272.5t-226.5 -92.5zM360 85q92 0 135.5 64t43.5 198q0 133 -43.5 196.5t-135.5 63.5t-135.5 -64t-43.5 -198q0 -133 43.5 -196.5t135.5 -63.5z" />
    <glyph glyph-name="one.pnum" horiz-adv-x="512" 
d="M261 0v558l-177 -107l-54 87l246 153h108v-691h-123z" />
    <glyph glyph-name="two.pnum" horiz-adv-x="659" 
d="M47 0v93q153 108 242 176q87 66 124 101t50 61t13 60q0 57 -38.5 87t-111.5 30q-68 0 -106 -26.5t-57 -86.5l-116 15q23 99 94.5 149.5t190.5 50.5q127 0 198 -54.5t71 -153.5q0 -54 -19 -94.5t-62.5 -83t-121.5 -99.5q-107 -79 -171 -122h387l-17 -103h-550z" />
    <glyph glyph-name="three.pnum" horiz-adv-x="678" 
d="M249 308v101h97q68 0 105 27t37 77q0 47 -39 72t-114 25q-70 0 -108.5 -24.5t-57.5 -81.5l-115 14q17 93 90 142.5t196 49.5q81 0 140.5 -21.5t93 -63t33.5 -97.5q0 -112 -123 -160q143 -47 143 -170q0 -102 -75.5 -159t-212.5 -57q-139 0 -214.5 58.5t-80.5 164.5h121
q7 -46 27 -72.5t55.5 -38.5t89.5 -12q82 0 125 29.5t43 87.5q0 109 -161 109h-95z" />
    <glyph glyph-name="four.pnum" horiz-adv-x="687" 
d="M442 0v160h-413v89l407 442h117v-438h117l-15 -93h-102v-160h-111zM442 562l-286 -309h286v309z" />
    <glyph glyph-name="five.pnum" horiz-adv-x="671" 
d="M214 588l-17 -183q41 24 78.5 33t96.5 9q120 0 187.5 -59t67.5 -165q0 -115 -72.5 -178t-205.5 -63q-132 0 -202 51.5t-83 155.5h118q10 -40 29.5 -63.5t52 -33.5t83.5 -10q162 0 162 140q0 131 -164 131q-56 0 -93.5 -12.5t-66.5 -39.5h-103l33 390h461v-103h-362z" />
    <glyph glyph-name="six.pnum" horiz-adv-x="689" 
d="M509 528q-19 42 -53 62t-87 20q-88 0 -135 -57t-55 -173l-1 -14q64 79 201 79q125 0 193 -59t68 -167q0 -69 -34.5 -122.5t-99.5 -84t-152 -30.5q-142 0 -217.5 83.5t-75.5 239.5q0 196 80.5 300.5t230.5 104.5q101 0 163.5 -42.5t82.5 -123.5zM522 217q0 135 -165 135
q-76 0 -121.5 -34.5t-45.5 -92.5q0 -64 45.5 -104t118.5 -40q77 0 122.5 37t45.5 99z" />
    <glyph glyph-name="seven.pnum" horiz-adv-x="621" 
d="M168 0q111 321 294 588h-439v103h572v-92q-191 -276 -299 -599h-128z" />
    <glyph glyph-name="eight.pnum" horiz-adv-x="707" 
d="M516 358q68 -19 106.5 -64.5t38.5 -105.5q0 -100 -79.5 -153t-228.5 -53t-228 51.5t-79 149.5q0 63 38.5 109t107.5 66q-58 21 -89 61.5t-31 95.5q0 91 76 143t207 52q132 0 205.5 -51t73.5 -143q0 -56 -30.5 -97t-87.5 -61zM542 193q0 112 -188 112q-189 0 -189 -113
q0 -55 48.5 -84t140.5 -29t140 29.5t48 84.5zM520 508q0 49 -44.5 77t-122.5 28q-79 0 -123 -28t-44 -78q0 -107 167 -107q84 0 125.5 26.5t41.5 81.5z" />
    <glyph glyph-name="nine.pnum" horiz-adv-x="692" 
d="M514 328q-65 -80 -199 -80q-125 0 -193 58.5t-68 165.5q0 70 34.5 123.5t99.5 84t152 30.5q144 0 218.5 -87.5t74.5 -255.5q0 -187 -75.5 -286t-218.5 -99q-122 0 -190.5 45.5t-79.5 135.5h118q12 -43 48.5 -62t103.5 -19q82 0 124 55.5t50 175.5zM503 469
q0 63 -45 102.5t-118 39.5q-76 0 -122 -38t-46 -100q0 -132 165 -132q75 0 120.5 35t45.5 93z" />
    <glyph glyph-name="uni2080" unicode="&#x2080;" 
d="M245 -135q-94 0 -147.5 57.5t-53.5 157.5q0 99 55 157.5t148 58.5q94 0 147.5 -57.5t53.5 -157.5q0 -99 -55 -157.5t-148 -58.5zM246 -59q105 0 105 139q0 71 -26 105.5t-79 34.5q-105 0 -105 -139q0 -71 26 -105.5t79 -34.5z" />
    <glyph glyph-name="uni2081" unicode="&#x2081;" 
d="M247 -122v308l-121 -69l-37 64l170 102h83v-405h-95z" />
    <glyph glyph-name="uni2082" unicode="&#x2082;" 
d="M65 -122v67l148 102q56 38 78 56t29 31t7 29q0 29 -20.5 44.5t-57.5 15.5q-42 0 -66 -16.5t-34 -52.5l-87 11q16 64 65 97.5t127 33.5q77 0 123 -33.5t46 -89.5q0 -29 -13.5 -51.5t-46 -49t-97.5 -70.5l-71 -48h237l-12 -76h-355z" />
    <glyph glyph-name="uni2083" unicode="&#x2083;" 
d="M199 50v73h57q38 0 58.5 13.5t20.5 38.5q0 51 -87 51q-42 0 -64.5 -13.5t-33.5 -47.5l-83 11q13 57 61.5 88.5t121.5 31.5q82 0 127.5 -30t45.5 -83q0 -31 -18 -52.5t-56 -37.5q85 -25 85 -98q0 -62 -48 -96t-135 -34q-84 0 -134 38t-55 105h84q7 -39 31 -56t71 -17
q97 0 97 61q0 28 -21 41t-68 13h-57z" />
    <glyph glyph-name="uni2084" unicode="&#x2084;" 
d="M301 -122v93h-252v62l246 250h88v-244h74l-11 -68h-63v-93h-82zM301 201l-160 -162h160v162z" />
    <glyph glyph-name="uni2085" unicode="&#x2085;" 
d="M178 207l-9 -96q17 13 44 20t59 7q77 0 120.5 -34.5t43.5 -96.5q0 -68 -46.5 -105t-131.5 -37q-52 0 -91.5 14t-63.5 41.5t-29 66.5h84q15 -52 98 -52q44 0 67.5 18.5t23.5 52.5q0 68 -91 68q-64 0 -97 -27h-70l23 236h292v-76h-226z" />
    <glyph glyph-name="uni2086" unicode="&#x2086;" 
d="M347 177q-10 26 -31.5 37.5t-57.5 11.5q-107 0 -115 -131q20 20 53.5 30.5t74.5 10.5q80 0 123 -33.5t43 -97.5t-51 -102t-138 -38q-91 0 -140.5 50t-49.5 141q0 114 53 177t149 63q71 0 112 -26.5t57 -82.5zM350 5q0 68 -94 68q-50 0 -77.5 -17t-27.5 -48
q0 -34 26 -53.5t73 -19.5t73.5 18.5t26.5 51.5z" />
    <glyph glyph-name="uni2087" unicode="&#x2087;" 
d="M148 -122q71 186 178 329h-267v76h365v-65q-120 -160 -179 -340h-97z" />
    <glyph glyph-name="uni2088" unicode="&#x2088;" 
d="M355 88q84 -27 84 -99q0 -61 -49 -92.5t-144 -31.5q-192 0 -192 124q0 35 21.5 60.5t62.5 38.5q-67 28 -67 90q0 56 47 87t130 31t128.5 -31t45.5 -86q0 -30 -17.5 -54t-49.5 -37zM338 175q0 55 -93 55q-90 0 -90 -56q0 -30 21.5 -43.5t68.5 -13.5q49 0 71 14t22 44z
M352 -9q0 62 -107 62q-53 0 -78.5 -15t-25.5 -47q0 -29 26.5 -44.5t77.5 -15.5q52 0 79.5 15.5t27.5 44.5z" />
    <glyph glyph-name="uni2089" unicode="&#x2089;" 
d="M151 -18q8 -25 30 -36t63 -11q56 0 82.5 32.5t26.5 99.5q-20 -20 -53.5 -31t-74.5 -11q-80 0 -122.5 33.5t-42.5 96.5q0 64 51.5 102.5t136.5 38.5q90 0 140 -52t50 -146q0 -118 -48.5 -175.5t-146.5 -57.5q-80 0 -123 28.5t-56 88.5h87zM346 153q0 34 -26 53.5t-73 19.5
t-73.5 -18.5t-26.5 -51.5q0 -68 94 -68q50 0 77.5 17t27.5 48z" />
    <glyph glyph-name="uni2070" unicode="&#x2070;" 
d="M245 393q-94 0 -147.5 57.5t-53.5 157.5q0 99 55 157.5t148 58.5q94 0 147.5 -57.5t53.5 -157.5q0 -99 -55 -157.5t-148 -58.5zM246 469q105 0 105 139q0 71 -26 105.5t-79 34.5q-105 0 -105 -139q0 -71 26 -105.5t79 -34.5z" />
    <glyph glyph-name="uni00B9" unicode="&#xb9;" 
d="M247 406v308l-121 -69l-37 64l170 102h83v-405h-95z" />
    <glyph glyph-name="uni00B2" unicode="&#xb2;" 
d="M65 406v67l148 102q56 38 78 56t29 31t7 29q0 29 -20.5 44.5t-57.5 15.5q-42 0 -66 -16.5t-34 -52.5l-87 11q16 64 65 97.5t127 33.5q77 0 123 -33.5t46 -89.5q0 -29 -13.5 -51.5t-46 -49t-97.5 -70.5l-71 -48h237l-12 -76h-355z" />
    <glyph glyph-name="uni00B3" unicode="&#xb3;" 
d="M199 578v73h57q38 0 58.5 13.5t20.5 38.5q0 51 -87 51q-42 0 -64.5 -13.5t-33.5 -47.5l-83 11q13 57 61.5 88.5t121.5 31.5q82 0 127.5 -30t45.5 -83q0 -31 -18 -52.5t-56 -37.5q85 -25 85 -98q0 -62 -48 -96t-135 -34q-84 0 -134 38t-55 105h84q7 -39 31 -56t71 -17
q97 0 97 61q0 28 -21 41t-68 13h-57z" />
    <glyph glyph-name="uni2074" unicode="&#x2074;" 
d="M301 406v93h-252v62l246 250h88v-244h74l-11 -68h-63v-93h-82zM301 729l-160 -162h160v162z" />
    <glyph glyph-name="uni2075" unicode="&#x2075;" 
d="M178 735l-9 -96q17 13 44 20t59 7q77 0 120.5 -34.5t43.5 -96.5q0 -68 -46.5 -105t-131.5 -37q-52 0 -91.5 14t-63.5 41.5t-29 66.5h84q15 -52 98 -52q44 0 67.5 18.5t23.5 52.5q0 68 -91 68q-64 0 -97 -27h-70l23 236h292v-76h-226z" />
    <glyph glyph-name="uni2076" unicode="&#x2076;" 
d="M347 705q-10 26 -31.5 37.5t-57.5 11.5q-107 0 -115 -131q20 20 53.5 30.5t74.5 10.5q80 0 123 -33.5t43 -97.5t-51 -102t-138 -38q-91 0 -140.5 50t-49.5 141q0 114 53 177t149 63q71 0 112 -26.5t57 -82.5zM350 533q0 68 -94 68q-50 0 -77.5 -17t-27.5 -48
q0 -34 26 -53.5t73 -19.5t73.5 18.5t26.5 51.5z" />
    <glyph glyph-name="uni2077" unicode="&#x2077;" 
d="M148 406q71 186 178 329h-267v76h365v-65q-120 -160 -179 -340h-97z" />
    <glyph glyph-name="uni2078" unicode="&#x2078;" 
d="M355 616q84 -27 84 -99q0 -61 -49 -92.5t-144 -31.5q-192 0 -192 124q0 35 21.5 60.5t62.5 38.5q-67 28 -67 90q0 56 47 87t130 31t128.5 -31t45.5 -86q0 -30 -17.5 -54t-49.5 -37zM338 703q0 55 -93 55q-90 0 -90 -56q0 -30 21.5 -43.5t68.5 -13.5q49 0 71 14t22 44z
M352 519q0 62 -107 62q-53 0 -78.5 -15t-25.5 -47q0 -29 26.5 -44.5t77.5 -15.5q52 0 79.5 15.5t27.5 44.5z" />
    <glyph glyph-name="uni2079" unicode="&#x2079;" 
d="M151 510q8 -25 30 -36t63 -11q56 0 82.5 32.5t26.5 99.5q-20 -20 -53.5 -31t-74.5 -11q-80 0 -122.5 33.5t-42.5 96.5q0 64 51.5 102.5t136.5 38.5q90 0 140 -52t50 -146q0 -118 -48.5 -175.5t-146.5 -57.5q-80 0 -123 28.5t-56 88.5h87zM346 681q0 34 -26 53.5t-73 19.5
t-73.5 -18.5t-26.5 -51.5q0 -68 94 -68q50 0 77.5 17t27.5 48z" />
    <glyph glyph-name="zero.dnom" unicode="&#xf814;" 
d="M245 -13q-94 0 -147.5 57.5t-53.5 157.5q0 99 55 157.5t148 58.5q94 0 147.5 -57.5t53.5 -157.5q0 -99 -55 -157.5t-148 -58.5zM246 63q105 0 105 139q0 71 -26 105.5t-79 34.5q-105 0 -105 -139q0 -71 26 -105.5t79 -34.5z" />
    <glyph glyph-name="one.dnom" unicode="&#xf815;" 
d="M247 0v308l-121 -69l-37 64l170 102h83v-405h-95z" />
    <glyph glyph-name="two.dnom" unicode="&#xf816;" 
d="M65 0v67l148 102q56 38 78 56t29 31t7 29q0 29 -20.5 44.5t-57.5 15.5q-42 0 -66 -16.5t-34 -52.5l-87 11q16 64 65 97.5t127 33.5q77 0 123 -33.5t46 -89.5q0 -29 -13.5 -51.5t-46 -49t-97.5 -70.5l-71 -48h237l-12 -76h-355z" />
    <glyph glyph-name="three.dnom" unicode="&#xf817;" 
d="M199 172v73h57q38 0 58.5 13.5t20.5 38.5q0 51 -87 51q-42 0 -64.5 -13.5t-33.5 -47.5l-83 11q13 57 61.5 88.5t121.5 31.5q82 0 127.5 -30t45.5 -83q0 -31 -18 -52.5t-56 -37.5q85 -25 85 -98q0 -62 -48 -96t-135 -34q-84 0 -134 38t-55 105h84q7 -39 31 -56t71 -17
q97 0 97 61q0 28 -21 41t-68 13h-57z" />
    <glyph glyph-name="four.dnom" unicode="&#xf818;" 
d="M301 0v93h-252v62l246 250h88v-244h74l-11 -68h-63v-93h-82zM301 323l-160 -162h160v162z" />
    <glyph glyph-name="five.dnom" unicode="&#xf819;" 
d="M178 329l-9 -96q17 13 44 20t59 7q77 0 120.5 -34.5t43.5 -96.5q0 -68 -46.5 -105t-131.5 -37q-52 0 -91.5 14t-63.5 41.5t-29 66.5h84q15 -52 98 -52q44 0 67.5 18.5t23.5 52.5q0 68 -91 68q-64 0 -97 -27h-70l23 236h292v-76h-226z" />
    <glyph glyph-name="six.dnom" unicode="&#xf81a;" 
d="M347 299q-10 26 -31.5 37.5t-57.5 11.5q-107 0 -115 -131q20 20 53.5 30.5t74.5 10.5q80 0 123 -33.5t43 -97.5t-51 -102t-138 -38q-91 0 -140.5 50t-49.5 141q0 114 53 177t149 63q71 0 112 -26.5t57 -82.5zM350 127q0 68 -94 68q-50 0 -77.5 -17t-27.5 -48
q0 -34 26 -53.5t73 -19.5t73.5 18.5t26.5 51.5z" />
    <glyph glyph-name="seven.dnom" unicode="&#xf81b;" 
d="M148 0q71 186 178 329h-267v76h365v-65q-120 -160 -179 -340h-97z" />
    <glyph glyph-name="eight.dnom" unicode="&#xf81c;" 
d="M355 210q84 -27 84 -99q0 -61 -49 -92.5t-144 -31.5q-192 0 -192 124q0 35 21.5 60.5t62.5 38.5q-67 28 -67 90q0 56 47 87t130 31t128.5 -31t45.5 -86q0 -30 -17.5 -54t-49.5 -37zM338 297q0 55 -93 55q-90 0 -90 -56q0 -30 21.5 -43.5t68.5 -13.5q49 0 71 14t22 44z
M352 113q0 62 -107 62q-53 0 -78.5 -15t-25.5 -47q0 -29 26.5 -44.5t77.5 -15.5q52 0 79.5 15.5t27.5 44.5z" />
    <glyph glyph-name="nine.dnom" unicode="&#xf81d;" 
d="M151 104q8 -25 30 -36t63 -11q56 0 82.5 32.5t26.5 99.5q-20 -20 -53.5 -31t-74.5 -11q-80 0 -122.5 33.5t-42.5 96.5q0 64 51.5 102.5t136.5 38.5q90 0 140 -52t50 -146q0 -118 -48.5 -175.5t-146.5 -57.5q-80 0 -123 28.5t-56 88.5h87zM346 275q0 34 -26 53.5t-73 19.5
t-73.5 -18.5t-26.5 -51.5q0 -68 94 -68q50 0 77.5 17t27.5 48z" />
    <glyph glyph-name="zero.numr" unicode="&#xf80a;" 
d="M245 273q-94 0 -147.5 57.5t-53.5 157.5q0 99 55 157.5t148 58.5q94 0 147.5 -57.5t53.5 -157.5q0 -99 -55 -157.5t-148 -58.5zM246 349q105 0 105 139q0 71 -26 105.5t-79 34.5q-105 0 -105 -139q0 -71 26 -105.5t79 -34.5z" />
    <glyph glyph-name="one.numr" unicode="&#xf80b;" 
d="M247 286v308l-121 -69l-37 64l170 102h83v-405h-95z" />
    <glyph glyph-name="two.numr" unicode="&#xf80c;" 
d="M65 286v67l148 102q56 38 78 56t29 31t7 29q0 29 -20.5 44.5t-57.5 15.5q-42 0 -66 -16.5t-34 -52.5l-87 11q16 64 65 97.5t127 33.5q77 0 123 -33.5t46 -89.5q0 -29 -13.5 -51.5t-46 -49t-97.5 -70.5l-71 -48h237l-12 -76h-355z" />
    <glyph glyph-name="three.numr" unicode="&#xf80d;" 
d="M199 458v73h57q38 0 58.5 13.5t20.5 38.5q0 51 -87 51q-42 0 -64.5 -13.5t-33.5 -47.5l-83 11q13 57 61.5 88.5t121.5 31.5q82 0 127.5 -30t45.5 -83q0 -31 -18 -52.5t-56 -37.5q85 -25 85 -98q0 -62 -48 -96t-135 -34q-84 0 -134 38t-55 105h84q7 -39 31 -56t71 -17
q97 0 97 61q0 28 -21 41t-68 13h-57z" />
    <glyph glyph-name="four.numr" unicode="&#xf80e;" 
d="M301 286v93h-252v62l246 250h88v-244h74l-11 -68h-63v-93h-82zM301 609l-160 -162h160v162z" />
    <glyph glyph-name="five.numr" unicode="&#xf80f;" 
d="M178 615l-9 -96q17 13 44 20t59 7q77 0 120.5 -34.5t43.5 -96.5q0 -68 -46.5 -105t-131.5 -37q-52 0 -91.5 14t-63.5 41.5t-29 66.5h84q15 -52 98 -52q44 0 67.5 18.5t23.5 52.5q0 68 -91 68q-64 0 -97 -27h-70l23 236h292v-76h-226z" />
    <glyph glyph-name="six.numr" unicode="&#xf810;" 
d="M347 585q-10 26 -31.5 37.5t-57.5 11.5q-107 0 -115 -131q20 20 53.5 30.5t74.5 10.5q80 0 123 -33.5t43 -97.5t-51 -102t-138 -38q-91 0 -140.5 50t-49.5 141q0 114 53 177t149 63q71 0 112 -26.5t57 -82.5zM350 413q0 68 -94 68q-50 0 -77.5 -17t-27.5 -48
q0 -34 26 -53.5t73 -19.5t73.5 18.5t26.5 51.5z" />
    <glyph glyph-name="seven.numr" unicode="&#xf811;" 
d="M148 286q71 186 178 329h-267v76h365v-65q-120 -160 -179 -340h-97z" />
    <glyph glyph-name="eight.numr" unicode="&#xf812;" 
d="M355 496q84 -27 84 -99q0 -61 -49 -92.5t-144 -31.5q-192 0 -192 124q0 35 21.5 60.5t62.5 38.5q-67 28 -67 90q0 56 47 87t130 31t128.5 -31t45.5 -86q0 -30 -17.5 -54t-49.5 -37zM338 583q0 55 -93 55q-90 0 -90 -56q0 -30 21.5 -43.5t68.5 -13.5q49 0 71 14t22 44z
M352 399q0 62 -107 62q-53 0 -78.5 -15t-25.5 -47q0 -29 26.5 -44.5t77.5 -15.5q52 0 79.5 15.5t27.5 44.5z" />
    <glyph glyph-name="nine.numr" unicode="&#xf813;" 
d="M151 390q8 -25 30 -36t63 -11q56 0 82.5 32.5t26.5 99.5q-20 -20 -53.5 -31t-74.5 -11q-80 0 -122.5 33.5t-42.5 96.5q0 64 51.5 102.5t136.5 38.5q90 0 140 -52t50 -146q0 -118 -48.5 -175.5t-146.5 -57.5q-80 0 -123 28.5t-56 88.5h87zM346 561q0 34 -26 53.5t-73 19.5
t-73.5 -18.5t-26.5 -51.5q0 -68 94 -68q50 0 77.5 17t27.5 48z" />
    <glyph glyph-name="fraction" unicode="&#x2044;" horiz-adv-x="112" 
d="M-211 0l420 691h114l-420 -691h-114z" />
    <glyph glyph-name="percent" unicode="%" horiz-adv-x="1114" 
d="M290 0l420 691h114l-420 -691h-114zM867 -13q-94 0 -147.5 57.5t-53.5 157.5q0 99 55 157.5t148 58.5q94 0 147.5 -57.5t53.5 -157.5q0 -99 -55 -157.5t-148 -58.5zM868 63q105 0 105 139q0 71 -26 105.5t-79 34.5q-105 0 -105 -139q0 -71 26 -105.5t79 -34.5zM245 273
q-94 0 -147.5 57.5t-53.5 157.5q0 99 55 157.5t148 58.5q94 0 147.5 -57.5t53.5 -157.5q0 -99 -55 -157.5t-148 -58.5zM246 349q105 0 105 139q0 71 -26 105.5t-79 34.5q-105 0 -105 -139q0 -71 26 -105.5t79 -34.5z" />
    <glyph glyph-name="perthousand" unicode="&#x2030;" horiz-adv-x="1585" 
d="M290 0l420 691h114l-420 -691h-114zM867 -13q-94 0 -147.5 57.5t-53.5 157.5q0 99 55 157.5t148 58.5q94 0 147.5 -57.5t53.5 -157.5q0 -99 -55 -157.5t-148 -58.5zM868 63q105 0 105 139q0 71 -26 105.5t-79 34.5q-105 0 -105 -139q0 -71 26 -105.5t79 -34.5zM1338 -13
q-94 0 -147.5 57.5t-53.5 157.5q0 99 55 157.5t148 58.5q94 0 147.5 -57.5t53.5 -157.5q0 -99 -55 -157.5t-148 -58.5zM1339 63q105 0 105 139q0 71 -26 105.5t-79 34.5q-105 0 -105 -139q0 -71 26 -105.5t79 -34.5zM245 273q-94 0 -147.5 57.5t-53.5 157.5q0 99 55 157.5
t148 58.5q94 0 147.5 -57.5t53.5 -157.5q0 -99 -55 -157.5t-148 -58.5zM246 349q105 0 105 139q0 71 -26 105.5t-79 34.5q-105 0 -105 -139q0 -71 26 -105.5t79 -34.5z" />
    <glyph glyph-name="onehalf" unicode="&#xbd;" horiz-adv-x="1114" 
d="M280 0l420 691h114l-420 -691h-114zM687 0v67l148 102q56 38 78 56t29 31t7 29q0 29 -20.5 44.5t-57.5 15.5q-42 0 -66 -16.5t-34 -52.5l-87 11q16 64 65 97.5t127 33.5q77 0 123 -33.5t46 -89.5q0 -29 -13.5 -51.5t-46 -49t-97.5 -70.5l-71 -48h237l-12 -76h-355z
M247 286v308l-121 -69l-37 64l170 102h83v-405h-95z" />
    <glyph glyph-name="onethird" unicode="&#x2153;" horiz-adv-x="1114" 
d="M279 0l420 691h114l-420 -691h-114zM821 172v73h57q38 0 58.5 13.5t20.5 38.5q0 51 -87 51q-42 0 -64.5 -13.5t-33.5 -47.5l-83 11q13 57 61.5 88.5t121.5 31.5q82 0 127.5 -30t45.5 -83q0 -31 -18 -52.5t-56 -37.5q85 -25 85 -98q0 -62 -48 -96t-135 -34q-84 0 -134 38
t-55 105h84q7 -39 31 -56t71 -17q97 0 97 61q0 28 -21 41t-68 13h-57zM247 286v308l-121 -69l-37 64l170 102h83v-405h-95z" />
    <glyph glyph-name="twothirds" unicode="&#x2154;" horiz-adv-x="1114" 
d="M308 0l420 691h114l-420 -691h-114zM821 172v73h57q38 0 58.5 13.5t20.5 38.5q0 51 -87 51q-42 0 -64.5 -13.5t-33.5 -47.5l-83 11q13 57 61.5 88.5t121.5 31.5q82 0 127.5 -30t45.5 -83q0 -31 -18 -52.5t-56 -37.5q85 -25 85 -98q0 -62 -48 -96t-135 -34q-84 0 -134 38
t-55 105h84q7 -39 31 -56t71 -17q97 0 97 61q0 28 -21 41t-68 13h-57zM65 286v67l148 102q56 38 78 56t29 31t7 29q0 29 -20.5 44.5t-57.5 15.5q-42 0 -66 -16.5t-34 -52.5l-87 11q16 64 65 97.5t127 33.5q77 0 123 -33.5t46 -89.5q0 -29 -13.5 -51.5t-46 -49t-97.5 -70.5
l-71 -48h237l-12 -76h-355z" />
    <glyph glyph-name="onequarter" unicode="&#xbc;" horiz-adv-x="1114" 
d="M303 0l420 691h114l-420 -691h-114zM923 0v93h-252v62l246 250h88v-244h74l-11 -68h-63v-93h-82zM923 323l-160 -162h160v162zM247 286v308l-121 -69l-37 64l170 102h83v-405h-95z" />
    <glyph glyph-name="threequarters" unicode="&#xbe;" horiz-adv-x="1114" 
d="M324 0l420 691h114l-420 -691h-114zM923 0v93h-252v62l246 250h88v-244h74l-11 -68h-63v-93h-82zM923 323l-160 -162h160v162zM199 458v73h57q38 0 58.5 13.5t20.5 38.5q0 51 -87 51q-42 0 -64.5 -13.5t-33.5 -47.5l-83 11q13 57 61.5 88.5t121.5 31.5q82 0 127.5 -30
t45.5 -83q0 -31 -18 -52.5t-56 -37.5q85 -25 85 -98q0 -62 -48 -96t-135 -34q-84 0 -134 38t-55 105h84q7 -39 31 -56t71 -17q97 0 97 61q0 28 -21 41t-68 13h-57z" />
    <glyph glyph-name="onefifth" unicode="&#x2155;" horiz-adv-x="1114" 
d="M273 0l420 691h114l-420 -691h-114zM800 329l-9 -96q17 13 44 20t59 7q77 0 120.5 -34.5t43.5 -96.5q0 -68 -46.5 -105t-131.5 -37q-52 0 -91.5 14t-63.5 41.5t-29 66.5h84q15 -52 98 -52q44 0 67.5 18.5t23.5 52.5q0 68 -91 68q-64 0 -97 -27h-70l23 236h292v-76h-226z
M247 286v308l-121 -69l-37 64l170 102h83v-405h-95z" />
    <glyph glyph-name="twofifths" unicode="&#x2156;" horiz-adv-x="1114" 
d="M314 0l420 691h114l-420 -691h-114zM800 329l-9 -96q17 13 44 20t59 7q77 0 120.5 -34.5t43.5 -96.5q0 -68 -46.5 -105t-131.5 -37q-52 0 -91.5 14t-63.5 41.5t-29 66.5h84q15 -52 98 -52q44 0 67.5 18.5t23.5 52.5q0 68 -91 68q-64 0 -97 -27h-70l23 236h292v-76h-226z
M65 286v67l148 102q56 38 78 56t29 31t7 29q0 29 -20.5 44.5t-57.5 15.5q-42 0 -66 -16.5t-34 -52.5l-87 11q16 64 65 97.5t127 33.5q77 0 123 -33.5t46 -89.5q0 -29 -13.5 -51.5t-46 -49t-97.5 -70.5l-71 -48h237l-12 -76h-355z" />
    <glyph glyph-name="threefifths" unicode="&#x2157;" horiz-adv-x="1114" 
d="M298 0l420 691h114l-420 -691h-114zM800 329l-9 -96q17 13 44 20t59 7q77 0 120.5 -34.5t43.5 -96.5q0 -68 -46.5 -105t-131.5 -37q-52 0 -91.5 14t-63.5 41.5t-29 66.5h84q15 -52 98 -52q44 0 67.5 18.5t23.5 52.5q0 68 -91 68q-64 0 -97 -27h-70l23 236h292v-76h-226z
M199 458v73h57q38 0 58.5 13.5t20.5 38.5q0 51 -87 51q-42 0 -64.5 -13.5t-33.5 -47.5l-83 11q13 57 61.5 88.5t121.5 31.5q82 0 127.5 -30t45.5 -83q0 -31 -18 -52.5t-56 -37.5q85 -25 85 -98q0 -62 -48 -96t-135 -34q-84 0 -134 38t-55 105h84q7 -39 31 -56t71 -17
q97 0 97 61q0 28 -21 41t-68 13h-57z" />
    <glyph glyph-name="fourfifths" unicode="&#x2158;" horiz-adv-x="1114" 
d="M303 0l420 691h114l-420 -691h-114zM800 329l-9 -96q17 13 44 20t59 7q77 0 120.5 -34.5t43.5 -96.5q0 -68 -46.5 -105t-131.5 -37q-52 0 -91.5 14t-63.5 41.5t-29 66.5h84q15 -52 98 -52q44 0 67.5 18.5t23.5 52.5q0 68 -91 68q-64 0 -97 -27h-70l23 236h292v-76h-226z
M301 286v93h-252v62l246 250h88v-244h74l-11 -68h-63v-93h-82zM301 609l-160 -162h160v162z" />
    <glyph glyph-name="onesixth" unicode="&#x2159;" horiz-adv-x="1114" 
d="M271 0l420 691h114l-420 -691h-114zM969 299q-10 26 -31.5 37.5t-57.5 11.5q-107 0 -115 -131q20 20 53.5 30.5t74.5 10.5q80 0 123 -33.5t43 -97.5t-51 -102t-138 -38q-91 0 -140.5 50t-49.5 141q0 114 53 177t149 63q71 0 112 -26.5t57 -82.5zM972 127q0 68 -94 68
q-50 0 -77.5 -17t-27.5 -48q0 -34 26 -53.5t73 -19.5t73.5 18.5t26.5 51.5zM247 286v308l-121 -69l-37 64l170 102h83v-405h-95z" />
    <glyph glyph-name="fivesixths" unicode="&#x215a;" horiz-adv-x="1114" 
d="M300 0l420 691h114l-420 -691h-114zM969 299q-10 26 -31.5 37.5t-57.5 11.5q-107 0 -115 -131q20 20 53.5 30.5t74.5 10.5q80 0 123 -33.5t43 -97.5t-51 -102t-138 -38q-91 0 -140.5 50t-49.5 141q0 114 53 177t149 63q71 0 112 -26.5t57 -82.5zM972 127q0 68 -94 68
q-50 0 -77.5 -17t-27.5 -48q0 -34 26 -53.5t73 -19.5t73.5 18.5t26.5 51.5zM178 615l-9 -96q17 13 44 20t59 7q77 0 120.5 -34.5t43.5 -96.5q0 -68 -46.5 -105t-131.5 -37q-52 0 -91.5 14t-63.5 41.5t-29 66.5h84q15 -52 98 -52q44 0 67.5 18.5t23.5 52.5q0 68 -91 68
q-64 0 -97 -27h-70l23 236h292v-76h-226z" />
    <glyph glyph-name="oneseventh" unicode="&#x2150;" horiz-adv-x="1114" 
d="M253 0l420 691h114l-420 -691h-114zM770 0q71 186 178 329h-267v76h365v-65q-120 -160 -179 -340h-97zM247 286v308l-121 -69l-37 64l170 102h83v-405h-95z" />
    <glyph glyph-name="twosevenths" unicode="&#xf507;" horiz-adv-x="1114" 
d="M282 0l420 691h114l-420 -691h-114zM770 0q71 186 178 329h-267v76h365v-65q-120 -160 -179 -340h-97zM65 286v67l148 102q56 38 78 56t29 31t7 29q0 29 -20.5 44.5t-57.5 15.5q-42 0 -66 -16.5t-34 -52.5l-87 11q16 64 65 97.5t127 33.5q77 0 123 -33.5t46 -89.5
q0 -29 -13.5 -51.5t-46 -49t-97.5 -70.5l-71 -48h237l-12 -76h-355z" />
    <glyph glyph-name="threesevenths" unicode="&#xf508;" horiz-adv-x="1114" 
d="M274 0l420 691h114l-420 -691h-114zM770 0q71 186 178 329h-267v76h365v-65q-120 -160 -179 -340h-97zM199 458v73h57q38 0 58.5 13.5t20.5 38.5q0 51 -87 51q-42 0 -64.5 -13.5t-33.5 -47.5l-83 11q13 57 61.5 88.5t121.5 31.5q82 0 127.5 -30t45.5 -83q0 -31 -18 -52.5
t-56 -37.5q85 -25 85 -98q0 -62 -48 -96t-135 -34q-84 0 -134 38t-55 105h84q7 -39 31 -56t71 -17q97 0 97 61q0 28 -21 41t-68 13h-57z" />
    <glyph glyph-name="foursevenths" unicode="&#xf509;" horiz-adv-x="1114" 
d="M273 0l420 691h114l-420 -691h-114zM770 0q71 186 178 329h-267v76h365v-65q-120 -160 -179 -340h-97zM301 286v93h-252v62l246 250h88v-244h74l-11 -68h-63v-93h-82zM301 609l-160 -162h160v162z" />
    <glyph glyph-name="fivesevenths" unicode="&#xf50a;" horiz-adv-x="1114" 
d="M267 0l420 691h114l-420 -691h-114zM770 0q71 186 178 329h-267v76h365v-65q-120 -160 -179 -340h-97zM178 615l-9 -96q17 13 44 20t59 7q77 0 120.5 -34.5t43.5 -96.5q0 -68 -46.5 -105t-131.5 -37q-52 0 -91.5 14t-63.5 41.5t-29 66.5h84q15 -52 98 -52q44 0 67.5 18.5
t23.5 52.5q0 68 -91 68q-64 0 -97 -27h-70l23 236h292v-76h-226z" />
    <glyph glyph-name="sixsevenths" unicode="&#xf50b;" horiz-adv-x="1114" 
d="M272 0l420 691h114l-420 -691h-114zM770 0q71 186 178 329h-267v76h365v-65q-120 -160 -179 -340h-97zM347 585q-10 26 -31.5 37.5t-57.5 11.5q-107 0 -115 -131q20 20 53.5 30.5t74.5 10.5q80 0 123 -33.5t43 -97.5t-51 -102t-138 -38q-91 0 -140.5 50t-49.5 141
q0 114 53 177t149 63q71 0 112 -26.5t57 -82.5zM350 413q0 68 -94 68q-50 0 -77.5 -17t-27.5 -48q0 -34 26 -53.5t73 -19.5t73.5 18.5t26.5 51.5z" />
    <glyph glyph-name="oneeighth" unicode="&#x215b;" horiz-adv-x="1114" 
d="M271 0l420 691h114l-420 -691h-114zM977 210q84 -27 84 -99q0 -61 -49 -92.5t-144 -31.5q-192 0 -192 124q0 35 21.5 60.5t62.5 38.5q-67 28 -67 90q0 56 47 87t130 31t128.5 -31t45.5 -86q0 -30 -17.5 -54t-49.5 -37zM960 297q0 55 -93 55q-90 0 -90 -56
q0 -30 21.5 -43.5t68.5 -13.5q49 0 71 14t22 44zM974 113q0 62 -107 62q-53 0 -78.5 -15t-25.5 -47q0 -29 26.5 -44.5t77.5 -15.5q52 0 79.5 15.5t27.5 44.5zM247 286v308l-121 -69l-37 64l170 102h83v-405h-95z" />
    <glyph glyph-name="threeeighths" unicode="&#x215c;" horiz-adv-x="1114" 
d="M297 0l420 691h114l-420 -691h-114zM977 210q84 -27 84 -99q0 -61 -49 -92.5t-144 -31.5q-192 0 -192 124q0 35 21.5 60.5t62.5 38.5q-67 28 -67 90q0 56 47 87t130 31t128.5 -31t45.5 -86q0 -30 -17.5 -54t-49.5 -37zM960 297q0 55 -93 55q-90 0 -90 -56
q0 -30 21.5 -43.5t68.5 -13.5q49 0 71 14t22 44zM974 113q0 62 -107 62q-53 0 -78.5 -15t-25.5 -47q0 -29 26.5 -44.5t77.5 -15.5q52 0 79.5 15.5t27.5 44.5zM199 458v73h57q38 0 58.5 13.5t20.5 38.5q0 51 -87 51q-42 0 -64.5 -13.5t-33.5 -47.5l-83 11q13 57 61.5 88.5
t121.5 31.5q82 0 127.5 -30t45.5 -83q0 -31 -18 -52.5t-56 -37.5q85 -25 85 -98q0 -62 -48 -96t-135 -34q-84 0 -134 38t-55 105h84q7 -39 31 -56t71 -17q97 0 97 61q0 28 -21 41t-68 13h-57z" />
    <glyph glyph-name="fiveeighths" unicode="&#x215d;" horiz-adv-x="1114" 
d="M294 0l420 691h114l-420 -691h-114zM977 210q84 -27 84 -99q0 -61 -49 -92.5t-144 -31.5q-192 0 -192 124q0 35 21.5 60.5t62.5 38.5q-67 28 -67 90q0 56 47 87t130 31t128.5 -31t45.5 -86q0 -30 -17.5 -54t-49.5 -37zM960 297q0 55 -93 55q-90 0 -90 -56
q0 -30 21.5 -43.5t68.5 -13.5q49 0 71 14t22 44zM974 113q0 62 -107 62q-53 0 -78.5 -15t-25.5 -47q0 -29 26.5 -44.5t77.5 -15.5q52 0 79.5 15.5t27.5 44.5zM178 615l-9 -96q17 13 44 20t59 7q77 0 120.5 -34.5t43.5 -96.5q0 -68 -46.5 -105t-131.5 -37q-52 0 -91.5 14
t-63.5 41.5t-29 66.5h84q15 -52 98 -52q44 0 67.5 18.5t23.5 52.5q0 68 -91 68q-64 0 -97 -27h-70l23 236h292v-76h-226z" />
    <glyph glyph-name="seveneighths" unicode="&#x215e;" horiz-adv-x="1114" 
d="M252 0l420 691h114l-420 -691h-114zM977 210q84 -27 84 -99q0 -61 -49 -92.5t-144 -31.5q-192 0 -192 124q0 35 21.5 60.5t62.5 38.5q-67 28 -67 90q0 56 47 87t130 31t128.5 -31t45.5 -86q0 -30 -17.5 -54t-49.5 -37zM960 297q0 55 -93 55q-90 0 -90 -56
q0 -30 21.5 -43.5t68.5 -13.5q49 0 71 14t22 44zM974 113q0 62 -107 62q-53 0 -78.5 -15t-25.5 -47q0 -29 26.5 -44.5t77.5 -15.5q52 0 79.5 15.5t27.5 44.5zM148 286q71 186 178 329h-267v76h365v-65q-120 -160 -179 -340h-97z" />
    <glyph glyph-name="oneninth" unicode="&#x2151;" horiz-adv-x="1114" 
d="M269 0l420 691h114l-420 -691h-114zM773 104q8 -25 30 -36t63 -11q56 0 82.5 32.5t26.5 99.5q-20 -20 -53.5 -31t-74.5 -11q-80 0 -122.5 33.5t-42.5 96.5q0 64 51.5 102.5t136.5 38.5q90 0 140 -52t50 -146q0 -118 -48.5 -175.5t-146.5 -57.5q-80 0 -123 28.5t-56 88.5
h87zM968 275q0 34 -26 53.5t-73 19.5t-73.5 -18.5t-26.5 -51.5q0 -68 94 -68q50 0 77.5 17t27.5 48zM247 286v308l-121 -69l-37 64l170 102h83v-405h-95z" />
    <glyph glyph-name="twoninths" unicode="&#xf50d;" horiz-adv-x="1114" 
d="M308 0l420 691h114l-420 -691h-114zM773 104q8 -25 30 -36t63 -11q56 0 82.5 32.5t26.5 99.5q-20 -20 -53.5 -31t-74.5 -11q-80 0 -122.5 33.5t-42.5 96.5q0 64 51.5 102.5t136.5 38.5q90 0 140 -52t50 -146q0 -118 -48.5 -175.5t-146.5 -57.5q-80 0 -123 28.5t-56 88.5
h87zM968 275q0 34 -26 53.5t-73 19.5t-73.5 -18.5t-26.5 -51.5q0 -68 94 -68q50 0 77.5 17t27.5 48zM65 286v67l148 102q56 38 78 56t29 31t7 29q0 29 -20.5 44.5t-57.5 15.5q-42 0 -66 -16.5t-34 -52.5l-87 11q16 64 65 97.5t127 33.5q77 0 123 -33.5t46 -89.5
q0 -29 -13.5 -51.5t-46 -49t-97.5 -70.5l-71 -48h237l-12 -76h-355z" />
    <glyph glyph-name="fourninths" unicode="&#xf50e;" horiz-adv-x="1114" 
d="M295 0l420 691h114l-420 -691h-114zM773 104q8 -25 30 -36t63 -11q56 0 82.5 32.5t26.5 99.5q-20 -20 -53.5 -31t-74.5 -11q-80 0 -122.5 33.5t-42.5 96.5q0 64 51.5 102.5t136.5 38.5q90 0 140 -52t50 -146q0 -118 -48.5 -175.5t-146.5 -57.5q-80 0 -123 28.5t-56 88.5
h87zM968 275q0 34 -26 53.5t-73 19.5t-73.5 -18.5t-26.5 -51.5q0 -68 94 -68q50 0 77.5 17t27.5 48zM301 286v93h-252v62l246 250h88v-244h74l-11 -68h-63v-93h-82zM301 609l-160 -162h160v162z" />
    <glyph glyph-name="fiveninths" unicode="&#xf50f;" horiz-adv-x="1114" 
d="M290 0l420 691h114l-420 -691h-114zM773 104q8 -25 30 -36t63 -11q56 0 82.5 32.5t26.5 99.5q-20 -20 -53.5 -31t-74.5 -11q-80 0 -122.5 33.5t-42.5 96.5q0 64 51.5 102.5t136.5 38.5q90 0 140 -52t50 -146q0 -118 -48.5 -175.5t-146.5 -57.5q-80 0 -123 28.5t-56 88.5
h87zM968 275q0 34 -26 53.5t-73 19.5t-73.5 -18.5t-26.5 -51.5q0 -68 94 -68q50 0 77.5 17t27.5 48zM178 615l-9 -96q17 13 44 20t59 7q77 0 120.5 -34.5t43.5 -96.5q0 -68 -46.5 -105t-131.5 -37q-52 0 -91.5 14t-63.5 41.5t-29 66.5h84q15 -52 98 -52q44 0 67.5 18.5
t23.5 52.5q0 68 -91 68q-64 0 -97 -27h-70l23 236h292v-76h-226z" />
    <glyph glyph-name="sevenninths" unicode="&#xf510;" horiz-adv-x="1114" 
d="M247 0l420 691h114l-420 -691h-114zM773 104q8 -25 30 -36t63 -11q56 0 82.5 32.5t26.5 99.5q-20 -20 -53.5 -31t-74.5 -11q-80 0 -122.5 33.5t-42.5 96.5q0 64 51.5 102.5t136.5 38.5q90 0 140 -52t50 -146q0 -118 -48.5 -175.5t-146.5 -57.5q-80 0 -123 28.5t-56 88.5
h87zM968 275q0 34 -26 53.5t-73 19.5t-73.5 -18.5t-26.5 -51.5q0 -68 94 -68q50 0 77.5 17t27.5 48zM148 286q71 186 178 329h-267v76h365v-65q-120 -160 -179 -340h-97z" />
    <glyph glyph-name="eightninths" unicode="&#xf511;" horiz-adv-x="1114" 
d="M295 0l420 691h114l-420 -691h-114zM773 104q8 -25 30 -36t63 -11q56 0 82.5 32.5t26.5 99.5q-20 -20 -53.5 -31t-74.5 -11q-80 0 -122.5 33.5t-42.5 96.5q0 64 51.5 102.5t136.5 38.5q90 0 140 -52t50 -146q0 -118 -48.5 -175.5t-146.5 -57.5q-80 0 -123 28.5t-56 88.5
h87zM968 275q0 34 -26 53.5t-73 19.5t-73.5 -18.5t-26.5 -51.5q0 -68 94 -68q50 0 77.5 17t27.5 48zM355 496q84 -27 84 -99q0 -61 -49 -92.5t-144 -31.5q-192 0 -192 124q0 35 21.5 60.5t62.5 38.5q-67 28 -67 90q0 56 47 87t130 31t128.5 -31t45.5 -86q0 -30 -17.5 -54
t-49.5 -37zM338 583q0 55 -93 55q-90 0 -90 -56q0 -30 21.5 -43.5t68.5 -13.5q49 0 71 14t22 44zM352 399q0 62 -107 62q-53 0 -78.5 -15t-25.5 -47q0 -29 26.5 -44.5t77.5 -15.5q52 0 79.5 15.5t27.5 44.5z" />
    <glyph glyph-name="dollar" unicode="$" horiz-adv-x="700" 
d="M325 -113v97q-258 14 -284 222h116q10 -58 53 -91.5t115 -39.5v221l-29 4q-118 16 -175.5 68t-57.5 143q0 87 69.5 139.5t192.5 59.5v86h72v-86q226 -13 259 -190l-109 -16q-17 54 -53 81.5t-97 33.5v-217l31 -4q122 -16 180 -67.5t58 -142.5t-70.5 -145t-198.5 -60v-96
h-72zM398 291v-217q73 5 111.5 33.5t38.5 77.5q0 47 -30 70.5t-98 32.5zM325 619q-72 -3 -110.5 -29t-38.5 -72q0 -49 31.5 -75t100.5 -34l17 -2v212z" />
    <glyph glyph-name="cent" unicode="&#xa2;" horiz-adv-x="700" 
d="M328 -16v93q-128 9 -198.5 80.5t-70.5 192.5q0 78 31.5 137.5t92 95.5t145.5 43v87h72v-87q99 -7 159 -52t77 -126l-114 -15q-12 47 -41.5 72.5t-80.5 30.5v-369q56 5 87.5 31t41.5 76h116q-14 -88 -76.5 -138.5t-168.5 -58.5v-93h-72zM328 534q-73 -8 -111 -55t-38 -127
q0 -82 37.5 -128t111.5 -54v364z" />
    <glyph glyph-name="sterling" unicode="&#xa3;" horiz-adv-x="700" 
d="M81 0v89q40 30 57.5 66.5t17.5 86.5q0 27 -4 58h-97v94h80q-13 61 -13 99q0 100 73 158.5t199 58.5q219 0 255 -173l-108 -16q-18 50 -50.5 69.5t-94.5 19.5q-73 0 -114.5 -31.5t-41.5 -88.5q0 -21 2.5 -40t9.5 -56h276v-94h-260q4 -21 4 -52q0 -44 -14.5 -78.5
t-45.5 -66.5h453l-17 -103h-567z" />
    <glyph glyph-name="yen" unicode="&#xa5;" horiz-adv-x="700" 
d="M409 147v-147h-118v147h-221v78h221v69l-9 12h-212v78h160l-217 307h132l207 -302l206 302h129l-217 -307h160v-78h-212l-9 -12v-69h221v-78h-221z" />
    <glyph glyph-name="Euro" unicode="&#x20ac;" horiz-adv-x="700" 
d="M693 204q-32 -222 -284 -222q-128 0 -204.5 63t-96.5 185h-91l18 74h67q-2 24 -2 41q0 27 2 41h-85l18 74h77q24 122 101 186t200 64q118 0 182 -47t88 -149l-110 -16q-19 63 -55.5 88.5t-108.5 25.5t-118.5 -39.5t-61.5 -112.5h289l-18 -74h-281q-2 -14 -2 -41
q0 -17 2 -41h266l-18 -74h-241q33 -150 185 -150q75 0 114 28.5t53 95.5h115z" />
    <glyph glyph-name="uni20B9" unicode="&#x20b9;" horiz-adv-x="700" 
d="M455 0l-363 264v79h166q94 0 139.5 21t55.5 70h-361v82h360q-21 91 -174 91h-186v84h583l-12 -82h-148q43 -34 52 -93h83l-12 -82h-69q-23 -169 -283 -172h-17l357 -262h-171z" />
    <glyph glyph-name="uni20BA" unicode="&#x20ba;" horiz-adv-x="700" 
d="M659 310q-10 -146 -109 -228t-268 -82h-136v276l-80 -25l-21 69l101 31v71l-80 -25l-21 69l101 31v194h123v-159l207 63l21 -69l-228 -69v-71l207 63l21 -69l-228 -69v-208h13q113 0 179.5 53.5t75.5 153.5h122z" />
    <glyph glyph-name="currency" unicode="&#xa4;" horiz-adv-x="700" 
d="M541 56l-65 68q-52 -32 -126 -32t-126 32l-65 -68l-74 68l64 68q-44 64 -44 152q0 87 44 151l-64 68l74 68l65 -68q52 32 126 32t126 -32l65 68l74 -68l-64 -68q44 -64 44 -151q0 -88 -44 -152l64 -68zM350 179q69 0 106 43t37 122t-37 121.5t-106 42.5t-106 -42.5
t-37 -121.5t37 -122t106 -43z" />
    <glyph glyph-name="asciicircum" unicode="^" horiz-adv-x="700" 
d="M523 302l-175 300l-175 -300h-122l246 412h105l246 -412h-125z" />
    <glyph glyph-name="plus" unicode="+" horiz-adv-x="700" 
d="M296 65v225h-222v101h222v225h108v-225h222v-101h-222v-225h-108z" />
    <glyph glyph-name="minus" unicode="&#x2212;" horiz-adv-x="700" 
d="M90 289v103h520v-103h-520z" />
    <glyph glyph-name="plusminus" unicode="&#xb1;" horiz-adv-x="700" 
d="M90 0v97h206v201h-220v97h220v221h108v-221h220v-97h-220v-201h206v-97h-520z" />
    <glyph glyph-name="equal" unicode="=" horiz-adv-x="700" 
d="M90 176v103h520v-103h-520zM90 403v103h520v-103h-520z" />
    <glyph glyph-name="notequal" unicode="&#x2260;" horiz-adv-x="700" 
d="M293 176l-66 -101h-102l66 101h-101v103h168l82 124h-250v103h317l66 101h102l-66 -101h101v-103h-168l-82 -124h250v-103h-317z" />
    <glyph glyph-name="divide" unicode="&#xf7;" horiz-adv-x="700" 
d="M74 290v101h552v-101h-552zM291 92v123h118v-123h-118zM291 466v123h118v-123h-118z" />
    <glyph glyph-name="less" unicode="&#x3c;" horiz-adv-x="700" 
d="M82 294v92l520 223v-107l-384 -161l384 -160v-110z" />
    <glyph glyph-name="greater" unicode="&#x3e;" horiz-adv-x="700" 
d="M98 71v107l384 161l-384 160v110l520 -223v-92z" />
    <glyph glyph-name="lessequal" unicode="&#x2264;" horiz-adv-x="700" 
d="M82 341v92l520 204v-103l-393 -146l393 -145v-106zM82 0v97h520v-97h-520z" />
    <glyph glyph-name="greaterequal" unicode="&#x2265;" horiz-adv-x="700" 
d="M98 137v103l393 146l-393 145v106l520 -204v-92zM98 0v97h520v-97h-520z" />
    <glyph glyph-name="asciitilde" unicode="~" horiz-adv-x="700" 
d="M664 432q0 -98 -45 -148t-132 -50q-40 0 -77 13.5t-81 44.5q-38 27 -63 37.5t-51 10.5q-37 0 -56 -24t-19 -69h-104q0 98 45 148t132 50q40 0 77 -13.5t81 -44.5q38 -27 63 -37.5t51 -10.5q37 0 56 24t19 69h104z" />
    <glyph glyph-name="approxequal" unicode="&#x2248;" horiz-adv-x="700" 
d="M664 290q0 -98 -45 -148t-132 -50q-40 0 -77 13.5t-81 44.5q-38 27 -63 37.5t-51 10.5q-37 0 -56 -24t-19 -69h-104q0 98 45 148t132 50q40 0 77 -13.5t81 -44.5q38 -27 63 -37.5t51 -10.5q37 0 56 24t19 69h104zM664 544q0 -98 -45 -148t-132 -50q-40 0 -77 13.5
t-81 44.5q-38 27 -63 37.5t-51 10.5q-37 0 -56 -24t-19 -69h-104q0 98 45 148t132 50q40 0 77 -13.5t81 -44.5q38 -27 63 -37.5t51 -10.5q37 0 56 24t19 69h104z" />
    <glyph glyph-name="multiply" unicode="&#xd7;" horiz-adv-x="700" 
d="M350 270l-173 -169l-72 72l173 169l-173 169l72 72l173 -169l173 169l72 -72l-173 -169l173 -169l-72 -72z" />
    <glyph glyph-name="underscore" unicode="_" horiz-adv-x="610" 
d="M0 -175v52h610v-52h-610z" />
    <glyph glyph-name="section" unicode="&#xa7;" horiz-adv-x="631" 
d="M250 144q-114 24 -160.5 61t-46.5 104q0 51 29.5 85t85.5 48q-58 19 -84.5 50.5t-26.5 80.5q0 75 70.5 117t197.5 42q116 0 183.5 -37t89.5 -113l-115 -15q-15 40 -52 57t-107 17q-78 0 -115 -16t-37 -51q0 -29 25.5 -47t87.5 -31l110 -23q78 -16 123 -37.5t65 -51.5
t20 -74q0 -103 -113 -136q110 -34 110 -132q0 -79 -67.5 -121t-194.5 -42q-133 0 -205 44t-89 136h118q12 -47 52 -67t121 -20q78 0 113.5 16.5t35.5 52.5q0 30 -24.5 47t-88.5 32zM328 223q30 -6 50 -6q52 0 79.5 21.5t27.5 61.5q0 33 -26.5 51.5t-94.5 32.5l-56 12
q-30 6 -50 6q-52 0 -79.5 -21.5t-27.5 -61.5q0 -33 26.5 -51.5t94.5 -32.5z" />
    <glyph glyph-name="degree" unicode="&#xb0;" horiz-adv-x="400" 
d="M369 549q0 -73 -47 -119t-122 -46t-122 46t-47 119t47 119t122 46t122 -46t47 -119zM200 464q36 0 58.5 23.5t22.5 61.5t-22.5 61.5t-58.5 23.5t-58.5 -23.5t-22.5 -61.5t22.5 -61.5t58.5 -23.5z" />
    <glyph glyph-name="mu" unicode="&#xb5;" horiz-adv-x="702" 
d="M505 0v86q-41 -51 -90 -75t-111 -24q-70 0 -105 30v-211h-120v714h120v-318q0 -61 30.5 -91t93.5 -30q75 0 133 51q47 42 47 103v285h120v-520h-118z" />
    <glyph glyph-name="paragraph" unicode="&#xb6;" horiz-adv-x="760" 
d="M553 -139v756h-136v-756h-115v413q-140 6 -209 60t-69 158q0 116 81 169t259 53h304v-853h-115z" />
    <glyph glyph-name="numbersign" unicode="#" horiz-adv-x="700" 
d="M387 0l28 165h-190l-28 -165h-104l28 165h-104v89h118l31 183h-106v89h121l28 165h104l-28 -165h190l28 165h104l-28 -165h104v-89h-118l-31 -183h106v-89h-121l-28 -165h-104zM461 437h-191l-31 -183h191z" />
    <glyph glyph-name="bar" unicode="|" horiz-adv-x="298" 
d="M93 -124v858h112v-858h-112z" />
    <glyph glyph-name="brokenbar" unicode="&#xa6;" horiz-adv-x="298" 
d="M93 -124v353h112v-353h-112zM93 398v336h112v-336h-112z" />
    <glyph glyph-name="dagger" unicode="&#x2020;" horiz-adv-x="570" 
d="M225 -87v512h-210v104h210v185h120v-185h210v-104h-210v-512h-120z" />
    <glyph glyph-name="daggerdbl" unicode="&#x2021;" horiz-adv-x="574" 
d="M347 95v-182h-120v182h-210v104h210v229h-210v104h210v182h120v-182h210v-104h-210v-229h210v-104h-210z" />
    <glyph glyph-name="logicalnot" unicode="&#xac;" horiz-adv-x="700" 
d="M505 159v179h-443v101h551v-280h-108z" />
    <glyph glyph-name="ampersand" unicode="&#x26;" horiz-adv-x="784" 
d="M642 0l-61 57q-46 -35 -108.5 -54t-134.5 -19q-148 0 -226 53t-78 153q0 127 184 209q-46 49 -65 85.5t-19 74.5q0 45 26 81.5t74.5 58t111.5 21.5q91 0 146.5 -42t55.5 -110q0 -59 -38 -102.5t-128 -88.5l198 -185q22 33 32.5 68.5t12.5 82.5h105q-3 -128 -76 -218
l135 -125h-147zM283 335q-67 -31 -97.5 -63.5t-30.5 -70.5q0 -62 48.5 -94t143.5 -32q97 0 161 49zM321 435q70 34 96.5 60.5t26.5 61.5t-26 56.5t-71 21.5q-49 0 -76.5 -20.5t-27.5 -57.5q0 -29 18 -56.5t60 -65.5z" />
    <glyph glyph-name="asterisk" unicode="*" horiz-adv-x="466" 
d="M314 319l-81 127l-81 -127l-87 64l109 113l-141 39l41 98l120 -64l-17 145h112l-17 -145l120 64l41 -98l-141 -39l109 -113z" />
    <glyph glyph-name="hyphen" unicode="-" horiz-adv-x="476" 
d="M50 240v109h376v-109h-376z" />
    <glyph glyph-name="endash" unicode="&#x2013;" horiz-adv-x="610" 
d="M0 242v105h610v-105h-610z" />
    <glyph glyph-name="emdash" unicode="&#x2014;" horiz-adv-x="1220" 
d="M0 242v105h1220v-105h-1220z" />
    <glyph glyph-name="parenleft" unicode="(" horiz-adv-x="336" 
d="M201 -124q-145 180 -145 429t145 429h115q-70 -104 -101.5 -205.5t-31.5 -223.5t31.5 -223.5t101.5 -205.5h-115z" />
    <glyph glyph-name="parenright" unicode=")" horiz-adv-x="336" 
d="M20 -124q70 104 101.5 205.5t31.5 223.5t-31.5 223.5t-101.5 205.5h115q145 -180 145 -429t-145 -429h-115z" />
    <glyph glyph-name="slash" unicode="/" horiz-adv-x="417" 
d="M8 0l282 734h119l-282 -734h-119z" />
    <glyph glyph-name="backslash" unicode="\" horiz-adv-x="417" 
d="M409 0h-119l-282 734h119z" />
    <glyph glyph-name="bracketleft" unicode="[" horiz-adv-x="378" 
d="M93 -124v858h263v-98h-141v-662h141v-98h-263z" />
    <glyph glyph-name="bracketright" unicode="]" horiz-adv-x="378" 
d="M285 -124h-263v98h141v662h-141v98h263v-858z" />
    <glyph glyph-name="braceleft" unicode="{" horiz-adv-x="379" 
d="M273 -124q-81 0 -121 34.5t-40 104.5v169q0 73 -81 73h-9v96h9q81 0 81 73v169q0 70 40 104.5t121 34.5h91v-98h-68q-64 0 -64 -55v-175q0 -43 -20.5 -68t-62.5 -33q42 -8 62.5 -33t20.5 -68v-175q0 -55 64 -55h68v-98h-91z" />
    <glyph glyph-name="braceright" unicode="}" horiz-adv-x="379" 
d="M267 15q0 -70 -40 -104.5t-121 -34.5h-91v98h68q64 0 64 55v175q0 43 20.5 68t62.5 33q-42 8 -62.5 33t-20.5 68v175q0 55 -64 55h-68v98h91q81 0 121 -34.5t40 -104.5v-169q0 -73 81 -73h9v-96h-9q-81 0 -81 -73v-169z" />
    <glyph glyph-name="bullet" unicode="&#x2022;" horiz-adv-x="406" 
d="M363 294q0 -66 -44 -106.5t-116 -40.5t-116 40.5t-44 106.5t44 106.5t116 40.5t116 -40.5t44 -106.5z" />
    <glyph glyph-name="guilsinglleft" unicode="&#x2039;" horiz-adv-x="372" 
d="M203 31l-166 225l166 225h125l-156 -224l158 -226h-127z" />
    <glyph glyph-name="guilsinglright" unicode="&#x203a;" horiz-adv-x="372" 
d="M44 31l156 224l-158 226h127l166 -225l-166 -225h-125z" />
    <glyph glyph-name="guillemotleft" unicode="&#xab;" horiz-adv-x="624" 
d="M203 31l-166 225l166 225h125l-156 -224l158 -226h-127zM455 31l-166 225l166 225h125l-156 -224l158 -226h-127z" />
    <glyph glyph-name="guillemotright" unicode="&#xbb;" horiz-adv-x="624" 
d="M44 31l156 224l-158 226h127l166 -225l-166 -225h-125zM296 31l156 224l-158 226h127l166 -225l-166 -225h-125z" />
    <glyph glyph-name="at" unicode="@" horiz-adv-x="1135" 
d="M941 -54q-59 -80 -165.5 -121.5t-250.5 -41.5q-145 0 -251.5 47t-164 137.5t-57.5 216.5q0 139 69 252t196 180t290 67q106 0 193 -25.5t150.5 -75t98 -121.5t34.5 -162q0 -88 -31.5 -158t-89.5 -110.5t-134 -40.5q-63 0 -97.5 21t-47.5 69q-32 -44 -78.5 -67t-104.5 -23
q-90 0 -142.5 52.5t-52.5 143.5q0 75 32.5 138.5t92 102t134.5 38.5q56 0 95.5 -20t58.5 -58l12 67h105l-56 -307q-4 -23 -4 -32q0 -26 15 -37.5t47 -11.5q67 0 109.5 63t42.5 164q0 144 -102 226t-282 82q-129 0 -231.5 -50.5t-162 -144t-59.5 -215.5q0 -158 100 -242
t288 -84q91 0 154.5 19t116.5 62h130zM686 241q3 20 3 43q0 42 -32 68.5t-82 26.5q-70 0 -114.5 -52.5t-44.5 -133.5q0 -57 27.5 -86.5t79.5 -29.5q62 0 104 33t52 90z" />
    <glyph glyph-name="periodcentered" unicode="&#xb7;" horiz-adv-x="279" 
d="M77 302v142h125v-142h-125z" />
    <glyph glyph-name="hyphen.case" horiz-adv-x="476" 
d="M50 306v109h376v-109h-376z" />
    <glyph glyph-name="endash.case" horiz-adv-x="610" 
d="M0 308v105h610v-105h-610z" />
    <glyph glyph-name="emdash.case" horiz-adv-x="1220" 
d="M0 308v105h1220v-105h-1220z" />
    <glyph glyph-name="parenleft.case" horiz-adv-x="336" 
d="M201 -72q-145 180 -145 429t145 429h115q-70 -104 -101.5 -205.5t-31.5 -223.5t31.5 -223.5t101.5 -205.5h-115z" />
    <glyph glyph-name="parenright.case" horiz-adv-x="336" 
d="M20 -72q70 104 101.5 205.5t31.5 223.5t-31.5 223.5t-101.5 205.5h115q145 -180 145 -429t-145 -429h-115z" />
    <glyph glyph-name="slash.case" horiz-adv-x="417" 
d="M8 -9l282 734h119l-282 -734h-119z" />
    <glyph glyph-name="backslash.case" horiz-adv-x="417" 
d="M409 -9h-119l-282 734h119z" />
    <glyph glyph-name="bracketleft.case" horiz-adv-x="378" 
d="M93 -72v858h263v-98h-141v-662h141v-98h-263z" />
    <glyph glyph-name="bracketright.case" horiz-adv-x="378" 
d="M285 -72h-263v98h141v662h-141v98h263v-858z" />
    <glyph glyph-name="braceleft.case" horiz-adv-x="379" 
d="M273 -72q-81 0 -121 34.5t-40 104.5v169q0 73 -81 73h-9v96h9q81 0 81 73v169q0 70 40 104.5t121 34.5h91v-98h-68q-64 0 -64 -55v-175q0 -43 -20.5 -68t-62.5 -33q42 -8 62.5 -33t20.5 -68v-175q0 -55 64 -55h68v-98h-91z" />
    <glyph glyph-name="braceright.case" horiz-adv-x="379" 
d="M267 67q0 -70 -40 -104.5t-121 -34.5h-91v98h68q64 0 64 55v175q0 43 20.5 68t62.5 33q-42 8 -62.5 33t-20.5 68v175q0 55 -64 55h-68v98h91q81 0 121 -34.5t40 -104.5v-169q0 -73 81 -73h9v-96h-9q-81 0 -81 -73v-169z" />
    <glyph glyph-name="bullet.case" horiz-adv-x="406" 
d="M363 357q0 -66 -44 -106.5t-116 -40.5t-116 40.5t-44 106.5t44 106.5t116 40.5t116 -40.5t44 -106.5z" />
    <glyph glyph-name="guilsinglleft.case" horiz-adv-x="372" 
d="M203 131l-166 225l166 225h125l-156 -224l158 -226h-127z" />
    <glyph glyph-name="guilsinglright.case" horiz-adv-x="372" 
d="M44 131l156 224l-158 226h127l166 -225l-166 -225h-125z" />
    <glyph glyph-name="guillemotleft.case" horiz-adv-x="624" 
d="M203 131l-166 225l166 225h125l-156 -224l158 -226h-127zM455 131l-166 225l166 225h125l-156 -224l158 -226h-127z" />
    <glyph glyph-name="guillemotright.case" horiz-adv-x="624" 
d="M44 131l156 224l-158 226h127l166 -225l-166 -225h-125zM296 131l156 224l-158 226h127l166 -225l-166 -225h-125z" />
    <glyph glyph-name="at.case" horiz-adv-x="1143" 
d="M945 70q-59 -80 -165.5 -121.5t-250.5 -41.5q-145 0 -251.5 47t-164 137.5t-57.5 216.5q0 139 69 252t196 180t290 67q106 0 193 -25.5t150.5 -75t98 -121.5t34.5 -162q0 -88 -31.5 -158t-89.5 -110.5t-134 -40.5q-63 0 -97.5 21t-47.5 69q-32 -44 -78.5 -67t-104.5 -23
q-90 0 -142.5 52.5t-52.5 143.5q0 75 32.5 138.5t92 102t134.5 38.5q56 0 95.5 -20t58.5 -58l12 67h105l-56 -307q-4 -23 -4 -32q0 -26 15 -37.5t47 -11.5q67 0 109.5 63t42.5 164q0 144 -102 226t-282 82q-129 0 -231.5 -50.5t-162 -144t-59.5 -215.5q0 -158 100 -242
t288 -84q91 0 154.5 19t116.5 62h130zM690 365q3 20 3 43q0 42 -32 68.5t-82 26.5q-70 0 -114.5 -52.5t-44.5 -133.5q0 -57 27.5 -86.5t79.5 -29.5q62 0 104 33t52 90z" />
    <glyph glyph-name="periodcentered.case" horiz-adv-x="279" 
d="M77 285v142h125v-142h-125z" />
    <glyph glyph-name="questiondown.case" horiz-adv-x="636" 
d="M605 184q-20 -97 -93.5 -146.5t-196.5 -49.5t-192 49t-69 136q0 58 27 101.5t91 89.5q44 31 64 50.5t27.5 36t7.5 37.5v11h114v-12q0 -53 -25.5 -92t-89.5 -84q-57 -41 -74.5 -64t-17.5 -56q0 -50 36 -77t104 -27q75 0 116 26t59 85zM266 572v142h125v-142h-125z" />
    <glyph glyph-name="exclamdown.case" horiz-adv-x="281" 
d="M77 0l6 499h114l7 -499h-127zM77 572v142h125v-142h-125z" />
    <glyph glyph-name="uni2010" unicode="&#x2010;" horiz-adv-x="476" 
d="M50 240v109h376v-109h-376z" />
    <glyph glyph-name="uni2012" unicode="&#x2012;" horiz-adv-x="700" 
d="M45 295v105h610v-105h-610z" />
    <glyph glyph-name="uni2015" unicode="&#x2015;" horiz-adv-x="1220" 
d="M0 242v105h1220v-105h-1220z" />
    <glyph glyph-name="uni00AD" unicode="&#xad;" horiz-adv-x="476" 
d="M50 240v109h376v-109h-376z" />
    <glyph glyph-name="A" unicode="A" horiz-adv-x="842" 
d="M690 0l-82 179h-377l-83 -179h-133l337 714h138l337 -714h-137zM419 593l-144 -310h286z" />
    <glyph glyph-name="B" unicode="B" horiz-adv-x="790" 
d="M93 0v714h331q286 0 286 -183q0 -114 -117 -153q145 -48 145 -170q0 -102 -76 -155t-223 -53h-346zM430 421q79 0 117.5 24t38.5 76q0 50 -39 72t-127 22h-204v-194h214zM433 99q94 0 136.5 26.5t42.5 84.5t-43 85.5t-134 27.5h-219v-224h217z" />
    <glyph glyph-name="C" unicode="C" horiz-adv-x="857" 
d="M809 241q-20 -125 -114 -192t-249 -67q-117 0 -204.5 44.5t-136.5 129.5t-49 201q0 110 47 195t135 132.5t207 47.5q286 0 352 -239l-128 -19q-27 80 -80.5 116t-144.5 36q-119 0 -188 -72t-69 -197q0 -126 69.5 -197.5t191.5 -71.5q98 0 153 37t75 116h133z" />
    <glyph glyph-name="D" unicode="D" horiz-adv-x="869" 
d="M93 0v714h310q199 0 304.5 -92t105.5 -265q0 -172 -112 -264.5t-319 -92.5h-289zM386 107q147 0 221.5 63.5t74.5 186.5q0 250 -278 250h-184v-500h166z" />
    <glyph glyph-name="E" unicode="E" horiz-adv-x="742" 
d="M93 0v714h582v-107h-455v-186h433v-107h-433v-207h477l-18 -107h-586z" />
    <glyph glyph-name="F" unicode="F" horiz-adv-x="679" 
d="M220 301v-301h-127v714h554v-107h-427v-199h405v-107h-405z" />
    <glyph glyph-name="G" unicode="G" horiz-adv-x="870" 
d="M689 276h-217v105h336v-301q-64 -47 -153.5 -72.5t-186.5 -25.5q-126 0 -218.5 44t-143 127.5t-50.5 200.5q0 114 47.5 199t138 132t213.5 47q132 0 218.5 -55t118.5 -157l-126 -18q-24 64 -77 94.5t-137 30.5q-126 0 -195.5 -71.5t-69.5 -199.5q0 -130 72.5 -199.5
t209.5 -69.5q134 0 220 46v143z" />
    <glyph glyph-name="H" unicode="H" horiz-adv-x="871" 
d="M651 0v312h-431v-312h-127v714h127v-288h431v288h127v-714h-127z" />
    <glyph glyph-name="I" unicode="I" horiz-adv-x="313" 
d="M93 0v714h127v-714h-127z" />
    <glyph glyph-name="J" unicode="J" horiz-adv-x="730" 
d="M518 714h127v-450q0 -139 -77.5 -210.5t-227.5 -71.5q-143 0 -222.5 62t-92.5 184h129q12 -73 57 -106.5t127 -33.5q93 0 136.5 43.5t43.5 135.5v447z" />
    <glyph glyph-name="K" unicode="K" horiz-adv-x="815" 
d="M649 0l-287 374l-142 -112v-262h-127v714h127v-325l392 325h157l-316 -266l346 -448h-150z" />
    <glyph glyph-name="L" unicode="L" horiz-adv-x="698" 
d="M93 0v714h127v-607h453l-18 -107h-562z" />
    <glyph glyph-name="M" unicode="M" horiz-adv-x="1039" 
d="M826 0v534l-256 -534h-102l-257 530v-530h-118v714h152l277 -578l277 578h147v-714h-120z" />
    <glyph glyph-name="N" unicode="N" horiz-adv-x="874" 
d="M663 0l-447 539v-539h-123v714h118l447 -539v539h123v-714h-118z" />
    <glyph glyph-name="O" unicode="O" horiz-adv-x="922" 
d="M866 357q0 -112 -48.5 -196.5t-140.5 -131.5t-217 -47q-120 0 -211.5 44.5t-142 129.5t-50.5 201q0 112 48.5 196.5t140.5 131.5t217 47q120 0 211.5 -44.5t142 -129.5t50.5 -201zM735 357q0 127 -71.5 198t-201.5 71t-202.5 -71t-72.5 -198t71.5 -198t201.5 -71
t202.5 71t72.5 198z" />
    <glyph glyph-name="P" unicode="P" horiz-adv-x="771" 
d="M93 0v714h342q143 0 215.5 -57.5t72.5 -170.5q0 -116 -74 -173t-226 -57h-205v-256h-125zM424 360q87 0 129 31t42 97q0 64 -41 93t-128 29h-208v-250h206z" />
    <glyph glyph-name="Q" unicode="Q" horiz-adv-x="922" 
d="M787 -93l-118 118q-91 -43 -208 -43q-90 0 -164 25t-128 73t-83.5 118.5t-29.5 158.5q0 112 48.5 196.5t140.5 131.5t217 47q120 0 211.5 -44.5t142 -129.5t50.5 -201q0 -85 -28 -155t-83 -120l105 -104zM493 203l73 71l110 -111q59 68 59 194q0 128 -72 198.5t-202 70.5
t-202 -71t-72 -198q0 -128 72 -198.5t202 -70.5q76 0 129 19z" />
    <glyph glyph-name="R" unicode="R" horiz-adv-x="778" 
d="M618 0l-161 281q-9 -1 -17.5 -1h-17.5h-207v-280h-122v714h341q287 0 287 -217q0 -145 -140 -192l180 -305h-143zM426 383q86 0 127.5 28t41.5 87q0 60 -39.5 86.5t-127.5 26.5h-213v-228h211z" />
    <glyph glyph-name="S" unicode="S" horiz-adv-x="785" 
d="M594 517q-16 42 -42 67t-65 36t-97 11q-96 0 -149 -25.5t-53 -73.5q0 -45 34.5 -68t120.5 -36l148 -22q125 -19 183.5 -70.5t58.5 -141.5q0 -101 -86.5 -156.5t-242.5 -55.5q-170 0 -257.5 59t-102.5 183h128q13 -74 68.5 -107.5t163.5 -33.5q97 0 148.5 29t51.5 82
q0 44 -35.5 69t-110.5 36l-128 19q-99 15 -157 41t-84 67.5t-26 102.5q0 96 86.5 149.5t242.5 53.5q96 0 161 -21t104.5 -64t57.5 -112z" />
    <glyph glyph-name="T" unicode="T" horiz-adv-x="729" 
d="M301 0v607h-288v107h703v-107h-288v-607h-127z" />
    <glyph glyph-name="U" unicode="U" horiz-adv-x="848" 
d="M636 714h127v-421q0 -156 -84.5 -233.5t-254.5 -77.5t-254.5 77.5t-84.5 233.5v421h127v-427q0 -102 51.5 -150.5t160.5 -48.5t160.5 48.5t51.5 150.5v427z" />
    <glyph glyph-name="V" unicode="V" horiz-adv-x="808" 
d="M333 0l-318 714h144l247 -584l247 584h140l-318 -714h-142z" />
    <glyph glyph-name="W" unicode="W" horiz-adv-x="1157" 
d="M758 0l-181 552l-183 -552h-134l-241 714h141l172 -561l184 557h128l185 -559l173 563h136l-241 -714h-139z" />
    <glyph glyph-name="X" unicode="X" horiz-adv-x="810" 
d="M639 0l-240 295l-239 -295h-145l304 371l-282 343h156l208 -261l216 261h145l-281 -338l314 -376h-156z" />
    <glyph glyph-name="Y" unicode="Y" horiz-adv-x="767" 
d="M320 0v293l-305 421h146l225 -317l224 317h142l-305 -421v-293h-127z" />
    <glyph glyph-name="Z" unicode="Z" horiz-adv-x="714" 
d="M30 0v94l484 513h-475v107h636v-94l-484 -513h501l-18 -107h-644z" />
    <glyph glyph-name="a" unicode="a" horiz-adv-x="668" 
d="M482 0v75q-46 -46 -100 -67.5t-127 -21.5q-101 0 -156 41.5t-55 117.5q0 85 71.5 126.5t225.5 46.5l138 4v17q0 106 -140 106q-68 0 -105 -16.5t-48 -50.5l-107 12q18 75 82 110.5t182 35.5q127 0 188.5 -50t61.5 -153v-333h-111zM479 243l-136 -4q-94 -3 -135.5 -23
t-41.5 -61q0 -37 32 -57.5t89 -20.5q43 0 82.5 12.5t68.5 35.5q41 31 41 83v35z" />
    <glyph glyph-name="b" unicode="b" horiz-adv-x="732" 
d="M79 0v714h120v-277q37 47 94.5 73t126.5 26q76 0 134.5 -33t92 -95t33.5 -144q0 -80 -33 -143.5t-95 -100t-144 -36.5q-138 0 -211 94v-78h-118zM198 246q0 -70 47 -120q45 -48 129 -48q90 0 136 47t46 137q0 85 -46.5 132.5t-129.5 47.5q-38 0 -74 -14.5t-61 -39.5
q-23 -23 -35 -52t-12 -60v-30z" />
    <glyph glyph-name="c" unicode="c" horiz-adv-x="666" 
d="M622 182q-15 -95 -86 -146.5t-186 -51.5q-141 0 -219.5 72.5t-78.5 202.5q0 83 35.5 145.5t103.5 97t161 34.5q108 0 175.5 -46.5t85.5 -133.5l-122 -16q-28 102 -140 102q-83 0 -129 -47.5t-46 -133.5q0 -89 45.5 -136t131.5 -47q125 0 148 104h121z" />
    <glyph glyph-name="d" unicode="d" horiz-adv-x="732" 
d="M535 0v86q-36 -48 -94 -75t-129 -27q-76 0 -134.5 33t-92 95t-33.5 144q0 80 33 143.5t95 100t144 36.5q137 0 209 -92v270h120v-714h-118zM534 274q0 70 -47 120q-45 48 -129 48q-90 0 -136 -47t-46 -137q0 -85 46.5 -132.5t129.5 -47.5q38 0 74 14.5t61 39.5
q23 23 35 52t12 60v30z" />
    <glyph glyph-name="e" unicode="e" horiz-adv-x="681" 
d="M169 230q2 -72 50.5 -114.5t127.5 -42.5q62 0 101.5 20.5t54.5 60.5h119q-22 -86 -90.5 -128t-185.5 -42q-137 0 -215.5 72.5t-78.5 198.5q0 82 35.5 145.5t102 99.5t155.5 36q135 0 209.5 -69.5t74.5 -194.5v-42h-460zM514 310q-2 66 -46.5 102.5t-123.5 36.5
q-71 0 -117.5 -37.5t-54.5 -101.5h342z" />
    <glyph glyph-name="f" unicode="f" horiz-adv-x="435" 
d="M124 0v429h-101v91h101v32q0 80 53.5 125t148.5 45q58 0 115 -15l-19 -86q-37 9 -73 9q-53 0 -79 -18.5t-26 -58.5v-33h171v-91h-171v-429h-120z" />
    <glyph glyph-name="g" unicode="g" horiz-adv-x="732" 
d="M533 111q-72 -98 -221 -98q-76 0 -134.5 31t-92 90t-33.5 138q0 74 33.5 134t95.5 95t143 35q71 0 122.5 -22t88.5 -69v75h118v-432q0 -153 -69.5 -223t-220.5 -70q-133 0 -203 40.5t-83 124.5h121q14 -38 53 -55.5t111 -17.5q87 0 129 39.5t42 123.5v61zM533 286
q0 65 -48 113q-43 43 -128 43q-86 0 -133.5 -44t-47.5 -124q0 -79 45.5 -123t129.5 -44q41 0 76 13t59 36q47 45 47 105v25z" />
    <glyph glyph-name="h" unicode="h" horiz-adv-x="708" 
d="M513 0v314q0 66 -31 95.5t-100 29.5q-38 0 -73.5 -14t-62.5 -39q-47 -44 -47 -102v-284h-120v714h120v-278q85 100 220 100q105 0 159.5 -51t54.5 -149v-336h-120z" />
    <glyph glyph-name="i" unicode="i" horiz-adv-x="278" 
d="M79 0v520h120v-520h-120zM77 597v117h124v-117h-124z" />
    <glyph glyph-name="j" unicode="j" horiz-adv-x="278" 
d="M79 520h120v-540q0 -95 -40.5 -140t-128.5 -45q-59 0 -118 19l20 85q37 -10 76 -10q38 0 54.5 17t16.5 56v558zM77 597v117h124v-117h-124z" />
    <glyph glyph-name="k" unicode="k" horiz-adv-x="659" 
d="M518 0l-203 288l-116 -85v-203h-120v714h120v-396l274 202h158l-230 -170l254 -350h-137z" />
    <glyph glyph-name="l" unicode="l" horiz-adv-x="278" 
d="M79 0v714h120v-714h-120z" />
    <glyph glyph-name="m" unicode="m" horiz-adv-x="1062" 
d="M867 0v315q0 64 -27 94t-86 30q-67 0 -119 -47q-20 -18 -31 -42t-11 -50v-300h-120v315q0 64 -27 94t-86 30q-66 0 -118 -52q-43 -43 -43 -102v-285h-120v520h118v-86q81 102 200 102q68 0 114 -26.5t66 -78.5q83 105 214 105q96 0 146 -51t50 -149v-336h-120z" />
    <glyph glyph-name="n" unicode="n" horiz-adv-x="708" 
d="M513 0v314q0 66 -31 95.5t-100 29.5q-38 0 -73.5 -14t-62.5 -39q-47 -44 -47 -102v-284h-120v520h118v-86q86 102 222 102q105 0 159.5 -51t54.5 -149v-336h-120z" />
    <glyph glyph-name="o" unicode="o" horiz-adv-x="717" 
d="M665 262q0 -82 -37 -144.5t-107.5 -98t-165.5 -35.5q-141 0 -222 73t-81 201q0 82 37 144.5t107 98t165 35.5q142 0 223 -73t81 -201zM541 260q0 87 -47.5 134.5t-134.5 47.5t-135 -47.5t-48 -134.5t47.5 -134.5t133.5 -47.5q88 0 136 47.5t48 134.5z" />
    <glyph glyph-name="p" unicode="p" horiz-adv-x="732" 
d="M79 -194v714h118v-86q36 48 94 75t129 27q76 0 134.5 -33t92 -95t33.5 -144q0 -80 -33 -143.5t-95 -100t-144 -36.5q-137 0 -209 92v-270h-120zM198 246q0 -70 47 -120q45 -48 129 -48q90 0 136 47t46 137q0 85 -46.5 132.5t-129.5 47.5q-38 0 -74 -14.5t-61 -39.5
q-23 -23 -35 -52t-12 -60v-30z" />
    <glyph glyph-name="q" unicode="q" horiz-adv-x="732" 
d="M533 -194v277q-37 -47 -94.5 -73t-126.5 -26q-76 0 -134.5 33t-92 95t-33.5 144q0 80 33 143.5t95 100t144 36.5q138 0 211 -94v78h118v-714h-120zM534 274q0 70 -47 120q-45 48 -129 48q-90 0 -136 -47t-46 -137q0 -85 46.5 -132.5t129.5 -47.5q38 0 74 14.5t61 39.5
q23 23 35 52t12 60v30z" />
    <glyph glyph-name="r" unicode="r" horiz-adv-x="468" 
d="M79 0v520h118v-89q37 47 86.5 72t105.5 25q24 0 56 -5l-14 -100q-30 5 -55 5q-79 0 -128 -45q-49 -44 -49 -103v-280h-120z" />
    <glyph glyph-name="s" unicode="s" horiz-adv-x="637" 
d="M463 378q-14 35 -49.5 51t-100.5 16q-66 0 -101 -15.5t-35 -45.5q0 -23 11 -34.5t37 -19.5t74 -15l67 -10q87 -13 135 -32.5t68.5 -49t20.5 -75.5q0 -81 -66.5 -122.5t-196.5 -41.5t-198.5 43t-83.5 132h117q13 -43 51.5 -62.5t111.5 -19.5q146 0 146 65q0 29 -27 43
t-100 25l-67 10q-84 12 -131 32t-66.5 51t-19.5 79q0 72 67.5 113t185.5 41q117 0 179.5 -34.5t84.5 -111.5z" />
    <glyph glyph-name="t" unicode="t" horiz-adv-x="458" 
d="M438 10q-67 -21 -137 -21q-92 0 -134.5 42.5t-42.5 136.5v261h-101v91h101v140h120v-140h178v-91h-178v-265q0 -41 20.5 -61t63.5 -20q46 0 92 15z" />
    <glyph glyph-name="u" unicode="u" horiz-adv-x="698" 
d="M501 0v86q-87 -102 -219 -102q-99 0 -153 51t-54 146v339h120v-318q0 -61 30.5 -91t93.5 -30q75 0 133 51q47 42 47 103v285h120v-520h-118z" />
    <glyph glyph-name="v" unicode="v" horiz-adv-x="634" 
d="M253 0l-244 520h134l176 -405l177 405h129l-244 -520h-128z" />
    <glyph glyph-name="w" unicode="w" horiz-adv-x="919" 
d="M601 0l-142 383l-141 -383h-121l-186 520h128l126 -394l142 390h111l142 -389l126 393h122l-186 -520h-121z" />
    <glyph glyph-name="x" unicode="x" horiz-adv-x="634" 
d="M484 0l-169 194l-170 -194h-136l238 269l-220 251h141l148 -170l150 170h136l-218 -244l241 -276h-141z" />
    <glyph glyph-name="y" unicode="y" horiz-adv-x="636" 
d="M268 20l-259 500h136l184 -383l168 383h130l-269 -562q-31 -64 -60 -98.5t-63.5 -49.5t-80.5 -15q-55 0 -106 20l20 88q35 -12 68 -12q38 0 63.5 18t44.5 59z" />
    <glyph glyph-name="z" unicode="z" horiz-adv-x="593" 
d="M32 0v81l353 347h-345v92h501v-81l-353 -347h374l-14 -92h-516z" />
    <glyph glyph-name="trademark" unicode="&#x2122;" horiz-adv-x="1088" 
d="M172 314v327h-159v73h406v-73h-159v-327h-88zM925 314v283l-145 -283h-68l-145 283v-283h-80v400h101l161 -310l158 310h99v-400h-81z" />
    <glyph glyph-name="ordfeminine" unicode="&#xaa;" horiz-adv-x="516" 
d="M364 341v53q-25 -30 -66.5 -46.5t-93.5 -16.5q-79 0 -121.5 30t-42.5 85q0 119 207 125l113 3v16q-1 39 -25 56.5t-77 17.5q-51 0 -75 -11t-35 -40l-84 9q14 58 60.5 84t137.5 26q186 0 186 -148v-243h-84zM360 516l-112 -3q-61 -2 -87 -15.5t-26 -42.5q0 -56 89 -56
q63 0 97 21q20 14 29.5 30.5t9.5 39.5v26z" />
    <glyph glyph-name="ordmasculine" unicode="&#xba;" horiz-adv-x="550" 
d="M503 531q0 -94 -62 -149t-168 -55t-166 53t-60 148q0 93 62 148.5t168 55.5t166 -53t60 -148zM403 530q0 58 -33 90t-94 32q-62 0 -95.5 -32t-33.5 -91q0 -58 33 -90t94 -32q62 0 95.5 32t33.5 91z" />
    <glyph glyph-name="afii61289" unicode="&#x2113;" horiz-adv-x="499" 
d="M475 54q-36 -37 -78 -54.5t-98 -17.5q-175 0 -175 177v18l-61 -42l-42 58l103 74v252q0 97 46.5 152.5t128.5 55.5q72 0 111.5 -40t39.5 -114q0 -81 -53 -162t-160 -165v-96q0 -81 85 -81q55 0 103 42zM237 340q61 55 95 115t34 114q0 78 -61 78q-32 0 -50 -31t-18 -87
v-189z" />
    <glyph glyph-name="estimated" unicode="&#x212e;" horiz-adv-x="911" 
d="M775 129q-54 -66 -139 -103t-182 -37q-107 0 -198.5 46.5t-148.5 130t-57 186.5q0 95 51.5 178t145 135t207.5 52q107 0 199.5 -47t150 -131.5t57.5 -186.5v-10h-657q-5 0 -5 -4v-199q0 -13 9 -22q50 -53 113 -80.5t135 -27.5q75 0 141.5 31t119.5 89h58zM711 568
q0 14 -9 24q-50 50 -113.5 76.5t-132.5 26.5q-68 0 -132 -28t-115 -79q-10 -7 -10 -24v-195q0 -7 5 -7h503q4 0 4 7v199z" />
    <glyph glyph-name="copyright" unicode="&#xa9;" horiz-adv-x="918" 
d="M866 357q0 -105 -49 -185.5t-141 -126t-217 -45.5q-120 0 -212 43t-143.5 124t-51.5 190q0 105 49 185.5t141 126t217 45.5q120 0 212 -43t143.5 -124t51.5 -190zM779 357q0 85 -37.5 148t-110 97.5t-172.5 34.5q-97 0 -169 -33t-111.5 -96t-39.5 -151q0 -85 37.5 -148
t110 -97.5t172.5 -34.5q97 0 169 33t111.5 96t39.5 151zM665 303q-14 -72 -66 -110.5t-136 -38.5q-100 0 -158.5 54.5t-58.5 147.5q0 60 26.5 106t76 72t115.5 26q158 0 195 -131l-96 -14q-11 37 -34.5 52.5t-65.5 15.5q-55 0 -86 -33t-31 -92q0 -62 30.5 -94.5t87.5 -32.5
q88 0 104 72h97z" />
    <glyph glyph-name="registered" unicode="&#xae;" horiz-adv-x="588" 
d="M546 514q0 -64 -30 -113.5t-87.5 -77t-134.5 -27.5q-74 0 -131 26t-89 75t-32 117q0 64 30 113.5t87.5 77t134.5 27.5q74 0 131 -26t89 -75t32 -117zM488 514q0 79 -51.5 123t-142.5 44t-142.5 -44t-51.5 -123t51.5 -123t142.5 -44t142.5 44t51.5 123zM355 412l-45 73
h-58v-73h-55v208h108q96 0 96 -65q0 -21 -9.5 -35t-31.5 -23l54 -85h-59zM302 528q23 0 33.5 5.5t10.5 19.5q0 13 -11 18.5t-37 5.5h-46v-49h50z" />
    <glyph glyph-name="partialdiff" unicode="&#x2202;" horiz-adv-x="680" 
d="M111 543q26 84 89 125.5t167 41.5q132 0 199 -78t67 -229q0 -94 -21 -173t-60 -133q-84 -115 -261 -115q-76 0 -134 26t-91.5 74.5t-33.5 114.5q0 72 34.5 128t100 87.5t154.5 31.5q70 0 123 -23t77 -63q3 30 3 51q0 207 -162 207q-60 0 -94 -21t-54 -69zM489 235
q0 54 -45 87t-119 33q-85 0 -133.5 -41t-48.5 -113q0 -57 43 -91t116 -34q82 0 134.5 45t52.5 114z" />
    <glyph glyph-name="product" unicode="&#x220f;" horiz-adv-x="853" 
d="M633 0v603h-413v-603h-127v714h667v-714h-127z" />
    <glyph glyph-name="summation" unicode="&#x2211;" horiz-adv-x="704" 
d="M29 -102v87l273 324l-273 318v87h649v-107h-488l253 -295l-261 -307h512l-18 -107h-647z" />
    <glyph glyph-name="uni2215" unicode="&#x2215;" horiz-adv-x="112" 
d="M-211 0l420 691h114l-420 -691h-114z" />
    <glyph glyph-name="uni2219" unicode="&#x2219;" horiz-adv-x="279" 
d="M77 269v142h125v-142h-125z" />
    <glyph glyph-name="radical" unicode="&#x221a;" horiz-adv-x="721" 
d="M290 0l-147 298h-107v103h189l129 -280l252 610h129l-318 -731h-127z" />
    <glyph glyph-name="infinity" unicode="&#x221e;" horiz-adv-x="732" 
d="M366 264q-52 -98 -168 -98q-77 0 -122 47.5t-45 132.5t45 132.5t122 47.5q116 0 168 -98q52 98 168 98q77 0 122 -47.5t45 -132.5t-45 -132.5t-122 -47.5q-116 0 -168 98zM322 346q-14 46 -43 70t-71 24q-40 0 -62 -24.5t-22 -69.5t22 -69.5t62 -24.5q42 0 71 24t43 70z
M410 346q14 -46 43 -70t71 -24q40 0 62 24.5t22 69.5t-22 69.5t-62 24.5q-42 0 -71 -24t-43 -70z" />
    <glyph glyph-name="integral" unicode="&#x222b;" horiz-adv-x="388" 
d="M42 -14q32 -9 65 -9q72 0 72 64q0 14 -8 62l-69 392q-8 43 -8 72q0 74 44.5 114.5t125.5 40.5q55 0 101 -15l-19 -91q-31 9 -65 9q-72 0 -72 -64q0 -14 8 -62l69 -392q8 -43 8 -72q0 -74 -44.5 -114.5t-125.5 -40.5q-54 0 -101 15z" />
    <glyph glyph-name="lozenge" unicode="&#x25ca;" horiz-adv-x="716" 
d="M305 0l-263 357l263 357h106l263 -357l-263 -357h-106zM545 357l-187 250l-187 -250l187 -250z" />
    <glyph glyph-name="uni2206" unicode="&#x2206;" horiz-adv-x="834" 
d="M15 0l333 714h138l333 -714h-804zM415 593l-222 -489h445z" />
    <glyph glyph-name="uni2126" unicode="&#x2126;" horiz-adv-x="916" 
d="M540 0v91q90 48 131.5 116.5t41.5 166.5q0 122 -65.5 187t-189.5 65t-189.5 -65t-65.5 -187q0 -98 41.5 -166.5t131.5 -116.5v-91h-339v104h186q-151 112 -151 279q0 103 46.5 181.5t134 123t205.5 44.5q113 0 200 -42t136.5 -121t49.5 -186q0 -167 -151 -279h186
l-17 -104h-322z" />
    <glyph glyph-name="quoteleft" unicode="&#x2018;" horiz-adv-x="234" 
d="M39 474l68 240h93l-39 -240h-122z" />
    <glyph glyph-name="quoteright" unicode="&#x2019;" horiz-adv-x="234" 
d="M34 474l39 240h122l-68 -240h-93z" />
    <glyph glyph-name="quotesinglbase" unicode="&#x201a;" horiz-adv-x="234" 
d="M34 -97l39 240h122l-68 -240h-93z" />
    <glyph glyph-name="quotedblleft" unicode="&#x201c;" horiz-adv-x="420" 
d="M39 474l68 240h93l-39 -240h-122zM225 474l68 240h93l-39 -240h-122z" />
    <glyph glyph-name="quotedblright" unicode="&#x201d;" horiz-adv-x="420" 
d="M34 474l39 240h122l-68 -240h-93zM220 474l39 240h122l-68 -240h-93z" />
    <glyph glyph-name="quotedblbase" unicode="&#x201e;" horiz-adv-x="420" 
d="M34 -97l39 240h122l-68 -240h-93zM220 -97l39 240h122l-68 -240h-93z" />
    <glyph glyph-name="minute" unicode="&#x2032;" horiz-adv-x="264" 
d="M47 455l50 259h120l-76 -259h-94z" />
    <glyph glyph-name="second" unicode="&#x2033;" horiz-adv-x="466" 
d="M47 455l50 259h120l-76 -259h-94zM249 455l50 259h120l-76 -259h-94z" />
    <glyph glyph-name="periodcentered.loclCAT" horiz-adv-x="279" 
d="M77 303v142h125v-142h-125z" />
    <glyph glyph-name="periodcentered.loclCAT.cap" horiz-adv-x="279" 
d="M77 330v142h125v-142h-125z" />
    <glyph glyph-name="uni02BC" unicode="&#x2bc;" horiz-adv-x="708" 
d="M273 474l39 240h124l-68 -240h-95z" />
    <glyph glyph-name="dotlessi" unicode="&#x131;" horiz-adv-x="278" 
d="M79 0v520h120v-520h-120z" />
    <glyph glyph-name="uni0237" unicode="&#x237;" horiz-adv-x="278" 
d="M79 520h120v-540q0 -95 -40.5 -140t-128.5 -45q-59 0 -118 19l20 85q37 -10 76 -10q38 0 54.5 17t16.5 56v558z" />
    <glyph glyph-name="i.locl" horiz-adv-x="278" 
d="M79 0v520h120v-520h-120zM77 597v117h124v-117h-124z" />
    <glyph glyph-name="IJ" unicode="&#x132;" horiz-adv-x="1043" 
d="M93 0v714h127v-714h-127zM831 714h127v-450q0 -139 -77.5 -210.5t-227.5 -71.5q-143 0 -222.5 62t-92.5 184h129q12 -73 57 -106.5t127 -33.5q93 0 136.5 43.5t43.5 135.5v447z" />
    <glyph glyph-name="Ldot" unicode="&#x13f;" horiz-adv-x="698" 
d="M93 0v714h127v-607h453l-18 -107h-562zM441 330v142h125v-142h-125z" />
    <glyph glyph-name="ij" unicode="&#x133;" horiz-adv-x="556" 
d="M79 0v520h120v-520h-120zM77 597v117h124v-117h-124zM357 520h120v-540q0 -95 -40.5 -140t-128.5 -45q-59 0 -118 19l20 85q37 -10 76 -10q38 0 54.5 17t16.5 56v558zM355 597v117h124v-117h-124z" />
    <glyph glyph-name="ldot" unicode="&#x140;" horiz-adv-x="415" 
d="M79 0v714h120v-714h-120zM282 303v142h125v-142h-125z" />
    <glyph glyph-name="napostrophe" unicode="&#x149;" horiz-adv-x="829" 
d="M634 0v314q0 66 -31 95.5t-100 29.5q-38 0 -73.5 -14t-62.5 -39q-47 -44 -47 -102v-284h-120v520h118v-86q86 102 222 102q105 0 159.5 -51t54.5 -149v-336h-120zM22 474l39 240h124l-68 -240h-95z" />
    <glyph glyph-name="fi" unicode="&#xfb01;" horiz-adv-x="713" 
d="M124 0v429h-101v91h101v32q0 80 53.5 125t148.5 45q58 0 115 -15l-19 -86q-37 9 -73 9q-53 0 -79 -18.5t-26 -58.5v-33h171v-91h-171v-429h-120zM514 0v520h120v-520h-120zM512 597v117h124v-117h-124z" />
    <glyph glyph-name="fl" unicode="&#xfb02;" horiz-adv-x="713" 
d="M124 0v429h-101v91h101v32q0 80 53.5 125t148.5 45q58 0 115 -15l-19 -86q-37 9 -73 9q-53 0 -79 -18.5t-26 -58.5v-33h171v-91h-171v-429h-120zM514 0v714h120v-714h-120z" />
    <glyph glyph-name="Thorn" unicode="&#xde;" horiz-adv-x="771" 
d="M218 134v-134h-125v714h125v-122h217q143 0 215.5 -57.5t72.5 -170.5q0 -116 -74 -173t-226 -57h-205zM424 238q87 0 129 31t42 97q0 64 -41 93t-128 29h-208v-250h206z" />
    <glyph glyph-name="AE" unicode="&#xc6;" horiz-adv-x="1272" 
d="M659 0v225h-340l-159 -225h-145l518 714h672v-107h-426v-186h404v-107h-404v-207h448l-18 -107h-550zM659 607h-71l-197 -280h268v280z" />
    <glyph glyph-name="OE" unicode="&#x152;" horiz-adv-x="1322" 
d="M709 0v98q-46 -57 -115.5 -86.5t-158.5 -29.5q-112 0 -197.5 45t-133.5 130t-48 200q0 111 45.5 195.5t131.5 132t202 47.5q181 0 274 -115v97h546v-107h-426v-186h404v-107h-404v-207h448l-18 -107h-550zM451 88q78 0 136 30.5t90 89t32 139.5v20q0 121 -68.5 190
t-189.5 69q-125 0 -194.5 -71t-69.5 -198q0 -128 69 -198.5t195 -70.5z" />
    <glyph glyph-name="uni1E9E" unicode="&#x1e9e;" horiz-adv-x="928" 
d="M575 290q-104 22 -147.5 57t-43.5 97q0 37 16 64t52 52t100 56h-153q-91 0 -138.5 -48t-47.5 -141v-427h-124v438q0 131 78.5 203.5t219.5 72.5h343v-90l-24 -11q-109 -51 -152.5 -84.5t-43.5 -66.5q0 -28 26 -43t99 -29l43 -8q121 -24 174 -71t53 -131q0 -94 -74 -146
t-207 -52t-203.5 50t-84.5 153h129q7 -38 25.5 -60.5t51 -33t82.5 -10.5q153 0 153 99q0 30 -14.5 47t-48.5 29.5t-100 25.5z" />
    <glyph glyph-name="thorn" unicode="&#xfe;" horiz-adv-x="732" 
d="M79 -194v908h120v-277q37 47 94.5 73t126.5 26q76 0 134.5 -33t92 -95t33.5 -144q0 -80 -33 -143.5t-95 -100t-144 -36.5q-137 0 -209 92v-270h-120zM198 246q0 -70 47 -120q45 -48 129 -48q90 0 136 47t46 137q0 85 -46.5 132.5t-129.5 47.5q-38 0 -74 -14.5t-61 -39.5
q-23 -23 -35 -52t-12 -60v-30z" />
    <glyph glyph-name="ae" unicode="&#xe6;" horiz-adv-x="1091" 
d="M586 230q2 -71 49 -114t122 -43q62 0 101.5 20.5t54.5 60.5h119q-22 -86 -90.5 -128t-185.5 -42q-80 0 -141 29t-96 84q-38 -56 -102.5 -83.5t-161.5 -27.5q-101 0 -156 41.5t-55 117.5q0 85 71.5 126.5t225.5 46.5l132 4v20q0 103 -134 103q-68 0 -105 -16.5t-48 -50.5
l-107 12q18 75 82 110.5t182 35.5q151 0 203 -87q78 87 209 87q135 0 209.5 -69.5t74.5 -194.5v-42h-453zM473 243l-130 -4q-94 -3 -135.5 -23t-41.5 -61q0 -37 32 -57.5t89 -20.5q84 0 145 48q41 31 41 83v35zM924 310q-2 66 -46.5 102.5t-123.5 36.5q-67 0 -112 -38
t-53 -101h335z" />
    <glyph glyph-name="oe" unicode="&#x153;" horiz-adv-x="1155" 
d="M650 230q2 -71 49 -114t122 -43q62 0 101.5 20.5t54.5 60.5h119q-22 -86 -90.5 -128t-185.5 -42q-78 0 -137.5 27.5t-94.5 79.5q-76 -107 -237 -107q-90 0 -157.5 32.5t-104.5 94.5t-37 147q0 81 37 143.5t106.5 98.5t161.5 36q164 0 236 -109q37 53 95.5 81t130.5 28
q135 0 209.5 -69.5t74.5 -194.5v-42h-453zM357 78q87 0 132.5 47.5t45.5 134.5q0 88 -45.5 135t-130.5 47q-87 0 -135 -47.5t-48 -134.5t47.5 -134.5t133.5 -47.5zM988 310q-2 66 -46.5 102.5t-123.5 36.5q-67 0 -112 -38t-53 -101h335z" />
    <glyph glyph-name="germandbls" unicode="&#xdf;" horiz-adv-x="725" 
d="M285 90q47 -13 104 -13q84 0 123 30.5t39 96.5q0 63 -50 95.5t-147 32.5h-64v92h52q75 0 111.5 27t36.5 83q0 45 -38 70t-106 25q-73 0 -111.5 -30t-38.5 -88v-511h-119v503q0 103 71 161t197 58q124 0 194.5 -46.5t70.5 -128.5q0 -57 -29 -93.5t-91 -58.5
q85 -17 134 -69t49 -126q0 -101 -71.5 -158.5t-197.5 -57.5q-83 0 -137 17z" />
    <glyph glyph-name="longs" unicode="&#x17f;" horiz-adv-x="278" 
d="M79 0v552q0 80 53.5 125t148.5 45q58 0 115 -15l-19 -89q-37 9 -73 9q-53 0 -79 -18.5t-26 -58.5v-550h-120z" />
    <glyph glyph-name="kgreenlandic" unicode="&#x138;" horiz-adv-x="659" 
d="M516 0l-201 270l-116 -93v-177h-120v520h120v-228l280 228h151l-231 -185l256 -335h-139z" />
    <glyph glyph-name="Eng" unicode="&#x14a;" horiz-adv-x="874" 
d="M216 539v-539h-123v714h118l447 -539v539h123v-684q0 -117 -70 -176t-207 -59q-112 0 -181 26l28 97q65 -20 141 -20q154 0 166 108z" />
    <glyph glyph-name="Eng.locl" horiz-adv-x="874" 
d="M654 463q0 86 -43 124.5t-138 38.5q-51 0 -101 -18.5t-87 -51.5q-65 -56 -65 -134v-422h-127v714h125v-112q106 130 285 130q136 0 207 -61t71 -179v-462q0 -117 -70 -176t-207 -59q-112 0 -181 26l28 97q65 -20 141 -20q80 0 121 32.5t41 95.5v437z" />
    <glyph glyph-name="florin" unicode="&#x192;" horiz-adv-x="435" 
d="M124 429h-101v91h101v32q0 80 53.5 125t148.5 45q58 0 115 -15l-19 -86q-37 9 -73 9q-53 0 -79 -18.5t-26 -58.5v-33h171v-91h-171v-449q0 -95 -40.5 -140t-128.5 -45q-59 0 -118 19l20 85q37 -10 76 -10q38 0 54.5 17t16.5 56v467z" />
    <glyph glyph-name="eng" unicode="&#x14b;" horiz-adv-x="708" 
d="M513 314q0 66 -31 95.5t-100 29.5q-38 0 -74 -14t-62 -39q-47 -41 -47 -102v-284h-120v520h118v-86q86 102 222 102q105 0 159.5 -51t54.5 -149v-356q0 -95 -40.5 -140t-128.5 -45q-59 0 -118 19l20 85q37 -10 76 -10q38 0 54.5 17t16.5 56v352z" />
    <glyph glyph-name="Eth" unicode="&#xd0;" horiz-adv-x="899" 
d="M123 0v318h-102v103h102v293h310q199 0 304.5 -92t105.5 -265q0 -172 -112 -264.5t-319 -92.5h-289zM250 318v-211h166q147 0 221.5 63.5t74.5 186.5q0 250 -278 250h-184v-186h214v-103h-214z" />
    <glyph glyph-name="Dcroat" unicode="&#x110;" horiz-adv-x="899" 
d="M123 0v318h-102v103h102v293h310q199 0 304.5 -92t105.5 -265q0 -172 -112 -264.5t-319 -92.5h-289zM250 318v-211h166q147 0 221.5 63.5t74.5 186.5q0 250 -278 250h-184v-186h214v-103h-214z" />
    <glyph glyph-name="Hbar" unicode="&#x126;" horiz-adv-x="931" 
d="M681 0v300h-431v-300h-127v517h-102v96h102v101h127v-101h431v101h127v-101h102v-96h-102v-517h-127zM681 517h-431v-103h431v103z" />
    <glyph glyph-name="Tbar" unicode="&#x166;" horiz-adv-x="729" 
d="M301 0v291h-184v103h184v213h-288v107h703v-107h-288v-213h184v-103h-184v-291h-127z" />
    <glyph glyph-name="Lslash" unicode="&#x141;" horiz-adv-x="728" 
d="M123 0v236l-102 -57v109l102 57v369h127v-302l245 138v-109l-245 -138v-196h453l-18 -107h-562z" />
    <glyph glyph-name="Oslash" unicode="&#xd8;" horiz-adv-x="922" 
d="M116 -3l61 76q-59 49 -90 121.5t-31 162.5q0 112 48.5 196.5t140.5 131.5t217 47q119 0 208 -43l66 82l70 -54l-61 -76q59 -49 90 -121.5t31 -162.5q0 -112 -48.5 -196.5t-140.5 -131.5t-217 -47q-119 0 -208 43l-66 -82zM599 601q-55 26 -137 26q-132 0 -204.5 -71
t-72.5 -199q0 -122 65 -193zM323 113q55 -26 137 -26q132 0 204.5 71t72.5 199q0 122 -65 193z" />
    <glyph glyph-name="eth" unicode="&#xf0;" horiz-adv-x="715" 
d="M445 672q107 -54 162.5 -152t55.5 -235q0 -91 -36.5 -158.5t-106.5 -105t-166 -37.5q-91 0 -159 30t-105.5 86.5t-37.5 134.5q0 75 35 133t100.5 91t152.5 33q63 0 107.5 -15.5t84.5 -51.5q-35 126 -159 178l-93 -80l-52 53l64 53q-42 14 -139 20l12 88q134 -9 207 -33
l80 69l52 -53zM540 251q0 68 -50 107.5t-135 39.5q-84 0 -132 -43t-48 -118q0 -74 49 -117t133 -43q83 0 133 43.5t50 116.5v14z" />
    <glyph glyph-name="dcroat" unicode="&#x111;" horiz-adv-x="750" 
d="M535 0v86q-36 -50 -93 -76t-130 -26q-76 0 -134.5 31.5t-92 90.5t-33.5 139q0 74 33.5 134t95 95t142.5 35q72 0 122 -22t88 -70v149h-206v80h206v68h120v-68h85v-80h-85v-566h-118zM534 260q0 31 -12 60t-35 51q-45 45 -129 45q-90 0 -136 -43.5t-46 -127.5
q0 -79 46.5 -123.5t129.5 -44.5q38 0 73.5 13.5t61.5 36.5q23 21 35 48.5t12 56.5v28z" />
    <glyph glyph-name="hbar" unicode="&#x127;" horiz-adv-x="727" 
d="M532 0v287q0 66 -31 95.5t-100 29.5q-38 0 -73.5 -14t-62.5 -39q-47 -44 -47 -102v-257h-120v566h-86v80h86v68h120v-68h205v-80h-205v-157q85 100 220 100q105 0 159.5 -51t54.5 -149v-309h-120z" />
    <glyph glyph-name="tbar" unicode="&#x167;" horiz-adv-x="486" 
d="M452 10q-67 -21 -137 -21q-92 0 -134.5 42.5t-42.5 136.5v59h-101v91h101v111h-101v91h101v140h120v-140h178v-91h-178v-111h178v-91h-178v-63q0 -41 20.5 -61t63.5 -20q46 0 92 15z" />
    <glyph glyph-name="lslash" unicode="&#x142;" horiz-adv-x="378" 
d="M129 0v311l-112 -62v96l112 62v307h120v-244l112 62v-96l-112 -62v-374h-120z" />
    <glyph glyph-name="oslash" unicode="&#xf8;" horiz-adv-x="717" 
d="M83 -10l54 64q-85 73 -85 204q0 82 37 144.5t107.5 98t165.5 35.5q88 0 154 -30l59 71l59 -47l-54 -64q85 -73 85 -204q0 -82 -37 -144.5t-107.5 -98t-165.5 -35.5q-88 0 -154 30l-59 -71zM450 427q-39 17 -90 17q-90 0 -139 -48t-49 -136q0 -75 35 -122zM267 93
q39 -17 90 -17q90 0 139 48t49 136q0 75 -35 122z" />
    <glyph glyph-name="uni0327" unicode="&#x327;" horiz-adv-x="0" 
d="M-116 -139q54 -9 82 -9q30 0 46.5 7t16.5 20q0 15 -19 22t-63 7h-27l43 106l66 -14l-18 -46q110 -12 110 -83q0 -40 -36 -61.5t-104 -21.5q-66 0 -97 11v62z" />
    <glyph glyph-name="uni0327.cap" horiz-adv-x="0" 
d="M-121 -149q53 -10 85 -10q66 0 66 31q0 17 -20 24t-67 7h-27l46 112l68 -15l-19 -49q56 -6 85 -28.5t29 -59.5q0 -41 -38 -63.5t-108 -22.5q-65 0 -100 11v63z" />
    <glyph glyph-name="cedilla" unicode="&#xb8;" horiz-adv-x="708" 
d="M236 -139q54 -9 82 -9q30 0 46.5 7t16.5 20q0 15 -19 22t-63 7h-27l43 106l66 -14l-18 -46q110 -12 110 -83q0 -40 -36 -61.5t-104 -21.5q-66 0 -97 11v62z" />
    <glyph glyph-name="uni0326" unicode="&#x326;" horiz-adv-x="0" 
d="M-156 -220l94 153h129l-118 -153h-105z" />
    <glyph glyph-name="uni0326.cap" horiz-adv-x="0" 
d="M-152 -225l96 158h133l-122 -158h-107z" />
    <glyph glyph-name="uni0312" unicode="&#x312;" horiz-adv-x="0" 
d="M-72 589l116 153h106l-93 -153h-129z" />
    <glyph glyph-name="uni0328" unicode="&#x328;" horiz-adv-x="0" 
d="M66 -181q-31 -6 -54 -6q-132 0 -132 83q0 32 27.5 61t85.5 58l67 -15q-41 -23 -61 -43t-20 -39q0 -31 53 -31q13 0 34 3v-71z" />
    <glyph glyph-name="uni0328.cap" horiz-adv-x="0" 
d="M67 -187q-24 -5 -55 -5q-135 0 -135 86q0 34 28 63.5t87 58.5l72 -16q-85 -44 -85 -84q0 -17 13 -25t42 -8q8 0 16.5 0.5t16.5 2.5v-73z" />
    <glyph glyph-name="uni0328.round" horiz-adv-x="0" 
d="M66 -181q-31 -6 -54 -6q-132 0 -132 83q0 33 30 63t94 59l56 -13q-81 -47 -81 -84q0 -18 12.5 -26t40.5 -8q13 0 34 3v-71z" />
    <glyph glyph-name="uni0328.round.cap" horiz-adv-x="0" 
d="M67 -187q-24 -5 -55 -5q-135 0 -135 86q0 33 29 62.5t91 58.5l62 -14q-80 -44 -80 -83q0 -18 13 -26.5t42 -8.5q18 0 33 3v-73z" />
    <glyph glyph-name="ogonek" unicode="&#x2db;" horiz-adv-x="708" 
d="M447 -181q-31 -6 -54 -6q-132 0 -132 83q0 32 27.5 61t85.5 58l67 -15q-41 -23 -61 -43t-20 -39q0 -31 53 -31q13 0 34 3v-71z" />
    <glyph glyph-name="Ccedilla" unicode="&#xc7;" horiz-adv-x="857" 
d="M809 241q-20 -125 -114 -192t-249 -67q-117 0 -204.5 44.5t-136.5 129.5t-49 201q0 110 47 195t135 132.5t207 47.5q286 0 352 -239l-128 -19q-27 80 -80.5 116t-144.5 36q-119 0 -188 -72t-69 -197q0 -126 69.5 -197.5t191.5 -71.5q98 0 153 37t75 116h133zM326 -149
q53 -10 85 -10q66 0 66 31q0 17 -20 24t-67 7h-27l46 112l68 -15l-19 -49q56 -6 85 -28.5t29 -59.5q0 -41 -38 -63.5t-108 -22.5q-65 0 -100 11v63z" />
    <glyph glyph-name="Scedilla" unicode="&#x15e;" horiz-adv-x="785" 
d="M594 517q-16 42 -42 67t-65 36t-97 11q-96 0 -149 -25.5t-53 -73.5q0 -45 34.5 -68t120.5 -36l148 -22q125 -19 183.5 -70.5t58.5 -141.5q0 -101 -86.5 -156.5t-242.5 -55.5q-170 0 -257.5 59t-102.5 183h128q13 -74 68.5 -107.5t163.5 -33.5q97 0 148.5 29t51.5 82
q0 44 -35.5 69t-110.5 36l-128 19q-99 15 -157 41t-84 67.5t-26 102.5q0 96 86.5 149.5t242.5 53.5q96 0 161 -21t104.5 -64t57.5 -112zM274 -149q53 -10 85 -10q66 0 66 31q0 17 -20 24t-67 7h-27l46 112l68 -15l-19 -49q56 -6 85 -28.5t29 -59.5q0 -41 -38 -63.5
t-108 -22.5q-65 0 -100 11v63z" />
    <glyph glyph-name="uni0162" unicode="&#x162;" horiz-adv-x="729" 
d="M301 0v607h-288v107h703v-107h-288v-607h-127zM244 -149q53 -10 85 -10q66 0 66 31q0 17 -20 24t-67 7h-27l46 112l68 -15l-19 -49q56 -6 85 -28.5t29 -59.5q0 -41 -38 -63.5t-108 -22.5q-65 0 -100 11v63z" />
    <glyph glyph-name="uni0122" unicode="&#x122;" horiz-adv-x="870" 
d="M689 276h-217v105h336v-301q-64 -47 -153.5 -72.5t-186.5 -25.5q-126 0 -218.5 44t-143 127.5t-50.5 200.5q0 114 47.5 199t138 132t213.5 47q132 0 218.5 -55t118.5 -157l-126 -18q-24 64 -77 94.5t-137 30.5q-126 0 -195.5 -71.5t-69.5 -199.5q0 -130 72.5 -199.5
t209.5 -69.5q134 0 220 46v143zM314 -225l96 158h133l-122 -158h-107z" />
    <glyph glyph-name="uni0136" unicode="&#x136;" horiz-adv-x="815" 
d="M649 0l-287 374l-142 -112v-262h-127v714h127v-325l392 325h157l-316 -266l346 -448h-150zM283 -225l96 158h133l-122 -158h-107z" />
    <glyph glyph-name="uni013B" unicode="&#x13b;" horiz-adv-x="698" 
d="M93 0v714h127v-607h453l-18 -107h-562zM222 -225l96 158h133l-122 -158h-107z" />
    <glyph glyph-name="uni0145" unicode="&#x145;" horiz-adv-x="874" 
d="M663 0l-447 539v-539h-123v714h118l447 -539v539h123v-714h-118zM287 -225l96 158h133l-122 -158h-107z" />
    <glyph glyph-name="Rcommaaccent" unicode="&#x156;" horiz-adv-x="778" 
d="M618 0l-161 281q-9 -1 -17.5 -1h-17.5h-207v-280h-122v714h341q287 0 287 -217q0 -145 -140 -192l180 -305h-143zM426 383q86 0 127.5 28t41.5 87q0 60 -39.5 86.5t-127.5 26.5h-213v-228h211zM259 -225l96 158h133l-122 -158h-107z" />
    <glyph glyph-name="uni0218" unicode="&#x218;" horiz-adv-x="785" 
d="M594 517q-16 42 -42 67t-65 36t-97 11q-96 0 -149 -25.5t-53 -73.5q0 -45 34.5 -68t120.5 -36l148 -22q125 -19 183.5 -70.5t58.5 -141.5q0 -101 -86.5 -156.5t-242.5 -55.5q-170 0 -257.5 59t-102.5 183h128q13 -74 68.5 -107.5t163.5 -33.5q97 0 148.5 29t51.5 82
q0 44 -35.5 69t-110.5 36l-128 19q-99 15 -157 41t-84 67.5t-26 102.5q0 96 86.5 149.5t242.5 53.5q96 0 161 -21t104.5 -64t57.5 -112zM243 -225l96 158h133l-122 -158h-107z" />
    <glyph glyph-name="uni021A" unicode="&#x21a;" horiz-adv-x="729" 
d="M301 0v607h-288v107h703v-107h-288v-607h-127zM213 -225l96 158h133l-122 -158h-107z" />
    <glyph glyph-name="Aogonek" unicode="&#x104;" horiz-adv-x="842" 
d="M690 0l-82 179h-377l-83 -179h-133l337 714h138l337 -714h-137zM419 593l-144 -310h286zM830 -187q-24 -5 -55 -5q-135 0 -135 86q0 34 28 63.5t87 58.5l72 -16q-85 -44 -85 -84q0 -17 13 -25t42 -8q8 0 16.5 0.5t16.5 2.5v-73z" />
    <glyph glyph-name="Eogonek" unicode="&#x118;" horiz-adv-x="742" 
d="M93 0v714h582v-107h-455v-186h433v-107h-433v-207h477l-18 -107h-586zM682 -187q-24 -5 -55 -5q-135 0 -135 86q0 34 28 63.5t87 58.5l72 -16q-85 -44 -85 -84q0 -17 13 -25t42 -8q8 0 16.5 0.5t16.5 2.5v-73z" />
    <glyph glyph-name="Iogonek" unicode="&#x12e;" horiz-adv-x="313" 
d="M93 0v714h127v-714h-127zM223 -187q-24 -5 -55 -5q-135 0 -135 86q0 34 28 63.5t87 58.5l72 -16q-85 -44 -85 -84q0 -17 13 -25t42 -8q8 0 16.5 0.5t16.5 2.5v-73z" />
    <glyph glyph-name="Uogonek" unicode="&#x172;" horiz-adv-x="848" 
d="M636 714h127v-421q0 -156 -84.5 -233.5t-254.5 -77.5t-254.5 77.5t-84.5 233.5v421h127v-427q0 -102 51.5 -150.5t160.5 -48.5t160.5 48.5t51.5 150.5v427zM572 -187q-24 -5 -55 -5q-135 0 -135 86q0 33 29 62.5t91 58.5l62 -14q-80 -44 -80 -83q0 -18 13 -26.5t42 -8.5
q18 0 33 3v-73z" />
    <glyph glyph-name="ccedilla" unicode="&#xe7;" horiz-adv-x="666" 
d="M622 182q-15 -95 -86 -146.5t-186 -51.5q-141 0 -219.5 72.5t-78.5 202.5q0 83 35.5 145.5t103.5 97t161 34.5q108 0 175.5 -46.5t85.5 -133.5l-122 -16q-28 102 -140 102q-83 0 -129 -47.5t-46 -133.5q0 -89 45.5 -136t131.5 -47q125 0 148 104h121zM230 -139
q54 -9 82 -9q30 0 46.5 7t16.5 20q0 15 -19 22t-63 7h-27l43 106l66 -14l-18 -46q110 -12 110 -83q0 -40 -36 -61.5t-104 -21.5q-66 0 -97 11v62z" />
    <glyph glyph-name="scedilla" unicode="&#x15f;" horiz-adv-x="637" 
d="M463 378q-14 35 -49.5 51t-100.5 16q-66 0 -101 -15.5t-35 -45.5q0 -23 11 -34.5t37 -19.5t74 -15l67 -10q87 -13 135 -32.5t68.5 -49t20.5 -75.5q0 -81 -66.5 -122.5t-196.5 -41.5t-198.5 43t-83.5 132h117q13 -43 51.5 -62.5t111.5 -19.5q146 0 146 65q0 29 -27 43
t-100 25l-67 10q-84 12 -131 32t-66.5 51t-19.5 79q0 72 67.5 113t185.5 41q117 0 179.5 -34.5t84.5 -111.5zM207 -139q54 -9 82 -9q30 0 46.5 7t16.5 20q0 15 -19 22t-63 7h-27l43 106l66 -14l-18 -46q110 -12 110 -83q0 -40 -36 -61.5t-104 -21.5q-66 0 -97 11v62z" />
    <glyph glyph-name="uni0163" unicode="&#x163;" horiz-adv-x="458" 
d="M438 10q-67 -21 -137 -21q-92 0 -134.5 42.5t-42.5 136.5v261h-101v91h101v140h120v-140h178v-91h-178v-265q0 -41 20.5 -61t63.5 -20q46 0 92 15zM164 -139q54 -9 82 -9q30 0 46.5 7t16.5 20q0 15 -19 22t-63 7h-27l43 106l66 -14l-18 -46q110 -12 110 -83
q0 -40 -36 -61.5t-104 -21.5q-66 0 -97 11v62z" />
    <glyph glyph-name="uni0123" unicode="&#x123;" horiz-adv-x="732" 
d="M533 111q-72 -98 -221 -98q-76 0 -134.5 31t-92 90t-33.5 138q0 74 33.5 134t95.5 95t143 35q71 0 122.5 -22t88.5 -69v75h118v-432q0 -153 -69.5 -223t-220.5 -70q-133 0 -203 40.5t-83 124.5h121q14 -38 53 -55.5t111 -17.5q87 0 129 39.5t42 123.5v61zM533 286
q0 65 -48 113q-43 43 -128 43q-86 0 -133.5 -44t-47.5 -124q0 -79 45.5 -123t129.5 -44q41 0 76 13t59 36q47 45 47 105v25zM303 589l116 153h106l-93 -153h-129z" />
    <glyph glyph-name="uni0137" unicode="&#x137;" horiz-adv-x="659" 
d="M518 0l-203 288l-116 -85v-203h-120v714h120v-396l274 202h158l-230 -170l254 -350h-137zM211 -220l94 153h129l-118 -153h-105z" />
    <glyph glyph-name="uni013C" unicode="&#x13c;" horiz-adv-x="278" 
d="M79 0v714h120v-714h-120zM-17 -220l94 153h129l-118 -153h-105z" />
    <glyph glyph-name="uni0146" unicode="&#x146;" horiz-adv-x="708" 
d="M513 0v314q0 66 -31 95.5t-100 29.5q-38 0 -73.5 -14t-62.5 -39q-47 -44 -47 -102v-284h-120v520h118v-86q86 102 222 102q105 0 159.5 -51t54.5 -149v-336h-120zM200 -220l94 153h129l-118 -153h-105z" />
    <glyph glyph-name="rcommaaccent" unicode="&#x157;" horiz-adv-x="468" 
d="M79 0v520h118v-89q37 47 86.5 72t105.5 25q24 0 56 -5l-14 -100q-30 5 -55 5q-79 0 -128 -45q-49 -44 -49 -103v-280h-120zM-17 -220l94 153h129l-118 -153h-105z" />
    <glyph glyph-name="uni0219" unicode="&#x219;" horiz-adv-x="637" 
d="M463 378q-14 35 -49.5 51t-100.5 16q-66 0 -101 -15.5t-35 -45.5q0 -23 11 -34.5t37 -19.5t74 -15l67 -10q87 -13 135 -32.5t68.5 -49t20.5 -75.5q0 -81 -66.5 -122.5t-196.5 -41.5t-198.5 43t-83.5 132h117q13 -43 51.5 -62.5t111.5 -19.5q146 0 146 65q0 29 -27 43
t-100 25l-67 10q-84 12 -131 32t-66.5 51t-19.5 79q0 72 67.5 113t185.5 41q117 0 179.5 -34.5t84.5 -111.5zM167 -220l94 153h129l-118 -153h-105z" />
    <glyph glyph-name="uni021B" unicode="&#x21b;" horiz-adv-x="458" 
d="M438 10q-67 -21 -137 -21q-92 0 -134.5 42.5t-42.5 136.5v261h-101v91h101v140h120v-140h178v-91h-178v-265q0 -41 20.5 -61t63.5 -20q46 0 92 15zM124 -220l94 153h129l-118 -153h-105z" />
    <glyph glyph-name="aogonek" unicode="&#x105;" horiz-adv-x="668" 
d="M482 0v75q-46 -46 -100 -67.5t-127 -21.5q-101 0 -156 41.5t-55 117.5q0 85 71.5 126.5t225.5 46.5l138 4v17q0 106 -140 106q-68 0 -105 -16.5t-48 -50.5l-107 12q18 75 82 110.5t182 35.5q127 0 188.5 -50t61.5 -153v-333h-111zM479 243l-136 -4q-94 -3 -135.5 -23
t-41.5 -61q0 -37 32 -57.5t89 -20.5q43 0 82.5 12.5t68.5 35.5q41 31 41 83v35zM599 -181q-31 -6 -54 -6q-132 0 -132 83q0 32 27.5 61t85.5 58l67 -15q-41 -23 -61 -43t-20 -39q0 -31 53 -31q13 0 34 3v-71z" />
    <glyph glyph-name="eogonek" unicode="&#x119;" horiz-adv-x="681" 
d="M169 230q2 -72 50.5 -114.5t127.5 -42.5q62 0 101.5 20.5t54.5 60.5h119q-22 -86 -90.5 -128t-185.5 -42q-137 0 -215.5 72.5t-78.5 198.5q0 82 35.5 145.5t102 99.5t155.5 36q135 0 209.5 -69.5t74.5 -194.5v-42h-460zM514 310q-2 66 -46.5 102.5t-123.5 36.5
q-71 0 -117.5 -37.5t-54.5 -101.5h342zM484 -181q-31 -6 -54 -6q-132 0 -132 83q0 33 30 63t94 59l56 -13q-81 -47 -81 -84q0 -18 12.5 -26t40.5 -8q13 0 34 3v-71z" />
    <glyph glyph-name="iogonek" unicode="&#x12f;" horiz-adv-x="278" 
d="M79 0v520h120v-520h-120zM77 597v117h124v-117h-124zM205 -181q-31 -6 -54 -6q-132 0 -132 83q0 32 27.5 61t85.5 58l67 -15q-41 -23 -61 -43t-20 -39q0 -31 53 -31q13 0 34 3v-71z" />
    <glyph glyph-name="iogonek.dotless" horiz-adv-x="278" 
d="M79 0v520h120v-520h-120zM205 -181q-31 -6 -54 -6q-132 0 -132 83q0 32 27.5 61t85.5 58l67 -15q-41 -23 -61 -43t-20 -39q0 -31 53 -31q13 0 34 3v-71z" />
    <glyph glyph-name="uogonek" unicode="&#x173;" horiz-adv-x="698" 
d="M501 0v86q-87 -102 -219 -102q-99 0 -153 51t-54 146v339h120v-318q0 -61 30.5 -91t93.5 -30q75 0 133 51q47 42 47 103v285h120v-520h-118zM625 -181q-31 -6 -54 -6q-132 0 -132 83q0 32 27.5 61t85.5 58l67 -15q-41 -23 -61 -43t-20 -39q0 -31 53 -31q13 0 34 3v-71z
" />
    <glyph glyph-name="acutecomb" unicode="&#x301;" horiz-adv-x="0" 
d="M28 589h-115l145 151h142z" />
    <glyph glyph-name="acutecomb.cap" horiz-adv-x="0" 
d="M33 773h-121l148 142h149z" />
    <glyph glyph-name="acute" unicode="&#xb4;" horiz-adv-x="708" 
d="M326 589h-115l145 151h142z" />
    <glyph glyph-name="uni030B" unicode="&#x30b;" horiz-adv-x="0" 
d="M-65 589h-105l129 151h128zM151 589h-105l129 151h128z" />
    <glyph glyph-name="uni030B.cap" horiz-adv-x="0" 
d="M153 773h-107l136 142h135zM-74 773h-107l136 142h135z" />
    <glyph glyph-name="hungarumlaut" unicode="&#x2dd;" horiz-adv-x="708" 
d="M223 589h-105l129 151h128zM439 589h-105l129 151h128z" />
    <glyph glyph-name="Aacute" unicode="&#xc1;" horiz-adv-x="842" 
d="M690 0l-82 179h-377l-83 -179h-133l337 714h138l337 -714h-137zM419 593l-144 -310h286zM451 773h-121l148 142h149z" />
    <glyph glyph-name="Cacute" unicode="&#x106;" horiz-adv-x="857" 
d="M809 241q-20 -125 -114 -192t-249 -67q-117 0 -204.5 44.5t-136.5 129.5t-49 201q0 110 47 195t135 132.5t207 47.5q286 0 352 -239l-128 -19q-27 80 -80.5 116t-144.5 36q-119 0 -188 -72t-69 -197q0 -126 69.5 -197.5t191.5 -71.5q98 0 153 37t75 116h133zM477 773
h-121l148 142h149z" />
    <glyph glyph-name="Eacute" unicode="&#xc9;" horiz-adv-x="742" 
d="M93 0v714h582v-107h-455v-186h433v-107h-433v-207h477l-18 -107h-586zM416 773h-121l148 142h149z" />
    <glyph glyph-name="Iacute" unicode="&#xcd;" horiz-adv-x="313" 
d="M93 0v714h127v-714h-127zM189 773h-121l148 142h149z" />
    <glyph glyph-name="Lacute" unicode="&#x139;" horiz-adv-x="698" 
d="M93 0v714h127v-607h453l-18 -107h-562zM189 773h-121l148 142h149z" />
    <glyph glyph-name="Nacute" unicode="&#x143;" horiz-adv-x="874" 
d="M663 0l-447 539v-539h-123v714h118l447 -539v539h123v-714h-118zM468 773h-121l148 142h149z" />
    <glyph glyph-name="Oacute" unicode="&#xd3;" horiz-adv-x="922" 
d="M866 357q0 -112 -48.5 -196.5t-140.5 -131.5t-217 -47q-120 0 -211.5 44.5t-142 129.5t-50.5 201q0 112 48.5 196.5t140.5 131.5t217 47q120 0 211.5 -44.5t142 -129.5t50.5 -201zM735 357q0 127 -71.5 198t-201.5 71t-202.5 -71t-72.5 -198t71.5 -198t201.5 -71
t202.5 71t72.5 198zM495 773h-121l148 142h149z" />
    <glyph glyph-name="Racute" unicode="&#x154;" horiz-adv-x="778" 
d="M618 0l-161 281q-9 -1 -17.5 -1h-17.5h-207v-280h-122v714h341q287 0 287 -217q0 -145 -140 -192l180 -305h-143zM426 383q86 0 127.5 28t41.5 87q0 60 -39.5 86.5t-127.5 26.5h-213v-228h211zM440 773h-121l148 142h149z" />
    <glyph glyph-name="Sacute" unicode="&#x15a;" horiz-adv-x="785" 
d="M594 517q-16 42 -42 67t-65 36t-97 11q-96 0 -149 -25.5t-53 -73.5q0 -45 34.5 -68t120.5 -36l148 -22q125 -19 183.5 -70.5t58.5 -141.5q0 -101 -86.5 -156.5t-242.5 -55.5q-170 0 -257.5 59t-102.5 183h128q13 -74 68.5 -107.5t163.5 -33.5q97 0 148.5 29t51.5 82
q0 44 -35.5 69t-110.5 36l-128 19q-99 15 -157 41t-84 67.5t-26 102.5q0 96 86.5 149.5t242.5 53.5q96 0 161 -21t104.5 -64t57.5 -112zM426 773h-121l148 142h149z" />
    <glyph glyph-name="Uacute" unicode="&#xda;" horiz-adv-x="848" 
d="M636 714h127v-421q0 -156 -84.5 -233.5t-254.5 -77.5t-254.5 77.5t-84.5 233.5v421h127v-427q0 -102 51.5 -150.5t160.5 -48.5t160.5 48.5t51.5 150.5v427zM457 773h-121l148 142h149z" />
    <glyph glyph-name="Wacute" unicode="&#x1e82;" horiz-adv-x="1157" 
d="M758 0l-181 552l-183 -552h-134l-241 714h141l172 -561l184 557h128l185 -559l173 563h136l-241 -714h-139zM614 773h-121l148 142h149z" />
    <glyph glyph-name="Yacute" unicode="&#xdd;" horiz-adv-x="765" 
d="M320 0v293l-305 421h146l225 -317l224 317h142l-305 -421v-293h-127zM419 773h-121l148 142h149z" />
    <glyph glyph-name="Zacute" unicode="&#x179;" horiz-adv-x="714" 
d="M30 0v94l484 513h-475v107h636v-94l-484 -513h501l-18 -107h-644zM390 773h-121l148 142h149z" />
    <glyph glyph-name="Ohungarumlaut" unicode="&#x150;" horiz-adv-x="922" 
d="M866 357q0 -112 -48.5 -196.5t-140.5 -131.5t-217 -47q-120 0 -211.5 44.5t-142 129.5t-50.5 201q0 112 48.5 196.5t140.5 131.5t217 47q120 0 211.5 -44.5t142 -129.5t50.5 -201zM735 357q0 127 -71.5 198t-201.5 71t-202.5 -71t-72.5 -198t71.5 -198t201.5 -71
t202.5 71t72.5 198zM615 773h-107l136 142h135zM388 773h-107l136 142h135z" />
    <glyph glyph-name="Uhungarumlaut" unicode="&#x170;" horiz-adv-x="848" 
d="M636 714h127v-421q0 -156 -84.5 -233.5t-254.5 -77.5t-254.5 77.5t-84.5 233.5v421h127v-427q0 -102 51.5 -150.5t160.5 -48.5t160.5 48.5t51.5 150.5v427zM577 773h-107l136 142h135zM350 773h-107l136 142h135z" />
    <glyph glyph-name="aacute" unicode="&#xe1;" horiz-adv-x="668" 
d="M482 0v75q-46 -46 -100 -67.5t-127 -21.5q-101 0 -156 41.5t-55 117.5q0 85 71.5 126.5t225.5 46.5l138 4v17q0 106 -140 106q-68 0 -105 -16.5t-48 -50.5l-107 12q18 75 82 110.5t182 35.5q127 0 188.5 -50t61.5 -153v-333h-111zM479 243l-136 -4q-94 -3 -135.5 -23
t-41.5 -61q0 -37 32 -57.5t89 -20.5q43 0 82.5 12.5t68.5 35.5q41 31 41 83v35zM370 589h-115l145 151h142z" />
    <glyph glyph-name="cacute" unicode="&#x107;" horiz-adv-x="666" 
d="M622 182q-15 -95 -86 -146.5t-186 -51.5q-141 0 -219.5 72.5t-78.5 202.5q0 83 35.5 145.5t103.5 97t161 34.5q108 0 175.5 -46.5t85.5 -133.5l-122 -16q-28 102 -140 102q-83 0 -129 -47.5t-46 -133.5q0 -89 45.5 -136t131.5 -47q125 0 148 104h121zM375 589h-115
l145 151h142z" />
    <glyph glyph-name="eacute" unicode="&#xe9;" horiz-adv-x="681" 
d="M169 230q2 -72 50.5 -114.5t127.5 -42.5q62 0 101.5 20.5t54.5 60.5h119q-22 -86 -90.5 -128t-185.5 -42q-137 0 -215.5 72.5t-78.5 198.5q0 82 35.5 145.5t102 99.5t155.5 36q135 0 209.5 -69.5t74.5 -194.5v-42h-460zM514 310q-2 66 -46.5 102.5t-123.5 36.5
q-71 0 -117.5 -37.5t-54.5 -101.5h342zM377 589h-115l145 151h142z" />
    <glyph glyph-name="iacute" unicode="&#xed;" horiz-adv-x="278" 
d="M79 0v520h120v-520h-120zM167 589h-115l145 151h142z" />
    <glyph glyph-name="lacute" unicode="&#x13a;" horiz-adv-x="278" 
d="M79 0v714h120v-714h-120zM172 773h-121l148 142h149z" />
    <glyph glyph-name="nacute" unicode="&#x144;" horiz-adv-x="708" 
d="M513 0v314q0 66 -31 95.5t-100 29.5q-38 0 -73.5 -14t-62.5 -39q-47 -44 -47 -102v-284h-120v520h118v-86q86 102 222 102q105 0 159.5 -51t54.5 -149v-336h-120zM388 589h-115l145 151h142z" />
    <glyph glyph-name="oacute" unicode="&#xf3;" horiz-adv-x="717" 
d="M665 262q0 -82 -37 -144.5t-107.5 -98t-165.5 -35.5q-141 0 -222 73t-81 201q0 82 37 144.5t107 98t165 35.5q142 0 223 -73t81 -201zM541 260q0 87 -47.5 134.5t-134.5 47.5t-135 -47.5t-48 -134.5t47.5 -134.5t133.5 -47.5q88 0 136 47.5t48 134.5zM386 589h-115
l145 151h142z" />
    <glyph glyph-name="racute" unicode="&#x155;" horiz-adv-x="468" 
d="M79 0v520h118v-89q37 47 86.5 72t105.5 25q24 0 56 -5l-14 -100q-30 5 -55 5q-79 0 -128 -45q-49 -44 -49 -103v-280h-120zM301 589h-115l145 151h142z" />
    <glyph glyph-name="sacute" unicode="&#x15b;" horiz-adv-x="637" 
d="M463 378q-14 35 -49.5 51t-100.5 16q-66 0 -101 -15.5t-35 -45.5q0 -23 11 -34.5t37 -19.5t74 -15l67 -10q87 -13 135 -32.5t68.5 -49t20.5 -75.5q0 -81 -66.5 -122.5t-196.5 -41.5t-198.5 43t-83.5 132h117q13 -43 51.5 -62.5t111.5 -19.5q146 0 146 65q0 29 -27 43
t-100 25l-67 10q-84 12 -131 32t-66.5 51t-19.5 79q0 72 67.5 113t185.5 41q117 0 179.5 -34.5t84.5 -111.5zM337 589h-115l145 151h142z" />
    <glyph glyph-name="uacute" unicode="&#xfa;" horiz-adv-x="698" 
d="M501 0v86q-87 -102 -219 -102q-99 0 -153 51t-54 146v339h120v-318q0 -61 30.5 -91t93.5 -30q75 0 133 51q47 42 47 103v285h120v-520h-118zM375 589h-115l145 151h142z" />
    <glyph glyph-name="wacute" unicode="&#x1e83;" horiz-adv-x="919" 
d="M601 0l-142 383l-141 -383h-121l-186 520h128l126 -394l142 390h111l142 -389l126 393h122l-186 -520h-121zM490 589h-115l145 151h142z" />
    <glyph glyph-name="yacute" unicode="&#xfd;" horiz-adv-x="636" 
d="M268 20l-259 500h136l184 -383l168 383h130l-269 -562q-31 -64 -60 -98.5t-63.5 -49.5t-80.5 -15q-55 0 -106 20l20 88q35 -12 68 -12q38 0 63.5 18t44.5 59zM351 589h-115l145 151h142z" />
    <glyph glyph-name="zacute" unicode="&#x17a;" horiz-adv-x="593" 
d="M32 0v81l353 347h-345v92h501v-81l-353 -347h374l-14 -92h-516zM319 589h-115l145 151h142z" />
    <glyph glyph-name="ohungarumlaut" unicode="&#x151;" horiz-adv-x="717" 
d="M665 262q0 -82 -37 -144.5t-107.5 -98t-165.5 -35.5q-141 0 -222 73t-81 201q0 82 37 144.5t107 98t165 35.5q142 0 223 -73t81 -201zM541 260q0 87 -47.5 134.5t-134.5 47.5t-135 -47.5t-48 -134.5t47.5 -134.5t133.5 -47.5q88 0 136 47.5t48 134.5zM293 589h-105
l129 151h128zM509 589h-105l129 151h128z" />
    <glyph glyph-name="uhungarumlaut" unicode="&#x171;" horiz-adv-x="698" 
d="M501 0v86q-87 -102 -219 -102q-99 0 -153 51t-54 146v339h120v-318q0 -61 30.5 -91t93.5 -30q75 0 133 51q47 42 47 103v285h120v-520h-118zM282 589h-105l129 151h128zM498 589h-105l129 151h128z" />
    <glyph glyph-name="gravecomb" unicode="&#x300;" horiz-adv-x="0" 
d="M-199 740h142l145 -151h-115z" />
    <glyph glyph-name="gravecomb.cap" horiz-adv-x="0" 
d="M-209 915h149l148 -142h-121z" />
    <glyph glyph-name="grave" unicode="`" horiz-adv-x="708" 
d="M211 740h142l145 -151h-115z" />
    <glyph glyph-name="uni02CB" unicode="&#x2cb;" horiz-adv-x="708" 
d="M211 740h142l145 -151h-115z" />
    <glyph glyph-name="Agrave" unicode="&#xc0;" horiz-adv-x="842" 
d="M690 0l-82 179h-377l-83 -179h-133l337 714h138l337 -714h-137zM419 593l-144 -310h286zM209 915h149l148 -142h-121z" />
    <glyph glyph-name="Egrave" unicode="&#xc8;" horiz-adv-x="742" 
d="M93 0v714h582v-107h-455v-186h433v-107h-433v-207h477l-18 -107h-586zM174 915h149l148 -142h-121z" />
    <glyph glyph-name="Igrave" unicode="&#xcc;" horiz-adv-x="313" 
d="M93 0v714h127v-714h-127zM-53 915h149l148 -142h-121z" />
    <glyph glyph-name="Ograve" unicode="&#xd2;" horiz-adv-x="922" 
d="M866 357q0 -112 -48.5 -196.5t-140.5 -131.5t-217 -47q-120 0 -211.5 44.5t-142 129.5t-50.5 201q0 112 48.5 196.5t140.5 131.5t217 47q120 0 211.5 -44.5t142 -129.5t50.5 -201zM735 357q0 127 -71.5 198t-201.5 71t-202.5 -71t-72.5 -198t71.5 -198t201.5 -71
t202.5 71t72.5 198zM253 915h149l148 -142h-121z" />
    <glyph glyph-name="Ugrave" unicode="&#xd9;" horiz-adv-x="848" 
d="M636 714h127v-421q0 -156 -84.5 -233.5t-254.5 -77.5t-254.5 77.5t-84.5 233.5v421h127v-427q0 -102 51.5 -150.5t160.5 -48.5t160.5 48.5t51.5 150.5v427zM215 915h149l148 -142h-121z" />
    <glyph glyph-name="Wgrave" unicode="&#x1e80;" horiz-adv-x="1157" 
d="M758 0l-181 552l-183 -552h-134l-241 714h141l172 -561l184 557h128l185 -559l173 563h136l-241 -714h-139zM372 915h149l148 -142h-121z" />
    <glyph glyph-name="Ygrave" unicode="&#x1ef2;" horiz-adv-x="765" 
d="M320 0v293l-305 421h146l225 -317l224 317h142l-305 -421v-293h-127zM177 915h149l148 -142h-121z" />
    <glyph glyph-name="agrave" unicode="&#xe0;" horiz-adv-x="668" 
d="M482 0v75q-46 -46 -100 -67.5t-127 -21.5q-101 0 -156 41.5t-55 117.5q0 85 71.5 126.5t225.5 46.5l138 4v17q0 106 -140 106q-68 0 -105 -16.5t-48 -50.5l-107 12q18 75 82 110.5t182 35.5q127 0 188.5 -50t61.5 -153v-333h-111zM479 243l-136 -4q-94 -3 -135.5 -23
t-41.5 -61q0 -37 32 -57.5t89 -20.5q43 0 82.5 12.5t68.5 35.5q41 31 41 83v35zM143 740h142l145 -151h-115z" />
    <glyph glyph-name="egrave" unicode="&#xe8;" horiz-adv-x="681" 
d="M169 230q2 -72 50.5 -114.5t127.5 -42.5q62 0 101.5 20.5t54.5 60.5h119q-22 -86 -90.5 -128t-185.5 -42q-137 0 -215.5 72.5t-78.5 198.5q0 82 35.5 145.5t102 99.5t155.5 36q135 0 209.5 -69.5t74.5 -194.5v-42h-460zM514 310q-2 66 -46.5 102.5t-123.5 36.5
q-71 0 -117.5 -37.5t-54.5 -101.5h342zM150 740h142l145 -151h-115z" />
    <glyph glyph-name="igrave" unicode="&#xec;" horiz-adv-x="278" 
d="M79 0v520h120v-520h-120zM-60 740h142l145 -151h-115z" />
    <glyph glyph-name="ograve" unicode="&#xf2;" horiz-adv-x="717" 
d="M665 262q0 -82 -37 -144.5t-107.5 -98t-165.5 -35.5q-141 0 -222 73t-81 201q0 82 37 144.5t107 98t165 35.5q142 0 223 -73t81 -201zM541 260q0 87 -47.5 134.5t-134.5 47.5t-135 -47.5t-48 -134.5t47.5 -134.5t133.5 -47.5q88 0 136 47.5t48 134.5zM159 740h142
l145 -151h-115z" />
    <glyph glyph-name="ugrave" unicode="&#xf9;" horiz-adv-x="698" 
d="M501 0v86q-87 -102 -219 -102q-99 0 -153 51t-54 146v339h120v-318q0 -61 30.5 -91t93.5 -30q75 0 133 51q47 42 47 103v285h120v-520h-118zM148 740h142l145 -151h-115z" />
    <glyph glyph-name="wgrave" unicode="&#x1e81;" horiz-adv-x="919" 
d="M601 0l-142 383l-141 -383h-121l-186 520h128l126 -394l142 390h111l142 -389l126 393h122l-186 -520h-121zM263 740h142l145 -151h-115z" />
    <glyph glyph-name="ygrave" unicode="&#x1ef3;" horiz-adv-x="636" 
d="M268 20l-259 500h136l184 -383l168 383h130l-269 -562q-31 -64 -60 -98.5t-63.5 -49.5t-80.5 -15q-55 0 -106 20l20 88q35 -12 68 -12q38 0 63.5 18t44.5 59zM124 740h142l145 -151h-115z" />
    <glyph glyph-name="uni0302" unicode="&#x302;" horiz-adv-x="0" 
d="M96 590l-96 87l-96 -87h-107l146 151h114l146 -151h-107z" />
    <glyph glyph-name="uni0302.cap" horiz-adv-x="0" 
d="M92 773l-92 77l-92 -77h-112l146 142h116l146 -142h-112z" />
    <glyph glyph-name="circumflex" unicode="&#x2c6;" horiz-adv-x="708" 
d="M450 590l-96 87l-96 -87h-107l146 151h114l146 -151h-107z" />
    <glyph glyph-name="tildecomb" unicode="&#x303;" horiz-adv-x="0" 
d="M221 726q0 -65 -32.5 -99.5t-94.5 -34.5q-25 0 -47.5 7t-56.5 26q-26 14 -40.5 19.5t-30.5 5.5q-29 0 -42 -12.5t-13 -39.5h-83q0 65 32.5 99.5t94.5 34.5q25 0 47.5 -7t56.5 -26q26 -14 40.5 -19.5t30.5 -5.5q29 0 42 12.5t13 39.5h83z" />
    <glyph glyph-name="tildecomb.cap" horiz-adv-x="0" 
d="M222 905q0 -66 -33 -100.5t-97 -34.5q-46 0 -94 29q-30 18 -47 24.5t-33 6.5q-29 0 -41.5 -12.5t-12.5 -42.5h-87q0 66 33 100.5t97 34.5q46 0 94 -29q30 -18 47 -24.5t33 -6.5q29 0 41.5 12.5t12.5 42.5h87z" />
    <glyph glyph-name="tilde" unicode="&#x2dc;" horiz-adv-x="708" 
d="M574 726q0 -65 -32.5 -99.5t-94.5 -34.5q-25 0 -47.5 7t-56.5 26q-26 14 -40.5 19.5t-30.5 5.5q-29 0 -42 -12.5t-13 -39.5h-83q0 65 32.5 99.5t94.5 34.5q25 0 47.5 -7t56.5 -26q26 -14 40.5 -19.5t30.5 -5.5q29 0 42 12.5t13 39.5h83z" />
    <glyph glyph-name="Acircumflex" unicode="&#xc2;" horiz-adv-x="842" 
d="M690 0l-82 179h-377l-83 -179h-133l337 714h138l337 -714h-137zM419 593l-144 -310h286zM510 773l-92 77l-92 -77h-112l146 142h116l146 -142h-112z" />
    <glyph glyph-name="Ccircumflex" unicode="&#x108;" horiz-adv-x="857" 
d="M809 241q-20 -125 -114 -192t-249 -67q-117 0 -204.5 44.5t-136.5 129.5t-49 201q0 110 47 195t135 132.5t207 47.5q286 0 352 -239l-128 -19q-27 80 -80.5 116t-144.5 36q-119 0 -188 -72t-69 -197q0 -126 69.5 -197.5t191.5 -71.5q98 0 153 37t75 116h133zM536 773
l-92 77l-92 -77h-112l146 142h116l146 -142h-112z" />
    <glyph glyph-name="Ecircumflex" unicode="&#xca;" horiz-adv-x="742" 
d="M93 0v714h582v-107h-455v-186h433v-107h-433v-207h477l-18 -107h-586zM475 773l-92 77l-92 -77h-112l146 142h116l146 -142h-112z" />
    <glyph glyph-name="Gcircumflex" unicode="&#x11c;" horiz-adv-x="870" 
d="M689 276h-217v105h336v-301q-64 -47 -153.5 -72.5t-186.5 -25.5q-126 0 -218.5 44t-143 127.5t-50.5 200.5q0 114 47.5 199t138 132t213.5 47q132 0 218.5 -55t118.5 -157l-126 -18q-24 64 -77 94.5t-137 30.5q-126 0 -195.5 -71.5t-69.5 -199.5q0 -130 72.5 -199.5
t209.5 -69.5q134 0 220 46v143zM549 773l-92 77l-92 -77h-112l146 142h116l146 -142h-112z" />
    <glyph glyph-name="Hcircumflex" unicode="&#x124;" horiz-adv-x="871" 
d="M651 0v312h-431v-312h-127v714h127v-288h431v288h127v-714h-127zM528 773l-92 77l-92 -77h-112l146 142h116l146 -142h-112z" />
    <glyph glyph-name="Icircumflex" unicode="&#xce;" horiz-adv-x="313" 
d="M93 0v714h127v-714h-127zM248 773l-92 77l-92 -77h-112l146 142h116l146 -142h-112z" />
    <glyph glyph-name="Jcircumflex" unicode="&#x134;" horiz-adv-x="730" 
d="M518 714h127v-450q0 -139 -77.5 -210.5t-227.5 -71.5q-143 0 -222.5 62t-92.5 184h129q12 -73 57 -106.5t127 -33.5q93 0 136.5 43.5t43.5 135.5v447zM674 773l-92 77l-92 -77h-112l146 142h116l146 -142h-112z" />
    <glyph glyph-name="Ocircumflex" unicode="&#xd4;" horiz-adv-x="922" 
d="M866 357q0 -112 -48.5 -196.5t-140.5 -131.5t-217 -47q-120 0 -211.5 44.5t-142 129.5t-50.5 201q0 112 48.5 196.5t140.5 131.5t217 47q120 0 211.5 -44.5t142 -129.5t50.5 -201zM735 357q0 127 -71.5 198t-201.5 71t-202.5 -71t-72.5 -198t71.5 -198t201.5 -71
t202.5 71t72.5 198zM554 773l-92 77l-92 -77h-112l146 142h116l146 -142h-112z" />
    <glyph glyph-name="Scircumflex" unicode="&#x15c;" horiz-adv-x="785" 
d="M594 517q-16 42 -42 67t-65 36t-97 11q-96 0 -149 -25.5t-53 -73.5q0 -45 34.5 -68t120.5 -36l148 -22q125 -19 183.5 -70.5t58.5 -141.5q0 -101 -86.5 -156.5t-242.5 -55.5q-170 0 -257.5 59t-102.5 183h128q13 -74 68.5 -107.5t163.5 -33.5q97 0 148.5 29t51.5 82
q0 44 -35.5 69t-110.5 36l-128 19q-99 15 -157 41t-84 67.5t-26 102.5q0 96 86.5 149.5t242.5 53.5q96 0 161 -21t104.5 -64t57.5 -112zM485 773l-92 77l-92 -77h-112l146 142h116l146 -142h-112z" />
    <glyph glyph-name="Ucircumflex" unicode="&#xdb;" horiz-adv-x="848" 
d="M636 714h127v-421q0 -156 -84.5 -233.5t-254.5 -77.5t-254.5 77.5t-84.5 233.5v421h127v-427q0 -102 51.5 -150.5t160.5 -48.5t160.5 48.5t51.5 150.5v427zM516 773l-92 77l-92 -77h-112l146 142h116l146 -142h-112z" />
    <glyph glyph-name="Wcircumflex" unicode="&#x174;" horiz-adv-x="1157" 
d="M758 0l-181 552l-183 -552h-134l-241 714h141l172 -561l184 557h128l185 -559l173 563h136l-241 -714h-139zM673 773l-92 77l-92 -77h-112l146 142h116l146 -142h-112z" />
    <glyph glyph-name="Ycircumflex" unicode="&#x176;" horiz-adv-x="765" 
d="M320 0v293l-305 421h146l225 -317l224 317h142l-305 -421v-293h-127zM478 773l-92 77l-92 -77h-112l146 142h116l146 -142h-112z" />
    <glyph glyph-name="Atilde" unicode="&#xc3;" horiz-adv-x="842" 
d="M690 0l-82 179h-377l-83 -179h-133l337 714h138l337 -714h-137zM419 593l-144 -310h286zM640 905q0 -66 -33 -100.5t-97 -34.5q-46 0 -94 29q-30 18 -47 24.5t-33 6.5q-29 0 -41.5 -12.5t-12.5 -42.5h-87q0 66 33 100.5t97 34.5q46 0 94 -29q30 -18 47 -24.5t33 -6.5
q29 0 41.5 12.5t12.5 42.5h87z" />
    <glyph glyph-name="Itilde" unicode="&#x128;" horiz-adv-x="313" 
d="M93 0v714h127v-714h-127zM378 905q0 -66 -33 -100.5t-97 -34.5q-46 0 -94 29q-30 18 -47 24.5t-33 6.5q-29 0 -41.5 -12.5t-12.5 -42.5h-87q0 66 33 100.5t97 34.5q46 0 94 -29q30 -18 47 -24.5t33 -6.5q29 0 41.5 12.5t12.5 42.5h87z" />
    <glyph glyph-name="Ntilde" unicode="&#xd1;" horiz-adv-x="874" 
d="M663 0l-447 539v-539h-123v714h118l447 -539v539h123v-714h-118zM657 905q0 -66 -33 -100.5t-97 -34.5q-46 0 -94 29q-30 18 -47 24.5t-33 6.5q-29 0 -41.5 -12.5t-12.5 -42.5h-87q0 66 33 100.5t97 34.5q46 0 94 -29q30 -18 47 -24.5t33 -6.5q29 0 41.5 12.5t12.5 42.5
h87z" />
    <glyph glyph-name="Otilde" unicode="&#xd5;" horiz-adv-x="922" 
d="M866 357q0 -112 -48.5 -196.5t-140.5 -131.5t-217 -47q-120 0 -211.5 44.5t-142 129.5t-50.5 201q0 112 48.5 196.5t140.5 131.5t217 47q120 0 211.5 -44.5t142 -129.5t50.5 -201zM735 357q0 127 -71.5 198t-201.5 71t-202.5 -71t-72.5 -198t71.5 -198t201.5 -71
t202.5 71t72.5 198zM684 905q0 -66 -33 -100.5t-97 -34.5q-46 0 -94 29q-30 18 -47 24.5t-33 6.5q-29 0 -41.5 -12.5t-12.5 -42.5h-87q0 66 33 100.5t97 34.5q46 0 94 -29q30 -18 47 -24.5t33 -6.5q29 0 41.5 12.5t12.5 42.5h87z" />
    <glyph glyph-name="Utilde" unicode="&#x168;" horiz-adv-x="848" 
d="M636 714h127v-421q0 -156 -84.5 -233.5t-254.5 -77.5t-254.5 77.5t-84.5 233.5v421h127v-427q0 -102 51.5 -150.5t160.5 -48.5t160.5 48.5t51.5 150.5v427zM646 905q0 -66 -33 -100.5t-97 -34.5q-46 0 -94 29q-30 18 -47 24.5t-33 6.5q-29 0 -41.5 -12.5t-12.5 -42.5h-87
q0 66 33 100.5t97 34.5q46 0 94 -29q30 -18 47 -24.5t33 -6.5q29 0 41.5 12.5t12.5 42.5h87z" />
    <glyph glyph-name="acircumflex" unicode="&#xe2;" horiz-adv-x="668" 
d="M482 0v75q-46 -46 -100 -67.5t-127 -21.5q-101 0 -156 41.5t-55 117.5q0 85 71.5 126.5t225.5 46.5l138 4v17q0 106 -140 106q-68 0 -105 -16.5t-48 -50.5l-107 12q18 75 82 110.5t182 35.5q127 0 188.5 -50t61.5 -153v-333h-111zM479 243l-136 -4q-94 -3 -135.5 -23
t-41.5 -61q0 -37 32 -57.5t89 -20.5q43 0 82.5 12.5t68.5 35.5q41 31 41 83v35zM438 590l-96 87l-96 -87h-107l146 151h114l146 -151h-107z" />
    <glyph glyph-name="ccircumflex" unicode="&#x109;" horiz-adv-x="666" 
d="M622 182q-15 -95 -86 -146.5t-186 -51.5q-141 0 -219.5 72.5t-78.5 202.5q0 83 35.5 145.5t103.5 97t161 34.5q108 0 175.5 -46.5t85.5 -133.5l-122 -16q-28 102 -140 102q-83 0 -129 -47.5t-46 -133.5q0 -89 45.5 -136t131.5 -47q125 0 148 104h121zM443 590l-96 87
l-96 -87h-107l146 151h114l146 -151h-107z" />
    <glyph glyph-name="ecircumflex" unicode="&#xea;" horiz-adv-x="681" 
d="M169 230q2 -72 50.5 -114.5t127.5 -42.5q62 0 101.5 20.5t54.5 60.5h119q-22 -86 -90.5 -128t-185.5 -42q-137 0 -215.5 72.5t-78.5 198.5q0 82 35.5 145.5t102 99.5t155.5 36q135 0 209.5 -69.5t74.5 -194.5v-42h-460zM514 310q-2 66 -46.5 102.5t-123.5 36.5
q-71 0 -117.5 -37.5t-54.5 -101.5h342zM445 590l-96 87l-96 -87h-107l146 151h114l146 -151h-107z" />
    <glyph glyph-name="gcircumflex" unicode="&#x11d;" horiz-adv-x="732" 
d="M533 111q-72 -98 -221 -98q-76 0 -134.5 31t-92 90t-33.5 138q0 74 33.5 134t95.5 95t143 35q71 0 122.5 -22t88.5 -69v75h118v-432q0 -153 -69.5 -223t-220.5 -70q-133 0 -203 40.5t-83 124.5h121q14 -38 53 -55.5t111 -17.5q87 0 129 39.5t42 123.5v61zM533 286
q0 65 -48 113q-43 43 -128 43q-86 0 -133.5 -44t-47.5 -124q0 -79 45.5 -123t129.5 -44q41 0 76 13t59 36q47 45 47 105v25zM471 590l-96 87l-96 -87h-107l146 151h114l146 -151h-107z" />
    <glyph glyph-name="hcircumflex" unicode="&#x125;" horiz-adv-x="708" 
d="M513 0v314q0 66 -31 95.5t-100 29.5q-38 0 -73.5 -14t-62.5 -39q-47 -44 -47 -102v-284h-120v714h120v-278q85 100 220 100q105 0 159.5 -51t54.5 -149v-336h-120zM378 773l-92 77l-92 -77h-112l146 142h116l146 -142h-112z" />
    <glyph glyph-name="icircumflex" unicode="&#xee;" horiz-adv-x="278" 
d="M79 0v520h120v-520h-120zM235 590l-96 87l-96 -87h-107l146 151h114l146 -151h-107z" />
    <glyph glyph-name="jcircumflex" unicode="&#x135;" horiz-adv-x="278" 
d="M79 520h120v-540q0 -95 -40.5 -140t-128.5 -45q-59 0 -118 19l20 85q37 -10 76 -10q38 0 54.5 17t16.5 56v558zM235 590l-96 87l-96 -87h-107l146 151h114l146 -151h-107z" />
    <glyph glyph-name="ocircumflex" unicode="&#xf4;" horiz-adv-x="717" 
d="M665 262q0 -82 -37 -144.5t-107.5 -98t-165.5 -35.5q-141 0 -222 73t-81 201q0 82 37 144.5t107 98t165 35.5q142 0 223 -73t81 -201zM541 260q0 87 -47.5 134.5t-134.5 47.5t-135 -47.5t-48 -134.5t47.5 -134.5t133.5 -47.5q88 0 136 47.5t48 134.5zM454 590l-96 87
l-96 -87h-107l146 151h114l146 -151h-107z" />
    <glyph glyph-name="scircumflex" unicode="&#x15d;" horiz-adv-x="637" 
d="M463 378q-14 35 -49.5 51t-100.5 16q-66 0 -101 -15.5t-35 -45.5q0 -23 11 -34.5t37 -19.5t74 -15l67 -10q87 -13 135 -32.5t68.5 -49t20.5 -75.5q0 -81 -66.5 -122.5t-196.5 -41.5t-198.5 43t-83.5 132h117q13 -43 51.5 -62.5t111.5 -19.5q146 0 146 65q0 29 -27 43
t-100 25l-67 10q-84 12 -131 32t-66.5 51t-19.5 79q0 72 67.5 113t185.5 41q117 0 179.5 -34.5t84.5 -111.5zM405 590l-96 87l-96 -87h-107l146 151h114l146 -151h-107z" />
    <glyph glyph-name="ucircumflex" unicode="&#xfb;" horiz-adv-x="698" 
d="M501 0v86q-87 -102 -219 -102q-99 0 -153 51t-54 146v339h120v-318q0 -61 30.5 -91t93.5 -30q75 0 133 51q47 42 47 103v285h120v-520h-118zM443 590l-96 87l-96 -87h-107l146 151h114l146 -151h-107z" />
    <glyph glyph-name="wcircumflex" unicode="&#x175;" horiz-adv-x="919" 
d="M601 0l-142 383l-141 -383h-121l-186 520h128l126 -394l142 390h111l142 -389l126 393h122l-186 -520h-121zM558 590l-96 87l-96 -87h-107l146 151h114l146 -151h-107z" />
    <glyph glyph-name="ycircumflex" unicode="&#x177;" horiz-adv-x="636" 
d="M268 20l-259 500h136l184 -383l168 383h130l-269 -562q-31 -64 -60 -98.5t-63.5 -49.5t-80.5 -15q-55 0 -106 20l20 88q35 -12 68 -12q38 0 63.5 18t44.5 59zM419 590l-96 87l-96 -87h-107l146 151h114l146 -151h-107z" />
    <glyph glyph-name="atilde" unicode="&#xe3;" horiz-adv-x="668" 
d="M482 0v75q-46 -46 -100 -67.5t-127 -21.5q-101 0 -156 41.5t-55 117.5q0 85 71.5 126.5t225.5 46.5l138 4v17q0 106 -140 106q-68 0 -105 -16.5t-48 -50.5l-107 12q18 75 82 110.5t182 35.5q127 0 188.5 -50t61.5 -153v-333h-111zM479 243l-136 -4q-94 -3 -135.5 -23
t-41.5 -61q0 -37 32 -57.5t89 -20.5q43 0 82.5 12.5t68.5 35.5q41 31 41 83v35zM563 726q0 -65 -32.5 -99.5t-94.5 -34.5q-25 0 -47.5 7t-56.5 26q-26 14 -40.5 19.5t-30.5 5.5q-29 0 -42 -12.5t-13 -39.5h-83q0 65 32.5 99.5t94.5 34.5q25 0 47.5 -7t56.5 -26
q26 -14 40.5 -19.5t30.5 -5.5q29 0 42 12.5t13 39.5h83z" />
    <glyph glyph-name="itilde" unicode="&#x129;" horiz-adv-x="278" 
d="M79 0v520h120v-520h-120zM360 726q0 -65 -32.5 -99.5t-94.5 -34.5q-25 0 -47.5 7t-56.5 26q-26 14 -40.5 19.5t-30.5 5.5q-29 0 -42 -12.5t-13 -39.5h-83q0 65 32.5 99.5t94.5 34.5q25 0 47.5 -7t56.5 -26q26 -14 40.5 -19.5t30.5 -5.5q29 0 42 12.5t13 39.5h83z" />
    <glyph glyph-name="ntilde" unicode="&#xf1;" horiz-adv-x="708" 
d="M513 0v314q0 66 -31 95.5t-100 29.5q-38 0 -73.5 -14t-62.5 -39q-47 -44 -47 -102v-284h-120v520h118v-86q86 102 222 102q105 0 159.5 -51t54.5 -149v-336h-120zM581 726q0 -65 -32.5 -99.5t-94.5 -34.5q-25 0 -47.5 7t-56.5 26q-26 14 -40.5 19.5t-30.5 5.5
q-29 0 -42 -12.5t-13 -39.5h-83q0 65 32.5 99.5t94.5 34.5q25 0 47.5 -7t56.5 -26q26 -14 40.5 -19.5t30.5 -5.5q29 0 42 12.5t13 39.5h83z" />
    <glyph glyph-name="otilde" unicode="&#xf5;" horiz-adv-x="717" 
d="M665 262q0 -82 -37 -144.5t-107.5 -98t-165.5 -35.5q-141 0 -222 73t-81 201q0 82 37 144.5t107 98t165 35.5q142 0 223 -73t81 -201zM541 260q0 87 -47.5 134.5t-134.5 47.5t-135 -47.5t-48 -134.5t47.5 -134.5t133.5 -47.5q88 0 136 47.5t48 134.5zM579 726
q0 -65 -32.5 -99.5t-94.5 -34.5q-25 0 -47.5 7t-56.5 26q-26 14 -40.5 19.5t-30.5 5.5q-29 0 -42 -12.5t-13 -39.5h-83q0 65 32.5 99.5t94.5 34.5q25 0 47.5 -7t56.5 -26q26 -14 40.5 -19.5t30.5 -5.5q29 0 42 12.5t13 39.5h83z" />
    <glyph glyph-name="utilde" unicode="&#x169;" horiz-adv-x="698" 
d="M501 0v86q-87 -102 -219 -102q-99 0 -153 51t-54 146v339h120v-318q0 -61 30.5 -91t93.5 -30q75 0 133 51q47 42 47 103v285h120v-520h-118zM568 726q0 -65 -32.5 -99.5t-94.5 -34.5q-25 0 -47.5 7t-56.5 26q-26 14 -40.5 19.5t-30.5 5.5q-29 0 -42 -12.5t-13 -39.5h-83
q0 65 32.5 99.5t94.5 34.5q25 0 47.5 -7t56.5 -26q26 -14 40.5 -19.5t30.5 -5.5q29 0 42 12.5t13 39.5h83z" />
    <glyph glyph-name="uni030C" unicode="&#x30c;" horiz-adv-x="0" 
d="M-57 590l-146 151h107l96 -87l96 87h107l-146 -151h-114z" />
    <glyph glyph-name="uni030C.cap" horiz-adv-x="0" 
d="M58 773h-116l-146 142h112l92 -77l92 77h112z" />
    <glyph glyph-name="caron" unicode="&#x2c7;" horiz-adv-x="708" 
d="M297 590l-146 151h107l96 -87l96 87h107l-146 -151h-114z" />
    <glyph glyph-name="uni0315" unicode="&#x315;" horiz-adv-x="0" 
d="M-64 489l34 225h113l-58 -225h-89z" />
    <glyph glyph-name="uni0315.short" horiz-adv-x="0" 
d="M-49 575l24 168h104l-47 -168h-81z" />
    <glyph glyph-name="uni0304" unicode="&#x304;" horiz-adv-x="0" 
d="M-166 617v88h332v-88h-332z" />
    <glyph glyph-name="uni0304.cap" horiz-adv-x="0" 
d="M-183 792v91h366v-91h-366z" />
    <glyph glyph-name="uni02C9" unicode="&#x2c9;" horiz-adv-x="708" 
d="M188 617v88h332v-88h-332z" />
    <glyph glyph-name="macron" unicode="&#xaf;" horiz-adv-x="708" 
d="M188 617v88h332v-88h-332z" />
    <glyph glyph-name="Ccaron" unicode="&#x10c;" horiz-adv-x="857" 
d="M809 241q-20 -125 -114 -192t-249 -67q-117 0 -204.5 44.5t-136.5 129.5t-49 201q0 110 47 195t135 132.5t207 47.5q286 0 352 -239l-128 -19q-27 80 -80.5 116t-144.5 36q-119 0 -188 -72t-69 -197q0 -126 69.5 -197.5t191.5 -71.5q98 0 153 37t75 116h133zM502 773
h-116l-146 142h112l92 -77l92 77h112z" />
    <glyph glyph-name="Dcaron" unicode="&#x10e;" horiz-adv-x="869" 
d="M93 0v714h310q199 0 304.5 -92t105.5 -265q0 -172 -112 -264.5t-319 -92.5h-289zM386 107q147 0 221.5 63.5t74.5 186.5q0 250 -278 250h-184v-500h166zM494 773h-116l-146 142h112l92 -77l92 77h112z" />
    <glyph glyph-name="Ecaron" unicode="&#x11a;" horiz-adv-x="742" 
d="M93 0v714h582v-107h-455v-186h433v-107h-433v-207h477l-18 -107h-586zM441 773h-116l-146 142h112l92 -77l92 77h112z" />
    <glyph glyph-name="Lcaron" unicode="&#x13d;" horiz-adv-x="708" 
d="M93 0v714h127v-607h453l-18 -107h-562zM418 489l34 225h113l-58 -225h-89z" />
    <glyph glyph-name="Ncaron" unicode="&#x147;" horiz-adv-x="874" 
d="M663 0l-447 539v-539h-123v714h118l447 -539v539h123v-714h-118zM493 773h-116l-146 142h112l92 -77l92 77h112z" />
    <glyph glyph-name="Rcaron" unicode="&#x158;" horiz-adv-x="778" 
d="M618 0l-161 281q-9 -1 -17.5 -1h-17.5h-207v-280h-122v714h341q287 0 287 -217q0 -145 -140 -192l180 -305h-143zM426 383q86 0 127.5 28t41.5 87q0 60 -39.5 86.5t-127.5 26.5h-213v-228h211zM465 773h-116l-146 142h112l92 -77l92 77h112z" />
    <glyph glyph-name="Scaron" unicode="&#x160;" horiz-adv-x="785" 
d="M594 517q-16 42 -42 67t-65 36t-97 11q-96 0 -149 -25.5t-53 -73.5q0 -45 34.5 -68t120.5 -36l148 -22q125 -19 183.5 -70.5t58.5 -141.5q0 -101 -86.5 -156.5t-242.5 -55.5q-170 0 -257.5 59t-102.5 183h128q13 -74 68.5 -107.5t163.5 -33.5q97 0 148.5 29t51.5 82
q0 44 -35.5 69t-110.5 36l-128 19q-99 15 -157 41t-84 67.5t-26 102.5q0 96 86.5 149.5t242.5 53.5q96 0 161 -21t104.5 -64t57.5 -112zM451 773h-116l-146 142h112l92 -77l92 77h112z" />
    <glyph glyph-name="Tcaron" unicode="&#x164;" horiz-adv-x="729" 
d="M301 0v607h-288v107h703v-107h-288v-607h-127zM423 773h-116l-146 142h112l92 -77l92 77h112z" />
    <glyph glyph-name="Zcaron" unicode="&#x17d;" horiz-adv-x="714" 
d="M30 0v94l484 513h-475v107h636v-94l-484 -513h501l-18 -107h-644zM415 773h-116l-146 142h112l92 -77l92 77h112z" />
    <glyph glyph-name="Amacron" unicode="&#x100;" horiz-adv-x="842" 
d="M690 0l-82 179h-377l-83 -179h-133l337 714h138l337 -714h-137zM419 593l-144 -310h286zM235 792v91h366v-91h-366z" />
    <glyph glyph-name="Emacron" unicode="&#x112;" horiz-adv-x="742" 
d="M93 0v714h582v-107h-455v-186h433v-107h-433v-207h477l-18 -107h-586zM200 792v91h366v-91h-366z" />
    <glyph glyph-name="Imacron" unicode="&#x12a;" horiz-adv-x="313" 
d="M93 0v714h127v-714h-127zM-27 792v91h366v-91h-366z" />
    <glyph glyph-name="Omacron" unicode="&#x14c;" horiz-adv-x="922" 
d="M866 357q0 -112 -48.5 -196.5t-140.5 -131.5t-217 -47q-120 0 -211.5 44.5t-142 129.5t-50.5 201q0 112 48.5 196.5t140.5 131.5t217 47q120 0 211.5 -44.5t142 -129.5t50.5 -201zM735 357q0 127 -71.5 198t-201.5 71t-202.5 -71t-72.5 -198t71.5 -198t201.5 -71
t202.5 71t72.5 198zM279 792v91h366v-91h-366z" />
    <glyph glyph-name="Umacron" unicode="&#x16a;" horiz-adv-x="848" 
d="M636 714h127v-421q0 -156 -84.5 -233.5t-254.5 -77.5t-254.5 77.5t-84.5 233.5v421h127v-427q0 -102 51.5 -150.5t160.5 -48.5t160.5 48.5t51.5 150.5v427zM241 792v91h366v-91h-366z" />
    <glyph glyph-name="ccaron" unicode="&#x10d;" horiz-adv-x="666" 
d="M622 182q-15 -95 -86 -146.5t-186 -51.5q-141 0 -219.5 72.5t-78.5 202.5q0 83 35.5 145.5t103.5 97t161 34.5q108 0 175.5 -46.5t85.5 -133.5l-122 -16q-28 102 -140 102q-83 0 -129 -47.5t-46 -133.5q0 -89 45.5 -136t131.5 -47q125 0 148 104h121zM290 590l-146 151
h107l96 -87l96 87h107l-146 -151h-114z" />
    <glyph glyph-name="dcaron" unicode="&#x10f;" horiz-adv-x="860" 
d="M535 0v86q-36 -48 -94 -75t-129 -27q-76 0 -134.5 33t-92 95t-33.5 144q0 80 33 143.5t95 100t144 36.5q137 0 209 -92v270h120v-714h-118zM534 274q0 70 -47 120q-45 48 -129 48q-90 0 -136 -47t-46 -137q0 -85 46.5 -132.5t129.5 -47.5q38 0 74 14.5t61 39.5
q23 23 35 52t12 60v30zM723 489l34 225h113l-58 -225h-89z" />
    <glyph glyph-name="ecaron" unicode="&#x11b;" horiz-adv-x="681" 
d="M169 230q2 -72 50.5 -114.5t127.5 -42.5q62 0 101.5 20.5t54.5 60.5h119q-22 -86 -90.5 -128t-185.5 -42q-137 0 -215.5 72.5t-78.5 198.5q0 82 35.5 145.5t102 99.5t155.5 36q135 0 209.5 -69.5t74.5 -194.5v-42h-460zM514 310q-2 66 -46.5 102.5t-123.5 36.5
q-71 0 -117.5 -37.5t-54.5 -101.5h342zM292 590l-146 151h107l96 -87l96 87h107l-146 -151h-114z" />
    <glyph glyph-name="lcaron" unicode="&#x13e;" horiz-adv-x="406" 
d="M79 0v714h120v-714h-120zM269 489l34 225h113l-58 -225h-89z" />
    <glyph glyph-name="ncaron" unicode="&#x148;" horiz-adv-x="708" 
d="M513 0v314q0 66 -31 95.5t-100 29.5q-38 0 -73.5 -14t-62.5 -39q-47 -44 -47 -102v-284h-120v520h118v-86q86 102 222 102q105 0 159.5 -51t54.5 -149v-336h-120zM303 590l-146 151h107l96 -87l96 87h107l-146 -151h-114z" />
    <glyph glyph-name="rcaron" unicode="&#x159;" horiz-adv-x="468" 
d="M79 0v520h118v-89q37 47 86.5 72t105.5 25q24 0 56 -5l-14 -100q-30 5 -55 5q-79 0 -128 -45q-49 -44 -49 -103v-280h-120zM216 590l-146 151h107l96 -87l96 87h107l-146 -151h-114z" />
    <glyph glyph-name="scaron" unicode="&#x161;" horiz-adv-x="637" 
d="M463 378q-14 35 -49.5 51t-100.5 16q-66 0 -101 -15.5t-35 -45.5q0 -23 11 -34.5t37 -19.5t74 -15l67 -10q87 -13 135 -32.5t68.5 -49t20.5 -75.5q0 -81 -66.5 -122.5t-196.5 -41.5t-198.5 43t-83.5 132h117q13 -43 51.5 -62.5t111.5 -19.5q146 0 146 65q0 29 -27 43
t-100 25l-67 10q-84 12 -131 32t-66.5 51t-19.5 79q0 72 67.5 113t185.5 41q117 0 179.5 -34.5t84.5 -111.5zM252 590l-146 151h107l96 -87l96 87h107l-146 -151h-114z" />
    <glyph glyph-name="tcaron" unicode="&#x165;" horiz-adv-x="467" 
d="M438 10q-67 -21 -137 -21q-92 0 -134.5 42.5t-42.5 136.5v261h-101v91h101v140h120v-140h178v-91h-178v-265q0 -41 20.5 -61t63.5 -20q46 0 92 15zM319 575l24 168h104l-47 -168h-81z" />
    <glyph glyph-name="zcaron" unicode="&#x17e;" horiz-adv-x="593" 
d="M32 0v81l353 347h-345v92h501v-81l-353 -347h374l-14 -92h-516zM234 590l-146 151h107l96 -87l96 87h107l-146 -151h-114z" />
    <glyph glyph-name="amacron" unicode="&#x101;" horiz-adv-x="668" 
d="M482 0v75q-46 -46 -100 -67.5t-127 -21.5q-101 0 -156 41.5t-55 117.5q0 85 71.5 126.5t225.5 46.5l138 4v17q0 106 -140 106q-68 0 -105 -16.5t-48 -50.5l-107 12q18 75 82 110.5t182 35.5q127 0 188.5 -50t61.5 -153v-333h-111zM479 243l-136 -4q-94 -3 -135.5 -23
t-41.5 -61q0 -37 32 -57.5t89 -20.5q43 0 82.5 12.5t68.5 35.5q41 31 41 83v35zM176 617v88h332v-88h-332z" />
    <glyph glyph-name="emacron" unicode="&#x113;" horiz-adv-x="681" 
d="M169 230q2 -72 50.5 -114.5t127.5 -42.5q62 0 101.5 20.5t54.5 60.5h119q-22 -86 -90.5 -128t-185.5 -42q-137 0 -215.5 72.5t-78.5 198.5q0 82 35.5 145.5t102 99.5t155.5 36q135 0 209.5 -69.5t74.5 -194.5v-42h-460zM514 310q-2 66 -46.5 102.5t-123.5 36.5
q-71 0 -117.5 -37.5t-54.5 -101.5h342zM183 617v88h332v-88h-332z" />
    <glyph glyph-name="imacron" unicode="&#x12b;" horiz-adv-x="278" 
d="M79 0v520h120v-520h-120zM-27 617v88h332v-88h-332z" />
    <glyph glyph-name="omacron" unicode="&#x14d;" horiz-adv-x="717" 
d="M665 262q0 -82 -37 -144.5t-107.5 -98t-165.5 -35.5q-141 0 -222 73t-81 201q0 82 37 144.5t107 98t165 35.5q142 0 223 -73t81 -201zM541 260q0 87 -47.5 134.5t-134.5 47.5t-135 -47.5t-48 -134.5t47.5 -134.5t133.5 -47.5q88 0 136 47.5t48 134.5zM192 617v88h332v-88
h-332z" />
    <glyph glyph-name="umacron" unicode="&#x16b;" horiz-adv-x="698" 
d="M501 0v86q-87 -102 -219 -102q-99 0 -153 51t-54 146v339h120v-318q0 -61 30.5 -91t93.5 -30q75 0 133 51q47 42 47 103v285h120v-520h-118zM181 617v88h332v-88h-332z" />
    <glyph glyph-name="uni0308" unicode="&#x308;" horiz-adv-x="0" 
d="M-173 597v117h114v-117h-114zM59 597v117h114v-117h-114z" />
    <glyph glyph-name="uni0308.cap" horiz-adv-x="0" 
d="M-180 780v128h120v-128h-120zM60 780v128h120v-128h-120z" />
    <glyph glyph-name="dieresis" unicode="&#xa8;" horiz-adv-x="708" 
d="M181 597v117h114v-117h-114zM413 597v117h114v-117h-114z" />
    <glyph glyph-name="uni0306" unicode="&#x306;" horiz-adv-x="0" 
d="M175 735q0 -71 -45.5 -109t-129.5 -38t-129.5 38t-45.5 109h88q0 -36 23 -56t64 -20t64 20t23 56h88z" />
    <glyph glyph-name="uni0306.cap" horiz-adv-x="0" 
d="M175 916q0 -71 -45 -108.5t-130 -37.5t-130 37.5t-45 108.5h90q0 -36 22.5 -55.5t62.5 -19.5t62.5 19.5t22.5 55.5h90z" />
    <glyph glyph-name="breve" unicode="&#x2d8;" horiz-adv-x="708" 
d="M529 735q0 -71 -45.5 -109t-129.5 -38t-129.5 38t-45.5 109h88q0 -36 23 -56t64 -20t64 20t23 56h88z" />
    <glyph glyph-name="Adieresis" unicode="&#xc4;" horiz-adv-x="842" 
d="M690 0l-82 179h-377l-83 -179h-133l337 714h138l337 -714h-137zM419 593l-144 -310h286zM238 780v128h120v-128h-120zM478 780v128h120v-128h-120z" />
    <glyph glyph-name="Edieresis" unicode="&#xcb;" horiz-adv-x="742" 
d="M93 0v714h582v-107h-455v-186h433v-107h-433v-207h477l-18 -107h-586zM203 780v128h120v-128h-120zM443 780v128h120v-128h-120z" />
    <glyph glyph-name="Idieresis" unicode="&#xcf;" horiz-adv-x="313" 
d="M93 0v714h127v-714h-127zM-24 780v128h120v-128h-120zM216 780v128h120v-128h-120z" />
    <glyph glyph-name="Odieresis" unicode="&#xd6;" horiz-adv-x="922" 
d="M866 357q0 -112 -48.5 -196.5t-140.5 -131.5t-217 -47q-120 0 -211.5 44.5t-142 129.5t-50.5 201q0 112 48.5 196.5t140.5 131.5t217 47q120 0 211.5 -44.5t142 -129.5t50.5 -201zM735 357q0 127 -71.5 198t-201.5 71t-202.5 -71t-72.5 -198t71.5 -198t201.5 -71
t202.5 71t72.5 198zM282 780v128h120v-128h-120zM522 780v128h120v-128h-120z" />
    <glyph glyph-name="Udieresis" unicode="&#xdc;" horiz-adv-x="848" 
d="M636 714h127v-421q0 -156 -84.5 -233.5t-254.5 -77.5t-254.5 77.5t-84.5 233.5v421h127v-427q0 -102 51.5 -150.5t160.5 -48.5t160.5 48.5t51.5 150.5v427zM244 780v128h120v-128h-120zM484 780v128h120v-128h-120z" />
    <glyph glyph-name="Wdieresis" unicode="&#x1e84;" horiz-adv-x="1157" 
d="M758 0l-181 552l-183 -552h-134l-241 714h141l172 -561l184 557h128l185 -559l173 563h136l-241 -714h-139zM401 780v128h120v-128h-120zM641 780v128h120v-128h-120z" />
    <glyph glyph-name="Ydieresis" unicode="&#x178;" horiz-adv-x="765" 
d="M320 0v293l-305 421h146l225 -317l224 317h142l-305 -421v-293h-127zM206 780v128h120v-128h-120zM446 780v128h120v-128h-120z" />
    <glyph glyph-name="Abreve" unicode="&#x102;" horiz-adv-x="842" 
d="M690 0l-82 179h-377l-83 -179h-133l337 714h138l337 -714h-137zM419 593l-144 -310h286zM593 916q0 -71 -45 -108.5t-130 -37.5t-130 37.5t-45 108.5h90q0 -36 22.5 -55.5t62.5 -19.5t62.5 19.5t22.5 55.5h90z" />
    <glyph glyph-name="Ebreve" unicode="&#x114;" horiz-adv-x="742" 
d="M93 0v714h582v-107h-455v-186h433v-107h-433v-207h477l-18 -107h-586zM558 916q0 -71 -45 -108.5t-130 -37.5t-130 37.5t-45 108.5h90q0 -36 22.5 -55.5t62.5 -19.5t62.5 19.5t22.5 55.5h90z" />
    <glyph glyph-name="Gbreve" unicode="&#x11e;" horiz-adv-x="870" 
d="M689 276h-217v105h336v-301q-64 -47 -153.5 -72.5t-186.5 -25.5q-126 0 -218.5 44t-143 127.5t-50.5 200.5q0 114 47.5 199t138 132t213.5 47q132 0 218.5 -55t118.5 -157l-126 -18q-24 64 -77 94.5t-137 30.5q-126 0 -195.5 -71.5t-69.5 -199.5q0 -130 72.5 -199.5
t209.5 -69.5q134 0 220 46v143zM632 916q0 -71 -45 -108.5t-130 -37.5t-130 37.5t-45 108.5h90q0 -36 22.5 -55.5t62.5 -19.5t62.5 19.5t22.5 55.5h90z" />
    <glyph glyph-name="Ibreve" unicode="&#x12c;" horiz-adv-x="313" 
d="M93 0v714h127v-714h-127zM331 916q0 -71 -45 -108.5t-130 -37.5t-130 37.5t-45 108.5h90q0 -36 22.5 -55.5t62.5 -19.5t62.5 19.5t22.5 55.5h90z" />
    <glyph glyph-name="Obreve" unicode="&#x14e;" horiz-adv-x="922" 
d="M866 357q0 -112 -48.5 -196.5t-140.5 -131.5t-217 -47q-120 0 -211.5 44.5t-142 129.5t-50.5 201q0 112 48.5 196.5t140.5 131.5t217 47q120 0 211.5 -44.5t142 -129.5t50.5 -201zM735 357q0 127 -71.5 198t-201.5 71t-202.5 -71t-72.5 -198t71.5 -198t201.5 -71
t202.5 71t72.5 198zM637 916q0 -71 -45 -108.5t-130 -37.5t-130 37.5t-45 108.5h90q0 -36 22.5 -55.5t62.5 -19.5t62.5 19.5t22.5 55.5h90z" />
    <glyph glyph-name="Ubreve" unicode="&#x16c;" horiz-adv-x="848" 
d="M636 714h127v-421q0 -156 -84.5 -233.5t-254.5 -77.5t-254.5 77.5t-84.5 233.5v421h127v-427q0 -102 51.5 -150.5t160.5 -48.5t160.5 48.5t51.5 150.5v427zM599 916q0 -71 -45 -108.5t-130 -37.5t-130 37.5t-45 108.5h90q0 -36 22.5 -55.5t62.5 -19.5t62.5 19.5
t22.5 55.5h90z" />
    <glyph glyph-name="adieresis" unicode="&#xe4;" horiz-adv-x="668" 
d="M482 0v75q-46 -46 -100 -67.5t-127 -21.5q-101 0 -156 41.5t-55 117.5q0 85 71.5 126.5t225.5 46.5l138 4v17q0 106 -140 106q-68 0 -105 -16.5t-48 -50.5l-107 12q18 75 82 110.5t182 35.5q127 0 188.5 -50t61.5 -153v-333h-111zM479 243l-136 -4q-94 -3 -135.5 -23
t-41.5 -61q0 -37 32 -57.5t89 -20.5q43 0 82.5 12.5t68.5 35.5q41 31 41 83v35zM169 597v117h114v-117h-114zM401 597v117h114v-117h-114z" />
    <glyph glyph-name="edieresis" unicode="&#xeb;" horiz-adv-x="681" 
d="M169 230q2 -72 50.5 -114.5t127.5 -42.5q62 0 101.5 20.5t54.5 60.5h119q-22 -86 -90.5 -128t-185.5 -42q-137 0 -215.5 72.5t-78.5 198.5q0 82 35.5 145.5t102 99.5t155.5 36q135 0 209.5 -69.5t74.5 -194.5v-42h-460zM514 310q-2 66 -46.5 102.5t-123.5 36.5
q-71 0 -117.5 -37.5t-54.5 -101.5h342zM176 597v117h114v-117h-114zM408 597v117h114v-117h-114z" />
    <glyph glyph-name="idieresis" unicode="&#xef;" horiz-adv-x="278" 
d="M79 0v520h120v-520h-120zM-34 597v117h114v-117h-114zM198 597v117h114v-117h-114z" />
    <glyph glyph-name="odieresis" unicode="&#xf6;" horiz-adv-x="717" 
d="M665 262q0 -82 -37 -144.5t-107.5 -98t-165.5 -35.5q-141 0 -222 73t-81 201q0 82 37 144.5t107 98t165 35.5q142 0 223 -73t81 -201zM541 260q0 87 -47.5 134.5t-134.5 47.5t-135 -47.5t-48 -134.5t47.5 -134.5t133.5 -47.5q88 0 136 47.5t48 134.5zM185 597v117h114
v-117h-114zM417 597v117h114v-117h-114z" />
    <glyph glyph-name="udieresis" unicode="&#xfc;" horiz-adv-x="698" 
d="M501 0v86q-87 -102 -219 -102q-99 0 -153 51t-54 146v339h120v-318q0 -61 30.5 -91t93.5 -30q75 0 133 51q47 42 47 103v285h120v-520h-118zM174 597v117h114v-117h-114zM406 597v117h114v-117h-114z" />
    <glyph glyph-name="wdieresis" unicode="&#x1e85;" horiz-adv-x="919" 
d="M601 0l-142 383l-141 -383h-121l-186 520h128l126 -394l142 390h111l142 -389l126 393h122l-186 -520h-121zM289 597v117h114v-117h-114zM521 597v117h114v-117h-114z" />
    <glyph glyph-name="ydieresis" unicode="&#xff;" horiz-adv-x="636" 
d="M268 20l-259 500h136l184 -383l168 383h130l-269 -562q-31 -64 -60 -98.5t-63.5 -49.5t-80.5 -15q-55 0 -106 20l20 88q35 -12 68 -12q38 0 63.5 18t44.5 59zM150 597v117h114v-117h-114zM382 597v117h114v-117h-114z" />
    <glyph glyph-name="abreve" unicode="&#x103;" horiz-adv-x="668" 
d="M482 0v75q-46 -46 -100 -67.5t-127 -21.5q-101 0 -156 41.5t-55 117.5q0 85 71.5 126.5t225.5 46.5l138 4v17q0 106 -140 106q-68 0 -105 -16.5t-48 -50.5l-107 12q18 75 82 110.5t182 35.5q127 0 188.5 -50t61.5 -153v-333h-111zM479 243l-136 -4q-94 -3 -135.5 -23
t-41.5 -61q0 -37 32 -57.5t89 -20.5q43 0 82.5 12.5t68.5 35.5q41 31 41 83v35zM517 735q0 -71 -45.5 -109t-129.5 -38t-129.5 38t-45.5 109h88q0 -36 23 -56t64 -20t64 20t23 56h88z" />
    <glyph glyph-name="ebreve" unicode="&#x115;" horiz-adv-x="681" 
d="M169 230q2 -72 50.5 -114.5t127.5 -42.5q62 0 101.5 20.5t54.5 60.5h119q-22 -86 -90.5 -128t-185.5 -42q-137 0 -215.5 72.5t-78.5 198.5q0 82 35.5 145.5t102 99.5t155.5 36q135 0 209.5 -69.5t74.5 -194.5v-42h-460zM514 310q-2 66 -46.5 102.5t-123.5 36.5
q-71 0 -117.5 -37.5t-54.5 -101.5h342zM524 735q0 -71 -45.5 -109t-129.5 -38t-129.5 38t-45.5 109h88q0 -36 23 -56t64 -20t64 20t23 56h88z" />
    <glyph glyph-name="gbreve" unicode="&#x11f;" horiz-adv-x="732" 
d="M533 111q-72 -98 -221 -98q-76 0 -134.5 31t-92 90t-33.5 138q0 74 33.5 134t95.5 95t143 35q71 0 122.5 -22t88.5 -69v75h118v-432q0 -153 -69.5 -223t-220.5 -70q-133 0 -203 40.5t-83 124.5h121q14 -38 53 -55.5t111 -17.5q87 0 129 39.5t42 123.5v61zM533 286
q0 65 -48 113q-43 43 -128 43q-86 0 -133.5 -44t-47.5 -124q0 -79 45.5 -123t129.5 -44q41 0 76 13t59 36q47 45 47 105v25zM550 735q0 -71 -45.5 -109t-129.5 -38t-129.5 38t-45.5 109h88q0 -36 23 -56t64 -20t64 20t23 56h88z" />
    <glyph glyph-name="ibreve" unicode="&#x12d;" horiz-adv-x="278" 
d="M79 0v520h120v-520h-120zM314 735q0 -71 -45.5 -109t-129.5 -38t-129.5 38t-45.5 109h88q0 -36 23 -56t64 -20t64 20t23 56h88z" />
    <glyph glyph-name="obreve" unicode="&#x14f;" horiz-adv-x="717" 
d="M665 262q0 -82 -37 -144.5t-107.5 -98t-165.5 -35.5q-141 0 -222 73t-81 201q0 82 37 144.5t107 98t165 35.5q142 0 223 -73t81 -201zM541 260q0 87 -47.5 134.5t-134.5 47.5t-135 -47.5t-48 -134.5t47.5 -134.5t133.5 -47.5q88 0 136 47.5t48 134.5zM533 735
q0 -71 -45.5 -109t-129.5 -38t-129.5 38t-45.5 109h88q0 -36 23 -56t64 -20t64 20t23 56h88z" />
    <glyph glyph-name="ubreve" unicode="&#x16d;" horiz-adv-x="698" 
d="M501 0v86q-87 -102 -219 -102q-99 0 -153 51t-54 146v339h120v-318q0 -61 30.5 -91t93.5 -30q75 0 133 51q47 42 47 103v285h120v-520h-118zM522 735q0 -71 -45.5 -109t-129.5 -38t-129.5 38t-45.5 109h88q0 -36 23 -56t64 -20t64 20t23 56h88z" />
    <glyph glyph-name="uni0307" unicode="&#x307;" horiz-adv-x="0" 
d="M-62 597v117h124v-117h-124z" />
    <glyph glyph-name="uni0307.cap" horiz-adv-x="0" 
d="M-66 780v128h131v-128h-131z" />
    <glyph glyph-name="dotaccent" unicode="&#x2d9;" horiz-adv-x="708" 
d="M292 597v117h124v-117h-124z" />
    <glyph glyph-name="Edotaccent" unicode="&#x116;" horiz-adv-x="742" 
d="M93 0v714h582v-107h-455v-186h433v-107h-433v-207h477l-18 -107h-586zM317 780v128h131v-128h-131z" />
    <glyph glyph-name="Idotaccent" unicode="&#x130;" horiz-adv-x="313" 
d="M93 0v714h127v-714h-127zM90 780v128h131v-128h-131z" />
    <glyph glyph-name="Cdotaccent" unicode="&#x10a;" horiz-adv-x="857" 
d="M809 241q-20 -125 -114 -192t-249 -67q-117 0 -204.5 44.5t-136.5 129.5t-49 201q0 110 47 195t135 132.5t207 47.5q286 0 352 -239l-128 -19q-27 80 -80.5 116t-144.5 36q-119 0 -188 -72t-69 -197q0 -126 69.5 -197.5t191.5 -71.5q98 0 153 37t75 116h133zM378 780v128
h131v-128h-131z" />
    <glyph glyph-name="Gdotaccent" unicode="&#x120;" horiz-adv-x="870" 
d="M689 276h-217v105h336v-301q-64 -47 -153.5 -72.5t-186.5 -25.5q-126 0 -218.5 44t-143 127.5t-50.5 200.5q0 114 47.5 199t138 132t213.5 47q132 0 218.5 -55t118.5 -157l-126 -18q-24 64 -77 94.5t-137 30.5q-126 0 -195.5 -71.5t-69.5 -199.5q0 -130 72.5 -199.5
t209.5 -69.5q134 0 220 46v143zM391 780v128h131v-128h-131z" />
    <glyph glyph-name="Zdotaccent" unicode="&#x17b;" horiz-adv-x="714" 
d="M30 0v94l484 513h-475v107h636v-94l-484 -513h501l-18 -107h-644zM291 780v128h131v-128h-131z" />
    <glyph glyph-name="edotaccent" unicode="&#x117;" horiz-adv-x="681" 
d="M169 230q2 -72 50.5 -114.5t127.5 -42.5q62 0 101.5 20.5t54.5 60.5h119q-22 -86 -90.5 -128t-185.5 -42q-137 0 -215.5 72.5t-78.5 198.5q0 82 35.5 145.5t102 99.5t155.5 36q135 0 209.5 -69.5t74.5 -194.5v-42h-460zM514 310q-2 66 -46.5 102.5t-123.5 36.5
q-71 0 -117.5 -37.5t-54.5 -101.5h342zM287 597v117h124v-117h-124z" />
    <glyph glyph-name="cdotaccent" unicode="&#x10b;" horiz-adv-x="666" 
d="M622 182q-15 -95 -86 -146.5t-186 -51.5q-141 0 -219.5 72.5t-78.5 202.5q0 83 35.5 145.5t103.5 97t161 34.5q108 0 175.5 -46.5t85.5 -133.5l-122 -16q-28 102 -140 102q-83 0 -129 -47.5t-46 -133.5q0 -89 45.5 -136t131.5 -47q125 0 148 104h121zM285 597v117h124
v-117h-124z" />
    <glyph glyph-name="gdotaccent" unicode="&#x121;" horiz-adv-x="732" 
d="M533 111q-72 -98 -221 -98q-76 0 -134.5 31t-92 90t-33.5 138q0 74 33.5 134t95.5 95t143 35q71 0 122.5 -22t88.5 -69v75h118v-432q0 -153 -69.5 -223t-220.5 -70q-133 0 -203 40.5t-83 124.5h121q14 -38 53 -55.5t111 -17.5q87 0 129 39.5t42 123.5v61zM533 286
q0 65 -48 113q-43 43 -128 43q-86 0 -133.5 -44t-47.5 -124q0 -79 45.5 -123t129.5 -44q41 0 76 13t59 36q47 45 47 105v25zM313 597v117h124v-117h-124z" />
    <glyph glyph-name="zdotaccent" unicode="&#x17c;" horiz-adv-x="593" 
d="M32 0v81l353 347h-345v92h501v-81l-353 -347h374l-14 -92h-516zM229 597v117h124v-117h-124z" />
    <glyph glyph-name="uni030A" unicode="&#x30a;" horiz-adv-x="0" 
d="M129 692q0 -48 -35.5 -77.5t-93.5 -29.5t-93.5 29.5t-35.5 77.5t35.5 77.5t93.5 29.5t93.5 -29.5t35.5 -77.5zM61 692q0 24 -16 36.5t-45 12.5t-45 -12.5t-16 -36.5t16 -36.5t45 -12.5t45 12.5t16 36.5z" />
    <glyph glyph-name="uni030A.cap" horiz-adv-x="0" 
d="M132 848q0 -49 -36.5 -79.5t-95.5 -30.5t-95.5 30.5t-36.5 79.5t36.5 79.5t95.5 30.5t95.5 -30.5t36.5 -79.5zM60 848q0 26 -14.5 38.5t-45.5 12.5t-45.5 -12.5t-14.5 -38.5t14.5 -38.5t45.5 -12.5t45.5 12.5t14.5 38.5z" />
    <glyph glyph-name="ring" unicode="&#x2da;" horiz-adv-x="708" 
d="M483 692q0 -48 -35.5 -77.5t-93.5 -29.5t-93.5 29.5t-35.5 77.5t35.5 77.5t93.5 29.5t93.5 -29.5t35.5 -77.5zM415 692q0 24 -16 36.5t-45 12.5t-45 -12.5t-16 -36.5t16 -36.5t45 -12.5t45 12.5t16 36.5z" />
    <glyph glyph-name="Aring" unicode="&#xc5;" horiz-adv-x="842" 
d="M690 0l-82 179h-377l-83 -179h-133l327 687q-25 14 -39 37.5t-14 52.5q0 49 36.5 79.5t95.5 30.5t95.5 -30.5t36.5 -79.5q0 -29 -14 -52.5t-39 -37.5l327 -687h-137zM419 593l-144 -310h286zM481 777q0 26 -14.5 38.5t-45.5 12.5t-45.5 -12.5t-14.5 -38.5t14.5 -38.5
t45.5 -12.5t45.5 12.5t14.5 38.5z" />
    <glyph glyph-name="Uring" unicode="&#x16e;" horiz-adv-x="848" 
d="M636 714h127v-421q0 -156 -84.5 -233.5t-254.5 -77.5t-254.5 77.5t-84.5 233.5v421h127v-427q0 -102 51.5 -150.5t160.5 -48.5t160.5 48.5t51.5 150.5v427zM556 848q0 -49 -36.5 -79.5t-95.5 -30.5t-95.5 30.5t-36.5 79.5t36.5 79.5t95.5 30.5t95.5 -30.5t36.5 -79.5z
M484 848q0 26 -14.5 38.5t-45.5 12.5t-45.5 -12.5t-14.5 -38.5t14.5 -38.5t45.5 -12.5t45.5 12.5t14.5 38.5z" />
    <glyph glyph-name="aring" unicode="&#xe5;" horiz-adv-x="668" 
d="M482 0v75q-46 -46 -100 -67.5t-127 -21.5q-101 0 -156 41.5t-55 117.5q0 85 71.5 126.5t225.5 46.5l138 4v17q0 106 -140 106q-68 0 -105 -16.5t-48 -50.5l-107 12q18 75 82 110.5t182 35.5q127 0 188.5 -50t61.5 -153v-333h-111zM479 243l-136 -4q-94 -3 -135.5 -23
t-41.5 -61q0 -37 32 -57.5t89 -20.5q43 0 82.5 12.5t68.5 35.5q41 31 41 83v35zM471 692q0 -48 -35.5 -77.5t-93.5 -29.5t-93.5 29.5t-35.5 77.5t35.5 77.5t93.5 29.5t93.5 -29.5t35.5 -77.5zM403 692q0 24 -16 36.5t-45 12.5t-45 -12.5t-16 -36.5t16 -36.5t45 -12.5
t45 12.5t16 36.5z" />
    <glyph glyph-name="uring" unicode="&#x16f;" horiz-adv-x="698" 
d="M501 0v86q-87 -102 -219 -102q-99 0 -153 51t-54 146v339h120v-318q0 -61 30.5 -91t93.5 -30q75 0 133 51q47 42 47 103v285h120v-520h-118zM476 692q0 -48 -35.5 -77.5t-93.5 -29.5t-93.5 29.5t-35.5 77.5t35.5 77.5t93.5 29.5t93.5 -29.5t35.5 -77.5zM408 692
q0 24 -16 36.5t-45 12.5t-45 -12.5t-16 -36.5t16 -36.5t45 -12.5t45 12.5t16 36.5z" />
    <glyph glyph-name="uni0394" unicode="&#x394;" horiz-adv-x="834" 
d="M15 0l333 714h138l333 -714h-804zM415 593l-222 -489h445z" />
    <glyph glyph-name="uni03A9" unicode="&#x3a9;" horiz-adv-x="916" 
d="M540 0v91q90 48 131.5 116.5t41.5 166.5q0 122 -65.5 187t-189.5 65t-189.5 -65t-65.5 -187q0 -98 41.5 -166.5t131.5 -116.5v-91h-339v104h186q-151 112 -151 279q0 103 46.5 181.5t134 123t205.5 44.5q113 0 200 -42t136.5 -121t49.5 -186q0 -167 -151 -279h186
l-17 -104h-322z" />
    <glyph glyph-name="uni03BC" unicode="&#x3bc;" horiz-adv-x="702" 
d="M505 0v86q-41 -51 -90 -75t-111 -24q-70 0 -105 30v-211h-120v714h120v-318q0 -61 30.5 -91t93.5 -30q75 0 133 51q47 42 47 103v285h120v-520h-118z" />
    <glyph glyph-name="pi" unicode="&#x3c0;" horiz-adv-x="747" 
d="M719 2q-50 -13 -92 -13q-76 0 -112.5 38t-36.5 116v284h-226v-427h-120v427h-115v93h701v-93h-120v-278q0 -36 14.5 -51t48.5 -15q21 0 44 5z" />
    <glyph glyph-name="uniFEFF" unicode="&#xfeff;" horiz-adv-x="0" 
 />
    </font>
</defs>
</svg>
