<svg xmlns="http://www.w3.org/2000/svg" width="82" height="81.989" viewBox="0 0 82 81.989"><defs><style>.a{fill:#fff;}</style></defs><g transform="translate(0 -0.002)"><path class="a" d="M32.835,22.528,15.808,10.151a2.053,2.053,0,0,0-3.261,1.656V36.554a2.047,2.047,0,0,0,1.121,1.831,2.068,2.068,0,0,0,.933.221,2.041,2.041,0,0,0,1.206-.4L32.835,25.841a2.037,2.037,0,0,0,0-3.313Z" transform="translate(21.69 16.865)"/><path class="a" d="M41,0A40.995,40.995,0,1,0,82,41,41,41,0,0,0,41,0ZM41,75.15A34.152,34.152,0,1,1,75.148,41,34.147,34.147,0,0,1,41,75.15Z"/></g></svg>