<svg width="629" height="44" viewBox="0 0 629 44" fill="none" xmlns="http://www.w3.org/2000/svg">

<path d="M23.07 22L21.51 19.33H19.42V22H17.88V14.86H21.39C23.3833 14.86 24.38 15.6033 24.38 17.09C24.38 17.57 24.2667 17.97 24.04 18.29C23.82 18.61 23.48 18.86 23.02 19.04L24.82 22H23.07ZM21.27 18.1C21.7967 18.1 22.1833 18.02 22.43 17.86C22.6833 17.6933 22.81 17.4333 22.81 17.08C22.81 16.7267 22.69 16.4733 22.45 16.32C22.2167 16.1667 21.83 16.09 21.29 16.09H19.42V18.1H21.27ZM30.839 22V14.86L36.819 14.86V16.17H32.439V17.67H36.609V18.98H32.439V20.69H37.039L36.839 22L30.839 22ZM49.9883 22L48.3583 16.92L46.7183 22H45.0383L42.6583 14.86H44.4083L45.9583 20.13L47.6283 14.9H49.1683L50.8483 20.14L52.3983 14.86H54.0883L51.7183 22H49.9883ZM60.1359 22V14.86H61.7359V22H60.1359ZM74.1552 22L70.0252 17.01V22H68.4952V14.86H69.9552L74.0852 19.85V14.86H75.6152V22H74.1552ZM82.3722 22V14.86H85.5722C86.9389 14.86 87.9789 15.1667 88.6922 15.78C89.4122 16.3867 89.7722 17.27 89.7722 18.43C89.7722 19.57 89.3922 20.45 88.6322 21.07C87.8789 21.69 86.8055 22 85.4122 22H82.3722ZM85.4822 20.67C86.3555 20.67 87.0122 20.48 87.4522 20.1C87.8989 19.72 88.1222 19.16 88.1222 18.42C88.1222 16.9333 87.2889 16.19 85.6222 16.19H83.9622V20.67H85.4822ZM96.0929 22V14.86H97.6929V22H96.0929ZM110.112 22L105.982 17.01V22H104.452V14.86H105.912L110.042 19.85V14.86H111.572V22H110.112ZM124.112 19.34H122.142V18.1H125.592V21.2C125.145 21.5133 124.622 21.7567 124.022 21.93C123.422 22.0967 122.792 22.18 122.132 22.18C120.798 22.18 119.755 21.8533 119.002 21.2C118.255 20.54 117.882 19.6267 117.882 18.46C117.882 17.7 118.042 17.0367 118.362 16.47C118.688 15.9033 119.158 15.4633 119.772 15.15C120.392 14.8367 121.122 14.68 121.962 14.68C122.882 14.68 123.642 14.87 124.242 15.25C124.842 15.63 125.245 16.1733 125.452 16.88L123.852 17.07C123.712 16.6967 123.482 16.4233 123.162 16.25C122.848 16.07 122.435 15.98 121.922 15.98C121.162 15.98 120.572 16.1933 120.152 16.62C119.738 17.04 119.532 17.6433 119.532 18.43C119.532 19.2367 119.752 19.8467 120.192 20.26C120.632 20.6733 121.278 20.88 122.132 20.88C122.938 20.88 123.598 20.7533 124.112 20.5V19.34ZM149.627 22V16.19H146.827V14.86H154.027V16.19H151.227V22H149.627ZM167.597 18.43C167.597 19.1833 167.43 19.8433 167.097 20.41C166.77 20.97 166.294 21.4067 165.667 21.72C165.047 22.0267 164.307 22.18 163.447 22.18C162.62 22.18 161.897 22.0333 161.277 21.74C160.664 21.44 160.184 21.01 159.837 20.45C159.497 19.8833 159.327 19.21 159.327 18.43C159.327 17.6767 159.49 17.02 159.817 16.46C160.15 15.8933 160.627 15.4567 161.247 15.15C161.874 14.8367 162.617 14.68 163.477 14.68C164.304 14.68 165.024 14.83 165.637 15.13C166.257 15.4233 166.737 15.8533 167.077 16.42C167.424 16.98 167.597 17.65 167.597 18.43ZM165.937 18.43C165.937 17.6567 165.72 17.0567 165.287 16.63C164.854 16.2033 164.244 15.99 163.457 15.99C162.677 15.99 162.07 16.2067 161.637 16.64C161.204 17.0667 160.987 17.6633 160.987 18.43C160.987 19.2033 161.204 19.8033 161.637 20.23C162.07 20.6567 162.68 20.87 163.467 20.87C164.247 20.87 164.854 20.6567 165.287 20.23C165.72 19.7967 165.937 19.1967 165.937 18.43ZM191.571 22V16.19H188.771V14.86H195.971V16.19H193.171V22H191.571ZM207.172 22L205.612 19.33H203.522V22H201.982V14.86H205.492C207.485 14.86 208.482 15.6033 208.482 17.09C208.482 17.57 208.368 17.97 208.142 18.29C207.922 18.61 207.582 18.86 207.122 19.04L208.922 22H207.172ZM205.372 18.1C205.898 18.1 206.285 18.02 206.532 17.86C206.785 17.6933 206.912 17.4333 206.912 17.08C206.912 16.7267 206.792 16.4733 206.552 16.32C206.318 16.1667 205.932 16.09 205.392 16.09H203.522V18.1H205.372ZM220.851 22L220.141 20.38H216.541L215.841 22H214.191L217.461 14.86H219.271L222.541 22L220.851 22ZM218.341 16.25L217.081 19.11H219.601L218.341 16.25ZM228.554 22V14.86L231.754 14.86C233.12 14.86 234.16 15.1667 234.874 15.78C235.594 16.3867 235.954 17.27 235.954 18.43C235.954 19.57 235.574 20.45 234.814 21.07C234.06 21.69 232.987 22 231.594 22H228.554ZM231.664 20.67C232.537 20.67 233.194 20.48 233.634 20.1C234.08 19.72 234.304 19.16 234.304 18.42C234.304 16.9333 233.47 16.19 231.804 16.19H230.144V20.67H231.664ZM242.275 22V14.86H243.875V22H242.275ZM252.684 22V16.19L249.884 16.19V14.86L257.084 14.86V16.19H254.284V22H252.684ZM263.095 22V14.86H264.695V22H263.095ZM279.277 18.43C279.277 19.1833 279.11 19.8433 278.777 20.41C278.45 20.97 277.973 21.4067 277.347 21.72C276.727 22.0267 275.987 22.18 275.127 22.18C274.3 22.18 273.577 22.0333 272.957 21.74C272.343 21.44 271.863 21.01 271.517 20.45C271.177 19.8833 271.007 19.21 271.007 18.43C271.007 17.6767 271.17 17.02 271.497 16.46C271.83 15.8933 272.307 15.4567 272.927 15.15C273.553 14.8367 274.297 14.68 275.157 14.68C275.983 14.68 276.703 14.83 277.317 15.13C277.937 15.4233 278.417 15.8533 278.757 16.42C279.103 16.98 279.277 17.65 279.277 18.43ZM277.617 18.43C277.617 17.6567 277.4 17.0567 276.967 16.63C276.533 16.2033 275.923 15.99 275.137 15.99C274.357 15.99 273.75 16.2067 273.317 16.64C272.883 17.0667 272.667 17.6633 272.667 18.43C272.667 19.2033 272.883 19.8033 273.317 20.23C273.75 20.6567 274.36 20.87 275.147 20.87C275.927 20.87 276.533 20.6567 276.967 20.23C277.4 19.7967 277.617 19.1967 277.617 18.43ZM291.255 22L287.125 17.01V22H285.595V14.86H287.055L291.185 19.85V14.86H292.715V22H291.255ZM314.98 22V14.86H316.58V22H314.98ZM328.999 22L324.869 17.01V22H323.339V14.86H324.799L328.929 19.85V14.86H330.459V22H328.999ZM358.634 22L357.924 20.38L354.324 20.38L353.624 22H351.974L355.244 14.86H357.054L360.324 22H358.634ZM356.124 16.25L354.864 19.11L357.384 19.11L356.124 16.25ZM383.445 19.13V22H381.845V14.86L387.545 14.86V16.17H383.445V17.82L387.335 17.82V19.13L383.445 19.13ZM398.849 22L398.139 20.38H394.539L393.839 22H392.189L395.459 14.86H397.269L400.539 22H398.849ZM396.339 16.25L395.079 19.11H397.599L396.339 16.25ZM411.402 16.87C411.262 16.53 411.052 16.2867 410.772 16.14C410.492 15.9867 410.102 15.91 409.602 15.91C409.035 15.91 408.602 15.98 408.302 16.12C408.002 16.26 407.852 16.4633 407.852 16.73C407.852 16.9833 407.942 17.17 408.122 17.29C408.309 17.41 408.645 17.5067 409.132 17.58L410.602 17.81C411.475 17.95 412.115 18.1967 412.522 18.55C412.929 18.8967 413.132 19.3767 413.132 19.99C413.132 20.6833 412.835 21.2233 412.242 21.61C411.655 21.99 410.815 22.18 409.722 22.18C408.929 22.18 408.269 22.0867 407.742 21.9C407.222 21.7133 406.822 21.43 406.542 21.05C406.269 20.67 406.105 20.1867 406.052 19.6H407.662C407.729 20.0667 407.925 20.41 408.252 20.63C408.579 20.8433 409.069 20.95 409.722 20.95C410.309 20.95 410.749 20.8733 411.042 20.72C411.342 20.56 411.492 20.3267 411.492 20.02C411.492 19.7733 411.392 19.58 411.192 19.44C410.999 19.3 410.689 19.2 410.262 19.14L409.062 18.97C408.089 18.8367 407.375 18.5967 406.922 18.25C406.475 17.8967 406.252 17.4033 406.252 16.77C406.252 16.3433 406.385 15.9733 406.652 15.66C406.919 15.3467 407.305 15.1067 407.812 14.94C408.325 14.7667 408.935 14.68 409.642 14.68C410.615 14.68 411.369 14.8433 411.902 15.17C412.435 15.49 412.785 15.9967 412.952 16.69L411.402 16.87ZM421.424 22V16.19H418.624V14.86L425.824 14.86V16.19H423.024V22H421.424ZM448.943 19.13V22H447.343V14.86L453.043 14.86V16.17H448.943V17.82H452.833V19.13H448.943ZM467.177 18.43C467.177 19.1833 467.011 19.8433 466.677 20.41C466.351 20.97 465.874 21.4067 465.247 21.72C464.627 22.0267 463.887 22.18 463.027 22.18C462.201 22.18 461.477 22.0333 460.857 21.74C460.244 21.44 459.764 21.01 459.417 20.45C459.077 19.8833 458.907 19.21 458.907 18.43C458.907 17.6767 459.071 17.02 459.397 16.46C459.731 15.8933 460.207 15.4567 460.827 15.15C461.454 14.8367 462.197 14.68 463.057 14.68C463.884 14.68 464.604 14.83 465.217 15.13C465.837 15.4233 466.317 15.8533 466.657 16.42C467.004 16.98 467.177 17.65 467.177 18.43ZM465.517 18.43C465.517 17.6567 465.301 17.0567 464.867 16.63C464.434 16.2033 463.824 15.99 463.037 15.99C462.257 15.99 461.651 16.2067 461.217 16.64C460.784 17.0667 460.567 17.6633 460.567 18.43C460.567 19.2033 460.784 19.8033 461.217 20.23C461.651 20.6567 462.261 20.87 463.047 20.87C463.827 20.87 464.434 20.6567 464.867 20.23C465.301 19.7967 465.517 19.1967 465.517 18.43ZM478.685 22L477.125 19.33H475.035V22H473.495V14.86L477.005 14.86C478.999 14.86 479.995 15.6033 479.995 17.09C479.995 17.57 479.882 17.97 479.655 18.29C479.435 18.61 479.095 18.86 478.635 19.04L480.435 22H478.685ZM476.885 18.1C477.412 18.1 477.799 18.02 478.045 17.86C478.299 17.6933 478.425 17.4333 478.425 17.08C478.425 16.7267 478.305 16.4733 478.065 16.32C477.832 16.1667 477.445 16.09 476.905 16.09H475.035V18.1H476.885ZM492.82 22L491.19 16.92L489.55 22H487.87L485.49 14.86L487.24 14.86L488.79 20.13L490.46 14.9H492L493.68 20.14L495.23 14.86L496.92 14.86L494.55 22H492.82ZM508.048 22L507.338 20.38H503.738L503.038 22H501.388L504.658 14.86H506.468L509.738 22H508.048ZM505.538 16.25L504.278 19.11H506.798L505.538 16.25ZM520.941 22L519.381 19.33H517.291V22H515.751V14.86L519.261 14.86C521.254 14.86 522.251 15.6033 522.251 17.09C522.251 17.57 522.138 17.97 521.911 18.29C521.691 18.61 521.351 18.86 520.891 19.04L522.691 22H520.941ZM519.141 18.1C519.668 18.1 520.054 18.02 520.301 17.86C520.554 17.6933 520.681 17.4333 520.681 17.08C520.681 16.7267 520.561 16.4733 520.321 16.32C520.088 16.1667 519.701 16.09 519.161 16.09H517.291V18.1H519.141ZM528.71 22V14.86L531.91 14.86C533.277 14.86 534.317 15.1667 535.03 15.78C535.75 16.3867 536.11 17.27 536.11 18.43C536.11 19.57 535.73 20.45 534.97 21.07C534.217 21.69 533.143 22 531.75 22L528.71 22ZM531.82 20.67C532.693 20.67 533.35 20.48 533.79 20.1C534.237 19.72 534.46 19.16 534.46 18.42C534.46 16.9333 533.627 16.19 531.96 16.19H530.3V20.67H531.82ZM558.036 22V14.86H559.636V20.67L563.996 20.67L563.796 22L558.036 22ZM570.126 22V14.86H571.726V22H570.126ZM580.085 19.13V22H578.485V14.86H584.185V16.17H580.085V17.82H583.975V19.13H580.085ZM590.39 22V14.86H596.37V16.17H591.99V17.67H596.16V18.98H591.99V20.69H596.59L596.39 22H590.39Z" fill="black"/>
</svg>
