<?xml version="1.0" encoding="utf-8"?>
<!-- Generator: Adobe Illustrator 25.0.0, SVG Export Plug-In . SVG Version: 6.00 Build 0)  -->
<svg version="1.1" id="Layer_1" xmlns="http://www.w3.org/2000/svg" xmlns:xlink="http://www.w3.org/1999/xlink" x="0px" y="0px"
	 viewBox="0 0 60 60" style="enable-background:new 0 0 60 60;" xml:space="preserve">
<style type="text/css">
	.st0{fill:#FFFFFF;}
	.st1{clip-path:url(#SVGID_2_);}
	.st2{clip-path:url(#SVGID_4_);}
	.st3{fill:#F58220;}
	.st4{fill:#50B848;}
	.st5{clip-path:url(#SVGID_6_);}
	.st6{opacity:5.000000e-02;}
	.st7{clip-path:url(#SVGID_8_);}
	.st8{clip-path:url(#SVGID_10_);}
	.st9{clip-path:url(#SVGID_12_);}
	.st10{clip-path:url(#SVGID_14_);}
	.st11{clip-path:url(#SVGID_16_);}
	.st12{clip-path:url(#SVGID_18_);}
	.st13{clip-path:url(#SVGID_20_);}
	.st14{fill:#DBD9DC;}
	.st15{fill:#DC646E;}
	.st16{fill:#E6828C;}
	.st17{fill:#C9C6CA;}
	.st18{fill:#6F6571;}
	.st19{fill:#5D5360;}
	.st20{fill:#4B3F4E;}
	.st21{fill:#FAEBC8;}
	.st22{fill:#F5DCB4;}
	.st23{fill:none;stroke:#FFDD73;stroke-width:2;stroke-linecap:round;stroke-miterlimit:10;}
	.st24{fill:#FFDD73;}
</style>
<g id="Icon_-_how_do_we_get_it" transform="translate(45 35)">
	<g transform="matrix(1, 0, 0, 1, -45, -35)">
		<circle id="Ellipse_51-2" class="st0" cx="30" cy="30" r="30"/>
	</g>
	<g id="Mask_Group_16">
		<g>
			<defs>
				<rect id="SVGID_1_" x="-35.9" y="-38.4" width="42" height="57.4"/>
			</defs>
			<clipPath id="SVGID_2_">
				<use xlink:href="#SVGID_1_"  style="overflow:visible;"/>
			</clipPath>
			<g id="Mask_Group_1" transform="translate(9.057 -3.393)" class="st1">
				<g>
					<defs>
						<rect id="SVGID_3_" x="-45" y="-28.9" width="42" height="50.1"/>
					</defs>
					<clipPath id="SVGID_4_">
						<use xlink:href="#SVGID_3_"  style="overflow:visible;"/>
					</clipPath>
					<g id="Group_2919" transform="translate(0 6.056)" class="st2">
						<path id="Path_8600" class="st3" d="M-38.3,13.8c-0.3,0-0.5-0.2-0.5-0.5V8.9h1.1v4.3C-37.8,13.6-38.1,13.8-38.3,13.8"/>
						<path id="Path_8601" class="st4" d="M-38.3,9.1c0,0-0.1-4.8,7.5-4.4C-30.9,4.7-31,10.2-38.3,9.1"/>
						<path id="Path_8602" class="st4" d="M-38.3,9.1c0,0-0.1-4.8,7.5-4.4C-30.9,4.7-31,10.2-38.3,9.1"/>
					</g>
				</g>
				<g>
					<defs>
						<path id="SVGID_5_" d="M-31.8,10.7c-6.6,0-6.5,4.4-6.5,4.4v0c7.3,1.2,7.5-4.4,7.5-4.4L-31.8,10.7z"/>
					</defs>
					<clipPath id="SVGID_6_">
						<use xlink:href="#SVGID_5_"  style="overflow:visible;"/>
					</clipPath>
					<g id="Group_2926" transform="translate(6.653 45.737)" class="st5">
						<g id="Group_2925" transform="translate(-2.045 -0.094)" class="st6">
							<g id="Group_2924">
								<g>
									<defs>
										<rect id="SVGID_7_" x="-45" y="-35" width="9.9" height="5.9"/>
									</defs>
									<clipPath id="SVGID_8_">
										<use xlink:href="#SVGID_7_"  style="overflow:visible;"/>
									</clipPath>
									<g id="Group_2923" class="st7">
										<g id="Group_2922" transform="translate(0 0)">
											<g>
												<defs>
													<rect id="SVGID_9_" x="-45" y="-35" width="9.9" height="5.9"/>
												</defs>
												<clipPath id="SVGID_10_">
													<use xlink:href="#SVGID_9_"  style="overflow:visible;"/>
												</clipPath>
												<g id="Group_2921" class="st8">
													<path id="Path_8603" d="M-35.2-35l-9.8,5.6l5,0.2l5-2.2L-35.2-35z"/>
												</g>
											</g>
										</g>
									</g>
								</g>
							</g>
						</g>
					</g>
				</g>
				<g>
					<defs>
						<rect id="SVGID_11_" x="-45" y="-28.9" width="42" height="48.8"/>
					</defs>
					<clipPath id="SVGID_12_">
						<use xlink:href="#SVGID_11_"  style="overflow:visible;"/>
					</clipPath>
					<g id="Group_2928" transform="translate(0 6.056)" class="st9">
						<path id="Path_8605" class="st4" d="M-44.6,5.4c6.4-0.4,6.3,3.7,6.3,3.7C-44.5,10.1-44.6,5.4-44.6,5.4"/>
						<path id="Path_8606" class="st4" d="M-44.6,5.4c6.4-0.4,6.3,3.7,6.3,3.7C-44.5,10.1-44.6,5.4-44.6,5.4"/>
					</g>
				</g>
				<g>
					<defs>
						<path id="SVGID_13_" d="M-44.6,11.4L-44.6,11.4c0,0,0.1,4.7,6.3,3.7c0,0,0.1-3.7-5.5-3.7L-44.6,11.4z"/>
					</defs>
					<clipPath id="SVGID_14_">
						<use xlink:href="#SVGID_13_"  style="overflow:visible;"/>
					</clipPath>
					<g id="Group_2935" transform="translate(0.353 46.418)" class="st10">
						<g id="Group_2934" transform="translate(-0.353 -0.07)" class="st6">
							<g id="Group_2933">
								<g>
									<defs>
										<rect id="SVGID_15_" x="-45" y="-35" width="8.4" height="5"/>
									</defs>
									<clipPath id="SVGID_16_">
										<use xlink:href="#SVGID_15_"  style="overflow:visible;"/>
									</clipPath>
									<g id="Group_2932" class="st11">
										<g id="Group_2931" transform="translate(0 0)">
											<g>
												<defs>
													<rect id="SVGID_17_" x="-45" y="-35" width="8.4" height="4.9"/>
												</defs>
												<clipPath id="SVGID_18_">
													<use xlink:href="#SVGID_17_"  style="overflow:visible;"/>
												</clipPath>
												<g id="Group_2930" class="st12">
													<path id="Path_8607" d="M-44.8-35l8.2,4.7l-4.2,0.2l-4.2-1.8L-44.8-35z"/>
												</g>
											</g>
										</g>
									</g>
								</g>
							</g>
						</g>
					</g>
				</g>
				<g>
					<defs>
						<rect id="SVGID_19_" x="-45" y="-35" width="42" height="54.8"/>
					</defs>
					<clipPath id="SVGID_20_">
						<use xlink:href="#SVGID_19_"  style="overflow:visible;"/>
					</clipPath>
					<g id="Group_2937" class="st13">
						<path id="Path_8609" class="st14" d="M-3.6,12.5c-0.2,0-0.3-0.1-0.4-0.2C-5,10.7-5.3,8.8-4.7,7c0.9-2.8,0.1-4.1-0.5-4.6
							c-0.6-0.6-1.4-0.8-2.1-0.6c-0.3,0.1-0.6,0-0.7-0.3c-0.1-0.3,0-0.6,0.3-0.7c0,0,0,0,0,0c1.1-0.4,2.4-0.1,3.2,0.8
							C-3.7,2.3-2.6,4-3.7,7.3c-0.5,1.5-0.3,3.1,0.6,4.4c0.2,0.2,0.1,0.6-0.1,0.7C-3.4,12.5-3.5,12.5-3.6,12.5"/>
						<path id="Path_8610" class="st15" d="M-12.6,13.5C-12.7,13.5-12.7,13.5-12.6,13.5c-0.4-0.1-0.6-0.3-0.5-0.6l0.1-0.7
							c0-0.3,0.3-0.5,0.6-0.5c0.3,0,0.5,0.3,0.5,0.6c0,0,0,0,0,0l-0.1,0.7C-12.2,13.3-12.4,13.5-12.6,13.5"/>
						<path id="Path_8611" class="st15" d="M-10.4,13.6c-0.2,0-0.4-0.2-0.5-0.4l-0.3-0.9c-0.1-0.3,0.1-0.6,0.4-0.6
							c0.2,0,0.5,0.1,0.6,0.3l0.3,0.9c0.1,0.3-0.1,0.6-0.4,0.6c0,0,0,0,0,0C-10.3,13.6-10.3,13.6-10.4,13.6"/>
						<path id="Path_8612" class="st16" d="M-8.8,11.4c-3.3,2.7-6.6-0.1-6.6-0.1L-9.9,9L-8.8,11.4z"/>
						<path id="Path_8613" class="st14" d="M-5.6,3.8C-5.8,2-7,0.6-8.7,0.1c-3.5-1.3-8.8,1.4-15.6-0.1c-0.9-0.2-1.7-0.6-2.4-1.2l0,0
							c-1.3-1.1-3.2-1.2-4.6-0.1c-0.1,0.1-0.2,0.2-0.3,0.3l-4,4.2c-0.2,0.3-0.3,0.6-0.2,1l0.2,0.9c0.1,0.5,0.5,0.8,1,0.8
							c1.2,0,2.5-0.1,3.7-0.4c1.5,2.2,3.5,4,5.7,5.4l0.1,6.8l-1.5,0.4c-0.3,0.1-0.6,0.3-0.7,0.7l-0.2,0.4c-0.1,0.2,0,0.5,0.3,0.5
							c0,0,0.1,0,0.1,0h2c0.3,0,0.7-0.2,0.9-0.5l0.5-0.8c0.1-0.2,0.2-0.4,0.2-0.6l1.1-6.2c7.5,1.4,8.6-1.4,12.5-1.8l2.4,4.7v3
							l-1.3,0.5c-0.3,0.1-0.6,0.3-0.7,0.7l-0.2,0.5c-0.1,0.2,0,0.5,0.3,0.5c0,0,0.1,0,0.1,0h1.8c0.4,0,0.8-0.2,1-0.6l0.6-1.3
							c0.1-0.3,0.2-0.7,0.2-1v-3.4c0-0.3,0-0.5-0.1-0.7c-0.4-1.3-0.6-2.7-0.5-4.1C-6.3,6.8-5.5,6.2-5.6,3.8"/>
						<path id="Path_8614" class="st17" d="M-25.8,8c-1-1-1.8-2.2-2.5-3.4c-0.1-0.3-0.5-0.4-0.8-0.2c0,0-0.1,0.1-0.1,0.1
							c-0.5,0.5-1,0.8-1.7,1c1.5,2.2,3.5,4,5.7,5.4C-25.1,9-25.4,8.4-25.8,8"/>
						<path id="Path_8615" class="st18" d="M-8.7,0.1c-1.7-0.4-3.5-0.5-5.2-0.1c0.8,2.2-1.5,3.5-1.6,3.7C-16.7,5-15,7.4-12.9,6.4
							c1.5-0.7,3.4-2.5,4-1c0.4,1.2,1.5,2,2.7,2.3c0.4-1.3,0.6-2.6,0.6-3.9C-5.8,2-7,0.6-8.7,0.1"/>
						<path id="Path_8616" class="st18" d="M-18.4,0.4c-2,0.1-3.9,0-5.8-0.4c-0.9-0.2-1.7-0.6-2.4-1.2l0,0c-1.3-1.1-3.2-1.2-4.6-0.1
							c-0.1,0.1-0.2,0.2-0.3,0.3l-4,4.2c-0.2,0.3-0.3,0.6-0.2,1l0.2,0.9c0.1,0.5,0.5,0.8,1,0.8c1.2,0,2.5-0.1,3.7-0.4
							c0.9,1.3,1.9,2.5,3.1,3.5c2.1-1,1.3-3,2.3-4.6C-23.9,1.9-19.5,4.5-18.4,0.4"/>
						<path id="Path_8617" class="st16" d="M-32.6,5.7c0-1.4-0.7-2.8-1.9-3.5l-1,1.1c-0.2,0.3-0.3,0.6-0.2,1l0.2,0.9
							c0.1,0.5,0.5,0.8,1,0.8c0.7,0,1.4-0.1,1.9-0.1C-32.6,5.7-32.6,5.7-32.6,5.7"/>
						<path id="Path_8618" class="st19" d="M-25,17.7l-1.5,0.4c-0.3,0.1-0.6,0.3-0.7,0.7l-0.1,0.4c-0.1,0.2,0,0.5,0.3,0.5
							c0,0,0.1,0,0.1,0h2c0.3,0,0.7-0.2,0.9-0.5l0.5-0.8L-25,17.7z"/>
						<path id="Path_8619" class="st19" d="M-9.2,19.8h1.8c0.4,0,0.8-0.2,1-0.6l0.3-0.6l-1.4-0.9l-1.3,0.5c-0.3,0.1-0.6,0.3-0.7,0.7
							l-0.2,0.5c-0.1,0.2,0,0.5,0.3,0.5C-9.3,19.8-9.3,19.8-9.2,19.8"/>
						<path id="Path_8620" class="st20" d="M-31.2,1.1c0.3,0,0.5,0.2,0.5,0.5c0,0.3-0.2,0.5-0.5,0.5c-0.3,0-0.5-0.2-0.5-0.5l0,0
							C-31.7,1.3-31.5,1.1-31.2,1.1"/>
						<path id="Path_8621" class="st15" d="M-35.8,4.2l0.1,0.4c0.4-0.1,0.7-0.4,0.7-0.8c0-0.3-0.2-0.5-0.4-0.7l-0.2,0.2
							C-35.8,3.5-35.9,3.9-35.8,4.2"/>
						<path id="Path_8622" class="st21" d="M-31-3.2c-0.3,0.9,0,1.8,0.7,2.4c0.2,0.2,0.4,0.2,0.7,0.1c0.5-0.1,0.9-0.5,1-1
							c0.1-0.1,0-0.3-0.2-0.4c0,0,0,0,0,0c-0.7-0.3-1.3-0.7-1.8-1.2C-30.7-3.4-30.8-3.4-31-3.2C-30.9-3.2-31-3.2-31-3.2"/>
						<path id="Path_8623" class="st19" d="M-21.9,5c-0.8,0.2-1.5,0.9-1.3,1.6c0.2,0.9,2,0.6,2.7,1.8c0.5,0.9,1.5,1.5,2.4,0.9
							s2-1.6,0.2-3.1C-19,5.3-20.4,4.8-21.9,5"/>
						<path id="Path_8624" class="st22" d="M-30.8-3.3c-0.1,0-0.1,0.1-0.1,0.1c-0.3,0.9,0,1.8,0.7,2.4c0.2,0.2,0.4,0.2,0.7,0.1
							c0.2-0.1,0.4-0.1,0.5-0.3C-30-1.5-30.6-2.3-30.8-3.3"/>
						<path id="Path_8625" class="st19" d="M-28.9-1.5l0.2,0.9c0,0.5,0.5,0.9,1,0.9c0.1,0,0.1,0,0.2,0c0.8-0.2,1.4-0.8,1.8-1.5
							c0.1-0.2,0-0.5-0.2-0.5c0,0,0,0,0,0c-0.8-0.2-1.7-0.3-2.6-0.2C-28.8-2.1-28.9-1.8-28.9-1.5C-28.9-1.6-28.9-1.6-28.9-1.5"/>
						<path id="Path_8626" class="st17" d="M-22.2,10.6l-0.2,1.1c7.5,1.4,8.6-1.4,12.5-1.8l-0.4-0.8c-0.5-0.9-1.6-1.2-2.5-0.9
							C-15,9.1-17,10.4-21,9.8C-21.6,9.7-22.1,10.1-22.2,10.6C-22.2,10.6-22.2,10.6-22.2,10.6"/>
						<path id="Path_8627" class="st19" d="M-27.7,9c0.7-0.3,1.2-0.9,1.4-1.5c-0.7-0.9-1.4-1.8-2-2.8c-0.1-0.3-0.5-0.4-0.8-0.2
							c0,0-0.1,0.1-0.1,0.1c-0.5,0.5-1,0.8-1.7,1C-29.9,6.8-28.9,8-27.7,9"/>
						<line id="Line_330" class="st23" x1="-23.9" y1="-24.5" x2="-23.9" y2="-28.3"/>
						<line id="Line_331" class="st23" x1="-23.9" y1="-6" x2="-23.9" y2="-9.8"/>
						<line id="Line_332" class="st23" x1="-16.5" y1="-17.2" x2="-12.7" y2="-17.2"/>
						<line id="Line_333" class="st23" x1="-35" y1="-17.2" x2="-31.2" y2="-17.2"/>
						<line id="Line_334" class="st23" x1="-18.6" y1="-11.9" x2="-16" y2="-9.3"/>
						<line id="Line_335" class="st23" x1="-31.7" y1="-25" x2="-29.1" y2="-22.4"/>
						<line id="Line_336" class="st23" x1="-18.6" y1="-22.4" x2="-16" y2="-25"/>
						<line id="Line_337" class="st23" x1="-31.7" y1="-9.3" x2="-29.1" y2="-11.9"/>
						<path id="Path_8628" class="st24" d="M-23.9-22.4c-2.9,0-5.2,2.3-5.2,5.2c0,2.9,2.3,5.2,5.2,5.2c2.9,0,5.2-2.3,5.2-5.2
							S-21-22.4-23.9-22.4L-23.9-22.4L-23.9-22.4"/>
					</g>
				</g>
			</g>
		</g>
	</g>
</g>
</svg>
