<svg xmlns="http://www.w3.org/2000/svg" xmlns:xlink="http://www.w3.org/1999/xlink" width="128" height="139.608" viewBox="0 0 128 139.608"><defs><style>.a,.c{fill:rgba(0,0,0,0);}.b{clip-path:url(#a);}.c{stroke:#cbcbcb;stroke-miterlimit:10;}.d{fill:#dc291e;}.e,.g{fill:#fff;}.f,.h,.i{fill:#333;}.g{font-size:24px;letter-spacing:-0.012em;}.g,.h{font-family:BasicSans-Black, Basic Sans;font-weight:800;}.h{font-size:47px;}.i{font-size:18px;font-family:BasicSans-Bold, Basic Sans;font-weight:700;}</style><clipPath id="a"><rect class="a" width="128" height="139.608"/></clipPath></defs><g class="b"><rect class="c" width="127.544" height="127.544" rx="15" transform="translate(0.228 11.836)"/><path class="d" d="M116.657,25.983H11.888A11.388,11.388,0,0,0,.5,37.371V69.257H128.044V37.371a11.388,11.388,0,0,0-11.388-11.388" transform="translate(-0.272 -14.147)"/><path class="e" d="M216.324,37.433a5.17,5.17,0,1,1-5.17-5.17,5.17,5.17,0,0,1,5.17,5.17" transform="translate(-112.156 -17.567)"/><path class="f" d="M212.784,23.672h0a3.806,3.806,0,0,1-3.805-3.805V3.806a3.805,3.805,0,0,1,7.611,0V19.867a3.806,3.806,0,0,1-3.805,3.805" transform="translate(-113.786 -0.001)"/><path class="e" d="M62.657,37.433a5.17,5.17,0,1,1-5.17-5.17,5.17,5.17,0,0,1,5.17,5.17" transform="translate(-28.486 -17.567)"/><path class="f" d="M59.118,23.672h0a3.806,3.806,0,0,1-3.805-3.805V3.806a3.805,3.805,0,0,1,7.611,0V19.867a3.806,3.806,0,0,1-3.805,3.805" transform="translate(-30.117 -0.001)"/></g><text class="g" transform="translate(64 44.405)"><tspan x="-25.56" y="0">MAR</tspan></text><text class="h" transform="translate(64 100.894)"><tspan x="-23.735" y="0">15</tspan></text><text class="i" transform="translate(64 124.119)"><tspan x="-36.756" y="0">MONDAY</tspan></text></svg>