<svg id="Calendar_Icon_End" data-name="Calendar Icon_End" xmlns="http://www.w3.org/2000/svg" xmlns:xlink="http://www.w3.org/1999/xlink" width="128.17" height="139.794" viewBox="0 0 128.17 139.794">
  <defs>
    <clipPath id="clip-path">
      <rect id="Rectangle_2444" data-name="Rectangle 2444" width="128.17" height="139.794" fill="#fff"/>
    </clipPath>
  </defs>
  <g id="Group_4426" data-name="Group 4426">
    <g id="Group_4425" data-name="Group 4425" clip-path="url(#clip-path)">
      <path id="Path_9666" data-name="Path 9666" d="M116.811,153.7H11.9a11.4,11.4,0,0,1-11.4-11.4V37.386a11.4,11.4,0,0,1,11.4-11.4H116.811a11.4,11.4,0,0,1,11.4,11.4V142.294a11.4,11.4,0,0,1-11.4,11.4" transform="translate(-0.272 -14.132)" fill="#fff"/>
      <g id="Rectangle_2443" data-name="Rectangle 2443" transform="translate(0.228 11.851)" fill="rgba(0,0,0,0)" stroke="#cbcbcb" stroke-miterlimit="10" stroke-width="1">
        <rect width="127.714" height="127.714" rx="15" stroke="none"/>
        <rect x="0.5" y="0.5" width="126.714" height="126.714" rx="14.5" fill="none"/>
      </g>
      <path id="Path_9667" data-name="Path 9667" d="M116.811,25.983H11.9A11.4,11.4,0,0,0,.5,37.386V69.315H128.214V37.386a11.4,11.4,0,0,0-11.4-11.4" transform="translate(-0.272 -14.132)" fill="#6f2c91"/>
      <path id="Path_9668" data-name="Path 9668" d="M216.337,37.44a5.177,5.177,0,1,1-5.177-5.177,5.177,5.177,0,0,1,5.177,5.177" transform="translate(-112.03 -17.547)" fill="#fff"/>
      <path id="Path_9669" data-name="Path 9669" d="M212.79,23.7h0a3.811,3.811,0,0,1-3.81-3.81V3.811a3.81,3.81,0,0,1,7.621,0V19.893a3.811,3.811,0,0,1-3.81,3.81" transform="translate(-113.66 -0.001)" fill="#333"/>
      <path id="Path_9670" data-name="Path 9670" d="M62.671,37.44a5.177,5.177,0,1,1-5.177-5.177,5.177,5.177,0,0,1,5.177,5.177" transform="translate(-28.454 -17.547)" fill="#fff"/>
      <path id="Path_9671" data-name="Path 9671" d="M59.123,23.7h0a3.811,3.811,0,0,1-3.81-3.81V3.811a3.81,3.81,0,0,1,7.621,0V19.893a3.811,3.811,0,0,1-3.81,3.81" transform="translate(-30.084 -0.001)" fill="#333"/>
    </g>
  </g>
  <path id="Path_10541" data-name="Path 10541" d="M19.488-15.84H14.76l-2.928,6.5A26.959,26.959,0,0,0,10.536-6h-.1A28.638,28.638,0,0,0,9.12-9.312L6.1-15.84H1.344V0H5.712V-7.1a11.1,11.1,0,0,0-.12-1.752l.12-.048A11.846,11.846,0,0,0,6.12-7.7L9.288.144h2.256L14.664-7.7a11.846,11.846,0,0,0,.408-1.2l.12.048a10.58,10.58,0,0,0-.12,1.752V0h4.416ZM31.728,0h4.536l-5.28-15.84H25.992L20.664,0h4.584l.816-2.9h4.872ZM26.952-6.12l1.056-3.792a18.972,18.972,0,0,0,.456-1.944h.1a17.11,17.11,0,0,0,.432,1.92L30.048-6.12Zm24.1,2.664a2.9,2.9,0,0,1-.5.048c-1.776,0-1.8-1.728-3.216-2.208A4.458,4.458,0,0,0,50.184-10.1c0-3.96-2.28-5.736-6.792-5.736H37.464V0h4.488V-4.824h.264c3.072,0,1.752,5.016,6.936,5.016a7.566,7.566,0,0,0,2.136-.216Zm-9.1-4.392v-4.56H43.1c1.68,0,2.712.816,2.712,2.352,0,1.416-1.152,2.208-3,2.208Z" transform="translate(38 44.432)" fill="#fff"/>
  <path id="Path_10539" data-name="Path 10539" d="M15.04-6.815,14.946-7a11.835,11.835,0,0,0,1.739-.987c4-2.726,8.836-6.721,8.836-12.455,0-6.533-4.841-10.951-11.985-10.951-7.379,0-12.079,4.136-12.079,9.917a7.678,7.678,0,0,0,.47,2.726L10.34-20.4A1.439,1.439,0,0,1,10.2-21.1a2.722,2.722,0,0,1,3.008-2.726A3.232,3.232,0,0,1,16.638-20.3c0,4.559-7.614,9.165-14.946,14.9V0H25.8V-6.909H17.2A16.492,16.492,0,0,0,15.04-6.815Zm35.015-9.353v-.141a6.577,6.577,0,0,0,3.478-5.969c0-5.593-4.7-9.118-11.75-9.118s-11.75,3.525-11.75,9.118a6.577,6.577,0,0,0,3.478,5.969v.141A7.788,7.788,0,0,0,28.9-8.977C28.9-3.384,33.887.376,41.783.376s12.878-3.76,12.878-9.353A7.788,7.788,0,0,0,50.055-16.168Zm-8.272-9.259c2.162,0,3.572,1.175,3.572,3.1,0,1.692-1.41,3.1-3.572,3.1s-3.572-1.41-3.572-3.1C38.211-24.252,39.621-25.427,41.783-25.427Zm0,19.27c-2.82,0-4.7-1.363-4.7-3.431s1.88-3.478,4.7-3.478,4.7,1.41,4.7,3.478S44.6-6.157,41.783-6.157Z" transform="translate(36 100.966)" fill="#333"/>
  <path id="Path_10545" data-name="Path 10545" d="M-26.568-8.334l2.286-.558c-.27-1.278-1.242-3.114-4.41-3.114-2.556,0-4.248,1.566-4.248,3.564,0,4.194,6.192,2.934,6.192,5.31,0,.738-.63,1.188-1.908,1.188a5.292,5.292,0,0,1-3.366-1.422L-33.516-1.53A7.409,7.409,0,0,0-28.728.126c3.024,0,4.518-1.458,4.518-3.312,0-4.464-6.174-3.24-6.174-5.4,0-.81.666-1.314,1.746-1.314A1.915,1.915,0,0,1-26.568-8.334ZM-15.03-11.88v7.2a2.326,2.326,0,0,1-2.394,2.592,2.349,2.349,0,0,1-2.43-2.61V-11.88H-22.41v7.2c0,2.934,2,4.806,4.986,4.806a4.593,4.593,0,0,0,4.95-4.806v-7.2Zm15.048,0H-2.466l.018,5.994A18.025,18.025,0,0,0-2.34-3.672l-.108.054c-.2-.36-.738-1.332-1.35-2.25L-7.812-11.88H-10.08V0h2.466l-.018-5.742a14.381,14.381,0,0,0-.09-2.142l.108-.054c.288.468.9,1.494,1.368,2.214L-2.412,0H.018Zm6.66,0H2.538V0h4.7c3.42,0,5.418-2.052,5.418-5.958C12.654-9.54,10.548-11.88,6.678-11.88ZM6.93-2.034H5.094V-9.846H6.372c2.358,0,3.69,1.26,3.69,3.888C10.062-3.15,8.838-2.034,6.93-2.034ZM21.654,0h2.592L20.052-11.88H17.3L13.086,0H15.7l.828-2.538h4.3Zm-4.5-4.464,1.134-3.51a10.12,10.12,0,0,0,.36-1.368H18.7a12.2,12.2,0,0,0,.36,1.35l1.152,3.528ZM33.8-11.88H31.122l-1.98,4a7.85,7.85,0,0,0-.558,1.476H28.53a8.1,8.1,0,0,0-.576-1.476l-2-4H23.2l4.032,7.614V0H29.79V-4.3Z" transform="translate(64 125.102)" fill="#333"/>
</svg>
