<svg xmlns="http://www.w3.org/2000/svg" xmlns:xlink="http://www.w3.org/1999/xlink" width="74.359" height="81.103" viewBox="0 0 74.359 81.103"><defs><clipPath id="a"><rect width="74.359" height="81.103" fill="rgba(0,0,0,0)"/></clipPath></defs><g transform="translate(-0.344)"><g transform="translate(0.344)"><g clip-path="url(#a)"><path d="M67.979,100.078H7.116A6.615,6.615,0,0,1,.5,93.462V32.6a6.616,6.616,0,0,1,6.616-6.616H67.979A6.615,6.615,0,0,1,74.595,32.6V93.462a6.615,6.615,0,0,1-6.616,6.616" transform="translate(-0.368 -19.107)" fill="#fff"/><g transform="translate(0.132 6.876)" fill="rgba(0,0,0,0)" stroke="#cbcbcb" stroke-miterlimit="10" stroke-width="1"><rect width="74.095" height="74.095" rx="10" stroke="none"/><rect x="0.5" y="0.5" width="73.095" height="73.095" rx="9.5" fill="none"/></g><path d="M67.979,25.983H7.116A6.616,6.616,0,0,0,.5,32.6V51.122H74.595V32.6a6.615,6.615,0,0,0-6.616-6.616" transform="translate(-0.368 -19.107)" fill="#6f2c91"/><path d="M211.99,35.266a3,3,0,1,1-3-3,3,3,0,0,1,3,3" transform="translate(-151.476 -23.725)" fill="#fff"/><path d="M211.191,13.752h0a2.211,2.211,0,0,1-2.211-2.211V2.211a2.211,2.211,0,0,1,4.421,0v9.33a2.211,2.211,0,0,1-2.211,2.211" transform="translate(-153.679 -0.001)" fill="#333"/><path d="M58.324,35.266a3,3,0,1,1-3-3,3,3,0,0,1,3,3" transform="translate(-38.473 -23.725)" fill="#fff"/><path d="M57.524,13.752h0a2.211,2.211,0,0,1-2.211-2.211V2.211a2.211,2.211,0,0,1,4.421,0v9.33a2.211,2.211,0,0,1-2.211,2.211" transform="translate(-40.676 -0.001)" fill="#333"/></g><path d="M9.744-7.92H7.38L5.916-4.668A13.479,13.479,0,0,0,5.268-3H5.22a14.319,14.319,0,0,0-.66-1.656L3.048-7.92H.672V0H2.856V-3.552a5.55,5.55,0,0,0-.06-.876l.06-.024a5.923,5.923,0,0,0,.2.6L4.644.072H5.772l1.56-3.924a5.923,5.923,0,0,0,.2-.6l.06.024a5.29,5.29,0,0,0-.06.876V0H9.744ZM15.864,0h2.268l-2.64-7.92H13L10.332,0h2.292l.408-1.452h2.436ZM13.476-3.06,14-4.956a9.486,9.486,0,0,0,.228-.972h.048a8.555,8.555,0,0,0,.216.96l.528,1.908ZM25.524-1.728a1.451,1.451,0,0,1-.252.024c-.888,0-.9-.864-1.608-1.1a2.229,2.229,0,0,0,1.428-2.244c0-1.98-1.14-2.868-3.4-2.868H18.732V0h2.244V-2.412h.132C22.644-2.412,21.984.1,24.576.1a3.783,3.783,0,0,0,1.068-.108Zm-4.548-2.2V-6.2h.576c.84,0,1.356.408,1.356,1.176,0,.708-.576,1.1-1.5,1.1Z" transform="translate(24 24.854)" fill="#fff"/><path d="M-6.9-3.625l-.05-.1a6.3,6.3,0,0,0,.925-.525c2.125-1.45,4.7-3.575,4.7-6.625C-1.325-14.35-3.9-16.7-7.7-16.7c-3.925,0-6.425,2.2-6.425,5.275a4.084,4.084,0,0,0,.25,1.45L-9.4-10.85a.765.765,0,0,1-.075-.375,1.448,1.448,0,0,1,1.6-1.45A1.719,1.719,0,0,1-6.05-10.8c0,2.425-4.05,4.875-7.95,7.925V0H-1.175V-3.675H-5.75A8.773,8.773,0,0,0-6.9-3.625ZM11.725-8.6v-.075a3.5,3.5,0,0,0,1.85-3.175c0-2.975-2.5-4.85-6.25-4.85s-6.25,1.875-6.25,4.85a3.5,3.5,0,0,0,1.85,3.175V-8.6A4.142,4.142,0,0,0,.475-4.775C.475-1.8,3.125.2,7.325.2s6.85-2,6.85-4.975A4.142,4.142,0,0,0,11.725-8.6Zm-4.4-4.925c1.15,0,1.9.625,1.9,1.65a1.734,1.734,0,0,1-1.9,1.65,1.734,1.734,0,0,1-1.9-1.65C5.425-12.9,6.175-13.525,7.325-13.525Zm0,10.25c-1.5,0-2.5-.725-2.5-1.825s1-1.85,2.5-1.85,2.5.75,2.5,1.85S8.825-3.275,7.325-3.275Z" transform="translate(37 56.309)" fill="#333"/><path d="M-14.76-4.63l1.27-.31a2.195,2.195,0,0,0-2.45-1.73A2.115,2.115,0,0,0-18.3-4.69c0,2.33,3.44,1.63,3.44,2.95,0,.41-.35.66-1.06.66a2.94,2.94,0,0,1-1.87-.79l-.83,1.02a4.116,4.116,0,0,0,2.66.92c1.68,0,2.51-.81,2.51-1.84,0-2.48-3.43-1.8-3.43-3,0-.45.37-.73.97-.73A1.064,1.064,0,0,1-14.76-4.63ZM-8.35-6.6v4A1.292,1.292,0,0,1-9.68-1.16a1.3,1.3,0,0,1-1.35-1.45V-6.6h-1.42v4A2.557,2.557,0,0,0-9.68.07,2.552,2.552,0,0,0-6.93-2.6v-4Zm8.36,0H-1.37l.01,3.33A10.014,10.014,0,0,0-1.3-2.04l-.06.03c-.11-.2-.41-.74-.75-1.25L-4.34-6.6H-5.6V0h1.37l-.01-3.19a7.989,7.989,0,0,0-.05-1.19l.06-.03c.16.26.5.83.76,1.23L-1.34,0H.01Zm3.7,0H1.41V0H4.02c1.9,0,3.01-1.14,3.01-3.31A3.036,3.036,0,0,0,3.71-6.6Zm.14,5.47H2.83V-5.47h.71c1.31,0,2.05.7,2.05,2.16C5.59-1.75,4.91-1.13,3.85-1.13ZM12.03,0h1.44L11.14-6.6H9.61L7.27,0H8.72l.46-1.41h2.39ZM9.53-2.48l.63-1.95a5.622,5.622,0,0,0,.2-.76h.03a6.776,6.776,0,0,0,.2.75l.64,1.96ZM18.78-6.6H17.29l-1.1,2.22a4.361,4.361,0,0,0-.31.82h-.03a4.5,4.5,0,0,0-.32-.82L14.42-6.6H12.89l2.24,4.23V0h1.42V-2.39Z" transform="translate(37 71.648)" fill="#333"/></g></g></svg>