<svg xmlns="http://www.w3.org/2000/svg" xmlns:xlink="http://www.w3.org/1999/xlink" width="128.17" height="139.794" viewBox="0 0 128.17 139.794"><defs><style>.a,.d{fill:rgba(0,0,0,0);}.b{clip-path:url(#a);}.c,.g{fill:#fff;}.d{stroke:#cbcbcb;stroke-miterlimit:10;}.e{fill:#6f2c91;}.f,.h,.i{fill:#333;}.g{font-size:24px;}.g,.h{font-family:BasicSans-Black, Basic Sans;font-weight:800;}.h{font-size:47px;}.i{font-size:19px;font-family:BasicSans-Bold, Basic Sans;font-weight:700;}</style><clipPath id="a"><rect class="a" width="128.17" height="139.794"/></clipPath></defs><g class="b"><path class="c" d="M116.811,153.7H11.9a11.4,11.4,0,0,1-11.4-11.4V37.386a11.4,11.4,0,0,1,11.4-11.4H116.811a11.4,11.4,0,0,1,11.4,11.4V142.294a11.4,11.4,0,0,1-11.4,11.4" transform="translate(-0.272 -14.132)"/><rect class="d" width="127.714" height="127.714" rx="15" transform="translate(0.228 11.851)"/><path class="e" d="M116.811,25.983H11.9A11.4,11.4,0,0,0,.5,37.386V69.315H128.214V37.386a11.4,11.4,0,0,0-11.4-11.4" transform="translate(-0.272 -14.132)"/><path class="c" d="M216.337,37.44a5.177,5.177,0,1,1-5.177-5.177,5.177,5.177,0,0,1,5.177,5.177" transform="translate(-112.03 -17.547)"/><path class="f" d="M212.79,23.7h0a3.811,3.811,0,0,1-3.81-3.81V3.811a3.81,3.81,0,0,1,7.621,0V19.893a3.811,3.811,0,0,1-3.81,3.81" transform="translate(-113.66 -0.001)"/><path class="c" d="M62.671,37.44a5.177,5.177,0,1,1-5.177-5.177,5.177,5.177,0,0,1,5.177,5.177" transform="translate(-28.454 -17.547)"/><path class="f" d="M59.123,23.7h0a3.811,3.811,0,0,1-3.81-3.81V3.811a3.81,3.81,0,0,1,7.621,0V19.893a3.811,3.811,0,0,1-3.81,3.81" transform="translate(-30.084 -0.001)"/></g><text class="g" transform="translate(38 44.432)"><tspan x="0" y="0">MAR</tspan></text><text class="h" transform="translate(36 100.966)"><tspan x="0" y="0">28</tspan></text><text class="i" transform="translate(9 125.261)"><tspan x="0" y="0">WEDNESDAY</tspan></text></svg>