<svg xmlns="http://www.w3.org/2000/svg" xmlns:xlink="http://www.w3.org/1999/xlink" width="163.408" height="84.901" viewBox="0 0 163.408 84.901"><defs><style>.a{fill:#ecfaf8;}.b{clip-path:url(#a);}</style><clipPath id="a"><rect class="a" width="163.408" height="84.901"/></clipPath></defs><g class="b"><path class="a" d="M140.531,40.169h-3.675a34.48,34.48,0,0,0,.408-5.021C137.263,15.736,121.169,0,101.312,0A36.053,36.053,0,0,0,70.042,17.851,32.047,32.047,0,0,0,51.359,11.87c-16.671,0-30.315,12.566-31.618,28.537A22.608,22.608,0,0,0,0,62.536C0,74.837,10.3,84.9,22.878,84.9H140.531c12.584,0,22.878-10.065,22.878-22.365s-10.294-22.367-22.878-22.367" transform="translate(-0.001)"/></g></svg>