<svg xmlns="http://www.w3.org/2000/svg" xmlns:xlink="http://www.w3.org/1999/xlink" width="196.234" height="196.234" viewBox="0 0 196.234 196.234"><defs><style>.a{fill:#fff;}.b{fill:none;}.c{clip-path:url(#e);}.d{clip-path:url(#f);}.e{clip-path:url(#g);}.f{fill:#ffdd73;}.g{fill:#0079b5;}.h{fill:#f58220;}.i{opacity:0.2;}.i,.l{mix-blend-mode:multiply;isolation:isolate;}.j{clip-path:url(#h);}.k{fill:#a74d24;}.l{opacity:0.3;}.m{filter:url(#c);}.n{filter:url(#a);}</style><filter id="a" x="0" y="0" width="196.234" height="196.234" filterUnits="userSpaceOnUse"><feOffset dy="10" input="SourceAlpha"/><feGaussianBlur stdDeviation="15" result="b"/><feFlood flood-opacity="0.102"/><feComposite operator="in" in2="b"/><feComposite in="SourceGraphic"/></filter><filter id="c" x="0" y="0" width="196.234" height="196.234" filterUnits="userSpaceOnUse"><feOffset dy="10" input="SourceAlpha"/><feGaussianBlur stdDeviation="15" result="d"/><feFlood flood-opacity="0.102"/><feComposite operator="in" in2="d"/><feComposite in="SourceGraphic"/></filter><clipPath id="e"><g class="n" transform="matrix(1, 0, 0, 1, 0, 0)"><circle class="a" cx="53.117" cy="53.117" r="53.117" transform="translate(237 2177.88)"/></g></clipPath><clipPath id="f"><rect class="b" width="78.18" height="51.48"/></clipPath><clipPath id="g"><rect class="b" width="78.18" height="51.481"/></clipPath><clipPath id="h"><rect class="b" width="19.044" height="24.84"/></clipPath></defs><g transform="translate(-192 -2242.88)"><g transform="translate(-23.5 -16.12)"><g transform="translate(260.5 2294)"><g class="m" transform="matrix(1, 0, 0, 1, -45, -35)"><circle class="a" cx="53.117" cy="53.117" r="53.117" transform="translate(45 35)"/></g></g></g><g class="c" transform="translate(0 100)"><g transform="translate(250.688 2201.77)"><g class="d"><g transform="translate(0 0)"><g class="e"><path class="f" d="M21.425,4.141V20.7a4.144,4.144,0,0,0,4.14,4.139H55.373A4.144,4.144,0,0,0,59.512,20.7V3.663A3.663,3.663,0,0,0,55.849,0H25.565a4.145,4.145,0,0,0-4.14,4.141" transform="translate(-1.378 0)"/><rect class="a" width="20.7" height="1.656" transform="translate(21.702 4.969)"/><rect class="a" width="9.936" height="1.656" transform="translate(47.369 9.11)"/><rect class="a" width="18.216" height="1.656" transform="translate(20.875 9.11)"/><rect class="a" width="10.764" height="1.656" transform="translate(24.186 19.046)"/><rect class="a" width="6.624" height="1.656" transform="translate(24.186 14.905)"/><path class="a" d="M57.251,15.872v4.969a.827.827,0,0,1-.827.827H51.454a.829.829,0,0,1-.828-.826v-4.97a.828.828,0,0,1,.826-.827h4.971a.828.828,0,0,1,.827.826Zm-1.656.828H52.283v3.311h3.311Z" transform="translate(-3.257 -0.968)"/><path class="g" d="M42.849,32.612V49.172a4.144,4.144,0,0,0,4.14,4.139H76.8a4.144,4.144,0,0,0,4.139-4.139V32.134a3.663,3.663,0,0,0-3.663-3.662H46.989a4.145,4.145,0,0,0-4.14,4.14" transform="translate(-2.756 -1.831)"/><rect class="a" width="20.7" height="1.656" transform="translate(41.748 31.61)"/><rect class="a" width="9.936" height="1.656" transform="translate(67.416 35.749)"/><rect class="a" width="18.216" height="1.656" transform="translate(40.921 35.749)"/><rect class="a" width="10.764" height="1.656" transform="translate(44.233 45.686)"/><rect class="a" width="6.624" height="1.656" transform="translate(44.233 41.546)"/><path class="a" d="M78.676,44.344v4.968a.828.828,0,0,1-.828.828H72.878a.828.828,0,0,1-.827-.828V44.344a.827.827,0,0,1,.826-.827h4.97a.827.827,0,0,1,.828.826Zm-1.656.828H73.708v3.311h3.311Z" transform="translate(-4.635 -2.799)"/><path class="h" d="M0,32.612V49.172a4.144,4.144,0,0,0,4.14,4.139H33.948a4.144,4.144,0,0,0,4.139-4.139V32.134a3.663,3.663,0,0,0-3.663-3.662H4.14A4.145,4.145,0,0,0,0,32.612" transform="translate(0 -1.831)"/><rect class="a" width="20.701" height="1.656" transform="translate(1.655 31.61)"/><rect class="a" width="9.936" height="1.656" transform="translate(27.323 35.749)"/><rect class="a" width="18.216" height="1.656" transform="translate(0.828 35.749)"/><rect class="a" width="10.764" height="1.656" transform="translate(4.14 45.686)"/><rect class="a" width="6.625" height="1.656" transform="translate(4.14 41.546)"/><path class="a" d="M35.827,44.344v4.968a.828.828,0,0,1-.828.828H30.029a.828.828,0,0,1-.827-.828V44.344a.826.826,0,0,1,.825-.827H35a.827.827,0,0,1,.828.826Zm-1.656.828H30.858v3.311H34.17Z" transform="translate(-1.879 -2.799)"/><g class="i" transform="translate(0 26.64)"><g class="j"><path class="k" d="M4.14,28.472A4.145,4.145,0,0,0,0,32.613V49.173a4.145,4.145,0,0,0,4.14,4.139h14.9V28.472Z" transform="translate(0 -28.472)"/></g></g><g class="l" transform="translate(20.047 0)"><g class="j"><path class="f" d="M25.565,0a4.145,4.145,0,0,0-4.14,4.141V20.7a4.145,4.145,0,0,0,4.14,4.139h14.9V0Z" transform="translate(-21.425)"/></g></g><g class="i" transform="translate(40.093 26.64)"><g class="j"><path class="g" d="M46.989,28.472a4.145,4.145,0,0,0-4.14,4.141V49.173a4.145,4.145,0,0,0,4.14,4.139h14.9V28.472Z" transform="translate(-42.849 -28.472)"/></g></g></g></g></g></g></g></g></svg>