<svg xmlns="http://www.w3.org/2000/svg" xmlns:xlink="http://www.w3.org/1999/xlink" width="168.139" height="168.139" viewBox="0 0 168.139 168.139"><defs><filter id="a" x="0" y="0" width="168.139" height="168.139" filterUnits="userSpaceOnUse"><feOffset dy="10" input="SourceAlpha"/><feGaussianBlur stdDeviation="15" result="b"/><feFlood flood-opacity="0.102"/><feComposite operator="in" in2="b"/><feComposite in="SourceGraphic"/></filter><clipPath id="c"><rect width="46.781" height="46.781" fill="none"/></clipPath></defs><g transform="translate(-15.333 -1408.021)"><g transform="translate(60.333 1443.021)"><g transform="matrix(1, 0, 0, 1, -45, -35)" filter="url(#a)"><circle cx="39.069" cy="39.069" r="39.069" transform="translate(0 0)" fill="#fff"/></g></g><g transform="translate(30.1 1420.859)" clip-path="url(#c)"><path d="M104.06,32.484H82.014l-1.829,12.4L105.4,43.055V33.828a1.344,1.344,0,0,0-1.344-1.344" transform="translate(-58.623 -23.749)" fill="#50b848"/><path d="M0,33.828v9.226l23.39,1.829v-12.4H1.344A1.344,1.344,0,0,0,0,33.828" transform="translate(0 -23.749)" fill="#50b848"/><path d="M82.014,0,80.185,8.734l1.829,8.742A8.739,8.739,0,1,0,82.014,0" transform="translate(-58.623 0.001)" fill="#dce4ec"/><path d="M82.014,0,80.185,8.734l1.829,8.742A8.739,8.739,0,1,0,82.014,0" transform="translate(-58.623 0.001)" fill="#e9eff4"/><path d="M54.489,8.738a8.749,8.749,0,0,0,8.738,8.739V0a8.749,8.749,0,0,0-8.738,8.739" transform="translate(-39.837 0.001)" fill="#dce4ec"/><path d="M85.871,21.984h3V19.242h-3v-3H84.5l-.914,4.367.914,4.374h1.371Z" transform="translate(-61.11 -11.875)" fill="#585766"/><path d="M73.732,16.242v3h-3v2.741h3v3H75.1V16.242Z" transform="translate(-51.712 -11.875)" fill="#262626"/><path d="M105.4,71.8H82.014L80.185,84.03l1.829,15.241h5.823l5.872-1.829,5.872,1.829h4.479a1.344,1.344,0,0,0,1.344-1.344Z" transform="translate(-58.623 -52.49)" fill="#e9eff4"/><rect width="11.744" height="23.437" transform="translate(29.214 23.344)" fill="#cbd2d8"/><path d="M0,71.8H23.39V99.272H1.344A1.344,1.344,0,0,1,0,97.927Z" transform="translate(0 -52.491)" fill="#e9eff4"/><rect width="7.833" height="10.03" transform="translate(12.44 23.344)" fill="#fff"/><path d="M144.481,123.05a1.11,1.11,0,1,1-1.11-1.11,1.11,1.11,0,0,1,1.11,1.11" transform="translate(-104.008 -89.15)" fill="#fff"/><rect width="7.833" height="10.03" transform="translate(3.117 23.344)" fill="#fff"/></g></g></svg>