<svg xmlns="http://www.w3.org/2000/svg" xmlns:xlink="http://www.w3.org/1999/xlink" width="168.472" height="168.472" viewBox="0 0 168.472 168.472"><defs><filter id="a" x="0" y="0" width="168.472" height="168.472" filterUnits="userSpaceOnUse"><feOffset dy="10" input="SourceAlpha"/><feGaussianBlur stdDeviation="15" result="b"/><feFlood flood-opacity="0.102"/><feComposite operator="in" in2="b"/><feComposite in="SourceGraphic"/></filter></defs><g transform="translate(-75.5 -1370.061)"><g transform="matrix(1, 0, 0, 1, 75.5, 1370.06)" filter="url(#a)"><circle cx="39.236" cy="39.236" r="39.236" transform="translate(0 0)" fill="#fff"/></g><g transform="translate(90.871 1385.8)"><path d="M17.552,19.5V45.191a4.39,4.39,0,0,0,3.619,4.342h0a6.61,6.61,0,0,0,1.086.362H42.882a4.692,4.692,0,0,0,4.7-4.7V19.5a4.672,4.672,0,0,0-3.619-4.7V11.9c0-.521-.565-.724-1.086-.724s-1.086.2-1.086.724H22.98c0-.521-.2-.724-.724-.724s-1.086.2-1.086.724V14.8a4.672,4.672,0,0,0-3.619,4.7" transform="translate(-3.734 -2.492)" fill="#eee8e6"/><path d="M21.175,14.8V11.9c0-.523.563-.724,1.086-.724s.724.2.724.724h3.98V14.8a5,5,0,0,0-3.98,4.7V45.195a4.694,4.694,0,0,0,4.7,4.7H22.261a4.694,4.694,0,0,1-4.7-4.7V19.5a4.677,4.677,0,0,1,3.619-4.7" transform="translate(-3.739 -2.496)" fill="#e0d2c9"/><path d="M20.431,0H45.037a1.2,1.2,0,0,1,1.086,1.086V9.408a1.2,1.2,0,0,1-1.086,1.086H20.431c-.523,0-.724-.563-.724-1.086V1.085c0-.523.2-1.086.724-1.086" transform="translate(-4.08 0)" fill="#585766"/><rect width="43.785" height="47.403" transform="translate(0.067)" fill="none"/><path d="M20.431,0h3.98a1.2,1.2,0,0,0-1.086,1.086V6.513H45.037c.522,0,1.086-.2,1.086-.724V9.408a1.2,1.2,0,0,1-1.086,1.086H20.431c-.523,0-.724-.563-.724-1.086V1.085c0-.523.2-1.086.724-1.086" transform="translate(-4.08 0)" fill="#262626"/><rect width="26.415" height="10.494" transform="translate(15.627 0)" fill="none"/><path d="M18.278,12.991H46.865c.522,0,.724-.564.724-1.086s-.2-.724-.724-.724H18.278c-.523,0-.724.2-.724.724s.2,1.086.724,1.086" transform="translate(-3.737 -2.497)" fill="#8c8ba4"/><rect width="43.785" height="47.403" transform="translate(0.067)" fill="none"/><path d="M18.278,11.18h3.98c-.523,0-1.086.2-1.086.724a1.2,1.2,0,0,0,1.086,1.086h-3.98c-.523,0-.724-.561-.724-1.086s.2-.724.724-.724" transform="translate(-3.737 -2.496)" fill="#4c4c59"/><rect width="4.704" height="1.809" transform="translate(13.817 8.684)" fill="none"/><rect width="30.034" height="18.816" transform="translate(13.817 20.264)" fill="#f48120"/><rect width="5.428" height="18.816" transform="translate(13.817 20.264)" fill="#a74d24"/><path d="M29.946,31.672c.578-.119,5.375-1.141,7.6,1.086,2.192,2.192,2.176,6.688,2.171,6.875-.01.423-.312.618-.724.724a8.75,8.75,0,0,1-2.533.362,6.134,6.134,0,0,1-4.342-1.447c-2.107-2.107-3.22-6.33-3.257-6.513-.1-.51.576-.981,1.086-1.086" transform="translate(-5.635 -6.342)" fill="#f6f0ed"/><path d="M29.946,32.082a7.767,7.767,0,0,0,1.086,0,13.49,13.49,0,0,0,2.895,5.79,6.136,6.136,0,0,0,4.342,1.447,12.494,12.494,0,0,0,1.447,0,6.49,6.49,0,0,1,0,.724c-.01.423-.312.618-.724.724a8.75,8.75,0,0,1-2.533.362,6.134,6.134,0,0,1-4.342-1.447c-2.107-2.107-3.22-6.33-3.257-6.513-.1-.51.576-.981,1.086-1.086" transform="translate(-5.635 -6.752)" fill="#e0d2c9"/><path d="M27.445,48.89h.724a9.326,9.326,0,0,1,0,1.086A6.8,6.8,0,0,1,25.636,55.4c-.1-.111.086-.241,0-.362a6.5,6.5,0,0,0,1.809-5.066,9.69,9.69,0,0,0,0-1.086" transform="translate(-5.305 -9.81)" fill="#b2b1b2"/><path d="M24.709,56.776c.085.119-.1.25,0,.362a5.772,5.772,0,0,1-2.895,1.447c-.095-.021-.269.026-.362,0a7.1,7.1,0,0,0,3.257-1.809" transform="translate(-4.378 -11.544)" fill="#aca6a3"/><path d="M24.011,43.934a6.5,6.5,0,0,1,3.619,4.342h-.724a6.361,6.361,0,0,0-2.895-3.98Z" transform="translate(-4.766 -9.196)" fill="#b87b45"/><path d="M19.726,42.194a6.962,6.962,0,0,1,3.257,1.086v.362a7.205,7.205,0,0,0-3.619-1.447c.1,0,.264,0,.362,0" transform="translate(-3.737 -8.541)" fill="#875638"/><path d="M11.094,49.425a6.376,6.376,0,0,0,2.533,5.066,6.915,6.915,0,0,0,4.342,1.447,6.885,6.885,0,1,0-.724-13.751,6.783,6.783,0,0,0-3.619,1.447,6.546,6.546,0,0,0-2.533,5.79" transform="translate(-2.343 -8.535)" fill="#ececec"/><path d="M11.614,49.858a5.7,5.7,0,0,0,5.428,5.428c.065,0,.3,0,.362,0,.138,0,.223.007.362,0s.225.018.362,0c.065-.008.3.011.362,0a5.8,5.8,0,0,0,4.7-6.152,5.7,5.7,0,0,0-5.428-5.428c-.065,0,.066,0,0,0-.138,0-.222-.007-.362,0s-.588-.017-.724,0c-.066.009.064-.01,0,0a6.088,6.088,0,0,0-5.066,6.152" transform="translate(-2.139 -8.969)" fill="#fff"/><path d="M18.217,43.7l.362,11.579c.064,0,.3,0,.362,0,.139,0,.223.007.362,0s.225.016.362,0c.065-.008.3.01.362,0L19.3,43.7c-.066,0,.066,0,0,0-.138,0-.222-.007-.362,0s-.587-.018-.724,0c-.066.008.064-.01,0,0" transform="translate(-3.676 -8.966)" fill="#ddded9"/><path d="M13.642,44.247a6.756,6.756,0,0,1,.724.724,5.7,5.7,0,0,0-2.533,5.066,5.4,5.4,0,0,0,2.533,4.342,6.757,6.757,0,0,1-.724.724,6.377,6.377,0,0,1-2.533-5.066c-.006-.111,0-.253,0-.362a6.459,6.459,0,0,1,2.533-5.428" transform="translate(-2.357 -9.147)" fill="#b2b4b6"/><path d="M14.147,45.251h0a6.577,6.577,0,0,1,2.171,4.342,6.71,6.71,0,0,1-2.171,5.066h0a5.4,5.4,0,0,1-2.533-4.342,5.7,5.7,0,0,1,2.533-5.066" transform="translate(-2.139 -9.427)" fill="#bbbdbf"/><path d="M-.118,50.046a6.486,6.486,0,0,0,7.6,5.428A6.755,6.755,0,1,0,5.671,42.086a7.1,7.1,0,0,0-5.79,7.961" transform="translate(0.186 -8.433)" fill="#ececec"/><path d="M1.412,50.214A5.727,5.727,0,0,0,7.2,55.28c.065,0,.3,0,.362,0,.137-.01.223.019.362,0s.227.029.362,0c.065-.014.3-.346.362-.362a5.516,5.516,0,0,0,4.342-6.152A6.086,6.086,0,0,0,6.839,43.7c-.064,0,.066,0,0,0-.138.01-.586-.02-.724,0s-.227-.029-.362,0c-.064.014.063-.015,0,0a5.9,5.9,0,0,0-4.342,6.513" transform="translate(-0.259 -8.962)" fill="#fff"/><path d="M6.884,43.693,8.331,55.273c.065,0,.3,0,.362,0,.138-.008.223.02.362,0s.227.03.362,0c.065-.014.3-.346.362-.362L7.969,43.693c-.065,0,.066,0,0,0-.137.009-.585-.019-.724,0s-.227-.03-.362,0c-.064.014.063-.017,0,0" transform="translate(-1.39 -8.955)" fill="#ddded9"/><rect width="43.785" height="47.403" transform="translate(0.067)" fill="none"/></g></g></svg>