<svg xmlns="http://www.w3.org/2000/svg" xmlns:xlink="http://www.w3.org/1999/xlink" width="168.007" height="168.007" viewBox="0 0 168.007 168.007"><defs><filter id="a" x="0" y="0" width="168.007" height="168.007" filterUnits="userSpaceOnUse"><feOffset dy="10" input="SourceAlpha"/><feGaussianBlur stdDeviation="15" result="b"/><feFlood flood-opacity="0.102"/><feComposite operator="in" in2="b"/><feComposite in="SourceGraphic"/></filter><clipPath id="c"><rect width="57.567" height="37.907" fill="none"/></clipPath><clipPath id="e"><rect width="14.023" height="18.291" fill="none"/></clipPath></defs><g transform="translate(-15.247 -1585.935)"><g transform="translate(56.22 1600.388)"><path d="M962.465,454.55H949.217a3.684,3.684,0,0,1-3.679-3.679V424.377a3.684,3.684,0,0,1,3.679-3.68h14.719a3.684,3.684,0,0,1,3.68,3.68v21.342h-1.472V424.377a2.211,2.211,0,0,0-2.208-2.208H949.217a2.211,2.211,0,0,0-2.208,2.208v26.494a2.211,2.211,0,0,0,2.208,2.208h13.247Z" transform="translate(-945.538 -420.697)" fill="#f7941d"/><path d="M980.02,469.279h-11.5a8.378,8.378,0,0,1-8.368-8.368v-2.672h1.472v2.672a6.9,6.9,0,0,0,6.9,6.9h10.767V449.784a6.641,6.641,0,0,0-1.452-4.14l-7.219-9.022,1.151-.919,7.219,9.022a8.128,8.128,0,0,1,1.773,5.06v18.759A.735.735,0,0,1,980.02,469.279Z" transform="translate(-949.847 -425.122)" fill="#f7941d"/><path d="M971.877,467.77a9.846,9.846,0,0,1-6.366-9.183v-2.277l-6.339-7.485a3.4,3.4,0,0,1,.2-4.609l.074-.072a3.342,3.342,0,0,1,2.429-.922,3.385,3.385,0,0,1,2.38,1.066l9.892,10.51-1.072,1.009L963.18,445.3a1.917,1.917,0,0,0-1.352-.6,1.967,1.967,0,0,0-1.383.527,1.944,1.944,0,0,0-.147,2.654l6.511,7.688a.738.738,0,0,1,.175.476v2.546a8.369,8.369,0,0,0,5.41,7.8Z" transform="translate(-949.321 -427.34)" fill="#f7941d"/><rect width="1.472" height="18.399" transform="translate(16.191 1.472)" fill="#f7941d"/><rect width="1.472" height="8.831" transform="translate(12.511 24.286)" fill="#f7941d"/><rect width="1.472" height="16.191" transform="translate(12.511 0.736)" fill="#f7941d"/><rect width="1.472" height="9.567" transform="translate(3.68 3.68)" fill="#f7941d"/><rect width="1.472" height="5.888" transform="translate(7.359 3.68)" fill="#f7941d"/><path d="M955.908,461.029h-4.416a.736.736,0,0,1-.736-.736v-4.416a.736.736,0,0,1,.736-.735h4.416a.735.735,0,0,1,.735.735v4.416A.736.736,0,0,1,955.908,461.029Zm-3.68-1.472h2.944v-2.944h-2.944Z" transform="translate(-947.077 -430.854)" fill="#f7941d"/></g><g transform="translate(60.247 1620.935)"><g transform="matrix(1, 0, 0, 1, -45, -35)" filter="url(#a)"><circle cx="39.003" cy="39.003" r="39.003" transform="translate(0 0)" fill="#fff"/></g></g><g transform="translate(25.326 1600.999)"><g clip-path="url(#c)"><g transform="translate(0 0)"><g clip-path="url(#c)"><path d="M21.425,3.049V15.243a3.051,3.051,0,0,0,3.049,3.048H46.422a3.051,3.051,0,0,0,3.048-3.048V2.7a2.7,2.7,0,0,0-2.7-2.7h-22.3a3.052,3.052,0,0,0-3.049,3.049" transform="translate(-6.664 0)" fill="#ffdd73"/><rect width="15.242" height="1.219" transform="translate(15.98 3.659)" fill="#fff"/><rect width="7.316" height="1.219" transform="translate(34.88 6.708)" fill="#fff"/><rect width="13.413" height="1.219" transform="translate(15.371 6.708)" fill="#fff"/><rect width="7.926" height="1.219" transform="translate(17.809 14.024)" fill="#fff"/><rect width="4.877" height="1.219" transform="translate(17.809 10.975)" fill="#fff"/><path d="M55.5,15.654v3.659a.609.609,0,0,1-.609.609H51.236a.61.61,0,0,1-.61-.608v-3.66a.61.61,0,0,1,.608-.609h3.66a.61.61,0,0,1,.609.608Zm-1.219.61H51.846V18.7h2.438Z" transform="translate(-15.746 -4.679)" fill="#fff"/><path d="M42.849,31.521V43.714A3.051,3.051,0,0,0,45.9,46.762H67.846a3.051,3.051,0,0,0,3.048-3.048V31.169a2.7,2.7,0,0,0-2.7-2.7H45.9a3.052,3.052,0,0,0-3.049,3.049" transform="translate(-13.327 -8.855)" fill="#0079b5"/><rect width="15.242" height="1.219" transform="translate(30.74 23.276)" fill="#fff"/><rect width="7.316" height="1.219" transform="translate(49.641 26.324)" fill="#fff"/><rect width="13.413" height="1.219" transform="translate(30.131 26.324)" fill="#fff"/><rect width="7.926" height="1.219" transform="translate(32.57 33.64)" fill="#fff"/><rect width="4.877" height="1.219" transform="translate(32.57 30.592)" fill="#fff"/><path d="M76.929,44.126v3.658a.61.61,0,0,1-.61.61H72.66a.61.61,0,0,1-.609-.61V44.126a.609.609,0,0,1,.608-.609h3.66a.609.609,0,0,1,.61.608Zm-1.219.61H73.271v2.438h2.438Z" transform="translate(-22.41 -13.535)" fill="#fff"/><path d="M0,31.521V43.714a3.051,3.051,0,0,0,3.049,3.048H25a3.051,3.051,0,0,0,3.048-3.048V31.169a2.7,2.7,0,0,0-2.7-2.7H3.049A3.052,3.052,0,0,0,0,31.521" transform="translate(0 -8.855)" fill="#f58220"/><rect width="15.243" height="1.219" transform="translate(1.219 23.276)" fill="#fff"/><rect width="7.316" height="1.219" transform="translate(20.119 26.324)" fill="#fff"/><rect width="13.413" height="1.219" transform="translate(0.61 26.324)" fill="#fff"/><rect width="7.926" height="1.219" transform="translate(3.049 33.64)" fill="#fff"/><rect width="4.878" height="1.219" transform="translate(3.049 30.592)" fill="#fff"/><path d="M34.08,44.126v3.658a.61.61,0,0,1-.61.61H29.811a.61.61,0,0,1-.609-.61V44.126a.609.609,0,0,1,.608-.609H33.47a.609.609,0,0,1,.61.608Zm-1.219.61H30.421v2.438H32.86Z" transform="translate(-9.083 -13.535)" fill="#fff"/><g transform="translate(0 19.616)" opacity="0.2" style="mix-blend-mode:multiply;isolation:isolate"><g clip-path="url(#e)"><path d="M3.049,28.472A3.052,3.052,0,0,0,0,31.521V43.715a3.052,3.052,0,0,0,3.049,3.048H14.023V28.472Z" transform="translate(0 -28.472)" fill="#a74d24"/></g></g><g transform="translate(14.761 0)" opacity="0.3" style="mix-blend-mode:multiply;isolation:isolate"><g clip-path="url(#e)"><path d="M24.474,0a3.052,3.052,0,0,0-3.049,3.049V15.243a3.052,3.052,0,0,0,3.049,3.048H35.448V0Z" transform="translate(-21.425)" fill="#ffdd73"/></g></g><g transform="translate(29.522 19.616)" opacity="0.2" style="mix-blend-mode:multiply;isolation:isolate"><g clip-path="url(#e)"><path d="M45.9,28.472a3.052,3.052,0,0,0-3.049,3.049V43.715A3.052,3.052,0,0,0,45.9,46.763H56.872V28.472Z" transform="translate(-42.849 -28.472)" fill="#0079b5"/></g></g></g></g></g></g></g></svg>