<svg xmlns="http://www.w3.org/2000/svg" xmlns:xlink="http://www.w3.org/1999/xlink" width="196" height="196" viewBox="0 0 196 196"><defs><style>.a{fill:#fff;}.b,.y{fill:none;}.c{clip-path:url(#e);}.d{clip-path:url(#f);}.e{clip-path:url(#g);}.f{fill:#f58220;}.g{fill:#50b848;}.h{clip-path:url(#h);}.i{opacity:0.05;}.j{clip-path:url(#i);}.k{clip-path:url(#k);}.l{clip-path:url(#l);}.m{clip-path:url(#m);}.n{clip-path:url(#n);}.o{clip-path:url(#o);}.p{fill:#dbd9dc;}.q{fill:#dc646e;}.r{fill:#e6828c;}.s{fill:#c9c6ca;}.t{fill:#6f6571;}.u{fill:#5d5360;}.v{fill:#4b3f4e;}.w{fill:#faebc8;}.x{fill:#f5dcb4;}.y{stroke:#ffdd73;stroke-linecap:round;stroke-miterlimit:10;stroke-width:3px;}.z{fill:#ffdd73;}.aa{filter:url(#c);}.ab{filter:url(#a);}</style><filter id="a" x="0" y="0" width="196" height="196" filterUnits="userSpaceOnUse"><feOffset dy="10" input="SourceAlpha"/><feGaussianBlur stdDeviation="15" result="b"/><feFlood flood-opacity="0.102"/><feComposite operator="in" in2="b"/><feComposite in="SourceGraphic"/></filter><filter id="c" x="0" y="0" width="196" height="196" filterUnits="userSpaceOnUse"><feOffset dy="10" input="SourceAlpha"/><feGaussianBlur stdDeviation="15" result="d"/><feFlood flood-opacity="0.102"/><feComposite operator="in" in2="d"/><feComposite in="SourceGraphic"/></filter><clipPath id="e"><g class="ab" transform="matrix(1, 0, 0, 1, 0, 0)"><circle class="a" cx="53" cy="53" r="53" transform="translate(0 5.99)"/></g></clipPath><clipPath id="f"><path class="b" d="M0,0H74.118V101.367H0Z"/></clipPath><clipPath id="g"><rect class="b" width="74.118" height="88.582"/></clipPath><clipPath id="h"><path class="b" d="M75.789,383.443c-11.712,0-11.5,7.766-11.5,7.766v-.042c12.958,2.076,13.207-7.725,13.207-7.725Z" transform="translate(-64.285 -383.443)"/></clipPath><clipPath id="i"><rect class="b" width="17.567" height="10.345"/></clipPath><clipPath id="k"><rect class="b" width="74.118" height="86.136"/></clipPath><clipPath id="l"><path class="b" d="M3.407,390.031v.042s.248,8.265,11.172,6.52c0,0,.208-6.562-9.719-6.562Z" transform="translate(-3.407 -390.031)"/></clipPath><clipPath id="m"><rect class="b" width="14.826" height="8.762"/></clipPath><clipPath id="n"><rect class="b" width="14.826" height="8.734"/></clipPath><clipPath id="o"><rect class="b" width="74.118" height="96.835"/></clipPath></defs><g transform="translate(45 35)"><g class="aa" transform="matrix(1, 0, 0, 1, -45, -35)"><circle class="a" cx="53" cy="53" r="53" transform="translate(45 35)"/></g><g class="c" transform="translate(0 -5.994)"><g class="d" transform="translate(16)"><g class="e" transform="translate(0 10.699)"><path class="f" d="M60.683,433.962a.9.9,0,0,1-.94-.845v-7.648h1.879v7.648a.9.9,0,0,1-.94.845" transform="translate(-48.93 -347.826)"/><path class="g" d="M64.284,390.938s-.248-8.514,13.207-7.725c0,0-.291,9.8-13.207,7.725" transform="translate(-52.531 -313.111)"/><path class="g" d="M64.284,390.938s-.248-8.514,13.207-7.725c0,0-.291,9.8-13.207,7.725" transform="translate(-52.531 -313.111)"/></g><g class="h" transform="translate(11.753 80.801)"><g class="i" transform="translate(-3.613 -0.166)"><g class="j"><g transform="translate(0 0)"><g class="j"><path d="M61.758,382.535l-17.235,9.926,8.8.415,8.763-3.821Z" transform="translate(-44.523 -382.535)"/></g></g></g></g></g><g class="k" transform="translate(0 10.699)"><path class="g" d="M3.407,390.065c11.379-.664,11.172,6.519,11.172,6.519-10.964,1.745-11.172-6.519-11.172-6.519" transform="translate(-2.784 -318.717)"/><path class="g" d="M3.407,390.065c11.379-.664,11.172,6.519,11.172,6.519-10.964,1.745-11.172-6.519-11.172-6.519" transform="translate(-2.784 -318.717)"/></g><g class="l" transform="translate(0.623 82.006)"><g class="i" transform="translate(-0.623 -0.124)"><g class="m"><g transform="translate(0 0)"><g class="n"><path d="M.291,389.351l14.536,8.389-7.434.373L0,394.874Z" transform="translate(0 -389.351)"/></g></g></g></g></g><g class="o"><path class="p" d="M365.092,306.844a.918.918,0,0,1-.749-.385,11.062,11.062,0,0,1-1.254-9.406c1.6-4.869.149-7.23-.859-8.205a3.772,3.772,0,0,0-3.8-.992.92.92,0,1,1-.633-1.727,5.652,5.652,0,0,1,5.709,1.4c1.317,1.274,3.241,4.28,1.327,10.1a9.282,9.282,0,0,0,1,7.763.92.92,0,0,1-.747,1.454" transform="translate(-291.892 -222.886)"/><path class="q" d="M308.7,396.811a.955.955,0,0,1-.142-.011.92.92,0,0,1-.768-1.049l.182-1.178a.92.92,0,1,1,1.818.281l-.182,1.178a.92.92,0,0,1-.908.779" transform="translate(-251.508 -311.1)"/><path class="q" d="M328.337,395.727a.92.92,0,0,1-.886-.675l-.46-1.667a.92.92,0,0,1,1.773-.489l.46,1.667a.919.919,0,0,1-.642,1.131.906.906,0,0,1-.245.034" transform="translate(-267.182 -309.814)"/><path class="r" d="M297.832,370.955c-5.852,4.786-11.593-.142-11.593-.142l9.677-4.062Z" transform="translate(-233.908 -289.001)"/><path class="p" d="M141.806,270.168c-.1-1.837-1.207-4.893-5.4-6.438-6.144-2.264-15.521,2.395-27.517-.187a9.928,9.928,0,0,1-4.217-2.093l-.038-.031a6.327,6.327,0,0,0-8.1-.122q-.245.211-.471.448l-7.1,7.453a1.84,1.84,0,0,0-.442,1.727l.416,1.6a1.851,1.851,0,0,0,1.824,1.377,30.868,30.868,0,0,0,6.56-.7,35.023,35.023,0,0,0,10.111,9.562l.115,12.072-2.7.675a1.839,1.839,0,0,0-1.3,1.2l-.264.792a.767.767,0,0,0,.727,1.009h3.47a1.839,1.839,0,0,0,1.531-.819l.951-1.426a2.762,2.762,0,0,0,.433-1.126l1.881-10.957c13.243,2.486,15.159-2.5,22.019-3.148l4.177,8.278v5.327l-2.232.821a1.84,1.84,0,0,0-1.164,1.163l-.293.878a.767.767,0,0,0,.727,1.009h3.246a1.84,1.84,0,0,0,1.689-1.11l.982-2.271a4.6,4.6,0,0,0,.378-1.825v-6.017a3.369,3.369,0,0,0-.238-1.3,23.8,23.8,0,0,1-.912-7.173c0-3.3,1.38-4.293,1.15-8.642" transform="translate(-72.286 -201.674)"/><path class="s" d="M145.878,327.79a29.441,29.441,0,0,1-4.406-6.066,1,1,0,0,0-1.588-.258,7.639,7.639,0,0,1-2.967,1.821,35.025,35.025,0,0,0,10.111,9.562c0-3.334-.5-4.407-1.15-5.059" transform="translate(-111.885 -251.765)"/><path class="t" d="M293.951,278.048c-2.52-.928-5.593-.689-9.158-.266,1.5,3.824-2.607,6.223-2.914,6.589-1.962,2.342,1.017,6.465,4.6,4.714,2.587-1.265,5.979-4.369,7.128-1.725a6.294,6.294,0,0,0,4.748,3.986c.35-2.06,1.183-3.4,1-6.861-.1-1.837-1.207-4.892-5.4-6.438" transform="translate(-229.835 -215.993)"/><path class="t" d="M119.21,264.278a38.858,38.858,0,0,1-10.325-.737,9.924,9.924,0,0,1-4.216-2.093l-.038-.031a6.327,6.327,0,0,0-8.1-.122,6.457,6.457,0,0,0-.471.448l-7.1,7.453a1.84,1.84,0,0,0-.442,1.727l.416,1.6a1.852,1.852,0,0,0,1.824,1.377,30.852,30.852,0,0,0,6.56-.7,31.842,31.842,0,0,0,5.543,6.17c3.678-1.785,2.343-5.383,4.019-8.15,2.638-4.357,10.539.178,12.33-6.937" transform="translate(-72.286 -201.673)"/><path class="r" d="M94.168,306.569a7.09,7.09,0,0,0-3.383-6.242l-1.825,1.917a1.839,1.839,0,0,0-.442,1.727l.416,1.6a1.852,1.852,0,0,0,1.824,1.377c1.279-.023,2.4-.092,3.4-.193,0-.061.008-.121.008-.183" transform="translate(-72.286 -234.721)"/><path class="u" d="M173.62,451.02l-2.7.675a1.84,1.84,0,0,0-1.3,1.2l-.264.792a.767.767,0,0,0,.727,1.009h3.47a1.84,1.84,0,0,0,1.531-.819l.9-1.35Z" transform="translate(-138.362 -357.864)"/><path class="u" d="M342.4,453.842h3.246a1.84,1.84,0,0,0,1.688-1.11l.479-1.107-2.453-1.654-2.232.82a1.84,1.84,0,0,0-1.163,1.164l-.292.877a.767.767,0,0,0,.727,1.009" transform="translate(-279.172 -357.007)"/><path class="v" d="M129.586,290.121a.92.92,0,1,1-.92.92.92.92,0,0,1,.92-.92" transform="translate(-105.143 -226.381)"/><path class="q" d="M88.517,311.082l.162.619a1.639,1.639,0,0,0,1.312-1.471,1.463,1.463,0,0,0-.723-1.2l-.308.327a1.839,1.839,0,0,0-.442,1.727" transform="translate(-72.285 -241.832)"/><path class="w" d="M134.378,247.543a3.468,3.468,0,0,0,1.287,4.153,1.326,1.326,0,0,0,1.208.257,2.656,2.656,0,0,0,1.806-1.793.5.5,0,0,0-.293-.642,9.332,9.332,0,0,1-3.263-2.148.457.457,0,0,0-.745.173" transform="translate(-109.608 -191.342)"/><path class="u" d="M212.85,327.329c-1.492.312-2.6,1.532-2.3,2.788.374,1.552,3.515,1.012,4.829,3.162.948,1.552,2.644,2.7,4.168,1.667s3.479-2.8.316-5.432a8.983,8.983,0,0,0-7.013-2.185" transform="translate(-172.017 -256.698)"/><path class="x" d="M134.637,247.5a.457.457,0,0,0-.26.254,3.468,3.468,0,0,0,1.287,4.153,1.327,1.327,0,0,0,1.208.257,2.537,2.537,0,0,0,.875-.446,6.575,6.575,0,0,1-3.111-4.217" transform="translate(-109.608 -191.552)"/><path class="u" d="M155.684,260.111l.278,1.538a1.7,1.7,0,0,0,2.19,1.506,5.088,5.088,0,0,0,3.165-2.711.737.737,0,0,0-.419-.957,12.087,12.087,0,0,0-4.539-.381.817.817,0,0,0-.674,1" transform="translate(-127.209 -200.996)"/><path class="s" d="M219,362.776l-.275,1.857c13.243,2.486,15.159-2.5,22.019-3.148l-.788-1.331a3.657,3.657,0,0,0-4.443-1.578c-3.7,1.429-7.245,3.807-14.372,2.659A1.851,1.851,0,0,0,219,362.776" transform="translate(-178.739 -282.126)"/><path class="u" d="M142.462,329.455a4.577,4.577,0,0,0,2.472-2.711,29.737,29.737,0,0,1-3.46-5.022,1,1,0,0,0-1.588-.258,7.636,7.636,0,0,1-2.967,1.821,31.834,31.834,0,0,0,5.543,6.17" transform="translate(-111.887 -251.763)"/><line class="y" y1="6.664" transform="translate(37.334 11.797)"/><line class="y" y1="6.737" transform="translate(37.334 44.531)"/><line class="y" x2="6.737" transform="translate(50.369 31.496)"/><line class="y" x2="6.664" transform="translate(17.636 31.496)"/><line class="y" x2="4.76" y2="4.76" transform="translate(46.561 40.723)"/><line class="y" x2="4.687" y2="4.687" transform="translate(23.421 17.582)"/><line class="y" y1="4.687" x2="4.76" transform="translate(46.561 17.582)"/><line class="y" y1="4.76" x2="4.687" transform="translate(23.421 40.723)"/><path class="z" d="M162.968,63.286a9.227,9.227,0,1,0,9.227,9.227,9.227,9.227,0,0,0-9.227-9.227h0" transform="translate(-125.634 -41.017)"/></g></g></g></g></svg>