<svg xmlns="http://www.w3.org/2000/svg" xmlns:xlink="http://www.w3.org/1999/xlink" width="196" height="196" viewBox="0 0 196 196">
  <defs>
    <filter id="Ellipse_5" x="0" y="0" width="196" height="196" filterUnits="userSpaceOnUse">
      <feOffset dy="10" input="SourceAlpha"/>
      <feGaussianBlur stdDeviation="15" result="blur"/>
      <feFlood flood-opacity="0.102"/>
      <feComposite operator="in" in2="blur"/>
      <feComposite in="SourceGraphic"/>
    </filter>
  </defs>
  <g id="Icon_-_why_take_it" data-name="Icon - why take it" transform="translate(45 35)">
    <g transform="matrix(1, 0, 0, 1, -45, -35)" filter="url(#Ellipse_5)">
      <circle id="Ellipse_5-2" data-name="Ellipse 5" cx="53" cy="53" r="53" transform="translate(45 35)" fill="#fff"/>
    </g>
    <g id="shield" transform="translate(29 25)">
      <path id="Union_2" data-name="Union 2" d="M24.362,57.1h-.049a4.043,4.043,0,0,1-.8-.081,4.6,4.6,0,0,1-.552-.149,36.11,36.11,0,0,1-13.5-7.986,28.721,28.721,0,0,1-6.9-10.747C-.229,30.577-.072,22.247.058,15.55v-.1c.027-.553.043-1.132.052-1.774a6.054,6.054,0,0,1,5.7-5.927c6.564-.366,11.644-2.509,15.983-6.737L21.83.973a3.654,3.654,0,0,1,4.965,0l.038.035c4.34,4.229,9.419,6.369,15.983,6.737a6.05,6.05,0,0,1,5.7,5.927c.011.647.027,1.227.052,1.774l0,.046c.109,5.764.24,12.739-1.5,19.4q-.426,1.635-1.014,3.238a28.76,28.76,0,0,1-6.9,10.749q-.731.714-1.525,1.386a37.544,37.544,0,0,1-11.957,6.6,4.333,4.333,0,0,1-.559.152A4.419,4.419,0,0,1,24.362,57.1Z" fill="#50b848" stroke="rgba(0,0,0,0)" stroke-miterlimit="10" stroke-width="1"/>
      <path id="Path_8634" data-name="Path 8634" d="M118.68,142.378A14.249,14.249,0,0,1,104.5,156.609h-.05a14.231,14.231,0,1,1,0-28.462h.05a14.249,14.249,0,0,1,14.181,14.231" transform="translate(-80.137 -113.827)" fill="#fff"/>
      <path id="Path_8635" data-name="Path 8635" d="M232.2,142.378a14.249,14.249,0,0,1-14.181,14.231V128.147A14.249,14.249,0,0,1,232.2,142.378" transform="translate(-193.66 -113.827)" fill="#e1ebf0"/>
      <path id="Path_8636" data-name="Path 8636" d="M167.01,214.425l-6.409,6.41-1.385,1.385a1.677,1.677,0,0,1-2.37,0l-2.978-2.979a1.675,1.675,0,0,1,2.369-2.369l1.794,1.794,6.61-6.61a1.675,1.675,0,1,1,2.369,2.369" transform="translate(-136.238 -187.923)" fill="#6f6571"/>
      <path id="Path_8637" data-name="Path 8637" d="M224.431,214.425l-6.409,6.41V216.1l4.04-4.04a1.675,1.675,0,1,1,2.369,2.369" transform="translate(-193.659 -187.923)" fill="#5d5360"/>
    </g>
  </g>
</svg>
