<svg xmlns="http://www.w3.org/2000/svg" xmlns:xlink="http://www.w3.org/1999/xlink" width="196.234" height="196.234" viewBox="0 0 196.234 196.234"><defs><style>.a{fill:#f58220;}.b{fill:#fff;}.c{clip-path:url(#c);}.d{filter:url(#a);}</style><filter id="a" x="0" y="0" width="196.234" height="196.234" filterUnits="userSpaceOnUse"><feOffset dy="10" input="SourceAlpha"/><feGaussianBlur stdDeviation="15" result="b"/><feFlood flood-opacity="0.102"/><feComposite operator="in" in2="b"/><feComposite in="SourceGraphic"/></filter><clipPath id="c"><rect class="a" width="33.597" height="55.994"/></clipPath></defs><g transform="translate(45 35)"><g class="d" transform="matrix(1, 0, 0, 1, -45, -35)"><circle class="b" cx="53.117" cy="53.117" r="53.117" transform="translate(45 35)"/></g><g transform="translate(36.319 25.348)"><g class="c" transform="translate(0 0)"><path class="a" d="M78.358,284.715a3.69,3.69,0,1,1,3.69-3.69,3.691,3.691,0,0,1-3.69,3.69" transform="translate(-61.559 -229.044)"/><path class="a" d="M22.445,31.888a3.706,3.706,0,0,0-2.152,3.355V36.9a3.69,3.69,0,0,1-7.379,0V35.243a11.117,11.117,0,0,1,6.439-10.059c3.76-1.73,6.475-6.325,6.475-8.579a9.225,9.225,0,1,0-18.449,0A3.69,3.69,0,1,1,0,16.6a16.6,16.6,0,0,1,33.209,0c0,4.986-4.325,12.314-10.763,15.284" transform="translate(0.194 0.323)"/></g></g></g></svg>