<svg xmlns="http://www.w3.org/2000/svg" width="400" height="327.275" viewBox="0 0 400 327.275"><defs><style>.a{fill:rgba(0,123,115,0.5);}.b{fill:#00233e;}.c{fill:#cdebf1;}.d{fill:#10131c;}.e{fill:#d4825e;}.f{fill:#97999c;}.g{fill:#aa6343;}.h{fill:#001f33;}.i{fill:#cacbcf;}.j{fill:#030504;}.k{fill:#7f645d;}.l{fill:#0089ce;}.m{fill:#f78d66;}.n{fill:#c7c7c7;}.o{fill:#ebc738;}.p{fill:#472612;}.q{fill:#5e3013;}.r{fill:#de6048;}.s{fill:#1b110c;}.t{fill:#f3de8a;}</style></defs><g transform="translate(0 44.787)"><path class="a" d="M1416.043,1902.417c110.455,0,200,2.171,200,4.843s-89.545,4.852-200,4.852-200-2.175-200-4.852,89.545-4.843,200-4.843" transform="translate(-1216.043 -1629.623)"/><path class="b" d="M1261.066,1897.537c.17,1.259-.138,2.44.882,3.425a7.36,7.36,0,0,0,2.817,1.414,14.217,14.217,0,0,0,3.893.844c3.047.164,5.979-1.1,9.016-1.423a14.49,14.49,0,0,1,4.711.278c1.085.243,2.146.612,3.244.8a12.642,12.642,0,0,0,4.04-.037c.974-.141,2.583-.2,3.056-1.244a.662.662,0,0,1,.106-.2.355.355,0,0,1,.409-.037.862.862,0,0,1,.3.315,3.245,3.245,0,0,1,.464,2.179c-.211,1.569-1.507,2.385-2.941,2.786a9.907,9.907,0,0,1-1.806.319,24.224,24.224,0,0,1-5.942-.269,21.972,21.972,0,0,0-5.846-.62c-1.948.2-3.879.57-5.832.757a11.7,11.7,0,0,1-5.625-.675,14.154,14.154,0,0,1-4.039-2.034,11.332,11.332,0,0,1-2.1-2.011,4.081,4.081,0,0,1-.584-3.885,1.79,1.79,0,0,1,1.448-.967.328.328,0,0,1,.211.037.323.323,0,0,1,.115.246" transform="translate(-1200.901 -1631.443)"/><path class="c" d="M1283.842,1902.2c-2.358.57-4.936.338-7.344.351a7.917,7.917,0,0,1-3.7-.57,2.679,2.679,0,0,1-1.526-3.083c.391-1.067,1.581-1.564,2.555-2.161a8.371,8.371,0,0,0,3.516-4.482,45.8,45.8,0,0,0,1.383-5.663,46.012,46.012,0,0,0,9.632.5c-.344,1.569-.846,3.607-.946,4.127a10.389,10.389,0,0,0,.092,4.856,9.113,9.113,0,0,1,.464,1.988,4.125,4.125,0,0,1-2.629,3.639,8.543,8.543,0,0,1-1.5.5" transform="translate(-1196.623 -1635.2)"/><path class="d" d="M1277.209,1893.385c-.188.109-.368.237-.519.31a11.218,11.218,0,0,0-1.636.948,18.459,18.459,0,0,1-6.507,3.43c-2.151.469-4.384.155-6.581.223a2.584,2.584,0,0,0-1.939.657,1.88,1.88,0,0,0-.391,1.153,3.223,3.223,0,0,0,.859,2.317,6.465,6.465,0,0,0,1.425,1.049,13,13,0,0,0,12.445,1.934c1.544-.461,3.125-1.1,4.72-.844.979.16,1.87.652,2.835.889a11.082,11.082,0,0,0,2.955.21,39.939,39.939,0,0,0,5.533-.347,3.513,3.513,0,0,0,3.139-3.379,15.314,15.314,0,0,0-1.627-8.441,19.231,19.231,0,0,1-2.564,1.947,8.325,8.325,0,0,1-3.442.716,7.886,7.886,0,0,1-4.384-.679,22.425,22.425,0,0,1-2.941-2.024,1.2,1.2,0,0,0-.574-.329,1.324,1.324,0,0,0-.8.26" transform="translate(-1200.684 -1632.899)"/><path class="d" d="M1275.982,1892.21c.032-.816-.474-1.368-1.393-.935a6.822,6.822,0,0,0-2.624,3.164,8,8,0,0,1-2.743,3.175,2.087,2.087,0,0,0,1.452-.242,11.485,11.485,0,0,0,4.5-3.342,3.7,3.7,0,0,0,.758-1.441,2.9,2.9,0,0,0,.051-.378" transform="translate(-1197.305 -1633.603)"/><path class="d" d="M1375.154,1838.807c-.763.3-1.071.98-.3,1.637a6.911,6.911,0,0,0,3.975,1.117,8.094,8.094,0,0,1,4.03,1.217,2.06,2.06,0,0,0-.8-1.222,11.5,11.5,0,0,0-4.895-2.745,3.828,3.828,0,0,0-1.636-.114c-.129.032-.253.069-.368.11" transform="translate(-1160.241 -1652.092)"/><path class="e" d="M1283.471,1861.282c-.735,3.229-2.293,7.1-1.057,10.379,1.181,3.124,4.472,5.468,7.891,4.857a11.446,11.446,0,0,0,5.244-2.914c3.309-2.832,5.4-7.843,6.994-11.86,3.962-10,4.6-13.274,9.853-21.158a60.928,60.928,0,0,0,9.118-20.21c1.379-6,8.846-13.2,5.166-18.308-3.337-4.629-9.472-10.429-15.676-9.813-5.8.584-9.527,6.256-11.967,10.976-.2.4-.413.807-.611,1.213-8.837,17.911-10.584,37.661-14.954,56.84" transform="translate(-1192.819 -1668.457)"/><path class="e" d="M1334.375,1864.682c2.16,2.522,4.338,6.078,7.725,7.068,3.226.944,7.1-.26,8.654-3.338a11.3,11.3,0,0,0,.8-5.918c-.3-4.323-4.338-8.377-5.795-12.445q-4.8-13.359-9.6-26.7c-2.546-7.073-2.422-14.314-7.311-20.037-4-4.692-9.922-8.322-16.245-8.472-5.731-.127-14.095,1.25-17.316,6.544-3.024,4.957-.689,11.313,1.654,16.083.2.41.4.816.607,1.222,9.136,17.766,23.994,31.012,36.825,46" transform="translate(-1188.625 -1667.534)"/><path class="e" d="M1296.613,1877.368c.074-.169.152-.337.23-.506,2.569-5.773,4.637-12.1,4.076-18.486-.349-4.026-.942-8.481-3.654-11.692-2.679-3.183-7.325-4.241-10.832-1.423-2.426,1.952-2.9,4.391-3.212,7.3-1,9.143-2.381,18.231-3.6,27.347-.643,4.843-1.172,9.7-1.631,14.565-.143,1.55-2.165,13.543-1.213,14.136,1.76,1.1,4.2.419,5.7-1.017,3.538-3.388,5.271-9.312,6.8-13.821,1.921-5.686,4.871-10.944,7.334-16.4" transform="translate(-1194.733 -1650.338)"/><path class="e" d="M1354.465,1834.809c-.188.009-.372.009-.561.023-6.351.251-12.987,1.195-18.52,4.5-3.488,2.088-7.265,4.574-8.975,8.4-1.7,3.789-.611,8.4,3.484,10.274,2.84,1.3,5.248.647,8.019-.351,8.708-3.133,17.541-5.905,26.328-8.828,4.669-1.55,9.3-3.229,13.9-4.957,1.47-.552,13.212-4.031,13.327-5.139.221-2.057-1.471-3.935-3.428-4.633-4.623-1.664-10.744-.6-15.506.023-5.984.789-12.045.479-18.065.684" transform="translate(-1177.425 -1654.009)"/><path class="b" d="M1389.465,1857.565c1.062-.7,2.266-.949,2.711-2.294a7.2,7.2,0,0,0,.037-3.133,14.086,14.086,0,0,0-.947-3.835c-1.19-2.786-3.635-4.847-5.262-7.41a14.333,14.333,0,0,1-1.82-4.318c-.257-1.076-.391-2.184-.708-3.242a12.334,12.334,0,0,0-1.806-3.58c-.561-.8-1.324-2.216-2.477-2.18a.6.6,0,0,1-.221-.009.336.336,0,0,1-.212-.346.8.8,0,0,1,.152-.4,3.305,3.305,0,0,1,1.765-1.377,3.6,3.6,0,0,1,3.819,1.391,10.556,10.556,0,0,1,1.08,1.473,23.785,23.785,0,0,1,2.381,5.413,21.468,21.468,0,0,0,2,5.476c1.039,1.655,2.229,3.206,3.254,4.865a11.461,11.461,0,0,1,1.866,5.313,13.6,13.6,0,0,1-.064,4.487,10.8,10.8,0,0,1-.9,2.754,4.128,4.128,0,0,1-3.249,2.23,1.787,1.787,0,0,1-1.516-.862.308.308,0,0,1-.06-.206.32.32,0,0,1,.17-.209" transform="translate(-1158.707 -1656.801)"/><path class="c" d="M1382.55,1831.619c1.553,1.851,2.477,4.25,3.548,6.384a7.827,7.827,0,0,1,1.121,3.553,2.7,2.7,0,0,1-2.123,2.717c-1.135.124-2.109-.725-3.079-1.322a8.487,8.487,0,0,0-5.611-1.163,46.8,46.8,0,0,0-5.726,1.263,45.037,45.037,0,0,0-3.791-8.805c1.572-.379,3.63-.83,4.145-.976a10.546,10.546,0,0,0,4.357-2.216,8.743,8.743,0,0,1,1.594-1.286,4.178,4.178,0,0,1,4.453.739,8.266,8.266,0,0,1,1.112,1.113" transform="translate(-1162.89 -1655.352)"/><path class="d" d="M1379.253,1845.056c.184.119.377.223.51.328a11.734,11.734,0,0,0,1.576,1.04,18.285,18.285,0,0,1,5.97,4.286c1.365,1.705,2.068,3.835,3.1,5.764a2.521,2.521,0,0,0,1.452,1.437,1.932,1.932,0,0,0,1.213-.155,3.287,3.287,0,0,0,1.719-1.788,6.415,6.415,0,0,0,.322-1.728,12.758,12.758,0,0,0-3.732-11.938c-1.094-1.172-2.371-2.3-2.84-3.84-.28-.939-.234-1.952-.441-2.914a11.051,11.051,0,0,0-1.117-2.732,38.741,38.741,0,0,0-2.744-4.77,3.548,3.548,0,0,0-4.439-1.309,15.487,15.487,0,0,0-6.921,5.157,19.753,19.753,0,0,1,2.886,1.432,8.141,8.141,0,0,1,2.165,2.754,7.675,7.675,0,0,1,1.314,4.2,20.193,20.193,0,0,1-.542,3.516,1.284,1.284,0,0,0-.037.656,1.3,1.3,0,0,0,.588.6" transform="translate(-1160.779 -1656.394)"/><path class="e" d="M1348.64,1777.957c-.184,2.75-1.544,5.144-3,7.4q-4.5,7.038-9.412,13.8c-1.636,2.257-3.364,4.469-5.087,6.63a9.848,9.848,0,0,0-1.82,2.3c-.68,1.669-.639,3.516-1.094,5.276-.726,2.8-2.817,7.4-6.452,6.812a1.3,1.3,0,0,1-1.181-.766,1.387,1.387,0,0,1-1.319.132.045.045,0,0,1-.046-.046,1.32,1.32,0,0,1-.818-.944,1.863,1.863,0,0,1-1.682-.273,1.934,1.934,0,0,1-.818-1.532.965.965,0,0,1-1-.269,1.82,1.82,0,0,1-.409-.994,4.016,4.016,0,0,1,.5-2.48c.455-.9,1.135-1.715,1.682-2.572.455-.721.91-1.487,1.411-2.212a9.479,9.479,0,0,1,3.181-3.11,3.759,3.759,0,0,0,.547-.361c3.364-2.3,4.5-7.4,5.634-11.008a95.051,95.051,0,0,1,3.64-11.049,11.086,11.086,0,0,1,.91-1.669c.818-1.309.928-1.642-.455-2.348-2.9-1.478-5.574-4.756-8.58-6.74-2.78-1.838-5.657-3.32-8.479-5.308-5.179-3.607-14.49-3.242-14.219-10.233a7.062,7.062,0,0,1,2.045-4.514,11.718,11.718,0,0,1,6.774-3.561,8.387,8.387,0,0,1,1.5-.137h.046c3,0,5.731,1.309,8.364,2.8.046.045.092.045.138.086,6.457,3.657,12.229,8.751,17.776,13.534,3.134,2.7,6.636,5.322,9.32,8.481,1.227,1.487,2.5,2.841,2.408,4.87" transform="translate(-1186.366 -1683.969)"/><path class="f" d="M1329.934,1758.747a57.853,57.853,0,0,0-11.176,14.852,58.319,58.319,0,0,1-6.9-2.809c-5.643-2.836-11.916-7.406-11.622-14.405.184-4.359,4.8-7.447,8.778-8.039,3.631-.538,6.857.912,9.931,2.649a78.192,78.192,0,0,1,10.993,7.752" transform="translate(-1186.381 -1683.953)"/><path class="e" d="M1327.543,1820.2a5.578,5.578,0,0,1-1.636,2.075,15.082,15.082,0,0,1-3.318,2.166c-.726.36-1.457.721-2.229,1.081-.726.315-1.5.634-2.275.9-.68.228-1.36.5-2.091.721-6.953,2.348-15.092,4.2-22.321,1.988a1.83,1.83,0,0,1-.5-.319,1.07,1.07,0,0,1-.184-.406,38.973,38.973,0,0,1-1.135-5.094c-.184-.994-.322-1.988-.455-2.977-.68-6.589-.092-12.946-.092-19.4,0-6.945-1.181-12.043-.179-18.9.179-1.126.317-2.207.451-3.292.092-.944.23-1.892.367-2.841.225-1.623.455-3.247.818-4.824,1-4.692,2.633-9.024,6.089-12.814.317-.36.639-.675.956-1.035,1.544-1.852,2.817-3.926,2.725-6.5-.087-2.75-1.682-5.276-2.725-7.8a5.071,5.071,0,0,1-.409-1.354c-.092-1.623,1.682-2.7,3-3.789a33.94,33.94,0,0,1,3.681-2.932,4.787,4.787,0,0,1,4.729-.132c.409.269.179.091.363.538a48.133,48.133,0,0,0,5,9.745c.726.994,1.411,1.984,2.137,2.978.68,1.035,1.365,2.12,2,3.2.184.319.317.634.5.949.225.5.455.948.68,1.446a25.808,25.808,0,0,1,1,2.435,40.371,40.371,0,0,1,2.771,17.5,46.832,46.832,0,0,1-1.043,7.127c-.409,1.938-.864,3.876-1.273,5.864a36.831,36.831,0,0,0-.092,12.221,75.514,75.514,0,0,0,2.321,10.962c.5,1.943,1.135,3.881,1.815,5.819.547,1.537,1.14,3.206.547,4.692" transform="translate(-1189.726 -1688.913)"/><path class="g" d="M1300.089,1748.878a60.4,60.4,0,0,0-2.555-5.928,4.24,4.24,0,0,1-.409-1.4c-.069-1.591,1.659-2.69,3-3.748a28.821,28.821,0,0,1,3.686-2.928,4.717,4.717,0,0,1,4.7-.164c.423.283.2.1.381.533.643,1.528,1.324,3.115,2.073,4.669-2.767,4.15-6.553,7.661-10.878,8.961" transform="translate(-1187.474 -1688.913)"/><path class="d" d="M1282.814,1846.429c2.289-11.486,10.037-31.3,15.313-41.988.2-.406.4-.812.611-1.213,2.44-4.724,6.158-10.392,11.967-10.971,6.2-.62,12.339,5.184,15.671,9.813,3.681,5.1,4.306,11.979,2.932,17.971-1.677,7.319-5.924,13.758-10.1,20.023-1.411,2.125-7.831,12.709-9.242,14.829a48.254,48.254,0,0,1-9.894-1.929c-.538-.141-1.076-.283-1.622-.429-4.678-1.263-8.833-1.792-13.594-4.879" transform="translate(-1192.515 -1668.456)"/><path class="h" d="M1294.928,1816.989a34.53,34.53,0,0,1-1.448-8.609,8.185,8.185,0,0,1,.423-3.762,5.9,5.9,0,0,1,3.856-3.11,12.6,12.6,0,0,1,5.092-.182,43.857,43.857,0,0,1,14.766,5.207,18.991,18.991,0,0,1,4.959,3.452,16.99,16.99,0,0,1,2.886,4.537c.133.282.267.57.4.857-.088.511-.179,1.013-.294,1.51-1.677,7.323-5.928,13.762-10.1,20.022q-2.123,3.181-4.242,6.366a25.543,25.543,0,0,1-2.817-.3,15.9,15.9,0,0,1-1.36-2.726,99.81,99.81,0,0,0-6.163-11.8c-2.229-3.753-4.6-7.277-5.956-11.468" transform="translate(-1188.77 -1665.305)"/><path class="d" d="M1314.72,1857.135c-7.312-8.181-12.077-28.436-17.169-38.34-.207-.4-.409-.812-.611-1.218-2.339-4.77-4.674-11.126-1.655-16.083,3.221-5.289,11.691-5.44,17.316-6.539,12.679-2.481,14.219,5.828,17.992,10.7,3.451,4.451,6.245,11.984,10.294,19.508,1.323,2.467,3.805,15.645,5.046,18,.915,1.747-4.333,2.7-5.809,3.489-6.737,3.584-12.647,7.469-19.917,9.79" transform="translate(-1188.626 -1667.649)"/><path class="i" d="M1327.543,1816.6a5.58,5.58,0,0,1-1.636,2.075,15.1,15.1,0,0,1-3.318,2.166c-.726.36-1.457.72-2.229,1.081-.772.315-1.59.634-2.362.9-.639.228-1.319.451-2,.72-6.953,2.348-15.092,4.2-22.321,1.988a1.831,1.831,0,0,1-.5-.319h-.046a.709.709,0,0,1-.23-.406,39.74,39.74,0,0,1-1.135-5.094c-.184-.994-.271-1.988-.363-2.978-.68-6.589-.092-12.946-.092-19.4,0-6.945-1.181-12.043-.179-18.9.179-1.126.317-2.207.451-3.292.092-.944.23-1.892.367-2.841.225-1.624.455-3.247.818-4.825.951-4.692,2.546-9.024,6-12.813.322-.315.593-.675.91-1.035h.138a31.832,31.832,0,0,0,5.864-.406,20.537,20.537,0,0,0,2.408-.542,16.087,16.087,0,0,0,5.864-3.156H1314a27.694,27.694,0,0,0,4.32-5.144c.68,1.035,1.365,2.12,2,3.2.184.319.317.634.5.948.225.5.455.948.68,1.446a25.8,25.8,0,0,1,1,2.435,40.37,40.37,0,0,1,2.771,17.5,46.829,46.829,0,0,1-1.043,7.127c-.409,1.938-.864,3.876-1.273,5.864a36.832,36.832,0,0,0-.092,12.221,75.517,75.517,0,0,0,2.321,10.962c.5,1.943,1.135,3.88,1.815,5.819.547,1.537,1.14,3.206.547,4.692" transform="translate(-1189.726 -1685.31)"/><path class="e" d="M1274.151,1783.431q3.364,2.5,6.815,4.879c4.614,3.165,9.343,6.156,14.141,9.029,2.307,1.377,4.733,2.681,7.486,2.768,2.045.059,3.405-1.213,4.867-2.5,3.1-2.74,5.689-6.252,8.323-9.421,4.733-5.686,9.78-11.573,13.313-18.094,1.673-3.1,3.061-6.329,2.426-9.913-.685-3.931-3.911-8.441-8.3-8.518-7.054-.128-11.659,6.129-14.237,11.865-2.992,6.662-4.141,14.163-7.5,19.649-.827,1.35-1.025,1.3-2.339.538a14.071,14.071,0,0,0-1.723-.908,101.338,101.338,0,0,0-11.223-3.333c-3.842-1.076-9.352-2.175-11.581-5.869a9.845,9.845,0,0,0-3.235-3.087c-.735-.461-1.5-.889-2.252-1.332-.887-.524-1.691-1.181-2.633-1.619a4.546,4.546,0,0,0-2.514-.424,1.735,1.735,0,0,0-1,.443.9.9,0,0,0-.211,1,1.974,1.974,0,0,0-1.54.811,1.915,1.915,0,0,0-.23,1.715,1.391,1.391,0,0,0-.841,2.143,1.457,1.457,0,0,0-.735,1.218c-.473,3.639,4.182,5.563,7.036,6.238,1.774.424,3.621.31,5.345.949,1.025.383,1.5,1.14,2.344,1.769" transform="translate(-1200.768 -1682.745)"/><path class="e" d="M1274.3,1772c-1.585-2.545-1.37-5.728-3.139-8.19a2.914,2.914,0,0,0-.625-.67c-1.558-1.163-3.86-.3-5.519.091a3.638,3.638,0,0,0-.951.31,1.27,1.27,0,0,0-.643.734c-.556,1.915,3.037,1.838,4.049,1.833a.376.376,0,0,1,.5.378,22.287,22.287,0,0,1-.055,2.654,8.24,8.24,0,0,0,1.089,4.14Z" transform="translate(-1199.368 -1678.906)"/><path class="f" d="M1312.118,1783.026c-4.449-4.364-13.938-8.518-19.554-11.249.776-2.353,2.826-7.971,3.9-10.2,2.721-5.668,7.973-10.1,15.028-9.968,4.4.078,8.208,5.171,8.9,9.1.63,3.589-1.682,6.484-2.431,9.918a29.245,29.245,0,0,1-5.841,12.4" transform="translate(-1189.08 -1682.764)"/><path class="j" d="M1311.4,1733.53v.283l-.17,2.312c0,.055,0,.055-.06.055l-3.24,1.354-.225.114.055-.506.06-1.186.055-1.126,2.73-1.017Z" transform="translate(-1183.743 -1689.133)"/><path class="e" d="M1321.733,1736.735a31.1,31.1,0,0,0,2.532-9.116c1.218-12.171-11-20.638-22.436-16.521a16.571,16.571,0,0,0-9.288,8.368c-2.514,5.732-4.228,11.842-8.318,16.74a2.067,2.067,0,0,0-.372.547c-.3.776.437,1.56,1.186,1.924,1.622.789,2.165,1.145,2.426,2.978a20.939,20.939,0,0,0,2.3,7.191,11.618,11.618,0,0,0,8.258,5.714c10.391,1.587,19.435-8.021,23.708-17.825" transform="translate(-1192.174 -1697.408)"/><path class="g" d="M1290.232,1719.544l.037-.078a16.571,16.571,0,0,1,9.288-8.368c11.443-4.118,23.653,4.35,22.431,16.521a30.759,30.759,0,0,1-2.528,9.116,39.451,39.451,0,0,1-3.782,6.771,8.674,8.674,0,0,1-.942-4.679,14.69,14.69,0,0,1,.905-4.054c.823-2.275.947-4.971-1.149-6.74a3.851,3.851,0,0,0-4.407-.406,4.672,4.672,0,0,0-1.921,3.133c-.1.552-.317,2.909-1.388,1.76-1.213-1.318-1.567-3.142-2.56-4.592a9.121,9.121,0,0,0-3.727-3.438c-2.133-1-4.476-1.523-6.6-2.545a15.91,15.91,0,0,1-3.658-2.4" transform="translate(-1189.901 -1697.408)"/><path class="j" d="M1325.252,1741.548c-.57,2.426-2.56,3.721-5,4.793-.175.059-.285.168-.455.228a6.355,6.355,0,0,1-1.535.565c0,.055,0,.055-.06.055a6.13,6.13,0,0,1-1.42.224,2.923,2.923,0,0,1-1.93-.451,2.022,2.022,0,0,1-.8-1.8v-.173a12.339,12.339,0,0,1,.345-2.312,16.977,16.977,0,0,1,1.59-3.835c1.195-2.084,1.76-4.738,0-6.822a3.92,3.92,0,0,0-4.32-1.131,4.79,4.79,0,0,0-2.39,2.763c-.17.565-.8,2.877-1.645,1.523-1.025-1.464-1.025-3.324-1.765-4.906-2.1-4.51-7.5-7.725-11.37-10.488a15.829,15.829,0,0,1-6.7-13.707,5.072,5.072,0,0,1,.57-2.257,3.718,3.718,0,0,1,3.295-1.523,8.267,8.267,0,0,1,3.58,1.072c2.73,1.354,5.23,3.215,8.015,4.455a39.654,39.654,0,0,0,5.685,1.92c5.46,1.578,11.255,4.683,13.53,10.265a35.678,35.678,0,0,1,3.07,12.125,27.634,27.634,0,0,1-.285,9.421" transform="translate(-1190.771 -1700.142)"/><path class="j" d="M1292.169,1703.89c4.991-8.714,56.971.3,39.793,28.678-11.677,19.289-14.219,14.291-14.219,14.291l-2.344-25.335Z" transform="translate(-1189.219 -1700.701)"/><path class="k" d="M1295.771,1706.813a17.991,17.991,0,0,1,6.066-2.513,28.95,28.95,0,0,1,6.553-.561,63.829,63.829,0,0,1,6.59.424c1.089.137,2.178.3,3.263.493a27.969,27.969,0,0,1,3.194.711,6.533,6.533,0,0,1,2.748,1.5,3.1,3.1,0,0,1,.786,1.281,6.06,6.06,0,0,1,.193,1.555,7.43,7.43,0,0,0,.193,1.692,5.442,5.442,0,0,0,.694,1.573,13.557,13.557,0,0,0,2.2,2.531,19.083,19.083,0,0,1,2.2,2.408,9.464,9.464,0,0,1,1.443,2.887,6.3,6.3,0,0,1-1.227,6.1,5.6,5.6,0,0,0,1.576-2.868,7.016,7.016,0,0,0-.055-3.311,9.77,9.77,0,0,0-1.425-3.023,18.526,18.526,0,0,0-2.183-2.517,14.771,14.771,0,0,1-2.082-2.481,5.205,5.205,0,0,1-.62-1.432,6.484,6.484,0,0,1-.161-1.573,6.278,6.278,0,0,0-.207-1.7,3.656,3.656,0,0,0-.9-1.519,7.2,7.2,0,0,0-2.992-1.673,28.75,28.75,0,0,0-3.272-.707c-1.1-.187-2.2-.347-3.3-.47a52.2,52.2,0,0,0-6.65-.337,28.921,28.921,0,0,0-6.622.734,17.182,17.182,0,0,0-6,2.8" transform="translate(-1187.949 -1699.794)"/><path class="j" d="M1312.952,1735.5a6.111,6.111,0,0,1-1.535.565c0,.055,0,.055-.055.055l-3.24,1.354a.189.189,0,0,1-.06-.114.944.944,0,0,1-.111-.283,5.1,5.1,0,0,1-.74-2.987v-.169l3.58-.169h.8l.91-.059Z" transform="translate(-1183.926 -1689.075)"/></g><path class="j" d="M1308.332,1736.86l.064.83,2.858-.616-.046-.976Z" transform="translate(-1183.523 -1643.441)"/><g transform="translate(158.698)"><path class="l" d="M1375.838,1824.943c-.919.406-1.255,1.25-.28,2.02,1.245.985,3.377,1.158,4.913,1.154a9.9,9.9,0,0,1,4.986,1.286,2.553,2.553,0,0,0-1.043-1.455,14.056,14.056,0,0,0-6.126-3.1,4.642,4.642,0,0,0-2-.054,2.8,2.8,0,0,0-.446.15" transform="translate(-1318.741 -1612.219)"/><path class="m" d="M1385.1,1798.263c8.975,22.135,25.266,39.489,38.952,58.7,2.215,3.115,4.205,7.77,8.359,8.609a7.792,7.792,0,0,0,4.122-.456c8.107-2.942,6.075-10.7,4.347-17.25-2.307-8.737-5.414-17.237-7.84-25.947-2.362-8.463-4.389-17.373-7.583-25.709-3.033-7.916-7.155-17.674-14.825-22.216-2.978-1.765-6.544-2.248-10.009-2.366-6.034-.214-12.8.948-16.37,5.777-4.127,5.591-2.026,13.415.248,19.348.193.5.4,1,.6,1.509" transform="translate(-1316.299 -1630.93)"/><path class="m" d="M1448.022,1823.824c-4.678.415-9.871.985-14.21,2.786-5.193,2.157-10.363,4.368-15.538,6.553-2.757,1.158-4.334,1.733-3.9,4.952a11.954,11.954,0,0,0,3.175,6.261c2.413,2.64,4.462,3.279,7.72,2.316,3.511-1.035,7.229-1.623,10.814-2.376,7.229-1.514,14.485-2.923,21.719-4.414,5.772-1.19,11.5-2.531,17.22-3.94,1.82-.451,16.264-2.937,16.563-4.236.556-2.412-1.186-4.879-3.41-5.992-3.948-1.969-8.52-1.842-12.822-1.874-4.683-.036-9.357-.265-14.053-.374a118.326,118.326,0,0,0-13.277.337" transform="translate(-1304.882 -1612.665)"/><path class="m" d="M1384.175,1784.794c-10.574,21.431-12.666,45.057-17.891,68-.845,3.721-3,8.3-.85,11.924a7.633,7.633,0,0,0,3.1,2.736c7.628,4.008,12.082-2.686,15.827-8.336,5-7.556,9.292-15.531,14.177-23.151,4.766-7.405,10.083-14.857,14.187-22.8,3.9-7.533,8.442-17.1,6.714-25.8-.667-3.374-2.693-6.329-4.927-8.969-3.879-4.588-9.279-8.8-15.28-8.2-6.948.693-11.406,7.478-14.32,13.124-.248.483-.5.971-.735,1.459" transform="translate(-1322.428 -1631.441)"/><path class="m" d="M1380.213,1871.186c1.153-4.519,2.325-9.572,2.054-14.227-.335-5.577-.726-11.149-1.084-16.717a15.328,15.328,0,0,0-.745-4.487c-1.723-4.556-7.119-4.975-10.6-2.18-2.909,2.335-3.47,5.253-3.847,8.728-1.186,10.935-2.84,21.815-4.306,32.718-.781,5.8-1.406,11.61-1.949,17.428-.179,1.861-2.6,16.2-1.461,16.913,2.109,1.313,5.032.5,6.825-1.222,3.18-3.037,4.572-7.36,6.029-11.377,1.581-4.373,3.35-8.673,5.009-13.032a116.9,116.9,0,0,0,4.072-12.545" transform="translate(-1324.729 -1609.711)"/><path class="n" d="M1339.485,1896.173c.207,1.5-.165,2.914,1.057,4.1a8.849,8.849,0,0,0,3.369,1.692,17.2,17.2,0,0,0,4.651,1.008c3.649.192,7.16-1.323,10.8-1.706a17.6,17.6,0,0,1,5.634.333c1.3.292,2.569.734,3.883.953a15.314,15.314,0,0,0,4.83-.036c1.163-.178,3.088-.246,3.658-1.5a.745.745,0,0,1,.133-.233.414.414,0,0,1,.487-.045,1.063,1.063,0,0,1,.349.378,3.927,3.927,0,0,1,.565,2.613c-.262,1.874-1.811,2.85-3.52,3.333a12.044,12.044,0,0,1-2.165.374,28.586,28.586,0,0,1-7.114-.314c-2.307-.387-4.623-.99-6.99-.748-2.334.237-4.641.684-6.976.9a13.878,13.878,0,0,1-6.733-.807,16.682,16.682,0,0,1-4.83-2.431,13.9,13.9,0,0,1-2.514-2.4,4.912,4.912,0,0,1-.694-4.646,2.159,2.159,0,0,1,1.737-1.158.383.383,0,0,1,.248.041.42.42,0,0,1,.138.3" transform="translate(-1332.108 -1587.156)"/><path class="c" d="M1366.738,1901.746c-2.817.679-5.905.4-8.782.424a9.69,9.69,0,0,1-4.435-.68c-1.337-.689-2.339-2.284-1.82-3.694.464-1.272,1.889-1.87,3.051-2.585a10.014,10.014,0,0,0,4.21-5.367,55.117,55.117,0,0,0,1.659-6.772,54.676,54.676,0,0,0,11.521.593c-.414,1.879-1.011,4.31-1.13,4.934a12.554,12.554,0,0,0,.106,5.814,10.477,10.477,0,0,1,.556,2.38,4.943,4.943,0,0,1-3.143,4.355,11.017,11.017,0,0,1-1.792.6" transform="translate(-1326.99 -1591.652)"/><path class="o" d="M1358.8,1891.2c-.225.132-.441.279-.625.374a13.452,13.452,0,0,0-1.953,1.126c-2.4,1.719-4.894,3.475-7.785,4.109-2.573.556-5.244.187-7.872.265a3.067,3.067,0,0,0-2.321.789,2.241,2.241,0,0,0-.469,1.382,3.864,3.864,0,0,0,1.025,2.763,7.662,7.662,0,0,0,1.7,1.259c2.234,1.355,4.292,2.649,6.935,3.051a18.49,18.49,0,0,0,7.959-.739c1.852-.547,3.741-1.313,5.653-1,1.167.192,2.233.775,3.391,1.063a13.484,13.484,0,0,0,3.534.251,47.189,47.189,0,0,0,6.618-.415,4.215,4.215,0,0,0,3.759-4.049,18.277,18.277,0,0,0-1.949-10.087,22.271,22.271,0,0,1-3.07,2.321,9.9,9.9,0,0,1-4.122.862,9.415,9.415,0,0,1-5.239-.816,25.742,25.742,0,0,1-3.52-2.426,1.447,1.447,0,0,0-.689-.387,1.622,1.622,0,0,0-.96.31" transform="translate(-1331.849 -1588.899)"/><path class="o" d="M1357.33,1889.8c.037-.98-.57-1.632-1.664-1.117-1.411.666-2.481,2.444-3.143,3.794a9.652,9.652,0,0,1-3.281,3.789,2.53,2.53,0,0,0,1.737-.287,13.744,13.744,0,0,0,5.381-4,4.5,4.5,0,0,0,.91-1.723,2.278,2.278,0,0,0,.06-.452" transform="translate(-1327.807 -1589.739)"/><path class="n" d="M1485.623,1818.752a12.093,12.093,0,0,1,1.089,1.888,28.145,28.145,0,0,1,2.1,6.749c.418,2.294.634,4.656,1.659,6.781,1.016,2.1,2.224,4.1,3.226,6.207a13.692,13.692,0,0,1,1.512,6.561,16.352,16.352,0,0,1-.671,5.331,13.6,13.6,0,0,1-1.429,3.156,4.065,4.065,0,0,1-5.124,1.683c-.34-.164-.694-.474-.616-.839.073-.346.473-.5.813-.593a4.455,4.455,0,0,0,2.748-1.628c.63-1.1.519-2.969.506-4.187a17.081,17.081,0,0,0-.62-4.687c-1.052-3.475-3.681-6.243-5.271-9.508a17,17,0,0,1-1.595-5.372c-.165-1.314-.174-2.645-.409-3.949a14.89,14.89,0,0,0-1.668-4.492c-.565-1.031-1.282-2.809-2.656-2.909a1,1,0,0,1-.266-.041.417.417,0,0,1-.207-.443.988.988,0,0,1,.234-.456,4.022,4.022,0,0,1,2.284-1.418c1.875-.388,3.318.725,4.357,2.166" transform="translate(-1282.175 -1615.107)"/><path class="c" d="M1482.773,1823.888c1.6,2.4,2.376,5.376,3.373,8.062a9.349,9.349,0,0,1,.859,4.364,3.239,3.239,0,0,1-2.881,2.955c-1.374-.009-2.417-1.136-3.493-1.984a10.128,10.128,0,0,0-6.512-2.107,56.248,56.248,0,0,0-6.981.748,53.78,53.78,0,0,0-3.341-10.962c1.921-.251,4.43-.511,5.059-.616a12.693,12.693,0,0,0,5.478-2.07,10.553,10.553,0,0,1,2.068-1.322,5,5,0,0,1,5.2,1.464,10.33,10.33,0,0,1,1.172,1.468" transform="translate(-1287.441 -1613.632)"/><path class="o" d="M1477.092,1839.544c.207.169.413.314.565.456a13.19,13.19,0,0,0,1.737,1.441c2.44,1.664,4.949,3.393,6.521,5.883,1.411,2.207,1.953,4.829,2.923,7.259a3.03,3.03,0,0,0,1.531,1.9,2.275,2.275,0,0,0,1.466-.032,3.894,3.894,0,0,0,2.284-1.892,7.642,7.642,0,0,0,.611-2.015c.529-2.54,1.057-4.9.542-7.5a18.111,18.111,0,0,0-3.391-7.187c-1.149-1.541-2.514-3.05-2.863-4.933-.221-1.158-.023-2.358-.142-3.534a13.24,13.24,0,0,0-.965-3.388,46.631,46.631,0,0,0-2.629-6.028,4.238,4.238,0,0,0-5.106-2.143,18.664,18.664,0,0,0-8.915,5.23,23.588,23.588,0,0,1,3.245,2.079,9.773,9.773,0,0,1,2.21,3.561,9.194,9.194,0,0,1,1,5.171,25.151,25.151,0,0,1-1.112,4.108,1.52,1.52,0,0,0-.133.775,1.611,1.611,0,0,0,.621.789" transform="translate(-1284.812 -1614.704)"/><path class="o" d="M1473.606,1832.658c-.942.3-1.36,1.081-.5,1.929,1.112,1.094,3.166,1.5,4.66,1.651a9.729,9.729,0,0,1,4.706,1.783,2.483,2.483,0,0,0-.855-1.528,13.773,13.773,0,0,0-5.621-3.666,4.473,4.473,0,0,0-1.939-.269,2.986,2.986,0,0,0-.45.1" transform="translate(-1284.326 -1609.46)"/><path class="m" d="M1351.357,1759.322q4.109,2.873,8.341,5.581c5.634,3.608,11.4,7.014,17.247,10.265,2.817,1.564,5.759,3.028,9.063,3.028,2.445,0,4.021-1.569,5.722-3.169,4.692-4.41,8.056-11.145,11.475-16.548q6.176-9.774,12.091-19.722a20.718,20.718,0,0,0,2.555-5.472,10.721,10.721,0,0,0-4.3-11.131c-6.994-4.669-13.971,2.95-16.751,8.655-2.592,5.312-4,11-5.965,16.544-.505,1.409-6.779,16.115-6.746,16.138-6.112-3.689-13.056-5.641-19.715-8.1a64.666,64.666,0,0,1-9.687-4.313,5.137,5.137,0,0,1-2.721-2.722,10.2,10.2,0,0,0-4.412-4.364c-.9-.534-1.829-1.017-2.744-1.519a33.257,33.257,0,0,0-3.217-1.824,5.344,5.344,0,0,0-3.019-.424,2.122,2.122,0,0,0-1.172.561,1.071,1.071,0,0,0-.207,1.218,2.258,2.258,0,0,0-2.027,3.083,1.705,1.705,0,0,0-1.149,1.058,1.674,1.674,0,0,0,.23,1.537,1.739,1.739,0,0,0-.832,1.486c-.437,4.364,5.207,6.489,8.649,7.191,2.132.438,4.338.237,6.425.939,1.241.415,1.829,1.3,2.868,2.024" transform="translate(-1333.392 -1648.865)"/><path class="m" d="M1351.319,1745.391c-1.995-2.991-1.861-6.8-4.062-9.676a3.6,3.6,0,0,0-.777-.78c-1.907-1.336-4.628-.209-6.595.315a4.663,4.663,0,0,0-1.126.41,1.525,1.525,0,0,0-.745.894c-.588,2.321,3.709,2.093,4.918,2.043a.6.6,0,0,1,.487.123.522.522,0,0,1,.115.31,25.357,25.357,0,0,1,.037,3.187,9.761,9.761,0,0,0,1.466,4.907Z" transform="translate(-1331.782 -1644.073)"/><path class="p" d="M1386.726,1703.812c-3.281-3.219-6.425-6.758-8.061-11.044-3.833-10.032,4.8-19.421,14-22.13a39.531,39.531,0,0,1,18.226-.625c6.3,1.263,11.76,4.888,13.952,11.04,1.213,3.393,1.728,7.41,4.453,10.032,2.872,2.763,7.252,3.019,11.186,3.721,3.442.611,7.256,1.865,9.471,4.71,1.806,2.339,1.751,5.135,2.9,7.693,1.029,2.289,3.125,3.534,5.473,4.241,5.018,1.491,11.112,2.175,14.219,6.94,3.226,4.952.57,9.207-.156,14.364-.593,4.209,1.379,5.814,3.438,9.07,2.454,3.885-.156,8.837-3.723,10.981-6.029,3.612-13.635,2.522-20.317,2.239-5.891-.237-12.5-1.122-17.178-5.153-3.235-2.791-4.664-6.836-7.325-10.064-3.847-4.669-9.329-5.007-14.6-7.246a23.356,23.356,0,0,1-12.394-12.741c-1.195-3-3.323-4.834-5.492-7.323-2.6-2.982-5.248-5.933-8.074-8.705" transform="translate(-1317.768 -1666.999)"/><path class="p" d="M1471.464,1739.595a5.006,5.006,0,0,1-.377-1.956,8.412,8.412,0,0,1,.915-3.57c.818-1.678,1.94-3.151,2.647-4.779a11.166,11.166,0,0,0-.257-9.385,11.31,11.31,0,0,0-7.422-5.814c-2.854-.67-5.919-.2-8.957-.606a6.587,6.587,0,0,1-3.258-1.2,4.864,4.864,0,0,1-1.677-2.572,10.923,10.923,0,0,1-.312-2.969c0-.533.009-1.058.009-1.569,0-.305,0-.606-.018-.894a7.918,7.918,0,0,0-1.622-4.3,12.016,12.016,0,0,0-3.534-3.16,13.14,13.14,0,0,0-6.811-1.564c-1.167,0-2.339.087-3.488.182-.947.087-1.9.16-2.863.16a11.723,11.723,0,0,1-3.346-.429,6.028,6.028,0,0,1-2.849-1.751,8.99,8.99,0,0,1-1.907-4.232c-.336-1.573-.492-3.219-.758-4.687-.74-4.058-2.514-8.5-5.689-11.213-3.07-2.627-7.233-3.516-11.176-4.387a30.537,30.537,0,0,0-6.563-.725,26.068,26.068,0,0,0-11.572,2.59,20.806,20.806,0,0,0-11.227,13.835l-.588-.123a21.45,21.45,0,0,1,11.553-14.241,26.69,26.69,0,0,1,11.834-2.649,31.143,31.143,0,0,1,6.691.743c3.938.875,8.2,1.756,11.434,4.51,3.332,2.859,5.129,7.415,5.887,11.555a46.2,46.2,0,0,0,1.149,6.142,6.978,6.978,0,0,0,1.374,2.49,5.453,5.453,0,0,0,2.583,1.582,11.139,11.139,0,0,0,3.171.4c.928,0,1.875-.073,2.813-.155,1.153-.1,2.348-.182,3.538-.182a13.755,13.755,0,0,1,7.119,1.646,12.672,12.672,0,0,1,3.7,3.315,8.566,8.566,0,0,1,1.737,4.619c.014.3.018.611.018.921,0,.52-.014,1.044-.014,1.569a10.745,10.745,0,0,0,.289,2.809,4.313,4.313,0,0,0,1.484,2.275,6.037,6.037,0,0,0,2.969,1.076c2.918.4,6.006-.082,9.008.616a11.935,11.935,0,0,1,7.817,6.124,11.636,11.636,0,0,1,1.232,5.244,11.5,11.5,0,0,1-.956,4.633c-.754,1.719-1.884,3.192-2.665,4.811a7.927,7.927,0,0,0-.859,3.31,4.357,4.357,0,0,0,.34,1.728Z" transform="translate(-1317.405 -1667.583)"/><path class="q" d="M1392.652,1707.533a13.332,13.332,0,0,0-.606-2.043,42.026,42.026,0,0,0,10.156,4.856c5.28,1.45,10.813.817,16.213,1.172,2.546.169,5.676.4,7.964,1.646,2.054,1.117,3.387,3.046,5.726,3.812,3.539,1.154,7.638.638,10.758,2.645a7.62,7.62,0,0,1,3.442,6.056,5.493,5.493,0,0,1-.781,3.156c-1.25,1.947-3.823,2.595-6.149,2.636a18.849,18.849,0,0,1-12.927-4.879c-1.705-1.568-2.188-3.046-4.55-3.844-2.532-.857-5.28-.848-7.918-1.117a37.3,37.3,0,0,1-9.145-2.107c-5.809-2.139-10.547-5.9-12.183-11.988" transform="translate(-1312.724 -1654.226)"/><path class="m" d="M1377.57,1807.379a50.183,50.183,0,0,0,1.337,6.065,1.215,1.215,0,0,0,.258.529,1.508,1.508,0,0,0,.7.36c9.439,2.9,20.285-.069,29.063-3.265,3.415-1.245,6.829-2.663,9.463-4.938a6.663,6.663,0,0,0,1.953-2.481c.708-1.8,0-3.775-.643-5.609a103.85,103.85,0,0,1-4.959-20.1,43.92,43.92,0,0,1,.147-14.633c1.066-5.171,2.408-10.228,2.757-15.518a49.226,49.226,0,0,0-4.513-23.84,63.279,63.279,0,0,0-6.475-10.283,59.72,59.72,0,0,1-5.988-11.665c-.211-.515.046-.305-.45-.638-1.6-1.072-3.943-.729-5.625.191a35.246,35.246,0,0,0-4.416,3.507c-1.6,1.268-3.672,2.581-3.585,4.487a4.873,4.873,0,0,0,.487,1.669c1.636,3.826,4.959,9.024,3.052,13.137-2.238,4.829-5.919,8.687-9.127,12.868-3.538,4.61-7.918,10.287-9.269,16.019a13.739,13.739,0,0,0,1.066,8.222c.924,2.262,2.344,4.633,3.042,7.082.827,2.9.193,5.477-.1,8.4-.639,6.434.156,12.923.666,19.352.276,3.616.561,7.388,1.163,11.081" transform="translate(-1319.972 -1655.915)"/><path class="r" d="M1386.177,1718.313a71.434,71.434,0,0,0-3.056-7.091,5.12,5.12,0,0,1-.492-1.669c-.078-1.906,1.99-3.219,3.594-4.487a34.483,34.483,0,0,1,4.407-3.507c1.687-.93,4.031-1.268,5.63-.191.5.333.234.119.455.638.767,1.828,1.576,3.73,2.477,5.586-3.309,4.97-7.84,9.161-13.015,10.721" transform="translate(-1316.043 -1655.915)"/><path class="s" d="M1382.625,1679.178a14,14,0,0,1,5.184-3.055,22.712,22.712,0,0,1,5.947-1.108,21.528,21.528,0,0,1,11.668,2.389,18.736,18.736,0,0,1,8.258,8.386c.845,1.788,1.1,3.808,1.806,5.741a7.7,7.7,0,0,0,1.59,2.686,7.267,7.267,0,0,0,2.615,1.737,14.792,14.792,0,0,0,6.126.7,47.233,47.233,0,0,1,6.057-.123,20.182,20.182,0,0,1,5.827,1.372,15.914,15.914,0,0,1,2.675,1.336,6.869,6.869,0,0,1,2.123,2c1.089,1.642,1.264,3.726,2.031,5.627a7.478,7.478,0,0,0,4.288,4.241c1.953.725,4.031.684,6.025.962a10.909,10.909,0,0,1,2.918.78,5.4,5.4,0,0,1,2.335,1.87,5.405,5.405,0,0,0-2.307-1.933,10.938,10.938,0,0,0-2.923-.857c-2-.328-4.081-.347-5.947-1.094a7.136,7.136,0,0,1-4.039-4.1c-.726-1.842-.859-3.949-1.995-5.741a7.476,7.476,0,0,0-2.238-2.166,16.543,16.543,0,0,0-2.753-1.391,20.556,20.556,0,0,0-5.974-1.432,48.041,48.041,0,0,0-6.126.091,14.377,14.377,0,0,1-5.882-.689,6.7,6.7,0,0,1-2.413-1.582,7.186,7.186,0,0,1-1.484-2.485c-.689-1.847-.951-3.9-1.847-5.777a18.9,18.9,0,0,0-8.534-8.555,21.836,21.836,0,0,0-11.9-2.275,22.4,22.4,0,0,0-5.97,1.263,13.91,13.91,0,0,0-5.138,3.183" transform="translate(-1316.044 -1665.097)"/><path class="m" d="M1407.813,1705.306a29.735,29.735,0,0,0,2.422-8.724c1.163-11.641-10.519-19.749-21.466-15.8a15.867,15.867,0,0,0-8.892,8c-2.4,5.486-4.044,11.332-7.955,16.019a1.957,1.957,0,0,0-.354.524c-.285.739.418,1.491,1.13,1.842,1.553.753,2.077,1.095,2.325,2.85a19.763,19.763,0,0,0,2.206,6.872,11.1,11.1,0,0,0,7.9,5.468c9.945,1.519,18.6-7.665,22.688-17.05" transform="translate(-1319.963 -1663.29)"/><path class="b" d="M1433.041,1821.926c1.875,6.713,4.141,13.3,6.144,19.973a110.679,110.679,0,0,1-19.329,9.33c-12.688-17-26.682-33.051-34.756-52.96-.2-.511-.4-1.017-.6-1.523-2.275-5.928-4.375-13.753-.244-19.339,3.566-4.829,10.336-5.992,16.365-5.782,3.47.119,7.036.6,10.014,2.371,7.665,4.546,11.788,14.3,14.825,22.216,3.2,8.34,5.216,17.241,7.578,25.714" transform="translate(-1316.299 -1630.931)"/><path class="r" d="M1377.671,1688.857l.037-.078a15.843,15.843,0,0,1,8.888-8c10.942-3.94,22.624,4.159,21.466,15.809a29.918,29.918,0,0,1-2.422,8.723,38.033,38.033,0,0,1-3.626,6.47,8.421,8.421,0,0,1-.9-4.469,14.175,14.175,0,0,1,.868-3.885c.786-2.175.906-4.751-1.1-6.443a3.684,3.684,0,0,0-4.214-.4,4.489,4.489,0,0,0-1.838,3c-.1.533-.308,2.791-1.328,1.682-1.163-1.259-1.5-3-2.454-4.387a8.729,8.729,0,0,0-3.562-3.292c-2.04-.958-4.283-1.459-6.314-2.44a14.74,14.74,0,0,1-3.5-2.294" transform="translate(-1317.789 -1663.289)"/><path class="p" d="M1399.759,1708.915a8.333,8.333,0,0,0,.386,5.2,8.743,8.743,0,0,0,9.228,5.176c2.073-.356,3.911-1.5,5.809-2.4a27.5,27.5,0,0,1,20.749-1.085c-.234-3.826-3.562-6.895-7.21-8.153s-7.615-1.094-11.484-1.072a7.147,7.147,0,0,1-2.583-.319,5.465,5.465,0,0,1-2.472-2.171c-1.475-2.211-1.934-5.016-2.22-7.606a28.016,28.016,0,0,0-2.5-9.3c-2.054-4.191-5.818-7.766-10.432-8.628a19.384,19.384,0,0,0-4.269-.219,27.913,27.913,0,0,0-9.527,1.7,11.158,11.158,0,0,0-4.113,2.663,2.46,2.46,0,0,0-.8,1.733,2.663,2.663,0,0,0,.446,1.158,13.544,13.544,0,0,0,3.98,4.15c1.848,1.3,3.976,2.152,5.832,3.434a8.741,8.741,0,0,1,2.978,3.821c.7,1.523.754,3.3,1.686,4.729.828,1.249,1.406-.935,1.59-1.446a4.489,4.489,0,0,1,2.307-2.654,3.667,3.667,0,0,1,4.094,1.063c1.7,2.006,1.158,4.523.023,6.543a13.916,13.916,0,0,0-1.5,3.684" transform="translate(-1317.561 -1663.803)"/><path class="h" d="M1415.933,1847.72q.214.78.414,1.56c-9.384-12.49-19.375-24.514-27.1-38.012-.028-12.85,4.311-25.773,13.212-35.021.707-.734,2.16-2.531,3.235-2.6,1.3-.087,2.385,1.879,2.959,2.8a33.526,33.526,0,0,1,4.444,8.91,24.648,24.648,0,0,1,.689,4.017,48.477,48.477,0,0,1-.694,14.482c-.914,4.537-2.472,8.879-3.019,13.521-.616,5.157.809,10.365,1.971,15.353,1.167,5.03,2.523,10.014,3.893,14.989" transform="translate(-1313.712 -1630.213)"/><path class="b" d="M1387.091,1853.676c-2.33-.452-4.637-1.031-6.673-1.418a139.6,139.6,0,0,1-13.961-3.429c4.632-21.71,7.058-43.881,17.036-64.095.239-.493.482-.976.735-1.455.074-.151.147-.3.225-.442,1.985-3.766,4.311-7.665,7.849-10.2,6.567-4.692,14.664-1.258,21.19,1.578,3.833,1.66,7.16,4.223,8.5,8.285,2.174,6.6.188,13.575-2.836,19.567-3.212,6.356-7.537,12.252-11.346,18.267q-4.95,7.8-9.959,15.577c-3.75,5.823-7.141,11.865-10.763,17.761" transform="translate(-1321.741 -1631.381)"/><path class="t" d="M1372.8,1757.092a13.736,13.736,0,0,1-1.066-8.221c1.347-5.732,5.731-11.409,9.269-16.019,1.489-1.938,3.079-3.817,4.582-5.745,4.646.465,11.489-2.5,14.977-4.651a22.956,22.956,0,0,0,8.8-9.334,44.864,44.864,0,0,1,3.764,6.452,49.208,49.208,0,0,1,4.517,23.844c-.354,5.289-1.7,10.347-2.757,15.513a43.953,43.953,0,0,0-.152,14.638,104.556,104.556,0,0,0,4.959,20.1c.652,1.829,1.351,3.807.648,5.609a6.712,6.712,0,0,1-1.953,2.481c-2.633,2.271-6.048,3.694-9.462,4.939-8.778,3.2-19.623,6.169-29.067,3.26a1.437,1.437,0,0,1-.7-.356,1.162,1.162,0,0,1-.253-.524,49.562,49.562,0,0,1-1.338-6.069c-.6-3.694-.882-7.469-1.172-11.081-.5-6.43-1.3-12.918-.657-19.353.29-2.923.928-5.5.1-8.4-.7-2.449-2.119-4.82-3.038-7.082" transform="translate(-1319.971 -1651.538)"/><path class="m" d="M1406.853,1792.848q4.336-2.531,8.566-5.239c5.634-3.6,11.135-7.41,16.535-11.355,2.6-1.9,5.156-3.962,6.517-6.945,1-2.207.216-4.282-.551-6.48-2.114-6.056-6.907-11.883-10.459-17.2q-6.432-9.617-13.12-19.061a20.955,20.955,0,0,0-3.971-4.569,10.932,10.932,0,0,0-11.994-.707c-7.169,4.4-3.051,13.844,1.039,18.719,3.805,4.528,8.456,8.153,12.725,12.212,1.094,1.04,12.008,12.777,12.04,12.755-5.91,4.008-10.565,9.471-15.561,14.483a64.12,64.12,0,0,1-7.964,6.972,5.178,5.178,0,0,1-3.621,1.341,10.318,10.318,0,0,0-5.827,2.189c-.859.588-1.682,1.231-2.523,1.851a34.549,34.549,0,0,0-3.005,2.152,5.361,5.361,0,0,0-1.631,2.554,2.062,2.062,0,0,0,.037,1.3,1.1,1.1,0,0,0,1.03.689,2.272,2.272,0,0,0,.193,2.061,2.321,2.321,0,0,0,1.8,1.044,1.674,1.674,0,0,0,2,1.9,1.754,1.754,0,0,0,1.025,1.368c3.833,2.189,8.107-2.038,10.175-4.856,1.282-1.747,2-3.826,3.5-5.417.9-.949,1.958-1.122,3.047-1.76" transform="translate(-1315.574 -1649.172)"/><path class="m" d="M1398.842,1770.127c-3.571.574-7.008-1.122-10.561-.315a3.741,3.741,0,0,0-1.034.374c-2.013,1.177-2.1,4.095-2.431,6.092a4.291,4.291,0,0,0-.083,1.186,1.476,1.476,0,0,0,.51,1.049c1.889,1.482,3.447-2.49,3.9-3.6.064-.16.147-.342.308-.392a.619.619,0,0,1,.34.023,26.526,26.526,0,0,1,2.941,1.281,9.963,9.963,0,0,0,5.1.7Z" transform="translate(-1315.307 -1631.64)"/><path class="o" d="M1414.008,1740.431a42.891,42.891,0,0,0-9.334,7.364l-.069.069a77.768,77.768,0,0,1-7.927-7.853c-4.085-4.865-8.208-14.314-1.034-18.71a10.925,10.925,0,0,1,11.99.7,20.737,20.737,0,0,1,3.971,4.573q4.012,5.664,7.927,11.4c-1.769.875-3.86,1.482-5.524,2.458" transform="translate(-1312.835 -1649.172)"/></g></svg>