<svg xmlns="http://www.w3.org/2000/svg" width="34.223" height="34.223" viewBox="0 0 34.223 34.223"><defs><style>.a{fill:#fff;}</style></defs><path class="a" d="M17.112,0A17.112,17.112,0,1,0,34.223,17.112,17.112,17.112,0,0,0,17.112,0Zm0,31.779A14.667,14.667,0,1,1,31.779,17.112,14.667,14.667,0,0,1,17.112,31.779Z"/><path class="a" d="M179.758,159.154a1.122,1.122,0,0,0-.412-.549L172,153.717c-.454-.3-1.006-.057-1.233.547a1.562,1.562,0,0,0-.1.547v9.778c0,.675.411,1.223.918,1.223a.74.74,0,0,0,.411-.129l7.35-4.889A1.432,1.432,0,0,0,179.758,159.154Z" transform="translate(-156.926 -142.588)"/></svg>