<svg xmlns="http://www.w3.org/2000/svg" width="216.567" height="60.802" viewBox="0 0 216.567 60.802"><defs><style>.a{fill:#49266c;}</style></defs><path class="a" d="M467.056,244.007h2.787v-8.944h9.449v-2.628h-9.449v-6.485h10.146v-2.631H467.056Z" transform="translate(-460.719 -183.729)"/><path class="a" d="M509.961,236.609a7.846,7.846,0,0,1-1.568,2.615,7.6,7.6,0,0,1-2.445,1.767,7.682,7.682,0,0,1-8.832-1.767,7.746,7.746,0,0,1-1.568-2.615,9.493,9.493,0,0,1,0-6.4,7.71,7.71,0,0,1,1.568-2.614,7.687,7.687,0,0,1,11.278,0,7.81,7.81,0,0,1,1.568,2.614,9.537,9.537,0,0,1,0,6.4m.508-10.942a10.08,10.08,0,0,0-3.384-2.293,11.669,11.669,0,0,0-8.663,0,10.085,10.085,0,0,0-3.387,2.293,10.619,10.619,0,0,0-2.2,3.447,11.9,11.9,0,0,0,0,8.592,10.564,10.564,0,0,0,2.2,3.445,9.949,9.949,0,0,0,3.387,2.293,11.634,11.634,0,0,0,8.663,0,9.944,9.944,0,0,0,3.384-2.293,10.717,10.717,0,0,0,2.211-3.445,11.994,11.994,0,0,0,0-8.592,10.773,10.773,0,0,0-2.211-3.447" transform="translate(-468.808 -183.478)"/><path class="a" d="M544.455,236a8.235,8.235,0,0,1-.261,2,5.857,5.857,0,0,1-.87,1.913,4.817,4.817,0,0,1-1.6,1.433,5.636,5.636,0,0,1-4.881,0,4.773,4.773,0,0,1-1.6-1.433A5.862,5.862,0,0,1,534.37,238a8.232,8.232,0,0,1-.261-2V223.32h-2.787v13.117a8.606,8.606,0,0,0,.606,3.288,7.846,7.846,0,0,0,1.687,2.554,7.333,7.333,0,0,0,2.527,1.666,8.7,8.7,0,0,0,6.279,0,7.35,7.35,0,0,0,2.529-1.666,7.8,7.8,0,0,0,1.687-2.554,8.482,8.482,0,0,0,.61-3.288V223.32h-2.791Z" transform="translate(-481.536 -183.73)"/><path class="a" d="M579.386,240.324h-.061l-11.332-17h-3.661v20.689h2.787V227h.061l11.447,17h3.549V223.32h-2.79Z" transform="translate(-492.228 -183.73)"/><path class="a" d="M614.38,237.039a6.938,6.938,0,0,1-1.89,2.408,8.112,8.112,0,0,1-2.777,1.45,11.437,11.437,0,0,1-3.356.481h-3.516V225.951h4.186a8.608,8.608,0,0,1,4.067.833,7.182,7.182,0,0,1,2.458,2.029,6.992,6.992,0,0,1,1.205,2.53,10.046,10.046,0,0,1,.318,2.32,7.653,7.653,0,0,1-.7,3.376m2.791-7.759a10.066,10.066,0,0,0-1.266-2.218,8.344,8.344,0,0,0-2.005-1.917,10.025,10.025,0,0,0-2.845-1.324,12.98,12.98,0,0,0-3.82-.5h-7.179v20.682h6.712a12.627,12.627,0,0,0,4.867-.873,10.63,10.63,0,0,0,3.533-2.327,9.8,9.8,0,0,0,2.15-3.3,10.514,10.514,0,0,0,.725-3.844,11.783,11.783,0,0,0-.2-2.1,11.234,11.234,0,0,0-.667-2.279" transform="translate(-503.8 -183.731)"/><path class="a" d="M637.194,236.437l3.891-9.5h.061l3.837,9.5Zm2.787-13.116-9.066,20.685h3.254l2.036-5.114H646l2.063,5.114h3.255l-8.805-20.685Z" transform="translate(-513.796 -183.73)"/><path class="a" d="M659.848,225.951h6.624V244h2.791V225.951h6.628v-2.628H659.848Z" transform="translate(-523.167 -183.731)"/><rect class="a" width="2.787" height="20.689" transform="translate(157.17 39.588)"/><path class="a" d="M720.33,236.609a7.811,7.811,0,0,1-1.571,2.615,7.682,7.682,0,0,1-11.274,0,7.737,7.737,0,0,1-1.568-2.615,9.483,9.483,0,0,1,0-6.4,7.7,7.7,0,0,1,1.568-2.614,7.68,7.68,0,0,1,11.274,0,7.774,7.774,0,0,1,1.571,2.614,9.548,9.548,0,0,1,0,6.4m.508-10.942a10.084,10.084,0,0,0-3.386-2.293,11.651,11.651,0,0,0-8.656,0,10.026,10.026,0,0,0-3.387,2.293,10.582,10.582,0,0,0-2.207,3.447,11.89,11.89,0,0,0,0,8.592,10.527,10.527,0,0,0,2.207,3.445,9.892,9.892,0,0,0,3.387,2.293,11.616,11.616,0,0,0,8.656,0,9.948,9.948,0,0,0,3.386-2.293,10.637,10.637,0,0,0,2.211-3.445,11.993,11.993,0,0,0,0-8.592,10.693,10.693,0,0,0-2.211-3.447" transform="translate(-536.95 -183.478)"/><path class="a" d="M757.3,240.325h-.061l-11.332-17h-3.661v20.689h2.787V227h.061l11.447,17.008h3.549V223.32H757.3Z" transform="translate(-549.858 -183.73)"/><path class="a" d="M613.558,181.881c1.074-3.492,2.591-8.338,3.5-11.183h.125c.863,2.717,2.412,8.423,3.319,11.183Zm9.273,10.579-2.276.007v1.521h12.084v-1.521c-2.141-.091-2.767-.25-3.322-2.015-1.832-5.679-5.943-17.9-8.219-24.854h-4.345c-2.54,7.695-6.346,18.772-8.714,24.58-.843,2.076-1.03,2.164-3.4,2.289v1.521H614v-1.521l-2.445-.054c-.945-.135-1.023-.792-.759-1.629.585-1.886,1.344-4.545,2.157-7.044H621.1c.515,1.517,1.812,5.008,2.492,7.26.346.9.176,1.375-.765,1.46" transform="translate(-505.285 -165.033)"/><path class="a" d="M481.833,165.847h-24.15v7.566h1.5c1.2-4.237,1.761-5.788,5.71-5.788h2.011v22.548c0,1.551-.26,2.117-1.767,2.252l-2.476.173v1.47h14.179V192.6l-2.611-.173c-1.592-.135-1.8-.7-1.8-2.252V167.625h2.181c3.963,0,4.518,1.551,5.72,5.788h1.5Z" transform="translate(-457.683 -165.113)"/><path class="a" d="M506.032,169.779v20.357c0,2.1-.257,2.287-3.305,2.412v1.521h22.389l.21-7.887h-1.263c-1.335,4.457-2.7,6.109-7.565,6.109-4.6,0-4.908-.477-4.908-3.105v-8.819h4.633c2.753,0,3.22.711,3.779,3.6h1.51v-9.262H520c-.559,2.851-1.026,3.715-3.779,3.715h-4.633V169.1c0-1.219.264-1.466,1.429-1.466h3.631c4.3,0,4.941,1.466,6.008,5.52h1.409v-7.3H502.679v1.473c3.051.128,3.353.308,3.353,2.458" transform="translate(-472.258 -165.114)"/><path class="a" d="M563.794,185.464h-.129c-1.808-4.545-5.493-14.125-7.653-19.622H545.875v1.48c3.055.172,3.305.335,3.305,2.455v14.39a53.082,53.082,0,0,1-.21,6.09c-.258,2.249-.922,2.076-3.069,2.286v1.524h9.692v-1.524c-2.279-.21-3.63.22-3.888-2.171a50.472,50.472,0,0,1-.217-6.085V169.9l-.024-.119c2.184,5.53,6.987,16.741,9.571,23.818H563.1c1.585-4.4,6.844-17.424,9.225-23.818h.125v20.31c0,2.164-.312,2.334-3.316,2.456v1.524H581.1v-1.524c-3.007-.166-3.383-.495-3.383-2.658V169.577c0-2.124.532-2.13,3.536-2.255v-1.48h-9.621c-2.195,5.886-5.514,13.61-7.833,19.622" transform="translate(-486.25 -165.112)"/><path class="a" d="M662.8,192.634c-3.309,0-6.058-2.848-7.515-7.86h-1.47l.518,7.25c2.021,1.815,5.709,2.381,8.467,2.381,7.907,0,10.481-4.457,10.481-8.731,0-5.394-3.691-7.081-7.776-8.812-3.048-1.388-6.014-2.638-6.014-5.784a4.218,4.218,0,0,1,4.43-4.5c2.831,0,5.151,1.947,6.184,6.563h1.46v-6.563A15.585,15.585,0,0,0,664,164.762c-6.536,0-9.933,3.414-9.875,8.463.045,4.555,3.79,6.749,8.385,8.686,3.522,1.473,5.442,3.251,5.442,5.977,0,3.153-2.282,4.745-5.154,4.745" transform="translate(-521.213 -164.762)"/><path class="a" d="M717.261,185.851h-1.5c-1.327,4.45-2.411,6.438-7.264,6.438-4.593,0-4.894-.477-4.894-3.105v-8.819h4.084c2.74,0,3.228.992,3.783,3.892h1.5V174.7h-1.5c-.556,2.854-1.043,3.718-3.783,3.718H703.6v-9.327c0-1.219.258-1.47,1.416-1.47h3.1c4.3,0,5.073,1.5,6.15,5.565h1.5v-7.346H694.182v1.477c3.058.128,3.316.3,3.316,2.458v20.357c0,2.1-.258,2.287-3.316,2.412v1.521h22.4Z" transform="translate(-534.289 -165.112)"/><path class="a" d="M759.52,169.3a8.636,8.636,0,0,1,5.517-2.025v-1.436H754.379v1.436l1.819.216c.579.1.657.515.054,1.247-2.045,2.635-6.085,6.986-9.252,10.224v-9.188c0-2.153.261-2.33,3.316-2.458v-1.477H737.961v1.477c3.051.128,3.309.339,3.309,2.458v20.306c0,2.12-.258,2.293-3.309,2.462v1.521h12.364v-1.521c-3.055-.17-3.326-.3-3.326-2.462v-9.92c1.155,1.836,4.227,6.669,6.046,9.053,2.621,3.627,4.48,4.89,9,5.016l2.743.091.085-1.473a8.29,8.29,0,0,1-3.695-2.594,104.719,104.719,0,0,1-9.669-13.222,72.437,72.437,0,0,1,8.009-7.732" transform="translate(-548.469 -165.112)"/></svg>