<?xml version="1.0" encoding="UTF-8"?>
<svg width="166px" height="180px" viewBox="0 0 166 180" version="1.1" xmlns="http://www.w3.org/2000/svg" xmlns:xlink="http://www.w3.org/1999/xlink">
    <!-- Generator: sketchtool 52.5 (67469) - http://www.bohemiancoding.com/sketch -->
    <title>14CAC355-2FAA-42A7-98D4-0DF648A61D84</title>
    <desc>Created with sketchtool.</desc>
    <defs>
        <polygon id="path-1" points="0 0.000141690962 165.305934 0.000141690962 165.305934 179.475219 0 179.475219"></polygon>
    </defs>
    <g id="Our-Services" stroke="none" stroke-width="1" fill="none" fill-rule="evenodd">
        <g id="1.0-CG_Marketing-Web_Why-join" transform="translate(-221.000000, -3729.000000)">
            <g id="Group-22" transform="translate(214.000000, 3729.000000)">
                <rect id="Rectangle" fill-rule="nonzero" x="0" y="0" width="180" height="180"></rect>
                <g id="Group-48" transform="translate(7.000000, 0.000000)">
                    <path d="M19.029663,175.207487 L94.2845668,175.207487 L19.029663,175.207487 Z" id="Fill-1" fill="#F2F2F2"></path>
                    <g id="Group-47">
                        <path d="M7.21306181,108.427025 L6.27412303,171.966448 C6.27412303,174.481462 8.24032128,176.520395 10.6670152,176.520395 L102.647592,176.520395 C105.074286,176.520395 107.041429,174.481462 107.041429,171.966448 L107.98084,108.427025 L7.21306181,108.427025 Z" id="Fill-2" fill="#F2F2F2"></path>
                        <path d="M157.11766,5.03182391 L78.4909837,5.03182391 C76.0198933,5.03182391 74.0149662,7.2691242 74.0149662,10.0302087 L74.0149662,80.3934682 C74.0149662,83.1545528 76.0198933,85.3918531 78.4909837,85.3918531 L157.11766,85.3918531 C159.590167,85.3918531 161.594622,83.1545528 161.594622,80.3934682 L161.594622,10.0302087 C161.594622,7.2691242 159.58875,5.03182391 157.11766,5.03182391" id="Fill-4" fill="#DB5967"></path>
                        <path d="M151.248017,14.170277 L75.3470029,14.170277 C74.6172945,14.170277 74.0264431,14.7686851 74.0264431,15.5054781 L74.0264431,74.9183878 C74.0264431,75.6816297 74.6583848,76.2535889 75.3470029,76.2535889 L151.248017,76.2535889 C151.926717,76.2535889 152.566688,75.6896589 152.566688,74.9183878 L152.566688,15.5054781 C152.566688,14.7686851 151.975837,14.170277 151.248017,14.170277" id="Fill-6" fill="#F0F0F0"></path>
                        <path d="M71.089284,26.1263493 L71.089284,36.3587983 C71.089284,36.4693172 71.0836163,36.5793638 71.0812548,36.6903551 C74.6584793,37.2386991 77.4597096,34.6207224 77.4597096,31.4090606 C77.4597096,28.1888974 74.6556455,25.5865067 71.089284,26.1263493" id="Fill-8" fill="#FFBEAB"></path>
                        <path d="M43.7588921,36.3710309 L43.7588921,26.1182729 C40.6369679,25.6946169 37.3724082,28.1208385 37.3724082,31.4090134 C37.3724082,34.6263429 40.1745831,37.2537656 43.7673936,36.7030601 C43.7645598,36.5915965 43.7588921,36.4820222 43.7588921,36.3710309" id="Fill-10" fill="#FFBEAB"></path>
                        <path d="M43.7588921,35.3259184 C42.7032945,34.3406939 42.0656851,32.9426764 42.0656851,31.4091079 C42.0656851,29.9199359 42.7363557,28.6092945 43.7588921,27.6585481 L43.7588921,26.117895 C40.6369679,25.6961283 37.3724082,28.1209329 37.3724082,31.4091079 C37.3724082,34.6264373 40.1745831,37.2538601 43.7673936,36.7031545 C43.7645598,36.5931079 43.7588921,36.4821166 43.7588921,36.3725423 L43.7588921,35.3259184 Z" id="Fill-12" fill="#F7AF9F"></path>
                        <path d="M66.4672776,18.772919 C66.0535399,18.3218694 65.3772017,18.2368548 64.8656974,18.5759685 C59.3978431,22.1914496 52.166881,24.4773971 45.0601347,23.9611697 C44.3403446,23.9054379 43.717849,24.4873155 43.717849,25.2241085 L43.717849,36.3392921 C43.717849,43.4828781 49.2475749,50.0082192 57.6115924,50.0082192 C65.0579248,50.0082192 71.1142688,43.8758344 71.1142688,36.3392921 L71.1142688,24.3262601 C71.1142688,23.6626741 71.142607,23.8600968 66.4672776,18.772919" id="Fill-14" fill="#FFFFFF"></path>
                        <path d="M50.476319,36.3392449 L50.476319,23.8331283 C48.6825114,24.0399971 46.8669778,24.0914781 45.0599458,23.9597055 C44.340628,23.9039738 43.7176601,24.4872682 43.7176601,25.2240612 L43.7176601,36.3392449 C43.7176601,43.4828309 49.247386,50.008172 57.6114035,50.008172 C58.738319,50.008172 59.8326455,49.8650641 60.8787971,49.601519 C54.5027038,48.0745627 50.476319,42.4352624 50.476319,36.3392449" id="Fill-16" fill="#FFFFFF"></path>
                        <path d="M85.5614099,62.0364122 L65.2580397,54.0776309 L57.586891,63.6672752 L49.8987394,54.0776309 L29.6322087,62.0364122 C29.6322087,62.0364122 22.1230601,65.1621149 22.1230601,73.8274618 L22.1230601,99.0678175 C22.1230601,99.0777359 22.1292,99.0829312 22.1377015,99.0829312 L93.069614,99.0829312 L93.069614,73.8255726 C93.069614,65.1621149 85.5614099,62.0364122 85.5614099,62.0364122" id="Fill-18" fill="#FCC14A"></path>
                        <path d="M66.8528659,68.5944367 L72.5904052,56.9521627 L65.257898,54.0777254 L57.5867493,63.6673697 L65.0675598,69.0469032 C65.6735248,69.4814222 66.5194198,69.2660519 66.8528659,68.5944367" id="Fill-20" fill="#F0F0F0"></path>
                        <path d="M48.3301732,68.5944367 L42.5921615,56.9521627 L49.8986921,54.0777254 L57.5962898,63.6673697 L50.1140624,69.0469032 C49.5095143,69.4814222 48.6622023,69.2660519 48.3301732,68.5944367" id="Fill-22" fill="#F0F0F0"></path>
                        <polygon id="Fill-24" fill="#DB5967" points="57.5963843 63.6742181 57.5963843 63.6671335 57.5907166 63.6699673 57.5864659 63.6671335 57.5864659 63.6742181 52.1445883 67.5853609 54.7167516 71.5050052 60.4660985 71.5050052 63.0382618 67.5853609"></polygon>
                        <polygon id="Fill-26" fill="#DB5967" points="51.5745184 99.084537 63.6073872 99.084537 60.4660985 71.5048636 54.7167516 71.5048636"></polygon>
                        <path d="M110.133645,98.1682688 L5.03862507,98.1682688 C3.1135172,98.1682688 1.55302741,99.7476507 1.55302741,101.696846 L1.55302741,105.573038 C1.55302741,107.523651 3.1135172,109.103033 5.03862507,109.103033 L110.133645,109.103033 C112.058281,109.103033 113.618771,107.523651 113.618771,105.573038 L113.618771,101.696846 C113.618771,99.7476507 112.058281,98.1682688 110.133645,98.1682688" id="Fill-28" fill="#DB5967"></path>
                        <path d="M123.591973,45.2082962 L123.591973,26.7856373 C123.378019,26.7785528 123.164538,26.7686344 122.947751,26.7686344 C112.688381,26.7686344 104.372066,35.0854216 104.372066,45.3447918 C104.372066,55.6036898 112.688381,63.920477 122.947751,63.920477 C128.264941,63.920477 133.056457,61.6817598 136.442398,58.1017015 L123.591973,45.2082962 Z" id="Fill-30" fill="#DB5967"></path>
                        <path d="M122.947657,26.7702402 L122.947657,45.3445085 L141.523342,45.3445085 C141.523342,35.0870274 133.206555,26.7702402 122.947657,26.7702402" id="Fill-32" fill="#FECA57"></path>
                        <path d="M141.523342,45.3446029 L122.947657,45.3446029 L136.06021,58.5015534 C139.434817,55.1382822 141.523342,50.485151 141.523342,45.3446029" id="Fill-34" fill="#FF6B6B"></path>
                        <path d="M120.216185,29.5002945 L120.216185,45.190207 C120.216185,45.8599329 120.478786,46.5589417 120.99643,47.0770583 L132.064384,58.1823236 C129.469078,60.0219446 126.30134,61.108242 122.883282,61.108242 C114.105527,61.108242 106.965719,53.9684344 106.965719,45.190207 C106.964302,37.3225802 112.703731,30.7731516 120.216185,29.5002945 Z M125.551322,29.5002945 C132.227328,30.6300437 137.452419,35.8981137 138.573194,42.5226385 L125.551322,42.5226385 L125.551322,29.5002945 Z M135.843282,54.4142886 L129.308022,47.8577755 L138.573194,47.8577755 C138.16229,50.2849417 137.216267,52.4915423 135.843282,54.4142886 Z M122.883282,66.4447959 C134.44432,66.4447959 144.136454,57.0955539 144.136454,45.190207 C144.136454,33.4709475 134.602541,23.9375073 122.883282,23.9375073 C111.164494,23.9375073 101.629165,33.4709475 101.629165,45.190207 C101.629165,56.9094665 111.163078,66.4447959 122.883282,66.4447959 Z" id="Fill-36" fill="#345287"></path>
                        <g id="Group-40">
                            <mask id="mask-2" fill="white">
                                <use xlink:href="#path-1"></use>
                            </mask>
                            <g id="Clip-39"></g>
                            <path d="M85.6453854,64.9465557 C88.5236012,66.2288589 91.5170589,69.6587248 91.5170589,74.2684041 L91.5170589,85.2097802 L91.5170589,95.7945673 L84.0027149,95.7945673 L84.0027149,77.2467481 C84.0027149,75.7741067 82.8247907,74.5820134 81.3700968,74.5820134 C79.9168198,74.5820134 78.737951,75.7741067 78.737951,77.2467481 L78.737951,95.7945673 L67.0229423,95.7945673 L64.2755545,72.6025907 L64.8116187,71.7850338 C66.7471172,73.0106606 69.2800793,72.2667831 70.287502,70.2264332 L70.287502,70.2250163 L74.9548023,60.7548647 L85.6453854,64.9465557 Z M77.9477878,38.2406431 C82.8677703,35.2797743 83.7150822,28.685477 79.6136012,24.7516636 C79.6136012,21.0903691 79.700505,19.549716 79.2003359,17.0583166 L151.065992,17.0583166 L151.065992,73.4588764 L96.7638752,73.4588764 C96.4786041,67.1616577 92.1253854,61.7722058 87.5926915,59.9930397 L77.9477878,56.2117802 L77.9477878,38.2406431 Z M111.213047,101.124509 C111.682989,101.124509 112.065555,101.511798 112.065555,101.987879 L112.065555,105.864544 C112.065555,106.340626 111.682989,106.729331 111.213047,106.729331 L6.11802682,106.729331 C5.64761283,106.729331 5.26551953,106.340626 5.26551953,105.864544 L5.26551953,101.987879 C5.26551953,101.511798 5.64761283,101.124509 6.11802682,101.124509 L111.213047,101.124509 Z M105.488732,172.362946 C105.488732,173.345809 104.699041,174.145419 103.726569,174.145419 L11.747881,174.145419 C10.7754087,174.145419 9.98619009,173.345809 9.98619009,172.362946 L10.9251289,112.058801 L106.427671,112.058801 L105.488732,172.362946 Z M25.8357411,74.2684041 C25.8357411,67.658993 31.3300443,65.1118618 31.70033,64.9479726 L42.3866624,60.7534478 L47.0553796,70.2250163 C48.0618577,72.2667831 50.5957644,73.0106606 52.5303184,71.7840892 L53.0677994,72.6025907 L50.3199394,95.7931504 L38.614849,95.7931504 L38.614849,77.2458035 C38.614849,75.7741067 37.4373971,74.5805965 35.9822309,74.5805965 C34.5284816,74.5805965 33.3496128,75.7741067 33.3496128,77.2458035 L33.3496128,95.7931504 L25.8357411,95.7931504 L25.8357411,74.2684041 Z M50.1565224,57.7080367 L54.8583009,63.5834886 C52.6101376,65.2006548 51.1096303,66.278923 51.0246157,66.3403224 L47.3189248,58.8212554 L50.1565224,57.7080367 Z M47.5640501,36.8884391 L47.5612163,27.5349464 C54.5361901,27.3446082 61.7194496,24.7587481 66.510021,21.8606956 C68.1432455,23.6318327 69.164365,24.7186023 69.6706741,25.2933953 C69.6692571,38.7941825 69.672091,36.4487248 69.6621726,36.8412087 C69.5785749,40.2710746 67.9141784,43.5635003 65.287228,45.5660659 C58.3547615,50.4076461 47.5640501,45.9410746 47.5640501,36.8884391 Z M68.9726099,52.6935936 L68.9726099,49.4162816 C70.4480851,48.2005732 71.7067732,46.7265149 72.6830239,45.0635353 L72.6830239,54.1482875 L68.9726099,52.6935936 Z M67.1778577,57.7052029 L70.0230122,58.8212554 L66.316849,66.3403224 C66.316849,66.3403224 66.0703067,66.1627364 62.4774962,63.5792379 L67.1778577,57.7052029 Z M58.671677,59.8678793 L53.6241726,53.5612146 L53.6241726,52.331337 C56.8769248,53.3236461 60.5249948,53.3349813 63.7078461,52.304888 L63.7078461,53.5749114 L58.671677,59.8678793 Z M56.8301668,68.7042 L58.671677,67.3812787 L60.511298,68.7042 L60.1329831,69.2813545 L57.2084816,69.2813545 L56.8301668,68.7042 Z M58.132779,74.6112962 L59.2086857,74.6112962 L61.7194496,95.7945673 L55.6224875,95.7945673 L58.132779,74.6112962 Z M45.0702892,22.1549405 C44.3283009,22.1147948 43.5962309,22.1563574 42.8830531,22.2673487 L42.8830531,21.2570921 C42.8830531,12.4750863 49.9402076,5.32961108 58.6154729,5.32961108 C66.6597411,5.32961108 74.3474204,11.5106431 74.3474204,22.241372 C74.2203708,22.2229522 74.0923767,22.2078385 73.9653271,22.1936694 C73.2904058,21.3567481 72.3184058,20.3559376 69.5884933,17.386095 C68.2972163,15.9814653 66.2072746,15.7231155 64.6208082,16.7721009 C59.5681085,20.1131738 51.9819743,22.5228647 45.0702892,22.1549405 Z M97.8624525,179.47536 L103.727986,179.47536 C107.602762,179.47536 110.753496,176.285897 110.753496,172.362946 L111.692435,112.034241 C114.84317,111.78392 117.332208,109.116824 117.332208,105.864544 L117.332208,101.987879 C117.332208,98.5717102 114.587181,95.7931504 111.213047,95.7931504 L96.7832397,95.7931504 L96.7832397,87.8745149 L157.764668,87.8745149 C161.92377,87.8745149 165.305934,84.4503166 165.305934,80.2406781 L165.305934,51.4774128 C165.305934,50.0047714 164.128482,48.8126781 162.673788,48.8126781 C161.220511,48.8126781 160.04117,50.0047714 160.04117,51.4774128 L160.04117,80.2406781 C160.04117,81.5107015 159.019578,82.5450455 157.764668,82.5450455 L96.7832397,82.5450455 L96.7832397,78.7892904 L152.386079,78.7892904 C154.560563,78.7892904 156.330756,76.997372 156.330756,74.7959668 L156.330756,15.7216985 C156.330756,13.5202933 154.560563,11.7283749 152.386079,11.7283749 L77.3862192,11.7283749 C76.7745866,10.4942466 75.9570297,9.17463149 75.007228,7.97261983 L157.764668,7.97261983 C159.019578,7.97261983 160.04117,9.00696385 160.04117,10.2769872 L160.04117,39.0397802 C160.04117,40.5124216 161.220511,41.7059318 162.673788,41.7059318 C164.128482,41.7059318 165.305934,40.5124216 165.305934,39.0397802 L165.305934,10.2769872 C165.305934,6.06687638 161.92377,2.64267813 157.764668,2.64267813 L71.2491114,2.64267813 C70.5656886,2.64267813 69.8860443,2.7413895 69.2290706,2.92747697 C66.112814,1.06990845 62.4859977,0.000141690962 58.6154729,0.000141690962 C47.0379044,0.000141690962 37.6182892,9.53547114 37.6182892,21.2570921 L37.6182892,24.8768239 C32.7342017,29.7377685 35.2529948,37.9837102 42.5047382,39.3992029 C43.1532105,43.4884041 45.2851872,47.0264274 48.3594087,49.4800426 L48.3594087,52.6935936 C48.3320152,52.7044566 29.7369656,60.0010688 29.7105166,60.0124041 C29.3378694,60.1677918 20.5709773,63.9362991 20.5709773,74.2669872 L20.5709773,95.7931504 L6.11944373,95.7931504 C2.74530962,95.7931504 -0.000188921283,98.5717102 -0.000188921283,101.987879 L-0.000188921283,105.864544 C-0.000188921283,109.123436 2.50112886,111.796672 5.65989271,112.035658 L4.72095394,172.362946 C4.72095394,176.285897 7.87310554,179.47536 11.747881,179.47536 L17.6119977,179.47536 L22.885263,179.47536 L92.5906041,179.47536 L97.8624525,179.47536 Z" id="Fill-38" fill="#345287" mask="url(#mask-2)"></path>
                        </g>
                        <path d="M42.2963108,33.7669399 C39.7227306,32.4511032 39.7269813,29.2658904 42.2963108,27.9680012 L42.2963108,33.7669399 Z" id="Fill-41" fill="#FFFFFF"></path>
                        <path d="M74.9355324,33.8114309 L74.9355324,27.9038624 C77.6696956,29.1823872 77.6503312,32.5484921 74.9355324,33.8114309" id="Fill-43" fill="#FFFFFF"></path>
                        <path d="M45.0701948,22.1551294 C44.3282064,22.1149837 43.5961364,22.1565464 42.8829586,22.2675376 L42.8829586,21.2568087 C42.8829586,12.4752752 49.9405854,5.3298 58.6153784,5.3298 C66.6596466,5.3298 74.3473259,11.5103598 74.3473259,22.2410886 C74.2202764,22.2231411 74.0922822,22.2075551 73.9652327,22.1938583 C73.2903114,21.356937 72.3183114,20.3561265 69.5883988,17.3858117 C68.2971219,15.9811819 66.2071802,15.7228321 64.621186,16.7722898 C59.568014,20.1133627 51.9818799,22.5225813 45.0701948,22.1551294" id="Fill-45" fill="#FFFFFF"></path>
                    </g>
                </g>
            </g>
        </g>
    </g>
</svg>