<?xml version="1.0" encoding="UTF-8"?>
<svg width="182px" height="175px" viewBox="0 0 182 175" version="1.1" xmlns="http://www.w3.org/2000/svg" xmlns:xlink="http://www.w3.org/1999/xlink">
    <!-- Generator: sketchtool 52.5 (67469) - http://www.bohemiancoding.com/sketch -->
    <title>27361BF9-A5A2-44CB-AE59-1F953770C0AC</title>
    <desc>Created with sketchtool.</desc>
    <defs>
        <polygon id="path-1" points="0 0.287562857 120.427251 0.287562857 120.427251 99.2570914 0 99.2570914"></polygon>
        <polygon id="path-3" points="0.170485714 0 120.857123 0 120.857123 97.4657571 0.170485714 97.4657571"></polygon>
    </defs>
    <g id="Our-Services" stroke="none" stroke-width="1" fill="none" fill-rule="evenodd">
        <g id="1.0-CG_Marketing-Web_Why-join" transform="translate(-627.000000, -3731.000000)">
            <g id="Group-25" transform="translate(627.000000, 3729.000000)">
                <rect id="Rectangle" fill-rule="nonzero" x="0" y="0" width="180" height="180"></rect>
                <g id="Group-29" transform="translate(0.000000, 2.000000)">
                    <polygon id="Fill-1" fill="#F0F0F0" points="59.7523371 68.1955714 59.7523371 109.746257 95.6397086 130.522886 95.6397086 88.9706571"></polygon>
                    <polygon id="Fill-2" fill="#F0F0F0" points="131.527337 68.1955714 95.6399657 47.4189429 59.7525943 68.1955714 95.6399657 88.9706571"></polygon>
                    <polygon id="Fill-3" fill="#F0F0F0" points="95.6398114 88.9709143 95.6398114 130.523143 131.527183 109.746 131.527183 68.1958286"></polygon>
                    <polygon id="Fill-4" fill="#FCC14A" points="28.8258686 110.373017 38.5283829 110.373017 21.3234686 80.4986743 4.12164 110.373017 13.8246686 110.373017 13.8246686 172.036389 117.614726 172.036389 117.614726 156.99456 28.8258686 156.99456"></polygon>
                    <polygon id="Fill-5" fill="#FCC14A" points="166.175794 62.9798914 166.175794 2.82029143 62.1260229 2.82029143 62.1260229 17.86212 151.174594 17.86212 151.174594 62.9798914 141.471566 62.9798914 158.673394 92.8542343 175.878309 62.9798914"></polygon>
                    <g id="Group-28">
                        <g id="Group-8" transform="translate(0.000000, 75.600000)">
                            <mask id="mask-2" fill="white">
                                <use xlink:href="#path-1"></use>
                            </mask>
                            <g id="Clip-7"></g>
                            <path d="M114.801994,85.24332 L114.801994,92.5878343 C114.801994,93.15612 114.342737,93.6164057 113.776509,93.6164057 L17.66268,93.6164057 C17.0964514,93.6164057 16.6371943,93.15612 16.6371943,92.5878343 L16.6371943,32.9805771 C16.6371943,32.4128057 16.1779371,31.95252 15.6117086,31.95252 L10.7702229,31.95252 C9.98130857,31.95252 9.48759429,31.09572 9.88256571,30.4101771 L20.4357086,12.0815486 C20.8301657,11.3960057 21.81708,11.3960057 22.2115371,12.0815486 L32.7672514,30.4101771 C33.1622229,31.09572 32.6690229,31.95252 31.8795943,31.95252 L27.0386229,31.95252 C26.4723943,31.95252 26.0131371,32.4128057 26.0131371,32.9805771 L26.0131371,83.1866914 C26.0131371,83.7544629 26.4723943,84.2152629 27.0386229,84.2152629 L113.776509,84.2152629 C114.342737,84.2152629 114.801994,84.6755486 114.801994,85.24332 M32.66388,37.59372 L41.6232514,37.59372 C42.41268,37.59372 42.90588,36.7364057 42.5114229,36.0513771 L22.2115371,0.80172 C21.81708,0.116177143 20.8301657,0.116177143 20.4357086,0.80172 L0.138908571,36.0513771 C-0.256062857,36.73692 0.237651429,37.59372 1.02708,37.59372 L9.98645143,37.59372 C10.55268,37.59372 11.0119371,38.0534914 11.0119371,38.6217771 L11.0119371,98.2290343 C11.0119371,98.7968057 11.47068,99.2570914 12.0369086,99.2570914 L119.40228,99.2570914 C119.968509,99.2570914 120.427251,98.7968057 120.427251,98.2290343 L120.427251,79.60212 C120.427251,79.0348629 119.968509,78.5740629 119.40228,78.5740629 L32.66388,78.5740629 C32.0976514,78.5740629 31.6383943,78.1142914 31.6383943,77.5460057 L31.6383943,38.6217771 C31.6383943,38.0534914 32.0976514,37.59372 32.66388,37.59372" id="Fill-6" fill="#345287" mask="url(#mask-2)"></path>
                        </g>
                        <g id="Group-11" transform="translate(59.142857, 0.000000)">
                            <mask id="mask-4" fill="white">
                                <use xlink:href="#path-3"></use>
                            </mask>
                            <g id="Clip-10"></g>
                            <path d="M5.79574286,14.0137714 L5.79574286,6.66925714 C5.79574286,6.10097143 6.255,5.64068571 6.82122857,5.64068571 L103.194771,5.64068571 C103.761,5.64068571 104.220257,6.10097143 104.220257,6.66925714 L104.220257,64.7722286 C104.220257,65.34 104.679,65.8002857 105.245743,65.8002857 L110.086714,65.8002857 C110.876143,65.8002857 111.369343,66.6570857 110.974371,67.3426286 L100.418657,85.6712571 C100.0242,86.3568 99.0372857,86.3568 98.6428286,85.6712571 L88.0896857,67.3426286 C87.6947143,66.6570857 88.1884286,65.8002857 88.9773429,65.8002857 L93.8188286,65.8002857 C94.3850571,65.8002857 94.8443143,65.34 94.8443143,64.7722286 L94.8443143,16.0704 C94.8443143,15.5026286 94.3850571,15.0423429 93.8188286,15.0423429 L6.82122857,15.0423429 C6.255,15.0423429 5.79574286,14.5815429 5.79574286,14.0137714 M88.1935714,60.1596 L79.2342,60.1596 C78.4447714,60.1596 77.9515714,61.0169143 78.3460286,61.7019429 L98.6428286,96.9516 C99.0372857,97.6371429 100.0242,97.6371429 100.418657,96.9516 L120.718029,61.7019429 C121.113,61.0169143 120.6198,60.1596 119.830371,60.1596 L110.871,60.1596 C110.304771,60.1596 109.845514,59.6993143 109.845514,59.1315429 L109.845514,1.02805714 C109.845514,0.460285714 109.386257,-5.68434189e-14 108.820029,-5.68434189e-14 L1.19597143,-5.68434189e-14 C0.629742857,-5.68434189e-14 0.170485714,0.460285714 0.170485714,1.02805714 L0.170485714,19.6549714 C0.170485714,20.2222286 0.629742857,20.6830286 1.19597143,20.6830286 L88.1935714,20.6830286 C88.7598,20.6830286 89.2185429,21.1433143 89.2185429,21.7110857 L89.2185429,59.1315429 C89.2185429,59.6993143 88.7598,60.1596 88.1935714,60.1596" id="Fill-9" fill="#345287" mask="url(#mask-4)"></path>
                        </g>
                        <path d="M125.173594,110.023971 L98.9691943,125.2674 C96.9089657,126.465686 94.3704514,126.465686 92.3107371,125.2674 L66.1058229,110.023971 C64.0461086,108.825686 62.7768514,106.610657 62.7768514,104.214086 L62.7768514,73.7277429 C62.7768514,71.3311714 64.0461086,69.1161429 66.1058229,67.9178571 L92.3107371,52.6744286 C94.3704514,51.4761429 96.9089657,51.4761429 98.9691943,52.6744286 L125.173594,67.9178571 C127.233823,69.1161429 128.502566,71.3311714 128.502566,73.7277429 L128.502566,104.214086 C128.502566,106.610657 127.233823,108.825686 125.173594,110.023971 M57.1875943,70.4764286 L57.1875943,107.4654 C57.1875943,109.862486 58.4563371,112.077 60.5165657,113.275286 L92.3107371,131.770029 C94.3704514,132.968314 96.9089657,132.968314 98.9691943,131.770029 L130.762851,113.275286 C132.82308,112.077 134.092337,109.862486 134.092337,107.4654 L134.092337,70.4764286 C134.092337,68.0793429 132.82308,65.8648286 130.762851,64.6665429 L98.9691943,46.1718 C96.9089657,44.9735143 94.3704514,44.9735143 92.3107371,46.1718 L60.5165657,64.6665429 C58.4563371,65.8648286 57.1875943,68.0793429 57.1875943,70.4764286" id="Fill-12" fill="#345287"></path>
                        <path d="M67.4346857,72.56448 L67.4346857,72.5649943 C66.6627429,73.9113943 67.1209714,75.6337371 68.4576,76.4108229 L91.4472,89.7827657 C92.3122286,90.2857371 92.8450286,91.2155657 92.8450286,92.2215086 L92.8450286,118.967966 C92.8450286,120.522651 94.0962857,121.78368 95.6396571,121.78368 C97.1830286,121.78368 98.4342857,120.522651 98.4342857,118.967966 L98.4342857,92.2215086 C98.4342857,91.2155657 98.9670857,90.2857371 99.8321143,89.7827657 L122.821714,76.4108229 C124.158343,75.6337371 124.616571,73.9113943 123.845143,72.5649943 L123.844629,72.56448 C123.0732,71.2175657 121.363714,70.7557371 120.027086,71.5333371 L97.0369714,84.9068229 C96.1724571,85.4097943 95.1073714,85.4097943 94.2423429,84.9068229 L71.2522286,71.5333371 C69.9156,70.7557371 68.2061143,71.2175657 67.4346857,72.56448" id="Fill-14" fill="#345287"></path>
                        <path d="M178.37604,170.559 L178.37604,160.473857 C178.37604,155.350543 174.233983,151.197171 169.12404,151.197171 L144.180669,151.197171 C139.07124,151.197171 134.929183,155.350543 134.929183,160.473857 L134.929183,170.559" id="Fill-16" fill="#DB5967"></path>
                        <path d="M178.37604,170.559 L178.37604,160.473857 C178.37604,155.350543 174.233983,151.197171 169.12404,151.197171 L144.180669,151.197171 C139.07124,151.197171 134.929183,155.350543 134.929183,160.473857 L134.929183,170.559 L178.37604,170.559 Z" id="Stroke-18" stroke="#345287" stroke-width="6" stroke-linecap="round" stroke-linejoin="round"></path>
                        <path d="M149.411314,120.216754 C151.213371,118.35504 153.692743,117.306926 156.280629,117.313097 L157.024286,117.313097 C159.611657,117.306926 162.091543,118.35504 163.8936,120.216754 C165.530571,121.900011 166.404343,124.184983 166.307657,126.533726 L166.018114,133.044583 C165.690514,137.904583 161.599886,141.640869 156.744,141.515383 L156.560914,141.515383 C151.705029,141.640869 147.6144,137.904583 147.287314,133.044583 L146.997771,126.521897 C146.904171,124.177269 147.777429,121.89744 149.411314,120.216754 M156.560914,146.35584 L156.744,146.35584 C164.190857,146.488011 170.412686,140.701269 170.840057,133.245669 L171.134743,126.730183 C171.296743,123.062811 169.941086,119.491611 167.388686,116.860011 C164.672743,114.045326 160.930286,112.460811 157.024286,112.471611 L156.280629,112.471611 C152.378743,112.464411 148.641429,114.048411 145.928571,116.860011 C143.375657,119.491611 142.02,123.062811 142.182,126.730183 L142.464857,133.245669 C142.892229,140.701269 149.114571,146.488011 156.560914,146.35584" id="Fill-20" fill="#345287"></path>
                        <path d="M47.1249257,63.2852229 L47.1249257,53.20008 C47.1249257,48.0762514 42.9828686,43.92288 37.87344,43.92288 L12.9295543,43.92288 C7.82012571,43.92288 3.67806857,48.0762514 3.67806857,53.20008 L3.67806857,63.2852229" id="Fill-22" fill="#DB5967"></path>
                        <path d="M47.1249257,63.2852229 L47.1249257,53.20008 C47.1249257,48.0762514 42.9828686,43.92288 37.87344,43.92288 L12.9295543,43.92288 C7.82012571,43.92288 3.67806857,48.0762514 3.67806857,53.20008 L3.67806857,63.2852229 L47.1249257,63.2852229 Z" id="Stroke-24" stroke="#345287" stroke-width="6" stroke-linecap="round" stroke-linejoin="round"></path>
                        <path d="M18.1602,12.9429771 C19.9622571,11.0807486 22.4421429,10.0326343 25.0295143,10.0388057 L25.7731714,10.0388057 C28.3610571,10.0326343 30.8404286,11.0807486 32.6424857,12.9429771 C34.2799714,14.62572 35.1532286,16.9112057 35.0565429,19.2599486 L34.767,25.7702914 C34.4394,30.6302914 30.3487714,34.3665771 25.4934,34.2416057 L25.3098,34.2416057 C20.4539143,34.3665771 16.3632857,30.6302914 16.0362,25.7702914 L15.7466571,19.24812 C15.6530571,16.9029771 16.5263143,14.6236629 18.1602,12.9429771 M25.3098,39.0820629 L25.4934,39.0820629 C32.9397429,39.2142343 39.1615714,33.4269771 39.5894571,25.9713771 L39.8836286,19.4558914 C40.0456286,15.7890343 38.6899714,12.21732 36.1375714,9.58623429 C33.4216286,6.77103429 29.6791714,5.18703429 25.7731714,5.19783429 L25.0295143,5.19783429 C21.1276286,5.19012 17.3903143,6.77412 14.6774571,9.58623429 C12.1245429,12.21732 10.7688857,15.7890343 10.9308857,19.4558914 L11.2137429,25.9713771 C11.6416286,33.4269771 17.8634571,39.2142343 25.3098,39.0820629" id="Fill-26" fill="#345287"></path>
                    </g>
                </g>
            </g>
        </g>
    </g>
</svg>