<?xml version="1.0" encoding="UTF-8"?>
<svg width="176px" height="112px" viewBox="0 0 176 112" version="1.1" xmlns="http://www.w3.org/2000/svg" xmlns:xlink="http://www.w3.org/1999/xlink">
    <!-- Generator: sketchtool 52.5 (67469) - http://www.bohemiancoding.com/sketch -->
    <title>146AFFED-B760-4AE6-B0D2-BDD6C426DABA</title>
    <desc>Created with sketchtool.</desc>
    <g id="Our-Services" stroke="none" stroke-width="1" fill="none" fill-rule="evenodd">
        <g id="1.0-CG_Marketing-Web_Why-join" transform="translate(-629.000000, -4133.000000)">
            <g id="Group-30" transform="translate(627.000000, 4078.000000)">
                <rect id="Rectangle" fill-rule="nonzero" x="0" y="0" width="180" height="180"></rect>
                <g id="Group-29" transform="translate(5.000000, 55.000000)">
                    <path d="M115.029354,99 L63.9706458,99 C59.5685941,99 56,95.3485983 56,90.844399 L56,82 L123,82 L123,90.844399 C123,95.3485983 119.431406,99 115.029354,99" id="Fill-1" fill="#FCC14A"></path>
                    <path d="M66.8003964,48.3749393 C66.8003964,47.0624856 65.7267203,46 64.399953,46 C63.0736761,46 62,47.0624856 62,48.3749393 C62,54.6120066 68.9516725,63.174505 69.743809,64.1326351 C70.2200719,64.7034359 70.9087156,65 71.6027548,65 C72.1368951,65 72.6759404,64.8238089 73.123755,64.4622046 C74.1474014,63.6293013 74.295038,62.1333759 73.4563052,61.1174863 C70.8832103,58.0139992 66.8003964,51.8123643 66.8003964,48.3749393" id="Fill-3" fill="#345287"></path>
                    <path d="M115.59948,46 C114.273161,46 113.19896,47.0620003 113.19896,48.3749393 C113.19896,51.8002299 109.116506,58.0091455 106.542839,61.1194278 C105.704079,62.1328905 105.853683,63.6288159 106.878343,64.4617192 C107.323719,64.8233235 107.862782,65 108.399392,65 C109.092962,65 109.779666,64.7029506 110.255454,64.1321497 C111.048106,63.174505 118,54.6115213 118,48.3749393 C118,47.0620003 116.92629,46 115.59948,46" id="Fill-5" fill="#345287"></path>
                    <path d="M89.5002554,46 C88.1183202,46 87,47.0620003 87,48.3749393 L87,62.6245753 C87,63.9375144 88.1183202,65 89.5002554,65 C90.8821907,65 92,63.9375144 92,62.6245753 L92,48.3749393 C92,47.0620003 90.8816798,46 89.5002554,46" id="Fill-7" fill="#345287"></path>
                    <path d="M123.057674,53.8546659 C122.936172,53.9044111 122.822175,53.9631579 122.714746,54.0337487 C122.425298,54.2147266 122.187923,54.4549251 122.011064,54.7306558 C121.83139,55.0044915 121.710357,55.3219134 121.66063,55.6611286 C121.640458,55.7899924 121.634359,55.9188563 121.636236,56.0505627 L121.636236,78.8177727 L57.3900351,78.8177727 L57.4195898,56.0818311 C57.4219354,55.9553361 57.4148986,55.8259985 57.3970719,55.7013985 C57.3478142,55.3508131 57.2202131,55.0248633 57.0339718,54.7415524 C56.8589895,54.4767182 56.6305273,54.2459951 56.3523382,54.069281 C56.2378725,53.9972689 56.1168391,53.9333107 55.9915837,53.8816704 C48.4574911,50.5539511 43.5903547,43.0604235 43.5903547,34.7728672 C43.5903547,23.2675049 52.8578515,13.9092417 64.25,13.9092417 C64.6951964,13.9092417 65.1652562,13.9637245 65.6264027,14.0002044 C63.3037818,18.0759973 61.954119,22.7866343 61.954119,27.8180095 C61.954119,29.0995416 62.9810261,30.1366113 64.25,30.1366113 C65.5185048,30.1366113 66.5454119,29.0995416 66.5454119,27.8180095 C66.5454119,15.0363266 76.8435689,4.63625596 89.5,4.63625596 C102.156431,4.63625596 112.454119,15.0363266 112.454119,27.8180095 C112.454119,29.0995416 113.481495,30.1366113 114.75,30.1366113 C116.018974,30.1366113 117.045881,29.0995416 117.045881,27.8180095 C117.045881,22.7866343 115.696218,18.0764711 113.373597,14.0002044 C113.834744,13.9637245 114.304804,13.9092417 114.75,13.9092417 C126.142148,13.9092417 135.409176,23.2675049 135.409176,34.7728672 C135.409176,43.0310501 130.562681,50.5151024 123.057674,53.8546659 Z M121.636705,92.5417725 C121.636705,95.1995894 119.493288,97.363744 116.861516,97.363744 L62.1473971,97.363744 C60.8713864,97.363744 59.6723116,96.8610803 58.7687834,95.9490843 C57.8676009,95.0366145 57.370332,93.8251996 57.3722085,92.5351398 L57.3844057,83.4545024 L121.636705,83.4545024 L121.636705,92.5417725 Z M114.75,9.27251193 C113.359055,9.27251193 111.905716,9.45870124 110.395613,9.7420122 C105.33989,3.79011319 97.8559936,0 89.5,0 C81.1440064,0 73.6601098,3.79011319 68.6043865,9.74153843 C67.0947533,9.45870124 65.6409455,9.27251193 64.25,9.27251193 C50.3269406,9.27251193 39,20.7120211 39,34.7728672 C39,44.4078087 44.3798863,53.1662866 52.8264204,57.4969647 L52.7818538,92.5304022 C52.7795082,95.0588815 53.7524664,97.4357562 55.5210547,99.2246896 C57.2919887,101.015044 59.6432261,102 62.1473971,102 L116.861985,102 C122.026545,102 126.227529,97.757442 126.227529,92.5412988 L126.227529,57.4628536 C134.642632,53.121279 140,44.3755928 140,34.7728672 C140,20.7120211 128.673059,9.27251193 114.75,9.27251193 Z" id="Fill-9" fill="#345287"></path>
                    <path d="M162,109 C157.581853,109 154,105.513608 154,101.212742 L154,80 L170,80 L170,101.212742 C170,105.513608 166.418147,109 162,109" id="Fill-11" fill="#DB5967"></path>
                    <path d="M21,101.070112 C21,105.449751 17.4182544,109 13.00024,109 L12.99976,109 C8.58174563,109 5,105.449751 5,101.070112 L5,74 L21,74" id="Fill-13" fill="#DB5967"></path>
                    <path d="M13.00024,109 C8.58174563,109 5,105.449751 5,101.070112 L5,74 L21,74 L21,101.070112 C21,105.449751 17.4182544,109 13.00024,109 Z" id="Stroke-15" stroke="#345287" stroke-width="6" stroke-linecap="round" stroke-linejoin="round"></path>
                    <path d="M162,109 C157.581853,109 154,105.513608 154,101.212742 L154,80 L170,80 L170,101.212742 C170,105.513608 166.418147,109 162,109 Z" id="Stroke-17" stroke="#345287" stroke-width="6" stroke-linecap="round" stroke-linejoin="round"></path>
                    <path d="M27,4 L27,23.5495365 C27,30.9778824 20.9557036,37 13.5,37 C6.04429638,37 0,30.9778824 0,23.5495365 L0,4" id="Stroke-19" stroke="#345287" stroke-width="6" stroke-linecap="round" stroke-linejoin="round"></path>
                    <path d="M154,58.4677944 L154,80 L170,80 L170,6 C170,6 154,17.5838296 154,58.4677944 Z" id="Stroke-21" stroke="#345287" stroke-width="6" stroke-linecap="round" stroke-linejoin="round"></path>
                    <path d="M13,39 L13,75" id="Stroke-23" stroke="#345287" stroke-width="6" stroke-linecap="round" stroke-linejoin="round"></path>
                    <path d="M4,25 L23,25" id="Stroke-25" stroke="#345287" stroke-width="6" stroke-linecap="round" stroke-linejoin="round"></path>
                    <path d="M13,3 L13,25" id="Stroke-27" stroke="#345287" stroke-width="6" stroke-linecap="round" stroke-linejoin="round"></path>
                </g>
            </g>
        </g>
    </g>
</svg>