<?xml version="1.0" encoding="UTF-8"?>
<svg width="145px" height="182px" viewBox="0 0 145 182" version="1.1" xmlns="http://www.w3.org/2000/svg" xmlns:xlink="http://www.w3.org/1999/xlink">
    <!-- Generator: sketchtool 52.5 (67469) - http://www.bohemiancoding.com/sketch -->
    <title>AB6D5C33-DC4C-4B92-9529-A4F3E94335AB</title>
    <desc>Created with sketchtool.</desc>
    <g id="Our-Services" stroke="none" stroke-width="1" fill="none" fill-rule="evenodd">
        <g id="1.0-CG_Marketing-Web_Why-join" transform="translate(-230.000000, -3280.000000)">
            <g id="Group-19" transform="translate(214.000000, 3281.000000)">
                <rect id="Rectangle" fill-rule="nonzero" x="0" y="0" width="180" height="180"></rect>
                <g id="Group-64" transform="translate(19.000000, 0.000000)">
                    <path d="M15.9142147,113.862864 C13.3343717,113.862864 11.2431675,111.799461 11.2431675,109.253545 C11.2431675,106.707628 13.3343717,104.644225 15.9142147,104.644225" id="Stroke-1" stroke="#345287" stroke-width="5" stroke-linecap="round" stroke-linejoin="round"></path>
                    <path d="M51.0520995,113.38266 C53.6319424,113.38266 55.7231466,111.319257 55.7231466,108.77334 C55.7231466,106.227424 53.6319424,104.164021 51.0520995,104.164021" id="Stroke-3" stroke="#345287" stroke-width="5" stroke-linecap="round" stroke-linejoin="round"></path>
                    <path d="M33.6741361,124.106937 L33.4451309,124.106937 C24.0036126,124.106937 16.3493717,116.453168 16.3493717,107.011649 L16.3493717,94.8522251 C16.3493717,85.4102356 24.0036126,77.756466 33.4451309,77.756466 L33.6741361,77.756466 C43.1156545,77.756466 50.7694241,85.4102356 50.7694241,94.8522251 L50.7694241,107.011649 C50.7694241,116.453168 43.1156545,124.106937 33.6741361,124.106937 Z" id="Stroke-5" stroke="#345287" stroke-width="5" stroke-linecap="round" stroke-linejoin="round"></path>
                    <path d="M15.9602513,103.491754 C15.9602513,103.491754 22.9670576,103.875785 27.6381047,91.9684555 C27.6381047,91.9684555 33.477267,105.796414 49.8266387,102.33966" id="Stroke-7" stroke="#345287" stroke-width="5" stroke-linecap="round" stroke-linejoin="round"></path>
                    <path d="M18.0134764,130.362597 L22.5422199,130.362597 L32.809288,139.983173 L45.6430052,130.362597 L81.2792356,130.362597 L81.6684503,151.488565 L58.7014869,151.488565 L58.7014869,179.528513 L0.700020942,179.528513 L0.700020942,147.446576 C0.700020942,138.011183 8.45132984,130.362597 18.0134764,130.362597" id="Fill-9" fill="#FCC14A"></path>
                    <path d="M43.0963822,129.844885 C43.0963822,135.042267 38.8263298,139.255775 33.5596806,139.255775 C28.292089,139.255775 24.0225079,135.042267 24.0225079,129.844885" id="Fill-11" fill="#F0F0F0"></path>
                    <path d="M42.8198325,129.035262 C42.8198325,134.232644 38.5497801,138.445681 33.2826597,138.445681 C28.0155393,138.445681 23.7459581,134.232644 23.7459581,129.035262" id="Stroke-13" stroke="#345287" stroke-width="5" stroke-linecap="round" stroke-linejoin="round"></path>
                    <path d="M17.3135969,128.458885 L80.579356,128.458885 L80.9685707,149.584853 L58.0016073,149.584853 L58.0016073,177.624801 L0.000141361257,177.624801 L0.000141361257,145.542864 C0.000141361257,136.107471 7.75145026,128.458885 17.3135969,128.458885 Z" id="Stroke-15" stroke="#345287" stroke-width="5" stroke-linecap="round" stroke-linejoin="round"></path>
                    <path d="M15.695199,156.700555 L15.695199,175.954429" id="Stroke-17" stroke="#345287" stroke-width="5" stroke-linecap="round" stroke-linejoin="round"></path>
                    <path d="M80.9684764,129.227136 L86.8076387,129.227136 C92.3970628,129.227136 96.9281623,133.698393 96.9281623,139.213838 C96.9281623,144.729754 92.3970628,149.20101 86.8076387,149.20101 L82.1365916,149.20101" id="Stroke-19" stroke="#345287" stroke-width="10" stroke-linecap="round" stroke-linejoin="round"></path>
                    <path d="M77.8955183,40.5413717 L77.8955183,13.5814241 C77.8955183,13.3293298 77.8846806,13.0786492 77.8672461,12.8303246 C79.6545236,11.8865026 81.7056754,11.3907958 83.8656754,11.3907958 L125.532377,11.3907958 C131.711749,11.3907958 136.739969,15.5534136 136.739969,20.6706911 L136.739969,47.6296963 C136.739969,52.7460314 131.711749,56.9095916 125.532377,56.9095916 L112.351853,56.9095916 C111.129079,56.9095916 110.118346,57.699801 110.044838,58.7110052 C109.705571,63.4593298 108.104419,66.7657696 105.285204,68.538911 C104.009183,69.3404293 102.569654,69.7715812 101.15133,69.9737277 C101.243686,69.863466 101.332743,69.7517906 101.418503,69.6358743 C104.581225,65.3922094 102.437717,58.9970262 102.182325,58.2822094 C101.892534,57.4679686 100.99112,56.9095916 99.9671937,56.9095916 L83.8656754,56.9095916 C78.7630052,56.9095916 74.301644,53.9956649 73.0260942,49.9876021 C76.0238953,47.6004817 77.8955183,44.2502199 77.8955183,40.5413717" id="Fill-21" fill="#F0F0F0"></path>
                    <path d="M86.0330262,25.038801 L123.733131,25.038801 C125.205644,25.038801 126.400618,23.8598482 126.400618,22.4066545 C126.400618,20.9520471 125.205644,19.7745079 123.733131,19.7745079 L86.0330262,19.7745079 C84.5605131,19.7745079 83.3655393,20.9520471 83.3655393,22.4066545 C83.3655393,23.8598482 84.5605131,25.038801 86.0330262,25.038801" id="Fill-23" fill="#345287"></path>
                    <path d="M86.0330262,35.5677173 L123.733131,35.5677173 C125.205644,35.5677173 126.400618,34.3887644 126.400618,32.9355707 C126.400618,31.4809634 125.205644,30.3034241 123.733131,30.3034241 L86.0330262,30.3034241 C84.5605131,30.3034241 83.3655393,31.4809634 83.3655393,32.9355707 C83.3655393,34.3887644 84.5605131,35.5677173 86.0330262,35.5677173" id="Fill-25" fill="#345287"></path>
                    <path d="M86.0330262,46.9741571 L123.733131,46.9741571 C125.205644,46.9741571 126.400618,45.7952042 126.400618,44.3420105 C126.400618,42.8874031 125.205644,41.7098639 123.733131,41.7098639 L86.0330262,41.7098639 C84.5605131,41.7098639 83.3655393,42.8874031 83.3655393,44.3420105 C83.3655393,45.7952042 84.5605131,46.9741571 86.0330262,46.9741571" id="Fill-27" fill="#345287"></path>
                    <path d="M61.103356,50.9907016 L47.6080681,50.9907016 L45.1158691,64.3352042 L38.0496911,60.8256754 L30.2696387,50.9907016 L19.4305288,50.9907016 C12.7083298,50.9907016 7.25932461,45.6137906 7.25932461,38.9806492 L7.25932461,15.4666178 C7.25932461,8.83394764 12.7083298,3.45656545 19.4305288,3.45656545 L61.103356,3.45656545 C67.8250838,3.45656545 73.274089,8.83394764 73.274089,15.4666178 L73.274089,38.9806492 C73.274089,45.6137906 67.8250838,50.9907016 61.103356,50.9907016" id="Fill-29" fill="#F0F0F0"></path>
                    <g id="Group-33" transform="translate(4.240838, 0.257749)" fill="#345287" stroke="#345287">
                        <path d="M73.6546806,40.283623 L73.6546806,13.3236754 C73.6546806,13.0715812 73.6438429,12.8209005 73.6264084,12.5725759 C75.4136859,11.6287539 77.4648377,11.1330471 79.6248377,11.1330471 L121.291539,11.1330471 C127.470911,11.1330471 132.499131,15.2956649 132.499131,20.4129424 L132.499131,47.3719476 C132.499131,52.4882827 127.470911,56.6518429 121.291539,56.6518429 L108.111016,56.6518429 C106.888241,56.6518429 105.877508,57.4420524 105.804,58.4532565 C105.464733,63.2015812 103.863581,66.5080209 101.044366,68.2811623 C99.7683455,69.0826806 98.3288168,69.5138325 96.9104921,69.7159791 C97.0028482,69.6057173 97.0919058,69.4940419 97.1776649,69.3781257 C100.340387,65.1344607 98.1968796,58.7392775 97.9414869,58.0244607 C97.6516963,57.2102199 96.7502827,56.6518429 95.726356,56.6518429 L79.6248377,56.6518429 C74.5221675,56.6518429 70.0608063,53.7379162 68.7852565,49.7298534 C71.7830576,47.342733 73.6546806,43.9924712 73.6546806,40.283623 M16.1578743,53.3939372 L27.2236335,53.3939372 C27.9384503,58.3792775 30.0829005,62.0254555 33.6150471,64.2448272 C36.5421675,66.0844084 39.8971414,66.6060314 42.7611204,66.6060314 C44.5441571,66.6060314 46.1382408,66.4034136 47.3190785,66.1909005 C48.5574031,65.9684921 49.4380838,65.0468168 49.4159372,63.997445 C49.3937906,62.9480733 48.4721152,62.0513717 47.2238953,61.8657173 C45.8182932,61.657445 44.8593927,61.1546702 44.2067749,60.2815288 C42.8303874,58.4391204 43.1149948,55.3701675 43.5569843,53.3939372 L57.8250471,53.3939372 C60.3417487,53.3939372 62.7208586,52.902 64.8342094,52.0340419 C67.1365131,56.9991204 72.9982932,60.4813194 79.6248377,60.4813194 L93.8919581,60.4813194 C94.3348901,62.4594346 94.6199686,65.5288586 93.2416963,67.3698534 C92.5914346,68.2420524 91.6315916,68.7457696 90.2236335,68.9540419 C88.9791832,69.1396963 88.0598639,70.0345131 88.0348901,71.082 C88.009445,72.1450366 88.8684503,73.0488063 90.1312775,73.2801675 C91.3121152,73.4931518 92.9052565,73.6952984 94.6873508,73.6952984 C97.5532147,73.6952984 100.909602,73.172733 103.837665,71.3322094 C107.368398,69.1118953 109.511906,65.4666597 110.225309,60.4813194 L121.291539,60.4813194 C130.018712,60.4813194 137.12023,54.5997487 137.12023,47.3710052 L137.12023,20.4129424 C137.12023,13.1827853 130.018712,7.30262827 121.291539,7.30262827 L79.6248377,7.30262827 C77.1868272,7.30262827 74.7822723,7.77524607 72.6161466,8.65922513 C70.3402304,3.72760209 64.5708063,0.213361257 57.8264607,0.213361257 L29.2903351,0.213361257 C28.0143141,0.213361257 26.9790785,1.07001047 26.9790785,2.12833508 C26.9790785,3.18665969 28.0143141,4.0437801 29.2903351,4.0437801 L57.8264607,4.0437801 C64.0063037,4.0437801 69.0331099,8.20639791 69.0331099,13.3236754 L69.0331099,40.283623 C69.0331099,45.4009005 64.0063037,49.5635183 57.8264607,49.5635183 L41.724,49.5635183 C40.6996021,49.5635183 39.7986597,50.1218953 39.5083979,50.9361361 C39.2534764,51.6514241 37.1099686,58.0461361 40.2712775,62.289801 C40.3570366,62.4043037 40.4460942,62.5173927 40.5389215,62.626712 C39.1210681,62.4245654 37.6829529,61.9934136 36.4083455,61.1923665 C33.5877173,59.4196963 31.985623,56.1132565 31.646356,51.3649319 C31.5728482,50.3537277 30.5621152,49.5635183 29.3393403,49.5635183 L16.1578743,49.5635183 C9.97803141,49.5635183 4.95122513,45.4009005 4.95122513,40.283623 L4.95122513,13.3236754 C4.95122513,8.20639791 9.97803141,4.0437801 16.1578743,4.0437801 L19.4313298,4.0437801 C20.7068796,4.0437801 21.741644,3.18665969 21.741644,2.12833508 C21.741644,1.07001047 20.7068796,0.213361257 19.4313298,0.213361257 L16.1578743,0.213361257 C7.43023037,0.213361257 0.330125654,6.09446073 0.330125654,13.3236754 L0.330125654,40.283623 C0.330125654,47.5123665 7.43023037,53.3939372 16.1578743,53.3939372" id="Fill-31"></path>
                    </g>
                    <path d="M29.0803665,27.6709005 C29.0803665,30.5782304 26.6923037,32.9356649 23.7458639,32.9356649 C20.7994241,32.9356649 18.4104188,30.5782304 18.4104188,27.6709005 C18.4104188,24.7635707 20.7994241,22.4066073 23.7458639,22.4066073 C26.6923037,22.4066073 29.0803665,24.7635707 29.0803665,27.6709005" id="Fill-34" fill="#345287"></path>
                    <path d="M45.1160105,27.6709005 C45.1160105,30.5782304 42.7274764,32.9356649 39.7810366,32.9356649 C36.8345969,32.9356649 34.4460628,30.5782304 34.4460628,27.6709005 C34.4460628,24.7635707 36.8345969,22.4066073 39.7810366,22.4066073 C42.7274764,22.4066073 45.1160105,24.7635707 45.1160105,27.6709005" id="Fill-36" fill="#345287"></path>
                    <path d="M61.0582618,27.6709005 C61.0582618,30.5782304 58.6697277,32.9356649 55.723288,32.9356649 C52.7768482,32.9356649 50.3883141,30.5782304 50.3883141,27.6709005 C50.3883141,24.7635707 52.7768482,22.4066073 55.723288,22.4066073 C58.6697277,22.4066073 61.0582618,24.7635707 61.0582618,27.6709005" id="Fill-38" fill="#345287"></path>
                    <path d="M85.7803665,118.900932 C83.2193717,118.900932 81.1437173,116.852607 81.1437173,114.326482 C81.1437173,111.799885 83.2193717,109.75156 85.7803665,109.75156" id="Stroke-40" stroke="#345287" stroke-width="5" stroke-linecap="round" stroke-linejoin="round"></path>
                    <path d="M120.647215,118.424403 C123.207738,118.424403 125.283393,116.376079 125.283393,113.849953 C125.283393,111.323356 123.207738,109.275031 120.647215,109.275031" id="Stroke-42" stroke="#345287" stroke-width="5" stroke-linecap="round" stroke-linejoin="round"></path>
                    <path d="M102.734058,128.32822 L102.51589,128.32822 C93.4767801,128.32822 86.149555,121.000995 86.149555,111.961885 L86.149555,99.9650262 C86.149555,90.9263874 93.4767801,83.5986911 102.51589,83.5986911 L102.734058,83.5986911 C111.773168,83.5986911 119.099921,90.9263874 119.099921,99.9650262 L119.099921,111.961885 C119.099921,121.000995 111.773168,128.32822 102.734058,128.32822" id="Fill-44" fill="#FFFFFF"></path>
                    <path d="M103.399445,129.068152 L103.172325,129.068152 C93.8014869,129.068152 86.2052042,121.471869 86.2052042,112.101031 L86.2052042,100.033021 C86.2052042,90.6621832 93.8014869,83.0659005 103.172325,83.0659005 L103.399445,83.0659005 C112.770283,83.0659005 120.366565,90.6621832 120.366565,100.033021 L120.366565,112.101031 C120.366565,121.471869 112.770283,129.068152 103.399445,129.068152 Z" id="Stroke-46" stroke="#345287" stroke-width="5" stroke-linecap="round" stroke-linejoin="round"></path>
                    <path d="M85.8185812,108.608042 C85.8185812,108.608042 92.7730838,108.989246 97.4092618,97.171445 C97.4092618,97.171445 103.204131,110.895267 119.43099,107.464429" id="Stroke-48" stroke="#345287" stroke-width="5" stroke-linecap="round" stroke-linejoin="round"></path>
                    <path d="M112.476581,129.676712 C112.476581,134.834984 108.239042,139.016921 103.011031,139.016921 C97.7834921,139.016921 93.5454817,134.834984 93.5454817,129.676712" id="Stroke-50" stroke="#345287" stroke-width="10" stroke-linecap="round" stroke-linejoin="round"></path>
                    <path d="M124.651037,177.901775 L109.58334,177.901775 L67.0854346,177.901775 L67.0854346,146.060623 C67.0854346,136.696382 74.7783141,129.104812 84.2688377,129.104812 L122.390199,129.104812 C122.390199,129.104812 137.003183,130.599 138.107686,146.709 L138.107686,177.901775 L126.08067,177.901775" id="Fill-52" fill="#DB5967"></path>
                    <g id="Group-57" transform="translate(93.769634, 130.310105)">
                        <path d="M19.0157277,0.419701571 C19.0157277,5.57797382 14.7777173,9.75991099 9.55017801,9.75991099 C4.32216754,9.75991099 0.0846282723,5.57797382 0.0846282723,0.419701571" id="Fill-54" fill="#F0F0F0"></path>
                        <path d="M19.0157277,0.419701571 C19.0157277,5.57797382 14.7777173,9.75991099 9.55017801,9.75991099 C4.32216754,9.75991099 0.0846282723,5.57797382 0.0846282723,0.419701571" id="Stroke-56" stroke="#345287" stroke-width="5" stroke-linecap="round" stroke-linejoin="round"></path>
                    </g>
                    <path d="M125.374429,177.901775 L110.306733,177.901775 L67.8088272,177.901775 L67.8088272,146.060623 C67.8088272,136.696382 75.5017068,129.104812 84.9922304,129.104812 L123.11312,129.104812 C123.11312,129.104812 137.726576,130.599 138.831079,146.709 L138.831079,177.901775 L128.568723,177.901775 L125.374429,177.901775 Z" id="Stroke-58" stroke="#345287" stroke-width="5" stroke-linecap="round" stroke-linejoin="round"></path>
                    <path d="M83.386178,158.289503 L83.386178,177.399188" id="Stroke-60" stroke="#345287" stroke-width="5" stroke-linecap="round" stroke-linejoin="round"></path>
                    <path d="M124.572817,158.289503 L124.572817,177.399188" id="Stroke-62" stroke="#345287" stroke-width="5" stroke-linecap="round" stroke-linejoin="round"></path>
                </g>
            </g>
        </g>
    </g>
</svg>