<?xml version="1.0" encoding="UTF-8"?>
<svg width="179px" height="179px" viewBox="0 0 179 179" version="1.1" xmlns="http://www.w3.org/2000/svg" xmlns:xlink="http://www.w3.org/1999/xlink">
    <!-- Generator: sketchtool 52.5 (67469) - http://www.bohemiancoding.com/sketch -->
    <title>52EB8A5E-EE4A-456E-B591-D83869F54244</title>
    <desc>Created with sketchtool.</desc>
    <g id="Our-Services" stroke="none" stroke-width="1" fill="none" fill-rule="evenodd">
        <g id="1.0-CG_Marketing-Web_Why-join" transform="translate(-1061.000000, -2871.000000)">
            <g id="Group-18" transform="translate(1060.000000, 2870.000000)">
                <rect id="Rectangle" fill-rule="nonzero" x="0" y="0" width="180" height="180"></rect>
                <g id="Group-39" transform="translate(4.000000, 4.000000)">
                    <polygon id="Fill-1" fill="#C96B86" points="125 38 102 38 102 12 109.237246 12 125 31.692019"></polygon>
                    <g id="Group-38">
                        <path d="M108.579587,10.2656778 L9.50319808,10.2656778 C4.25489945,10.2656778 4.73972603e-05,14.5219518 4.73972603e-05,19.7730942 L4.73972603e-05,163.492963 C4.73972603e-05,168.743631 4.25489945,172.999905 9.50319808,172.999905 L116.182108,172.999905 C121.430406,172.999905 125.685258,168.743631 125.685258,163.492963 L125.685258,29.2800367 L108.579587,10.2656778 Z" id="Fill-2" fill="#FCC14A"></path>
                        <polygon id="Fill-4" fill="#DB5967" points="126.397971 37.99426 102.771859 37.99426 102.771859 11.2162299 106.960355 11.2162299 126.397971 33.8550573"></polygon>
                        <path d="M105.973164,10.2656778 L9.50315068,10.2656778 C4.25485205,10.2656778 0,14.5219518 0,19.7730942 L0,163.492963 C0,168.743631 4.25485205,172.999905 9.50315068,172.999905 L116.18206,172.999905 C121.430359,172.999905 125.685211,168.743631 125.685211,163.492963 L125.685211,31.5266668 C125.685211,30.0805764 125.150096,28.6852011 124.183192,27.6102312 L110.323285,12.2037518 C109.213241,10.9700011 107.632542,10.2656778 105.973164,10.2656778 Z" id="Stroke-6" stroke="#345287" stroke-width="6" stroke-linecap="round" stroke-linejoin="round"></path>
                        <polyline id="Stroke-8" stroke="#345287" stroke-width="10" stroke-linecap="round" stroke-linejoin="round" points="125.685164 37.99426 102.059051 37.99426 102.059051 13.1178079"></polyline>
                        <polygon id="Fill-10" fill="#C96B86" points="135.130821 28.4909671 111.659698 28.4909671 111.659698 1.88925479 119.045139 1.88925479 135.130821 22.0368822"></polygon>
                        <path d="M118.137245,9.47945206e-05 L19.711146,9.47945206e-05 C14.4969734,9.47945206e-05 10.2700858,4.22840438 10.2700858,9.44494685 L10.2700858,152.22161 C10.2700858,157.437678 14.4969734,161.665988 19.711146,161.665988 L125.689998,161.665988 C130.904171,161.665988 135.131058,157.437678 135.131058,152.22161 L135.131058,18.8897989 L118.137245,9.47945206e-05 Z" id="Fill-12" fill="#F0F0F0"></path>
                        <polygon id="Fill-14" fill="#DB5967" points="135.839031 27.5464819 112.367908 27.5464819 112.367908 0.944769589 116.528913 0.944769589 135.839031 23.4347696"></polygon>
                        <path d="M115.54798,9.47945206e-05 L19.7111934,9.47945206e-05 C14.4970208,9.47945206e-05 10.2701332,4.22840438 10.2701332,9.44494685 L10.2701332,152.22161 C10.2701332,157.437678 14.4970208,161.665988 19.7111934,161.665988 L125.689572,161.665988 C130.903744,161.665988 135.130632,157.437678 135.130632,152.22161 L135.130632,21.1217359 C135.130632,19.684651 134.598835,18.2987551 133.638092,17.2308948 L119.869662,1.92537151 C118.767202,0.700152329 117.196456,9.47945206e-05 115.54798,9.47945206e-05 Z" id="Stroke-16" stroke="#345287" stroke-width="6" stroke-linecap="round" stroke-linejoin="round"></path>
                        <polyline id="Stroke-18" stroke="#345287" stroke-width="6" stroke-linecap="round" stroke-linejoin="round" points="135.130821 27.5464819 111.659698 27.5464819 111.659698 2.83355041"></polyline>
                        <polyline id="Fill-20" fill="#FCC14A" points="162.688821 72.8664151 117.083177 118.491966 103.88541 105.288037 149.49058 59.6624863"></polyline>
                        <path d="M103.88522,105.287942 L157.879705,51.2697586 C160.451007,48.6975093 164.616752,48.6975093 167.187579,51.2697586 L171.069415,55.1534901 C173.64356,57.7285833 173.64356,61.9071258 171.069415,64.4822189 L117.083461,118.491871 L103.88522,105.287942 Z" id="Stroke-22" stroke="#345287" stroke-width="6" stroke-linecap="round" stroke-linejoin="round"></path>
                        <polygon id="Stroke-24" stroke="#345287" stroke-width="6" stroke-linecap="round" stroke-linejoin="round" points="117.188352 118.596903 97.2582775 125.121136 103.780141 105.182531"></polygon>
                        <path d="M85.7011192,53.7431847 L31.2568342,53.7431847 C29.1092644,53.7431847 27.367889,55.485034 27.367889,57.6335518 C27.367889,59.7825436 29.1092644,61.5243929 31.2568342,61.5243929 L85.7011192,61.5243929 C87.848689,61.5243929 89.5900644,59.7825436 89.5900644,57.6335518 C89.5900644,55.485034 87.848689,53.7431847 85.7011192,53.7431847" id="Fill-26" fill="#345287"></path>
                        <path d="M70.1456701,69.3053641 L31.2566921,69.3053641 C29.1091222,69.3053641 27.3682208,71.0472134 27.3682208,73.1957312 C27.3682208,75.344723 29.1091222,77.0865723 31.2566921,77.0865723 L70.1456701,77.0865723 C72.29324,77.0865723 74.0346153,75.344723 74.0346153,73.1957312 C74.0346153,71.0472134 72.29324,69.3053641 70.1456701,69.3053641" id="Fill-28" fill="#345287"></path>
                        <path d="M70.1456701,84.8677805 L31.2566921,84.8677805 C29.1091222,84.8677805 27.3682208,86.6096299 27.3682208,88.7581477 C27.3682208,90.9066655 29.1091222,92.6489888 31.2566921,92.6489888 L70.1456701,92.6489888 C72.29324,92.6489888 74.0346153,90.9066655 74.0346153,88.7581477 C74.0346153,86.6096299 72.29324,84.8677805 70.1456701,84.8677805" id="Fill-30" fill="#345287"></path>
                        <path d="M70.1456701,100.42996 L31.2566921,100.42996 C29.1091222,100.42996 27.3682208,102.171809 27.3682208,104.320327 C27.3682208,106.469319 29.1091222,108.211168 31.2566921,108.211168 L70.1456701,108.211168 C72.29324,108.211168 74.0346153,106.469319 74.0346153,104.320327 C74.0346153,102.171809 72.29324,100.42996 70.1456701,100.42996" id="Fill-32" fill="#345287"></path>
                        <path d="M85.7011192,124.291968 L62.3679219,124.291968 C60.2203521,124.291968 58.4789767,126.033818 58.4789767,128.182336 C58.4789767,130.331327 60.2203521,132.073177 62.3679219,132.073177 L85.7011192,132.073177 C87.848689,132.073177 89.5900644,130.331327 89.5900644,128.182336 C89.5900644,126.033818 87.848689,124.291968 85.7011192,124.291968" id="Fill-34" fill="#345287"></path>
                        <path d="M149.74899,59.5641844 L163.001264,72.8164584" id="Stroke-36" stroke="#345287" stroke-width="10" stroke-linecap="round" stroke-linejoin="round"></path>
                    </g>
                </g>
            </g>
        </g>
    </g>
</svg>