<?xml version="1.0" encoding="UTF-8"?>
<svg width="78px" height="92px" viewBox="0 0 78 92" version="1.1" xmlns="http://www.w3.org/2000/svg" xmlns:xlink="http://www.w3.org/1999/xlink">
    <!-- Generator: sketchtool 52.5 (67469) - http://www.bohemiancoding.com/sketch -->
    <title>3D2AA4E4-50B5-4399-922E-6B60328DE6A6</title>
    <desc>Created with sketchtool.</desc>
    <g id="Our-Services" stroke="none" stroke-width="1" fill="none" fill-rule="evenodd">
        <g id="2.1-CG_Marketing-Web_Membership" transform="translate(-1296.000000, -1930.000000)" fill="#345188" fill-rule="nonzero" stroke="#345188">
            <g id="Group-6" transform="translate(1253.316406, 1919.000000)">
                <g id="compass" transform="translate(43.500000, 12.000000)">
                    <path d="M40.02,13.7669492 L40.02,11.9867797 C42.63592,11.3049153 44.58,8.93745763 44.58,6.10169492 C44.58,2.73661017 41.85312,0 38.5,0 C35.14688,0 32.42,2.73661017 32.42,6.10169492 C32.42,8.93745763 34.36408,11.3049153 36.98,11.9867797 L36.98,13.7669492 C16.72904,14.5723729 0.5,31.3474576 0.5,51.8644068 C0.5,72.8923729 17.5468,90 38.5,90 C59.4532,90 76.5,72.8923729 76.5,51.8644068 C76.5,31.3474576 60.27096,14.5723729 40.02,13.7669492 Z M35.46,6.10169492 C35.46,4.41915254 36.82344,3.05084746 38.5,3.05084746 C40.17656,3.05084746 41.54,4.41915254 41.54,6.10169492 C41.54,7.78423729 40.17656,9.15254237 38.5,9.15254237 C36.82344,9.15254237 35.46,7.78423729 35.46,6.10169492 Z M38.5,86.9491525 C19.22184,86.9491525 3.54,71.2113559 3.54,51.8644068 C3.54,32.5174576 19.22184,16.779661 38.5,16.779661 C57.77816,16.779661 73.46,32.5174576 73.46,51.8644068 C73.46,71.2113559 57.77816,86.9491525 38.5,86.9491525 Z" id="Shape"></path>
                    <path d="M57.2859515,31.1607494 L31.3262921,44.1408606 C31.2865189,44.1607476 31.2635728,44.2020514 31.2253294,44.2265278 C31.1213072,44.2892484 31.0417608,44.3687965 30.9545657,44.4544637 C30.8689004,44.5401309 30.789354,44.6212088 30.7266347,44.7252333 C30.7036886,44.7634776 30.6623857,44.7864241 30.6409693,44.8261982 L17.6611396,70.7864206 C17.3674299,71.3753827 17.4821603,72.0867264 17.9487305,72.5517769 C18.2424402,72.8454931 18.6340532,73 19.0302554,73 C19.2627757,73 19.4968256,72.9479878 19.7140485,72.839374 L45.6737079,59.8592628 C45.7134811,59.8393757 45.7364272,59.7980719 45.7746706,59.7735956 C45.8786928,59.7108749 45.9582392,59.6313268 46.0454343,59.5456596 C46.1310996,59.4599924 46.210646,59.3789145 46.2733653,59.2748901 C46.2963114,59.2366458 46.3376143,59.2136992 46.3590307,59.1739251 L59.3388604,33.2137027 C59.6325701,32.6247407 59.5178397,31.9133969 59.0512695,31.4483464 C58.5846994,30.9832959 57.8764305,30.8670332 57.2859515,31.1607494 Z M22.4522801,68.0481296 L32.4307632,48.0922604 L42.4061868,58.0679003 L22.4522801,68.0481296 Z M44.5707665,55.9063332 L34.5953429,45.9306932 L54.5507794,35.9519937 L44.5707665,55.9063332 Z" id="Shape"></path>
                </g>
            </g>
        </g>
    </g>
</svg>