<?xml version="1.0" encoding="UTF-8"?>
<svg width="73px" height="62px" viewBox="0 0 73 62" version="1.1" xmlns="http://www.w3.org/2000/svg" xmlns:xlink="http://www.w3.org/1999/xlink">
    <!-- Generator: sketchtool 52.5 (67469) - http://www.bohemiancoding.com/sketch -->
    <title>345C33FA-F20E-4C95-B54E-EC6FE3C59BFA</title>
    <desc>Created with sketchtool.</desc>
    <g id="Our-Services" stroke="none" stroke-width="1" fill="none" fill-rule="evenodd">
        <g id="2.0-CG_Marketing-Web_Membership" transform="translate(-138.000000, -2046.000000)" fill="#DB5967" stroke="#DB5967">
            <g id="Group-3" transform="translate(138.000000, 2003.000000)">
                <g id="consulting-message" transform="translate(0.583056, 44.000000)">
                    <path d="M57.631783,60.4709873 C57.2993889,60.4709873 56.9706016,60.3549617 56.706735,60.1312805 L42.3787351,47.981206 L10.635395,47.981206 C5.21682434,47.9810617 0.808564109,43.5469787 0.808564109,38.0966614 L0.808564109,9.88440033 C0.808564109,4.43408305 5.21682434,0 10.635395,0 L61.6731691,0 C67.0917398,0 71.5,4.43422736 71.5,9.88440033 L71.5,38.0966614 C71.5,43.5469787 67.0917398,47.9810617 61.6731691,47.9810617 L59.0660978,47.9810617 L59.0660978,59.0278828 C59.0660978,59.5893948 58.7425041,60.0998208 58.2362669,60.3363457 C58.0430917,60.426684 57.8367881,60.4709873 57.631783,60.4709873 Z M10.635395,2.88620911 C6.79901409,2.88620911 3.67791507,6.02553875 3.67791507,9.88440033 L3.67791507,38.0966614 C3.67791507,41.9553787 6.79901409,45.0948526 10.635395,45.0948526 L42.9027174,45.0948526 C43.2411706,45.0948526 43.5686595,45.2152075 43.827621,45.4345594 L56.1967468,55.9237649 L56.1967468,46.5379572 C56.1967468,45.7409305 56.8391733,45.0948526 57.6314944,45.0948526 L61.6731691,45.0948526 C65.50955,45.0948526 68.630649,41.9553787 68.630649,38.0966614 L68.630649,9.88440033 C68.630649,6.02553875 65.50955,2.88620911 61.6731691,2.88620911 L10.635395,2.88620911 Z" id="Shape" fill-rule="nonzero"></path>
                    <g id="Group" transform="translate(11.029013, 13.627265)">
                        <path d="M47.8342494,2.92508895 L1.56458531,2.92508895 C0.771315139,2.92508895 0.128263641,2.28516769 0.128263641,1.49605531 C0.128263641,0.706800036 0.771315139,0.0670216775 1.56458531,0.0670216775 L47.834105,0.0670216775 C48.6273751,0.0670216775 49.2704266,0.706800036 49.2704266,1.49605531 C49.2704266,2.28516769 48.6275196,2.92508895 47.8342494,2.92508895 Z" id="Path"></path>
                        <path d="M47.8342494,12.0757629 L1.56458531,12.0757629 C0.771315139,12.0757629 0.128263641,11.4358417 0.128263641,10.6467293 C0.128263641,9.85747402 0.771315139,9.21769566 1.56458531,9.21769566 L47.834105,9.21769566 C48.6273751,9.21769566 49.2704266,9.85747402 49.2704266,10.6467293 C49.2704266,11.4358417 48.6275196,12.0757629 47.8342494,12.0757629 Z" id="Path"></path>
                        <path d="M26.3371104,21.2265798 L0.917354025,21.2265798 C0.481545056,21.2265798 0.128263641,20.5866586 0.128263641,19.7975462 C0.128263641,19.0082909 0.481545056,18.3685125 0.917354025,18.3685125 L26.337031,18.3685125 C26.77284,18.3685125 27.1261214,19.008148 27.1261214,19.7975462 C27.1261214,20.5866586 26.7729194,21.2265798 26.3371104,21.2265798 Z" id="Path"></path>
                    </g>
                </g>
            </g>
        </g>
    </g>
</svg>