<svg width="64px" height="64px" viewBox="0 0 64 64" version="1.1" xmlns="http://www.w3.org/2000/svg" xmlns:xlink="http://www.w3.org/1999/xlink">
    <g id="Our-Services" stroke="none" stroke-width="1" fill="none" fill-rule="evenodd">
        <g id="2.0-CG_Marketing-Web_Membership" transform="translate(-117.000000, -370.000000)">
            <g id="Group-14" transform="translate(98.000000, 372.000000)">
                <g id="Group-5" transform="translate(21.000000, 0.000000)">
                    <path d="M29.7912587,-8.39160839e-05 C13.3374126,-8.39160839e-05 0.00020979021,13.3383776 0.00020979021,29.7905455 C0.00020979021,46.2435524 13.3374126,59.582014 29.7912587,59.582014 C46.2442657,59.582014 59.5818881,46.2435524 59.5818881,29.7905455 C59.5818881,13.3383776 46.2442657,-8.39160839e-05 29.7912587,-8.39160839e-05 Z" id="Stroke-1" stroke="#FFFFFF" stroke-width="4" stroke-linecap="round" stroke-linejoin="round"></path>
                    <path d="M31.4284196,26.9765874 C27.5363916,25.3238601 26.4119161,24.324 26.4119161,22.518965 C26.4119161,21.0747692 27.4445035,19.3872168 30.355972,19.3872168 C32.9313566,19.3872168 34.9063217,20.463021 34.9239441,20.4722517 C35.1316364,20.5897343 35.3645035,20.6522517 35.5956923,20.6522517 C36.1591888,20.6522517 36.6576503,20.290993 36.8645035,19.7316923 L37.5719161,17.8158881 C37.8182098,17.1177063 37.4443636,16.5093147 36.9677203,16.2911329 C35.3821259,15.5602238 32.2839441,14.9937902 32.2520559,14.9883357 C32.2021259,14.9786853 32.0284196,14.9396643 32.0284196,14.7244196 L32.0187692,11.9451189 C32.0187692,11.1080559 31.3587692,10.4266573 30.548979,10.4266573 L29.2801678,10.4266573 C28.4712168,10.4266573 27.8116364,11.1076364 27.8116364,11.9455385 L27.814993,14.8674965 C27.814993,15.0915524 27.5859021,15.1888951 27.5024056,15.2094545 C23.5910769,16.1967273 21.1466014,19.231972 21.1466014,23.0610629 C21.1466014,27.8346294 24.8707972,29.9916923 28.8916364,31.6108531 C32.1064615,32.9480559 33.4176503,34.3037203 33.4176503,36.2925315 C33.4176503,38.4563077 31.5605874,39.9676364 28.900028,39.9676364 C26.628,39.9676364 23.5528951,38.442042 23.5226853,38.4265175 C23.3259021,38.3274965 23.1173706,38.277986 22.902965,38.277986 C22.3180699,38.277986 21.8082797,38.6530909 21.6043636,39.2333706 L20.9292587,41.1714126 C20.6888392,41.8947692 21.0589091,42.4817622 21.5317762,42.7431608 C23.4203077,43.7853986 27.0744336,44.3958881 27.2368112,44.4227413 C27.2804476,44.4294545 27.5032448,44.5121119 27.5032448,44.7277762 L27.5032448,47.6367273 C27.5032448,48.4737902 28.1628252,49.1551888 28.9726154,49.1551888 L30.2842238,49.1551888 C31.0948531,49.1551888 31.7544336,48.4742098 31.7544336,47.6367273 L31.7544336,44.575049 C31.7544336,44.2888951 31.9537343,44.2637203 31.9948531,44.2532308 C36.1617063,43.2613427 38.7282797,40.030993 38.7282797,35.9753287 C38.7274406,31.8097343 36.5439441,29.1177063 31.4284196,26.9765874" id="Fill-3" fill="#FFFFFF"></path>
                </g>
            </g>
        </g>
    </g>
</svg>