<?xml version="1.0" encoding="UTF-8"?>
<svg width="54px" height="54px" viewBox="0 0 54 54" version="1.1" xmlns="http://www.w3.org/2000/svg" xmlns:xlink="http://www.w3.org/1999/xlink">
    <!-- Generator: sketchtool 52.5 (67469) - http://www.bohemiancoding.com/sketch -->
    <title>8A2B0186-4AB7-47E1-8401-9E0C03DC8EAD</title>
    <desc>Created with sketchtool.</desc>
    <g id="Our-Services" stroke="none" stroke-width="1" fill="none" fill-rule="evenodd">
        <g id="1.4-CG_Marketing-Web_Why-join" transform="translate(-1199.000000, -619.000000)" fill="#FFFFFF" stroke="#FFFFFF">
            <g id="Group-5" transform="translate(1200.000000, 593.000000)">
                <path d="M45.4057,68.23695 C43.3577,67.31045 41.2342,66.56045 39.0592,65.99595 C40.2907,62.08045 40.9462,58.00795 41.0052,53.90395 L41.0052,53.93945 L50.6787,53.93945 C50.4972,59.14695 48.6482,64.15845 45.4057,68.23695 Z M32.7357,76.61245 C35.3357,74.16045 37.3067,71.11745 38.4807,67.74145 C40.4342,68.21595 42.3472,68.84295 44.2022,69.61745 C41.1072,72.97295 37.1357,75.39645 32.7357,76.61245 Z M27.1322,77.41495 L27.1322,66.32595 C30.3697,66.36595 33.5957,66.70545 36.7702,67.34045 C34.5642,73.07345 31.0962,76.90745 27.1322,77.41495 Z M27.1322,53.93945 L39.2242,53.93945 C39.1792,57.94145 38.5512,61.91545 37.3602,65.73645 C33.9962,65.01845 30.5712,64.62345 27.1322,64.55645 L27.1322,53.93945 Z M27.1322,41.48195 C30.5692,41.43845 33.9942,41.06745 37.3602,40.37295 C38.5512,44.19395 39.1792,48.16795 39.2242,52.16995 L27.1322,52.16995 L27.1322,41.48195 Z M27.1322,28.62345 C31.0962,29.13095 34.5642,32.97645 36.7702,38.68645 C33.5962,39.32495 30.3702,39.66845 27.1322,39.71245 L27.1322,28.62345 Z M44.1902,36.43345 C42.3352,37.20745 40.4222,37.83445 38.4692,38.30895 C37.2997,34.92995 35.3327,31.88295 32.7357,29.42595 C37.1327,30.64745 41.1007,33.07495 44.1902,36.43345 Z M45.4057,37.87245 C48.6482,41.95095 50.4972,46.96245 50.6787,52.16995 L41.0052,52.16995 C40.9522,48.04645 40.2957,43.95295 39.0592,40.01945 C41.2312,39.48495 43.3542,38.76695 45.4057,37.87245 Z M25.3627,39.71245 C22.1257,39.67245 18.8992,39.33295 15.7252,38.69795 C17.9312,32.96495 21.3992,29.13095 25.3627,28.62345 L25.3627,39.71245 Z M25.3627,52.09945 L13.2712,52.09945 C13.3162,48.09745 13.9442,44.12295 15.1352,40.30245 C18.4992,41.01995 21.9237,41.41495 25.3627,41.48195 L25.3627,52.09945 Z M25.3627,64.48595 C21.9262,64.52945 18.5012,64.90095 15.1352,65.59445 C13.9547,61.80795 13.3267,57.87045 13.2712,53.90395 L13.2712,53.86895 L25.3627,53.86895 L25.3627,64.48595 Z M25.3627,77.41495 C21.3992,76.90745 17.9312,73.06195 15.7252,67.35245 C18.8987,66.71345 22.1252,66.36995 25.3627,66.32595 L25.3627,77.41495 Z M8.2927,69.60545 L8.2927,69.53495 C10.1477,68.76045 12.0612,68.13295 14.0147,67.65895 C15.1767,71.06445 17.1482,74.13695 19.7597,76.61245 C15.3582,75.39295 11.3862,72.96595 8.2927,69.60545 Z M7.0897,68.14295 C3.8467,64.06445 1.9987,59.05245 1.8167,53.84495 L11.4902,53.86895 C11.5457,57.98395 12.2017,62.06945 13.4367,65.99595 C11.2637,66.52995 9.1407,67.24845 7.0897,68.14295 Z M7.0897,37.80145 C9.1377,38.72795 11.2612,39.47795 13.4367,40.04295 C12.2052,43.95795 11.5492,48.03095 11.4902,52.13445 L11.4902,52.09945 L1.8167,52.09945 C1.9987,46.89195 3.8467,41.87995 7.0897,37.80145 Z M19.7597,29.42595 C17.1612,31.87495 15.1902,34.91395 14.0147,38.28545 C12.0612,37.81095 10.1477,37.18395 8.2927,36.40945 C11.3892,33.05795 15.3607,30.63895 19.7597,29.42595 Z M26.2477,26.77145 C11.7512,26.77145 -0.0003,38.52295 -0.0003,53.01945 C-0.0003,67.51545 11.7512,79.26695 26.2477,79.26695 C40.7442,79.26695 52.4957,67.51545 52.4957,53.01945 C52.4762,38.53095 40.7357,26.79095 26.2477,26.77145 Z" id="Fill-2"></path>
            </g>
        </g>
    </g>
</svg>