<?xml version="1.0" encoding="UTF-8"?>
<svg width="164px" height="452px" viewBox="0 0 164 452" version="1.1" xmlns="http://www.w3.org/2000/svg" xmlns:xlink="http://www.w3.org/1999/xlink">
    <!-- Generator: sketchtool 52.5 (67469) - http://www.bohemiancoding.com/sketch -->
    <title>6C90352C-F441-4EA1-ADEB-9E34B8BAA9BB</title>
    <desc>Created with sketchtool.</desc>
    <g id="Login/Signup-V2" stroke="none" stroke-width="1" fill="none" fill-rule="evenodd">
        <g id="1.2-CG_Marketing-Web_Signup" transform="translate(-1036.000000, -294.000000)">
            <g id="Group-363" transform="translate(1036.000000, 294.000000)">
                <path d="M46.0144574,153 C46.0144574,153 28.3301531,159.306986 26.9820662,159.36037 C25.6317162,159.408416 17.5175461,157.22652 13.8248292,158.773905 C11.0871643,159.918619 6.36093926,161.617768 5.61636079,162.507 C4.87253671,163.396231 8.99827088,163.223876 9.87260365,162.941701 C10.7469364,162.660289 13.2590401,163.547233 13.3970926,163.791276 C13.5321276,164.036082 7.30241233,165.126649 4.61453688,166.076128 C1.92741581,167.024083 0.515206201,167.967462 0.526521983,168.421992 C0.540100922,168.872709 5.57637836,168.593584 7.12060543,168.254975 C8.66256934,167.918653 1.58945112,169.899214 0.172715195,171.210945 C-1.24628389,172.521914 6.4884304,171.667763 8.4000432,171.070621 C10.3109016,170.468902 1.31334603,172.890266 0.767925336,173.919823 C0.223259022,174.947854 8.54639398,174.134123 10.6375505,173.585789 C12.7302158,173.037455 4.26902833,174.792276 3.82997598,175.525931 C3.39167802,176.259585 13.2794085,176.042234 16.6643361,175.544996 C19.7980534,175.085128 23.5269808,174.827357 29.7951697,169.167848 C30.9478707,168.128377 48,166.405586 48,166.405586 L46.0144574,153 Z" id="Fill-321" fill="#FAB9AF"></path>
                <path d="M112,91.9965058 C112,91.9965058 105.925349,81.2727033 100.311654,84.6623237 C95.9495538,87.2943089 72.5057175,135.250036 65.294899,143.287194 C63.2338029,145.588189 43.4489403,151.283358 43.4489403,151.283358 C43.4489403,151.283358 41.5960662,159.888363 45.4187506,167.55961 C46.7510697,170.232589 74.1624404,159.921007 76.307278,158.543143 C87.1929132,151.547544 98.660212,120.735021 98.660212,120.735021 L112,91.9965058 Z" id="Fill-323" fill="#A6425F"></path>
                <path d="M146.682828,439 C146.682828,439 151.026159,440.532833 158,440.424763 L157.852474,449.526923 C157.852474,449.526923 152.94249,450.112855 149.68102,449.640139 L148.412293,447.291266 L145.758329,449.767324 C145.758329,449.767324 130.153055,451.435429 122.101136,450.890666 C122.101136,450.890666 121.163776,448.23008 124.996438,447.017782 C128.8291,445.805484 137.566449,444.136644 140.041111,442.799367 C142.515017,441.461355 146.682828,439 146.682828,439" id="Fill-325" fill="#A6425F"></path>
                <path d="M158,425 L157.579585,436.792622 L157.445378,440.391846 C151.077608,442.360562 146.376668,438.919471 146.376668,438.919471 L146.266189,435.11823 L146,425.226985 L158,425 Z" id="Fill-327" fill="#FFCBB9"></path>
                <path d="M105.680611,440 C105.680611,440 110.026191,441.53013 117,441.424984 L116.853231,450.52856 C116.853231,450.52856 111.940244,451.111642 108.681058,450.638853 L107.412336,448.289614 L104.759142,450.768999 C104.759142,450.768999 89.1531823,452.437363 81.1013001,451.889574 C81.1013001,451.889574 80.1631873,449.22931 83.9965883,448.018294 C87.8262067,446.805807 96.5665426,445.137443 99.0419498,443.799223 C101.515844,442.461737 105.680611,440 105.680611,440" id="Fill-329" fill="#A6425F"></path>
                <path d="M118,426 L117.580311,437.761632 L117.446336,441.401705 C111.068838,443.345345 106.376758,439.931312 106.376758,439.931312 L106.264989,435.703838 L106,426.226796 L118,426 Z" id="Fill-331" fill="#FFCBB9"></path>
                <path d="M152.853131,177.634443 C150.649529,167.94354 117.896304,180.69967 117.896304,180.69967 C117.896304,180.69967 117.985262,182.730534 118.142824,186.100921 C112.226346,183.713406 108.923582,176.849206 98.3171939,179.199617 C98.3171939,179.199617 91,219.249745 91,259.636079 C91,272.325574 91.498317,292.329057 93.0324701,309.471005 C95.855764,340.952431 103.304888,429.944723 103.304888,429.944723 L121.50816,429.823568 C121.50816,429.823568 118.245352,341.123563 119.619682,309.283972 C120.346425,292.471414 123.661251,265.725643 124.957177,252.460662 C127.169072,266.800139 127.381667,292.879556 130.505006,310.285774 C136.082991,341.376474 144.526487,430 144.526487,430 L162,429.897775 C160.027841,409.137829 158.786194,327.819963 159.322206,309.895049 C160.417598,273.256197 163.084085,233.459738 160.643763,205.805302 C159.502384,192.878041 155.359794,188.670169 152.853131,177.634443" id="Fill-333" fill="#A6425F"></path>
                <path d="M126.342951,64 C126.342951,64 144.629355,64.9610976 155.503936,79.0711021 C174.605107,92.8746477 155.79181,163.100764 153.950317,180.196467 C153.950317,180.196467 124.58113,194.399016 98.8009763,181.763656 C98.8009763,181.763656 93.0352233,128.468634 94.1408709,114.347251 C94.7639721,106.369459 97.0459205,89.2070023 104.086438,77.8915388 C109.509447,69.1733902 115.632976,67.903558 126.342951,64" id="Fill-335" fill="#C96B86"></path>
                <path d="M125,252.544325 C125,252.544325 121.696524,236.628021 120.412732,225 C120.412732,225 118.336009,252.619423 123.499297,266 L125,252.544325 Z" id="Fill-337" fill="#90324D"></path>
                <path d="M120.004795,50.6631559 C120.004795,50.6631559 122.292439,65.5511006 120.098797,73.8589336 C119.675016,75.4704994 120.656646,77.13822 122.237733,77.665152 C128.44188,79.7344178 136.746437,71.6473577 140.818582,68.8965419 C141.667684,64.2341552 139.260611,46 139.260611,46 L120.004795,50.6631559 Z" id="Fill-339" fill="#FAB9AF"></path>
                <path d="M104.217383,13.017564 C104.217383,13.017564 109.289383,12.4303129 104.781864,19.8705877 C102.589017,23.4869372 105.705009,37.2677119 105.705009,37.2677119 C105.705009,37.2677119 110.997201,56.4039446 118.271885,54.9177012 C125.549596,53.4337223 138.282941,54.2587421 140.596857,49.969092 C142.913799,45.6801967 146.71534,16.6475002 134.14922,11.8641969 C121.581586,7.07862906 104.217383,13.017564 104.217383,13.017564" id="Fill-341" fill="#FAB9AF"></path>
                <path d="M107,39.2418934 C107,39.2418934 106.232132,40.050515 104.787024,39.9975029 C103.084861,39.9347843 103,39.1157096 103,39.1157096 L104.616478,32.5048732 C104.616478,32.5048732 105.599382,31.9754986 105.979197,32.0008847 C106.296395,32.0217909 107,32.5675918 107,32.5675918 L107,39.2418934 Z" id="Fill-343" fill="#FA978D"></path>
                <path d="M96,10.5888303 C96,17.1462175 101.709774,21.0937676 107.145267,21.7366935 C110.674462,22.1500575 114.204417,21.5711954 117.70398,20.9618266 C123.608259,19.9322299 128.398695,26.6932484 129.572561,31.6932752 C130.899903,37.3613958 125.088318,46.5278573 119.941543,43.5290615 C114.793249,40.5279777 106.989511,40.3609543 106.989511,40.3609543 C106.989511,40.3609543 103.999002,44.1948674 105.492737,50.8620782 C106.989511,57.5308143 123.758696,58.0295967 128.90623,53.6953758 C134.053765,49.3626803 132.063132,37.8609409 135.547499,33.52672 C139.037186,29.1940245 142.231316,35.7742915 142.023895,37.6962054 C141.738976,40.3739196 137.162799,42.3034601 137.162799,42.3034601 L140.261197,57 C146.904746,52.1647087 156.025189,14.3541037 140.32122,11.7267254 C137.180275,0.691736466 123.028544,0.0106772994 115.502127,0 C115.502127,0 96,0.079317081 96,10.5888303" id="Fill-345" fill="#1A4B69"></path>
                <polygon id="Fill-347" fill="#FFFFFF" points="121 76.2698549 141 69 122.067707 84"></polygon>
                <polygon id="Fill-349" fill="#FFFFFF" points="120.467864 75.6687199 112 81 121 65"></polygon>
                <polygon id="Fill-351" fill="#A6425F" points="112 81.0137581 120.909597 76 122 83.3823316 115.78393 86"></polygon>
                <path d="M114.620842,83.5993891 C114.620842,83.5993891 106,95.2401316 106,124.434387 C106,127.861548 110.470094,133 110.470094,133 L116.455972,124.721511 C116.455972,124.721511 116.18004,89.4472509 117.692882,83.5993891 C119.208667,77.7507636 114.620842,83.5993891 114.620842,83.5993891" id="Fill-353" fill="#A6425F"></path>
                <path d="M118,437.960904 L117.857909,441.429585 C111.094073,443.28243 106.117755,440.028425 106.117755,440.028425 L106,436 C108.983122,436.429353 114.126652,437.183602 118,437.960904" id="Fill-355" fill="#E6F7FF"></path>
                <path d="M158,436.708021 L157.857648,440.379534 C151.103421,442.38779 146.117971,438.878358 146.117971,438.878358 L146,435 C149.270153,435.55339 154.82265,436.455639 158,436.708021" id="Fill-357" fill="#E6F7FF"></path>
                <path d="M124.944144,152.592428 C118.980574,155.494266 108.437793,159.361089 108.437793,159.361089 C108.437793,159.361089 103.069899,154.520869 100.810569,154.311356 C98.548969,154.101842 92.3091323,157.151257 90.9247726,157.908258 C89.5404129,158.66526 92.7640258,159.802291 94.5518101,158.999411 C95.1588394,158.724902 99.0909053,157.781327 99.8160101,158.471039 C100.544142,159.158457 93.4739926,160.551646 89.6017214,161.734556 C85.7317208,162.916701 79.8347572,165.901886 80.0035447,166.592362 C80.3683677,168.111717 86.6415077,165.589145 87.6739116,165.206821 C88.8198495,164.780912 91.9087352,164.423057 91.9087352,164.423057 C91.9087352,164.423057 90.2382695,167.324895 92.0525451,167.869324 C92.0525451,167.869324 91.9700437,170.908034 93.5943388,170.919504 C93.5943388,170.919504 94.4102709,173.270796 96.9360272,172.974112 C99.4640542,172.678958 106.133807,173.526953 110.05679,168.48563 C110.05679,168.48563 127.000626,166.117516 132.120259,162.140584 C137.241406,158.166709 130.909985,149.693648 124.944144,152.592428" id="Fill-359" fill="#FAB9AF"></path>
                <path d="M135.506871,106.833203 C139.132264,116.975249 142.815573,136.288245 143.634671,141.319663 C144.694459,147.843902 126.008642,150.377129 126.008642,150.377129 L125,167 C125,167 150.60039,161.698199 156.992966,156.592902 C161.823313,147.198028 162.935752,116.205989 156.686086,98.7057039 C152.395035,86.6915378 142.113811,80.7849917 135.894231,88.4143756 C131.61371,93.6636233 134.526059,104.095856 135.506871,106.833203" id="Fill-361" fill="#A6425F"></path>
            </g>
        </g>
    </g>
</svg>