<svg width="80" height="80" viewBox="0 0 80 80" fill="none" xmlns="http://www.w3.org/2000/svg">
<path d="M7.49925 77.7126C4.90039 77.7126 2.48548 76.3598 1.11915 74.1347C-0.247184 71.9107 -0.369705 69.1338 0.791595 66.7968L33.2922 6.45392C34.5623 3.89937 37.1598 2.28516 39.9999 2.28516C42.84 2.28516 45.4387 3.89937 46.7075 6.45509L79.2082 66.7979C80.3706 69.1363 80.2469 71.9132 78.8781 74.1358C77.5131 76.361 75.0994 77.7137 72.498 77.7137H7.49925V77.7126Z" fill="white"/>
<path d="M35.1338 25.9136C34.9988 24.2719 35.9501 22.9707 37.5152 22.9707H42.4152C43.9803 22.9707 45.0003 24.2719 44.864 25.9136L44.434 48.8099C44.3002 50.3134 41.3264 51.274 39.9651 51.274C38.6026 51.274 35.8199 50.3136 35.6838 48.8099L35.1338 25.9136ZM39.9676 56.271C42.7564 56.271 44.7989 58.3265 44.7989 60.9955V61.678C44.7989 64.3494 42.7564 66.4024 39.9676 66.4024C37.245 66.4024 35.135 64.3494 35.135 61.678V60.9955C35.1338 58.3265 37.245 56.271 39.9676 56.271Z" fill="#C3002F"/>
</svg>
