<svg width="22" height="22" viewBox="0 0 22 22" fill="none" xmlns="http://www.w3.org/2000/svg">
<path fill-rule="evenodd" clip-rule="evenodd" d="M0 11.5569C0 5.49149 4.93454 0.556946 10.9999 0.556946C17.0654 0.556946 22 5.49149 22 11.5569C22 15.6496 19.7492 19.3795 16.1259 21.2909L15.8372 21.4431H6.1627L5.87404 21.2909C2.25083 19.3795 0 15.6497 0 11.5569ZM13.1345 18.8074H15.1721C16.9801 17.7662 18.3035 16.1145 18.9401 14.1911C17.8363 14.0335 16.7315 13.909 15.6266 13.8173C16.045 12.5656 16.284 11.3353 16.3528 10.0779C17.3225 10.3053 18.2528 10.6354 19.0842 11.1141C19.1815 11.1701 19.2731 11.2281 19.3595 11.2873C19.2166 6.79963 15.5219 3.19274 11.0001 3.19274C6.47875 3.19274 2.7844 6.79894 2.64086 11.286C3.51144 10.6913 4.5499 10.3041 5.64624 10.0525C5.71313 11.3193 5.95265 12.5579 6.37411 13.8184C5.26918 13.9104 4.16469 14.0353 3.06091 14.1932C3.69758 16.1156 5.02067 17.7664 6.82802 18.8073H8.86553L9.32153 15.5435C9.01961 15.4895 8.71351 15.4218 8.4008 15.3381C8.24044 15.2954 8.10776 15.1828 8.03942 15.0315C7.01876 12.7722 6.61327 10.6641 6.76328 8.39729C6.77888 8.16334 6.93992 7.96469 7.16553 7.90121C8.47769 7.53221 9.73195 7.35279 11 7.35279C12.2682 7.35279 13.5224 7.53228 14.8347 7.90121C15.0602 7.96469 15.2212 8.16341 15.2368 8.39729C15.3868 10.6641 14.9814 12.7722 13.9607 15.0315C13.8924 15.1827 13.7597 15.2953 13.5995 15.3381C13.2867 15.4218 12.9805 15.4895 12.6785 15.5437L13.1345 18.8074ZM10.9999 12.4669C11.81 12.4669 12.4666 11.8103 12.4666 11.0003C12.4666 10.1902 11.81 9.53359 10.9999 9.53359C10.1899 9.53359 9.53328 10.1902 9.53328 11.0003C9.53328 11.8103 10.1899 12.4669 10.9999 12.4669Z" fill="white"/>
</svg>
