<svg width="80" height="80" viewBox="0 0 80 80" fill="none" xmlns="http://www.w3.org/2000/svg">
<g clip-path="url(#clip0)">
<path d="M72.5 0H37.5C35.5109 0 33.6032 0.790176 32.1967 2.1967C30.7902 3.60322 30 5.51088 30 7.5V30H7.5C5.51088 30 3.60322 30.7902 2.1967 32.1967C0.790176 33.6032 0 35.5109 0 37.5L0 72.5C0 74.4891 0.790176 76.3968 2.1967 77.8033C3.60322 79.2098 5.51088 80 7.5 80H72.5C74.4891 80 76.3968 79.2098 77.8033 77.8033C79.2098 76.3968 80 74.4891 80 72.5V7.5C80 5.51088 79.2098 3.60322 77.8033 2.1967C76.3968 0.790176 74.4891 0 72.5 0V0ZM5 47.6H6.25V62.4H5V47.6ZM7.5 75C6.83696 75 6.20107 74.7366 5.73223 74.2678C5.26339 73.7989 5 73.163 5 72.5V67.4H8.75C9.41304 67.4 10.0489 67.1366 10.5178 66.6678C10.9866 66.1989 11.25 65.563 11.25 64.9V45.1C11.25 44.437 10.9866 43.8011 10.5178 43.3322C10.0489 42.8634 9.41304 42.6 8.75 42.6H5V37.5C5 36.837 5.26339 36.2011 5.73223 35.7322C6.20107 35.2634 6.83696 35 7.5 35H30V72.5C30.0028 73.3521 30.1507 74.1976 30.4375 75H7.5ZM47.6 5H62.4V6.25H47.6V5ZM75 72.5C75 73.163 74.7366 73.7989 74.2678 74.2678C73.7989 74.7366 73.163 75 72.5 75H37.5C36.837 75 36.2011 74.7366 35.7322 74.2678C35.2634 73.7989 35 73.163 35 72.5V7.5C35 6.83696 35.2634 6.20107 35.7322 5.73223C36.2011 5.26339 36.837 5 37.5 5H42.6V8.75C42.6 9.41304 42.8634 10.0489 43.3322 10.5178C43.8011 10.9866 44.437 11.25 45.1 11.25H64.9C65.563 11.25 66.1989 10.9866 66.6678 10.5178C67.1366 10.0489 67.4 9.41304 67.4 8.75V5H72.5C73.163 5 73.7989 5.26339 74.2678 5.73223C74.7366 6.20107 75 6.83696 75 7.5V72.5Z" fill="white"/>
<path d="M5.62523 28.7494C6.28827 28.7494 6.92416 28.486 7.393 28.0171C7.86184 27.5483 8.12523 26.9124 8.12523 26.2494C8.11281 23.1182 9.27598 20.0964 11.3847 17.7817C13.4934 15.467 16.394 14.028 19.5127 13.7494L17.9752 15.5369C17.7618 15.7864 17.5996 16.0755 17.498 16.3876C17.3963 16.6998 17.3571 17.029 17.3826 17.3563C17.4082 17.6836 17.4979 18.0027 17.6468 18.2954C17.7957 18.588 18.0007 18.8485 18.2502 19.0619C18.7031 19.4491 19.2794 19.6619 19.8752 19.6619C20.2354 19.6634 20.5916 19.5872 20.9195 19.4383C21.2474 19.2894 21.5393 19.0715 21.7752 18.7994L27.1127 12.5494C27.3261 12.2999 27.4883 12.0108 27.59 11.6986C27.6917 11.3864 27.7309 11.0572 27.7053 10.7299C27.6798 10.4026 27.59 10.0835 27.4412 9.79084C27.2923 9.4982 27.0873 9.23775 26.8377 9.02436L20.6127 3.74936C20.3755 3.48638 20.0852 3.2768 19.7608 3.13451C19.4365 2.99221 19.0857 2.92044 18.7316 2.92395C18.3774 2.92746 18.0281 3.00618 17.7067 3.15488C17.3852 3.30358 17.0991 3.51887 16.8671 3.7865C16.6352 4.05413 16.4627 4.36799 16.3612 4.70728C16.2597 5.04657 16.2315 5.40356 16.2783 5.7546C16.3252 6.10564 16.4461 6.44272 16.633 6.74351C16.82 7.0443 17.0687 7.30194 17.3627 7.49936L18.8502 8.74936C14.5231 9.19047 10.5153 11.2272 7.60811 14.4625C4.70095 17.6978 3.10281 21.8998 3.12523 26.2494C3.12523 26.9124 3.38862 27.5483 3.85747 28.0171C4.32631 28.486 4.96219 28.7494 5.62523 28.7494Z" fill="white"/>
</g>
<defs>
<clipPath id="clip0">
<rect width="80" height="80" fill="white"/>
</clipPath>
</defs>
</svg>
