<svg xmlns="http://www.w3.org/2000/svg" xmlns:xlink="http://www.w3.org/1999/xlink" width="3860.426" height="1448.222" viewBox="0 0 3860.426 1448.222">
  <defs>
    <clipPath id="clip-path">
      <rect id="Rectangle_49" data-name="Rectangle 49" width="3860.426" height="1448.221" transform="translate(0 3559.608)" fill="none"/>
    </clipPath>
  </defs>
  <g id="Group_124" data-name="Group 124" transform="translate(0 -3559.608)">
    <g id="Group_123" data-name="Group 123" clip-path="url(#clip-path)">
      <g id="Group_122" data-name="Group 122" opacity="0.77">
        <g id="Group_120" data-name="Group 120" opacity="0.45">
          <path id="Path_207" data-name="Path 207" d="M50.893,3591.046c50.419,159.514,444.088,327.4,601.533,383.945,327.649,117.682,689.777,62.258,1035.012,107.15,357.292,46.46,691.548,199.962,1008.63,371.063,157.68,85.087,317.024,176.543,493.926,204.978,237.675,38.2,478.778-42.186,695.077-147.842" fill="none" stroke="#770c44" stroke-miterlimit="10" stroke-width="6.318" opacity="0"/>
          <path id="Path_208" data-name="Path 208" d="M48.088,3603.416c32.079,95.622,186.394,192.612,338.512,266.527,100.557,48.883,200.246,87.718,263.421,109.5A1198.423,1198.423,0,0,0,798.7,4020.4c172.72,36.328,352.272,39.857,531.092,46.519,117.084,4.371,233.845,10.059,349.154,26.374,195.558,28.388,385.978,85.515,570.185,158.353,151.689,59.968,299.324,130.68,443.587,205.181,30.1,15.542,60.251,31.32,90.574,46.882,129.725,66.6,262.645,129.287,406.523,152.7a842.063,842.063,0,0,0,156.032,10.307c186.269-4.531,369.92-65.454,540.258-145.229" fill="none" stroke="#790c47" stroke-miterlimit="10" stroke-width="6.341" opacity="0.024"/>
          <path id="Path_209" data-name="Path 209" d="M45.283,3615.787C79.093,3711.014,233,3805.944,384.535,3877.8c100.13,47.524,199.484,84.8,263.08,106.1a1286.859,1286.859,0,0,0,148.353,39.84c172.308,35.618,351.2,40.584,528.523,49.62,116.114,5.935,231.6,13.162,345.97,31.088,195.271,30.606,386.978,87.872,572.329,158.427,152.652,58.087,301.24,125.838,446.587,197.579,30.322,14.966,60.7,30.174,91.253,45.2,130.665,64.288,264.651,125.211,409.015,148.991a901.976,901.976,0,0,0,156.426,11.571c186.556-1.972,369.545-56.646,541.075-133.574" fill="none" stroke="#7c0c4a" stroke-miterlimit="10" stroke-width="6.364" opacity="0.049"/>
          <path id="Path_210" data-name="Path 210" d="M42.479,3628.158c35.539,94.831,189.047,187.7,339.992,257.5,99.7,46.164,198.674,82.014,262.739,102.7a1366.529,1366.529,0,0,0,148.021,38.725c171.9,34.907,350.127,41.309,525.954,52.721,115.145,7.5,229.331,16.483,342.787,35.8,194.941,33.192,387.977,90.229,574.472,158.5,153.617,56.206,303.157,121,449.587,189.975,30.548,14.39,61.158,29.029,91.933,43.51,131.6,61.978,266.656,121.136,411.506,145.282a970.536,970.536,0,0,0,156.821,12.835c186.844.588,369.17-47.838,541.892-121.918" fill="none" stroke="#7e0c4d" stroke-miterlimit="10" stroke-width="6.387" opacity="0.073"/>
          <path id="Path_211" data-name="Path 211" d="M39.674,3640.529c37.269,94.436,190.374,185.247,340.733,252.983,99.274,44.8,197.86,79.229,262.4,99.294a1456.334,1456.334,0,0,0,147.691,37.61c171.486,34.2,349.055,42.035,523.384,55.822,114.175,9.064,227.063,19.817,339.6,40.515,194.616,35.793,388.975,92.586,576.614,158.576,154.581,54.325,305.074,116.153,452.588,182.372,30.774,13.814,61.61,27.885,92.611,41.825,132.547,59.668,268.663,117.06,414,141.572a1049.636,1049.636,0,0,0,157.216,14.1c187.132,3.148,368.8-39.029,542.709-110.262" fill="none" stroke="#800c50" stroke-miterlimit="10" stroke-width="6.409" opacity="0.098"/>
          <path id="Path_212" data-name="Path 212" d="M36.869,3652.9c39,94.04,191.7,182.793,341.474,248.469,98.846,43.445,197.042,76.448,262.055,95.891q72.921,21.809,147.361,36.495c171.074,33.487,347.982,42.76,520.814,58.923,113.206,10.628,224.8,23.161,336.422,45.228,194.3,38.411,389.975,94.943,578.758,158.65,155.545,52.444,306.99,111.311,455.587,174.769,31,13.238,62.064,26.74,93.291,40.14,133.487,57.358,270.668,112.985,416.489,137.862a1141.877,1141.877,0,0,0,157.611,15.362c187.42,5.708,368.421-30.221,543.526-98.606" fill="none" stroke="#830b52" stroke-miterlimit="10" stroke-width="6.432" opacity="0.122"/>
          <path id="Path_213" data-name="Path 213" d="M34.065,3665.27c40.728,93.646,193.027,180.339,342.213,243.955,98.42,42.086,196.221,73.672,261.715,92.489,48.535,13.944,97.446,25.853,147.029,35.379,170.664,32.777,346.91,43.486,518.245,62.024,112.237,12.192,222.535,26.518,333.24,49.942,193.984,41.046,390.973,97.3,580.9,158.725,156.51,50.562,308.908,106.468,458.588,167.166,31.227,12.662,62.517,25.594,93.97,38.453,134.427,55.049,272.674,108.91,418.98,134.153a1251.108,1251.108,0,0,0,158.006,16.626c187.707,8.267,368.046-21.413,544.343-86.95" fill="none" stroke="#850b55" stroke-miterlimit="10" stroke-width="6.455" opacity="0.146"/>
          <path id="Path_214" data-name="Path 214" d="M31.26,3677.641c42.458,93.25,194.355,177.884,342.954,239.441,97.992,40.726,195.4,70.9,261.373,89.086,48.454,13.355,97.24,24.944,146.7,34.264,170.252,32.066,345.838,44.212,515.675,65.125,111.268,13.756,220.274,29.885,330.057,54.655,193.675,43.7,391.972,99.657,583.043,158.8,157.474,48.682,310.825,101.626,461.588,159.563,31.454,12.086,62.97,24.449,94.649,36.768,135.368,52.739,274.68,104.834,421.473,130.443a1381.4,1381.4,0,0,0,158.4,17.889c188,10.827,367.672-12.6,545.16-75.294" fill="none" stroke="#880b58" stroke-miterlimit="10" stroke-width="6.478" opacity="0.171"/>
          <path id="Path_215" data-name="Path 215" d="M28.455,3690.012c44.189,92.854,195.682,175.429,343.695,234.926,97.564,39.367,194.566,68.136,261.031,85.684,48.369,12.77,97.033,24.035,146.369,33.148,169.841,31.357,344.765,44.938,513.105,68.226,110.3,15.321,218.013,33.266,326.875,59.369,193.368,46.367,392.971,102.014,585.185,158.873,158.439,46.8,312.742,96.784,464.589,151.96,31.679,11.51,63.423,23.3,95.328,35.082,136.308,50.43,276.686,100.759,423.964,126.734a1540.685,1540.685,0,0,0,158.8,19.153c188.283,13.387,367.3-3.8,545.977-63.638" fill="none" stroke="#8a0b5b" stroke-miterlimit="10" stroke-width="6.501" opacity="0.195"/>
          <path id="Path_216" data-name="Path 216" d="M25.651,3702.383c45.918,92.459,197.008,172.975,344.435,230.412,97.136,38.007,193.733,65.375,260.69,82.28,48.282,12.191,96.826,23.128,146.038,32.034,169.429,30.646,343.692,45.663,510.536,71.327,109.328,16.885,215.753,36.657,323.691,64.082,193.065,49.054,393.97,104.371,587.329,158.948,159.4,44.919,314.658,91.941,467.588,144.356,31.906,10.934,63.876,22.16,96.008,33.4,137.249,48.12,278.691,96.683,426.455,123.024,53.436,9.528,106.647,15.984,159.19,20.417,188.571,15.946,366.922,5.012,546.794-51.983" fill="none" stroke="#8c0b5e" stroke-miterlimit="10" stroke-width="6.524" opacity="0.22"/>
          <path id="Path_217" data-name="Path 217" d="M22.846,3714.754c47.648,92.063,198.335,170.52,345.175,225.9,96.709,36.648,192.9,62.62,260.349,78.878,48.193,11.616,96.619,22.219,145.707,30.919,169.019,29.935,342.62,46.388,507.967,74.427,108.359,18.45,213.493,40.061,320.508,68.8,192.764,51.76,394.969,106.728,589.472,159.022,160.367,43.038,316.576,87.1,470.589,136.754,32.132,10.358,64.329,21.014,96.687,31.71,138.189,45.811,280.7,92.609,428.946,119.315,53.617,9.661,106.964,16.535,159.585,21.68,188.858,18.507,366.548,13.821,547.612-40.326" fill="none" stroke="#8f0b61" stroke-miterlimit="10" stroke-width="6.546" opacity="0.244"/>
          <path id="Path_218" data-name="Path 218" d="M20.041,3727.125c49.378,91.668,199.662,168.065,345.916,221.383,96.281,35.288,192.06,59.871,260.007,75.475,48.1,11.046,96.413,21.31,145.377,29.8,168.607,29.225,341.548,47.114,505.4,77.529,107.39,20.013,211.234,43.476,317.326,73.509,192.463,54.484,395.968,109.085,591.614,159.1,161.332,41.157,318.493,82.256,473.589,129.15,32.359,9.782,64.783,19.869,97.366,30.025,139.13,43.5,282.7,88.533,431.438,115.6,53.8,9.795,107.282,17.087,159.98,22.944,189.146,21.066,366.173,22.629,548.429-28.67" fill="none" stroke="#910b64" stroke-miterlimit="10" stroke-width="6.569" opacity="0.268"/>
          <path id="Path_219" data-name="Path 219" d="M17.237,3739.5c51.107,91.273,200.988,165.611,346.656,216.869,95.854,33.929,191.218,57.128,259.666,72.073,48.007,10.481,96.206,20.4,145.046,28.688,168.2,28.515,340.475,47.84,502.827,80.629,106.421,21.578,208.974,46.9,314.143,78.223,192.163,57.226,396.967,111.442,593.758,159.171,162.295,39.276,320.409,77.414,476.589,121.547,32.585,9.206,65.235,18.725,98.045,28.339,140.07,41.192,284.709,84.458,433.93,111.9,53.977,9.928,107.6,17.638,160.374,24.208,189.434,23.626,365.8,31.437,549.246-17.015" fill="none" stroke="#930b67" stroke-miterlimit="10" stroke-width="6.592" opacity="0.293"/>
          <path id="Path_220" data-name="Path 220" d="M14.432,3751.866c52.838,90.878,202.315,163.156,347.4,212.355,95.427,32.569,190.375,54.39,259.325,68.669,47.912,9.923,96,19.494,144.716,27.573,167.784,27.805,339.4,48.566,500.257,83.731,105.451,23.142,206.713,50.341,310.961,82.936,191.861,59.988,397.966,113.8,595.9,159.245,163.26,37.4,322.326,72.572,479.589,113.944q49.218,12.946,98.725,26.654c141.01,38.882,286.714,80.382,436.421,108.186,54.157,10.061,107.916,18.19,160.769,25.471,189.722,26.186,365.423,40.246,550.063-5.358" fill="none" stroke="#960a69" stroke-miterlimit="10" stroke-width="6.615" opacity="0.317"/>
          <path id="Path_221" data-name="Path 221" d="M11.627,3764.237c54.568,90.482,203.642,160.7,348.137,207.84,95,31.21,189.528,51.66,258.984,65.267,47.813,9.368,95.792,18.585,144.384,26.458,167.373,27.094,338.331,49.291,497.688,86.831,104.482,24.707,204.451,53.792,307.778,87.65,191.559,62.769,398.965,116.156,598.043,159.32,164.225,35.513,324.244,67.729,482.59,106.341q49.556,12.081,99.4,24.967c141.951,36.572,288.72,76.307,438.912,104.477,54.338,10.194,108.234,18.741,161.164,26.735,190.009,28.746,365.049,49.054,550.88,6.3" fill="none" stroke="#980a6c" stroke-miterlimit="10" stroke-width="6.638" opacity="0.341"/>
          <path id="Path_222" data-name="Path 222" d="M8.822,3776.608c56.3,90.087,204.969,158.247,348.878,203.326,94.571,29.85,188.679,48.934,258.642,61.864,47.715,8.818,95.585,17.676,144.054,25.342,166.962,26.384,337.258,50.017,495.118,89.933,103.513,26.271,202.187,57.253,304.6,92.363,191.253,65.57,399.963,118.513,600.185,159.394,165.189,33.633,326.161,62.887,485.591,98.738q49.894,11.217,100.082,23.282c142.892,34.262,290.726,72.232,441.4,100.767,54.518,10.328,108.551,19.293,161.559,28,190.3,31.3,364.674,57.862,551.7,17.953" fill="none" stroke="#9a0a6f" stroke-miterlimit="10" stroke-width="6.661" opacity="0.366"/>
          <path id="Path_223" data-name="Path 223" d="M6.018,3788.979c58.027,89.691,206.3,155.792,349.618,198.811,94.143,28.491,187.828,46.217,258.3,58.462,47.614,8.273,95.379,16.767,143.724,24.227,166.55,25.674,336.185,50.742,492.549,93.033,102.543,27.835,199.92,60.726,301.412,97.077,190.945,68.389,400.963,120.87,602.329,159.469,166.153,31.751,328.077,58.044,488.59,91.134q50.235,10.354,100.762,21.6c143.832,31.953,292.732,68.157,443.9,97.058,54.7,10.461,108.869,19.844,161.954,29.262,190.585,33.866,364.3,66.671,552.514,29.61" fill="none" stroke="#9d0a72" stroke-miterlimit="10" stroke-width="6.683" opacity="0.39"/>
          <path id="Path_224" data-name="Path 224" d="M3.213,3801.35c59.757,89.3,207.623,153.337,350.358,194.3,93.716,27.131,186.977,43.505,257.96,55.058,47.512,7.734,95.172,15.86,143.392,23.112,166.14,24.964,335.114,51.469,489.98,96.135,101.574,29.4,197.651,64.209,298.229,101.79,190.632,71.228,401.962,123.227,604.472,159.543,167.117,29.87,329.994,53.2,491.591,83.531q50.574,9.491,101.441,19.911c144.772,29.643,294.737,64.081,446.387,93.348,54.878,10.594,109.186,20.4,162.348,30.526,190.873,36.425,363.925,75.479,553.331,41.265" fill="none" stroke="#9f0a75" stroke-miterlimit="10" stroke-width="6.706" opacity="0.415"/>
          <path id="Path_225" data-name="Path 225" d="M.408,3813.72c61.487,88.9,208.95,150.883,351.1,189.783,93.288,25.772,186.122,40.8,257.618,51.656,47.409,7.2,94.965,14.951,143.062,22,165.728,24.253,334.041,52.194,487.41,99.235,100.6,30.964,195.38,67.7,295.047,106.5,190.313,74.087,402.96,125.584,606.614,159.617,168.082,27.989,331.912,48.36,494.591,75.929q50.914,8.625,102.12,18.224c145.714,27.334,296.744,60.006,448.879,89.639,55.059,10.728,109.5,20.947,162.743,31.79,191.16,38.985,363.55,84.287,554.148,52.921" fill="none" stroke="#a20a78" stroke-miterlimit="10" stroke-width="6.729" opacity="0.439"/>
          <path id="Path_226" data-name="Path 226" d="M-2.4,3826.091C60.821,3914.6,207.88,3974.52,349.443,4011.36c92.861,24.412,185.267,38.1,257.276,48.253,47.306,6.668,94.759,14.042,142.732,20.882,165.317,23.542,332.968,52.919,484.84,102.336,99.635,32.528,193.1,71.209,291.864,111.217,189.989,76.965,403.96,127.941,608.758,159.692,169.046,26.108,333.828,43.517,497.591,68.325q51.252,7.761,102.8,16.539c146.654,25.024,298.749,55.93,451.37,85.929,55.239,10.861,109.821,21.5,163.138,33.053,191.448,41.545,363.175,93.1,554.966,64.578" fill="none" stroke="#a40a7b" stroke-miterlimit="10" stroke-width="6.752" opacity="0.463"/>
          <path id="Path_227" data-name="Path 227" d="M-5.2,3838.462c64.947,88.11,211.6,145.974,352.58,180.754,92.433,23.053,184.41,35.413,256.935,44.851,47.2,6.142,94.551,13.133,142.4,19.766,164.9,22.832,331.9,53.645,482.27,105.437,98.666,34.092,190.826,74.724,288.682,115.931,189.657,79.863,404.958,130.3,610.9,159.766,170.01,24.227,335.745,38.675,500.591,60.722q51.593,6.9,103.479,14.853c147.594,22.715,300.755,51.856,453.861,82.22,55.42,10.994,110.138,22.05,163.533,34.317,191.736,44.1,362.8,101.9,555.783,76.233" fill="none" stroke="#a60a7e" stroke-miterlimit="10" stroke-width="6.775" opacity="0.488"/>
          <path id="Path_228" data-name="Path 228" d="M-8.006,3850.833c66.677,87.715,212.93,143.519,353.32,176.24,92.006,21.693,183.553,32.729,256.594,41.448,47.1,5.621,94.345,12.224,142.07,18.651,164.495,22.122,330.824,54.37,479.7,108.538,97.7,35.656,188.543,78.249,285.5,120.644,189.318,82.78,405.958,132.655,613.043,159.841,170.975,22.345,337.662,33.832,503.592,53.118q51.932,6.034,104.158,13.168c148.534,20.405,302.76,47.78,456.352,78.51,55.6,11.128,110.456,22.6,163.928,35.581,192.024,46.664,362.426,110.712,556.6,87.889" fill="none" stroke="#a90980" stroke-miterlimit="10" stroke-width="6.798" opacity="0.512"/>
          <path id="Path_229" data-name="Path 229" d="M-10.81,3863.2c68.406,87.319,214.256,141.064,354.06,171.725,91.578,20.334,182.7,30.053,256.252,38.045,46.991,5.106,94.139,11.317,141.74,17.536,164.083,21.412,329.751,55.1,477.131,111.639,96.727,37.221,186.256,81.785,282.317,125.358,188.969,85.716,406.956,135.011,615.186,159.915,171.939,20.464,339.579,28.99,506.591,45.516q52.272,5.169,104.837,11.481c149.475,18.1,304.767,43.705,458.845,74.8,55.78,11.261,110.773,23.153,164.322,36.845,192.312,49.223,362.051,119.52,557.417,99.544" fill="none" stroke="#ab0983" stroke-miterlimit="10" stroke-width="6.82" opacity="0.537"/>
          <path id="Path_230" data-name="Path 230" d="M-13.615,3875.575c70.136,86.923,215.583,138.609,354.8,167.211,91.15,18.974,181.836,27.384,255.911,34.642,46.884,4.594,93.931,10.408,141.409,16.421,163.672,20.7,328.678,55.822,474.562,114.74,95.757,38.785,183.962,85.329,279.133,130.071,188.612,88.671,407.955,137.368,617.329,159.989,172.9,18.584,341.5,24.148,509.592,37.913q52.611,4.305,105.516,9.8c150.416,15.786,306.772,39.629,461.336,71.091,55.96,11.394,111.09,23.7,164.717,38.108,192.6,51.784,361.676,128.329,558.234,111.2" fill="none" stroke="#ad0986" stroke-miterlimit="10" stroke-width="6.843" opacity="0.561"/>
          <path id="Path_231" data-name="Path 231" d="M-16.42,3887.945c71.866,86.529,216.911,136.156,355.541,162.7,90.723,17.615,180.977,24.723,255.57,31.24,46.778,4.086,93.725,9.5,141.078,15.3,163.261,19.991,327.607,56.548,471.993,117.841,94.788,40.35,181.665,88.883,275.95,134.785,188.244,91.644,408.955,139.725,619.472,160.064,173.868,16.7,343.413,19.305,512.592,30.309q52.952,3.441,106.2,8.11c151.356,13.477,308.778,35.554,463.827,67.382,56.141,11.528,111.408,24.256,165.112,39.372,192.887,54.343,361.3,137.137,559.051,122.857" fill="none" stroke="#b00989" stroke-miterlimit="10" stroke-width="6.866" opacity="0.585"/>
          <path id="Path_232" data-name="Path 232" d="M-19.224,3900.316c73.6,86.133,218.237,133.7,356.281,158.182,90.295,16.256,180.118,22.07,255.228,27.838,46.672,3.583,93.518,8.59,140.748,14.19,162.849,19.281,326.534,57.273,469.423,120.942,93.819,41.913,179.362,92.444,272.768,139.5,187.864,94.637,409.953,142.082,621.614,160.138,174.832,14.821,345.33,14.463,515.593,22.706q53.289,2.578,106.875,6.425c152.3,11.167,310.783,31.479,466.318,63.672,56.321,11.661,111.726,24.808,165.507,40.636,193.175,56.9,360.927,145.945,559.868,134.512" fill="none" stroke="#b2098c" stroke-miterlimit="10" stroke-width="6.889" opacity="0.61"/>
          <path id="Path_233" data-name="Path 233" d="M-22.029,3912.687c75.326,85.738,219.564,131.246,357.022,153.668,89.868,14.9,179.259,19.424,254.887,24.434,46.566,3.086,93.311,7.683,140.417,13.075,162.438,18.571,325.461,58,466.853,124.043,92.85,43.478,177.054,96.015,269.585,144.212,187.473,97.647,410.952,144.439,623.758,160.213,175.8,12.939,347.247,9.62,518.592,15.1q53.629,1.713,107.554,4.738c153.237,8.857,312.79,27.4,468.811,59.963,56.5,11.794,112.042,25.359,165.9,41.9,193.463,59.463,360.552,154.754,560.685,146.169" fill="none" stroke="#b5098f" stroke-miterlimit="10" stroke-width="6.912" opacity="0.634"/>
          <path id="Path_234" data-name="Path 234" d="M-24.834,3925.058c77.056,85.342,220.891,128.791,357.763,149.153,89.44,13.537,178.4,16.786,254.545,21.032,46.46,2.591,93.1,6.774,140.087,11.96,162.026,17.86,324.389,58.725,464.283,127.143,91.88,45.043,174.74,99.595,266.4,148.926,187.067,100.675,411.951,146.8,625.9,160.287,176.761,11.059,349.164,4.778,521.593,7.5q53.969.849,108.233,3.053c154.178,6.547,314.8,23.328,471.3,56.253,56.681,11.928,112.36,25.911,166.3,43.163,193.75,62.023,360.178,163.562,561.5,157.824" fill="none" stroke="#b70992" stroke-miterlimit="10" stroke-width="6.935" opacity="0.659"/>
          <path id="Path_235" data-name="Path 235" d="M-27.639,3937.429c78.786,84.947,222.218,126.336,358.5,144.639,89.013,12.177,177.543,14.155,254.2,17.629,46.355,2.1,92.9,5.865,139.755,10.845,161.616,17.149,323.317,59.45,461.714,130.244,90.911,46.607,172.419,103.18,263.22,153.639,186.65,103.721,412.95,149.153,628.043,160.361,177.725,9.178,351.081-.065,524.593-.1q54.309-.015,108.913,1.368c155.118,4.237,316.8,19.252,473.793,52.543,56.862,12.061,112.677,26.462,166.691,44.427,194.038,64.582,359.8,172.37,562.32,169.48" fill="none" stroke="#b90995" stroke-miterlimit="10" stroke-width="6.957" opacity="0.683"/>
          <path id="Path_236" data-name="Path 236" d="M-30.443,3949.8C50.072,4034.351,193.1,4073.682,328.8,4089.924c88.585,10.818,176.685,11.532,253.863,14.227,46.25,1.615,92.691,4.956,139.425,9.729,161.2,16.44,322.244,60.176,459.145,133.345,89.941,48.171,170.091,106.774,260.037,158.353,186.217,106.783,413.948,151.51,630.186,160.436,178.689,7.3,353-4.908,527.593-7.707q54.648-.877,109.592-.318c156.058,1.928,318.806,15.177,476.284,48.834,57.042,12.194,112.995,27.014,167.086,45.69,194.326,67.143,359.428,181.179,563.137,181.137" fill="none" stroke="#bc0897" stroke-miterlimit="10" stroke-width="6.98" opacity="0.707"/>
          <path id="Path_237" data-name="Path 237" d="M-33.248,3962.17C49,4046.327,191.623,4083.6,326.736,4097.781c88.157,9.458,175.829,8.916,253.521,10.823q69.22,1.7,139.095,8.615c160.793,15.729,321.172,60.9,456.575,136.446,88.972,49.735,167.757,110.374,256.854,163.065,185.77,109.864,414.948,153.868,632.329,160.511,179.653,5.416,354.915-9.75,530.593-15.309q54.987-1.743,110.271-2c157-.382,320.813,11.1,478.776,45.124,57.223,12.327,113.313,27.565,167.481,46.954,194.614,69.7,359.054,189.987,563.954,192.792" fill="none" stroke="#be089a" stroke-miterlimit="10" stroke-width="7.003" opacity="0.732"/>
          <path id="Path_238" data-name="Path 238" d="M-36.053,3974.541c83.976,83.761,226.2,118.973,360.725,131.1,87.729,8.1,175.038,4.077,253.18,7.421,46.005,1.969,92.277,3.14,138.763,7.5,160.382,15.019,320.1,61.628,454.006,139.547,88,51.3,165.416,113.981,253.671,167.779,185.308,112.959,415.947,156.225,634.472,160.586,180.618,3.534,356.832-14.593,533.594-22.913q55.326-2.607,110.95-3.69c157.939-2.691,322.818,7.027,481.268,41.415,57.4,12.461,113.629,28.117,167.875,48.218,194.9,72.262,358.679,198.795,564.771,204.448" fill="none" stroke="#c0089d" stroke-miterlimit="10" stroke-width="7.026" opacity="0.756"/>
          <path id="Path_239" data-name="Path 239" d="M-38.857,3986.912c85.7,83.366,227.525,116.518,361.464,126.582,87.3,6.739,174.157,1.63,252.839,4.018,45.92,1.394,92.071,2.231,138.433,6.384,159.971,14.308,319.027,62.353,451.436,142.648,87.033,52.864,163.068,117.594,250.489,172.492,184.828,116.07,416.946,158.582,636.614,160.66,181.583,1.653,358.749-19.435,536.594-30.516,37.111-2.314,74.3-4.175,111.63-5.375,158.88-5,324.824,2.951,483.759,37.7,57.583,12.594,113.947,28.668,168.27,49.481,195.189,74.822,358.3,207.6,565.588,216.1" fill="none" stroke="#c308a0" stroke-miterlimit="10" stroke-width="7.049" opacity="0.78"/>
          <path id="Path_240" data-name="Path 240" d="M-41.662,3999.283c87.435,82.97,228.852,114.064,362.2,122.067,86.875,5.38,173.28-.793,252.5.616,45.834.815,91.864,1.322,138.1,5.268,159.559,13.6,317.955,63.079,448.866,145.749,86.064,54.429,160.713,121.213,247.306,177.206,184.333,119.195,417.945,160.939,638.758,160.734,182.546-.228,360.665-24.277,539.594-38.119,37.337-2.889,74.751-5.32,112.308-7.061,159.821-7.31,326.83-1.124,486.251,34,57.763,12.727,114.265,29.22,168.665,50.745,195.477,77.382,357.93,216.412,566.4,227.76" fill="none" stroke="#c508a3" stroke-miterlimit="10" stroke-width="7.071" opacity="0.805"/>
          <path id="Path_241" data-name="Path 241" d="M-44.467,4011.654c89.165,82.575,230.179,111.609,362.946,117.553,86.447,4.02,172.419-1.466,252.156-2.787,45.74-.758,91.657.414,137.772,4.153,159.148,12.888,316.882,63.8,446.3,148.85,85.095,55.992,158.35,124.836,244.124,181.919,183.819,122.336,418.943,163.3,640.9,160.809,183.511-2.109,362.583-29.12,542.594-45.722,37.564-3.466,75.2-6.466,112.988-8.747,160.761-9.62,328.836-5.2,488.742,30.286,57.944,12.861,114.582,29.771,169.06,52.009,195.765,79.941,357.555,225.22,567.222,239.416" fill="none" stroke="#c708a6" stroke-miterlimit="10" stroke-width="7.094" opacity="0.829"/>
          <path id="Path_242" data-name="Path 242" d="M-47.271,4024.024c90.894,82.18,231.5,109.155,363.686,113.039,86.019,2.661,171.571-4.042,251.814-6.19a1328.67,1328.67,0,0,1,137.441,3.038c158.737,12.178,315.81,64.53,443.727,151.951,84.126,57.557,155.98,128.464,240.941,186.633,183.289,125.49,419.943,165.653,643.043,160.883,184.476-3.99,364.5-33.962,545.6-53.325,37.79-4.042,75.657-7.611,113.667-10.433,161.7-11.929,330.841-9.274,491.233,26.577,58.124,12.994,114.9,30.323,169.455,53.272,196.052,82.5,357.18,234.029,568.039,251.072" fill="none" stroke="#ca08a9" stroke-miterlimit="10" stroke-width="7.117" opacity="0.854"/>
          <path id="Path_243" data-name="Path 243" d="M-50.076,4036.4c92.625,81.785,232.832,106.7,364.426,108.525,85.592,1.3,170.727-6.611,251.473-9.593a1253.649,1253.649,0,0,1,137.111,1.923c158.325,11.467,314.738,65.256,441.158,155.052,83.155,59.121,153.6,132.1,237.758,191.346,182.739,128.657,420.941,168.01,645.186,160.958,185.439-5.872,366.416-38.805,548.6-60.929,38.015-4.617,76.109-8.756,114.346-12.118,162.641-14.239,332.847-13.35,493.725,22.867,58.3,13.127,115.216,30.874,169.849,54.536,196.34,85.061,356.8,242.837,568.856,262.728" fill="none" stroke="#cc08ac" stroke-miterlimit="10" stroke-width="7.14" opacity="0.878"/>
          <path id="Path_244" data-name="Path 244" d="M-52.881,4048.766c94.355,81.389,234.159,104.245,365.167,104.01,85.164-.058,169.883-9.171,251.132-13,45.449-2.139,91.037-2.312,136.78.807,157.914,10.758,313.665,65.982,438.588,158.153,82.186,60.686,151.215,135.734,234.575,196.06,182.172,131.836,421.94,170.367,647.329,161.032,186.4-7.753,368.333-43.647,551.595-68.532,38.242-5.193,76.563-9.9,115.025-13.8,163.583-16.549,334.853-17.425,496.217,19.158,58.484,13.261,115.534,31.426,170.244,55.8,196.628,87.62,356.431,251.645,569.674,274.384" fill="none" stroke="#cf07ae" stroke-miterlimit="10" stroke-width="7.163" opacity="0.902"/>
          <path id="Path_245" data-name="Path 245" d="M-55.685,4061.137c96.084,80.993,235.485,101.791,365.907,99.5,84.736-1.418,169.043-11.724,250.79-16.4,45.355-2.593,90.83-3.22,136.449-.308,157.5,10.047,312.593,66.707,436.019,161.254,81.217,62.249,148.822,139.374,231.392,200.773,181.586,135.028,422.94,172.724,649.472,161.106,187.368-9.633,370.251-48.489,554.6-76.134,38.468-5.77,77.016-11.046,115.7-15.49,164.523-18.859,336.859-21.5,498.708,15.448,58.665,13.394,115.852,31.977,170.639,57.063,196.916,90.181,356.056,260.454,570.491,286.04" fill="none" stroke="#d107b1" stroke-miterlimit="10" stroke-width="7.186" opacity="0.927"/>
          <path id="Path_246" data-name="Path 246" d="M-58.49,4073.508c97.814,80.6,236.812,99.336,366.647,94.981,84.31-2.777,168.206-14.269,250.449-19.8,45.264-3.044,90.624-4.128,136.119-1.422,157.092,9.336,311.52,67.432,433.449,164.354,80.248,63.814,146.42,143.018,228.21,205.487,180.98,138.231,423.938,175.081,651.615,161.181,188.332-11.515,372.167-53.332,557.595-83.738,38.7-6.346,77.469-12.191,116.384-17.176,165.463-21.168,338.864-25.576,501.2,11.739,58.845,13.527,116.169,32.529,171.034,58.327,197.2,92.74,355.681,269.262,571.308,297.7" fill="none" stroke="#d307b4" stroke-miterlimit="10" stroke-width="7.208" opacity="0.951"/>
          <path id="Path_247" data-name="Path 247" d="M-61.295,4085.879c99.544,80.2,238.14,96.881,367.388,90.467,83.882-4.137,167.383-16.662,250.108-23.2,45.179-3.412,90.416-5.037,135.788-2.538,156.68,8.626,310.448,68.158,430.879,167.456,79.279,65.378,143.9,146.805,225.027,210.2C1528,4670.02,1772.833,4705.7,2001.653,4689.515c189.3-13.4,374.084-58.174,560.6-91.341,38.921-6.921,77.922-13.336,117.063-18.861,166.4-23.478,340.87-29.651,503.69,8.029,59.026,13.661,116.487,33.08,171.429,59.591,197.491,95.3,355.307,278.07,572.125,309.351" fill="none" stroke="#d607b7" stroke-miterlimit="10" stroke-width="7.231" opacity="0.976"/>
          <path id="Path_248" data-name="Path 248" d="M-64.1,4098.249c101.274,79.808,239.467,94.427,368.129,85.953s256.448-36.783,385.224-30.259c156.269,7.916,309.375,68.884,428.309,170.556,78.309,66.943,141.593,150.312,221.845,214.914,179.711,144.667,425.936,179.795,655.9,161.33s453.325-84.355,681.338-119.492,471.228-37.137,678.006,65.174c197.779,97.86,354.932,286.879,572.942,321.008" fill="none" stroke="#d807ba" stroke-miterlimit="10" stroke-width="7.254"/>
        </g>
        <g id="Group_121" data-name="Group 121" opacity="0.18">
          <path id="Path_249" data-name="Path 249" d="M4049.424,3736.71c-55.67,167.414-473.42,338.266-640.33,395.427-347.346,118.953-728.334,54.828-1093.083,96.75-377.487,43.386-732.362,200.007-1069.4,375.456-167.606,87.249-337.066,181.188-524.053,208.4-251.223,36.555-504.2-52-730.627-166.8" fill="none" stroke="#770c44" stroke-miterlimit="10" stroke-width="6.663" opacity="0"/>
          <path id="Path_250" data-name="Path 250" d="M4052.187,3749.8c-35.327,100.328-199.571,200.181-361.136,275.736-106.8,49.969-212.532,89.356-279.491,111.336a1263.7,1263.7,0,0,1-157.426,40.854c-182.7,35.6-372.089,36.5-560.757,40.722-123.532,2.772-246.743,6.939-368.59,22.334-206.658,26.866-408.349,84.119-603.735,158.035-160.893,60.856-317.681,133.1-470.973,209.4-31.979,15.917-64.025,32.081-96.244,48.016-137.838,68.19-278.984,132.209-431.067,154.642a888.042,888.042,0,0,1-164.7,8.421c-196.346-7.7-389.047-74.824-567.414-161.618" fill="none" stroke="#790c47" stroke-miterlimit="10" stroke-width="6.687" opacity="0.024"/>
          <path id="Path_251" data-name="Path 251" d="M4054.95,3762.887c-37.145,99.885-200.931,197.572-361.845,270.965-106.331,48.542-211.682,86.294-279.078,107.753a1357.161,1357.161,0,0,1-157.06,39.684c-182.255,34.855-370.97,37.284-558.1,44.032-122.534,4.437-244.426,10.245-365.308,27.354-206.39,29.21-409.439,86.588-606,158.079-161.88,58.857-319.626,127.968-474.017,201.337-32.209,15.306-64.485,30.866-96.934,46.227C1017.823,4724.059,875.582,4786.2,722.98,4809.01a951.1,951.1,0,0,1-165.131,9.747c-196.689-5-388.79-65.529-568.458-149.339" fill="none" stroke="#7c0c4a" stroke-miterlimit="10" stroke-width="6.711" opacity="0.049"/>
          <path id="Path_252" data-name="Path 252" d="M4057.714,3775.976c-38.963,99.44-202.292,194.963-362.556,266.193-105.858,47.115-210.784,83.365-278.664,104.17a1440.851,1440.851,0,0,1-156.694,38.513c-181.81,34.113-369.851,38.067-555.435,47.342-121.536,6.1-242.084,13.784-362.026,32.374-206.082,31.942-410.53,89.059-608.256,158.125-162.868,56.858-321.572,122.832-477.063,193.273-32.438,14.694-64.944,29.651-97.623,44.438-139.748,63.29-283.085,123.553-436.2,146.741a1023.383,1023.383,0,0,1-165.567,11.074c-197.033-2.311-388.533-56.235-569.5-137.061" fill="none" stroke="#7e0c4d" stroke-miterlimit="10" stroke-width="6.735" opacity="0.073"/>
          <path id="Path_253" data-name="Path 253" d="M4060.477,3789.065c-40.781,99-203.652,192.354-363.265,261.421-105.386,45.689-209.883,80.441-278.251,100.588a1536.05,1536.05,0,0,1-156.328,37.341c-181.365,33.371-368.731,38.849-552.774,50.653-120.539,7.766-239.746,17.334-358.744,37.394-205.78,34.69-411.62,91.528-610.517,158.17-163.855,54.859-323.517,117.7-480.107,185.208-32.667,14.084-65.4,28.437-98.313,42.65-140.7,60.84-285.136,119.224-438.774,142.791a1106.892,1106.892,0,0,1-166,12.4c-197.376.383-388.276-46.942-570.547-124.783" fill="none" stroke="#800c50" stroke-miterlimit="10" stroke-width="6.759" opacity="0.098"/>
          <path id="Path_254" data-name="Path 254" d="M4063.241,3802.154c-42.6,98.552-205.013,189.744-363.976,256.649-104.914,44.262-208.976,77.522-277.837,97.005q-77.236,21.852-155.962,36.171c-180.92,32.627-367.612,39.631-550.114,53.963-119.54,9.43-237.409,20.9-355.46,42.414-205.486,37.455-412.711,94-612.779,158.214-164.842,52.861-325.463,112.559-483.151,177.144-32.9,13.473-65.864,27.223-99,40.862-141.659,58.39-287.187,114.9-441.343,138.84a1204.176,1204.176,0,0,1-166.439,13.726c-197.72,3.079-388.019-37.647-571.592-112.5" fill="none" stroke="#830b52" stroke-miterlimit="10" stroke-width="6.783" opacity="0.122"/>
          <path id="Path_255" data-name="Path 255" d="M4066,3815.243c-44.417,98.108-206.373,187.135-364.685,251.877-104.442,42.835-208.067,74.607-277.424,93.422-51.4,13.943-103.161,25.732-155.6,35-180.476,31.885-366.492,40.413-547.453,57.273-118.543,11.1-235.075,24.471-352.178,47.435-205.2,40.238-413.8,96.467-615.039,158.259-165.831,50.862-327.409,107.423-486.2,169.079-33.127,12.862-66.324,26.008-99.693,39.074-142.614,55.94-289.238,110.566-443.912,134.889A1319.07,1319.07,0,0,1,556.953,4816.6c-198.064,5.773-387.762-28.353-572.636-100.227" fill="none" stroke="#850b55" stroke-miterlimit="10" stroke-width="6.808" opacity="0.146"/>
          <path id="Path_256" data-name="Path 256" d="M4068.768,3828.331c-46.235,97.664-207.735,184.527-365.4,247.106-103.969,41.408-207.153,71.7-277.011,89.839-51.3,13.322-102.928,24.778-155.229,33.83-180.031,31.142-365.373,41.194-544.792,60.583-117.545,12.76-232.743,28.058-348.9,52.455-204.912,43.039-414.892,98.937-617.3,158.3-166.818,48.863-329.354,102.286-489.24,161.014-33.356,12.251-66.784,24.794-100.383,37.286-143.57,53.49-291.289,106.237-446.481,130.938a1456.587,1456.587,0,0,1-167.311,16.379c-198.407,8.468-387.505-19.059-573.681-87.948" fill="none" stroke="#880b58" stroke-miterlimit="10" stroke-width="6.832" opacity="0.171"/>
          <path id="Path_257" data-name="Path 257" d="M4071.531,3841.42c-48.053,97.22-209.095,181.917-366.1,242.334-103.5,39.981-206.236,68.795-276.6,86.256-51.2,12.707-102.7,23.823-154.863,32.659-179.586,30.4-364.253,41.977-542.131,63.893-116.548,14.425-230.412,31.658-345.614,57.475-204.631,45.86-415.982,101.407-619.561,158.349-167.805,46.865-331.3,97.15-492.284,152.95-33.586,11.641-67.244,23.58-101.072,35.5-144.526,51.039-293.341,101.908-449.051,126.988a1624.624,1624.624,0,0,1-167.747,17.705c-198.751,11.163-387.249-9.765-574.725-75.671" fill="none" stroke="#8a0b5b" stroke-miterlimit="10" stroke-width="6.856" opacity="0.195"/>
          <path id="Path_258" data-name="Path 258" d="M4074.294,3854.509c-49.87,96.776-210.455,179.308-366.815,237.562-103.025,38.554-205.314,65.9-276.184,82.673-51.1,12.1-102.464,22.869-154.5,31.488-179.141,29.658-363.134,42.759-539.47,67.2-115.55,16.09-228.083,35.269-342.332,62.5-204.354,48.7-417.072,103.877-621.822,158.394-168.792,44.866-333.244,92.014-495.328,144.886-33.816,11.029-67.7,22.364-101.762,33.709-145.482,48.589-295.392,97.579-451.62,123.037-56.5,9.209-112.707,15.182-168.183,19.032-199.1,13.857-386.992-.471-575.77-63.393" fill="none" stroke="#8c0b5e" stroke-miterlimit="10" stroke-width="6.88" opacity="0.22"/>
          <path id="Path_259" data-name="Path 259" d="M4077.058,3867.6c-51.689,96.332-211.816,176.7-367.525,232.79-102.553,37.127-204.39,63-275.771,79.091-51,11.492-102.232,21.913-154.131,30.317-178.7,28.915-362.015,43.541-536.809,70.513-114.553,17.755-225.754,38.894-339.05,67.516-204.078,51.556-418.162,106.347-624.082,158.439-169.78,42.867-335.19,86.877-498.373,136.821-34.046,10.418-68.164,21.15-102.452,31.921-146.437,46.139-297.443,93.251-454.189,119.086-56.689,9.347-113.051,15.758-168.619,20.358-199.438,16.552-386.735,8.823-576.814-51.114" fill="none" stroke="#8f0b61" stroke-miterlimit="10" stroke-width="6.904" opacity="0.244"/>
          <path id="Path_260" data-name="Path 260" d="M4079.821,3880.687c-53.506,95.888-213.176,174.089-368.235,228.017-102.081,35.7-203.463,60.12-275.357,75.509-50.9,10.893-102,20.958-153.765,29.146-178.252,28.172-360.9,44.323-534.148,73.824-113.555,19.419-223.425,42.531-335.768,72.536-203.8,54.433-419.253,108.816-626.343,158.483-170.767,40.868-337.135,81.741-501.417,128.757-34.275,9.807-68.624,19.936-103.142,30.133-147.392,43.689-299.494,88.922-456.758,115.136-56.881,9.484-113.394,16.334-169.055,21.684-199.782,19.247-386.478,18.117-577.859-38.836" fill="none" stroke="#910b64" stroke-miterlimit="10" stroke-width="6.928" opacity="0.268"/>
          <path id="Path_261" data-name="Path 261" d="M4082.585,3893.776c-55.325,95.443-214.537,171.48-368.946,223.245-101.608,34.274-202.532,57.241-274.943,71.926-50.788,10.3-101.768,20-153.4,27.975-177.807,27.43-359.776,45.1-531.487,77.134-112.558,21.084-221.1,46.18-332.486,77.556-203.53,57.33-420.343,111.287-628.6,158.529-171.754,38.869-339.08,76.6-504.462,120.692-34.5,9.2-69.083,18.721-103.831,28.345-148.348,41.238-301.545,84.593-459.326,111.185-57.074,9.622-113.738,16.911-169.492,23.01-200.125,21.942-386.221,27.412-578.9-26.558" fill="none" stroke="#930b67" stroke-miterlimit="10" stroke-width="6.952" opacity="0.293"/>
          <path id="Path_262" data-name="Path 262" d="M4085.348,3906.864c-57.142,95-215.9,168.872-369.655,218.474-101.136,32.847-201.6,54.367-274.531,68.343-50.677,9.711-101.535,19.049-153.032,26.8-177.362,26.687-358.656,45.887-528.826,80.444-111.56,22.749-218.765,49.841-329.2,82.576-203.256,60.247-421.433,113.756-630.864,158.573-172.742,36.871-341.026,71.469-507.507,112.628q-52.1,12.879-104.521,26.557c-149.3,38.788-303.6,80.264-461.9,107.234-57.266,9.76-114.082,17.488-169.928,24.337-200.469,24.636-385.964,36.705-579.948-14.28" fill="none" stroke="#960a69" stroke-miterlimit="10" stroke-width="6.976" opacity="0.317"/>
          <path id="Path_263" data-name="Path 263" d="M4088.111,3919.953c-58.96,94.556-217.258,166.262-370.365,213.7-100.664,31.42-200.664,51.5-274.117,64.76-50.566,9.128-101.3,18.095-152.666,25.634-176.917,25.945-357.537,46.669-526.165,83.755-110.562,24.413-216.434,53.514-325.922,87.6-202.98,63.184-422.523,116.226-633.125,158.618-173.729,34.872-342.972,66.332-510.551,104.564q-52.444,11.961-105.211,24.768c-150.258,36.338-305.647,75.935-464.464,103.283-57.458,9.9-114.425,18.065-170.364,25.664-200.813,27.33-385.707,46-580.992-2" fill="none" stroke="#980a6c" stroke-miterlimit="10" stroke-width="7" opacity="0.341"/>
          <path id="Path_264" data-name="Path 264" d="M4090.875,3933.042c-60.778,94.112-218.619,163.653-371.075,208.93-100.192,29.993-199.727,48.641-273.7,61.177-50.453,8.55-101.07,17.14-152.3,24.463-176.472,25.2-356.417,47.451-523.5,87.065-109.564,26.078-214.1,57.2-322.639,92.617-202.7,66.142-423.614,118.695-635.386,158.663-174.716,32.873-344.917,61.2-513.595,96.5q-52.789,11.046-105.9,22.98c-151.214,33.888-307.7,71.606-467.033,99.333-57.65,10.035-114.768,18.641-170.8,26.989-201.156,30.026-385.45,55.294-582.037,10.277" fill="none" stroke="#9a0a6f" stroke-miterlimit="10" stroke-width="7.024" opacity="0.366"/>
          <path id="Path_265" data-name="Path 265" d="M4093.638,3946.131c-62.6,93.668-219.979,161.044-371.785,204.158-99.719,28.566-198.787,45.788-273.29,57.594-50.338,7.977-100.838,16.185-151.934,23.293-176.028,24.459-355.3,48.233-520.844,90.375-108.566,27.743-211.765,60.9-319.357,97.637-202.42,69.12-424.7,121.165-637.646,158.707-175.7,30.875-346.863,56.06-516.64,88.435q-53.134,10.129-106.59,21.192c-152.17,31.437-309.75,67.277-469.6,95.382-57.842,10.173-115.111,19.217-171.236,28.316-201.5,32.72-385.193,64.588-583.081,22.554" fill="none" stroke="#9d0a72" stroke-miterlimit="10" stroke-width="7.048" opacity="0.39"/>
          <path id="Path_266" data-name="Path 266" d="M4096.4,3959.22c-64.414,93.223-221.34,158.434-372.495,199.386-99.247,27.139-197.846,42.942-272.877,54.012-50.223,7.409-100.606,15.23-151.568,22.121-175.583,23.717-354.178,49.015-518.183,93.685-107.569,29.408-209.427,64.607-316.075,102.657C2263.07,4503.2,2039.41,4554.716,1825.3,4589.834c-176.691,28.876-348.808,50.923-519.684,80.37q-53.478,9.213-107.28,19.4c-153.126,28.987-311.8,62.949-472.172,91.431-58.034,10.311-115.455,19.794-171.672,29.642-201.844,35.415-384.936,73.882-584.126,34.833" fill="none" stroke="#9f0a75" stroke-miterlimit="10" stroke-width="7.072" opacity="0.415"/>
          <path id="Path_267" data-name="Path 267" d="M4099.165,3972.308c-66.232,92.78-222.7,155.826-373.205,194.615-98.775,25.712-196.9,40.1-272.463,50.429-50.106,6.846-100.374,14.275-151.2,20.951-175.138,22.974-353.059,49.8-515.522,96.995-106.571,31.072-207.086,68.327-312.792,107.677-201.845,75.138-426.885,126.1-642.169,158.8-177.678,26.877-350.753,45.787-522.728,72.305q-53.823,8.3-107.97,17.616c-154.081,26.537-313.852,58.62-474.741,87.48-58.227,10.449-115.8,20.371-172.108,30.969-202.187,38.11-384.68,83.176-585.17,47.111" fill="none" stroke="#a20a78" stroke-miterlimit="10" stroke-width="7.096" opacity="0.439"/>
          <path id="Path_268" data-name="Path 268" d="M4101.929,3985.4c-68.05,92.336-224.062,153.216-373.915,189.843-98.3,24.286-195.958,37.273-272.051,46.846-49.987,6.289-100.141,13.32-150.835,19.78-174.693,22.232-351.94,50.579-512.861,100.3-105.574,32.737-204.742,72.059-309.51,112.7-201.547,78.178-427.976,128.574-644.43,158.842-178.665,24.879-352.7,40.651-525.772,64.242q-54.168,7.38-108.66,15.827c-155.036,24.087-315.9,54.291-477.31,83.53-58.419,10.586-116.141,20.947-172.544,32.295-202.531,40.8-384.423,92.47-586.215,59.389" fill="none" stroke="#a40a7b" stroke-miterlimit="10" stroke-width="7.121" opacity="0.463"/>
          <path id="Path_269" data-name="Path 269" d="M4104.692,3998.486c-69.868,91.892-225.422,150.607-374.625,185.071-97.83,22.859-195.013,34.449-271.637,43.263-49.869,5.737-99.909,12.366-150.469,18.609-174.248,21.49-350.82,51.361-510.2,103.616-104.576,34.4-202.4,75.8-306.228,117.718-201.243,81.239-429.066,131.044-646.69,158.887-179.653,22.879-354.644,35.514-528.817,56.177q-54.513,6.464-109.35,14.039c-155.992,21.637-317.954,49.962-479.879,79.579-58.611,10.724-116.484,21.524-172.98,33.621-202.874,43.5-384.166,101.764-587.259,71.667" fill="none" stroke="#a60a7e" stroke-miterlimit="10" stroke-width="7.145" opacity="0.488"/>
          <path id="Path_270" data-name="Path 270" d="M4107.455,4011.575c-71.685,91.447-226.782,148-375.334,180.3-97.359,21.432-194.067,31.633-271.224,39.68-49.75,5.189-99.677,11.411-150.1,17.439-173.8,20.746-349.7,52.143-507.539,106.926-103.579,36.066-200.042,79.554-302.946,122.738-200.931,84.32-430.156,133.513-648.951,158.932-180.64,20.88-356.589,30.378-531.862,48.112q-54.855,5.547-110.039,12.251c-156.947,19.186-320.005,45.633-482.448,75.628-58.8,10.862-116.828,22.1-173.416,34.948-203.218,46.194-383.909,111.058-588.3,83.945" fill="none" stroke="#a90980" stroke-miterlimit="10" stroke-width="7.169" opacity="0.512"/>
          <path id="Path_271" data-name="Path 271" d="M4110.219,4024.664c-73.5,91-228.143,145.388-376.045,175.526-96.886,20.006-193.119,28.825-270.81,36.1-49.63,4.647-99.445,10.457-149.737,16.268-173.359,20-348.581,52.925-504.878,110.236-102.581,37.731-197.686,83.318-299.664,127.758-200.61,87.422-431.246,135.984-651.212,158.977-181.627,18.882-358.535,25.242-534.906,40.048q-55.2,4.63-110.729,10.463c-157.9,16.736-322.056,41.3-485.016,71.677-59,11-117.172,22.677-173.853,36.274-203.562,48.889-383.652,120.353-589.348,96.224" fill="none" stroke="#ab0983" stroke-miterlimit="10" stroke-width="7.193" opacity="0.537"/>
          <path id="Path_272" data-name="Path 272" d="M4112.982,4037.753c-75.321,90.559-229.5,142.779-376.754,170.754-96.414,18.579-192.172,26.024-270.4,32.516-49.511,4.108-99.213,9.5-149.371,15.1-172.914,19.262-347.462,53.708-502.217,113.547-101.584,39.4-195.324,87.092-296.382,132.778-200.279,90.543-432.337,138.453-653.472,159.022-182.615,16.883-360.481,20.1-537.951,31.983q-55.545,3.715-111.419,8.675c-158.858,14.286-324.107,36.975-487.585,67.727-59.188,11.137-117.515,23.253-174.289,37.6-203.905,51.583-383.4,129.646-590.393,108.5" fill="none" stroke="#ad0986" stroke-miterlimit="10" stroke-width="7.217" opacity="0.561"/>
          <path id="Path_273" data-name="Path 273" d="M4115.746,4050.841c-77.139,90.116-230.864,140.171-377.465,165.983-95.942,17.152-191.224,23.232-269.983,28.933-49.391,3.575-98.98,8.546-149.005,13.926-172.469,18.519-346.342,54.489-499.556,116.856-100.586,41.061-192.958,90.875-293.1,137.8C2326.7,4608.023,2093.21,4655.261,1870.9,4673.4c-183.6,14.884-362.426,14.969-540.995,23.918q-55.889,2.8-112.109,6.887c-159.813,11.836-326.158,32.647-490.154,63.776-59.38,11.275-117.858,23.83-174.725,38.927-204.249,54.278-383.138,138.94-591.437,120.779" fill="none" stroke="#b00989" stroke-miterlimit="10" stroke-width="7.241" opacity="0.585"/>
          <path id="Path_274" data-name="Path 274" d="M4118.509,4063.93c-78.957,89.672-232.225,137.561-378.174,161.211-95.47,15.725-190.277,20.447-269.571,25.35-49.271,3.047-98.747,7.592-148.638,12.755-172.024,17.777-345.223,55.271-496.9,120.167-99.587,42.725-190.584,94.667-289.817,142.819-199.584,96.846-434.517,143.392-657.994,159.111-184.589,12.886-364.371,9.833-544.039,15.855q-56.234,1.881-112.8,5.1c-160.77,9.385-328.21,28.318-492.724,59.825-59.572,11.413-118.2,24.407-175.161,40.253C348.1,4863.347,169.816,4954.609-39.785,4939.432" fill="none" stroke="#b2098c" stroke-miterlimit="10" stroke-width="7.265" opacity="0.61"/>
          <path id="Path_275" data-name="Path 275" d="M4121.273,4077.019c-80.775,89.227-233.586,134.952-378.885,156.439-95,14.3-189.33,17.67-269.157,21.767-49.151,2.523-98.515,6.637-148.272,11.585-171.58,17.034-344.1,56.053-494.235,123.476-98.59,44.391-188.206,98.469-286.535,147.84-199.218,100.026-435.608,145.862-660.254,159.156-185.578,10.887-366.317,4.7-547.084,7.79q-56.578.966-113.488,3.31c-161.725,6.935-330.261,23.989-495.293,55.875-59.764,11.55-118.545,24.982-175.6,41.579C347.537,4865.5,169.849,4963.364-41.053,4951.172" fill="none" stroke="#b5098f" stroke-miterlimit="10" stroke-width="7.289" opacity="0.634"/>
          <path id="Path_276" data-name="Path 276" d="M4124.036,4090.108c-82.593,88.783-234.946,132.343-379.594,151.667-94.526,12.871-188.384,14.9-268.744,18.184-49.032,2-98.283,5.682-147.906,10.414-171.135,16.291-342.984,56.835-491.574,126.787-97.592,46.055-185.822,102.279-283.253,152.859-198.839,103.226-436.7,148.332-662.515,159.2-186.565,8.889-368.262-.439-550.128-.274q-56.923.05-114.178,1.522c-162.68,4.485-332.312,19.66-497.862,51.924-59.957,11.688-118.888,25.559-176.033,42.9-205.28,62.363-382.368,166.823-594.571,157.615" fill="none" stroke="#b70992" stroke-miterlimit="10" stroke-width="7.313" opacity="0.659"/>
          <path id="Path_277" data-name="Path 277" d="M4126.8,4103.2c-84.41,88.339-236.306,129.733-380.3,146.9-94.053,11.444-187.437,12.14-268.33,14.6-48.914,1.489-98.051,4.728-147.54,9.243-170.69,15.549-341.865,57.618-488.913,130.1-96.595,47.72-183.431,106.1-279.971,157.88-198.446,106.444-437.788,150.8-664.776,159.246-187.552,6.89-370.207-5.576-553.172-8.339q-57.267-.866-114.868-.266c-163.636,2.035-334.363,15.331-500.431,47.973-60.149,11.826-119.231,26.136-176.469,44.232C346.4,4869.816,169.914,4980.876-43.59,4974.651" fill="none" stroke="#b90995" stroke-miterlimit="10" stroke-width="7.337" opacity="0.683"/>
          <path id="Path_278" data-name="Path 278" d="M4129.563,4116.285c-86.229,87.9-237.667,127.125-381.014,142.124-93.581,10.017-186.493,9.388-267.917,11.019-48.8.977-97.819,3.772-147.174,8.072-170.245,14.806-340.745,58.4-486.252,133.407-95.6,49.384-181.033,109.923-276.689,162.9-198.038,109.68-438.878,153.271-667.037,159.291-188.539,4.89-372.152-10.713-556.216-16.4q-57.612-1.783-115.558-2.054c-164.591-.416-336.414,11-503,44.022-60.341,11.964-119.575,26.713-176.9,45.558-205.967,67.752-381.854,185.411-596.66,182.171" fill="none" stroke="#bc0897" stroke-miterlimit="10" stroke-width="7.361" opacity="0.707"/>
          <path id="Path_279" data-name="Path 279" d="M4132.326,4129.374c-88.046,87.451-239.028,124.516-381.724,137.352-93.109,8.59-185.549,6.644-267.5,7.436q-73.019.7-146.808,6.9c-169.8,14.064-339.626,59.181-483.591,136.718-94.6,51.049-178.629,113.755-273.407,167.92-197.614,112.934-439.969,155.741-669.3,159.335-189.527,2.892-374.1-15.848-559.262-24.467q-57.955-2.7-116.247-3.843c-165.546-2.866-338.465,6.673-505.569,40.072-60.533,12.1-119.918,27.289-177.341,46.884-206.311,70.447-381.6,194.705-597.7,194.449" fill="none" stroke="#be089a" stroke-miterlimit="10" stroke-width="7.385" opacity="0.732"/>
          <path id="Path_280" data-name="Path 280" d="M4135.09,4142.463c-89.865,87.007-240.389,121.906-382.434,132.58-92.637,7.163-184.607,3.908-267.091,3.853q-72.843-.048-146.441,5.73c-169.356,13.322-338.506,59.964-480.93,140.028-93.6,52.714-176.217,117.6-270.124,172.941-197.176,116.2-441.06,158.21-671.559,159.38-190.514.893-376.044-20.985-562.306-32.532q-58.3-3.616-116.937-5.631c-166.5-5.316-340.516,2.345-508.138,36.121-60.725,12.239-120.261,27.866-177.777,48.211-206.654,73.141-381.34,204-598.749,206.726" fill="none" stroke="#c0089d" stroke-miterlimit="10" stroke-width="7.409" opacity="0.756"/>
          <path id="Path_281" data-name="Path 281" d="M4137.853,4155.552c-91.682,86.563-241.749,119.3-383.144,127.808-92.164,5.736-183.666,1.18-266.677.27q-72.671-.8-146.075,4.56c-168.911,12.578-337.387,60.745-478.269,143.338-92.6,54.378-173.8,121.442-266.842,177.96-196.719,119.494-442.15,160.681-673.82,159.426-191.5-1.106-377.989-26.122-565.35-40.6-39.1-3.022-78.28-5.569-117.627-7.42-167.457-7.765-342.567-1.983-510.706,32.171-60.918,12.377-120.605,28.442-178.214,49.537-207,75.836-381.083,213.293-599.793,219" fill="none" stroke="#c308a0" stroke-miterlimit="10" stroke-width="7.434" opacity="0.78"/>
          <path id="Path_282" data-name="Path 282" d="M4140.617,4168.641c-93.5,86.119-243.11,116.688-383.854,123.035-91.693,4.311-182.727-1.539-266.264-3.312-48.333-1.025-96.889-.046-145.709,3.389-168.466,11.836-336.267,61.527-475.608,146.648-91.607,56.044-171.371,125.295-263.56,182.981-196.246,122.8-443.24,163.15-676.08,159.47-192.489-3.1-379.935-31.258-568.4-48.661-39.326-3.633-78.74-6.783-118.316-9.208-168.413-10.215-344.619-6.312-513.276,28.22-61.11,12.515-120.949,29.019-178.65,50.864C343.563,4880.6,170.079,5024.654-49.933,5033.35" fill="none" stroke="#c508a3" stroke-miterlimit="10" stroke-width="7.458" opacity="0.805"/>
          <path id="Path_283" data-name="Path 283" d="M4143.38,4181.73c-95.318,85.675-244.47,114.078-384.564,118.263-91.22,2.884-181.79-4.25-265.85-6.9-48.22-1.516-96.657-1-145.343,2.219-168.021,11.093-335.148,62.309-472.947,149.958-90.61,57.708-168.936,129.153-260.278,188-195.754,126.116-444.331,165.62-678.341,159.515-193.476-5.1-381.88-36.394-571.439-56.726-39.555-4.243-79.2-8-119.006-11-169.369-12.666-346.67-10.641-515.845,24.27-61.3,12.652-121.292,29.6-179.086,52.189C343,4882.754,170.112,5033.41-51.2,5045.09" fill="none" stroke="#c708a6" stroke-miterlimit="10" stroke-width="7.482" opacity="0.829"/>
          <path id="Path_284" data-name="Path 284" d="M4146.143,4194.818c-97.136,85.231-245.83,111.47-385.273,113.492-90.748,1.457-180.856-6.954-265.437-10.477a1400.97,1400.97,0,0,0-144.977,1.047c-167.576,10.351-334.029,63.091-470.286,153.268-89.612,59.373-166.494,133.016-257,193.022-195.243,129.45-445.421,168.089-680.6,159.56-194.463-7.1-383.825-41.531-574.483-64.79-39.785-4.855-79.659-9.213-119.7-12.785-170.324-15.116-348.721-14.97-518.414,20.319-61.494,12.79-121.635,30.172-179.522,53.516-208.029,83.92-380.312,241.175-602.927,255.839" fill="none" stroke="#ca08a9" stroke-miterlimit="10" stroke-width="7.506" opacity="0.854"/>
          <path id="Path_285" data-name="Path 285" d="M4148.907,4207.907c-98.954,84.787-247.192,108.861-385.984,108.72-90.275.03-179.924-9.649-265.023-14.06-48-2.488-96.193-2.911-144.611-.124-167.132,9.609-332.909,63.874-467.626,156.579-88.613,61.037-164.042,136.884-253.713,198.041-194.714,132.8-446.511,170.56-682.862,159.6-195.451-9.1-385.771-46.667-577.528-72.854-40.015-5.466-80.119-10.427-120.386-14.573-171.28-17.566-350.772-19.3-520.983,16.368-61.686,12.928-121.979,30.749-179.958,54.843-208.372,86.615-380.055,250.469-603.972,268.117" fill="none" stroke="#cc08ac" stroke-miterlimit="10" stroke-width="7.53" opacity="0.878"/>
          <path id="Path_286" data-name="Path 286" d="M4151.67,4221c-100.772,84.343-248.552,106.251-386.693,103.948-89.8-1.4-179-12.336-264.611-17.643-47.891-2.969-95.96-3.866-144.244-1.294-166.687,8.865-331.79,64.655-464.965,159.888-87.616,62.7-161.583,140.757-250.431,203.062-194.166,136.161-447.6,173.029-685.123,159.65-196.438-11.1-387.716-51.8-580.572-80.919-40.245-6.076-80.579-11.641-121.076-16.361-172.235-20.016-352.823-23.628-523.552,12.418-61.879,13.065-122.322,31.324-180.394,56.168-208.716,89.31-379.8,259.764-605.016,280.4" fill="none" stroke="#cf07ae" stroke-miterlimit="10" stroke-width="7.554" opacity="0.902"/>
          <path id="Path_287" data-name="Path 287" d="M4154.434,4234.085c-102.59,83.9-249.913,103.642-387.4,99.176-89.331-2.824-178.069-15.015-264.2-21.226-47.785-3.446-95.728-4.82-143.878-2.465-166.242,8.123-330.67,65.437-462.3,163.2-86.618,64.367-159.116,144.633-247.149,208.082-193.6,139.536-448.692,175.5-687.384,159.694-197.425-13.1-389.662-56.939-583.616-88.983-40.474-6.687-81.039-12.855-121.766-18.149-173.19-22.467-354.874-27.956-526.121,8.467-62.071,13.2-122.665,31.9-180.83,57.5-209.06,92-379.542,269.057-606.061,292.674" fill="none" stroke="#d107b1" stroke-miterlimit="10" stroke-width="7.578" opacity="0.927"/>
          <path id="Path_288" data-name="Path 288" d="M4157.2,4247.174c-104.408,83.454-251.273,101.033-388.113,94.4-88.859-4.251-177.146-17.686-263.784-24.809-47.681-3.92-95.5-5.775-143.512-3.636-165.8,7.381-329.551,66.22-459.643,166.51-85.621,66.031-156.641,148.512-243.867,213.1-193.009,142.922-449.782,177.968-689.645,159.739-198.412-15.1-391.607-62.076-586.661-97.048-40.7-7.3-81.5-14.07-122.455-19.937-174.146-24.917-356.925-32.285-528.69,4.516-62.263,13.341-123.008,32.478-181.266,58.821-209.4,94.7-379.285,278.352-607.1,304.952" fill="none" stroke="#d307b4" stroke-miterlimit="10" stroke-width="7.602" opacity="0.951"/>
          <path id="Path_289" data-name="Path 289" d="M4159.96,4260.262c-106.225,83.011-252.633,98.424-388.823,89.633-88.387-5.678-176.241-20.195-263.37-28.392-47.587-4.307-95.264-6.73-143.146-4.806-165.352,6.638-328.431,67-456.982,169.819-84.623,67.7-154.042,152.546-240.585,218.123-192.144,146.657-450.872,180.438-691.9,159.784-199.4-17.1-393.553-67.212-589.706-105.112-40.933-7.91-81.958-15.285-123.145-21.726-175.1-27.367-358.976-36.614-531.259.565-62.455,13.479-123.352,33.055-181.7,60.148-209.747,97.394-379.028,287.646-608.15,317.23" fill="none" stroke="#d607b7" stroke-miterlimit="10" stroke-width="7.626" opacity="0.976"/>
          <path id="Path_290" data-name="Path 290" d="M4162.724,4273.351c-108.044,82.567-253.994,95.815-389.533,84.861s-269.844-42.811-405.737-37.952c-164.908,5.9-327.312,67.784-454.321,173.13-83.626,69.361-151.665,156.28-237.3,223.142-191.771,149.73-451.962,182.908-694.166,159.829s-476.7-96.062-716.584-136.69-496.319-46.553-715.967,58.089C339.022,4897.848,170.342,5094.7-60.081,5127.268" fill="none" stroke="#d807ba" stroke-miterlimit="10" stroke-width="7.65"/>
        </g>
      </g>
    </g>
  </g>
</svg>
