<svg xmlns="http://www.w3.org/2000/svg" width="18.491" height="23.49" viewBox="0 0 18.491 23.49">
  <g id="Group_157" data-name="Group 157" transform="translate(-1077.711 -5230.076)">
    <path id="Path_303" data-name="Path 303" d="M1086.942,5253.566c-1.629-1.919-3.264-3.826-4.878-5.751a40.1,40.1,0,0,1-2.9-3.6,9.082,9.082,0,0,1,.293-10.273,9.233,9.233,0,0,1,16.637,4.028,8.78,8.78,0,0,1-1.93,7.115c-2.317,2.81-4.7,5.565-7.058,8.343A1.452,1.452,0,0,1,1086.942,5253.566Zm.009-18.351a3.783,3.783,0,0,0-3.787,3.777,3.8,3.8,0,1,0,7.6-.027A3.781,3.781,0,0,0,1086.951,5235.215Z" fill="#df0982"/>
  </g>
</svg>
