<svg xmlns="http://www.w3.org/2000/svg" width="20.517" height="20.48" viewBox="0 0 20.517 20.48">
  <g id="Group_158" data-name="Group 158" transform="translate(-1076.698 -5321.371)">
    <path id="Path_304" data-name="Path 304" d="M1076.7,5325.528a9.919,9.919,0,0,1,.306-1.274,4.1,4.1,0,0,1,4.554-2.847.718.718,0,0,1,.463.3q1.282,2.1,2.524,4.229a1.27,1.27,0,0,1-.239,1.556,15.13,15.13,0,0,1-1.176,1.008c-.209.177-.429.343-.622.536a.712.712,0,0,0-.116.949,14.969,14.969,0,0,0,6.22,6.194.666.666,0,0,0,.9-.106c.348-.381.654-.8,1-1.186a4.909,4.909,0,0,1,.757-.721,1.287,1.287,0,0,1,1.464-.077c1.218.689,2.427,1.394,3.643,2.086a1.857,1.857,0,0,1,.839,1.244v.641a2.6,2.6,0,0,0-.082.255,3.81,3.81,0,0,1-2.361,2.872,7.8,7.8,0,0,1-5.488.3,20.873,20.873,0,0,1-11.865-11.156,18.855,18.855,0,0,1-.687-2.61Z" fill="#df0982"/>
  </g>
</svg>
