<svg xmlns="http://www.w3.org/2000/svg" width="51.616" height="53.828" viewBox="0 0 51.616 53.828">
  <path id="Path_298" data-name="Path 298" d="M243.409,5433.835c-3.847,0-7.694.051-11.54-.011a14.361,14.361,0,0,1-14.18-14.4q-.245-12.467,0-24.944c.15-7.755,5.977-14.03,13.406-14.254q12.232-.371,24.483,0c7.554.226,13.4,6.6,13.51,14.467.122,8.216.136,16.437,0,24.652a14.507,14.507,0,0,1-14.138,14.493c-3.846.069-7.694.012-11.54.012Zm-21.08-26.883c0,3.814-.044,7.628.011,11.441.088,6.266,4.058,10.47,10.1,10.543q10.971.133,21.945,0c5.9-.073,9.942-4.207,10.029-10.32.11-7.723.095-15.451.006-23.175-.07-6.106-4.15-10.313-9.97-10.363-7.315-.063-14.63-.053-21.945-.006-6.048.039-10.066,4.18-10.165,10.444C222.28,5399.324,222.329,5403.138,222.329,5406.952Z" transform="translate(-217.568 -5380.041)" fill="#df0982"/>
  <path id="Path_301" data-name="Path 301" d="M244.457,5393.133a13.87,13.87,0,1,1-13.838,14.016A13.788,13.788,0,0,1,244.457,5393.133Zm8.974,13.764a8.961,8.961,0,1,0-8.879,9.032A9.075,9.075,0,0,0,253.431,5406.9Z" transform="translate(-217.568 -5380.041)" fill="#df0982"/>
  <path id="Path_302" data-name="Path 302" d="M255.8,5393.449c.19-3,1.195-4.288,3.308-4.306a2.955,2.955,0,0,1,3.212,3.073c.075,2.06-1.182,3.546-3.2,3.279C257.811,5395.322,256.652,5394.007,255.8,5393.449Z" transform="translate(-217.568 -5380.041)" fill="#df0982"/>
</svg>
