<svg xmlns="http://www.w3.org/2000/svg" width="52.349" height="51.742" viewBox="0 0 52.349 51.742">
  <path id="Path_297" data-name="Path 297" d="M643.461,5433.686h-10.4v-34.471h10.232c.09,1.151.178,2.278.295,3.784.686-.627,1.211-1.089,1.716-1.572,3.906-3.735,8.577-3.978,13.429-2.7,4.494,1.181,6.761,4.643,7.48,8.919a78.905,78.905,0,0,1,.771,11.086c.121,4.879.03,9.764.03,14.881H655.79q0-8.03,0-16.046a35.753,35.753,0,0,0-.1-4.4c-.344-2.7-1.446-4.908-4.5-5.381a5.773,5.773,0,0,0-6.628,4.081,27.2,27.2,0,0,0-1.049,6.91C643.355,5423.651,643.461,5428.533,643.461,5433.686Z" transform="translate(-614.693 -5381.979)" fill="#df0982"/>
  <path id="Path_299" data-name="Path 299" d="M626.146,5433.721H615.925v-34.437h10.221Z" transform="translate(-614.693 -5381.979)" fill="#df0982"/>
  <path id="Path_300" data-name="Path 300" d="M621.083,5394.519a6.27,6.27,0,1,1-.175-12.539,6.271,6.271,0,1,1,.175,12.539Z" transform="translate(-614.693 -5381.979)" fill="#df0982"/>
</svg>
