<svg xmlns="http://www.w3.org/2000/svg" width="21.234" height="14.863" viewBox="0 0 21.234 14.863">
  <g id="Group_159" data-name="Group 159" transform="translate(-1076.339 -5379.173)">
    <path id="Path_305" data-name="Path 305" d="M1086.956,5394.036h-7.416a3.2,3.2,0,0,1-3.165-2.7,3.056,3.056,0,0,1-.034-.469q0-4.262,0-8.522a3.179,3.179,0,0,1,2.82-3.144,3.985,3.985,0,0,1,.425-.025h14.787a3.2,3.2,0,0,1,3.166,2.7,3.058,3.058,0,0,1,.034.469q0,4.261,0,8.521a3.18,3.18,0,0,1-2.82,3.145,4.006,4.006,0,0,1-.426.025Q1090.641,5394.038,1086.956,5394.036Zm8.494-11.275c-.06.034-.1.053-.135.075q-3.879,2.323-7.759,4.648a1.088,1.088,0,0,1-1.207,0q-3.84-2.3-7.683-4.6l-.2-.122v8.03a1.065,1.065,0,0,0,1.126,1.127h14.728a1.066,1.066,0,0,0,1.133-1.135v-8.017Zm-15.261-1.457a.385.385,0,0,0,.046.037q3.3,1.98,6.609,3.962a.2.2,0,0,0,.236-.008q2.78-1.668,5.561-3.332l1.1-.659Z" fill="#df0982"/>
  </g>
</svg>
