<svg version="1.2" xmlns="http://www.w3.org/2000/svg" viewBox="0 0 91 65" width="91" height="65">
	<style>
		.s0 { fill: #df0982 } 
	</style>
	<g id="&lt;Group&gt;">
		<path id="&lt;Path&gt;" class="s0" d="m84.07 14.4h-76.21c-3.22 0-5.83-2.61-5.83-5.83 0-3.22 2.61-5.83 5.83-5.83h76.21c3.22 0 5.83 2.61 5.83 5.83 0 3.22-2.61 5.83-5.83 5.83z"/>
		<path id="&lt;Path&gt;" class="s0" d="m84.07 38.53h-76.21c-3.22 0-5.83-2.61-5.83-5.83 0-3.22 2.61-5.83 5.83-5.83h76.21c3.22 0 5.83 2.61 5.83 5.83 0 3.22-2.61 5.83-5.83 5.83z"/>
		<path id="&lt;Path&gt;" class="s0" d="m84.07 62.66h-76.21c-3.22 0-5.83-2.61-5.83-5.83 0-3.22 2.61-5.83 5.83-5.83h76.21c3.22 0 5.83 2.61 5.83 5.83 0 3.22-2.61 5.83-5.83 5.83z"/>
	</g>
</svg>