<svg xmlns="http://www.w3.org/2000/svg" width="56.661" height="47.321" viewBox="0 0 56.661 47.321">
  <path id="Path_295" data-name="Path 295" d="M414.872,5428.544c5.793.1,10.93-.98,15.381-4.557-2.139-.957-4.384-1.542-6.083-2.841-1.679-1.284-2.805-3.289-4.6-5.5l4.495-.319c-1.937-1.559-4.1-2.761-5.482-4.565s-2-4.232-3.24-7.046l5.482,1.017c-4.713-4.75-5.944-9.688-3.121-15.694,6.485,7.1,14.108,11.685,23.929,12.111.109-1.677.085-3.131.314-4.544,1.327-8.2,10.587-12.783,17.477-8.209,3.111,2.064,5.454,1.72,8.271.321a2.938,2.938,0,0,1,2.115-.238l-3.79,5.447,5.513-1.16c-1.593,1.732-2.548,3.238-3.9,4.129-1.749,1.147-1.991,2.548-2.017,4.424-.346,25.058-28.692,40.869-50.171,28.017C415.3,5429.249,415.225,5429.045,414.872,5428.544Z" transform="translate(-414.872 -5386.583)" fill="#df0982"/>
</svg>
