<svg xmlns="http://www.w3.org/2000/svg" width="24.201" height="24.192" viewBox="0 0 24.201 24.192">
  <g id="Group_160" data-name="Group 160" transform="translate(-1074.856 -5435.757)">
    <path id="Path_306" data-name="Path 306" d="M1086.977,5435.757a12.1,12.1,0,1,1-12.121,12.076A12.06,12.06,0,0,1,1086.977,5435.757Zm-.024,21.552a9.472,9.472,0,1,0-9.461-9.448A9.467,9.467,0,0,0,1086.953,5457.309Z" fill="#df0982"/>
    <path id="Path_307" data-name="Path 307" d="M1085.971,5445.562c0-.869,0-1.739,0-2.608,0-.7.325-1.194,1.062-1.167.685.025.969.515.969,1.173,0,1.44-.026,2.88.021,4.317a1.691,1.691,0,0,0,.423,1.006c.855.923,1.769,1.792,2.659,2.683.785.786.913,1.336.432,1.839s-1.088.38-1.841-.369c-.977-.973-1.928-1.975-2.939-2.912a2.192,2.192,0,0,1-.8-1.894C1086.012,5446.944,1085.971,5446.252,1085.971,5445.562Z" fill="#df0982"/>
  </g>
</svg>
