<svg xmlns="http://www.w3.org/2000/svg" width="64.547" height="45.241" viewBox="0 0 64.547 45.241">
  <path id="Path_294" data-name="Path 294" d="M541.321,5388.6c7.042,0,14.088-.162,21.123.044,7.546.221,10.317,2.449,10.675,9.865.436,9.053.146,18.157-.21,27.223-.179,4.556-3.273,7.1-8.308,7.443-5.363.363-10.747.628-16.121.6-10.071-.046-20.148-.184-30.211-.573-6.337-.245-9.045-2.968-9.251-9.385-.269-8.388-.325-16.8-.02-25.185.255-7.017,2.99-9.668,10.029-9.936,7.422-.283,14.863-.064,22.3-.064Zm-6.66,32.33,16.848-9.922-16.848-9.9Z" transform="translate(-508.792 -5388.54)" fill="#df0982"/>
</svg>
