<svg version="1.2" xmlns="http://www.w3.org/2000/svg" viewBox="0 0 260 107" width="260" height="107">
	<style>
		.s0 { fill: #df0982 } 
		.s1 { fill: #ffffff } 
	</style>
	<g id="&lt;Group&gt;">
		<path id="&lt;Path&gt;" class="s0" d="m0.77 2.74h257.35v102.94h-257.35z"/>
		<path id="&lt;Compound Path&gt;" class="s1" d="m183.73 87.17v-52.77q0-6.94 3.02-10.66 3.02-3.71 8.59-3.71 4.19-0.01 7.57 2.38 3.4 2.38 6.01 7.28l7.49 13.77q0.46 0.85 2.49 5.35 0.1 0.19 0.14 0.33v-27.98h20.59v53.56q0 6.77-2.94 10.23-2.96 3.45-8.68 3.45-4 0-7.16-2.19-3.15-2.18-5.6-6.6l-8.31-14.88q-0.18-0.34-1.2-2.59-0.92-2.03-1.52-3.36v28.39zm-60.64 0v-37.77q-0.01-13.46 7.14-21.38 7.15-7.9 19-7.9 11.92 0 19.11 7.94 7.15 7.92 7.16 21.34v37.77h-20.68v-20.78h-8.6v-17.28h8.6v-1.98q-0.01-3.3-1.45-5.1-1.47-1.79-4.14-1.79-2.59-0.01-3.98 1.76-1.39 1.77-1.39 5.13v40.04zm-43.47-66.01h20.78v41.14q-0.01 3.28 1.62 4.86 1.61 1.59 4.88 1.59h9.84v18.42h-12.78q-12.45 0-18.39-5.72-5.95-5.73-5.95-17.72zm-60.35 66.01v-37.77q0-13.46 7.14-21.37 7.15-7.91 19-7.91 11.93 0 19.11 7.94 7.15 7.92 7.16 21.34v37.77h-20.68v-20.78h-8.6v-17.28h8.6v-1.98q-0.01-3.3-1.45-5.1-1.47-1.79-4.14-1.79-2.59-0.01-3.98 1.76-1.39 1.78-1.39 5.13v40.04z"/>
	</g>
	<g id="&lt;Group&gt;">
		<path id="&lt;Path&gt;" class="s0" d="m0.77 2.74h257.35v102.94h-257.35z"/>
		<path id="&lt;Compound Path&gt;" class="s1" d="m183.73 87.17v-52.77q0-6.94 3.02-10.66 3.02-3.71 8.59-3.71 4.19-0.01 7.57 2.38 3.4 2.38 6.01 7.28l7.49 13.77q0.46 0.85 2.49 5.35 0.1 0.19 0.14 0.33v-27.98h20.59v53.56q0 6.77-2.94 10.23-2.96 3.45-8.68 3.45-4 0-7.16-2.19-3.15-2.18-5.6-6.6l-8.31-14.88q-0.18-0.34-1.2-2.59-0.92-2.03-1.52-3.36v28.39zm-60.64 0v-37.77q-0.01-13.46 7.14-21.38 7.15-7.9 19-7.9 11.92 0 19.11 7.94 7.15 7.92 7.16 21.34v37.77h-20.68v-20.78h-8.6v-17.28h8.6v-1.98q-0.01-3.3-1.45-5.1-1.47-1.79-4.14-1.79-2.59-0.01-3.98 1.76-1.39 1.77-1.39 5.13v40.04zm-43.47-66.01h20.78v41.14q-0.01 3.28 1.62 4.86 1.61 1.59 4.88 1.59h9.84v18.42h-12.78q-12.45 0-18.39-5.72-5.95-5.73-5.95-17.72zm-60.35 66.01v-37.77q0-13.46 7.14-21.37 7.15-7.91 19-7.91 11.93 0 19.11 7.94 7.15 7.92 7.16 21.34v37.77h-20.68v-20.78h-8.6v-17.28h8.6v-1.98q-0.01-3.3-1.45-5.1-1.47-1.79-4.14-1.79-2.59-0.01-3.98 1.76-1.39 1.78-1.39 5.13v40.04z"/>
	</g>
</svg>