<?xml version="1.0" encoding="utf-8"?>
<!-- Generator: Adobe Illustrator 24.0.0, SVG Export Plug-In . SVG Version: 6.00 Build 0)  -->
<svg version="1.1" id="Layer_1" xmlns="http://www.w3.org/2000/svg" xmlns:xlink="http://www.w3.org/1999/xlink" x="0px" y="0px"
	 viewBox="0 0 578.5 7.5" style="enable-background:new 0 0 578.5 7.5;" xml:space="preserve">
<path d="M5.2,7.3L3.6,4.6H1.5v2.7H0V0.2h3.5c2,0,3,0.7,3,2.2c0,0.5-0.1,0.9-0.3,1.2c-0.2,0.3-0.6,0.6-1,0.8l1.8,3H5.2z M3.4,3.4
	c0.5,0,0.9-0.1,1.2-0.2C4.8,3,4.9,2.8,4.9,2.4S4.8,1.8,4.6,1.6C4.3,1.5,4,1.4,3.4,1.4H1.5v2H3.4z M13,7.3V0.2h6v1.3h-4.4V3h4.2v1.3
	h-4.2V6h4.6L19,7.3H13z M32.1,7.3l-1.6-5.1l-1.6,5.1h-1.7l-2.4-7.1h1.8l1.6,5.3l1.7-5.2h1.5L33,5.5l1.6-5.3h1.7l-2.4,7.1H32.1z
	 M42.3,7.3V0.2h1.6v7.1H42.3z M56.3,7.3l-4.1-5v5h-1.5V0.2h1.5l4.1,5v-5h1.5v7.1H56.3z M64.5,7.3V0.2h3.2c1.4,0,2.4,0.3,3.1,0.9
	c0.7,0.6,1.1,1.5,1.1,2.7c0,1.1-0.4,2-1.1,2.6C70,7,68.9,7.3,67.5,7.3H64.5z M67.6,6c0.9,0,1.5-0.2,2-0.6C70,5,70.2,4.5,70.2,3.7
	c0-1.5-0.8-2.2-2.5-2.2h-1.7V6H67.6z M78.2,7.3V0.2h1.6v7.1H78.2z M92.2,7.3l-4.1-5v5h-1.5V0.2H88l4.1,5v-5h1.5v7.1H92.2z
	 M106.2,4.7h-2V3.4h3.5v3.1c-0.4,0.3-1,0.6-1.6,0.7c-0.6,0.2-1.2,0.3-1.9,0.3c-1.3,0-2.4-0.3-3.1-1c-0.7-0.7-1.1-1.6-1.1-2.7
	c0-0.8,0.2-1.4,0.5-2c0.3-0.6,0.8-1,1.4-1.3c0.6-0.3,1.3-0.5,2.2-0.5c0.9,0,1.7,0.2,2.3,0.6c0.6,0.4,1,0.9,1.2,1.6L106,2.4
	c-0.1-0.4-0.4-0.6-0.7-0.8c-0.3-0.2-0.7-0.3-1.2-0.3c-0.8,0-1.3,0.2-1.8,0.6c-0.4,0.4-0.6,1-0.6,1.8c0,0.8,0.2,1.4,0.7,1.8
	s1.1,0.6,1.9,0.6c0.8,0,1.5-0.1,2-0.4V4.7z M131.7,7.3V1.5h-2.8V0.2h7.2v1.3h-2.8v5.8H131.7z M149.7,3.8c0,0.8-0.2,1.4-0.5,2
	c-0.3,0.6-0.8,1-1.4,1.3c-0.6,0.3-1.4,0.5-2.2,0.5c-0.8,0-1.6-0.1-2.2-0.4c-0.6-0.3-1.1-0.7-1.4-1.3c-0.3-0.6-0.5-1.2-0.5-2
	c0-0.8,0.2-1.4,0.5-2c0.3-0.6,0.8-1,1.4-1.3c0.6-0.3,1.4-0.5,2.2-0.5c0.8,0,1.5,0.1,2.2,0.4c0.6,0.3,1.1,0.7,1.4,1.3
	C149.5,2.3,149.7,3,149.7,3.8z M148.1,3.8c0-0.8-0.2-1.4-0.6-1.8c-0.4-0.4-1-0.6-1.8-0.6c-0.8,0-1.4,0.2-1.8,0.6
	c-0.4,0.4-0.6,1-0.6,1.8c0,0.8,0.2,1.4,0.6,1.8c0.4,0.4,1,0.6,1.8,0.6c0.8,0,1.4-0.2,1.8-0.6C147.8,5.1,148.1,4.5,148.1,3.8z
	 M173.7,7.3V1.5h-2.8V0.2h7.2v1.3h-2.8v5.8H173.7z M189.3,7.3l-1.6-2.7h-2.1v2.7h-1.5V0.2h3.5c2,0,3,0.7,3,2.2
	c0,0.5-0.1,0.9-0.3,1.2c-0.2,0.3-0.6,0.6-1,0.8l1.8,3H189.3z M187.5,3.4c0.5,0,0.9-0.1,1.2-0.2c0.3-0.2,0.4-0.4,0.4-0.8
	s-0.1-0.6-0.4-0.8c-0.2-0.2-0.6-0.2-1.2-0.2h-1.9v2H187.5z M203,7.3l-0.7-1.6h-3.6L198,7.3h-1.7l3.3-7.1h1.8l3.3,7.1H203z
	 M200.5,1.6l-1.3,2.9h2.5L200.5,1.6z M210.7,7.3V0.2h3.2c1.4,0,2.4,0.3,3.1,0.9c0.7,0.6,1.1,1.5,1.1,2.7c0,1.1-0.4,2-1.1,2.6
	c-0.8,0.6-1.8,0.9-3.2,0.9H210.7z M213.8,6c0.9,0,1.5-0.2,2-0.6c0.4-0.4,0.7-0.9,0.7-1.7c0-1.5-0.8-2.2-2.5-2.2h-1.7V6H213.8z
	 M224.4,7.3V0.2h1.6v7.1H224.4z M234.8,7.3V1.5H232V0.2h7.2v1.3h-2.8v5.8H234.8z M245.2,7.3V0.2h1.6v7.1H245.2z M261.4,3.8
	c0,0.8-0.2,1.4-0.5,2c-0.3,0.6-0.8,1-1.4,1.3c-0.6,0.3-1.4,0.5-2.2,0.5c-0.8,0-1.6-0.1-2.2-0.4c-0.6-0.3-1.1-0.7-1.4-1.3
	c-0.3-0.6-0.5-1.2-0.5-2c0-0.8,0.2-1.4,0.5-2c0.3-0.6,0.8-1,1.4-1.3c0.6-0.3,1.4-0.5,2.2-0.5c0.8,0,1.5,0.1,2.2,0.4
	c0.6,0.3,1.1,0.7,1.4,1.3C261.2,2.3,261.4,3,261.4,3.8z M259.7,3.8c0-0.8-0.2-1.4-0.6-1.8c-0.4-0.4-1-0.6-1.8-0.6
	c-0.8,0-1.4,0.2-1.8,0.6c-0.4,0.4-0.6,1-0.6,1.8c0,0.8,0.2,1.4,0.6,1.8c0.4,0.4,1,0.6,1.8,0.6c0.8,0,1.4-0.2,1.8-0.6
	C259.5,5.1,259.7,4.5,259.7,3.8z M273.4,7.3l-4.1-5v5h-1.5V0.2h1.5l4.1,5v-5h1.5v7.1H273.4z M297.1,7.3V0.2h1.6v7.1H297.1z
	 M311.1,7.3l-4.1-5v5h-1.5V0.2h1.5l4.1,5v-5h1.5v7.1H311.1z M340.8,7.3L340,5.7h-3.6l-0.7,1.6h-1.6l3.3-7.1h1.8l3.3,7.1H340.8z
	 M338.2,1.6L337,4.4h2.5L338.2,1.6z M365.6,4.4v2.9H364V0.2h5.7v1.3h-4.1v1.6h3.9v1.3H365.6z M381,7.3l-0.7-1.6h-3.6L376,7.3h-1.6
	l3.3-7.1h1.8l3.3,7.1H381z M378.5,1.6l-1.3,2.9h2.5L378.5,1.6z M393.5,2.2c-0.1-0.3-0.4-0.6-0.6-0.7c-0.3-0.2-0.7-0.2-1.2-0.2
	c-0.6,0-1,0.1-1.3,0.2C390.1,1.6,390,1.8,390,2c0,0.3,0.1,0.4,0.3,0.6c0.2,0.1,0.5,0.2,1,0.3l1.5,0.2c0.9,0.1,1.5,0.4,1.9,0.7
	c0.4,0.3,0.6,0.8,0.6,1.4c0,0.7-0.3,1.2-0.9,1.6c-0.6,0.4-1.4,0.6-2.5,0.6c-0.8,0-1.5-0.1-2-0.3c-0.5-0.2-0.9-0.5-1.2-0.9
	c-0.3-0.4-0.4-0.9-0.5-1.4h1.6c0.1,0.5,0.3,0.8,0.6,1c0.3,0.2,0.8,0.3,1.5,0.3c0.6,0,1-0.1,1.3-0.2c0.3-0.2,0.5-0.4,0.5-0.7
	c0-0.2-0.1-0.4-0.3-0.6c-0.2-0.1-0.5-0.2-0.9-0.3l-1.2-0.2c-1-0.1-1.7-0.4-2.1-0.7c-0.4-0.4-0.7-0.8-0.7-1.5c0-0.4,0.1-0.8,0.4-1.1
	s0.7-0.6,1.2-0.7c0.5-0.2,1.1-0.3,1.8-0.3c1,0,1.7,0.2,2.3,0.5c0.5,0.3,0.9,0.8,1,1.5L393.5,2.2z M403.5,7.3V1.5h-2.8V0.2h7.2v1.3
	h-2.8v5.8H403.5z M431.1,4.4v2.9h-1.6V0.2h5.7v1.3h-4.1v1.6h3.9v1.3H431.1z M449.3,3.8c0,0.8-0.2,1.4-0.5,2c-0.3,0.6-0.8,1-1.4,1.3
	c-0.6,0.3-1.4,0.5-2.2,0.5c-0.8,0-1.6-0.1-2.2-0.4c-0.6-0.3-1.1-0.7-1.4-1.3c-0.3-0.6-0.5-1.2-0.5-2c0-0.8,0.2-1.4,0.5-2
	c0.3-0.6,0.8-1,1.4-1.3c0.6-0.3,1.4-0.5,2.2-0.5c0.8,0,1.5,0.1,2.2,0.4c0.6,0.3,1.1,0.7,1.4,1.3C449.1,2.3,449.3,3,449.3,3.8z
	 M447.6,3.8c0-0.8-0.2-1.4-0.6-1.8c-0.4-0.4-1-0.6-1.8-0.6c-0.8,0-1.4,0.2-1.8,0.6c-0.4,0.4-0.7,1-0.7,1.8c0,0.8,0.2,1.4,0.7,1.8
	c0.4,0.4,1,0.6,1.8,0.6c0.8,0,1.4-0.2,1.8-0.6C447.4,5.1,447.6,4.5,447.6,3.8z M460.8,7.3l-1.6-2.7h-2.1v2.7h-1.5V0.2h3.5
	c2,0,3,0.7,3,2.2c0,0.5-0.1,0.9-0.3,1.2c-0.2,0.3-0.6,0.6-1,0.8l1.8,3H460.8z M459,3.4c0.5,0,0.9-0.1,1.2-0.2
	c0.3-0.2,0.4-0.4,0.4-0.8s-0.1-0.6-0.4-0.8c-0.2-0.2-0.6-0.2-1.2-0.2h-1.9v2H459z M474.9,7.3l-1.6-5.1l-1.6,5.1H470l-2.4-7.1h1.8
	l1.6,5.3l1.7-5.2h1.5l1.7,5.2l1.6-5.3h1.7l-2.4,7.1H474.9z M490.2,7.3l-0.7-1.6h-3.6l-0.7,1.6h-1.6l3.3-7.1h1.8l3.3,7.1H490.2z
	 M487.7,1.6l-1.3,2.9h2.5L487.7,1.6z M503.1,7.3l-1.6-2.7h-2.1v2.7h-1.5V0.2h3.5c2,0,3,0.7,3,2.2c0,0.5-0.1,0.9-0.3,1.2
	c-0.2,0.3-0.6,0.6-1,0.8l1.8,3H503.1z M501.3,3.4c0.5,0,0.9-0.1,1.2-0.2c0.3-0.2,0.4-0.4,0.4-0.8s-0.1-0.6-0.4-0.8
	c-0.2-0.2-0.6-0.2-1.2-0.2h-1.9v2H501.3z M510.8,7.3V0.2h3.2c1.4,0,2.4,0.3,3.1,0.9c0.7,0.6,1.1,1.5,1.1,2.7c0,1.1-0.4,2-1.1,2.6
	c-0.8,0.6-1.8,0.9-3.2,0.9H510.8z M513.9,6c0.9,0,1.5-0.2,2-0.6c0.4-0.4,0.7-0.9,0.7-1.7c0-1.5-0.8-2.2-2.5-2.2h-1.7V6H513.9z
	 M540.2,7.3V0.2h1.6V6h4.4l-0.2,1.3H540.2z M552.2,7.3V0.2h1.6v7.1H552.2z M562.2,4.4v2.9h-1.6V0.2h5.7v1.3h-4.1v1.6h3.9v1.3H562.2z
	 M572.5,7.3V0.2h6v1.3h-4.4V3h4.2v1.3h-4.2V6h4.6l-0.2,1.3H572.5z"/>
</svg>
