<svg width="10" height="8" viewBox="0 0 10 8" fill="none" xmlns="http://www.w3.org/2000/svg">
<path d="M4.97527 0.999267C4.88332 1.00257 4.79304 1.02489 4.71013 1.06478C4.62722 1.10468 4.55346 1.16131 4.4935 1.2311L0.492195 5.90037C0.435236 5.96697 0.391954 6.04411 0.36482 6.12744C0.337686 6.21077 0.327233 6.29859 0.334057 6.38596C0.340881 6.47333 0.364849 6.55853 0.404591 6.63663C0.444334 6.71474 0.499073 6.78422 0.565682 6.84117C0.632291 6.89812 0.709466 6.94139 0.792799 6.96851C0.876132 6.99563 0.963991 7.00611 1.05136 6.99927C1.13873 6.99243 1.22389 6.96843 1.30199 6.92868C1.38008 6.88892 1.44959 6.83413 1.50652 6.76751L5.00001 2.68679L8.4935 6.76751C8.55043 6.83413 8.61993 6.88892 8.69803 6.92868C8.77613 6.96843 8.86129 6.99243 8.94866 6.99927C9.03603 7.00611 9.12389 6.99563 9.20722 6.96851C9.29055 6.94139 9.36773 6.89812 9.43433 6.84117C9.50094 6.78422 9.55568 6.71474 9.59543 6.63663C9.63517 6.55853 9.65914 6.47333 9.66596 6.38596C9.67278 6.29859 9.66233 6.21077 9.6352 6.12744C9.60806 6.04411 9.56478 5.96697 9.50782 5.90037L5.50652 1.2311C5.44113 1.15497 5.35939 1.09454 5.2674 1.0544C5.17542 1.01426 5.07556 0.995431 4.97527 0.999267Z" fill="white"/>
</svg>
